M48
;DRILL file {kicad (2014-10-27 BZR 5228)-product} date 12/17/2014 3:31:13 PM
;FORMAT={-:-/ absolute / inch / decimal}
FMAT,2
INCH,TZ
T1C0.025
T2C0.032
T3C0.035
T4C0.039
T5C0.040
%
G90
G05
M72
T1
X2.7874Y-2.2323
X2.7874Y-2.3543
X2.7874Y-2.4724
X2.7874Y-2.5866
X2.874Y-3.0157
X2.9213Y-2.5433
X3.Y-4.3622
X3.1024Y-2.6693
X3.1811Y-3.8504
X3.2913Y-4.1654
X3.3071Y-2.0709
X3.3228Y-2.4488
X3.378Y-4.2677
X3.378Y-4.4724
X3.4173Y-1.7953
X3.4882Y-4.0472
X3.5827Y-2.6772
X3.5984Y-1.7638
X3.6299Y-2.6378
X3.6772Y-2.5827
X3.7244Y-2.5433
X3.748Y-1.9685
X3.7638Y-1.7087
X3.7795Y-2.4882
X3.7953Y-4.1575
X4.0551Y-1.6772
X4.0551Y-2.937
X4.0787Y-4.8898
X4.2205Y-1.7638
X4.2362Y-2.3071
X4.2362Y-2.7402
X4.252Y-5.0157
X4.252Y-5.189
X4.2598Y-3.2441
X4.2598Y-3.4803
X4.2992Y-3.378
X4.3071Y-3.0394
X4.3228Y-4.1575
X4.3386Y-2.3465
X4.3937Y-2.4488
X4.4173Y-2.252
X4.4409Y-3.378
X4.4882Y-3.4173
X4.4882Y-3.7087
X4.5433Y-2.0394
X4.5669Y-2.8425
X4.5827Y-4.1575
X4.5984Y-1.6535
X4.6299Y-1.7717
X4.6929Y-2.0394
X4.748Y-3.7008
X4.7795Y-3.6142
X4.8189Y-3.4803
X4.874Y-3.7244
X4.9134Y-3.2756
X4.9213Y-2.0394
X5.0315Y-3.7244
X5.0472Y-1.7087
X5.0787Y-1.8819
X5.0945Y-4.9449
X5.1417Y-2.0394
X5.1654Y-1.9764
X5.2047Y-2.4016
X5.2047Y-2.6457
X5.2362Y-1.685
X5.3071Y-2.2362
X5.4803Y-4.8898
X5.4961Y-3.4882
X5.5276Y-4.9843
X5.5512Y-1.685
X5.5591Y-2.622
X5.8031Y-2.874
X5.811Y-4.3228
X5.8425Y-2.4291
X5.9016Y-2.6299
X6.0079Y-3.6378
X6.063Y-2.1102
X6.126Y-2.1102
X6.1496Y-3.5906
X6.2441Y-2.5748
X6.2598Y-1.9213
X6.3386Y-4.252
X6.378Y-2.0157
X6.4173Y-1.937
X6.4567Y-4.4252
X6.5118Y-2.7874
X6.5748Y-2.0079
X6.6614Y-2.7874
X6.811Y-3.
T2
X3.2594Y-4.4772
X3.2594Y-4.5772
X3.2594Y-4.6772
X3.2594Y-4.7772
X3.2594Y-4.8772
X3.3146Y-2.926
X3.3146Y-3.026
X3.3146Y-3.126
X3.3146Y-3.226
X3.3146Y-3.326
X3.4906Y-1.8661
X3.5594Y-4.4772
X3.5594Y-4.5772
X3.5594Y-4.6772
X3.5594Y-4.7772
X3.5594Y-4.8772
X3.5906Y-1.8661
X3.6146Y-2.926
X3.6146Y-3.026
X3.6146Y-3.126
X3.6146Y-3.226
X3.6146Y-3.326
X3.6906Y-1.8661
X3.8579Y-1.9492
X3.8579Y-2.0492
X3.8579Y-2.1492
X3.8579Y-2.2492
X3.8579Y-2.3492
X3.8579Y-2.4492
X3.8579Y-2.5492
X3.8579Y-2.6492
X3.8657Y-2.9339
X3.8657Y-3.0339
X3.8657Y-3.1339
X3.8657Y-3.2339
X3.8657Y-3.3339
X3.8657Y-4.4772
X3.8657Y-4.5772
X3.8657Y-4.6772
X3.8657Y-4.7772
X3.8657Y-4.8772
X4.1579Y-1.9492
X4.1579Y-2.0492
X4.1579Y-2.1492
X4.1579Y-2.2492
X4.1579Y-2.3492
X4.1579Y-2.4492
X4.1579Y-2.5492
X4.1579Y-2.6492
X4.1657Y-2.9339
X4.1657Y-3.0339
X4.1657Y-3.1339
X4.1657Y-3.2339
X4.1657Y-3.3339
X4.1657Y-4.4772
X4.1657Y-4.5772
X4.1657Y-4.6772
X4.1657Y-4.7772
X4.1657Y-4.8772
X4.5035Y-4.4693
X4.5035Y-4.5693
X4.5035Y-4.6693
X4.5035Y-4.7693
X4.5035Y-4.8693
X4.5193Y-2.926
X4.5193Y-3.026
X4.5193Y-3.126
X4.5193Y-3.226
X4.5193Y-3.326
X4.8035Y-4.4693
X4.8035Y-4.5693
X4.8035Y-4.6693
X4.8035Y-4.7693
X4.8035Y-4.8693
X4.8193Y-2.926
X4.8193Y-3.026
X4.8193Y-3.126
X4.8193Y-3.226
X4.8193Y-3.326
X4.824Y-2.622
X4.924Y-2.622
X5.102Y-2.926
X5.102Y-3.026
X5.102Y-3.126
X5.102Y-3.226
X5.102Y-3.326
X5.1098Y-4.4614
X5.1098Y-4.5614
X5.1098Y-4.6614
X5.1098Y-4.7614
X5.1098Y-4.8614
X5.402Y-2.926
X5.402Y-3.026
X5.402Y-3.126
X5.402Y-3.226
X5.402Y-3.326
X5.4098Y-4.4614
X5.4098Y-4.5614
X5.4098Y-4.6614
X5.4098Y-4.7614
X5.4098Y-4.8614
X5.563Y-1.9276
X5.563Y-2.0276
X5.563Y-2.1276
X5.7161Y-4.4772
X5.7161Y-4.5772
X5.7161Y-4.6772
X5.7161Y-4.7772
X5.7161Y-4.8772
X5.7555Y-2.9417
X5.7555Y-3.0417
X5.7555Y-3.1417
X5.7555Y-3.2417
X5.7555Y-3.3417
X6.0161Y-4.4772
X6.0161Y-4.5772
X6.0161Y-4.6772
X6.0161Y-4.7772
X6.0161Y-4.8772
X6.0555Y-2.9417
X6.0555Y-3.0417
X6.0555Y-3.1417
X6.0555Y-3.2417
X6.0555Y-3.3417
X6.0654Y-1.7402
X6.0654Y-2.3307
X6.1654Y-1.7402
X6.1654Y-2.3307
X6.2654Y-1.7402
X6.2654Y-2.3307
X6.2831Y-2.9339
X6.2831Y-3.0339
X6.2831Y-3.1339
X6.2831Y-3.2339
X6.2831Y-3.3339
X6.3067Y-4.4772
X6.3067Y-4.5772
X6.3067Y-4.6772
X6.3067Y-4.7772
X6.3067Y-4.8772
X6.3646Y-1.7402
X6.3724Y-2.315
X6.4646Y-1.7402
X6.4724Y-2.315
X6.5646Y-1.7402
X6.5724Y-2.315
X6.5831Y-2.9339
X6.5831Y-3.0339
X6.5831Y-3.1339
X6.5831Y-3.2339
X6.5831Y-3.3339
X6.6067Y-4.4772
X6.6067Y-4.5772
X6.6067Y-4.6772
X6.6067Y-4.7772
X6.6067Y-4.8772
X6.761Y-1.7008
X6.861Y-1.7008
T3
X3.Y-1.8504
X3.Y-1.9685
X3.0984Y-1.8504
X3.0984Y-1.9685
X3.1102Y-2.252
X3.1102Y-2.3701
X3.1969Y-1.8504
X3.1969Y-1.9685
X3.2087Y-2.252
X3.2087Y-2.3701
X3.3071Y-2.252
X3.3071Y-2.3701
X4.6772Y-2.1969
X4.6772Y-2.315
X4.7756Y-2.1969
X4.7756Y-2.315
X4.874Y-2.1969
X4.874Y-2.315
X6.748Y-1.937
X6.748Y-2.0354
X6.748Y-2.1339
X6.8661Y-1.937
X6.8661Y-2.0354
X6.8661Y-2.1339
T4
X3.4254Y-5.0986
X3.4254Y-5.3186
X3.4569Y-3.5553
X3.4569Y-3.7753
X3.4802Y-5.5554
X3.4802Y-5.7754
X3.6219Y-4.02
X3.6219Y-4.24
X4.0156Y-5.1066
X4.0156Y-5.3266
X4.0235Y-3.5554
X4.0235Y-3.7754
X4.0789Y-5.5553
X4.0789Y-5.7753
X4.1813Y-4.0198
X4.1813Y-4.2398
X4.6616Y-5.0986
X4.6616Y-5.3186
X4.6694Y-3.5553
X4.6694Y-3.7753
X4.7006Y-5.5554
X4.7006Y-5.7754
X4.7715Y-4.02
X4.7715Y-4.24
X5.2439Y-3.5554
X5.2439Y-3.7754
X5.2439Y-5.0909
X5.2439Y-5.3109
X5.2915Y-5.5474
X5.2915Y-5.7674
X5.3466Y-4.0198
X5.3466Y-4.2398
X5.8742Y-5.0986
X5.8742Y-5.3186
X5.9057Y-3.5474
X5.9057Y-3.7674
X5.9132Y-5.5554
X5.9132Y-5.7754
X5.9447Y-4.02
X5.9447Y-4.24
X6.4487Y-5.0987
X6.4487Y-5.3187
X6.4802Y-3.5554
X6.4802Y-3.7754
X6.4962Y-5.5553
X6.4962Y-5.7753
X6.5435Y-4.012
X6.5435Y-4.232
X6.9843Y-2.3858
X6.9843Y-2.7858
T5
X2.9815Y-4.5169
X2.9815Y-4.6169
X2.9843Y-4.8398
X2.9843Y-4.9398
X3.Y-3.5583
X3.Y-3.6583
X3.Y-3.7583
X3.Y-3.8583
X3.Y-3.9583
X3.Y-4.0583
X3.Y-4.1583
X3.0079Y-5.202
X3.0079Y-5.302
X3.013Y-2.5039
X3.0157Y-3.0866
X3.0815Y-4.5169
X3.0815Y-4.6169
X3.113Y-2.5039
X3.963Y-1.4646
X4.063Y-1.4646
X4.163Y-1.4646
T0
M30
