%FSLAX46Y46*%
G04 Gerber Fmt 4.6, Leading zero omitted, Abs format (unit mm)*
G04 Created by KiCad (PCBNEW (2014-10-27 BZR 5228)-product) date 13/01/2015 10:49:15*
%MOMM*%
G01*
G04 APERTURE LIST*
%ADD10C,0.100000*%
%ADD11C,0.150000*%
G04 APERTURE END LIST*
D10*
D11*
X143650000Y-58500000D02*
X143650000Y-59500000D01*
X141950000Y-59500000D02*
X141950000Y-58500000D01*
X149700000Y-78950000D02*
X148700000Y-78950000D01*
X148700000Y-77250000D02*
X149700000Y-77250000D01*
X152250000Y-81400000D02*
X152250000Y-80400000D01*
X153950000Y-80400000D02*
X153950000Y-81400000D01*
X171700000Y-80150000D02*
X170700000Y-80150000D01*
X170700000Y-78450000D02*
X171700000Y-78450000D01*
X174950000Y-80900000D02*
X174950000Y-79900000D01*
X176650000Y-79900000D02*
X176650000Y-80900000D01*
X132150000Y-47700000D02*
X132150000Y-46700000D01*
X133850000Y-46700000D02*
X133850000Y-47700000D01*
X162542600Y-57379500D02*
X163542600Y-57379500D01*
X163542600Y-59079500D02*
X162542600Y-59079500D01*
X177150000Y-39100000D02*
X177150000Y-40100000D01*
X175450000Y-40100000D02*
X175450000Y-39100000D01*
X179850000Y-39100000D02*
X179850000Y-40100000D01*
X178150000Y-40100000D02*
X178150000Y-39100000D01*
X174150000Y-39100000D02*
X174150000Y-40100000D01*
X172450000Y-40100000D02*
X172450000Y-39100000D01*
X167700080Y-37400260D02*
X171499920Y-37400260D01*
X167700080Y-42899360D02*
X167700080Y-37900640D01*
X171499920Y-42896820D02*
X171499920Y-37898100D01*
X166597720Y-36798280D02*
X167697540Y-36798280D01*
X167098100Y-36198840D02*
X167098100Y-37397720D01*
X177046000Y-57443000D02*
X178046000Y-57443000D01*
X178046000Y-59143000D02*
X177046000Y-59143000D01*
X170500000Y-62650000D02*
X169500000Y-62650000D01*
X169500000Y-60950000D02*
X170500000Y-60950000D01*
X137660000Y-69343000D02*
X137660000Y-67057000D01*
X137660000Y-67057000D02*
X139311000Y-67057000D01*
X141089000Y-69343000D02*
X142740000Y-69343000D01*
X142740000Y-69343000D02*
X142740000Y-67057000D01*
X142740000Y-67057000D02*
X141089000Y-67057000D01*
X139311000Y-69343000D02*
X137660000Y-69343000D01*
X143675000Y-63000000D02*
X143675000Y-61800000D01*
X141925000Y-61800000D02*
X141925000Y-63000000D01*
X153800000Y-64075000D02*
X155000000Y-64075000D01*
X155000000Y-62325000D02*
X153800000Y-62325000D01*
X152475000Y-59800000D02*
X152475000Y-58600000D01*
X150725000Y-58600000D02*
X150725000Y-59800000D01*
X154800000Y-59275000D02*
X156000000Y-59275000D01*
X156000000Y-57525000D02*
X154800000Y-57525000D01*
X175450000Y-68600000D02*
X175450000Y-69600000D01*
X173750000Y-69600000D02*
X173750000Y-68600000D01*
X145257143Y-58833334D02*
X145304762Y-58785715D01*
X145352381Y-58642858D01*
X145352381Y-58547620D01*
X145304762Y-58404762D01*
X145209524Y-58309524D01*
X145114286Y-58261905D01*
X144923810Y-58214286D01*
X144780952Y-58214286D01*
X144590476Y-58261905D01*
X144495238Y-58309524D01*
X144400000Y-58404762D01*
X144352381Y-58547620D01*
X144352381Y-58642858D01*
X144400000Y-58785715D01*
X144447619Y-58833334D01*
X144352381Y-59166667D02*
X144352381Y-59785715D01*
X144733333Y-59452381D01*
X144733333Y-59595239D01*
X144780952Y-59690477D01*
X144828571Y-59738096D01*
X144923810Y-59785715D01*
X145161905Y-59785715D01*
X145257143Y-59738096D01*
X145304762Y-59690477D01*
X145352381Y-59595239D01*
X145352381Y-59309524D01*
X145304762Y-59214286D01*
X145257143Y-59166667D01*
X149366666Y-80557143D02*
X149414285Y-80604762D01*
X149557142Y-80652381D01*
X149652380Y-80652381D01*
X149795238Y-80604762D01*
X149890476Y-80509524D01*
X149938095Y-80414286D01*
X149985714Y-80223810D01*
X149985714Y-80080952D01*
X149938095Y-79890476D01*
X149890476Y-79795238D01*
X149795238Y-79700000D01*
X149652380Y-79652381D01*
X149557142Y-79652381D01*
X149414285Y-79700000D01*
X149366666Y-79747619D01*
X148509523Y-79985714D02*
X148509523Y-80652381D01*
X148747619Y-79604762D02*
X148985714Y-80319048D01*
X148366666Y-80319048D01*
X151357143Y-80733334D02*
X151404762Y-80685715D01*
X151452381Y-80542858D01*
X151452381Y-80447620D01*
X151404762Y-80304762D01*
X151309524Y-80209524D01*
X151214286Y-80161905D01*
X151023810Y-80114286D01*
X150880952Y-80114286D01*
X150690476Y-80161905D01*
X150595238Y-80209524D01*
X150500000Y-80304762D01*
X150452381Y-80447620D01*
X150452381Y-80542858D01*
X150500000Y-80685715D01*
X150547619Y-80733334D01*
X150452381Y-81638096D02*
X150452381Y-81161905D01*
X150928571Y-81114286D01*
X150880952Y-81161905D01*
X150833333Y-81257143D01*
X150833333Y-81495239D01*
X150880952Y-81590477D01*
X150928571Y-81638096D01*
X151023810Y-81685715D01*
X151261905Y-81685715D01*
X151357143Y-81638096D01*
X151404762Y-81590477D01*
X151452381Y-81495239D01*
X151452381Y-81257143D01*
X151404762Y-81161905D01*
X151357143Y-81114286D01*
X171366666Y-81757143D02*
X171414285Y-81804762D01*
X171557142Y-81852381D01*
X171652380Y-81852381D01*
X171795238Y-81804762D01*
X171890476Y-81709524D01*
X171938095Y-81614286D01*
X171985714Y-81423810D01*
X171985714Y-81280952D01*
X171938095Y-81090476D01*
X171890476Y-80995238D01*
X171795238Y-80900000D01*
X171652380Y-80852381D01*
X171557142Y-80852381D01*
X171414285Y-80900000D01*
X171366666Y-80947619D01*
X170509523Y-80852381D02*
X170700000Y-80852381D01*
X170795238Y-80900000D01*
X170842857Y-80947619D01*
X170938095Y-81090476D01*
X170985714Y-81280952D01*
X170985714Y-81661905D01*
X170938095Y-81757143D01*
X170890476Y-81804762D01*
X170795238Y-81852381D01*
X170604761Y-81852381D01*
X170509523Y-81804762D01*
X170461904Y-81757143D01*
X170414285Y-81661905D01*
X170414285Y-81423810D01*
X170461904Y-81328571D01*
X170509523Y-81280952D01*
X170604761Y-81233333D01*
X170795238Y-81233333D01*
X170890476Y-81280952D01*
X170938095Y-81328571D01*
X170985714Y-81423810D01*
X174057143Y-80233334D02*
X174104762Y-80185715D01*
X174152381Y-80042858D01*
X174152381Y-79947620D01*
X174104762Y-79804762D01*
X174009524Y-79709524D01*
X173914286Y-79661905D01*
X173723810Y-79614286D01*
X173580952Y-79614286D01*
X173390476Y-79661905D01*
X173295238Y-79709524D01*
X173200000Y-79804762D01*
X173152381Y-79947620D01*
X173152381Y-80042858D01*
X173200000Y-80185715D01*
X173247619Y-80233334D01*
X173152381Y-80566667D02*
X173152381Y-81233334D01*
X174152381Y-80804762D01*
X131257143Y-46557143D02*
X131304762Y-46509524D01*
X131352381Y-46366667D01*
X131352381Y-46271429D01*
X131304762Y-46128571D01*
X131209524Y-46033333D01*
X131114286Y-45985714D01*
X130923810Y-45938095D01*
X130780952Y-45938095D01*
X130590476Y-45985714D01*
X130495238Y-46033333D01*
X130400000Y-46128571D01*
X130352381Y-46271429D01*
X130352381Y-46366667D01*
X130400000Y-46509524D01*
X130447619Y-46557143D01*
X131352381Y-47509524D02*
X131352381Y-46938095D01*
X131352381Y-47223809D02*
X130352381Y-47223809D01*
X130495238Y-47128571D01*
X130590476Y-47033333D01*
X130638095Y-46938095D01*
X130447619Y-47890476D02*
X130400000Y-47938095D01*
X130352381Y-48033333D01*
X130352381Y-48271429D01*
X130400000Y-48366667D01*
X130447619Y-48414286D01*
X130542857Y-48461905D01*
X130638095Y-48461905D01*
X130780952Y-48414286D01*
X131352381Y-47842857D01*
X131352381Y-48461905D01*
X163685457Y-56486643D02*
X163733076Y-56534262D01*
X163875933Y-56581881D01*
X163971171Y-56581881D01*
X164114029Y-56534262D01*
X164209267Y-56439024D01*
X164256886Y-56343786D01*
X164304505Y-56153310D01*
X164304505Y-56010452D01*
X164256886Y-55819976D01*
X164209267Y-55724738D01*
X164114029Y-55629500D01*
X163971171Y-55581881D01*
X163875933Y-55581881D01*
X163733076Y-55629500D01*
X163685457Y-55677119D01*
X162733076Y-56581881D02*
X163304505Y-56581881D01*
X163018791Y-56581881D02*
X163018791Y-55581881D01*
X163114029Y-55724738D01*
X163209267Y-55819976D01*
X163304505Y-55867595D01*
X162161648Y-56010452D02*
X162256886Y-55962833D01*
X162304505Y-55915214D01*
X162352124Y-55819976D01*
X162352124Y-55772357D01*
X162304505Y-55677119D01*
X162256886Y-55629500D01*
X162161648Y-55581881D01*
X161971171Y-55581881D01*
X161875933Y-55629500D01*
X161828314Y-55677119D01*
X161780695Y-55772357D01*
X161780695Y-55819976D01*
X161828314Y-55915214D01*
X161875933Y-55962833D01*
X161971171Y-56010452D01*
X162161648Y-56010452D01*
X162256886Y-56058071D01*
X162304505Y-56105690D01*
X162352124Y-56200929D01*
X162352124Y-56391405D01*
X162304505Y-56486643D01*
X162256886Y-56534262D01*
X162161648Y-56581881D01*
X161971171Y-56581881D01*
X161875933Y-56534262D01*
X161828314Y-56486643D01*
X161780695Y-56391405D01*
X161780695Y-56200929D01*
X161828314Y-56105690D01*
X161875933Y-56058071D01*
X161971171Y-56010452D01*
X176857143Y-42357143D02*
X176904762Y-42309524D01*
X176952381Y-42166667D01*
X176952381Y-42071429D01*
X176904762Y-41928571D01*
X176809524Y-41833333D01*
X176714286Y-41785714D01*
X176523810Y-41738095D01*
X176380952Y-41738095D01*
X176190476Y-41785714D01*
X176095238Y-41833333D01*
X176000000Y-41928571D01*
X175952381Y-42071429D01*
X175952381Y-42166667D01*
X176000000Y-42309524D01*
X176047619Y-42357143D01*
X176952381Y-43309524D02*
X176952381Y-42738095D01*
X176952381Y-43023809D02*
X175952381Y-43023809D01*
X176095238Y-42928571D01*
X176190476Y-42833333D01*
X176238095Y-42738095D01*
X176952381Y-43785714D02*
X176952381Y-43976190D01*
X176904762Y-44071429D01*
X176857143Y-44119048D01*
X176714286Y-44214286D01*
X176523810Y-44261905D01*
X176142857Y-44261905D01*
X176047619Y-44214286D01*
X176000000Y-44166667D01*
X175952381Y-44071429D01*
X175952381Y-43880952D01*
X176000000Y-43785714D01*
X176047619Y-43738095D01*
X176142857Y-43690476D01*
X176380952Y-43690476D01*
X176476190Y-43738095D01*
X176523810Y-43785714D01*
X176571429Y-43880952D01*
X176571429Y-44071429D01*
X176523810Y-44166667D01*
X176476190Y-44214286D01*
X176380952Y-44261905D01*
X179230243Y-42335943D02*
X179277862Y-42288324D01*
X179325481Y-42145467D01*
X179325481Y-42050229D01*
X179277862Y-41907371D01*
X179182624Y-41812133D01*
X179087386Y-41764514D01*
X178896910Y-41716895D01*
X178754052Y-41716895D01*
X178563576Y-41764514D01*
X178468338Y-41812133D01*
X178373100Y-41907371D01*
X178325481Y-42050229D01*
X178325481Y-42145467D01*
X178373100Y-42288324D01*
X178420719Y-42335943D01*
X178420719Y-42716895D02*
X178373100Y-42764514D01*
X178325481Y-42859752D01*
X178325481Y-43097848D01*
X178373100Y-43193086D01*
X178420719Y-43240705D01*
X178515957Y-43288324D01*
X178611195Y-43288324D01*
X178754052Y-43240705D01*
X179325481Y-42669276D01*
X179325481Y-43288324D01*
X178325481Y-43907371D02*
X178325481Y-44002610D01*
X178373100Y-44097848D01*
X178420719Y-44145467D01*
X178515957Y-44193086D01*
X178706433Y-44240705D01*
X178944529Y-44240705D01*
X179135005Y-44193086D01*
X179230243Y-44145467D01*
X179277862Y-44097848D01*
X179325481Y-44002610D01*
X179325481Y-43907371D01*
X179277862Y-43812133D01*
X179230243Y-43764514D01*
X179135005Y-43716895D01*
X178944529Y-43669276D01*
X178706433Y-43669276D01*
X178515957Y-43716895D01*
X178420719Y-43764514D01*
X178373100Y-43812133D01*
X178325481Y-43907371D01*
X173957143Y-42457143D02*
X174004762Y-42409524D01*
X174052381Y-42266667D01*
X174052381Y-42171429D01*
X174004762Y-42028571D01*
X173909524Y-41933333D01*
X173814286Y-41885714D01*
X173623810Y-41838095D01*
X173480952Y-41838095D01*
X173290476Y-41885714D01*
X173195238Y-41933333D01*
X173100000Y-42028571D01*
X173052381Y-42171429D01*
X173052381Y-42266667D01*
X173100000Y-42409524D01*
X173147619Y-42457143D01*
X173147619Y-42838095D02*
X173100000Y-42885714D01*
X173052381Y-42980952D01*
X173052381Y-43219048D01*
X173100000Y-43314286D01*
X173147619Y-43361905D01*
X173242857Y-43409524D01*
X173338095Y-43409524D01*
X173480952Y-43361905D01*
X174052381Y-42790476D01*
X174052381Y-43409524D01*
X174052381Y-44361905D02*
X174052381Y-43790476D01*
X174052381Y-44076190D02*
X173052381Y-44076190D01*
X173195238Y-43980952D01*
X173290476Y-43885714D01*
X173338095Y-43790476D01*
X169757143Y-44657143D02*
X169804762Y-44609524D01*
X169852381Y-44466667D01*
X169852381Y-44371429D01*
X169804762Y-44228571D01*
X169709524Y-44133333D01*
X169614286Y-44085714D01*
X169423810Y-44038095D01*
X169280952Y-44038095D01*
X169090476Y-44085714D01*
X168995238Y-44133333D01*
X168900000Y-44228571D01*
X168852381Y-44371429D01*
X168852381Y-44466667D01*
X168900000Y-44609524D01*
X168947619Y-44657143D01*
X168947619Y-45038095D02*
X168900000Y-45085714D01*
X168852381Y-45180952D01*
X168852381Y-45419048D01*
X168900000Y-45514286D01*
X168947619Y-45561905D01*
X169042857Y-45609524D01*
X169138095Y-45609524D01*
X169280952Y-45561905D01*
X169852381Y-44990476D01*
X169852381Y-45609524D01*
X168947619Y-45990476D02*
X168900000Y-46038095D01*
X168852381Y-46133333D01*
X168852381Y-46371429D01*
X168900000Y-46466667D01*
X168947619Y-46514286D01*
X169042857Y-46561905D01*
X169138095Y-46561905D01*
X169280952Y-46514286D01*
X169852381Y-45942857D01*
X169852381Y-46561905D01*
X167172069Y-36419868D02*
X167172069Y-37181773D01*
X167553021Y-36800821D02*
X166791116Y-36800821D01*
X178188857Y-56550143D02*
X178236476Y-56597762D01*
X178379333Y-56645381D01*
X178474571Y-56645381D01*
X178617429Y-56597762D01*
X178712667Y-56502524D01*
X178760286Y-56407286D01*
X178807905Y-56216810D01*
X178807905Y-56073952D01*
X178760286Y-55883476D01*
X178712667Y-55788238D01*
X178617429Y-55693000D01*
X178474571Y-55645381D01*
X178379333Y-55645381D01*
X178236476Y-55693000D01*
X178188857Y-55740619D01*
X177807905Y-55740619D02*
X177760286Y-55693000D01*
X177665048Y-55645381D01*
X177426952Y-55645381D01*
X177331714Y-55693000D01*
X177284095Y-55740619D01*
X177236476Y-55835857D01*
X177236476Y-55931095D01*
X177284095Y-56073952D01*
X177855524Y-56645381D01*
X177236476Y-56645381D01*
X176903143Y-55645381D02*
X176284095Y-55645381D01*
X176617429Y-56026333D01*
X176474571Y-56026333D01*
X176379333Y-56073952D01*
X176331714Y-56121571D01*
X176284095Y-56216810D01*
X176284095Y-56454905D01*
X176331714Y-56550143D01*
X176379333Y-56597762D01*
X176474571Y-56645381D01*
X176760286Y-56645381D01*
X176855524Y-56597762D01*
X176903143Y-56550143D01*
X170642857Y-64257143D02*
X170690476Y-64304762D01*
X170833333Y-64352381D01*
X170928571Y-64352381D01*
X171071429Y-64304762D01*
X171166667Y-64209524D01*
X171214286Y-64114286D01*
X171261905Y-63923810D01*
X171261905Y-63780952D01*
X171214286Y-63590476D01*
X171166667Y-63495238D01*
X171071429Y-63400000D01*
X170928571Y-63352381D01*
X170833333Y-63352381D01*
X170690476Y-63400000D01*
X170642857Y-63447619D01*
X170261905Y-63447619D02*
X170214286Y-63400000D01*
X170119048Y-63352381D01*
X169880952Y-63352381D01*
X169785714Y-63400000D01*
X169738095Y-63447619D01*
X169690476Y-63542857D01*
X169690476Y-63638095D01*
X169738095Y-63780952D01*
X170309524Y-64352381D01*
X169690476Y-64352381D01*
X168833333Y-63685714D02*
X168833333Y-64352381D01*
X169071429Y-63304762D02*
X169309524Y-64019048D01*
X168690476Y-64019048D01*
X141033333Y-68128571D02*
X141366667Y-68128571D01*
X141366667Y-68652381D02*
X141366667Y-67652381D01*
X140890476Y-67652381D01*
X140176190Y-68128571D02*
X140033333Y-68176190D01*
X139985714Y-68223810D01*
X139938095Y-68319048D01*
X139938095Y-68461905D01*
X139985714Y-68557143D01*
X140033333Y-68604762D01*
X140128571Y-68652381D01*
X140509524Y-68652381D01*
X140509524Y-67652381D01*
X140176190Y-67652381D01*
X140080952Y-67700000D01*
X140033333Y-67747619D01*
X139985714Y-67842857D01*
X139985714Y-67938095D01*
X140033333Y-68033333D01*
X140080952Y-68080952D01*
X140176190Y-68128571D01*
X140509524Y-68128571D01*
X138985714Y-68652381D02*
X139557143Y-68652381D01*
X139271429Y-68652381D02*
X139271429Y-67652381D01*
X139366667Y-67795238D01*
X139461905Y-67890476D01*
X139557143Y-67938095D01*
X141152381Y-62233334D02*
X140676190Y-61900000D01*
X141152381Y-61661905D02*
X140152381Y-61661905D01*
X140152381Y-62042858D01*
X140200000Y-62138096D01*
X140247619Y-62185715D01*
X140342857Y-62233334D01*
X140485714Y-62233334D01*
X140580952Y-62185715D01*
X140628571Y-62138096D01*
X140676190Y-62042858D01*
X140676190Y-61661905D01*
X140485714Y-63090477D02*
X141152381Y-63090477D01*
X140104762Y-62852381D02*
X140819048Y-62614286D01*
X140819048Y-63233334D01*
X155042857Y-61552381D02*
X155376191Y-61076190D01*
X155614286Y-61552381D02*
X155614286Y-60552381D01*
X155233333Y-60552381D01*
X155138095Y-60600000D01*
X155090476Y-60647619D01*
X155042857Y-60742857D01*
X155042857Y-60885714D01*
X155090476Y-60980952D01*
X155138095Y-61028571D01*
X155233333Y-61076190D01*
X155614286Y-61076190D01*
X154090476Y-61552381D02*
X154661905Y-61552381D01*
X154376191Y-61552381D02*
X154376191Y-60552381D01*
X154471429Y-60695238D01*
X154566667Y-60790476D01*
X154661905Y-60838095D01*
X153471429Y-60552381D02*
X153376190Y-60552381D01*
X153280952Y-60600000D01*
X153233333Y-60647619D01*
X153185714Y-60742857D01*
X153138095Y-60933333D01*
X153138095Y-61171429D01*
X153185714Y-61361905D01*
X153233333Y-61457143D01*
X153280952Y-61504762D01*
X153376190Y-61552381D01*
X153471429Y-61552381D01*
X153566667Y-61504762D01*
X153614286Y-61457143D01*
X153661905Y-61361905D01*
X153709524Y-61171429D01*
X153709524Y-60933333D01*
X153661905Y-60742857D01*
X153614286Y-60647619D01*
X153566667Y-60600000D01*
X153471429Y-60552381D01*
X149952381Y-58557143D02*
X149476190Y-58223809D01*
X149952381Y-57985714D02*
X148952381Y-57985714D01*
X148952381Y-58366667D01*
X149000000Y-58461905D01*
X149047619Y-58509524D01*
X149142857Y-58557143D01*
X149285714Y-58557143D01*
X149380952Y-58509524D01*
X149428571Y-58461905D01*
X149476190Y-58366667D01*
X149476190Y-57985714D01*
X149952381Y-59509524D02*
X149952381Y-58938095D01*
X149952381Y-59223809D02*
X148952381Y-59223809D01*
X149095238Y-59128571D01*
X149190476Y-59033333D01*
X149238095Y-58938095D01*
X149952381Y-60461905D02*
X149952381Y-59890476D01*
X149952381Y-60176190D02*
X148952381Y-60176190D01*
X149095238Y-60080952D01*
X149190476Y-59985714D01*
X149238095Y-59890476D01*
X156042857Y-56752381D02*
X156376191Y-56276190D01*
X156614286Y-56752381D02*
X156614286Y-55752381D01*
X156233333Y-55752381D01*
X156138095Y-55800000D01*
X156090476Y-55847619D01*
X156042857Y-55942857D01*
X156042857Y-56085714D01*
X156090476Y-56180952D01*
X156138095Y-56228571D01*
X156233333Y-56276190D01*
X156614286Y-56276190D01*
X155090476Y-56752381D02*
X155661905Y-56752381D01*
X155376191Y-56752381D02*
X155376191Y-55752381D01*
X155471429Y-55895238D01*
X155566667Y-55990476D01*
X155661905Y-56038095D01*
X154709524Y-55847619D02*
X154661905Y-55800000D01*
X154566667Y-55752381D01*
X154328571Y-55752381D01*
X154233333Y-55800000D01*
X154185714Y-55847619D01*
X154138095Y-55942857D01*
X154138095Y-56038095D01*
X154185714Y-56180952D01*
X154757143Y-56752381D01*
X154138095Y-56752381D01*
X177057143Y-68457143D02*
X177104762Y-68409524D01*
X177152381Y-68266667D01*
X177152381Y-68171429D01*
X177104762Y-68028571D01*
X177009524Y-67933333D01*
X176914286Y-67885714D01*
X176723810Y-67838095D01*
X176580952Y-67838095D01*
X176390476Y-67885714D01*
X176295238Y-67933333D01*
X176200000Y-68028571D01*
X176152381Y-68171429D01*
X176152381Y-68266667D01*
X176200000Y-68409524D01*
X176247619Y-68457143D01*
X176247619Y-68838095D02*
X176200000Y-68885714D01*
X176152381Y-68980952D01*
X176152381Y-69219048D01*
X176200000Y-69314286D01*
X176247619Y-69361905D01*
X176342857Y-69409524D01*
X176438095Y-69409524D01*
X176580952Y-69361905D01*
X177152381Y-68790476D01*
X177152381Y-69409524D01*
X176152381Y-70314286D02*
X176152381Y-69838095D01*
X176628571Y-69790476D01*
X176580952Y-69838095D01*
X176533333Y-69933333D01*
X176533333Y-70171429D01*
X176580952Y-70266667D01*
X176628571Y-70314286D01*
X176723810Y-70361905D01*
X176961905Y-70361905D01*
X177057143Y-70314286D01*
X177104762Y-70266667D01*
X177152381Y-70171429D01*
X177152381Y-69933333D01*
X177104762Y-69838095D01*
X177057143Y-69790476D01*
M02*
