%FSLAX45Y45*%
G04 Gerber Fmt 4.5, Leading zero omitted, Abs format (unit mm)*
G04 Created by KiCad (PCBNEW (2014-10-27 BZR 5228)-product) date 13/01/2015 10:49:19*
%MOMM*%
G01*
G04 APERTURE LIST*
%ADD10C,0.127000*%
%ADD11C,0.100000*%
%ADD12C,0.200000*%
%ADD13C,0.300000*%
G04 APERTURE END LIST*
D10*
D11*
X19440000Y-8450000D02*
X13000000Y-8450000D01*
X19440000Y-3500000D02*
X19440000Y-8450000D01*
X13000000Y-3500000D02*
X19440000Y-3500000D01*
X13000000Y-5340000D02*
X13000000Y-3500000D01*
X13000000Y-7720000D02*
X13000000Y-8450000D01*
D12*
X12948250Y-5555070D02*
X13011750Y-5618570D01*
X13011750Y-5555070D02*
X12948250Y-5618570D01*
X12948250Y-6155070D02*
X13011750Y-6218570D01*
X13011750Y-6155070D02*
X12948250Y-6218570D01*
X12968250Y-5868250D02*
X13031750Y-5931750D01*
X13031750Y-5868250D02*
X12968250Y-5931750D01*
X12968250Y-6448250D02*
X13031750Y-6511750D01*
X13031750Y-6448250D02*
X12968250Y-6511750D01*
X13078250Y-5968250D02*
X13141750Y-6031750D01*
X13141750Y-5968250D02*
X13078250Y-6031750D01*
X13108250Y-5508250D02*
X13171750Y-5571750D01*
X13171750Y-5508250D02*
X13108250Y-5571750D01*
X13198250Y-7258250D02*
X13261750Y-7321750D01*
X13261750Y-7258250D02*
X13198250Y-7321750D01*
X13228250Y-6955070D02*
X13291750Y-7018570D01*
X13291750Y-6955070D02*
X13228250Y-7018570D01*
X13338250Y-7118250D02*
X13401750Y-7181750D01*
X13401750Y-7118250D02*
X13338250Y-7181750D01*
X13748250Y-5368250D02*
X13811750Y-5431750D01*
X13811750Y-5368250D02*
X13748250Y-5431750D01*
X14088250Y-6448250D02*
X14151750Y-6511750D01*
X14151750Y-6448250D02*
X14088250Y-6511750D01*
X14378250Y-6578250D02*
X14441750Y-6641750D01*
X14441750Y-6578250D02*
X14378250Y-6641750D01*
X14528250Y-4248250D02*
X14591750Y-4311750D01*
X14591750Y-4248250D02*
X14528250Y-4311750D01*
X14538250Y-6558250D02*
X14601750Y-6621750D01*
X14601750Y-6558250D02*
X14538250Y-6621750D01*
X14818250Y-6558250D02*
X14881750Y-6621750D01*
X14881750Y-6558250D02*
X14818250Y-6621750D01*
X15168250Y-5448250D02*
X15231750Y-5511750D01*
X15231750Y-5448250D02*
X15168250Y-5511750D01*
X15288250Y-5648250D02*
X15351750Y-5711750D01*
X15351750Y-5648250D02*
X15288250Y-5711750D01*
X15748250Y-5648250D02*
X15811750Y-5711750D01*
X15811750Y-5648250D02*
X15748250Y-5711750D01*
X15888250Y-6528250D02*
X15951750Y-6591750D01*
X15951750Y-6528250D02*
X15888250Y-6591750D01*
X15968250Y-6988250D02*
X16031750Y-7051750D01*
X16031750Y-6988250D02*
X15968250Y-7051750D01*
X16128250Y-7118250D02*
X16191750Y-7181750D01*
X16191750Y-7118250D02*
X16128250Y-7181750D01*
X17648250Y-6468250D02*
X17711750Y-6531750D01*
X17711750Y-6468250D02*
X17648250Y-6531750D01*
X18148250Y-5958250D02*
X18211750Y-6021750D01*
X18211750Y-5958250D02*
X18148250Y-6021750D01*
X18288250Y-5168250D02*
X18351750Y-5231750D01*
X18351750Y-5168250D02*
X18288250Y-5231750D01*
X18518250Y-5958250D02*
X18581750Y-6021750D01*
X18581750Y-5958250D02*
X18518250Y-6021750D01*
X18528250Y-5698250D02*
X18591750Y-5761750D01*
X18591750Y-5698250D02*
X18528250Y-5761750D01*
X18480005Y-3870054D02*
G75*
G03X18480005Y-3870054I-40005J0D01*
G01*
X18480005Y-4529946D02*
G75*
G03X18480005Y-4529946I-40005J0D01*
G01*
X13760000Y-4491360D02*
X13760000Y-4572640D01*
X13719360Y-4532000D02*
X13800640Y-4532000D01*
X13760000Y-4745360D02*
X13760000Y-4826640D01*
X13719360Y-4786000D02*
X13800640Y-4786000D01*
X13760000Y-4999360D02*
X13760000Y-5080640D01*
X13719360Y-5040000D02*
X13800640Y-5040000D01*
X14760000Y-6832360D02*
X14760000Y-6913640D01*
X14719360Y-6873000D02*
X14800640Y-6873000D01*
X14760000Y-7086360D02*
X14760000Y-7167640D01*
X14719360Y-7127000D02*
X14800640Y-7127000D01*
X16217900Y-6550660D02*
X16217900Y-6631940D01*
X16177260Y-6591300D02*
X16258540Y-6591300D01*
X16217900Y-7312660D02*
X16217900Y-7393940D01*
X16177260Y-7353300D02*
X16258540Y-7353300D01*
X16471900Y-6550660D02*
X16471900Y-6631940D01*
X16431260Y-6591300D02*
X16512540Y-6591300D01*
X16471900Y-7312660D02*
X16471900Y-7393940D01*
X16431260Y-7353300D02*
X16512540Y-7353300D01*
X16725900Y-6550660D02*
X16725900Y-6631940D01*
X16685260Y-6591300D02*
X16766540Y-6591300D01*
X16725900Y-7312660D02*
X16725900Y-7393940D01*
X16685260Y-7353300D02*
X16766540Y-7353300D01*
X16979900Y-6550660D02*
X16979900Y-6631940D01*
X16939260Y-6591300D02*
X17020540Y-6591300D01*
X16979900Y-7312660D02*
X16979900Y-7393940D01*
X16939260Y-7353300D02*
X17020540Y-7353300D01*
X17233900Y-6550660D02*
X17233900Y-6631940D01*
X17193260Y-6591300D02*
X17274540Y-6591300D01*
X17233900Y-7312660D02*
X17233900Y-7393940D01*
X17193260Y-7353300D02*
X17274540Y-7353300D01*
X13471820Y-6011820D02*
X13471820Y-5948180D01*
X13408180Y-5948180D01*
X13408180Y-6011820D01*
X13471820Y-6011820D01*
X13471820Y-6311820D02*
X13471820Y-6248180D01*
X13408180Y-6248180D01*
X13408180Y-6311820D01*
X13471820Y-6311820D01*
X13721820Y-6011820D02*
X13721820Y-5948180D01*
X13658180Y-5948180D01*
X13658180Y-6011820D01*
X13721820Y-6011820D01*
X13721820Y-6311820D02*
X13721820Y-6248180D01*
X13658180Y-6248180D01*
X13658180Y-6311820D01*
X13721820Y-6311820D01*
X13971820Y-6011820D02*
X13971820Y-5948180D01*
X13908180Y-5948180D01*
X13908180Y-6011820D01*
X13971820Y-6011820D01*
X13971820Y-6311820D02*
X13971820Y-6248180D01*
X13908180Y-6248180D01*
X13908180Y-6311820D01*
X13971820Y-6311820D01*
X14624120Y-5905950D02*
X14624120Y-5842310D01*
X14560480Y-5842310D01*
X14560480Y-5905950D01*
X14624120Y-5905950D01*
X14624120Y-6155950D02*
X14624120Y-6092310D01*
X14560480Y-6092310D01*
X14560480Y-6155950D01*
X14624120Y-6155950D01*
X14624120Y-6405950D02*
X14624120Y-6342310D01*
X14560480Y-6342310D01*
X14560480Y-6405950D01*
X14624120Y-6405950D01*
X14924120Y-5905950D02*
X14924120Y-5842310D01*
X14860480Y-5842310D01*
X14860480Y-5905950D01*
X14924120Y-5905950D01*
X14924120Y-6155950D02*
X14924120Y-6092310D01*
X14860480Y-6092310D01*
X14860480Y-6155950D01*
X14924120Y-6155950D01*
X14924120Y-6405950D02*
X14924120Y-6342310D01*
X14860480Y-6342310D01*
X14860480Y-6405950D01*
X14924120Y-6405950D01*
X18410000Y-6716000D02*
X18456000Y-6670000D01*
X18410000Y-6624000D01*
X18364000Y-6670000D01*
X18410000Y-6716000D01*
X14519562Y-7500762D02*
X14619638Y-7600838D01*
X14619638Y-7500762D02*
X14519562Y-7600838D01*
X14619638Y-7550800D02*
G75*
G03X14619638Y-7550800I-50038J0D01*
G01*
X14519562Y-8059562D02*
X14619638Y-8159638D01*
X14619638Y-8059562D02*
X14519562Y-8159638D01*
X14619638Y-8109600D02*
G75*
G03X14619638Y-8109600I-50038J0D01*
G01*
X15085314Y-3895090D02*
X15185390Y-3995166D01*
X15185390Y-3895090D02*
X15085314Y-3995166D01*
X15185390Y-3945128D02*
G75*
G03X15185390Y-3945128I-50038J0D01*
G01*
X15280762Y-7660362D02*
X15380838Y-7760438D01*
X15380838Y-7660362D02*
X15280762Y-7760438D01*
X15380838Y-7710400D02*
G75*
G03X15380838Y-7710400I-50038J0D01*
G01*
X15339314Y-3895090D02*
X15439390Y-3995166D01*
X15439390Y-3895090D02*
X15339314Y-3995166D01*
X15439390Y-3945128D02*
G75*
G03X15439390Y-3945128I-50038J0D01*
G01*
X15593314Y-3895090D02*
X15693390Y-3995166D01*
X15693390Y-3895090D02*
X15593314Y-3995166D01*
X15693390Y-3945128D02*
G75*
G03X15693390Y-3945128I-50038J0D01*
G01*
X15839562Y-7660362D02*
X15939638Y-7760438D01*
X15939638Y-7660362D02*
X15839562Y-7760438D01*
X15939638Y-7710400D02*
G75*
G03X15939638Y-7710400I-50038J0D01*
G01*
X15875762Y-5499862D02*
X15975838Y-5599938D01*
X15975838Y-5499862D02*
X15875762Y-5599938D01*
X15975838Y-5549900D02*
G75*
G03X15975838Y-5549900I-50038J0D01*
G01*
X15875762Y-6058662D02*
X15975838Y-6158738D01*
X15975838Y-6058662D02*
X15875762Y-6158738D01*
X15975838Y-6108700D02*
G75*
G03X15975838Y-6108700I-50038J0D01*
G01*
X16630362Y-7640362D02*
X16730438Y-7740438D01*
X16730438Y-7640362D02*
X16630362Y-7740438D01*
X16730438Y-7690400D02*
G75*
G03X16730438Y-7690400I-50038J0D01*
G01*
X16630362Y-8199162D02*
X16730438Y-8299238D01*
X16730438Y-8199162D02*
X16630362Y-8299238D01*
X16730438Y-8249200D02*
G75*
G03X16730438Y-8249200I-50038J0D01*
G01*
X17399762Y-5474462D02*
X17499838Y-5574538D01*
X17499838Y-5474462D02*
X17399762Y-5574538D01*
X17499838Y-5524500D02*
G75*
G03X17499838Y-5524500I-50038J0D01*
G01*
X17399762Y-6033262D02*
X17499838Y-6133338D01*
X17499838Y-6033262D02*
X17399762Y-6133338D01*
X17499838Y-6083300D02*
G75*
G03X17499838Y-6083300I-50038J0D01*
G01*
X17989562Y-7630762D02*
X18089638Y-7730838D01*
X18089638Y-7630762D02*
X17989562Y-7730838D01*
X18089638Y-7680800D02*
G75*
G03X18089638Y-7680800I-50038J0D01*
G01*
X17989562Y-8189562D02*
X18089638Y-8289638D01*
X18089638Y-8189562D02*
X17989562Y-8289638D01*
X18089638Y-8239600D02*
G75*
G03X18089638Y-8239600I-50038J0D01*
G01*
X16295370Y-4269130D02*
X16396970Y-4370730D01*
X16396970Y-4269130D02*
X16295370Y-4370730D01*
X16346170Y-4269130D02*
X16346170Y-4370730D01*
X16295370Y-4319930D02*
X16396970Y-4319930D01*
X16295370Y-5069130D02*
X16396970Y-5170730D01*
X16396970Y-5069130D02*
X16295370Y-5170730D01*
X16346170Y-5069130D02*
X16346170Y-5170730D01*
X16295370Y-5119930D02*
X16396970Y-5119930D01*
X17672200Y-7062200D02*
X17773800Y-7163800D01*
X17773800Y-7062200D02*
X17672200Y-7163800D01*
X17723000Y-7062200D02*
X17723000Y-7163800D01*
X17672200Y-7113000D02*
X17773800Y-7113000D01*
X17672200Y-7316200D02*
X17773800Y-7417800D01*
X17773800Y-7316200D02*
X17672200Y-7417800D01*
X17723000Y-7316200D02*
X17723000Y-7417800D01*
X17672200Y-7367000D02*
X17773800Y-7367000D01*
X17926200Y-7062200D02*
X18027800Y-7163800D01*
X18027800Y-7062200D02*
X17926200Y-7163800D01*
X17977000Y-7062200D02*
X17977000Y-7163800D01*
X17926200Y-7113000D02*
X18027800Y-7113000D01*
X17926200Y-7316200D02*
X18027800Y-7417800D01*
X18027800Y-7316200D02*
X17926200Y-7417800D01*
X17977000Y-7316200D02*
X17977000Y-7417800D01*
X17926200Y-7367000D02*
X18027800Y-7367000D01*
X18592200Y-7419200D02*
X18693800Y-7520800D01*
X18693800Y-7419200D02*
X18592200Y-7520800D01*
X18643000Y-7419200D02*
X18643000Y-7520800D01*
X18592200Y-7470000D02*
X18693800Y-7470000D01*
X18846200Y-7419200D02*
X18947800Y-7520800D01*
X18947800Y-7419200D02*
X18846200Y-7520800D01*
X18897000Y-7419200D02*
X18897000Y-7520800D01*
X18846200Y-7470000D02*
X18947800Y-7470000D01*
X16271170Y-3844930D02*
X16421170Y-3994930D01*
X16421170Y-3844930D02*
X16271170Y-3994930D01*
X16399203Y-3972963D02*
X16399203Y-3866896D01*
X16293136Y-3866896D01*
X16293136Y-3972963D01*
X16399203Y-3972963D01*
X16271170Y-4644930D02*
X16421170Y-4794930D01*
X16421170Y-4644930D02*
X16271170Y-4794930D01*
X16399203Y-4772964D02*
X16399203Y-4666897D01*
X16293136Y-4666897D01*
X16293136Y-4772964D01*
X16399203Y-4772964D01*
X19100000Y-6200000D02*
X19280000Y-6380000D01*
X19280000Y-6200000D02*
X19100000Y-6380000D01*
X19190000Y-6380000D02*
X19280000Y-6290000D01*
X19190000Y-6200000D01*
X19100000Y-6290000D01*
X19190000Y-6380000D01*
X19100000Y-6960000D02*
X19280000Y-7140000D01*
X19280000Y-6960000D02*
X19100000Y-7140000D01*
X19190000Y-7140000D02*
X19280000Y-7050000D01*
X19190000Y-6960000D01*
X19100000Y-7050000D01*
X19190000Y-7140000D01*
X13450000Y-7809975D02*
X13450000Y-8210025D01*
X13249975Y-8010000D02*
X13650025Y-8010000D01*
X13650025Y-8010000D02*
G75*
G03X13650025Y-8010000I-200025J0D01*
G01*
X13460000Y-3739975D02*
X13460000Y-4140025D01*
X13259975Y-3940000D02*
X13660025Y-3940000D01*
X13660025Y-3940000D02*
G75*
G03X13660025Y-3940000I-200025J0D01*
G01*
X19000000Y-3739975D02*
X19000000Y-4140025D01*
X18799975Y-3940000D02*
X19200025Y-3940000D01*
X19200025Y-3940000D02*
G75*
G03X19200025Y-3940000I-200025J0D01*
G01*
X19000000Y-7809975D02*
X19000000Y-8210025D01*
X18799975Y-8010000D02*
X19200025Y-8010000D01*
X19200025Y-8010000D02*
G75*
G03X19200025Y-8010000I-200025J0D01*
G01*
X15622116Y-5102116D02*
X15622116Y-4677884D01*
X15197884Y-4677884D01*
X15197884Y-5102116D01*
X15622116Y-5102116D01*
X15709974Y-4890000D02*
G75*
G03X15709974Y-4890000I-299974J0D01*
G01*
D13*
X13266428Y-8920714D02*
X13266428Y-8620714D01*
X13337857Y-8620714D01*
X13380714Y-8635000D01*
X13409286Y-8663572D01*
X13423571Y-8692143D01*
X13437857Y-8749286D01*
X13437857Y-8792143D01*
X13423571Y-8849286D01*
X13409286Y-8877857D01*
X13380714Y-8906429D01*
X13337857Y-8920714D01*
X13266428Y-8920714D01*
X13566428Y-8920714D02*
X13566428Y-8720714D01*
X13566428Y-8777857D02*
X13580714Y-8749286D01*
X13595000Y-8735000D01*
X13623571Y-8720714D01*
X13652143Y-8720714D01*
X13752143Y-8920714D02*
X13752143Y-8720714D01*
X13752143Y-8620714D02*
X13737857Y-8635000D01*
X13752143Y-8649286D01*
X13766428Y-8635000D01*
X13752143Y-8620714D01*
X13752143Y-8649286D01*
X13937857Y-8920714D02*
X13909286Y-8906429D01*
X13895000Y-8877857D01*
X13895000Y-8620714D01*
X14095000Y-8920714D02*
X14066428Y-8906429D01*
X14052143Y-8877857D01*
X14052143Y-8620714D01*
X14437857Y-8920714D02*
X14437857Y-8620714D01*
X14537857Y-8835000D01*
X14637857Y-8620714D01*
X14637857Y-8920714D01*
X14909286Y-8920714D02*
X14909286Y-8763572D01*
X14895000Y-8735000D01*
X14866428Y-8720714D01*
X14809286Y-8720714D01*
X14780714Y-8735000D01*
X14909286Y-8906429D02*
X14880714Y-8920714D01*
X14809286Y-8920714D01*
X14780714Y-8906429D01*
X14766428Y-8877857D01*
X14766428Y-8849286D01*
X14780714Y-8820714D01*
X14809286Y-8806429D01*
X14880714Y-8806429D01*
X14909286Y-8792143D01*
X15052143Y-8720714D02*
X15052143Y-9020714D01*
X15052143Y-8735000D02*
X15080714Y-8720714D01*
X15137857Y-8720714D01*
X15166428Y-8735000D01*
X15180714Y-8749286D01*
X15195000Y-8777857D01*
X15195000Y-8863572D01*
X15180714Y-8892143D01*
X15166428Y-8906429D01*
X15137857Y-8920714D01*
X15080714Y-8920714D01*
X15052143Y-8906429D01*
X15323571Y-8892143D02*
X15337857Y-8906429D01*
X15323571Y-8920714D01*
X15309286Y-8906429D01*
X15323571Y-8892143D01*
X15323571Y-8920714D01*
X15323571Y-8735000D02*
X15337857Y-8749286D01*
X15323571Y-8763572D01*
X15309286Y-8749286D01*
X15323571Y-8735000D01*
X15323571Y-8763572D01*
X12931500Y-9383250D02*
X12995000Y-9446750D01*
X12995000Y-9383250D02*
X12931500Y-9446750D01*
X13323571Y-9250714D02*
X13352143Y-9250714D01*
X13380714Y-9265000D01*
X13395000Y-9279286D01*
X13409286Y-9307857D01*
X13423571Y-9365000D01*
X13423571Y-9436429D01*
X13409286Y-9493572D01*
X13395000Y-9522143D01*
X13380714Y-9536429D01*
X13352143Y-9550714D01*
X13323571Y-9550714D01*
X13295000Y-9536429D01*
X13280714Y-9522143D01*
X13266428Y-9493572D01*
X13252143Y-9436429D01*
X13252143Y-9365000D01*
X13266428Y-9307857D01*
X13280714Y-9279286D01*
X13295000Y-9265000D01*
X13323571Y-9250714D01*
X13552143Y-9522143D02*
X13566428Y-9536429D01*
X13552143Y-9550714D01*
X13537857Y-9536429D01*
X13552143Y-9522143D01*
X13552143Y-9550714D01*
X13823571Y-9250714D02*
X13766428Y-9250714D01*
X13737857Y-9265000D01*
X13723571Y-9279286D01*
X13695000Y-9322143D01*
X13680714Y-9379286D01*
X13680714Y-9493572D01*
X13695000Y-9522143D01*
X13709286Y-9536429D01*
X13737857Y-9550714D01*
X13795000Y-9550714D01*
X13823571Y-9536429D01*
X13837857Y-9522143D01*
X13852143Y-9493572D01*
X13852143Y-9422143D01*
X13837857Y-9393572D01*
X13823571Y-9379286D01*
X13795000Y-9365000D01*
X13737857Y-9365000D01*
X13709286Y-9379286D01*
X13695000Y-9393572D01*
X13680714Y-9422143D01*
X14109286Y-9350714D02*
X14109286Y-9550714D01*
X14037857Y-9236429D02*
X13966428Y-9450714D01*
X14152143Y-9450714D01*
X14266428Y-9550714D02*
X14266428Y-9350714D01*
X14266428Y-9379286D02*
X14280714Y-9365000D01*
X14309286Y-9350714D01*
X14352143Y-9350714D01*
X14380714Y-9365000D01*
X14395000Y-9393572D01*
X14395000Y-9550714D01*
X14395000Y-9393572D02*
X14409286Y-9365000D01*
X14437857Y-9350714D01*
X14480714Y-9350714D01*
X14509286Y-9365000D01*
X14523571Y-9393572D01*
X14523571Y-9550714D01*
X14666428Y-9550714D02*
X14666428Y-9350714D01*
X14666428Y-9379286D02*
X14680714Y-9365000D01*
X14709286Y-9350714D01*
X14752143Y-9350714D01*
X14780714Y-9365000D01*
X14795000Y-9393572D01*
X14795000Y-9550714D01*
X14795000Y-9393572D02*
X14809286Y-9365000D01*
X14837857Y-9350714D01*
X14880714Y-9350714D01*
X14909286Y-9365000D01*
X14923571Y-9393572D01*
X14923571Y-9550714D01*
X15509286Y-9236429D02*
X15252143Y-9622143D01*
X15895000Y-9250714D02*
X15923571Y-9250714D01*
X15952143Y-9265000D01*
X15966428Y-9279286D01*
X15980714Y-9307857D01*
X15995000Y-9365000D01*
X15995000Y-9436429D01*
X15980714Y-9493572D01*
X15966428Y-9522143D01*
X15952143Y-9536429D01*
X15923571Y-9550714D01*
X15895000Y-9550714D01*
X15866428Y-9536429D01*
X15852143Y-9522143D01*
X15837857Y-9493572D01*
X15823571Y-9436429D01*
X15823571Y-9365000D01*
X15837857Y-9307857D01*
X15852143Y-9279286D01*
X15866428Y-9265000D01*
X15895000Y-9250714D01*
X16123571Y-9522143D02*
X16137857Y-9536429D01*
X16123571Y-9550714D01*
X16109286Y-9536429D01*
X16123571Y-9522143D01*
X16123571Y-9550714D01*
X16323571Y-9250714D02*
X16352143Y-9250714D01*
X16380714Y-9265000D01*
X16395000Y-9279286D01*
X16409285Y-9307857D01*
X16423571Y-9365000D01*
X16423571Y-9436429D01*
X16409285Y-9493572D01*
X16395000Y-9522143D01*
X16380714Y-9536429D01*
X16352143Y-9550714D01*
X16323571Y-9550714D01*
X16295000Y-9536429D01*
X16280714Y-9522143D01*
X16266428Y-9493572D01*
X16252143Y-9436429D01*
X16252143Y-9365000D01*
X16266428Y-9307857D01*
X16280714Y-9279286D01*
X16295000Y-9265000D01*
X16323571Y-9250714D01*
X16537857Y-9279286D02*
X16552143Y-9265000D01*
X16580714Y-9250714D01*
X16652143Y-9250714D01*
X16680714Y-9265000D01*
X16695000Y-9279286D01*
X16709285Y-9307857D01*
X16709285Y-9336429D01*
X16695000Y-9379286D01*
X16523571Y-9550714D01*
X16709285Y-9550714D01*
X16980714Y-9250714D02*
X16837857Y-9250714D01*
X16823571Y-9393572D01*
X16837857Y-9379286D01*
X16866428Y-9365000D01*
X16937857Y-9365000D01*
X16966428Y-9379286D01*
X16980714Y-9393572D01*
X16995000Y-9422143D01*
X16995000Y-9493572D01*
X16980714Y-9522143D01*
X16966428Y-9536429D01*
X16937857Y-9550714D01*
X16866428Y-9550714D01*
X16837857Y-9536429D01*
X16823571Y-9522143D01*
X17109286Y-9250714D02*
X17109286Y-9307857D01*
X17223571Y-9250714D02*
X17223571Y-9307857D01*
X17666428Y-9665000D02*
X17652143Y-9650714D01*
X17623571Y-9607857D01*
X17609286Y-9579286D01*
X17595000Y-9536429D01*
X17580714Y-9465000D01*
X17580714Y-9407857D01*
X17595000Y-9336429D01*
X17609286Y-9293572D01*
X17623571Y-9265000D01*
X17652143Y-9222143D01*
X17666428Y-9207857D01*
X17766428Y-9279286D02*
X17780714Y-9265000D01*
X17809286Y-9250714D01*
X17880714Y-9250714D01*
X17909286Y-9265000D01*
X17923571Y-9279286D01*
X17937857Y-9307857D01*
X17937857Y-9336429D01*
X17923571Y-9379286D01*
X17752143Y-9550714D01*
X17937857Y-9550714D01*
X18195000Y-9250714D02*
X18137857Y-9250714D01*
X18109286Y-9265000D01*
X18095000Y-9279286D01*
X18066428Y-9322143D01*
X18052143Y-9379286D01*
X18052143Y-9493572D01*
X18066428Y-9522143D01*
X18080714Y-9536429D01*
X18109286Y-9550714D01*
X18166428Y-9550714D01*
X18195000Y-9536429D01*
X18209286Y-9522143D01*
X18223571Y-9493572D01*
X18223571Y-9422143D01*
X18209286Y-9393572D01*
X18195000Y-9379286D01*
X18166428Y-9365000D01*
X18109286Y-9365000D01*
X18080714Y-9379286D01*
X18066428Y-9393572D01*
X18052143Y-9422143D01*
X18580714Y-9550714D02*
X18580714Y-9250714D01*
X18709286Y-9550714D02*
X18709286Y-9393572D01*
X18695000Y-9365000D01*
X18666428Y-9350714D01*
X18623571Y-9350714D01*
X18595000Y-9365000D01*
X18580714Y-9379286D01*
X18895000Y-9550714D02*
X18866428Y-9536429D01*
X18852143Y-9522143D01*
X18837857Y-9493572D01*
X18837857Y-9407857D01*
X18852143Y-9379286D01*
X18866428Y-9365000D01*
X18895000Y-9350714D01*
X18937857Y-9350714D01*
X18966428Y-9365000D01*
X18980714Y-9379286D01*
X18995000Y-9407857D01*
X18995000Y-9493572D01*
X18980714Y-9522143D01*
X18966428Y-9536429D01*
X18937857Y-9550714D01*
X18895000Y-9550714D01*
X19166428Y-9550714D02*
X19137857Y-9536429D01*
X19123571Y-9507857D01*
X19123571Y-9250714D01*
X19395000Y-9536429D02*
X19366429Y-9550714D01*
X19309286Y-9550714D01*
X19280714Y-9536429D01*
X19266429Y-9507857D01*
X19266429Y-9393572D01*
X19280714Y-9365000D01*
X19309286Y-9350714D01*
X19366429Y-9350714D01*
X19395000Y-9365000D01*
X19409286Y-9393572D01*
X19409286Y-9422143D01*
X19266429Y-9450714D01*
X19523571Y-9536429D02*
X19552143Y-9550714D01*
X19609286Y-9550714D01*
X19637857Y-9536429D01*
X19652143Y-9507857D01*
X19652143Y-9493572D01*
X19637857Y-9465000D01*
X19609286Y-9450714D01*
X19566429Y-9450714D01*
X19537857Y-9436429D01*
X19523571Y-9407857D01*
X19523571Y-9393572D01*
X19537857Y-9365000D01*
X19566429Y-9350714D01*
X19609286Y-9350714D01*
X19637857Y-9365000D01*
X19752143Y-9665000D02*
X19766429Y-9650714D01*
X19795000Y-9607857D01*
X19809286Y-9579286D01*
X19823571Y-9536429D01*
X19837857Y-9465000D01*
X19837857Y-9407857D01*
X19823571Y-9336429D01*
X19809286Y-9293572D01*
X19795000Y-9265000D01*
X19766429Y-9222143D01*
X19752143Y-9207857D01*
X12995000Y-9811000D02*
G75*
G03X12995000Y-9811000I-40005J0D01*
G01*
X13323571Y-9646714D02*
X13352143Y-9646714D01*
X13380714Y-9661000D01*
X13395000Y-9675286D01*
X13409286Y-9703857D01*
X13423571Y-9761000D01*
X13423571Y-9832429D01*
X13409286Y-9889572D01*
X13395000Y-9918143D01*
X13380714Y-9932429D01*
X13352143Y-9946714D01*
X13323571Y-9946714D01*
X13295000Y-9932429D01*
X13280714Y-9918143D01*
X13266428Y-9889572D01*
X13252143Y-9832429D01*
X13252143Y-9761000D01*
X13266428Y-9703857D01*
X13280714Y-9675286D01*
X13295000Y-9661000D01*
X13323571Y-9646714D01*
X13552143Y-9918143D02*
X13566428Y-9932429D01*
X13552143Y-9946714D01*
X13537857Y-9932429D01*
X13552143Y-9918143D01*
X13552143Y-9946714D01*
X13737857Y-9775286D02*
X13709286Y-9761000D01*
X13695000Y-9746714D01*
X13680714Y-9718143D01*
X13680714Y-9703857D01*
X13695000Y-9675286D01*
X13709286Y-9661000D01*
X13737857Y-9646714D01*
X13795000Y-9646714D01*
X13823571Y-9661000D01*
X13837857Y-9675286D01*
X13852143Y-9703857D01*
X13852143Y-9718143D01*
X13837857Y-9746714D01*
X13823571Y-9761000D01*
X13795000Y-9775286D01*
X13737857Y-9775286D01*
X13709286Y-9789572D01*
X13695000Y-9803857D01*
X13680714Y-9832429D01*
X13680714Y-9889572D01*
X13695000Y-9918143D01*
X13709286Y-9932429D01*
X13737857Y-9946714D01*
X13795000Y-9946714D01*
X13823571Y-9932429D01*
X13837857Y-9918143D01*
X13852143Y-9889572D01*
X13852143Y-9832429D01*
X13837857Y-9803857D01*
X13823571Y-9789572D01*
X13795000Y-9775286D01*
X14037857Y-9646714D02*
X14066428Y-9646714D01*
X14095000Y-9661000D01*
X14109286Y-9675286D01*
X14123571Y-9703857D01*
X14137857Y-9761000D01*
X14137857Y-9832429D01*
X14123571Y-9889572D01*
X14109286Y-9918143D01*
X14095000Y-9932429D01*
X14066428Y-9946714D01*
X14037857Y-9946714D01*
X14009286Y-9932429D01*
X13995000Y-9918143D01*
X13980714Y-9889572D01*
X13966428Y-9832429D01*
X13966428Y-9761000D01*
X13980714Y-9703857D01*
X13995000Y-9675286D01*
X14009286Y-9661000D01*
X14037857Y-9646714D01*
X14266428Y-9946714D02*
X14266428Y-9746714D01*
X14266428Y-9775286D02*
X14280714Y-9761000D01*
X14309286Y-9746714D01*
X14352143Y-9746714D01*
X14380714Y-9761000D01*
X14395000Y-9789572D01*
X14395000Y-9946714D01*
X14395000Y-9789572D02*
X14409286Y-9761000D01*
X14437857Y-9746714D01*
X14480714Y-9746714D01*
X14509286Y-9761000D01*
X14523571Y-9789572D01*
X14523571Y-9946714D01*
X14666428Y-9946714D02*
X14666428Y-9746714D01*
X14666428Y-9775286D02*
X14680714Y-9761000D01*
X14709286Y-9746714D01*
X14752143Y-9746714D01*
X14780714Y-9761000D01*
X14795000Y-9789572D01*
X14795000Y-9946714D01*
X14795000Y-9789572D02*
X14809286Y-9761000D01*
X14837857Y-9746714D01*
X14880714Y-9746714D01*
X14909286Y-9761000D01*
X14923571Y-9789572D01*
X14923571Y-9946714D01*
X15509286Y-9632429D02*
X15252143Y-10018143D01*
X15895000Y-9646714D02*
X15923571Y-9646714D01*
X15952143Y-9661000D01*
X15966428Y-9675286D01*
X15980714Y-9703857D01*
X15995000Y-9761000D01*
X15995000Y-9832429D01*
X15980714Y-9889572D01*
X15966428Y-9918143D01*
X15952143Y-9932429D01*
X15923571Y-9946714D01*
X15895000Y-9946714D01*
X15866428Y-9932429D01*
X15852143Y-9918143D01*
X15837857Y-9889572D01*
X15823571Y-9832429D01*
X15823571Y-9761000D01*
X15837857Y-9703857D01*
X15852143Y-9675286D01*
X15866428Y-9661000D01*
X15895000Y-9646714D01*
X16123571Y-9918143D02*
X16137857Y-9932429D01*
X16123571Y-9946714D01*
X16109286Y-9932429D01*
X16123571Y-9918143D01*
X16123571Y-9946714D01*
X16323571Y-9646714D02*
X16352143Y-9646714D01*
X16380714Y-9661000D01*
X16395000Y-9675286D01*
X16409285Y-9703857D01*
X16423571Y-9761000D01*
X16423571Y-9832429D01*
X16409285Y-9889572D01*
X16395000Y-9918143D01*
X16380714Y-9932429D01*
X16352143Y-9946714D01*
X16323571Y-9946714D01*
X16295000Y-9932429D01*
X16280714Y-9918143D01*
X16266428Y-9889572D01*
X16252143Y-9832429D01*
X16252143Y-9761000D01*
X16266428Y-9703857D01*
X16280714Y-9675286D01*
X16295000Y-9661000D01*
X16323571Y-9646714D01*
X16523571Y-9646714D02*
X16709285Y-9646714D01*
X16609285Y-9761000D01*
X16652143Y-9761000D01*
X16680714Y-9775286D01*
X16695000Y-9789572D01*
X16709285Y-9818143D01*
X16709285Y-9889572D01*
X16695000Y-9918143D01*
X16680714Y-9932429D01*
X16652143Y-9946714D01*
X16566428Y-9946714D01*
X16537857Y-9932429D01*
X16523571Y-9918143D01*
X16823571Y-9675286D02*
X16837857Y-9661000D01*
X16866428Y-9646714D01*
X16937857Y-9646714D01*
X16966428Y-9661000D01*
X16980714Y-9675286D01*
X16995000Y-9703857D01*
X16995000Y-9732429D01*
X16980714Y-9775286D01*
X16809286Y-9946714D01*
X16995000Y-9946714D01*
X17109286Y-9646714D02*
X17109286Y-9703857D01*
X17223571Y-9646714D02*
X17223571Y-9703857D01*
X17666428Y-10061000D02*
X17652143Y-10046714D01*
X17623571Y-10003857D01*
X17609286Y-9975286D01*
X17595000Y-9932429D01*
X17580714Y-9861000D01*
X17580714Y-9803857D01*
X17595000Y-9732429D01*
X17609286Y-9689572D01*
X17623571Y-9661000D01*
X17652143Y-9618143D01*
X17666428Y-9603857D01*
X17766428Y-9675286D02*
X17780714Y-9661000D01*
X17809286Y-9646714D01*
X17880714Y-9646714D01*
X17909286Y-9661000D01*
X17923571Y-9675286D01*
X17937857Y-9703857D01*
X17937857Y-9732429D01*
X17923571Y-9775286D01*
X17752143Y-9946714D01*
X17937857Y-9946714D01*
X18295000Y-9946714D02*
X18295000Y-9646714D01*
X18423571Y-9946714D02*
X18423571Y-9789572D01*
X18409286Y-9761000D01*
X18380714Y-9746714D01*
X18337857Y-9746714D01*
X18309286Y-9761000D01*
X18295000Y-9775286D01*
X18609286Y-9946714D02*
X18580714Y-9932429D01*
X18566428Y-9918143D01*
X18552143Y-9889572D01*
X18552143Y-9803857D01*
X18566428Y-9775286D01*
X18580714Y-9761000D01*
X18609286Y-9746714D01*
X18652143Y-9746714D01*
X18680714Y-9761000D01*
X18695000Y-9775286D01*
X18709286Y-9803857D01*
X18709286Y-9889572D01*
X18695000Y-9918143D01*
X18680714Y-9932429D01*
X18652143Y-9946714D01*
X18609286Y-9946714D01*
X18880714Y-9946714D02*
X18852143Y-9932429D01*
X18837857Y-9903857D01*
X18837857Y-9646714D01*
X19109286Y-9932429D02*
X19080714Y-9946714D01*
X19023571Y-9946714D01*
X18995000Y-9932429D01*
X18980714Y-9903857D01*
X18980714Y-9789572D01*
X18995000Y-9761000D01*
X19023571Y-9746714D01*
X19080714Y-9746714D01*
X19109286Y-9761000D01*
X19123571Y-9789572D01*
X19123571Y-9818143D01*
X18980714Y-9846714D01*
X19237857Y-9932429D02*
X19266429Y-9946714D01*
X19323571Y-9946714D01*
X19352143Y-9932429D01*
X19366429Y-9903857D01*
X19366429Y-9889572D01*
X19352143Y-9861000D01*
X19323571Y-9846714D01*
X19280714Y-9846714D01*
X19252143Y-9832429D01*
X19237857Y-9803857D01*
X19237857Y-9789572D01*
X19252143Y-9761000D01*
X19280714Y-9746714D01*
X19323571Y-9746714D01*
X19352143Y-9761000D01*
X19466428Y-10061000D02*
X19480714Y-10046714D01*
X19509286Y-10003857D01*
X19523571Y-9975286D01*
X19537857Y-9932429D01*
X19552143Y-9861000D01*
X19552143Y-9803857D01*
X19537857Y-9732429D01*
X19523571Y-9689572D01*
X19509286Y-9661000D01*
X19480714Y-9618143D01*
X19466428Y-9603857D01*
X12954360Y-10166360D02*
X12954360Y-10247640D01*
X12913720Y-10207000D02*
X12995000Y-10207000D01*
X13323571Y-10042714D02*
X13352143Y-10042714D01*
X13380714Y-10057000D01*
X13395000Y-10071286D01*
X13409286Y-10099857D01*
X13423571Y-10157000D01*
X13423571Y-10228429D01*
X13409286Y-10285572D01*
X13395000Y-10314143D01*
X13380714Y-10328429D01*
X13352143Y-10342714D01*
X13323571Y-10342714D01*
X13295000Y-10328429D01*
X13280714Y-10314143D01*
X13266428Y-10285572D01*
X13252143Y-10228429D01*
X13252143Y-10157000D01*
X13266428Y-10099857D01*
X13280714Y-10071286D01*
X13295000Y-10057000D01*
X13323571Y-10042714D01*
X13552143Y-10314143D02*
X13566428Y-10328429D01*
X13552143Y-10342714D01*
X13537857Y-10328429D01*
X13552143Y-10314143D01*
X13552143Y-10342714D01*
X13737857Y-10171286D02*
X13709286Y-10157000D01*
X13695000Y-10142714D01*
X13680714Y-10114143D01*
X13680714Y-10099857D01*
X13695000Y-10071286D01*
X13709286Y-10057000D01*
X13737857Y-10042714D01*
X13795000Y-10042714D01*
X13823571Y-10057000D01*
X13837857Y-10071286D01*
X13852143Y-10099857D01*
X13852143Y-10114143D01*
X13837857Y-10142714D01*
X13823571Y-10157000D01*
X13795000Y-10171286D01*
X13737857Y-10171286D01*
X13709286Y-10185572D01*
X13695000Y-10199857D01*
X13680714Y-10228429D01*
X13680714Y-10285572D01*
X13695000Y-10314143D01*
X13709286Y-10328429D01*
X13737857Y-10342714D01*
X13795000Y-10342714D01*
X13823571Y-10328429D01*
X13837857Y-10314143D01*
X13852143Y-10285572D01*
X13852143Y-10228429D01*
X13837857Y-10199857D01*
X13823571Y-10185572D01*
X13795000Y-10171286D01*
X14137857Y-10342714D02*
X13966428Y-10342714D01*
X14052143Y-10342714D02*
X14052143Y-10042714D01*
X14023571Y-10085572D01*
X13995000Y-10114143D01*
X13966428Y-10128429D01*
X14266428Y-10342714D02*
X14266428Y-10142714D01*
X14266428Y-10171286D02*
X14280714Y-10157000D01*
X14309286Y-10142714D01*
X14352143Y-10142714D01*
X14380714Y-10157000D01*
X14395000Y-10185572D01*
X14395000Y-10342714D01*
X14395000Y-10185572D02*
X14409286Y-10157000D01*
X14437857Y-10142714D01*
X14480714Y-10142714D01*
X14509286Y-10157000D01*
X14523571Y-10185572D01*
X14523571Y-10342714D01*
X14666428Y-10342714D02*
X14666428Y-10142714D01*
X14666428Y-10171286D02*
X14680714Y-10157000D01*
X14709286Y-10142714D01*
X14752143Y-10142714D01*
X14780714Y-10157000D01*
X14795000Y-10185572D01*
X14795000Y-10342714D01*
X14795000Y-10185572D02*
X14809286Y-10157000D01*
X14837857Y-10142714D01*
X14880714Y-10142714D01*
X14909286Y-10157000D01*
X14923571Y-10185572D01*
X14923571Y-10342714D01*
X15509286Y-10028429D02*
X15252143Y-10414143D01*
X15895000Y-10042714D02*
X15923571Y-10042714D01*
X15952143Y-10057000D01*
X15966428Y-10071286D01*
X15980714Y-10099857D01*
X15995000Y-10157000D01*
X15995000Y-10228429D01*
X15980714Y-10285572D01*
X15966428Y-10314143D01*
X15952143Y-10328429D01*
X15923571Y-10342714D01*
X15895000Y-10342714D01*
X15866428Y-10328429D01*
X15852143Y-10314143D01*
X15837857Y-10285572D01*
X15823571Y-10228429D01*
X15823571Y-10157000D01*
X15837857Y-10099857D01*
X15852143Y-10071286D01*
X15866428Y-10057000D01*
X15895000Y-10042714D01*
X16123571Y-10314143D02*
X16137857Y-10328429D01*
X16123571Y-10342714D01*
X16109286Y-10328429D01*
X16123571Y-10314143D01*
X16123571Y-10342714D01*
X16323571Y-10042714D02*
X16352143Y-10042714D01*
X16380714Y-10057000D01*
X16395000Y-10071286D01*
X16409285Y-10099857D01*
X16423571Y-10157000D01*
X16423571Y-10228429D01*
X16409285Y-10285572D01*
X16395000Y-10314143D01*
X16380714Y-10328429D01*
X16352143Y-10342714D01*
X16323571Y-10342714D01*
X16295000Y-10328429D01*
X16280714Y-10314143D01*
X16266428Y-10285572D01*
X16252143Y-10228429D01*
X16252143Y-10157000D01*
X16266428Y-10099857D01*
X16280714Y-10071286D01*
X16295000Y-10057000D01*
X16323571Y-10042714D01*
X16523571Y-10042714D02*
X16709285Y-10042714D01*
X16609285Y-10157000D01*
X16652143Y-10157000D01*
X16680714Y-10171286D01*
X16695000Y-10185572D01*
X16709285Y-10214143D01*
X16709285Y-10285572D01*
X16695000Y-10314143D01*
X16680714Y-10328429D01*
X16652143Y-10342714D01*
X16566428Y-10342714D01*
X16537857Y-10328429D01*
X16523571Y-10314143D01*
X16823571Y-10071286D02*
X16837857Y-10057000D01*
X16866428Y-10042714D01*
X16937857Y-10042714D01*
X16966428Y-10057000D01*
X16980714Y-10071286D01*
X16995000Y-10099857D01*
X16995000Y-10128429D01*
X16980714Y-10171286D01*
X16809286Y-10342714D01*
X16995000Y-10342714D01*
X17109286Y-10042714D02*
X17109286Y-10099857D01*
X17223571Y-10042714D02*
X17223571Y-10099857D01*
X17666428Y-10457000D02*
X17652143Y-10442714D01*
X17623571Y-10399857D01*
X17609286Y-10371286D01*
X17595000Y-10328429D01*
X17580714Y-10257000D01*
X17580714Y-10199857D01*
X17595000Y-10128429D01*
X17609286Y-10085572D01*
X17623571Y-10057000D01*
X17652143Y-10014143D01*
X17666428Y-9999857D01*
X17937857Y-10342714D02*
X17766428Y-10342714D01*
X17852143Y-10342714D02*
X17852143Y-10042714D01*
X17823571Y-10085572D01*
X17795000Y-10114143D01*
X17766428Y-10128429D01*
X18209286Y-10042714D02*
X18066428Y-10042714D01*
X18052143Y-10185572D01*
X18066428Y-10171286D01*
X18095000Y-10157000D01*
X18166428Y-10157000D01*
X18195000Y-10171286D01*
X18209286Y-10185572D01*
X18223571Y-10214143D01*
X18223571Y-10285572D01*
X18209286Y-10314143D01*
X18195000Y-10328429D01*
X18166428Y-10342714D01*
X18095000Y-10342714D01*
X18066428Y-10328429D01*
X18052143Y-10314143D01*
X18580714Y-10342714D02*
X18580714Y-10042714D01*
X18709286Y-10342714D02*
X18709286Y-10185572D01*
X18695000Y-10157000D01*
X18666428Y-10142714D01*
X18623571Y-10142714D01*
X18595000Y-10157000D01*
X18580714Y-10171286D01*
X18895000Y-10342714D02*
X18866428Y-10328429D01*
X18852143Y-10314143D01*
X18837857Y-10285572D01*
X18837857Y-10199857D01*
X18852143Y-10171286D01*
X18866428Y-10157000D01*
X18895000Y-10142714D01*
X18937857Y-10142714D01*
X18966428Y-10157000D01*
X18980714Y-10171286D01*
X18995000Y-10199857D01*
X18995000Y-10285572D01*
X18980714Y-10314143D01*
X18966428Y-10328429D01*
X18937857Y-10342714D01*
X18895000Y-10342714D01*
X19166428Y-10342714D02*
X19137857Y-10328429D01*
X19123571Y-10299857D01*
X19123571Y-10042714D01*
X19395000Y-10328429D02*
X19366429Y-10342714D01*
X19309286Y-10342714D01*
X19280714Y-10328429D01*
X19266429Y-10299857D01*
X19266429Y-10185572D01*
X19280714Y-10157000D01*
X19309286Y-10142714D01*
X19366429Y-10142714D01*
X19395000Y-10157000D01*
X19409286Y-10185572D01*
X19409286Y-10214143D01*
X19266429Y-10242714D01*
X19523571Y-10328429D02*
X19552143Y-10342714D01*
X19609286Y-10342714D01*
X19637857Y-10328429D01*
X19652143Y-10299857D01*
X19652143Y-10285572D01*
X19637857Y-10257000D01*
X19609286Y-10242714D01*
X19566429Y-10242714D01*
X19537857Y-10228429D01*
X19523571Y-10199857D01*
X19523571Y-10185572D01*
X19537857Y-10157000D01*
X19566429Y-10142714D01*
X19609286Y-10142714D01*
X19637857Y-10157000D01*
X19752143Y-10457000D02*
X19766429Y-10442714D01*
X19795000Y-10399857D01*
X19809286Y-10371286D01*
X19823571Y-10328429D01*
X19837857Y-10257000D01*
X19837857Y-10199857D01*
X19823571Y-10128429D01*
X19809286Y-10085572D01*
X19795000Y-10057000D01*
X19766429Y-10014143D01*
X19752143Y-9999857D01*
X12981820Y-10634820D02*
X12981820Y-10571180D01*
X12918180Y-10571180D01*
X12918180Y-10634820D01*
X12981820Y-10634820D01*
X13323571Y-10438714D02*
X13352143Y-10438714D01*
X13380714Y-10453000D01*
X13395000Y-10467286D01*
X13409286Y-10495857D01*
X13423571Y-10553000D01*
X13423571Y-10624429D01*
X13409286Y-10681572D01*
X13395000Y-10710143D01*
X13380714Y-10724429D01*
X13352143Y-10738714D01*
X13323571Y-10738714D01*
X13295000Y-10724429D01*
X13280714Y-10710143D01*
X13266428Y-10681572D01*
X13252143Y-10624429D01*
X13252143Y-10553000D01*
X13266428Y-10495857D01*
X13280714Y-10467286D01*
X13295000Y-10453000D01*
X13323571Y-10438714D01*
X13552143Y-10710143D02*
X13566428Y-10724429D01*
X13552143Y-10738714D01*
X13537857Y-10724429D01*
X13552143Y-10710143D01*
X13552143Y-10738714D01*
X13709286Y-10738714D02*
X13766428Y-10738714D01*
X13795000Y-10724429D01*
X13809286Y-10710143D01*
X13837857Y-10667286D01*
X13852143Y-10610143D01*
X13852143Y-10495857D01*
X13837857Y-10467286D01*
X13823571Y-10453000D01*
X13795000Y-10438714D01*
X13737857Y-10438714D01*
X13709286Y-10453000D01*
X13695000Y-10467286D01*
X13680714Y-10495857D01*
X13680714Y-10567286D01*
X13695000Y-10595857D01*
X13709286Y-10610143D01*
X13737857Y-10624429D01*
X13795000Y-10624429D01*
X13823571Y-10610143D01*
X13837857Y-10595857D01*
X13852143Y-10567286D01*
X14037857Y-10438714D02*
X14066428Y-10438714D01*
X14095000Y-10453000D01*
X14109286Y-10467286D01*
X14123571Y-10495857D01*
X14137857Y-10553000D01*
X14137857Y-10624429D01*
X14123571Y-10681572D01*
X14109286Y-10710143D01*
X14095000Y-10724429D01*
X14066428Y-10738714D01*
X14037857Y-10738714D01*
X14009286Y-10724429D01*
X13995000Y-10710143D01*
X13980714Y-10681572D01*
X13966428Y-10624429D01*
X13966428Y-10553000D01*
X13980714Y-10495857D01*
X13995000Y-10467286D01*
X14009286Y-10453000D01*
X14037857Y-10438714D01*
X14266428Y-10738714D02*
X14266428Y-10538714D01*
X14266428Y-10567286D02*
X14280714Y-10553000D01*
X14309286Y-10538714D01*
X14352143Y-10538714D01*
X14380714Y-10553000D01*
X14395000Y-10581572D01*
X14395000Y-10738714D01*
X14395000Y-10581572D02*
X14409286Y-10553000D01*
X14437857Y-10538714D01*
X14480714Y-10538714D01*
X14509286Y-10553000D01*
X14523571Y-10581572D01*
X14523571Y-10738714D01*
X14666428Y-10738714D02*
X14666428Y-10538714D01*
X14666428Y-10567286D02*
X14680714Y-10553000D01*
X14709286Y-10538714D01*
X14752143Y-10538714D01*
X14780714Y-10553000D01*
X14795000Y-10581572D01*
X14795000Y-10738714D01*
X14795000Y-10581572D02*
X14809286Y-10553000D01*
X14837857Y-10538714D01*
X14880714Y-10538714D01*
X14909286Y-10553000D01*
X14923571Y-10581572D01*
X14923571Y-10738714D01*
X15509286Y-10424429D02*
X15252143Y-10810143D01*
X15895000Y-10438714D02*
X15923571Y-10438714D01*
X15952143Y-10453000D01*
X15966428Y-10467286D01*
X15980714Y-10495857D01*
X15995000Y-10553000D01*
X15995000Y-10624429D01*
X15980714Y-10681572D01*
X15966428Y-10710143D01*
X15952143Y-10724429D01*
X15923571Y-10738714D01*
X15895000Y-10738714D01*
X15866428Y-10724429D01*
X15852143Y-10710143D01*
X15837857Y-10681572D01*
X15823571Y-10624429D01*
X15823571Y-10553000D01*
X15837857Y-10495857D01*
X15852143Y-10467286D01*
X15866428Y-10453000D01*
X15895000Y-10438714D01*
X16123571Y-10710143D02*
X16137857Y-10724429D01*
X16123571Y-10738714D01*
X16109286Y-10724429D01*
X16123571Y-10710143D01*
X16123571Y-10738714D01*
X16323571Y-10438714D02*
X16352143Y-10438714D01*
X16380714Y-10453000D01*
X16395000Y-10467286D01*
X16409285Y-10495857D01*
X16423571Y-10553000D01*
X16423571Y-10624429D01*
X16409285Y-10681572D01*
X16395000Y-10710143D01*
X16380714Y-10724429D01*
X16352143Y-10738714D01*
X16323571Y-10738714D01*
X16295000Y-10724429D01*
X16280714Y-10710143D01*
X16266428Y-10681572D01*
X16252143Y-10624429D01*
X16252143Y-10553000D01*
X16266428Y-10495857D01*
X16280714Y-10467286D01*
X16295000Y-10453000D01*
X16323571Y-10438714D01*
X16523571Y-10438714D02*
X16709285Y-10438714D01*
X16609285Y-10553000D01*
X16652143Y-10553000D01*
X16680714Y-10567286D01*
X16695000Y-10581572D01*
X16709285Y-10610143D01*
X16709285Y-10681572D01*
X16695000Y-10710143D01*
X16680714Y-10724429D01*
X16652143Y-10738714D01*
X16566428Y-10738714D01*
X16537857Y-10724429D01*
X16523571Y-10710143D01*
X16980714Y-10438714D02*
X16837857Y-10438714D01*
X16823571Y-10581572D01*
X16837857Y-10567286D01*
X16866428Y-10553000D01*
X16937857Y-10553000D01*
X16966428Y-10567286D01*
X16980714Y-10581572D01*
X16995000Y-10610143D01*
X16995000Y-10681572D01*
X16980714Y-10710143D01*
X16966428Y-10724429D01*
X16937857Y-10738714D01*
X16866428Y-10738714D01*
X16837857Y-10724429D01*
X16823571Y-10710143D01*
X17109286Y-10438714D02*
X17109286Y-10495857D01*
X17223571Y-10438714D02*
X17223571Y-10495857D01*
X17666428Y-10853000D02*
X17652143Y-10838714D01*
X17623571Y-10795857D01*
X17609286Y-10767286D01*
X17595000Y-10724429D01*
X17580714Y-10653000D01*
X17580714Y-10595857D01*
X17595000Y-10524429D01*
X17609286Y-10481572D01*
X17623571Y-10453000D01*
X17652143Y-10410143D01*
X17666428Y-10395857D01*
X17937857Y-10738714D02*
X17766428Y-10738714D01*
X17852143Y-10738714D02*
X17852143Y-10438714D01*
X17823571Y-10481572D01*
X17795000Y-10510143D01*
X17766428Y-10524429D01*
X18052143Y-10467286D02*
X18066428Y-10453000D01*
X18095000Y-10438714D01*
X18166428Y-10438714D01*
X18195000Y-10453000D01*
X18209286Y-10467286D01*
X18223571Y-10495857D01*
X18223571Y-10524429D01*
X18209286Y-10567286D01*
X18037857Y-10738714D01*
X18223571Y-10738714D01*
X18580714Y-10738714D02*
X18580714Y-10438714D01*
X18709286Y-10738714D02*
X18709286Y-10581572D01*
X18695000Y-10553000D01*
X18666428Y-10538714D01*
X18623571Y-10538714D01*
X18595000Y-10553000D01*
X18580714Y-10567286D01*
X18895000Y-10738714D02*
X18866428Y-10724429D01*
X18852143Y-10710143D01*
X18837857Y-10681572D01*
X18837857Y-10595857D01*
X18852143Y-10567286D01*
X18866428Y-10553000D01*
X18895000Y-10538714D01*
X18937857Y-10538714D01*
X18966428Y-10553000D01*
X18980714Y-10567286D01*
X18995000Y-10595857D01*
X18995000Y-10681572D01*
X18980714Y-10710143D01*
X18966428Y-10724429D01*
X18937857Y-10738714D01*
X18895000Y-10738714D01*
X19166428Y-10738714D02*
X19137857Y-10724429D01*
X19123571Y-10695857D01*
X19123571Y-10438714D01*
X19395000Y-10724429D02*
X19366429Y-10738714D01*
X19309286Y-10738714D01*
X19280714Y-10724429D01*
X19266429Y-10695857D01*
X19266429Y-10581572D01*
X19280714Y-10553000D01*
X19309286Y-10538714D01*
X19366429Y-10538714D01*
X19395000Y-10553000D01*
X19409286Y-10581572D01*
X19409286Y-10610143D01*
X19266429Y-10638714D01*
X19523571Y-10724429D02*
X19552143Y-10738714D01*
X19609286Y-10738714D01*
X19637857Y-10724429D01*
X19652143Y-10695857D01*
X19652143Y-10681572D01*
X19637857Y-10653000D01*
X19609286Y-10638714D01*
X19566429Y-10638714D01*
X19537857Y-10624429D01*
X19523571Y-10595857D01*
X19523571Y-10581572D01*
X19537857Y-10553000D01*
X19566429Y-10538714D01*
X19609286Y-10538714D01*
X19637857Y-10553000D01*
X19752143Y-10853000D02*
X19766429Y-10838714D01*
X19795000Y-10795857D01*
X19809286Y-10767286D01*
X19823571Y-10724429D01*
X19837857Y-10653000D01*
X19837857Y-10595857D01*
X19823571Y-10524429D01*
X19809286Y-10481572D01*
X19795000Y-10453000D01*
X19766429Y-10410143D01*
X19752143Y-10395857D01*
X12949000Y-11045000D02*
X12995000Y-10999000D01*
X12949000Y-10953000D01*
X12903000Y-10999000D01*
X12949000Y-11045000D01*
X13323571Y-10834714D02*
X13352143Y-10834714D01*
X13380714Y-10849000D01*
X13395000Y-10863286D01*
X13409286Y-10891857D01*
X13423571Y-10949000D01*
X13423571Y-11020429D01*
X13409286Y-11077572D01*
X13395000Y-11106143D01*
X13380714Y-11120429D01*
X13352143Y-11134714D01*
X13323571Y-11134714D01*
X13295000Y-11120429D01*
X13280714Y-11106143D01*
X13266428Y-11077572D01*
X13252143Y-11020429D01*
X13252143Y-10949000D01*
X13266428Y-10891857D01*
X13280714Y-10863286D01*
X13295000Y-10849000D01*
X13323571Y-10834714D01*
X13552143Y-11106143D02*
X13566428Y-11120429D01*
X13552143Y-11134714D01*
X13537857Y-11120429D01*
X13552143Y-11106143D01*
X13552143Y-11134714D01*
X13709286Y-11134714D02*
X13766428Y-11134714D01*
X13795000Y-11120429D01*
X13809286Y-11106143D01*
X13837857Y-11063286D01*
X13852143Y-11006143D01*
X13852143Y-10891857D01*
X13837857Y-10863286D01*
X13823571Y-10849000D01*
X13795000Y-10834714D01*
X13737857Y-10834714D01*
X13709286Y-10849000D01*
X13695000Y-10863286D01*
X13680714Y-10891857D01*
X13680714Y-10963286D01*
X13695000Y-10991857D01*
X13709286Y-11006143D01*
X13737857Y-11020429D01*
X13795000Y-11020429D01*
X13823571Y-11006143D01*
X13837857Y-10991857D01*
X13852143Y-10963286D01*
X13966428Y-10863286D02*
X13980714Y-10849000D01*
X14009286Y-10834714D01*
X14080714Y-10834714D01*
X14109286Y-10849000D01*
X14123571Y-10863286D01*
X14137857Y-10891857D01*
X14137857Y-10920429D01*
X14123571Y-10963286D01*
X13952143Y-11134714D01*
X14137857Y-11134714D01*
X14266428Y-11134714D02*
X14266428Y-10934714D01*
X14266428Y-10963286D02*
X14280714Y-10949000D01*
X14309286Y-10934714D01*
X14352143Y-10934714D01*
X14380714Y-10949000D01*
X14395000Y-10977572D01*
X14395000Y-11134714D01*
X14395000Y-10977572D02*
X14409286Y-10949000D01*
X14437857Y-10934714D01*
X14480714Y-10934714D01*
X14509286Y-10949000D01*
X14523571Y-10977572D01*
X14523571Y-11134714D01*
X14666428Y-11134714D02*
X14666428Y-10934714D01*
X14666428Y-10963286D02*
X14680714Y-10949000D01*
X14709286Y-10934714D01*
X14752143Y-10934714D01*
X14780714Y-10949000D01*
X14795000Y-10977572D01*
X14795000Y-11134714D01*
X14795000Y-10977572D02*
X14809286Y-10949000D01*
X14837857Y-10934714D01*
X14880714Y-10934714D01*
X14909286Y-10949000D01*
X14923571Y-10977572D01*
X14923571Y-11134714D01*
X15509286Y-10820429D02*
X15252143Y-11206143D01*
X15895000Y-10834714D02*
X15923571Y-10834714D01*
X15952143Y-10849000D01*
X15966428Y-10863286D01*
X15980714Y-10891857D01*
X15995000Y-10949000D01*
X15995000Y-11020429D01*
X15980714Y-11077572D01*
X15966428Y-11106143D01*
X15952143Y-11120429D01*
X15923571Y-11134714D01*
X15895000Y-11134714D01*
X15866428Y-11120429D01*
X15852143Y-11106143D01*
X15837857Y-11077572D01*
X15823571Y-11020429D01*
X15823571Y-10949000D01*
X15837857Y-10891857D01*
X15852143Y-10863286D01*
X15866428Y-10849000D01*
X15895000Y-10834714D01*
X16123571Y-11106143D02*
X16137857Y-11120429D01*
X16123571Y-11134714D01*
X16109286Y-11120429D01*
X16123571Y-11106143D01*
X16123571Y-11134714D01*
X16323571Y-10834714D02*
X16352143Y-10834714D01*
X16380714Y-10849000D01*
X16395000Y-10863286D01*
X16409285Y-10891857D01*
X16423571Y-10949000D01*
X16423571Y-11020429D01*
X16409285Y-11077572D01*
X16395000Y-11106143D01*
X16380714Y-11120429D01*
X16352143Y-11134714D01*
X16323571Y-11134714D01*
X16295000Y-11120429D01*
X16280714Y-11106143D01*
X16266428Y-11077572D01*
X16252143Y-11020429D01*
X16252143Y-10949000D01*
X16266428Y-10891857D01*
X16280714Y-10863286D01*
X16295000Y-10849000D01*
X16323571Y-10834714D01*
X16523571Y-10834714D02*
X16709285Y-10834714D01*
X16609285Y-10949000D01*
X16652143Y-10949000D01*
X16680714Y-10963286D01*
X16695000Y-10977572D01*
X16709285Y-11006143D01*
X16709285Y-11077572D01*
X16695000Y-11106143D01*
X16680714Y-11120429D01*
X16652143Y-11134714D01*
X16566428Y-11134714D01*
X16537857Y-11120429D01*
X16523571Y-11106143D01*
X16966428Y-10834714D02*
X16909286Y-10834714D01*
X16880714Y-10849000D01*
X16866428Y-10863286D01*
X16837857Y-10906143D01*
X16823571Y-10963286D01*
X16823571Y-11077572D01*
X16837857Y-11106143D01*
X16852143Y-11120429D01*
X16880714Y-11134714D01*
X16937857Y-11134714D01*
X16966428Y-11120429D01*
X16980714Y-11106143D01*
X16995000Y-11077572D01*
X16995000Y-11006143D01*
X16980714Y-10977572D01*
X16966428Y-10963286D01*
X16937857Y-10949000D01*
X16880714Y-10949000D01*
X16852143Y-10963286D01*
X16837857Y-10977572D01*
X16823571Y-11006143D01*
X17109286Y-10834714D02*
X17109286Y-10891857D01*
X17223571Y-10834714D02*
X17223571Y-10891857D01*
X17666428Y-11249000D02*
X17652143Y-11234714D01*
X17623571Y-11191857D01*
X17609286Y-11163286D01*
X17595000Y-11120429D01*
X17580714Y-11049000D01*
X17580714Y-10991857D01*
X17595000Y-10920429D01*
X17609286Y-10877572D01*
X17623571Y-10849000D01*
X17652143Y-10806143D01*
X17666428Y-10791857D01*
X17937857Y-11134714D02*
X17766428Y-11134714D01*
X17852143Y-11134714D02*
X17852143Y-10834714D01*
X17823571Y-10877572D01*
X17795000Y-10906143D01*
X17766428Y-10920429D01*
X18295000Y-11134714D02*
X18295000Y-10834714D01*
X18423571Y-11134714D02*
X18423571Y-10977572D01*
X18409286Y-10949000D01*
X18380714Y-10934714D01*
X18337857Y-10934714D01*
X18309286Y-10949000D01*
X18295000Y-10963286D01*
X18609286Y-11134714D02*
X18580714Y-11120429D01*
X18566428Y-11106143D01*
X18552143Y-11077572D01*
X18552143Y-10991857D01*
X18566428Y-10963286D01*
X18580714Y-10949000D01*
X18609286Y-10934714D01*
X18652143Y-10934714D01*
X18680714Y-10949000D01*
X18695000Y-10963286D01*
X18709286Y-10991857D01*
X18709286Y-11077572D01*
X18695000Y-11106143D01*
X18680714Y-11120429D01*
X18652143Y-11134714D01*
X18609286Y-11134714D01*
X18880714Y-11134714D02*
X18852143Y-11120429D01*
X18837857Y-11091857D01*
X18837857Y-10834714D01*
X19109286Y-11120429D02*
X19080714Y-11134714D01*
X19023571Y-11134714D01*
X18995000Y-11120429D01*
X18980714Y-11091857D01*
X18980714Y-10977572D01*
X18995000Y-10949000D01*
X19023571Y-10934714D01*
X19080714Y-10934714D01*
X19109286Y-10949000D01*
X19123571Y-10977572D01*
X19123571Y-11006143D01*
X18980714Y-11034714D01*
X19223571Y-11249000D02*
X19237857Y-11234714D01*
X19266429Y-11191857D01*
X19280714Y-11163286D01*
X19295000Y-11120429D01*
X19309286Y-11049000D01*
X19309286Y-10991857D01*
X19295000Y-10920429D01*
X19280714Y-10877572D01*
X19266429Y-10849000D01*
X19237857Y-10806143D01*
X19223571Y-10791857D01*
X12894924Y-11344962D02*
X12995000Y-11445038D01*
X12995000Y-11344962D02*
X12894924Y-11445038D01*
X12995000Y-11395000D02*
G75*
G03X12995000Y-11395000I-50038J0D01*
G01*
X13423571Y-11530714D02*
X13252143Y-11530714D01*
X13337857Y-11530714D02*
X13337857Y-11230714D01*
X13309286Y-11273571D01*
X13280714Y-11302143D01*
X13252143Y-11316429D01*
X13552143Y-11502143D02*
X13566428Y-11516429D01*
X13552143Y-11530714D01*
X13537857Y-11516429D01*
X13552143Y-11502143D01*
X13552143Y-11530714D01*
X13752143Y-11230714D02*
X13780714Y-11230714D01*
X13809286Y-11245000D01*
X13823571Y-11259286D01*
X13837857Y-11287857D01*
X13852143Y-11345000D01*
X13852143Y-11416429D01*
X13837857Y-11473571D01*
X13823571Y-11502143D01*
X13809286Y-11516429D01*
X13780714Y-11530714D01*
X13752143Y-11530714D01*
X13723571Y-11516429D01*
X13709286Y-11502143D01*
X13695000Y-11473571D01*
X13680714Y-11416429D01*
X13680714Y-11345000D01*
X13695000Y-11287857D01*
X13709286Y-11259286D01*
X13723571Y-11245000D01*
X13752143Y-11230714D01*
X14037857Y-11230714D02*
X14066428Y-11230714D01*
X14095000Y-11245000D01*
X14109286Y-11259286D01*
X14123571Y-11287857D01*
X14137857Y-11345000D01*
X14137857Y-11416429D01*
X14123571Y-11473571D01*
X14109286Y-11502143D01*
X14095000Y-11516429D01*
X14066428Y-11530714D01*
X14037857Y-11530714D01*
X14009286Y-11516429D01*
X13995000Y-11502143D01*
X13980714Y-11473571D01*
X13966428Y-11416429D01*
X13966428Y-11345000D01*
X13980714Y-11287857D01*
X13995000Y-11259286D01*
X14009286Y-11245000D01*
X14037857Y-11230714D01*
X14266428Y-11530714D02*
X14266428Y-11330714D01*
X14266428Y-11359286D02*
X14280714Y-11345000D01*
X14309286Y-11330714D01*
X14352143Y-11330714D01*
X14380714Y-11345000D01*
X14395000Y-11373571D01*
X14395000Y-11530714D01*
X14395000Y-11373571D02*
X14409286Y-11345000D01*
X14437857Y-11330714D01*
X14480714Y-11330714D01*
X14509286Y-11345000D01*
X14523571Y-11373571D01*
X14523571Y-11530714D01*
X14666428Y-11530714D02*
X14666428Y-11330714D01*
X14666428Y-11359286D02*
X14680714Y-11345000D01*
X14709286Y-11330714D01*
X14752143Y-11330714D01*
X14780714Y-11345000D01*
X14795000Y-11373571D01*
X14795000Y-11530714D01*
X14795000Y-11373571D02*
X14809286Y-11345000D01*
X14837857Y-11330714D01*
X14880714Y-11330714D01*
X14909286Y-11345000D01*
X14923571Y-11373571D01*
X14923571Y-11530714D01*
X15509286Y-11216429D02*
X15252143Y-11602143D01*
X15895000Y-11230714D02*
X15923571Y-11230714D01*
X15952143Y-11245000D01*
X15966428Y-11259286D01*
X15980714Y-11287857D01*
X15995000Y-11345000D01*
X15995000Y-11416429D01*
X15980714Y-11473571D01*
X15966428Y-11502143D01*
X15952143Y-11516429D01*
X15923571Y-11530714D01*
X15895000Y-11530714D01*
X15866428Y-11516429D01*
X15852143Y-11502143D01*
X15837857Y-11473571D01*
X15823571Y-11416429D01*
X15823571Y-11345000D01*
X15837857Y-11287857D01*
X15852143Y-11259286D01*
X15866428Y-11245000D01*
X15895000Y-11230714D01*
X16123571Y-11502143D02*
X16137857Y-11516429D01*
X16123571Y-11530714D01*
X16109286Y-11516429D01*
X16123571Y-11502143D01*
X16123571Y-11530714D01*
X16323571Y-11230714D02*
X16352143Y-11230714D01*
X16380714Y-11245000D01*
X16395000Y-11259286D01*
X16409285Y-11287857D01*
X16423571Y-11345000D01*
X16423571Y-11416429D01*
X16409285Y-11473571D01*
X16395000Y-11502143D01*
X16380714Y-11516429D01*
X16352143Y-11530714D01*
X16323571Y-11530714D01*
X16295000Y-11516429D01*
X16280714Y-11502143D01*
X16266428Y-11473571D01*
X16252143Y-11416429D01*
X16252143Y-11345000D01*
X16266428Y-11287857D01*
X16280714Y-11259286D01*
X16295000Y-11245000D01*
X16323571Y-11230714D01*
X16523571Y-11230714D02*
X16709285Y-11230714D01*
X16609285Y-11345000D01*
X16652143Y-11345000D01*
X16680714Y-11359286D01*
X16695000Y-11373571D01*
X16709285Y-11402143D01*
X16709285Y-11473571D01*
X16695000Y-11502143D01*
X16680714Y-11516429D01*
X16652143Y-11530714D01*
X16566428Y-11530714D01*
X16537857Y-11516429D01*
X16523571Y-11502143D01*
X16852143Y-11530714D02*
X16909286Y-11530714D01*
X16937857Y-11516429D01*
X16952143Y-11502143D01*
X16980714Y-11459286D01*
X16995000Y-11402143D01*
X16995000Y-11287857D01*
X16980714Y-11259286D01*
X16966428Y-11245000D01*
X16937857Y-11230714D01*
X16880714Y-11230714D01*
X16852143Y-11245000D01*
X16837857Y-11259286D01*
X16823571Y-11287857D01*
X16823571Y-11359286D01*
X16837857Y-11387857D01*
X16852143Y-11402143D01*
X16880714Y-11416429D01*
X16937857Y-11416429D01*
X16966428Y-11402143D01*
X16980714Y-11387857D01*
X16995000Y-11359286D01*
X17109286Y-11230714D02*
X17109286Y-11287857D01*
X17223571Y-11230714D02*
X17223571Y-11287857D01*
X17666428Y-11645000D02*
X17652143Y-11630714D01*
X17623571Y-11587857D01*
X17609286Y-11559286D01*
X17595000Y-11516429D01*
X17580714Y-11445000D01*
X17580714Y-11387857D01*
X17595000Y-11316429D01*
X17609286Y-11273571D01*
X17623571Y-11245000D01*
X17652143Y-11202143D01*
X17666428Y-11187857D01*
X17937857Y-11530714D02*
X17766428Y-11530714D01*
X17852143Y-11530714D02*
X17852143Y-11230714D01*
X17823571Y-11273571D01*
X17795000Y-11302143D01*
X17766428Y-11316429D01*
X18209286Y-11230714D02*
X18066428Y-11230714D01*
X18052143Y-11373571D01*
X18066428Y-11359286D01*
X18095000Y-11345000D01*
X18166428Y-11345000D01*
X18195000Y-11359286D01*
X18209286Y-11373571D01*
X18223571Y-11402143D01*
X18223571Y-11473571D01*
X18209286Y-11502143D01*
X18195000Y-11516429D01*
X18166428Y-11530714D01*
X18095000Y-11530714D01*
X18066428Y-11516429D01*
X18052143Y-11502143D01*
X18580714Y-11530714D02*
X18580714Y-11230714D01*
X18709286Y-11530714D02*
X18709286Y-11373571D01*
X18695000Y-11345000D01*
X18666428Y-11330714D01*
X18623571Y-11330714D01*
X18595000Y-11345000D01*
X18580714Y-11359286D01*
X18895000Y-11530714D02*
X18866428Y-11516429D01*
X18852143Y-11502143D01*
X18837857Y-11473571D01*
X18837857Y-11387857D01*
X18852143Y-11359286D01*
X18866428Y-11345000D01*
X18895000Y-11330714D01*
X18937857Y-11330714D01*
X18966428Y-11345000D01*
X18980714Y-11359286D01*
X18995000Y-11387857D01*
X18995000Y-11473571D01*
X18980714Y-11502143D01*
X18966428Y-11516429D01*
X18937857Y-11530714D01*
X18895000Y-11530714D01*
X19166428Y-11530714D02*
X19137857Y-11516429D01*
X19123571Y-11487857D01*
X19123571Y-11230714D01*
X19395000Y-11516429D02*
X19366429Y-11530714D01*
X19309286Y-11530714D01*
X19280714Y-11516429D01*
X19266429Y-11487857D01*
X19266429Y-11373571D01*
X19280714Y-11345000D01*
X19309286Y-11330714D01*
X19366429Y-11330714D01*
X19395000Y-11345000D01*
X19409286Y-11373571D01*
X19409286Y-11402143D01*
X19266429Y-11430714D01*
X19523571Y-11516429D02*
X19552143Y-11530714D01*
X19609286Y-11530714D01*
X19637857Y-11516429D01*
X19652143Y-11487857D01*
X19652143Y-11473571D01*
X19637857Y-11445000D01*
X19609286Y-11430714D01*
X19566429Y-11430714D01*
X19537857Y-11416429D01*
X19523571Y-11387857D01*
X19523571Y-11373571D01*
X19537857Y-11345000D01*
X19566429Y-11330714D01*
X19609286Y-11330714D01*
X19637857Y-11345000D01*
X19752143Y-11645000D02*
X19766429Y-11630714D01*
X19795000Y-11587857D01*
X19809286Y-11559286D01*
X19823571Y-11516429D01*
X19837857Y-11445000D01*
X19837857Y-11387857D01*
X19823571Y-11316429D01*
X19809286Y-11273571D01*
X19795000Y-11245000D01*
X19766429Y-11202143D01*
X19752143Y-11187857D01*
X12893400Y-11740200D02*
X12995000Y-11841800D01*
X12995000Y-11740200D02*
X12893400Y-11841800D01*
X12944200Y-11740200D02*
X12944200Y-11841800D01*
X12893400Y-11791000D02*
X12995000Y-11791000D01*
X13423571Y-11926714D02*
X13252143Y-11926714D01*
X13337857Y-11926714D02*
X13337857Y-11626714D01*
X13309286Y-11669571D01*
X13280714Y-11698143D01*
X13252143Y-11712429D01*
X13552143Y-11898143D02*
X13566428Y-11912429D01*
X13552143Y-11926714D01*
X13537857Y-11912429D01*
X13552143Y-11898143D01*
X13552143Y-11926714D01*
X13752143Y-11626714D02*
X13780714Y-11626714D01*
X13809286Y-11641000D01*
X13823571Y-11655286D01*
X13837857Y-11683857D01*
X13852143Y-11741000D01*
X13852143Y-11812429D01*
X13837857Y-11869571D01*
X13823571Y-11898143D01*
X13809286Y-11912429D01*
X13780714Y-11926714D01*
X13752143Y-11926714D01*
X13723571Y-11912429D01*
X13709286Y-11898143D01*
X13695000Y-11869571D01*
X13680714Y-11812429D01*
X13680714Y-11741000D01*
X13695000Y-11683857D01*
X13709286Y-11655286D01*
X13723571Y-11641000D01*
X13752143Y-11626714D01*
X13966428Y-11655286D02*
X13980714Y-11641000D01*
X14009286Y-11626714D01*
X14080714Y-11626714D01*
X14109286Y-11641000D01*
X14123571Y-11655286D01*
X14137857Y-11683857D01*
X14137857Y-11712429D01*
X14123571Y-11755286D01*
X13952143Y-11926714D01*
X14137857Y-11926714D01*
X14266428Y-11926714D02*
X14266428Y-11726714D01*
X14266428Y-11755286D02*
X14280714Y-11741000D01*
X14309286Y-11726714D01*
X14352143Y-11726714D01*
X14380714Y-11741000D01*
X14395000Y-11769571D01*
X14395000Y-11926714D01*
X14395000Y-11769571D02*
X14409286Y-11741000D01*
X14437857Y-11726714D01*
X14480714Y-11726714D01*
X14509286Y-11741000D01*
X14523571Y-11769571D01*
X14523571Y-11926714D01*
X14666428Y-11926714D02*
X14666428Y-11726714D01*
X14666428Y-11755286D02*
X14680714Y-11741000D01*
X14709286Y-11726714D01*
X14752143Y-11726714D01*
X14780714Y-11741000D01*
X14795000Y-11769571D01*
X14795000Y-11926714D01*
X14795000Y-11769571D02*
X14809286Y-11741000D01*
X14837857Y-11726714D01*
X14880714Y-11726714D01*
X14909286Y-11741000D01*
X14923571Y-11769571D01*
X14923571Y-11926714D01*
X15509286Y-11612429D02*
X15252143Y-11998143D01*
X15895000Y-11626714D02*
X15923571Y-11626714D01*
X15952143Y-11641000D01*
X15966428Y-11655286D01*
X15980714Y-11683857D01*
X15995000Y-11741000D01*
X15995000Y-11812429D01*
X15980714Y-11869571D01*
X15966428Y-11898143D01*
X15952143Y-11912429D01*
X15923571Y-11926714D01*
X15895000Y-11926714D01*
X15866428Y-11912429D01*
X15852143Y-11898143D01*
X15837857Y-11869571D01*
X15823571Y-11812429D01*
X15823571Y-11741000D01*
X15837857Y-11683857D01*
X15852143Y-11655286D01*
X15866428Y-11641000D01*
X15895000Y-11626714D01*
X16123571Y-11898143D02*
X16137857Y-11912429D01*
X16123571Y-11926714D01*
X16109286Y-11912429D01*
X16123571Y-11898143D01*
X16123571Y-11926714D01*
X16323571Y-11626714D02*
X16352143Y-11626714D01*
X16380714Y-11641000D01*
X16395000Y-11655286D01*
X16409285Y-11683857D01*
X16423571Y-11741000D01*
X16423571Y-11812429D01*
X16409285Y-11869571D01*
X16395000Y-11898143D01*
X16380714Y-11912429D01*
X16352143Y-11926714D01*
X16323571Y-11926714D01*
X16295000Y-11912429D01*
X16280714Y-11898143D01*
X16266428Y-11869571D01*
X16252143Y-11812429D01*
X16252143Y-11741000D01*
X16266428Y-11683857D01*
X16280714Y-11655286D01*
X16295000Y-11641000D01*
X16323571Y-11626714D01*
X16680714Y-11726714D02*
X16680714Y-11926714D01*
X16609285Y-11612429D02*
X16537857Y-11826714D01*
X16723571Y-11826714D01*
X16895000Y-11626714D02*
X16923571Y-11626714D01*
X16952143Y-11641000D01*
X16966428Y-11655286D01*
X16980714Y-11683857D01*
X16995000Y-11741000D01*
X16995000Y-11812429D01*
X16980714Y-11869571D01*
X16966428Y-11898143D01*
X16952143Y-11912429D01*
X16923571Y-11926714D01*
X16895000Y-11926714D01*
X16866428Y-11912429D01*
X16852143Y-11898143D01*
X16837857Y-11869571D01*
X16823571Y-11812429D01*
X16823571Y-11741000D01*
X16837857Y-11683857D01*
X16852143Y-11655286D01*
X16866428Y-11641000D01*
X16895000Y-11626714D01*
X17109286Y-11626714D02*
X17109286Y-11683857D01*
X17223571Y-11626714D02*
X17223571Y-11683857D01*
X17666428Y-12041000D02*
X17652143Y-12026714D01*
X17623571Y-11983857D01*
X17609286Y-11955286D01*
X17595000Y-11912429D01*
X17580714Y-11841000D01*
X17580714Y-11783857D01*
X17595000Y-11712429D01*
X17609286Y-11669571D01*
X17623571Y-11641000D01*
X17652143Y-11598143D01*
X17666428Y-11583857D01*
X17823571Y-11755286D02*
X17795000Y-11741000D01*
X17780714Y-11726714D01*
X17766428Y-11698143D01*
X17766428Y-11683857D01*
X17780714Y-11655286D01*
X17795000Y-11641000D01*
X17823571Y-11626714D01*
X17880714Y-11626714D01*
X17909286Y-11641000D01*
X17923571Y-11655286D01*
X17937857Y-11683857D01*
X17937857Y-11698143D01*
X17923571Y-11726714D01*
X17909286Y-11741000D01*
X17880714Y-11755286D01*
X17823571Y-11755286D01*
X17795000Y-11769571D01*
X17780714Y-11783857D01*
X17766428Y-11812429D01*
X17766428Y-11869571D01*
X17780714Y-11898143D01*
X17795000Y-11912429D01*
X17823571Y-11926714D01*
X17880714Y-11926714D01*
X17909286Y-11912429D01*
X17923571Y-11898143D01*
X17937857Y-11869571D01*
X17937857Y-11812429D01*
X17923571Y-11783857D01*
X17909286Y-11769571D01*
X17880714Y-11755286D01*
X18295000Y-11926714D02*
X18295000Y-11626714D01*
X18423571Y-11926714D02*
X18423571Y-11769571D01*
X18409286Y-11741000D01*
X18380714Y-11726714D01*
X18337857Y-11726714D01*
X18309286Y-11741000D01*
X18295000Y-11755286D01*
X18609286Y-11926714D02*
X18580714Y-11912429D01*
X18566428Y-11898143D01*
X18552143Y-11869571D01*
X18552143Y-11783857D01*
X18566428Y-11755286D01*
X18580714Y-11741000D01*
X18609286Y-11726714D01*
X18652143Y-11726714D01*
X18680714Y-11741000D01*
X18695000Y-11755286D01*
X18709286Y-11783857D01*
X18709286Y-11869571D01*
X18695000Y-11898143D01*
X18680714Y-11912429D01*
X18652143Y-11926714D01*
X18609286Y-11926714D01*
X18880714Y-11926714D02*
X18852143Y-11912429D01*
X18837857Y-11883857D01*
X18837857Y-11626714D01*
X19109286Y-11912429D02*
X19080714Y-11926714D01*
X19023571Y-11926714D01*
X18995000Y-11912429D01*
X18980714Y-11883857D01*
X18980714Y-11769571D01*
X18995000Y-11741000D01*
X19023571Y-11726714D01*
X19080714Y-11726714D01*
X19109286Y-11741000D01*
X19123571Y-11769571D01*
X19123571Y-11798143D01*
X18980714Y-11826714D01*
X19237857Y-11912429D02*
X19266429Y-11926714D01*
X19323571Y-11926714D01*
X19352143Y-11912429D01*
X19366429Y-11883857D01*
X19366429Y-11869571D01*
X19352143Y-11841000D01*
X19323571Y-11826714D01*
X19280714Y-11826714D01*
X19252143Y-11812429D01*
X19237857Y-11783857D01*
X19237857Y-11769571D01*
X19252143Y-11741000D01*
X19280714Y-11726714D01*
X19323571Y-11726714D01*
X19352143Y-11741000D01*
X19466428Y-12041000D02*
X19480714Y-12026714D01*
X19509286Y-11983857D01*
X19523571Y-11955286D01*
X19537857Y-11912429D01*
X19552143Y-11841000D01*
X19552143Y-11783857D01*
X19537857Y-11712429D01*
X19523571Y-11669571D01*
X19509286Y-11641000D01*
X19480714Y-11598143D01*
X19466428Y-11583857D01*
X12845000Y-12112000D02*
X12995000Y-12262000D01*
X12995000Y-12112000D02*
X12845000Y-12262000D01*
X12973033Y-12240034D02*
X12973033Y-12133967D01*
X12866966Y-12133967D01*
X12866966Y-12240034D01*
X12973033Y-12240034D01*
X13423571Y-12322714D02*
X13252143Y-12322714D01*
X13337857Y-12322714D02*
X13337857Y-12022714D01*
X13309286Y-12065571D01*
X13280714Y-12094143D01*
X13252143Y-12108429D01*
X13552143Y-12294143D02*
X13566428Y-12308429D01*
X13552143Y-12322714D01*
X13537857Y-12308429D01*
X13552143Y-12294143D01*
X13552143Y-12322714D01*
X13837857Y-12022714D02*
X13695000Y-12022714D01*
X13680714Y-12165571D01*
X13695000Y-12151286D01*
X13723571Y-12137000D01*
X13795000Y-12137000D01*
X13823571Y-12151286D01*
X13837857Y-12165571D01*
X13852143Y-12194143D01*
X13852143Y-12265571D01*
X13837857Y-12294143D01*
X13823571Y-12308429D01*
X13795000Y-12322714D01*
X13723571Y-12322714D01*
X13695000Y-12308429D01*
X13680714Y-12294143D01*
X14037857Y-12022714D02*
X14066428Y-12022714D01*
X14095000Y-12037000D01*
X14109286Y-12051286D01*
X14123571Y-12079857D01*
X14137857Y-12137000D01*
X14137857Y-12208429D01*
X14123571Y-12265571D01*
X14109286Y-12294143D01*
X14095000Y-12308429D01*
X14066428Y-12322714D01*
X14037857Y-12322714D01*
X14009286Y-12308429D01*
X13995000Y-12294143D01*
X13980714Y-12265571D01*
X13966428Y-12208429D01*
X13966428Y-12137000D01*
X13980714Y-12079857D01*
X13995000Y-12051286D01*
X14009286Y-12037000D01*
X14037857Y-12022714D01*
X14266428Y-12322714D02*
X14266428Y-12122714D01*
X14266428Y-12151286D02*
X14280714Y-12137000D01*
X14309286Y-12122714D01*
X14352143Y-12122714D01*
X14380714Y-12137000D01*
X14395000Y-12165571D01*
X14395000Y-12322714D01*
X14395000Y-12165571D02*
X14409286Y-12137000D01*
X14437857Y-12122714D01*
X14480714Y-12122714D01*
X14509286Y-12137000D01*
X14523571Y-12165571D01*
X14523571Y-12322714D01*
X14666428Y-12322714D02*
X14666428Y-12122714D01*
X14666428Y-12151286D02*
X14680714Y-12137000D01*
X14709286Y-12122714D01*
X14752143Y-12122714D01*
X14780714Y-12137000D01*
X14795000Y-12165571D01*
X14795000Y-12322714D01*
X14795000Y-12165571D02*
X14809286Y-12137000D01*
X14837857Y-12122714D01*
X14880714Y-12122714D01*
X14909286Y-12137000D01*
X14923571Y-12165571D01*
X14923571Y-12322714D01*
X15509286Y-12008429D02*
X15252143Y-12394143D01*
X15895000Y-12022714D02*
X15923571Y-12022714D01*
X15952143Y-12037000D01*
X15966428Y-12051286D01*
X15980714Y-12079857D01*
X15995000Y-12137000D01*
X15995000Y-12208429D01*
X15980714Y-12265571D01*
X15966428Y-12294143D01*
X15952143Y-12308429D01*
X15923571Y-12322714D01*
X15895000Y-12322714D01*
X15866428Y-12308429D01*
X15852143Y-12294143D01*
X15837857Y-12265571D01*
X15823571Y-12208429D01*
X15823571Y-12137000D01*
X15837857Y-12079857D01*
X15852143Y-12051286D01*
X15866428Y-12037000D01*
X15895000Y-12022714D01*
X16123571Y-12294143D02*
X16137857Y-12308429D01*
X16123571Y-12322714D01*
X16109286Y-12308429D01*
X16123571Y-12294143D01*
X16123571Y-12322714D01*
X16323571Y-12022714D02*
X16352143Y-12022714D01*
X16380714Y-12037000D01*
X16395000Y-12051286D01*
X16409285Y-12079857D01*
X16423571Y-12137000D01*
X16423571Y-12208429D01*
X16409285Y-12265571D01*
X16395000Y-12294143D01*
X16380714Y-12308429D01*
X16352143Y-12322714D01*
X16323571Y-12322714D01*
X16295000Y-12308429D01*
X16280714Y-12294143D01*
X16266428Y-12265571D01*
X16252143Y-12208429D01*
X16252143Y-12137000D01*
X16266428Y-12079857D01*
X16280714Y-12051286D01*
X16295000Y-12037000D01*
X16323571Y-12022714D01*
X16695000Y-12022714D02*
X16552143Y-12022714D01*
X16537857Y-12165571D01*
X16552143Y-12151286D01*
X16580714Y-12137000D01*
X16652143Y-12137000D01*
X16680714Y-12151286D01*
X16695000Y-12165571D01*
X16709285Y-12194143D01*
X16709285Y-12265571D01*
X16695000Y-12294143D01*
X16680714Y-12308429D01*
X16652143Y-12322714D01*
X16580714Y-12322714D01*
X16552143Y-12308429D01*
X16537857Y-12294143D01*
X16852143Y-12322714D02*
X16909286Y-12322714D01*
X16937857Y-12308429D01*
X16952143Y-12294143D01*
X16980714Y-12251286D01*
X16995000Y-12194143D01*
X16995000Y-12079857D01*
X16980714Y-12051286D01*
X16966428Y-12037000D01*
X16937857Y-12022714D01*
X16880714Y-12022714D01*
X16852143Y-12037000D01*
X16837857Y-12051286D01*
X16823571Y-12079857D01*
X16823571Y-12151286D01*
X16837857Y-12179857D01*
X16852143Y-12194143D01*
X16880714Y-12208429D01*
X16937857Y-12208429D01*
X16966428Y-12194143D01*
X16980714Y-12179857D01*
X16995000Y-12151286D01*
X17109286Y-12022714D02*
X17109286Y-12079857D01*
X17223571Y-12022714D02*
X17223571Y-12079857D01*
X17666428Y-12437000D02*
X17652143Y-12422714D01*
X17623571Y-12379857D01*
X17609286Y-12351286D01*
X17595000Y-12308429D01*
X17580714Y-12237000D01*
X17580714Y-12179857D01*
X17595000Y-12108429D01*
X17609286Y-12065571D01*
X17623571Y-12037000D01*
X17652143Y-11994143D01*
X17666428Y-11979857D01*
X17766428Y-12051286D02*
X17780714Y-12037000D01*
X17809286Y-12022714D01*
X17880714Y-12022714D01*
X17909286Y-12037000D01*
X17923571Y-12051286D01*
X17937857Y-12079857D01*
X17937857Y-12108429D01*
X17923571Y-12151286D01*
X17752143Y-12322714D01*
X17937857Y-12322714D01*
X18295000Y-12322714D02*
X18295000Y-12022714D01*
X18423571Y-12322714D02*
X18423571Y-12165571D01*
X18409286Y-12137000D01*
X18380714Y-12122714D01*
X18337857Y-12122714D01*
X18309286Y-12137000D01*
X18295000Y-12151286D01*
X18609286Y-12322714D02*
X18580714Y-12308429D01*
X18566428Y-12294143D01*
X18552143Y-12265571D01*
X18552143Y-12179857D01*
X18566428Y-12151286D01*
X18580714Y-12137000D01*
X18609286Y-12122714D01*
X18652143Y-12122714D01*
X18680714Y-12137000D01*
X18695000Y-12151286D01*
X18709286Y-12179857D01*
X18709286Y-12265571D01*
X18695000Y-12294143D01*
X18680714Y-12308429D01*
X18652143Y-12322714D01*
X18609286Y-12322714D01*
X18880714Y-12322714D02*
X18852143Y-12308429D01*
X18837857Y-12279857D01*
X18837857Y-12022714D01*
X19109286Y-12308429D02*
X19080714Y-12322714D01*
X19023571Y-12322714D01*
X18995000Y-12308429D01*
X18980714Y-12279857D01*
X18980714Y-12165571D01*
X18995000Y-12137000D01*
X19023571Y-12122714D01*
X19080714Y-12122714D01*
X19109286Y-12137000D01*
X19123571Y-12165571D01*
X19123571Y-12194143D01*
X18980714Y-12222714D01*
X19237857Y-12308429D02*
X19266429Y-12322714D01*
X19323571Y-12322714D01*
X19352143Y-12308429D01*
X19366429Y-12279857D01*
X19366429Y-12265571D01*
X19352143Y-12237000D01*
X19323571Y-12222714D01*
X19280714Y-12222714D01*
X19252143Y-12208429D01*
X19237857Y-12179857D01*
X19237857Y-12165571D01*
X19252143Y-12137000D01*
X19280714Y-12122714D01*
X19323571Y-12122714D01*
X19352143Y-12137000D01*
X19466428Y-12437000D02*
X19480714Y-12422714D01*
X19509286Y-12379857D01*
X19523571Y-12351286D01*
X19537857Y-12308429D01*
X19552143Y-12237000D01*
X19552143Y-12179857D01*
X19537857Y-12108429D01*
X19523571Y-12065571D01*
X19509286Y-12037000D01*
X19480714Y-11994143D01*
X19466428Y-11979857D01*
X12815000Y-12493000D02*
X12995000Y-12673000D01*
X12995000Y-12493000D02*
X12815000Y-12673000D01*
X12905000Y-12673000D02*
X12995000Y-12583000D01*
X12905000Y-12493000D01*
X12815000Y-12583000D01*
X12905000Y-12673000D01*
X13423571Y-12718714D02*
X13252143Y-12718714D01*
X13337857Y-12718714D02*
X13337857Y-12418714D01*
X13309286Y-12461571D01*
X13280714Y-12490143D01*
X13252143Y-12504429D01*
X13552143Y-12690143D02*
X13566428Y-12704429D01*
X13552143Y-12718714D01*
X13537857Y-12704429D01*
X13552143Y-12690143D01*
X13552143Y-12718714D01*
X13737857Y-12547286D02*
X13709286Y-12533000D01*
X13695000Y-12518714D01*
X13680714Y-12490143D01*
X13680714Y-12475857D01*
X13695000Y-12447286D01*
X13709286Y-12433000D01*
X13737857Y-12418714D01*
X13795000Y-12418714D01*
X13823571Y-12433000D01*
X13837857Y-12447286D01*
X13852143Y-12475857D01*
X13852143Y-12490143D01*
X13837857Y-12518714D01*
X13823571Y-12533000D01*
X13795000Y-12547286D01*
X13737857Y-12547286D01*
X13709286Y-12561571D01*
X13695000Y-12575857D01*
X13680714Y-12604429D01*
X13680714Y-12661571D01*
X13695000Y-12690143D01*
X13709286Y-12704429D01*
X13737857Y-12718714D01*
X13795000Y-12718714D01*
X13823571Y-12704429D01*
X13837857Y-12690143D01*
X13852143Y-12661571D01*
X13852143Y-12604429D01*
X13837857Y-12575857D01*
X13823571Y-12561571D01*
X13795000Y-12547286D01*
X14037857Y-12418714D02*
X14066428Y-12418714D01*
X14095000Y-12433000D01*
X14109286Y-12447286D01*
X14123571Y-12475857D01*
X14137857Y-12533000D01*
X14137857Y-12604429D01*
X14123571Y-12661571D01*
X14109286Y-12690143D01*
X14095000Y-12704429D01*
X14066428Y-12718714D01*
X14037857Y-12718714D01*
X14009286Y-12704429D01*
X13995000Y-12690143D01*
X13980714Y-12661571D01*
X13966428Y-12604429D01*
X13966428Y-12533000D01*
X13980714Y-12475857D01*
X13995000Y-12447286D01*
X14009286Y-12433000D01*
X14037857Y-12418714D01*
X14266428Y-12718714D02*
X14266428Y-12518714D01*
X14266428Y-12547286D02*
X14280714Y-12533000D01*
X14309286Y-12518714D01*
X14352143Y-12518714D01*
X14380714Y-12533000D01*
X14395000Y-12561571D01*
X14395000Y-12718714D01*
X14395000Y-12561571D02*
X14409286Y-12533000D01*
X14437857Y-12518714D01*
X14480714Y-12518714D01*
X14509286Y-12533000D01*
X14523571Y-12561571D01*
X14523571Y-12718714D01*
X14666428Y-12718714D02*
X14666428Y-12518714D01*
X14666428Y-12547286D02*
X14680714Y-12533000D01*
X14709286Y-12518714D01*
X14752143Y-12518714D01*
X14780714Y-12533000D01*
X14795000Y-12561571D01*
X14795000Y-12718714D01*
X14795000Y-12561571D02*
X14809286Y-12533000D01*
X14837857Y-12518714D01*
X14880714Y-12518714D01*
X14909286Y-12533000D01*
X14923571Y-12561571D01*
X14923571Y-12718714D01*
X15509286Y-12404429D02*
X15252143Y-12790143D01*
X15895000Y-12418714D02*
X15923571Y-12418714D01*
X15952143Y-12433000D01*
X15966428Y-12447286D01*
X15980714Y-12475857D01*
X15995000Y-12533000D01*
X15995000Y-12604429D01*
X15980714Y-12661571D01*
X15966428Y-12690143D01*
X15952143Y-12704429D01*
X15923571Y-12718714D01*
X15895000Y-12718714D01*
X15866428Y-12704429D01*
X15852143Y-12690143D01*
X15837857Y-12661571D01*
X15823571Y-12604429D01*
X15823571Y-12533000D01*
X15837857Y-12475857D01*
X15852143Y-12447286D01*
X15866428Y-12433000D01*
X15895000Y-12418714D01*
X16123571Y-12690143D02*
X16137857Y-12704429D01*
X16123571Y-12718714D01*
X16109286Y-12704429D01*
X16123571Y-12690143D01*
X16123571Y-12718714D01*
X16323571Y-12418714D02*
X16352143Y-12418714D01*
X16380714Y-12433000D01*
X16395000Y-12447286D01*
X16409285Y-12475857D01*
X16423571Y-12533000D01*
X16423571Y-12604429D01*
X16409285Y-12661571D01*
X16395000Y-12690143D01*
X16380714Y-12704429D01*
X16352143Y-12718714D01*
X16323571Y-12718714D01*
X16295000Y-12704429D01*
X16280714Y-12690143D01*
X16266428Y-12661571D01*
X16252143Y-12604429D01*
X16252143Y-12533000D01*
X16266428Y-12475857D01*
X16280714Y-12447286D01*
X16295000Y-12433000D01*
X16323571Y-12418714D01*
X16523571Y-12418714D02*
X16723571Y-12418714D01*
X16595000Y-12718714D01*
X16995000Y-12718714D02*
X16823571Y-12718714D01*
X16909286Y-12718714D02*
X16909286Y-12418714D01*
X16880714Y-12461571D01*
X16852143Y-12490143D01*
X16823571Y-12504429D01*
X17109286Y-12418714D02*
X17109286Y-12475857D01*
X17223571Y-12418714D02*
X17223571Y-12475857D01*
X17666428Y-12833000D02*
X17652143Y-12818714D01*
X17623571Y-12775857D01*
X17609286Y-12747286D01*
X17595000Y-12704429D01*
X17580714Y-12633000D01*
X17580714Y-12575857D01*
X17595000Y-12504429D01*
X17609286Y-12461571D01*
X17623571Y-12433000D01*
X17652143Y-12390143D01*
X17666428Y-12375857D01*
X17766428Y-12447286D02*
X17780714Y-12433000D01*
X17809286Y-12418714D01*
X17880714Y-12418714D01*
X17909286Y-12433000D01*
X17923571Y-12447286D01*
X17937857Y-12475857D01*
X17937857Y-12504429D01*
X17923571Y-12547286D01*
X17752143Y-12718714D01*
X17937857Y-12718714D01*
X18295000Y-12718714D02*
X18295000Y-12418714D01*
X18423571Y-12718714D02*
X18423571Y-12561571D01*
X18409286Y-12533000D01*
X18380714Y-12518714D01*
X18337857Y-12518714D01*
X18309286Y-12533000D01*
X18295000Y-12547286D01*
X18609286Y-12718714D02*
X18580714Y-12704429D01*
X18566428Y-12690143D01*
X18552143Y-12661571D01*
X18552143Y-12575857D01*
X18566428Y-12547286D01*
X18580714Y-12533000D01*
X18609286Y-12518714D01*
X18652143Y-12518714D01*
X18680714Y-12533000D01*
X18695000Y-12547286D01*
X18709286Y-12575857D01*
X18709286Y-12661571D01*
X18695000Y-12690143D01*
X18680714Y-12704429D01*
X18652143Y-12718714D01*
X18609286Y-12718714D01*
X18880714Y-12718714D02*
X18852143Y-12704429D01*
X18837857Y-12675857D01*
X18837857Y-12418714D01*
X19109286Y-12704429D02*
X19080714Y-12718714D01*
X19023571Y-12718714D01*
X18995000Y-12704429D01*
X18980714Y-12675857D01*
X18980714Y-12561571D01*
X18995000Y-12533000D01*
X19023571Y-12518714D01*
X19080714Y-12518714D01*
X19109286Y-12533000D01*
X19123571Y-12561571D01*
X19123571Y-12590143D01*
X18980714Y-12618714D01*
X19237857Y-12704429D02*
X19266429Y-12718714D01*
X19323571Y-12718714D01*
X19352143Y-12704429D01*
X19366429Y-12675857D01*
X19366429Y-12661571D01*
X19352143Y-12633000D01*
X19323571Y-12618714D01*
X19280714Y-12618714D01*
X19252143Y-12604429D01*
X19237857Y-12575857D01*
X19237857Y-12561571D01*
X19252143Y-12533000D01*
X19280714Y-12518714D01*
X19323571Y-12518714D01*
X19352143Y-12533000D01*
X19466428Y-12833000D02*
X19480714Y-12818714D01*
X19509286Y-12775857D01*
X19523571Y-12747286D01*
X19537857Y-12704429D01*
X19552143Y-12633000D01*
X19552143Y-12575857D01*
X19537857Y-12504429D01*
X19523571Y-12461571D01*
X19509286Y-12433000D01*
X19480714Y-12390143D01*
X19466428Y-12375857D01*
X12794975Y-12778975D02*
X12794975Y-13179025D01*
X12594950Y-12979000D02*
X12995000Y-12979000D01*
X12995000Y-12979000D02*
G75*
G03X12995000Y-12979000I-200025J0D01*
G01*
X13395000Y-12914714D02*
X13395000Y-13114714D01*
X13323571Y-12800429D02*
X13252143Y-13014714D01*
X13437857Y-13014714D01*
X13552143Y-13086143D02*
X13566428Y-13100429D01*
X13552143Y-13114714D01*
X13537857Y-13100429D01*
X13552143Y-13086143D01*
X13552143Y-13114714D01*
X13752143Y-12814714D02*
X13780714Y-12814714D01*
X13809286Y-12829000D01*
X13823571Y-12843286D01*
X13837857Y-12871857D01*
X13852143Y-12929000D01*
X13852143Y-13000429D01*
X13837857Y-13057571D01*
X13823571Y-13086143D01*
X13809286Y-13100429D01*
X13780714Y-13114714D01*
X13752143Y-13114714D01*
X13723571Y-13100429D01*
X13709286Y-13086143D01*
X13695000Y-13057571D01*
X13680714Y-13000429D01*
X13680714Y-12929000D01*
X13695000Y-12871857D01*
X13709286Y-12843286D01*
X13723571Y-12829000D01*
X13752143Y-12814714D01*
X14037857Y-12814714D02*
X14066428Y-12814714D01*
X14095000Y-12829000D01*
X14109286Y-12843286D01*
X14123571Y-12871857D01*
X14137857Y-12929000D01*
X14137857Y-13000429D01*
X14123571Y-13057571D01*
X14109286Y-13086143D01*
X14095000Y-13100429D01*
X14066428Y-13114714D01*
X14037857Y-13114714D01*
X14009286Y-13100429D01*
X13995000Y-13086143D01*
X13980714Y-13057571D01*
X13966428Y-13000429D01*
X13966428Y-12929000D01*
X13980714Y-12871857D01*
X13995000Y-12843286D01*
X14009286Y-12829000D01*
X14037857Y-12814714D01*
X14266428Y-13114714D02*
X14266428Y-12914714D01*
X14266428Y-12943286D02*
X14280714Y-12929000D01*
X14309286Y-12914714D01*
X14352143Y-12914714D01*
X14380714Y-12929000D01*
X14395000Y-12957571D01*
X14395000Y-13114714D01*
X14395000Y-12957571D02*
X14409286Y-12929000D01*
X14437857Y-12914714D01*
X14480714Y-12914714D01*
X14509286Y-12929000D01*
X14523571Y-12957571D01*
X14523571Y-13114714D01*
X14666428Y-13114714D02*
X14666428Y-12914714D01*
X14666428Y-12943286D02*
X14680714Y-12929000D01*
X14709286Y-12914714D01*
X14752143Y-12914714D01*
X14780714Y-12929000D01*
X14795000Y-12957571D01*
X14795000Y-13114714D01*
X14795000Y-12957571D02*
X14809286Y-12929000D01*
X14837857Y-12914714D01*
X14880714Y-12914714D01*
X14909286Y-12929000D01*
X14923571Y-12957571D01*
X14923571Y-13114714D01*
X15509286Y-12800429D02*
X15252143Y-13186143D01*
X15895000Y-12814714D02*
X15923571Y-12814714D01*
X15952143Y-12829000D01*
X15966428Y-12843286D01*
X15980714Y-12871857D01*
X15995000Y-12929000D01*
X15995000Y-13000429D01*
X15980714Y-13057571D01*
X15966428Y-13086143D01*
X15952143Y-13100429D01*
X15923571Y-13114714D01*
X15895000Y-13114714D01*
X15866428Y-13100429D01*
X15852143Y-13086143D01*
X15837857Y-13057571D01*
X15823571Y-13000429D01*
X15823571Y-12929000D01*
X15837857Y-12871857D01*
X15852143Y-12843286D01*
X15866428Y-12829000D01*
X15895000Y-12814714D01*
X16123571Y-13086143D02*
X16137857Y-13100429D01*
X16123571Y-13114714D01*
X16109286Y-13100429D01*
X16123571Y-13086143D01*
X16123571Y-13114714D01*
X16423571Y-13114714D02*
X16252143Y-13114714D01*
X16337857Y-13114714D02*
X16337857Y-12814714D01*
X16309285Y-12857571D01*
X16280714Y-12886143D01*
X16252143Y-12900429D01*
X16695000Y-12814714D02*
X16552143Y-12814714D01*
X16537857Y-12957571D01*
X16552143Y-12943286D01*
X16580714Y-12929000D01*
X16652143Y-12929000D01*
X16680714Y-12943286D01*
X16695000Y-12957571D01*
X16709285Y-12986143D01*
X16709285Y-13057571D01*
X16695000Y-13086143D01*
X16680714Y-13100429D01*
X16652143Y-13114714D01*
X16580714Y-13114714D01*
X16552143Y-13100429D01*
X16537857Y-13086143D01*
X16880714Y-12943286D02*
X16852143Y-12929000D01*
X16837857Y-12914714D01*
X16823571Y-12886143D01*
X16823571Y-12871857D01*
X16837857Y-12843286D01*
X16852143Y-12829000D01*
X16880714Y-12814714D01*
X16937857Y-12814714D01*
X16966428Y-12829000D01*
X16980714Y-12843286D01*
X16995000Y-12871857D01*
X16995000Y-12886143D01*
X16980714Y-12914714D01*
X16966428Y-12929000D01*
X16937857Y-12943286D01*
X16880714Y-12943286D01*
X16852143Y-12957571D01*
X16837857Y-12971857D01*
X16823571Y-13000429D01*
X16823571Y-13057571D01*
X16837857Y-13086143D01*
X16852143Y-13100429D01*
X16880714Y-13114714D01*
X16937857Y-13114714D01*
X16966428Y-13100429D01*
X16980714Y-13086143D01*
X16995000Y-13057571D01*
X16995000Y-13000429D01*
X16980714Y-12971857D01*
X16966428Y-12957571D01*
X16937857Y-12943286D01*
X17109286Y-12814714D02*
X17109286Y-12871857D01*
X17223571Y-12814714D02*
X17223571Y-12871857D01*
X17666428Y-13229000D02*
X17652143Y-13214714D01*
X17623571Y-13171857D01*
X17609286Y-13143286D01*
X17595000Y-13100429D01*
X17580714Y-13029000D01*
X17580714Y-12971857D01*
X17595000Y-12900429D01*
X17609286Y-12857571D01*
X17623571Y-12829000D01*
X17652143Y-12786143D01*
X17666428Y-12771857D01*
X17909286Y-12914714D02*
X17909286Y-13114714D01*
X17837857Y-12800429D02*
X17766428Y-13014714D01*
X17952143Y-13014714D01*
X18295000Y-13114714D02*
X18295000Y-12814714D01*
X18423571Y-13114714D02*
X18423571Y-12957571D01*
X18409286Y-12929000D01*
X18380714Y-12914714D01*
X18337857Y-12914714D01*
X18309286Y-12929000D01*
X18295000Y-12943286D01*
X18609286Y-13114714D02*
X18580714Y-13100429D01*
X18566428Y-13086143D01*
X18552143Y-13057571D01*
X18552143Y-12971857D01*
X18566428Y-12943286D01*
X18580714Y-12929000D01*
X18609286Y-12914714D01*
X18652143Y-12914714D01*
X18680714Y-12929000D01*
X18695000Y-12943286D01*
X18709286Y-12971857D01*
X18709286Y-13057571D01*
X18695000Y-13086143D01*
X18680714Y-13100429D01*
X18652143Y-13114714D01*
X18609286Y-13114714D01*
X18880714Y-13114714D02*
X18852143Y-13100429D01*
X18837857Y-13071857D01*
X18837857Y-12814714D01*
X19109286Y-13100429D02*
X19080714Y-13114714D01*
X19023571Y-13114714D01*
X18995000Y-13100429D01*
X18980714Y-13071857D01*
X18980714Y-12957571D01*
X18995000Y-12929000D01*
X19023571Y-12914714D01*
X19080714Y-12914714D01*
X19109286Y-12929000D01*
X19123571Y-12957571D01*
X19123571Y-12986143D01*
X18980714Y-13014714D01*
X19237857Y-13100429D02*
X19266429Y-13114714D01*
X19323571Y-13114714D01*
X19352143Y-13100429D01*
X19366429Y-13071857D01*
X19366429Y-13057571D01*
X19352143Y-13029000D01*
X19323571Y-13014714D01*
X19280714Y-13014714D01*
X19252143Y-13000429D01*
X19237857Y-12971857D01*
X19237857Y-12957571D01*
X19252143Y-12929000D01*
X19280714Y-12914714D01*
X19323571Y-12914714D01*
X19352143Y-12929000D01*
X19466428Y-13229000D02*
X19480714Y-13214714D01*
X19509286Y-13171857D01*
X19523571Y-13143286D01*
X19537857Y-13100429D01*
X19552143Y-13029000D01*
X19552143Y-12971857D01*
X19537857Y-12900429D01*
X19523571Y-12857571D01*
X19509286Y-12829000D01*
X19480714Y-12786143D01*
X19466428Y-12771857D01*
X12907142Y-13721166D02*
X12907142Y-13296934D01*
X12482910Y-13296934D01*
X12482910Y-13721166D01*
X12907142Y-13721166D01*
X12995000Y-13509050D02*
G75*
G03X12995000Y-13509050I-299974J0D01*
G01*
X13395000Y-13344764D02*
X13337857Y-13344764D01*
X13309286Y-13359050D01*
X13295000Y-13373336D01*
X13266428Y-13416193D01*
X13252143Y-13473336D01*
X13252143Y-13587621D01*
X13266428Y-13616193D01*
X13280714Y-13630479D01*
X13309286Y-13644764D01*
X13366428Y-13644764D01*
X13395000Y-13630479D01*
X13409286Y-13616193D01*
X13423571Y-13587621D01*
X13423571Y-13516193D01*
X13409286Y-13487621D01*
X13395000Y-13473336D01*
X13366428Y-13459050D01*
X13309286Y-13459050D01*
X13280714Y-13473336D01*
X13266428Y-13487621D01*
X13252143Y-13516193D01*
X13552143Y-13616193D02*
X13566428Y-13630479D01*
X13552143Y-13644764D01*
X13537857Y-13630479D01*
X13552143Y-13616193D01*
X13552143Y-13644764D01*
X13752143Y-13344764D02*
X13780714Y-13344764D01*
X13809286Y-13359050D01*
X13823571Y-13373336D01*
X13837857Y-13401907D01*
X13852143Y-13459050D01*
X13852143Y-13530479D01*
X13837857Y-13587621D01*
X13823571Y-13616193D01*
X13809286Y-13630479D01*
X13780714Y-13644764D01*
X13752143Y-13644764D01*
X13723571Y-13630479D01*
X13709286Y-13616193D01*
X13695000Y-13587621D01*
X13680714Y-13530479D01*
X13680714Y-13459050D01*
X13695000Y-13401907D01*
X13709286Y-13373336D01*
X13723571Y-13359050D01*
X13752143Y-13344764D01*
X14037857Y-13344764D02*
X14066428Y-13344764D01*
X14095000Y-13359050D01*
X14109286Y-13373336D01*
X14123571Y-13401907D01*
X14137857Y-13459050D01*
X14137857Y-13530479D01*
X14123571Y-13587621D01*
X14109286Y-13616193D01*
X14095000Y-13630479D01*
X14066428Y-13644764D01*
X14037857Y-13644764D01*
X14009286Y-13630479D01*
X13995000Y-13616193D01*
X13980714Y-13587621D01*
X13966428Y-13530479D01*
X13966428Y-13459050D01*
X13980714Y-13401907D01*
X13995000Y-13373336D01*
X14009286Y-13359050D01*
X14037857Y-13344764D01*
X14266428Y-13644764D02*
X14266428Y-13444764D01*
X14266428Y-13473336D02*
X14280714Y-13459050D01*
X14309286Y-13444764D01*
X14352143Y-13444764D01*
X14380714Y-13459050D01*
X14395000Y-13487621D01*
X14395000Y-13644764D01*
X14395000Y-13487621D02*
X14409286Y-13459050D01*
X14437857Y-13444764D01*
X14480714Y-13444764D01*
X14509286Y-13459050D01*
X14523571Y-13487621D01*
X14523571Y-13644764D01*
X14666428Y-13644764D02*
X14666428Y-13444764D01*
X14666428Y-13473336D02*
X14680714Y-13459050D01*
X14709286Y-13444764D01*
X14752143Y-13444764D01*
X14780714Y-13459050D01*
X14795000Y-13487621D01*
X14795000Y-13644764D01*
X14795000Y-13487621D02*
X14809286Y-13459050D01*
X14837857Y-13444764D01*
X14880714Y-13444764D01*
X14909286Y-13459050D01*
X14923571Y-13487621D01*
X14923571Y-13644764D01*
X15509286Y-13330479D02*
X15252143Y-13716193D01*
X15895000Y-13344764D02*
X15923571Y-13344764D01*
X15952143Y-13359050D01*
X15966428Y-13373336D01*
X15980714Y-13401907D01*
X15995000Y-13459050D01*
X15995000Y-13530479D01*
X15980714Y-13587621D01*
X15966428Y-13616193D01*
X15952143Y-13630479D01*
X15923571Y-13644764D01*
X15895000Y-13644764D01*
X15866428Y-13630479D01*
X15852143Y-13616193D01*
X15837857Y-13587621D01*
X15823571Y-13530479D01*
X15823571Y-13459050D01*
X15837857Y-13401907D01*
X15852143Y-13373336D01*
X15866428Y-13359050D01*
X15895000Y-13344764D01*
X16123571Y-13616193D02*
X16137857Y-13630479D01*
X16123571Y-13644764D01*
X16109286Y-13630479D01*
X16123571Y-13616193D01*
X16123571Y-13644764D01*
X16252143Y-13373336D02*
X16266428Y-13359050D01*
X16295000Y-13344764D01*
X16366428Y-13344764D01*
X16395000Y-13359050D01*
X16409285Y-13373336D01*
X16423571Y-13401907D01*
X16423571Y-13430479D01*
X16409285Y-13473336D01*
X16237857Y-13644764D01*
X16423571Y-13644764D01*
X16523571Y-13344764D02*
X16709285Y-13344764D01*
X16609285Y-13459050D01*
X16652143Y-13459050D01*
X16680714Y-13473336D01*
X16695000Y-13487621D01*
X16709285Y-13516193D01*
X16709285Y-13587621D01*
X16695000Y-13616193D01*
X16680714Y-13630479D01*
X16652143Y-13644764D01*
X16566428Y-13644764D01*
X16537857Y-13630479D01*
X16523571Y-13616193D01*
X16966428Y-13344764D02*
X16909286Y-13344764D01*
X16880714Y-13359050D01*
X16866428Y-13373336D01*
X16837857Y-13416193D01*
X16823571Y-13473336D01*
X16823571Y-13587621D01*
X16837857Y-13616193D01*
X16852143Y-13630479D01*
X16880714Y-13644764D01*
X16937857Y-13644764D01*
X16966428Y-13630479D01*
X16980714Y-13616193D01*
X16995000Y-13587621D01*
X16995000Y-13516193D01*
X16980714Y-13487621D01*
X16966428Y-13473336D01*
X16937857Y-13459050D01*
X16880714Y-13459050D01*
X16852143Y-13473336D01*
X16837857Y-13487621D01*
X16823571Y-13516193D01*
X17109286Y-13344764D02*
X17109286Y-13401907D01*
X17223571Y-13344764D02*
X17223571Y-13401907D01*
X17666428Y-13759050D02*
X17652143Y-13744764D01*
X17623571Y-13701907D01*
X17609286Y-13673336D01*
X17595000Y-13630479D01*
X17580714Y-13559050D01*
X17580714Y-13501907D01*
X17595000Y-13430479D01*
X17609286Y-13387621D01*
X17623571Y-13359050D01*
X17652143Y-13316193D01*
X17666428Y-13301907D01*
X17937857Y-13644764D02*
X17766428Y-13644764D01*
X17852143Y-13644764D02*
X17852143Y-13344764D01*
X17823571Y-13387621D01*
X17795000Y-13416193D01*
X17766428Y-13430479D01*
X18295000Y-13644764D02*
X18295000Y-13344764D01*
X18423571Y-13644764D02*
X18423571Y-13487621D01*
X18409286Y-13459050D01*
X18380714Y-13444764D01*
X18337857Y-13444764D01*
X18309286Y-13459050D01*
X18295000Y-13473336D01*
X18609286Y-13644764D02*
X18580714Y-13630479D01*
X18566428Y-13616193D01*
X18552143Y-13587621D01*
X18552143Y-13501907D01*
X18566428Y-13473336D01*
X18580714Y-13459050D01*
X18609286Y-13444764D01*
X18652143Y-13444764D01*
X18680714Y-13459050D01*
X18695000Y-13473336D01*
X18709286Y-13501907D01*
X18709286Y-13587621D01*
X18695000Y-13616193D01*
X18680714Y-13630479D01*
X18652143Y-13644764D01*
X18609286Y-13644764D01*
X18880714Y-13644764D02*
X18852143Y-13630479D01*
X18837857Y-13601907D01*
X18837857Y-13344764D01*
X19109286Y-13630479D02*
X19080714Y-13644764D01*
X19023571Y-13644764D01*
X18995000Y-13630479D01*
X18980714Y-13601907D01*
X18980714Y-13487621D01*
X18995000Y-13459050D01*
X19023571Y-13444764D01*
X19080714Y-13444764D01*
X19109286Y-13459050D01*
X19123571Y-13487621D01*
X19123571Y-13516193D01*
X18980714Y-13544764D01*
X19223571Y-13759050D02*
X19237857Y-13744764D01*
X19266429Y-13701907D01*
X19280714Y-13673336D01*
X19295000Y-13630479D01*
X19309286Y-13559050D01*
X19309286Y-13501907D01*
X19295000Y-13430479D01*
X19280714Y-13387621D01*
X19266429Y-13359050D01*
X19237857Y-13316193D01*
X19223571Y-13301907D01*
M02*
