%FSLAX46Y46*%
G04 Gerber Fmt 4.6, Leading zero omitted, Abs format (unit mm)*
G04 Created by KiCad (PCBNEW (2014-10-27 BZR 5228)-product) date 13/01/2015 10:49:15*
%MOMM*%
G01*
G04 APERTURE LIST*
%ADD10C,0.100000*%
%ADD11R,1.250000X1.000000*%
%ADD12R,1.000000X1.250000*%
%ADD13R,1.651000X1.651000*%
%ADD14C,1.651000*%
%ADD15R,2.499360X1.950720*%
%ADD16R,4.200000X0.700000*%
%ADD17R,1.524000X2.032000*%
%ADD18R,1.397000X1.397000*%
%ADD19C,1.397000*%
%ADD20C,1.998980*%
%ADD21C,3.500000*%
%ADD22C,2.000000*%
%ADD23R,1.727200X1.727200*%
%ADD24O,1.727200X1.727200*%
%ADD25R,1.300000X0.700000*%
%ADD26R,0.700000X1.300000*%
%ADD27R,1.800000X1.800000*%
%ADD28C,1.800000*%
%ADD29C,2.540000*%
%ADD30C,1.727200*%
%ADD31C,1.524000*%
%ADD32O,1.501140X2.499360*%
G04 APERTURE END LIST*
D10*
D11*
X142800000Y-60000000D03*
X142800000Y-58000000D03*
D12*
X148200000Y-78100000D03*
X150200000Y-78100000D03*
D11*
X153100000Y-79900000D03*
X153100000Y-81900000D03*
D12*
X170200000Y-79300000D03*
X172200000Y-79300000D03*
D11*
X175800000Y-79400000D03*
X175800000Y-81400000D03*
X133000000Y-46200000D03*
X133000000Y-48200000D03*
D13*
X147600000Y-71270000D03*
D14*
X147600000Y-68730000D03*
D12*
X164042600Y-58229500D03*
X162042600Y-58229500D03*
D11*
X176300000Y-40600000D03*
X176300000Y-38600000D03*
X179000000Y-40600000D03*
X179000000Y-38600000D03*
X173300000Y-40600000D03*
X173300000Y-38600000D03*
D15*
X169600000Y-41949400D03*
X169600000Y-38850600D03*
D12*
X178546000Y-58293000D03*
X176546000Y-58293000D03*
X169000000Y-61800000D03*
X171000000Y-61800000D03*
D16*
X125074560Y-55868200D03*
X125074560Y-56868200D03*
X125074560Y-57868200D03*
X125074560Y-58868200D03*
X125074560Y-59868200D03*
X125074560Y-60868200D03*
X125074560Y-61868200D03*
X125074560Y-62868200D03*
X125074560Y-63868200D03*
X125074560Y-64868200D03*
X125074560Y-65868200D03*
X125074560Y-68868200D03*
X125074560Y-69868200D03*
X125074560Y-70868200D03*
X125074560Y-71868200D03*
X125074560Y-72868200D03*
X125074560Y-73868200D03*
X125074560Y-74868200D03*
D17*
X138549000Y-68200000D03*
X141851000Y-68200000D03*
D18*
X172339000Y-65913000D03*
D19*
X169799000Y-65913000D03*
X167259000Y-65913000D03*
X164719000Y-65913000D03*
X162179000Y-65913000D03*
X162179000Y-73533000D03*
X164719000Y-73533000D03*
X167259000Y-73533000D03*
X169799000Y-73533000D03*
X172339000Y-73533000D03*
D20*
X145696000Y-75508000D03*
X145696000Y-81096000D03*
X153308000Y-77104000D03*
X158896000Y-77104000D03*
X166804000Y-82492000D03*
X166804000Y-76904000D03*
X180396000Y-76808000D03*
X180396000Y-82396000D03*
X159258000Y-55499000D03*
X159258000Y-61087000D03*
X174498000Y-55245000D03*
X174498000Y-60833000D03*
D21*
X191900000Y-70500000D03*
X191900000Y-62900000D03*
D22*
X184100000Y-66700000D03*
D23*
X186430000Y-74700000D03*
D24*
X188970000Y-74700000D03*
D25*
X142800000Y-61450000D03*
X142800000Y-63350000D03*
D26*
X155350000Y-63200000D03*
X153450000Y-63200000D03*
D25*
X151600000Y-58250000D03*
X151600000Y-60150000D03*
D26*
X156350000Y-58400000D03*
X154450000Y-58400000D03*
D23*
X179770000Y-73670000D03*
D24*
X179770000Y-71130000D03*
X177230000Y-73670000D03*
X177230000Y-71130000D03*
D27*
X139400000Y-62800000D03*
D28*
X136900000Y-62800000D03*
X139400000Y-59800000D03*
X134400000Y-62800000D03*
X134400000Y-59800000D03*
X136900000Y-59800000D03*
D27*
X145923000Y-63741300D03*
D28*
X145923000Y-61241300D03*
X148923000Y-63741300D03*
X145923000Y-58741300D03*
X148923000Y-58741300D03*
X148923000Y-61241300D03*
D29*
X163461700Y-39199300D03*
D30*
X163461700Y-43199300D03*
D29*
X163461700Y-47199300D03*
D30*
X163461700Y-51199300D03*
D31*
X137600000Y-47860000D03*
X137600000Y-45320000D03*
X137600000Y-50400000D03*
D32*
X153893520Y-39451280D03*
X156433520Y-39451280D03*
X151353520Y-39451280D03*
D11*
X174600000Y-70100000D03*
X174600000Y-68100000D03*
D20*
X184400000Y-45299460D03*
X184400000Y-38700540D03*
M02*
