M48
;DRILL file {kicad (2014-10-27 BZR 5228)-product} date 13/01/2015 10:49:18
;FORMAT={3:3/ absolute / metric / keep zeros}
FMAT,2
METRIC,TZ
T1C0.635
T2C0.800
T3C0.813
T4C0.900
T5C0.920
T6C1.001
T7C1.016
T8C1.500
T9C1.800
T10C4.000
T11C5.999
%
G90
G05
M71
T1
X129800Y-055868
X129800Y-061868
X130000Y-059000
X130000Y-064800
X131100Y-060000
X131400Y-055400
X132300Y-072900
X132600Y-069868
X133700Y-071500
X137800Y-054000
X141200Y-064800
X144100Y-066100
X145600Y-042800
X145700Y-065900
X148500Y-065900
X152000Y-054800
X153200Y-056800
X157800Y-056800
X159200Y-065600
X160000Y-070200
X161600Y-071500
X176800Y-065000
X181800Y-059900
X183200Y-052000
X185500Y-059900
X185600Y-057300
T2
X184400Y-038701
X184400Y-045299
T3
X137600Y-045320
X137600Y-047860
X137600Y-050400
X147600Y-068730
X147600Y-071270
X162179Y-065913
X162179Y-073533
X164719Y-065913
X164719Y-073533
X167259Y-065913
X167259Y-073533
X169799Y-065913
X169799Y-073533
X172339Y-065913
X172339Y-073533
T4
X134400Y-059800
X134400Y-062800
X136900Y-059800
X136900Y-062800
X139400Y-059800
X139400Y-062800
X145923Y-058741
X145923Y-061241
X145923Y-063741
X148923Y-058741
X148923Y-061241
X148923Y-063741
T5
X184100Y-066700
T6
X145696Y-075508
X145696Y-081096
X151354Y-039451
X153308Y-077104
X153894Y-039451
X156434Y-039451
X158896Y-077104
X159258Y-055499
X159258Y-061087
X166804Y-076904
X166804Y-082492
X174498Y-055245
X174498Y-060833
X180396Y-076808
X180396Y-082396
T7
X163462Y-043199
X163462Y-051199
X177230Y-071130
X177230Y-073670
X179770Y-071130
X179770Y-073670
X186430Y-074700
X188970Y-074700
T8
X163462Y-039199
X163462Y-047199
T9
X191900Y-062900
X191900Y-070500
T10
X134500Y-080100
X134600Y-039400
X190000Y-039400
X190000Y-080100
T11
X154100Y-048900
T0
M30
