%FSLAX46Y46*%
G04 Gerber Fmt 4.6, Leading zero omitted, Abs format (unit mm)*
G04 Created by KiCad (PCBNEW (2014-10-27 BZR 5228)-product) date 13/01/2015 10:49:15*
%MOMM*%
G01*
G04 APERTURE LIST*
%ADD10C,0.100000*%
%ADD11R,1.250000X1.000000*%
%ADD12R,1.000000X1.250000*%
%ADD13R,1.651000X1.651000*%
%ADD14C,1.651000*%
%ADD15R,4.200000X0.700000*%
%ADD16R,1.397000X1.397000*%
%ADD17C,1.397000*%
%ADD18C,1.998980*%
%ADD19C,3.500000*%
%ADD20C,2.000000*%
%ADD21R,1.727200X1.727200*%
%ADD22O,1.727200X1.727200*%
%ADD23R,0.599440X1.000760*%
%ADD24R,1.300000X0.700000*%
%ADD25R,0.700000X1.300000*%
%ADD26R,1.800000X1.800000*%
%ADD27C,1.800000*%
%ADD28C,2.540000*%
%ADD29C,1.727200*%
%ADD30R,1.550000X0.600000*%
%ADD31C,1.524000*%
%ADD32O,1.501140X2.499360*%
G04 APERTURE END LIST*
D10*
D11*
X158000000Y-68200000D03*
X158000000Y-70200000D03*
D12*
X135800000Y-55800000D03*
X137800000Y-55800000D03*
D11*
X135700000Y-69600000D03*
X135700000Y-71600000D03*
D13*
X147600000Y-71270000D03*
D14*
X147600000Y-68730000D03*
D12*
X157800000Y-45400000D03*
X159800000Y-45400000D03*
X149100000Y-54700000D03*
X147100000Y-54700000D03*
X189300000Y-57500000D03*
X187300000Y-57500000D03*
D15*
X125074560Y-55868200D03*
X125074560Y-56868200D03*
X125074560Y-57868200D03*
X125074560Y-58868200D03*
X125074560Y-59868200D03*
X125074560Y-60868200D03*
X125074560Y-61868200D03*
X125074560Y-62868200D03*
X125074560Y-63868200D03*
X125074560Y-64868200D03*
X125074560Y-65868200D03*
X125074560Y-68868200D03*
X125074560Y-69868200D03*
X125074560Y-70868200D03*
X125074560Y-71868200D03*
X125074560Y-72868200D03*
X125074560Y-73868200D03*
X125074560Y-74868200D03*
D16*
X172339000Y-65913000D03*
D17*
X169799000Y-65913000D03*
X167259000Y-65913000D03*
X164719000Y-65913000D03*
X162179000Y-65913000D03*
X162179000Y-73533000D03*
X164719000Y-73533000D03*
X167259000Y-73533000D03*
X169799000Y-73533000D03*
X172339000Y-73533000D03*
D18*
X145696000Y-75508000D03*
X145696000Y-81096000D03*
X153308000Y-77104000D03*
X158896000Y-77104000D03*
X166804000Y-82492000D03*
X166804000Y-76904000D03*
X180396000Y-76808000D03*
X180396000Y-82396000D03*
X159258000Y-55499000D03*
X159258000Y-61087000D03*
X174498000Y-55245000D03*
X174498000Y-60833000D03*
D19*
X191900000Y-70500000D03*
X191900000Y-62900000D03*
D20*
X184100000Y-66700000D03*
D21*
X186430000Y-74700000D03*
D22*
X188970000Y-74700000D03*
D23*
X153225500Y-67604640D03*
X154178000Y-65491360D03*
X155130500Y-67604640D03*
X179047500Y-65056640D03*
X180000000Y-62943360D03*
X180952500Y-65056640D03*
D24*
X155300000Y-69950000D03*
X155300000Y-71850000D03*
D25*
X146950000Y-44000000D03*
X148850000Y-44000000D03*
D24*
X143400000Y-45850000D03*
X143400000Y-47750000D03*
X147800000Y-39550000D03*
X147800000Y-41450000D03*
D25*
X189250000Y-54400000D03*
X187350000Y-54400000D03*
X179450000Y-67200000D03*
X177550000Y-67200000D03*
D21*
X179770000Y-73670000D03*
D22*
X179770000Y-71130000D03*
X177230000Y-73670000D03*
X177230000Y-71130000D03*
D26*
X139400000Y-62800000D03*
D27*
X136900000Y-62800000D03*
X139400000Y-59800000D03*
X134400000Y-62800000D03*
X134400000Y-59800000D03*
X136900000Y-59800000D03*
D26*
X145923000Y-63741300D03*
D27*
X145923000Y-61241300D03*
X148923000Y-63741300D03*
X145923000Y-58741300D03*
X148923000Y-58741300D03*
X148923000Y-61241300D03*
D28*
X163461700Y-39199300D03*
D29*
X163461700Y-43199300D03*
D28*
X163461700Y-47199300D03*
D29*
X163461700Y-51199300D03*
D30*
X185501300Y-48234600D03*
X185501300Y-49504600D03*
X185501300Y-50774600D03*
X185501300Y-52044600D03*
X190901300Y-52044600D03*
X190901300Y-50774600D03*
X190901300Y-49504600D03*
X190901300Y-48234600D03*
D31*
X137600000Y-47860000D03*
X137600000Y-45320000D03*
X137600000Y-50400000D03*
D32*
X153893520Y-39451280D03*
X156433520Y-39451280D03*
X151353520Y-39451280D03*
D18*
X184400000Y-45299460D03*
X184400000Y-38700540D03*
M02*
