%FSLAX46Y46*%
G04 Gerber Fmt 4.6, Leading zero omitted, Abs format (unit mm)*
G04 Created by KiCad (PCBNEW (2014-10-27 BZR 5228)-product) date 13/01/2015 10:49:15*
%MOMM*%
G01*
G04 APERTURE LIST*
%ADD10C,0.100000*%
%ADD11C,0.150000*%
G04 APERTURE END LIST*
D10*
D11*
X158850000Y-69700000D02*
X158850000Y-68700000D01*
X157150000Y-68700000D02*
X157150000Y-69700000D01*
X137300000Y-54950000D02*
X136300000Y-54950000D01*
X136300000Y-56650000D02*
X137300000Y-56650000D01*
X136550000Y-71100000D02*
X136550000Y-70100000D01*
X134850000Y-70100000D02*
X134850000Y-71100000D01*
X151664000Y-70000000D02*
G75*
G03X151664000Y-70000000I-4064000J0D01*
G01*
X159300000Y-44550000D02*
X158300000Y-44550000D01*
X158300000Y-46250000D02*
X159300000Y-46250000D01*
X147600000Y-55550000D02*
X148600000Y-55550000D01*
X148600000Y-53850000D02*
X147600000Y-53850000D01*
X187800000Y-58350000D02*
X188800000Y-58350000D01*
X188800000Y-56650000D02*
X187800000Y-56650000D01*
X174259000Y-74223000D02*
X160259000Y-74223000D01*
X160259000Y-74223000D02*
X160259000Y-65223000D01*
X160259000Y-65223000D02*
X174259000Y-65223000D01*
X174259000Y-65223000D02*
X174259000Y-74223000D01*
X152300000Y-81604000D02*
X147093000Y-81604000D01*
X139219000Y-81604000D02*
X144172000Y-81604000D01*
X152300000Y-75000000D02*
X147220000Y-75000000D01*
X139219000Y-75000000D02*
X144299000Y-75000000D01*
X139219000Y-75000000D02*
X139219000Y-81604000D01*
X152300000Y-81604000D02*
X152300000Y-75000000D01*
X159404000Y-70500000D02*
X159404000Y-75707000D01*
X159404000Y-83581000D02*
X159404000Y-78628000D01*
X152800000Y-70500000D02*
X152800000Y-75580000D01*
X152800000Y-83581000D02*
X152800000Y-78501000D01*
X152800000Y-83581000D02*
X159404000Y-83581000D01*
X159404000Y-70500000D02*
X152800000Y-70500000D01*
X160200000Y-76396000D02*
X165407000Y-76396000D01*
X173281000Y-76396000D02*
X168328000Y-76396000D01*
X160200000Y-83000000D02*
X165280000Y-83000000D01*
X173281000Y-83000000D02*
X168201000Y-83000000D01*
X173281000Y-83000000D02*
X173281000Y-76396000D01*
X160200000Y-76396000D02*
X160200000Y-83000000D01*
X187000000Y-82904000D02*
X181793000Y-82904000D01*
X173919000Y-82904000D02*
X178872000Y-82904000D01*
X187000000Y-76300000D02*
X181920000Y-76300000D01*
X173919000Y-76300000D02*
X178999000Y-76300000D01*
X173919000Y-76300000D02*
X173919000Y-82904000D01*
X187000000Y-82904000D02*
X187000000Y-76300000D01*
X165862000Y-61595000D02*
X160655000Y-61595000D01*
X152781000Y-61595000D02*
X157734000Y-61595000D01*
X165862000Y-54991000D02*
X160782000Y-54991000D01*
X152781000Y-54991000D02*
X157861000Y-54991000D01*
X152781000Y-54991000D02*
X152781000Y-61595000D01*
X165862000Y-61595000D02*
X165862000Y-54991000D01*
X181102000Y-61341000D02*
X175895000Y-61341000D01*
X168021000Y-61341000D02*
X172974000Y-61341000D01*
X181102000Y-54737000D02*
X176022000Y-54737000D01*
X168021000Y-54737000D02*
X173101000Y-54737000D01*
X168021000Y-54737000D02*
X168021000Y-61341000D01*
X181102000Y-61341000D02*
X181102000Y-54737000D01*
D10*
X191900000Y-73100000D02*
X182300000Y-73100000D01*
X182300000Y-73100000D02*
X182300000Y-60700000D01*
X182300000Y-60700000D02*
X194300000Y-60700000D01*
X194300000Y-60700000D02*
X194300000Y-73100000D01*
X194300000Y-73100000D02*
X191900000Y-73100000D01*
D11*
X187700000Y-73430000D02*
X185160000Y-73430000D01*
X185160000Y-73430000D02*
X185160000Y-75970000D01*
X185160000Y-75970000D02*
X187700000Y-75970000D01*
X190240000Y-73430000D02*
X187700000Y-73430000D01*
X187700000Y-73430000D02*
X187700000Y-75970000D01*
X187700000Y-75970000D02*
X190240000Y-75970000D01*
X190240000Y-75970000D02*
X190240000Y-73430000D01*
X152678000Y-66748000D02*
X152678000Y-65848000D01*
X152678000Y-65848000D02*
X153478000Y-65848000D01*
X155678000Y-66748000D02*
X155678000Y-65848000D01*
X155678000Y-65848000D02*
X154878000Y-65848000D01*
X154478000Y-67248000D02*
X153878000Y-67248000D01*
X178500000Y-64200000D02*
X178500000Y-63300000D01*
X178500000Y-63300000D02*
X179300000Y-63300000D01*
X181500000Y-64200000D02*
X181500000Y-63300000D01*
X181500000Y-63300000D02*
X180700000Y-63300000D01*
X180300000Y-64700000D02*
X179700000Y-64700000D01*
X154425000Y-71500000D02*
X154425000Y-70300000D01*
X156175000Y-70300000D02*
X156175000Y-71500000D01*
X148500000Y-44875000D02*
X147300000Y-44875000D01*
X147300000Y-43125000D02*
X148500000Y-43125000D01*
X142525000Y-47400000D02*
X142525000Y-46200000D01*
X144275000Y-46200000D02*
X144275000Y-47400000D01*
X146925000Y-41100000D02*
X146925000Y-39900000D01*
X148675000Y-39900000D02*
X148675000Y-41100000D01*
X187700000Y-53525000D02*
X188900000Y-53525000D01*
X188900000Y-55275000D02*
X187700000Y-55275000D01*
X177900000Y-66325000D02*
X179100000Y-66325000D01*
X179100000Y-68075000D02*
X177900000Y-68075000D01*
X181040000Y-72400000D02*
X181040000Y-74940000D01*
X181040000Y-74940000D02*
X178500000Y-74940000D01*
X178500000Y-74940000D02*
X178500000Y-72400000D01*
X178500000Y-72400000D02*
X181040000Y-72400000D01*
X181040000Y-72400000D02*
X181040000Y-69860000D01*
X181040000Y-69860000D02*
X175960000Y-69860000D01*
X175960000Y-69860000D02*
X175960000Y-74940000D01*
X175960000Y-74940000D02*
X178500000Y-74940000D01*
D10*
X140600000Y-64000000D02*
X133200000Y-64000000D01*
X133200000Y-64000000D02*
X133200000Y-58600000D01*
X133200000Y-58600000D02*
X140600000Y-58600000D01*
X140600000Y-58600000D02*
X140600000Y-64000000D01*
X144723000Y-64941300D02*
X144723000Y-57541300D01*
X144723000Y-57541300D02*
X150123000Y-57541300D01*
X150123000Y-57541300D02*
X150123000Y-64941300D01*
X150123000Y-64941300D02*
X144723000Y-64941300D01*
D11*
X166261700Y-39199300D02*
X182261700Y-39199300D01*
X182261700Y-39199300D02*
X182261700Y-51199300D01*
X182261700Y-51199300D02*
X166261700Y-51199300D01*
X166261700Y-51199300D02*
X166261700Y-39199300D01*
X186126300Y-47564600D02*
X186126300Y-47709600D01*
X190276300Y-47564600D02*
X190276300Y-47709600D01*
X190276300Y-52714600D02*
X190276300Y-52569600D01*
X186126300Y-52714600D02*
X186126300Y-52569600D01*
X186126300Y-47564600D02*
X190276300Y-47564600D01*
X186126300Y-52714600D02*
X190276300Y-52714600D01*
X186126300Y-47709600D02*
X184726300Y-47709600D01*
X135568000Y-51416000D02*
X136838000Y-51416000D01*
X136317300Y-50628600D02*
X136063300Y-50666700D01*
X136063300Y-50666700D02*
X135783900Y-50844500D01*
X135783900Y-50844500D02*
X135568000Y-51162000D01*
X135568000Y-51162000D02*
X135555300Y-51606500D01*
X135555300Y-51606500D02*
X135758500Y-51962100D01*
X135758500Y-51962100D02*
X136050600Y-52139900D01*
X136050600Y-52139900D02*
X136368100Y-52190700D01*
X136368100Y-52190700D02*
X136774500Y-52089100D01*
X136774500Y-52089100D02*
X137028500Y-51746200D01*
X137028500Y-51746200D02*
X137117400Y-51568400D01*
X139378000Y-43034000D02*
X139378000Y-52686000D01*
X136330000Y-52686000D02*
X135060000Y-52686000D01*
X135060000Y-52686000D02*
X135060000Y-43034000D01*
X135060000Y-43034000D02*
X140140000Y-43034000D01*
X140140000Y-52686000D02*
X137600000Y-52686000D01*
X137600000Y-52686000D02*
X136330000Y-52686000D01*
X155417520Y-42499280D02*
X155417520Y-41356280D01*
X152369520Y-42499280D02*
X152369520Y-41356280D01*
X148559520Y-41356280D02*
X148559520Y-37673280D01*
X148559520Y-37673280D02*
X159227520Y-37673280D01*
X159227520Y-37673280D02*
X159227520Y-41356280D01*
X148559520Y-42499280D02*
X148559520Y-41356280D01*
X148559520Y-41356280D02*
X159227520Y-41356280D01*
X159227520Y-41356280D02*
X159227520Y-42499280D01*
X153893520Y-42499280D02*
X159227520Y-42499280D01*
X153893520Y-42499280D02*
X148559520Y-42499280D01*
X184400000Y-43800860D02*
X184400000Y-42800100D01*
X184400000Y-42800100D02*
X185200100Y-43501140D01*
X185200100Y-43501140D02*
X184900380Y-42599440D01*
X184900380Y-42599440D02*
X185901140Y-42800100D01*
X185901140Y-42800100D02*
X185101040Y-42099060D01*
X185101040Y-42099060D02*
X186099260Y-42099060D01*
X186099260Y-42099060D02*
X184999440Y-41700280D01*
X184999440Y-41700280D02*
X185799540Y-40999240D01*
X185799540Y-40999240D02*
X184798780Y-41400560D01*
X184798780Y-41400560D02*
X185101040Y-40498860D01*
X185101040Y-40498860D02*
X184400000Y-41199900D01*
X184400000Y-41199900D02*
X184400000Y-40300740D01*
X185101040Y-42000000D02*
G75*
G03X185101040Y-42000000I-701040J0D01*
G01*
X186200860Y-42000000D02*
G75*
G03X186200860Y-42000000I-1800860J0D01*
G01*
D10*
X148375500Y-68730000D02*
G75*
G03X148375500Y-68730000I-775500J0D01*
G01*
X170447500Y-65913000D02*
G75*
G03X170447500Y-65913000I-648500J0D01*
G01*
X167907500Y-65913000D02*
G75*
G03X167907500Y-65913000I-648500J0D01*
G01*
X165367500Y-65913000D02*
G75*
G03X165367500Y-65913000I-648500J0D01*
G01*
X162827500Y-65913000D02*
G75*
G03X162827500Y-65913000I-648500J0D01*
G01*
X162827500Y-73533000D02*
G75*
G03X162827500Y-73533000I-648500J0D01*
G01*
X165367500Y-73533000D02*
G75*
G03X165367500Y-73533000I-648500J0D01*
G01*
X167907500Y-73533000D02*
G75*
G03X167907500Y-73533000I-648500J0D01*
G01*
X170447500Y-73533000D02*
G75*
G03X170447500Y-73533000I-648500J0D01*
G01*
X172987500Y-73533000D02*
G75*
G03X172987500Y-73533000I-648500J0D01*
G01*
X146645490Y-75508000D02*
G75*
G03X146645490Y-75508000I-949490J0D01*
G01*
X146645490Y-81096000D02*
G75*
G03X146645490Y-81096000I-949490J0D01*
G01*
X154257490Y-77104000D02*
G75*
G03X154257490Y-77104000I-949490J0D01*
G01*
X159845490Y-77104000D02*
G75*
G03X159845490Y-77104000I-949490J0D01*
G01*
X167753490Y-82492000D02*
G75*
G03X167753490Y-82492000I-949490J0D01*
G01*
X167753490Y-76904000D02*
G75*
G03X167753490Y-76904000I-949490J0D01*
G01*
X181345490Y-76808000D02*
G75*
G03X181345490Y-76808000I-949490J0D01*
G01*
X181345490Y-82396000D02*
G75*
G03X181345490Y-82396000I-949490J0D01*
G01*
X160207490Y-55499000D02*
G75*
G03X160207490Y-55499000I-949490J0D01*
G01*
X160207490Y-61087000D02*
G75*
G03X160207490Y-61087000I-949490J0D01*
G01*
X175447490Y-55245000D02*
G75*
G03X175447490Y-55245000I-949490J0D01*
G01*
X175447490Y-60833000D02*
G75*
G03X175447490Y-60833000I-949490J0D01*
G01*
X193600000Y-70500000D02*
G75*
G03X193600000Y-70500000I-1700000J0D01*
G01*
X193600000Y-62900000D02*
G75*
G03X193600000Y-62900000I-1700000J0D01*
G01*
X185050000Y-66700000D02*
G75*
G03X185050000Y-66700000I-950000J0D01*
G01*
X188970000Y-73886400D02*
X188970000Y-73886400D01*
X188970000Y-75513600D02*
X188970000Y-75513600D01*
X188970000Y-73886400D02*
G75*
G03X188970000Y-75513600I0J-813600D01*
G01*
X188970000Y-75513600D02*
G75*
G03X188970000Y-73886400I0J813600D01*
G01*
X180583600Y-71130000D02*
X180583600Y-71130000D01*
X178956400Y-71130000D02*
X178956400Y-71130000D01*
X180583600Y-71130000D02*
G75*
G03X178956400Y-71130000I-813600J0D01*
G01*
X178956400Y-71130000D02*
G75*
G03X180583600Y-71130000I813600J0D01*
G01*
X178043600Y-73670000D02*
X178043600Y-73670000D01*
X176416400Y-73670000D02*
X176416400Y-73670000D01*
X178043600Y-73670000D02*
G75*
G03X176416400Y-73670000I-813600J0D01*
G01*
X176416400Y-73670000D02*
G75*
G03X178043600Y-73670000I813600J0D01*
G01*
X178043600Y-71130000D02*
X178043600Y-71130000D01*
X176416400Y-71130000D02*
X176416400Y-71130000D01*
X178043600Y-71130000D02*
G75*
G03X176416400Y-71130000I-813600J0D01*
G01*
X176416400Y-71130000D02*
G75*
G03X178043600Y-71130000I813600J0D01*
G01*
X137750000Y-62800000D02*
G75*
G03X137750000Y-62800000I-850000J0D01*
G01*
X140250000Y-59800000D02*
G75*
G03X140250000Y-59800000I-850000J0D01*
G01*
X135250000Y-62800000D02*
G75*
G03X135250000Y-62800000I-850000J0D01*
G01*
X135250000Y-59800000D02*
G75*
G03X135250000Y-59800000I-850000J0D01*
G01*
X137750000Y-59800000D02*
G75*
G03X137750000Y-59800000I-850000J0D01*
G01*
X146773000Y-61241300D02*
G75*
G03X146773000Y-61241300I-850000J0D01*
G01*
X149773000Y-63741300D02*
G75*
G03X149773000Y-63741300I-850000J0D01*
G01*
X146773000Y-58741300D02*
G75*
G03X146773000Y-58741300I-850000J0D01*
G01*
X149773000Y-58741300D02*
G75*
G03X149773000Y-58741300I-850000J0D01*
G01*
X149773000Y-61241300D02*
G75*
G03X149773000Y-61241300I-850000J0D01*
G01*
X164681700Y-39199300D02*
G75*
G03X164681700Y-39199300I-1220000J0D01*
G01*
X164275300Y-43199300D02*
G75*
G03X164275300Y-43199300I-813600J0D01*
G01*
X164681700Y-47199300D02*
G75*
G03X164681700Y-47199300I-1220000J0D01*
G01*
X164275300Y-51199300D02*
G75*
G03X164275300Y-51199300I-813600J0D01*
G01*
X138312000Y-47860000D02*
G75*
G03X138312000Y-47860000I-712000J0D01*
G01*
X138312000Y-45320000D02*
G75*
G03X138312000Y-45320000I-712000J0D01*
G01*
X138312000Y-50400000D02*
G75*
G03X138312000Y-50400000I-712000J0D01*
G01*
X153192950Y-38952170D02*
X153192950Y-39950390D01*
X154594090Y-38952170D02*
X154594090Y-39950390D01*
X153192950Y-39950390D02*
G75*
G03X154594090Y-39950390I700570J0D01*
G01*
X154594090Y-38952170D02*
G75*
G03X153192950Y-38952170I-700570J0D01*
G01*
X155732950Y-38952170D02*
X155732950Y-39950390D01*
X157134090Y-38952170D02*
X157134090Y-39950390D01*
X155732950Y-39950390D02*
G75*
G03X157134090Y-39950390I700570J0D01*
G01*
X157134090Y-38952170D02*
G75*
G03X155732950Y-38952170I-700570J0D01*
G01*
X150652950Y-38952170D02*
X150652950Y-39950390D01*
X152054090Y-38952170D02*
X152054090Y-39950390D01*
X150652950Y-39950390D02*
G75*
G03X152054090Y-39950390I700570J0D01*
G01*
X152054090Y-38952170D02*
G75*
G03X150652950Y-38952170I-700570J0D01*
G01*
X185349490Y-45299460D02*
G75*
G03X185349490Y-45299460I-949490J0D01*
G01*
X185349490Y-38700540D02*
G75*
G03X185349490Y-38700540I-949490J0D01*
G01*
D11*
X159957143Y-69366666D02*
X160004762Y-69414285D01*
X160052381Y-69557142D01*
X160052381Y-69652380D01*
X160004762Y-69795238D01*
X159909524Y-69890476D01*
X159814286Y-69938095D01*
X159623810Y-69985714D01*
X159480952Y-69985714D01*
X159290476Y-69938095D01*
X159195238Y-69890476D01*
X159100000Y-69795238D01*
X159052381Y-69652380D01*
X159052381Y-69557142D01*
X159100000Y-69414285D01*
X159147619Y-69366666D01*
X160052381Y-68414285D02*
X160052381Y-68985714D01*
X160052381Y-68700000D02*
X159052381Y-68700000D01*
X159195238Y-68795238D01*
X159290476Y-68890476D01*
X159338095Y-68985714D01*
X136633334Y-54557143D02*
X136585715Y-54604762D01*
X136442858Y-54652381D01*
X136347620Y-54652381D01*
X136204762Y-54604762D01*
X136109524Y-54509524D01*
X136061905Y-54414286D01*
X136014286Y-54223810D01*
X136014286Y-54080952D01*
X136061905Y-53890476D01*
X136109524Y-53795238D01*
X136204762Y-53700000D01*
X136347620Y-53652381D01*
X136442858Y-53652381D01*
X136585715Y-53700000D01*
X136633334Y-53747619D01*
X137014286Y-53747619D02*
X137061905Y-53700000D01*
X137157143Y-53652381D01*
X137395239Y-53652381D01*
X137490477Y-53700000D01*
X137538096Y-53747619D01*
X137585715Y-53842857D01*
X137585715Y-53938095D01*
X137538096Y-54080952D01*
X136966667Y-54652381D01*
X137585715Y-54652381D01*
X138157143Y-71242857D02*
X138204762Y-71290476D01*
X138252381Y-71433333D01*
X138252381Y-71528571D01*
X138204762Y-71671429D01*
X138109524Y-71766667D01*
X138014286Y-71814286D01*
X137823810Y-71861905D01*
X137680952Y-71861905D01*
X137490476Y-71814286D01*
X137395238Y-71766667D01*
X137300000Y-71671429D01*
X137252381Y-71528571D01*
X137252381Y-71433333D01*
X137300000Y-71290476D01*
X137347619Y-71242857D01*
X138252381Y-70290476D02*
X138252381Y-70861905D01*
X138252381Y-70576191D02*
X137252381Y-70576191D01*
X137395238Y-70671429D01*
X137490476Y-70766667D01*
X137538095Y-70861905D01*
X137252381Y-69957143D02*
X137252381Y-69338095D01*
X137633333Y-69671429D01*
X137633333Y-69528571D01*
X137680952Y-69433333D01*
X137728571Y-69385714D01*
X137823810Y-69338095D01*
X138061905Y-69338095D01*
X138157143Y-69385714D01*
X138204762Y-69433333D01*
X138252381Y-69528571D01*
X138252381Y-69814286D01*
X138204762Y-69909524D01*
X138157143Y-69957143D01*
X149989143Y-70642857D02*
X150036762Y-70690476D01*
X150084381Y-70833333D01*
X150084381Y-70928571D01*
X150036762Y-71071429D01*
X149941524Y-71166667D01*
X149846286Y-71214286D01*
X149655810Y-71261905D01*
X149512952Y-71261905D01*
X149322476Y-71214286D01*
X149227238Y-71166667D01*
X149132000Y-71071429D01*
X149084381Y-70928571D01*
X149084381Y-70833333D01*
X149132000Y-70690476D01*
X149179619Y-70642857D01*
X150084381Y-69690476D02*
X150084381Y-70261905D01*
X150084381Y-69976191D02*
X149084381Y-69976191D01*
X149227238Y-70071429D01*
X149322476Y-70166667D01*
X149370095Y-70261905D01*
X149417714Y-68833333D02*
X150084381Y-68833333D01*
X149036762Y-69071429D02*
X149751048Y-69309524D01*
X149751048Y-68690476D01*
X145610254Y-72928571D02*
X146276921Y-72928571D01*
X145229302Y-73166667D02*
X145943588Y-73404762D01*
X145943588Y-72785714D01*
X145276921Y-72500000D02*
X145276921Y-71833333D01*
X146276921Y-72261905D01*
X145610254Y-71023809D02*
X146276921Y-71023809D01*
X145610254Y-71452381D02*
X146134064Y-71452381D01*
X146229302Y-71404762D01*
X146276921Y-71309524D01*
X146276921Y-71166666D01*
X146229302Y-71071428D01*
X146181683Y-71023809D01*
X145753111Y-70214285D02*
X145753111Y-70547619D01*
X146276921Y-70547619D02*
X145276921Y-70547619D01*
X145276921Y-70071428D01*
X146276921Y-68404761D02*
X146276921Y-68976190D01*
X146276921Y-68690476D02*
X145276921Y-68690476D01*
X145419778Y-68785714D01*
X145515016Y-68880952D01*
X145562635Y-68976190D01*
X145276921Y-67547618D02*
X145276921Y-67738095D01*
X145324540Y-67833333D01*
X145372159Y-67880952D01*
X145515016Y-67976190D01*
X145705492Y-68023809D01*
X146086445Y-68023809D01*
X146181683Y-67976190D01*
X146229302Y-67928571D01*
X146276921Y-67833333D01*
X146276921Y-67642856D01*
X146229302Y-67547618D01*
X146181683Y-67499999D01*
X146086445Y-67452380D01*
X145848350Y-67452380D01*
X145753111Y-67499999D01*
X145705492Y-67547618D01*
X145657873Y-67642856D01*
X145657873Y-67833333D01*
X145705492Y-67928571D01*
X145753111Y-67976190D01*
X145848350Y-68023809D01*
X145276921Y-67166666D02*
X146276921Y-66833333D01*
X145276921Y-66499999D01*
X147671429Y-73426412D02*
X147671429Y-72664507D01*
X148052381Y-73045459D02*
X147290476Y-73045459D01*
X158157143Y-47357143D02*
X158109524Y-47404762D01*
X157966667Y-47452381D01*
X157871429Y-47452381D01*
X157728571Y-47404762D01*
X157633333Y-47309524D01*
X157585714Y-47214286D01*
X157538095Y-47023810D01*
X157538095Y-46880952D01*
X157585714Y-46690476D01*
X157633333Y-46595238D01*
X157728571Y-46500000D01*
X157871429Y-46452381D01*
X157966667Y-46452381D01*
X158109524Y-46500000D01*
X158157143Y-46547619D01*
X159109524Y-47452381D02*
X158538095Y-47452381D01*
X158823809Y-47452381D02*
X158823809Y-46452381D01*
X158728571Y-46595238D01*
X158633333Y-46690476D01*
X158538095Y-46738095D01*
X160014286Y-46452381D02*
X159538095Y-46452381D01*
X159490476Y-46928571D01*
X159538095Y-46880952D01*
X159633333Y-46833333D01*
X159871429Y-46833333D01*
X159966667Y-46880952D01*
X160014286Y-46928571D01*
X160061905Y-47023810D01*
X160061905Y-47261905D01*
X160014286Y-47357143D01*
X159966667Y-47404762D01*
X159871429Y-47452381D01*
X159633333Y-47452381D01*
X159538095Y-47404762D01*
X159490476Y-47357143D01*
X147657143Y-56657143D02*
X147609524Y-56704762D01*
X147466667Y-56752381D01*
X147371429Y-56752381D01*
X147228571Y-56704762D01*
X147133333Y-56609524D01*
X147085714Y-56514286D01*
X147038095Y-56323810D01*
X147038095Y-56180952D01*
X147085714Y-55990476D01*
X147133333Y-55895238D01*
X147228571Y-55800000D01*
X147371429Y-55752381D01*
X147466667Y-55752381D01*
X147609524Y-55800000D01*
X147657143Y-55847619D01*
X148609524Y-56752381D02*
X148038095Y-56752381D01*
X148323809Y-56752381D02*
X148323809Y-55752381D01*
X148228571Y-55895238D01*
X148133333Y-55990476D01*
X148038095Y-56038095D01*
X149466667Y-55752381D02*
X149276190Y-55752381D01*
X149180952Y-55800000D01*
X149133333Y-55847619D01*
X149038095Y-55990476D01*
X148990476Y-56180952D01*
X148990476Y-56561905D01*
X149038095Y-56657143D01*
X149085714Y-56704762D01*
X149180952Y-56752381D01*
X149371429Y-56752381D01*
X149466667Y-56704762D01*
X149514286Y-56657143D01*
X149561905Y-56561905D01*
X149561905Y-56323810D01*
X149514286Y-56228571D01*
X149466667Y-56180952D01*
X149371429Y-56133333D01*
X149180952Y-56133333D01*
X149085714Y-56180952D01*
X149038095Y-56228571D01*
X148990476Y-56323810D01*
X187657143Y-59957143D02*
X187609524Y-60004762D01*
X187466667Y-60052381D01*
X187371429Y-60052381D01*
X187228571Y-60004762D01*
X187133333Y-59909524D01*
X187085714Y-59814286D01*
X187038095Y-59623810D01*
X187038095Y-59480952D01*
X187085714Y-59290476D01*
X187133333Y-59195238D01*
X187228571Y-59100000D01*
X187371429Y-59052381D01*
X187466667Y-59052381D01*
X187609524Y-59100000D01*
X187657143Y-59147619D01*
X188609524Y-60052381D02*
X188038095Y-60052381D01*
X188323809Y-60052381D02*
X188323809Y-59052381D01*
X188228571Y-59195238D01*
X188133333Y-59290476D01*
X188038095Y-59338095D01*
X188942857Y-59052381D02*
X189609524Y-59052381D01*
X189180952Y-60052381D01*
D10*
X128624560Y-57751533D02*
X128657893Y-57784867D01*
X128691227Y-57884867D01*
X128691227Y-57951533D01*
X128657893Y-58051533D01*
X128591227Y-58118200D01*
X128524560Y-58151533D01*
X128391227Y-58184867D01*
X128291227Y-58184867D01*
X128157893Y-58151533D01*
X128091227Y-58118200D01*
X128024560Y-58051533D01*
X127991227Y-57951533D01*
X127991227Y-57884867D01*
X128024560Y-57784867D01*
X128057893Y-57751533D01*
X128691227Y-57451533D02*
X127991227Y-57451533D01*
X128691227Y-57051533D01*
X127991227Y-57051533D01*
X128691227Y-56351534D02*
X128691227Y-56751534D01*
X128691227Y-56551534D02*
X127991227Y-56551534D01*
X128091227Y-56618200D01*
X128157893Y-56684867D01*
X128191227Y-56751534D01*
X128324560Y-74634866D02*
X128324560Y-74401533D01*
X128691227Y-74301533D02*
X128691227Y-74634866D01*
X127991227Y-74634866D01*
X127991227Y-74301533D01*
X128691227Y-74001533D02*
X127991227Y-74001533D01*
X127991227Y-73834867D01*
X128024560Y-73734867D01*
X128091227Y-73668200D01*
X128157893Y-73634867D01*
X128291227Y-73601533D01*
X128391227Y-73601533D01*
X128524560Y-73634867D01*
X128591227Y-73668200D01*
X128657893Y-73734867D01*
X128691227Y-73834867D01*
X128691227Y-74001533D01*
X128024560Y-72934867D02*
X127991227Y-73001533D01*
X127991227Y-73101533D01*
X128024560Y-73201533D01*
X128091227Y-73268200D01*
X128157893Y-73301533D01*
X128291227Y-73334867D01*
X128391227Y-73334867D01*
X128524560Y-73301533D01*
X128591227Y-73268200D01*
X128657893Y-73201533D01*
X128691227Y-73101533D01*
X128691227Y-73034867D01*
X128657893Y-72934867D01*
X128624560Y-72901533D01*
X128391227Y-72901533D01*
X128391227Y-73034867D01*
X128324560Y-72601533D02*
X128324560Y-72368200D01*
X128691227Y-72268200D02*
X128691227Y-72601533D01*
X127991227Y-72601533D01*
X127991227Y-72268200D01*
D11*
X166520905Y-71445381D02*
X166520905Y-70445381D01*
X167092334Y-71445381D02*
X166663762Y-70873952D01*
X167092334Y-70445381D02*
X166520905Y-71016810D01*
X167473286Y-70540619D02*
X167520905Y-70493000D01*
X167616143Y-70445381D01*
X167854239Y-70445381D01*
X167949477Y-70493000D01*
X167997096Y-70540619D01*
X168044715Y-70635857D01*
X168044715Y-70731095D01*
X167997096Y-70873952D01*
X167425667Y-71445381D01*
X168044715Y-71445381D01*
X145433334Y-78752381D02*
X144957143Y-78752381D01*
X144957143Y-77752381D01*
X146290477Y-78752381D02*
X145719048Y-78752381D01*
X146004762Y-78752381D02*
X146004762Y-77752381D01*
X145909524Y-77895238D01*
X145814286Y-77990476D01*
X145719048Y-78038095D01*
X156488341Y-77230026D02*
X156488341Y-77706217D01*
X155488341Y-77706217D01*
X155583579Y-76944312D02*
X155535960Y-76896693D01*
X155488341Y-76801455D01*
X155488341Y-76563359D01*
X155535960Y-76468121D01*
X155583579Y-76420502D01*
X155678817Y-76372883D01*
X155774055Y-76372883D01*
X155916912Y-76420502D01*
X156488341Y-76991931D01*
X156488341Y-76372883D01*
X166556054Y-80160541D02*
X166079863Y-80160541D01*
X166079863Y-79160541D01*
X166794149Y-79160541D02*
X167413197Y-79160541D01*
X167079863Y-79541493D01*
X167222721Y-79541493D01*
X167317959Y-79589112D01*
X167365578Y-79636731D01*
X167413197Y-79731970D01*
X167413197Y-79970065D01*
X167365578Y-80065303D01*
X167317959Y-80112922D01*
X167222721Y-80160541D01*
X166937006Y-80160541D01*
X166841768Y-80112922D01*
X166794149Y-80065303D01*
X180158214Y-80201701D02*
X179682023Y-80201701D01*
X179682023Y-79201701D01*
X180920119Y-79535034D02*
X180920119Y-80201701D01*
X180682023Y-79154082D02*
X180443928Y-79868368D01*
X181062976Y-79868368D01*
X159033334Y-59052381D02*
X158557143Y-59052381D01*
X158557143Y-58052381D01*
X159414286Y-59052381D02*
X159604762Y-59052381D01*
X159700001Y-59004762D01*
X159747620Y-58957143D01*
X159842858Y-58814286D01*
X159890477Y-58623810D01*
X159890477Y-58242857D01*
X159842858Y-58147619D01*
X159795239Y-58100000D01*
X159700001Y-58052381D01*
X159509524Y-58052381D01*
X159414286Y-58100000D01*
X159366667Y-58147619D01*
X159319048Y-58242857D01*
X159319048Y-58480952D01*
X159366667Y-58576190D01*
X159414286Y-58623810D01*
X159509524Y-58671429D01*
X159700001Y-58671429D01*
X159795239Y-58623810D01*
X159842858Y-58576190D01*
X159890477Y-58480952D01*
X173357143Y-59052381D02*
X172880952Y-59052381D01*
X172880952Y-58052381D01*
X174214286Y-59052381D02*
X173642857Y-59052381D01*
X173928571Y-59052381D02*
X173928571Y-58052381D01*
X173833333Y-58195238D01*
X173738095Y-58290476D01*
X173642857Y-58338095D01*
X175166667Y-59052381D02*
X174595238Y-59052381D01*
X174880952Y-59052381D02*
X174880952Y-58052381D01*
X174785714Y-58195238D01*
X174690476Y-58290476D01*
X174595238Y-58338095D01*
D10*
X189616667Y-67216666D02*
X188916667Y-67216666D01*
X188916667Y-66950000D01*
X188950000Y-66883333D01*
X188983333Y-66850000D01*
X189050000Y-66816666D01*
X189150000Y-66816666D01*
X189216667Y-66850000D01*
X189250000Y-66883333D01*
X189283333Y-66950000D01*
X189283333Y-67216666D01*
X189616667Y-66150000D02*
X189616667Y-66550000D01*
X189616667Y-66350000D02*
X188916667Y-66350000D01*
X189016667Y-66416666D01*
X189083333Y-66483333D01*
X189116667Y-66550000D01*
X187850000Y-67466666D02*
X187883333Y-67366666D01*
X187916667Y-67333333D01*
X187983333Y-67299999D01*
X188083333Y-67299999D01*
X188150000Y-67333333D01*
X188183333Y-67366666D01*
X188216667Y-67433333D01*
X188216667Y-67699999D01*
X187516667Y-67699999D01*
X187516667Y-67466666D01*
X187550000Y-67399999D01*
X187583333Y-67366666D01*
X187650000Y-67333333D01*
X187716667Y-67333333D01*
X187783333Y-67366666D01*
X187816667Y-67399999D01*
X187850000Y-67466666D01*
X187850000Y-67699999D01*
X188216667Y-66999999D02*
X187516667Y-66999999D01*
X188216667Y-66599999D01*
X187516667Y-66599999D01*
X188150000Y-65866666D02*
X188183333Y-65900000D01*
X188216667Y-66000000D01*
X188216667Y-66066666D01*
X188183333Y-66166666D01*
X188116667Y-66233333D01*
X188050000Y-66266666D01*
X187916667Y-66300000D01*
X187816667Y-66300000D01*
X187683333Y-66266666D01*
X187616667Y-66233333D01*
X187550000Y-66166666D01*
X187516667Y-66066666D01*
X187516667Y-66000000D01*
X187550000Y-65900000D01*
X187583333Y-65866666D01*
D11*
X191962381Y-75438095D02*
X190962381Y-75438095D01*
X190962381Y-75057142D01*
X191010000Y-74961904D01*
X191057619Y-74914285D01*
X191152857Y-74866666D01*
X191295714Y-74866666D01*
X191390952Y-74914285D01*
X191438571Y-74961904D01*
X191486190Y-75057142D01*
X191486190Y-75438095D01*
X191057619Y-74485714D02*
X191010000Y-74438095D01*
X190962381Y-74342857D01*
X190962381Y-74104761D01*
X191010000Y-74009523D01*
X191057619Y-73961904D01*
X191152857Y-73914285D01*
X191248095Y-73914285D01*
X191390952Y-73961904D01*
X191962381Y-74533333D01*
X191962381Y-73914285D01*
X151304762Y-67547619D02*
X151209524Y-67500000D01*
X151114286Y-67404762D01*
X150971429Y-67261905D01*
X150876190Y-67214286D01*
X150780952Y-67214286D01*
X150828571Y-67452381D02*
X150733333Y-67404762D01*
X150638095Y-67309524D01*
X150590476Y-67119048D01*
X150590476Y-66785714D01*
X150638095Y-66595238D01*
X150733333Y-66500000D01*
X150828571Y-66452381D01*
X151019048Y-66452381D01*
X151114286Y-66500000D01*
X151209524Y-66595238D01*
X151257143Y-66785714D01*
X151257143Y-67119048D01*
X151209524Y-67309524D01*
X151114286Y-67404762D01*
X151019048Y-67452381D01*
X150828571Y-67452381D01*
X151638095Y-66547619D02*
X151685714Y-66500000D01*
X151780952Y-66452381D01*
X152019048Y-66452381D01*
X152114286Y-66500000D01*
X152161905Y-66547619D01*
X152209524Y-66642857D01*
X152209524Y-66738095D01*
X152161905Y-66880952D01*
X151590476Y-67452381D01*
X152209524Y-67452381D01*
X181704762Y-62947619D02*
X181609524Y-62900000D01*
X181514286Y-62804762D01*
X181371429Y-62661905D01*
X181276190Y-62614286D01*
X181180952Y-62614286D01*
X181228571Y-62852381D02*
X181133333Y-62804762D01*
X181038095Y-62709524D01*
X180990476Y-62519048D01*
X180990476Y-62185714D01*
X181038095Y-61995238D01*
X181133333Y-61900000D01*
X181228571Y-61852381D01*
X181419048Y-61852381D01*
X181514286Y-61900000D01*
X181609524Y-61995238D01*
X181657143Y-62185714D01*
X181657143Y-62519048D01*
X181609524Y-62709524D01*
X181514286Y-62804762D01*
X181419048Y-62852381D01*
X181228571Y-62852381D01*
X182514286Y-62185714D02*
X182514286Y-62852381D01*
X182276190Y-61804762D02*
X182038095Y-62519048D01*
X182657143Y-62519048D01*
X157352381Y-71066666D02*
X156876190Y-71400000D01*
X157352381Y-71638095D02*
X156352381Y-71638095D01*
X156352381Y-71257142D01*
X156400000Y-71161904D01*
X156447619Y-71114285D01*
X156542857Y-71066666D01*
X156685714Y-71066666D01*
X156780952Y-71114285D01*
X156828571Y-71161904D01*
X156876190Y-71257142D01*
X156876190Y-71638095D01*
X156447619Y-70685714D02*
X156400000Y-70638095D01*
X156352381Y-70542857D01*
X156352381Y-70304761D01*
X156400000Y-70209523D01*
X156447619Y-70161904D01*
X156542857Y-70114285D01*
X156638095Y-70114285D01*
X156780952Y-70161904D01*
X157352381Y-70733333D01*
X157352381Y-70114285D01*
X147733334Y-42852381D02*
X147400000Y-42376190D01*
X147161905Y-42852381D02*
X147161905Y-41852381D01*
X147542858Y-41852381D01*
X147638096Y-41900000D01*
X147685715Y-41947619D01*
X147733334Y-42042857D01*
X147733334Y-42185714D01*
X147685715Y-42280952D01*
X147638096Y-42328571D01*
X147542858Y-42376190D01*
X147161905Y-42376190D01*
X148638096Y-41852381D02*
X148161905Y-41852381D01*
X148114286Y-42328571D01*
X148161905Y-42280952D01*
X148257143Y-42233333D01*
X148495239Y-42233333D01*
X148590477Y-42280952D01*
X148638096Y-42328571D01*
X148685715Y-42423810D01*
X148685715Y-42661905D01*
X148638096Y-42757143D01*
X148590477Y-42804762D01*
X148495239Y-42852381D01*
X148257143Y-42852381D01*
X148161905Y-42804762D01*
X148114286Y-42757143D01*
X145952381Y-46966666D02*
X145476190Y-47300000D01*
X145952381Y-47538095D02*
X144952381Y-47538095D01*
X144952381Y-47157142D01*
X145000000Y-47061904D01*
X145047619Y-47014285D01*
X145142857Y-46966666D01*
X145285714Y-46966666D01*
X145380952Y-47014285D01*
X145428571Y-47061904D01*
X145476190Y-47157142D01*
X145476190Y-47538095D01*
X144952381Y-46109523D02*
X144952381Y-46300000D01*
X145000000Y-46395238D01*
X145047619Y-46442857D01*
X145190476Y-46538095D01*
X145380952Y-46585714D01*
X145761905Y-46585714D01*
X145857143Y-46538095D01*
X145904762Y-46490476D01*
X145952381Y-46395238D01*
X145952381Y-46204761D01*
X145904762Y-46109523D01*
X145857143Y-46061904D01*
X145761905Y-46014285D01*
X145523810Y-46014285D01*
X145428571Y-46061904D01*
X145380952Y-46109523D01*
X145333333Y-46204761D01*
X145333333Y-46395238D01*
X145380952Y-46490476D01*
X145428571Y-46538095D01*
X145523810Y-46585714D01*
X150052381Y-40666666D02*
X149576190Y-41000000D01*
X150052381Y-41238095D02*
X149052381Y-41238095D01*
X149052381Y-40857142D01*
X149100000Y-40761904D01*
X149147619Y-40714285D01*
X149242857Y-40666666D01*
X149385714Y-40666666D01*
X149480952Y-40714285D01*
X149528571Y-40761904D01*
X149576190Y-40857142D01*
X149576190Y-41238095D01*
X149052381Y-40333333D02*
X149052381Y-39666666D01*
X150052381Y-40095238D01*
X188133334Y-56952381D02*
X187800000Y-56476190D01*
X187561905Y-56952381D02*
X187561905Y-55952381D01*
X187942858Y-55952381D01*
X188038096Y-56000000D01*
X188085715Y-56047619D01*
X188133334Y-56142857D01*
X188133334Y-56285714D01*
X188085715Y-56380952D01*
X188038096Y-56428571D01*
X187942858Y-56476190D01*
X187561905Y-56476190D01*
X188704762Y-56380952D02*
X188609524Y-56333333D01*
X188561905Y-56285714D01*
X188514286Y-56190476D01*
X188514286Y-56142857D01*
X188561905Y-56047619D01*
X188609524Y-56000000D01*
X188704762Y-55952381D01*
X188895239Y-55952381D01*
X188990477Y-56000000D01*
X189038096Y-56047619D01*
X189085715Y-56142857D01*
X189085715Y-56190476D01*
X189038096Y-56285714D01*
X188990477Y-56333333D01*
X188895239Y-56380952D01*
X188704762Y-56380952D01*
X188609524Y-56428571D01*
X188561905Y-56476190D01*
X188514286Y-56571429D01*
X188514286Y-56761905D01*
X188561905Y-56857143D01*
X188609524Y-56904762D01*
X188704762Y-56952381D01*
X188895239Y-56952381D01*
X188990477Y-56904762D01*
X189038096Y-56857143D01*
X189085715Y-56761905D01*
X189085715Y-56571429D01*
X189038096Y-56476190D01*
X188990477Y-56428571D01*
X188895239Y-56380952D01*
X178333334Y-69752381D02*
X178000000Y-69276190D01*
X177761905Y-69752381D02*
X177761905Y-68752381D01*
X178142858Y-68752381D01*
X178238096Y-68800000D01*
X178285715Y-68847619D01*
X178333334Y-68942857D01*
X178333334Y-69085714D01*
X178285715Y-69180952D01*
X178238096Y-69228571D01*
X178142858Y-69276190D01*
X177761905Y-69276190D01*
X178809524Y-69752381D02*
X179000000Y-69752381D01*
X179095239Y-69704762D01*
X179142858Y-69657143D01*
X179238096Y-69514286D01*
X179285715Y-69323810D01*
X179285715Y-68942857D01*
X179238096Y-68847619D01*
X179190477Y-68800000D01*
X179095239Y-68752381D01*
X178904762Y-68752381D01*
X178809524Y-68800000D01*
X178761905Y-68847619D01*
X178714286Y-68942857D01*
X178714286Y-69180952D01*
X178761905Y-69276190D01*
X178809524Y-69323810D01*
X178904762Y-69371429D01*
X179095239Y-69371429D01*
X179190477Y-69323810D01*
X179238096Y-69276190D01*
X179285715Y-69180952D01*
X177738095Y-68042381D02*
X178309524Y-68042381D01*
X178023809Y-69042381D02*
X178023809Y-68042381D01*
X179166667Y-69042381D02*
X178595238Y-69042381D01*
X178880952Y-69042381D02*
X178880952Y-68042381D01*
X178785714Y-68185238D01*
X178690476Y-68280476D01*
X178595238Y-68328095D01*
D10*
X132016667Y-61833333D02*
X132016667Y-61433333D01*
X132716667Y-61633333D02*
X132016667Y-61633333D01*
X132083333Y-61233334D02*
X132050000Y-61200000D01*
X132016667Y-61133334D01*
X132016667Y-60966667D01*
X132050000Y-60900000D01*
X132083333Y-60866667D01*
X132150000Y-60833334D01*
X132216667Y-60833334D01*
X132316667Y-60866667D01*
X132716667Y-61266667D01*
X132716667Y-60833334D01*
X141416667Y-61366666D02*
X141383333Y-61433333D01*
X141350000Y-61466666D01*
X141283333Y-61500000D01*
X141250000Y-61500000D01*
X141183333Y-61466666D01*
X141150000Y-61433333D01*
X141116667Y-61366666D01*
X141116667Y-61233333D01*
X141150000Y-61166666D01*
X141183333Y-61133333D01*
X141250000Y-61100000D01*
X141283333Y-61100000D01*
X141350000Y-61133333D01*
X141383333Y-61166666D01*
X141416667Y-61233333D01*
X141416667Y-61366666D01*
X141450000Y-61433333D01*
X141483333Y-61466666D01*
X141550000Y-61500000D01*
X141683333Y-61500000D01*
X141750000Y-61466666D01*
X141783333Y-61433333D01*
X141816667Y-61366666D01*
X141816667Y-61233333D01*
X141783333Y-61166666D01*
X141750000Y-61133333D01*
X141683333Y-61100000D01*
X141550000Y-61100000D01*
X141483333Y-61133333D01*
X141450000Y-61166666D01*
X141416667Y-61233333D01*
X141750000Y-60799999D02*
X141783333Y-60766666D01*
X141816667Y-60799999D01*
X141783333Y-60833333D01*
X141750000Y-60799999D01*
X141816667Y-60799999D01*
X141383333Y-60799999D02*
X141416667Y-60766666D01*
X141450000Y-60799999D01*
X141416667Y-60833333D01*
X141383333Y-60799999D01*
X141450000Y-60799999D01*
X141816667Y-60100000D02*
X141816667Y-60500000D01*
X141816667Y-60300000D02*
X141116667Y-60300000D01*
X141216667Y-60366666D01*
X141283333Y-60433333D01*
X141316667Y-60500000D01*
X146889667Y-56357967D02*
X147289667Y-56357967D01*
X147089667Y-57057967D02*
X147089667Y-56357967D01*
X147456333Y-56357967D02*
X147889666Y-56357967D01*
X147656333Y-56624633D01*
X147756333Y-56624633D01*
X147823000Y-56657967D01*
X147856333Y-56691300D01*
X147889666Y-56757967D01*
X147889666Y-56924633D01*
X147856333Y-56991300D01*
X147823000Y-57024633D01*
X147756333Y-57057967D01*
X147556333Y-57057967D01*
X147489666Y-57024633D01*
X147456333Y-56991300D01*
X147556334Y-65691300D02*
X147556334Y-66157967D01*
X147389667Y-65424633D02*
X147223000Y-65924633D01*
X147656334Y-65924633D01*
X147923001Y-66091300D02*
X147956334Y-66124633D01*
X147923001Y-66157967D01*
X147889667Y-66124633D01*
X147923001Y-66091300D01*
X147923001Y-66157967D01*
X147923001Y-65724633D02*
X147956334Y-65757967D01*
X147923001Y-65791300D01*
X147889667Y-65757967D01*
X147923001Y-65724633D01*
X147923001Y-65791300D01*
X148623000Y-66157967D02*
X148223000Y-66157967D01*
X148423000Y-66157967D02*
X148423000Y-65457967D01*
X148356334Y-65557967D01*
X148289667Y-65624633D01*
X148223000Y-65657967D01*
D11*
X174114081Y-45961205D02*
X174114081Y-45389776D01*
X175114081Y-45675491D02*
X174114081Y-45675491D01*
X174447414Y-44627871D02*
X175114081Y-44627871D01*
X174066462Y-44865967D02*
X174780748Y-45104062D01*
X174780748Y-44485014D01*
X187439395Y-46091981D02*
X187439395Y-46901505D01*
X187487014Y-46996743D01*
X187534633Y-47044362D01*
X187629871Y-47091981D01*
X187820348Y-47091981D01*
X187915586Y-47044362D01*
X187963205Y-46996743D01*
X188010824Y-46901505D01*
X188010824Y-46091981D01*
X189010824Y-47091981D02*
X188439395Y-47091981D01*
X188725109Y-47091981D02*
X188725109Y-46091981D01*
X188629871Y-46234838D01*
X188534633Y-46330076D01*
X188439395Y-46377695D01*
X137890476Y-41652381D02*
X138223809Y-42652381D01*
X138557143Y-41652381D01*
X139461905Y-42652381D02*
X139128571Y-42176190D01*
X138890476Y-42652381D02*
X138890476Y-41652381D01*
X139271429Y-41652381D01*
X139366667Y-41700000D01*
X139414286Y-41747619D01*
X139461905Y-41842857D01*
X139461905Y-41985714D01*
X139414286Y-42080952D01*
X139366667Y-42128571D01*
X139271429Y-42176190D01*
X138890476Y-42176190D01*
X140414286Y-42652381D02*
X139842857Y-42652381D01*
X140128571Y-42652381D02*
X140128571Y-41652381D01*
X140033333Y-41795238D01*
X139938095Y-41890476D01*
X139842857Y-41938095D01*
X153798282Y-45078899D02*
X153703044Y-45031280D01*
X153607806Y-44936042D01*
X153464949Y-44793185D01*
X153369710Y-44745566D01*
X153274472Y-44745566D01*
X153322091Y-44983661D02*
X153226853Y-44936042D01*
X153131615Y-44840804D01*
X153083996Y-44650328D01*
X153083996Y-44316994D01*
X153131615Y-44126518D01*
X153226853Y-44031280D01*
X153322091Y-43983661D01*
X153512568Y-43983661D01*
X153607806Y-44031280D01*
X153703044Y-44126518D01*
X153750663Y-44316994D01*
X153750663Y-44650328D01*
X153703044Y-44840804D01*
X153607806Y-44936042D01*
X153512568Y-44983661D01*
X153322091Y-44983661D01*
X154083996Y-43983661D02*
X154703044Y-43983661D01*
X154369710Y-44364613D01*
X154512568Y-44364613D01*
X154607806Y-44412232D01*
X154655425Y-44459851D01*
X154703044Y-44555090D01*
X154703044Y-44793185D01*
X154655425Y-44888423D01*
X154607806Y-44936042D01*
X154512568Y-44983661D01*
X154226853Y-44983661D01*
X154131615Y-44936042D01*
X154083996Y-44888423D01*
X186357143Y-44352381D02*
X185880952Y-44352381D01*
X185880952Y-43352381D01*
X187214286Y-44352381D02*
X186642857Y-44352381D01*
X186928571Y-44352381D02*
X186928571Y-43352381D01*
X186833333Y-43495238D01*
X186738095Y-43590476D01*
X186642857Y-43638095D01*
X187833333Y-43352381D02*
X187928572Y-43352381D01*
X188023810Y-43400000D01*
X188071429Y-43447619D01*
X188119048Y-43542857D01*
X188166667Y-43733333D01*
X188166667Y-43971429D01*
X188119048Y-44161905D01*
X188071429Y-44257143D01*
X188023810Y-44304762D01*
X187928572Y-44352381D01*
X187833333Y-44352381D01*
X187738095Y-44304762D01*
X187690476Y-44257143D01*
X187642857Y-44161905D01*
X187595238Y-43971429D01*
X187595238Y-43733333D01*
X187642857Y-43542857D01*
X187690476Y-43447619D01*
X187738095Y-43400000D01*
X187833333Y-43352381D01*
M02*
