%FSLAX46Y46*%
G04 Gerber Fmt 4.6, Leading zero omitted, Abs format (unit mm)*
G04 Created by KiCad (PCBNEW (2014-10-27 BZR 5228)-product) date 13/01/2015 10:49:15*
%MOMM*%
G01*
G04 APERTURE LIST*
%ADD10C,0.100000*%
%ADD11R,1.250000X1.000000*%
%ADD12R,1.000000X1.250000*%
%ADD13R,1.651000X1.651000*%
%ADD14C,1.651000*%
%ADD15R,4.200000X0.700000*%
%ADD16R,1.397000X1.397000*%
%ADD17C,1.397000*%
%ADD18C,1.998980*%
%ADD19C,3.500000*%
%ADD20C,2.000000*%
%ADD21R,1.727200X1.727200*%
%ADD22O,1.727200X1.727200*%
%ADD23R,0.599440X1.000760*%
%ADD24R,1.300000X0.700000*%
%ADD25R,0.700000X1.300000*%
%ADD26R,1.800000X1.800000*%
%ADD27C,1.800000*%
%ADD28C,2.540000*%
%ADD29C,1.727200*%
%ADD30R,1.550000X0.600000*%
%ADD31C,1.524000*%
%ADD32O,1.501140X2.499360*%
%ADD33C,0.889000*%
%ADD34C,0.254000*%
%ADD35C,0.635000*%
%ADD36C,0.508000*%
%ADD37C,1.270000*%
G04 APERTURE END LIST*
D10*
D11*
X158000000Y-68200000D03*
X158000000Y-70200000D03*
D12*
X135800000Y-55800000D03*
X137800000Y-55800000D03*
D11*
X135700000Y-69600000D03*
X135700000Y-71600000D03*
D13*
X147600000Y-71270000D03*
D14*
X147600000Y-68730000D03*
D12*
X157800000Y-45400000D03*
X159800000Y-45400000D03*
X149100000Y-54700000D03*
X147100000Y-54700000D03*
X189300000Y-57500000D03*
X187300000Y-57500000D03*
D15*
X125074560Y-55868200D03*
X125074560Y-56868200D03*
X125074560Y-57868200D03*
X125074560Y-58868200D03*
X125074560Y-59868200D03*
X125074560Y-60868200D03*
X125074560Y-61868200D03*
X125074560Y-62868200D03*
X125074560Y-63868200D03*
X125074560Y-64868200D03*
X125074560Y-65868200D03*
X125074560Y-68868200D03*
X125074560Y-69868200D03*
X125074560Y-70868200D03*
X125074560Y-71868200D03*
X125074560Y-72868200D03*
X125074560Y-73868200D03*
X125074560Y-74868200D03*
D16*
X172339000Y-65913000D03*
D17*
X169799000Y-65913000D03*
X167259000Y-65913000D03*
X164719000Y-65913000D03*
X162179000Y-65913000D03*
X162179000Y-73533000D03*
X164719000Y-73533000D03*
X167259000Y-73533000D03*
X169799000Y-73533000D03*
X172339000Y-73533000D03*
D18*
X145696000Y-75508000D03*
X145696000Y-81096000D03*
X153308000Y-77104000D03*
X158896000Y-77104000D03*
X166804000Y-82492000D03*
X166804000Y-76904000D03*
X180396000Y-76808000D03*
X180396000Y-82396000D03*
X159258000Y-55499000D03*
X159258000Y-61087000D03*
X174498000Y-55245000D03*
X174498000Y-60833000D03*
D19*
X191900000Y-70500000D03*
X191900000Y-62900000D03*
D20*
X184100000Y-66700000D03*
D21*
X186430000Y-74700000D03*
D22*
X188970000Y-74700000D03*
D23*
X153225500Y-67604640D03*
X154178000Y-65491360D03*
X155130500Y-67604640D03*
X179047500Y-65056640D03*
X180000000Y-62943360D03*
X180952500Y-65056640D03*
D24*
X155300000Y-69950000D03*
X155300000Y-71850000D03*
D25*
X146950000Y-44000000D03*
X148850000Y-44000000D03*
D24*
X143400000Y-45850000D03*
X143400000Y-47750000D03*
X147800000Y-39550000D03*
X147800000Y-41450000D03*
D25*
X189250000Y-54400000D03*
X187350000Y-54400000D03*
X179450000Y-67200000D03*
X177550000Y-67200000D03*
D21*
X179770000Y-73670000D03*
D22*
X179770000Y-71130000D03*
X177230000Y-73670000D03*
X177230000Y-71130000D03*
D26*
X139400000Y-62800000D03*
D27*
X136900000Y-62800000D03*
X139400000Y-59800000D03*
X134400000Y-62800000D03*
X134400000Y-59800000D03*
X136900000Y-59800000D03*
D26*
X145923000Y-63741300D03*
D27*
X145923000Y-61241300D03*
X148923000Y-63741300D03*
X145923000Y-58741300D03*
X148923000Y-58741300D03*
X148923000Y-61241300D03*
D28*
X163461700Y-39199300D03*
D29*
X163461700Y-43199300D03*
D28*
X163461700Y-47199300D03*
D29*
X163461700Y-51199300D03*
D30*
X185501300Y-48234600D03*
X185501300Y-49504600D03*
X185501300Y-50774600D03*
X185501300Y-52044600D03*
X190901300Y-52044600D03*
X190901300Y-50774600D03*
X190901300Y-49504600D03*
X190901300Y-48234600D03*
D31*
X137600000Y-47860000D03*
X137600000Y-45320000D03*
X137600000Y-50400000D03*
D32*
X153893520Y-39451280D03*
X156433520Y-39451280D03*
X151353520Y-39451280D03*
D18*
X184400000Y-45299460D03*
X184400000Y-38700540D03*
D33*
X137800000Y-54000000D03*
X176800000Y-65000000D03*
X183200000Y-52000000D03*
X129800000Y-55868200D03*
X129800000Y-61868200D03*
X130000000Y-64800000D03*
X159200000Y-65600000D03*
X160000000Y-70200000D03*
X131400000Y-55400000D03*
X130000000Y-59000000D03*
X133700000Y-71500000D03*
X185600000Y-57300000D03*
X185500000Y-59900000D03*
X181800000Y-59900000D03*
X152000000Y-54800000D03*
X145600000Y-42800000D03*
X132600000Y-69868200D03*
X131100000Y-60000000D03*
X141200000Y-64800000D03*
X161600000Y-71500000D03*
X144100000Y-66100000D03*
X148500000Y-65900000D03*
X145700000Y-65900000D03*
X157800000Y-56800000D03*
X153200000Y-56800000D03*
X132300000Y-72900000D03*
D34*
X187600000Y-56102800D02*
X187251300Y-56451500D01*
X158000000Y-68200000D02*
X155725860Y-68200000D01*
X155725860Y-68200000D02*
X155130500Y-67604640D01*
X155130500Y-69780500D02*
X155300000Y-69950000D01*
X155130500Y-67604640D02*
X155130500Y-69780500D01*
D35*
X137800000Y-55800000D02*
X137800000Y-54000000D01*
D34*
X125142760Y-63800000D02*
X125074560Y-63868200D01*
D35*
X179047500Y-65056640D02*
X176856640Y-65056640D01*
X176856640Y-65056640D02*
X176800000Y-65000000D01*
X137800000Y-55800000D02*
X138200000Y-55800000D01*
X138200000Y-55800000D02*
X139400000Y-57000000D01*
X139400000Y-57000000D02*
X139400000Y-59800000D01*
X185501300Y-52044600D02*
X183244600Y-52044600D01*
X183244600Y-52044600D02*
X183200000Y-52000000D01*
X129931800Y-56868200D02*
X130000000Y-56800000D01*
X125074560Y-56868200D02*
X129931800Y-56868200D01*
X129931800Y-57868200D02*
X130000000Y-57800000D01*
X129931800Y-58868200D02*
X130000000Y-58800000D01*
X125074560Y-58868200D02*
X129931800Y-58868200D01*
X129868200Y-59868200D02*
X130000000Y-60000000D01*
X125074560Y-59868200D02*
X129868200Y-59868200D01*
X129868200Y-60868200D02*
X130000000Y-61000000D01*
X125074560Y-60868200D02*
X129868200Y-60868200D01*
X129931800Y-61868200D02*
X130000000Y-61800000D01*
X125074560Y-61868200D02*
X129931800Y-61868200D01*
X129931800Y-62868200D02*
X130000000Y-62800000D01*
X125074560Y-62868200D02*
X129931800Y-62868200D01*
X129931800Y-63868200D02*
X130000000Y-63800000D01*
X125074560Y-63868200D02*
X129931800Y-63868200D01*
X129931800Y-64868200D02*
X130000000Y-64800000D01*
X129931800Y-55868200D02*
X130000000Y-55800000D01*
X125074560Y-55868200D02*
X129931800Y-55868200D01*
X129931800Y-56800000D02*
X129931800Y-56868200D01*
X129931800Y-55868200D02*
X129931800Y-56800000D01*
X129931800Y-57800000D02*
X129931800Y-57868200D01*
X129931800Y-56800000D02*
X129931800Y-57800000D01*
X129931800Y-58800000D02*
X129931800Y-58868200D01*
X129931800Y-57800000D02*
X129931800Y-58800000D01*
X129931800Y-59804600D02*
X129868200Y-59868200D01*
X129931800Y-58800000D02*
X129931800Y-59804600D01*
X129931800Y-60804600D02*
X129868200Y-60868200D01*
X129931800Y-59804600D02*
X129931800Y-60804600D01*
X129931800Y-60804600D02*
X129931800Y-61868200D01*
X129931800Y-62800000D02*
X129931800Y-62868200D01*
X129931800Y-61868200D02*
X129931800Y-62800000D01*
X129931800Y-63800000D02*
X129931800Y-63868200D01*
X129931800Y-62800000D02*
X129931800Y-63800000D01*
X129931800Y-63800000D02*
X129931800Y-64868200D01*
X129800000Y-55868200D02*
X129800000Y-55800000D01*
X129973200Y-58773200D02*
X130000000Y-58800000D01*
X129800000Y-61868200D02*
X129800000Y-61800000D01*
X125074560Y-64868200D02*
X129931800Y-64868200D01*
X130000000Y-64800000D02*
X129931800Y-64868200D01*
X125074560Y-57868200D02*
X129931800Y-57868200D01*
X160000000Y-66400000D02*
X159200000Y-65600000D01*
X158000000Y-70200000D02*
X160000000Y-70200000D01*
X160000000Y-70200000D02*
X160000000Y-66400000D01*
X130931800Y-55868200D02*
X129931800Y-55868200D01*
X131400000Y-55400000D02*
X130931800Y-55868200D01*
X130000000Y-59000000D02*
X130000000Y-58800000D01*
X133800000Y-71600000D02*
X133700000Y-71500000D01*
X135700000Y-71600000D02*
X133800000Y-71600000D01*
X185800000Y-57500000D02*
X185600000Y-57300000D01*
X187300000Y-57500000D02*
X185800000Y-57500000D01*
D34*
X135800000Y-55800000D02*
X135800000Y-56400000D01*
X135800000Y-56400000D02*
X134400000Y-57800000D01*
X134400000Y-57800000D02*
X134400000Y-59800000D01*
X143400000Y-47750000D02*
X137710000Y-47750000D01*
X137710000Y-47750000D02*
X137600000Y-47860000D01*
D35*
X184400000Y-45299460D02*
X189499460Y-45299460D01*
X190901300Y-46701300D02*
X190901300Y-48234600D01*
X189499460Y-45299460D02*
X190901300Y-46701300D01*
X153225500Y-67604640D02*
X153225500Y-67225500D01*
X153225500Y-67604640D02*
X153225500Y-67425500D01*
X193100000Y-48300000D02*
X193034600Y-48234600D01*
X193200000Y-48400000D02*
X193100000Y-48300000D01*
X193034600Y-48234600D02*
X190901300Y-48234600D01*
X125074560Y-65868200D02*
X131600000Y-65868200D01*
X130003420Y-68868200D02*
X132316350Y-66555270D01*
X125074560Y-68868200D02*
X130003420Y-68868200D01*
X132280540Y-66519460D02*
X132316350Y-66555270D01*
X131629280Y-65868200D02*
X132280540Y-66519460D01*
X131600000Y-65868200D02*
X131629280Y-65868200D01*
X152630000Y-71270000D02*
X153225500Y-70674500D01*
X153225500Y-70674500D02*
X153225500Y-67604640D01*
X147600000Y-71270000D02*
X152630000Y-71270000D01*
X132619460Y-66519460D02*
X135700000Y-69600000D01*
X132280540Y-66519460D02*
X132619460Y-66519460D01*
X147470000Y-71400000D02*
X147600000Y-71270000D01*
X136600000Y-69600000D02*
X138400000Y-71400000D01*
X138400000Y-71400000D02*
X147470000Y-71400000D01*
X135700000Y-69600000D02*
X136600000Y-69600000D01*
X193100000Y-54000000D02*
X192700000Y-54400000D01*
X192700000Y-54400000D02*
X189250000Y-54400000D01*
X193100000Y-48300000D02*
X193100000Y-54000000D01*
X189250000Y-57450000D02*
X189300000Y-57500000D01*
X189250000Y-54400000D02*
X189250000Y-57450000D01*
X188800000Y-59900000D02*
X189300000Y-59400000D01*
X189300000Y-59400000D02*
X189300000Y-57500000D01*
X152400000Y-66400000D02*
X152400000Y-64700000D01*
X153225500Y-67225500D02*
X152400000Y-66400000D01*
X180100000Y-59900000D02*
X181800000Y-59900000D01*
X177098502Y-62901498D02*
X180100000Y-59900000D01*
X154198502Y-62901498D02*
X177098502Y-62901498D01*
X152400000Y-64700000D02*
X154198502Y-62901498D01*
X185500000Y-59900000D02*
X188800000Y-59900000D01*
D34*
X148850000Y-44000000D02*
X149900000Y-44000000D01*
X157800000Y-44200000D02*
X157800000Y-45400000D01*
X156700000Y-43100000D02*
X157800000Y-44200000D01*
X150800000Y-43100000D02*
X156700000Y-43100000D01*
X149900000Y-44000000D02*
X150800000Y-43100000D01*
X159500000Y-51800000D02*
X159500000Y-51700000D01*
X156500000Y-54800000D02*
X159500000Y-51800000D01*
X152000000Y-54800000D02*
X156500000Y-54800000D01*
X159800000Y-51400000D02*
X159800000Y-45400000D01*
X159500000Y-51700000D02*
X159800000Y-51400000D01*
X159500000Y-45700000D02*
X159800000Y-45400000D01*
X152000000Y-54600000D02*
X152000000Y-54800000D01*
X147800000Y-41450000D02*
X147800000Y-52200000D01*
X149100000Y-53500000D02*
X149100000Y-54700000D01*
X147800000Y-52200000D02*
X149100000Y-53500000D01*
X147100000Y-54700000D02*
X147100000Y-44150000D01*
X147100000Y-44150000D02*
X146950000Y-44000000D01*
X145600000Y-42800000D02*
X145750000Y-42800000D01*
X145750000Y-42800000D02*
X146950000Y-44000000D01*
X143400000Y-45850000D02*
X143400000Y-45000000D01*
X143400000Y-45000000D02*
X145600000Y-42800000D01*
X125074560Y-70868200D02*
X127919600Y-70868200D01*
X127919600Y-70868200D02*
X128919600Y-69868200D01*
X125074560Y-69868200D02*
X128919600Y-69868200D01*
X132600000Y-69868200D02*
X132668200Y-69868200D01*
X128919600Y-69868200D02*
X132600000Y-69868200D01*
X131100000Y-60700000D02*
X131100000Y-60000000D01*
X132300000Y-61900000D02*
X131100000Y-60700000D01*
X132300000Y-64200000D02*
X132300000Y-61900000D01*
X135300000Y-67200000D02*
X132300000Y-64200000D01*
X148700000Y-67200000D02*
X135300000Y-67200000D01*
X150800000Y-65100000D02*
X148700000Y-67200000D01*
X150800000Y-63000000D02*
X150800000Y-65100000D01*
X149041300Y-61241300D02*
X150800000Y-63000000D01*
X148923000Y-61241300D02*
X149041300Y-61241300D01*
X144200000Y-64800000D02*
X144400000Y-64600000D01*
X144400000Y-64600000D02*
X144400000Y-60264300D01*
X144400000Y-60264300D02*
X145923000Y-58741300D01*
X141200000Y-64800000D02*
X144200000Y-64800000D01*
X172339000Y-65913000D02*
X175713000Y-65913000D01*
X177000000Y-67200000D02*
X177550000Y-67200000D01*
X175713000Y-65913000D02*
X177000000Y-67200000D01*
X172339000Y-65913000D02*
X172339000Y-64539000D01*
X157108640Y-65491360D02*
X154178000Y-65491360D01*
X159000000Y-63600000D02*
X157108640Y-65491360D01*
X171400000Y-63600000D02*
X159000000Y-63600000D01*
X172339000Y-64539000D02*
X171400000Y-63600000D01*
D36*
X144100000Y-66100000D02*
X144000000Y-66000000D01*
X139800000Y-63200000D02*
X139400000Y-62800000D01*
X140300000Y-66100000D02*
X139800000Y-65600000D01*
X139800000Y-65600000D02*
X139800000Y-63200000D01*
X143900000Y-66100000D02*
X140300000Y-66100000D01*
X161600000Y-71500000D02*
X162000000Y-71100000D01*
X162000000Y-71100000D02*
X167366000Y-71100000D01*
X167366000Y-71100000D02*
X169799000Y-73533000D01*
X143900000Y-66100000D02*
X144100000Y-66100000D01*
D37*
X191270000Y-71130000D02*
X191900000Y-70500000D01*
X179770000Y-71130000D02*
X191270000Y-71130000D01*
X147800000Y-39550000D02*
X151254800Y-39550000D01*
X151254800Y-39550000D02*
X151353520Y-39451280D01*
D34*
X187350000Y-51650000D02*
X186474600Y-50774600D01*
X186474600Y-50774600D02*
X185501300Y-50774600D01*
X187350000Y-54400000D02*
X187350000Y-51650000D01*
X181656640Y-62943360D02*
X184100000Y-60500000D01*
X184100000Y-60500000D02*
X184100000Y-56200000D01*
X184100000Y-56200000D02*
X185900000Y-54400000D01*
X185900000Y-54400000D02*
X187350000Y-54400000D01*
X180000000Y-62943360D02*
X181656640Y-62943360D01*
X179450000Y-67200000D02*
X180000000Y-67200000D01*
X180952500Y-66247500D02*
X180952500Y-65056640D01*
X180000000Y-67200000D02*
X180952500Y-66247500D01*
X148500000Y-65900000D02*
X145700000Y-65900000D01*
X139000000Y-50400000D02*
X145400000Y-56800000D01*
X157800000Y-56800000D02*
X158600000Y-57600000D01*
X158600000Y-57600000D02*
X175400000Y-57600000D01*
X175400000Y-57600000D02*
X183495400Y-49504600D01*
X185501300Y-49504600D02*
X183495400Y-49504600D01*
X139000000Y-50400000D02*
X137600000Y-50400000D01*
X153200000Y-56800000D02*
X145400000Y-56800000D01*
X185501300Y-49504600D02*
X187104600Y-49504600D01*
X187234600Y-48234600D02*
X185501300Y-48234600D01*
X187400000Y-48400000D02*
X187234600Y-48234600D01*
X187400000Y-49209200D02*
X187400000Y-48400000D01*
X187104600Y-49504600D02*
X187400000Y-49209200D01*
X190901300Y-50774600D02*
X189225400Y-50774600D01*
X189095400Y-49504600D02*
X190901300Y-49504600D01*
X189000000Y-49600000D02*
X189095400Y-49504600D01*
X189000000Y-50549200D02*
X189000000Y-49600000D01*
X189225400Y-50774600D02*
X189000000Y-50549200D01*
D37*
X149888000Y-79700000D02*
X145696000Y-75508000D01*
X170500000Y-79700000D02*
X149888000Y-79700000D01*
X174700000Y-75500000D02*
X170500000Y-79700000D01*
X174700000Y-73100000D02*
X174700000Y-75500000D01*
X176670000Y-71130000D02*
X174700000Y-73100000D01*
X177230000Y-71130000D02*
X176670000Y-71130000D01*
D34*
X155300000Y-73000000D02*
X155200000Y-72900000D01*
X155200000Y-72900000D02*
X132300000Y-72900000D01*
X155300000Y-71850000D02*
X155300000Y-73000000D01*
M02*
