%FSLAX46Y46*%
G04 Gerber Fmt 4.6, Leading zero omitted, Abs format (unit mm)*
G04 Created by KiCad (PCBNEW (2014-10-27 BZR 5228)-product) date 13/01/2015 10:49:15*
%MOMM*%
G01*
G04 APERTURE LIST*
%ADD10C,0.100000*%
%ADD11R,1.250000X1.000000*%
%ADD12R,1.000000X1.250000*%
%ADD13R,1.651000X1.651000*%
%ADD14C,1.651000*%
%ADD15R,2.499360X1.950720*%
%ADD16R,4.200000X0.700000*%
%ADD17R,1.524000X2.032000*%
%ADD18R,1.397000X1.397000*%
%ADD19C,1.397000*%
%ADD20C,1.998980*%
%ADD21C,3.500000*%
%ADD22C,2.000000*%
%ADD23R,1.727200X1.727200*%
%ADD24O,1.727200X1.727200*%
%ADD25R,1.300000X0.700000*%
%ADD26R,0.700000X1.300000*%
%ADD27R,1.800000X1.800000*%
%ADD28C,1.800000*%
%ADD29C,2.540000*%
%ADD30C,1.727200*%
%ADD31C,1.524000*%
%ADD32O,1.501140X2.499360*%
%ADD33C,0.889000*%
%ADD34C,0.635000*%
%ADD35C,0.254000*%
%ADD36C,0.508000*%
%ADD37C,1.270000*%
G04 APERTURE END LIST*
D10*
D11*
X142800000Y-60000000D03*
X142800000Y-58000000D03*
D12*
X148200000Y-78100000D03*
X150200000Y-78100000D03*
D11*
X153100000Y-79900000D03*
X153100000Y-81900000D03*
D12*
X170200000Y-79300000D03*
X172200000Y-79300000D03*
D11*
X175800000Y-79400000D03*
X175800000Y-81400000D03*
X133000000Y-46200000D03*
X133000000Y-48200000D03*
D13*
X147600000Y-71270000D03*
D14*
X147600000Y-68730000D03*
D12*
X164042600Y-58229500D03*
X162042600Y-58229500D03*
D11*
X176300000Y-40600000D03*
X176300000Y-38600000D03*
X179000000Y-40600000D03*
X179000000Y-38600000D03*
X173300000Y-40600000D03*
X173300000Y-38600000D03*
D15*
X169600000Y-41949400D03*
X169600000Y-38850600D03*
D12*
X178546000Y-58293000D03*
X176546000Y-58293000D03*
X169000000Y-61800000D03*
X171000000Y-61800000D03*
D16*
X125074560Y-55868200D03*
X125074560Y-56868200D03*
X125074560Y-57868200D03*
X125074560Y-58868200D03*
X125074560Y-59868200D03*
X125074560Y-60868200D03*
X125074560Y-61868200D03*
X125074560Y-62868200D03*
X125074560Y-63868200D03*
X125074560Y-64868200D03*
X125074560Y-65868200D03*
X125074560Y-68868200D03*
X125074560Y-69868200D03*
X125074560Y-70868200D03*
X125074560Y-71868200D03*
X125074560Y-72868200D03*
X125074560Y-73868200D03*
X125074560Y-74868200D03*
D17*
X138549000Y-68200000D03*
X141851000Y-68200000D03*
D18*
X172339000Y-65913000D03*
D19*
X169799000Y-65913000D03*
X167259000Y-65913000D03*
X164719000Y-65913000D03*
X162179000Y-65913000D03*
X162179000Y-73533000D03*
X164719000Y-73533000D03*
X167259000Y-73533000D03*
X169799000Y-73533000D03*
X172339000Y-73533000D03*
D20*
X145696000Y-75508000D03*
X145696000Y-81096000D03*
X153308000Y-77104000D03*
X158896000Y-77104000D03*
X166804000Y-82492000D03*
X166804000Y-76904000D03*
X180396000Y-76808000D03*
X180396000Y-82396000D03*
X159258000Y-55499000D03*
X159258000Y-61087000D03*
X174498000Y-55245000D03*
X174498000Y-60833000D03*
D21*
X191900000Y-70500000D03*
X191900000Y-62900000D03*
D22*
X184100000Y-66700000D03*
D23*
X186430000Y-74700000D03*
D24*
X188970000Y-74700000D03*
D25*
X142800000Y-61450000D03*
X142800000Y-63350000D03*
D26*
X155350000Y-63200000D03*
X153450000Y-63200000D03*
D25*
X151600000Y-58250000D03*
X151600000Y-60150000D03*
D26*
X156350000Y-58400000D03*
X154450000Y-58400000D03*
D23*
X179770000Y-73670000D03*
D24*
X179770000Y-71130000D03*
X177230000Y-73670000D03*
X177230000Y-71130000D03*
D27*
X139400000Y-62800000D03*
D28*
X136900000Y-62800000D03*
X139400000Y-59800000D03*
X134400000Y-62800000D03*
X134400000Y-59800000D03*
X136900000Y-59800000D03*
D27*
X145923000Y-63741300D03*
D28*
X145923000Y-61241300D03*
X148923000Y-63741300D03*
X145923000Y-58741300D03*
X148923000Y-58741300D03*
X148923000Y-61241300D03*
D29*
X163461700Y-39199300D03*
D30*
X163461700Y-43199300D03*
D29*
X163461700Y-47199300D03*
D30*
X163461700Y-51199300D03*
D31*
X137600000Y-47860000D03*
X137600000Y-45320000D03*
X137600000Y-50400000D03*
D32*
X153893520Y-39451280D03*
X156433520Y-39451280D03*
X151353520Y-39451280D03*
D11*
X174600000Y-70100000D03*
X174600000Y-68100000D03*
D20*
X184400000Y-45299460D03*
X184400000Y-38700540D03*
D33*
X137800000Y-54000000D03*
X176800000Y-65000000D03*
X183200000Y-52000000D03*
X129800000Y-55868200D03*
X129800000Y-61868200D03*
X130000000Y-64800000D03*
X159200000Y-65600000D03*
X160000000Y-70200000D03*
X131400000Y-55400000D03*
X130000000Y-59000000D03*
X133700000Y-71500000D03*
X185600000Y-57300000D03*
X185500000Y-59900000D03*
X181800000Y-59900000D03*
X152000000Y-54800000D03*
X145600000Y-42800000D03*
X132600000Y-69868200D03*
X131100000Y-60000000D03*
X141200000Y-64800000D03*
X161600000Y-71500000D03*
X144100000Y-66100000D03*
X148500000Y-65900000D03*
X145700000Y-65900000D03*
X157800000Y-56800000D03*
X153200000Y-56800000D03*
X132300000Y-72900000D03*
D34*
X125074560Y-61868200D02*
X129389240Y-61868200D01*
X129389240Y-61868200D02*
X129418080Y-61897040D01*
D35*
X129389240Y-61868200D02*
X129418080Y-61897040D01*
D34*
X129868200Y-55868200D02*
X130000000Y-56000000D01*
X129800000Y-55868200D02*
X129868200Y-55868200D01*
X125074560Y-55868200D02*
X129800000Y-55868200D01*
X129931800Y-61868200D02*
X130000000Y-61800000D01*
X129800000Y-61868200D02*
X129931800Y-61868200D01*
X129389240Y-61868200D02*
X129800000Y-61868200D01*
X129931800Y-64868200D02*
X130000000Y-64800000D01*
X125074560Y-64868200D02*
X129931800Y-64868200D01*
X129868200Y-58868200D02*
X130000000Y-59000000D01*
X125074560Y-58868200D02*
X129868200Y-58868200D01*
D35*
X134400000Y-59800000D02*
X134400000Y-60300000D01*
D36*
X134400000Y-60300000D02*
X136900000Y-62800000D01*
D35*
X142800000Y-60000000D02*
X142800000Y-61450000D01*
X142800000Y-60000000D02*
X144681700Y-60000000D01*
X144681700Y-60000000D02*
X145923000Y-61241300D01*
X148923000Y-58741300D02*
X148423000Y-58741300D01*
X148423000Y-58741300D02*
X145923000Y-61241300D01*
D37*
X145696000Y-80604000D02*
X148200000Y-78100000D01*
X145696000Y-81096000D02*
X145696000Y-80604000D01*
X152312000Y-78100000D02*
X153308000Y-77104000D01*
X150200000Y-78100000D02*
X152312000Y-78100000D01*
X153100000Y-77312000D02*
X153308000Y-77104000D01*
X153100000Y-79900000D02*
X153100000Y-77312000D01*
X154704000Y-77104000D02*
X160092000Y-82492000D01*
X160092000Y-82492000D02*
X166804000Y-82492000D01*
X153308000Y-77104000D02*
X154704000Y-77104000D01*
X169200000Y-79300000D02*
X166804000Y-76904000D01*
X170200000Y-79300000D02*
X169200000Y-79300000D01*
D35*
X167259000Y-73533000D02*
X167259000Y-73941000D01*
D37*
X178392000Y-76808000D02*
X175800000Y-79400000D01*
X180396000Y-76808000D02*
X178392000Y-76808000D01*
X172300000Y-79400000D02*
X172200000Y-79300000D01*
X175800000Y-79400000D02*
X172300000Y-79400000D01*
X169708000Y-76808000D02*
X167259000Y-74359000D01*
X167259000Y-74359000D02*
X167259000Y-73533000D01*
X180396000Y-76808000D02*
X169708000Y-76808000D01*
D35*
X133000000Y-48200000D02*
X137260000Y-48200000D01*
X137260000Y-48200000D02*
X137600000Y-47860000D01*
D34*
X181800000Y-59900000D02*
X185500000Y-59900000D01*
D35*
X151600000Y-58250000D02*
X154300000Y-58250000D01*
X154300000Y-58250000D02*
X154450000Y-58400000D01*
X152000000Y-54800000D02*
X151600000Y-55200000D01*
X151600000Y-55200000D02*
X151600000Y-58250000D01*
X156433520Y-39451280D02*
X156433520Y-37633520D01*
X145600000Y-56200000D02*
X145600000Y-42800000D01*
X145400000Y-56400000D02*
X145600000Y-56200000D01*
X141600000Y-56400000D02*
X145400000Y-56400000D01*
X141400000Y-56600000D02*
X141600000Y-56400000D01*
X141400000Y-37200000D02*
X141400000Y-56600000D01*
X141800000Y-36800000D02*
X141400000Y-37200000D01*
X155600000Y-36800000D02*
X141800000Y-36800000D01*
X156433520Y-37633520D02*
X155600000Y-36800000D01*
X159258000Y-55499000D02*
X159258000Y-55403000D01*
D37*
X159258000Y-55403000D02*
X163461700Y-51199300D01*
D35*
X162042600Y-58229500D02*
X161988500Y-58229500D01*
D37*
X161988500Y-58229500D02*
X159258000Y-55499000D01*
D34*
X179000000Y-38600000D02*
X184299460Y-38600000D01*
X184299460Y-38600000D02*
X184400000Y-38700540D01*
X176300000Y-38600000D02*
X179000000Y-38600000D01*
X173300000Y-38600000D02*
X176300000Y-38600000D01*
X169600000Y-38850600D02*
X173049400Y-38850600D01*
X173049400Y-38850600D02*
X173300000Y-38600000D01*
X163461700Y-39199300D02*
X169251300Y-39199300D01*
X169251300Y-39199300D02*
X169600000Y-38850600D01*
D37*
X167200000Y-60400000D02*
X159945000Y-60400000D01*
X174498000Y-55245000D02*
X172355000Y-55245000D01*
X172355000Y-55245000D02*
X167200000Y-60400000D01*
D35*
X159945000Y-60400000D02*
X159258000Y-61087000D01*
D37*
X174498000Y-55245000D02*
X174498000Y-56245000D01*
X174498000Y-56245000D02*
X176546000Y-58293000D01*
X174600000Y-68100000D02*
X174600000Y-60935000D01*
X174600000Y-60935000D02*
X174498000Y-60833000D01*
X174498000Y-60833000D02*
X171967000Y-60833000D01*
X171967000Y-60833000D02*
X171000000Y-61800000D01*
D35*
X174498000Y-60833000D02*
X174202600Y-60833000D01*
X134268200Y-68200000D02*
X132600000Y-69868200D01*
X138549000Y-68200000D02*
X134268200Y-68200000D01*
D36*
X125074560Y-56868200D02*
X130600000Y-56868200D01*
D35*
X130600000Y-56868200D02*
X130603900Y-56868200D01*
D36*
X133968200Y-56868200D02*
X136900000Y-59800000D01*
X130600000Y-56868200D02*
X133968200Y-56868200D01*
X134400000Y-62400000D02*
X134400000Y-62800000D01*
X131868200Y-57868200D02*
X132400000Y-58400000D01*
X132400000Y-58400000D02*
X132400000Y-60400000D01*
X132400000Y-60400000D02*
X134400000Y-62400000D01*
X125074560Y-57868200D02*
X131868200Y-57868200D01*
D35*
X130968200Y-59868200D02*
X125074560Y-59868200D01*
X131100000Y-60000000D02*
X130968200Y-59868200D01*
X130668200Y-60868200D02*
X131200000Y-61400000D01*
X131200000Y-61400000D02*
X131200000Y-64000000D01*
X131200000Y-64000000D02*
X132000000Y-64800000D01*
X132000000Y-64800000D02*
X141200000Y-64800000D01*
X125074560Y-60868200D02*
X130668200Y-60868200D01*
X142800000Y-63350000D02*
X142250000Y-63350000D01*
X141851000Y-65949000D02*
X142800000Y-65000000D01*
X142800000Y-65000000D02*
X142800000Y-63350000D01*
X141851000Y-68200000D02*
X141851000Y-65949000D01*
D36*
X144100000Y-66100000D02*
X144400000Y-66400000D01*
X144400000Y-66400000D02*
X144400000Y-72500000D01*
X144400000Y-72500000D02*
X144700000Y-72800000D01*
X144700000Y-72800000D02*
X160300000Y-72800000D01*
X160300000Y-72800000D02*
X161600000Y-71500000D01*
D37*
X191900000Y-62900000D02*
X191900000Y-70500000D01*
X191100000Y-74700000D02*
X191900000Y-73900000D01*
X191900000Y-73900000D02*
X191900000Y-70500000D01*
X188970000Y-74700000D02*
X191100000Y-74700000D01*
X182630000Y-73670000D02*
X184100000Y-72200000D01*
X184100000Y-72200000D02*
X184100000Y-66700000D01*
X179770000Y-73670000D02*
X182630000Y-73670000D01*
X163461700Y-43199300D02*
X163461700Y-47199300D01*
X153199300Y-43199300D02*
X163461700Y-43199300D01*
X151353520Y-39451280D02*
X151353520Y-41353520D01*
X151353520Y-41353520D02*
X153199300Y-43199300D01*
D35*
X153450000Y-63200000D02*
X152600000Y-63200000D01*
X152600000Y-63200000D02*
X151600000Y-62200000D01*
X151600000Y-62200000D02*
X151600000Y-60150000D01*
X151400000Y-65900000D02*
X148500000Y-65900000D01*
X145700000Y-65900000D02*
X145923000Y-65677000D01*
X145923000Y-65677000D02*
X145923000Y-63741300D01*
X153450000Y-63850000D02*
X151400000Y-65900000D01*
X153450000Y-63200000D02*
X153450000Y-63850000D01*
X157800000Y-56800000D02*
X153200000Y-56800000D01*
X132300000Y-72900000D02*
X130800000Y-71400000D01*
X130800000Y-71400000D02*
X130800000Y-66400000D01*
X130800000Y-66400000D02*
X130268200Y-65868200D01*
X130268200Y-65868200D02*
X125074560Y-65868200D01*
D37*
X164719000Y-73533000D02*
X164719000Y-71019000D01*
X165638000Y-70100000D02*
X174600000Y-70100000D01*
X164719000Y-71019000D02*
X165638000Y-70100000D01*
D35*
X164900000Y-73352000D02*
X164719000Y-73533000D01*
G36*
X193715000Y-84015000D02*
X192635707Y-84015000D01*
X192635707Y-79578116D01*
X192235359Y-78609201D01*
X191494698Y-77867246D01*
X190526483Y-77465208D01*
X189478116Y-77464293D01*
X188509201Y-77864641D01*
X187767246Y-78605302D01*
X187365208Y-79573517D01*
X187364293Y-80621884D01*
X187764641Y-81590799D01*
X188505302Y-82332754D01*
X189473517Y-82734792D01*
X190521884Y-82735707D01*
X191490799Y-82335359D01*
X192232754Y-81594698D01*
X192634792Y-80626483D01*
X192635707Y-79578116D01*
X192635707Y-84015000D01*
X186303000Y-84015000D01*
X186303000Y-76039850D01*
X186303000Y-74827000D01*
X186303000Y-74573000D01*
X186303000Y-73360150D01*
X186144250Y-73201400D01*
X185692709Y-73201400D01*
X185440090Y-73201400D01*
X185206701Y-73298073D01*
X185028073Y-73476702D01*
X184931400Y-73710091D01*
X184931400Y-74414250D01*
X185090150Y-74573000D01*
X186303000Y-74573000D01*
X186303000Y-74827000D01*
X185090150Y-74827000D01*
X184931400Y-74985750D01*
X184931400Y-75689909D01*
X185028073Y-75923298D01*
X185206701Y-76101927D01*
X185440090Y-76198600D01*
X185692709Y-76198600D01*
X186144250Y-76198600D01*
X186303000Y-76039850D01*
X186303000Y-84015000D01*
X182041401Y-84015000D01*
X182041401Y-82660418D01*
X182017341Y-82010623D01*
X181814965Y-81522042D01*
X181548163Y-81423443D01*
X181368557Y-81603048D01*
X181368557Y-81243837D01*
X181269958Y-80977035D01*
X180660418Y-80750599D01*
X180010623Y-80774659D01*
X179522042Y-80977035D01*
X179423443Y-81243837D01*
X180396000Y-82216395D01*
X181368557Y-81243837D01*
X181368557Y-81603048D01*
X180575605Y-82396000D01*
X181548163Y-83368557D01*
X181814965Y-83269958D01*
X182041401Y-82660418D01*
X182041401Y-84015000D01*
X180787028Y-84015000D01*
X181269958Y-83814965D01*
X181368557Y-83548163D01*
X180396000Y-82575605D01*
X180216395Y-82755210D01*
X180216395Y-82396000D01*
X179243837Y-81423443D01*
X178977035Y-81522042D01*
X178750599Y-82131582D01*
X178774659Y-82781377D01*
X178977035Y-83269958D01*
X179243837Y-83368557D01*
X180216395Y-82396000D01*
X180216395Y-82755210D01*
X179423443Y-83548163D01*
X179522042Y-83814965D01*
X180060513Y-84015000D01*
X177060000Y-84015000D01*
X177060000Y-82026309D01*
X177060000Y-81685750D01*
X176901250Y-81527000D01*
X175927000Y-81527000D01*
X175927000Y-82376250D01*
X176085750Y-82535000D01*
X176298691Y-82535000D01*
X176551310Y-82535000D01*
X176784699Y-82438327D01*
X176963327Y-82259698D01*
X177060000Y-82026309D01*
X177060000Y-84015000D01*
X175673000Y-84015000D01*
X175673000Y-82376250D01*
X175673000Y-81527000D01*
X174698750Y-81527000D01*
X174540000Y-81685750D01*
X174540000Y-82026309D01*
X174636673Y-82259698D01*
X174815301Y-82438327D01*
X175048690Y-82535000D01*
X175301309Y-82535000D01*
X175514250Y-82535000D01*
X175673000Y-82376250D01*
X175673000Y-84015000D01*
X167398207Y-84015000D01*
X167728655Y-83878462D01*
X168188846Y-83419073D01*
X168438206Y-82818547D01*
X168438774Y-82168306D01*
X168190462Y-81567345D01*
X167731073Y-81107154D01*
X167130547Y-80857794D01*
X166480306Y-80857226D01*
X165879345Y-81105538D01*
X165762679Y-81222000D01*
X160618051Y-81222000D01*
X160541401Y-81145349D01*
X160541401Y-77368418D01*
X160517341Y-76718623D01*
X160314965Y-76230042D01*
X160048163Y-76131443D01*
X159868557Y-76311048D01*
X159868557Y-75951837D01*
X159769958Y-75685035D01*
X159160418Y-75458599D01*
X158510623Y-75482659D01*
X158022042Y-75685035D01*
X157923443Y-75951837D01*
X158896000Y-76924395D01*
X159868557Y-75951837D01*
X159868557Y-76311048D01*
X159075605Y-77104000D01*
X160048163Y-78076557D01*
X160314965Y-77977958D01*
X160541401Y-77368418D01*
X160541401Y-81145349D01*
X159868557Y-80472505D01*
X159868557Y-78256163D01*
X158896000Y-77283605D01*
X158716395Y-77463210D01*
X158716395Y-77104000D01*
X157743837Y-76131443D01*
X157477035Y-76230042D01*
X157250599Y-76839582D01*
X157274659Y-77489377D01*
X157477035Y-77977958D01*
X157743837Y-78076557D01*
X158716395Y-77104000D01*
X158716395Y-77463210D01*
X157923443Y-78256163D01*
X158022042Y-78522965D01*
X158631582Y-78749401D01*
X159281377Y-78725341D01*
X159769958Y-78522965D01*
X159868557Y-78256163D01*
X159868557Y-80472505D01*
X155602026Y-76205974D01*
X155190008Y-75930673D01*
X154704000Y-75833999D01*
X154703994Y-75834000D01*
X154349718Y-75834000D01*
X154235073Y-75719154D01*
X153634547Y-75469794D01*
X152984306Y-75469226D01*
X152383345Y-75717538D01*
X151923154Y-76176927D01*
X151673794Y-76777453D01*
X151673748Y-76830000D01*
X150200000Y-76830000D01*
X150149726Y-76840000D01*
X149573691Y-76840000D01*
X149340302Y-76936673D01*
X149199999Y-77076974D01*
X149059699Y-76936673D01*
X148826310Y-76840000D01*
X148573691Y-76840000D01*
X148250277Y-76840000D01*
X148200000Y-76829999D01*
X148149722Y-76840000D01*
X147573691Y-76840000D01*
X147340302Y-76936673D01*
X147330774Y-76946200D01*
X147330774Y-75184306D01*
X147082462Y-74583345D01*
X146623073Y-74123154D01*
X146022547Y-73873794D01*
X145372306Y-73873226D01*
X144771345Y-74121538D01*
X144311154Y-74580927D01*
X144061794Y-75181453D01*
X144061226Y-75831694D01*
X144309538Y-76432655D01*
X144768927Y-76892846D01*
X145369453Y-77142206D01*
X146019694Y-77142774D01*
X146620655Y-76894462D01*
X147080846Y-76435073D01*
X147330206Y-75834547D01*
X147330774Y-75184306D01*
X147330774Y-76946200D01*
X147161673Y-77115301D01*
X147065000Y-77348690D01*
X147065000Y-77438948D01*
X144810650Y-79693297D01*
X144771345Y-79709538D01*
X144311154Y-80168927D01*
X144061794Y-80769453D01*
X144061226Y-81419694D01*
X144309538Y-82020655D01*
X144768927Y-82480846D01*
X145369453Y-82730206D01*
X146019694Y-82730774D01*
X146620655Y-82482462D01*
X147080846Y-82023073D01*
X147330206Y-81422547D01*
X147330774Y-80772306D01*
X147328719Y-80767332D01*
X148736051Y-79360000D01*
X148826309Y-79360000D01*
X149059698Y-79263327D01*
X149200000Y-79123025D01*
X149340301Y-79263327D01*
X149573690Y-79360000D01*
X149826309Y-79360000D01*
X150149726Y-79360000D01*
X150200000Y-79370000D01*
X151830000Y-79370000D01*
X151830000Y-79900000D01*
X151840000Y-79950273D01*
X151840000Y-80526309D01*
X151936673Y-80759698D01*
X152076974Y-80900000D01*
X151936673Y-81040302D01*
X151840000Y-81273691D01*
X151840000Y-81614250D01*
X151998750Y-81773000D01*
X152973000Y-81773000D01*
X152973000Y-81753000D01*
X153227000Y-81753000D01*
X153227000Y-81773000D01*
X154201250Y-81773000D01*
X154360000Y-81614250D01*
X154360000Y-81273691D01*
X154263327Y-81040302D01*
X154123025Y-80899999D01*
X154263327Y-80759699D01*
X154360000Y-80526310D01*
X154360000Y-80273691D01*
X154360000Y-79950273D01*
X154370000Y-79900000D01*
X154370000Y-78566051D01*
X159193971Y-83390022D01*
X159193974Y-83390026D01*
X159193975Y-83390026D01*
X159605992Y-83665327D01*
X160092000Y-83762001D01*
X160092000Y-83762000D01*
X160092005Y-83762000D01*
X165762281Y-83762000D01*
X165876927Y-83876846D01*
X166209639Y-84015000D01*
X154360000Y-84015000D01*
X154360000Y-82526309D01*
X154360000Y-82185750D01*
X154201250Y-82027000D01*
X153227000Y-82027000D01*
X153227000Y-82876250D01*
X153385750Y-83035000D01*
X153598691Y-83035000D01*
X153851310Y-83035000D01*
X154084699Y-82938327D01*
X154263327Y-82759698D01*
X154360000Y-82526309D01*
X154360000Y-84015000D01*
X152973000Y-84015000D01*
X152973000Y-82876250D01*
X152973000Y-82027000D01*
X151998750Y-82027000D01*
X151840000Y-82185750D01*
X151840000Y-82526309D01*
X151936673Y-82759698D01*
X152115301Y-82938327D01*
X152348690Y-83035000D01*
X152601309Y-83035000D01*
X152814250Y-83035000D01*
X152973000Y-82876250D01*
X152973000Y-84015000D01*
X137135707Y-84015000D01*
X137135707Y-79578116D01*
X136735359Y-78609201D01*
X135994698Y-77867246D01*
X135026483Y-77465208D01*
X133978116Y-77464293D01*
X133009201Y-77864641D01*
X132267246Y-78605302D01*
X131865208Y-79573517D01*
X131864293Y-80621884D01*
X132264641Y-81590799D01*
X133005302Y-82332754D01*
X133973517Y-82734792D01*
X135021884Y-82735707D01*
X135990799Y-82335359D01*
X136732754Y-81594698D01*
X137134792Y-80626483D01*
X137135707Y-79578116D01*
X137135707Y-84015000D01*
X130685000Y-84015000D01*
X130685000Y-77200000D01*
X130632857Y-76937862D01*
X130619560Y-76917961D01*
X130619560Y-76418200D01*
X130607166Y-76355895D01*
X130607167Y-76292367D01*
X130534853Y-75928818D01*
X130534852Y-75928817D01*
X130438544Y-75696309D01*
X130438543Y-75696308D01*
X130438543Y-75696307D01*
X130362509Y-75582515D01*
X130376880Y-72054510D01*
X131220500Y-72898131D01*
X131220313Y-73113784D01*
X131384311Y-73510689D01*
X131687714Y-73814622D01*
X132084332Y-73979313D01*
X132513784Y-73979687D01*
X132910689Y-73815689D01*
X133214622Y-73512286D01*
X133379313Y-73115668D01*
X133379687Y-72686216D01*
X133215689Y-72289311D01*
X132912286Y-71985378D01*
X132515668Y-71820687D01*
X132298128Y-71820497D01*
X131562000Y-71084369D01*
X131562000Y-70182874D01*
X131684311Y-70478889D01*
X131987714Y-70782822D01*
X132384332Y-70947513D01*
X132813784Y-70947887D01*
X133210689Y-70783889D01*
X133514622Y-70480486D01*
X133679313Y-70083868D01*
X133679502Y-69866327D01*
X134583830Y-68962000D01*
X137152000Y-68962000D01*
X137152000Y-69342309D01*
X137248673Y-69575698D01*
X137427301Y-69754327D01*
X137660690Y-69851000D01*
X137913309Y-69851000D01*
X139437309Y-69851000D01*
X139670698Y-69754327D01*
X139849327Y-69575699D01*
X139946000Y-69342310D01*
X139946000Y-69089691D01*
X139946000Y-67057691D01*
X139849327Y-66824302D01*
X139670699Y-66645673D01*
X139437310Y-66549000D01*
X139184691Y-66549000D01*
X137660691Y-66549000D01*
X137427302Y-66645673D01*
X137248673Y-66824301D01*
X137152000Y-67057690D01*
X137152000Y-67310309D01*
X137152000Y-67438000D01*
X134268200Y-67438000D01*
X133976595Y-67496004D01*
X133729385Y-67661185D01*
X132601869Y-68788700D01*
X132386216Y-68788513D01*
X131989311Y-68952511D01*
X131685378Y-69255914D01*
X131562000Y-69553039D01*
X131562000Y-66400000D01*
X131503996Y-66108396D01*
X131503996Y-66108395D01*
X131437834Y-66009376D01*
X131338816Y-65861185D01*
X130807015Y-65329385D01*
X130559805Y-65164204D01*
X130405072Y-65133425D01*
X130419071Y-61696701D01*
X130438000Y-61715630D01*
X130438000Y-64000000D01*
X130496004Y-64291605D01*
X130661185Y-64538815D01*
X131461185Y-65338815D01*
X131708395Y-65503996D01*
X131708396Y-65503996D01*
X132000000Y-65562000D01*
X140435358Y-65562000D01*
X140587714Y-65714622D01*
X140984332Y-65879313D01*
X141102841Y-65879416D01*
X141089000Y-65949000D01*
X141089000Y-66549000D01*
X140962691Y-66549000D01*
X140729302Y-66645673D01*
X140550673Y-66824301D01*
X140454000Y-67057690D01*
X140454000Y-67310309D01*
X140454000Y-69342309D01*
X140550673Y-69575698D01*
X140729301Y-69754327D01*
X140962690Y-69851000D01*
X141215309Y-69851000D01*
X142739309Y-69851000D01*
X142972698Y-69754327D01*
X143151327Y-69575699D01*
X143248000Y-69342310D01*
X143248000Y-69089691D01*
X143248000Y-67057691D01*
X143151327Y-66824302D01*
X142972699Y-66645673D01*
X142739310Y-66549000D01*
X142613000Y-66549000D01*
X142613000Y-66264630D01*
X143040135Y-65837495D01*
X143020687Y-65884332D01*
X143020313Y-66313784D01*
X143184311Y-66710689D01*
X143487714Y-67014622D01*
X143511000Y-67024291D01*
X143511000Y-72500000D01*
X143578671Y-72840206D01*
X143771382Y-73128618D01*
X144071382Y-73428618D01*
X144359794Y-73621329D01*
X144359795Y-73621329D01*
X144700000Y-73689000D01*
X160300000Y-73689000D01*
X160640205Y-73621329D01*
X160640206Y-73621329D01*
X160845542Y-73484127D01*
X160845269Y-73797086D01*
X161047854Y-74287380D01*
X161422647Y-74662827D01*
X161912587Y-74866268D01*
X162443086Y-74866731D01*
X162933380Y-74664146D01*
X163308827Y-74289353D01*
X163449093Y-73951553D01*
X163587854Y-74287380D01*
X163962647Y-74662827D01*
X164452587Y-74866268D01*
X164983086Y-74866731D01*
X165473380Y-74664146D01*
X165848827Y-74289353D01*
X165989000Y-73951779D01*
X165989000Y-74358994D01*
X165988999Y-74359000D01*
X166085673Y-74845008D01*
X166360974Y-75257026D01*
X166404497Y-75300549D01*
X165879345Y-75517538D01*
X165419154Y-75976927D01*
X165169794Y-76577453D01*
X165169226Y-77227694D01*
X165417538Y-77828655D01*
X165876927Y-78288846D01*
X166477453Y-78538206D01*
X166642298Y-78538349D01*
X168301971Y-80198022D01*
X168301974Y-80198026D01*
X168301975Y-80198026D01*
X168713992Y-80473327D01*
X169200000Y-80570001D01*
X169200000Y-80570000D01*
X169200005Y-80570000D01*
X170200000Y-80570000D01*
X170250273Y-80560000D01*
X170826309Y-80560000D01*
X171059698Y-80463327D01*
X171200000Y-80323025D01*
X171340301Y-80463327D01*
X171573690Y-80560000D01*
X171794046Y-80560000D01*
X171813992Y-80573327D01*
X172300000Y-80670000D01*
X174582950Y-80670000D01*
X174540000Y-80773691D01*
X174540000Y-81114250D01*
X174698750Y-81273000D01*
X175673000Y-81273000D01*
X175673000Y-81253000D01*
X175927000Y-81253000D01*
X175927000Y-81273000D01*
X176901250Y-81273000D01*
X177060000Y-81114250D01*
X177060000Y-80773691D01*
X176963327Y-80540302D01*
X176823025Y-80399999D01*
X176963327Y-80259699D01*
X177060000Y-80026310D01*
X177060000Y-79936051D01*
X178918051Y-78078000D01*
X179354281Y-78078000D01*
X179468927Y-78192846D01*
X180069453Y-78442206D01*
X180719694Y-78442774D01*
X181320655Y-78194462D01*
X181780846Y-77735073D01*
X182030206Y-77134547D01*
X182030774Y-76484306D01*
X181782462Y-75883345D01*
X181323073Y-75423154D01*
X180722547Y-75173794D01*
X180072306Y-75173226D01*
X179471345Y-75421538D01*
X179354679Y-75538000D01*
X178392005Y-75538000D01*
X178392000Y-75537999D01*
X178391994Y-75538000D01*
X177103000Y-75538000D01*
X177103000Y-75004469D01*
X177103000Y-73797000D01*
X175896183Y-73797000D01*
X175775042Y-74029026D01*
X175947312Y-74444947D01*
X176341510Y-74876821D01*
X176870973Y-75124968D01*
X177103000Y-75004469D01*
X177103000Y-75538000D01*
X173684927Y-75538000D01*
X173684927Y-73725520D01*
X173656148Y-73195801D01*
X173508800Y-72840071D01*
X173273188Y-72778417D01*
X173093583Y-72958022D01*
X173093583Y-72598812D01*
X173031929Y-72363200D01*
X172531520Y-72187073D01*
X172001801Y-72215852D01*
X171646071Y-72363200D01*
X171584417Y-72598812D01*
X172339000Y-73353395D01*
X173093583Y-72598812D01*
X173093583Y-72958022D01*
X172518605Y-73533000D01*
X173273188Y-74287583D01*
X173508800Y-74225929D01*
X173684927Y-73725520D01*
X173684927Y-75538000D01*
X173093583Y-75538000D01*
X173093583Y-74467188D01*
X172339000Y-73712605D01*
X171584417Y-74467188D01*
X171646071Y-74702800D01*
X172146480Y-74878927D01*
X172676199Y-74850148D01*
X173031929Y-74702800D01*
X173093583Y-74467188D01*
X173093583Y-75538000D01*
X170234052Y-75538000D01*
X169562345Y-74866293D01*
X170063086Y-74866731D01*
X170553380Y-74664146D01*
X170928827Y-74289353D01*
X171062313Y-73967881D01*
X171169200Y-74225929D01*
X171404812Y-74287583D01*
X172159395Y-73533000D01*
X171404812Y-72778417D01*
X171169200Y-72840071D01*
X171070916Y-73119311D01*
X170930146Y-72778620D01*
X170555353Y-72403173D01*
X170065413Y-72199732D01*
X169534914Y-72199269D01*
X169044620Y-72401854D01*
X168669173Y-72776647D01*
X168528906Y-73114446D01*
X168390146Y-72778620D01*
X168015353Y-72403173D01*
X167525413Y-72199732D01*
X166994914Y-72199269D01*
X166504620Y-72401854D01*
X166129173Y-72776647D01*
X165989000Y-73114220D01*
X165989000Y-71545051D01*
X166164051Y-71370000D01*
X174600000Y-71370000D01*
X175086008Y-71273327D01*
X175143368Y-71235000D01*
X175351309Y-71235000D01*
X175584698Y-71138327D01*
X175729109Y-70993916D01*
X175702041Y-71130000D01*
X175816115Y-71703489D01*
X176140971Y-72189670D01*
X176464228Y-72405663D01*
X176341510Y-72463179D01*
X175947312Y-72895053D01*
X175775042Y-73310974D01*
X175896183Y-73543000D01*
X177103000Y-73543000D01*
X177103000Y-73523000D01*
X177357000Y-73523000D01*
X177357000Y-73543000D01*
X177377000Y-73543000D01*
X177377000Y-73797000D01*
X177357000Y-73797000D01*
X177357000Y-75004469D01*
X177589027Y-75124968D01*
X178118490Y-74876821D01*
X178285471Y-74693880D01*
X178368073Y-74893298D01*
X178546701Y-75071927D01*
X178780090Y-75168600D01*
X179032709Y-75168600D01*
X180759909Y-75168600D01*
X180993298Y-75071927D01*
X181125225Y-74940000D01*
X182629994Y-74940000D01*
X182630000Y-74940001D01*
X182630000Y-74940000D01*
X183116008Y-74843327D01*
X183528026Y-74568026D01*
X184998026Y-73098026D01*
X185273327Y-72686008D01*
X185370000Y-72200000D01*
X185370001Y-72200000D01*
X185370000Y-72199994D01*
X185370000Y-67742439D01*
X185485278Y-67627363D01*
X185734716Y-67026648D01*
X185735284Y-66376205D01*
X185486894Y-65775057D01*
X185027363Y-65314722D01*
X184426648Y-65065284D01*
X183776205Y-65064716D01*
X183175057Y-65313106D01*
X182714722Y-65772637D01*
X182465284Y-66373352D01*
X182464716Y-67023795D01*
X182713106Y-67624943D01*
X182830000Y-67742041D01*
X182830000Y-71673948D01*
X182103948Y-72400000D01*
X181125225Y-72400000D01*
X180993299Y-72268073D01*
X180837977Y-72203736D01*
X180859029Y-72189670D01*
X181183885Y-71703489D01*
X181297959Y-71130000D01*
X181183885Y-70556511D01*
X180859029Y-70070330D01*
X180372848Y-69745474D01*
X180260000Y-69723027D01*
X180260000Y-41226309D01*
X180260000Y-40885750D01*
X180101250Y-40727000D01*
X179127000Y-40727000D01*
X179127000Y-41576250D01*
X179285750Y-41735000D01*
X179498691Y-41735000D01*
X179751310Y-41735000D01*
X179984699Y-41638327D01*
X180163327Y-41459698D01*
X180260000Y-41226309D01*
X180260000Y-69723027D01*
X179799359Y-69631400D01*
X179740641Y-69631400D01*
X179681000Y-69643263D01*
X179681000Y-59044310D01*
X179681000Y-58791691D01*
X179681000Y-58578750D01*
X179681000Y-58007250D01*
X179681000Y-57794309D01*
X179681000Y-57541690D01*
X179584327Y-57308301D01*
X179405698Y-57129673D01*
X179172309Y-57033000D01*
X178873000Y-57033000D01*
X178873000Y-41576250D01*
X178873000Y-40727000D01*
X177898750Y-40727000D01*
X177740000Y-40885750D01*
X177740000Y-41226309D01*
X177836673Y-41459698D01*
X178015301Y-41638327D01*
X178248690Y-41735000D01*
X178501309Y-41735000D01*
X178714250Y-41735000D01*
X178873000Y-41576250D01*
X178873000Y-57033000D01*
X178831750Y-57033000D01*
X178673000Y-57191750D01*
X178673000Y-58166000D01*
X179522250Y-58166000D01*
X179681000Y-58007250D01*
X179681000Y-58578750D01*
X179522250Y-58420000D01*
X178673000Y-58420000D01*
X178673000Y-59394250D01*
X178831750Y-59553000D01*
X179172309Y-59553000D01*
X179405698Y-59456327D01*
X179584327Y-59277699D01*
X179681000Y-59044310D01*
X179681000Y-69643263D01*
X179167152Y-69745474D01*
X178680971Y-70070330D01*
X178500000Y-70341172D01*
X178319029Y-70070330D01*
X177832848Y-69745474D01*
X177259359Y-69631400D01*
X177200641Y-69631400D01*
X176627152Y-69745474D01*
X176140971Y-70070330D01*
X175860000Y-70490832D01*
X175860000Y-70473691D01*
X175860000Y-70150273D01*
X175870000Y-70100000D01*
X175860000Y-70049726D01*
X175860000Y-69473691D01*
X175763327Y-69240302D01*
X175623025Y-69099999D01*
X175763327Y-68959699D01*
X175860000Y-68726310D01*
X175860000Y-68473691D01*
X175860000Y-68150273D01*
X175870000Y-68100000D01*
X175870000Y-61772896D01*
X175882846Y-61760073D01*
X176132206Y-61159547D01*
X176132774Y-60509306D01*
X175884462Y-59908345D01*
X175425073Y-59448154D01*
X174824547Y-59198794D01*
X174174306Y-59198226D01*
X173573345Y-59446538D01*
X173456679Y-59563000D01*
X171967005Y-59563000D01*
X171967000Y-59562999D01*
X171480992Y-59659673D01*
X171068974Y-59934974D01*
X171068971Y-59934977D01*
X170463948Y-60540000D01*
X170373691Y-60540000D01*
X170140302Y-60636673D01*
X170000000Y-60776974D01*
X169859698Y-60636673D01*
X169626309Y-60540000D01*
X169285750Y-60540000D01*
X169127000Y-60698750D01*
X169127000Y-61673000D01*
X169147000Y-61673000D01*
X169147000Y-61927000D01*
X169127000Y-61927000D01*
X169127000Y-62901250D01*
X169285750Y-63060000D01*
X169626309Y-63060000D01*
X169859698Y-62963327D01*
X170000000Y-62823025D01*
X170140301Y-62963327D01*
X170373690Y-63060000D01*
X170626309Y-63060000D01*
X170949722Y-63060000D01*
X171000000Y-63070001D01*
X171050277Y-63060000D01*
X171626309Y-63060000D01*
X171859698Y-62963327D01*
X172038327Y-62784699D01*
X172135000Y-62551310D01*
X172135000Y-62461051D01*
X172493051Y-62103000D01*
X173330000Y-62103000D01*
X173330000Y-64648338D01*
X173163810Y-64579500D01*
X172911191Y-64579500D01*
X171514191Y-64579500D01*
X171280802Y-64676173D01*
X171102173Y-64854801D01*
X171005500Y-65088190D01*
X171005500Y-65340809D01*
X171005500Y-65340990D01*
X170930146Y-65158620D01*
X170555353Y-64783173D01*
X170065413Y-64579732D01*
X169534914Y-64579269D01*
X169044620Y-64781854D01*
X168873000Y-64953175D01*
X168873000Y-62901250D01*
X168873000Y-61927000D01*
X168023750Y-61927000D01*
X167865000Y-62085750D01*
X167865000Y-62298691D01*
X167865000Y-62551310D01*
X167961673Y-62784699D01*
X168140302Y-62963327D01*
X168373691Y-63060000D01*
X168714250Y-63060000D01*
X168873000Y-62901250D01*
X168873000Y-64953175D01*
X168669173Y-65156647D01*
X168528906Y-65494446D01*
X168390146Y-65158620D01*
X168015353Y-64783173D01*
X167525413Y-64579732D01*
X166994914Y-64579269D01*
X166504620Y-64781854D01*
X166129173Y-65156647D01*
X165988906Y-65494446D01*
X165850146Y-65158620D01*
X165475353Y-64783173D01*
X164985413Y-64579732D01*
X164454914Y-64579269D01*
X163964620Y-64781854D01*
X163589173Y-65156647D01*
X163448906Y-65494446D01*
X163310146Y-65158620D01*
X162935353Y-64783173D01*
X162445413Y-64579732D01*
X161914914Y-64579269D01*
X161424620Y-64781854D01*
X161049173Y-65156647D01*
X160845732Y-65646587D01*
X160845269Y-66177086D01*
X161047854Y-66667380D01*
X161422647Y-67042827D01*
X161912587Y-67246268D01*
X162443086Y-67246731D01*
X162933380Y-67044146D01*
X163308827Y-66669353D01*
X163449093Y-66331553D01*
X163587854Y-66667380D01*
X163962647Y-67042827D01*
X164452587Y-67246268D01*
X164983086Y-67246731D01*
X165473380Y-67044146D01*
X165848827Y-66669353D01*
X165989093Y-66331553D01*
X166127854Y-66667380D01*
X166502647Y-67042827D01*
X166992587Y-67246268D01*
X167523086Y-67246731D01*
X168013380Y-67044146D01*
X168388827Y-66669353D01*
X168529093Y-66331553D01*
X168667854Y-66667380D01*
X169042647Y-67042827D01*
X169532587Y-67246268D01*
X170063086Y-67246731D01*
X170553380Y-67044146D01*
X170928827Y-66669353D01*
X171005500Y-66484704D01*
X171005500Y-66737809D01*
X171102173Y-66971198D01*
X171280801Y-67149827D01*
X171514190Y-67246500D01*
X171766809Y-67246500D01*
X173163809Y-67246500D01*
X173330000Y-67177661D01*
X173330000Y-68100000D01*
X173340000Y-68150273D01*
X173340000Y-68726309D01*
X173382950Y-68830000D01*
X165638000Y-68830000D01*
X165151992Y-68926673D01*
X164739974Y-69201974D01*
X164739971Y-69201977D01*
X163820974Y-70120974D01*
X163545673Y-70532992D01*
X163448999Y-71019000D01*
X163449000Y-71019005D01*
X163449000Y-73114220D01*
X163448906Y-73114446D01*
X163310146Y-72778620D01*
X162935353Y-72403173D01*
X162445413Y-72199732D01*
X162427039Y-72199715D01*
X162514622Y-72112286D01*
X162679313Y-71715668D01*
X162679687Y-71286216D01*
X162515689Y-70889311D01*
X162212286Y-70585378D01*
X161815668Y-70420687D01*
X161386216Y-70420313D01*
X160989311Y-70584311D01*
X160685378Y-70887714D01*
X160520687Y-71284332D01*
X160520654Y-71322109D01*
X159931764Y-71911000D01*
X157335000Y-71911000D01*
X157335000Y-59176310D01*
X157335000Y-58923691D01*
X157335000Y-58685750D01*
X157176250Y-58527000D01*
X156477000Y-58527000D01*
X156477000Y-59526250D01*
X156635750Y-59685000D01*
X156826309Y-59685000D01*
X157059698Y-59588327D01*
X157238327Y-59409699D01*
X157335000Y-59176310D01*
X157335000Y-71911000D01*
X156335000Y-71911000D01*
X156335000Y-63976310D01*
X156335000Y-63723691D01*
X156335000Y-63485750D01*
X156335000Y-62914250D01*
X156335000Y-62676309D01*
X156335000Y-62423690D01*
X156238327Y-62190301D01*
X156059698Y-62011673D01*
X155826309Y-61915000D01*
X155635750Y-61915000D01*
X155477000Y-62073750D01*
X155477000Y-63073000D01*
X156176250Y-63073000D01*
X156335000Y-62914250D01*
X156335000Y-63485750D01*
X156176250Y-63327000D01*
X155477000Y-63327000D01*
X155477000Y-64326250D01*
X155635750Y-64485000D01*
X155826309Y-64485000D01*
X156059698Y-64388327D01*
X156238327Y-64209699D01*
X156335000Y-63976310D01*
X156335000Y-71911000D01*
X149072340Y-71911000D01*
X149072340Y-68952869D01*
X149045553Y-68372465D01*
X148874976Y-67960656D01*
X148626215Y-67883390D01*
X148446610Y-68062995D01*
X148446610Y-67703785D01*
X148369344Y-67455024D01*
X147822869Y-67257660D01*
X147242465Y-67284447D01*
X146830656Y-67455024D01*
X146753390Y-67703785D01*
X147600000Y-68550395D01*
X148446610Y-67703785D01*
X148446610Y-68062995D01*
X147779605Y-68730000D01*
X148626215Y-69576610D01*
X148874976Y-69499344D01*
X149072340Y-68952869D01*
X149072340Y-71911000D01*
X149060500Y-71911000D01*
X149060500Y-70318191D01*
X148963827Y-70084802D01*
X148785199Y-69906173D01*
X148551810Y-69809500D01*
X148430059Y-69809500D01*
X148446610Y-69756215D01*
X147600000Y-68909605D01*
X147420395Y-69089210D01*
X147420395Y-68730000D01*
X146573785Y-67883390D01*
X146325024Y-67960656D01*
X146127660Y-68507131D01*
X146154447Y-69087535D01*
X146325024Y-69499344D01*
X146573785Y-69576610D01*
X147420395Y-68730000D01*
X147420395Y-69089210D01*
X146753390Y-69756215D01*
X146769940Y-69809500D01*
X146648191Y-69809500D01*
X146414802Y-69906173D01*
X146236173Y-70084801D01*
X146139500Y-70318190D01*
X146139500Y-70570809D01*
X146139500Y-71911000D01*
X145289000Y-71911000D01*
X145289000Y-66898203D01*
X145484332Y-66979313D01*
X145913784Y-66979687D01*
X146310689Y-66815689D01*
X146614622Y-66512286D01*
X146779313Y-66115668D01*
X146779687Y-65686216D01*
X146685000Y-65457056D01*
X146685000Y-65276300D01*
X146949309Y-65276300D01*
X147182698Y-65179627D01*
X147361327Y-65000999D01*
X147458000Y-64767610D01*
X147458000Y-64514991D01*
X147458000Y-64245567D01*
X147586357Y-64555448D01*
X147842841Y-64641854D01*
X148743395Y-63741300D01*
X147842841Y-62840746D01*
X147586357Y-62927152D01*
X147458000Y-63277988D01*
X147458000Y-62714991D01*
X147361327Y-62481602D01*
X147182699Y-62302973D01*
X147076325Y-62258911D01*
X147223551Y-62111943D01*
X147423202Y-61631128D01*
X147620932Y-62109671D01*
X148052357Y-62541851D01*
X148061372Y-62545594D01*
X148022446Y-62661141D01*
X148923000Y-63561695D01*
X149823554Y-62661141D01*
X149784793Y-62546085D01*
X149791371Y-62543368D01*
X150223551Y-62111943D01*
X150457733Y-61547970D01*
X150458265Y-60937309D01*
X150436423Y-60884448D01*
X150590301Y-61038327D01*
X150823690Y-61135000D01*
X150838000Y-61135000D01*
X150838000Y-62200000D01*
X150896004Y-62491605D01*
X151061185Y-62738815D01*
X152061185Y-63738816D01*
X152308395Y-63903996D01*
X152308396Y-63903997D01*
X152316717Y-63905652D01*
X151084369Y-65138000D01*
X150469458Y-65138000D01*
X150469458Y-63981964D01*
X150443839Y-63371840D01*
X150259643Y-62927152D01*
X150003159Y-62840746D01*
X149102605Y-63741300D01*
X150003159Y-64641854D01*
X150259643Y-64555448D01*
X150469458Y-63981964D01*
X150469458Y-65138000D01*
X149592157Y-65138000D01*
X149737148Y-65077943D01*
X149823554Y-64821459D01*
X148923000Y-63920905D01*
X148022446Y-64821459D01*
X148054337Y-64916123D01*
X147889311Y-64984311D01*
X147585378Y-65287714D01*
X147420687Y-65684332D01*
X147420313Y-66113784D01*
X147584311Y-66510689D01*
X147887714Y-66814622D01*
X148284332Y-66979313D01*
X148713784Y-66979687D01*
X149110689Y-66815689D01*
X149264646Y-66662000D01*
X151400000Y-66662000D01*
X151400000Y-66661999D01*
X151691604Y-66603996D01*
X151691605Y-66603996D01*
X151938815Y-66438815D01*
X153892630Y-64485000D01*
X153926309Y-64485000D01*
X154159698Y-64388327D01*
X154338327Y-64209699D01*
X154400000Y-64060807D01*
X154461673Y-64209699D01*
X154640302Y-64388327D01*
X154873691Y-64485000D01*
X155064250Y-64485000D01*
X155223000Y-64326250D01*
X155223000Y-63327000D01*
X155203000Y-63327000D01*
X155203000Y-63073000D01*
X155223000Y-63073000D01*
X155223000Y-62073750D01*
X155064250Y-61915000D01*
X154873691Y-61915000D01*
X154640302Y-62011673D01*
X154461673Y-62190301D01*
X154399999Y-62339193D01*
X154338327Y-62190302D01*
X154159699Y-62011673D01*
X153926310Y-61915000D01*
X153673691Y-61915000D01*
X152973691Y-61915000D01*
X152740302Y-62011673D01*
X152614802Y-62137171D01*
X152362000Y-61884369D01*
X152362000Y-61135000D01*
X152376309Y-61135000D01*
X152609698Y-61038327D01*
X152788327Y-60859699D01*
X152885000Y-60626310D01*
X152885000Y-60373691D01*
X152885000Y-59673691D01*
X152788327Y-59440302D01*
X152609699Y-59261673D01*
X152460806Y-59199999D01*
X152609698Y-59138327D01*
X152736025Y-59012000D01*
X153465000Y-59012000D01*
X153465000Y-59176309D01*
X153561673Y-59409698D01*
X153740301Y-59588327D01*
X153973690Y-59685000D01*
X154226309Y-59685000D01*
X154926309Y-59685000D01*
X155159698Y-59588327D01*
X155338327Y-59409699D01*
X155400000Y-59260807D01*
X155461673Y-59409699D01*
X155640302Y-59588327D01*
X155873691Y-59685000D01*
X156064250Y-59685000D01*
X156223000Y-59526250D01*
X156223000Y-58527000D01*
X156203000Y-58527000D01*
X156203000Y-58273000D01*
X156223000Y-58273000D01*
X156223000Y-58253000D01*
X156477000Y-58253000D01*
X156477000Y-58273000D01*
X157176250Y-58273000D01*
X157335000Y-58114250D01*
X157335000Y-57876309D01*
X157335000Y-57775780D01*
X157584332Y-57879313D01*
X158013784Y-57879687D01*
X158410689Y-57715689D01*
X158714622Y-57412286D01*
X158845352Y-57097453D01*
X158931453Y-57133206D01*
X159096297Y-57133349D01*
X160907600Y-58944652D01*
X160907600Y-58980809D01*
X160969397Y-59130000D01*
X159945000Y-59130000D01*
X159458992Y-59226673D01*
X159121183Y-59452389D01*
X158934306Y-59452226D01*
X158333345Y-59700538D01*
X157873154Y-60159927D01*
X157623794Y-60760453D01*
X157623226Y-61410694D01*
X157871538Y-62011655D01*
X158330927Y-62471846D01*
X158931453Y-62721206D01*
X159581694Y-62721774D01*
X160182655Y-62473462D01*
X160642846Y-62014073D01*
X160785717Y-61670000D01*
X167199994Y-61670000D01*
X167200000Y-61670001D01*
X167200000Y-61670000D01*
X167686008Y-61573327D01*
X167865000Y-61453728D01*
X167865000Y-61514250D01*
X168023750Y-61673000D01*
X168873000Y-61673000D01*
X168873000Y-60698750D01*
X168785151Y-60610901D01*
X172881052Y-56515000D01*
X173281705Y-56515000D01*
X173281706Y-56515000D01*
X173324673Y-56731008D01*
X173599974Y-57143026D01*
X175411000Y-58954051D01*
X175411000Y-59044309D01*
X175507673Y-59277698D01*
X175686301Y-59456327D01*
X175919690Y-59553000D01*
X176172309Y-59553000D01*
X176495726Y-59553000D01*
X176546000Y-59563000D01*
X176596273Y-59553000D01*
X177172309Y-59553000D01*
X177405698Y-59456327D01*
X177546000Y-59316025D01*
X177686302Y-59456327D01*
X177919691Y-59553000D01*
X178260250Y-59553000D01*
X178419000Y-59394250D01*
X178419000Y-58420000D01*
X178399000Y-58420000D01*
X178399000Y-58166000D01*
X178419000Y-58166000D01*
X178419000Y-57191750D01*
X178260250Y-57033000D01*
X177919691Y-57033000D01*
X177686302Y-57129673D01*
X177560000Y-57255973D01*
X177560000Y-41226309D01*
X177560000Y-40885750D01*
X177401250Y-40727000D01*
X176427000Y-40727000D01*
X176427000Y-41576250D01*
X176585750Y-41735000D01*
X176798691Y-41735000D01*
X177051310Y-41735000D01*
X177284699Y-41638327D01*
X177463327Y-41459698D01*
X177560000Y-41226309D01*
X177560000Y-57255973D01*
X177545999Y-57269974D01*
X177405699Y-57129673D01*
X177172310Y-57033000D01*
X177082051Y-57033000D01*
X176173000Y-56123948D01*
X176173000Y-41576250D01*
X176173000Y-40727000D01*
X175198750Y-40727000D01*
X175040000Y-40885750D01*
X175040000Y-41226309D01*
X175136673Y-41459698D01*
X175315301Y-41638327D01*
X175548690Y-41735000D01*
X175801309Y-41735000D01*
X176014250Y-41735000D01*
X176173000Y-41576250D01*
X176173000Y-56123948D01*
X175982098Y-55933046D01*
X176132206Y-55571547D01*
X176132774Y-54921306D01*
X175884462Y-54320345D01*
X175425073Y-53860154D01*
X174824547Y-53610794D01*
X174560000Y-53610562D01*
X174560000Y-41226309D01*
X174560000Y-40885750D01*
X174401250Y-40727000D01*
X173427000Y-40727000D01*
X173427000Y-41576250D01*
X173585750Y-41735000D01*
X173798691Y-41735000D01*
X174051310Y-41735000D01*
X174284699Y-41638327D01*
X174463327Y-41459698D01*
X174560000Y-41226309D01*
X174560000Y-53610562D01*
X174174306Y-53610226D01*
X173573345Y-53858538D01*
X173456679Y-53975000D01*
X173173000Y-53975000D01*
X173173000Y-41576250D01*
X173173000Y-40727000D01*
X172198750Y-40727000D01*
X172040000Y-40885750D01*
X172040000Y-41226309D01*
X172136673Y-41459698D01*
X172315301Y-41638327D01*
X172548690Y-41735000D01*
X172801309Y-41735000D01*
X173014250Y-41735000D01*
X173173000Y-41576250D01*
X173173000Y-53975000D01*
X172355005Y-53975000D01*
X172355000Y-53974999D01*
X171868992Y-54071673D01*
X171484680Y-54328461D01*
X171484680Y-43051069D01*
X171484680Y-42235150D01*
X171325930Y-42076400D01*
X169727000Y-42076400D01*
X169727000Y-43401010D01*
X169885750Y-43559760D01*
X170723371Y-43559760D01*
X170975990Y-43559760D01*
X171209379Y-43463087D01*
X171388007Y-43284458D01*
X171484680Y-43051069D01*
X171484680Y-54328461D01*
X171456974Y-54346974D01*
X169473000Y-56330948D01*
X169473000Y-43401010D01*
X169473000Y-42076400D01*
X167874070Y-42076400D01*
X167715320Y-42235150D01*
X167715320Y-43051069D01*
X167811993Y-43284458D01*
X167990621Y-43463087D01*
X168224010Y-43559760D01*
X168476629Y-43559760D01*
X169314250Y-43559760D01*
X169473000Y-43401010D01*
X169473000Y-56330948D01*
X166673948Y-59130000D01*
X165367030Y-59130000D01*
X165367030Y-46822035D01*
X165077622Y-46121614D01*
X164731700Y-45775087D01*
X164731700Y-44048598D01*
X164960039Y-43498698D01*
X164960559Y-42902518D01*
X164732892Y-42351520D01*
X164311697Y-41929590D01*
X163761098Y-41700961D01*
X163164918Y-41700441D01*
X162613920Y-41928108D01*
X162612725Y-41929300D01*
X153725352Y-41929300D01*
X152623520Y-40827468D01*
X152623520Y-40532663D01*
X152633620Y-40517548D01*
X152635469Y-40508247D01*
X152662021Y-40597957D01*
X153003576Y-41019938D01*
X153480617Y-41279090D01*
X153552245Y-41293273D01*
X153766520Y-41170619D01*
X153766520Y-39578280D01*
X153746520Y-39578280D01*
X153746520Y-39324280D01*
X153766520Y-39324280D01*
X153766520Y-37731941D01*
X153552245Y-37609287D01*
X153480617Y-37623470D01*
X153003576Y-37882622D01*
X152662021Y-38304603D01*
X152635469Y-38394312D01*
X152633620Y-38385012D01*
X152333266Y-37935501D01*
X151883755Y-37635147D01*
X151516019Y-37562000D01*
X155284369Y-37562000D01*
X155576120Y-37853751D01*
X155453774Y-37935501D01*
X155153420Y-38385012D01*
X155151570Y-38394312D01*
X155125019Y-38304603D01*
X154783464Y-37882622D01*
X154306423Y-37623470D01*
X154234795Y-37609287D01*
X154020520Y-37731941D01*
X154020520Y-39324280D01*
X154040520Y-39324280D01*
X154040520Y-39578280D01*
X154020520Y-39578280D01*
X154020520Y-41170619D01*
X154234795Y-41293273D01*
X154306423Y-41279090D01*
X154783464Y-41019938D01*
X155125019Y-40597957D01*
X155151570Y-40508247D01*
X155153420Y-40517548D01*
X155453774Y-40967059D01*
X155903285Y-41267413D01*
X156433520Y-41372883D01*
X156963755Y-41267413D01*
X157413266Y-40967059D01*
X157713620Y-40517548D01*
X157819090Y-39987313D01*
X157819090Y-38915247D01*
X157713620Y-38385012D01*
X157413266Y-37935501D01*
X157195520Y-37790007D01*
X157195520Y-37633520D01*
X157137516Y-37341915D01*
X156972335Y-37094705D01*
X156972335Y-37094704D01*
X156138815Y-36261185D01*
X155891605Y-36096004D01*
X155600000Y-36038000D01*
X141800000Y-36038000D01*
X141508395Y-36096004D01*
X141261184Y-36261185D01*
X140861185Y-36661185D01*
X140696004Y-36908395D01*
X140638000Y-37200000D01*
X140638000Y-56600000D01*
X140696004Y-56891605D01*
X140861185Y-57138815D01*
X141108395Y-57303996D01*
X141108396Y-57303996D01*
X141400000Y-57362000D01*
X141400000Y-57361999D01*
X141557848Y-57330601D01*
X141540000Y-57373691D01*
X141540000Y-57714250D01*
X141698750Y-57873000D01*
X142673000Y-57873000D01*
X142673000Y-57853000D01*
X142927000Y-57853000D01*
X142927000Y-57873000D01*
X143901250Y-57873000D01*
X144060000Y-57714250D01*
X144060000Y-57373691D01*
X143972314Y-57162000D01*
X145400000Y-57162000D01*
X145400000Y-57161999D01*
X145691604Y-57103996D01*
X145691605Y-57103996D01*
X145938815Y-56938815D01*
X146138815Y-56738815D01*
X146138816Y-56738815D01*
X146237834Y-56590623D01*
X146303996Y-56491605D01*
X146303996Y-56491604D01*
X146362000Y-56200000D01*
X146362000Y-43564641D01*
X146514622Y-43412286D01*
X146679313Y-43015668D01*
X146679687Y-42586216D01*
X146515689Y-42189311D01*
X146212286Y-41885378D01*
X145815668Y-41720687D01*
X145386216Y-41720313D01*
X144989311Y-41884311D01*
X144685378Y-42187714D01*
X144520687Y-42584332D01*
X144520313Y-43013784D01*
X144684311Y-43410689D01*
X144838000Y-43564646D01*
X144838000Y-55638000D01*
X142162000Y-55638000D01*
X142162000Y-37562000D01*
X151191020Y-37562000D01*
X150823285Y-37635147D01*
X150373774Y-37935501D01*
X150073420Y-38385012D01*
X149967950Y-38915247D01*
X149967950Y-39987313D01*
X150073420Y-40517548D01*
X150083520Y-40532663D01*
X150083520Y-41353514D01*
X150083519Y-41353520D01*
X150180193Y-41839528D01*
X150455494Y-42251546D01*
X152301274Y-44097326D01*
X152713292Y-44372627D01*
X153199300Y-44469300D01*
X162191700Y-44469300D01*
X162191700Y-45775356D01*
X161847661Y-46118795D01*
X161557032Y-46818710D01*
X161556370Y-47576565D01*
X161845778Y-48276986D01*
X162381195Y-48813339D01*
X163081110Y-49103968D01*
X163838965Y-49104630D01*
X164539386Y-48815222D01*
X165075739Y-48279805D01*
X165366368Y-47579890D01*
X165367030Y-46822035D01*
X165367030Y-59130000D01*
X165115803Y-59130000D01*
X165177600Y-58980810D01*
X165177600Y-58728191D01*
X165177600Y-58515250D01*
X165177600Y-57943750D01*
X165177600Y-57730809D01*
X165177600Y-57478190D01*
X165080927Y-57244801D01*
X164902298Y-57066173D01*
X164668909Y-56969500D01*
X164328350Y-56969500D01*
X164169600Y-57128250D01*
X164169600Y-58102500D01*
X165018850Y-58102500D01*
X165177600Y-57943750D01*
X165177600Y-58515250D01*
X165018850Y-58356500D01*
X164169600Y-58356500D01*
X164169600Y-58376500D01*
X163915600Y-58376500D01*
X163915600Y-58356500D01*
X163895600Y-58356500D01*
X163895600Y-58102500D01*
X163915600Y-58102500D01*
X163915600Y-57128250D01*
X163756850Y-56969500D01*
X163416291Y-56969500D01*
X163182902Y-57066173D01*
X163042599Y-57206474D01*
X162902299Y-57066173D01*
X162668910Y-56969500D01*
X162524551Y-56969500D01*
X161006051Y-55450999D01*
X163759180Y-52697870D01*
X164309480Y-52470492D01*
X164731410Y-52049297D01*
X164960039Y-51498698D01*
X164960559Y-50902518D01*
X164732892Y-50351520D01*
X164311697Y-49929590D01*
X163761098Y-49700961D01*
X163164918Y-49700441D01*
X162613920Y-49928108D01*
X162191990Y-50349303D01*
X161963361Y-50899902D01*
X161963359Y-50901589D01*
X159000664Y-53864283D01*
X158934306Y-53864226D01*
X158333345Y-54112538D01*
X157873154Y-54571927D01*
X157735370Y-54903747D01*
X157735370Y-48180177D01*
X157183180Y-46843775D01*
X156161603Y-45820414D01*
X154826166Y-45265892D01*
X153380177Y-45264630D01*
X152043775Y-45816820D01*
X151020414Y-46838397D01*
X150465892Y-48173834D01*
X150464630Y-49619823D01*
X151016820Y-50956225D01*
X152038397Y-51979586D01*
X153373834Y-52534108D01*
X154819823Y-52535370D01*
X156156225Y-51983180D01*
X157179586Y-50961603D01*
X157734108Y-49626166D01*
X157735370Y-48180177D01*
X157735370Y-54903747D01*
X157623794Y-55172453D01*
X157623315Y-55720345D01*
X157586216Y-55720313D01*
X157189311Y-55884311D01*
X157035353Y-56038000D01*
X153964641Y-56038000D01*
X153812286Y-55885378D01*
X153415668Y-55720687D01*
X152986216Y-55720313D01*
X152589311Y-55884311D01*
X152362000Y-56111225D01*
X152362000Y-55818445D01*
X152610689Y-55715689D01*
X152914622Y-55412286D01*
X153079313Y-55015668D01*
X153079687Y-54586216D01*
X152915689Y-54189311D01*
X152612286Y-53885378D01*
X152215668Y-53720687D01*
X151786216Y-53720313D01*
X151389311Y-53884311D01*
X151085378Y-54187714D01*
X150920687Y-54584332D01*
X150920436Y-54871829D01*
X150896004Y-54908395D01*
X150838000Y-55200000D01*
X150838000Y-57265000D01*
X150823691Y-57265000D01*
X150590302Y-57361673D01*
X150411673Y-57540301D01*
X150315000Y-57773690D01*
X150315000Y-58026309D01*
X150315000Y-58090581D01*
X150225068Y-57872929D01*
X149793643Y-57440749D01*
X149229670Y-57206567D01*
X148619009Y-57206035D01*
X148054629Y-57439232D01*
X147622449Y-57870657D01*
X147422797Y-58351471D01*
X147225068Y-57872929D01*
X146793643Y-57440749D01*
X146229670Y-57206567D01*
X145619009Y-57206035D01*
X145054629Y-57439232D01*
X144622449Y-57870657D01*
X144388267Y-58434630D01*
X144387735Y-59045291D01*
X144467360Y-59238000D01*
X144003794Y-59238000D01*
X143963327Y-59140302D01*
X143823025Y-59000000D01*
X143963327Y-58859698D01*
X144060000Y-58626309D01*
X144060000Y-58285750D01*
X143901250Y-58127000D01*
X142927000Y-58127000D01*
X142927000Y-58147000D01*
X142673000Y-58147000D01*
X142673000Y-58127000D01*
X141698750Y-58127000D01*
X141540000Y-58285750D01*
X141540000Y-58626309D01*
X141636673Y-58859698D01*
X141776974Y-59000000D01*
X141636673Y-59140301D01*
X141540000Y-59373690D01*
X141540000Y-59626309D01*
X141540000Y-60626309D01*
X141599445Y-60769821D01*
X141515000Y-60973690D01*
X141515000Y-61226309D01*
X141515000Y-61926309D01*
X141611673Y-62159698D01*
X141790301Y-62338327D01*
X141939193Y-62400000D01*
X141790302Y-62461673D01*
X141611673Y-62640301D01*
X141515000Y-62873690D01*
X141515000Y-63126309D01*
X141515000Y-63214262D01*
X141488000Y-63350000D01*
X141515000Y-63485737D01*
X141515000Y-63761933D01*
X141415668Y-63720687D01*
X140986216Y-63720313D01*
X140946458Y-63736740D01*
X140946458Y-60040664D01*
X140920839Y-59430540D01*
X140736643Y-58985852D01*
X140480159Y-58899446D01*
X140300554Y-59079051D01*
X140300554Y-58719841D01*
X140214148Y-58463357D01*
X139640664Y-58253542D01*
X139030540Y-58279161D01*
X139009144Y-58288023D01*
X139009144Y-45527698D01*
X138981362Y-44972632D01*
X138822397Y-44588857D01*
X138580213Y-44519392D01*
X138400608Y-44698997D01*
X138400608Y-44339787D01*
X138331143Y-44097603D01*
X137807698Y-43910856D01*
X137252632Y-43938638D01*
X137235707Y-43945648D01*
X137235707Y-38878116D01*
X136835359Y-37909201D01*
X136094698Y-37167246D01*
X135126483Y-36765208D01*
X134078116Y-36764293D01*
X133109201Y-37164641D01*
X132367246Y-37905302D01*
X131965208Y-38873517D01*
X131964293Y-39921884D01*
X132364641Y-40890799D01*
X133105302Y-41632754D01*
X134073517Y-42034792D01*
X135121884Y-42035707D01*
X136090799Y-41635359D01*
X136832754Y-40894698D01*
X137234792Y-39926483D01*
X137235707Y-38878116D01*
X137235707Y-43945648D01*
X136868857Y-44097603D01*
X136799392Y-44339787D01*
X137600000Y-45140395D01*
X138400608Y-44339787D01*
X138400608Y-44698997D01*
X137779605Y-45320000D01*
X138580213Y-46120608D01*
X138822397Y-46051143D01*
X139009144Y-45527698D01*
X139009144Y-58288023D01*
X138997242Y-58292953D01*
X138997242Y-50123339D01*
X138785010Y-49609697D01*
X138392370Y-49216371D01*
X138184487Y-49130050D01*
X138390303Y-49045010D01*
X138783629Y-48652370D01*
X138996757Y-48139100D01*
X138997242Y-47583339D01*
X138785010Y-47069697D01*
X138392370Y-46676371D01*
X138200272Y-46596605D01*
X138331143Y-46542397D01*
X138400608Y-46300213D01*
X137600000Y-45499605D01*
X137420395Y-45679210D01*
X137420395Y-45320000D01*
X136619787Y-44519392D01*
X136377603Y-44588857D01*
X136190856Y-45112302D01*
X136218638Y-45667368D01*
X136377603Y-46051143D01*
X136619787Y-46120608D01*
X137420395Y-45320000D01*
X137420395Y-45679210D01*
X136799392Y-46300213D01*
X136868857Y-46542397D01*
X137009317Y-46592508D01*
X136809697Y-46674990D01*
X136416371Y-47067630D01*
X136262580Y-47438000D01*
X134203794Y-47438000D01*
X134163327Y-47340302D01*
X134023025Y-47200000D01*
X134163327Y-47059698D01*
X134260000Y-46826309D01*
X134260000Y-46485750D01*
X134260000Y-45914250D01*
X134260000Y-45573691D01*
X134163327Y-45340302D01*
X133984699Y-45161673D01*
X133751310Y-45065000D01*
X133498691Y-45065000D01*
X133285750Y-45065000D01*
X133127000Y-45223750D01*
X133127000Y-46073000D01*
X134101250Y-46073000D01*
X134260000Y-45914250D01*
X134260000Y-46485750D01*
X134101250Y-46327000D01*
X133127000Y-46327000D01*
X133127000Y-46347000D01*
X132873000Y-46347000D01*
X132873000Y-46327000D01*
X132873000Y-46073000D01*
X132873000Y-45223750D01*
X132714250Y-45065000D01*
X132501309Y-45065000D01*
X132248690Y-45065000D01*
X132015301Y-45161673D01*
X131836673Y-45340302D01*
X131740000Y-45573691D01*
X131740000Y-45914250D01*
X131898750Y-46073000D01*
X132873000Y-46073000D01*
X132873000Y-46327000D01*
X131898750Y-46327000D01*
X131740000Y-46485750D01*
X131740000Y-46826309D01*
X131836673Y-47059698D01*
X131976974Y-47200000D01*
X131836673Y-47340301D01*
X131740000Y-47573690D01*
X131740000Y-47826309D01*
X131740000Y-48826309D01*
X131836673Y-49059698D01*
X132015301Y-49238327D01*
X132248690Y-49335000D01*
X132501309Y-49335000D01*
X133751309Y-49335000D01*
X133984698Y-49238327D01*
X134163327Y-49059699D01*
X134203795Y-48962000D01*
X136726143Y-48962000D01*
X136807630Y-49043629D01*
X137015512Y-49129949D01*
X136809697Y-49214990D01*
X136416371Y-49607630D01*
X136203243Y-50120900D01*
X136202758Y-50676661D01*
X136414990Y-51190303D01*
X136807630Y-51583629D01*
X137320900Y-51796757D01*
X137876661Y-51797242D01*
X138390303Y-51585010D01*
X138783629Y-51192370D01*
X138996757Y-50679100D01*
X138997242Y-50123339D01*
X138997242Y-58292953D01*
X138585852Y-58463357D01*
X138499446Y-58719841D01*
X139400000Y-59620395D01*
X140300554Y-58719841D01*
X140300554Y-59079051D01*
X139579605Y-59800000D01*
X140480159Y-60700554D01*
X140736643Y-60614148D01*
X140946458Y-60040664D01*
X140946458Y-63736740D01*
X140935000Y-63741475D01*
X140935000Y-63573691D01*
X140935000Y-61773691D01*
X140838327Y-61540302D01*
X140659699Y-61361673D01*
X140426310Y-61265000D01*
X140173691Y-61265000D01*
X139904267Y-61265000D01*
X140214148Y-61136643D01*
X140300554Y-60880159D01*
X139400000Y-59979605D01*
X138499446Y-60880159D01*
X138585852Y-61136643D01*
X138936688Y-61265000D01*
X138373691Y-61265000D01*
X138140302Y-61361673D01*
X137961673Y-61540301D01*
X137917611Y-61646674D01*
X137770643Y-61499449D01*
X137289828Y-61299797D01*
X137768371Y-61102068D01*
X138200551Y-60670643D01*
X138204294Y-60661627D01*
X138319841Y-60700554D01*
X139220395Y-59800000D01*
X138319841Y-58899446D01*
X138204785Y-58938206D01*
X138202068Y-58931629D01*
X137770643Y-58499449D01*
X137206670Y-58265267D01*
X136621993Y-58264757D01*
X134596818Y-56239582D01*
X134308406Y-56046871D01*
X133968200Y-55979200D01*
X130600000Y-55979200D01*
X130442360Y-55979200D01*
X130446261Y-55021458D01*
X130534852Y-54807583D01*
X130534853Y-54807582D01*
X130607167Y-54444033D01*
X130607166Y-54430503D01*
X130619560Y-54368200D01*
X130619560Y-53682038D01*
X130632857Y-53662138D01*
X130685000Y-53400000D01*
X130685000Y-35685000D01*
X193715000Y-35685000D01*
X193715000Y-61342323D01*
X193252758Y-60879274D01*
X192635707Y-60623052D01*
X192635707Y-38878116D01*
X192235359Y-37909201D01*
X191494698Y-37167246D01*
X190526483Y-36765208D01*
X189478116Y-36764293D01*
X188509201Y-37164641D01*
X187767246Y-37905302D01*
X187365208Y-38873517D01*
X187364293Y-39921884D01*
X187764641Y-40890799D01*
X188505302Y-41632754D01*
X189473517Y-42034792D01*
X190521884Y-42035707D01*
X191490799Y-41635359D01*
X192232754Y-40894698D01*
X192634792Y-39926483D01*
X192635707Y-38878116D01*
X192635707Y-60623052D01*
X192376487Y-60515415D01*
X191427675Y-60514587D01*
X190550771Y-60876916D01*
X189879274Y-61547242D01*
X189515415Y-62423513D01*
X189514587Y-63372325D01*
X189876916Y-64249229D01*
X190547242Y-64920726D01*
X190630000Y-64955090D01*
X190630000Y-68444179D01*
X190550771Y-68476916D01*
X189879274Y-69147242D01*
X189515415Y-70023513D01*
X189514587Y-70972325D01*
X189876916Y-71849229D01*
X190547242Y-72520726D01*
X190630000Y-72555090D01*
X190630000Y-73373948D01*
X190573948Y-73430000D01*
X189758827Y-73430000D01*
X189543489Y-73286115D01*
X188970000Y-73172041D01*
X188396511Y-73286115D01*
X187910330Y-73610971D01*
X187896263Y-73632023D01*
X187831927Y-73476702D01*
X187653299Y-73298073D01*
X187419910Y-73201400D01*
X187167291Y-73201400D01*
X186715750Y-73201400D01*
X186579687Y-73337463D01*
X186579687Y-59686216D01*
X186415689Y-59289311D01*
X186112286Y-58985378D01*
X186034774Y-58953192D01*
X186034774Y-44975766D01*
X186034774Y-38376846D01*
X185786462Y-37775885D01*
X185327073Y-37315694D01*
X184726547Y-37066334D01*
X184076306Y-37065766D01*
X183475345Y-37314078D01*
X183141340Y-37647500D01*
X180070525Y-37647500D01*
X179984699Y-37561673D01*
X179751310Y-37465000D01*
X179498691Y-37465000D01*
X178248691Y-37465000D01*
X178015302Y-37561673D01*
X177929474Y-37647500D01*
X177370525Y-37647500D01*
X177284699Y-37561673D01*
X177051310Y-37465000D01*
X176798691Y-37465000D01*
X175548691Y-37465000D01*
X175315302Y-37561673D01*
X175229474Y-37647500D01*
X174370525Y-37647500D01*
X174284699Y-37561673D01*
X174051310Y-37465000D01*
X173798691Y-37465000D01*
X172548691Y-37465000D01*
X172315302Y-37561673D01*
X172136673Y-37740301D01*
X172071310Y-37898100D01*
X171484680Y-37898100D01*
X171484680Y-37748931D01*
X171388007Y-37515542D01*
X171209379Y-37336913D01*
X170975990Y-37240240D01*
X170723371Y-37240240D01*
X168224011Y-37240240D01*
X167990622Y-37336913D01*
X167811993Y-37515541D01*
X167715320Y-37748930D01*
X167715320Y-38001549D01*
X167715320Y-38246800D01*
X165129347Y-38246800D01*
X165077622Y-38121614D01*
X164542205Y-37585261D01*
X163842290Y-37294632D01*
X163084435Y-37293970D01*
X162384014Y-37583378D01*
X161847661Y-38118795D01*
X161557032Y-38818710D01*
X161556370Y-39576565D01*
X161845778Y-40276986D01*
X162381195Y-40813339D01*
X163081110Y-41103968D01*
X163838965Y-41104630D01*
X164539386Y-40815222D01*
X165075739Y-40279805D01*
X165128891Y-40151800D01*
X167797968Y-40151800D01*
X167811993Y-40185658D01*
X167990621Y-40364287D01*
X168076839Y-40400000D01*
X167990621Y-40435713D01*
X167811993Y-40614342D01*
X167715320Y-40847731D01*
X167715320Y-41663650D01*
X167874070Y-41822400D01*
X169473000Y-41822400D01*
X169473000Y-41802400D01*
X169727000Y-41802400D01*
X169727000Y-41822400D01*
X171325930Y-41822400D01*
X171484680Y-41663650D01*
X171484680Y-40847731D01*
X171388007Y-40614342D01*
X171209379Y-40435713D01*
X171123159Y-40399999D01*
X171209378Y-40364287D01*
X171388007Y-40185659D01*
X171484680Y-39952270D01*
X171484680Y-39803100D01*
X172110661Y-39803100D01*
X172040000Y-39973691D01*
X172040000Y-40314250D01*
X172198750Y-40473000D01*
X173173000Y-40473000D01*
X173173000Y-40453000D01*
X173427000Y-40453000D01*
X173427000Y-40473000D01*
X174401250Y-40473000D01*
X174560000Y-40314250D01*
X174560000Y-39973691D01*
X174463327Y-39740302D01*
X174323025Y-39599999D01*
X174370525Y-39552500D01*
X175229474Y-39552500D01*
X175276974Y-39600000D01*
X175136673Y-39740302D01*
X175040000Y-39973691D01*
X175040000Y-40314250D01*
X175198750Y-40473000D01*
X176173000Y-40473000D01*
X176173000Y-40453000D01*
X176427000Y-40453000D01*
X176427000Y-40473000D01*
X177401250Y-40473000D01*
X177560000Y-40314250D01*
X177560000Y-39973691D01*
X177463327Y-39740302D01*
X177323025Y-39599999D01*
X177370525Y-39552500D01*
X177929474Y-39552500D01*
X177976974Y-39600000D01*
X177836673Y-39740302D01*
X177740000Y-39973691D01*
X177740000Y-40314250D01*
X177898750Y-40473000D01*
X178873000Y-40473000D01*
X178873000Y-40453000D01*
X179127000Y-40453000D01*
X179127000Y-40473000D01*
X180101250Y-40473000D01*
X180260000Y-40314250D01*
X180260000Y-39973691D01*
X180163327Y-39740302D01*
X180023025Y-39599999D01*
X180070525Y-39552500D01*
X182983501Y-39552500D01*
X183013538Y-39625195D01*
X183472927Y-40085386D01*
X184073453Y-40334746D01*
X184723694Y-40335314D01*
X185324655Y-40087002D01*
X185784846Y-39627613D01*
X186034206Y-39027087D01*
X186034774Y-38376846D01*
X186034774Y-44975766D01*
X185786462Y-44374805D01*
X185327073Y-43914614D01*
X184726547Y-43665254D01*
X184076306Y-43664686D01*
X183475345Y-43912998D01*
X183015154Y-44372387D01*
X182765794Y-44972913D01*
X182765226Y-45623154D01*
X183013538Y-46224115D01*
X183472927Y-46684306D01*
X184073453Y-46933666D01*
X184723694Y-46934234D01*
X185324655Y-46685922D01*
X185784846Y-46226533D01*
X186034206Y-45626007D01*
X186034774Y-44975766D01*
X186034774Y-58953192D01*
X185715668Y-58820687D01*
X185286216Y-58820313D01*
X184978400Y-58947500D01*
X182321066Y-58947500D01*
X182015668Y-58820687D01*
X181586216Y-58820313D01*
X181189311Y-58984311D01*
X180885378Y-59287714D01*
X180720687Y-59684332D01*
X180720313Y-60113784D01*
X180884311Y-60510689D01*
X181187714Y-60814622D01*
X181584332Y-60979313D01*
X182013784Y-60979687D01*
X182321599Y-60852500D01*
X184978933Y-60852500D01*
X185284332Y-60979313D01*
X185713784Y-60979687D01*
X186110689Y-60815689D01*
X186414622Y-60512286D01*
X186579313Y-60115668D01*
X186579687Y-59686216D01*
X186579687Y-73337463D01*
X186557000Y-73360150D01*
X186557000Y-74573000D01*
X186577000Y-74573000D01*
X186577000Y-74827000D01*
X186557000Y-74827000D01*
X186557000Y-76039850D01*
X186715750Y-76198600D01*
X187167291Y-76198600D01*
X187419910Y-76198600D01*
X187653299Y-76101927D01*
X187831927Y-75923298D01*
X187896263Y-75767976D01*
X187910330Y-75789029D01*
X188396511Y-76113885D01*
X188970000Y-76227959D01*
X189543489Y-76113885D01*
X189758827Y-75970000D01*
X191099994Y-75970000D01*
X191100000Y-75970001D01*
X191100000Y-75970000D01*
X191586008Y-75873327D01*
X191998026Y-75598026D01*
X192798026Y-74798026D01*
X193073327Y-74386008D01*
X193170000Y-73900000D01*
X193170001Y-73900000D01*
X193170000Y-73899994D01*
X193170000Y-72555820D01*
X193249229Y-72523084D01*
X193715000Y-72058125D01*
X193715000Y-84015000D01*
X193715000Y-84015000D01*
G37*
X193715000Y-84015000D02*
X192635707Y-84015000D01*
X192635707Y-79578116D01*
X192235359Y-78609201D01*
X191494698Y-77867246D01*
X190526483Y-77465208D01*
X189478116Y-77464293D01*
X188509201Y-77864641D01*
X187767246Y-78605302D01*
X187365208Y-79573517D01*
X187364293Y-80621884D01*
X187764641Y-81590799D01*
X188505302Y-82332754D01*
X189473517Y-82734792D01*
X190521884Y-82735707D01*
X191490799Y-82335359D01*
X192232754Y-81594698D01*
X192634792Y-80626483D01*
X192635707Y-79578116D01*
X192635707Y-84015000D01*
X186303000Y-84015000D01*
X186303000Y-76039850D01*
X186303000Y-74827000D01*
X186303000Y-74573000D01*
X186303000Y-73360150D01*
X186144250Y-73201400D01*
X185692709Y-73201400D01*
X185440090Y-73201400D01*
X185206701Y-73298073D01*
X185028073Y-73476702D01*
X184931400Y-73710091D01*
X184931400Y-74414250D01*
X185090150Y-74573000D01*
X186303000Y-74573000D01*
X186303000Y-74827000D01*
X185090150Y-74827000D01*
X184931400Y-74985750D01*
X184931400Y-75689909D01*
X185028073Y-75923298D01*
X185206701Y-76101927D01*
X185440090Y-76198600D01*
X185692709Y-76198600D01*
X186144250Y-76198600D01*
X186303000Y-76039850D01*
X186303000Y-84015000D01*
X182041401Y-84015000D01*
X182041401Y-82660418D01*
X182017341Y-82010623D01*
X181814965Y-81522042D01*
X181548163Y-81423443D01*
X181368557Y-81603048D01*
X181368557Y-81243837D01*
X181269958Y-80977035D01*
X180660418Y-80750599D01*
X180010623Y-80774659D01*
X179522042Y-80977035D01*
X179423443Y-81243837D01*
X180396000Y-82216395D01*
X181368557Y-81243837D01*
X181368557Y-81603048D01*
X180575605Y-82396000D01*
X181548163Y-83368557D01*
X181814965Y-83269958D01*
X182041401Y-82660418D01*
X182041401Y-84015000D01*
X180787028Y-84015000D01*
X181269958Y-83814965D01*
X181368557Y-83548163D01*
X180396000Y-82575605D01*
X180216395Y-82755210D01*
X180216395Y-82396000D01*
X179243837Y-81423443D01*
X178977035Y-81522042D01*
X178750599Y-82131582D01*
X178774659Y-82781377D01*
X178977035Y-83269958D01*
X179243837Y-83368557D01*
X180216395Y-82396000D01*
X180216395Y-82755210D01*
X179423443Y-83548163D01*
X179522042Y-83814965D01*
X180060513Y-84015000D01*
X177060000Y-84015000D01*
X177060000Y-82026309D01*
X177060000Y-81685750D01*
X176901250Y-81527000D01*
X175927000Y-81527000D01*
X175927000Y-82376250D01*
X176085750Y-82535000D01*
X176298691Y-82535000D01*
X176551310Y-82535000D01*
X176784699Y-82438327D01*
X176963327Y-82259698D01*
X177060000Y-82026309D01*
X177060000Y-84015000D01*
X175673000Y-84015000D01*
X175673000Y-82376250D01*
X175673000Y-81527000D01*
X174698750Y-81527000D01*
X174540000Y-81685750D01*
X174540000Y-82026309D01*
X174636673Y-82259698D01*
X174815301Y-82438327D01*
X175048690Y-82535000D01*
X175301309Y-82535000D01*
X175514250Y-82535000D01*
X175673000Y-82376250D01*
X175673000Y-84015000D01*
X167398207Y-84015000D01*
X167728655Y-83878462D01*
X168188846Y-83419073D01*
X168438206Y-82818547D01*
X168438774Y-82168306D01*
X168190462Y-81567345D01*
X167731073Y-81107154D01*
X167130547Y-80857794D01*
X166480306Y-80857226D01*
X165879345Y-81105538D01*
X165762679Y-81222000D01*
X160618051Y-81222000D01*
X160541401Y-81145349D01*
X160541401Y-77368418D01*
X160517341Y-76718623D01*
X160314965Y-76230042D01*
X160048163Y-76131443D01*
X159868557Y-76311048D01*
X159868557Y-75951837D01*
X159769958Y-75685035D01*
X159160418Y-75458599D01*
X158510623Y-75482659D01*
X158022042Y-75685035D01*
X157923443Y-75951837D01*
X158896000Y-76924395D01*
X159868557Y-75951837D01*
X159868557Y-76311048D01*
X159075605Y-77104000D01*
X160048163Y-78076557D01*
X160314965Y-77977958D01*
X160541401Y-77368418D01*
X160541401Y-81145349D01*
X159868557Y-80472505D01*
X159868557Y-78256163D01*
X158896000Y-77283605D01*
X158716395Y-77463210D01*
X158716395Y-77104000D01*
X157743837Y-76131443D01*
X157477035Y-76230042D01*
X157250599Y-76839582D01*
X157274659Y-77489377D01*
X157477035Y-77977958D01*
X157743837Y-78076557D01*
X158716395Y-77104000D01*
X158716395Y-77463210D01*
X157923443Y-78256163D01*
X158022042Y-78522965D01*
X158631582Y-78749401D01*
X159281377Y-78725341D01*
X159769958Y-78522965D01*
X159868557Y-78256163D01*
X159868557Y-80472505D01*
X155602026Y-76205974D01*
X155190008Y-75930673D01*
X154704000Y-75833999D01*
X154703994Y-75834000D01*
X154349718Y-75834000D01*
X154235073Y-75719154D01*
X153634547Y-75469794D01*
X152984306Y-75469226D01*
X152383345Y-75717538D01*
X151923154Y-76176927D01*
X151673794Y-76777453D01*
X151673748Y-76830000D01*
X150200000Y-76830000D01*
X150149726Y-76840000D01*
X149573691Y-76840000D01*
X149340302Y-76936673D01*
X149199999Y-77076974D01*
X149059699Y-76936673D01*
X148826310Y-76840000D01*
X148573691Y-76840000D01*
X148250277Y-76840000D01*
X148200000Y-76829999D01*
X148149722Y-76840000D01*
X147573691Y-76840000D01*
X147340302Y-76936673D01*
X147330774Y-76946200D01*
X147330774Y-75184306D01*
X147082462Y-74583345D01*
X146623073Y-74123154D01*
X146022547Y-73873794D01*
X145372306Y-73873226D01*
X144771345Y-74121538D01*
X144311154Y-74580927D01*
X144061794Y-75181453D01*
X144061226Y-75831694D01*
X144309538Y-76432655D01*
X144768927Y-76892846D01*
X145369453Y-77142206D01*
X146019694Y-77142774D01*
X146620655Y-76894462D01*
X147080846Y-76435073D01*
X147330206Y-75834547D01*
X147330774Y-75184306D01*
X147330774Y-76946200D01*
X147161673Y-77115301D01*
X147065000Y-77348690D01*
X147065000Y-77438948D01*
X144810650Y-79693297D01*
X144771345Y-79709538D01*
X144311154Y-80168927D01*
X144061794Y-80769453D01*
X144061226Y-81419694D01*
X144309538Y-82020655D01*
X144768927Y-82480846D01*
X145369453Y-82730206D01*
X146019694Y-82730774D01*
X146620655Y-82482462D01*
X147080846Y-82023073D01*
X147330206Y-81422547D01*
X147330774Y-80772306D01*
X147328719Y-80767332D01*
X148736051Y-79360000D01*
X148826309Y-79360000D01*
X149059698Y-79263327D01*
X149200000Y-79123025D01*
X149340301Y-79263327D01*
X149573690Y-79360000D01*
X149826309Y-79360000D01*
X150149726Y-79360000D01*
X150200000Y-79370000D01*
X151830000Y-79370000D01*
X151830000Y-79900000D01*
X151840000Y-79950273D01*
X151840000Y-80526309D01*
X151936673Y-80759698D01*
X152076974Y-80900000D01*
X151936673Y-81040302D01*
X151840000Y-81273691D01*
X151840000Y-81614250D01*
X151998750Y-81773000D01*
X152973000Y-81773000D01*
X152973000Y-81753000D01*
X153227000Y-81753000D01*
X153227000Y-81773000D01*
X154201250Y-81773000D01*
X154360000Y-81614250D01*
X154360000Y-81273691D01*
X154263327Y-81040302D01*
X154123025Y-80899999D01*
X154263327Y-80759699D01*
X154360000Y-80526310D01*
X154360000Y-80273691D01*
X154360000Y-79950273D01*
X154370000Y-79900000D01*
X154370000Y-78566051D01*
X159193971Y-83390022D01*
X159193974Y-83390026D01*
X159193975Y-83390026D01*
X159605992Y-83665327D01*
X160092000Y-83762001D01*
X160092000Y-83762000D01*
X160092005Y-83762000D01*
X165762281Y-83762000D01*
X165876927Y-83876846D01*
X166209639Y-84015000D01*
X154360000Y-84015000D01*
X154360000Y-82526309D01*
X154360000Y-82185750D01*
X154201250Y-82027000D01*
X153227000Y-82027000D01*
X153227000Y-82876250D01*
X153385750Y-83035000D01*
X153598691Y-83035000D01*
X153851310Y-83035000D01*
X154084699Y-82938327D01*
X154263327Y-82759698D01*
X154360000Y-82526309D01*
X154360000Y-84015000D01*
X152973000Y-84015000D01*
X152973000Y-82876250D01*
X152973000Y-82027000D01*
X151998750Y-82027000D01*
X151840000Y-82185750D01*
X151840000Y-82526309D01*
X151936673Y-82759698D01*
X152115301Y-82938327D01*
X152348690Y-83035000D01*
X152601309Y-83035000D01*
X152814250Y-83035000D01*
X152973000Y-82876250D01*
X152973000Y-84015000D01*
X137135707Y-84015000D01*
X137135707Y-79578116D01*
X136735359Y-78609201D01*
X135994698Y-77867246D01*
X135026483Y-77465208D01*
X133978116Y-77464293D01*
X133009201Y-77864641D01*
X132267246Y-78605302D01*
X131865208Y-79573517D01*
X131864293Y-80621884D01*
X132264641Y-81590799D01*
X133005302Y-82332754D01*
X133973517Y-82734792D01*
X135021884Y-82735707D01*
X135990799Y-82335359D01*
X136732754Y-81594698D01*
X137134792Y-80626483D01*
X137135707Y-79578116D01*
X137135707Y-84015000D01*
X130685000Y-84015000D01*
X130685000Y-77200000D01*
X130632857Y-76937862D01*
X130619560Y-76917961D01*
X130619560Y-76418200D01*
X130607166Y-76355895D01*
X130607167Y-76292367D01*
X130534853Y-75928818D01*
X130534852Y-75928817D01*
X130438544Y-75696309D01*
X130438543Y-75696308D01*
X130438543Y-75696307D01*
X130362509Y-75582515D01*
X130376880Y-72054510D01*
X131220500Y-72898131D01*
X131220313Y-73113784D01*
X131384311Y-73510689D01*
X131687714Y-73814622D01*
X132084332Y-73979313D01*
X132513784Y-73979687D01*
X132910689Y-73815689D01*
X133214622Y-73512286D01*
X133379313Y-73115668D01*
X133379687Y-72686216D01*
X133215689Y-72289311D01*
X132912286Y-71985378D01*
X132515668Y-71820687D01*
X132298128Y-71820497D01*
X131562000Y-71084369D01*
X131562000Y-70182874D01*
X131684311Y-70478889D01*
X131987714Y-70782822D01*
X132384332Y-70947513D01*
X132813784Y-70947887D01*
X133210689Y-70783889D01*
X133514622Y-70480486D01*
X133679313Y-70083868D01*
X133679502Y-69866327D01*
X134583830Y-68962000D01*
X137152000Y-68962000D01*
X137152000Y-69342309D01*
X137248673Y-69575698D01*
X137427301Y-69754327D01*
X137660690Y-69851000D01*
X137913309Y-69851000D01*
X139437309Y-69851000D01*
X139670698Y-69754327D01*
X139849327Y-69575699D01*
X139946000Y-69342310D01*
X139946000Y-69089691D01*
X139946000Y-67057691D01*
X139849327Y-66824302D01*
X139670699Y-66645673D01*
X139437310Y-66549000D01*
X139184691Y-66549000D01*
X137660691Y-66549000D01*
X137427302Y-66645673D01*
X137248673Y-66824301D01*
X137152000Y-67057690D01*
X137152000Y-67310309D01*
X137152000Y-67438000D01*
X134268200Y-67438000D01*
X133976595Y-67496004D01*
X133729385Y-67661185D01*
X132601869Y-68788700D01*
X132386216Y-68788513D01*
X131989311Y-68952511D01*
X131685378Y-69255914D01*
X131562000Y-69553039D01*
X131562000Y-66400000D01*
X131503996Y-66108396D01*
X131503996Y-66108395D01*
X131437834Y-66009376D01*
X131338816Y-65861185D01*
X130807015Y-65329385D01*
X130559805Y-65164204D01*
X130405072Y-65133425D01*
X130419071Y-61696701D01*
X130438000Y-61715630D01*
X130438000Y-64000000D01*
X130496004Y-64291605D01*
X130661185Y-64538815D01*
X131461185Y-65338815D01*
X131708395Y-65503996D01*
X131708396Y-65503996D01*
X132000000Y-65562000D01*
X140435358Y-65562000D01*
X140587714Y-65714622D01*
X140984332Y-65879313D01*
X141102841Y-65879416D01*
X141089000Y-65949000D01*
X141089000Y-66549000D01*
X140962691Y-66549000D01*
X140729302Y-66645673D01*
X140550673Y-66824301D01*
X140454000Y-67057690D01*
X140454000Y-67310309D01*
X140454000Y-69342309D01*
X140550673Y-69575698D01*
X140729301Y-69754327D01*
X140962690Y-69851000D01*
X141215309Y-69851000D01*
X142739309Y-69851000D01*
X142972698Y-69754327D01*
X143151327Y-69575699D01*
X143248000Y-69342310D01*
X143248000Y-69089691D01*
X143248000Y-67057691D01*
X143151327Y-66824302D01*
X142972699Y-66645673D01*
X142739310Y-66549000D01*
X142613000Y-66549000D01*
X142613000Y-66264630D01*
X143040135Y-65837495D01*
X143020687Y-65884332D01*
X143020313Y-66313784D01*
X143184311Y-66710689D01*
X143487714Y-67014622D01*
X143511000Y-67024291D01*
X143511000Y-72500000D01*
X143578671Y-72840206D01*
X143771382Y-73128618D01*
X144071382Y-73428618D01*
X144359794Y-73621329D01*
X144359795Y-73621329D01*
X144700000Y-73689000D01*
X160300000Y-73689000D01*
X160640205Y-73621329D01*
X160640206Y-73621329D01*
X160845542Y-73484127D01*
X160845269Y-73797086D01*
X161047854Y-74287380D01*
X161422647Y-74662827D01*
X161912587Y-74866268D01*
X162443086Y-74866731D01*
X162933380Y-74664146D01*
X163308827Y-74289353D01*
X163449093Y-73951553D01*
X163587854Y-74287380D01*
X163962647Y-74662827D01*
X164452587Y-74866268D01*
X164983086Y-74866731D01*
X165473380Y-74664146D01*
X165848827Y-74289353D01*
X165989000Y-73951779D01*
X165989000Y-74358994D01*
X165988999Y-74359000D01*
X166085673Y-74845008D01*
X166360974Y-75257026D01*
X166404497Y-75300549D01*
X165879345Y-75517538D01*
X165419154Y-75976927D01*
X165169794Y-76577453D01*
X165169226Y-77227694D01*
X165417538Y-77828655D01*
X165876927Y-78288846D01*
X166477453Y-78538206D01*
X166642298Y-78538349D01*
X168301971Y-80198022D01*
X168301974Y-80198026D01*
X168301975Y-80198026D01*
X168713992Y-80473327D01*
X169200000Y-80570001D01*
X169200000Y-80570000D01*
X169200005Y-80570000D01*
X170200000Y-80570000D01*
X170250273Y-80560000D01*
X170826309Y-80560000D01*
X171059698Y-80463327D01*
X171200000Y-80323025D01*
X171340301Y-80463327D01*
X171573690Y-80560000D01*
X171794046Y-80560000D01*
X171813992Y-80573327D01*
X172300000Y-80670000D01*
X174582950Y-80670000D01*
X174540000Y-80773691D01*
X174540000Y-81114250D01*
X174698750Y-81273000D01*
X175673000Y-81273000D01*
X175673000Y-81253000D01*
X175927000Y-81253000D01*
X175927000Y-81273000D01*
X176901250Y-81273000D01*
X177060000Y-81114250D01*
X177060000Y-80773691D01*
X176963327Y-80540302D01*
X176823025Y-80399999D01*
X176963327Y-80259699D01*
X177060000Y-80026310D01*
X177060000Y-79936051D01*
X178918051Y-78078000D01*
X179354281Y-78078000D01*
X179468927Y-78192846D01*
X180069453Y-78442206D01*
X180719694Y-78442774D01*
X181320655Y-78194462D01*
X181780846Y-77735073D01*
X182030206Y-77134547D01*
X182030774Y-76484306D01*
X181782462Y-75883345D01*
X181323073Y-75423154D01*
X180722547Y-75173794D01*
X180072306Y-75173226D01*
X179471345Y-75421538D01*
X179354679Y-75538000D01*
X178392005Y-75538000D01*
X178392000Y-75537999D01*
X178391994Y-75538000D01*
X177103000Y-75538000D01*
X177103000Y-75004469D01*
X177103000Y-73797000D01*
X175896183Y-73797000D01*
X175775042Y-74029026D01*
X175947312Y-74444947D01*
X176341510Y-74876821D01*
X176870973Y-75124968D01*
X177103000Y-75004469D01*
X177103000Y-75538000D01*
X173684927Y-75538000D01*
X173684927Y-73725520D01*
X173656148Y-73195801D01*
X173508800Y-72840071D01*
X173273188Y-72778417D01*
X173093583Y-72958022D01*
X173093583Y-72598812D01*
X173031929Y-72363200D01*
X172531520Y-72187073D01*
X172001801Y-72215852D01*
X171646071Y-72363200D01*
X171584417Y-72598812D01*
X172339000Y-73353395D01*
X173093583Y-72598812D01*
X173093583Y-72958022D01*
X172518605Y-73533000D01*
X173273188Y-74287583D01*
X173508800Y-74225929D01*
X173684927Y-73725520D01*
X173684927Y-75538000D01*
X173093583Y-75538000D01*
X173093583Y-74467188D01*
X172339000Y-73712605D01*
X171584417Y-74467188D01*
X171646071Y-74702800D01*
X172146480Y-74878927D01*
X172676199Y-74850148D01*
X173031929Y-74702800D01*
X173093583Y-74467188D01*
X173093583Y-75538000D01*
X170234052Y-75538000D01*
X169562345Y-74866293D01*
X170063086Y-74866731D01*
X170553380Y-74664146D01*
X170928827Y-74289353D01*
X171062313Y-73967881D01*
X171169200Y-74225929D01*
X171404812Y-74287583D01*
X172159395Y-73533000D01*
X171404812Y-72778417D01*
X171169200Y-72840071D01*
X171070916Y-73119311D01*
X170930146Y-72778620D01*
X170555353Y-72403173D01*
X170065413Y-72199732D01*
X169534914Y-72199269D01*
X169044620Y-72401854D01*
X168669173Y-72776647D01*
X168528906Y-73114446D01*
X168390146Y-72778620D01*
X168015353Y-72403173D01*
X167525413Y-72199732D01*
X166994914Y-72199269D01*
X166504620Y-72401854D01*
X166129173Y-72776647D01*
X165989000Y-73114220D01*
X165989000Y-71545051D01*
X166164051Y-71370000D01*
X174600000Y-71370000D01*
X175086008Y-71273327D01*
X175143368Y-71235000D01*
X175351309Y-71235000D01*
X175584698Y-71138327D01*
X175729109Y-70993916D01*
X175702041Y-71130000D01*
X175816115Y-71703489D01*
X176140971Y-72189670D01*
X176464228Y-72405663D01*
X176341510Y-72463179D01*
X175947312Y-72895053D01*
X175775042Y-73310974D01*
X175896183Y-73543000D01*
X177103000Y-73543000D01*
X177103000Y-73523000D01*
X177357000Y-73523000D01*
X177357000Y-73543000D01*
X177377000Y-73543000D01*
X177377000Y-73797000D01*
X177357000Y-73797000D01*
X177357000Y-75004469D01*
X177589027Y-75124968D01*
X178118490Y-74876821D01*
X178285471Y-74693880D01*
X178368073Y-74893298D01*
X178546701Y-75071927D01*
X178780090Y-75168600D01*
X179032709Y-75168600D01*
X180759909Y-75168600D01*
X180993298Y-75071927D01*
X181125225Y-74940000D01*
X182629994Y-74940000D01*
X182630000Y-74940001D01*
X182630000Y-74940000D01*
X183116008Y-74843327D01*
X183528026Y-74568026D01*
X184998026Y-73098026D01*
X185273327Y-72686008D01*
X185370000Y-72200000D01*
X185370001Y-72200000D01*
X185370000Y-72199994D01*
X185370000Y-67742439D01*
X185485278Y-67627363D01*
X185734716Y-67026648D01*
X185735284Y-66376205D01*
X185486894Y-65775057D01*
X185027363Y-65314722D01*
X184426648Y-65065284D01*
X183776205Y-65064716D01*
X183175057Y-65313106D01*
X182714722Y-65772637D01*
X182465284Y-66373352D01*
X182464716Y-67023795D01*
X182713106Y-67624943D01*
X182830000Y-67742041D01*
X182830000Y-71673948D01*
X182103948Y-72400000D01*
X181125225Y-72400000D01*
X180993299Y-72268073D01*
X180837977Y-72203736D01*
X180859029Y-72189670D01*
X181183885Y-71703489D01*
X181297959Y-71130000D01*
X181183885Y-70556511D01*
X180859029Y-70070330D01*
X180372848Y-69745474D01*
X180260000Y-69723027D01*
X180260000Y-41226309D01*
X180260000Y-40885750D01*
X180101250Y-40727000D01*
X179127000Y-40727000D01*
X179127000Y-41576250D01*
X179285750Y-41735000D01*
X179498691Y-41735000D01*
X179751310Y-41735000D01*
X179984699Y-41638327D01*
X180163327Y-41459698D01*
X180260000Y-41226309D01*
X180260000Y-69723027D01*
X179799359Y-69631400D01*
X179740641Y-69631400D01*
X179681000Y-69643263D01*
X179681000Y-59044310D01*
X179681000Y-58791691D01*
X179681000Y-58578750D01*
X179681000Y-58007250D01*
X179681000Y-57794309D01*
X179681000Y-57541690D01*
X179584327Y-57308301D01*
X179405698Y-57129673D01*
X179172309Y-57033000D01*
X178873000Y-57033000D01*
X178873000Y-41576250D01*
X178873000Y-40727000D01*
X177898750Y-40727000D01*
X177740000Y-40885750D01*
X177740000Y-41226309D01*
X177836673Y-41459698D01*
X178015301Y-41638327D01*
X178248690Y-41735000D01*
X178501309Y-41735000D01*
X178714250Y-41735000D01*
X178873000Y-41576250D01*
X178873000Y-57033000D01*
X178831750Y-57033000D01*
X178673000Y-57191750D01*
X178673000Y-58166000D01*
X179522250Y-58166000D01*
X179681000Y-58007250D01*
X179681000Y-58578750D01*
X179522250Y-58420000D01*
X178673000Y-58420000D01*
X178673000Y-59394250D01*
X178831750Y-59553000D01*
X179172309Y-59553000D01*
X179405698Y-59456327D01*
X179584327Y-59277699D01*
X179681000Y-59044310D01*
X179681000Y-69643263D01*
X179167152Y-69745474D01*
X178680971Y-70070330D01*
X178500000Y-70341172D01*
X178319029Y-70070330D01*
X177832848Y-69745474D01*
X177259359Y-69631400D01*
X177200641Y-69631400D01*
X176627152Y-69745474D01*
X176140971Y-70070330D01*
X175860000Y-70490832D01*
X175860000Y-70473691D01*
X175860000Y-70150273D01*
X175870000Y-70100000D01*
X175860000Y-70049726D01*
X175860000Y-69473691D01*
X175763327Y-69240302D01*
X175623025Y-69099999D01*
X175763327Y-68959699D01*
X175860000Y-68726310D01*
X175860000Y-68473691D01*
X175860000Y-68150273D01*
X175870000Y-68100000D01*
X175870000Y-61772896D01*
X175882846Y-61760073D01*
X176132206Y-61159547D01*
X176132774Y-60509306D01*
X175884462Y-59908345D01*
X175425073Y-59448154D01*
X174824547Y-59198794D01*
X174174306Y-59198226D01*
X173573345Y-59446538D01*
X173456679Y-59563000D01*
X171967005Y-59563000D01*
X171967000Y-59562999D01*
X171480992Y-59659673D01*
X171068974Y-59934974D01*
X171068971Y-59934977D01*
X170463948Y-60540000D01*
X170373691Y-60540000D01*
X170140302Y-60636673D01*
X170000000Y-60776974D01*
X169859698Y-60636673D01*
X169626309Y-60540000D01*
X169285750Y-60540000D01*
X169127000Y-60698750D01*
X169127000Y-61673000D01*
X169147000Y-61673000D01*
X169147000Y-61927000D01*
X169127000Y-61927000D01*
X169127000Y-62901250D01*
X169285750Y-63060000D01*
X169626309Y-63060000D01*
X169859698Y-62963327D01*
X170000000Y-62823025D01*
X170140301Y-62963327D01*
X170373690Y-63060000D01*
X170626309Y-63060000D01*
X170949722Y-63060000D01*
X171000000Y-63070001D01*
X171050277Y-63060000D01*
X171626309Y-63060000D01*
X171859698Y-62963327D01*
X172038327Y-62784699D01*
X172135000Y-62551310D01*
X172135000Y-62461051D01*
X172493051Y-62103000D01*
X173330000Y-62103000D01*
X173330000Y-64648338D01*
X173163810Y-64579500D01*
X172911191Y-64579500D01*
X171514191Y-64579500D01*
X171280802Y-64676173D01*
X171102173Y-64854801D01*
X171005500Y-65088190D01*
X171005500Y-65340809D01*
X171005500Y-65340990D01*
X170930146Y-65158620D01*
X170555353Y-64783173D01*
X170065413Y-64579732D01*
X169534914Y-64579269D01*
X169044620Y-64781854D01*
X168873000Y-64953175D01*
X168873000Y-62901250D01*
X168873000Y-61927000D01*
X168023750Y-61927000D01*
X167865000Y-62085750D01*
X167865000Y-62298691D01*
X167865000Y-62551310D01*
X167961673Y-62784699D01*
X168140302Y-62963327D01*
X168373691Y-63060000D01*
X168714250Y-63060000D01*
X168873000Y-62901250D01*
X168873000Y-64953175D01*
X168669173Y-65156647D01*
X168528906Y-65494446D01*
X168390146Y-65158620D01*
X168015353Y-64783173D01*
X167525413Y-64579732D01*
X166994914Y-64579269D01*
X166504620Y-64781854D01*
X166129173Y-65156647D01*
X165988906Y-65494446D01*
X165850146Y-65158620D01*
X165475353Y-64783173D01*
X164985413Y-64579732D01*
X164454914Y-64579269D01*
X163964620Y-64781854D01*
X163589173Y-65156647D01*
X163448906Y-65494446D01*
X163310146Y-65158620D01*
X162935353Y-64783173D01*
X162445413Y-64579732D01*
X161914914Y-64579269D01*
X161424620Y-64781854D01*
X161049173Y-65156647D01*
X160845732Y-65646587D01*
X160845269Y-66177086D01*
X161047854Y-66667380D01*
X161422647Y-67042827D01*
X161912587Y-67246268D01*
X162443086Y-67246731D01*
X162933380Y-67044146D01*
X163308827Y-66669353D01*
X163449093Y-66331553D01*
X163587854Y-66667380D01*
X163962647Y-67042827D01*
X164452587Y-67246268D01*
X164983086Y-67246731D01*
X165473380Y-67044146D01*
X165848827Y-66669353D01*
X165989093Y-66331553D01*
X166127854Y-66667380D01*
X166502647Y-67042827D01*
X166992587Y-67246268D01*
X167523086Y-67246731D01*
X168013380Y-67044146D01*
X168388827Y-66669353D01*
X168529093Y-66331553D01*
X168667854Y-66667380D01*
X169042647Y-67042827D01*
X169532587Y-67246268D01*
X170063086Y-67246731D01*
X170553380Y-67044146D01*
X170928827Y-66669353D01*
X171005500Y-66484704D01*
X171005500Y-66737809D01*
X171102173Y-66971198D01*
X171280801Y-67149827D01*
X171514190Y-67246500D01*
X171766809Y-67246500D01*
X173163809Y-67246500D01*
X173330000Y-67177661D01*
X173330000Y-68100000D01*
X173340000Y-68150273D01*
X173340000Y-68726309D01*
X173382950Y-68830000D01*
X165638000Y-68830000D01*
X165151992Y-68926673D01*
X164739974Y-69201974D01*
X164739971Y-69201977D01*
X163820974Y-70120974D01*
X163545673Y-70532992D01*
X163448999Y-71019000D01*
X163449000Y-71019005D01*
X163449000Y-73114220D01*
X163448906Y-73114446D01*
X163310146Y-72778620D01*
X162935353Y-72403173D01*
X162445413Y-72199732D01*
X162427039Y-72199715D01*
X162514622Y-72112286D01*
X162679313Y-71715668D01*
X162679687Y-71286216D01*
X162515689Y-70889311D01*
X162212286Y-70585378D01*
X161815668Y-70420687D01*
X161386216Y-70420313D01*
X160989311Y-70584311D01*
X160685378Y-70887714D01*
X160520687Y-71284332D01*
X160520654Y-71322109D01*
X159931764Y-71911000D01*
X157335000Y-71911000D01*
X157335000Y-59176310D01*
X157335000Y-58923691D01*
X157335000Y-58685750D01*
X157176250Y-58527000D01*
X156477000Y-58527000D01*
X156477000Y-59526250D01*
X156635750Y-59685000D01*
X156826309Y-59685000D01*
X157059698Y-59588327D01*
X157238327Y-59409699D01*
X157335000Y-59176310D01*
X157335000Y-71911000D01*
X156335000Y-71911000D01*
X156335000Y-63976310D01*
X156335000Y-63723691D01*
X156335000Y-63485750D01*
X156335000Y-62914250D01*
X156335000Y-62676309D01*
X156335000Y-62423690D01*
X156238327Y-62190301D01*
X156059698Y-62011673D01*
X155826309Y-61915000D01*
X155635750Y-61915000D01*
X155477000Y-62073750D01*
X155477000Y-63073000D01*
X156176250Y-63073000D01*
X156335000Y-62914250D01*
X156335000Y-63485750D01*
X156176250Y-63327000D01*
X155477000Y-63327000D01*
X155477000Y-64326250D01*
X155635750Y-64485000D01*
X155826309Y-64485000D01*
X156059698Y-64388327D01*
X156238327Y-64209699D01*
X156335000Y-63976310D01*
X156335000Y-71911000D01*
X149072340Y-71911000D01*
X149072340Y-68952869D01*
X149045553Y-68372465D01*
X148874976Y-67960656D01*
X148626215Y-67883390D01*
X148446610Y-68062995D01*
X148446610Y-67703785D01*
X148369344Y-67455024D01*
X147822869Y-67257660D01*
X147242465Y-67284447D01*
X146830656Y-67455024D01*
X146753390Y-67703785D01*
X147600000Y-68550395D01*
X148446610Y-67703785D01*
X148446610Y-68062995D01*
X147779605Y-68730000D01*
X148626215Y-69576610D01*
X148874976Y-69499344D01*
X149072340Y-68952869D01*
X149072340Y-71911000D01*
X149060500Y-71911000D01*
X149060500Y-70318191D01*
X148963827Y-70084802D01*
X148785199Y-69906173D01*
X148551810Y-69809500D01*
X148430059Y-69809500D01*
X148446610Y-69756215D01*
X147600000Y-68909605D01*
X147420395Y-69089210D01*
X147420395Y-68730000D01*
X146573785Y-67883390D01*
X146325024Y-67960656D01*
X146127660Y-68507131D01*
X146154447Y-69087535D01*
X146325024Y-69499344D01*
X146573785Y-69576610D01*
X147420395Y-68730000D01*
X147420395Y-69089210D01*
X146753390Y-69756215D01*
X146769940Y-69809500D01*
X146648191Y-69809500D01*
X146414802Y-69906173D01*
X146236173Y-70084801D01*
X146139500Y-70318190D01*
X146139500Y-70570809D01*
X146139500Y-71911000D01*
X145289000Y-71911000D01*
X145289000Y-66898203D01*
X145484332Y-66979313D01*
X145913784Y-66979687D01*
X146310689Y-66815689D01*
X146614622Y-66512286D01*
X146779313Y-66115668D01*
X146779687Y-65686216D01*
X146685000Y-65457056D01*
X146685000Y-65276300D01*
X146949309Y-65276300D01*
X147182698Y-65179627D01*
X147361327Y-65000999D01*
X147458000Y-64767610D01*
X147458000Y-64514991D01*
X147458000Y-64245567D01*
X147586357Y-64555448D01*
X147842841Y-64641854D01*
X148743395Y-63741300D01*
X147842841Y-62840746D01*
X147586357Y-62927152D01*
X147458000Y-63277988D01*
X147458000Y-62714991D01*
X147361327Y-62481602D01*
X147182699Y-62302973D01*
X147076325Y-62258911D01*
X147223551Y-62111943D01*
X147423202Y-61631128D01*
X147620932Y-62109671D01*
X148052357Y-62541851D01*
X148061372Y-62545594D01*
X148022446Y-62661141D01*
X148923000Y-63561695D01*
X149823554Y-62661141D01*
X149784793Y-62546085D01*
X149791371Y-62543368D01*
X150223551Y-62111943D01*
X150457733Y-61547970D01*
X150458265Y-60937309D01*
X150436423Y-60884448D01*
X150590301Y-61038327D01*
X150823690Y-61135000D01*
X150838000Y-61135000D01*
X150838000Y-62200000D01*
X150896004Y-62491605D01*
X151061185Y-62738815D01*
X152061185Y-63738816D01*
X152308395Y-63903996D01*
X152308396Y-63903997D01*
X152316717Y-63905652D01*
X151084369Y-65138000D01*
X150469458Y-65138000D01*
X150469458Y-63981964D01*
X150443839Y-63371840D01*
X150259643Y-62927152D01*
X150003159Y-62840746D01*
X149102605Y-63741300D01*
X150003159Y-64641854D01*
X150259643Y-64555448D01*
X150469458Y-63981964D01*
X150469458Y-65138000D01*
X149592157Y-65138000D01*
X149737148Y-65077943D01*
X149823554Y-64821459D01*
X148923000Y-63920905D01*
X148022446Y-64821459D01*
X148054337Y-64916123D01*
X147889311Y-64984311D01*
X147585378Y-65287714D01*
X147420687Y-65684332D01*
X147420313Y-66113784D01*
X147584311Y-66510689D01*
X147887714Y-66814622D01*
X148284332Y-66979313D01*
X148713784Y-66979687D01*
X149110689Y-66815689D01*
X149264646Y-66662000D01*
X151400000Y-66662000D01*
X151400000Y-66661999D01*
X151691604Y-66603996D01*
X151691605Y-66603996D01*
X151938815Y-66438815D01*
X153892630Y-64485000D01*
X153926309Y-64485000D01*
X154159698Y-64388327D01*
X154338327Y-64209699D01*
X154400000Y-64060807D01*
X154461673Y-64209699D01*
X154640302Y-64388327D01*
X154873691Y-64485000D01*
X155064250Y-64485000D01*
X155223000Y-64326250D01*
X155223000Y-63327000D01*
X155203000Y-63327000D01*
X155203000Y-63073000D01*
X155223000Y-63073000D01*
X155223000Y-62073750D01*
X155064250Y-61915000D01*
X154873691Y-61915000D01*
X154640302Y-62011673D01*
X154461673Y-62190301D01*
X154399999Y-62339193D01*
X154338327Y-62190302D01*
X154159699Y-62011673D01*
X153926310Y-61915000D01*
X153673691Y-61915000D01*
X152973691Y-61915000D01*
X152740302Y-62011673D01*
X152614802Y-62137171D01*
X152362000Y-61884369D01*
X152362000Y-61135000D01*
X152376309Y-61135000D01*
X152609698Y-61038327D01*
X152788327Y-60859699D01*
X152885000Y-60626310D01*
X152885000Y-60373691D01*
X152885000Y-59673691D01*
X152788327Y-59440302D01*
X152609699Y-59261673D01*
X152460806Y-59199999D01*
X152609698Y-59138327D01*
X152736025Y-59012000D01*
X153465000Y-59012000D01*
X153465000Y-59176309D01*
X153561673Y-59409698D01*
X153740301Y-59588327D01*
X153973690Y-59685000D01*
X154226309Y-59685000D01*
X154926309Y-59685000D01*
X155159698Y-59588327D01*
X155338327Y-59409699D01*
X155400000Y-59260807D01*
X155461673Y-59409699D01*
X155640302Y-59588327D01*
X155873691Y-59685000D01*
X156064250Y-59685000D01*
X156223000Y-59526250D01*
X156223000Y-58527000D01*
X156203000Y-58527000D01*
X156203000Y-58273000D01*
X156223000Y-58273000D01*
X156223000Y-58253000D01*
X156477000Y-58253000D01*
X156477000Y-58273000D01*
X157176250Y-58273000D01*
X157335000Y-58114250D01*
X157335000Y-57876309D01*
X157335000Y-57775780D01*
X157584332Y-57879313D01*
X158013784Y-57879687D01*
X158410689Y-57715689D01*
X158714622Y-57412286D01*
X158845352Y-57097453D01*
X158931453Y-57133206D01*
X159096297Y-57133349D01*
X160907600Y-58944652D01*
X160907600Y-58980809D01*
X160969397Y-59130000D01*
X159945000Y-59130000D01*
X159458992Y-59226673D01*
X159121183Y-59452389D01*
X158934306Y-59452226D01*
X158333345Y-59700538D01*
X157873154Y-60159927D01*
X157623794Y-60760453D01*
X157623226Y-61410694D01*
X157871538Y-62011655D01*
X158330927Y-62471846D01*
X158931453Y-62721206D01*
X159581694Y-62721774D01*
X160182655Y-62473462D01*
X160642846Y-62014073D01*
X160785717Y-61670000D01*
X167199994Y-61670000D01*
X167200000Y-61670001D01*
X167200000Y-61670000D01*
X167686008Y-61573327D01*
X167865000Y-61453728D01*
X167865000Y-61514250D01*
X168023750Y-61673000D01*
X168873000Y-61673000D01*
X168873000Y-60698750D01*
X168785151Y-60610901D01*
X172881052Y-56515000D01*
X173281705Y-56515000D01*
X173281706Y-56515000D01*
X173324673Y-56731008D01*
X173599974Y-57143026D01*
X175411000Y-58954051D01*
X175411000Y-59044309D01*
X175507673Y-59277698D01*
X175686301Y-59456327D01*
X175919690Y-59553000D01*
X176172309Y-59553000D01*
X176495726Y-59553000D01*
X176546000Y-59563000D01*
X176596273Y-59553000D01*
X177172309Y-59553000D01*
X177405698Y-59456327D01*
X177546000Y-59316025D01*
X177686302Y-59456327D01*
X177919691Y-59553000D01*
X178260250Y-59553000D01*
X178419000Y-59394250D01*
X178419000Y-58420000D01*
X178399000Y-58420000D01*
X178399000Y-58166000D01*
X178419000Y-58166000D01*
X178419000Y-57191750D01*
X178260250Y-57033000D01*
X177919691Y-57033000D01*
X177686302Y-57129673D01*
X177560000Y-57255973D01*
X177560000Y-41226309D01*
X177560000Y-40885750D01*
X177401250Y-40727000D01*
X176427000Y-40727000D01*
X176427000Y-41576250D01*
X176585750Y-41735000D01*
X176798691Y-41735000D01*
X177051310Y-41735000D01*
X177284699Y-41638327D01*
X177463327Y-41459698D01*
X177560000Y-41226309D01*
X177560000Y-57255973D01*
X177545999Y-57269974D01*
X177405699Y-57129673D01*
X177172310Y-57033000D01*
X177082051Y-57033000D01*
X176173000Y-56123948D01*
X176173000Y-41576250D01*
X176173000Y-40727000D01*
X175198750Y-40727000D01*
X175040000Y-40885750D01*
X175040000Y-41226309D01*
X175136673Y-41459698D01*
X175315301Y-41638327D01*
X175548690Y-41735000D01*
X175801309Y-41735000D01*
X176014250Y-41735000D01*
X176173000Y-41576250D01*
X176173000Y-56123948D01*
X175982098Y-55933046D01*
X176132206Y-55571547D01*
X176132774Y-54921306D01*
X175884462Y-54320345D01*
X175425073Y-53860154D01*
X174824547Y-53610794D01*
X174560000Y-53610562D01*
X174560000Y-41226309D01*
X174560000Y-40885750D01*
X174401250Y-40727000D01*
X173427000Y-40727000D01*
X173427000Y-41576250D01*
X173585750Y-41735000D01*
X173798691Y-41735000D01*
X174051310Y-41735000D01*
X174284699Y-41638327D01*
X174463327Y-41459698D01*
X174560000Y-41226309D01*
X174560000Y-53610562D01*
X174174306Y-53610226D01*
X173573345Y-53858538D01*
X173456679Y-53975000D01*
X173173000Y-53975000D01*
X173173000Y-41576250D01*
X173173000Y-40727000D01*
X172198750Y-40727000D01*
X172040000Y-40885750D01*
X172040000Y-41226309D01*
X172136673Y-41459698D01*
X172315301Y-41638327D01*
X172548690Y-41735000D01*
X172801309Y-41735000D01*
X173014250Y-41735000D01*
X173173000Y-41576250D01*
X173173000Y-53975000D01*
X172355005Y-53975000D01*
X172355000Y-53974999D01*
X171868992Y-54071673D01*
X171484680Y-54328461D01*
X171484680Y-43051069D01*
X171484680Y-42235150D01*
X171325930Y-42076400D01*
X169727000Y-42076400D01*
X169727000Y-43401010D01*
X169885750Y-43559760D01*
X170723371Y-43559760D01*
X170975990Y-43559760D01*
X171209379Y-43463087D01*
X171388007Y-43284458D01*
X171484680Y-43051069D01*
X171484680Y-54328461D01*
X171456974Y-54346974D01*
X169473000Y-56330948D01*
X169473000Y-43401010D01*
X169473000Y-42076400D01*
X167874070Y-42076400D01*
X167715320Y-42235150D01*
X167715320Y-43051069D01*
X167811993Y-43284458D01*
X167990621Y-43463087D01*
X168224010Y-43559760D01*
X168476629Y-43559760D01*
X169314250Y-43559760D01*
X169473000Y-43401010D01*
X169473000Y-56330948D01*
X166673948Y-59130000D01*
X165367030Y-59130000D01*
X165367030Y-46822035D01*
X165077622Y-46121614D01*
X164731700Y-45775087D01*
X164731700Y-44048598D01*
X164960039Y-43498698D01*
X164960559Y-42902518D01*
X164732892Y-42351520D01*
X164311697Y-41929590D01*
X163761098Y-41700961D01*
X163164918Y-41700441D01*
X162613920Y-41928108D01*
X162612725Y-41929300D01*
X153725352Y-41929300D01*
X152623520Y-40827468D01*
X152623520Y-40532663D01*
X152633620Y-40517548D01*
X152635469Y-40508247D01*
X152662021Y-40597957D01*
X153003576Y-41019938D01*
X153480617Y-41279090D01*
X153552245Y-41293273D01*
X153766520Y-41170619D01*
X153766520Y-39578280D01*
X153746520Y-39578280D01*
X153746520Y-39324280D01*
X153766520Y-39324280D01*
X153766520Y-37731941D01*
X153552245Y-37609287D01*
X153480617Y-37623470D01*
X153003576Y-37882622D01*
X152662021Y-38304603D01*
X152635469Y-38394312D01*
X152633620Y-38385012D01*
X152333266Y-37935501D01*
X151883755Y-37635147D01*
X151516019Y-37562000D01*
X155284369Y-37562000D01*
X155576120Y-37853751D01*
X155453774Y-37935501D01*
X155153420Y-38385012D01*
X155151570Y-38394312D01*
X155125019Y-38304603D01*
X154783464Y-37882622D01*
X154306423Y-37623470D01*
X154234795Y-37609287D01*
X154020520Y-37731941D01*
X154020520Y-39324280D01*
X154040520Y-39324280D01*
X154040520Y-39578280D01*
X154020520Y-39578280D01*
X154020520Y-41170619D01*
X154234795Y-41293273D01*
X154306423Y-41279090D01*
X154783464Y-41019938D01*
X155125019Y-40597957D01*
X155151570Y-40508247D01*
X155153420Y-40517548D01*
X155453774Y-40967059D01*
X155903285Y-41267413D01*
X156433520Y-41372883D01*
X156963755Y-41267413D01*
X157413266Y-40967059D01*
X157713620Y-40517548D01*
X157819090Y-39987313D01*
X157819090Y-38915247D01*
X157713620Y-38385012D01*
X157413266Y-37935501D01*
X157195520Y-37790007D01*
X157195520Y-37633520D01*
X157137516Y-37341915D01*
X156972335Y-37094705D01*
X156972335Y-37094704D01*
X156138815Y-36261185D01*
X155891605Y-36096004D01*
X155600000Y-36038000D01*
X141800000Y-36038000D01*
X141508395Y-36096004D01*
X141261184Y-36261185D01*
X140861185Y-36661185D01*
X140696004Y-36908395D01*
X140638000Y-37200000D01*
X140638000Y-56600000D01*
X140696004Y-56891605D01*
X140861185Y-57138815D01*
X141108395Y-57303996D01*
X141108396Y-57303996D01*
X141400000Y-57362000D01*
X141400000Y-57361999D01*
X141557848Y-57330601D01*
X141540000Y-57373691D01*
X141540000Y-57714250D01*
X141698750Y-57873000D01*
X142673000Y-57873000D01*
X142673000Y-57853000D01*
X142927000Y-57853000D01*
X142927000Y-57873000D01*
X143901250Y-57873000D01*
X144060000Y-57714250D01*
X144060000Y-57373691D01*
X143972314Y-57162000D01*
X145400000Y-57162000D01*
X145400000Y-57161999D01*
X145691604Y-57103996D01*
X145691605Y-57103996D01*
X145938815Y-56938815D01*
X146138815Y-56738815D01*
X146138816Y-56738815D01*
X146237834Y-56590623D01*
X146303996Y-56491605D01*
X146303996Y-56491604D01*
X146362000Y-56200000D01*
X146362000Y-43564641D01*
X146514622Y-43412286D01*
X146679313Y-43015668D01*
X146679687Y-42586216D01*
X146515689Y-42189311D01*
X146212286Y-41885378D01*
X145815668Y-41720687D01*
X145386216Y-41720313D01*
X144989311Y-41884311D01*
X144685378Y-42187714D01*
X144520687Y-42584332D01*
X144520313Y-43013784D01*
X144684311Y-43410689D01*
X144838000Y-43564646D01*
X144838000Y-55638000D01*
X142162000Y-55638000D01*
X142162000Y-37562000D01*
X151191020Y-37562000D01*
X150823285Y-37635147D01*
X150373774Y-37935501D01*
X150073420Y-38385012D01*
X149967950Y-38915247D01*
X149967950Y-39987313D01*
X150073420Y-40517548D01*
X150083520Y-40532663D01*
X150083520Y-41353514D01*
X150083519Y-41353520D01*
X150180193Y-41839528D01*
X150455494Y-42251546D01*
X152301274Y-44097326D01*
X152713292Y-44372627D01*
X153199300Y-44469300D01*
X162191700Y-44469300D01*
X162191700Y-45775356D01*
X161847661Y-46118795D01*
X161557032Y-46818710D01*
X161556370Y-47576565D01*
X161845778Y-48276986D01*
X162381195Y-48813339D01*
X163081110Y-49103968D01*
X163838965Y-49104630D01*
X164539386Y-48815222D01*
X165075739Y-48279805D01*
X165366368Y-47579890D01*
X165367030Y-46822035D01*
X165367030Y-59130000D01*
X165115803Y-59130000D01*
X165177600Y-58980810D01*
X165177600Y-58728191D01*
X165177600Y-58515250D01*
X165177600Y-57943750D01*
X165177600Y-57730809D01*
X165177600Y-57478190D01*
X165080927Y-57244801D01*
X164902298Y-57066173D01*
X164668909Y-56969500D01*
X164328350Y-56969500D01*
X164169600Y-57128250D01*
X164169600Y-58102500D01*
X165018850Y-58102500D01*
X165177600Y-57943750D01*
X165177600Y-58515250D01*
X165018850Y-58356500D01*
X164169600Y-58356500D01*
X164169600Y-58376500D01*
X163915600Y-58376500D01*
X163915600Y-58356500D01*
X163895600Y-58356500D01*
X163895600Y-58102500D01*
X163915600Y-58102500D01*
X163915600Y-57128250D01*
X163756850Y-56969500D01*
X163416291Y-56969500D01*
X163182902Y-57066173D01*
X163042599Y-57206474D01*
X162902299Y-57066173D01*
X162668910Y-56969500D01*
X162524551Y-56969500D01*
X161006051Y-55450999D01*
X163759180Y-52697870D01*
X164309480Y-52470492D01*
X164731410Y-52049297D01*
X164960039Y-51498698D01*
X164960559Y-50902518D01*
X164732892Y-50351520D01*
X164311697Y-49929590D01*
X163761098Y-49700961D01*
X163164918Y-49700441D01*
X162613920Y-49928108D01*
X162191990Y-50349303D01*
X161963361Y-50899902D01*
X161963359Y-50901589D01*
X159000664Y-53864283D01*
X158934306Y-53864226D01*
X158333345Y-54112538D01*
X157873154Y-54571927D01*
X157735370Y-54903747D01*
X157735370Y-48180177D01*
X157183180Y-46843775D01*
X156161603Y-45820414D01*
X154826166Y-45265892D01*
X153380177Y-45264630D01*
X152043775Y-45816820D01*
X151020414Y-46838397D01*
X150465892Y-48173834D01*
X150464630Y-49619823D01*
X151016820Y-50956225D01*
X152038397Y-51979586D01*
X153373834Y-52534108D01*
X154819823Y-52535370D01*
X156156225Y-51983180D01*
X157179586Y-50961603D01*
X157734108Y-49626166D01*
X157735370Y-48180177D01*
X157735370Y-54903747D01*
X157623794Y-55172453D01*
X157623315Y-55720345D01*
X157586216Y-55720313D01*
X157189311Y-55884311D01*
X157035353Y-56038000D01*
X153964641Y-56038000D01*
X153812286Y-55885378D01*
X153415668Y-55720687D01*
X152986216Y-55720313D01*
X152589311Y-55884311D01*
X152362000Y-56111225D01*
X152362000Y-55818445D01*
X152610689Y-55715689D01*
X152914622Y-55412286D01*
X153079313Y-55015668D01*
X153079687Y-54586216D01*
X152915689Y-54189311D01*
X152612286Y-53885378D01*
X152215668Y-53720687D01*
X151786216Y-53720313D01*
X151389311Y-53884311D01*
X151085378Y-54187714D01*
X150920687Y-54584332D01*
X150920436Y-54871829D01*
X150896004Y-54908395D01*
X150838000Y-55200000D01*
X150838000Y-57265000D01*
X150823691Y-57265000D01*
X150590302Y-57361673D01*
X150411673Y-57540301D01*
X150315000Y-57773690D01*
X150315000Y-58026309D01*
X150315000Y-58090581D01*
X150225068Y-57872929D01*
X149793643Y-57440749D01*
X149229670Y-57206567D01*
X148619009Y-57206035D01*
X148054629Y-57439232D01*
X147622449Y-57870657D01*
X147422797Y-58351471D01*
X147225068Y-57872929D01*
X146793643Y-57440749D01*
X146229670Y-57206567D01*
X145619009Y-57206035D01*
X145054629Y-57439232D01*
X144622449Y-57870657D01*
X144388267Y-58434630D01*
X144387735Y-59045291D01*
X144467360Y-59238000D01*
X144003794Y-59238000D01*
X143963327Y-59140302D01*
X143823025Y-59000000D01*
X143963327Y-58859698D01*
X144060000Y-58626309D01*
X144060000Y-58285750D01*
X143901250Y-58127000D01*
X142927000Y-58127000D01*
X142927000Y-58147000D01*
X142673000Y-58147000D01*
X142673000Y-58127000D01*
X141698750Y-58127000D01*
X141540000Y-58285750D01*
X141540000Y-58626309D01*
X141636673Y-58859698D01*
X141776974Y-59000000D01*
X141636673Y-59140301D01*
X141540000Y-59373690D01*
X141540000Y-59626309D01*
X141540000Y-60626309D01*
X141599445Y-60769821D01*
X141515000Y-60973690D01*
X141515000Y-61226309D01*
X141515000Y-61926309D01*
X141611673Y-62159698D01*
X141790301Y-62338327D01*
X141939193Y-62400000D01*
X141790302Y-62461673D01*
X141611673Y-62640301D01*
X141515000Y-62873690D01*
X141515000Y-63126309D01*
X141515000Y-63214262D01*
X141488000Y-63350000D01*
X141515000Y-63485737D01*
X141515000Y-63761933D01*
X141415668Y-63720687D01*
X140986216Y-63720313D01*
X140946458Y-63736740D01*
X140946458Y-60040664D01*
X140920839Y-59430540D01*
X140736643Y-58985852D01*
X140480159Y-58899446D01*
X140300554Y-59079051D01*
X140300554Y-58719841D01*
X140214148Y-58463357D01*
X139640664Y-58253542D01*
X139030540Y-58279161D01*
X139009144Y-58288023D01*
X139009144Y-45527698D01*
X138981362Y-44972632D01*
X138822397Y-44588857D01*
X138580213Y-44519392D01*
X138400608Y-44698997D01*
X138400608Y-44339787D01*
X138331143Y-44097603D01*
X137807698Y-43910856D01*
X137252632Y-43938638D01*
X137235707Y-43945648D01*
X137235707Y-38878116D01*
X136835359Y-37909201D01*
X136094698Y-37167246D01*
X135126483Y-36765208D01*
X134078116Y-36764293D01*
X133109201Y-37164641D01*
X132367246Y-37905302D01*
X131965208Y-38873517D01*
X131964293Y-39921884D01*
X132364641Y-40890799D01*
X133105302Y-41632754D01*
X134073517Y-42034792D01*
X135121884Y-42035707D01*
X136090799Y-41635359D01*
X136832754Y-40894698D01*
X137234792Y-39926483D01*
X137235707Y-38878116D01*
X137235707Y-43945648D01*
X136868857Y-44097603D01*
X136799392Y-44339787D01*
X137600000Y-45140395D01*
X138400608Y-44339787D01*
X138400608Y-44698997D01*
X137779605Y-45320000D01*
X138580213Y-46120608D01*
X138822397Y-46051143D01*
X139009144Y-45527698D01*
X139009144Y-58288023D01*
X138997242Y-58292953D01*
X138997242Y-50123339D01*
X138785010Y-49609697D01*
X138392370Y-49216371D01*
X138184487Y-49130050D01*
X138390303Y-49045010D01*
X138783629Y-48652370D01*
X138996757Y-48139100D01*
X138997242Y-47583339D01*
X138785010Y-47069697D01*
X138392370Y-46676371D01*
X138200272Y-46596605D01*
X138331143Y-46542397D01*
X138400608Y-46300213D01*
X137600000Y-45499605D01*
X137420395Y-45679210D01*
X137420395Y-45320000D01*
X136619787Y-44519392D01*
X136377603Y-44588857D01*
X136190856Y-45112302D01*
X136218638Y-45667368D01*
X136377603Y-46051143D01*
X136619787Y-46120608D01*
X137420395Y-45320000D01*
X137420395Y-45679210D01*
X136799392Y-46300213D01*
X136868857Y-46542397D01*
X137009317Y-46592508D01*
X136809697Y-46674990D01*
X136416371Y-47067630D01*
X136262580Y-47438000D01*
X134203794Y-47438000D01*
X134163327Y-47340302D01*
X134023025Y-47200000D01*
X134163327Y-47059698D01*
X134260000Y-46826309D01*
X134260000Y-46485750D01*
X134260000Y-45914250D01*
X134260000Y-45573691D01*
X134163327Y-45340302D01*
X133984699Y-45161673D01*
X133751310Y-45065000D01*
X133498691Y-45065000D01*
X133285750Y-45065000D01*
X133127000Y-45223750D01*
X133127000Y-46073000D01*
X134101250Y-46073000D01*
X134260000Y-45914250D01*
X134260000Y-46485750D01*
X134101250Y-46327000D01*
X133127000Y-46327000D01*
X133127000Y-46347000D01*
X132873000Y-46347000D01*
X132873000Y-46327000D01*
X132873000Y-46073000D01*
X132873000Y-45223750D01*
X132714250Y-45065000D01*
X132501309Y-45065000D01*
X132248690Y-45065000D01*
X132015301Y-45161673D01*
X131836673Y-45340302D01*
X131740000Y-45573691D01*
X131740000Y-45914250D01*
X131898750Y-46073000D01*
X132873000Y-46073000D01*
X132873000Y-46327000D01*
X131898750Y-46327000D01*
X131740000Y-46485750D01*
X131740000Y-46826309D01*
X131836673Y-47059698D01*
X131976974Y-47200000D01*
X131836673Y-47340301D01*
X131740000Y-47573690D01*
X131740000Y-47826309D01*
X131740000Y-48826309D01*
X131836673Y-49059698D01*
X132015301Y-49238327D01*
X132248690Y-49335000D01*
X132501309Y-49335000D01*
X133751309Y-49335000D01*
X133984698Y-49238327D01*
X134163327Y-49059699D01*
X134203795Y-48962000D01*
X136726143Y-48962000D01*
X136807630Y-49043629D01*
X137015512Y-49129949D01*
X136809697Y-49214990D01*
X136416371Y-49607630D01*
X136203243Y-50120900D01*
X136202758Y-50676661D01*
X136414990Y-51190303D01*
X136807630Y-51583629D01*
X137320900Y-51796757D01*
X137876661Y-51797242D01*
X138390303Y-51585010D01*
X138783629Y-51192370D01*
X138996757Y-50679100D01*
X138997242Y-50123339D01*
X138997242Y-58292953D01*
X138585852Y-58463357D01*
X138499446Y-58719841D01*
X139400000Y-59620395D01*
X140300554Y-58719841D01*
X140300554Y-59079051D01*
X139579605Y-59800000D01*
X140480159Y-60700554D01*
X140736643Y-60614148D01*
X140946458Y-60040664D01*
X140946458Y-63736740D01*
X140935000Y-63741475D01*
X140935000Y-63573691D01*
X140935000Y-61773691D01*
X140838327Y-61540302D01*
X140659699Y-61361673D01*
X140426310Y-61265000D01*
X140173691Y-61265000D01*
X139904267Y-61265000D01*
X140214148Y-61136643D01*
X140300554Y-60880159D01*
X139400000Y-59979605D01*
X138499446Y-60880159D01*
X138585852Y-61136643D01*
X138936688Y-61265000D01*
X138373691Y-61265000D01*
X138140302Y-61361673D01*
X137961673Y-61540301D01*
X137917611Y-61646674D01*
X137770643Y-61499449D01*
X137289828Y-61299797D01*
X137768371Y-61102068D01*
X138200551Y-60670643D01*
X138204294Y-60661627D01*
X138319841Y-60700554D01*
X139220395Y-59800000D01*
X138319841Y-58899446D01*
X138204785Y-58938206D01*
X138202068Y-58931629D01*
X137770643Y-58499449D01*
X137206670Y-58265267D01*
X136621993Y-58264757D01*
X134596818Y-56239582D01*
X134308406Y-56046871D01*
X133968200Y-55979200D01*
X130600000Y-55979200D01*
X130442360Y-55979200D01*
X130446261Y-55021458D01*
X130534852Y-54807583D01*
X130534853Y-54807582D01*
X130607167Y-54444033D01*
X130607166Y-54430503D01*
X130619560Y-54368200D01*
X130619560Y-53682038D01*
X130632857Y-53662138D01*
X130685000Y-53400000D01*
X130685000Y-35685000D01*
X193715000Y-35685000D01*
X193715000Y-61342323D01*
X193252758Y-60879274D01*
X192635707Y-60623052D01*
X192635707Y-38878116D01*
X192235359Y-37909201D01*
X191494698Y-37167246D01*
X190526483Y-36765208D01*
X189478116Y-36764293D01*
X188509201Y-37164641D01*
X187767246Y-37905302D01*
X187365208Y-38873517D01*
X187364293Y-39921884D01*
X187764641Y-40890799D01*
X188505302Y-41632754D01*
X189473517Y-42034792D01*
X190521884Y-42035707D01*
X191490799Y-41635359D01*
X192232754Y-40894698D01*
X192634792Y-39926483D01*
X192635707Y-38878116D01*
X192635707Y-60623052D01*
X192376487Y-60515415D01*
X191427675Y-60514587D01*
X190550771Y-60876916D01*
X189879274Y-61547242D01*
X189515415Y-62423513D01*
X189514587Y-63372325D01*
X189876916Y-64249229D01*
X190547242Y-64920726D01*
X190630000Y-64955090D01*
X190630000Y-68444179D01*
X190550771Y-68476916D01*
X189879274Y-69147242D01*
X189515415Y-70023513D01*
X189514587Y-70972325D01*
X189876916Y-71849229D01*
X190547242Y-72520726D01*
X190630000Y-72555090D01*
X190630000Y-73373948D01*
X190573948Y-73430000D01*
X189758827Y-73430000D01*
X189543489Y-73286115D01*
X188970000Y-73172041D01*
X188396511Y-73286115D01*
X187910330Y-73610971D01*
X187896263Y-73632023D01*
X187831927Y-73476702D01*
X187653299Y-73298073D01*
X187419910Y-73201400D01*
X187167291Y-73201400D01*
X186715750Y-73201400D01*
X186579687Y-73337463D01*
X186579687Y-59686216D01*
X186415689Y-59289311D01*
X186112286Y-58985378D01*
X186034774Y-58953192D01*
X186034774Y-44975766D01*
X186034774Y-38376846D01*
X185786462Y-37775885D01*
X185327073Y-37315694D01*
X184726547Y-37066334D01*
X184076306Y-37065766D01*
X183475345Y-37314078D01*
X183141340Y-37647500D01*
X180070525Y-37647500D01*
X179984699Y-37561673D01*
X179751310Y-37465000D01*
X179498691Y-37465000D01*
X178248691Y-37465000D01*
X178015302Y-37561673D01*
X177929474Y-37647500D01*
X177370525Y-37647500D01*
X177284699Y-37561673D01*
X177051310Y-37465000D01*
X176798691Y-37465000D01*
X175548691Y-37465000D01*
X175315302Y-37561673D01*
X175229474Y-37647500D01*
X174370525Y-37647500D01*
X174284699Y-37561673D01*
X174051310Y-37465000D01*
X173798691Y-37465000D01*
X172548691Y-37465000D01*
X172315302Y-37561673D01*
X172136673Y-37740301D01*
X172071310Y-37898100D01*
X171484680Y-37898100D01*
X171484680Y-37748931D01*
X171388007Y-37515542D01*
X171209379Y-37336913D01*
X170975990Y-37240240D01*
X170723371Y-37240240D01*
X168224011Y-37240240D01*
X167990622Y-37336913D01*
X167811993Y-37515541D01*
X167715320Y-37748930D01*
X167715320Y-38001549D01*
X167715320Y-38246800D01*
X165129347Y-38246800D01*
X165077622Y-38121614D01*
X164542205Y-37585261D01*
X163842290Y-37294632D01*
X163084435Y-37293970D01*
X162384014Y-37583378D01*
X161847661Y-38118795D01*
X161557032Y-38818710D01*
X161556370Y-39576565D01*
X161845778Y-40276986D01*
X162381195Y-40813339D01*
X163081110Y-41103968D01*
X163838965Y-41104630D01*
X164539386Y-40815222D01*
X165075739Y-40279805D01*
X165128891Y-40151800D01*
X167797968Y-40151800D01*
X167811993Y-40185658D01*
X167990621Y-40364287D01*
X168076839Y-40400000D01*
X167990621Y-40435713D01*
X167811993Y-40614342D01*
X167715320Y-40847731D01*
X167715320Y-41663650D01*
X167874070Y-41822400D01*
X169473000Y-41822400D01*
X169473000Y-41802400D01*
X169727000Y-41802400D01*
X169727000Y-41822400D01*
X171325930Y-41822400D01*
X171484680Y-41663650D01*
X171484680Y-40847731D01*
X171388007Y-40614342D01*
X171209379Y-40435713D01*
X171123159Y-40399999D01*
X171209378Y-40364287D01*
X171388007Y-40185659D01*
X171484680Y-39952270D01*
X171484680Y-39803100D01*
X172110661Y-39803100D01*
X172040000Y-39973691D01*
X172040000Y-40314250D01*
X172198750Y-40473000D01*
X173173000Y-40473000D01*
X173173000Y-40453000D01*
X173427000Y-40453000D01*
X173427000Y-40473000D01*
X174401250Y-40473000D01*
X174560000Y-40314250D01*
X174560000Y-39973691D01*
X174463327Y-39740302D01*
X174323025Y-39599999D01*
X174370525Y-39552500D01*
X175229474Y-39552500D01*
X175276974Y-39600000D01*
X175136673Y-39740302D01*
X175040000Y-39973691D01*
X175040000Y-40314250D01*
X175198750Y-40473000D01*
X176173000Y-40473000D01*
X176173000Y-40453000D01*
X176427000Y-40453000D01*
X176427000Y-40473000D01*
X177401250Y-40473000D01*
X177560000Y-40314250D01*
X177560000Y-39973691D01*
X177463327Y-39740302D01*
X177323025Y-39599999D01*
X177370525Y-39552500D01*
X177929474Y-39552500D01*
X177976974Y-39600000D01*
X177836673Y-39740302D01*
X177740000Y-39973691D01*
X177740000Y-40314250D01*
X177898750Y-40473000D01*
X178873000Y-40473000D01*
X178873000Y-40453000D01*
X179127000Y-40453000D01*
X179127000Y-40473000D01*
X180101250Y-40473000D01*
X180260000Y-40314250D01*
X180260000Y-39973691D01*
X180163327Y-39740302D01*
X180023025Y-39599999D01*
X180070525Y-39552500D01*
X182983501Y-39552500D01*
X183013538Y-39625195D01*
X183472927Y-40085386D01*
X184073453Y-40334746D01*
X184723694Y-40335314D01*
X185324655Y-40087002D01*
X185784846Y-39627613D01*
X186034206Y-39027087D01*
X186034774Y-38376846D01*
X186034774Y-44975766D01*
X185786462Y-44374805D01*
X185327073Y-43914614D01*
X184726547Y-43665254D01*
X184076306Y-43664686D01*
X183475345Y-43912998D01*
X183015154Y-44372387D01*
X182765794Y-44972913D01*
X182765226Y-45623154D01*
X183013538Y-46224115D01*
X183472927Y-46684306D01*
X184073453Y-46933666D01*
X184723694Y-46934234D01*
X185324655Y-46685922D01*
X185784846Y-46226533D01*
X186034206Y-45626007D01*
X186034774Y-44975766D01*
X186034774Y-58953192D01*
X185715668Y-58820687D01*
X185286216Y-58820313D01*
X184978400Y-58947500D01*
X182321066Y-58947500D01*
X182015668Y-58820687D01*
X181586216Y-58820313D01*
X181189311Y-58984311D01*
X180885378Y-59287714D01*
X180720687Y-59684332D01*
X180720313Y-60113784D01*
X180884311Y-60510689D01*
X181187714Y-60814622D01*
X181584332Y-60979313D01*
X182013784Y-60979687D01*
X182321599Y-60852500D01*
X184978933Y-60852500D01*
X185284332Y-60979313D01*
X185713784Y-60979687D01*
X186110689Y-60815689D01*
X186414622Y-60512286D01*
X186579313Y-60115668D01*
X186579687Y-59686216D01*
X186579687Y-73337463D01*
X186557000Y-73360150D01*
X186557000Y-74573000D01*
X186577000Y-74573000D01*
X186577000Y-74827000D01*
X186557000Y-74827000D01*
X186557000Y-76039850D01*
X186715750Y-76198600D01*
X187167291Y-76198600D01*
X187419910Y-76198600D01*
X187653299Y-76101927D01*
X187831927Y-75923298D01*
X187896263Y-75767976D01*
X187910330Y-75789029D01*
X188396511Y-76113885D01*
X188970000Y-76227959D01*
X189543489Y-76113885D01*
X189758827Y-75970000D01*
X191099994Y-75970000D01*
X191100000Y-75970001D01*
X191100000Y-75970000D01*
X191586008Y-75873327D01*
X191998026Y-75598026D01*
X192798026Y-74798026D01*
X193073327Y-74386008D01*
X193170000Y-73900000D01*
X193170001Y-73900000D01*
X193170000Y-73899994D01*
X193170000Y-72555820D01*
X193249229Y-72523084D01*
X193715000Y-72058125D01*
X193715000Y-84015000D01*
M02*
