%FSLAX46Y46*%
G04 Gerber Fmt 4.6, Leading zero omitted, Abs format (unit mm)*
G04 Created by KiCad (PCBNEW (2014-10-27 BZR 5228)-product) date 13/01/2015 08:32:11*
%MOMM*%
G01*
G04 APERTURE LIST*
%ADD10C,0.100000*%
%ADD11R,1.250000X1.000000*%
%ADD12R,1.000000X1.250000*%
%ADD13R,2.499360X1.950720*%
%ADD14R,1.524000X2.032000*%
%ADD15R,0.599440X1.000760*%
%ADD16R,0.700000X1.300000*%
%ADD17R,1.300000X0.700000*%
G04 APERTURE END LIST*
D10*
D11*
X158800000Y-70200000D03*
X158800000Y-68200000D03*
X136800000Y-72600000D03*
X136800000Y-74600000D03*
X142800000Y-60000000D03*
X142800000Y-58000000D03*
D12*
X152400000Y-83600000D03*
X150400000Y-83600000D03*
D11*
X146800000Y-83600000D03*
X146800000Y-85600000D03*
D12*
X141800000Y-85800000D03*
X143800000Y-85800000D03*
D11*
X146600000Y-90000000D03*
X146600000Y-92000000D03*
D12*
X181200000Y-74600000D03*
X183200000Y-74600000D03*
D11*
X174200000Y-90200000D03*
X174200000Y-92200000D03*
D12*
X184000000Y-83800000D03*
X182000000Y-83800000D03*
D11*
X176800000Y-81800000D03*
X176800000Y-83800000D03*
X147200000Y-47600000D03*
X147200000Y-49600000D03*
D12*
X147600000Y-39800000D03*
X145600000Y-39800000D03*
X165000000Y-57000000D03*
X163000000Y-57000000D03*
D11*
X176600000Y-46800000D03*
X176600000Y-44800000D03*
X180000000Y-46800000D03*
X180000000Y-44800000D03*
X173600000Y-46800000D03*
X173600000Y-44800000D03*
D13*
X168600000Y-47949400D03*
X168600000Y-44850600D03*
D12*
X178546000Y-58293000D03*
X176546000Y-58293000D03*
X169000000Y-61800000D03*
X171000000Y-61800000D03*
D14*
X140949000Y-77000000D03*
X144251000Y-77000000D03*
D15*
X153647500Y-74943360D03*
X154600000Y-77056640D03*
X155552500Y-74943360D03*
D16*
X151550000Y-76800000D03*
X149650000Y-76800000D03*
X158250000Y-72600000D03*
X160150000Y-72600000D03*
D17*
X142800000Y-61450000D03*
X142800000Y-63350000D03*
D16*
X147050000Y-45000000D03*
X148950000Y-45000000D03*
X149550000Y-42600000D03*
X147650000Y-42600000D03*
X155350000Y-63200000D03*
X153450000Y-63200000D03*
D17*
X151600000Y-58250000D03*
X151600000Y-60150000D03*
D16*
X156350000Y-58400000D03*
X154450000Y-58400000D03*
D11*
X151200000Y-72200000D03*
X151200000Y-74200000D03*
D12*
X157200000Y-84400000D03*
X159200000Y-84400000D03*
X153400000Y-72200000D03*
X155400000Y-72200000D03*
D11*
X174600000Y-69300000D03*
X174600000Y-67300000D03*
M02*
