%FSLAX46Y46*%
G04 Gerber Fmt 4.6, Leading zero omitted, Abs format (unit mm)*
G04 Created by KiCad (PCBNEW (2014-10-27 BZR 5228)-product) date 11/01/2015 08:06:02*
%MOMM*%
G01*
G04 APERTURE LIST*
%ADD10C,0.100000*%
%ADD11R,1.250000X1.000000*%
%ADD12R,1.000000X1.250000*%
%ADD13R,1.651000X1.651000*%
%ADD14C,1.651000*%
%ADD15R,4.200000X0.700000*%
%ADD16R,2.032000X1.727200*%
%ADD17O,2.032000X1.727200*%
%ADD18R,1.397000X1.397000*%
%ADD19C,1.397000*%
%ADD20C,1.998980*%
%ADD21C,3.500000*%
%ADD22C,2.000000*%
%ADD23R,1.727200X1.727200*%
%ADD24O,1.727200X1.727200*%
%ADD25R,2.032000X2.032000*%
%ADD26O,2.032000X2.032000*%
%ADD27R,1.000760X0.599440*%
%ADD28R,0.599440X1.000760*%
%ADD29R,0.700000X1.300000*%
%ADD30R,1.300000X0.700000*%
%ADD31R,1.800000X1.800000*%
%ADD32C,1.800000*%
%ADD33C,2.540000*%
%ADD34C,1.727200*%
%ADD35R,1.550000X0.600000*%
%ADD36C,1.524000*%
%ADD37O,1.501140X2.499360*%
%ADD38C,6.350000*%
%ADD39C,0.889000*%
%ADD40C,0.254000*%
%ADD41C,0.635000*%
%ADD42C,1.270000*%
%ADD43C,0.508000*%
G04 APERTURE END LIST*
D10*
D11*
X158000000Y-68200000D03*
X158000000Y-70200000D03*
D12*
X135800000Y-55800000D03*
X137800000Y-55800000D03*
D11*
X148808440Y-83434680D03*
X148808440Y-85434680D03*
D13*
X150428960Y-76316840D03*
D14*
X150428960Y-73776840D03*
D12*
X157800000Y-45400000D03*
X159800000Y-45400000D03*
X150400000Y-54600000D03*
X148400000Y-54600000D03*
D11*
X189357000Y-59629800D03*
X189357000Y-61629800D03*
D15*
X125074560Y-64268200D03*
X125074560Y-65268200D03*
X125074560Y-66268200D03*
X125074560Y-67268200D03*
X125074560Y-68268200D03*
X125074560Y-69268200D03*
X125074560Y-70268200D03*
X125074560Y-71268200D03*
X125074560Y-72268200D03*
X125074560Y-73268200D03*
X125074560Y-74268200D03*
X125074560Y-77268200D03*
X125074560Y-78268200D03*
X125074560Y-79268200D03*
X125074560Y-80268200D03*
X125074560Y-81268200D03*
X125074560Y-82268200D03*
X125074560Y-83268200D03*
D16*
X142925800Y-68529200D03*
D17*
X142925800Y-71069200D03*
X142925800Y-73609200D03*
X142925800Y-76149200D03*
X142925800Y-78689200D03*
X142925800Y-81229200D03*
X142925800Y-83769200D03*
X142925800Y-86309200D03*
X142925800Y-88849200D03*
X142925800Y-91389200D03*
X142925800Y-93929200D03*
X142925800Y-96469200D03*
D18*
X162560000Y-84455000D03*
D19*
X165100000Y-84455000D03*
X167640000Y-84455000D03*
X170180000Y-84455000D03*
X172720000Y-84455000D03*
X172720000Y-76835000D03*
X170180000Y-76835000D03*
X167640000Y-76835000D03*
X165100000Y-76835000D03*
X162560000Y-76835000D03*
D18*
X172339000Y-65913000D03*
D19*
X169799000Y-65913000D03*
X167259000Y-65913000D03*
X164719000Y-65913000D03*
X162179000Y-65913000D03*
X162179000Y-73533000D03*
X164719000Y-73533000D03*
X167259000Y-73533000D03*
X169799000Y-73533000D03*
X172339000Y-73533000D03*
D20*
X139192000Y-99060000D03*
X139192000Y-104648000D03*
X153797000Y-103505000D03*
X148209000Y-103505000D03*
X163322000Y-103759000D03*
X157734000Y-103759000D03*
X173736000Y-103378000D03*
X168148000Y-103378000D03*
X152654000Y-94234000D03*
X152654000Y-88646000D03*
X167894000Y-94234000D03*
X167894000Y-88646000D03*
X183515000Y-103886000D03*
X177927000Y-103886000D03*
X182753000Y-88392000D03*
X182753000Y-93980000D03*
X159258000Y-55499000D03*
X159258000Y-61087000D03*
X157820360Y-51562000D03*
X147660360Y-51562000D03*
X174498000Y-55245000D03*
X174498000Y-60833000D03*
D21*
X191719200Y-82184400D03*
X191719200Y-74584400D03*
D22*
X183919200Y-78384400D03*
D23*
X178638200Y-78181200D03*
D24*
X178638200Y-80721200D03*
D25*
X134620000Y-70827900D03*
D26*
X132080000Y-70827900D03*
D27*
X156343360Y-80247500D03*
X158456640Y-81200000D03*
X156343360Y-82152500D03*
D28*
X153225500Y-67604640D03*
X154178000Y-65491360D03*
X155130500Y-67604640D03*
X179047500Y-65056640D03*
X180000000Y-62943360D03*
X180952500Y-65056640D03*
D29*
X154150000Y-82800000D03*
X152250000Y-82800000D03*
D30*
X158000000Y-72650000D03*
X158000000Y-74550000D03*
D29*
X148450000Y-47600000D03*
X150350000Y-47600000D03*
D30*
X143400000Y-45850000D03*
X143400000Y-47750000D03*
X149800000Y-42650000D03*
X149800000Y-44550000D03*
D29*
X189151300Y-56451500D03*
X187251300Y-56451500D03*
X179150000Y-69400000D03*
X177250000Y-69400000D03*
D23*
X186842400Y-68922900D03*
D24*
X189382400Y-68922900D03*
X186842400Y-66382900D03*
X189382400Y-66382900D03*
D31*
X139400000Y-62800000D03*
D32*
X136900000Y-62800000D03*
X139400000Y-59800000D03*
X134400000Y-62800000D03*
X134400000Y-59800000D03*
X136900000Y-59800000D03*
D31*
X145923000Y-63741300D03*
D32*
X145923000Y-61241300D03*
X148923000Y-63741300D03*
X145923000Y-58741300D03*
X148923000Y-58741300D03*
X148923000Y-61241300D03*
D33*
X163461700Y-39199300D03*
D34*
X163461700Y-43199300D03*
D33*
X163461700Y-47199300D03*
D34*
X163461700Y-51199300D03*
D35*
X185501300Y-48234600D03*
X185501300Y-49504600D03*
X185501300Y-50774600D03*
X185501300Y-52044600D03*
X190901300Y-52044600D03*
X190901300Y-50774600D03*
X190901300Y-49504600D03*
X190901300Y-48234600D03*
D36*
X137600000Y-47860000D03*
X137600000Y-45320000D03*
X137600000Y-50400000D03*
D37*
X153893520Y-39451280D03*
X156433520Y-39451280D03*
X151353520Y-39451280D03*
D38*
X189600000Y-39600000D03*
X189600000Y-109000000D03*
X134600000Y-109000000D03*
X134600000Y-39600000D03*
D39*
X160000000Y-70200000D03*
X159200000Y-65600000D03*
X130000000Y-73200000D03*
X129800000Y-70268200D03*
X129973200Y-67173200D03*
X129800000Y-64268200D03*
X131400000Y-63800000D03*
X148920200Y-87340440D03*
X183200000Y-52000000D03*
X176800000Y-65000000D03*
X156400000Y-78800000D03*
X137800000Y-54000000D03*
X154200000Y-60800000D03*
X187400000Y-61600000D03*
X170600000Y-91200000D03*
X168200000Y-79400000D03*
X152000000Y-54800000D03*
X145600000Y-42800000D03*
X134000240Y-78181200D03*
X139941300Y-67589400D03*
X131988560Y-73314560D03*
X133944360Y-73370440D03*
X152200000Y-81000000D03*
X137576560Y-71302880D03*
X138600000Y-68800000D03*
X141000000Y-64600000D03*
X139600000Y-70000000D03*
X163200000Y-81800000D03*
X161400000Y-68200000D03*
X144000000Y-65600000D03*
X151800000Y-70400000D03*
X151600000Y-67600000D03*
X149400000Y-67600000D03*
X153200000Y-56800000D03*
X157800000Y-56800000D03*
D40*
X155725860Y-68200000D02*
X155130500Y-67604640D01*
X158000000Y-68200000D02*
X155725860Y-68200000D01*
X155130500Y-70330500D02*
X155130500Y-67604640D01*
X157450000Y-72650000D02*
X155130500Y-70330500D01*
X158000000Y-72650000D02*
X157450000Y-72650000D01*
D41*
X160000000Y-70200000D02*
X160000000Y-66400000D01*
X158000000Y-70200000D02*
X160000000Y-70200000D01*
X160000000Y-66400000D02*
X159200000Y-65600000D01*
X125074560Y-66268200D02*
X129931800Y-66268200D01*
X130000000Y-73200000D02*
X129931800Y-73268200D01*
X125074560Y-73268200D02*
X129931800Y-73268200D01*
X129800000Y-70268200D02*
X129800000Y-70200000D01*
X129973200Y-67173200D02*
X130000000Y-67200000D01*
X129800000Y-64268200D02*
X129800000Y-64200000D01*
X129931800Y-64268200D02*
X130931800Y-64268200D01*
X130931800Y-64268200D02*
X131400000Y-63800000D01*
X129931800Y-72200000D02*
X129931800Y-73268200D01*
X129931800Y-71200000D02*
X129931800Y-72200000D01*
X129931800Y-72200000D02*
X129931800Y-72268200D01*
X129931800Y-70268200D02*
X129931800Y-71200000D01*
X129931800Y-71200000D02*
X129931800Y-71268200D01*
X129931800Y-69204600D02*
X129931800Y-70268200D01*
X129931800Y-68204600D02*
X129931800Y-69204600D01*
X129931800Y-69204600D02*
X129868200Y-69268200D01*
X129931800Y-67200000D02*
X129931800Y-68204600D01*
X129931800Y-68204600D02*
X129868200Y-68268200D01*
X129931800Y-66200000D02*
X129931800Y-67200000D01*
X129931800Y-67200000D02*
X129931800Y-67268200D01*
X129931800Y-65200000D02*
X129931800Y-66200000D01*
X129931800Y-66200000D02*
X129931800Y-66268200D01*
X129931800Y-64268200D02*
X129931800Y-65200000D01*
X129931800Y-65200000D02*
X129931800Y-65268200D01*
X125074560Y-64268200D02*
X129931800Y-64268200D01*
X129931800Y-64268200D02*
X130000000Y-64200000D01*
X129931800Y-73268200D02*
X130000000Y-73200000D01*
X125074560Y-72268200D02*
X129931800Y-72268200D01*
X129931800Y-72268200D02*
X130000000Y-72200000D01*
X125074560Y-71268200D02*
X129931800Y-71268200D01*
X129931800Y-71268200D02*
X130000000Y-71200000D01*
X125074560Y-70268200D02*
X129931800Y-70268200D01*
X129931800Y-70268200D02*
X130000000Y-70200000D01*
X125074560Y-69268200D02*
X129868200Y-69268200D01*
X129868200Y-69268200D02*
X130000000Y-69400000D01*
X125074560Y-68268200D02*
X129868200Y-68268200D01*
X129868200Y-68268200D02*
X130000000Y-68400000D01*
X125074560Y-67268200D02*
X129931800Y-67268200D01*
X129931800Y-67268200D02*
X130000000Y-67200000D01*
X129931800Y-66268200D02*
X130000000Y-66200000D01*
X125074560Y-65268200D02*
X129931800Y-65268200D01*
X129931800Y-65268200D02*
X130000000Y-65200000D01*
X148808440Y-87228680D02*
X148920200Y-87340440D01*
X148808440Y-85434680D02*
X148808440Y-87228680D01*
X183244600Y-52044600D02*
X183200000Y-52000000D01*
X185501300Y-52044600D02*
X183244600Y-52044600D01*
X139400000Y-57000000D02*
X139400000Y-59800000D01*
X138200000Y-55800000D02*
X139400000Y-57000000D01*
X137800000Y-55800000D02*
X138200000Y-55800000D01*
X176856640Y-65056640D02*
X176800000Y-65000000D01*
X179047500Y-65056640D02*
X176856640Y-65056640D01*
X156343360Y-78856640D02*
X156400000Y-78800000D01*
X156343360Y-80247500D02*
X156343360Y-78856640D01*
D40*
X125142760Y-72200000D02*
X125074560Y-72268200D01*
D41*
X137800000Y-55800000D02*
X137800000Y-54000000D01*
X152000000Y-60800000D02*
X154200000Y-60800000D01*
X149058700Y-63741300D02*
X152000000Y-60800000D01*
X148923000Y-63741300D02*
X149058700Y-63741300D01*
X189327200Y-61600000D02*
X189357000Y-61629800D01*
X187400000Y-61600000D02*
X189327200Y-61600000D01*
D40*
X134400000Y-57800000D02*
X134400000Y-59800000D01*
X135800000Y-56400000D02*
X134400000Y-57800000D01*
X135800000Y-55800000D02*
X135800000Y-56400000D01*
D42*
X170180000Y-90780000D02*
X170180000Y-84455000D01*
X170600000Y-91200000D02*
X170180000Y-90780000D01*
X152654000Y-94234000D02*
X154766000Y-94234000D01*
X165100000Y-87100000D02*
X165100000Y-84455000D01*
X162800000Y-89400000D02*
X165100000Y-87100000D01*
X159600000Y-89400000D02*
X162800000Y-89400000D01*
X154766000Y-94234000D02*
X159600000Y-89400000D01*
X165100000Y-76835000D02*
X165100000Y-78500000D01*
X166000000Y-79400000D02*
X168200000Y-79400000D01*
X165100000Y-78500000D02*
X166000000Y-79400000D01*
D40*
X137710000Y-47750000D02*
X137600000Y-47860000D01*
X143400000Y-47750000D02*
X137710000Y-47750000D01*
D41*
X138572240Y-81229200D02*
X142925800Y-81229200D01*
X134372480Y-77011400D02*
X137945120Y-80584040D01*
X137945120Y-80584040D02*
X137945120Y-80602080D01*
X137945120Y-80602080D02*
X138572240Y-81229200D01*
X132316350Y-74955270D02*
X134372480Y-77011400D01*
X131629280Y-74268200D02*
X132316350Y-74955270D01*
X125074560Y-74268200D02*
X131629280Y-74268200D01*
X130003420Y-77268200D02*
X132316350Y-74955270D01*
X125074560Y-77268200D02*
X130003420Y-77268200D01*
X148808440Y-81975960D02*
X148061680Y-81229200D01*
X148061680Y-81229200D02*
X142925800Y-81229200D01*
X148808440Y-83434680D02*
X148808440Y-81975960D01*
X193034600Y-48234600D02*
X190901300Y-48234600D01*
X193200000Y-48400000D02*
X193034600Y-48234600D01*
X193200000Y-56000000D02*
X193200000Y-48400000D01*
X189570200Y-59629800D02*
X193200000Y-56000000D01*
X189357000Y-59629800D02*
X189570200Y-59629800D01*
X190901300Y-47501300D02*
X189400000Y-46000000D01*
X189400000Y-46000000D02*
X185000000Y-46000000D01*
X185000000Y-46000000D02*
X179000000Y-52000000D01*
X179000000Y-52000000D02*
X166600000Y-52000000D01*
X166600000Y-52000000D02*
X165200000Y-53400000D01*
X165200000Y-53400000D02*
X162000000Y-53400000D01*
X162000000Y-53400000D02*
X160162000Y-51562000D01*
X160162000Y-51562000D02*
X157820360Y-51562000D01*
X190901300Y-48234600D02*
X190901300Y-47501300D01*
X189151300Y-59424100D02*
X189357000Y-59629800D01*
X189151300Y-56451500D02*
X189151300Y-59424100D01*
X153225500Y-76025500D02*
X152934160Y-76316840D01*
X152934160Y-76316840D02*
X150428960Y-76316840D01*
X153225500Y-67604640D02*
X153225500Y-76025500D01*
X152600000Y-66800000D02*
X152600000Y-65000000D01*
X152600000Y-65000000D02*
X155600000Y-62000000D01*
X155600000Y-62000000D02*
X155600000Y-55400000D01*
X155600000Y-55400000D02*
X157820360Y-53179640D01*
X157820360Y-53179640D02*
X157820360Y-51562000D01*
X153225500Y-67425500D02*
X152600000Y-66800000D01*
X153225500Y-67604640D02*
X153225500Y-67425500D01*
X149834680Y-83434680D02*
X150855000Y-84455000D01*
X150855000Y-84455000D02*
X162560000Y-84455000D01*
X148808440Y-83434680D02*
X149834680Y-83434680D01*
D40*
X150350000Y-46650000D02*
X152800000Y-44200000D01*
X152800000Y-44200000D02*
X156600000Y-44200000D01*
X156600000Y-44200000D02*
X157800000Y-45400000D01*
X150350000Y-47600000D02*
X150350000Y-46650000D01*
X159800000Y-45400000D02*
X159800000Y-46800000D01*
X152000000Y-54600000D02*
X152000000Y-54800000D01*
X159800000Y-46800000D02*
X152000000Y-54600000D01*
X150400000Y-49800000D02*
X149400000Y-48800000D01*
X149400000Y-48800000D02*
X149400000Y-44950000D01*
X149400000Y-44950000D02*
X149800000Y-44550000D01*
X150400000Y-54600000D02*
X150400000Y-49800000D01*
X143400000Y-45000000D02*
X145600000Y-42800000D01*
X143400000Y-45850000D02*
X143400000Y-45000000D01*
X145600000Y-43000000D02*
X146800000Y-44200000D01*
X146800000Y-44200000D02*
X146800000Y-45950000D01*
X146800000Y-45950000D02*
X148450000Y-47600000D01*
X145600000Y-42800000D02*
X145600000Y-43000000D01*
X148400000Y-53400000D02*
X149400000Y-52400000D01*
X149400000Y-52400000D02*
X149400000Y-50200000D01*
X149400000Y-50200000D02*
X148450000Y-49250000D01*
X148450000Y-49250000D02*
X148450000Y-47600000D01*
X148400000Y-54600000D02*
X148400000Y-53400000D01*
X133913240Y-78268200D02*
X134000240Y-78181200D01*
X128919600Y-78268200D02*
X133913240Y-78268200D01*
X125074560Y-78268200D02*
X128919600Y-78268200D01*
X127919600Y-79268200D02*
X128919600Y-78268200D01*
X125074560Y-79268200D02*
X127919600Y-79268200D01*
D41*
X125074560Y-80268200D02*
X128531800Y-80268200D01*
X128400000Y-80400000D02*
X128400000Y-81268200D01*
X128531800Y-80268200D02*
X128400000Y-80400000D01*
X125074560Y-81268200D02*
X128400000Y-81268200D01*
X128400000Y-81268200D02*
X129668200Y-81268200D01*
X137487598Y-93929200D02*
X142925800Y-93929200D01*
X132486402Y-88928004D02*
X137487598Y-93929200D01*
X132486402Y-84086402D02*
X132486402Y-88928004D01*
X129668200Y-81268200D02*
X132486402Y-84086402D01*
X130319160Y-83268200D02*
X131597400Y-84546440D01*
X131597400Y-84546440D02*
X131597400Y-89296240D01*
X131597400Y-89296240D02*
X138770360Y-96469200D01*
X138770360Y-96469200D02*
X142925800Y-96469200D01*
X128803400Y-83268200D02*
X130319160Y-83268200D01*
X128803400Y-82590640D02*
X128803400Y-83268200D01*
X128480960Y-82268200D02*
X128803400Y-82590640D01*
X125074560Y-82268200D02*
X128480960Y-82268200D01*
X128803400Y-83268200D02*
X125074560Y-83268200D01*
D40*
X143998800Y-63400000D02*
X143998800Y-60665500D01*
X143998800Y-60665500D02*
X145923000Y-58741300D01*
X144000000Y-63400000D02*
X143998800Y-63400000D01*
X144000000Y-64200000D02*
X144000000Y-63533100D01*
X144000000Y-63533100D02*
X143998800Y-63531900D01*
X139941300Y-67589400D02*
X140610600Y-67589400D01*
X140610600Y-67589400D02*
X141600000Y-66600000D01*
X143998800Y-63400000D02*
X143998800Y-63531900D01*
X141600000Y-66600000D02*
X144000000Y-64200000D01*
X131988560Y-73314560D02*
X134823200Y-76149200D01*
X134823200Y-76149200D02*
X142925800Y-76149200D01*
X144349200Y-76149200D02*
X146400000Y-78200000D01*
X146400000Y-78200000D02*
X154400000Y-78200000D01*
X154400000Y-78200000D02*
X155800000Y-76800000D01*
X142925800Y-76149200D02*
X144349200Y-76149200D01*
X158000000Y-74600000D02*
X155800000Y-76800000D01*
X158000000Y-74550000D02*
X158000000Y-74600000D01*
X133944360Y-73370440D02*
X134183120Y-73609200D01*
X134183120Y-73609200D02*
X142925800Y-73609200D01*
X152250000Y-81050000D02*
X152200000Y-81000000D01*
X152250000Y-82800000D02*
X152250000Y-81050000D01*
X137576560Y-71302880D02*
X137810240Y-71069200D01*
X137810240Y-71069200D02*
X142925800Y-71069200D01*
X138600000Y-68800000D02*
X138870800Y-68529200D01*
X138870800Y-68529200D02*
X142925800Y-68529200D01*
X141000000Y-64600000D02*
X140400000Y-65200000D01*
X140400000Y-65200000D02*
X137800000Y-65200000D01*
X137800000Y-65200000D02*
X137000000Y-66000000D01*
X137000000Y-66000000D02*
X137000000Y-69600000D01*
X137000000Y-69600000D02*
X137400000Y-70000000D01*
X137400000Y-70000000D02*
X139600000Y-70000000D01*
D42*
X170180000Y-81020000D02*
X170180000Y-76835000D01*
X169800000Y-81400000D02*
X170180000Y-81020000D01*
X163600000Y-81400000D02*
X169800000Y-81400000D01*
X163200000Y-81800000D02*
X163600000Y-81400000D01*
X167640000Y-76835000D02*
X167640000Y-76560000D01*
X167640000Y-76560000D02*
X169000000Y-75200000D01*
X169000000Y-75200000D02*
X176600000Y-75200000D01*
X189382400Y-64017600D02*
X189364800Y-64000000D01*
X189382400Y-66382900D02*
X189382400Y-64017600D01*
X182400000Y-69400000D02*
X176600000Y-75200000D01*
X176600000Y-75200000D02*
X176400000Y-75400000D01*
X182400000Y-66000000D02*
X182400000Y-69400000D01*
X184400000Y-64000000D02*
X182400000Y-66000000D01*
X189364800Y-64000000D02*
X184400000Y-64000000D01*
D40*
X158456640Y-78943360D02*
X160565000Y-76835000D01*
X160565000Y-76835000D02*
X162560000Y-76835000D01*
X158456640Y-81200000D02*
X158456640Y-78943360D01*
X175826000Y-69400000D02*
X172339000Y-65913000D01*
X177250000Y-69400000D02*
X175826000Y-69400000D01*
X172339000Y-64539000D02*
X171400000Y-63600000D01*
X171400000Y-63600000D02*
X159000000Y-63600000D01*
X159000000Y-63600000D02*
X157108640Y-65491360D01*
X157108640Y-65491360D02*
X154178000Y-65491360D01*
X172339000Y-65913000D02*
X172339000Y-64539000D01*
D43*
X146200000Y-70200000D02*
X146400000Y-70400000D01*
X146200000Y-68200000D02*
X146200000Y-70200000D01*
X169799000Y-70999000D02*
X167000000Y-68200000D01*
X167000000Y-68200000D02*
X161400000Y-68200000D01*
X169799000Y-73533000D02*
X169799000Y-70999000D01*
X144000000Y-66000000D02*
X144000000Y-65600000D01*
X146200000Y-68200000D02*
X144000000Y-66000000D01*
X146400000Y-70400000D02*
X151800000Y-70400000D01*
D42*
X189382400Y-72247600D02*
X191719200Y-74584400D01*
X189382400Y-68922900D02*
X189382400Y-72247600D01*
X181841300Y-82184400D02*
X191719200Y-82184400D01*
X178638200Y-80721200D02*
X180378100Y-80721200D01*
X180378100Y-80721200D02*
X181841300Y-82184400D01*
X191719200Y-74584400D02*
X191719200Y-82184400D01*
X186842400Y-70345300D02*
X183919200Y-73268500D01*
X186842400Y-68922900D02*
X186842400Y-70345300D01*
X183919200Y-73268500D02*
X183919200Y-78384400D01*
D40*
X155695860Y-82800000D02*
X156343360Y-82152500D01*
X154150000Y-82800000D02*
X155695860Y-82800000D01*
X149800000Y-41004800D02*
X151353520Y-39451280D01*
X149800000Y-42650000D02*
X149800000Y-41004800D01*
X187600000Y-56102800D02*
X187251300Y-56451500D01*
X186974600Y-50774600D02*
X187600000Y-51400000D01*
X187600000Y-51400000D02*
X187600000Y-56102800D01*
X185501300Y-50774600D02*
X186974600Y-50774600D01*
X180759440Y-62943360D02*
X187251300Y-56451500D01*
X180000000Y-62943360D02*
X180759440Y-62943360D01*
X180952500Y-67597500D02*
X179150000Y-69400000D01*
X180952500Y-65056640D02*
X180952500Y-67597500D01*
X151600000Y-67600000D02*
X149400000Y-67600000D01*
X187104600Y-49504600D02*
X187400000Y-49209200D01*
X187400000Y-49209200D02*
X187400000Y-48400000D01*
X187400000Y-48400000D02*
X187234600Y-48234600D01*
X187234600Y-48234600D02*
X185501300Y-48234600D01*
X185501300Y-49504600D02*
X187104600Y-49504600D01*
X153200000Y-56800000D02*
X145400000Y-56800000D01*
X139000000Y-50400000D02*
X137600000Y-50400000D01*
X185501300Y-49504600D02*
X183495400Y-49504600D01*
X175400000Y-57600000D02*
X183495400Y-49504600D01*
X158600000Y-57600000D02*
X175400000Y-57600000D01*
X157800000Y-56800000D02*
X158600000Y-57600000D01*
X139000000Y-50400000D02*
X145400000Y-56800000D01*
X189225400Y-50774600D02*
X189000000Y-50549200D01*
X189000000Y-50549200D02*
X189000000Y-49600000D01*
X189000000Y-49600000D02*
X189095400Y-49504600D01*
X189095400Y-49504600D02*
X190901300Y-49504600D01*
X190901300Y-50774600D02*
X189225400Y-50774600D01*
M02*
