M48
;DRILL file {kicad (2014-10-27 BZR 5228)-product} date 11/01/2015 08:05:53
;FORMAT={3:3/ absolute / metric / keep zeros}
FMAT,2
METRIC,TZ
T1C0.635
T2C0.813
T3C0.900
T4C0.920
T5C1.001
T6C1.016
T7C1.500
T8C1.800
T9C2.700
T10C3.900
%
G90
G05
M71
T1
X129800Y-064268
X129800Y-070268
X129973Y-067173
X130000Y-073200
X131400Y-063800
X131989Y-073315
X133944Y-073370
X134000Y-078181
X137577Y-071303
X137800Y-054000
X138600Y-068800
X139600Y-070000
X139941Y-067589
X141000Y-064600
X144000Y-065600
X145600Y-042800
X148920Y-087340
X149400Y-067600
X151600Y-067600
X151800Y-070400
X152000Y-054800
X152200Y-081000
X153200Y-056800
X154200Y-060800
X156400Y-078800
X157800Y-056800
X159200Y-065600
X160000Y-070200
X161400Y-068200
X163200Y-081800
X168200Y-079400
X170600Y-091200
X176800Y-065000
X183200Y-052000
X187400Y-061600
T2
X137600Y-045320
X137600Y-047860
X137600Y-050400
X150429Y-073777
X150429Y-076317
X162179Y-065913
X162179Y-073533
X162560Y-076835
X162560Y-084455
X164719Y-065913
X164719Y-073533
X165100Y-076835
X165100Y-084455
X167259Y-065913
X167259Y-073533
X167640Y-076835
X167640Y-084455
X169799Y-065913
X169799Y-073533
X170180Y-076835
X170180Y-084455
X172339Y-065913
X172339Y-073533
X172720Y-076835
X172720Y-084455
T3
X134400Y-059800
X134400Y-062800
X136900Y-059800
X136900Y-062800
X139400Y-059800
X139400Y-062800
X145923Y-058741
X145923Y-061241
X145923Y-063741
X148923Y-058741
X148923Y-061241
X148923Y-063741
T4
X183919Y-078384
T5
X139192Y-099060
X139192Y-104648
X147660Y-051562
X148209Y-103505
X151354Y-039451
X152654Y-088646
X152654Y-094234
X153797Y-103505
X153894Y-039451
X156434Y-039451
X157734Y-103759
X157820Y-051562
X159258Y-055499
X159258Y-061087
X163322Y-103759
X167894Y-088646
X167894Y-094234
X168148Y-103378
X173736Y-103378
X174498Y-055245
X174498Y-060833
X177927Y-103886
X182753Y-088392
X182753Y-093980
X183515Y-103886
T6
X132080Y-070828
X134620Y-070828
X142926Y-068529
X142926Y-071069
X142926Y-073609
X142926Y-076149
X142926Y-078689
X142926Y-081229
X142926Y-083769
X142926Y-086309
X142926Y-088849
X142926Y-091389
X142926Y-093929
X142926Y-096469
X163462Y-043199
X163462Y-051199
X178638Y-078181
X178638Y-080721
X186842Y-066383
X186842Y-068923
X189382Y-066383
X189382Y-068923
T7
X163462Y-039199
X163462Y-047199
T8
X191719Y-074584
X191719Y-082184
T9
X154102Y-047549
T10
X134600Y-039600
X134600Y-109000
X189600Y-039600
X189600Y-109000
T0
M30
