%FSLAX46Y46*%
G04 Gerber Fmt 4.6, Leading zero omitted, Abs format (unit mm)*
G04 Created by KiCad (PCBNEW (2014-10-27 BZR 5228)-product) date 19/01/2015 07:09:11*
%MOMM*%
G01*
G04 APERTURE LIST*
%ADD10C,0.100000*%
%ADD11C,0.020000*%
G04 APERTURE END LIST*
D10*
X194400000Y-94700000D02*
X134400000Y-94700000D01*
X194400000Y-35000000D02*
X194400000Y-94700000D01*
X134400000Y-35000000D02*
X194400000Y-35000000D01*
X134400000Y-53000000D02*
X134400000Y-35000000D01*
X129974340Y-95006160D02*
X129943860Y-95006160D01*
X134400000Y-76800000D02*
X134400000Y-94700000D01*
D11*
X134374560Y-53968200D02*
X134374560Y-52968200D01*
X134374560Y-76018200D02*
X134374560Y-76968200D01*
X133424560Y-54868200D02*
G75*
G03X134374560Y-53918200I0J950000D01*
G01*
X125974560Y-55218200D02*
X126324560Y-54868200D01*
X126324560Y-54868200D02*
X133424560Y-54868200D01*
X125974560Y-65668200D02*
X125974560Y-55218200D01*
X134374560Y-76018200D02*
G75*
G03X133424560Y-75068200I-950000J0D01*
G01*
X125974560Y-74718200D02*
X126324560Y-75068200D01*
X126324560Y-75068200D02*
X133424560Y-75068200D01*
X133424560Y-67918200D02*
X126324560Y-67918200D01*
X126324560Y-67918200D02*
X125974560Y-68268200D01*
X125974560Y-68268200D02*
X125974560Y-74718200D01*
X126324560Y-66018200D02*
X133424560Y-66018200D01*
X126324560Y-66018200D02*
X125974560Y-65668200D01*
X134374560Y-66968200D02*
G75*
G03X133424560Y-66018200I-950000J0D01*
G01*
X133424560Y-67918200D02*
G75*
G03X134374560Y-66968200I0J950000D01*
G01*
M02*
