%FSLAX46Y46*%
G04 Gerber Fmt 4.6, Leading zero omitted, Abs format (unit mm)*
G04 Created by KiCad (PCBNEW (2014-10-27 BZR 5228)-product) date 13/03/2015 07:55:43*
%MOMM*%
G01*
G04 APERTURE LIST*
%ADD10C,0.100000*%
%ADD11R,1.250000X1.000000*%
%ADD12R,1.000000X1.250000*%
%ADD13R,4.200000X0.700000*%
%ADD14R,1.397000X1.397000*%
%ADD15C,1.397000*%
%ADD16C,1.998980*%
%ADD17C,3.500000*%
%ADD18C,2.000000*%
%ADD19R,1.727200X1.727200*%
%ADD20O,1.727200X1.727200*%
%ADD21R,1.800000X1.800000*%
%ADD22C,1.800000*%
%ADD23C,2.540000*%
%ADD24C,1.727200*%
%ADD25C,1.524000*%
%ADD26O,1.501140X2.499360*%
%ADD27R,1.397000X0.889000*%
%ADD28R,1.300000X1.500000*%
%ADD29R,1.500000X1.300000*%
%ADD30R,4.000500X2.700020*%
%ADD31R,1.800860X3.500120*%
%ADD32C,6.350000*%
%ADD33C,0.889000*%
%ADD34C,0.254000*%
%ADD35C,0.635000*%
%ADD36C,0.508000*%
%ADD37C,1.270000*%
%ADD38C,0.381000*%
G04 APERTURE END LIST*
D10*
D11*
X144600000Y-70500000D03*
X144600000Y-72500000D03*
X146800000Y-62700000D03*
X146800000Y-60700000D03*
D12*
X148600000Y-72800000D03*
X146600000Y-72800000D03*
X150500000Y-83000000D03*
X148500000Y-83000000D03*
X139800000Y-84100000D03*
X141800000Y-84100000D03*
D11*
X146200000Y-82100000D03*
X146200000Y-84100000D03*
X155500000Y-88800000D03*
X155500000Y-90800000D03*
X183000000Y-82800000D03*
X183000000Y-84800000D03*
D12*
X177300000Y-83000000D03*
X179300000Y-83000000D03*
D11*
X142000000Y-51600000D03*
X142000000Y-49600000D03*
X187200000Y-82600000D03*
X187200000Y-84600000D03*
X147600000Y-50600000D03*
X147600000Y-52600000D03*
D12*
X152000000Y-44700000D03*
X150000000Y-44700000D03*
X165200000Y-62000000D03*
X163200000Y-62000000D03*
D11*
X176600000Y-46800000D03*
X176600000Y-44800000D03*
X180000000Y-46800000D03*
X180000000Y-44800000D03*
X173600000Y-46800000D03*
X173600000Y-44800000D03*
D12*
X178546000Y-58293000D03*
X176546000Y-58293000D03*
X169000000Y-61800000D03*
X171000000Y-61800000D03*
D13*
X129500000Y-74500000D03*
X129500000Y-73500000D03*
X129500000Y-72500000D03*
X129500000Y-71500000D03*
X129500000Y-70500000D03*
X129500000Y-69500000D03*
X129500000Y-68500000D03*
X129500000Y-67500000D03*
X129500000Y-66500000D03*
X129500000Y-65500000D03*
X129500000Y-64500000D03*
X129500000Y-61500000D03*
X129500000Y-60500000D03*
X129500000Y-59500000D03*
X129500000Y-58500000D03*
X129500000Y-57500000D03*
X129500000Y-56500000D03*
X129500000Y-55500000D03*
D14*
X162560000Y-84455000D03*
D15*
X165100000Y-84455000D03*
X167640000Y-84455000D03*
X170180000Y-84455000D03*
X172720000Y-84455000D03*
X172720000Y-76835000D03*
X170180000Y-76835000D03*
X167640000Y-76835000D03*
X165100000Y-76835000D03*
X162560000Y-76835000D03*
D14*
X172339000Y-65913000D03*
D15*
X169799000Y-65913000D03*
X167259000Y-65913000D03*
X164719000Y-65913000D03*
X162179000Y-65913000D03*
X162179000Y-73533000D03*
X164719000Y-73533000D03*
X167259000Y-73533000D03*
X169799000Y-73533000D03*
X172339000Y-73533000D03*
D16*
X158792000Y-79796000D03*
X153204000Y-79796000D03*
X142592000Y-80596000D03*
X137004000Y-80596000D03*
X152496000Y-87308000D03*
X152496000Y-92896000D03*
X144908000Y-79804000D03*
X150496000Y-79804000D03*
X180604000Y-92792000D03*
X180604000Y-87204000D03*
X178008000Y-79004000D03*
X183596000Y-79004000D03*
X167396000Y-87208000D03*
X167396000Y-92796000D03*
X186508000Y-78904000D03*
X192096000Y-78904000D03*
X161108000Y-58304000D03*
X166696000Y-58304000D03*
X174498000Y-55245000D03*
X174498000Y-60833000D03*
D17*
X191800000Y-67600000D03*
X191800000Y-60000000D03*
D18*
X184000000Y-63800000D03*
D19*
X179870000Y-63400000D03*
D20*
X177330000Y-63400000D03*
D19*
X179870000Y-66930000D03*
D20*
X177330000Y-66930000D03*
X179870000Y-69470000D03*
X177330000Y-69470000D03*
D21*
X142200000Y-66800000D03*
D22*
X142200000Y-69300000D03*
X139200000Y-66800000D03*
X142200000Y-71800000D03*
X139200000Y-71800000D03*
X139200000Y-69300000D03*
D21*
X143500000Y-62000000D03*
D22*
X141000000Y-62000000D03*
X143500000Y-59000000D03*
X138500000Y-62000000D03*
X138500000Y-59000000D03*
X141000000Y-59000000D03*
D23*
X163461700Y-39199300D03*
D24*
X163461700Y-43199300D03*
D23*
X163461700Y-47199300D03*
D24*
X163461700Y-51199300D03*
D25*
X138600000Y-48460000D03*
X138600000Y-45920000D03*
X138600000Y-51000000D03*
D26*
X153893520Y-39451280D03*
X156433520Y-39451280D03*
X151353520Y-39451280D03*
D16*
X189899460Y-44800000D03*
X183300540Y-44800000D03*
D11*
X174600000Y-69300000D03*
X174600000Y-67300000D03*
X171700000Y-88700000D03*
X171700000Y-90700000D03*
D27*
X136800000Y-56252500D03*
X136800000Y-54347500D03*
D28*
X146800000Y-64150000D03*
X146800000Y-66850000D03*
X147600000Y-46050000D03*
X147600000Y-48750000D03*
X142000000Y-45450000D03*
X142000000Y-48150000D03*
D29*
X156850000Y-45700000D03*
X154150000Y-45700000D03*
X153750000Y-67400000D03*
X151050000Y-67400000D03*
X152650000Y-63500000D03*
X149950000Y-63500000D03*
X159850000Y-63200000D03*
X157150000Y-63200000D03*
D12*
X187700000Y-63600000D03*
X189700000Y-63600000D03*
D11*
X162800000Y-70200000D03*
X162800000Y-68200000D03*
D29*
X157250000Y-67500000D03*
X159950000Y-67500000D03*
D30*
X143811260Y-75800000D03*
X151588740Y-75800000D03*
D31*
X170300000Y-51199740D03*
X170300000Y-45200260D03*
D29*
X177950000Y-52600000D03*
X175250000Y-52600000D03*
D32*
X189700000Y-39500000D03*
X139100000Y-39500000D03*
X189700000Y-89900000D03*
X139100000Y-90000000D03*
D11*
X180000000Y-40400000D03*
X180000000Y-42400000D03*
D33*
X150300000Y-86000000D03*
X156200000Y-74200000D03*
X132600000Y-71500000D03*
X132700000Y-74500000D03*
X132700000Y-68500000D03*
X183200000Y-52000000D03*
X190200000Y-57400000D03*
X147700000Y-43100000D03*
X137750000Y-74150000D03*
X136000000Y-72400000D03*
X136000000Y-61400000D03*
X148400000Y-63400000D03*
X138800000Y-55200000D03*
X167500000Y-70900000D03*
X155900000Y-77900000D03*
X147300000Y-69600000D03*
X140900000Y-64000000D03*
X160800000Y-69600000D03*
X186800000Y-58300000D03*
X186600000Y-65700000D03*
X149900000Y-66100000D03*
X133800000Y-65800000D03*
X185500000Y-56600000D03*
X185600000Y-59500000D03*
X155100000Y-65100000D03*
X146600000Y-59200000D03*
X149600000Y-61100000D03*
X170800000Y-59600000D03*
X157700000Y-77700000D03*
X157900000Y-88600000D03*
D34*
X134800000Y-71500000D02*
X134800000Y-71600000D01*
D35*
X129500000Y-71500000D02*
X132600000Y-71500000D01*
X132600000Y-71500000D02*
X132700000Y-71500000D01*
X132500000Y-71400000D02*
X132700000Y-71400000D01*
X132600000Y-71400000D02*
X132500000Y-71400000D01*
X132700000Y-71500000D02*
X132600000Y-71400000D01*
X129500000Y-68500000D02*
X132700000Y-68500000D01*
X129500000Y-74500000D02*
X132700000Y-74500000D01*
X132600000Y-74400000D02*
X132600000Y-73500000D01*
X132700000Y-74500000D02*
X132600000Y-74400000D01*
X132700000Y-67300000D02*
X138700000Y-67300000D01*
X138700000Y-67300000D02*
X139200000Y-66800000D01*
X129500000Y-69500000D02*
X132200000Y-69500000D01*
X132200000Y-69500000D02*
X132700000Y-70000000D01*
X129500000Y-70500000D02*
X132700000Y-70500000D01*
X132700000Y-70500000D02*
X132500000Y-70500000D01*
X132500000Y-70500000D02*
X132700000Y-70500000D01*
X129500000Y-72500000D02*
X132700000Y-72500000D01*
X132600000Y-72400000D02*
X132700000Y-72400000D01*
X132700000Y-72500000D02*
X132600000Y-72400000D01*
X132700000Y-67300000D02*
X132700000Y-68500000D01*
X132700000Y-68500000D02*
X132700000Y-70000000D01*
X132700000Y-70000000D02*
X132700000Y-70500000D01*
X132700000Y-70500000D02*
X132700000Y-71400000D01*
X132700000Y-71400000D02*
X132700000Y-72400000D01*
X132700000Y-72400000D02*
X132700000Y-73600000D01*
X132600000Y-73500000D02*
X129500000Y-73500000D01*
X132700000Y-73600000D02*
X132600000Y-73500000D01*
X129500000Y-66500000D02*
X132700000Y-66500000D01*
X132700000Y-66500000D02*
X132400000Y-66500000D01*
X132400000Y-66500000D02*
X132700000Y-66500000D01*
X129500000Y-65500000D02*
X132300000Y-65500000D01*
X132500000Y-67500000D02*
X129500000Y-67500000D01*
X132700000Y-67300000D02*
X132500000Y-67500000D01*
X132700000Y-65900000D02*
X132700000Y-66500000D01*
X132700000Y-66500000D02*
X132700000Y-67300000D01*
X132300000Y-65500000D02*
X132700000Y-65900000D01*
D36*
X142200000Y-69300000D02*
X143800000Y-69300000D01*
X143800000Y-69300000D02*
X144600000Y-70100000D01*
X144600000Y-70100000D02*
X144600000Y-70500000D01*
X139700000Y-71800000D02*
X142200000Y-69300000D01*
X139200000Y-71800000D02*
X139700000Y-71800000D01*
D34*
X141000000Y-62000000D02*
X141000000Y-61500000D01*
X141000000Y-61500000D02*
X138500000Y-59000000D01*
X146000000Y-63800000D02*
X146000000Y-63500000D01*
X146000000Y-63500000D02*
X146800000Y-62700000D01*
X141000000Y-62000000D02*
X141000000Y-62400000D01*
X141000000Y-62400000D02*
X142400000Y-63800000D01*
X142400000Y-63800000D02*
X146000000Y-63800000D01*
X146000000Y-63800000D02*
X146050000Y-63800000D01*
X146050000Y-63800000D02*
X146800000Y-64550000D01*
D37*
X137004000Y-80596000D02*
X137004000Y-81304000D01*
X137004000Y-81304000D02*
X139800000Y-84100000D01*
X152496000Y-87308000D02*
X154008000Y-87308000D01*
X154008000Y-87308000D02*
X155500000Y-88800000D01*
X141800000Y-84100000D02*
X141800000Y-85400000D01*
X141800000Y-85400000D02*
X145000000Y-88600000D01*
X146600000Y-88600000D02*
X151204000Y-88600000D01*
X151204000Y-88600000D02*
X152496000Y-87308000D01*
X145000000Y-88600000D02*
X146600000Y-88600000D01*
X146600000Y-88600000D02*
X146604000Y-88600000D01*
D35*
X186408000Y-79004000D02*
X186508000Y-78904000D01*
X183000000Y-79600000D02*
X183596000Y-79004000D01*
D37*
X183000000Y-82800000D02*
X183000000Y-79600000D01*
D35*
X187200000Y-79596000D02*
X186508000Y-78904000D01*
D37*
X187200000Y-82600000D02*
X187200000Y-79596000D01*
X183000000Y-84800000D02*
X183000000Y-90200000D01*
X183000000Y-90200000D02*
X180604000Y-92596000D01*
X180604000Y-92596000D02*
X180604000Y-92792000D01*
X170180000Y-84455000D02*
X170180000Y-87180000D01*
X170180000Y-87180000D02*
X171700000Y-88700000D01*
X167396000Y-87208000D02*
X168892000Y-87208000D01*
X170180000Y-85920000D02*
X170180000Y-84455000D01*
X168892000Y-87208000D02*
X170180000Y-85920000D01*
X170180000Y-82920000D02*
X171500000Y-81600000D01*
X171500000Y-81600000D02*
X175900000Y-81600000D01*
X175900000Y-81600000D02*
X177300000Y-83000000D01*
X170180000Y-84455000D02*
X170180000Y-82920000D01*
D34*
X142000000Y-49600000D02*
X142000000Y-47750000D01*
X138600000Y-48460000D02*
X140340000Y-48460000D01*
X141050000Y-47750000D02*
X142000000Y-47750000D01*
X140340000Y-48460000D02*
X141050000Y-47750000D01*
X147600000Y-48350000D02*
X147600000Y-50600000D01*
X152650000Y-63500000D02*
X152650000Y-62450000D01*
X152650000Y-62450000D02*
X153000000Y-62100000D01*
X151750000Y-62100000D02*
X153000000Y-62100000D01*
X153000000Y-62100000D02*
X156450000Y-62100000D01*
X156450000Y-62100000D02*
X157550000Y-63200000D01*
X157150000Y-63600000D02*
X157550000Y-63200000D01*
X147600000Y-52600000D02*
X147600000Y-57900000D01*
X151750000Y-62050000D02*
X151750000Y-62100000D01*
X147600000Y-57900000D02*
X151750000Y-62050000D01*
X154550000Y-45700000D02*
X153300000Y-45700000D01*
X153300000Y-45700000D02*
X152300000Y-44700000D01*
X152300000Y-44700000D02*
X152000000Y-44700000D01*
D38*
X149300000Y-44700000D02*
X147700000Y-43100000D01*
X149300000Y-44700000D02*
X150000000Y-44700000D01*
X142000000Y-45850000D02*
X145850000Y-45850000D01*
X146450000Y-46450000D02*
X147600000Y-46450000D01*
X145850000Y-45850000D02*
X146450000Y-46450000D01*
X147600000Y-46450000D02*
X148250000Y-46450000D01*
X148250000Y-46450000D02*
X150000000Y-44700000D01*
D37*
X161108000Y-58304000D02*
X161108000Y-59908000D01*
X161108000Y-59908000D02*
X163200000Y-62000000D01*
X166696000Y-58304000D02*
X166896000Y-58304000D01*
X174498000Y-56245000D02*
X176546000Y-58293000D01*
X174498000Y-55245000D02*
X174498000Y-56245000D01*
X174600000Y-67300000D02*
X174600000Y-60935000D01*
X174498000Y-60833000D02*
X171967000Y-60833000D01*
D34*
X174498000Y-60833000D02*
X174202600Y-60833000D01*
D37*
X171967000Y-60833000D02*
X171000000Y-61800000D01*
X174600000Y-60935000D02*
X174498000Y-60833000D01*
D34*
X135600000Y-58600000D02*
X135600000Y-57452500D01*
X134700000Y-59500000D02*
X135600000Y-58600000D01*
X129500000Y-59500000D02*
X134700000Y-59500000D01*
X135600000Y-57452500D02*
X136800000Y-56252500D01*
X129500000Y-59500000D02*
X132500000Y-59500000D01*
X132200000Y-60500000D02*
X129500000Y-60500000D01*
X132400000Y-60300000D02*
X132200000Y-60500000D01*
X132400000Y-59600000D02*
X132400000Y-60300000D01*
X132500000Y-59500000D02*
X132400000Y-59600000D01*
D36*
X136000000Y-72400000D02*
X137750000Y-74150000D01*
X137750000Y-74150000D02*
X137800000Y-74200000D01*
D34*
X136600000Y-62000000D02*
X138500000Y-62000000D01*
X136000000Y-61400000D02*
X136600000Y-62000000D01*
X147450000Y-66850000D02*
X148400000Y-65900000D01*
X148400000Y-65900000D02*
X148400000Y-63400000D01*
X137947500Y-54347500D02*
X136800000Y-54347500D01*
X138800000Y-55200000D02*
X137947500Y-54347500D01*
X146800000Y-66850000D02*
X147450000Y-66850000D01*
D37*
X167259000Y-74441000D02*
X166500000Y-75200000D01*
X167640000Y-84140000D02*
X164700000Y-81200000D01*
X164700000Y-81200000D02*
X163200000Y-81200000D01*
X167259000Y-73533000D02*
X167259000Y-74441000D01*
X160400000Y-78400000D02*
X163200000Y-81200000D01*
X160400000Y-75800000D02*
X160400000Y-78400000D01*
X161000000Y-75200000D02*
X160400000Y-75800000D01*
X166500000Y-75200000D02*
X161000000Y-75200000D01*
D34*
X167259000Y-73533000D02*
X167259000Y-73941000D01*
D37*
X167640000Y-84455000D02*
X167640000Y-84140000D01*
D36*
X169799000Y-71900000D02*
X169799000Y-71699000D01*
X169799000Y-71699000D02*
X169000000Y-70900000D01*
X169000000Y-70900000D02*
X167500000Y-70900000D01*
X169799000Y-71899000D02*
X169799000Y-71900000D01*
X169799000Y-71900000D02*
X169799000Y-73533000D01*
D37*
X156450000Y-45700000D02*
X157700000Y-45700000D01*
X159199300Y-47199300D02*
X163461700Y-47199300D01*
X157700000Y-45700000D02*
X159199300Y-47199300D01*
X151353520Y-39451280D02*
X151348720Y-39451280D01*
D34*
X150750000Y-65350000D02*
X150750000Y-67100000D01*
X150750000Y-67100000D02*
X151050000Y-67400000D01*
X149850000Y-64450000D02*
X149850000Y-63600000D01*
X150750000Y-65350000D02*
X149850000Y-64450000D01*
X143500000Y-62000000D02*
X145500000Y-62000000D01*
X147950000Y-61700000D02*
X149850000Y-63600000D01*
X145800000Y-61700000D02*
X147950000Y-61700000D01*
X145500000Y-62000000D02*
X145800000Y-61700000D01*
X174100000Y-69800000D02*
X174600000Y-69300000D01*
D37*
X166100000Y-69300000D02*
X164719000Y-70681000D01*
X164719000Y-70681000D02*
X164719000Y-73533000D01*
X174600000Y-69300000D02*
X166100000Y-69300000D01*
D35*
X155900000Y-75900000D02*
X155900000Y-77900000D01*
X155400000Y-75900000D02*
X155900000Y-75900000D01*
X155900000Y-75900000D02*
X157600000Y-75900000D01*
X159600000Y-70800000D02*
X160800000Y-69600000D01*
X159600000Y-73900000D02*
X159600000Y-70800000D01*
X157600000Y-75900000D02*
X159600000Y-73900000D01*
X148600000Y-72800000D02*
X148600000Y-75400000D01*
X149000000Y-75800000D02*
X151588740Y-75800000D01*
X148600000Y-75400000D02*
X149000000Y-75800000D01*
X147300000Y-69600000D02*
X147300000Y-70400000D01*
X148600000Y-71700000D02*
X148600000Y-72800000D01*
X147300000Y-70400000D02*
X148600000Y-71700000D01*
X129500000Y-61500000D02*
X134300000Y-61500000D01*
X135900000Y-63100000D02*
X135900000Y-64000000D01*
X134300000Y-61500000D02*
X135900000Y-63100000D01*
X135900000Y-64000000D02*
X135900000Y-64500000D01*
X135800000Y-64500000D02*
X135900000Y-64500000D01*
X129500000Y-64500000D02*
X135800000Y-64500000D01*
X155400000Y-75900000D02*
X155300000Y-75800000D01*
X155300000Y-75800000D02*
X151588740Y-75800000D01*
X136600000Y-64500000D02*
X137100000Y-64000000D01*
X137100000Y-64000000D02*
X140900000Y-64000000D01*
X135800000Y-64500000D02*
X136600000Y-64500000D01*
X160600000Y-69800000D02*
X160800000Y-69600000D01*
X160800000Y-70200000D02*
X162800000Y-70200000D01*
X160800000Y-69600000D02*
X160800000Y-70200000D01*
X187600000Y-63500000D02*
X187700000Y-63600000D01*
X187600000Y-59800000D02*
X187600000Y-59100000D01*
X187600000Y-59100000D02*
X186800000Y-58300000D01*
X187600000Y-63500000D02*
X187600000Y-59800000D01*
X187700000Y-64600000D02*
X186600000Y-65700000D01*
X187700000Y-63600000D02*
X187700000Y-64600000D01*
D37*
X153204000Y-81096000D02*
X153204000Y-79796000D01*
X151300000Y-83000000D02*
X153204000Y-81096000D01*
X150500000Y-83000000D02*
X151300000Y-83000000D01*
D34*
X146896000Y-80004000D02*
X147100000Y-79800000D01*
D37*
X144116000Y-80596000D02*
X144908000Y-79804000D01*
X142592000Y-80596000D02*
X144116000Y-80596000D01*
D34*
X147096000Y-79804000D02*
X147100000Y-79800000D01*
D37*
X144908000Y-79804000D02*
X147096000Y-79804000D01*
X148500000Y-81200000D02*
X147100000Y-79800000D01*
X148500000Y-83000000D02*
X148500000Y-81200000D01*
X146200000Y-81096000D02*
X144908000Y-79804000D01*
X146200000Y-82100000D02*
X146200000Y-81096000D01*
X179300000Y-80500000D02*
X179300000Y-83000000D01*
X178008000Y-79208000D02*
X179300000Y-80500000D01*
D34*
X178008000Y-79004000D02*
X178008000Y-79208000D01*
X149400000Y-66600000D02*
X149900000Y-66100000D01*
X144200000Y-66800000D02*
X145800000Y-68400000D01*
X145800000Y-68400000D02*
X147600000Y-68400000D01*
X147600000Y-68400000D02*
X149400000Y-66600000D01*
X144200000Y-65000000D02*
X144200000Y-66800000D01*
X137500000Y-65000000D02*
X144200000Y-65000000D01*
X144200000Y-65000000D02*
X144300000Y-65000000D01*
X137300000Y-65200000D02*
X137500000Y-65000000D01*
X134400000Y-65200000D02*
X137300000Y-65200000D01*
X133800000Y-65800000D02*
X134400000Y-65200000D01*
X185500000Y-59400000D02*
X185500000Y-56600000D01*
X185600000Y-59500000D02*
X185500000Y-59400000D01*
X181900000Y-56600000D02*
X177950000Y-52650000D01*
X177950000Y-52650000D02*
X177950000Y-52600000D01*
X185500000Y-56600000D02*
X181900000Y-56600000D01*
X155100000Y-65100000D02*
X157250000Y-67250000D01*
X157250000Y-67250000D02*
X157250000Y-67500000D01*
X146650000Y-59150000D02*
X147950000Y-59150000D01*
X146600000Y-59200000D02*
X146650000Y-59150000D01*
X147950000Y-59150000D02*
X149600000Y-60800000D01*
X149600000Y-60800000D02*
X149600000Y-61100000D01*
X170800000Y-59600000D02*
X170900000Y-59500000D01*
X170900000Y-59500000D02*
X170900000Y-55200000D01*
X170900000Y-55200000D02*
X173500000Y-52600000D01*
X173500000Y-52600000D02*
X175250000Y-52600000D01*
X157700000Y-77700000D02*
X156400000Y-79000000D01*
X156400000Y-79000000D02*
X156400000Y-87100000D01*
X156400000Y-87100000D02*
X157900000Y-88600000D01*
D35*
X180000000Y-44800000D02*
X180000000Y-42400000D01*
X168338500Y-44589100D02*
X168600000Y-44850600D01*
X173549400Y-44850600D02*
X173600000Y-44800000D01*
X173600000Y-44800000D02*
X176600000Y-44800000D01*
X176600000Y-44800000D02*
X180000000Y-44800000D01*
X180000000Y-44800000D02*
X183300540Y-44800000D01*
X163461700Y-39712300D02*
X168600000Y-44850600D01*
X163461700Y-39199300D02*
X163461700Y-39712300D01*
X170749400Y-44850600D02*
X170800000Y-44800000D01*
X170749400Y-44850600D02*
X170800000Y-44800000D01*
X168600000Y-44850600D02*
X170749400Y-44850600D01*
X170800000Y-44800000D02*
X173600000Y-44800000D01*
D34*
G36*
X193715000Y-94015000D02*
X193068557Y-94015000D01*
X193068557Y-80056163D01*
X192096000Y-79083605D01*
X191916395Y-79263210D01*
X191916395Y-78904000D01*
X190943837Y-77931443D01*
X190677035Y-78030042D01*
X190450599Y-78639582D01*
X190474659Y-79289377D01*
X190677035Y-79777958D01*
X190943837Y-79876557D01*
X191916395Y-78904000D01*
X191916395Y-79263210D01*
X191123443Y-80056163D01*
X191222042Y-80322965D01*
X191831582Y-80549401D01*
X192481377Y-80525341D01*
X192969958Y-80322965D01*
X193068557Y-80056163D01*
X193068557Y-94015000D01*
X188460000Y-94015000D01*
X188460000Y-85226309D01*
X188460000Y-84885750D01*
X188301250Y-84727000D01*
X187327000Y-84727000D01*
X187327000Y-85576250D01*
X187485750Y-85735000D01*
X187698691Y-85735000D01*
X187951310Y-85735000D01*
X188184699Y-85638327D01*
X188363327Y-85459698D01*
X188460000Y-85226309D01*
X188460000Y-94015000D01*
X187073000Y-94015000D01*
X187073000Y-85576250D01*
X187073000Y-84727000D01*
X186098750Y-84727000D01*
X185940000Y-84885750D01*
X185940000Y-85226309D01*
X186036673Y-85459698D01*
X186215301Y-85638327D01*
X186448690Y-85735000D01*
X186701309Y-85735000D01*
X186914250Y-85735000D01*
X187073000Y-85576250D01*
X187073000Y-94015000D01*
X181692402Y-94015000D01*
X181988846Y-93719073D01*
X182238206Y-93118547D01*
X182238521Y-92757530D01*
X183898022Y-91098028D01*
X183898026Y-91098026D01*
X183898026Y-91098025D01*
X184173327Y-90686008D01*
X184270000Y-90200000D01*
X184270001Y-90200000D01*
X184270000Y-90199994D01*
X184270000Y-84800000D01*
X184260000Y-84749726D01*
X184260000Y-84173691D01*
X184163327Y-83940302D01*
X184023025Y-83799999D01*
X184163327Y-83659699D01*
X184260000Y-83426310D01*
X184260000Y-83173691D01*
X184260000Y-82850273D01*
X184270000Y-82800000D01*
X184270000Y-80494030D01*
X184520655Y-80390462D01*
X184980846Y-79931073D01*
X185072576Y-79710160D01*
X185121538Y-79828655D01*
X185580927Y-80288846D01*
X185930000Y-80433793D01*
X185930000Y-82600000D01*
X185940000Y-82650273D01*
X185940000Y-83226309D01*
X186036673Y-83459698D01*
X186176974Y-83600000D01*
X186036673Y-83740302D01*
X185940000Y-83973691D01*
X185940000Y-84314250D01*
X186098750Y-84473000D01*
X187073000Y-84473000D01*
X187073000Y-84453000D01*
X187327000Y-84453000D01*
X187327000Y-84473000D01*
X188301250Y-84473000D01*
X188460000Y-84314250D01*
X188460000Y-83973691D01*
X188363327Y-83740302D01*
X188223025Y-83599999D01*
X188363327Y-83459699D01*
X188460000Y-83226310D01*
X188460000Y-82973691D01*
X188460000Y-82650273D01*
X188470000Y-82600000D01*
X188470000Y-79596000D01*
X188373327Y-79109992D01*
X188142612Y-78764703D01*
X188142774Y-78580306D01*
X187894462Y-77979345D01*
X187435073Y-77519154D01*
X186834547Y-77269794D01*
X186184306Y-77269226D01*
X185583345Y-77517538D01*
X185123154Y-77976927D01*
X185031423Y-78197839D01*
X184982462Y-78079345D01*
X184523073Y-77619154D01*
X183922547Y-77369794D01*
X183272306Y-77369226D01*
X182671345Y-77617538D01*
X182211154Y-78076927D01*
X181961794Y-78677453D01*
X181961589Y-78912075D01*
X181826673Y-79113992D01*
X181730000Y-79600000D01*
X181730000Y-82800000D01*
X181740000Y-82850273D01*
X181740000Y-83426309D01*
X181836673Y-83659698D01*
X181976974Y-83800000D01*
X181836673Y-83940301D01*
X181740000Y-84173690D01*
X181740000Y-84426309D01*
X181740000Y-84749726D01*
X181730000Y-84800000D01*
X181730000Y-86018428D01*
X181531073Y-85819154D01*
X181324968Y-85733571D01*
X181324968Y-69829027D01*
X181204469Y-69597000D01*
X179997000Y-69597000D01*
X179997000Y-70803817D01*
X180229026Y-70924958D01*
X180644947Y-70752688D01*
X181076821Y-70358490D01*
X181324968Y-69829027D01*
X181324968Y-85733571D01*
X180930547Y-85569794D01*
X180280306Y-85569226D01*
X179679345Y-85817538D01*
X179219154Y-86276927D01*
X178969794Y-86877453D01*
X178969226Y-87527694D01*
X179217538Y-88128655D01*
X179676927Y-88588846D01*
X180277453Y-88838206D01*
X180927694Y-88838774D01*
X181528655Y-88590462D01*
X181730000Y-88389467D01*
X181730000Y-89673948D01*
X180223074Y-91180873D01*
X179679345Y-91405538D01*
X179219154Y-91864927D01*
X178969794Y-92465453D01*
X178969226Y-93115694D01*
X179217538Y-93716655D01*
X179515363Y-94015000D01*
X172960000Y-94015000D01*
X172960000Y-91326309D01*
X172960000Y-90985750D01*
X172801250Y-90827000D01*
X171827000Y-90827000D01*
X171827000Y-91676250D01*
X171985750Y-91835000D01*
X172198691Y-91835000D01*
X172451310Y-91835000D01*
X172684699Y-91738327D01*
X172863327Y-91559698D01*
X172960000Y-91326309D01*
X172960000Y-94015000D01*
X171573000Y-94015000D01*
X171573000Y-91676250D01*
X171573000Y-90827000D01*
X170598750Y-90827000D01*
X170440000Y-90985750D01*
X170440000Y-91326309D01*
X170536673Y-91559698D01*
X170715301Y-91738327D01*
X170948690Y-91835000D01*
X171201309Y-91835000D01*
X171414250Y-91835000D01*
X171573000Y-91676250D01*
X171573000Y-94015000D01*
X169041401Y-94015000D01*
X169041401Y-93060418D01*
X169017341Y-92410623D01*
X168814965Y-91922042D01*
X168548163Y-91823443D01*
X168368557Y-92003048D01*
X168368557Y-91643837D01*
X168269958Y-91377035D01*
X167660418Y-91150599D01*
X167010623Y-91174659D01*
X166522042Y-91377035D01*
X166423443Y-91643837D01*
X167396000Y-92616395D01*
X168368557Y-91643837D01*
X168368557Y-92003048D01*
X167575605Y-92796000D01*
X168548163Y-93768557D01*
X168814965Y-93669958D01*
X169041401Y-93060418D01*
X169041401Y-94015000D01*
X168343856Y-94015000D01*
X168368557Y-93948163D01*
X167396000Y-92975605D01*
X167216395Y-93155210D01*
X167216395Y-92796000D01*
X166243837Y-91823443D01*
X165977035Y-91922042D01*
X165750599Y-92531582D01*
X165774659Y-93181377D01*
X165977035Y-93669958D01*
X166243837Y-93768557D01*
X167216395Y-92796000D01*
X167216395Y-93155210D01*
X166423443Y-93948163D01*
X166448143Y-94015000D01*
X156760000Y-94015000D01*
X156760000Y-91426309D01*
X156760000Y-91085750D01*
X156601250Y-90927000D01*
X155627000Y-90927000D01*
X155627000Y-91776250D01*
X155785750Y-91935000D01*
X155998691Y-91935000D01*
X156251310Y-91935000D01*
X156484699Y-91838327D01*
X156663327Y-91659698D01*
X156760000Y-91426309D01*
X156760000Y-94015000D01*
X155373000Y-94015000D01*
X155373000Y-91776250D01*
X155373000Y-90927000D01*
X154398750Y-90927000D01*
X154240000Y-91085750D01*
X154240000Y-91426309D01*
X154336673Y-91659698D01*
X154515301Y-91838327D01*
X154748690Y-91935000D01*
X155001309Y-91935000D01*
X155214250Y-91935000D01*
X155373000Y-91776250D01*
X155373000Y-94015000D01*
X154141401Y-94015000D01*
X153730284Y-94015000D01*
X153762446Y-93982838D01*
X153648164Y-93868556D01*
X153914965Y-93769958D01*
X154141401Y-93160418D01*
X154117341Y-92510623D01*
X153914965Y-92022042D01*
X153648163Y-91923443D01*
X153468557Y-92103048D01*
X153468557Y-91743837D01*
X153369958Y-91477035D01*
X152760418Y-91250599D01*
X152110623Y-91274659D01*
X151622042Y-91477035D01*
X151523443Y-91743837D01*
X152496000Y-92716395D01*
X153468557Y-91743837D01*
X153468557Y-92103048D01*
X152675605Y-92896000D01*
X152689747Y-92910142D01*
X152510142Y-93089747D01*
X152496000Y-93075605D01*
X152481857Y-93089747D01*
X152316395Y-92924285D01*
X152302252Y-92910142D01*
X152316395Y-92896000D01*
X151343837Y-91923443D01*
X151077035Y-92022042D01*
X150850599Y-92631582D01*
X150874659Y-93281377D01*
X151077035Y-93769958D01*
X151343835Y-93868556D01*
X151229554Y-93982838D01*
X151261716Y-94015000D01*
X135085000Y-94015000D01*
X135085000Y-76800000D01*
X135045000Y-76598908D01*
X135045000Y-76000000D01*
X135032606Y-75937696D01*
X135032607Y-75924167D01*
X134960293Y-75560618D01*
X134960292Y-75560617D01*
X134863984Y-75328109D01*
X134863983Y-75328108D01*
X134863983Y-75328107D01*
X134792033Y-75220426D01*
X134801626Y-72361676D01*
X134920553Y-72338020D01*
X134920313Y-72613784D01*
X135084311Y-73010689D01*
X135387714Y-73314622D01*
X135784332Y-73479313D01*
X135822109Y-73479345D01*
X136670344Y-74327580D01*
X136670313Y-74363784D01*
X136834311Y-74760689D01*
X137137714Y-75064622D01*
X137534332Y-75229313D01*
X137963784Y-75229687D01*
X138360689Y-75065689D01*
X138664622Y-74762286D01*
X138829313Y-74365668D01*
X138829687Y-73936216D01*
X138665689Y-73539311D01*
X138362286Y-73235378D01*
X137965668Y-73070687D01*
X137927890Y-73070654D01*
X137079655Y-72222419D01*
X137079687Y-72186216D01*
X136915689Y-71789311D01*
X136612286Y-71485378D01*
X136215668Y-71320687D01*
X135786216Y-71320313D01*
X135546001Y-71419567D01*
X135503996Y-71208395D01*
X135338815Y-70961185D01*
X135091605Y-70796004D01*
X134807070Y-70739406D01*
X134822462Y-66152579D01*
X134879313Y-66015668D01*
X134879359Y-65962000D01*
X137300000Y-65962000D01*
X137300000Y-65961999D01*
X137591604Y-65903996D01*
X137591605Y-65903996D01*
X137804116Y-65762000D01*
X138028172Y-65762000D01*
X138005282Y-65784890D01*
X138119838Y-65899446D01*
X137863357Y-65985852D01*
X137653542Y-66559336D01*
X137679161Y-67169460D01*
X137863357Y-67614148D01*
X138119841Y-67700554D01*
X139020395Y-66800000D01*
X139006252Y-66785857D01*
X139185857Y-66606252D01*
X139200000Y-66620395D01*
X139214142Y-66606252D01*
X139393747Y-66785857D01*
X139379605Y-66800000D01*
X140280159Y-67700554D01*
X140536643Y-67614148D01*
X140665000Y-67263311D01*
X140665000Y-67826309D01*
X140761673Y-68059698D01*
X140940301Y-68238327D01*
X141046674Y-68282388D01*
X140899449Y-68429357D01*
X140699797Y-68910171D01*
X140502068Y-68431629D01*
X140070643Y-67999449D01*
X140061627Y-67995705D01*
X140100554Y-67880159D01*
X139200000Y-66979605D01*
X139020395Y-67159210D01*
X138299446Y-67880159D01*
X138338206Y-67995214D01*
X138331629Y-67997932D01*
X137899449Y-68429357D01*
X137665267Y-68993330D01*
X137664735Y-69603991D01*
X137897932Y-70168371D01*
X138279181Y-70550287D01*
X137899449Y-70929357D01*
X137665267Y-71493330D01*
X137664735Y-72103991D01*
X137897932Y-72668371D01*
X138329357Y-73100551D01*
X138893330Y-73334733D01*
X139503991Y-73335265D01*
X140068371Y-73102068D01*
X140500551Y-72670643D01*
X140700202Y-72189828D01*
X140897932Y-72668371D01*
X141329357Y-73100551D01*
X141893330Y-73334733D01*
X142503991Y-73335265D01*
X143068371Y-73102068D01*
X143340000Y-72830913D01*
X143340000Y-73126309D01*
X143436673Y-73359698D01*
X143615301Y-73538327D01*
X143848690Y-73635000D01*
X144101309Y-73635000D01*
X144314250Y-73635000D01*
X144473000Y-73476250D01*
X144473000Y-72627000D01*
X144453000Y-72627000D01*
X144453000Y-72373000D01*
X144473000Y-72373000D01*
X144473000Y-72353000D01*
X144727000Y-72353000D01*
X144727000Y-72373000D01*
X144747000Y-72373000D01*
X144747000Y-72627000D01*
X144727000Y-72627000D01*
X144727000Y-73476250D01*
X144885750Y-73635000D01*
X145098691Y-73635000D01*
X145351310Y-73635000D01*
X145477939Y-73582548D01*
X145561673Y-73784699D01*
X145591964Y-73814990D01*
X144097010Y-73814990D01*
X143938260Y-73973740D01*
X143938260Y-75673000D01*
X146287760Y-75673000D01*
X146446510Y-75514250D01*
X146446510Y-74576299D01*
X146446510Y-74323680D01*
X146349837Y-74090291D01*
X146316897Y-74057352D01*
X146473000Y-73901250D01*
X146473000Y-72927000D01*
X146453000Y-72927000D01*
X146453000Y-72673000D01*
X146473000Y-72673000D01*
X146473000Y-71698750D01*
X146314250Y-71540000D01*
X145973691Y-71540000D01*
X145754017Y-71630992D01*
X145623025Y-71499999D01*
X145763327Y-71359699D01*
X145860000Y-71126310D01*
X145860000Y-70873691D01*
X145860000Y-69873691D01*
X145763327Y-69640302D01*
X145584699Y-69461673D01*
X145351310Y-69365000D01*
X145122236Y-69365000D01*
X144428618Y-68671382D01*
X144140206Y-68478671D01*
X143800000Y-68411000D01*
X143481475Y-68411000D01*
X143353157Y-68282457D01*
X143459698Y-68238327D01*
X143638327Y-68059699D01*
X143735000Y-67826310D01*
X143735000Y-67573691D01*
X143735000Y-67412630D01*
X145261185Y-68938816D01*
X145409376Y-69037834D01*
X145508395Y-69103996D01*
X145508396Y-69103996D01*
X145800000Y-69162000D01*
X146313007Y-69162000D01*
X146220687Y-69384332D01*
X146220313Y-69813784D01*
X146347500Y-70121599D01*
X146347500Y-70400000D01*
X146420005Y-70764506D01*
X146626481Y-71073519D01*
X147092962Y-71540000D01*
X146885750Y-71540000D01*
X146727000Y-71698750D01*
X146727000Y-72673000D01*
X146747000Y-72673000D01*
X146747000Y-72927000D01*
X146727000Y-72927000D01*
X146727000Y-73901250D01*
X146885750Y-74060000D01*
X147226309Y-74060000D01*
X147459698Y-73963327D01*
X147600000Y-73823025D01*
X147647500Y-73870525D01*
X147647500Y-75400000D01*
X147720005Y-75764506D01*
X147926481Y-76073519D01*
X148326480Y-76473519D01*
X148326481Y-76473519D01*
X148635494Y-76679995D01*
X148953490Y-76743248D01*
X148953490Y-77276319D01*
X149050163Y-77509708D01*
X149228791Y-77688337D01*
X149462180Y-77785010D01*
X149714799Y-77785010D01*
X153715299Y-77785010D01*
X153948688Y-77688337D01*
X154127317Y-77509709D01*
X154223990Y-77276320D01*
X154223990Y-77023701D01*
X154223990Y-76752500D01*
X154947500Y-76752500D01*
X154947500Y-77378933D01*
X154820687Y-77684332D01*
X154820313Y-78113784D01*
X154984311Y-78510689D01*
X155287714Y-78814622D01*
X155645335Y-78963120D01*
X155638000Y-79000000D01*
X155638000Y-87100000D01*
X155648415Y-87152364D01*
X154906026Y-86409974D01*
X154838774Y-86365037D01*
X154838774Y-79472306D01*
X154590462Y-78871345D01*
X154131073Y-78411154D01*
X153530547Y-78161794D01*
X152880306Y-78161226D01*
X152279345Y-78409538D01*
X151819154Y-78868927D01*
X151809899Y-78891214D01*
X151648163Y-78831443D01*
X151468557Y-79011048D01*
X151468557Y-78651837D01*
X151369958Y-78385035D01*
X150760418Y-78158599D01*
X150110623Y-78182659D01*
X149622042Y-78385035D01*
X149523443Y-78651837D01*
X150496000Y-79624395D01*
X151468557Y-78651837D01*
X151468557Y-79011048D01*
X150675605Y-79804000D01*
X150689747Y-79818142D01*
X150510142Y-79997747D01*
X150496000Y-79983605D01*
X150481857Y-79997747D01*
X150302252Y-79818142D01*
X150316395Y-79804000D01*
X149343837Y-78831443D01*
X149077035Y-78930042D01*
X148850599Y-79539582D01*
X148858864Y-79762812D01*
X147998026Y-78901974D01*
X147586008Y-78626673D01*
X147100000Y-78529999D01*
X147079885Y-78534000D01*
X146446510Y-78534000D01*
X146446510Y-77276320D01*
X146446510Y-77023701D01*
X146446510Y-76085750D01*
X146287760Y-75927000D01*
X143938260Y-75927000D01*
X143938260Y-77626260D01*
X144097010Y-77785010D01*
X145937819Y-77785010D01*
X146171208Y-77688337D01*
X146349837Y-77509709D01*
X146446510Y-77276320D01*
X146446510Y-78534000D01*
X145949718Y-78534000D01*
X145835073Y-78419154D01*
X145234547Y-78169794D01*
X144584306Y-78169226D01*
X143983345Y-78417538D01*
X143684260Y-78716101D01*
X143684260Y-77626260D01*
X143684260Y-75927000D01*
X143684260Y-75673000D01*
X143684260Y-73973740D01*
X143525510Y-73814990D01*
X141684701Y-73814990D01*
X141451312Y-73911663D01*
X141272683Y-74090291D01*
X141176010Y-74323680D01*
X141176010Y-74576299D01*
X141176010Y-75514250D01*
X141334760Y-75673000D01*
X143684260Y-75673000D01*
X143684260Y-75927000D01*
X141334760Y-75927000D01*
X141176010Y-76085750D01*
X141176010Y-77023701D01*
X141176010Y-77276320D01*
X141272683Y-77509709D01*
X141451312Y-77688337D01*
X141684701Y-77785010D01*
X143525510Y-77785010D01*
X143684260Y-77626260D01*
X143684260Y-78716101D01*
X143523154Y-78876927D01*
X143404180Y-79163446D01*
X142918547Y-78961794D01*
X142268306Y-78961226D01*
X141667345Y-79209538D01*
X141207154Y-79668927D01*
X140957794Y-80269453D01*
X140957226Y-80919694D01*
X141205538Y-81520655D01*
X141664927Y-81980846D01*
X142265453Y-82230206D01*
X142915694Y-82230774D01*
X143516655Y-81982462D01*
X143633320Y-81866000D01*
X144115994Y-81866000D01*
X144116000Y-81866001D01*
X144116000Y-81866000D01*
X144602008Y-81769327D01*
X144886910Y-81578962D01*
X144930000Y-81622052D01*
X144930000Y-82100000D01*
X144940000Y-82150273D01*
X144940000Y-82726309D01*
X145036673Y-82959698D01*
X145176974Y-83100000D01*
X145036673Y-83240302D01*
X144940000Y-83473691D01*
X144940000Y-83814250D01*
X145098750Y-83973000D01*
X146073000Y-83973000D01*
X146073000Y-83953000D01*
X146327000Y-83953000D01*
X146327000Y-83973000D01*
X147301250Y-83973000D01*
X147411259Y-83862990D01*
X147461673Y-83984698D01*
X147640301Y-84163327D01*
X147873690Y-84260000D01*
X148126309Y-84260000D01*
X148449726Y-84260000D01*
X148500000Y-84270000D01*
X148550273Y-84260000D01*
X149126309Y-84260000D01*
X149359698Y-84163327D01*
X149500000Y-84023025D01*
X149640301Y-84163327D01*
X149873690Y-84260000D01*
X150126309Y-84260000D01*
X150449726Y-84260000D01*
X150500000Y-84270000D01*
X151299994Y-84270000D01*
X151300000Y-84270001D01*
X151300000Y-84270000D01*
X151786008Y-84173327D01*
X152198026Y-83898026D01*
X154102022Y-81994028D01*
X154102026Y-81994026D01*
X154102026Y-81994025D01*
X154377327Y-81582008D01*
X154474000Y-81096000D01*
X154474001Y-81096000D01*
X154474000Y-81095994D01*
X154474000Y-80837718D01*
X154588846Y-80723073D01*
X154838206Y-80122547D01*
X154838774Y-79472306D01*
X154838774Y-86365037D01*
X154494008Y-86134673D01*
X154008000Y-86037999D01*
X154007994Y-86038000D01*
X153537718Y-86038000D01*
X153423073Y-85923154D01*
X152822547Y-85673794D01*
X152172306Y-85673226D01*
X151571345Y-85921538D01*
X151111154Y-86380927D01*
X150861794Y-86981453D01*
X150861650Y-87146297D01*
X150677948Y-87330000D01*
X147460000Y-87330000D01*
X147460000Y-84726309D01*
X147460000Y-84385750D01*
X147301250Y-84227000D01*
X146327000Y-84227000D01*
X146327000Y-85076250D01*
X146485750Y-85235000D01*
X146698691Y-85235000D01*
X146951310Y-85235000D01*
X147184699Y-85138327D01*
X147363327Y-84959698D01*
X147460000Y-84726309D01*
X147460000Y-87330000D01*
X146604000Y-87330000D01*
X146600000Y-87330000D01*
X146073000Y-87330000D01*
X146073000Y-85076250D01*
X146073000Y-84227000D01*
X145098750Y-84227000D01*
X144940000Y-84385750D01*
X144940000Y-84726309D01*
X145036673Y-84959698D01*
X145215301Y-85138327D01*
X145448690Y-85235000D01*
X145701309Y-85235000D01*
X145914250Y-85235000D01*
X146073000Y-85076250D01*
X146073000Y-87330000D01*
X145526051Y-87330000D01*
X143070000Y-84873948D01*
X143070000Y-84100000D01*
X142973327Y-83613992D01*
X142935000Y-83556631D01*
X142935000Y-83348691D01*
X142838327Y-83115302D01*
X142659699Y-82936673D01*
X142426310Y-82840000D01*
X142173691Y-82840000D01*
X141850273Y-82840000D01*
X141800000Y-82830000D01*
X141749726Y-82840000D01*
X141173691Y-82840000D01*
X140940302Y-82936673D01*
X140799999Y-83076974D01*
X140659699Y-82936673D01*
X140426310Y-82840000D01*
X140336052Y-82840000D01*
X138573772Y-81077720D01*
X138638206Y-80922547D01*
X138638774Y-80272306D01*
X138390462Y-79671345D01*
X137931073Y-79211154D01*
X137330547Y-78961794D01*
X136680306Y-78961226D01*
X136079345Y-79209538D01*
X135619154Y-79668927D01*
X135369794Y-80269453D01*
X135369226Y-80919694D01*
X135617538Y-81520655D01*
X135816800Y-81720264D01*
X135816800Y-81720265D01*
X135830673Y-81790008D01*
X136105974Y-82202026D01*
X138665000Y-84761052D01*
X138665000Y-84851309D01*
X138761673Y-85084698D01*
X138940301Y-85263327D01*
X139173690Y-85360000D01*
X139426309Y-85360000D01*
X139749726Y-85360000D01*
X139800000Y-85370000D01*
X139850273Y-85360000D01*
X140426309Y-85360000D01*
X140530000Y-85317049D01*
X140530000Y-85399994D01*
X140529999Y-85400000D01*
X140626673Y-85886008D01*
X140901974Y-86298026D01*
X144101971Y-89498022D01*
X144101974Y-89498026D01*
X144513992Y-89773327D01*
X145000000Y-89870000D01*
X146600000Y-89870000D01*
X146604000Y-89870000D01*
X151203994Y-89870000D01*
X151204000Y-89870001D01*
X151204000Y-89870000D01*
X151690008Y-89773327D01*
X152102026Y-89498026D01*
X152657419Y-88942632D01*
X152819694Y-88942774D01*
X153420655Y-88694462D01*
X153509610Y-88605661D01*
X154240000Y-89336051D01*
X154240000Y-89426309D01*
X154336673Y-89659698D01*
X154476974Y-89800000D01*
X154336673Y-89940302D01*
X154240000Y-90173691D01*
X154240000Y-90514250D01*
X154398750Y-90673000D01*
X155373000Y-90673000D01*
X155373000Y-90653000D01*
X155627000Y-90653000D01*
X155627000Y-90673000D01*
X156601250Y-90673000D01*
X156760000Y-90514250D01*
X156760000Y-90173691D01*
X156663327Y-89940302D01*
X156523025Y-89799999D01*
X156663327Y-89659699D01*
X156760000Y-89426310D01*
X156760000Y-89173691D01*
X156760000Y-88850277D01*
X156770001Y-88800000D01*
X156760000Y-88749722D01*
X156760000Y-88537630D01*
X156820500Y-88598131D01*
X156820313Y-88813784D01*
X156984311Y-89210689D01*
X157287714Y-89514622D01*
X157684332Y-89679313D01*
X158113784Y-89679687D01*
X158510689Y-89515689D01*
X158814622Y-89212286D01*
X158979313Y-88815668D01*
X158979687Y-88386216D01*
X158815689Y-87989311D01*
X158512286Y-87685378D01*
X158115668Y-87520687D01*
X157898128Y-87520497D01*
X157162000Y-86784369D01*
X157162000Y-80131247D01*
X157405538Y-80720655D01*
X157864927Y-81180846D01*
X158465453Y-81430206D01*
X159115694Y-81430774D01*
X159716655Y-81182462D01*
X160176846Y-80723073D01*
X160396950Y-80193002D01*
X162301974Y-82098026D01*
X162713992Y-82373327D01*
X163200000Y-82470001D01*
X163200000Y-82470000D01*
X163200005Y-82470000D01*
X164173948Y-82470000D01*
X164828344Y-83124396D01*
X164345620Y-83323854D01*
X163970173Y-83698647D01*
X163893500Y-83883295D01*
X163893500Y-83630191D01*
X163796827Y-83396802D01*
X163618199Y-83218173D01*
X163384810Y-83121500D01*
X163132191Y-83121500D01*
X161735191Y-83121500D01*
X161501802Y-83218173D01*
X161323173Y-83396801D01*
X161226500Y-83630190D01*
X161226500Y-83882809D01*
X161226500Y-85279809D01*
X161323173Y-85513198D01*
X161501801Y-85691827D01*
X161735190Y-85788500D01*
X161987809Y-85788500D01*
X163384809Y-85788500D01*
X163618198Y-85691827D01*
X163796827Y-85513199D01*
X163893500Y-85279810D01*
X163893500Y-85027191D01*
X163893500Y-85027009D01*
X163968854Y-85209380D01*
X164343647Y-85584827D01*
X164833587Y-85788268D01*
X165364086Y-85788731D01*
X165854380Y-85586146D01*
X166229827Y-85211353D01*
X166370093Y-84873553D01*
X166508854Y-85209380D01*
X166883647Y-85584827D01*
X166963740Y-85618084D01*
X166471345Y-85821538D01*
X166011154Y-86280927D01*
X165761794Y-86881453D01*
X165761226Y-87531694D01*
X166009538Y-88132655D01*
X166468927Y-88592846D01*
X167069453Y-88842206D01*
X167719694Y-88842774D01*
X168320655Y-88594462D01*
X168437320Y-88478000D01*
X168891994Y-88478000D01*
X168892000Y-88478001D01*
X168892000Y-88478000D01*
X169378008Y-88381327D01*
X169502255Y-88298307D01*
X170440000Y-89236051D01*
X170440000Y-89326309D01*
X170536673Y-89559698D01*
X170676974Y-89700000D01*
X170536673Y-89840302D01*
X170440000Y-90073691D01*
X170440000Y-90414250D01*
X170598750Y-90573000D01*
X171573000Y-90573000D01*
X171573000Y-90553000D01*
X171827000Y-90553000D01*
X171827000Y-90573000D01*
X172801250Y-90573000D01*
X172960000Y-90414250D01*
X172960000Y-90073691D01*
X172863327Y-89840302D01*
X172723025Y-89699999D01*
X172863327Y-89559699D01*
X172960000Y-89326310D01*
X172960000Y-89073691D01*
X172960000Y-88750277D01*
X172970001Y-88700000D01*
X172960000Y-88649722D01*
X172960000Y-88073691D01*
X172863327Y-87840302D01*
X172684699Y-87661673D01*
X172451310Y-87565000D01*
X172361051Y-87565000D01*
X171450000Y-86653948D01*
X171450000Y-85920005D01*
X171450000Y-85920000D01*
X171450001Y-85920000D01*
X171450000Y-85919994D01*
X171450000Y-84873779D01*
X171450093Y-84873553D01*
X171588854Y-85209380D01*
X171963647Y-85584827D01*
X172453587Y-85788268D01*
X172984086Y-85788731D01*
X173474380Y-85586146D01*
X173849827Y-85211353D01*
X174053268Y-84721413D01*
X174053731Y-84190914D01*
X173851146Y-83700620D01*
X173476353Y-83325173D01*
X172986413Y-83121732D01*
X172455914Y-83121269D01*
X171965620Y-83323854D01*
X171590173Y-83698647D01*
X171450000Y-84036220D01*
X171450000Y-83446052D01*
X172026052Y-82870000D01*
X175373948Y-82870000D01*
X176165000Y-83661052D01*
X176165000Y-83751309D01*
X176261673Y-83984698D01*
X176440301Y-84163327D01*
X176673690Y-84260000D01*
X176926309Y-84260000D01*
X177249722Y-84260000D01*
X177300000Y-84270001D01*
X177350277Y-84260000D01*
X177926309Y-84260000D01*
X178159698Y-84163327D01*
X178300000Y-84023025D01*
X178440301Y-84163327D01*
X178673690Y-84260000D01*
X178926309Y-84260000D01*
X179249726Y-84260000D01*
X179300000Y-84270000D01*
X179350273Y-84260000D01*
X179926309Y-84260000D01*
X180159698Y-84163327D01*
X180338327Y-83984699D01*
X180435000Y-83751310D01*
X180435000Y-83543368D01*
X180473327Y-83486008D01*
X180570000Y-83000000D01*
X180570000Y-80500005D01*
X180570000Y-80500000D01*
X180570001Y-80500000D01*
X180473327Y-80013992D01*
X180198026Y-79601974D01*
X179642454Y-79046402D01*
X179642774Y-78680306D01*
X179394462Y-78079345D01*
X178935073Y-77619154D01*
X178334547Y-77369794D01*
X177684306Y-77369226D01*
X177083345Y-77617538D01*
X176623154Y-78076927D01*
X176373794Y-78677453D01*
X176373226Y-79327694D01*
X176621538Y-79928655D01*
X177080927Y-80388846D01*
X177614248Y-80610300D01*
X178030000Y-81026052D01*
X178030000Y-81782949D01*
X177926310Y-81740000D01*
X177836052Y-81740000D01*
X176798026Y-80701974D01*
X176386008Y-80426673D01*
X175900000Y-80329999D01*
X175899994Y-80330000D01*
X171500005Y-80330000D01*
X171500000Y-80329999D01*
X171013992Y-80426673D01*
X170601974Y-80701974D01*
X169281974Y-82021974D01*
X169006673Y-82433992D01*
X168909999Y-82920000D01*
X168910000Y-82920005D01*
X168910000Y-84036220D01*
X168909906Y-84036446D01*
X168870368Y-83940758D01*
X168813327Y-83653992D01*
X168538026Y-83241974D01*
X165598026Y-80301974D01*
X165186008Y-80026673D01*
X164700000Y-79929999D01*
X164699994Y-79930000D01*
X163726052Y-79930000D01*
X161670000Y-77873948D01*
X161670000Y-77830946D01*
X161803647Y-77964827D01*
X162293587Y-78168268D01*
X162824086Y-78168731D01*
X163314380Y-77966146D01*
X163689827Y-77591353D01*
X163830093Y-77253553D01*
X163968854Y-77589380D01*
X164343647Y-77964827D01*
X164833587Y-78168268D01*
X165364086Y-78168731D01*
X165854380Y-77966146D01*
X166229827Y-77591353D01*
X166370093Y-77253553D01*
X166508854Y-77589380D01*
X166883647Y-77964827D01*
X167373587Y-78168268D01*
X167904086Y-78168731D01*
X168394380Y-77966146D01*
X168769827Y-77591353D01*
X168910093Y-77253553D01*
X169048854Y-77589380D01*
X169423647Y-77964827D01*
X169913587Y-78168268D01*
X170444086Y-78168731D01*
X170934380Y-77966146D01*
X171309827Y-77591353D01*
X171450093Y-77253553D01*
X171588854Y-77589380D01*
X171963647Y-77964827D01*
X172453587Y-78168268D01*
X172984086Y-78168731D01*
X173474380Y-77966146D01*
X173849827Y-77591353D01*
X174053268Y-77101413D01*
X174053731Y-76570914D01*
X173851146Y-76080620D01*
X173476353Y-75705173D01*
X172986413Y-75501732D01*
X172455914Y-75501269D01*
X171965620Y-75703854D01*
X171590173Y-76078647D01*
X171449906Y-76416446D01*
X171311146Y-76080620D01*
X170936353Y-75705173D01*
X170446413Y-75501732D01*
X169915914Y-75501269D01*
X169425620Y-75703854D01*
X169050173Y-76078647D01*
X168909906Y-76416446D01*
X168771146Y-76080620D01*
X168396353Y-75705173D01*
X167968527Y-75527524D01*
X168157026Y-75339026D01*
X168432327Y-74927008D01*
X168529000Y-74441000D01*
X168529000Y-73951779D01*
X168529093Y-73951553D01*
X168667854Y-74287380D01*
X169042647Y-74662827D01*
X169532587Y-74866268D01*
X170063086Y-74866731D01*
X170553380Y-74664146D01*
X170928827Y-74289353D01*
X171069093Y-73951553D01*
X171207854Y-74287380D01*
X171582647Y-74662827D01*
X172072587Y-74866268D01*
X172603086Y-74866731D01*
X173093380Y-74664146D01*
X173468827Y-74289353D01*
X173672268Y-73799413D01*
X173672731Y-73268914D01*
X173470146Y-72778620D01*
X173095353Y-72403173D01*
X172605413Y-72199732D01*
X172074914Y-72199269D01*
X171584620Y-72401854D01*
X171209173Y-72776647D01*
X171068906Y-73114446D01*
X170930146Y-72778620D01*
X170688000Y-72536051D01*
X170688000Y-71900000D01*
X170688000Y-71899000D01*
X170688000Y-71699000D01*
X170620330Y-71358795D01*
X170620329Y-71358794D01*
X170427618Y-71070382D01*
X169927236Y-70570000D01*
X174600000Y-70570000D01*
X175086008Y-70473327D01*
X175143368Y-70435000D01*
X175351309Y-70435000D01*
X175584698Y-70338327D01*
X175763327Y-70159699D01*
X175860000Y-69926310D01*
X175860000Y-69673691D01*
X175860000Y-69643140D01*
X175945474Y-70072848D01*
X176270330Y-70559029D01*
X176756511Y-70883885D01*
X177330000Y-70997959D01*
X177903489Y-70883885D01*
X178389670Y-70559029D01*
X178605663Y-70235771D01*
X178663179Y-70358490D01*
X179095053Y-70752688D01*
X179510974Y-70924958D01*
X179743000Y-70803817D01*
X179743000Y-69597000D01*
X179723000Y-69597000D01*
X179723000Y-69343000D01*
X179743000Y-69343000D01*
X179743000Y-69323000D01*
X179997000Y-69323000D01*
X179997000Y-69343000D01*
X181204469Y-69343000D01*
X181324968Y-69110973D01*
X181076821Y-68581510D01*
X180893880Y-68414528D01*
X181093298Y-68331927D01*
X181271927Y-68153299D01*
X181368600Y-67919910D01*
X181368600Y-67667291D01*
X181368600Y-65940091D01*
X181368600Y-64389909D01*
X181368600Y-63685750D01*
X181368600Y-63114250D01*
X181368600Y-62410091D01*
X181271927Y-62176702D01*
X181093299Y-61998073D01*
X180859910Y-61901400D01*
X180607291Y-61901400D01*
X180155750Y-61901400D01*
X179997000Y-62060150D01*
X179997000Y-63273000D01*
X181209850Y-63273000D01*
X181368600Y-63114250D01*
X181368600Y-63685750D01*
X181209850Y-63527000D01*
X179997000Y-63527000D01*
X179997000Y-64739850D01*
X180155750Y-64898600D01*
X180607291Y-64898600D01*
X180859910Y-64898600D01*
X181093299Y-64801927D01*
X181271927Y-64623298D01*
X181368600Y-64389909D01*
X181368600Y-65940091D01*
X181271927Y-65706702D01*
X181093299Y-65528073D01*
X180859910Y-65431400D01*
X180607291Y-65431400D01*
X178880091Y-65431400D01*
X178646702Y-65528073D01*
X178468073Y-65706701D01*
X178403736Y-65862022D01*
X178389670Y-65840971D01*
X177903489Y-65516115D01*
X177330000Y-65402041D01*
X176756511Y-65516115D01*
X176270330Y-65840971D01*
X175945474Y-66327152D01*
X175870000Y-66706585D01*
X175870000Y-63623414D01*
X175945474Y-64002848D01*
X176270330Y-64489029D01*
X176756511Y-64813885D01*
X177330000Y-64927959D01*
X177903489Y-64813885D01*
X178389670Y-64489029D01*
X178403736Y-64467976D01*
X178468073Y-64623298D01*
X178646701Y-64801927D01*
X178880090Y-64898600D01*
X179132709Y-64898600D01*
X179584250Y-64898600D01*
X179743000Y-64739850D01*
X179743000Y-63527000D01*
X179723000Y-63527000D01*
X179723000Y-63273000D01*
X179743000Y-63273000D01*
X179743000Y-62060150D01*
X179681000Y-61998150D01*
X179681000Y-59044310D01*
X179681000Y-58791691D01*
X179681000Y-58578750D01*
X179681000Y-58007250D01*
X179681000Y-57794309D01*
X179681000Y-57541690D01*
X179584327Y-57308301D01*
X179405698Y-57129673D01*
X179172309Y-57033000D01*
X178831750Y-57033000D01*
X178673000Y-57191750D01*
X178673000Y-58166000D01*
X179522250Y-58166000D01*
X179681000Y-58007250D01*
X179681000Y-58578750D01*
X179522250Y-58420000D01*
X178673000Y-58420000D01*
X178673000Y-59394250D01*
X178831750Y-59553000D01*
X179172309Y-59553000D01*
X179405698Y-59456327D01*
X179584327Y-59277699D01*
X179681000Y-59044310D01*
X179681000Y-61998150D01*
X179584250Y-61901400D01*
X179132709Y-61901400D01*
X178880090Y-61901400D01*
X178646701Y-61998073D01*
X178468073Y-62176702D01*
X178403736Y-62332023D01*
X178389670Y-62310971D01*
X177903489Y-61986115D01*
X177330000Y-61872041D01*
X176756511Y-61986115D01*
X176270330Y-62310971D01*
X175945474Y-62797152D01*
X175870000Y-63176585D01*
X175870000Y-61772896D01*
X175882846Y-61760073D01*
X176132206Y-61159547D01*
X176132774Y-60509306D01*
X175884462Y-59908345D01*
X175425073Y-59448154D01*
X174824547Y-59198794D01*
X174174306Y-59198226D01*
X173573345Y-59446538D01*
X173456679Y-59563000D01*
X171967005Y-59563000D01*
X171967000Y-59562999D01*
X171879517Y-59580400D01*
X171879687Y-59386216D01*
X171715689Y-58989311D01*
X171662000Y-58935528D01*
X171662000Y-55515630D01*
X173815630Y-53362000D01*
X173865000Y-53362000D01*
X173865000Y-53376309D01*
X173961673Y-53609698D01*
X174024216Y-53672241D01*
X173573345Y-53858538D01*
X173113154Y-54317927D01*
X172863794Y-54918453D01*
X172863226Y-55568694D01*
X173111538Y-56169655D01*
X173238263Y-56296601D01*
X173324673Y-56731008D01*
X173599974Y-57143026D01*
X175411000Y-58954051D01*
X175411000Y-59044309D01*
X175507673Y-59277698D01*
X175686301Y-59456327D01*
X175919690Y-59553000D01*
X176172309Y-59553000D01*
X176495726Y-59553000D01*
X176546000Y-59563000D01*
X176596273Y-59553000D01*
X177172309Y-59553000D01*
X177405698Y-59456327D01*
X177546000Y-59316025D01*
X177686302Y-59456327D01*
X177919691Y-59553000D01*
X178260250Y-59553000D01*
X178419000Y-59394250D01*
X178419000Y-58420000D01*
X178399000Y-58420000D01*
X178399000Y-58166000D01*
X178419000Y-58166000D01*
X178419000Y-57191750D01*
X178260250Y-57033000D01*
X177919691Y-57033000D01*
X177686302Y-57129673D01*
X177545999Y-57269974D01*
X177405699Y-57129673D01*
X177172310Y-57033000D01*
X177082051Y-57033000D01*
X175982098Y-55933046D01*
X176132206Y-55571547D01*
X176132774Y-54921306D01*
X175884462Y-54320345D01*
X175449875Y-53885000D01*
X176126309Y-53885000D01*
X176359698Y-53788327D01*
X176538327Y-53609699D01*
X176600000Y-53460806D01*
X176661673Y-53609698D01*
X176840301Y-53788327D01*
X177073690Y-53885000D01*
X177326309Y-53885000D01*
X178107369Y-53885000D01*
X181361185Y-57138816D01*
X181608395Y-57303996D01*
X181608396Y-57303997D01*
X181900000Y-57362000D01*
X184735358Y-57362000D01*
X184738000Y-57364646D01*
X184738000Y-58835183D01*
X184685378Y-58887714D01*
X184520687Y-59284332D01*
X184520313Y-59713784D01*
X184684311Y-60110689D01*
X184987714Y-60414622D01*
X185384332Y-60579313D01*
X185813784Y-60579687D01*
X186210689Y-60415689D01*
X186514622Y-60112286D01*
X186647500Y-59792281D01*
X186647500Y-59800000D01*
X186647500Y-62649517D01*
X186565000Y-62848690D01*
X186565000Y-63101309D01*
X186565000Y-64351309D01*
X186575735Y-64377226D01*
X186294930Y-64658031D01*
X185989311Y-64784311D01*
X185685378Y-65087714D01*
X185635284Y-65208353D01*
X185635284Y-63476205D01*
X185386894Y-62875057D01*
X184927363Y-62414722D01*
X184326648Y-62165284D01*
X183676205Y-62164716D01*
X183075057Y-62413106D01*
X182614722Y-62872637D01*
X182365284Y-63473352D01*
X182364716Y-64123795D01*
X182613106Y-64724943D01*
X183072637Y-65185278D01*
X183673352Y-65434716D01*
X184323795Y-65435284D01*
X184924943Y-65186894D01*
X185385278Y-64727363D01*
X185634716Y-64126648D01*
X185635284Y-63476205D01*
X185635284Y-65208353D01*
X185520687Y-65484332D01*
X185520313Y-65913784D01*
X185684311Y-66310689D01*
X185987714Y-66614622D01*
X186384332Y-66779313D01*
X186813784Y-66779687D01*
X187210689Y-66615689D01*
X187514622Y-66312286D01*
X187642347Y-66004690D01*
X188373519Y-65273519D01*
X188579995Y-64964506D01*
X188634988Y-64688037D01*
X188700000Y-64623025D01*
X188840302Y-64763327D01*
X189073691Y-64860000D01*
X189414250Y-64860000D01*
X189573000Y-64701250D01*
X189573000Y-63727000D01*
X189553000Y-63727000D01*
X189553000Y-63473000D01*
X189573000Y-63473000D01*
X189573000Y-62498750D01*
X189414250Y-62340000D01*
X189073691Y-62340000D01*
X188840302Y-62436673D01*
X188699999Y-62576974D01*
X188559699Y-62436673D01*
X188552500Y-62433691D01*
X188552500Y-59800000D01*
X188552500Y-59100000D01*
X188479995Y-58735494D01*
X188273519Y-58426481D01*
X187841968Y-57994930D01*
X187715689Y-57689311D01*
X187412286Y-57385378D01*
X187015668Y-57220687D01*
X186586216Y-57220313D01*
X186279716Y-57346956D01*
X186414622Y-57212286D01*
X186579313Y-56815668D01*
X186579687Y-56386216D01*
X186415689Y-55989311D01*
X186112286Y-55685378D01*
X185715668Y-55520687D01*
X185286216Y-55520313D01*
X184935314Y-55665302D01*
X184935314Y-44476306D01*
X184687002Y-43875345D01*
X184227613Y-43415154D01*
X183627087Y-43165794D01*
X182976846Y-43165226D01*
X182375885Y-43413538D01*
X181941165Y-43847500D01*
X181070525Y-43847500D01*
X180984699Y-43761673D01*
X180751310Y-43665000D01*
X180498691Y-43665000D01*
X179248691Y-43665000D01*
X179015302Y-43761673D01*
X178929474Y-43847500D01*
X177670525Y-43847500D01*
X177584699Y-43761673D01*
X177351310Y-43665000D01*
X177098691Y-43665000D01*
X175848691Y-43665000D01*
X175615302Y-43761673D01*
X175529474Y-43847500D01*
X174670525Y-43847500D01*
X174584699Y-43761673D01*
X174351310Y-43665000D01*
X174098691Y-43665000D01*
X172848691Y-43665000D01*
X172615302Y-43761673D01*
X172529474Y-43847500D01*
X171835430Y-43847500D01*
X171835430Y-43323891D01*
X171738757Y-43090502D01*
X171560129Y-42911873D01*
X171326740Y-42815200D01*
X171074121Y-42815200D01*
X169273261Y-42815200D01*
X169039872Y-42911873D01*
X168861243Y-43090501D01*
X168764570Y-43323890D01*
X168764570Y-43576509D01*
X168764570Y-43668131D01*
X165163907Y-40067469D01*
X165366368Y-39579890D01*
X165367030Y-38822035D01*
X165077622Y-38121614D01*
X164542205Y-37585261D01*
X163842290Y-37294632D01*
X163084435Y-37293970D01*
X162384014Y-37583378D01*
X161847661Y-38118795D01*
X161557032Y-38818710D01*
X161556370Y-39576565D01*
X161845778Y-40276986D01*
X162381195Y-40813339D01*
X163081110Y-41103968D01*
X163506701Y-41104339D01*
X167664981Y-45262619D01*
X167926481Y-45524120D01*
X168111721Y-45647892D01*
X168235494Y-45730595D01*
X168235495Y-45730595D01*
X168600000Y-45803100D01*
X168764570Y-45803100D01*
X168764570Y-47076629D01*
X168861243Y-47310018D01*
X169039871Y-47488647D01*
X169273260Y-47585320D01*
X169525879Y-47585320D01*
X171326739Y-47585320D01*
X171560128Y-47488647D01*
X171738757Y-47310019D01*
X171835430Y-47076630D01*
X171835430Y-46824011D01*
X171835430Y-45752500D01*
X172529474Y-45752500D01*
X172576974Y-45800000D01*
X172436673Y-45940302D01*
X172340000Y-46173691D01*
X172340000Y-46514250D01*
X172498750Y-46673000D01*
X173473000Y-46673000D01*
X173473000Y-46653000D01*
X173727000Y-46653000D01*
X173727000Y-46673000D01*
X174701250Y-46673000D01*
X174860000Y-46514250D01*
X174860000Y-46173691D01*
X174763327Y-45940302D01*
X174623025Y-45799999D01*
X174670525Y-45752500D01*
X175529474Y-45752500D01*
X175576974Y-45800000D01*
X175436673Y-45940302D01*
X175340000Y-46173691D01*
X175340000Y-46514250D01*
X175498750Y-46673000D01*
X176473000Y-46673000D01*
X176473000Y-46653000D01*
X176727000Y-46653000D01*
X176727000Y-46673000D01*
X177701250Y-46673000D01*
X177860000Y-46514250D01*
X177860000Y-46173691D01*
X177763327Y-45940302D01*
X177623025Y-45799999D01*
X177670525Y-45752500D01*
X178929474Y-45752500D01*
X178976974Y-45800000D01*
X178836673Y-45940302D01*
X178740000Y-46173691D01*
X178740000Y-46514250D01*
X178898750Y-46673000D01*
X179873000Y-46673000D01*
X179873000Y-46653000D01*
X180127000Y-46653000D01*
X180127000Y-46673000D01*
X181101250Y-46673000D01*
X181260000Y-46514250D01*
X181260000Y-46173691D01*
X181163327Y-45940302D01*
X181023025Y-45799999D01*
X181070525Y-45752500D01*
X181941874Y-45752500D01*
X182373467Y-46184846D01*
X182973993Y-46434206D01*
X183624234Y-46434774D01*
X184225195Y-46186462D01*
X184685386Y-45727073D01*
X184934746Y-45126547D01*
X184935314Y-44476306D01*
X184935314Y-55665302D01*
X184889311Y-55684311D01*
X184735353Y-55838000D01*
X182215630Y-55838000D01*
X181260000Y-54882369D01*
X181260000Y-47426309D01*
X181260000Y-47085750D01*
X181101250Y-46927000D01*
X180127000Y-46927000D01*
X180127000Y-47776250D01*
X180285750Y-47935000D01*
X180498691Y-47935000D01*
X180751310Y-47935000D01*
X180984699Y-47838327D01*
X181163327Y-47659698D01*
X181260000Y-47426309D01*
X181260000Y-54882369D01*
X179873000Y-53495369D01*
X179873000Y-47776250D01*
X179873000Y-46927000D01*
X178898750Y-46927000D01*
X178740000Y-47085750D01*
X178740000Y-47426309D01*
X178836673Y-47659698D01*
X179015301Y-47838327D01*
X179248690Y-47935000D01*
X179501309Y-47935000D01*
X179714250Y-47935000D01*
X179873000Y-47776250D01*
X179873000Y-53495369D01*
X179335000Y-52957369D01*
X179335000Y-51823691D01*
X179238327Y-51590302D01*
X179059699Y-51411673D01*
X178826310Y-51315000D01*
X178573691Y-51315000D01*
X177860000Y-51315000D01*
X177860000Y-47426309D01*
X177860000Y-47085750D01*
X177701250Y-46927000D01*
X176727000Y-46927000D01*
X176727000Y-47776250D01*
X176885750Y-47935000D01*
X177098691Y-47935000D01*
X177351310Y-47935000D01*
X177584699Y-47838327D01*
X177763327Y-47659698D01*
X177860000Y-47426309D01*
X177860000Y-51315000D01*
X177073691Y-51315000D01*
X176840302Y-51411673D01*
X176661673Y-51590301D01*
X176599999Y-51739193D01*
X176538327Y-51590302D01*
X176473000Y-51524974D01*
X176473000Y-47776250D01*
X176473000Y-46927000D01*
X175498750Y-46927000D01*
X175340000Y-47085750D01*
X175340000Y-47426309D01*
X175436673Y-47659698D01*
X175615301Y-47838327D01*
X175848690Y-47935000D01*
X176101309Y-47935000D01*
X176314250Y-47935000D01*
X176473000Y-47776250D01*
X176473000Y-51524974D01*
X176359699Y-51411673D01*
X176126310Y-51315000D01*
X175873691Y-51315000D01*
X174860000Y-51315000D01*
X174860000Y-47426309D01*
X174860000Y-47085750D01*
X174701250Y-46927000D01*
X173727000Y-46927000D01*
X173727000Y-47776250D01*
X173885750Y-47935000D01*
X174098691Y-47935000D01*
X174351310Y-47935000D01*
X174584699Y-47838327D01*
X174763327Y-47659698D01*
X174860000Y-47426309D01*
X174860000Y-51315000D01*
X174373691Y-51315000D01*
X174140302Y-51411673D01*
X173961673Y-51590301D01*
X173865000Y-51823690D01*
X173865000Y-51838000D01*
X173500000Y-51838000D01*
X173473000Y-51843370D01*
X173473000Y-47776250D01*
X173473000Y-46927000D01*
X172498750Y-46927000D01*
X172340000Y-47085750D01*
X172340000Y-47426309D01*
X172436673Y-47659698D01*
X172615301Y-47838327D01*
X172848690Y-47935000D01*
X173101309Y-47935000D01*
X173314250Y-47935000D01*
X173473000Y-47776250D01*
X173473000Y-51843370D01*
X173208395Y-51896004D01*
X172961184Y-52061185D01*
X171757060Y-53265308D01*
X171835430Y-53076109D01*
X171835430Y-51485490D01*
X171835430Y-50913990D01*
X171835430Y-49323371D01*
X171738757Y-49089982D01*
X171560129Y-48911353D01*
X171326740Y-48814680D01*
X171074121Y-48814680D01*
X170585750Y-48814680D01*
X170427000Y-48973430D01*
X170427000Y-51072740D01*
X171676680Y-51072740D01*
X171835430Y-50913990D01*
X171835430Y-51485490D01*
X171676680Y-51326740D01*
X170427000Y-51326740D01*
X170427000Y-53426050D01*
X170585750Y-53584800D01*
X171074121Y-53584800D01*
X171326740Y-53584800D01*
X171515938Y-53506431D01*
X170361185Y-54661185D01*
X170196004Y-54908395D01*
X170173000Y-55024043D01*
X170173000Y-53426050D01*
X170173000Y-51326740D01*
X170173000Y-51072740D01*
X170173000Y-48973430D01*
X170014250Y-48814680D01*
X169525879Y-48814680D01*
X169273260Y-48814680D01*
X169039871Y-48911353D01*
X168861243Y-49089982D01*
X168764570Y-49323371D01*
X168764570Y-50913990D01*
X168923320Y-51072740D01*
X170173000Y-51072740D01*
X170173000Y-51326740D01*
X168923320Y-51326740D01*
X168764570Y-51485490D01*
X168764570Y-53076109D01*
X168861243Y-53309498D01*
X169039871Y-53488127D01*
X169273260Y-53584800D01*
X169525879Y-53584800D01*
X170014250Y-53584800D01*
X170173000Y-53426050D01*
X170173000Y-55024043D01*
X170138000Y-55200000D01*
X170138000Y-58735532D01*
X169885378Y-58987714D01*
X169720687Y-59384332D01*
X169720313Y-59813784D01*
X169884311Y-60210689D01*
X170187714Y-60514622D01*
X170311183Y-60565891D01*
X170140302Y-60636673D01*
X170000000Y-60776974D01*
X169859698Y-60636673D01*
X169626309Y-60540000D01*
X169285750Y-60540000D01*
X169127000Y-60698750D01*
X169127000Y-61673000D01*
X169147000Y-61673000D01*
X169147000Y-61927000D01*
X169127000Y-61927000D01*
X169127000Y-62901250D01*
X169285750Y-63060000D01*
X169626309Y-63060000D01*
X169859698Y-62963327D01*
X170000000Y-62823025D01*
X170140301Y-62963327D01*
X170373690Y-63060000D01*
X170626309Y-63060000D01*
X170949722Y-63060000D01*
X171000000Y-63070001D01*
X171050277Y-63060000D01*
X171626309Y-63060000D01*
X171859698Y-62963327D01*
X172038327Y-62784699D01*
X172135000Y-62551310D01*
X172135000Y-62461051D01*
X172493051Y-62103000D01*
X173330000Y-62103000D01*
X173330000Y-64648338D01*
X173163810Y-64579500D01*
X172911191Y-64579500D01*
X171514191Y-64579500D01*
X171280802Y-64676173D01*
X171102173Y-64854801D01*
X171005500Y-65088190D01*
X171005500Y-65340809D01*
X171005500Y-65340990D01*
X170930146Y-65158620D01*
X170555353Y-64783173D01*
X170065413Y-64579732D01*
X169534914Y-64579269D01*
X169044620Y-64781854D01*
X168873000Y-64953175D01*
X168873000Y-62901250D01*
X168873000Y-61927000D01*
X168873000Y-61673000D01*
X168873000Y-60698750D01*
X168714250Y-60540000D01*
X168373691Y-60540000D01*
X168330774Y-60557776D01*
X168330774Y-57980306D01*
X168082462Y-57379345D01*
X167623073Y-56919154D01*
X167022547Y-56669794D01*
X166372306Y-56669226D01*
X165771345Y-56917538D01*
X165311154Y-57376927D01*
X165061794Y-57977453D01*
X165061226Y-58627694D01*
X165309538Y-59228655D01*
X165768927Y-59688846D01*
X166369453Y-59938206D01*
X167019694Y-59938774D01*
X167620655Y-59690462D01*
X168080846Y-59231073D01*
X168330206Y-58630547D01*
X168330774Y-57980306D01*
X168330774Y-60557776D01*
X168140302Y-60636673D01*
X167961673Y-60815301D01*
X167865000Y-61048690D01*
X167865000Y-61301309D01*
X167865000Y-61514250D01*
X168023750Y-61673000D01*
X168873000Y-61673000D01*
X168873000Y-61927000D01*
X168023750Y-61927000D01*
X167865000Y-62085750D01*
X167865000Y-62298691D01*
X167865000Y-62551310D01*
X167961673Y-62784699D01*
X168140302Y-62963327D01*
X168373691Y-63060000D01*
X168714250Y-63060000D01*
X168873000Y-62901250D01*
X168873000Y-64953175D01*
X168669173Y-65156647D01*
X168528906Y-65494446D01*
X168390146Y-65158620D01*
X168015353Y-64783173D01*
X167525413Y-64579732D01*
X166994914Y-64579269D01*
X166504620Y-64781854D01*
X166335000Y-64951178D01*
X166335000Y-62751310D01*
X166335000Y-62498691D01*
X166335000Y-62285750D01*
X166335000Y-61714250D01*
X166335000Y-61501309D01*
X166335000Y-61248690D01*
X166238327Y-61015301D01*
X166059698Y-60836673D01*
X165826309Y-60740000D01*
X165485750Y-60740000D01*
X165327000Y-60898750D01*
X165327000Y-61873000D01*
X166176250Y-61873000D01*
X166335000Y-61714250D01*
X166335000Y-62285750D01*
X166176250Y-62127000D01*
X165327000Y-62127000D01*
X165327000Y-63101250D01*
X165485750Y-63260000D01*
X165826309Y-63260000D01*
X166059698Y-63163327D01*
X166238327Y-62984699D01*
X166335000Y-62751310D01*
X166335000Y-64951178D01*
X166129173Y-65156647D01*
X165988906Y-65494446D01*
X165850146Y-65158620D01*
X165475353Y-64783173D01*
X165073000Y-64616101D01*
X165073000Y-63101250D01*
X165073000Y-62127000D01*
X165053000Y-62127000D01*
X165053000Y-61873000D01*
X165073000Y-61873000D01*
X165073000Y-60898750D01*
X164960559Y-60786309D01*
X164960559Y-50902518D01*
X164732892Y-50351520D01*
X164311697Y-49929590D01*
X163761098Y-49700961D01*
X163164918Y-49700441D01*
X162613920Y-49928108D01*
X162191990Y-50349303D01*
X161963361Y-50899902D01*
X161962841Y-51496082D01*
X162190508Y-52047080D01*
X162611703Y-52469010D01*
X163162302Y-52697639D01*
X163758482Y-52698159D01*
X164309480Y-52470492D01*
X164731410Y-52049297D01*
X164960039Y-51498698D01*
X164960559Y-50902518D01*
X164960559Y-60786309D01*
X164914250Y-60740000D01*
X164573691Y-60740000D01*
X164340302Y-60836673D01*
X164199999Y-60976974D01*
X164059699Y-60836673D01*
X163826310Y-60740000D01*
X163736051Y-60740000D01*
X162378000Y-59381948D01*
X162378000Y-59345718D01*
X162492846Y-59231073D01*
X162742206Y-58630547D01*
X162742774Y-57980306D01*
X162494462Y-57379345D01*
X162035073Y-56919154D01*
X161434547Y-56669794D01*
X160784306Y-56669226D01*
X160183345Y-56917538D01*
X159723154Y-57376927D01*
X159473794Y-57977453D01*
X159473226Y-58627694D01*
X159721538Y-59228655D01*
X159838000Y-59345320D01*
X159838000Y-59907994D01*
X159837999Y-59908000D01*
X159934673Y-60394008D01*
X160209974Y-60806026D01*
X162065000Y-62661051D01*
X162065000Y-62751309D01*
X162161673Y-62984698D01*
X162340301Y-63163327D01*
X162573690Y-63260000D01*
X162826309Y-63260000D01*
X163149722Y-63260000D01*
X163200000Y-63270001D01*
X163250277Y-63260000D01*
X163826309Y-63260000D01*
X164059698Y-63163327D01*
X164200000Y-63023025D01*
X164340302Y-63163327D01*
X164573691Y-63260000D01*
X164914250Y-63260000D01*
X165073000Y-63101250D01*
X165073000Y-64616101D01*
X164985413Y-64579732D01*
X164454914Y-64579269D01*
X163964620Y-64781854D01*
X163589173Y-65156647D01*
X163448906Y-65494446D01*
X163310146Y-65158620D01*
X162935353Y-64783173D01*
X162445413Y-64579732D01*
X161914914Y-64579269D01*
X161424620Y-64781854D01*
X161235000Y-64971143D01*
X161235000Y-63976310D01*
X161235000Y-63723691D01*
X161235000Y-63485750D01*
X161235000Y-62914250D01*
X161235000Y-62676309D01*
X161235000Y-62423690D01*
X161138327Y-62190301D01*
X160959698Y-62011673D01*
X160726309Y-61915000D01*
X160135750Y-61915000D01*
X159977000Y-62073750D01*
X159977000Y-63073000D01*
X161076250Y-63073000D01*
X161235000Y-62914250D01*
X161235000Y-63485750D01*
X161076250Y-63327000D01*
X159977000Y-63327000D01*
X159977000Y-64326250D01*
X160135750Y-64485000D01*
X160726309Y-64485000D01*
X160959698Y-64388327D01*
X161138327Y-64209699D01*
X161235000Y-63976310D01*
X161235000Y-64971143D01*
X161049173Y-65156647D01*
X160845732Y-65646587D01*
X160845269Y-66177086D01*
X160868084Y-66232304D01*
X160826309Y-66215000D01*
X160235750Y-66215000D01*
X160077000Y-66373750D01*
X160077000Y-67373000D01*
X161176250Y-67373000D01*
X161335000Y-67214250D01*
X161335000Y-66976309D01*
X161335000Y-66955027D01*
X161422647Y-67042827D01*
X161784070Y-67192903D01*
X161636673Y-67340302D01*
X161540000Y-67573691D01*
X161540000Y-67914250D01*
X161698750Y-68073000D01*
X162673000Y-68073000D01*
X162673000Y-68053000D01*
X162927000Y-68053000D01*
X162927000Y-68073000D01*
X163901250Y-68073000D01*
X164060000Y-67914250D01*
X164060000Y-67573691D01*
X163963327Y-67340302D01*
X163784699Y-67161673D01*
X163551310Y-67065000D01*
X163298691Y-67065000D01*
X163085750Y-67065000D01*
X162927002Y-67223748D01*
X162927002Y-67065000D01*
X162882909Y-67065000D01*
X162933380Y-67044146D01*
X163308827Y-66669353D01*
X163449093Y-66331553D01*
X163587854Y-66667380D01*
X163962647Y-67042827D01*
X164452587Y-67246268D01*
X164983086Y-67246731D01*
X165473380Y-67044146D01*
X165848827Y-66669353D01*
X165989093Y-66331553D01*
X166127854Y-66667380D01*
X166502647Y-67042827D01*
X166992587Y-67246268D01*
X167523086Y-67246731D01*
X168013380Y-67044146D01*
X168388827Y-66669353D01*
X168529093Y-66331553D01*
X168667854Y-66667380D01*
X169042647Y-67042827D01*
X169532587Y-67246268D01*
X170063086Y-67246731D01*
X170553380Y-67044146D01*
X170928827Y-66669353D01*
X171005500Y-66484704D01*
X171005500Y-66737809D01*
X171102173Y-66971198D01*
X171280801Y-67149827D01*
X171514190Y-67246500D01*
X171766809Y-67246500D01*
X173163809Y-67246500D01*
X173330000Y-67177661D01*
X173330000Y-67300000D01*
X173340000Y-67350273D01*
X173340000Y-67926309D01*
X173382950Y-68030000D01*
X166100005Y-68030000D01*
X166100000Y-68029999D01*
X165613992Y-68126673D01*
X165201974Y-68401974D01*
X164051288Y-69552659D01*
X163963327Y-69340302D01*
X163823025Y-69200000D01*
X163963327Y-69059698D01*
X164060000Y-68826309D01*
X164060000Y-68485750D01*
X163901250Y-68327000D01*
X162927000Y-68327000D01*
X162927000Y-68347000D01*
X162673000Y-68347000D01*
X162673000Y-68327000D01*
X161698750Y-68327000D01*
X161540000Y-68485750D01*
X161540000Y-68813315D01*
X161412286Y-68685378D01*
X161165233Y-68582792D01*
X161238327Y-68509699D01*
X161335000Y-68276310D01*
X161335000Y-68023691D01*
X161335000Y-67785750D01*
X161176250Y-67627000D01*
X160077000Y-67627000D01*
X160077000Y-68626250D01*
X160162162Y-68711412D01*
X159885378Y-68987714D01*
X159823000Y-69137935D01*
X159823000Y-68626250D01*
X159823000Y-67627000D01*
X159803000Y-67627000D01*
X159803000Y-67373000D01*
X159823000Y-67373000D01*
X159823000Y-66373750D01*
X159664250Y-66215000D01*
X159073691Y-66215000D01*
X158840302Y-66311673D01*
X158661673Y-66490301D01*
X158599999Y-66639193D01*
X158538327Y-66490302D01*
X158359699Y-66311673D01*
X158126310Y-66215000D01*
X157873691Y-66215000D01*
X157292630Y-66215000D01*
X156179499Y-65101869D01*
X156179687Y-64886216D01*
X156015689Y-64489311D01*
X155712286Y-64185378D01*
X155315668Y-64020687D01*
X154886216Y-64020313D01*
X154489311Y-64184311D01*
X154185378Y-64487714D01*
X154020687Y-64884332D01*
X154020313Y-65313784D01*
X154184311Y-65710689D01*
X154487714Y-66014622D01*
X154884332Y-66179313D01*
X155101872Y-66179502D01*
X155865000Y-66942630D01*
X155865000Y-66976309D01*
X155865000Y-68276309D01*
X155961673Y-68509698D01*
X156140301Y-68688327D01*
X156373690Y-68785000D01*
X156626309Y-68785000D01*
X158126309Y-68785000D01*
X158359698Y-68688327D01*
X158538327Y-68509699D01*
X158600000Y-68360807D01*
X158661673Y-68509699D01*
X158840302Y-68688327D01*
X159073691Y-68785000D01*
X159664250Y-68785000D01*
X159823000Y-68626250D01*
X159823000Y-69137935D01*
X159757652Y-69295309D01*
X158926481Y-70126481D01*
X158720005Y-70435494D01*
X158647500Y-70800000D01*
X158647500Y-73505462D01*
X157205462Y-74947500D01*
X155900000Y-74947500D01*
X155705655Y-74947500D01*
X155664506Y-74920005D01*
X155300000Y-74847500D01*
X155135000Y-74847500D01*
X155135000Y-68176310D01*
X155135000Y-67923691D01*
X155135000Y-67685750D01*
X155135000Y-67114250D01*
X155135000Y-66876309D01*
X155135000Y-66623690D01*
X155038327Y-66390301D01*
X154859698Y-66211673D01*
X154626309Y-66115000D01*
X154035750Y-66115000D01*
X153877000Y-66273750D01*
X153877000Y-67273000D01*
X154976250Y-67273000D01*
X155135000Y-67114250D01*
X155135000Y-67685750D01*
X154976250Y-67527000D01*
X153877000Y-67527000D01*
X153877000Y-68526250D01*
X154035750Y-68685000D01*
X154626309Y-68685000D01*
X154859698Y-68588327D01*
X155038327Y-68409699D01*
X155135000Y-68176310D01*
X155135000Y-74847500D01*
X154223990Y-74847500D01*
X154223990Y-74323681D01*
X154127317Y-74090292D01*
X153948689Y-73911663D01*
X153715300Y-73814990D01*
X153462681Y-73814990D01*
X149608035Y-73814990D01*
X149638327Y-73784699D01*
X149735000Y-73551310D01*
X149735000Y-73298691D01*
X149735000Y-72048691D01*
X149638327Y-71815302D01*
X149552500Y-71729474D01*
X149552500Y-71700000D01*
X149479995Y-71335494D01*
X149273519Y-71026481D01*
X148286418Y-70039380D01*
X148379313Y-69815668D01*
X148379687Y-69386216D01*
X148215689Y-68989311D01*
X148152059Y-68925570D01*
X149665000Y-67412630D01*
X149665000Y-68176309D01*
X149761673Y-68409698D01*
X149940301Y-68588327D01*
X150173690Y-68685000D01*
X150426309Y-68685000D01*
X151926309Y-68685000D01*
X152159698Y-68588327D01*
X152338327Y-68409699D01*
X152400000Y-68260807D01*
X152461673Y-68409699D01*
X152640302Y-68588327D01*
X152873691Y-68685000D01*
X153464250Y-68685000D01*
X153623000Y-68526250D01*
X153623000Y-67527000D01*
X153603000Y-67527000D01*
X153603000Y-67273000D01*
X153623000Y-67273000D01*
X153623000Y-66273750D01*
X153464250Y-66115000D01*
X152873691Y-66115000D01*
X152640302Y-66211673D01*
X152461673Y-66390301D01*
X152399999Y-66539193D01*
X152338327Y-66390302D01*
X152159699Y-66211673D01*
X151926310Y-66115000D01*
X151673691Y-66115000D01*
X151512000Y-66115000D01*
X151512000Y-65350000D01*
X151453996Y-65058395D01*
X151288815Y-64811185D01*
X151288815Y-64811184D01*
X151112828Y-64635197D01*
X151238327Y-64509699D01*
X151300000Y-64360806D01*
X151361673Y-64509698D01*
X151540301Y-64688327D01*
X151773690Y-64785000D01*
X152026309Y-64785000D01*
X153526309Y-64785000D01*
X153759698Y-64688327D01*
X153938327Y-64509699D01*
X154035000Y-64276310D01*
X154035000Y-64023691D01*
X154035000Y-62862000D01*
X155765000Y-62862000D01*
X155765000Y-63976309D01*
X155861673Y-64209698D01*
X156040301Y-64388327D01*
X156273690Y-64485000D01*
X156526309Y-64485000D01*
X158026309Y-64485000D01*
X158259698Y-64388327D01*
X158438327Y-64209699D01*
X158500000Y-64060807D01*
X158561673Y-64209699D01*
X158740302Y-64388327D01*
X158973691Y-64485000D01*
X159564250Y-64485000D01*
X159723000Y-64326250D01*
X159723000Y-63327000D01*
X159703000Y-63327000D01*
X159703000Y-63073000D01*
X159723000Y-63073000D01*
X159723000Y-62073750D01*
X159564250Y-61915000D01*
X158973691Y-61915000D01*
X158740302Y-62011673D01*
X158561673Y-62190301D01*
X158499999Y-62339193D01*
X158438327Y-62190302D01*
X158259699Y-62011673D01*
X158026310Y-61915000D01*
X157773691Y-61915000D01*
X157435370Y-61915000D01*
X157435370Y-53880177D01*
X156883180Y-52543775D01*
X155861603Y-51520414D01*
X154526166Y-50965892D01*
X153080177Y-50964630D01*
X151743775Y-51516820D01*
X150720414Y-52538397D01*
X150165892Y-53873834D01*
X150164630Y-55319823D01*
X150716820Y-56656225D01*
X151738397Y-57679586D01*
X153073834Y-58234108D01*
X154519823Y-58235370D01*
X155856225Y-57683180D01*
X156879586Y-56661603D01*
X157434108Y-55326166D01*
X157435370Y-53880177D01*
X157435370Y-61915000D01*
X157342630Y-61915000D01*
X156988815Y-61561185D01*
X156741605Y-61396004D01*
X156450000Y-61338000D01*
X153000000Y-61338000D01*
X152115630Y-61338000D01*
X148362000Y-57584369D01*
X148362000Y-53730571D01*
X148584698Y-53638327D01*
X148763327Y-53459699D01*
X148860000Y-53226310D01*
X148860000Y-52973691D01*
X148860000Y-51973691D01*
X148763327Y-51740302D01*
X148623025Y-51599999D01*
X148763327Y-51459699D01*
X148860000Y-51226310D01*
X148860000Y-50973691D01*
X148860000Y-49973691D01*
X148800554Y-49830178D01*
X148885000Y-49626310D01*
X148885000Y-49373691D01*
X148885000Y-47873691D01*
X148788327Y-47640302D01*
X148609699Y-47461673D01*
X148460806Y-47399999D01*
X148609698Y-47338327D01*
X148788327Y-47159699D01*
X148845314Y-47022119D01*
X149907433Y-45960000D01*
X150626309Y-45960000D01*
X150859698Y-45863327D01*
X151000000Y-45723025D01*
X151140301Y-45863327D01*
X151373690Y-45960000D01*
X151626309Y-45960000D01*
X152482369Y-45960000D01*
X152761185Y-46238816D01*
X152765000Y-46241365D01*
X152765000Y-46476309D01*
X152861673Y-46709698D01*
X153040301Y-46888327D01*
X153273690Y-46985000D01*
X153526309Y-46985000D01*
X155026309Y-46985000D01*
X155259698Y-46888327D01*
X155438327Y-46709699D01*
X155500000Y-46560806D01*
X155561673Y-46709698D01*
X155740301Y-46888327D01*
X155973690Y-46985000D01*
X156226309Y-46985000D01*
X157188948Y-46985000D01*
X158301271Y-48097322D01*
X158301274Y-48097326D01*
X158713292Y-48372627D01*
X159199300Y-48469300D01*
X162037756Y-48469300D01*
X162381195Y-48813339D01*
X163081110Y-49103968D01*
X163838965Y-49104630D01*
X164539386Y-48815222D01*
X165075739Y-48279805D01*
X165366368Y-47579890D01*
X165367030Y-46822035D01*
X165077622Y-46121614D01*
X164960559Y-46004346D01*
X164960559Y-42902518D01*
X164732892Y-42351520D01*
X164311697Y-41929590D01*
X163761098Y-41700961D01*
X163164918Y-41700441D01*
X162613920Y-41928108D01*
X162191990Y-42349303D01*
X161963361Y-42899902D01*
X161962841Y-43496082D01*
X162190508Y-44047080D01*
X162611703Y-44469010D01*
X163162302Y-44697639D01*
X163758482Y-44698159D01*
X164309480Y-44470492D01*
X164731410Y-44049297D01*
X164960039Y-43498698D01*
X164960559Y-42902518D01*
X164960559Y-46004346D01*
X164542205Y-45585261D01*
X163842290Y-45294632D01*
X163084435Y-45293970D01*
X162384014Y-45583378D01*
X162037487Y-45929300D01*
X159725351Y-45929300D01*
X158598026Y-44801974D01*
X158186008Y-44526673D01*
X157820283Y-44453925D01*
X157819090Y-44453430D01*
X157819090Y-39987313D01*
X157819090Y-38915247D01*
X157713620Y-38385012D01*
X157413266Y-37935501D01*
X156963755Y-37635147D01*
X156433520Y-37529677D01*
X155903285Y-37635147D01*
X155453774Y-37935501D01*
X155153420Y-38385012D01*
X155151570Y-38394312D01*
X155125019Y-38304603D01*
X154783464Y-37882622D01*
X154306423Y-37623470D01*
X154234795Y-37609287D01*
X154020520Y-37731941D01*
X154020520Y-39324280D01*
X154040520Y-39324280D01*
X154040520Y-39578280D01*
X154020520Y-39578280D01*
X154020520Y-41170619D01*
X154234795Y-41293273D01*
X154306423Y-41279090D01*
X154783464Y-41019938D01*
X155125019Y-40597957D01*
X155151570Y-40508247D01*
X155153420Y-40517548D01*
X155453774Y-40967059D01*
X155903285Y-41267413D01*
X156433520Y-41372883D01*
X156963755Y-41267413D01*
X157413266Y-40967059D01*
X157713620Y-40517548D01*
X157819090Y-39987313D01*
X157819090Y-44453430D01*
X157726310Y-44415000D01*
X157473691Y-44415000D01*
X155973691Y-44415000D01*
X155740302Y-44511673D01*
X155561673Y-44690301D01*
X155499999Y-44839193D01*
X155438327Y-44690302D01*
X155259699Y-44511673D01*
X155026310Y-44415000D01*
X154773691Y-44415000D01*
X153766520Y-44415000D01*
X153766520Y-41170619D01*
X153766520Y-39578280D01*
X153746520Y-39578280D01*
X153746520Y-39324280D01*
X153766520Y-39324280D01*
X153766520Y-37731941D01*
X153552245Y-37609287D01*
X153480617Y-37623470D01*
X153003576Y-37882622D01*
X152662021Y-38304603D01*
X152635469Y-38394312D01*
X152633620Y-38385012D01*
X152333266Y-37935501D01*
X151883755Y-37635147D01*
X151353520Y-37529677D01*
X150823285Y-37635147D01*
X150373774Y-37935501D01*
X150073420Y-38385012D01*
X149967950Y-38915247D01*
X149967950Y-39987313D01*
X150073420Y-40517548D01*
X150373774Y-40967059D01*
X150823285Y-41267413D01*
X151353520Y-41372883D01*
X151883755Y-41267413D01*
X152333266Y-40967059D01*
X152633620Y-40517548D01*
X152635469Y-40508247D01*
X152662021Y-40597957D01*
X153003576Y-41019938D01*
X153480617Y-41279090D01*
X153552245Y-41293273D01*
X153766520Y-41170619D01*
X153766520Y-44415000D01*
X153273691Y-44415000D01*
X153145661Y-44468031D01*
X153135000Y-44457369D01*
X153135000Y-43948691D01*
X153038327Y-43715302D01*
X152859699Y-43536673D01*
X152626310Y-43440000D01*
X152373691Y-43440000D01*
X151373691Y-43440000D01*
X151140302Y-43536673D01*
X150999999Y-43676974D01*
X150859699Y-43536673D01*
X150626310Y-43440000D01*
X150373691Y-43440000D01*
X149373691Y-43440000D01*
X149256129Y-43488695D01*
X148779577Y-43012143D01*
X148779687Y-42886216D01*
X148615689Y-42489311D01*
X148312286Y-42185378D01*
X147915668Y-42020687D01*
X147486216Y-42020313D01*
X147089311Y-42184311D01*
X146785378Y-42487714D01*
X146620687Y-42884332D01*
X146620313Y-43313784D01*
X146784311Y-43710689D01*
X147087714Y-44014622D01*
X147484332Y-44179313D01*
X147611990Y-44179424D01*
X148097566Y-44665000D01*
X146823691Y-44665000D01*
X146590302Y-44761673D01*
X146411673Y-44940301D01*
X146315000Y-45173690D01*
X146315000Y-45186958D01*
X146165906Y-45087337D01*
X145850000Y-45024500D01*
X143285000Y-45024500D01*
X143285000Y-44573691D01*
X143188327Y-44340302D01*
X143009699Y-44161673D01*
X142776310Y-44065000D01*
X142523691Y-44065000D01*
X141223691Y-44065000D01*
X140990302Y-44161673D01*
X140811673Y-44340301D01*
X140715000Y-44573690D01*
X140715000Y-44826309D01*
X140715000Y-46326309D01*
X140811673Y-46559698D01*
X140990301Y-46738327D01*
X141139193Y-46800000D01*
X140990302Y-46861673D01*
X140817783Y-47034190D01*
X140817782Y-47034191D01*
X140758395Y-47046004D01*
X140659376Y-47112165D01*
X140511185Y-47211184D01*
X140024369Y-47698000D01*
X140009144Y-47698000D01*
X140009144Y-46127698D01*
X139981362Y-45572632D01*
X139822397Y-45188857D01*
X139580213Y-45119392D01*
X139400608Y-45298997D01*
X139400608Y-44939787D01*
X139331143Y-44697603D01*
X138807698Y-44510856D01*
X138252632Y-44538638D01*
X137868857Y-44697603D01*
X137799392Y-44939787D01*
X138600000Y-45740395D01*
X139400608Y-44939787D01*
X139400608Y-45298997D01*
X138779605Y-45920000D01*
X139580213Y-46720608D01*
X139822397Y-46651143D01*
X140009144Y-46127698D01*
X140009144Y-47698000D01*
X139796704Y-47698000D01*
X139785010Y-47669697D01*
X139392370Y-47276371D01*
X139200272Y-47196605D01*
X139331143Y-47142397D01*
X139400608Y-46900213D01*
X138600000Y-46099605D01*
X138420395Y-46279210D01*
X138420395Y-45920000D01*
X137619787Y-45119392D01*
X137377603Y-45188857D01*
X137190856Y-45712302D01*
X137218638Y-46267368D01*
X137377603Y-46651143D01*
X137619787Y-46720608D01*
X138420395Y-45920000D01*
X138420395Y-46279210D01*
X137799392Y-46900213D01*
X137868857Y-47142397D01*
X138009317Y-47192508D01*
X137809697Y-47274990D01*
X137416371Y-47667630D01*
X137203243Y-48180900D01*
X137202758Y-48736661D01*
X137414990Y-49250303D01*
X137807630Y-49643629D01*
X138015512Y-49729949D01*
X137809697Y-49814990D01*
X137416371Y-50207630D01*
X137203243Y-50720900D01*
X137202758Y-51276661D01*
X137414990Y-51790303D01*
X137807630Y-52183629D01*
X138320900Y-52396757D01*
X138876661Y-52397242D01*
X139390303Y-52185010D01*
X139783629Y-51792370D01*
X139996757Y-51279100D01*
X139997242Y-50723339D01*
X139785010Y-50209697D01*
X139392370Y-49816371D01*
X139184487Y-49730050D01*
X139390303Y-49645010D01*
X139783629Y-49252370D01*
X139796239Y-49222000D01*
X140340000Y-49222000D01*
X140340000Y-49221999D01*
X140631604Y-49163996D01*
X140631605Y-49163996D01*
X140740000Y-49091568D01*
X140740000Y-49226309D01*
X140740000Y-50226309D01*
X140836673Y-50459698D01*
X140976974Y-50600000D01*
X140836673Y-50740302D01*
X140740000Y-50973691D01*
X140740000Y-51314250D01*
X140898750Y-51473000D01*
X141873000Y-51473000D01*
X141873000Y-51453000D01*
X142127000Y-51453000D01*
X142127000Y-51473000D01*
X143101250Y-51473000D01*
X143260000Y-51314250D01*
X143260000Y-50973691D01*
X143163327Y-50740302D01*
X143023025Y-50599999D01*
X143163327Y-50459699D01*
X143260000Y-50226310D01*
X143260000Y-49973691D01*
X143260000Y-49086665D01*
X143285000Y-49026310D01*
X143285000Y-48773691D01*
X143285000Y-47273691D01*
X143188327Y-47040302D01*
X143009699Y-46861673D01*
X142860806Y-46799999D01*
X143009698Y-46738327D01*
X143072525Y-46675500D01*
X145508066Y-46675500D01*
X145866283Y-47033717D01*
X146134094Y-47212663D01*
X146134095Y-47212663D01*
X146450000Y-47275500D01*
X146527474Y-47275500D01*
X146590301Y-47338327D01*
X146739193Y-47400000D01*
X146590302Y-47461673D01*
X146411673Y-47640301D01*
X146315000Y-47873690D01*
X146315000Y-48126309D01*
X146315000Y-49626309D01*
X146399445Y-49830177D01*
X146340000Y-49973690D01*
X146340000Y-50226309D01*
X146340000Y-51226309D01*
X146436673Y-51459698D01*
X146576974Y-51600000D01*
X146436673Y-51740301D01*
X146340000Y-51973690D01*
X146340000Y-52226309D01*
X146340000Y-53226309D01*
X146436673Y-53459698D01*
X146615301Y-53638327D01*
X146838000Y-53730572D01*
X146838000Y-57900000D01*
X146887860Y-58150664D01*
X146815668Y-58120687D01*
X146386216Y-58120313D01*
X145989311Y-58284311D01*
X145685378Y-58587714D01*
X145520687Y-58984332D01*
X145520313Y-59413784D01*
X145679040Y-59797934D01*
X145636673Y-59840302D01*
X145540000Y-60073691D01*
X145540000Y-60414250D01*
X145698750Y-60573000D01*
X146673000Y-60573000D01*
X146673000Y-60553000D01*
X146927000Y-60553000D01*
X146927000Y-60573000D01*
X147901250Y-60573000D01*
X148060000Y-60414250D01*
X148060000Y-60337630D01*
X148545924Y-60823554D01*
X148520687Y-60884332D01*
X148520418Y-61192788D01*
X148488815Y-61161185D01*
X148241605Y-60996004D01*
X148027707Y-60953457D01*
X148027706Y-60953456D01*
X147901250Y-60827000D01*
X146927000Y-60827000D01*
X146927000Y-60847000D01*
X146673000Y-60847000D01*
X146673000Y-60827000D01*
X145698750Y-60827000D01*
X145540000Y-60985750D01*
X145540000Y-60989717D01*
X145508395Y-60996004D01*
X145261185Y-61161185D01*
X145184370Y-61238000D01*
X145046458Y-61238000D01*
X145046458Y-59240664D01*
X145020839Y-58630540D01*
X144836643Y-58185852D01*
X144580159Y-58099446D01*
X144400554Y-58279051D01*
X144400554Y-57919841D01*
X144314148Y-57663357D01*
X143740664Y-57453542D01*
X143260000Y-57473724D01*
X143260000Y-52226309D01*
X143260000Y-51885750D01*
X143101250Y-51727000D01*
X142127000Y-51727000D01*
X142127000Y-52576250D01*
X142285750Y-52735000D01*
X142498691Y-52735000D01*
X142751310Y-52735000D01*
X142984699Y-52638327D01*
X143163327Y-52459698D01*
X143260000Y-52226309D01*
X143260000Y-57473724D01*
X143130540Y-57479161D01*
X142685852Y-57663357D01*
X142599446Y-57919841D01*
X143500000Y-58820395D01*
X144400554Y-57919841D01*
X144400554Y-58279051D01*
X143679605Y-59000000D01*
X144580159Y-59900554D01*
X144836643Y-59814148D01*
X145046458Y-59240664D01*
X145046458Y-61238000D01*
X145035000Y-61238000D01*
X145035000Y-60973691D01*
X144938327Y-60740302D01*
X144759699Y-60561673D01*
X144526310Y-60465000D01*
X144273691Y-60465000D01*
X144004267Y-60465000D01*
X144314148Y-60336643D01*
X144400554Y-60080159D01*
X143500000Y-59179605D01*
X142599446Y-60080159D01*
X142685852Y-60336643D01*
X143036688Y-60465000D01*
X142473691Y-60465000D01*
X142240302Y-60561673D01*
X142061673Y-60740301D01*
X142017611Y-60846674D01*
X141870643Y-60699449D01*
X141389828Y-60499797D01*
X141868371Y-60302068D01*
X142300551Y-59870643D01*
X142304294Y-59861627D01*
X142419841Y-59900554D01*
X143320395Y-59000000D01*
X142419841Y-58099446D01*
X142304785Y-58138206D01*
X142302068Y-58131629D01*
X141873000Y-57701810D01*
X141873000Y-52576250D01*
X141873000Y-51727000D01*
X140898750Y-51727000D01*
X140740000Y-51885750D01*
X140740000Y-52226309D01*
X140836673Y-52459698D01*
X141015301Y-52638327D01*
X141248690Y-52735000D01*
X141501309Y-52735000D01*
X141714250Y-52735000D01*
X141873000Y-52576250D01*
X141873000Y-57701810D01*
X141870643Y-57699449D01*
X141306670Y-57465267D01*
X140696009Y-57464735D01*
X140131629Y-57697932D01*
X139749712Y-58079181D01*
X139370643Y-57699449D01*
X138806670Y-57465267D01*
X138196009Y-57464735D01*
X137631629Y-57697932D01*
X137199449Y-58129357D01*
X136965267Y-58693330D01*
X136964735Y-59303991D01*
X137197932Y-59868371D01*
X137629357Y-60300551D01*
X138110171Y-60500202D01*
X137631629Y-60697932D01*
X137199449Y-61129357D01*
X137154336Y-61238000D01*
X137079641Y-61238000D01*
X137079687Y-61186216D01*
X136915689Y-60789311D01*
X136612286Y-60485378D01*
X136215668Y-60320687D01*
X135786216Y-60320313D01*
X135389311Y-60484311D01*
X135085378Y-60787714D01*
X135041183Y-60894145D01*
X134973519Y-60826481D01*
X134840632Y-60737689D01*
X134842324Y-60233689D01*
X134991604Y-60203996D01*
X134991605Y-60203996D01*
X135238815Y-60038815D01*
X136138815Y-59138816D01*
X136138815Y-59138815D01*
X136303996Y-58891605D01*
X136361999Y-58600000D01*
X136362000Y-58600000D01*
X136362000Y-57768130D01*
X136798130Y-57332000D01*
X137624809Y-57332000D01*
X137858198Y-57235327D01*
X138036827Y-57056699D01*
X138133500Y-56823310D01*
X138133500Y-56570691D01*
X138133500Y-56060313D01*
X138187714Y-56114622D01*
X138584332Y-56279313D01*
X139013784Y-56279687D01*
X139410689Y-56115689D01*
X139714622Y-55812286D01*
X139879313Y-55415668D01*
X139879687Y-54986216D01*
X139715689Y-54589311D01*
X139412286Y-54285378D01*
X139015668Y-54120687D01*
X138798127Y-54120497D01*
X138486315Y-53808685D01*
X138239105Y-53643504D01*
X138063896Y-53608652D01*
X138036827Y-53543302D01*
X137858199Y-53364673D01*
X137624810Y-53268000D01*
X137372191Y-53268000D01*
X135975191Y-53268000D01*
X135741802Y-53364673D01*
X135563173Y-53543301D01*
X135466500Y-53776690D01*
X135466500Y-54029309D01*
X135466500Y-54918309D01*
X135563173Y-55151698D01*
X135711474Y-55300000D01*
X135563173Y-55448301D01*
X135466500Y-55681690D01*
X135466500Y-55934309D01*
X135466500Y-56508369D01*
X135061185Y-56913685D01*
X134896004Y-57160895D01*
X134851891Y-57382663D01*
X134860972Y-54676397D01*
X134863983Y-54671893D01*
X134863983Y-54671891D01*
X134863984Y-54671891D01*
X134960292Y-54439383D01*
X134960293Y-54439382D01*
X135032607Y-54075833D01*
X135032606Y-54012304D01*
X135045000Y-53950000D01*
X135045000Y-53201091D01*
X135085000Y-53000000D01*
X135085000Y-35685000D01*
X193715000Y-35685000D01*
X193715000Y-58542498D01*
X193152758Y-57979274D01*
X192276487Y-57615415D01*
X191534234Y-57614767D01*
X191534234Y-44476306D01*
X191285922Y-43875345D01*
X190826533Y-43415154D01*
X190226007Y-43165794D01*
X189575766Y-43165226D01*
X188974805Y-43413538D01*
X188514614Y-43872927D01*
X188265254Y-44473453D01*
X188264686Y-45123694D01*
X188512998Y-45724655D01*
X188972387Y-46184846D01*
X189572913Y-46434206D01*
X190223154Y-46434774D01*
X190824115Y-46186462D01*
X191284306Y-45727073D01*
X191533666Y-45126547D01*
X191534234Y-44476306D01*
X191534234Y-57614767D01*
X191327675Y-57614587D01*
X190450771Y-57976916D01*
X189779274Y-58647242D01*
X189415415Y-59523513D01*
X189414587Y-60472325D01*
X189776916Y-61349229D01*
X190447242Y-62020726D01*
X191323513Y-62384585D01*
X192272325Y-62385413D01*
X193149229Y-62023084D01*
X193715000Y-61458299D01*
X193715000Y-66142498D01*
X193152758Y-65579274D01*
X192276487Y-65215415D01*
X191327675Y-65214587D01*
X190835000Y-65418155D01*
X190835000Y-64351310D01*
X190835000Y-64098691D01*
X190835000Y-63885750D01*
X190835000Y-63314250D01*
X190835000Y-63101309D01*
X190835000Y-62848690D01*
X190738327Y-62615301D01*
X190559698Y-62436673D01*
X190326309Y-62340000D01*
X189985750Y-62340000D01*
X189827000Y-62498750D01*
X189827000Y-63473000D01*
X190676250Y-63473000D01*
X190835000Y-63314250D01*
X190835000Y-63885750D01*
X190676250Y-63727000D01*
X189827000Y-63727000D01*
X189827000Y-64701250D01*
X189985750Y-64860000D01*
X190326309Y-64860000D01*
X190559698Y-64763327D01*
X190738327Y-64584699D01*
X190835000Y-64351310D01*
X190835000Y-65418155D01*
X190450771Y-65576916D01*
X189779274Y-66247242D01*
X189415415Y-67123513D01*
X189414587Y-68072325D01*
X189776916Y-68949229D01*
X190447242Y-69620726D01*
X191323513Y-69984585D01*
X192272325Y-69985413D01*
X193149229Y-69623084D01*
X193715000Y-69058299D01*
X193715000Y-78512971D01*
X193514965Y-78030042D01*
X193248163Y-77931443D01*
X193068557Y-78111048D01*
X193068557Y-77751837D01*
X192969958Y-77485035D01*
X192360418Y-77258599D01*
X191710623Y-77282659D01*
X191222042Y-77485035D01*
X191123443Y-77751837D01*
X192096000Y-78724395D01*
X193068557Y-77751837D01*
X193068557Y-78111048D01*
X192275605Y-78904000D01*
X193248163Y-79876557D01*
X193514965Y-79777958D01*
X193715000Y-79239486D01*
X193715000Y-94015000D01*
X193715000Y-94015000D01*
G37*
X193715000Y-94015000D02*
X193068557Y-94015000D01*
X193068557Y-80056163D01*
X192096000Y-79083605D01*
X191916395Y-79263210D01*
X191916395Y-78904000D01*
X190943837Y-77931443D01*
X190677035Y-78030042D01*
X190450599Y-78639582D01*
X190474659Y-79289377D01*
X190677035Y-79777958D01*
X190943837Y-79876557D01*
X191916395Y-78904000D01*
X191916395Y-79263210D01*
X191123443Y-80056163D01*
X191222042Y-80322965D01*
X191831582Y-80549401D01*
X192481377Y-80525341D01*
X192969958Y-80322965D01*
X193068557Y-80056163D01*
X193068557Y-94015000D01*
X188460000Y-94015000D01*
X188460000Y-85226309D01*
X188460000Y-84885750D01*
X188301250Y-84727000D01*
X187327000Y-84727000D01*
X187327000Y-85576250D01*
X187485750Y-85735000D01*
X187698691Y-85735000D01*
X187951310Y-85735000D01*
X188184699Y-85638327D01*
X188363327Y-85459698D01*
X188460000Y-85226309D01*
X188460000Y-94015000D01*
X187073000Y-94015000D01*
X187073000Y-85576250D01*
X187073000Y-84727000D01*
X186098750Y-84727000D01*
X185940000Y-84885750D01*
X185940000Y-85226309D01*
X186036673Y-85459698D01*
X186215301Y-85638327D01*
X186448690Y-85735000D01*
X186701309Y-85735000D01*
X186914250Y-85735000D01*
X187073000Y-85576250D01*
X187073000Y-94015000D01*
X181692402Y-94015000D01*
X181988846Y-93719073D01*
X182238206Y-93118547D01*
X182238521Y-92757530D01*
X183898022Y-91098028D01*
X183898026Y-91098026D01*
X183898026Y-91098025D01*
X184173327Y-90686008D01*
X184270000Y-90200000D01*
X184270001Y-90200000D01*
X184270000Y-90199994D01*
X184270000Y-84800000D01*
X184260000Y-84749726D01*
X184260000Y-84173691D01*
X184163327Y-83940302D01*
X184023025Y-83799999D01*
X184163327Y-83659699D01*
X184260000Y-83426310D01*
X184260000Y-83173691D01*
X184260000Y-82850273D01*
X184270000Y-82800000D01*
X184270000Y-80494030D01*
X184520655Y-80390462D01*
X184980846Y-79931073D01*
X185072576Y-79710160D01*
X185121538Y-79828655D01*
X185580927Y-80288846D01*
X185930000Y-80433793D01*
X185930000Y-82600000D01*
X185940000Y-82650273D01*
X185940000Y-83226309D01*
X186036673Y-83459698D01*
X186176974Y-83600000D01*
X186036673Y-83740302D01*
X185940000Y-83973691D01*
X185940000Y-84314250D01*
X186098750Y-84473000D01*
X187073000Y-84473000D01*
X187073000Y-84453000D01*
X187327000Y-84453000D01*
X187327000Y-84473000D01*
X188301250Y-84473000D01*
X188460000Y-84314250D01*
X188460000Y-83973691D01*
X188363327Y-83740302D01*
X188223025Y-83599999D01*
X188363327Y-83459699D01*
X188460000Y-83226310D01*
X188460000Y-82973691D01*
X188460000Y-82650273D01*
X188470000Y-82600000D01*
X188470000Y-79596000D01*
X188373327Y-79109992D01*
X188142612Y-78764703D01*
X188142774Y-78580306D01*
X187894462Y-77979345D01*
X187435073Y-77519154D01*
X186834547Y-77269794D01*
X186184306Y-77269226D01*
X185583345Y-77517538D01*
X185123154Y-77976927D01*
X185031423Y-78197839D01*
X184982462Y-78079345D01*
X184523073Y-77619154D01*
X183922547Y-77369794D01*
X183272306Y-77369226D01*
X182671345Y-77617538D01*
X182211154Y-78076927D01*
X181961794Y-78677453D01*
X181961589Y-78912075D01*
X181826673Y-79113992D01*
X181730000Y-79600000D01*
X181730000Y-82800000D01*
X181740000Y-82850273D01*
X181740000Y-83426309D01*
X181836673Y-83659698D01*
X181976974Y-83800000D01*
X181836673Y-83940301D01*
X181740000Y-84173690D01*
X181740000Y-84426309D01*
X181740000Y-84749726D01*
X181730000Y-84800000D01*
X181730000Y-86018428D01*
X181531073Y-85819154D01*
X181324968Y-85733571D01*
X181324968Y-69829027D01*
X181204469Y-69597000D01*
X179997000Y-69597000D01*
X179997000Y-70803817D01*
X180229026Y-70924958D01*
X180644947Y-70752688D01*
X181076821Y-70358490D01*
X181324968Y-69829027D01*
X181324968Y-85733571D01*
X180930547Y-85569794D01*
X180280306Y-85569226D01*
X179679345Y-85817538D01*
X179219154Y-86276927D01*
X178969794Y-86877453D01*
X178969226Y-87527694D01*
X179217538Y-88128655D01*
X179676927Y-88588846D01*
X180277453Y-88838206D01*
X180927694Y-88838774D01*
X181528655Y-88590462D01*
X181730000Y-88389467D01*
X181730000Y-89673948D01*
X180223074Y-91180873D01*
X179679345Y-91405538D01*
X179219154Y-91864927D01*
X178969794Y-92465453D01*
X178969226Y-93115694D01*
X179217538Y-93716655D01*
X179515363Y-94015000D01*
X172960000Y-94015000D01*
X172960000Y-91326309D01*
X172960000Y-90985750D01*
X172801250Y-90827000D01*
X171827000Y-90827000D01*
X171827000Y-91676250D01*
X171985750Y-91835000D01*
X172198691Y-91835000D01*
X172451310Y-91835000D01*
X172684699Y-91738327D01*
X172863327Y-91559698D01*
X172960000Y-91326309D01*
X172960000Y-94015000D01*
X171573000Y-94015000D01*
X171573000Y-91676250D01*
X171573000Y-90827000D01*
X170598750Y-90827000D01*
X170440000Y-90985750D01*
X170440000Y-91326309D01*
X170536673Y-91559698D01*
X170715301Y-91738327D01*
X170948690Y-91835000D01*
X171201309Y-91835000D01*
X171414250Y-91835000D01*
X171573000Y-91676250D01*
X171573000Y-94015000D01*
X169041401Y-94015000D01*
X169041401Y-93060418D01*
X169017341Y-92410623D01*
X168814965Y-91922042D01*
X168548163Y-91823443D01*
X168368557Y-92003048D01*
X168368557Y-91643837D01*
X168269958Y-91377035D01*
X167660418Y-91150599D01*
X167010623Y-91174659D01*
X166522042Y-91377035D01*
X166423443Y-91643837D01*
X167396000Y-92616395D01*
X168368557Y-91643837D01*
X168368557Y-92003048D01*
X167575605Y-92796000D01*
X168548163Y-93768557D01*
X168814965Y-93669958D01*
X169041401Y-93060418D01*
X169041401Y-94015000D01*
X168343856Y-94015000D01*
X168368557Y-93948163D01*
X167396000Y-92975605D01*
X167216395Y-93155210D01*
X167216395Y-92796000D01*
X166243837Y-91823443D01*
X165977035Y-91922042D01*
X165750599Y-92531582D01*
X165774659Y-93181377D01*
X165977035Y-93669958D01*
X166243837Y-93768557D01*
X167216395Y-92796000D01*
X167216395Y-93155210D01*
X166423443Y-93948163D01*
X166448143Y-94015000D01*
X156760000Y-94015000D01*
X156760000Y-91426309D01*
X156760000Y-91085750D01*
X156601250Y-90927000D01*
X155627000Y-90927000D01*
X155627000Y-91776250D01*
X155785750Y-91935000D01*
X155998691Y-91935000D01*
X156251310Y-91935000D01*
X156484699Y-91838327D01*
X156663327Y-91659698D01*
X156760000Y-91426309D01*
X156760000Y-94015000D01*
X155373000Y-94015000D01*
X155373000Y-91776250D01*
X155373000Y-90927000D01*
X154398750Y-90927000D01*
X154240000Y-91085750D01*
X154240000Y-91426309D01*
X154336673Y-91659698D01*
X154515301Y-91838327D01*
X154748690Y-91935000D01*
X155001309Y-91935000D01*
X155214250Y-91935000D01*
X155373000Y-91776250D01*
X155373000Y-94015000D01*
X154141401Y-94015000D01*
X153730284Y-94015000D01*
X153762446Y-93982838D01*
X153648164Y-93868556D01*
X153914965Y-93769958D01*
X154141401Y-93160418D01*
X154117341Y-92510623D01*
X153914965Y-92022042D01*
X153648163Y-91923443D01*
X153468557Y-92103048D01*
X153468557Y-91743837D01*
X153369958Y-91477035D01*
X152760418Y-91250599D01*
X152110623Y-91274659D01*
X151622042Y-91477035D01*
X151523443Y-91743837D01*
X152496000Y-92716395D01*
X153468557Y-91743837D01*
X153468557Y-92103048D01*
X152675605Y-92896000D01*
X152689747Y-92910142D01*
X152510142Y-93089747D01*
X152496000Y-93075605D01*
X152481857Y-93089747D01*
X152316395Y-92924285D01*
X152302252Y-92910142D01*
X152316395Y-92896000D01*
X151343837Y-91923443D01*
X151077035Y-92022042D01*
X150850599Y-92631582D01*
X150874659Y-93281377D01*
X151077035Y-93769958D01*
X151343835Y-93868556D01*
X151229554Y-93982838D01*
X151261716Y-94015000D01*
X135085000Y-94015000D01*
X135085000Y-76800000D01*
X135045000Y-76598908D01*
X135045000Y-76000000D01*
X135032606Y-75937696D01*
X135032607Y-75924167D01*
X134960293Y-75560618D01*
X134960292Y-75560617D01*
X134863984Y-75328109D01*
X134863983Y-75328108D01*
X134863983Y-75328107D01*
X134792033Y-75220426D01*
X134801626Y-72361676D01*
X134920553Y-72338020D01*
X134920313Y-72613784D01*
X135084311Y-73010689D01*
X135387714Y-73314622D01*
X135784332Y-73479313D01*
X135822109Y-73479345D01*
X136670344Y-74327580D01*
X136670313Y-74363784D01*
X136834311Y-74760689D01*
X137137714Y-75064622D01*
X137534332Y-75229313D01*
X137963784Y-75229687D01*
X138360689Y-75065689D01*
X138664622Y-74762286D01*
X138829313Y-74365668D01*
X138829687Y-73936216D01*
X138665689Y-73539311D01*
X138362286Y-73235378D01*
X137965668Y-73070687D01*
X137927890Y-73070654D01*
X137079655Y-72222419D01*
X137079687Y-72186216D01*
X136915689Y-71789311D01*
X136612286Y-71485378D01*
X136215668Y-71320687D01*
X135786216Y-71320313D01*
X135546001Y-71419567D01*
X135503996Y-71208395D01*
X135338815Y-70961185D01*
X135091605Y-70796004D01*
X134807070Y-70739406D01*
X134822462Y-66152579D01*
X134879313Y-66015668D01*
X134879359Y-65962000D01*
X137300000Y-65962000D01*
X137300000Y-65961999D01*
X137591604Y-65903996D01*
X137591605Y-65903996D01*
X137804116Y-65762000D01*
X138028172Y-65762000D01*
X138005282Y-65784890D01*
X138119838Y-65899446D01*
X137863357Y-65985852D01*
X137653542Y-66559336D01*
X137679161Y-67169460D01*
X137863357Y-67614148D01*
X138119841Y-67700554D01*
X139020395Y-66800000D01*
X139006252Y-66785857D01*
X139185857Y-66606252D01*
X139200000Y-66620395D01*
X139214142Y-66606252D01*
X139393747Y-66785857D01*
X139379605Y-66800000D01*
X140280159Y-67700554D01*
X140536643Y-67614148D01*
X140665000Y-67263311D01*
X140665000Y-67826309D01*
X140761673Y-68059698D01*
X140940301Y-68238327D01*
X141046674Y-68282388D01*
X140899449Y-68429357D01*
X140699797Y-68910171D01*
X140502068Y-68431629D01*
X140070643Y-67999449D01*
X140061627Y-67995705D01*
X140100554Y-67880159D01*
X139200000Y-66979605D01*
X139020395Y-67159210D01*
X138299446Y-67880159D01*
X138338206Y-67995214D01*
X138331629Y-67997932D01*
X137899449Y-68429357D01*
X137665267Y-68993330D01*
X137664735Y-69603991D01*
X137897932Y-70168371D01*
X138279181Y-70550287D01*
X137899449Y-70929357D01*
X137665267Y-71493330D01*
X137664735Y-72103991D01*
X137897932Y-72668371D01*
X138329357Y-73100551D01*
X138893330Y-73334733D01*
X139503991Y-73335265D01*
X140068371Y-73102068D01*
X140500551Y-72670643D01*
X140700202Y-72189828D01*
X140897932Y-72668371D01*
X141329357Y-73100551D01*
X141893330Y-73334733D01*
X142503991Y-73335265D01*
X143068371Y-73102068D01*
X143340000Y-72830913D01*
X143340000Y-73126309D01*
X143436673Y-73359698D01*
X143615301Y-73538327D01*
X143848690Y-73635000D01*
X144101309Y-73635000D01*
X144314250Y-73635000D01*
X144473000Y-73476250D01*
X144473000Y-72627000D01*
X144453000Y-72627000D01*
X144453000Y-72373000D01*
X144473000Y-72373000D01*
X144473000Y-72353000D01*
X144727000Y-72353000D01*
X144727000Y-72373000D01*
X144747000Y-72373000D01*
X144747000Y-72627000D01*
X144727000Y-72627000D01*
X144727000Y-73476250D01*
X144885750Y-73635000D01*
X145098691Y-73635000D01*
X145351310Y-73635000D01*
X145477939Y-73582548D01*
X145561673Y-73784699D01*
X145591964Y-73814990D01*
X144097010Y-73814990D01*
X143938260Y-73973740D01*
X143938260Y-75673000D01*
X146287760Y-75673000D01*
X146446510Y-75514250D01*
X146446510Y-74576299D01*
X146446510Y-74323680D01*
X146349837Y-74090291D01*
X146316897Y-74057352D01*
X146473000Y-73901250D01*
X146473000Y-72927000D01*
X146453000Y-72927000D01*
X146453000Y-72673000D01*
X146473000Y-72673000D01*
X146473000Y-71698750D01*
X146314250Y-71540000D01*
X145973691Y-71540000D01*
X145754017Y-71630992D01*
X145623025Y-71499999D01*
X145763327Y-71359699D01*
X145860000Y-71126310D01*
X145860000Y-70873691D01*
X145860000Y-69873691D01*
X145763327Y-69640302D01*
X145584699Y-69461673D01*
X145351310Y-69365000D01*
X145122236Y-69365000D01*
X144428618Y-68671382D01*
X144140206Y-68478671D01*
X143800000Y-68411000D01*
X143481475Y-68411000D01*
X143353157Y-68282457D01*
X143459698Y-68238327D01*
X143638327Y-68059699D01*
X143735000Y-67826310D01*
X143735000Y-67573691D01*
X143735000Y-67412630D01*
X145261185Y-68938816D01*
X145409376Y-69037834D01*
X145508395Y-69103996D01*
X145508396Y-69103996D01*
X145800000Y-69162000D01*
X146313007Y-69162000D01*
X146220687Y-69384332D01*
X146220313Y-69813784D01*
X146347500Y-70121599D01*
X146347500Y-70400000D01*
X146420005Y-70764506D01*
X146626481Y-71073519D01*
X147092962Y-71540000D01*
X146885750Y-71540000D01*
X146727000Y-71698750D01*
X146727000Y-72673000D01*
X146747000Y-72673000D01*
X146747000Y-72927000D01*
X146727000Y-72927000D01*
X146727000Y-73901250D01*
X146885750Y-74060000D01*
X147226309Y-74060000D01*
X147459698Y-73963327D01*
X147600000Y-73823025D01*
X147647500Y-73870525D01*
X147647500Y-75400000D01*
X147720005Y-75764506D01*
X147926481Y-76073519D01*
X148326480Y-76473519D01*
X148326481Y-76473519D01*
X148635494Y-76679995D01*
X148953490Y-76743248D01*
X148953490Y-77276319D01*
X149050163Y-77509708D01*
X149228791Y-77688337D01*
X149462180Y-77785010D01*
X149714799Y-77785010D01*
X153715299Y-77785010D01*
X153948688Y-77688337D01*
X154127317Y-77509709D01*
X154223990Y-77276320D01*
X154223990Y-77023701D01*
X154223990Y-76752500D01*
X154947500Y-76752500D01*
X154947500Y-77378933D01*
X154820687Y-77684332D01*
X154820313Y-78113784D01*
X154984311Y-78510689D01*
X155287714Y-78814622D01*
X155645335Y-78963120D01*
X155638000Y-79000000D01*
X155638000Y-87100000D01*
X155648415Y-87152364D01*
X154906026Y-86409974D01*
X154838774Y-86365037D01*
X154838774Y-79472306D01*
X154590462Y-78871345D01*
X154131073Y-78411154D01*
X153530547Y-78161794D01*
X152880306Y-78161226D01*
X152279345Y-78409538D01*
X151819154Y-78868927D01*
X151809899Y-78891214D01*
X151648163Y-78831443D01*
X151468557Y-79011048D01*
X151468557Y-78651837D01*
X151369958Y-78385035D01*
X150760418Y-78158599D01*
X150110623Y-78182659D01*
X149622042Y-78385035D01*
X149523443Y-78651837D01*
X150496000Y-79624395D01*
X151468557Y-78651837D01*
X151468557Y-79011048D01*
X150675605Y-79804000D01*
X150689747Y-79818142D01*
X150510142Y-79997747D01*
X150496000Y-79983605D01*
X150481857Y-79997747D01*
X150302252Y-79818142D01*
X150316395Y-79804000D01*
X149343837Y-78831443D01*
X149077035Y-78930042D01*
X148850599Y-79539582D01*
X148858864Y-79762812D01*
X147998026Y-78901974D01*
X147586008Y-78626673D01*
X147100000Y-78529999D01*
X147079885Y-78534000D01*
X146446510Y-78534000D01*
X146446510Y-77276320D01*
X146446510Y-77023701D01*
X146446510Y-76085750D01*
X146287760Y-75927000D01*
X143938260Y-75927000D01*
X143938260Y-77626260D01*
X144097010Y-77785010D01*
X145937819Y-77785010D01*
X146171208Y-77688337D01*
X146349837Y-77509709D01*
X146446510Y-77276320D01*
X146446510Y-78534000D01*
X145949718Y-78534000D01*
X145835073Y-78419154D01*
X145234547Y-78169794D01*
X144584306Y-78169226D01*
X143983345Y-78417538D01*
X143684260Y-78716101D01*
X143684260Y-77626260D01*
X143684260Y-75927000D01*
X143684260Y-75673000D01*
X143684260Y-73973740D01*
X143525510Y-73814990D01*
X141684701Y-73814990D01*
X141451312Y-73911663D01*
X141272683Y-74090291D01*
X141176010Y-74323680D01*
X141176010Y-74576299D01*
X141176010Y-75514250D01*
X141334760Y-75673000D01*
X143684260Y-75673000D01*
X143684260Y-75927000D01*
X141334760Y-75927000D01*
X141176010Y-76085750D01*
X141176010Y-77023701D01*
X141176010Y-77276320D01*
X141272683Y-77509709D01*
X141451312Y-77688337D01*
X141684701Y-77785010D01*
X143525510Y-77785010D01*
X143684260Y-77626260D01*
X143684260Y-78716101D01*
X143523154Y-78876927D01*
X143404180Y-79163446D01*
X142918547Y-78961794D01*
X142268306Y-78961226D01*
X141667345Y-79209538D01*
X141207154Y-79668927D01*
X140957794Y-80269453D01*
X140957226Y-80919694D01*
X141205538Y-81520655D01*
X141664927Y-81980846D01*
X142265453Y-82230206D01*
X142915694Y-82230774D01*
X143516655Y-81982462D01*
X143633320Y-81866000D01*
X144115994Y-81866000D01*
X144116000Y-81866001D01*
X144116000Y-81866000D01*
X144602008Y-81769327D01*
X144886910Y-81578962D01*
X144930000Y-81622052D01*
X144930000Y-82100000D01*
X144940000Y-82150273D01*
X144940000Y-82726309D01*
X145036673Y-82959698D01*
X145176974Y-83100000D01*
X145036673Y-83240302D01*
X144940000Y-83473691D01*
X144940000Y-83814250D01*
X145098750Y-83973000D01*
X146073000Y-83973000D01*
X146073000Y-83953000D01*
X146327000Y-83953000D01*
X146327000Y-83973000D01*
X147301250Y-83973000D01*
X147411259Y-83862990D01*
X147461673Y-83984698D01*
X147640301Y-84163327D01*
X147873690Y-84260000D01*
X148126309Y-84260000D01*
X148449726Y-84260000D01*
X148500000Y-84270000D01*
X148550273Y-84260000D01*
X149126309Y-84260000D01*
X149359698Y-84163327D01*
X149500000Y-84023025D01*
X149640301Y-84163327D01*
X149873690Y-84260000D01*
X150126309Y-84260000D01*
X150449726Y-84260000D01*
X150500000Y-84270000D01*
X151299994Y-84270000D01*
X151300000Y-84270001D01*
X151300000Y-84270000D01*
X151786008Y-84173327D01*
X152198026Y-83898026D01*
X154102022Y-81994028D01*
X154102026Y-81994026D01*
X154102026Y-81994025D01*
X154377327Y-81582008D01*
X154474000Y-81096000D01*
X154474001Y-81096000D01*
X154474000Y-81095994D01*
X154474000Y-80837718D01*
X154588846Y-80723073D01*
X154838206Y-80122547D01*
X154838774Y-79472306D01*
X154838774Y-86365037D01*
X154494008Y-86134673D01*
X154008000Y-86037999D01*
X154007994Y-86038000D01*
X153537718Y-86038000D01*
X153423073Y-85923154D01*
X152822547Y-85673794D01*
X152172306Y-85673226D01*
X151571345Y-85921538D01*
X151111154Y-86380927D01*
X150861794Y-86981453D01*
X150861650Y-87146297D01*
X150677948Y-87330000D01*
X147460000Y-87330000D01*
X147460000Y-84726309D01*
X147460000Y-84385750D01*
X147301250Y-84227000D01*
X146327000Y-84227000D01*
X146327000Y-85076250D01*
X146485750Y-85235000D01*
X146698691Y-85235000D01*
X146951310Y-85235000D01*
X147184699Y-85138327D01*
X147363327Y-84959698D01*
X147460000Y-84726309D01*
X147460000Y-87330000D01*
X146604000Y-87330000D01*
X146600000Y-87330000D01*
X146073000Y-87330000D01*
X146073000Y-85076250D01*
X146073000Y-84227000D01*
X145098750Y-84227000D01*
X144940000Y-84385750D01*
X144940000Y-84726309D01*
X145036673Y-84959698D01*
X145215301Y-85138327D01*
X145448690Y-85235000D01*
X145701309Y-85235000D01*
X145914250Y-85235000D01*
X146073000Y-85076250D01*
X146073000Y-87330000D01*
X145526051Y-87330000D01*
X143070000Y-84873948D01*
X143070000Y-84100000D01*
X142973327Y-83613992D01*
X142935000Y-83556631D01*
X142935000Y-83348691D01*
X142838327Y-83115302D01*
X142659699Y-82936673D01*
X142426310Y-82840000D01*
X142173691Y-82840000D01*
X141850273Y-82840000D01*
X141800000Y-82830000D01*
X141749726Y-82840000D01*
X141173691Y-82840000D01*
X140940302Y-82936673D01*
X140799999Y-83076974D01*
X140659699Y-82936673D01*
X140426310Y-82840000D01*
X140336052Y-82840000D01*
X138573772Y-81077720D01*
X138638206Y-80922547D01*
X138638774Y-80272306D01*
X138390462Y-79671345D01*
X137931073Y-79211154D01*
X137330547Y-78961794D01*
X136680306Y-78961226D01*
X136079345Y-79209538D01*
X135619154Y-79668927D01*
X135369794Y-80269453D01*
X135369226Y-80919694D01*
X135617538Y-81520655D01*
X135816800Y-81720264D01*
X135816800Y-81720265D01*
X135830673Y-81790008D01*
X136105974Y-82202026D01*
X138665000Y-84761052D01*
X138665000Y-84851309D01*
X138761673Y-85084698D01*
X138940301Y-85263327D01*
X139173690Y-85360000D01*
X139426309Y-85360000D01*
X139749726Y-85360000D01*
X139800000Y-85370000D01*
X139850273Y-85360000D01*
X140426309Y-85360000D01*
X140530000Y-85317049D01*
X140530000Y-85399994D01*
X140529999Y-85400000D01*
X140626673Y-85886008D01*
X140901974Y-86298026D01*
X144101971Y-89498022D01*
X144101974Y-89498026D01*
X144513992Y-89773327D01*
X145000000Y-89870000D01*
X146600000Y-89870000D01*
X146604000Y-89870000D01*
X151203994Y-89870000D01*
X151204000Y-89870001D01*
X151204000Y-89870000D01*
X151690008Y-89773327D01*
X152102026Y-89498026D01*
X152657419Y-88942632D01*
X152819694Y-88942774D01*
X153420655Y-88694462D01*
X153509610Y-88605661D01*
X154240000Y-89336051D01*
X154240000Y-89426309D01*
X154336673Y-89659698D01*
X154476974Y-89800000D01*
X154336673Y-89940302D01*
X154240000Y-90173691D01*
X154240000Y-90514250D01*
X154398750Y-90673000D01*
X155373000Y-90673000D01*
X155373000Y-90653000D01*
X155627000Y-90653000D01*
X155627000Y-90673000D01*
X156601250Y-90673000D01*
X156760000Y-90514250D01*
X156760000Y-90173691D01*
X156663327Y-89940302D01*
X156523025Y-89799999D01*
X156663327Y-89659699D01*
X156760000Y-89426310D01*
X156760000Y-89173691D01*
X156760000Y-88850277D01*
X156770001Y-88800000D01*
X156760000Y-88749722D01*
X156760000Y-88537630D01*
X156820500Y-88598131D01*
X156820313Y-88813784D01*
X156984311Y-89210689D01*
X157287714Y-89514622D01*
X157684332Y-89679313D01*
X158113784Y-89679687D01*
X158510689Y-89515689D01*
X158814622Y-89212286D01*
X158979313Y-88815668D01*
X158979687Y-88386216D01*
X158815689Y-87989311D01*
X158512286Y-87685378D01*
X158115668Y-87520687D01*
X157898128Y-87520497D01*
X157162000Y-86784369D01*
X157162000Y-80131247D01*
X157405538Y-80720655D01*
X157864927Y-81180846D01*
X158465453Y-81430206D01*
X159115694Y-81430774D01*
X159716655Y-81182462D01*
X160176846Y-80723073D01*
X160396950Y-80193002D01*
X162301974Y-82098026D01*
X162713992Y-82373327D01*
X163200000Y-82470001D01*
X163200000Y-82470000D01*
X163200005Y-82470000D01*
X164173948Y-82470000D01*
X164828344Y-83124396D01*
X164345620Y-83323854D01*
X163970173Y-83698647D01*
X163893500Y-83883295D01*
X163893500Y-83630191D01*
X163796827Y-83396802D01*
X163618199Y-83218173D01*
X163384810Y-83121500D01*
X163132191Y-83121500D01*
X161735191Y-83121500D01*
X161501802Y-83218173D01*
X161323173Y-83396801D01*
X161226500Y-83630190D01*
X161226500Y-83882809D01*
X161226500Y-85279809D01*
X161323173Y-85513198D01*
X161501801Y-85691827D01*
X161735190Y-85788500D01*
X161987809Y-85788500D01*
X163384809Y-85788500D01*
X163618198Y-85691827D01*
X163796827Y-85513199D01*
X163893500Y-85279810D01*
X163893500Y-85027191D01*
X163893500Y-85027009D01*
X163968854Y-85209380D01*
X164343647Y-85584827D01*
X164833587Y-85788268D01*
X165364086Y-85788731D01*
X165854380Y-85586146D01*
X166229827Y-85211353D01*
X166370093Y-84873553D01*
X166508854Y-85209380D01*
X166883647Y-85584827D01*
X166963740Y-85618084D01*
X166471345Y-85821538D01*
X166011154Y-86280927D01*
X165761794Y-86881453D01*
X165761226Y-87531694D01*
X166009538Y-88132655D01*
X166468927Y-88592846D01*
X167069453Y-88842206D01*
X167719694Y-88842774D01*
X168320655Y-88594462D01*
X168437320Y-88478000D01*
X168891994Y-88478000D01*
X168892000Y-88478001D01*
X168892000Y-88478000D01*
X169378008Y-88381327D01*
X169502255Y-88298307D01*
X170440000Y-89236051D01*
X170440000Y-89326309D01*
X170536673Y-89559698D01*
X170676974Y-89700000D01*
X170536673Y-89840302D01*
X170440000Y-90073691D01*
X170440000Y-90414250D01*
X170598750Y-90573000D01*
X171573000Y-90573000D01*
X171573000Y-90553000D01*
X171827000Y-90553000D01*
X171827000Y-90573000D01*
X172801250Y-90573000D01*
X172960000Y-90414250D01*
X172960000Y-90073691D01*
X172863327Y-89840302D01*
X172723025Y-89699999D01*
X172863327Y-89559699D01*
X172960000Y-89326310D01*
X172960000Y-89073691D01*
X172960000Y-88750277D01*
X172970001Y-88700000D01*
X172960000Y-88649722D01*
X172960000Y-88073691D01*
X172863327Y-87840302D01*
X172684699Y-87661673D01*
X172451310Y-87565000D01*
X172361051Y-87565000D01*
X171450000Y-86653948D01*
X171450000Y-85920005D01*
X171450000Y-85920000D01*
X171450001Y-85920000D01*
X171450000Y-85919994D01*
X171450000Y-84873779D01*
X171450093Y-84873553D01*
X171588854Y-85209380D01*
X171963647Y-85584827D01*
X172453587Y-85788268D01*
X172984086Y-85788731D01*
X173474380Y-85586146D01*
X173849827Y-85211353D01*
X174053268Y-84721413D01*
X174053731Y-84190914D01*
X173851146Y-83700620D01*
X173476353Y-83325173D01*
X172986413Y-83121732D01*
X172455914Y-83121269D01*
X171965620Y-83323854D01*
X171590173Y-83698647D01*
X171450000Y-84036220D01*
X171450000Y-83446052D01*
X172026052Y-82870000D01*
X175373948Y-82870000D01*
X176165000Y-83661052D01*
X176165000Y-83751309D01*
X176261673Y-83984698D01*
X176440301Y-84163327D01*
X176673690Y-84260000D01*
X176926309Y-84260000D01*
X177249722Y-84260000D01*
X177300000Y-84270001D01*
X177350277Y-84260000D01*
X177926309Y-84260000D01*
X178159698Y-84163327D01*
X178300000Y-84023025D01*
X178440301Y-84163327D01*
X178673690Y-84260000D01*
X178926309Y-84260000D01*
X179249726Y-84260000D01*
X179300000Y-84270000D01*
X179350273Y-84260000D01*
X179926309Y-84260000D01*
X180159698Y-84163327D01*
X180338327Y-83984699D01*
X180435000Y-83751310D01*
X180435000Y-83543368D01*
X180473327Y-83486008D01*
X180570000Y-83000000D01*
X180570000Y-80500005D01*
X180570000Y-80500000D01*
X180570001Y-80500000D01*
X180473327Y-80013992D01*
X180198026Y-79601974D01*
X179642454Y-79046402D01*
X179642774Y-78680306D01*
X179394462Y-78079345D01*
X178935073Y-77619154D01*
X178334547Y-77369794D01*
X177684306Y-77369226D01*
X177083345Y-77617538D01*
X176623154Y-78076927D01*
X176373794Y-78677453D01*
X176373226Y-79327694D01*
X176621538Y-79928655D01*
X177080927Y-80388846D01*
X177614248Y-80610300D01*
X178030000Y-81026052D01*
X178030000Y-81782949D01*
X177926310Y-81740000D01*
X177836052Y-81740000D01*
X176798026Y-80701974D01*
X176386008Y-80426673D01*
X175900000Y-80329999D01*
X175899994Y-80330000D01*
X171500005Y-80330000D01*
X171500000Y-80329999D01*
X171013992Y-80426673D01*
X170601974Y-80701974D01*
X169281974Y-82021974D01*
X169006673Y-82433992D01*
X168909999Y-82920000D01*
X168910000Y-82920005D01*
X168910000Y-84036220D01*
X168909906Y-84036446D01*
X168870368Y-83940758D01*
X168813327Y-83653992D01*
X168538026Y-83241974D01*
X165598026Y-80301974D01*
X165186008Y-80026673D01*
X164700000Y-79929999D01*
X164699994Y-79930000D01*
X163726052Y-79930000D01*
X161670000Y-77873948D01*
X161670000Y-77830946D01*
X161803647Y-77964827D01*
X162293587Y-78168268D01*
X162824086Y-78168731D01*
X163314380Y-77966146D01*
X163689827Y-77591353D01*
X163830093Y-77253553D01*
X163968854Y-77589380D01*
X164343647Y-77964827D01*
X164833587Y-78168268D01*
X165364086Y-78168731D01*
X165854380Y-77966146D01*
X166229827Y-77591353D01*
X166370093Y-77253553D01*
X166508854Y-77589380D01*
X166883647Y-77964827D01*
X167373587Y-78168268D01*
X167904086Y-78168731D01*
X168394380Y-77966146D01*
X168769827Y-77591353D01*
X168910093Y-77253553D01*
X169048854Y-77589380D01*
X169423647Y-77964827D01*
X169913587Y-78168268D01*
X170444086Y-78168731D01*
X170934380Y-77966146D01*
X171309827Y-77591353D01*
X171450093Y-77253553D01*
X171588854Y-77589380D01*
X171963647Y-77964827D01*
X172453587Y-78168268D01*
X172984086Y-78168731D01*
X173474380Y-77966146D01*
X173849827Y-77591353D01*
X174053268Y-77101413D01*
X174053731Y-76570914D01*
X173851146Y-76080620D01*
X173476353Y-75705173D01*
X172986413Y-75501732D01*
X172455914Y-75501269D01*
X171965620Y-75703854D01*
X171590173Y-76078647D01*
X171449906Y-76416446D01*
X171311146Y-76080620D01*
X170936353Y-75705173D01*
X170446413Y-75501732D01*
X169915914Y-75501269D01*
X169425620Y-75703854D01*
X169050173Y-76078647D01*
X168909906Y-76416446D01*
X168771146Y-76080620D01*
X168396353Y-75705173D01*
X167968527Y-75527524D01*
X168157026Y-75339026D01*
X168432327Y-74927008D01*
X168529000Y-74441000D01*
X168529000Y-73951779D01*
X168529093Y-73951553D01*
X168667854Y-74287380D01*
X169042647Y-74662827D01*
X169532587Y-74866268D01*
X170063086Y-74866731D01*
X170553380Y-74664146D01*
X170928827Y-74289353D01*
X171069093Y-73951553D01*
X171207854Y-74287380D01*
X171582647Y-74662827D01*
X172072587Y-74866268D01*
X172603086Y-74866731D01*
X173093380Y-74664146D01*
X173468827Y-74289353D01*
X173672268Y-73799413D01*
X173672731Y-73268914D01*
X173470146Y-72778620D01*
X173095353Y-72403173D01*
X172605413Y-72199732D01*
X172074914Y-72199269D01*
X171584620Y-72401854D01*
X171209173Y-72776647D01*
X171068906Y-73114446D01*
X170930146Y-72778620D01*
X170688000Y-72536051D01*
X170688000Y-71900000D01*
X170688000Y-71899000D01*
X170688000Y-71699000D01*
X170620330Y-71358795D01*
X170620329Y-71358794D01*
X170427618Y-71070382D01*
X169927236Y-70570000D01*
X174600000Y-70570000D01*
X175086008Y-70473327D01*
X175143368Y-70435000D01*
X175351309Y-70435000D01*
X175584698Y-70338327D01*
X175763327Y-70159699D01*
X175860000Y-69926310D01*
X175860000Y-69673691D01*
X175860000Y-69643140D01*
X175945474Y-70072848D01*
X176270330Y-70559029D01*
X176756511Y-70883885D01*
X177330000Y-70997959D01*
X177903489Y-70883885D01*
X178389670Y-70559029D01*
X178605663Y-70235771D01*
X178663179Y-70358490D01*
X179095053Y-70752688D01*
X179510974Y-70924958D01*
X179743000Y-70803817D01*
X179743000Y-69597000D01*
X179723000Y-69597000D01*
X179723000Y-69343000D01*
X179743000Y-69343000D01*
X179743000Y-69323000D01*
X179997000Y-69323000D01*
X179997000Y-69343000D01*
X181204469Y-69343000D01*
X181324968Y-69110973D01*
X181076821Y-68581510D01*
X180893880Y-68414528D01*
X181093298Y-68331927D01*
X181271927Y-68153299D01*
X181368600Y-67919910D01*
X181368600Y-67667291D01*
X181368600Y-65940091D01*
X181368600Y-64389909D01*
X181368600Y-63685750D01*
X181368600Y-63114250D01*
X181368600Y-62410091D01*
X181271927Y-62176702D01*
X181093299Y-61998073D01*
X180859910Y-61901400D01*
X180607291Y-61901400D01*
X180155750Y-61901400D01*
X179997000Y-62060150D01*
X179997000Y-63273000D01*
X181209850Y-63273000D01*
X181368600Y-63114250D01*
X181368600Y-63685750D01*
X181209850Y-63527000D01*
X179997000Y-63527000D01*
X179997000Y-64739850D01*
X180155750Y-64898600D01*
X180607291Y-64898600D01*
X180859910Y-64898600D01*
X181093299Y-64801927D01*
X181271927Y-64623298D01*
X181368600Y-64389909D01*
X181368600Y-65940091D01*
X181271927Y-65706702D01*
X181093299Y-65528073D01*
X180859910Y-65431400D01*
X180607291Y-65431400D01*
X178880091Y-65431400D01*
X178646702Y-65528073D01*
X178468073Y-65706701D01*
X178403736Y-65862022D01*
X178389670Y-65840971D01*
X177903489Y-65516115D01*
X177330000Y-65402041D01*
X176756511Y-65516115D01*
X176270330Y-65840971D01*
X175945474Y-66327152D01*
X175870000Y-66706585D01*
X175870000Y-63623414D01*
X175945474Y-64002848D01*
X176270330Y-64489029D01*
X176756511Y-64813885D01*
X177330000Y-64927959D01*
X177903489Y-64813885D01*
X178389670Y-64489029D01*
X178403736Y-64467976D01*
X178468073Y-64623298D01*
X178646701Y-64801927D01*
X178880090Y-64898600D01*
X179132709Y-64898600D01*
X179584250Y-64898600D01*
X179743000Y-64739850D01*
X179743000Y-63527000D01*
X179723000Y-63527000D01*
X179723000Y-63273000D01*
X179743000Y-63273000D01*
X179743000Y-62060150D01*
X179681000Y-61998150D01*
X179681000Y-59044310D01*
X179681000Y-58791691D01*
X179681000Y-58578750D01*
X179681000Y-58007250D01*
X179681000Y-57794309D01*
X179681000Y-57541690D01*
X179584327Y-57308301D01*
X179405698Y-57129673D01*
X179172309Y-57033000D01*
X178831750Y-57033000D01*
X178673000Y-57191750D01*
X178673000Y-58166000D01*
X179522250Y-58166000D01*
X179681000Y-58007250D01*
X179681000Y-58578750D01*
X179522250Y-58420000D01*
X178673000Y-58420000D01*
X178673000Y-59394250D01*
X178831750Y-59553000D01*
X179172309Y-59553000D01*
X179405698Y-59456327D01*
X179584327Y-59277699D01*
X179681000Y-59044310D01*
X179681000Y-61998150D01*
X179584250Y-61901400D01*
X179132709Y-61901400D01*
X178880090Y-61901400D01*
X178646701Y-61998073D01*
X178468073Y-62176702D01*
X178403736Y-62332023D01*
X178389670Y-62310971D01*
X177903489Y-61986115D01*
X177330000Y-61872041D01*
X176756511Y-61986115D01*
X176270330Y-62310971D01*
X175945474Y-62797152D01*
X175870000Y-63176585D01*
X175870000Y-61772896D01*
X175882846Y-61760073D01*
X176132206Y-61159547D01*
X176132774Y-60509306D01*
X175884462Y-59908345D01*
X175425073Y-59448154D01*
X174824547Y-59198794D01*
X174174306Y-59198226D01*
X173573345Y-59446538D01*
X173456679Y-59563000D01*
X171967005Y-59563000D01*
X171967000Y-59562999D01*
X171879517Y-59580400D01*
X171879687Y-59386216D01*
X171715689Y-58989311D01*
X171662000Y-58935528D01*
X171662000Y-55515630D01*
X173815630Y-53362000D01*
X173865000Y-53362000D01*
X173865000Y-53376309D01*
X173961673Y-53609698D01*
X174024216Y-53672241D01*
X173573345Y-53858538D01*
X173113154Y-54317927D01*
X172863794Y-54918453D01*
X172863226Y-55568694D01*
X173111538Y-56169655D01*
X173238263Y-56296601D01*
X173324673Y-56731008D01*
X173599974Y-57143026D01*
X175411000Y-58954051D01*
X175411000Y-59044309D01*
X175507673Y-59277698D01*
X175686301Y-59456327D01*
X175919690Y-59553000D01*
X176172309Y-59553000D01*
X176495726Y-59553000D01*
X176546000Y-59563000D01*
X176596273Y-59553000D01*
X177172309Y-59553000D01*
X177405698Y-59456327D01*
X177546000Y-59316025D01*
X177686302Y-59456327D01*
X177919691Y-59553000D01*
X178260250Y-59553000D01*
X178419000Y-59394250D01*
X178419000Y-58420000D01*
X178399000Y-58420000D01*
X178399000Y-58166000D01*
X178419000Y-58166000D01*
X178419000Y-57191750D01*
X178260250Y-57033000D01*
X177919691Y-57033000D01*
X177686302Y-57129673D01*
X177545999Y-57269974D01*
X177405699Y-57129673D01*
X177172310Y-57033000D01*
X177082051Y-57033000D01*
X175982098Y-55933046D01*
X176132206Y-55571547D01*
X176132774Y-54921306D01*
X175884462Y-54320345D01*
X175449875Y-53885000D01*
X176126309Y-53885000D01*
X176359698Y-53788327D01*
X176538327Y-53609699D01*
X176600000Y-53460806D01*
X176661673Y-53609698D01*
X176840301Y-53788327D01*
X177073690Y-53885000D01*
X177326309Y-53885000D01*
X178107369Y-53885000D01*
X181361185Y-57138816D01*
X181608395Y-57303996D01*
X181608396Y-57303997D01*
X181900000Y-57362000D01*
X184735358Y-57362000D01*
X184738000Y-57364646D01*
X184738000Y-58835183D01*
X184685378Y-58887714D01*
X184520687Y-59284332D01*
X184520313Y-59713784D01*
X184684311Y-60110689D01*
X184987714Y-60414622D01*
X185384332Y-60579313D01*
X185813784Y-60579687D01*
X186210689Y-60415689D01*
X186514622Y-60112286D01*
X186647500Y-59792281D01*
X186647500Y-59800000D01*
X186647500Y-62649517D01*
X186565000Y-62848690D01*
X186565000Y-63101309D01*
X186565000Y-64351309D01*
X186575735Y-64377226D01*
X186294930Y-64658031D01*
X185989311Y-64784311D01*
X185685378Y-65087714D01*
X185635284Y-65208353D01*
X185635284Y-63476205D01*
X185386894Y-62875057D01*
X184927363Y-62414722D01*
X184326648Y-62165284D01*
X183676205Y-62164716D01*
X183075057Y-62413106D01*
X182614722Y-62872637D01*
X182365284Y-63473352D01*
X182364716Y-64123795D01*
X182613106Y-64724943D01*
X183072637Y-65185278D01*
X183673352Y-65434716D01*
X184323795Y-65435284D01*
X184924943Y-65186894D01*
X185385278Y-64727363D01*
X185634716Y-64126648D01*
X185635284Y-63476205D01*
X185635284Y-65208353D01*
X185520687Y-65484332D01*
X185520313Y-65913784D01*
X185684311Y-66310689D01*
X185987714Y-66614622D01*
X186384332Y-66779313D01*
X186813784Y-66779687D01*
X187210689Y-66615689D01*
X187514622Y-66312286D01*
X187642347Y-66004690D01*
X188373519Y-65273519D01*
X188579995Y-64964506D01*
X188634988Y-64688037D01*
X188700000Y-64623025D01*
X188840302Y-64763327D01*
X189073691Y-64860000D01*
X189414250Y-64860000D01*
X189573000Y-64701250D01*
X189573000Y-63727000D01*
X189553000Y-63727000D01*
X189553000Y-63473000D01*
X189573000Y-63473000D01*
X189573000Y-62498750D01*
X189414250Y-62340000D01*
X189073691Y-62340000D01*
X188840302Y-62436673D01*
X188699999Y-62576974D01*
X188559699Y-62436673D01*
X188552500Y-62433691D01*
X188552500Y-59800000D01*
X188552500Y-59100000D01*
X188479995Y-58735494D01*
X188273519Y-58426481D01*
X187841968Y-57994930D01*
X187715689Y-57689311D01*
X187412286Y-57385378D01*
X187015668Y-57220687D01*
X186586216Y-57220313D01*
X186279716Y-57346956D01*
X186414622Y-57212286D01*
X186579313Y-56815668D01*
X186579687Y-56386216D01*
X186415689Y-55989311D01*
X186112286Y-55685378D01*
X185715668Y-55520687D01*
X185286216Y-55520313D01*
X184935314Y-55665302D01*
X184935314Y-44476306D01*
X184687002Y-43875345D01*
X184227613Y-43415154D01*
X183627087Y-43165794D01*
X182976846Y-43165226D01*
X182375885Y-43413538D01*
X181941165Y-43847500D01*
X181070525Y-43847500D01*
X180984699Y-43761673D01*
X180751310Y-43665000D01*
X180498691Y-43665000D01*
X179248691Y-43665000D01*
X179015302Y-43761673D01*
X178929474Y-43847500D01*
X177670525Y-43847500D01*
X177584699Y-43761673D01*
X177351310Y-43665000D01*
X177098691Y-43665000D01*
X175848691Y-43665000D01*
X175615302Y-43761673D01*
X175529474Y-43847500D01*
X174670525Y-43847500D01*
X174584699Y-43761673D01*
X174351310Y-43665000D01*
X174098691Y-43665000D01*
X172848691Y-43665000D01*
X172615302Y-43761673D01*
X172529474Y-43847500D01*
X171835430Y-43847500D01*
X171835430Y-43323891D01*
X171738757Y-43090502D01*
X171560129Y-42911873D01*
X171326740Y-42815200D01*
X171074121Y-42815200D01*
X169273261Y-42815200D01*
X169039872Y-42911873D01*
X168861243Y-43090501D01*
X168764570Y-43323890D01*
X168764570Y-43576509D01*
X168764570Y-43668131D01*
X165163907Y-40067469D01*
X165366368Y-39579890D01*
X165367030Y-38822035D01*
X165077622Y-38121614D01*
X164542205Y-37585261D01*
X163842290Y-37294632D01*
X163084435Y-37293970D01*
X162384014Y-37583378D01*
X161847661Y-38118795D01*
X161557032Y-38818710D01*
X161556370Y-39576565D01*
X161845778Y-40276986D01*
X162381195Y-40813339D01*
X163081110Y-41103968D01*
X163506701Y-41104339D01*
X167664981Y-45262619D01*
X167926481Y-45524120D01*
X168111721Y-45647892D01*
X168235494Y-45730595D01*
X168235495Y-45730595D01*
X168600000Y-45803100D01*
X168764570Y-45803100D01*
X168764570Y-47076629D01*
X168861243Y-47310018D01*
X169039871Y-47488647D01*
X169273260Y-47585320D01*
X169525879Y-47585320D01*
X171326739Y-47585320D01*
X171560128Y-47488647D01*
X171738757Y-47310019D01*
X171835430Y-47076630D01*
X171835430Y-46824011D01*
X171835430Y-45752500D01*
X172529474Y-45752500D01*
X172576974Y-45800000D01*
X172436673Y-45940302D01*
X172340000Y-46173691D01*
X172340000Y-46514250D01*
X172498750Y-46673000D01*
X173473000Y-46673000D01*
X173473000Y-46653000D01*
X173727000Y-46653000D01*
X173727000Y-46673000D01*
X174701250Y-46673000D01*
X174860000Y-46514250D01*
X174860000Y-46173691D01*
X174763327Y-45940302D01*
X174623025Y-45799999D01*
X174670525Y-45752500D01*
X175529474Y-45752500D01*
X175576974Y-45800000D01*
X175436673Y-45940302D01*
X175340000Y-46173691D01*
X175340000Y-46514250D01*
X175498750Y-46673000D01*
X176473000Y-46673000D01*
X176473000Y-46653000D01*
X176727000Y-46653000D01*
X176727000Y-46673000D01*
X177701250Y-46673000D01*
X177860000Y-46514250D01*
X177860000Y-46173691D01*
X177763327Y-45940302D01*
X177623025Y-45799999D01*
X177670525Y-45752500D01*
X178929474Y-45752500D01*
X178976974Y-45800000D01*
X178836673Y-45940302D01*
X178740000Y-46173691D01*
X178740000Y-46514250D01*
X178898750Y-46673000D01*
X179873000Y-46673000D01*
X179873000Y-46653000D01*
X180127000Y-46653000D01*
X180127000Y-46673000D01*
X181101250Y-46673000D01*
X181260000Y-46514250D01*
X181260000Y-46173691D01*
X181163327Y-45940302D01*
X181023025Y-45799999D01*
X181070525Y-45752500D01*
X181941874Y-45752500D01*
X182373467Y-46184846D01*
X182973993Y-46434206D01*
X183624234Y-46434774D01*
X184225195Y-46186462D01*
X184685386Y-45727073D01*
X184934746Y-45126547D01*
X184935314Y-44476306D01*
X184935314Y-55665302D01*
X184889311Y-55684311D01*
X184735353Y-55838000D01*
X182215630Y-55838000D01*
X181260000Y-54882369D01*
X181260000Y-47426309D01*
X181260000Y-47085750D01*
X181101250Y-46927000D01*
X180127000Y-46927000D01*
X180127000Y-47776250D01*
X180285750Y-47935000D01*
X180498691Y-47935000D01*
X180751310Y-47935000D01*
X180984699Y-47838327D01*
X181163327Y-47659698D01*
X181260000Y-47426309D01*
X181260000Y-54882369D01*
X179873000Y-53495369D01*
X179873000Y-47776250D01*
X179873000Y-46927000D01*
X178898750Y-46927000D01*
X178740000Y-47085750D01*
X178740000Y-47426309D01*
X178836673Y-47659698D01*
X179015301Y-47838327D01*
X179248690Y-47935000D01*
X179501309Y-47935000D01*
X179714250Y-47935000D01*
X179873000Y-47776250D01*
X179873000Y-53495369D01*
X179335000Y-52957369D01*
X179335000Y-51823691D01*
X179238327Y-51590302D01*
X179059699Y-51411673D01*
X178826310Y-51315000D01*
X178573691Y-51315000D01*
X177860000Y-51315000D01*
X177860000Y-47426309D01*
X177860000Y-47085750D01*
X177701250Y-46927000D01*
X176727000Y-46927000D01*
X176727000Y-47776250D01*
X176885750Y-47935000D01*
X177098691Y-47935000D01*
X177351310Y-47935000D01*
X177584699Y-47838327D01*
X177763327Y-47659698D01*
X177860000Y-47426309D01*
X177860000Y-51315000D01*
X177073691Y-51315000D01*
X176840302Y-51411673D01*
X176661673Y-51590301D01*
X176599999Y-51739193D01*
X176538327Y-51590302D01*
X176473000Y-51524974D01*
X176473000Y-47776250D01*
X176473000Y-46927000D01*
X175498750Y-46927000D01*
X175340000Y-47085750D01*
X175340000Y-47426309D01*
X175436673Y-47659698D01*
X175615301Y-47838327D01*
X175848690Y-47935000D01*
X176101309Y-47935000D01*
X176314250Y-47935000D01*
X176473000Y-47776250D01*
X176473000Y-51524974D01*
X176359699Y-51411673D01*
X176126310Y-51315000D01*
X175873691Y-51315000D01*
X174860000Y-51315000D01*
X174860000Y-47426309D01*
X174860000Y-47085750D01*
X174701250Y-46927000D01*
X173727000Y-46927000D01*
X173727000Y-47776250D01*
X173885750Y-47935000D01*
X174098691Y-47935000D01*
X174351310Y-47935000D01*
X174584699Y-47838327D01*
X174763327Y-47659698D01*
X174860000Y-47426309D01*
X174860000Y-51315000D01*
X174373691Y-51315000D01*
X174140302Y-51411673D01*
X173961673Y-51590301D01*
X173865000Y-51823690D01*
X173865000Y-51838000D01*
X173500000Y-51838000D01*
X173473000Y-51843370D01*
X173473000Y-47776250D01*
X173473000Y-46927000D01*
X172498750Y-46927000D01*
X172340000Y-47085750D01*
X172340000Y-47426309D01*
X172436673Y-47659698D01*
X172615301Y-47838327D01*
X172848690Y-47935000D01*
X173101309Y-47935000D01*
X173314250Y-47935000D01*
X173473000Y-47776250D01*
X173473000Y-51843370D01*
X173208395Y-51896004D01*
X172961184Y-52061185D01*
X171757060Y-53265308D01*
X171835430Y-53076109D01*
X171835430Y-51485490D01*
X171835430Y-50913990D01*
X171835430Y-49323371D01*
X171738757Y-49089982D01*
X171560129Y-48911353D01*
X171326740Y-48814680D01*
X171074121Y-48814680D01*
X170585750Y-48814680D01*
X170427000Y-48973430D01*
X170427000Y-51072740D01*
X171676680Y-51072740D01*
X171835430Y-50913990D01*
X171835430Y-51485490D01*
X171676680Y-51326740D01*
X170427000Y-51326740D01*
X170427000Y-53426050D01*
X170585750Y-53584800D01*
X171074121Y-53584800D01*
X171326740Y-53584800D01*
X171515938Y-53506431D01*
X170361185Y-54661185D01*
X170196004Y-54908395D01*
X170173000Y-55024043D01*
X170173000Y-53426050D01*
X170173000Y-51326740D01*
X170173000Y-51072740D01*
X170173000Y-48973430D01*
X170014250Y-48814680D01*
X169525879Y-48814680D01*
X169273260Y-48814680D01*
X169039871Y-48911353D01*
X168861243Y-49089982D01*
X168764570Y-49323371D01*
X168764570Y-50913990D01*
X168923320Y-51072740D01*
X170173000Y-51072740D01*
X170173000Y-51326740D01*
X168923320Y-51326740D01*
X168764570Y-51485490D01*
X168764570Y-53076109D01*
X168861243Y-53309498D01*
X169039871Y-53488127D01*
X169273260Y-53584800D01*
X169525879Y-53584800D01*
X170014250Y-53584800D01*
X170173000Y-53426050D01*
X170173000Y-55024043D01*
X170138000Y-55200000D01*
X170138000Y-58735532D01*
X169885378Y-58987714D01*
X169720687Y-59384332D01*
X169720313Y-59813784D01*
X169884311Y-60210689D01*
X170187714Y-60514622D01*
X170311183Y-60565891D01*
X170140302Y-60636673D01*
X170000000Y-60776974D01*
X169859698Y-60636673D01*
X169626309Y-60540000D01*
X169285750Y-60540000D01*
X169127000Y-60698750D01*
X169127000Y-61673000D01*
X169147000Y-61673000D01*
X169147000Y-61927000D01*
X169127000Y-61927000D01*
X169127000Y-62901250D01*
X169285750Y-63060000D01*
X169626309Y-63060000D01*
X169859698Y-62963327D01*
X170000000Y-62823025D01*
X170140301Y-62963327D01*
X170373690Y-63060000D01*
X170626309Y-63060000D01*
X170949722Y-63060000D01*
X171000000Y-63070001D01*
X171050277Y-63060000D01*
X171626309Y-63060000D01*
X171859698Y-62963327D01*
X172038327Y-62784699D01*
X172135000Y-62551310D01*
X172135000Y-62461051D01*
X172493051Y-62103000D01*
X173330000Y-62103000D01*
X173330000Y-64648338D01*
X173163810Y-64579500D01*
X172911191Y-64579500D01*
X171514191Y-64579500D01*
X171280802Y-64676173D01*
X171102173Y-64854801D01*
X171005500Y-65088190D01*
X171005500Y-65340809D01*
X171005500Y-65340990D01*
X170930146Y-65158620D01*
X170555353Y-64783173D01*
X170065413Y-64579732D01*
X169534914Y-64579269D01*
X169044620Y-64781854D01*
X168873000Y-64953175D01*
X168873000Y-62901250D01*
X168873000Y-61927000D01*
X168873000Y-61673000D01*
X168873000Y-60698750D01*
X168714250Y-60540000D01*
X168373691Y-60540000D01*
X168330774Y-60557776D01*
X168330774Y-57980306D01*
X168082462Y-57379345D01*
X167623073Y-56919154D01*
X167022547Y-56669794D01*
X166372306Y-56669226D01*
X165771345Y-56917538D01*
X165311154Y-57376927D01*
X165061794Y-57977453D01*
X165061226Y-58627694D01*
X165309538Y-59228655D01*
X165768927Y-59688846D01*
X166369453Y-59938206D01*
X167019694Y-59938774D01*
X167620655Y-59690462D01*
X168080846Y-59231073D01*
X168330206Y-58630547D01*
X168330774Y-57980306D01*
X168330774Y-60557776D01*
X168140302Y-60636673D01*
X167961673Y-60815301D01*
X167865000Y-61048690D01*
X167865000Y-61301309D01*
X167865000Y-61514250D01*
X168023750Y-61673000D01*
X168873000Y-61673000D01*
X168873000Y-61927000D01*
X168023750Y-61927000D01*
X167865000Y-62085750D01*
X167865000Y-62298691D01*
X167865000Y-62551310D01*
X167961673Y-62784699D01*
X168140302Y-62963327D01*
X168373691Y-63060000D01*
X168714250Y-63060000D01*
X168873000Y-62901250D01*
X168873000Y-64953175D01*
X168669173Y-65156647D01*
X168528906Y-65494446D01*
X168390146Y-65158620D01*
X168015353Y-64783173D01*
X167525413Y-64579732D01*
X166994914Y-64579269D01*
X166504620Y-64781854D01*
X166335000Y-64951178D01*
X166335000Y-62751310D01*
X166335000Y-62498691D01*
X166335000Y-62285750D01*
X166335000Y-61714250D01*
X166335000Y-61501309D01*
X166335000Y-61248690D01*
X166238327Y-61015301D01*
X166059698Y-60836673D01*
X165826309Y-60740000D01*
X165485750Y-60740000D01*
X165327000Y-60898750D01*
X165327000Y-61873000D01*
X166176250Y-61873000D01*
X166335000Y-61714250D01*
X166335000Y-62285750D01*
X166176250Y-62127000D01*
X165327000Y-62127000D01*
X165327000Y-63101250D01*
X165485750Y-63260000D01*
X165826309Y-63260000D01*
X166059698Y-63163327D01*
X166238327Y-62984699D01*
X166335000Y-62751310D01*
X166335000Y-64951178D01*
X166129173Y-65156647D01*
X165988906Y-65494446D01*
X165850146Y-65158620D01*
X165475353Y-64783173D01*
X165073000Y-64616101D01*
X165073000Y-63101250D01*
X165073000Y-62127000D01*
X165053000Y-62127000D01*
X165053000Y-61873000D01*
X165073000Y-61873000D01*
X165073000Y-60898750D01*
X164960559Y-60786309D01*
X164960559Y-50902518D01*
X164732892Y-50351520D01*
X164311697Y-49929590D01*
X163761098Y-49700961D01*
X163164918Y-49700441D01*
X162613920Y-49928108D01*
X162191990Y-50349303D01*
X161963361Y-50899902D01*
X161962841Y-51496082D01*
X162190508Y-52047080D01*
X162611703Y-52469010D01*
X163162302Y-52697639D01*
X163758482Y-52698159D01*
X164309480Y-52470492D01*
X164731410Y-52049297D01*
X164960039Y-51498698D01*
X164960559Y-50902518D01*
X164960559Y-60786309D01*
X164914250Y-60740000D01*
X164573691Y-60740000D01*
X164340302Y-60836673D01*
X164199999Y-60976974D01*
X164059699Y-60836673D01*
X163826310Y-60740000D01*
X163736051Y-60740000D01*
X162378000Y-59381948D01*
X162378000Y-59345718D01*
X162492846Y-59231073D01*
X162742206Y-58630547D01*
X162742774Y-57980306D01*
X162494462Y-57379345D01*
X162035073Y-56919154D01*
X161434547Y-56669794D01*
X160784306Y-56669226D01*
X160183345Y-56917538D01*
X159723154Y-57376927D01*
X159473794Y-57977453D01*
X159473226Y-58627694D01*
X159721538Y-59228655D01*
X159838000Y-59345320D01*
X159838000Y-59907994D01*
X159837999Y-59908000D01*
X159934673Y-60394008D01*
X160209974Y-60806026D01*
X162065000Y-62661051D01*
X162065000Y-62751309D01*
X162161673Y-62984698D01*
X162340301Y-63163327D01*
X162573690Y-63260000D01*
X162826309Y-63260000D01*
X163149722Y-63260000D01*
X163200000Y-63270001D01*
X163250277Y-63260000D01*
X163826309Y-63260000D01*
X164059698Y-63163327D01*
X164200000Y-63023025D01*
X164340302Y-63163327D01*
X164573691Y-63260000D01*
X164914250Y-63260000D01*
X165073000Y-63101250D01*
X165073000Y-64616101D01*
X164985413Y-64579732D01*
X164454914Y-64579269D01*
X163964620Y-64781854D01*
X163589173Y-65156647D01*
X163448906Y-65494446D01*
X163310146Y-65158620D01*
X162935353Y-64783173D01*
X162445413Y-64579732D01*
X161914914Y-64579269D01*
X161424620Y-64781854D01*
X161235000Y-64971143D01*
X161235000Y-63976310D01*
X161235000Y-63723691D01*
X161235000Y-63485750D01*
X161235000Y-62914250D01*
X161235000Y-62676309D01*
X161235000Y-62423690D01*
X161138327Y-62190301D01*
X160959698Y-62011673D01*
X160726309Y-61915000D01*
X160135750Y-61915000D01*
X159977000Y-62073750D01*
X159977000Y-63073000D01*
X161076250Y-63073000D01*
X161235000Y-62914250D01*
X161235000Y-63485750D01*
X161076250Y-63327000D01*
X159977000Y-63327000D01*
X159977000Y-64326250D01*
X160135750Y-64485000D01*
X160726309Y-64485000D01*
X160959698Y-64388327D01*
X161138327Y-64209699D01*
X161235000Y-63976310D01*
X161235000Y-64971143D01*
X161049173Y-65156647D01*
X160845732Y-65646587D01*
X160845269Y-66177086D01*
X160868084Y-66232304D01*
X160826309Y-66215000D01*
X160235750Y-66215000D01*
X160077000Y-66373750D01*
X160077000Y-67373000D01*
X161176250Y-67373000D01*
X161335000Y-67214250D01*
X161335000Y-66976309D01*
X161335000Y-66955027D01*
X161422647Y-67042827D01*
X161784070Y-67192903D01*
X161636673Y-67340302D01*
X161540000Y-67573691D01*
X161540000Y-67914250D01*
X161698750Y-68073000D01*
X162673000Y-68073000D01*
X162673000Y-68053000D01*
X162927000Y-68053000D01*
X162927000Y-68073000D01*
X163901250Y-68073000D01*
X164060000Y-67914250D01*
X164060000Y-67573691D01*
X163963327Y-67340302D01*
X163784699Y-67161673D01*
X163551310Y-67065000D01*
X163298691Y-67065000D01*
X163085750Y-67065000D01*
X162927002Y-67223748D01*
X162927002Y-67065000D01*
X162882909Y-67065000D01*
X162933380Y-67044146D01*
X163308827Y-66669353D01*
X163449093Y-66331553D01*
X163587854Y-66667380D01*
X163962647Y-67042827D01*
X164452587Y-67246268D01*
X164983086Y-67246731D01*
X165473380Y-67044146D01*
X165848827Y-66669353D01*
X165989093Y-66331553D01*
X166127854Y-66667380D01*
X166502647Y-67042827D01*
X166992587Y-67246268D01*
X167523086Y-67246731D01*
X168013380Y-67044146D01*
X168388827Y-66669353D01*
X168529093Y-66331553D01*
X168667854Y-66667380D01*
X169042647Y-67042827D01*
X169532587Y-67246268D01*
X170063086Y-67246731D01*
X170553380Y-67044146D01*
X170928827Y-66669353D01*
X171005500Y-66484704D01*
X171005500Y-66737809D01*
X171102173Y-66971198D01*
X171280801Y-67149827D01*
X171514190Y-67246500D01*
X171766809Y-67246500D01*
X173163809Y-67246500D01*
X173330000Y-67177661D01*
X173330000Y-67300000D01*
X173340000Y-67350273D01*
X173340000Y-67926309D01*
X173382950Y-68030000D01*
X166100005Y-68030000D01*
X166100000Y-68029999D01*
X165613992Y-68126673D01*
X165201974Y-68401974D01*
X164051288Y-69552659D01*
X163963327Y-69340302D01*
X163823025Y-69200000D01*
X163963327Y-69059698D01*
X164060000Y-68826309D01*
X164060000Y-68485750D01*
X163901250Y-68327000D01*
X162927000Y-68327000D01*
X162927000Y-68347000D01*
X162673000Y-68347000D01*
X162673000Y-68327000D01*
X161698750Y-68327000D01*
X161540000Y-68485750D01*
X161540000Y-68813315D01*
X161412286Y-68685378D01*
X161165233Y-68582792D01*
X161238327Y-68509699D01*
X161335000Y-68276310D01*
X161335000Y-68023691D01*
X161335000Y-67785750D01*
X161176250Y-67627000D01*
X160077000Y-67627000D01*
X160077000Y-68626250D01*
X160162162Y-68711412D01*
X159885378Y-68987714D01*
X159823000Y-69137935D01*
X159823000Y-68626250D01*
X159823000Y-67627000D01*
X159803000Y-67627000D01*
X159803000Y-67373000D01*
X159823000Y-67373000D01*
X159823000Y-66373750D01*
X159664250Y-66215000D01*
X159073691Y-66215000D01*
X158840302Y-66311673D01*
X158661673Y-66490301D01*
X158599999Y-66639193D01*
X158538327Y-66490302D01*
X158359699Y-66311673D01*
X158126310Y-66215000D01*
X157873691Y-66215000D01*
X157292630Y-66215000D01*
X156179499Y-65101869D01*
X156179687Y-64886216D01*
X156015689Y-64489311D01*
X155712286Y-64185378D01*
X155315668Y-64020687D01*
X154886216Y-64020313D01*
X154489311Y-64184311D01*
X154185378Y-64487714D01*
X154020687Y-64884332D01*
X154020313Y-65313784D01*
X154184311Y-65710689D01*
X154487714Y-66014622D01*
X154884332Y-66179313D01*
X155101872Y-66179502D01*
X155865000Y-66942630D01*
X155865000Y-66976309D01*
X155865000Y-68276309D01*
X155961673Y-68509698D01*
X156140301Y-68688327D01*
X156373690Y-68785000D01*
X156626309Y-68785000D01*
X158126309Y-68785000D01*
X158359698Y-68688327D01*
X158538327Y-68509699D01*
X158600000Y-68360807D01*
X158661673Y-68509699D01*
X158840302Y-68688327D01*
X159073691Y-68785000D01*
X159664250Y-68785000D01*
X159823000Y-68626250D01*
X159823000Y-69137935D01*
X159757652Y-69295309D01*
X158926481Y-70126481D01*
X158720005Y-70435494D01*
X158647500Y-70800000D01*
X158647500Y-73505462D01*
X157205462Y-74947500D01*
X155900000Y-74947500D01*
X155705655Y-74947500D01*
X155664506Y-74920005D01*
X155300000Y-74847500D01*
X155135000Y-74847500D01*
X155135000Y-68176310D01*
X155135000Y-67923691D01*
X155135000Y-67685750D01*
X155135000Y-67114250D01*
X155135000Y-66876309D01*
X155135000Y-66623690D01*
X155038327Y-66390301D01*
X154859698Y-66211673D01*
X154626309Y-66115000D01*
X154035750Y-66115000D01*
X153877000Y-66273750D01*
X153877000Y-67273000D01*
X154976250Y-67273000D01*
X155135000Y-67114250D01*
X155135000Y-67685750D01*
X154976250Y-67527000D01*
X153877000Y-67527000D01*
X153877000Y-68526250D01*
X154035750Y-68685000D01*
X154626309Y-68685000D01*
X154859698Y-68588327D01*
X155038327Y-68409699D01*
X155135000Y-68176310D01*
X155135000Y-74847500D01*
X154223990Y-74847500D01*
X154223990Y-74323681D01*
X154127317Y-74090292D01*
X153948689Y-73911663D01*
X153715300Y-73814990D01*
X153462681Y-73814990D01*
X149608035Y-73814990D01*
X149638327Y-73784699D01*
X149735000Y-73551310D01*
X149735000Y-73298691D01*
X149735000Y-72048691D01*
X149638327Y-71815302D01*
X149552500Y-71729474D01*
X149552500Y-71700000D01*
X149479995Y-71335494D01*
X149273519Y-71026481D01*
X148286418Y-70039380D01*
X148379313Y-69815668D01*
X148379687Y-69386216D01*
X148215689Y-68989311D01*
X148152059Y-68925570D01*
X149665000Y-67412630D01*
X149665000Y-68176309D01*
X149761673Y-68409698D01*
X149940301Y-68588327D01*
X150173690Y-68685000D01*
X150426309Y-68685000D01*
X151926309Y-68685000D01*
X152159698Y-68588327D01*
X152338327Y-68409699D01*
X152400000Y-68260807D01*
X152461673Y-68409699D01*
X152640302Y-68588327D01*
X152873691Y-68685000D01*
X153464250Y-68685000D01*
X153623000Y-68526250D01*
X153623000Y-67527000D01*
X153603000Y-67527000D01*
X153603000Y-67273000D01*
X153623000Y-67273000D01*
X153623000Y-66273750D01*
X153464250Y-66115000D01*
X152873691Y-66115000D01*
X152640302Y-66211673D01*
X152461673Y-66390301D01*
X152399999Y-66539193D01*
X152338327Y-66390302D01*
X152159699Y-66211673D01*
X151926310Y-66115000D01*
X151673691Y-66115000D01*
X151512000Y-66115000D01*
X151512000Y-65350000D01*
X151453996Y-65058395D01*
X151288815Y-64811185D01*
X151288815Y-64811184D01*
X151112828Y-64635197D01*
X151238327Y-64509699D01*
X151300000Y-64360806D01*
X151361673Y-64509698D01*
X151540301Y-64688327D01*
X151773690Y-64785000D01*
X152026309Y-64785000D01*
X153526309Y-64785000D01*
X153759698Y-64688327D01*
X153938327Y-64509699D01*
X154035000Y-64276310D01*
X154035000Y-64023691D01*
X154035000Y-62862000D01*
X155765000Y-62862000D01*
X155765000Y-63976309D01*
X155861673Y-64209698D01*
X156040301Y-64388327D01*
X156273690Y-64485000D01*
X156526309Y-64485000D01*
X158026309Y-64485000D01*
X158259698Y-64388327D01*
X158438327Y-64209699D01*
X158500000Y-64060807D01*
X158561673Y-64209699D01*
X158740302Y-64388327D01*
X158973691Y-64485000D01*
X159564250Y-64485000D01*
X159723000Y-64326250D01*
X159723000Y-63327000D01*
X159703000Y-63327000D01*
X159703000Y-63073000D01*
X159723000Y-63073000D01*
X159723000Y-62073750D01*
X159564250Y-61915000D01*
X158973691Y-61915000D01*
X158740302Y-62011673D01*
X158561673Y-62190301D01*
X158499999Y-62339193D01*
X158438327Y-62190302D01*
X158259699Y-62011673D01*
X158026310Y-61915000D01*
X157773691Y-61915000D01*
X157435370Y-61915000D01*
X157435370Y-53880177D01*
X156883180Y-52543775D01*
X155861603Y-51520414D01*
X154526166Y-50965892D01*
X153080177Y-50964630D01*
X151743775Y-51516820D01*
X150720414Y-52538397D01*
X150165892Y-53873834D01*
X150164630Y-55319823D01*
X150716820Y-56656225D01*
X151738397Y-57679586D01*
X153073834Y-58234108D01*
X154519823Y-58235370D01*
X155856225Y-57683180D01*
X156879586Y-56661603D01*
X157434108Y-55326166D01*
X157435370Y-53880177D01*
X157435370Y-61915000D01*
X157342630Y-61915000D01*
X156988815Y-61561185D01*
X156741605Y-61396004D01*
X156450000Y-61338000D01*
X153000000Y-61338000D01*
X152115630Y-61338000D01*
X148362000Y-57584369D01*
X148362000Y-53730571D01*
X148584698Y-53638327D01*
X148763327Y-53459699D01*
X148860000Y-53226310D01*
X148860000Y-52973691D01*
X148860000Y-51973691D01*
X148763327Y-51740302D01*
X148623025Y-51599999D01*
X148763327Y-51459699D01*
X148860000Y-51226310D01*
X148860000Y-50973691D01*
X148860000Y-49973691D01*
X148800554Y-49830178D01*
X148885000Y-49626310D01*
X148885000Y-49373691D01*
X148885000Y-47873691D01*
X148788327Y-47640302D01*
X148609699Y-47461673D01*
X148460806Y-47399999D01*
X148609698Y-47338327D01*
X148788327Y-47159699D01*
X148845314Y-47022119D01*
X149907433Y-45960000D01*
X150626309Y-45960000D01*
X150859698Y-45863327D01*
X151000000Y-45723025D01*
X151140301Y-45863327D01*
X151373690Y-45960000D01*
X151626309Y-45960000D01*
X152482369Y-45960000D01*
X152761185Y-46238816D01*
X152765000Y-46241365D01*
X152765000Y-46476309D01*
X152861673Y-46709698D01*
X153040301Y-46888327D01*
X153273690Y-46985000D01*
X153526309Y-46985000D01*
X155026309Y-46985000D01*
X155259698Y-46888327D01*
X155438327Y-46709699D01*
X155500000Y-46560806D01*
X155561673Y-46709698D01*
X155740301Y-46888327D01*
X155973690Y-46985000D01*
X156226309Y-46985000D01*
X157188948Y-46985000D01*
X158301271Y-48097322D01*
X158301274Y-48097326D01*
X158713292Y-48372627D01*
X159199300Y-48469300D01*
X162037756Y-48469300D01*
X162381195Y-48813339D01*
X163081110Y-49103968D01*
X163838965Y-49104630D01*
X164539386Y-48815222D01*
X165075739Y-48279805D01*
X165366368Y-47579890D01*
X165367030Y-46822035D01*
X165077622Y-46121614D01*
X164960559Y-46004346D01*
X164960559Y-42902518D01*
X164732892Y-42351520D01*
X164311697Y-41929590D01*
X163761098Y-41700961D01*
X163164918Y-41700441D01*
X162613920Y-41928108D01*
X162191990Y-42349303D01*
X161963361Y-42899902D01*
X161962841Y-43496082D01*
X162190508Y-44047080D01*
X162611703Y-44469010D01*
X163162302Y-44697639D01*
X163758482Y-44698159D01*
X164309480Y-44470492D01*
X164731410Y-44049297D01*
X164960039Y-43498698D01*
X164960559Y-42902518D01*
X164960559Y-46004346D01*
X164542205Y-45585261D01*
X163842290Y-45294632D01*
X163084435Y-45293970D01*
X162384014Y-45583378D01*
X162037487Y-45929300D01*
X159725351Y-45929300D01*
X158598026Y-44801974D01*
X158186008Y-44526673D01*
X157820283Y-44453925D01*
X157819090Y-44453430D01*
X157819090Y-39987313D01*
X157819090Y-38915247D01*
X157713620Y-38385012D01*
X157413266Y-37935501D01*
X156963755Y-37635147D01*
X156433520Y-37529677D01*
X155903285Y-37635147D01*
X155453774Y-37935501D01*
X155153420Y-38385012D01*
X155151570Y-38394312D01*
X155125019Y-38304603D01*
X154783464Y-37882622D01*
X154306423Y-37623470D01*
X154234795Y-37609287D01*
X154020520Y-37731941D01*
X154020520Y-39324280D01*
X154040520Y-39324280D01*
X154040520Y-39578280D01*
X154020520Y-39578280D01*
X154020520Y-41170619D01*
X154234795Y-41293273D01*
X154306423Y-41279090D01*
X154783464Y-41019938D01*
X155125019Y-40597957D01*
X155151570Y-40508247D01*
X155153420Y-40517548D01*
X155453774Y-40967059D01*
X155903285Y-41267413D01*
X156433520Y-41372883D01*
X156963755Y-41267413D01*
X157413266Y-40967059D01*
X157713620Y-40517548D01*
X157819090Y-39987313D01*
X157819090Y-44453430D01*
X157726310Y-44415000D01*
X157473691Y-44415000D01*
X155973691Y-44415000D01*
X155740302Y-44511673D01*
X155561673Y-44690301D01*
X155499999Y-44839193D01*
X155438327Y-44690302D01*
X155259699Y-44511673D01*
X155026310Y-44415000D01*
X154773691Y-44415000D01*
X153766520Y-44415000D01*
X153766520Y-41170619D01*
X153766520Y-39578280D01*
X153746520Y-39578280D01*
X153746520Y-39324280D01*
X153766520Y-39324280D01*
X153766520Y-37731941D01*
X153552245Y-37609287D01*
X153480617Y-37623470D01*
X153003576Y-37882622D01*
X152662021Y-38304603D01*
X152635469Y-38394312D01*
X152633620Y-38385012D01*
X152333266Y-37935501D01*
X151883755Y-37635147D01*
X151353520Y-37529677D01*
X150823285Y-37635147D01*
X150373774Y-37935501D01*
X150073420Y-38385012D01*
X149967950Y-38915247D01*
X149967950Y-39987313D01*
X150073420Y-40517548D01*
X150373774Y-40967059D01*
X150823285Y-41267413D01*
X151353520Y-41372883D01*
X151883755Y-41267413D01*
X152333266Y-40967059D01*
X152633620Y-40517548D01*
X152635469Y-40508247D01*
X152662021Y-40597957D01*
X153003576Y-41019938D01*
X153480617Y-41279090D01*
X153552245Y-41293273D01*
X153766520Y-41170619D01*
X153766520Y-44415000D01*
X153273691Y-44415000D01*
X153145661Y-44468031D01*
X153135000Y-44457369D01*
X153135000Y-43948691D01*
X153038327Y-43715302D01*
X152859699Y-43536673D01*
X152626310Y-43440000D01*
X152373691Y-43440000D01*
X151373691Y-43440000D01*
X151140302Y-43536673D01*
X150999999Y-43676974D01*
X150859699Y-43536673D01*
X150626310Y-43440000D01*
X150373691Y-43440000D01*
X149373691Y-43440000D01*
X149256129Y-43488695D01*
X148779577Y-43012143D01*
X148779687Y-42886216D01*
X148615689Y-42489311D01*
X148312286Y-42185378D01*
X147915668Y-42020687D01*
X147486216Y-42020313D01*
X147089311Y-42184311D01*
X146785378Y-42487714D01*
X146620687Y-42884332D01*
X146620313Y-43313784D01*
X146784311Y-43710689D01*
X147087714Y-44014622D01*
X147484332Y-44179313D01*
X147611990Y-44179424D01*
X148097566Y-44665000D01*
X146823691Y-44665000D01*
X146590302Y-44761673D01*
X146411673Y-44940301D01*
X146315000Y-45173690D01*
X146315000Y-45186958D01*
X146165906Y-45087337D01*
X145850000Y-45024500D01*
X143285000Y-45024500D01*
X143285000Y-44573691D01*
X143188327Y-44340302D01*
X143009699Y-44161673D01*
X142776310Y-44065000D01*
X142523691Y-44065000D01*
X141223691Y-44065000D01*
X140990302Y-44161673D01*
X140811673Y-44340301D01*
X140715000Y-44573690D01*
X140715000Y-44826309D01*
X140715000Y-46326309D01*
X140811673Y-46559698D01*
X140990301Y-46738327D01*
X141139193Y-46800000D01*
X140990302Y-46861673D01*
X140817783Y-47034190D01*
X140817782Y-47034191D01*
X140758395Y-47046004D01*
X140659376Y-47112165D01*
X140511185Y-47211184D01*
X140024369Y-47698000D01*
X140009144Y-47698000D01*
X140009144Y-46127698D01*
X139981362Y-45572632D01*
X139822397Y-45188857D01*
X139580213Y-45119392D01*
X139400608Y-45298997D01*
X139400608Y-44939787D01*
X139331143Y-44697603D01*
X138807698Y-44510856D01*
X138252632Y-44538638D01*
X137868857Y-44697603D01*
X137799392Y-44939787D01*
X138600000Y-45740395D01*
X139400608Y-44939787D01*
X139400608Y-45298997D01*
X138779605Y-45920000D01*
X139580213Y-46720608D01*
X139822397Y-46651143D01*
X140009144Y-46127698D01*
X140009144Y-47698000D01*
X139796704Y-47698000D01*
X139785010Y-47669697D01*
X139392370Y-47276371D01*
X139200272Y-47196605D01*
X139331143Y-47142397D01*
X139400608Y-46900213D01*
X138600000Y-46099605D01*
X138420395Y-46279210D01*
X138420395Y-45920000D01*
X137619787Y-45119392D01*
X137377603Y-45188857D01*
X137190856Y-45712302D01*
X137218638Y-46267368D01*
X137377603Y-46651143D01*
X137619787Y-46720608D01*
X138420395Y-45920000D01*
X138420395Y-46279210D01*
X137799392Y-46900213D01*
X137868857Y-47142397D01*
X138009317Y-47192508D01*
X137809697Y-47274990D01*
X137416371Y-47667630D01*
X137203243Y-48180900D01*
X137202758Y-48736661D01*
X137414990Y-49250303D01*
X137807630Y-49643629D01*
X138015512Y-49729949D01*
X137809697Y-49814990D01*
X137416371Y-50207630D01*
X137203243Y-50720900D01*
X137202758Y-51276661D01*
X137414990Y-51790303D01*
X137807630Y-52183629D01*
X138320900Y-52396757D01*
X138876661Y-52397242D01*
X139390303Y-52185010D01*
X139783629Y-51792370D01*
X139996757Y-51279100D01*
X139997242Y-50723339D01*
X139785010Y-50209697D01*
X139392370Y-49816371D01*
X139184487Y-49730050D01*
X139390303Y-49645010D01*
X139783629Y-49252370D01*
X139796239Y-49222000D01*
X140340000Y-49222000D01*
X140340000Y-49221999D01*
X140631604Y-49163996D01*
X140631605Y-49163996D01*
X140740000Y-49091568D01*
X140740000Y-49226309D01*
X140740000Y-50226309D01*
X140836673Y-50459698D01*
X140976974Y-50600000D01*
X140836673Y-50740302D01*
X140740000Y-50973691D01*
X140740000Y-51314250D01*
X140898750Y-51473000D01*
X141873000Y-51473000D01*
X141873000Y-51453000D01*
X142127000Y-51453000D01*
X142127000Y-51473000D01*
X143101250Y-51473000D01*
X143260000Y-51314250D01*
X143260000Y-50973691D01*
X143163327Y-50740302D01*
X143023025Y-50599999D01*
X143163327Y-50459699D01*
X143260000Y-50226310D01*
X143260000Y-49973691D01*
X143260000Y-49086665D01*
X143285000Y-49026310D01*
X143285000Y-48773691D01*
X143285000Y-47273691D01*
X143188327Y-47040302D01*
X143009699Y-46861673D01*
X142860806Y-46799999D01*
X143009698Y-46738327D01*
X143072525Y-46675500D01*
X145508066Y-46675500D01*
X145866283Y-47033717D01*
X146134094Y-47212663D01*
X146134095Y-47212663D01*
X146450000Y-47275500D01*
X146527474Y-47275500D01*
X146590301Y-47338327D01*
X146739193Y-47400000D01*
X146590302Y-47461673D01*
X146411673Y-47640301D01*
X146315000Y-47873690D01*
X146315000Y-48126309D01*
X146315000Y-49626309D01*
X146399445Y-49830177D01*
X146340000Y-49973690D01*
X146340000Y-50226309D01*
X146340000Y-51226309D01*
X146436673Y-51459698D01*
X146576974Y-51600000D01*
X146436673Y-51740301D01*
X146340000Y-51973690D01*
X146340000Y-52226309D01*
X146340000Y-53226309D01*
X146436673Y-53459698D01*
X146615301Y-53638327D01*
X146838000Y-53730572D01*
X146838000Y-57900000D01*
X146887860Y-58150664D01*
X146815668Y-58120687D01*
X146386216Y-58120313D01*
X145989311Y-58284311D01*
X145685378Y-58587714D01*
X145520687Y-58984332D01*
X145520313Y-59413784D01*
X145679040Y-59797934D01*
X145636673Y-59840302D01*
X145540000Y-60073691D01*
X145540000Y-60414250D01*
X145698750Y-60573000D01*
X146673000Y-60573000D01*
X146673000Y-60553000D01*
X146927000Y-60553000D01*
X146927000Y-60573000D01*
X147901250Y-60573000D01*
X148060000Y-60414250D01*
X148060000Y-60337630D01*
X148545924Y-60823554D01*
X148520687Y-60884332D01*
X148520418Y-61192788D01*
X148488815Y-61161185D01*
X148241605Y-60996004D01*
X148027707Y-60953457D01*
X148027706Y-60953456D01*
X147901250Y-60827000D01*
X146927000Y-60827000D01*
X146927000Y-60847000D01*
X146673000Y-60847000D01*
X146673000Y-60827000D01*
X145698750Y-60827000D01*
X145540000Y-60985750D01*
X145540000Y-60989717D01*
X145508395Y-60996004D01*
X145261185Y-61161185D01*
X145184370Y-61238000D01*
X145046458Y-61238000D01*
X145046458Y-59240664D01*
X145020839Y-58630540D01*
X144836643Y-58185852D01*
X144580159Y-58099446D01*
X144400554Y-58279051D01*
X144400554Y-57919841D01*
X144314148Y-57663357D01*
X143740664Y-57453542D01*
X143260000Y-57473724D01*
X143260000Y-52226309D01*
X143260000Y-51885750D01*
X143101250Y-51727000D01*
X142127000Y-51727000D01*
X142127000Y-52576250D01*
X142285750Y-52735000D01*
X142498691Y-52735000D01*
X142751310Y-52735000D01*
X142984699Y-52638327D01*
X143163327Y-52459698D01*
X143260000Y-52226309D01*
X143260000Y-57473724D01*
X143130540Y-57479161D01*
X142685852Y-57663357D01*
X142599446Y-57919841D01*
X143500000Y-58820395D01*
X144400554Y-57919841D01*
X144400554Y-58279051D01*
X143679605Y-59000000D01*
X144580159Y-59900554D01*
X144836643Y-59814148D01*
X145046458Y-59240664D01*
X145046458Y-61238000D01*
X145035000Y-61238000D01*
X145035000Y-60973691D01*
X144938327Y-60740302D01*
X144759699Y-60561673D01*
X144526310Y-60465000D01*
X144273691Y-60465000D01*
X144004267Y-60465000D01*
X144314148Y-60336643D01*
X144400554Y-60080159D01*
X143500000Y-59179605D01*
X142599446Y-60080159D01*
X142685852Y-60336643D01*
X143036688Y-60465000D01*
X142473691Y-60465000D01*
X142240302Y-60561673D01*
X142061673Y-60740301D01*
X142017611Y-60846674D01*
X141870643Y-60699449D01*
X141389828Y-60499797D01*
X141868371Y-60302068D01*
X142300551Y-59870643D01*
X142304294Y-59861627D01*
X142419841Y-59900554D01*
X143320395Y-59000000D01*
X142419841Y-58099446D01*
X142304785Y-58138206D01*
X142302068Y-58131629D01*
X141873000Y-57701810D01*
X141873000Y-52576250D01*
X141873000Y-51727000D01*
X140898750Y-51727000D01*
X140740000Y-51885750D01*
X140740000Y-52226309D01*
X140836673Y-52459698D01*
X141015301Y-52638327D01*
X141248690Y-52735000D01*
X141501309Y-52735000D01*
X141714250Y-52735000D01*
X141873000Y-52576250D01*
X141873000Y-57701810D01*
X141870643Y-57699449D01*
X141306670Y-57465267D01*
X140696009Y-57464735D01*
X140131629Y-57697932D01*
X139749712Y-58079181D01*
X139370643Y-57699449D01*
X138806670Y-57465267D01*
X138196009Y-57464735D01*
X137631629Y-57697932D01*
X137199449Y-58129357D01*
X136965267Y-58693330D01*
X136964735Y-59303991D01*
X137197932Y-59868371D01*
X137629357Y-60300551D01*
X138110171Y-60500202D01*
X137631629Y-60697932D01*
X137199449Y-61129357D01*
X137154336Y-61238000D01*
X137079641Y-61238000D01*
X137079687Y-61186216D01*
X136915689Y-60789311D01*
X136612286Y-60485378D01*
X136215668Y-60320687D01*
X135786216Y-60320313D01*
X135389311Y-60484311D01*
X135085378Y-60787714D01*
X135041183Y-60894145D01*
X134973519Y-60826481D01*
X134840632Y-60737689D01*
X134842324Y-60233689D01*
X134991604Y-60203996D01*
X134991605Y-60203996D01*
X135238815Y-60038815D01*
X136138815Y-59138816D01*
X136138815Y-59138815D01*
X136303996Y-58891605D01*
X136361999Y-58600000D01*
X136362000Y-58600000D01*
X136362000Y-57768130D01*
X136798130Y-57332000D01*
X137624809Y-57332000D01*
X137858198Y-57235327D01*
X138036827Y-57056699D01*
X138133500Y-56823310D01*
X138133500Y-56570691D01*
X138133500Y-56060313D01*
X138187714Y-56114622D01*
X138584332Y-56279313D01*
X139013784Y-56279687D01*
X139410689Y-56115689D01*
X139714622Y-55812286D01*
X139879313Y-55415668D01*
X139879687Y-54986216D01*
X139715689Y-54589311D01*
X139412286Y-54285378D01*
X139015668Y-54120687D01*
X138798127Y-54120497D01*
X138486315Y-53808685D01*
X138239105Y-53643504D01*
X138063896Y-53608652D01*
X138036827Y-53543302D01*
X137858199Y-53364673D01*
X137624810Y-53268000D01*
X137372191Y-53268000D01*
X135975191Y-53268000D01*
X135741802Y-53364673D01*
X135563173Y-53543301D01*
X135466500Y-53776690D01*
X135466500Y-54029309D01*
X135466500Y-54918309D01*
X135563173Y-55151698D01*
X135711474Y-55300000D01*
X135563173Y-55448301D01*
X135466500Y-55681690D01*
X135466500Y-55934309D01*
X135466500Y-56508369D01*
X135061185Y-56913685D01*
X134896004Y-57160895D01*
X134851891Y-57382663D01*
X134860972Y-54676397D01*
X134863983Y-54671893D01*
X134863983Y-54671891D01*
X134863984Y-54671891D01*
X134960292Y-54439383D01*
X134960293Y-54439382D01*
X135032607Y-54075833D01*
X135032606Y-54012304D01*
X135045000Y-53950000D01*
X135045000Y-53201091D01*
X135085000Y-53000000D01*
X135085000Y-35685000D01*
X193715000Y-35685000D01*
X193715000Y-58542498D01*
X193152758Y-57979274D01*
X192276487Y-57615415D01*
X191534234Y-57614767D01*
X191534234Y-44476306D01*
X191285922Y-43875345D01*
X190826533Y-43415154D01*
X190226007Y-43165794D01*
X189575766Y-43165226D01*
X188974805Y-43413538D01*
X188514614Y-43872927D01*
X188265254Y-44473453D01*
X188264686Y-45123694D01*
X188512998Y-45724655D01*
X188972387Y-46184846D01*
X189572913Y-46434206D01*
X190223154Y-46434774D01*
X190824115Y-46186462D01*
X191284306Y-45727073D01*
X191533666Y-45126547D01*
X191534234Y-44476306D01*
X191534234Y-57614767D01*
X191327675Y-57614587D01*
X190450771Y-57976916D01*
X189779274Y-58647242D01*
X189415415Y-59523513D01*
X189414587Y-60472325D01*
X189776916Y-61349229D01*
X190447242Y-62020726D01*
X191323513Y-62384585D01*
X192272325Y-62385413D01*
X193149229Y-62023084D01*
X193715000Y-61458299D01*
X193715000Y-66142498D01*
X193152758Y-65579274D01*
X192276487Y-65215415D01*
X191327675Y-65214587D01*
X190835000Y-65418155D01*
X190835000Y-64351310D01*
X190835000Y-64098691D01*
X190835000Y-63885750D01*
X190835000Y-63314250D01*
X190835000Y-63101309D01*
X190835000Y-62848690D01*
X190738327Y-62615301D01*
X190559698Y-62436673D01*
X190326309Y-62340000D01*
X189985750Y-62340000D01*
X189827000Y-62498750D01*
X189827000Y-63473000D01*
X190676250Y-63473000D01*
X190835000Y-63314250D01*
X190835000Y-63885750D01*
X190676250Y-63727000D01*
X189827000Y-63727000D01*
X189827000Y-64701250D01*
X189985750Y-64860000D01*
X190326309Y-64860000D01*
X190559698Y-64763327D01*
X190738327Y-64584699D01*
X190835000Y-64351310D01*
X190835000Y-65418155D01*
X190450771Y-65576916D01*
X189779274Y-66247242D01*
X189415415Y-67123513D01*
X189414587Y-68072325D01*
X189776916Y-68949229D01*
X190447242Y-69620726D01*
X191323513Y-69984585D01*
X192272325Y-69985413D01*
X193149229Y-69623084D01*
X193715000Y-69058299D01*
X193715000Y-78512971D01*
X193514965Y-78030042D01*
X193248163Y-77931443D01*
X193068557Y-78111048D01*
X193068557Y-77751837D01*
X192969958Y-77485035D01*
X192360418Y-77258599D01*
X191710623Y-77282659D01*
X191222042Y-77485035D01*
X191123443Y-77751837D01*
X192096000Y-78724395D01*
X193068557Y-77751837D01*
X193068557Y-78111048D01*
X192275605Y-78904000D01*
X193248163Y-79876557D01*
X193514965Y-79777958D01*
X193715000Y-79239486D01*
X193715000Y-94015000D01*
M02*
