%FSLAX45Y45*%
G04 Gerber Fmt 4.5, Leading zero omitted, Abs format (unit mm)*
G04 Created by KiCad (PCBNEW (2014-10-27 BZR 5228)-product) date 11/01/2015 08:05:56*
%MOMM*%
G01*
G04 APERTURE LIST*
%ADD10C,0.127000*%
%ADD11C,0.100000*%
%ADD12C,0.200000*%
%ADD13C,0.300000*%
G04 APERTURE END LIST*
D10*
D11*
X12995910Y-9499600D02*
X12995910Y-9498330D01*
X12995910Y-11361420D02*
X12995910Y-9499600D01*
X19433540Y-11361420D02*
X12995910Y-11361420D01*
X19433540Y-3503676D02*
X19433540Y-11361420D01*
X12996672Y-3503676D02*
X19433540Y-3503676D01*
X12996672Y-6178804D02*
X12996672Y-3503676D01*
X12997434Y-9500616D02*
X12994386Y-9500616D01*
X12997434Y-8568690D02*
X12997434Y-9500616D01*
D12*
X12948250Y-6395070D02*
X13011750Y-6458570D01*
X13011750Y-6395070D02*
X12948250Y-6458570D01*
X12948250Y-6995070D02*
X13011750Y-7058570D01*
X13011750Y-6995070D02*
X12948250Y-7058570D01*
X12965570Y-6685570D02*
X13029070Y-6749070D01*
X13029070Y-6685570D02*
X12965570Y-6749070D01*
X12968250Y-7288250D02*
X13031750Y-7351750D01*
X13031750Y-7288250D02*
X12968250Y-7351750D01*
X13108250Y-6348250D02*
X13171750Y-6411750D01*
X13171750Y-6348250D02*
X13108250Y-6411750D01*
X13167106Y-7299706D02*
X13230606Y-7363206D01*
X13230606Y-7299706D02*
X13167106Y-7363206D01*
X13362686Y-7305294D02*
X13426186Y-7368794D01*
X13426186Y-7305294D02*
X13362686Y-7368794D01*
X13368274Y-7786370D02*
X13431774Y-7849870D01*
X13431774Y-7786370D02*
X13368274Y-7849870D01*
X13725906Y-7098538D02*
X13789406Y-7162038D01*
X13789406Y-7098538D02*
X13725906Y-7162038D01*
X13748250Y-5368250D02*
X13811750Y-5431750D01*
X13811750Y-5368250D02*
X13748250Y-5431750D01*
X13828250Y-6848250D02*
X13891750Y-6911750D01*
X13891750Y-6848250D02*
X13828250Y-6911750D01*
X13928250Y-6968250D02*
X13991750Y-7031750D01*
X13991750Y-6968250D02*
X13928250Y-7031750D01*
X13962380Y-6727190D02*
X14025880Y-6790690D01*
X14025880Y-6727190D02*
X13962380Y-6790690D01*
X14068250Y-6428250D02*
X14131750Y-6491750D01*
X14131750Y-6428250D02*
X14068250Y-6491750D01*
X14368250Y-6528250D02*
X14431750Y-6591750D01*
X14431750Y-6528250D02*
X14368250Y-6591750D01*
X14528250Y-4248250D02*
X14591750Y-4311750D01*
X14591750Y-4248250D02*
X14528250Y-4311750D01*
X14860270Y-8702294D02*
X14923770Y-8765794D01*
X14923770Y-8702294D02*
X14860270Y-8765794D01*
X14908250Y-6728250D02*
X14971750Y-6791750D01*
X14971750Y-6728250D02*
X14908250Y-6791750D01*
X15128250Y-6728250D02*
X15191750Y-6791750D01*
X15191750Y-6728250D02*
X15128250Y-6791750D01*
X15148250Y-7008250D02*
X15211750Y-7071750D01*
X15211750Y-7008250D02*
X15148250Y-7071750D01*
X15168250Y-5448250D02*
X15231750Y-5511750D01*
X15231750Y-5448250D02*
X15168250Y-5511750D01*
X15188250Y-8068250D02*
X15251750Y-8131750D01*
X15251750Y-8068250D02*
X15188250Y-8131750D01*
X15288250Y-5648250D02*
X15351750Y-5711750D01*
X15351750Y-5648250D02*
X15288250Y-5711750D01*
X15388250Y-6048250D02*
X15451750Y-6111750D01*
X15451750Y-6048250D02*
X15388250Y-6111750D01*
X15608250Y-7848250D02*
X15671750Y-7911750D01*
X15671750Y-7848250D02*
X15608250Y-7911750D01*
X15748250Y-5648250D02*
X15811750Y-5711750D01*
X15811750Y-5648250D02*
X15748250Y-5711750D01*
X15888250Y-6528250D02*
X15951750Y-6591750D01*
X15951750Y-6528250D02*
X15888250Y-6591750D01*
X15968250Y-6988250D02*
X16031750Y-7051750D01*
X16031750Y-6988250D02*
X15968250Y-7051750D01*
X16108250Y-6788250D02*
X16171750Y-6851750D01*
X16171750Y-6788250D02*
X16108250Y-6851750D01*
X16288250Y-8148250D02*
X16351750Y-8211750D01*
X16351750Y-8148250D02*
X16288250Y-8211750D01*
X16788250Y-7908250D02*
X16851750Y-7971750D01*
X16851750Y-7908250D02*
X16788250Y-7971750D01*
X17028250Y-9088250D02*
X17091750Y-9151750D01*
X17091750Y-9088250D02*
X17028250Y-9151750D01*
X17648250Y-6468250D02*
X17711750Y-6531750D01*
X17711750Y-6468250D02*
X17648250Y-6531750D01*
X18288250Y-5168250D02*
X18351750Y-5231750D01*
X18351750Y-5168250D02*
X18288250Y-5231750D01*
X18708250Y-6128250D02*
X18771750Y-6191750D01*
X18771750Y-6128250D02*
X18708250Y-6191750D01*
X13800640Y-4532000D02*
G75*
G03X13800640Y-4532000I-40640J0D01*
G01*
X13800640Y-4786000D02*
G75*
G03X13800640Y-4786000I-40640J0D01*
G01*
X13800640Y-5040000D02*
G75*
G03X13800640Y-5040000I-40640J0D01*
G01*
X15083536Y-7377684D02*
G75*
G03X15083536Y-7377684I-40640J0D01*
G01*
X15083536Y-7631684D02*
G75*
G03X15083536Y-7631684I-40640J0D01*
G01*
X16258540Y-6591300D02*
G75*
G03X16258540Y-6591300I-40640J0D01*
G01*
X16258540Y-7353300D02*
G75*
G03X16258540Y-7353300I-40640J0D01*
G01*
X16296640Y-7683500D02*
G75*
G03X16296640Y-7683500I-40640J0D01*
G01*
X16296640Y-8445500D02*
G75*
G03X16296640Y-8445500I-40640J0D01*
G01*
X16512540Y-6591300D02*
G75*
G03X16512540Y-6591300I-40640J0D01*
G01*
X16512540Y-7353300D02*
G75*
G03X16512540Y-7353300I-40640J0D01*
G01*
X16550640Y-7683500D02*
G75*
G03X16550640Y-7683500I-40640J0D01*
G01*
X16550640Y-8445500D02*
G75*
G03X16550640Y-8445500I-40640J0D01*
G01*
X16766540Y-6591300D02*
G75*
G03X16766540Y-6591300I-40640J0D01*
G01*
X16766540Y-7353300D02*
G75*
G03X16766540Y-7353300I-40640J0D01*
G01*
X16804640Y-7683500D02*
G75*
G03X16804640Y-7683500I-40640J0D01*
G01*
X16804640Y-8445500D02*
G75*
G03X16804640Y-8445500I-40640J0D01*
G01*
X17020540Y-6591300D02*
G75*
G03X17020540Y-6591300I-40640J0D01*
G01*
X17020540Y-7353300D02*
G75*
G03X17020540Y-7353300I-40640J0D01*
G01*
X17058640Y-7683500D02*
G75*
G03X17058640Y-7683500I-40640J0D01*
G01*
X17058640Y-8445500D02*
G75*
G03X17058640Y-8445500I-40640J0D01*
G01*
X17274540Y-6591300D02*
G75*
G03X17274540Y-6591300I-40640J0D01*
G01*
X17274540Y-7353300D02*
G75*
G03X17274540Y-7353300I-40640J0D01*
G01*
X17312640Y-7683500D02*
G75*
G03X17312640Y-7683500I-40640J0D01*
G01*
X17312640Y-8445500D02*
G75*
G03X17312640Y-8445500I-40640J0D01*
G01*
X13440000Y-5935000D02*
X13440000Y-6025000D01*
X13395000Y-5980000D02*
X13485000Y-5980000D01*
X13440000Y-6235000D02*
X13440000Y-6325000D01*
X13395000Y-6280000D02*
X13485000Y-6280000D01*
X13690000Y-5935000D02*
X13690000Y-6025000D01*
X13645000Y-5980000D02*
X13735000Y-5980000D01*
X13690000Y-6235000D02*
X13690000Y-6325000D01*
X13645000Y-6280000D02*
X13735000Y-6280000D01*
X13940000Y-5935000D02*
X13940000Y-6025000D01*
X13895000Y-5980000D02*
X13985000Y-5980000D01*
X13940000Y-6235000D02*
X13940000Y-6325000D01*
X13895000Y-6280000D02*
X13985000Y-6280000D01*
X14592300Y-5829130D02*
X14592300Y-5919130D01*
X14547300Y-5874130D02*
X14637300Y-5874130D01*
X14592300Y-6079130D02*
X14592300Y-6169130D01*
X14547300Y-6124130D02*
X14637300Y-6124130D01*
X14592300Y-6329130D02*
X14592300Y-6419130D01*
X14547300Y-6374130D02*
X14637300Y-6374130D01*
X14892300Y-5829130D02*
X14892300Y-5919130D01*
X14847300Y-5874130D02*
X14937300Y-5874130D01*
X14892300Y-6079130D02*
X14892300Y-6169130D01*
X14847300Y-6124130D02*
X14937300Y-6124130D01*
X14892300Y-6329130D02*
X14892300Y-6419130D01*
X14847300Y-6374130D02*
X14937300Y-6374130D01*
X18424447Y-7870967D02*
X18424447Y-7805913D01*
X18359393Y-7805913D01*
X18359393Y-7870967D01*
X18424447Y-7870967D01*
X13919200Y-9956038D02*
X13969238Y-9906000D01*
X13919200Y-9855962D01*
X13869162Y-9906000D01*
X13919200Y-9956038D01*
X13919200Y-10514838D02*
X13969238Y-10464800D01*
X13919200Y-10414762D01*
X13869162Y-10464800D01*
X13919200Y-10514838D01*
X14766036Y-5206238D02*
X14816074Y-5156200D01*
X14766036Y-5106162D01*
X14715998Y-5156200D01*
X14766036Y-5206238D01*
X14820900Y-10400538D02*
X14870938Y-10350500D01*
X14820900Y-10300462D01*
X14770862Y-10350500D01*
X14820900Y-10400538D01*
X15135352Y-3995166D02*
X15185390Y-3945128D01*
X15135352Y-3895090D01*
X15085314Y-3945128D01*
X15135352Y-3995166D01*
X15265400Y-8914638D02*
X15315438Y-8864600D01*
X15265400Y-8814562D01*
X15215362Y-8864600D01*
X15265400Y-8914638D01*
X15265400Y-9473438D02*
X15315438Y-9423400D01*
X15265400Y-9373362D01*
X15215362Y-9423400D01*
X15265400Y-9473438D01*
X15379700Y-10400538D02*
X15429738Y-10350500D01*
X15379700Y-10300462D01*
X15329662Y-10350500D01*
X15379700Y-10400538D01*
X15389352Y-3995166D02*
X15439390Y-3945128D01*
X15389352Y-3895090D01*
X15339314Y-3945128D01*
X15389352Y-3995166D01*
X15643352Y-3995166D02*
X15693390Y-3945128D01*
X15643352Y-3895090D01*
X15593314Y-3945128D01*
X15643352Y-3995166D01*
X15773400Y-10425938D02*
X15823438Y-10375900D01*
X15773400Y-10325862D01*
X15723362Y-10375900D01*
X15773400Y-10425938D01*
X15782036Y-5206238D02*
X15832074Y-5156200D01*
X15782036Y-5106162D01*
X15731998Y-5156200D01*
X15782036Y-5206238D01*
X15925800Y-5599938D02*
X15975838Y-5549900D01*
X15925800Y-5499862D01*
X15875762Y-5549900D01*
X15925800Y-5599938D01*
X15925800Y-6158738D02*
X15975838Y-6108700D01*
X15925800Y-6058662D01*
X15875762Y-6108700D01*
X15925800Y-6158738D01*
X16332200Y-10425938D02*
X16382238Y-10375900D01*
X16332200Y-10325862D01*
X16282162Y-10375900D01*
X16332200Y-10425938D01*
X16789400Y-8914638D02*
X16839438Y-8864600D01*
X16789400Y-8814562D01*
X16739362Y-8864600D01*
X16789400Y-8914638D01*
X16789400Y-9473438D02*
X16839438Y-9423400D01*
X16789400Y-9373362D01*
X16739362Y-9423400D01*
X16789400Y-9473438D01*
X16814800Y-10387838D02*
X16864838Y-10337800D01*
X16814800Y-10287762D01*
X16764762Y-10337800D01*
X16814800Y-10387838D01*
X17373600Y-10387838D02*
X17423638Y-10337800D01*
X17373600Y-10287762D01*
X17323562Y-10337800D01*
X17373600Y-10387838D01*
X17449800Y-5574538D02*
X17499838Y-5524500D01*
X17449800Y-5474462D01*
X17399762Y-5524500D01*
X17449800Y-5574538D01*
X17449800Y-6133338D02*
X17499838Y-6083300D01*
X17449800Y-6033262D01*
X17399762Y-6083300D01*
X17449800Y-6133338D01*
X17792700Y-10438638D02*
X17842738Y-10388600D01*
X17792700Y-10338562D01*
X17742662Y-10388600D01*
X17792700Y-10438638D01*
X18275300Y-8889238D02*
X18325338Y-8839200D01*
X18275300Y-8789162D01*
X18225262Y-8839200D01*
X18275300Y-8889238D01*
X18275300Y-9448038D02*
X18325338Y-9398000D01*
X18275300Y-9347962D01*
X18225262Y-9398000D01*
X18275300Y-9448038D01*
X18351500Y-10438638D02*
X18401538Y-10388600D01*
X18351500Y-10338562D01*
X18301462Y-10388600D01*
X18351500Y-10438638D01*
X13157200Y-7031990D02*
X13258800Y-7133590D01*
X13258800Y-7031990D02*
X13157200Y-7133590D01*
X13258800Y-7082790D02*
G75*
G03X13258800Y-7082790I-50800J0D01*
G01*
X13411200Y-7031990D02*
X13512800Y-7133590D01*
X13512800Y-7031990D02*
X13411200Y-7133590D01*
X13512800Y-7082790D02*
G75*
G03X13512800Y-7082790I-50800J0D01*
G01*
X14241780Y-6802120D02*
X14343380Y-6903720D01*
X14343380Y-6802120D02*
X14241780Y-6903720D01*
X14343380Y-6852920D02*
G75*
G03X14343380Y-6852920I-50800J0D01*
G01*
X14241780Y-7056120D02*
X14343380Y-7157720D01*
X14343380Y-7056120D02*
X14241780Y-7157720D01*
X14343380Y-7106920D02*
G75*
G03X14343380Y-7106920I-50800J0D01*
G01*
X14241780Y-7310120D02*
X14343380Y-7411720D01*
X14343380Y-7310120D02*
X14241780Y-7411720D01*
X14343380Y-7360920D02*
G75*
G03X14343380Y-7360920I-50800J0D01*
G01*
X14241780Y-7564120D02*
X14343380Y-7665720D01*
X14343380Y-7564120D02*
X14241780Y-7665720D01*
X14343380Y-7614920D02*
G75*
G03X14343380Y-7614920I-50800J0D01*
G01*
X14241780Y-7818120D02*
X14343380Y-7919720D01*
X14343380Y-7818120D02*
X14241780Y-7919720D01*
X14343380Y-7868920D02*
G75*
G03X14343380Y-7868920I-50800J0D01*
G01*
X14241780Y-8072120D02*
X14343380Y-8173720D01*
X14343380Y-8072120D02*
X14241780Y-8173720D01*
X14343380Y-8122920D02*
G75*
G03X14343380Y-8122920I-50800J0D01*
G01*
X14241780Y-8326120D02*
X14343380Y-8427720D01*
X14343380Y-8326120D02*
X14241780Y-8427720D01*
X14343380Y-8376920D02*
G75*
G03X14343380Y-8376920I-50800J0D01*
G01*
X14241780Y-8580120D02*
X14343380Y-8681720D01*
X14343380Y-8580120D02*
X14241780Y-8681720D01*
X14343380Y-8630920D02*
G75*
G03X14343380Y-8630920I-50800J0D01*
G01*
X14241780Y-8834120D02*
X14343380Y-8935720D01*
X14343380Y-8834120D02*
X14241780Y-8935720D01*
X14343380Y-8884920D02*
G75*
G03X14343380Y-8884920I-50800J0D01*
G01*
X14241780Y-9088120D02*
X14343380Y-9189720D01*
X14343380Y-9088120D02*
X14241780Y-9189720D01*
X14343380Y-9138920D02*
G75*
G03X14343380Y-9138920I-50800J0D01*
G01*
X14241780Y-9342120D02*
X14343380Y-9443720D01*
X14343380Y-9342120D02*
X14241780Y-9443720D01*
X14343380Y-9392920D02*
G75*
G03X14343380Y-9392920I-50800J0D01*
G01*
X14241780Y-9596120D02*
X14343380Y-9697720D01*
X14343380Y-9596120D02*
X14241780Y-9697720D01*
X14343380Y-9646920D02*
G75*
G03X14343380Y-9646920I-50800J0D01*
G01*
X16295370Y-4269130D02*
X16396970Y-4370730D01*
X16396970Y-4269130D02*
X16295370Y-4370730D01*
X16396970Y-4319930D02*
G75*
G03X16396970Y-4319930I-50800J0D01*
G01*
X16295370Y-5069130D02*
X16396970Y-5170730D01*
X16396970Y-5069130D02*
X16295370Y-5170730D01*
X16396970Y-5119930D02*
G75*
G03X16396970Y-5119930I-50800J0D01*
G01*
X17813020Y-7767320D02*
X17914620Y-7868920D01*
X17914620Y-7767320D02*
X17813020Y-7868920D01*
X17914620Y-7818120D02*
G75*
G03X17914620Y-7818120I-50800J0D01*
G01*
X17813020Y-8021320D02*
X17914620Y-8122920D01*
X17914620Y-8021320D02*
X17813020Y-8122920D01*
X17914620Y-8072120D02*
G75*
G03X17914620Y-8072120I-50800J0D01*
G01*
X18633440Y-6587490D02*
X18735040Y-6689090D01*
X18735040Y-6587490D02*
X18633440Y-6689090D01*
X18735040Y-6638290D02*
G75*
G03X18735040Y-6638290I-50800J0D01*
G01*
X18633440Y-6841490D02*
X18735040Y-6943090D01*
X18735040Y-6841490D02*
X18633440Y-6943090D01*
X18735040Y-6892290D02*
G75*
G03X18735040Y-6892290I-50800J0D01*
G01*
X18887440Y-6587490D02*
X18989040Y-6689090D01*
X18989040Y-6587490D02*
X18887440Y-6689090D01*
X18989040Y-6638290D02*
G75*
G03X18989040Y-6638290I-50800J0D01*
G01*
X18887440Y-6841490D02*
X18989040Y-6943090D01*
X18989040Y-6841490D02*
X18887440Y-6943090D01*
X18989040Y-6892290D02*
G75*
G03X18989040Y-6892290I-50800J0D01*
G01*
X16271170Y-3844930D02*
X16421170Y-3994930D01*
X16421170Y-3844930D02*
X16271170Y-3994930D01*
X16346170Y-3844930D02*
X16346170Y-3994930D01*
X16271170Y-3919930D02*
X16421170Y-3919930D01*
X16271170Y-4644930D02*
X16421170Y-4794930D01*
X16421170Y-4644930D02*
X16271170Y-4794930D01*
X16346170Y-4644930D02*
X16346170Y-4794930D01*
X16271170Y-4719930D02*
X16421170Y-4719930D01*
X19081920Y-7368440D02*
X19261920Y-7548440D01*
X19261920Y-7368440D02*
X19081920Y-7548440D01*
X19235560Y-7522080D02*
X19235560Y-7394800D01*
X19108280Y-7394800D01*
X19108280Y-7522080D01*
X19235560Y-7522080D01*
X19081920Y-8128440D02*
X19261920Y-8308440D01*
X19261920Y-8128440D02*
X19081920Y-8308440D01*
X19235560Y-8282080D02*
X19235560Y-8154800D01*
X19108280Y-8154800D01*
X19108280Y-8282080D01*
X19235560Y-8282080D01*
X15275179Y-4619879D02*
X15545181Y-4889881D01*
X15545181Y-4619879D02*
X15275179Y-4889881D01*
X15410180Y-4889881D02*
X15545181Y-4754880D01*
X15410180Y-4619879D01*
X15275179Y-4754880D01*
X15410180Y-4889881D01*
X13460000Y-3765000D02*
X13460000Y-4155000D01*
X13265000Y-3960000D02*
X13655000Y-3960000D01*
X13655000Y-3960000D02*
G75*
G03X13655000Y-3960000I-195000J0D01*
G01*
X13460000Y-10705000D02*
X13460000Y-11095000D01*
X13265000Y-10900000D02*
X13655000Y-10900000D01*
X13655000Y-10900000D02*
G75*
G03X13655000Y-10900000I-195000J0D01*
G01*
X18960000Y-3765000D02*
X18960000Y-4155000D01*
X18765000Y-3960000D02*
X19155000Y-3960000D01*
X19155000Y-3960000D02*
G75*
G03X19155000Y-3960000I-195000J0D01*
G01*
X18960000Y-10705000D02*
X18960000Y-11095000D01*
X18765000Y-10900000D02*
X19155000Y-10900000D01*
X19155000Y-10900000D02*
G75*
G03X19155000Y-10900000I-195000J0D01*
G01*
D13*
X13262338Y-11832134D02*
X13262338Y-11532134D01*
X13333767Y-11532134D01*
X13376624Y-11546420D01*
X13405196Y-11574991D01*
X13419481Y-11603563D01*
X13433767Y-11660706D01*
X13433767Y-11703563D01*
X13419481Y-11760706D01*
X13405196Y-11789277D01*
X13376624Y-11817849D01*
X13333767Y-11832134D01*
X13262338Y-11832134D01*
X13562338Y-11832134D02*
X13562338Y-11632134D01*
X13562338Y-11689277D02*
X13576624Y-11660706D01*
X13590910Y-11646420D01*
X13619481Y-11632134D01*
X13648053Y-11632134D01*
X13748053Y-11832134D02*
X13748053Y-11632134D01*
X13748053Y-11532134D02*
X13733767Y-11546420D01*
X13748053Y-11560706D01*
X13762338Y-11546420D01*
X13748053Y-11532134D01*
X13748053Y-11560706D01*
X13933767Y-11832134D02*
X13905196Y-11817849D01*
X13890910Y-11789277D01*
X13890910Y-11532134D01*
X14090910Y-11832134D02*
X14062338Y-11817849D01*
X14048053Y-11789277D01*
X14048053Y-11532134D01*
X14433767Y-11832134D02*
X14433767Y-11532134D01*
X14533767Y-11746420D01*
X14633767Y-11532134D01*
X14633767Y-11832134D01*
X14905196Y-11832134D02*
X14905196Y-11674991D01*
X14890910Y-11646420D01*
X14862338Y-11632134D01*
X14805196Y-11632134D01*
X14776624Y-11646420D01*
X14905196Y-11817849D02*
X14876624Y-11832134D01*
X14805196Y-11832134D01*
X14776624Y-11817849D01*
X14762338Y-11789277D01*
X14762338Y-11760706D01*
X14776624Y-11732134D01*
X14805196Y-11717849D01*
X14876624Y-11717849D01*
X14905196Y-11703563D01*
X15048053Y-11632134D02*
X15048053Y-11932134D01*
X15048053Y-11646420D02*
X15076624Y-11632134D01*
X15133767Y-11632134D01*
X15162338Y-11646420D01*
X15176624Y-11660706D01*
X15190910Y-11689277D01*
X15190910Y-11774991D01*
X15176624Y-11803563D01*
X15162338Y-11817849D01*
X15133767Y-11832134D01*
X15076624Y-11832134D01*
X15048053Y-11817849D01*
X15319481Y-11803563D02*
X15333767Y-11817849D01*
X15319481Y-11832134D01*
X15305196Y-11817849D01*
X15319481Y-11803563D01*
X15319481Y-11832134D01*
X15319481Y-11646420D02*
X15333767Y-11660706D01*
X15319481Y-11674991D01*
X15305196Y-11660706D01*
X15319481Y-11646420D01*
X15319481Y-11674991D01*
X12927410Y-12294670D02*
X12990910Y-12358170D01*
X12990910Y-12294670D02*
X12927410Y-12358170D01*
X13319481Y-12162134D02*
X13348053Y-12162134D01*
X13376624Y-12176420D01*
X13390910Y-12190706D01*
X13405196Y-12219277D01*
X13419481Y-12276420D01*
X13419481Y-12347849D01*
X13405196Y-12404991D01*
X13390910Y-12433563D01*
X13376624Y-12447849D01*
X13348053Y-12462134D01*
X13319481Y-12462134D01*
X13290910Y-12447849D01*
X13276624Y-12433563D01*
X13262338Y-12404991D01*
X13248053Y-12347849D01*
X13248053Y-12276420D01*
X13262338Y-12219277D01*
X13276624Y-12190706D01*
X13290910Y-12176420D01*
X13319481Y-12162134D01*
X13548053Y-12433563D02*
X13562338Y-12447849D01*
X13548053Y-12462134D01*
X13533767Y-12447849D01*
X13548053Y-12433563D01*
X13548053Y-12462134D01*
X13819481Y-12162134D02*
X13762338Y-12162134D01*
X13733767Y-12176420D01*
X13719481Y-12190706D01*
X13690910Y-12233563D01*
X13676624Y-12290706D01*
X13676624Y-12404991D01*
X13690910Y-12433563D01*
X13705196Y-12447849D01*
X13733767Y-12462134D01*
X13790910Y-12462134D01*
X13819481Y-12447849D01*
X13833767Y-12433563D01*
X13848053Y-12404991D01*
X13848053Y-12333563D01*
X13833767Y-12304991D01*
X13819481Y-12290706D01*
X13790910Y-12276420D01*
X13733767Y-12276420D01*
X13705196Y-12290706D01*
X13690910Y-12304991D01*
X13676624Y-12333563D01*
X14105196Y-12262134D02*
X14105196Y-12462134D01*
X14033767Y-12147849D02*
X13962338Y-12362134D01*
X14148053Y-12362134D01*
X14262338Y-12462134D02*
X14262338Y-12262134D01*
X14262338Y-12290706D02*
X14276624Y-12276420D01*
X14305196Y-12262134D01*
X14348053Y-12262134D01*
X14376624Y-12276420D01*
X14390910Y-12304991D01*
X14390910Y-12462134D01*
X14390910Y-12304991D02*
X14405196Y-12276420D01*
X14433767Y-12262134D01*
X14476624Y-12262134D01*
X14505196Y-12276420D01*
X14519481Y-12304991D01*
X14519481Y-12462134D01*
X14662338Y-12462134D02*
X14662338Y-12262134D01*
X14662338Y-12290706D02*
X14676624Y-12276420D01*
X14705196Y-12262134D01*
X14748053Y-12262134D01*
X14776624Y-12276420D01*
X14790910Y-12304991D01*
X14790910Y-12462134D01*
X14790910Y-12304991D02*
X14805196Y-12276420D01*
X14833767Y-12262134D01*
X14876624Y-12262134D01*
X14905196Y-12276420D01*
X14919481Y-12304991D01*
X14919481Y-12462134D01*
X15505196Y-12147849D02*
X15248053Y-12533563D01*
X15890910Y-12162134D02*
X15919481Y-12162134D01*
X15948053Y-12176420D01*
X15962338Y-12190706D01*
X15976624Y-12219277D01*
X15990910Y-12276420D01*
X15990910Y-12347849D01*
X15976624Y-12404991D01*
X15962338Y-12433563D01*
X15948053Y-12447849D01*
X15919481Y-12462134D01*
X15890910Y-12462134D01*
X15862338Y-12447849D01*
X15848053Y-12433563D01*
X15833767Y-12404991D01*
X15819481Y-12347849D01*
X15819481Y-12276420D01*
X15833767Y-12219277D01*
X15848053Y-12190706D01*
X15862338Y-12176420D01*
X15890910Y-12162134D01*
X16119481Y-12433563D02*
X16133767Y-12447849D01*
X16119481Y-12462134D01*
X16105196Y-12447849D01*
X16119481Y-12433563D01*
X16119481Y-12462134D01*
X16319481Y-12162134D02*
X16348053Y-12162134D01*
X16376624Y-12176420D01*
X16390910Y-12190706D01*
X16405195Y-12219277D01*
X16419481Y-12276420D01*
X16419481Y-12347849D01*
X16405195Y-12404991D01*
X16390910Y-12433563D01*
X16376624Y-12447849D01*
X16348053Y-12462134D01*
X16319481Y-12462134D01*
X16290910Y-12447849D01*
X16276624Y-12433563D01*
X16262338Y-12404991D01*
X16248053Y-12347849D01*
X16248053Y-12276420D01*
X16262338Y-12219277D01*
X16276624Y-12190706D01*
X16290910Y-12176420D01*
X16319481Y-12162134D01*
X16533767Y-12190706D02*
X16548053Y-12176420D01*
X16576624Y-12162134D01*
X16648053Y-12162134D01*
X16676624Y-12176420D01*
X16690910Y-12190706D01*
X16705195Y-12219277D01*
X16705195Y-12247849D01*
X16690910Y-12290706D01*
X16519481Y-12462134D01*
X16705195Y-12462134D01*
X16976624Y-12162134D02*
X16833767Y-12162134D01*
X16819481Y-12304991D01*
X16833767Y-12290706D01*
X16862338Y-12276420D01*
X16933767Y-12276420D01*
X16962338Y-12290706D01*
X16976624Y-12304991D01*
X16990910Y-12333563D01*
X16990910Y-12404991D01*
X16976624Y-12433563D01*
X16962338Y-12447849D01*
X16933767Y-12462134D01*
X16862338Y-12462134D01*
X16833767Y-12447849D01*
X16819481Y-12433563D01*
X17105196Y-12162134D02*
X17105196Y-12219277D01*
X17219481Y-12162134D02*
X17219481Y-12219277D01*
X17662338Y-12576420D02*
X17648053Y-12562134D01*
X17619481Y-12519277D01*
X17605196Y-12490706D01*
X17590910Y-12447849D01*
X17576624Y-12376420D01*
X17576624Y-12319277D01*
X17590910Y-12247849D01*
X17605196Y-12204991D01*
X17619481Y-12176420D01*
X17648053Y-12133563D01*
X17662338Y-12119277D01*
X17748053Y-12162134D02*
X17933767Y-12162134D01*
X17833767Y-12276420D01*
X17876624Y-12276420D01*
X17905196Y-12290706D01*
X17919481Y-12304991D01*
X17933767Y-12333563D01*
X17933767Y-12404991D01*
X17919481Y-12433563D01*
X17905196Y-12447849D01*
X17876624Y-12462134D01*
X17790910Y-12462134D01*
X17762338Y-12447849D01*
X17748053Y-12433563D01*
X18205196Y-12162134D02*
X18062338Y-12162134D01*
X18048053Y-12304991D01*
X18062338Y-12290706D01*
X18090910Y-12276420D01*
X18162338Y-12276420D01*
X18190910Y-12290706D01*
X18205196Y-12304991D01*
X18219481Y-12333563D01*
X18219481Y-12404991D01*
X18205196Y-12433563D01*
X18190910Y-12447849D01*
X18162338Y-12462134D01*
X18090910Y-12462134D01*
X18062338Y-12447849D01*
X18048053Y-12433563D01*
X18576624Y-12462134D02*
X18576624Y-12162134D01*
X18705196Y-12462134D02*
X18705196Y-12304991D01*
X18690910Y-12276420D01*
X18662338Y-12262134D01*
X18619481Y-12262134D01*
X18590910Y-12276420D01*
X18576624Y-12290706D01*
X18890910Y-12462134D02*
X18862338Y-12447849D01*
X18848053Y-12433563D01*
X18833767Y-12404991D01*
X18833767Y-12319277D01*
X18848053Y-12290706D01*
X18862338Y-12276420D01*
X18890910Y-12262134D01*
X18933767Y-12262134D01*
X18962338Y-12276420D01*
X18976624Y-12290706D01*
X18990910Y-12319277D01*
X18990910Y-12404991D01*
X18976624Y-12433563D01*
X18962338Y-12447849D01*
X18933767Y-12462134D01*
X18890910Y-12462134D01*
X19162338Y-12462134D02*
X19133767Y-12447849D01*
X19119481Y-12419277D01*
X19119481Y-12162134D01*
X19390910Y-12447849D02*
X19362339Y-12462134D01*
X19305196Y-12462134D01*
X19276624Y-12447849D01*
X19262339Y-12419277D01*
X19262339Y-12304991D01*
X19276624Y-12276420D01*
X19305196Y-12262134D01*
X19362339Y-12262134D01*
X19390910Y-12276420D01*
X19405196Y-12304991D01*
X19405196Y-12333563D01*
X19262339Y-12362134D01*
X19519481Y-12447849D02*
X19548053Y-12462134D01*
X19605196Y-12462134D01*
X19633767Y-12447849D01*
X19648053Y-12419277D01*
X19648053Y-12404991D01*
X19633767Y-12376420D01*
X19605196Y-12362134D01*
X19562339Y-12362134D01*
X19533767Y-12347849D01*
X19519481Y-12319277D01*
X19519481Y-12304991D01*
X19533767Y-12276420D01*
X19562339Y-12262134D01*
X19605196Y-12262134D01*
X19633767Y-12276420D01*
X19748053Y-12576420D02*
X19762339Y-12562134D01*
X19790910Y-12519277D01*
X19805196Y-12490706D01*
X19819481Y-12447849D01*
X19833767Y-12376420D01*
X19833767Y-12319277D01*
X19819481Y-12247849D01*
X19805196Y-12204991D01*
X19790910Y-12176420D01*
X19762339Y-12133563D01*
X19748053Y-12119277D01*
X12990910Y-12722420D02*
G75*
G03X12990910Y-12722420I-40640J0D01*
G01*
X13319481Y-12558134D02*
X13348053Y-12558134D01*
X13376624Y-12572420D01*
X13390910Y-12586706D01*
X13405196Y-12615277D01*
X13419481Y-12672420D01*
X13419481Y-12743849D01*
X13405196Y-12800991D01*
X13390910Y-12829563D01*
X13376624Y-12843849D01*
X13348053Y-12858134D01*
X13319481Y-12858134D01*
X13290910Y-12843849D01*
X13276624Y-12829563D01*
X13262338Y-12800991D01*
X13248053Y-12743849D01*
X13248053Y-12672420D01*
X13262338Y-12615277D01*
X13276624Y-12586706D01*
X13290910Y-12572420D01*
X13319481Y-12558134D01*
X13548053Y-12829563D02*
X13562338Y-12843849D01*
X13548053Y-12858134D01*
X13533767Y-12843849D01*
X13548053Y-12829563D01*
X13548053Y-12858134D01*
X13733767Y-12686706D02*
X13705196Y-12672420D01*
X13690910Y-12658134D01*
X13676624Y-12629563D01*
X13676624Y-12615277D01*
X13690910Y-12586706D01*
X13705196Y-12572420D01*
X13733767Y-12558134D01*
X13790910Y-12558134D01*
X13819481Y-12572420D01*
X13833767Y-12586706D01*
X13848053Y-12615277D01*
X13848053Y-12629563D01*
X13833767Y-12658134D01*
X13819481Y-12672420D01*
X13790910Y-12686706D01*
X13733767Y-12686706D01*
X13705196Y-12700991D01*
X13690910Y-12715277D01*
X13676624Y-12743849D01*
X13676624Y-12800991D01*
X13690910Y-12829563D01*
X13705196Y-12843849D01*
X13733767Y-12858134D01*
X13790910Y-12858134D01*
X13819481Y-12843849D01*
X13833767Y-12829563D01*
X13848053Y-12800991D01*
X13848053Y-12743849D01*
X13833767Y-12715277D01*
X13819481Y-12700991D01*
X13790910Y-12686706D01*
X14133767Y-12858134D02*
X13962338Y-12858134D01*
X14048053Y-12858134D02*
X14048053Y-12558134D01*
X14019481Y-12600991D01*
X13990910Y-12629563D01*
X13962338Y-12643849D01*
X14262338Y-12858134D02*
X14262338Y-12658134D01*
X14262338Y-12686706D02*
X14276624Y-12672420D01*
X14305196Y-12658134D01*
X14348053Y-12658134D01*
X14376624Y-12672420D01*
X14390910Y-12700991D01*
X14390910Y-12858134D01*
X14390910Y-12700991D02*
X14405196Y-12672420D01*
X14433767Y-12658134D01*
X14476624Y-12658134D01*
X14505196Y-12672420D01*
X14519481Y-12700991D01*
X14519481Y-12858134D01*
X14662338Y-12858134D02*
X14662338Y-12658134D01*
X14662338Y-12686706D02*
X14676624Y-12672420D01*
X14705196Y-12658134D01*
X14748053Y-12658134D01*
X14776624Y-12672420D01*
X14790910Y-12700991D01*
X14790910Y-12858134D01*
X14790910Y-12700991D02*
X14805196Y-12672420D01*
X14833767Y-12658134D01*
X14876624Y-12658134D01*
X14905196Y-12672420D01*
X14919481Y-12700991D01*
X14919481Y-12858134D01*
X15505196Y-12543849D02*
X15248053Y-12929563D01*
X15890910Y-12558134D02*
X15919481Y-12558134D01*
X15948053Y-12572420D01*
X15962338Y-12586706D01*
X15976624Y-12615277D01*
X15990910Y-12672420D01*
X15990910Y-12743849D01*
X15976624Y-12800991D01*
X15962338Y-12829563D01*
X15948053Y-12843849D01*
X15919481Y-12858134D01*
X15890910Y-12858134D01*
X15862338Y-12843849D01*
X15848053Y-12829563D01*
X15833767Y-12800991D01*
X15819481Y-12743849D01*
X15819481Y-12672420D01*
X15833767Y-12615277D01*
X15848053Y-12586706D01*
X15862338Y-12572420D01*
X15890910Y-12558134D01*
X16119481Y-12829563D02*
X16133767Y-12843849D01*
X16119481Y-12858134D01*
X16105196Y-12843849D01*
X16119481Y-12829563D01*
X16119481Y-12858134D01*
X16319481Y-12558134D02*
X16348053Y-12558134D01*
X16376624Y-12572420D01*
X16390910Y-12586706D01*
X16405195Y-12615277D01*
X16419481Y-12672420D01*
X16419481Y-12743849D01*
X16405195Y-12800991D01*
X16390910Y-12829563D01*
X16376624Y-12843849D01*
X16348053Y-12858134D01*
X16319481Y-12858134D01*
X16290910Y-12843849D01*
X16276624Y-12829563D01*
X16262338Y-12800991D01*
X16248053Y-12743849D01*
X16248053Y-12672420D01*
X16262338Y-12615277D01*
X16276624Y-12586706D01*
X16290910Y-12572420D01*
X16319481Y-12558134D01*
X16519481Y-12558134D02*
X16705195Y-12558134D01*
X16605195Y-12672420D01*
X16648053Y-12672420D01*
X16676624Y-12686706D01*
X16690910Y-12700991D01*
X16705195Y-12729563D01*
X16705195Y-12800991D01*
X16690910Y-12829563D01*
X16676624Y-12843849D01*
X16648053Y-12858134D01*
X16562338Y-12858134D01*
X16533767Y-12843849D01*
X16519481Y-12829563D01*
X16819481Y-12586706D02*
X16833767Y-12572420D01*
X16862338Y-12558134D01*
X16933767Y-12558134D01*
X16962338Y-12572420D01*
X16976624Y-12586706D01*
X16990910Y-12615277D01*
X16990910Y-12643849D01*
X16976624Y-12686706D01*
X16805196Y-12858134D01*
X16990910Y-12858134D01*
X17105196Y-12558134D02*
X17105196Y-12615277D01*
X17219481Y-12558134D02*
X17219481Y-12615277D01*
X17662338Y-12972420D02*
X17648053Y-12958134D01*
X17619481Y-12915277D01*
X17605196Y-12886706D01*
X17590910Y-12843849D01*
X17576624Y-12772420D01*
X17576624Y-12715277D01*
X17590910Y-12643849D01*
X17605196Y-12600991D01*
X17619481Y-12572420D01*
X17648053Y-12529563D01*
X17662338Y-12515277D01*
X17762338Y-12586706D02*
X17776624Y-12572420D01*
X17805196Y-12558134D01*
X17876624Y-12558134D01*
X17905196Y-12572420D01*
X17919481Y-12586706D01*
X17933767Y-12615277D01*
X17933767Y-12643849D01*
X17919481Y-12686706D01*
X17748053Y-12858134D01*
X17933767Y-12858134D01*
X18205196Y-12558134D02*
X18062338Y-12558134D01*
X18048053Y-12700991D01*
X18062338Y-12686706D01*
X18090910Y-12672420D01*
X18162338Y-12672420D01*
X18190910Y-12686706D01*
X18205196Y-12700991D01*
X18219481Y-12729563D01*
X18219481Y-12800991D01*
X18205196Y-12829563D01*
X18190910Y-12843849D01*
X18162338Y-12858134D01*
X18090910Y-12858134D01*
X18062338Y-12843849D01*
X18048053Y-12829563D01*
X18576624Y-12858134D02*
X18576624Y-12558134D01*
X18705196Y-12858134D02*
X18705196Y-12700991D01*
X18690910Y-12672420D01*
X18662338Y-12658134D01*
X18619481Y-12658134D01*
X18590910Y-12672420D01*
X18576624Y-12686706D01*
X18890910Y-12858134D02*
X18862338Y-12843849D01*
X18848053Y-12829563D01*
X18833767Y-12800991D01*
X18833767Y-12715277D01*
X18848053Y-12686706D01*
X18862338Y-12672420D01*
X18890910Y-12658134D01*
X18933767Y-12658134D01*
X18962338Y-12672420D01*
X18976624Y-12686706D01*
X18990910Y-12715277D01*
X18990910Y-12800991D01*
X18976624Y-12829563D01*
X18962338Y-12843849D01*
X18933767Y-12858134D01*
X18890910Y-12858134D01*
X19162338Y-12858134D02*
X19133767Y-12843849D01*
X19119481Y-12815277D01*
X19119481Y-12558134D01*
X19390910Y-12843849D02*
X19362339Y-12858134D01*
X19305196Y-12858134D01*
X19276624Y-12843849D01*
X19262339Y-12815277D01*
X19262339Y-12700991D01*
X19276624Y-12672420D01*
X19305196Y-12658134D01*
X19362339Y-12658134D01*
X19390910Y-12672420D01*
X19405196Y-12700991D01*
X19405196Y-12729563D01*
X19262339Y-12758134D01*
X19519481Y-12843849D02*
X19548053Y-12858134D01*
X19605196Y-12858134D01*
X19633767Y-12843849D01*
X19648053Y-12815277D01*
X19648053Y-12800991D01*
X19633767Y-12772420D01*
X19605196Y-12758134D01*
X19562339Y-12758134D01*
X19533767Y-12743849D01*
X19519481Y-12715277D01*
X19519481Y-12700991D01*
X19533767Y-12672420D01*
X19562339Y-12658134D01*
X19605196Y-12658134D01*
X19633767Y-12672420D01*
X19748053Y-12972420D02*
X19762339Y-12958134D01*
X19790910Y-12915277D01*
X19805196Y-12886706D01*
X19819481Y-12843849D01*
X19833767Y-12772420D01*
X19833767Y-12715277D01*
X19819481Y-12643849D01*
X19805196Y-12600991D01*
X19790910Y-12572420D01*
X19762339Y-12529563D01*
X19748053Y-12515277D01*
X12945910Y-13073420D02*
X12945910Y-13163420D01*
X12900910Y-13118420D02*
X12990910Y-13118420D01*
X13319481Y-12954134D02*
X13348053Y-12954134D01*
X13376624Y-12968420D01*
X13390910Y-12982706D01*
X13405196Y-13011277D01*
X13419481Y-13068420D01*
X13419481Y-13139849D01*
X13405196Y-13196991D01*
X13390910Y-13225563D01*
X13376624Y-13239849D01*
X13348053Y-13254134D01*
X13319481Y-13254134D01*
X13290910Y-13239849D01*
X13276624Y-13225563D01*
X13262338Y-13196991D01*
X13248053Y-13139849D01*
X13248053Y-13068420D01*
X13262338Y-13011277D01*
X13276624Y-12982706D01*
X13290910Y-12968420D01*
X13319481Y-12954134D01*
X13548053Y-13225563D02*
X13562338Y-13239849D01*
X13548053Y-13254134D01*
X13533767Y-13239849D01*
X13548053Y-13225563D01*
X13548053Y-13254134D01*
X13705196Y-13254134D02*
X13762338Y-13254134D01*
X13790910Y-13239849D01*
X13805196Y-13225563D01*
X13833767Y-13182706D01*
X13848053Y-13125563D01*
X13848053Y-13011277D01*
X13833767Y-12982706D01*
X13819481Y-12968420D01*
X13790910Y-12954134D01*
X13733767Y-12954134D01*
X13705196Y-12968420D01*
X13690910Y-12982706D01*
X13676624Y-13011277D01*
X13676624Y-13082706D01*
X13690910Y-13111277D01*
X13705196Y-13125563D01*
X13733767Y-13139849D01*
X13790910Y-13139849D01*
X13819481Y-13125563D01*
X13833767Y-13111277D01*
X13848053Y-13082706D01*
X14033767Y-12954134D02*
X14062338Y-12954134D01*
X14090910Y-12968420D01*
X14105196Y-12982706D01*
X14119481Y-13011277D01*
X14133767Y-13068420D01*
X14133767Y-13139849D01*
X14119481Y-13196991D01*
X14105196Y-13225563D01*
X14090910Y-13239849D01*
X14062338Y-13254134D01*
X14033767Y-13254134D01*
X14005196Y-13239849D01*
X13990910Y-13225563D01*
X13976624Y-13196991D01*
X13962338Y-13139849D01*
X13962338Y-13068420D01*
X13976624Y-13011277D01*
X13990910Y-12982706D01*
X14005196Y-12968420D01*
X14033767Y-12954134D01*
X14262338Y-13254134D02*
X14262338Y-13054134D01*
X14262338Y-13082706D02*
X14276624Y-13068420D01*
X14305196Y-13054134D01*
X14348053Y-13054134D01*
X14376624Y-13068420D01*
X14390910Y-13096991D01*
X14390910Y-13254134D01*
X14390910Y-13096991D02*
X14405196Y-13068420D01*
X14433767Y-13054134D01*
X14476624Y-13054134D01*
X14505196Y-13068420D01*
X14519481Y-13096991D01*
X14519481Y-13254134D01*
X14662338Y-13254134D02*
X14662338Y-13054134D01*
X14662338Y-13082706D02*
X14676624Y-13068420D01*
X14705196Y-13054134D01*
X14748053Y-13054134D01*
X14776624Y-13068420D01*
X14790910Y-13096991D01*
X14790910Y-13254134D01*
X14790910Y-13096991D02*
X14805196Y-13068420D01*
X14833767Y-13054134D01*
X14876624Y-13054134D01*
X14905196Y-13068420D01*
X14919481Y-13096991D01*
X14919481Y-13254134D01*
X15505196Y-12939849D02*
X15248053Y-13325563D01*
X15890910Y-12954134D02*
X15919481Y-12954134D01*
X15948053Y-12968420D01*
X15962338Y-12982706D01*
X15976624Y-13011277D01*
X15990910Y-13068420D01*
X15990910Y-13139849D01*
X15976624Y-13196991D01*
X15962338Y-13225563D01*
X15948053Y-13239849D01*
X15919481Y-13254134D01*
X15890910Y-13254134D01*
X15862338Y-13239849D01*
X15848053Y-13225563D01*
X15833767Y-13196991D01*
X15819481Y-13139849D01*
X15819481Y-13068420D01*
X15833767Y-13011277D01*
X15848053Y-12982706D01*
X15862338Y-12968420D01*
X15890910Y-12954134D01*
X16119481Y-13225563D02*
X16133767Y-13239849D01*
X16119481Y-13254134D01*
X16105196Y-13239849D01*
X16119481Y-13225563D01*
X16119481Y-13254134D01*
X16319481Y-12954134D02*
X16348053Y-12954134D01*
X16376624Y-12968420D01*
X16390910Y-12982706D01*
X16405195Y-13011277D01*
X16419481Y-13068420D01*
X16419481Y-13139849D01*
X16405195Y-13196991D01*
X16390910Y-13225563D01*
X16376624Y-13239849D01*
X16348053Y-13254134D01*
X16319481Y-13254134D01*
X16290910Y-13239849D01*
X16276624Y-13225563D01*
X16262338Y-13196991D01*
X16248053Y-13139849D01*
X16248053Y-13068420D01*
X16262338Y-13011277D01*
X16276624Y-12982706D01*
X16290910Y-12968420D01*
X16319481Y-12954134D01*
X16519481Y-12954134D02*
X16705195Y-12954134D01*
X16605195Y-13068420D01*
X16648053Y-13068420D01*
X16676624Y-13082706D01*
X16690910Y-13096991D01*
X16705195Y-13125563D01*
X16705195Y-13196991D01*
X16690910Y-13225563D01*
X16676624Y-13239849D01*
X16648053Y-13254134D01*
X16562338Y-13254134D01*
X16533767Y-13239849D01*
X16519481Y-13225563D01*
X16976624Y-12954134D02*
X16833767Y-12954134D01*
X16819481Y-13096991D01*
X16833767Y-13082706D01*
X16862338Y-13068420D01*
X16933767Y-13068420D01*
X16962338Y-13082706D01*
X16976624Y-13096991D01*
X16990910Y-13125563D01*
X16990910Y-13196991D01*
X16976624Y-13225563D01*
X16962338Y-13239849D01*
X16933767Y-13254134D01*
X16862338Y-13254134D01*
X16833767Y-13239849D01*
X16819481Y-13225563D01*
X17105196Y-12954134D02*
X17105196Y-13011277D01*
X17219481Y-12954134D02*
X17219481Y-13011277D01*
X17662338Y-13368420D02*
X17648053Y-13354134D01*
X17619481Y-13311277D01*
X17605196Y-13282706D01*
X17590910Y-13239849D01*
X17576624Y-13168420D01*
X17576624Y-13111277D01*
X17590910Y-13039849D01*
X17605196Y-12996991D01*
X17619481Y-12968420D01*
X17648053Y-12925563D01*
X17662338Y-12911277D01*
X17933767Y-13254134D02*
X17762338Y-13254134D01*
X17848053Y-13254134D02*
X17848053Y-12954134D01*
X17819481Y-12996991D01*
X17790910Y-13025563D01*
X17762338Y-13039849D01*
X18048053Y-12982706D02*
X18062338Y-12968420D01*
X18090910Y-12954134D01*
X18162338Y-12954134D01*
X18190910Y-12968420D01*
X18205196Y-12982706D01*
X18219481Y-13011277D01*
X18219481Y-13039849D01*
X18205196Y-13082706D01*
X18033767Y-13254134D01*
X18219481Y-13254134D01*
X18576624Y-13254134D02*
X18576624Y-12954134D01*
X18705196Y-13254134D02*
X18705196Y-13096991D01*
X18690910Y-13068420D01*
X18662338Y-13054134D01*
X18619481Y-13054134D01*
X18590910Y-13068420D01*
X18576624Y-13082706D01*
X18890910Y-13254134D02*
X18862338Y-13239849D01*
X18848053Y-13225563D01*
X18833767Y-13196991D01*
X18833767Y-13111277D01*
X18848053Y-13082706D01*
X18862338Y-13068420D01*
X18890910Y-13054134D01*
X18933767Y-13054134D01*
X18962338Y-13068420D01*
X18976624Y-13082706D01*
X18990910Y-13111277D01*
X18990910Y-13196991D01*
X18976624Y-13225563D01*
X18962338Y-13239849D01*
X18933767Y-13254134D01*
X18890910Y-13254134D01*
X19162338Y-13254134D02*
X19133767Y-13239849D01*
X19119481Y-13211277D01*
X19119481Y-12954134D01*
X19390910Y-13239849D02*
X19362339Y-13254134D01*
X19305196Y-13254134D01*
X19276624Y-13239849D01*
X19262339Y-13211277D01*
X19262339Y-13096991D01*
X19276624Y-13068420D01*
X19305196Y-13054134D01*
X19362339Y-13054134D01*
X19390910Y-13068420D01*
X19405196Y-13096991D01*
X19405196Y-13125563D01*
X19262339Y-13154134D01*
X19519481Y-13239849D02*
X19548053Y-13254134D01*
X19605196Y-13254134D01*
X19633767Y-13239849D01*
X19648053Y-13211277D01*
X19648053Y-13196991D01*
X19633767Y-13168420D01*
X19605196Y-13154134D01*
X19562339Y-13154134D01*
X19533767Y-13139849D01*
X19519481Y-13111277D01*
X19519481Y-13096991D01*
X19533767Y-13068420D01*
X19562339Y-13054134D01*
X19605196Y-13054134D01*
X19633767Y-13068420D01*
X19748053Y-13368420D02*
X19762339Y-13354134D01*
X19790910Y-13311277D01*
X19805196Y-13282706D01*
X19819481Y-13239849D01*
X19833767Y-13168420D01*
X19833767Y-13111277D01*
X19819481Y-13039849D01*
X19805196Y-12996991D01*
X19790910Y-12968420D01*
X19762339Y-12925563D01*
X19748053Y-12911277D01*
X12977437Y-13546947D02*
X12977437Y-13481893D01*
X12912383Y-13481893D01*
X12912383Y-13546947D01*
X12977437Y-13546947D01*
X13319481Y-13350134D02*
X13348053Y-13350134D01*
X13376624Y-13364420D01*
X13390910Y-13378706D01*
X13405196Y-13407277D01*
X13419481Y-13464420D01*
X13419481Y-13535849D01*
X13405196Y-13592991D01*
X13390910Y-13621563D01*
X13376624Y-13635849D01*
X13348053Y-13650134D01*
X13319481Y-13650134D01*
X13290910Y-13635849D01*
X13276624Y-13621563D01*
X13262338Y-13592991D01*
X13248053Y-13535849D01*
X13248053Y-13464420D01*
X13262338Y-13407277D01*
X13276624Y-13378706D01*
X13290910Y-13364420D01*
X13319481Y-13350134D01*
X13548053Y-13621563D02*
X13562338Y-13635849D01*
X13548053Y-13650134D01*
X13533767Y-13635849D01*
X13548053Y-13621563D01*
X13548053Y-13650134D01*
X13705196Y-13650134D02*
X13762338Y-13650134D01*
X13790910Y-13635849D01*
X13805196Y-13621563D01*
X13833767Y-13578706D01*
X13848053Y-13521563D01*
X13848053Y-13407277D01*
X13833767Y-13378706D01*
X13819481Y-13364420D01*
X13790910Y-13350134D01*
X13733767Y-13350134D01*
X13705196Y-13364420D01*
X13690910Y-13378706D01*
X13676624Y-13407277D01*
X13676624Y-13478706D01*
X13690910Y-13507277D01*
X13705196Y-13521563D01*
X13733767Y-13535849D01*
X13790910Y-13535849D01*
X13819481Y-13521563D01*
X13833767Y-13507277D01*
X13848053Y-13478706D01*
X13962338Y-13378706D02*
X13976624Y-13364420D01*
X14005196Y-13350134D01*
X14076624Y-13350134D01*
X14105196Y-13364420D01*
X14119481Y-13378706D01*
X14133767Y-13407277D01*
X14133767Y-13435849D01*
X14119481Y-13478706D01*
X13948053Y-13650134D01*
X14133767Y-13650134D01*
X14262338Y-13650134D02*
X14262338Y-13450134D01*
X14262338Y-13478706D02*
X14276624Y-13464420D01*
X14305196Y-13450134D01*
X14348053Y-13450134D01*
X14376624Y-13464420D01*
X14390910Y-13492991D01*
X14390910Y-13650134D01*
X14390910Y-13492991D02*
X14405196Y-13464420D01*
X14433767Y-13450134D01*
X14476624Y-13450134D01*
X14505196Y-13464420D01*
X14519481Y-13492991D01*
X14519481Y-13650134D01*
X14662338Y-13650134D02*
X14662338Y-13450134D01*
X14662338Y-13478706D02*
X14676624Y-13464420D01*
X14705196Y-13450134D01*
X14748053Y-13450134D01*
X14776624Y-13464420D01*
X14790910Y-13492991D01*
X14790910Y-13650134D01*
X14790910Y-13492991D02*
X14805196Y-13464420D01*
X14833767Y-13450134D01*
X14876624Y-13450134D01*
X14905196Y-13464420D01*
X14919481Y-13492991D01*
X14919481Y-13650134D01*
X15505196Y-13335849D02*
X15248053Y-13721563D01*
X15890910Y-13350134D02*
X15919481Y-13350134D01*
X15948053Y-13364420D01*
X15962338Y-13378706D01*
X15976624Y-13407277D01*
X15990910Y-13464420D01*
X15990910Y-13535849D01*
X15976624Y-13592991D01*
X15962338Y-13621563D01*
X15948053Y-13635849D01*
X15919481Y-13650134D01*
X15890910Y-13650134D01*
X15862338Y-13635849D01*
X15848053Y-13621563D01*
X15833767Y-13592991D01*
X15819481Y-13535849D01*
X15819481Y-13464420D01*
X15833767Y-13407277D01*
X15848053Y-13378706D01*
X15862338Y-13364420D01*
X15890910Y-13350134D01*
X16119481Y-13621563D02*
X16133767Y-13635849D01*
X16119481Y-13650134D01*
X16105196Y-13635849D01*
X16119481Y-13621563D01*
X16119481Y-13650134D01*
X16319481Y-13350134D02*
X16348053Y-13350134D01*
X16376624Y-13364420D01*
X16390910Y-13378706D01*
X16405195Y-13407277D01*
X16419481Y-13464420D01*
X16419481Y-13535849D01*
X16405195Y-13592991D01*
X16390910Y-13621563D01*
X16376624Y-13635849D01*
X16348053Y-13650134D01*
X16319481Y-13650134D01*
X16290910Y-13635849D01*
X16276624Y-13621563D01*
X16262338Y-13592991D01*
X16248053Y-13535849D01*
X16248053Y-13464420D01*
X16262338Y-13407277D01*
X16276624Y-13378706D01*
X16290910Y-13364420D01*
X16319481Y-13350134D01*
X16519481Y-13350134D02*
X16705195Y-13350134D01*
X16605195Y-13464420D01*
X16648053Y-13464420D01*
X16676624Y-13478706D01*
X16690910Y-13492991D01*
X16705195Y-13521563D01*
X16705195Y-13592991D01*
X16690910Y-13621563D01*
X16676624Y-13635849D01*
X16648053Y-13650134D01*
X16562338Y-13650134D01*
X16533767Y-13635849D01*
X16519481Y-13621563D01*
X16962338Y-13350134D02*
X16905196Y-13350134D01*
X16876624Y-13364420D01*
X16862338Y-13378706D01*
X16833767Y-13421563D01*
X16819481Y-13478706D01*
X16819481Y-13592991D01*
X16833767Y-13621563D01*
X16848053Y-13635849D01*
X16876624Y-13650134D01*
X16933767Y-13650134D01*
X16962338Y-13635849D01*
X16976624Y-13621563D01*
X16990910Y-13592991D01*
X16990910Y-13521563D01*
X16976624Y-13492991D01*
X16962338Y-13478706D01*
X16933767Y-13464420D01*
X16876624Y-13464420D01*
X16848053Y-13478706D01*
X16833767Y-13492991D01*
X16819481Y-13521563D01*
X17105196Y-13350134D02*
X17105196Y-13407277D01*
X17219481Y-13350134D02*
X17219481Y-13407277D01*
X17662338Y-13764420D02*
X17648053Y-13750134D01*
X17619481Y-13707277D01*
X17605196Y-13678706D01*
X17590910Y-13635849D01*
X17576624Y-13564420D01*
X17576624Y-13507277D01*
X17590910Y-13435849D01*
X17605196Y-13392991D01*
X17619481Y-13364420D01*
X17648053Y-13321563D01*
X17662338Y-13307277D01*
X17933767Y-13650134D02*
X17762338Y-13650134D01*
X17848053Y-13650134D02*
X17848053Y-13350134D01*
X17819481Y-13392991D01*
X17790910Y-13421563D01*
X17762338Y-13435849D01*
X18290910Y-13650134D02*
X18290910Y-13350134D01*
X18419481Y-13650134D02*
X18419481Y-13492991D01*
X18405196Y-13464420D01*
X18376624Y-13450134D01*
X18333767Y-13450134D01*
X18305196Y-13464420D01*
X18290910Y-13478706D01*
X18605196Y-13650134D02*
X18576624Y-13635849D01*
X18562338Y-13621563D01*
X18548053Y-13592991D01*
X18548053Y-13507277D01*
X18562338Y-13478706D01*
X18576624Y-13464420D01*
X18605196Y-13450134D01*
X18648053Y-13450134D01*
X18676624Y-13464420D01*
X18690910Y-13478706D01*
X18705196Y-13507277D01*
X18705196Y-13592991D01*
X18690910Y-13621563D01*
X18676624Y-13635849D01*
X18648053Y-13650134D01*
X18605196Y-13650134D01*
X18876624Y-13650134D02*
X18848053Y-13635849D01*
X18833767Y-13607277D01*
X18833767Y-13350134D01*
X19105196Y-13635849D02*
X19076624Y-13650134D01*
X19019481Y-13650134D01*
X18990910Y-13635849D01*
X18976624Y-13607277D01*
X18976624Y-13492991D01*
X18990910Y-13464420D01*
X19019481Y-13450134D01*
X19076624Y-13450134D01*
X19105196Y-13464420D01*
X19119481Y-13492991D01*
X19119481Y-13521563D01*
X18976624Y-13550134D01*
X19219481Y-13764420D02*
X19233767Y-13750134D01*
X19262339Y-13707277D01*
X19276624Y-13678706D01*
X19290910Y-13635849D01*
X19305196Y-13564420D01*
X19305196Y-13507277D01*
X19290910Y-13435849D01*
X19276624Y-13392991D01*
X19262339Y-13364420D01*
X19233767Y-13321563D01*
X19219481Y-13307277D01*
X12940872Y-13960458D02*
X12990910Y-13910420D01*
X12940872Y-13860382D01*
X12890834Y-13910420D01*
X12940872Y-13960458D01*
X13419481Y-14046134D02*
X13248053Y-14046134D01*
X13333767Y-14046134D02*
X13333767Y-13746134D01*
X13305196Y-13788991D01*
X13276624Y-13817563D01*
X13248053Y-13831849D01*
X13548053Y-14017563D02*
X13562338Y-14031849D01*
X13548053Y-14046134D01*
X13533767Y-14031849D01*
X13548053Y-14017563D01*
X13548053Y-14046134D01*
X13748053Y-13746134D02*
X13776624Y-13746134D01*
X13805196Y-13760420D01*
X13819481Y-13774706D01*
X13833767Y-13803277D01*
X13848053Y-13860420D01*
X13848053Y-13931849D01*
X13833767Y-13988991D01*
X13819481Y-14017563D01*
X13805196Y-14031849D01*
X13776624Y-14046134D01*
X13748053Y-14046134D01*
X13719481Y-14031849D01*
X13705196Y-14017563D01*
X13690910Y-13988991D01*
X13676624Y-13931849D01*
X13676624Y-13860420D01*
X13690910Y-13803277D01*
X13705196Y-13774706D01*
X13719481Y-13760420D01*
X13748053Y-13746134D01*
X14033767Y-13746134D02*
X14062338Y-13746134D01*
X14090910Y-13760420D01*
X14105196Y-13774706D01*
X14119481Y-13803277D01*
X14133767Y-13860420D01*
X14133767Y-13931849D01*
X14119481Y-13988991D01*
X14105196Y-14017563D01*
X14090910Y-14031849D01*
X14062338Y-14046134D01*
X14033767Y-14046134D01*
X14005196Y-14031849D01*
X13990910Y-14017563D01*
X13976624Y-13988991D01*
X13962338Y-13931849D01*
X13962338Y-13860420D01*
X13976624Y-13803277D01*
X13990910Y-13774706D01*
X14005196Y-13760420D01*
X14033767Y-13746134D01*
X14262338Y-14046134D02*
X14262338Y-13846134D01*
X14262338Y-13874706D02*
X14276624Y-13860420D01*
X14305196Y-13846134D01*
X14348053Y-13846134D01*
X14376624Y-13860420D01*
X14390910Y-13888991D01*
X14390910Y-14046134D01*
X14390910Y-13888991D02*
X14405196Y-13860420D01*
X14433767Y-13846134D01*
X14476624Y-13846134D01*
X14505196Y-13860420D01*
X14519481Y-13888991D01*
X14519481Y-14046134D01*
X14662338Y-14046134D02*
X14662338Y-13846134D01*
X14662338Y-13874706D02*
X14676624Y-13860420D01*
X14705196Y-13846134D01*
X14748053Y-13846134D01*
X14776624Y-13860420D01*
X14790910Y-13888991D01*
X14790910Y-14046134D01*
X14790910Y-13888991D02*
X14805196Y-13860420D01*
X14833767Y-13846134D01*
X14876624Y-13846134D01*
X14905196Y-13860420D01*
X14919481Y-13888991D01*
X14919481Y-14046134D01*
X15505196Y-13731849D02*
X15248053Y-14117563D01*
X15890910Y-13746134D02*
X15919481Y-13746134D01*
X15948053Y-13760420D01*
X15962338Y-13774706D01*
X15976624Y-13803277D01*
X15990910Y-13860420D01*
X15990910Y-13931849D01*
X15976624Y-13988991D01*
X15962338Y-14017563D01*
X15948053Y-14031849D01*
X15919481Y-14046134D01*
X15890910Y-14046134D01*
X15862338Y-14031849D01*
X15848053Y-14017563D01*
X15833767Y-13988991D01*
X15819481Y-13931849D01*
X15819481Y-13860420D01*
X15833767Y-13803277D01*
X15848053Y-13774706D01*
X15862338Y-13760420D01*
X15890910Y-13746134D01*
X16119481Y-14017563D02*
X16133767Y-14031849D01*
X16119481Y-14046134D01*
X16105196Y-14031849D01*
X16119481Y-14017563D01*
X16119481Y-14046134D01*
X16319481Y-13746134D02*
X16348053Y-13746134D01*
X16376624Y-13760420D01*
X16390910Y-13774706D01*
X16405195Y-13803277D01*
X16419481Y-13860420D01*
X16419481Y-13931849D01*
X16405195Y-13988991D01*
X16390910Y-14017563D01*
X16376624Y-14031849D01*
X16348053Y-14046134D01*
X16319481Y-14046134D01*
X16290910Y-14031849D01*
X16276624Y-14017563D01*
X16262338Y-13988991D01*
X16248053Y-13931849D01*
X16248053Y-13860420D01*
X16262338Y-13803277D01*
X16276624Y-13774706D01*
X16290910Y-13760420D01*
X16319481Y-13746134D01*
X16519481Y-13746134D02*
X16705195Y-13746134D01*
X16605195Y-13860420D01*
X16648053Y-13860420D01*
X16676624Y-13874706D01*
X16690910Y-13888991D01*
X16705195Y-13917563D01*
X16705195Y-13988991D01*
X16690910Y-14017563D01*
X16676624Y-14031849D01*
X16648053Y-14046134D01*
X16562338Y-14046134D01*
X16533767Y-14031849D01*
X16519481Y-14017563D01*
X16848053Y-14046134D02*
X16905196Y-14046134D01*
X16933767Y-14031849D01*
X16948053Y-14017563D01*
X16976624Y-13974706D01*
X16990910Y-13917563D01*
X16990910Y-13803277D01*
X16976624Y-13774706D01*
X16962338Y-13760420D01*
X16933767Y-13746134D01*
X16876624Y-13746134D01*
X16848053Y-13760420D01*
X16833767Y-13774706D01*
X16819481Y-13803277D01*
X16819481Y-13874706D01*
X16833767Y-13903277D01*
X16848053Y-13917563D01*
X16876624Y-13931849D01*
X16933767Y-13931849D01*
X16962338Y-13917563D01*
X16976624Y-13903277D01*
X16990910Y-13874706D01*
X17105196Y-13746134D02*
X17105196Y-13803277D01*
X17219481Y-13746134D02*
X17219481Y-13803277D01*
X17662338Y-14160420D02*
X17648053Y-14146134D01*
X17619481Y-14103277D01*
X17605196Y-14074706D01*
X17590910Y-14031849D01*
X17576624Y-13960420D01*
X17576624Y-13903277D01*
X17590910Y-13831849D01*
X17605196Y-13788991D01*
X17619481Y-13760420D01*
X17648053Y-13717563D01*
X17662338Y-13703277D01*
X17762338Y-13774706D02*
X17776624Y-13760420D01*
X17805196Y-13746134D01*
X17876624Y-13746134D01*
X17905196Y-13760420D01*
X17919481Y-13774706D01*
X17933767Y-13803277D01*
X17933767Y-13831849D01*
X17919481Y-13874706D01*
X17748053Y-14046134D01*
X17933767Y-14046134D01*
X18205196Y-13746134D02*
X18062338Y-13746134D01*
X18048053Y-13888991D01*
X18062338Y-13874706D01*
X18090910Y-13860420D01*
X18162338Y-13860420D01*
X18190910Y-13874706D01*
X18205196Y-13888991D01*
X18219481Y-13917563D01*
X18219481Y-13988991D01*
X18205196Y-14017563D01*
X18190910Y-14031849D01*
X18162338Y-14046134D01*
X18090910Y-14046134D01*
X18062338Y-14031849D01*
X18048053Y-14017563D01*
X18576624Y-14046134D02*
X18576624Y-13746134D01*
X18705196Y-14046134D02*
X18705196Y-13888991D01*
X18690910Y-13860420D01*
X18662338Y-13846134D01*
X18619481Y-13846134D01*
X18590910Y-13860420D01*
X18576624Y-13874706D01*
X18890910Y-14046134D02*
X18862338Y-14031849D01*
X18848053Y-14017563D01*
X18833767Y-13988991D01*
X18833767Y-13903277D01*
X18848053Y-13874706D01*
X18862338Y-13860420D01*
X18890910Y-13846134D01*
X18933767Y-13846134D01*
X18962338Y-13860420D01*
X18976624Y-13874706D01*
X18990910Y-13903277D01*
X18990910Y-13988991D01*
X18976624Y-14017563D01*
X18962338Y-14031849D01*
X18933767Y-14046134D01*
X18890910Y-14046134D01*
X19162338Y-14046134D02*
X19133767Y-14031849D01*
X19119481Y-14003277D01*
X19119481Y-13746134D01*
X19390910Y-14031849D02*
X19362339Y-14046134D01*
X19305196Y-14046134D01*
X19276624Y-14031849D01*
X19262339Y-14003277D01*
X19262339Y-13888991D01*
X19276624Y-13860420D01*
X19305196Y-13846134D01*
X19362339Y-13846134D01*
X19390910Y-13860420D01*
X19405196Y-13888991D01*
X19405196Y-13917563D01*
X19262339Y-13946134D01*
X19519481Y-14031849D02*
X19548053Y-14046134D01*
X19605196Y-14046134D01*
X19633767Y-14031849D01*
X19648053Y-14003277D01*
X19648053Y-13988991D01*
X19633767Y-13960420D01*
X19605196Y-13946134D01*
X19562339Y-13946134D01*
X19533767Y-13931849D01*
X19519481Y-13903277D01*
X19519481Y-13888991D01*
X19533767Y-13860420D01*
X19562339Y-13846134D01*
X19605196Y-13846134D01*
X19633767Y-13860420D01*
X19748053Y-14160420D02*
X19762339Y-14146134D01*
X19790910Y-14103277D01*
X19805196Y-14074706D01*
X19819481Y-14031849D01*
X19833767Y-13960420D01*
X19833767Y-13903277D01*
X19819481Y-13831849D01*
X19805196Y-13788991D01*
X19790910Y-13760420D01*
X19762339Y-13717563D01*
X19748053Y-13703277D01*
X12889310Y-14255620D02*
X12990910Y-14357220D01*
X12990910Y-14255620D02*
X12889310Y-14357220D01*
X12990910Y-14306420D02*
G75*
G03X12990910Y-14306420I-50800J0D01*
G01*
X13419481Y-14442134D02*
X13248053Y-14442134D01*
X13333767Y-14442134D02*
X13333767Y-14142134D01*
X13305196Y-14184991D01*
X13276624Y-14213563D01*
X13248053Y-14227849D01*
X13548053Y-14413563D02*
X13562338Y-14427849D01*
X13548053Y-14442134D01*
X13533767Y-14427849D01*
X13548053Y-14413563D01*
X13548053Y-14442134D01*
X13748053Y-14142134D02*
X13776624Y-14142134D01*
X13805196Y-14156420D01*
X13819481Y-14170706D01*
X13833767Y-14199277D01*
X13848053Y-14256420D01*
X13848053Y-14327849D01*
X13833767Y-14384991D01*
X13819481Y-14413563D01*
X13805196Y-14427849D01*
X13776624Y-14442134D01*
X13748053Y-14442134D01*
X13719481Y-14427849D01*
X13705196Y-14413563D01*
X13690910Y-14384991D01*
X13676624Y-14327849D01*
X13676624Y-14256420D01*
X13690910Y-14199277D01*
X13705196Y-14170706D01*
X13719481Y-14156420D01*
X13748053Y-14142134D01*
X13962338Y-14170706D02*
X13976624Y-14156420D01*
X14005196Y-14142134D01*
X14076624Y-14142134D01*
X14105196Y-14156420D01*
X14119481Y-14170706D01*
X14133767Y-14199277D01*
X14133767Y-14227849D01*
X14119481Y-14270706D01*
X13948053Y-14442134D01*
X14133767Y-14442134D01*
X14262338Y-14442134D02*
X14262338Y-14242134D01*
X14262338Y-14270706D02*
X14276624Y-14256420D01*
X14305196Y-14242134D01*
X14348053Y-14242134D01*
X14376624Y-14256420D01*
X14390910Y-14284991D01*
X14390910Y-14442134D01*
X14390910Y-14284991D02*
X14405196Y-14256420D01*
X14433767Y-14242134D01*
X14476624Y-14242134D01*
X14505196Y-14256420D01*
X14519481Y-14284991D01*
X14519481Y-14442134D01*
X14662338Y-14442134D02*
X14662338Y-14242134D01*
X14662338Y-14270706D02*
X14676624Y-14256420D01*
X14705196Y-14242134D01*
X14748053Y-14242134D01*
X14776624Y-14256420D01*
X14790910Y-14284991D01*
X14790910Y-14442134D01*
X14790910Y-14284991D02*
X14805196Y-14256420D01*
X14833767Y-14242134D01*
X14876624Y-14242134D01*
X14905196Y-14256420D01*
X14919481Y-14284991D01*
X14919481Y-14442134D01*
X15505196Y-14127849D02*
X15248053Y-14513563D01*
X15890910Y-14142134D02*
X15919481Y-14142134D01*
X15948053Y-14156420D01*
X15962338Y-14170706D01*
X15976624Y-14199277D01*
X15990910Y-14256420D01*
X15990910Y-14327849D01*
X15976624Y-14384991D01*
X15962338Y-14413563D01*
X15948053Y-14427849D01*
X15919481Y-14442134D01*
X15890910Y-14442134D01*
X15862338Y-14427849D01*
X15848053Y-14413563D01*
X15833767Y-14384991D01*
X15819481Y-14327849D01*
X15819481Y-14256420D01*
X15833767Y-14199277D01*
X15848053Y-14170706D01*
X15862338Y-14156420D01*
X15890910Y-14142134D01*
X16119481Y-14413563D02*
X16133767Y-14427849D01*
X16119481Y-14442134D01*
X16105196Y-14427849D01*
X16119481Y-14413563D01*
X16119481Y-14442134D01*
X16319481Y-14142134D02*
X16348053Y-14142134D01*
X16376624Y-14156420D01*
X16390910Y-14170706D01*
X16405195Y-14199277D01*
X16419481Y-14256420D01*
X16419481Y-14327849D01*
X16405195Y-14384991D01*
X16390910Y-14413563D01*
X16376624Y-14427849D01*
X16348053Y-14442134D01*
X16319481Y-14442134D01*
X16290910Y-14427849D01*
X16276624Y-14413563D01*
X16262338Y-14384991D01*
X16248053Y-14327849D01*
X16248053Y-14256420D01*
X16262338Y-14199277D01*
X16276624Y-14170706D01*
X16290910Y-14156420D01*
X16319481Y-14142134D01*
X16676624Y-14242134D02*
X16676624Y-14442134D01*
X16605195Y-14127849D02*
X16533767Y-14342134D01*
X16719481Y-14342134D01*
X16890910Y-14142134D02*
X16919481Y-14142134D01*
X16948053Y-14156420D01*
X16962338Y-14170706D01*
X16976624Y-14199277D01*
X16990910Y-14256420D01*
X16990910Y-14327849D01*
X16976624Y-14384991D01*
X16962338Y-14413563D01*
X16948053Y-14427849D01*
X16919481Y-14442134D01*
X16890910Y-14442134D01*
X16862338Y-14427849D01*
X16848053Y-14413563D01*
X16833767Y-14384991D01*
X16819481Y-14327849D01*
X16819481Y-14256420D01*
X16833767Y-14199277D01*
X16848053Y-14170706D01*
X16862338Y-14156420D01*
X16890910Y-14142134D01*
X17105196Y-14142134D02*
X17105196Y-14199277D01*
X17219481Y-14142134D02*
X17219481Y-14199277D01*
X17662338Y-14556420D02*
X17648053Y-14542134D01*
X17619481Y-14499277D01*
X17605196Y-14470706D01*
X17590910Y-14427849D01*
X17576624Y-14356420D01*
X17576624Y-14299277D01*
X17590910Y-14227849D01*
X17605196Y-14184991D01*
X17619481Y-14156420D01*
X17648053Y-14113563D01*
X17662338Y-14099277D01*
X17762338Y-14170706D02*
X17776624Y-14156420D01*
X17805196Y-14142134D01*
X17876624Y-14142134D01*
X17905196Y-14156420D01*
X17919481Y-14170706D01*
X17933767Y-14199277D01*
X17933767Y-14227849D01*
X17919481Y-14270706D01*
X17748053Y-14442134D01*
X17933767Y-14442134D01*
X18048053Y-14170706D02*
X18062338Y-14156420D01*
X18090910Y-14142134D01*
X18162338Y-14142134D01*
X18190910Y-14156420D01*
X18205196Y-14170706D01*
X18219481Y-14199277D01*
X18219481Y-14227849D01*
X18205196Y-14270706D01*
X18033767Y-14442134D01*
X18219481Y-14442134D01*
X18576624Y-14442134D02*
X18576624Y-14142134D01*
X18705196Y-14442134D02*
X18705196Y-14284991D01*
X18690910Y-14256420D01*
X18662338Y-14242134D01*
X18619481Y-14242134D01*
X18590910Y-14256420D01*
X18576624Y-14270706D01*
X18890910Y-14442134D02*
X18862338Y-14427849D01*
X18848053Y-14413563D01*
X18833767Y-14384991D01*
X18833767Y-14299277D01*
X18848053Y-14270706D01*
X18862338Y-14256420D01*
X18890910Y-14242134D01*
X18933767Y-14242134D01*
X18962338Y-14256420D01*
X18976624Y-14270706D01*
X18990910Y-14299277D01*
X18990910Y-14384991D01*
X18976624Y-14413563D01*
X18962338Y-14427849D01*
X18933767Y-14442134D01*
X18890910Y-14442134D01*
X19162338Y-14442134D02*
X19133767Y-14427849D01*
X19119481Y-14399277D01*
X19119481Y-14142134D01*
X19390910Y-14427849D02*
X19362339Y-14442134D01*
X19305196Y-14442134D01*
X19276624Y-14427849D01*
X19262339Y-14399277D01*
X19262339Y-14284991D01*
X19276624Y-14256420D01*
X19305196Y-14242134D01*
X19362339Y-14242134D01*
X19390910Y-14256420D01*
X19405196Y-14284991D01*
X19405196Y-14313563D01*
X19262339Y-14342134D01*
X19519481Y-14427849D02*
X19548053Y-14442134D01*
X19605196Y-14442134D01*
X19633767Y-14427849D01*
X19648053Y-14399277D01*
X19648053Y-14384991D01*
X19633767Y-14356420D01*
X19605196Y-14342134D01*
X19562339Y-14342134D01*
X19533767Y-14327849D01*
X19519481Y-14299277D01*
X19519481Y-14284991D01*
X19533767Y-14256420D01*
X19562339Y-14242134D01*
X19605196Y-14242134D01*
X19633767Y-14256420D01*
X19748053Y-14556420D02*
X19762339Y-14542134D01*
X19790910Y-14499277D01*
X19805196Y-14470706D01*
X19819481Y-14427849D01*
X19833767Y-14356420D01*
X19833767Y-14299277D01*
X19819481Y-14227849D01*
X19805196Y-14184991D01*
X19790910Y-14156420D01*
X19762339Y-14113563D01*
X19748053Y-14099277D01*
X12840910Y-14627420D02*
X12990910Y-14777420D01*
X12990910Y-14627420D02*
X12840910Y-14777420D01*
X12915910Y-14627420D02*
X12915910Y-14777420D01*
X12840910Y-14702420D02*
X12990910Y-14702420D01*
X13419481Y-14838134D02*
X13248053Y-14838134D01*
X13333767Y-14838134D02*
X13333767Y-14538134D01*
X13305196Y-14580991D01*
X13276624Y-14609563D01*
X13248053Y-14623849D01*
X13548053Y-14809563D02*
X13562338Y-14823849D01*
X13548053Y-14838134D01*
X13533767Y-14823849D01*
X13548053Y-14809563D01*
X13548053Y-14838134D01*
X13833767Y-14538134D02*
X13690910Y-14538134D01*
X13676624Y-14680991D01*
X13690910Y-14666706D01*
X13719481Y-14652420D01*
X13790910Y-14652420D01*
X13819481Y-14666706D01*
X13833767Y-14680991D01*
X13848053Y-14709563D01*
X13848053Y-14780991D01*
X13833767Y-14809563D01*
X13819481Y-14823849D01*
X13790910Y-14838134D01*
X13719481Y-14838134D01*
X13690910Y-14823849D01*
X13676624Y-14809563D01*
X14033767Y-14538134D02*
X14062338Y-14538134D01*
X14090910Y-14552420D01*
X14105196Y-14566706D01*
X14119481Y-14595277D01*
X14133767Y-14652420D01*
X14133767Y-14723849D01*
X14119481Y-14780991D01*
X14105196Y-14809563D01*
X14090910Y-14823849D01*
X14062338Y-14838134D01*
X14033767Y-14838134D01*
X14005196Y-14823849D01*
X13990910Y-14809563D01*
X13976624Y-14780991D01*
X13962338Y-14723849D01*
X13962338Y-14652420D01*
X13976624Y-14595277D01*
X13990910Y-14566706D01*
X14005196Y-14552420D01*
X14033767Y-14538134D01*
X14262338Y-14838134D02*
X14262338Y-14638134D01*
X14262338Y-14666706D02*
X14276624Y-14652420D01*
X14305196Y-14638134D01*
X14348053Y-14638134D01*
X14376624Y-14652420D01*
X14390910Y-14680991D01*
X14390910Y-14838134D01*
X14390910Y-14680991D02*
X14405196Y-14652420D01*
X14433767Y-14638134D01*
X14476624Y-14638134D01*
X14505196Y-14652420D01*
X14519481Y-14680991D01*
X14519481Y-14838134D01*
X14662338Y-14838134D02*
X14662338Y-14638134D01*
X14662338Y-14666706D02*
X14676624Y-14652420D01*
X14705196Y-14638134D01*
X14748053Y-14638134D01*
X14776624Y-14652420D01*
X14790910Y-14680991D01*
X14790910Y-14838134D01*
X14790910Y-14680991D02*
X14805196Y-14652420D01*
X14833767Y-14638134D01*
X14876624Y-14638134D01*
X14905196Y-14652420D01*
X14919481Y-14680991D01*
X14919481Y-14838134D01*
X15505196Y-14523849D02*
X15248053Y-14909563D01*
X15890910Y-14538134D02*
X15919481Y-14538134D01*
X15948053Y-14552420D01*
X15962338Y-14566706D01*
X15976624Y-14595277D01*
X15990910Y-14652420D01*
X15990910Y-14723849D01*
X15976624Y-14780991D01*
X15962338Y-14809563D01*
X15948053Y-14823849D01*
X15919481Y-14838134D01*
X15890910Y-14838134D01*
X15862338Y-14823849D01*
X15848053Y-14809563D01*
X15833767Y-14780991D01*
X15819481Y-14723849D01*
X15819481Y-14652420D01*
X15833767Y-14595277D01*
X15848053Y-14566706D01*
X15862338Y-14552420D01*
X15890910Y-14538134D01*
X16119481Y-14809563D02*
X16133767Y-14823849D01*
X16119481Y-14838134D01*
X16105196Y-14823849D01*
X16119481Y-14809563D01*
X16119481Y-14838134D01*
X16319481Y-14538134D02*
X16348053Y-14538134D01*
X16376624Y-14552420D01*
X16390910Y-14566706D01*
X16405195Y-14595277D01*
X16419481Y-14652420D01*
X16419481Y-14723849D01*
X16405195Y-14780991D01*
X16390910Y-14809563D01*
X16376624Y-14823849D01*
X16348053Y-14838134D01*
X16319481Y-14838134D01*
X16290910Y-14823849D01*
X16276624Y-14809563D01*
X16262338Y-14780991D01*
X16248053Y-14723849D01*
X16248053Y-14652420D01*
X16262338Y-14595277D01*
X16276624Y-14566706D01*
X16290910Y-14552420D01*
X16319481Y-14538134D01*
X16690910Y-14538134D02*
X16548053Y-14538134D01*
X16533767Y-14680991D01*
X16548053Y-14666706D01*
X16576624Y-14652420D01*
X16648053Y-14652420D01*
X16676624Y-14666706D01*
X16690910Y-14680991D01*
X16705195Y-14709563D01*
X16705195Y-14780991D01*
X16690910Y-14809563D01*
X16676624Y-14823849D01*
X16648053Y-14838134D01*
X16576624Y-14838134D01*
X16548053Y-14823849D01*
X16533767Y-14809563D01*
X16848053Y-14838134D02*
X16905196Y-14838134D01*
X16933767Y-14823849D01*
X16948053Y-14809563D01*
X16976624Y-14766706D01*
X16990910Y-14709563D01*
X16990910Y-14595277D01*
X16976624Y-14566706D01*
X16962338Y-14552420D01*
X16933767Y-14538134D01*
X16876624Y-14538134D01*
X16848053Y-14552420D01*
X16833767Y-14566706D01*
X16819481Y-14595277D01*
X16819481Y-14666706D01*
X16833767Y-14695277D01*
X16848053Y-14709563D01*
X16876624Y-14723849D01*
X16933767Y-14723849D01*
X16962338Y-14709563D01*
X16976624Y-14695277D01*
X16990910Y-14666706D01*
X17105196Y-14538134D02*
X17105196Y-14595277D01*
X17219481Y-14538134D02*
X17219481Y-14595277D01*
X17662338Y-14952420D02*
X17648053Y-14938134D01*
X17619481Y-14895277D01*
X17605196Y-14866706D01*
X17590910Y-14823849D01*
X17576624Y-14752420D01*
X17576624Y-14695277D01*
X17590910Y-14623849D01*
X17605196Y-14580991D01*
X17619481Y-14552420D01*
X17648053Y-14509563D01*
X17662338Y-14495277D01*
X17762338Y-14566706D02*
X17776624Y-14552420D01*
X17805196Y-14538134D01*
X17876624Y-14538134D01*
X17905196Y-14552420D01*
X17919481Y-14566706D01*
X17933767Y-14595277D01*
X17933767Y-14623849D01*
X17919481Y-14666706D01*
X17748053Y-14838134D01*
X17933767Y-14838134D01*
X18290910Y-14838134D02*
X18290910Y-14538134D01*
X18419481Y-14838134D02*
X18419481Y-14680991D01*
X18405196Y-14652420D01*
X18376624Y-14638134D01*
X18333767Y-14638134D01*
X18305196Y-14652420D01*
X18290910Y-14666706D01*
X18605196Y-14838134D02*
X18576624Y-14823849D01*
X18562338Y-14809563D01*
X18548053Y-14780991D01*
X18548053Y-14695277D01*
X18562338Y-14666706D01*
X18576624Y-14652420D01*
X18605196Y-14638134D01*
X18648053Y-14638134D01*
X18676624Y-14652420D01*
X18690910Y-14666706D01*
X18705196Y-14695277D01*
X18705196Y-14780991D01*
X18690910Y-14809563D01*
X18676624Y-14823849D01*
X18648053Y-14838134D01*
X18605196Y-14838134D01*
X18876624Y-14838134D02*
X18848053Y-14823849D01*
X18833767Y-14795277D01*
X18833767Y-14538134D01*
X19105196Y-14823849D02*
X19076624Y-14838134D01*
X19019481Y-14838134D01*
X18990910Y-14823849D01*
X18976624Y-14795277D01*
X18976624Y-14680991D01*
X18990910Y-14652420D01*
X19019481Y-14638134D01*
X19076624Y-14638134D01*
X19105196Y-14652420D01*
X19119481Y-14680991D01*
X19119481Y-14709563D01*
X18976624Y-14738134D01*
X19233767Y-14823849D02*
X19262339Y-14838134D01*
X19319481Y-14838134D01*
X19348053Y-14823849D01*
X19362339Y-14795277D01*
X19362339Y-14780991D01*
X19348053Y-14752420D01*
X19319481Y-14738134D01*
X19276624Y-14738134D01*
X19248053Y-14723849D01*
X19233767Y-14695277D01*
X19233767Y-14680991D01*
X19248053Y-14652420D01*
X19276624Y-14638134D01*
X19319481Y-14638134D01*
X19348053Y-14652420D01*
X19462338Y-14952420D02*
X19476624Y-14938134D01*
X19505196Y-14895277D01*
X19519481Y-14866706D01*
X19533767Y-14823849D01*
X19548053Y-14752420D01*
X19548053Y-14695277D01*
X19533767Y-14623849D01*
X19519481Y-14580991D01*
X19505196Y-14552420D01*
X19476624Y-14509563D01*
X19462338Y-14495277D01*
X12810910Y-15008420D02*
X12990910Y-15188420D01*
X12990910Y-15008420D02*
X12810910Y-15188420D01*
X12964550Y-15162060D02*
X12964550Y-15034780D01*
X12837270Y-15034780D01*
X12837270Y-15162060D01*
X12964550Y-15162060D01*
X13419481Y-15234134D02*
X13248053Y-15234134D01*
X13333767Y-15234134D02*
X13333767Y-14934134D01*
X13305196Y-14976991D01*
X13276624Y-15005563D01*
X13248053Y-15019849D01*
X13548053Y-15205563D02*
X13562338Y-15219849D01*
X13548053Y-15234134D01*
X13533767Y-15219849D01*
X13548053Y-15205563D01*
X13548053Y-15234134D01*
X13733767Y-15062706D02*
X13705196Y-15048420D01*
X13690910Y-15034134D01*
X13676624Y-15005563D01*
X13676624Y-14991277D01*
X13690910Y-14962706D01*
X13705196Y-14948420D01*
X13733767Y-14934134D01*
X13790910Y-14934134D01*
X13819481Y-14948420D01*
X13833767Y-14962706D01*
X13848053Y-14991277D01*
X13848053Y-15005563D01*
X13833767Y-15034134D01*
X13819481Y-15048420D01*
X13790910Y-15062706D01*
X13733767Y-15062706D01*
X13705196Y-15076991D01*
X13690910Y-15091277D01*
X13676624Y-15119849D01*
X13676624Y-15176991D01*
X13690910Y-15205563D01*
X13705196Y-15219849D01*
X13733767Y-15234134D01*
X13790910Y-15234134D01*
X13819481Y-15219849D01*
X13833767Y-15205563D01*
X13848053Y-15176991D01*
X13848053Y-15119849D01*
X13833767Y-15091277D01*
X13819481Y-15076991D01*
X13790910Y-15062706D01*
X14033767Y-14934134D02*
X14062338Y-14934134D01*
X14090910Y-14948420D01*
X14105196Y-14962706D01*
X14119481Y-14991277D01*
X14133767Y-15048420D01*
X14133767Y-15119849D01*
X14119481Y-15176991D01*
X14105196Y-15205563D01*
X14090910Y-15219849D01*
X14062338Y-15234134D01*
X14033767Y-15234134D01*
X14005196Y-15219849D01*
X13990910Y-15205563D01*
X13976624Y-15176991D01*
X13962338Y-15119849D01*
X13962338Y-15048420D01*
X13976624Y-14991277D01*
X13990910Y-14962706D01*
X14005196Y-14948420D01*
X14033767Y-14934134D01*
X14262338Y-15234134D02*
X14262338Y-15034134D01*
X14262338Y-15062706D02*
X14276624Y-15048420D01*
X14305196Y-15034134D01*
X14348053Y-15034134D01*
X14376624Y-15048420D01*
X14390910Y-15076991D01*
X14390910Y-15234134D01*
X14390910Y-15076991D02*
X14405196Y-15048420D01*
X14433767Y-15034134D01*
X14476624Y-15034134D01*
X14505196Y-15048420D01*
X14519481Y-15076991D01*
X14519481Y-15234134D01*
X14662338Y-15234134D02*
X14662338Y-15034134D01*
X14662338Y-15062706D02*
X14676624Y-15048420D01*
X14705196Y-15034134D01*
X14748053Y-15034134D01*
X14776624Y-15048420D01*
X14790910Y-15076991D01*
X14790910Y-15234134D01*
X14790910Y-15076991D02*
X14805196Y-15048420D01*
X14833767Y-15034134D01*
X14876624Y-15034134D01*
X14905196Y-15048420D01*
X14919481Y-15076991D01*
X14919481Y-15234134D01*
X15505196Y-14919849D02*
X15248053Y-15305563D01*
X15890910Y-14934134D02*
X15919481Y-14934134D01*
X15948053Y-14948420D01*
X15962338Y-14962706D01*
X15976624Y-14991277D01*
X15990910Y-15048420D01*
X15990910Y-15119849D01*
X15976624Y-15176991D01*
X15962338Y-15205563D01*
X15948053Y-15219849D01*
X15919481Y-15234134D01*
X15890910Y-15234134D01*
X15862338Y-15219849D01*
X15848053Y-15205563D01*
X15833767Y-15176991D01*
X15819481Y-15119849D01*
X15819481Y-15048420D01*
X15833767Y-14991277D01*
X15848053Y-14962706D01*
X15862338Y-14948420D01*
X15890910Y-14934134D01*
X16119481Y-15205563D02*
X16133767Y-15219849D01*
X16119481Y-15234134D01*
X16105196Y-15219849D01*
X16119481Y-15205563D01*
X16119481Y-15234134D01*
X16319481Y-14934134D02*
X16348053Y-14934134D01*
X16376624Y-14948420D01*
X16390910Y-14962706D01*
X16405195Y-14991277D01*
X16419481Y-15048420D01*
X16419481Y-15119849D01*
X16405195Y-15176991D01*
X16390910Y-15205563D01*
X16376624Y-15219849D01*
X16348053Y-15234134D01*
X16319481Y-15234134D01*
X16290910Y-15219849D01*
X16276624Y-15205563D01*
X16262338Y-15176991D01*
X16248053Y-15119849D01*
X16248053Y-15048420D01*
X16262338Y-14991277D01*
X16276624Y-14962706D01*
X16290910Y-14948420D01*
X16319481Y-14934134D01*
X16519481Y-14934134D02*
X16719481Y-14934134D01*
X16590910Y-15234134D01*
X16990910Y-15234134D02*
X16819481Y-15234134D01*
X16905196Y-15234134D02*
X16905196Y-14934134D01*
X16876624Y-14976991D01*
X16848053Y-15005563D01*
X16819481Y-15019849D01*
X17105196Y-14934134D02*
X17105196Y-14991277D01*
X17219481Y-14934134D02*
X17219481Y-14991277D01*
X17662338Y-15348420D02*
X17648053Y-15334134D01*
X17619481Y-15291277D01*
X17605196Y-15262706D01*
X17590910Y-15219849D01*
X17576624Y-15148420D01*
X17576624Y-15091277D01*
X17590910Y-15019849D01*
X17605196Y-14976991D01*
X17619481Y-14948420D01*
X17648053Y-14905563D01*
X17662338Y-14891277D01*
X17762338Y-14962706D02*
X17776624Y-14948420D01*
X17805196Y-14934134D01*
X17876624Y-14934134D01*
X17905196Y-14948420D01*
X17919481Y-14962706D01*
X17933767Y-14991277D01*
X17933767Y-15019849D01*
X17919481Y-15062706D01*
X17748053Y-15234134D01*
X17933767Y-15234134D01*
X18290910Y-15234134D02*
X18290910Y-14934134D01*
X18419481Y-15234134D02*
X18419481Y-15076991D01*
X18405196Y-15048420D01*
X18376624Y-15034134D01*
X18333767Y-15034134D01*
X18305196Y-15048420D01*
X18290910Y-15062706D01*
X18605196Y-15234134D02*
X18576624Y-15219849D01*
X18562338Y-15205563D01*
X18548053Y-15176991D01*
X18548053Y-15091277D01*
X18562338Y-15062706D01*
X18576624Y-15048420D01*
X18605196Y-15034134D01*
X18648053Y-15034134D01*
X18676624Y-15048420D01*
X18690910Y-15062706D01*
X18705196Y-15091277D01*
X18705196Y-15176991D01*
X18690910Y-15205563D01*
X18676624Y-15219849D01*
X18648053Y-15234134D01*
X18605196Y-15234134D01*
X18876624Y-15234134D02*
X18848053Y-15219849D01*
X18833767Y-15191277D01*
X18833767Y-14934134D01*
X19105196Y-15219849D02*
X19076624Y-15234134D01*
X19019481Y-15234134D01*
X18990910Y-15219849D01*
X18976624Y-15191277D01*
X18976624Y-15076991D01*
X18990910Y-15048420D01*
X19019481Y-15034134D01*
X19076624Y-15034134D01*
X19105196Y-15048420D01*
X19119481Y-15076991D01*
X19119481Y-15105563D01*
X18976624Y-15134134D01*
X19233767Y-15219849D02*
X19262339Y-15234134D01*
X19319481Y-15234134D01*
X19348053Y-15219849D01*
X19362339Y-15191277D01*
X19362339Y-15176991D01*
X19348053Y-15148420D01*
X19319481Y-15134134D01*
X19276624Y-15134134D01*
X19248053Y-15119849D01*
X19233767Y-15091277D01*
X19233767Y-15076991D01*
X19248053Y-15048420D01*
X19276624Y-15034134D01*
X19319481Y-15034134D01*
X19348053Y-15048420D01*
X19462338Y-15348420D02*
X19476624Y-15334134D01*
X19505196Y-15291277D01*
X19519481Y-15262706D01*
X19533767Y-15219849D01*
X19548053Y-15148420D01*
X19548053Y-15091277D01*
X19533767Y-15019849D01*
X19519481Y-14976991D01*
X19505196Y-14948420D01*
X19476624Y-14905563D01*
X19462338Y-14891277D01*
X12720908Y-15359419D02*
X12990910Y-15629421D01*
X12990910Y-15359419D02*
X12720908Y-15629421D01*
X12855909Y-15629421D02*
X12990910Y-15494420D01*
X12855909Y-15359419D01*
X12720908Y-15494420D01*
X12855909Y-15629421D01*
X13248053Y-15358706D02*
X13262338Y-15344420D01*
X13290910Y-15330134D01*
X13362338Y-15330134D01*
X13390910Y-15344420D01*
X13405196Y-15358706D01*
X13419481Y-15387277D01*
X13419481Y-15415849D01*
X13405196Y-15458706D01*
X13233767Y-15630134D01*
X13419481Y-15630134D01*
X13548053Y-15601563D02*
X13562338Y-15615849D01*
X13548053Y-15630134D01*
X13533767Y-15615849D01*
X13548053Y-15601563D01*
X13548053Y-15630134D01*
X13662338Y-15330134D02*
X13862338Y-15330134D01*
X13733767Y-15630134D01*
X14033767Y-15330134D02*
X14062338Y-15330134D01*
X14090910Y-15344420D01*
X14105196Y-15358706D01*
X14119481Y-15387277D01*
X14133767Y-15444420D01*
X14133767Y-15515849D01*
X14119481Y-15572991D01*
X14105196Y-15601563D01*
X14090910Y-15615849D01*
X14062338Y-15630134D01*
X14033767Y-15630134D01*
X14005196Y-15615849D01*
X13990910Y-15601563D01*
X13976624Y-15572991D01*
X13962338Y-15515849D01*
X13962338Y-15444420D01*
X13976624Y-15387277D01*
X13990910Y-15358706D01*
X14005196Y-15344420D01*
X14033767Y-15330134D01*
X14262338Y-15630134D02*
X14262338Y-15430134D01*
X14262338Y-15458706D02*
X14276624Y-15444420D01*
X14305196Y-15430134D01*
X14348053Y-15430134D01*
X14376624Y-15444420D01*
X14390910Y-15472991D01*
X14390910Y-15630134D01*
X14390910Y-15472991D02*
X14405196Y-15444420D01*
X14433767Y-15430134D01*
X14476624Y-15430134D01*
X14505196Y-15444420D01*
X14519481Y-15472991D01*
X14519481Y-15630134D01*
X14662338Y-15630134D02*
X14662338Y-15430134D01*
X14662338Y-15458706D02*
X14676624Y-15444420D01*
X14705196Y-15430134D01*
X14748053Y-15430134D01*
X14776624Y-15444420D01*
X14790910Y-15472991D01*
X14790910Y-15630134D01*
X14790910Y-15472991D02*
X14805196Y-15444420D01*
X14833767Y-15430134D01*
X14876624Y-15430134D01*
X14905196Y-15444420D01*
X14919481Y-15472991D01*
X14919481Y-15630134D01*
X15505196Y-15315849D02*
X15248053Y-15701563D01*
X15890910Y-15330134D02*
X15919481Y-15330134D01*
X15948053Y-15344420D01*
X15962338Y-15358706D01*
X15976624Y-15387277D01*
X15990910Y-15444420D01*
X15990910Y-15515849D01*
X15976624Y-15572991D01*
X15962338Y-15601563D01*
X15948053Y-15615849D01*
X15919481Y-15630134D01*
X15890910Y-15630134D01*
X15862338Y-15615849D01*
X15848053Y-15601563D01*
X15833767Y-15572991D01*
X15819481Y-15515849D01*
X15819481Y-15444420D01*
X15833767Y-15387277D01*
X15848053Y-15358706D01*
X15862338Y-15344420D01*
X15890910Y-15330134D01*
X16119481Y-15601563D02*
X16133767Y-15615849D01*
X16119481Y-15630134D01*
X16105196Y-15615849D01*
X16119481Y-15601563D01*
X16119481Y-15630134D01*
X16419481Y-15630134D02*
X16248053Y-15630134D01*
X16333767Y-15630134D02*
X16333767Y-15330134D01*
X16305195Y-15372991D01*
X16276624Y-15401563D01*
X16248053Y-15415849D01*
X16605195Y-15330134D02*
X16633767Y-15330134D01*
X16662338Y-15344420D01*
X16676624Y-15358706D01*
X16690910Y-15387277D01*
X16705195Y-15444420D01*
X16705195Y-15515849D01*
X16690910Y-15572991D01*
X16676624Y-15601563D01*
X16662338Y-15615849D01*
X16633767Y-15630134D01*
X16605195Y-15630134D01*
X16576624Y-15615849D01*
X16562338Y-15601563D01*
X16548053Y-15572991D01*
X16533767Y-15515849D01*
X16533767Y-15444420D01*
X16548053Y-15387277D01*
X16562338Y-15358706D01*
X16576624Y-15344420D01*
X16605195Y-15330134D01*
X16962338Y-15330134D02*
X16905196Y-15330134D01*
X16876624Y-15344420D01*
X16862338Y-15358706D01*
X16833767Y-15401563D01*
X16819481Y-15458706D01*
X16819481Y-15572991D01*
X16833767Y-15601563D01*
X16848053Y-15615849D01*
X16876624Y-15630134D01*
X16933767Y-15630134D01*
X16962338Y-15615849D01*
X16976624Y-15601563D01*
X16990910Y-15572991D01*
X16990910Y-15501563D01*
X16976624Y-15472991D01*
X16962338Y-15458706D01*
X16933767Y-15444420D01*
X16876624Y-15444420D01*
X16848053Y-15458706D01*
X16833767Y-15472991D01*
X16819481Y-15501563D01*
X17105196Y-15330134D02*
X17105196Y-15387277D01*
X17219481Y-15330134D02*
X17219481Y-15387277D01*
X17662338Y-15744420D02*
X17648053Y-15730134D01*
X17619481Y-15687277D01*
X17605196Y-15658706D01*
X17590910Y-15615849D01*
X17576624Y-15544420D01*
X17576624Y-15487277D01*
X17590910Y-15415849D01*
X17605196Y-15372991D01*
X17619481Y-15344420D01*
X17648053Y-15301563D01*
X17662338Y-15287277D01*
X17933767Y-15630134D02*
X17762338Y-15630134D01*
X17848053Y-15630134D02*
X17848053Y-15330134D01*
X17819481Y-15372991D01*
X17790910Y-15401563D01*
X17762338Y-15415849D01*
X18290910Y-15630134D02*
X18290910Y-15330134D01*
X18419481Y-15630134D02*
X18419481Y-15472991D01*
X18405196Y-15444420D01*
X18376624Y-15430134D01*
X18333767Y-15430134D01*
X18305196Y-15444420D01*
X18290910Y-15458706D01*
X18605196Y-15630134D02*
X18576624Y-15615849D01*
X18562338Y-15601563D01*
X18548053Y-15572991D01*
X18548053Y-15487277D01*
X18562338Y-15458706D01*
X18576624Y-15444420D01*
X18605196Y-15430134D01*
X18648053Y-15430134D01*
X18676624Y-15444420D01*
X18690910Y-15458706D01*
X18705196Y-15487277D01*
X18705196Y-15572991D01*
X18690910Y-15601563D01*
X18676624Y-15615849D01*
X18648053Y-15630134D01*
X18605196Y-15630134D01*
X18876624Y-15630134D02*
X18848053Y-15615849D01*
X18833767Y-15587277D01*
X18833767Y-15330134D01*
X19105196Y-15615849D02*
X19076624Y-15630134D01*
X19019481Y-15630134D01*
X18990910Y-15615849D01*
X18976624Y-15587277D01*
X18976624Y-15472991D01*
X18990910Y-15444420D01*
X19019481Y-15430134D01*
X19076624Y-15430134D01*
X19105196Y-15444420D01*
X19119481Y-15472991D01*
X19119481Y-15501563D01*
X18976624Y-15530134D01*
X19219481Y-15744420D02*
X19233767Y-15730134D01*
X19262339Y-15687277D01*
X19276624Y-15658706D01*
X19290910Y-15615849D01*
X19305196Y-15544420D01*
X19305196Y-15487277D01*
X19290910Y-15415849D01*
X19276624Y-15372991D01*
X19262339Y-15344420D01*
X19233767Y-15301563D01*
X19219481Y-15287277D01*
X12795910Y-15699422D02*
X12795910Y-16089422D01*
X12600910Y-15894422D02*
X12990910Y-15894422D01*
X12990910Y-15894422D02*
G75*
G03X12990910Y-15894422I-195000J0D01*
G01*
X13233767Y-15730136D02*
X13419481Y-15730136D01*
X13319481Y-15844422D01*
X13362338Y-15844422D01*
X13390910Y-15858708D01*
X13405196Y-15872993D01*
X13419481Y-15901565D01*
X13419481Y-15972993D01*
X13405196Y-16001565D01*
X13390910Y-16015851D01*
X13362338Y-16030136D01*
X13276624Y-16030136D01*
X13248053Y-16015851D01*
X13233767Y-16001565D01*
X13548053Y-16001565D02*
X13562338Y-16015851D01*
X13548053Y-16030136D01*
X13533767Y-16015851D01*
X13548053Y-16001565D01*
X13548053Y-16030136D01*
X13705196Y-16030136D02*
X13762338Y-16030136D01*
X13790910Y-16015851D01*
X13805196Y-16001565D01*
X13833767Y-15958708D01*
X13848053Y-15901565D01*
X13848053Y-15787279D01*
X13833767Y-15758708D01*
X13819481Y-15744422D01*
X13790910Y-15730136D01*
X13733767Y-15730136D01*
X13705196Y-15744422D01*
X13690910Y-15758708D01*
X13676624Y-15787279D01*
X13676624Y-15858708D01*
X13690910Y-15887279D01*
X13705196Y-15901565D01*
X13733767Y-15915851D01*
X13790910Y-15915851D01*
X13819481Y-15901565D01*
X13833767Y-15887279D01*
X13848053Y-15858708D01*
X14033767Y-15730136D02*
X14062338Y-15730136D01*
X14090910Y-15744422D01*
X14105196Y-15758708D01*
X14119481Y-15787279D01*
X14133767Y-15844422D01*
X14133767Y-15915851D01*
X14119481Y-15972993D01*
X14105196Y-16001565D01*
X14090910Y-16015851D01*
X14062338Y-16030136D01*
X14033767Y-16030136D01*
X14005196Y-16015851D01*
X13990910Y-16001565D01*
X13976624Y-15972993D01*
X13962338Y-15915851D01*
X13962338Y-15844422D01*
X13976624Y-15787279D01*
X13990910Y-15758708D01*
X14005196Y-15744422D01*
X14033767Y-15730136D01*
X14262338Y-16030136D02*
X14262338Y-15830136D01*
X14262338Y-15858708D02*
X14276624Y-15844422D01*
X14305196Y-15830136D01*
X14348053Y-15830136D01*
X14376624Y-15844422D01*
X14390910Y-15872993D01*
X14390910Y-16030136D01*
X14390910Y-15872993D02*
X14405196Y-15844422D01*
X14433767Y-15830136D01*
X14476624Y-15830136D01*
X14505196Y-15844422D01*
X14519481Y-15872993D01*
X14519481Y-16030136D01*
X14662338Y-16030136D02*
X14662338Y-15830136D01*
X14662338Y-15858708D02*
X14676624Y-15844422D01*
X14705196Y-15830136D01*
X14748053Y-15830136D01*
X14776624Y-15844422D01*
X14790910Y-15872993D01*
X14790910Y-16030136D01*
X14790910Y-15872993D02*
X14805196Y-15844422D01*
X14833767Y-15830136D01*
X14876624Y-15830136D01*
X14905196Y-15844422D01*
X14919481Y-15872993D01*
X14919481Y-16030136D01*
X15505196Y-15715851D02*
X15248053Y-16101565D01*
X15890910Y-15730136D02*
X15919481Y-15730136D01*
X15948053Y-15744422D01*
X15962338Y-15758708D01*
X15976624Y-15787279D01*
X15990910Y-15844422D01*
X15990910Y-15915851D01*
X15976624Y-15972993D01*
X15962338Y-16001565D01*
X15948053Y-16015851D01*
X15919481Y-16030136D01*
X15890910Y-16030136D01*
X15862338Y-16015851D01*
X15848053Y-16001565D01*
X15833767Y-15972993D01*
X15819481Y-15915851D01*
X15819481Y-15844422D01*
X15833767Y-15787279D01*
X15848053Y-15758708D01*
X15862338Y-15744422D01*
X15890910Y-15730136D01*
X16119481Y-16001565D02*
X16133767Y-16015851D01*
X16119481Y-16030136D01*
X16105196Y-16015851D01*
X16119481Y-16001565D01*
X16119481Y-16030136D01*
X16419481Y-16030136D02*
X16248053Y-16030136D01*
X16333767Y-16030136D02*
X16333767Y-15730136D01*
X16305195Y-15772993D01*
X16276624Y-15801565D01*
X16248053Y-15815851D01*
X16690910Y-15730136D02*
X16548053Y-15730136D01*
X16533767Y-15872993D01*
X16548053Y-15858708D01*
X16576624Y-15844422D01*
X16648053Y-15844422D01*
X16676624Y-15858708D01*
X16690910Y-15872993D01*
X16705195Y-15901565D01*
X16705195Y-15972993D01*
X16690910Y-16001565D01*
X16676624Y-16015851D01*
X16648053Y-16030136D01*
X16576624Y-16030136D01*
X16548053Y-16015851D01*
X16533767Y-16001565D01*
X16962338Y-15830136D02*
X16962338Y-16030136D01*
X16890910Y-15715851D02*
X16819481Y-15930136D01*
X17005196Y-15930136D01*
X17105196Y-15730136D02*
X17105196Y-15787279D01*
X17219481Y-15730136D02*
X17219481Y-15787279D01*
X17662338Y-16144422D02*
X17648053Y-16130136D01*
X17619481Y-16087279D01*
X17605196Y-16058708D01*
X17590910Y-16015851D01*
X17576624Y-15944422D01*
X17576624Y-15887279D01*
X17590910Y-15815851D01*
X17605196Y-15772993D01*
X17619481Y-15744422D01*
X17648053Y-15701565D01*
X17662338Y-15687279D01*
X17905196Y-15830136D02*
X17905196Y-16030136D01*
X17833767Y-15715851D02*
X17762338Y-15930136D01*
X17948053Y-15930136D01*
X18290910Y-16030136D02*
X18290910Y-15730136D01*
X18419481Y-16030136D02*
X18419481Y-15872993D01*
X18405196Y-15844422D01*
X18376624Y-15830136D01*
X18333767Y-15830136D01*
X18305196Y-15844422D01*
X18290910Y-15858708D01*
X18605196Y-16030136D02*
X18576624Y-16015851D01*
X18562338Y-16001565D01*
X18548053Y-15972993D01*
X18548053Y-15887279D01*
X18562338Y-15858708D01*
X18576624Y-15844422D01*
X18605196Y-15830136D01*
X18648053Y-15830136D01*
X18676624Y-15844422D01*
X18690910Y-15858708D01*
X18705196Y-15887279D01*
X18705196Y-15972993D01*
X18690910Y-16001565D01*
X18676624Y-16015851D01*
X18648053Y-16030136D01*
X18605196Y-16030136D01*
X18876624Y-16030136D02*
X18848053Y-16015851D01*
X18833767Y-15987279D01*
X18833767Y-15730136D01*
X19105196Y-16015851D02*
X19076624Y-16030136D01*
X19019481Y-16030136D01*
X18990910Y-16015851D01*
X18976624Y-15987279D01*
X18976624Y-15872993D01*
X18990910Y-15844422D01*
X19019481Y-15830136D01*
X19076624Y-15830136D01*
X19105196Y-15844422D01*
X19119481Y-15872993D01*
X19119481Y-15901565D01*
X18976624Y-15930136D01*
X19233767Y-16015851D02*
X19262339Y-16030136D01*
X19319481Y-16030136D01*
X19348053Y-16015851D01*
X19362339Y-15987279D01*
X19362339Y-15972993D01*
X19348053Y-15944422D01*
X19319481Y-15930136D01*
X19276624Y-15930136D01*
X19248053Y-15915851D01*
X19233767Y-15887279D01*
X19233767Y-15872993D01*
X19248053Y-15844422D01*
X19276624Y-15830136D01*
X19319481Y-15830136D01*
X19348053Y-15844422D01*
X19462338Y-16144422D02*
X19476624Y-16130136D01*
X19505196Y-16087279D01*
X19519481Y-16058708D01*
X19533767Y-16015851D01*
X19548053Y-15944422D01*
X19548053Y-15887279D01*
X19533767Y-15815851D01*
X19519481Y-15772993D01*
X19505196Y-15744422D01*
X19476624Y-15701565D01*
X19462338Y-15687279D01*
M02*
