%FSLAX46Y46*%
G04 Gerber Fmt 4.6, Leading zero omitted, Abs format (unit mm)*
G04 Created by KiCad (PCBNEW (2014-10-27 BZR 5228)-product) date 13/03/2015 07:55:43*
%MOMM*%
G01*
G04 APERTURE LIST*
%ADD10C,0.100000*%
%ADD11R,1.250000X1.000000*%
%ADD12R,4.200000X0.700000*%
%ADD13R,1.397000X1.397000*%
%ADD14C,1.397000*%
%ADD15C,1.998980*%
%ADD16C,3.500000*%
%ADD17C,2.000000*%
%ADD18R,1.727200X1.727200*%
%ADD19O,1.727200X1.727200*%
%ADD20R,1.800000X1.800000*%
%ADD21C,1.800000*%
%ADD22C,2.540000*%
%ADD23C,1.727200*%
%ADD24R,1.550000X0.600000*%
%ADD25C,1.524000*%
%ADD26O,1.501140X2.499360*%
%ADD27R,1.000000X1.250000*%
%ADD28R,1.300000X1.500000*%
%ADD29R,1.168400X2.032000*%
%ADD30R,1.524000X2.032000*%
%ADD31R,1.198880X1.198880*%
%ADD32R,1.500000X1.300000*%
%ADD33C,6.350000*%
%ADD34C,0.889000*%
%ADD35C,0.635000*%
%ADD36C,0.254000*%
%ADD37C,1.270000*%
%ADD38C,0.381000*%
%ADD39C,0.508000*%
G04 APERTURE END LIST*
D10*
D11*
X191600000Y-54200000D03*
X191600000Y-56200000D03*
D12*
X129500000Y-74500000D03*
X129500000Y-73500000D03*
X129500000Y-72500000D03*
X129500000Y-71500000D03*
X129500000Y-70500000D03*
X129500000Y-69500000D03*
X129500000Y-68500000D03*
X129500000Y-67500000D03*
X129500000Y-66500000D03*
X129500000Y-65500000D03*
X129500000Y-64500000D03*
X129500000Y-61500000D03*
X129500000Y-60500000D03*
X129500000Y-59500000D03*
X129500000Y-58500000D03*
X129500000Y-57500000D03*
X129500000Y-56500000D03*
X129500000Y-55500000D03*
D13*
X162560000Y-84455000D03*
D14*
X165100000Y-84455000D03*
X167640000Y-84455000D03*
X170180000Y-84455000D03*
X172720000Y-84455000D03*
X172720000Y-76835000D03*
X170180000Y-76835000D03*
X167640000Y-76835000D03*
X165100000Y-76835000D03*
X162560000Y-76835000D03*
D13*
X172339000Y-65913000D03*
D14*
X169799000Y-65913000D03*
X167259000Y-65913000D03*
X164719000Y-65913000D03*
X162179000Y-65913000D03*
X162179000Y-73533000D03*
X164719000Y-73533000D03*
X167259000Y-73533000D03*
X169799000Y-73533000D03*
X172339000Y-73533000D03*
D15*
X158792000Y-79796000D03*
X153204000Y-79796000D03*
X142592000Y-80596000D03*
X137004000Y-80596000D03*
X152496000Y-87308000D03*
X152496000Y-92896000D03*
X144908000Y-79804000D03*
X150496000Y-79804000D03*
X180604000Y-92792000D03*
X180604000Y-87204000D03*
X178008000Y-79004000D03*
X183596000Y-79004000D03*
X167396000Y-87208000D03*
X167396000Y-92796000D03*
X186508000Y-78904000D03*
X192096000Y-78904000D03*
X161108000Y-58304000D03*
X166696000Y-58304000D03*
X174498000Y-55245000D03*
X174498000Y-60833000D03*
D16*
X191800000Y-67600000D03*
X191800000Y-60000000D03*
D17*
X184000000Y-63800000D03*
D18*
X179870000Y-63400000D03*
D19*
X177330000Y-63400000D03*
D18*
X179870000Y-66930000D03*
D19*
X177330000Y-66930000D03*
X179870000Y-69470000D03*
X177330000Y-69470000D03*
D20*
X142200000Y-66800000D03*
D21*
X142200000Y-69300000D03*
X139200000Y-66800000D03*
X142200000Y-71800000D03*
X139200000Y-71800000D03*
X139200000Y-69300000D03*
D20*
X143500000Y-62000000D03*
D21*
X141000000Y-62000000D03*
X143500000Y-59000000D03*
X138500000Y-62000000D03*
X138500000Y-59000000D03*
X141000000Y-59000000D03*
D22*
X163461700Y-39199300D03*
D23*
X163461700Y-43199300D03*
D22*
X163461700Y-47199300D03*
D23*
X163461700Y-51199300D03*
D24*
X185501300Y-48234600D03*
X185501300Y-49504600D03*
X185501300Y-50774600D03*
X185501300Y-52044600D03*
X190901300Y-52044600D03*
X190901300Y-50774600D03*
X190901300Y-49504600D03*
X190901300Y-48234600D03*
D25*
X138600000Y-48460000D03*
X138600000Y-45920000D03*
X138600000Y-51000000D03*
D26*
X153893520Y-39451280D03*
X156433520Y-39451280D03*
X151353520Y-39451280D03*
D11*
X151900000Y-84800000D03*
X151900000Y-82800000D03*
D27*
X184200000Y-54800000D03*
X182200000Y-54800000D03*
D15*
X189899460Y-44800000D03*
X183300540Y-44800000D03*
D28*
X188400000Y-53950000D03*
X188400000Y-56650000D03*
X146700000Y-64050000D03*
X146700000Y-61350000D03*
D29*
X157432200Y-63082000D03*
D30*
X155070000Y-63082000D03*
X152530000Y-63082000D03*
D29*
X150167800Y-63082000D03*
X150167800Y-71718000D03*
D30*
X152530000Y-71718000D03*
X155070000Y-71718000D03*
D29*
X157432200Y-71718000D03*
D31*
X144800000Y-89050980D03*
X144800000Y-91149020D03*
X170949020Y-63300000D03*
X168850980Y-63300000D03*
X182750980Y-71200000D03*
X184849020Y-71200000D03*
D28*
X160000000Y-88550000D03*
X160000000Y-91250000D03*
D32*
X190350000Y-71200000D03*
X187650000Y-71200000D03*
D33*
X189700000Y-39500000D03*
X139100000Y-39500000D03*
X189700000Y-89900000D03*
X139100000Y-90000000D03*
D34*
X150300000Y-86000000D03*
X156200000Y-74200000D03*
X132600000Y-71500000D03*
X132700000Y-74500000D03*
X132700000Y-68500000D03*
X183200000Y-52000000D03*
X190200000Y-57400000D03*
X147700000Y-43100000D03*
X137750000Y-74150000D03*
X136000000Y-72400000D03*
X136000000Y-61400000D03*
X148400000Y-63400000D03*
X138800000Y-55200000D03*
X167500000Y-70900000D03*
X155900000Y-77900000D03*
X147300000Y-69600000D03*
X140900000Y-64000000D03*
X160800000Y-69600000D03*
X186800000Y-58300000D03*
X186600000Y-65700000D03*
X149900000Y-66100000D03*
X133800000Y-65800000D03*
X185500000Y-56600000D03*
X185600000Y-59500000D03*
X155100000Y-65100000D03*
X146600000Y-59200000D03*
X149600000Y-61100000D03*
X170800000Y-59600000D03*
X157700000Y-77700000D03*
X157900000Y-88600000D03*
D35*
X151900000Y-84800000D02*
X151500000Y-84800000D01*
X151500000Y-84800000D02*
X150300000Y-86000000D01*
X146700000Y-61350000D02*
X146700000Y-60900000D01*
X146700000Y-60900000D02*
X144800000Y-59000000D01*
X144800000Y-59000000D02*
X143500000Y-59000000D01*
X155070000Y-71718000D02*
X155070000Y-73070000D01*
X155070000Y-73070000D02*
X156200000Y-74200000D01*
X150167800Y-71718000D02*
X150167800Y-69732200D01*
X155070000Y-69970000D02*
X155070000Y-71718000D01*
X154800000Y-69700000D02*
X155070000Y-69970000D01*
X150200000Y-69700000D02*
X154800000Y-69700000D01*
X150167800Y-69732200D02*
X150200000Y-69700000D01*
D36*
X129500000Y-71500000D02*
X132600000Y-71500000D01*
D35*
X129500000Y-74500000D02*
X132700000Y-74500000D01*
X132700000Y-68500000D02*
X132600000Y-68500000D01*
X129500000Y-65500000D02*
X132200000Y-65500000D01*
X132200000Y-65500000D02*
X132700000Y-66000000D01*
X132700000Y-66000000D02*
X132700000Y-68400000D01*
X132700000Y-68400000D02*
X132600000Y-68500000D01*
X132600000Y-68500000D02*
X129500000Y-68500000D01*
X183400000Y-52000000D02*
X184200000Y-52800000D01*
X184200000Y-52800000D02*
X184200000Y-54800000D01*
X185501300Y-52044600D02*
X183244600Y-52044600D01*
X183244600Y-52044600D02*
X183200000Y-52000000D01*
X183200000Y-52000000D02*
X183400000Y-52000000D01*
X191400000Y-56200000D02*
X190200000Y-57400000D01*
X191600000Y-56200000D02*
X191400000Y-56200000D01*
X190350000Y-77158000D02*
X192096000Y-78904000D01*
X190350000Y-71200000D02*
X190350000Y-77158000D01*
D37*
X152696000Y-87108000D02*
X153792000Y-87108000D01*
X153792000Y-87108000D02*
X155400000Y-85500000D01*
X155400000Y-85500000D02*
X159000000Y-85500000D01*
X159000000Y-85500000D02*
X159200000Y-85300000D01*
X165100000Y-86000000D02*
X165100000Y-84455000D01*
X160300000Y-86400000D02*
X159200000Y-85300000D01*
X164700000Y-86400000D02*
X160300000Y-86400000D01*
X165100000Y-86000000D02*
X164700000Y-86400000D01*
X152696000Y-87108000D02*
X152496000Y-87308000D01*
X186408000Y-79004000D02*
X186508000Y-78904000D01*
X183596000Y-79004000D02*
X186408000Y-79004000D01*
D38*
X143400000Y-54600000D02*
X143500000Y-54600000D01*
X145500000Y-54800000D02*
X145800000Y-54500000D01*
X143700000Y-54800000D02*
X145500000Y-54800000D01*
X143500000Y-54600000D02*
X143700000Y-54800000D01*
X147700000Y-43100000D02*
X147700000Y-40100000D01*
X145800000Y-39900000D02*
X146100000Y-39600000D01*
X147200000Y-39600000D02*
X147700000Y-40100000D01*
X146100000Y-39600000D02*
X147200000Y-39600000D01*
X156433520Y-39451280D02*
X156433520Y-37733520D01*
X145800000Y-54500000D02*
X145800000Y-40000000D01*
X143800000Y-37000000D02*
X143400000Y-37400000D01*
X155700000Y-37000000D02*
X143800000Y-37000000D01*
X156433520Y-37733520D02*
X155700000Y-37000000D01*
X145800000Y-40000000D02*
X145800000Y-39900000D01*
X143400000Y-37400000D02*
X143400000Y-54600000D01*
D37*
X163461700Y-55938300D02*
X163461700Y-51199300D01*
X161108000Y-58292000D02*
X163461700Y-55938300D01*
X161108000Y-58304000D02*
X161108000Y-58292000D01*
X169855000Y-55245000D02*
X174498000Y-55245000D01*
X166796000Y-58304000D02*
X169855000Y-55245000D01*
X166696000Y-58304000D02*
X166796000Y-58304000D01*
D39*
X132900000Y-73500000D02*
X137000000Y-73500000D01*
X129500000Y-73500000D02*
X132900000Y-73500000D01*
X137200000Y-73300000D02*
X137200000Y-70400000D01*
X137000000Y-73500000D02*
X137200000Y-73300000D01*
X137200000Y-70400000D02*
X138300000Y-69300000D01*
X138300000Y-69300000D02*
X139200000Y-69300000D01*
X142200000Y-71800000D02*
X142200000Y-72900000D01*
X141000000Y-74100000D02*
X142200000Y-72900000D01*
X137800000Y-74100000D02*
X141000000Y-74100000D01*
X137800000Y-74100000D02*
X137750000Y-74150000D01*
X129500000Y-72500000D02*
X135900000Y-72500000D01*
X135900000Y-72500000D02*
X136000000Y-72400000D01*
D36*
X136250000Y-69850000D02*
X136350000Y-69850000D01*
X137000000Y-69200000D02*
X137000000Y-60600000D01*
X136350000Y-69850000D02*
X137000000Y-69200000D01*
X139400000Y-60600000D02*
X141000000Y-59000000D01*
X137000000Y-60600000D02*
X139400000Y-60600000D01*
X129500000Y-70500000D02*
X135600000Y-70500000D01*
X135600000Y-70500000D02*
X136250000Y-69850000D01*
X136250000Y-69850000D02*
X136300000Y-69800000D01*
X135600000Y-69100000D02*
X136100000Y-68600000D01*
X135200000Y-69500000D02*
X135600000Y-69100000D01*
X129500000Y-69500000D02*
X135200000Y-69500000D01*
X136100000Y-61500000D02*
X136000000Y-61400000D01*
X136100000Y-68600000D02*
X136100000Y-61500000D01*
X145700000Y-57100000D02*
X145000000Y-56400000D01*
X148300000Y-60200000D02*
X148300000Y-59700000D01*
X148300000Y-59700000D02*
X145700000Y-57100000D01*
X148400000Y-60300000D02*
X148300000Y-60200000D01*
X148400000Y-63400000D02*
X148400000Y-60300000D01*
X140000000Y-56400000D02*
X139900000Y-56300000D01*
X145000000Y-56400000D02*
X140000000Y-56400000D01*
X139900000Y-56300000D02*
X138800000Y-55200000D01*
D37*
X177350000Y-87250000D02*
X180558000Y-87250000D01*
X180558000Y-87250000D02*
X180604000Y-87204000D01*
X170180000Y-77780000D02*
X174300000Y-81900000D01*
X174300000Y-81900000D02*
X174600000Y-81900000D01*
X174600000Y-81900000D02*
X175200000Y-82500000D01*
X175200000Y-82500000D02*
X175200000Y-85100000D01*
X175200000Y-85100000D02*
X177350000Y-87250000D01*
X177350000Y-87250000D02*
X177404000Y-87304000D01*
X170180000Y-76835000D02*
X170180000Y-77780000D01*
X167640000Y-76835000D02*
X167640000Y-76560000D01*
X167640000Y-76560000D02*
X169000000Y-75200000D01*
X176400000Y-75200000D02*
X176600000Y-75200000D01*
X169000000Y-75200000D02*
X176400000Y-75200000D01*
X177330000Y-74270000D02*
X176400000Y-75200000D01*
X177330000Y-69470000D02*
X177330000Y-74270000D01*
D39*
X148850000Y-69750000D02*
X150100000Y-68500000D01*
X160500000Y-70900000D02*
X167500000Y-70900000D01*
X158100000Y-68500000D02*
X160500000Y-70900000D01*
X150100000Y-68500000D02*
X158100000Y-68500000D01*
X148900000Y-69700000D02*
X148850000Y-69750000D01*
X148850000Y-69750000D02*
X147800000Y-70800000D01*
X147800000Y-70800000D02*
X146600000Y-70800000D01*
X146600000Y-70800000D02*
X144500000Y-68700000D01*
X144500000Y-68700000D02*
X144100000Y-68700000D01*
X144100000Y-68700000D02*
X142200000Y-66800000D01*
D37*
X177330000Y-66930000D02*
X177330000Y-63400000D01*
X190600000Y-61200000D02*
X191800000Y-60000000D01*
X178800000Y-61200000D02*
X190600000Y-61200000D01*
X177330000Y-62670000D02*
X178800000Y-61200000D01*
X177330000Y-63400000D02*
X177330000Y-62670000D01*
X191800000Y-60000000D02*
X191800000Y-67600000D01*
X180870000Y-66930000D02*
X184000000Y-63800000D01*
X179870000Y-66930000D02*
X180870000Y-66930000D01*
X151353520Y-41353520D02*
X153199300Y-43199300D01*
X155499300Y-43199300D02*
X163461700Y-43199300D01*
X153199300Y-43199300D02*
X155499300Y-43199300D01*
X151353520Y-39451280D02*
X151353520Y-41353520D01*
X163461700Y-43199300D02*
X163461700Y-47199300D01*
D36*
X189225400Y-50774600D02*
X189000000Y-50549200D01*
X189000000Y-50549200D02*
X189000000Y-49600000D01*
X189000000Y-49600000D02*
X189095400Y-49504600D01*
X189095400Y-49504600D02*
X190901300Y-49504600D01*
X190901300Y-50774600D02*
X189225400Y-50774600D01*
D38*
X146600000Y-56700000D02*
X145500000Y-55600000D01*
X146600000Y-56700000D02*
X150600000Y-60700000D01*
X150600000Y-60700000D02*
X157400000Y-60700000D01*
X157400000Y-60700000D02*
X157800000Y-60300000D01*
X157800000Y-60300000D02*
X168400000Y-60300000D01*
X168400000Y-60300000D02*
X171800000Y-56900000D01*
X171800000Y-56900000D02*
X180100000Y-56900000D01*
X182200000Y-54800000D02*
X180100000Y-56900000D01*
X138600000Y-53700000D02*
X138600000Y-51000000D01*
X140500000Y-55600000D02*
X138600000Y-53700000D01*
X145500000Y-55600000D02*
X140500000Y-55600000D01*
X185501300Y-49504600D02*
X182895400Y-49504600D01*
X182895400Y-49504600D02*
X181800000Y-50600000D01*
X181800000Y-50600000D02*
X181800000Y-54400000D01*
D36*
X181800000Y-54400000D02*
X182200000Y-54800000D01*
X187104600Y-49504600D02*
X187400000Y-49209200D01*
X187234600Y-48234600D02*
X185501300Y-48234600D01*
X185501300Y-49504600D02*
X187104600Y-49504600D01*
X187400000Y-49209200D02*
X187400000Y-48400000D01*
X187400000Y-48400000D02*
X187234600Y-48234600D01*
D38*
X182200000Y-54800000D02*
X181800000Y-54800000D01*
D35*
X186800000Y-56800000D02*
X188250000Y-56800000D01*
X188250000Y-56800000D02*
X188400000Y-56650000D01*
X189900000Y-54200000D02*
X189900000Y-55800000D01*
X191600000Y-54200000D02*
X189900000Y-54200000D01*
X189900000Y-55800000D02*
X189050000Y-56650000D01*
X189050000Y-56650000D02*
X188400000Y-56650000D01*
X160700000Y-82600000D02*
X160705000Y-82600000D01*
X160705000Y-82600000D02*
X162560000Y-84455000D01*
X156700000Y-81800000D02*
X156700000Y-81900000D01*
X155800000Y-82800000D02*
X151900000Y-82800000D01*
X156700000Y-81900000D02*
X155800000Y-82800000D01*
X157500000Y-82600000D02*
X160700000Y-82600000D01*
X155900000Y-77900000D02*
X156700000Y-78700000D01*
X156700000Y-78700000D02*
X156700000Y-81800000D01*
X156700000Y-81800000D02*
X157500000Y-82600000D01*
X186800000Y-58300000D02*
X186800000Y-56800000D01*
X186800000Y-56800000D02*
X186800000Y-56750000D01*
X192200000Y-45200000D02*
X192401260Y-45200000D01*
X190901300Y-46498700D02*
X192200000Y-45200000D01*
X190901300Y-48234600D02*
X190901300Y-46498700D01*
X192100000Y-44898740D02*
X192401260Y-45200000D01*
X192800000Y-45598740D02*
X192100000Y-44898740D01*
X192800000Y-53000000D02*
X192800000Y-45598740D01*
X191600000Y-54200000D02*
X192800000Y-53000000D01*
X189998200Y-44898740D02*
X189899460Y-44800000D01*
X192100000Y-44898740D02*
X189998200Y-44898740D01*
D36*
X172313000Y-65913000D02*
X172339000Y-65913000D01*
D35*
X172339000Y-63800000D02*
X172339000Y-65913000D01*
X172339000Y-63639000D02*
X172339000Y-63800000D01*
X186800000Y-58300000D02*
X186900000Y-58300000D01*
X140900000Y-64000000D02*
X141000000Y-64100000D01*
X141000000Y-64100000D02*
X143300000Y-64100000D01*
X143300000Y-64100000D02*
X147300000Y-68100000D01*
X147300000Y-68100000D02*
X147300000Y-69600000D01*
X160700000Y-69600000D02*
X160750000Y-69550000D01*
X162400000Y-67900000D02*
X170352000Y-67900000D01*
X160750000Y-69550000D02*
X162400000Y-67900000D01*
X170352000Y-67900000D02*
X172339000Y-65913000D01*
X147400000Y-69600000D02*
X147300000Y-69600000D01*
X160800000Y-69600000D02*
X160750000Y-69550000D01*
X173200000Y-58300000D02*
X186800000Y-58300000D01*
X172600000Y-58300000D02*
X173200000Y-58300000D01*
X172339000Y-58561000D02*
X172600000Y-58300000D01*
X172339000Y-63739000D02*
X172339000Y-58561000D01*
X172339000Y-63800000D02*
X172339000Y-63739000D01*
X151050980Y-82800000D02*
X144800000Y-89050980D01*
X151900000Y-82800000D02*
X151050980Y-82800000D01*
X186600000Y-65700000D02*
X182750980Y-69549020D01*
X182750980Y-69549020D02*
X182750980Y-71200000D01*
X171900000Y-63300000D02*
X172339000Y-63739000D01*
X170949020Y-63300000D02*
X171900000Y-63300000D01*
D36*
X165100000Y-76835000D02*
X165100000Y-77100000D01*
D37*
X163604000Y-79796000D02*
X165100000Y-78300000D01*
X165100000Y-78300000D02*
X165100000Y-76835000D01*
X158792000Y-79796000D02*
X163604000Y-79796000D01*
D36*
X157432200Y-65467800D02*
X157432200Y-63082000D01*
X156900000Y-66000000D02*
X157432200Y-65467800D01*
X150000000Y-66000000D02*
X156900000Y-66000000D01*
X149900000Y-66100000D02*
X150000000Y-66000000D01*
X129500000Y-64500000D02*
X132500000Y-64500000D01*
X132500000Y-64500000D02*
X133800000Y-65800000D01*
X188400000Y-53950000D02*
X188400000Y-51600000D01*
X187574600Y-50774600D02*
X185501300Y-50774600D01*
X188400000Y-51600000D02*
X187574600Y-50774600D01*
X188250000Y-54100000D02*
X186800000Y-54100000D01*
X186800000Y-55300000D02*
X186800000Y-54100000D01*
X185500000Y-56600000D02*
X186800000Y-55300000D01*
X178500000Y-59500000D02*
X185600000Y-59500000D01*
X175100000Y-62900000D02*
X178500000Y-59500000D01*
X175100000Y-68900000D02*
X175100000Y-62900000D01*
X172339000Y-71661000D02*
X175100000Y-68900000D01*
X172339000Y-71661000D02*
X172339000Y-73533000D01*
X188250000Y-54100000D02*
X188400000Y-53950000D01*
X157514200Y-71800000D02*
X160600000Y-71800000D01*
X170606000Y-71800000D02*
X172339000Y-73533000D01*
X160600000Y-71800000D02*
X170606000Y-71800000D01*
X157514200Y-71800000D02*
X157432200Y-71718000D01*
X155070000Y-63082000D02*
X155070000Y-65070000D01*
X155070000Y-65070000D02*
X155100000Y-65100000D01*
X146700000Y-64050000D02*
X147050000Y-64050000D01*
X147050000Y-64050000D02*
X148500000Y-65500000D01*
X148500000Y-65500000D02*
X149200000Y-65500000D01*
X149200000Y-65500000D02*
X150167800Y-64532200D01*
X150167800Y-64532200D02*
X150167800Y-63082000D01*
X144900000Y-57500000D02*
X146600000Y-59200000D01*
X150400000Y-61400000D02*
X149900000Y-61400000D01*
X151800000Y-61400000D02*
X152530000Y-62130000D01*
X150400000Y-61400000D02*
X151800000Y-61400000D01*
X149900000Y-61400000D02*
X149600000Y-61100000D01*
X152530000Y-62130000D02*
X152530000Y-63082000D01*
X144900000Y-57600000D02*
X144900000Y-57500000D01*
X144900000Y-57500000D02*
X144900000Y-57600000D01*
X129500000Y-57500000D02*
X144900000Y-57500000D01*
X159899020Y-91149020D02*
X160000000Y-91250000D01*
X144800000Y-91149020D02*
X159899020Y-91149020D01*
X168850980Y-61549020D02*
X170800000Y-59600000D01*
X168850980Y-63300000D02*
X168850980Y-61549020D01*
X184849020Y-71200000D02*
X187650000Y-71200000D01*
X157700000Y-76835000D02*
X154735000Y-76835000D01*
X162560000Y-76835000D02*
X157700000Y-76835000D01*
X152530000Y-74630000D02*
X152530000Y-71718000D01*
X154735000Y-76835000D02*
X152530000Y-74630000D01*
X157900000Y-88600000D02*
X157950000Y-88550000D01*
X157950000Y-88550000D02*
X160000000Y-88550000D01*
X157700000Y-76835000D02*
X157700000Y-77700000D01*
M02*
