M48
;DRILL file {kicad (2014-10-27 BZR 5228)-product} date 21/02/2015 07:43:25
;FORMAT={3:3/ absolute / metric / keep zeros}
FMAT,2
METRIC,TZ
T1C0.635
T2C0.800
T3C0.813
T4C0.900
T5C0.920
T6C1.001
T7C1.016
T8C1.500
T9C1.800
T10C4.000
T11C5.999
%
G90
G05
M71
T1
X132600Y-071500
X132700Y-068500
X132700Y-074500
X133800Y-065800
X136000Y-061400
X136000Y-072400
X137750Y-074150
X138800Y-055200
X140900Y-064000
X146600Y-059200
X147300Y-069600
X147700Y-043100
X148400Y-063400
X149600Y-061100
X149900Y-066100
X150300Y-086000
X155100Y-065100
X155900Y-077900
X156200Y-074200
X157700Y-077700
X157900Y-088600
X160800Y-069600
X167500Y-070900
X170800Y-059600
X183200Y-052000
X185500Y-056600
X185600Y-059500
X186600Y-065700
X186800Y-058300
X190200Y-057400
T2
X183301Y-044800
X189899Y-044800
T3
X138600Y-045920
X138600Y-048460
X138600Y-051000
X162179Y-065913
X162179Y-073533
X162560Y-076835
X162560Y-084455
X164719Y-065913
X164719Y-073533
X165100Y-076835
X165100Y-084455
X167259Y-065913
X167259Y-073533
X167640Y-076835
X167640Y-084455
X169799Y-065913
X169799Y-073533
X170180Y-076835
X170180Y-084455
X172339Y-065913
X172339Y-073533
X172720Y-076835
X172720Y-084455
T4
X138500Y-059000
X138500Y-062000
X139200Y-066800
X139200Y-069300
X139200Y-071800
X141000Y-059000
X141000Y-062000
X142200Y-066800
X142200Y-069300
X142200Y-071800
X143500Y-059000
X143500Y-062000
T5
X184000Y-063800
T6
X137004Y-080596
X142592Y-080596
X144908Y-079804
X150496Y-079804
X151354Y-039451
X152496Y-087308
X152496Y-092896
X153204Y-079796
X153894Y-039451
X156434Y-039451
X158792Y-079796
X161108Y-058304
X166696Y-058304
X167396Y-087208
X167396Y-092796
X174498Y-055245
X174498Y-060833
X178008Y-079004
X180604Y-087204
X180604Y-092792
X183596Y-079004
X186508Y-078904
X192096Y-078904
T7
X163462Y-043199
X163462Y-051199
X177330Y-063400
X177330Y-066930
X177330Y-069470
X179870Y-063400
X179870Y-066930
X179870Y-069470
T8
X163462Y-039199
X163462Y-047199
T9
X191800Y-060000
X191800Y-067600
T10
X139000Y-039700
X139100Y-090000
X189600Y-089900
X189700Y-039500
T11
X153800Y-054600
T0
M30
