%FSLAX46Y46*%
G04 Gerber Fmt 4.6, Leading zero omitted, Abs format (unit mm)*
G04 Created by KiCad (PCBNEW (2014-10-27 BZR 5228)-product) date 11/01/2015 08:06:02*
%MOMM*%
G01*
G04 APERTURE LIST*
%ADD10C,0.100000*%
%ADD11R,1.250000X1.000000*%
%ADD12R,1.000000X1.250000*%
%ADD13R,1.651000X1.651000*%
%ADD14C,1.651000*%
%ADD15R,4.200000X0.700000*%
%ADD16R,2.032000X1.727200*%
%ADD17O,2.032000X1.727200*%
%ADD18R,1.397000X1.397000*%
%ADD19C,1.397000*%
%ADD20C,1.998980*%
%ADD21C,3.500000*%
%ADD22C,2.000000*%
%ADD23R,1.727200X1.727200*%
%ADD24O,1.727200X1.727200*%
%ADD25R,2.032000X2.032000*%
%ADD26O,2.032000X2.032000*%
%ADD27R,1.000760X0.599440*%
%ADD28R,0.599440X1.000760*%
%ADD29R,0.700000X1.300000*%
%ADD30R,1.300000X0.700000*%
%ADD31R,1.800000X1.800000*%
%ADD32C,1.800000*%
%ADD33C,2.540000*%
%ADD34C,1.727200*%
%ADD35R,1.550000X0.600000*%
%ADD36C,1.524000*%
%ADD37O,1.501140X2.499360*%
%ADD38C,6.350000*%
G04 APERTURE END LIST*
D10*
D11*
X158000000Y-68200000D03*
X158000000Y-70200000D03*
D12*
X135800000Y-55800000D03*
X137800000Y-55800000D03*
D11*
X148808440Y-83434680D03*
X148808440Y-85434680D03*
D13*
X150428960Y-76316840D03*
D14*
X150428960Y-73776840D03*
D12*
X157800000Y-45400000D03*
X159800000Y-45400000D03*
X150400000Y-54600000D03*
X148400000Y-54600000D03*
D11*
X189357000Y-59629800D03*
X189357000Y-61629800D03*
D15*
X125074560Y-64268200D03*
X125074560Y-65268200D03*
X125074560Y-66268200D03*
X125074560Y-67268200D03*
X125074560Y-68268200D03*
X125074560Y-69268200D03*
X125074560Y-70268200D03*
X125074560Y-71268200D03*
X125074560Y-72268200D03*
X125074560Y-73268200D03*
X125074560Y-74268200D03*
X125074560Y-77268200D03*
X125074560Y-78268200D03*
X125074560Y-79268200D03*
X125074560Y-80268200D03*
X125074560Y-81268200D03*
X125074560Y-82268200D03*
X125074560Y-83268200D03*
D16*
X142925800Y-68529200D03*
D17*
X142925800Y-71069200D03*
X142925800Y-73609200D03*
X142925800Y-76149200D03*
X142925800Y-78689200D03*
X142925800Y-81229200D03*
X142925800Y-83769200D03*
X142925800Y-86309200D03*
X142925800Y-88849200D03*
X142925800Y-91389200D03*
X142925800Y-93929200D03*
X142925800Y-96469200D03*
D18*
X162560000Y-84455000D03*
D19*
X165100000Y-84455000D03*
X167640000Y-84455000D03*
X170180000Y-84455000D03*
X172720000Y-84455000D03*
X172720000Y-76835000D03*
X170180000Y-76835000D03*
X167640000Y-76835000D03*
X165100000Y-76835000D03*
X162560000Y-76835000D03*
D18*
X172339000Y-65913000D03*
D19*
X169799000Y-65913000D03*
X167259000Y-65913000D03*
X164719000Y-65913000D03*
X162179000Y-65913000D03*
X162179000Y-73533000D03*
X164719000Y-73533000D03*
X167259000Y-73533000D03*
X169799000Y-73533000D03*
X172339000Y-73533000D03*
D20*
X139192000Y-99060000D03*
X139192000Y-104648000D03*
X153797000Y-103505000D03*
X148209000Y-103505000D03*
X163322000Y-103759000D03*
X157734000Y-103759000D03*
X173736000Y-103378000D03*
X168148000Y-103378000D03*
X152654000Y-94234000D03*
X152654000Y-88646000D03*
X167894000Y-94234000D03*
X167894000Y-88646000D03*
X183515000Y-103886000D03*
X177927000Y-103886000D03*
X182753000Y-88392000D03*
X182753000Y-93980000D03*
X159258000Y-55499000D03*
X159258000Y-61087000D03*
X157820360Y-51562000D03*
X147660360Y-51562000D03*
X174498000Y-55245000D03*
X174498000Y-60833000D03*
D21*
X191719200Y-82184400D03*
X191719200Y-74584400D03*
D22*
X183919200Y-78384400D03*
D23*
X178638200Y-78181200D03*
D24*
X178638200Y-80721200D03*
D25*
X134620000Y-70827900D03*
D26*
X132080000Y-70827900D03*
D27*
X156343360Y-80247500D03*
X158456640Y-81200000D03*
X156343360Y-82152500D03*
D28*
X153225500Y-67604640D03*
X154178000Y-65491360D03*
X155130500Y-67604640D03*
X179047500Y-65056640D03*
X180000000Y-62943360D03*
X180952500Y-65056640D03*
D29*
X154150000Y-82800000D03*
X152250000Y-82800000D03*
D30*
X158000000Y-72650000D03*
X158000000Y-74550000D03*
D29*
X148450000Y-47600000D03*
X150350000Y-47600000D03*
D30*
X143400000Y-45850000D03*
X143400000Y-47750000D03*
X149800000Y-42650000D03*
X149800000Y-44550000D03*
D29*
X189151300Y-56451500D03*
X187251300Y-56451500D03*
X179150000Y-69400000D03*
X177250000Y-69400000D03*
D23*
X186842400Y-68922900D03*
D24*
X189382400Y-68922900D03*
X186842400Y-66382900D03*
X189382400Y-66382900D03*
D31*
X139400000Y-62800000D03*
D32*
X136900000Y-62800000D03*
X139400000Y-59800000D03*
X134400000Y-62800000D03*
X134400000Y-59800000D03*
X136900000Y-59800000D03*
D31*
X145923000Y-63741300D03*
D32*
X145923000Y-61241300D03*
X148923000Y-63741300D03*
X145923000Y-58741300D03*
X148923000Y-58741300D03*
X148923000Y-61241300D03*
D33*
X163461700Y-39199300D03*
D34*
X163461700Y-43199300D03*
D33*
X163461700Y-47199300D03*
D34*
X163461700Y-51199300D03*
D35*
X185501300Y-48234600D03*
X185501300Y-49504600D03*
X185501300Y-50774600D03*
X185501300Y-52044600D03*
X190901300Y-52044600D03*
X190901300Y-50774600D03*
X190901300Y-49504600D03*
X190901300Y-48234600D03*
D36*
X137600000Y-47860000D03*
X137600000Y-45320000D03*
X137600000Y-50400000D03*
D37*
X153893520Y-39451280D03*
X156433520Y-39451280D03*
X151353520Y-39451280D03*
D38*
X189600000Y-39600000D03*
X189600000Y-109000000D03*
X134600000Y-109000000D03*
X134600000Y-39600000D03*
M02*
