%FSLAX46Y46*%
G04 Gerber Fmt 4.6, Leading zero omitted, Abs format (unit mm)*
G04 Created by KiCad (PCBNEW (2014-10-27 BZR 5228)-product) date 11/01/2015 08:06:02*
%MOMM*%
G01*
G04 APERTURE LIST*
%ADD10C,0.100000*%
%ADD11R,1.250000X1.000000*%
%ADD12R,1.000000X1.250000*%
%ADD13R,1.000760X0.599440*%
%ADD14R,0.599440X1.000760*%
%ADD15R,0.700000X1.300000*%
%ADD16R,1.300000X0.700000*%
%ADD17R,1.550000X0.600000*%
G04 APERTURE END LIST*
D10*
D11*
X158000000Y-68200000D03*
X158000000Y-70200000D03*
D12*
X135800000Y-55800000D03*
X137800000Y-55800000D03*
D11*
X148808440Y-83434680D03*
X148808440Y-85434680D03*
D12*
X157800000Y-45400000D03*
X159800000Y-45400000D03*
X150400000Y-54600000D03*
X148400000Y-54600000D03*
D11*
X189357000Y-59629800D03*
X189357000Y-61629800D03*
D13*
X156343360Y-80247500D03*
X158456640Y-81200000D03*
X156343360Y-82152500D03*
D14*
X153225500Y-67604640D03*
X154178000Y-65491360D03*
X155130500Y-67604640D03*
X179047500Y-65056640D03*
X180000000Y-62943360D03*
X180952500Y-65056640D03*
D15*
X154150000Y-82800000D03*
X152250000Y-82800000D03*
D16*
X158000000Y-72650000D03*
X158000000Y-74550000D03*
D15*
X148450000Y-47600000D03*
X150350000Y-47600000D03*
D16*
X143400000Y-45850000D03*
X143400000Y-47750000D03*
X149800000Y-42650000D03*
X149800000Y-44550000D03*
D15*
X189151300Y-56451500D03*
X187251300Y-56451500D03*
X179150000Y-69400000D03*
X177250000Y-69400000D03*
D17*
X185501300Y-48234600D03*
X185501300Y-49504600D03*
X185501300Y-50774600D03*
X185501300Y-52044600D03*
X190901300Y-52044600D03*
X190901300Y-50774600D03*
X190901300Y-49504600D03*
X190901300Y-48234600D03*
M02*
