%FSLAX46Y46*%
G04 Gerber Fmt 4.6, Leading zero omitted, Abs format (unit mm)*
G04 Created by KiCad (PCBNEW (2014-10-27 BZR 5228)-product) date 15/01/2015 07:57:46*
%MOMM*%
G01*
G04 APERTURE LIST*
%ADD10C,0.100000*%
%ADD11R,1.250000X1.000000*%
%ADD12R,1.000000X1.250000*%
%ADD13R,4.200000X0.700000*%
%ADD14R,1.524000X2.032000*%
%ADD15R,1.397000X1.397000*%
%ADD16C,1.397000*%
%ADD17C,1.998980*%
%ADD18C,3.500000*%
%ADD19C,2.000000*%
%ADD20R,1.727200X1.727200*%
%ADD21O,1.727200X1.727200*%
%ADD22R,0.599440X1.000760*%
%ADD23R,0.700000X1.300000*%
%ADD24R,1.300000X0.700000*%
%ADD25R,1.800000X1.800000*%
%ADD26C,1.800000*%
%ADD27C,2.540000*%
%ADD28C,1.727200*%
%ADD29C,1.524000*%
%ADD30O,1.501140X2.499360*%
%ADD31R,1.651000X1.651000*%
%ADD32C,1.651000*%
%ADD33R,1.600000X1.000000*%
G04 APERTURE END LIST*
D10*
D11*
X158800000Y-70200000D03*
X158800000Y-68200000D03*
X136800000Y-72600000D03*
X136800000Y-74600000D03*
X142800000Y-60000000D03*
X142800000Y-58000000D03*
D12*
X150500000Y-83000000D03*
X148500000Y-83000000D03*
X141900000Y-85000000D03*
X143900000Y-85000000D03*
D11*
X147100000Y-79800000D03*
X147100000Y-77800000D03*
X145000000Y-88600000D03*
X145000000Y-90600000D03*
X183000000Y-82800000D03*
X183000000Y-84800000D03*
D12*
X177300000Y-83000000D03*
X179300000Y-83000000D03*
D11*
X187200000Y-82600000D03*
X187200000Y-84600000D03*
X147200000Y-47600000D03*
X147200000Y-49600000D03*
D12*
X147600000Y-39800000D03*
X145600000Y-39800000D03*
X165200000Y-62000000D03*
X163200000Y-62000000D03*
D11*
X176600000Y-46800000D03*
X176600000Y-44800000D03*
X180000000Y-46800000D03*
X180000000Y-44800000D03*
X173600000Y-46800000D03*
X173600000Y-44800000D03*
D12*
X178546000Y-58293000D03*
X176546000Y-58293000D03*
X169000000Y-61800000D03*
X171000000Y-61800000D03*
D13*
X129474560Y-55468200D03*
X129474560Y-56468200D03*
X129474560Y-57468200D03*
X129474560Y-58468200D03*
X129474560Y-59468200D03*
X129474560Y-60468200D03*
X129474560Y-61468200D03*
X129474560Y-62468200D03*
X129474560Y-63468200D03*
X129474560Y-64468200D03*
X129474560Y-65468200D03*
X129474560Y-68468200D03*
X129474560Y-69468200D03*
X129474560Y-70468200D03*
X129474560Y-71468200D03*
X129474560Y-72468200D03*
X129474560Y-73468200D03*
X129474560Y-74468200D03*
D14*
X140949000Y-77000000D03*
X144251000Y-77000000D03*
D15*
X162560000Y-84455000D03*
D16*
X165100000Y-84455000D03*
X167640000Y-84455000D03*
X170180000Y-84455000D03*
X172720000Y-84455000D03*
X172720000Y-76835000D03*
X170180000Y-76835000D03*
X167640000Y-76835000D03*
X165100000Y-76835000D03*
X162560000Y-76835000D03*
D15*
X172339000Y-65913000D03*
D16*
X169799000Y-65913000D03*
X167259000Y-65913000D03*
X164719000Y-65913000D03*
X162179000Y-65913000D03*
X162179000Y-73533000D03*
X164719000Y-73533000D03*
X167259000Y-73533000D03*
X169799000Y-73533000D03*
X172339000Y-73533000D03*
D17*
X158792000Y-79796000D03*
X153204000Y-79796000D03*
X142592000Y-80596000D03*
X137004000Y-80596000D03*
X149596000Y-87608000D03*
X149596000Y-93196000D03*
X144908000Y-79804000D03*
X150496000Y-79804000D03*
X177404000Y-92892000D03*
X177404000Y-87304000D03*
X178008000Y-79004000D03*
X183596000Y-79004000D03*
X163396000Y-87508000D03*
X163396000Y-93096000D03*
X186508000Y-78904000D03*
X192096000Y-78904000D03*
X161108000Y-58304000D03*
X166696000Y-58304000D03*
X174498000Y-55245000D03*
X174498000Y-60833000D03*
D18*
X191800000Y-67600000D03*
X191800000Y-60000000D03*
D19*
X184000000Y-63800000D03*
D20*
X179870000Y-63400000D03*
D21*
X177330000Y-63400000D03*
D22*
X153647500Y-74943360D03*
X154600000Y-77056640D03*
X155552500Y-74943360D03*
D23*
X151550000Y-76800000D03*
X149650000Y-76800000D03*
X158250000Y-72600000D03*
X160150000Y-72600000D03*
D24*
X142800000Y-61450000D03*
X142800000Y-63350000D03*
D23*
X147050000Y-45000000D03*
X148950000Y-45000000D03*
X149550000Y-42600000D03*
X147650000Y-42600000D03*
X155150000Y-65200000D03*
X153250000Y-65200000D03*
D24*
X151400000Y-63650000D03*
X151400000Y-65550000D03*
D23*
X159450000Y-65300000D03*
X157550000Y-65300000D03*
D20*
X179870000Y-66930000D03*
D21*
X177330000Y-66930000D03*
X179870000Y-69470000D03*
X177330000Y-69470000D03*
D25*
X142200000Y-66800000D03*
D26*
X142200000Y-69300000D03*
X139200000Y-66800000D03*
X142200000Y-71800000D03*
X139200000Y-71800000D03*
X139200000Y-69300000D03*
D25*
X145923000Y-63741300D03*
D26*
X145923000Y-61241300D03*
X148923000Y-63741300D03*
X145923000Y-58741300D03*
X148923000Y-58741300D03*
X148923000Y-61241300D03*
D27*
X163461700Y-39199300D03*
D28*
X163461700Y-43199300D03*
D27*
X163461700Y-47199300D03*
D28*
X163461700Y-51199300D03*
D29*
X138600000Y-48460000D03*
X138600000Y-45920000D03*
X138600000Y-51000000D03*
D30*
X153893520Y-39451280D03*
X156433520Y-39451280D03*
X151353520Y-39451280D03*
D11*
X151200000Y-72200000D03*
X151200000Y-74200000D03*
X159100000Y-90700000D03*
X159100000Y-88700000D03*
D12*
X153400000Y-72200000D03*
X155400000Y-72200000D03*
D17*
X189899460Y-44800000D03*
X183300540Y-44800000D03*
D11*
X174600000Y-69300000D03*
X174600000Y-67300000D03*
D31*
X150470000Y-69100000D03*
D32*
X147930000Y-69100000D03*
D11*
X167800000Y-89000000D03*
X167800000Y-91000000D03*
D33*
X170800000Y-44800000D03*
X170800000Y-47800000D03*
M02*
