%FSLAX45Y45*%
G04 Gerber Fmt 4.5, Leading zero omitted, Abs format (unit mm)*
G04 Created by KiCad (PCBNEW (2014-10-27 BZR 5228)-product) date 13/01/2015 08:32:18*
%MOMM*%
G01*
G04 APERTURE LIST*
%ADD10C,0.127000*%
%ADD11C,0.100000*%
%ADD12C,0.200000*%
%ADD13C,0.300000*%
G04 APERTURE END LIST*
D10*
D11*
X19440000Y-9470000D02*
X13440000Y-9470000D01*
X19440000Y-3500000D02*
X19440000Y-9470000D01*
X13440000Y-3500000D02*
X19440000Y-3500000D01*
X13440000Y-5300000D02*
X13440000Y-3500000D01*
X12997434Y-9500616D02*
X12994386Y-9500616D01*
X13440000Y-7680000D02*
X13440000Y-9470000D01*
D12*
X13388250Y-5515070D02*
X13451750Y-5578570D01*
X13451750Y-5515070D02*
X13388250Y-5578570D01*
X13388250Y-6115070D02*
X13451750Y-6178570D01*
X13451750Y-6115070D02*
X13388250Y-6178570D01*
X13405570Y-5805570D02*
X13469070Y-5869070D01*
X13469070Y-5805570D02*
X13405570Y-5869070D01*
X13408250Y-6408250D02*
X13471750Y-6471750D01*
X13471750Y-6408250D02*
X13408250Y-6471750D01*
X13528250Y-5908250D02*
X13591750Y-5971750D01*
X13591750Y-5908250D02*
X13528250Y-5971750D01*
X13528250Y-6048250D02*
X13591750Y-6111750D01*
X13591750Y-6048250D02*
X13528250Y-6111750D01*
X13608250Y-6848250D02*
X13671750Y-6911750D01*
X13671750Y-6848250D02*
X13608250Y-6911750D01*
X13628250Y-5608250D02*
X13691750Y-5671750D01*
X13691750Y-5608250D02*
X13628250Y-5671750D01*
X13628250Y-5808250D02*
X13691750Y-5871750D01*
X13691750Y-5808250D02*
X13628250Y-5871750D01*
X13748250Y-5368250D02*
X13811750Y-5431750D01*
X13811750Y-5368250D02*
X13748250Y-5431750D01*
X13828250Y-6368250D02*
X13891750Y-6431750D01*
X13891750Y-6368250D02*
X13828250Y-6431750D01*
X13828250Y-7668250D02*
X13891750Y-7731750D01*
X13891750Y-7668250D02*
X13828250Y-7731750D01*
X13968250Y-5488250D02*
X14031750Y-5551750D01*
X14031750Y-5488250D02*
X13968250Y-5551750D01*
X14008250Y-5928250D02*
X14071750Y-5991750D01*
X14071750Y-5928250D02*
X14008250Y-5991750D01*
X14428250Y-7228250D02*
X14491750Y-7291750D01*
X14491750Y-7228250D02*
X14428250Y-7291750D01*
X14428250Y-7428250D02*
X14491750Y-7491750D01*
X14491750Y-7428250D02*
X14428250Y-7491750D01*
X14528250Y-3768250D02*
X14591750Y-3831750D01*
X14591750Y-3768250D02*
X14528250Y-3831750D01*
X14588250Y-7448250D02*
X14651750Y-7511750D01*
X14651750Y-7448250D02*
X14588250Y-7511750D01*
X14608250Y-6648250D02*
X14671750Y-6711750D01*
X14671750Y-6648250D02*
X14608250Y-6711750D01*
X15288250Y-5648250D02*
X15351750Y-5711750D01*
X15351750Y-5648250D02*
X15288250Y-5711750D01*
X15388250Y-6048250D02*
X15451750Y-6111750D01*
X15451750Y-6048250D02*
X15388250Y-6111750D01*
X15388250Y-6988250D02*
X15451750Y-7051750D01*
X15451750Y-6988250D02*
X15388250Y-7051750D01*
X15748250Y-5648250D02*
X15811750Y-5711750D01*
X15811750Y-5648250D02*
X15748250Y-5711750D01*
X15748250Y-7668250D02*
X15811750Y-7731750D01*
X15811750Y-7668250D02*
X15748250Y-7731750D01*
X16048250Y-6908250D02*
X16111750Y-6971750D01*
X16111750Y-6908250D02*
X16048250Y-6971750D01*
X16108250Y-7148250D02*
X16171750Y-7211750D01*
X16171750Y-7148250D02*
X16108250Y-7211750D01*
X16708250Y-7148250D02*
X16771750Y-7211750D01*
X16771750Y-7148250D02*
X16708250Y-7211750D01*
X16948250Y-6788250D02*
X17011750Y-6851750D01*
X17011750Y-6788250D02*
X16948250Y-6851750D01*
X17108250Y-7148250D02*
X17171750Y-7211750D01*
X17171750Y-7148250D02*
X17108250Y-7211750D01*
X17628250Y-6108250D02*
X17691750Y-6171750D01*
X17691750Y-6108250D02*
X17628250Y-6171750D01*
X18288250Y-5168250D02*
X18351750Y-5231750D01*
X18351750Y-5168250D02*
X18288250Y-5231750D01*
X18588250Y-5588250D02*
X18651750Y-5651750D01*
X18651750Y-5588250D02*
X18588250Y-5651750D01*
X18988250Y-5708250D02*
X19051750Y-5771750D01*
X19051750Y-5708250D02*
X18988250Y-5771750D01*
X18370059Y-4480000D02*
G75*
G03X18370059Y-4480000I-40005J0D01*
G01*
X19029951Y-4480000D02*
G75*
G03X19029951Y-4480000I-40005J0D01*
G01*
X13860000Y-4551360D02*
X13860000Y-4632640D01*
X13819360Y-4592000D02*
X13900640Y-4592000D01*
X13860000Y-4805360D02*
X13860000Y-4886640D01*
X13819360Y-4846000D02*
X13900640Y-4846000D01*
X13860000Y-5059360D02*
X13860000Y-5140640D01*
X13819360Y-5100000D02*
X13900640Y-5100000D01*
X14793000Y-6879360D02*
X14793000Y-6960640D01*
X14752360Y-6920000D02*
X14833640Y-6920000D01*
X15047000Y-6879360D02*
X15047000Y-6960640D01*
X15006360Y-6920000D02*
X15087640Y-6920000D01*
X16217900Y-6550660D02*
X16217900Y-6631940D01*
X16177260Y-6591300D02*
X16258540Y-6591300D01*
X16217900Y-7312660D02*
X16217900Y-7393940D01*
X16177260Y-7353300D02*
X16258540Y-7353300D01*
X16256000Y-7642860D02*
X16256000Y-7724140D01*
X16215360Y-7683500D02*
X16296640Y-7683500D01*
X16256000Y-8404860D02*
X16256000Y-8486140D01*
X16215360Y-8445500D02*
X16296640Y-8445500D01*
X16471900Y-6550660D02*
X16471900Y-6631940D01*
X16431260Y-6591300D02*
X16512540Y-6591300D01*
X16471900Y-7312660D02*
X16471900Y-7393940D01*
X16431260Y-7353300D02*
X16512540Y-7353300D01*
X16510000Y-7642860D02*
X16510000Y-7724140D01*
X16469360Y-7683500D02*
X16550640Y-7683500D01*
X16510000Y-8404860D02*
X16510000Y-8486140D01*
X16469360Y-8445500D02*
X16550640Y-8445500D01*
X16725900Y-6550660D02*
X16725900Y-6631940D01*
X16685260Y-6591300D02*
X16766540Y-6591300D01*
X16725900Y-7312660D02*
X16725900Y-7393940D01*
X16685260Y-7353300D02*
X16766540Y-7353300D01*
X16764000Y-7642860D02*
X16764000Y-7724140D01*
X16723360Y-7683500D02*
X16804640Y-7683500D01*
X16764000Y-8404860D02*
X16764000Y-8486140D01*
X16723360Y-8445500D02*
X16804640Y-8445500D01*
X16979900Y-6550660D02*
X16979900Y-6631940D01*
X16939260Y-6591300D02*
X17020540Y-6591300D01*
X16979900Y-7312660D02*
X16979900Y-7393940D01*
X16939260Y-7353300D02*
X17020540Y-7353300D01*
X17018000Y-7642860D02*
X17018000Y-7724140D01*
X16977360Y-7683500D02*
X17058640Y-7683500D01*
X17018000Y-8404860D02*
X17018000Y-8486140D01*
X16977360Y-8445500D02*
X17058640Y-8445500D01*
X17233900Y-6550660D02*
X17233900Y-6631940D01*
X17193260Y-6591300D02*
X17274540Y-6591300D01*
X17233900Y-7312660D02*
X17233900Y-7393940D01*
X17193260Y-7353300D02*
X17274540Y-7353300D01*
X17272000Y-7642860D02*
X17272000Y-7724140D01*
X17231360Y-7683500D02*
X17312640Y-7683500D01*
X17272000Y-8404860D02*
X17272000Y-8486140D01*
X17231360Y-8445500D02*
X17312640Y-8445500D01*
X13951820Y-6711820D02*
X13951820Y-6648180D01*
X13888180Y-6648180D01*
X13888180Y-6711820D01*
X13951820Y-6711820D01*
X13951820Y-6961820D02*
X13951820Y-6898180D01*
X13888180Y-6898180D01*
X13888180Y-6961820D01*
X13951820Y-6961820D01*
X13951820Y-7211820D02*
X13951820Y-7148180D01*
X13888180Y-7148180D01*
X13888180Y-7211820D01*
X13951820Y-7211820D01*
X14251820Y-6711820D02*
X14251820Y-6648180D01*
X14188180Y-6648180D01*
X14188180Y-6711820D01*
X14251820Y-6711820D01*
X14251820Y-6961820D02*
X14251820Y-6898180D01*
X14188180Y-6898180D01*
X14188180Y-6961820D01*
X14251820Y-6961820D01*
X14251820Y-7211820D02*
X14251820Y-7148180D01*
X14188180Y-7148180D01*
X14188180Y-7211820D01*
X14251820Y-7211820D01*
X14624120Y-5905950D02*
X14624120Y-5842310D01*
X14560480Y-5842310D01*
X14560480Y-5905950D01*
X14624120Y-5905950D01*
X14624120Y-6155950D02*
X14624120Y-6092310D01*
X14560480Y-6092310D01*
X14560480Y-6155950D01*
X14624120Y-6155950D01*
X14624120Y-6405950D02*
X14624120Y-6342310D01*
X14560480Y-6342310D01*
X14560480Y-6405950D01*
X14624120Y-6405950D01*
X14924120Y-5905950D02*
X14924120Y-5842310D01*
X14860480Y-5842310D01*
X14860480Y-5905950D01*
X14924120Y-5905950D01*
X14924120Y-6155950D02*
X14924120Y-6092310D01*
X14860480Y-6092310D01*
X14860480Y-6155950D01*
X14924120Y-6155950D01*
X14924120Y-6405950D02*
X14924120Y-6342310D01*
X14860480Y-6342310D01*
X14860480Y-6405950D01*
X14924120Y-6405950D01*
X18400000Y-6426000D02*
X18446000Y-6380000D01*
X18400000Y-6334000D01*
X18354000Y-6380000D01*
X18400000Y-6426000D01*
X13560362Y-7949562D02*
X13660438Y-8049638D01*
X13660438Y-7949562D02*
X13560362Y-8049638D01*
X13660438Y-7999600D02*
G75*
G03X13660438Y-7999600I-50038J0D01*
G01*
X14119162Y-7949562D02*
X14219238Y-8049638D01*
X14219238Y-7949562D02*
X14119162Y-8049638D01*
X14219238Y-7999600D02*
G75*
G03X14219238Y-7999600I-50038J0D01*
G01*
X14360762Y-7950362D02*
X14460838Y-8050438D01*
X14460838Y-7950362D02*
X14360762Y-8050438D01*
X14460838Y-8000400D02*
G75*
G03X14460838Y-8000400I-50038J0D01*
G01*
X14909562Y-8700762D02*
X15009638Y-8800838D01*
X15009638Y-8700762D02*
X14909562Y-8800838D01*
X15009638Y-8750800D02*
G75*
G03X15009638Y-8750800I-50038J0D01*
G01*
X14909562Y-9259562D02*
X15009638Y-9359638D01*
X15009638Y-9259562D02*
X14909562Y-9359638D01*
X15009638Y-9309600D02*
G75*
G03X15009638Y-9309600I-50038J0D01*
G01*
X14919562Y-7950362D02*
X15019638Y-8050438D01*
X15019638Y-7950362D02*
X14919562Y-8050438D01*
X15019638Y-8000400D02*
G75*
G03X15019638Y-8000400I-50038J0D01*
G01*
X15085314Y-3895090D02*
X15185390Y-3995166D01*
X15185390Y-3895090D02*
X15085314Y-3995166D01*
X15185390Y-3945128D02*
G75*
G03X15185390Y-3945128I-50038J0D01*
G01*
X15200362Y-7949562D02*
X15300438Y-8049638D01*
X15300438Y-7949562D02*
X15200362Y-8049638D01*
X15300438Y-7999600D02*
G75*
G03X15300438Y-7999600I-50038J0D01*
G01*
X15339314Y-3895090D02*
X15439390Y-3995166D01*
X15439390Y-3895090D02*
X15339314Y-3995166D01*
X15439390Y-3945128D02*
G75*
G03X15439390Y-3945128I-50038J0D01*
G01*
X15593314Y-3895090D02*
X15693390Y-3995166D01*
X15693390Y-3895090D02*
X15593314Y-3995166D01*
X15693390Y-3945128D02*
G75*
G03X15693390Y-3945128I-50038J0D01*
G01*
X15759162Y-7949562D02*
X15859238Y-8049638D01*
X15859238Y-7949562D02*
X15759162Y-8049638D01*
X15859238Y-7999600D02*
G75*
G03X15859238Y-7999600I-50038J0D01*
G01*
X15875762Y-5499862D02*
X15975838Y-5599938D01*
X15975838Y-5499862D02*
X15875762Y-5599938D01*
X15975838Y-5549900D02*
G75*
G03X15975838Y-5549900I-50038J0D01*
G01*
X15875762Y-6058662D02*
X15975838Y-6158738D01*
X15975838Y-6058662D02*
X15875762Y-6158738D01*
X15975838Y-6108700D02*
G75*
G03X15975838Y-6108700I-50038J0D01*
G01*
X16289562Y-8700762D02*
X16389638Y-8800838D01*
X16389638Y-8700762D02*
X16289562Y-8800838D01*
X16389638Y-8750800D02*
G75*
G03X16389638Y-8750800I-50038J0D01*
G01*
X16289562Y-9259562D02*
X16389638Y-9359638D01*
X16389638Y-9259562D02*
X16289562Y-9359638D01*
X16389638Y-9309600D02*
G75*
G03X16389638Y-9309600I-50038J0D01*
G01*
X17399762Y-5474462D02*
X17499838Y-5574538D01*
X17499838Y-5474462D02*
X17399762Y-5574538D01*
X17499838Y-5524500D02*
G75*
G03X17499838Y-5524500I-50038J0D01*
G01*
X17399762Y-6033262D02*
X17499838Y-6133338D01*
X17499838Y-6033262D02*
X17399762Y-6133338D01*
X17499838Y-6083300D02*
G75*
G03X17499838Y-6083300I-50038J0D01*
G01*
X17540362Y-7809562D02*
X17640438Y-7909638D01*
X17640438Y-7809562D02*
X17540362Y-7909638D01*
X17640438Y-7859600D02*
G75*
G03X17640438Y-7859600I-50038J0D01*
G01*
X17689562Y-8700762D02*
X17789638Y-8800838D01*
X17789638Y-8700762D02*
X17689562Y-8800838D01*
X17789638Y-8750800D02*
G75*
G03X17789638Y-8750800I-50038J0D01*
G01*
X17689562Y-9259562D02*
X17789638Y-9359638D01*
X17789638Y-9259562D02*
X17689562Y-9359638D01*
X17789638Y-9309600D02*
G75*
G03X17789638Y-9309600I-50038J0D01*
G01*
X18099162Y-7809562D02*
X18199238Y-7909638D01*
X18199238Y-7809562D02*
X18099162Y-7909638D01*
X18199238Y-7859600D02*
G75*
G03X18199238Y-7859600I-50038J0D01*
G01*
X18380362Y-7809562D02*
X18480438Y-7909638D01*
X18480438Y-7809562D02*
X18380362Y-7909638D01*
X18480438Y-7859600D02*
G75*
G03X18480438Y-7859600I-50038J0D01*
G01*
X18939162Y-7809562D02*
X19039238Y-7909638D01*
X19039238Y-7809562D02*
X18939162Y-7909638D01*
X19039238Y-7859600D02*
G75*
G03X19039238Y-7859600I-50038J0D01*
G01*
X16295370Y-4269130D02*
X16396970Y-4370730D01*
X16396970Y-4269130D02*
X16295370Y-4370730D01*
X16346170Y-4269130D02*
X16346170Y-4370730D01*
X16295370Y-4319930D02*
X16396970Y-4319930D01*
X16295370Y-5069130D02*
X16396970Y-5170730D01*
X16396970Y-5069130D02*
X16295370Y-5170730D01*
X16346170Y-5069130D02*
X16346170Y-5170730D01*
X16295370Y-5119930D02*
X16396970Y-5119930D01*
X17682200Y-6289200D02*
X17783800Y-6390800D01*
X17783800Y-6289200D02*
X17682200Y-6390800D01*
X17733000Y-6289200D02*
X17733000Y-6390800D01*
X17682200Y-6340000D02*
X17783800Y-6340000D01*
X17682200Y-6642200D02*
X17783800Y-6743800D01*
X17783800Y-6642200D02*
X17682200Y-6743800D01*
X17733000Y-6642200D02*
X17733000Y-6743800D01*
X17682200Y-6693000D02*
X17783800Y-6693000D01*
X17682200Y-6896200D02*
X17783800Y-6997800D01*
X17783800Y-6896200D02*
X17682200Y-6997800D01*
X17733000Y-6896200D02*
X17733000Y-6997800D01*
X17682200Y-6947000D02*
X17783800Y-6947000D01*
X17936200Y-6289200D02*
X18037800Y-6390800D01*
X18037800Y-6289200D02*
X17936200Y-6390800D01*
X17987000Y-6289200D02*
X17987000Y-6390800D01*
X17936200Y-6340000D02*
X18037800Y-6340000D01*
X17936200Y-6642200D02*
X18037800Y-6743800D01*
X18037800Y-6642200D02*
X17936200Y-6743800D01*
X17987000Y-6642200D02*
X17987000Y-6743800D01*
X17936200Y-6693000D02*
X18037800Y-6693000D01*
X17936200Y-6896200D02*
X18037800Y-6997800D01*
X18037800Y-6896200D02*
X17936200Y-6997800D01*
X17987000Y-6896200D02*
X17987000Y-6997800D01*
X17936200Y-6947000D02*
X18037800Y-6947000D01*
X16271170Y-3844930D02*
X16421170Y-3994930D01*
X16421170Y-3844930D02*
X16271170Y-3994930D01*
X16399203Y-3972963D02*
X16399203Y-3866896D01*
X16293136Y-3866896D01*
X16293136Y-3972963D01*
X16399203Y-3972963D01*
X16271170Y-4644930D02*
X16421170Y-4794930D01*
X16421170Y-4644930D02*
X16271170Y-4794930D01*
X16399203Y-4772964D02*
X16399203Y-4666897D01*
X16293136Y-4666897D01*
X16293136Y-4772964D01*
X16399203Y-4772964D01*
X19090000Y-5910000D02*
X19270000Y-6090000D01*
X19270000Y-5910000D02*
X19090000Y-6090000D01*
X19180000Y-6090000D02*
X19270000Y-6000000D01*
X19180000Y-5910000D01*
X19090000Y-6000000D01*
X19180000Y-6090000D01*
X19090000Y-6670000D02*
X19270000Y-6850000D01*
X19270000Y-6670000D02*
X19090000Y-6850000D01*
X19180000Y-6850000D02*
X19270000Y-6760000D01*
X19180000Y-6670000D01*
X19090000Y-6760000D01*
X19180000Y-6850000D01*
X13900000Y-3764994D02*
X13900000Y-4115006D01*
X13724994Y-3940000D02*
X14075006Y-3940000D01*
X14075006Y-3940000D02*
G75*
G03X14075006Y-3940000I-175006J0D01*
G01*
X13900000Y-8884994D02*
X13900000Y-9235006D01*
X13724994Y-9060000D02*
X14075006Y-9060000D01*
X14075006Y-9060000D02*
G75*
G03X14075006Y-9060000I-175006J0D01*
G01*
X18960000Y-3784994D02*
X18960000Y-4135006D01*
X18784994Y-3960000D02*
X19135006Y-3960000D01*
X19135006Y-3960000D02*
G75*
G03X19135006Y-3960000I-175006J0D01*
G01*
X18980000Y-8884994D02*
X18980000Y-9235006D01*
X18804994Y-9060000D02*
X19155006Y-9060000D01*
X19155006Y-9060000D02*
G75*
G03X19155006Y-9060000I-175006J0D01*
G01*
X15652116Y-5252116D02*
X15652116Y-4827884D01*
X15227884Y-4827884D01*
X15227884Y-5252116D01*
X15652116Y-5252116D01*
X15739974Y-5040000D02*
G75*
G03X15739974Y-5040000I-299974J0D01*
G01*
D13*
X13270387Y-9971330D02*
X13270387Y-9671330D01*
X13341815Y-9671330D01*
X13384672Y-9685616D01*
X13413244Y-9714188D01*
X13427529Y-9742759D01*
X13441815Y-9799902D01*
X13441815Y-9842759D01*
X13427529Y-9899902D01*
X13413244Y-9928473D01*
X13384672Y-9957045D01*
X13341815Y-9971330D01*
X13270387Y-9971330D01*
X13570387Y-9971330D02*
X13570387Y-9771330D01*
X13570387Y-9828473D02*
X13584672Y-9799902D01*
X13598958Y-9785616D01*
X13627529Y-9771330D01*
X13656101Y-9771330D01*
X13756101Y-9971330D02*
X13756101Y-9771330D01*
X13756101Y-9671330D02*
X13741815Y-9685616D01*
X13756101Y-9699902D01*
X13770387Y-9685616D01*
X13756101Y-9671330D01*
X13756101Y-9699902D01*
X13941815Y-9971330D02*
X13913244Y-9957045D01*
X13898958Y-9928473D01*
X13898958Y-9671330D01*
X14098958Y-9971330D02*
X14070387Y-9957045D01*
X14056101Y-9928473D01*
X14056101Y-9671330D01*
X14441815Y-9971330D02*
X14441815Y-9671330D01*
X14541815Y-9885616D01*
X14641815Y-9671330D01*
X14641815Y-9971330D01*
X14913244Y-9971330D02*
X14913244Y-9814188D01*
X14898958Y-9785616D01*
X14870387Y-9771330D01*
X14813244Y-9771330D01*
X14784672Y-9785616D01*
X14913244Y-9957045D02*
X14884672Y-9971330D01*
X14813244Y-9971330D01*
X14784672Y-9957045D01*
X14770387Y-9928473D01*
X14770387Y-9899902D01*
X14784672Y-9871330D01*
X14813244Y-9857045D01*
X14884672Y-9857045D01*
X14913244Y-9842759D01*
X15056101Y-9771330D02*
X15056101Y-10071330D01*
X15056101Y-9785616D02*
X15084672Y-9771330D01*
X15141815Y-9771330D01*
X15170387Y-9785616D01*
X15184672Y-9799902D01*
X15198958Y-9828473D01*
X15198958Y-9914188D01*
X15184672Y-9942759D01*
X15170387Y-9957045D01*
X15141815Y-9971330D01*
X15084672Y-9971330D01*
X15056101Y-9957045D01*
X15327529Y-9942759D02*
X15341815Y-9957045D01*
X15327529Y-9971330D01*
X15313244Y-9957045D01*
X15327529Y-9942759D01*
X15327529Y-9971330D01*
X15327529Y-9785616D02*
X15341815Y-9799902D01*
X15327529Y-9814188D01*
X15313244Y-9799902D01*
X15327529Y-9785616D01*
X15327529Y-9814188D01*
X12935458Y-10433866D02*
X12998958Y-10497366D01*
X12998958Y-10433866D02*
X12935458Y-10497366D01*
X13327529Y-10301330D02*
X13356101Y-10301330D01*
X13384672Y-10315616D01*
X13398958Y-10329902D01*
X13413244Y-10358473D01*
X13427529Y-10415616D01*
X13427529Y-10487045D01*
X13413244Y-10544188D01*
X13398958Y-10572759D01*
X13384672Y-10587045D01*
X13356101Y-10601330D01*
X13327529Y-10601330D01*
X13298958Y-10587045D01*
X13284672Y-10572759D01*
X13270387Y-10544188D01*
X13256101Y-10487045D01*
X13256101Y-10415616D01*
X13270387Y-10358473D01*
X13284672Y-10329902D01*
X13298958Y-10315616D01*
X13327529Y-10301330D01*
X13556101Y-10572759D02*
X13570387Y-10587045D01*
X13556101Y-10601330D01*
X13541815Y-10587045D01*
X13556101Y-10572759D01*
X13556101Y-10601330D01*
X13827529Y-10301330D02*
X13770386Y-10301330D01*
X13741815Y-10315616D01*
X13727529Y-10329902D01*
X13698958Y-10372759D01*
X13684672Y-10429902D01*
X13684672Y-10544188D01*
X13698958Y-10572759D01*
X13713244Y-10587045D01*
X13741815Y-10601330D01*
X13798958Y-10601330D01*
X13827529Y-10587045D01*
X13841815Y-10572759D01*
X13856101Y-10544188D01*
X13856101Y-10472759D01*
X13841815Y-10444188D01*
X13827529Y-10429902D01*
X13798958Y-10415616D01*
X13741815Y-10415616D01*
X13713244Y-10429902D01*
X13698958Y-10444188D01*
X13684672Y-10472759D01*
X14113244Y-10401330D02*
X14113244Y-10601330D01*
X14041815Y-10287045D02*
X13970387Y-10501330D01*
X14156101Y-10501330D01*
X14270387Y-10601330D02*
X14270387Y-10401330D01*
X14270387Y-10429902D02*
X14284672Y-10415616D01*
X14313244Y-10401330D01*
X14356101Y-10401330D01*
X14384672Y-10415616D01*
X14398958Y-10444188D01*
X14398958Y-10601330D01*
X14398958Y-10444188D02*
X14413244Y-10415616D01*
X14441815Y-10401330D01*
X14484672Y-10401330D01*
X14513244Y-10415616D01*
X14527529Y-10444188D01*
X14527529Y-10601330D01*
X14670387Y-10601330D02*
X14670387Y-10401330D01*
X14670387Y-10429902D02*
X14684672Y-10415616D01*
X14713244Y-10401330D01*
X14756101Y-10401330D01*
X14784672Y-10415616D01*
X14798958Y-10444188D01*
X14798958Y-10601330D01*
X14798958Y-10444188D02*
X14813244Y-10415616D01*
X14841815Y-10401330D01*
X14884672Y-10401330D01*
X14913244Y-10415616D01*
X14927529Y-10444188D01*
X14927529Y-10601330D01*
X15513244Y-10287045D02*
X15256101Y-10672759D01*
X15898958Y-10301330D02*
X15927529Y-10301330D01*
X15956101Y-10315616D01*
X15970386Y-10329902D01*
X15984672Y-10358473D01*
X15998958Y-10415616D01*
X15998958Y-10487045D01*
X15984672Y-10544188D01*
X15970386Y-10572759D01*
X15956101Y-10587045D01*
X15927529Y-10601330D01*
X15898958Y-10601330D01*
X15870386Y-10587045D01*
X15856101Y-10572759D01*
X15841815Y-10544188D01*
X15827529Y-10487045D01*
X15827529Y-10415616D01*
X15841815Y-10358473D01*
X15856101Y-10329902D01*
X15870386Y-10315616D01*
X15898958Y-10301330D01*
X16127529Y-10572759D02*
X16141815Y-10587045D01*
X16127529Y-10601330D01*
X16113244Y-10587045D01*
X16127529Y-10572759D01*
X16127529Y-10601330D01*
X16327529Y-10301330D02*
X16356101Y-10301330D01*
X16384672Y-10315616D01*
X16398958Y-10329902D01*
X16413244Y-10358473D01*
X16427529Y-10415616D01*
X16427529Y-10487045D01*
X16413244Y-10544188D01*
X16398958Y-10572759D01*
X16384672Y-10587045D01*
X16356101Y-10601330D01*
X16327529Y-10601330D01*
X16298958Y-10587045D01*
X16284672Y-10572759D01*
X16270386Y-10544188D01*
X16256101Y-10487045D01*
X16256101Y-10415616D01*
X16270386Y-10358473D01*
X16284672Y-10329902D01*
X16298958Y-10315616D01*
X16327529Y-10301330D01*
X16541815Y-10329902D02*
X16556101Y-10315616D01*
X16584672Y-10301330D01*
X16656101Y-10301330D01*
X16684672Y-10315616D01*
X16698958Y-10329902D01*
X16713244Y-10358473D01*
X16713244Y-10387045D01*
X16698958Y-10429902D01*
X16527529Y-10601330D01*
X16713244Y-10601330D01*
X16984672Y-10301330D02*
X16841815Y-10301330D01*
X16827529Y-10444188D01*
X16841815Y-10429902D01*
X16870387Y-10415616D01*
X16941815Y-10415616D01*
X16970387Y-10429902D01*
X16984672Y-10444188D01*
X16998958Y-10472759D01*
X16998958Y-10544188D01*
X16984672Y-10572759D01*
X16970387Y-10587045D01*
X16941815Y-10601330D01*
X16870387Y-10601330D01*
X16841815Y-10587045D01*
X16827529Y-10572759D01*
X17113244Y-10301330D02*
X17113244Y-10358473D01*
X17227529Y-10301330D02*
X17227529Y-10358473D01*
X17670387Y-10715616D02*
X17656101Y-10701330D01*
X17627529Y-10658473D01*
X17613244Y-10629902D01*
X17598958Y-10587045D01*
X17584672Y-10515616D01*
X17584672Y-10458473D01*
X17598958Y-10387045D01*
X17613244Y-10344188D01*
X17627529Y-10315616D01*
X17656101Y-10272759D01*
X17670387Y-10258473D01*
X17756101Y-10301330D02*
X17941815Y-10301330D01*
X17841815Y-10415616D01*
X17884672Y-10415616D01*
X17913244Y-10429902D01*
X17927529Y-10444188D01*
X17941815Y-10472759D01*
X17941815Y-10544188D01*
X17927529Y-10572759D01*
X17913244Y-10587045D01*
X17884672Y-10601330D01*
X17798958Y-10601330D01*
X17770387Y-10587045D01*
X17756101Y-10572759D01*
X18041815Y-10301330D02*
X18227529Y-10301330D01*
X18127529Y-10415616D01*
X18170387Y-10415616D01*
X18198958Y-10429902D01*
X18213244Y-10444188D01*
X18227529Y-10472759D01*
X18227529Y-10544188D01*
X18213244Y-10572759D01*
X18198958Y-10587045D01*
X18170387Y-10601330D01*
X18084672Y-10601330D01*
X18056101Y-10587045D01*
X18041815Y-10572759D01*
X18584672Y-10601330D02*
X18584672Y-10301330D01*
X18713244Y-10601330D02*
X18713244Y-10444188D01*
X18698958Y-10415616D01*
X18670387Y-10401330D01*
X18627529Y-10401330D01*
X18598958Y-10415616D01*
X18584672Y-10429902D01*
X18898958Y-10601330D02*
X18870387Y-10587045D01*
X18856101Y-10572759D01*
X18841815Y-10544188D01*
X18841815Y-10458473D01*
X18856101Y-10429902D01*
X18870387Y-10415616D01*
X18898958Y-10401330D01*
X18941815Y-10401330D01*
X18970387Y-10415616D01*
X18984672Y-10429902D01*
X18998958Y-10458473D01*
X18998958Y-10544188D01*
X18984672Y-10572759D01*
X18970387Y-10587045D01*
X18941815Y-10601330D01*
X18898958Y-10601330D01*
X19170387Y-10601330D02*
X19141815Y-10587045D01*
X19127529Y-10558473D01*
X19127529Y-10301330D01*
X19398958Y-10587045D02*
X19370387Y-10601330D01*
X19313244Y-10601330D01*
X19284672Y-10587045D01*
X19270387Y-10558473D01*
X19270387Y-10444188D01*
X19284672Y-10415616D01*
X19313244Y-10401330D01*
X19370387Y-10401330D01*
X19398958Y-10415616D01*
X19413244Y-10444188D01*
X19413244Y-10472759D01*
X19270387Y-10501330D01*
X19527530Y-10587045D02*
X19556101Y-10601330D01*
X19613244Y-10601330D01*
X19641815Y-10587045D01*
X19656101Y-10558473D01*
X19656101Y-10544188D01*
X19641815Y-10515616D01*
X19613244Y-10501330D01*
X19570387Y-10501330D01*
X19541815Y-10487045D01*
X19527530Y-10458473D01*
X19527530Y-10444188D01*
X19541815Y-10415616D01*
X19570387Y-10401330D01*
X19613244Y-10401330D01*
X19641815Y-10415616D01*
X19756101Y-10715616D02*
X19770387Y-10701330D01*
X19798958Y-10658473D01*
X19813244Y-10629902D01*
X19827529Y-10587045D01*
X19841815Y-10515616D01*
X19841815Y-10458473D01*
X19827529Y-10387045D01*
X19813244Y-10344188D01*
X19798958Y-10315616D01*
X19770387Y-10272759D01*
X19756101Y-10258473D01*
X12998958Y-10861616D02*
G75*
G03X12998958Y-10861616I-40005J0D01*
G01*
X13327529Y-10697330D02*
X13356101Y-10697330D01*
X13384672Y-10711616D01*
X13398958Y-10725902D01*
X13413244Y-10754473D01*
X13427529Y-10811616D01*
X13427529Y-10883045D01*
X13413244Y-10940188D01*
X13398958Y-10968759D01*
X13384672Y-10983045D01*
X13356101Y-10997330D01*
X13327529Y-10997330D01*
X13298958Y-10983045D01*
X13284672Y-10968759D01*
X13270387Y-10940188D01*
X13256101Y-10883045D01*
X13256101Y-10811616D01*
X13270387Y-10754473D01*
X13284672Y-10725902D01*
X13298958Y-10711616D01*
X13327529Y-10697330D01*
X13556101Y-10968759D02*
X13570387Y-10983045D01*
X13556101Y-10997330D01*
X13541815Y-10983045D01*
X13556101Y-10968759D01*
X13556101Y-10997330D01*
X13741815Y-10825902D02*
X13713244Y-10811616D01*
X13698958Y-10797330D01*
X13684672Y-10768759D01*
X13684672Y-10754473D01*
X13698958Y-10725902D01*
X13713244Y-10711616D01*
X13741815Y-10697330D01*
X13798958Y-10697330D01*
X13827529Y-10711616D01*
X13841815Y-10725902D01*
X13856101Y-10754473D01*
X13856101Y-10768759D01*
X13841815Y-10797330D01*
X13827529Y-10811616D01*
X13798958Y-10825902D01*
X13741815Y-10825902D01*
X13713244Y-10840188D01*
X13698958Y-10854473D01*
X13684672Y-10883045D01*
X13684672Y-10940188D01*
X13698958Y-10968759D01*
X13713244Y-10983045D01*
X13741815Y-10997330D01*
X13798958Y-10997330D01*
X13827529Y-10983045D01*
X13841815Y-10968759D01*
X13856101Y-10940188D01*
X13856101Y-10883045D01*
X13841815Y-10854473D01*
X13827529Y-10840188D01*
X13798958Y-10825902D01*
X14041815Y-10697330D02*
X14070387Y-10697330D01*
X14098958Y-10711616D01*
X14113244Y-10725902D01*
X14127529Y-10754473D01*
X14141815Y-10811616D01*
X14141815Y-10883045D01*
X14127529Y-10940188D01*
X14113244Y-10968759D01*
X14098958Y-10983045D01*
X14070387Y-10997330D01*
X14041815Y-10997330D01*
X14013244Y-10983045D01*
X13998958Y-10968759D01*
X13984672Y-10940188D01*
X13970387Y-10883045D01*
X13970387Y-10811616D01*
X13984672Y-10754473D01*
X13998958Y-10725902D01*
X14013244Y-10711616D01*
X14041815Y-10697330D01*
X14270387Y-10997330D02*
X14270387Y-10797330D01*
X14270387Y-10825902D02*
X14284672Y-10811616D01*
X14313244Y-10797330D01*
X14356101Y-10797330D01*
X14384672Y-10811616D01*
X14398958Y-10840188D01*
X14398958Y-10997330D01*
X14398958Y-10840188D02*
X14413244Y-10811616D01*
X14441815Y-10797330D01*
X14484672Y-10797330D01*
X14513244Y-10811616D01*
X14527529Y-10840188D01*
X14527529Y-10997330D01*
X14670387Y-10997330D02*
X14670387Y-10797330D01*
X14670387Y-10825902D02*
X14684672Y-10811616D01*
X14713244Y-10797330D01*
X14756101Y-10797330D01*
X14784672Y-10811616D01*
X14798958Y-10840188D01*
X14798958Y-10997330D01*
X14798958Y-10840188D02*
X14813244Y-10811616D01*
X14841815Y-10797330D01*
X14884672Y-10797330D01*
X14913244Y-10811616D01*
X14927529Y-10840188D01*
X14927529Y-10997330D01*
X15513244Y-10683045D02*
X15256101Y-11068759D01*
X15898958Y-10697330D02*
X15927529Y-10697330D01*
X15956101Y-10711616D01*
X15970386Y-10725902D01*
X15984672Y-10754473D01*
X15998958Y-10811616D01*
X15998958Y-10883045D01*
X15984672Y-10940188D01*
X15970386Y-10968759D01*
X15956101Y-10983045D01*
X15927529Y-10997330D01*
X15898958Y-10997330D01*
X15870386Y-10983045D01*
X15856101Y-10968759D01*
X15841815Y-10940188D01*
X15827529Y-10883045D01*
X15827529Y-10811616D01*
X15841815Y-10754473D01*
X15856101Y-10725902D01*
X15870386Y-10711616D01*
X15898958Y-10697330D01*
X16127529Y-10968759D02*
X16141815Y-10983045D01*
X16127529Y-10997330D01*
X16113244Y-10983045D01*
X16127529Y-10968759D01*
X16127529Y-10997330D01*
X16327529Y-10697330D02*
X16356101Y-10697330D01*
X16384672Y-10711616D01*
X16398958Y-10725902D01*
X16413244Y-10754473D01*
X16427529Y-10811616D01*
X16427529Y-10883045D01*
X16413244Y-10940188D01*
X16398958Y-10968759D01*
X16384672Y-10983045D01*
X16356101Y-10997330D01*
X16327529Y-10997330D01*
X16298958Y-10983045D01*
X16284672Y-10968759D01*
X16270386Y-10940188D01*
X16256101Y-10883045D01*
X16256101Y-10811616D01*
X16270386Y-10754473D01*
X16284672Y-10725902D01*
X16298958Y-10711616D01*
X16327529Y-10697330D01*
X16527529Y-10697330D02*
X16713244Y-10697330D01*
X16613244Y-10811616D01*
X16656101Y-10811616D01*
X16684672Y-10825902D01*
X16698958Y-10840188D01*
X16713244Y-10868759D01*
X16713244Y-10940188D01*
X16698958Y-10968759D01*
X16684672Y-10983045D01*
X16656101Y-10997330D01*
X16570386Y-10997330D01*
X16541815Y-10983045D01*
X16527529Y-10968759D01*
X16827529Y-10725902D02*
X16841815Y-10711616D01*
X16870387Y-10697330D01*
X16941815Y-10697330D01*
X16970387Y-10711616D01*
X16984672Y-10725902D01*
X16998958Y-10754473D01*
X16998958Y-10783045D01*
X16984672Y-10825902D01*
X16813244Y-10997330D01*
X16998958Y-10997330D01*
X17113244Y-10697330D02*
X17113244Y-10754473D01*
X17227529Y-10697330D02*
X17227529Y-10754473D01*
X17670387Y-11111616D02*
X17656101Y-11097330D01*
X17627529Y-11054473D01*
X17613244Y-11025902D01*
X17598958Y-10983045D01*
X17584672Y-10911616D01*
X17584672Y-10854473D01*
X17598958Y-10783045D01*
X17613244Y-10740188D01*
X17627529Y-10711616D01*
X17656101Y-10668759D01*
X17670387Y-10654473D01*
X17770387Y-10725902D02*
X17784672Y-10711616D01*
X17813244Y-10697330D01*
X17884672Y-10697330D01*
X17913244Y-10711616D01*
X17927529Y-10725902D01*
X17941815Y-10754473D01*
X17941815Y-10783045D01*
X17927529Y-10825902D01*
X17756101Y-10997330D01*
X17941815Y-10997330D01*
X18298958Y-10997330D02*
X18298958Y-10697330D01*
X18427529Y-10997330D02*
X18427529Y-10840188D01*
X18413244Y-10811616D01*
X18384672Y-10797330D01*
X18341815Y-10797330D01*
X18313244Y-10811616D01*
X18298958Y-10825902D01*
X18613244Y-10997330D02*
X18584672Y-10983045D01*
X18570387Y-10968759D01*
X18556101Y-10940188D01*
X18556101Y-10854473D01*
X18570387Y-10825902D01*
X18584672Y-10811616D01*
X18613244Y-10797330D01*
X18656101Y-10797330D01*
X18684672Y-10811616D01*
X18698958Y-10825902D01*
X18713244Y-10854473D01*
X18713244Y-10940188D01*
X18698958Y-10968759D01*
X18684672Y-10983045D01*
X18656101Y-10997330D01*
X18613244Y-10997330D01*
X18884672Y-10997330D02*
X18856101Y-10983045D01*
X18841815Y-10954473D01*
X18841815Y-10697330D01*
X19113244Y-10983045D02*
X19084672Y-10997330D01*
X19027529Y-10997330D01*
X18998958Y-10983045D01*
X18984672Y-10954473D01*
X18984672Y-10840188D01*
X18998958Y-10811616D01*
X19027529Y-10797330D01*
X19084672Y-10797330D01*
X19113244Y-10811616D01*
X19127529Y-10840188D01*
X19127529Y-10868759D01*
X18984672Y-10897330D01*
X19241815Y-10983045D02*
X19270387Y-10997330D01*
X19327529Y-10997330D01*
X19356101Y-10983045D01*
X19370387Y-10954473D01*
X19370387Y-10940188D01*
X19356101Y-10911616D01*
X19327529Y-10897330D01*
X19284672Y-10897330D01*
X19256101Y-10883045D01*
X19241815Y-10854473D01*
X19241815Y-10840188D01*
X19256101Y-10811616D01*
X19284672Y-10797330D01*
X19327529Y-10797330D01*
X19356101Y-10811616D01*
X19470387Y-11111616D02*
X19484672Y-11097330D01*
X19513244Y-11054473D01*
X19527529Y-11025902D01*
X19541815Y-10983045D01*
X19556101Y-10911616D01*
X19556101Y-10854473D01*
X19541815Y-10783045D01*
X19527529Y-10740188D01*
X19513244Y-10711616D01*
X19484672Y-10668759D01*
X19470387Y-10654473D01*
X12958318Y-11216976D02*
X12958318Y-11298256D01*
X12917678Y-11257616D02*
X12998958Y-11257616D01*
X13327529Y-11093330D02*
X13356101Y-11093330D01*
X13384672Y-11107616D01*
X13398958Y-11121902D01*
X13413244Y-11150473D01*
X13427529Y-11207616D01*
X13427529Y-11279045D01*
X13413244Y-11336187D01*
X13398958Y-11364759D01*
X13384672Y-11379045D01*
X13356101Y-11393330D01*
X13327529Y-11393330D01*
X13298958Y-11379045D01*
X13284672Y-11364759D01*
X13270387Y-11336187D01*
X13256101Y-11279045D01*
X13256101Y-11207616D01*
X13270387Y-11150473D01*
X13284672Y-11121902D01*
X13298958Y-11107616D01*
X13327529Y-11093330D01*
X13556101Y-11364759D02*
X13570387Y-11379045D01*
X13556101Y-11393330D01*
X13541815Y-11379045D01*
X13556101Y-11364759D01*
X13556101Y-11393330D01*
X13741815Y-11221902D02*
X13713244Y-11207616D01*
X13698958Y-11193330D01*
X13684672Y-11164759D01*
X13684672Y-11150473D01*
X13698958Y-11121902D01*
X13713244Y-11107616D01*
X13741815Y-11093330D01*
X13798958Y-11093330D01*
X13827529Y-11107616D01*
X13841815Y-11121902D01*
X13856101Y-11150473D01*
X13856101Y-11164759D01*
X13841815Y-11193330D01*
X13827529Y-11207616D01*
X13798958Y-11221902D01*
X13741815Y-11221902D01*
X13713244Y-11236187D01*
X13698958Y-11250473D01*
X13684672Y-11279045D01*
X13684672Y-11336187D01*
X13698958Y-11364759D01*
X13713244Y-11379045D01*
X13741815Y-11393330D01*
X13798958Y-11393330D01*
X13827529Y-11379045D01*
X13841815Y-11364759D01*
X13856101Y-11336187D01*
X13856101Y-11279045D01*
X13841815Y-11250473D01*
X13827529Y-11236187D01*
X13798958Y-11221902D01*
X14141815Y-11393330D02*
X13970387Y-11393330D01*
X14056101Y-11393330D02*
X14056101Y-11093330D01*
X14027529Y-11136188D01*
X13998958Y-11164759D01*
X13970387Y-11179045D01*
X14270387Y-11393330D02*
X14270387Y-11193330D01*
X14270387Y-11221902D02*
X14284672Y-11207616D01*
X14313244Y-11193330D01*
X14356101Y-11193330D01*
X14384672Y-11207616D01*
X14398958Y-11236187D01*
X14398958Y-11393330D01*
X14398958Y-11236187D02*
X14413244Y-11207616D01*
X14441815Y-11193330D01*
X14484672Y-11193330D01*
X14513244Y-11207616D01*
X14527529Y-11236187D01*
X14527529Y-11393330D01*
X14670387Y-11393330D02*
X14670387Y-11193330D01*
X14670387Y-11221902D02*
X14684672Y-11207616D01*
X14713244Y-11193330D01*
X14756101Y-11193330D01*
X14784672Y-11207616D01*
X14798958Y-11236187D01*
X14798958Y-11393330D01*
X14798958Y-11236187D02*
X14813244Y-11207616D01*
X14841815Y-11193330D01*
X14884672Y-11193330D01*
X14913244Y-11207616D01*
X14927529Y-11236187D01*
X14927529Y-11393330D01*
X15513244Y-11079045D02*
X15256101Y-11464759D01*
X15898958Y-11093330D02*
X15927529Y-11093330D01*
X15956101Y-11107616D01*
X15970386Y-11121902D01*
X15984672Y-11150473D01*
X15998958Y-11207616D01*
X15998958Y-11279045D01*
X15984672Y-11336187D01*
X15970386Y-11364759D01*
X15956101Y-11379045D01*
X15927529Y-11393330D01*
X15898958Y-11393330D01*
X15870386Y-11379045D01*
X15856101Y-11364759D01*
X15841815Y-11336187D01*
X15827529Y-11279045D01*
X15827529Y-11207616D01*
X15841815Y-11150473D01*
X15856101Y-11121902D01*
X15870386Y-11107616D01*
X15898958Y-11093330D01*
X16127529Y-11364759D02*
X16141815Y-11379045D01*
X16127529Y-11393330D01*
X16113244Y-11379045D01*
X16127529Y-11364759D01*
X16127529Y-11393330D01*
X16327529Y-11093330D02*
X16356101Y-11093330D01*
X16384672Y-11107616D01*
X16398958Y-11121902D01*
X16413244Y-11150473D01*
X16427529Y-11207616D01*
X16427529Y-11279045D01*
X16413244Y-11336187D01*
X16398958Y-11364759D01*
X16384672Y-11379045D01*
X16356101Y-11393330D01*
X16327529Y-11393330D01*
X16298958Y-11379045D01*
X16284672Y-11364759D01*
X16270386Y-11336187D01*
X16256101Y-11279045D01*
X16256101Y-11207616D01*
X16270386Y-11150473D01*
X16284672Y-11121902D01*
X16298958Y-11107616D01*
X16327529Y-11093330D01*
X16527529Y-11093330D02*
X16713244Y-11093330D01*
X16613244Y-11207616D01*
X16656101Y-11207616D01*
X16684672Y-11221902D01*
X16698958Y-11236187D01*
X16713244Y-11264759D01*
X16713244Y-11336187D01*
X16698958Y-11364759D01*
X16684672Y-11379045D01*
X16656101Y-11393330D01*
X16570386Y-11393330D01*
X16541815Y-11379045D01*
X16527529Y-11364759D01*
X16827529Y-11121902D02*
X16841815Y-11107616D01*
X16870387Y-11093330D01*
X16941815Y-11093330D01*
X16970387Y-11107616D01*
X16984672Y-11121902D01*
X16998958Y-11150473D01*
X16998958Y-11179045D01*
X16984672Y-11221902D01*
X16813244Y-11393330D01*
X16998958Y-11393330D01*
X17113244Y-11093330D02*
X17113244Y-11150473D01*
X17227529Y-11093330D02*
X17227529Y-11150473D01*
X17670387Y-11507616D02*
X17656101Y-11493330D01*
X17627529Y-11450473D01*
X17613244Y-11421902D01*
X17598958Y-11379045D01*
X17584672Y-11307616D01*
X17584672Y-11250473D01*
X17598958Y-11179045D01*
X17613244Y-11136188D01*
X17627529Y-11107616D01*
X17656101Y-11064759D01*
X17670387Y-11050473D01*
X17770387Y-11121902D02*
X17784672Y-11107616D01*
X17813244Y-11093330D01*
X17884672Y-11093330D01*
X17913244Y-11107616D01*
X17927529Y-11121902D01*
X17941815Y-11150473D01*
X17941815Y-11179045D01*
X17927529Y-11221902D01*
X17756101Y-11393330D01*
X17941815Y-11393330D01*
X18213244Y-11093330D02*
X18070387Y-11093330D01*
X18056101Y-11236187D01*
X18070387Y-11221902D01*
X18098958Y-11207616D01*
X18170387Y-11207616D01*
X18198958Y-11221902D01*
X18213244Y-11236187D01*
X18227529Y-11264759D01*
X18227529Y-11336187D01*
X18213244Y-11364759D01*
X18198958Y-11379045D01*
X18170387Y-11393330D01*
X18098958Y-11393330D01*
X18070387Y-11379045D01*
X18056101Y-11364759D01*
X18584672Y-11393330D02*
X18584672Y-11093330D01*
X18713244Y-11393330D02*
X18713244Y-11236187D01*
X18698958Y-11207616D01*
X18670387Y-11193330D01*
X18627529Y-11193330D01*
X18598958Y-11207616D01*
X18584672Y-11221902D01*
X18898958Y-11393330D02*
X18870387Y-11379045D01*
X18856101Y-11364759D01*
X18841815Y-11336187D01*
X18841815Y-11250473D01*
X18856101Y-11221902D01*
X18870387Y-11207616D01*
X18898958Y-11193330D01*
X18941815Y-11193330D01*
X18970387Y-11207616D01*
X18984672Y-11221902D01*
X18998958Y-11250473D01*
X18998958Y-11336187D01*
X18984672Y-11364759D01*
X18970387Y-11379045D01*
X18941815Y-11393330D01*
X18898958Y-11393330D01*
X19170387Y-11393330D02*
X19141815Y-11379045D01*
X19127529Y-11350473D01*
X19127529Y-11093330D01*
X19398958Y-11379045D02*
X19370387Y-11393330D01*
X19313244Y-11393330D01*
X19284672Y-11379045D01*
X19270387Y-11350473D01*
X19270387Y-11236187D01*
X19284672Y-11207616D01*
X19313244Y-11193330D01*
X19370387Y-11193330D01*
X19398958Y-11207616D01*
X19413244Y-11236187D01*
X19413244Y-11264759D01*
X19270387Y-11293330D01*
X19527530Y-11379045D02*
X19556101Y-11393330D01*
X19613244Y-11393330D01*
X19641815Y-11379045D01*
X19656101Y-11350473D01*
X19656101Y-11336187D01*
X19641815Y-11307616D01*
X19613244Y-11293330D01*
X19570387Y-11293330D01*
X19541815Y-11279045D01*
X19527530Y-11250473D01*
X19527530Y-11236187D01*
X19541815Y-11207616D01*
X19570387Y-11193330D01*
X19613244Y-11193330D01*
X19641815Y-11207616D01*
X19756101Y-11507616D02*
X19770387Y-11493330D01*
X19798958Y-11450473D01*
X19813244Y-11421902D01*
X19827529Y-11379045D01*
X19841815Y-11307616D01*
X19841815Y-11250473D01*
X19827529Y-11179045D01*
X19813244Y-11136188D01*
X19798958Y-11107616D01*
X19770387Y-11064759D01*
X19756101Y-11050473D01*
X12985778Y-11685436D02*
X12985778Y-11621796D01*
X12922138Y-11621796D01*
X12922138Y-11685436D01*
X12985778Y-11685436D01*
X13327529Y-11489330D02*
X13356101Y-11489330D01*
X13384672Y-11503616D01*
X13398958Y-11517902D01*
X13413244Y-11546473D01*
X13427529Y-11603616D01*
X13427529Y-11675045D01*
X13413244Y-11732187D01*
X13398958Y-11760759D01*
X13384672Y-11775045D01*
X13356101Y-11789330D01*
X13327529Y-11789330D01*
X13298958Y-11775045D01*
X13284672Y-11760759D01*
X13270387Y-11732187D01*
X13256101Y-11675045D01*
X13256101Y-11603616D01*
X13270387Y-11546473D01*
X13284672Y-11517902D01*
X13298958Y-11503616D01*
X13327529Y-11489330D01*
X13556101Y-11760759D02*
X13570387Y-11775045D01*
X13556101Y-11789330D01*
X13541815Y-11775045D01*
X13556101Y-11760759D01*
X13556101Y-11789330D01*
X13713244Y-11789330D02*
X13770386Y-11789330D01*
X13798958Y-11775045D01*
X13813244Y-11760759D01*
X13841815Y-11717902D01*
X13856101Y-11660759D01*
X13856101Y-11546473D01*
X13841815Y-11517902D01*
X13827529Y-11503616D01*
X13798958Y-11489330D01*
X13741815Y-11489330D01*
X13713244Y-11503616D01*
X13698958Y-11517902D01*
X13684672Y-11546473D01*
X13684672Y-11617902D01*
X13698958Y-11646473D01*
X13713244Y-11660759D01*
X13741815Y-11675045D01*
X13798958Y-11675045D01*
X13827529Y-11660759D01*
X13841815Y-11646473D01*
X13856101Y-11617902D01*
X14041815Y-11489330D02*
X14070387Y-11489330D01*
X14098958Y-11503616D01*
X14113244Y-11517902D01*
X14127529Y-11546473D01*
X14141815Y-11603616D01*
X14141815Y-11675045D01*
X14127529Y-11732187D01*
X14113244Y-11760759D01*
X14098958Y-11775045D01*
X14070387Y-11789330D01*
X14041815Y-11789330D01*
X14013244Y-11775045D01*
X13998958Y-11760759D01*
X13984672Y-11732187D01*
X13970387Y-11675045D01*
X13970387Y-11603616D01*
X13984672Y-11546473D01*
X13998958Y-11517902D01*
X14013244Y-11503616D01*
X14041815Y-11489330D01*
X14270387Y-11789330D02*
X14270387Y-11589330D01*
X14270387Y-11617902D02*
X14284672Y-11603616D01*
X14313244Y-11589330D01*
X14356101Y-11589330D01*
X14384672Y-11603616D01*
X14398958Y-11632187D01*
X14398958Y-11789330D01*
X14398958Y-11632187D02*
X14413244Y-11603616D01*
X14441815Y-11589330D01*
X14484672Y-11589330D01*
X14513244Y-11603616D01*
X14527529Y-11632187D01*
X14527529Y-11789330D01*
X14670387Y-11789330D02*
X14670387Y-11589330D01*
X14670387Y-11617902D02*
X14684672Y-11603616D01*
X14713244Y-11589330D01*
X14756101Y-11589330D01*
X14784672Y-11603616D01*
X14798958Y-11632187D01*
X14798958Y-11789330D01*
X14798958Y-11632187D02*
X14813244Y-11603616D01*
X14841815Y-11589330D01*
X14884672Y-11589330D01*
X14913244Y-11603616D01*
X14927529Y-11632187D01*
X14927529Y-11789330D01*
X15513244Y-11475045D02*
X15256101Y-11860759D01*
X15898958Y-11489330D02*
X15927529Y-11489330D01*
X15956101Y-11503616D01*
X15970386Y-11517902D01*
X15984672Y-11546473D01*
X15998958Y-11603616D01*
X15998958Y-11675045D01*
X15984672Y-11732187D01*
X15970386Y-11760759D01*
X15956101Y-11775045D01*
X15927529Y-11789330D01*
X15898958Y-11789330D01*
X15870386Y-11775045D01*
X15856101Y-11760759D01*
X15841815Y-11732187D01*
X15827529Y-11675045D01*
X15827529Y-11603616D01*
X15841815Y-11546473D01*
X15856101Y-11517902D01*
X15870386Y-11503616D01*
X15898958Y-11489330D01*
X16127529Y-11760759D02*
X16141815Y-11775045D01*
X16127529Y-11789330D01*
X16113244Y-11775045D01*
X16127529Y-11760759D01*
X16127529Y-11789330D01*
X16327529Y-11489330D02*
X16356101Y-11489330D01*
X16384672Y-11503616D01*
X16398958Y-11517902D01*
X16413244Y-11546473D01*
X16427529Y-11603616D01*
X16427529Y-11675045D01*
X16413244Y-11732187D01*
X16398958Y-11760759D01*
X16384672Y-11775045D01*
X16356101Y-11789330D01*
X16327529Y-11789330D01*
X16298958Y-11775045D01*
X16284672Y-11760759D01*
X16270386Y-11732187D01*
X16256101Y-11675045D01*
X16256101Y-11603616D01*
X16270386Y-11546473D01*
X16284672Y-11517902D01*
X16298958Y-11503616D01*
X16327529Y-11489330D01*
X16527529Y-11489330D02*
X16713244Y-11489330D01*
X16613244Y-11603616D01*
X16656101Y-11603616D01*
X16684672Y-11617902D01*
X16698958Y-11632187D01*
X16713244Y-11660759D01*
X16713244Y-11732187D01*
X16698958Y-11760759D01*
X16684672Y-11775045D01*
X16656101Y-11789330D01*
X16570386Y-11789330D01*
X16541815Y-11775045D01*
X16527529Y-11760759D01*
X16984672Y-11489330D02*
X16841815Y-11489330D01*
X16827529Y-11632187D01*
X16841815Y-11617902D01*
X16870387Y-11603616D01*
X16941815Y-11603616D01*
X16970387Y-11617902D01*
X16984672Y-11632187D01*
X16998958Y-11660759D01*
X16998958Y-11732187D01*
X16984672Y-11760759D01*
X16970387Y-11775045D01*
X16941815Y-11789330D01*
X16870387Y-11789330D01*
X16841815Y-11775045D01*
X16827529Y-11760759D01*
X17113244Y-11489330D02*
X17113244Y-11546473D01*
X17227529Y-11489330D02*
X17227529Y-11546473D01*
X17670387Y-11903616D02*
X17656101Y-11889330D01*
X17627529Y-11846473D01*
X17613244Y-11817902D01*
X17598958Y-11775045D01*
X17584672Y-11703616D01*
X17584672Y-11646473D01*
X17598958Y-11575045D01*
X17613244Y-11532187D01*
X17627529Y-11503616D01*
X17656101Y-11460759D01*
X17670387Y-11446473D01*
X17941815Y-11789330D02*
X17770387Y-11789330D01*
X17856101Y-11789330D02*
X17856101Y-11489330D01*
X17827529Y-11532187D01*
X17798958Y-11560759D01*
X17770387Y-11575045D01*
X18056101Y-11517902D02*
X18070387Y-11503616D01*
X18098958Y-11489330D01*
X18170387Y-11489330D01*
X18198958Y-11503616D01*
X18213244Y-11517902D01*
X18227529Y-11546473D01*
X18227529Y-11575045D01*
X18213244Y-11617902D01*
X18041815Y-11789330D01*
X18227529Y-11789330D01*
X18584672Y-11789330D02*
X18584672Y-11489330D01*
X18713244Y-11789330D02*
X18713244Y-11632187D01*
X18698958Y-11603616D01*
X18670387Y-11589330D01*
X18627529Y-11589330D01*
X18598958Y-11603616D01*
X18584672Y-11617902D01*
X18898958Y-11789330D02*
X18870387Y-11775045D01*
X18856101Y-11760759D01*
X18841815Y-11732187D01*
X18841815Y-11646473D01*
X18856101Y-11617902D01*
X18870387Y-11603616D01*
X18898958Y-11589330D01*
X18941815Y-11589330D01*
X18970387Y-11603616D01*
X18984672Y-11617902D01*
X18998958Y-11646473D01*
X18998958Y-11732187D01*
X18984672Y-11760759D01*
X18970387Y-11775045D01*
X18941815Y-11789330D01*
X18898958Y-11789330D01*
X19170387Y-11789330D02*
X19141815Y-11775045D01*
X19127529Y-11746473D01*
X19127529Y-11489330D01*
X19398958Y-11775045D02*
X19370387Y-11789330D01*
X19313244Y-11789330D01*
X19284672Y-11775045D01*
X19270387Y-11746473D01*
X19270387Y-11632187D01*
X19284672Y-11603616D01*
X19313244Y-11589330D01*
X19370387Y-11589330D01*
X19398958Y-11603616D01*
X19413244Y-11632187D01*
X19413244Y-11660759D01*
X19270387Y-11689330D01*
X19527530Y-11775045D02*
X19556101Y-11789330D01*
X19613244Y-11789330D01*
X19641815Y-11775045D01*
X19656101Y-11746473D01*
X19656101Y-11732187D01*
X19641815Y-11703616D01*
X19613244Y-11689330D01*
X19570387Y-11689330D01*
X19541815Y-11675045D01*
X19527530Y-11646473D01*
X19527530Y-11632187D01*
X19541815Y-11603616D01*
X19570387Y-11589330D01*
X19613244Y-11589330D01*
X19641815Y-11603616D01*
X19756101Y-11903616D02*
X19770387Y-11889330D01*
X19798958Y-11846473D01*
X19813244Y-11817902D01*
X19827529Y-11775045D01*
X19841815Y-11703616D01*
X19841815Y-11646473D01*
X19827529Y-11575045D01*
X19813244Y-11532187D01*
X19798958Y-11503616D01*
X19770387Y-11460759D01*
X19756101Y-11446473D01*
X12952958Y-12095616D02*
X12998958Y-12049616D01*
X12952958Y-12003616D01*
X12906958Y-12049616D01*
X12952958Y-12095616D01*
X13327529Y-11885330D02*
X13356101Y-11885330D01*
X13384672Y-11899616D01*
X13398958Y-11913902D01*
X13413244Y-11942473D01*
X13427529Y-11999616D01*
X13427529Y-12071045D01*
X13413244Y-12128187D01*
X13398958Y-12156759D01*
X13384672Y-12171045D01*
X13356101Y-12185330D01*
X13327529Y-12185330D01*
X13298958Y-12171045D01*
X13284672Y-12156759D01*
X13270387Y-12128187D01*
X13256101Y-12071045D01*
X13256101Y-11999616D01*
X13270387Y-11942473D01*
X13284672Y-11913902D01*
X13298958Y-11899616D01*
X13327529Y-11885330D01*
X13556101Y-12156759D02*
X13570387Y-12171045D01*
X13556101Y-12185330D01*
X13541815Y-12171045D01*
X13556101Y-12156759D01*
X13556101Y-12185330D01*
X13713244Y-12185330D02*
X13770386Y-12185330D01*
X13798958Y-12171045D01*
X13813244Y-12156759D01*
X13841815Y-12113902D01*
X13856101Y-12056759D01*
X13856101Y-11942473D01*
X13841815Y-11913902D01*
X13827529Y-11899616D01*
X13798958Y-11885330D01*
X13741815Y-11885330D01*
X13713244Y-11899616D01*
X13698958Y-11913902D01*
X13684672Y-11942473D01*
X13684672Y-12013902D01*
X13698958Y-12042473D01*
X13713244Y-12056759D01*
X13741815Y-12071045D01*
X13798958Y-12071045D01*
X13827529Y-12056759D01*
X13841815Y-12042473D01*
X13856101Y-12013902D01*
X13970387Y-11913902D02*
X13984672Y-11899616D01*
X14013244Y-11885330D01*
X14084672Y-11885330D01*
X14113244Y-11899616D01*
X14127529Y-11913902D01*
X14141815Y-11942473D01*
X14141815Y-11971045D01*
X14127529Y-12013902D01*
X13956101Y-12185330D01*
X14141815Y-12185330D01*
X14270387Y-12185330D02*
X14270387Y-11985330D01*
X14270387Y-12013902D02*
X14284672Y-11999616D01*
X14313244Y-11985330D01*
X14356101Y-11985330D01*
X14384672Y-11999616D01*
X14398958Y-12028187D01*
X14398958Y-12185330D01*
X14398958Y-12028187D02*
X14413244Y-11999616D01*
X14441815Y-11985330D01*
X14484672Y-11985330D01*
X14513244Y-11999616D01*
X14527529Y-12028187D01*
X14527529Y-12185330D01*
X14670387Y-12185330D02*
X14670387Y-11985330D01*
X14670387Y-12013902D02*
X14684672Y-11999616D01*
X14713244Y-11985330D01*
X14756101Y-11985330D01*
X14784672Y-11999616D01*
X14798958Y-12028187D01*
X14798958Y-12185330D01*
X14798958Y-12028187D02*
X14813244Y-11999616D01*
X14841815Y-11985330D01*
X14884672Y-11985330D01*
X14913244Y-11999616D01*
X14927529Y-12028187D01*
X14927529Y-12185330D01*
X15513244Y-11871045D02*
X15256101Y-12256759D01*
X15898958Y-11885330D02*
X15927529Y-11885330D01*
X15956101Y-11899616D01*
X15970386Y-11913902D01*
X15984672Y-11942473D01*
X15998958Y-11999616D01*
X15998958Y-12071045D01*
X15984672Y-12128187D01*
X15970386Y-12156759D01*
X15956101Y-12171045D01*
X15927529Y-12185330D01*
X15898958Y-12185330D01*
X15870386Y-12171045D01*
X15856101Y-12156759D01*
X15841815Y-12128187D01*
X15827529Y-12071045D01*
X15827529Y-11999616D01*
X15841815Y-11942473D01*
X15856101Y-11913902D01*
X15870386Y-11899616D01*
X15898958Y-11885330D01*
X16127529Y-12156759D02*
X16141815Y-12171045D01*
X16127529Y-12185330D01*
X16113244Y-12171045D01*
X16127529Y-12156759D01*
X16127529Y-12185330D01*
X16327529Y-11885330D02*
X16356101Y-11885330D01*
X16384672Y-11899616D01*
X16398958Y-11913902D01*
X16413244Y-11942473D01*
X16427529Y-11999616D01*
X16427529Y-12071045D01*
X16413244Y-12128187D01*
X16398958Y-12156759D01*
X16384672Y-12171045D01*
X16356101Y-12185330D01*
X16327529Y-12185330D01*
X16298958Y-12171045D01*
X16284672Y-12156759D01*
X16270386Y-12128187D01*
X16256101Y-12071045D01*
X16256101Y-11999616D01*
X16270386Y-11942473D01*
X16284672Y-11913902D01*
X16298958Y-11899616D01*
X16327529Y-11885330D01*
X16527529Y-11885330D02*
X16713244Y-11885330D01*
X16613244Y-11999616D01*
X16656101Y-11999616D01*
X16684672Y-12013902D01*
X16698958Y-12028187D01*
X16713244Y-12056759D01*
X16713244Y-12128187D01*
X16698958Y-12156759D01*
X16684672Y-12171045D01*
X16656101Y-12185330D01*
X16570386Y-12185330D01*
X16541815Y-12171045D01*
X16527529Y-12156759D01*
X16970387Y-11885330D02*
X16913244Y-11885330D01*
X16884672Y-11899616D01*
X16870387Y-11913902D01*
X16841815Y-11956759D01*
X16827529Y-12013902D01*
X16827529Y-12128187D01*
X16841815Y-12156759D01*
X16856101Y-12171045D01*
X16884672Y-12185330D01*
X16941815Y-12185330D01*
X16970387Y-12171045D01*
X16984672Y-12156759D01*
X16998958Y-12128187D01*
X16998958Y-12056759D01*
X16984672Y-12028187D01*
X16970387Y-12013902D01*
X16941815Y-11999616D01*
X16884672Y-11999616D01*
X16856101Y-12013902D01*
X16841815Y-12028187D01*
X16827529Y-12056759D01*
X17113244Y-11885330D02*
X17113244Y-11942473D01*
X17227529Y-11885330D02*
X17227529Y-11942473D01*
X17670387Y-12299616D02*
X17656101Y-12285330D01*
X17627529Y-12242473D01*
X17613244Y-12213902D01*
X17598958Y-12171045D01*
X17584672Y-12099616D01*
X17584672Y-12042473D01*
X17598958Y-11971045D01*
X17613244Y-11928187D01*
X17627529Y-11899616D01*
X17656101Y-11856759D01*
X17670387Y-11842473D01*
X17941815Y-12185330D02*
X17770387Y-12185330D01*
X17856101Y-12185330D02*
X17856101Y-11885330D01*
X17827529Y-11928187D01*
X17798958Y-11956759D01*
X17770387Y-11971045D01*
X18298958Y-12185330D02*
X18298958Y-11885330D01*
X18427529Y-12185330D02*
X18427529Y-12028187D01*
X18413244Y-11999616D01*
X18384672Y-11985330D01*
X18341815Y-11985330D01*
X18313244Y-11999616D01*
X18298958Y-12013902D01*
X18613244Y-12185330D02*
X18584672Y-12171045D01*
X18570387Y-12156759D01*
X18556101Y-12128187D01*
X18556101Y-12042473D01*
X18570387Y-12013902D01*
X18584672Y-11999616D01*
X18613244Y-11985330D01*
X18656101Y-11985330D01*
X18684672Y-11999616D01*
X18698958Y-12013902D01*
X18713244Y-12042473D01*
X18713244Y-12128187D01*
X18698958Y-12156759D01*
X18684672Y-12171045D01*
X18656101Y-12185330D01*
X18613244Y-12185330D01*
X18884672Y-12185330D02*
X18856101Y-12171045D01*
X18841815Y-12142473D01*
X18841815Y-11885330D01*
X19113244Y-12171045D02*
X19084672Y-12185330D01*
X19027529Y-12185330D01*
X18998958Y-12171045D01*
X18984672Y-12142473D01*
X18984672Y-12028187D01*
X18998958Y-11999616D01*
X19027529Y-11985330D01*
X19084672Y-11985330D01*
X19113244Y-11999616D01*
X19127529Y-12028187D01*
X19127529Y-12056759D01*
X18984672Y-12085330D01*
X19227529Y-12299616D02*
X19241815Y-12285330D01*
X19270387Y-12242473D01*
X19284672Y-12213902D01*
X19298958Y-12171045D01*
X19313244Y-12099616D01*
X19313244Y-12042473D01*
X19298958Y-11971045D01*
X19284672Y-11928187D01*
X19270387Y-11899616D01*
X19241815Y-11856759D01*
X19227529Y-11842473D01*
X12898882Y-12395578D02*
X12998958Y-12495654D01*
X12998958Y-12395578D02*
X12898882Y-12495654D01*
X12998958Y-12445616D02*
G75*
G03X12998958Y-12445616I-50038J0D01*
G01*
X13427529Y-12581330D02*
X13256101Y-12581330D01*
X13341815Y-12581330D02*
X13341815Y-12281330D01*
X13313244Y-12324187D01*
X13284672Y-12352759D01*
X13256101Y-12367045D01*
X13556101Y-12552759D02*
X13570387Y-12567045D01*
X13556101Y-12581330D01*
X13541815Y-12567045D01*
X13556101Y-12552759D01*
X13556101Y-12581330D01*
X13756101Y-12281330D02*
X13784672Y-12281330D01*
X13813244Y-12295616D01*
X13827529Y-12309902D01*
X13841815Y-12338473D01*
X13856101Y-12395616D01*
X13856101Y-12467045D01*
X13841815Y-12524187D01*
X13827529Y-12552759D01*
X13813244Y-12567045D01*
X13784672Y-12581330D01*
X13756101Y-12581330D01*
X13727529Y-12567045D01*
X13713244Y-12552759D01*
X13698958Y-12524187D01*
X13684672Y-12467045D01*
X13684672Y-12395616D01*
X13698958Y-12338473D01*
X13713244Y-12309902D01*
X13727529Y-12295616D01*
X13756101Y-12281330D01*
X14041815Y-12281330D02*
X14070387Y-12281330D01*
X14098958Y-12295616D01*
X14113244Y-12309902D01*
X14127529Y-12338473D01*
X14141815Y-12395616D01*
X14141815Y-12467045D01*
X14127529Y-12524187D01*
X14113244Y-12552759D01*
X14098958Y-12567045D01*
X14070387Y-12581330D01*
X14041815Y-12581330D01*
X14013244Y-12567045D01*
X13998958Y-12552759D01*
X13984672Y-12524187D01*
X13970387Y-12467045D01*
X13970387Y-12395616D01*
X13984672Y-12338473D01*
X13998958Y-12309902D01*
X14013244Y-12295616D01*
X14041815Y-12281330D01*
X14270387Y-12581330D02*
X14270387Y-12381330D01*
X14270387Y-12409902D02*
X14284672Y-12395616D01*
X14313244Y-12381330D01*
X14356101Y-12381330D01*
X14384672Y-12395616D01*
X14398958Y-12424187D01*
X14398958Y-12581330D01*
X14398958Y-12424187D02*
X14413244Y-12395616D01*
X14441815Y-12381330D01*
X14484672Y-12381330D01*
X14513244Y-12395616D01*
X14527529Y-12424187D01*
X14527529Y-12581330D01*
X14670387Y-12581330D02*
X14670387Y-12381330D01*
X14670387Y-12409902D02*
X14684672Y-12395616D01*
X14713244Y-12381330D01*
X14756101Y-12381330D01*
X14784672Y-12395616D01*
X14798958Y-12424187D01*
X14798958Y-12581330D01*
X14798958Y-12424187D02*
X14813244Y-12395616D01*
X14841815Y-12381330D01*
X14884672Y-12381330D01*
X14913244Y-12395616D01*
X14927529Y-12424187D01*
X14927529Y-12581330D01*
X15513244Y-12267045D02*
X15256101Y-12652759D01*
X15898958Y-12281330D02*
X15927529Y-12281330D01*
X15956101Y-12295616D01*
X15970386Y-12309902D01*
X15984672Y-12338473D01*
X15998958Y-12395616D01*
X15998958Y-12467045D01*
X15984672Y-12524187D01*
X15970386Y-12552759D01*
X15956101Y-12567045D01*
X15927529Y-12581330D01*
X15898958Y-12581330D01*
X15870386Y-12567045D01*
X15856101Y-12552759D01*
X15841815Y-12524187D01*
X15827529Y-12467045D01*
X15827529Y-12395616D01*
X15841815Y-12338473D01*
X15856101Y-12309902D01*
X15870386Y-12295616D01*
X15898958Y-12281330D01*
X16127529Y-12552759D02*
X16141815Y-12567045D01*
X16127529Y-12581330D01*
X16113244Y-12567045D01*
X16127529Y-12552759D01*
X16127529Y-12581330D01*
X16327529Y-12281330D02*
X16356101Y-12281330D01*
X16384672Y-12295616D01*
X16398958Y-12309902D01*
X16413244Y-12338473D01*
X16427529Y-12395616D01*
X16427529Y-12467045D01*
X16413244Y-12524187D01*
X16398958Y-12552759D01*
X16384672Y-12567045D01*
X16356101Y-12581330D01*
X16327529Y-12581330D01*
X16298958Y-12567045D01*
X16284672Y-12552759D01*
X16270386Y-12524187D01*
X16256101Y-12467045D01*
X16256101Y-12395616D01*
X16270386Y-12338473D01*
X16284672Y-12309902D01*
X16298958Y-12295616D01*
X16327529Y-12281330D01*
X16527529Y-12281330D02*
X16713244Y-12281330D01*
X16613244Y-12395616D01*
X16656101Y-12395616D01*
X16684672Y-12409902D01*
X16698958Y-12424187D01*
X16713244Y-12452759D01*
X16713244Y-12524187D01*
X16698958Y-12552759D01*
X16684672Y-12567045D01*
X16656101Y-12581330D01*
X16570386Y-12581330D01*
X16541815Y-12567045D01*
X16527529Y-12552759D01*
X16856101Y-12581330D02*
X16913244Y-12581330D01*
X16941815Y-12567045D01*
X16956101Y-12552759D01*
X16984672Y-12509902D01*
X16998958Y-12452759D01*
X16998958Y-12338473D01*
X16984672Y-12309902D01*
X16970387Y-12295616D01*
X16941815Y-12281330D01*
X16884672Y-12281330D01*
X16856101Y-12295616D01*
X16841815Y-12309902D01*
X16827529Y-12338473D01*
X16827529Y-12409902D01*
X16841815Y-12438473D01*
X16856101Y-12452759D01*
X16884672Y-12467045D01*
X16941815Y-12467045D01*
X16970387Y-12452759D01*
X16984672Y-12438473D01*
X16998958Y-12409902D01*
X17113244Y-12281330D02*
X17113244Y-12338473D01*
X17227529Y-12281330D02*
X17227529Y-12338473D01*
X17670387Y-12695616D02*
X17656101Y-12681330D01*
X17627529Y-12638473D01*
X17613244Y-12609902D01*
X17598958Y-12567045D01*
X17584672Y-12495616D01*
X17584672Y-12438473D01*
X17598958Y-12367045D01*
X17613244Y-12324187D01*
X17627529Y-12295616D01*
X17656101Y-12252759D01*
X17670387Y-12238473D01*
X17770387Y-12309902D02*
X17784672Y-12295616D01*
X17813244Y-12281330D01*
X17884672Y-12281330D01*
X17913244Y-12295616D01*
X17927529Y-12309902D01*
X17941815Y-12338473D01*
X17941815Y-12367045D01*
X17927529Y-12409902D01*
X17756101Y-12581330D01*
X17941815Y-12581330D01*
X18041815Y-12281330D02*
X18227529Y-12281330D01*
X18127529Y-12395616D01*
X18170387Y-12395616D01*
X18198958Y-12409902D01*
X18213244Y-12424187D01*
X18227529Y-12452759D01*
X18227529Y-12524187D01*
X18213244Y-12552759D01*
X18198958Y-12567045D01*
X18170387Y-12581330D01*
X18084672Y-12581330D01*
X18056101Y-12567045D01*
X18041815Y-12552759D01*
X18584672Y-12581330D02*
X18584672Y-12281330D01*
X18713244Y-12581330D02*
X18713244Y-12424187D01*
X18698958Y-12395616D01*
X18670387Y-12381330D01*
X18627529Y-12381330D01*
X18598958Y-12395616D01*
X18584672Y-12409902D01*
X18898958Y-12581330D02*
X18870387Y-12567045D01*
X18856101Y-12552759D01*
X18841815Y-12524187D01*
X18841815Y-12438473D01*
X18856101Y-12409902D01*
X18870387Y-12395616D01*
X18898958Y-12381330D01*
X18941815Y-12381330D01*
X18970387Y-12395616D01*
X18984672Y-12409902D01*
X18998958Y-12438473D01*
X18998958Y-12524187D01*
X18984672Y-12552759D01*
X18970387Y-12567045D01*
X18941815Y-12581330D01*
X18898958Y-12581330D01*
X19170387Y-12581330D02*
X19141815Y-12567045D01*
X19127529Y-12538473D01*
X19127529Y-12281330D01*
X19398958Y-12567045D02*
X19370387Y-12581330D01*
X19313244Y-12581330D01*
X19284672Y-12567045D01*
X19270387Y-12538473D01*
X19270387Y-12424187D01*
X19284672Y-12395616D01*
X19313244Y-12381330D01*
X19370387Y-12381330D01*
X19398958Y-12395616D01*
X19413244Y-12424187D01*
X19413244Y-12452759D01*
X19270387Y-12481330D01*
X19527530Y-12567045D02*
X19556101Y-12581330D01*
X19613244Y-12581330D01*
X19641815Y-12567045D01*
X19656101Y-12538473D01*
X19656101Y-12524187D01*
X19641815Y-12495616D01*
X19613244Y-12481330D01*
X19570387Y-12481330D01*
X19541815Y-12467045D01*
X19527530Y-12438473D01*
X19527530Y-12424187D01*
X19541815Y-12395616D01*
X19570387Y-12381330D01*
X19613244Y-12381330D01*
X19641815Y-12395616D01*
X19756101Y-12695616D02*
X19770387Y-12681330D01*
X19798958Y-12638473D01*
X19813244Y-12609902D01*
X19827529Y-12567045D01*
X19841815Y-12495616D01*
X19841815Y-12438473D01*
X19827529Y-12367045D01*
X19813244Y-12324187D01*
X19798958Y-12295616D01*
X19770387Y-12252759D01*
X19756101Y-12238473D01*
X12897358Y-12790816D02*
X12998958Y-12892416D01*
X12998958Y-12790816D02*
X12897358Y-12892416D01*
X12948158Y-12790816D02*
X12948158Y-12892416D01*
X12897358Y-12841616D02*
X12998958Y-12841616D01*
X13427529Y-12977330D02*
X13256101Y-12977330D01*
X13341815Y-12977330D02*
X13341815Y-12677330D01*
X13313244Y-12720187D01*
X13284672Y-12748759D01*
X13256101Y-12763045D01*
X13556101Y-12948759D02*
X13570387Y-12963045D01*
X13556101Y-12977330D01*
X13541815Y-12963045D01*
X13556101Y-12948759D01*
X13556101Y-12977330D01*
X13756101Y-12677330D02*
X13784672Y-12677330D01*
X13813244Y-12691616D01*
X13827529Y-12705902D01*
X13841815Y-12734473D01*
X13856101Y-12791616D01*
X13856101Y-12863045D01*
X13841815Y-12920187D01*
X13827529Y-12948759D01*
X13813244Y-12963045D01*
X13784672Y-12977330D01*
X13756101Y-12977330D01*
X13727529Y-12963045D01*
X13713244Y-12948759D01*
X13698958Y-12920187D01*
X13684672Y-12863045D01*
X13684672Y-12791616D01*
X13698958Y-12734473D01*
X13713244Y-12705902D01*
X13727529Y-12691616D01*
X13756101Y-12677330D01*
X13970387Y-12705902D02*
X13984672Y-12691616D01*
X14013244Y-12677330D01*
X14084672Y-12677330D01*
X14113244Y-12691616D01*
X14127529Y-12705902D01*
X14141815Y-12734473D01*
X14141815Y-12763045D01*
X14127529Y-12805902D01*
X13956101Y-12977330D01*
X14141815Y-12977330D01*
X14270387Y-12977330D02*
X14270387Y-12777330D01*
X14270387Y-12805902D02*
X14284672Y-12791616D01*
X14313244Y-12777330D01*
X14356101Y-12777330D01*
X14384672Y-12791616D01*
X14398958Y-12820187D01*
X14398958Y-12977330D01*
X14398958Y-12820187D02*
X14413244Y-12791616D01*
X14441815Y-12777330D01*
X14484672Y-12777330D01*
X14513244Y-12791616D01*
X14527529Y-12820187D01*
X14527529Y-12977330D01*
X14670387Y-12977330D02*
X14670387Y-12777330D01*
X14670387Y-12805902D02*
X14684672Y-12791616D01*
X14713244Y-12777330D01*
X14756101Y-12777330D01*
X14784672Y-12791616D01*
X14798958Y-12820187D01*
X14798958Y-12977330D01*
X14798958Y-12820187D02*
X14813244Y-12791616D01*
X14841815Y-12777330D01*
X14884672Y-12777330D01*
X14913244Y-12791616D01*
X14927529Y-12820187D01*
X14927529Y-12977330D01*
X15513244Y-12663045D02*
X15256101Y-13048759D01*
X15898958Y-12677330D02*
X15927529Y-12677330D01*
X15956101Y-12691616D01*
X15970386Y-12705902D01*
X15984672Y-12734473D01*
X15998958Y-12791616D01*
X15998958Y-12863045D01*
X15984672Y-12920187D01*
X15970386Y-12948759D01*
X15956101Y-12963045D01*
X15927529Y-12977330D01*
X15898958Y-12977330D01*
X15870386Y-12963045D01*
X15856101Y-12948759D01*
X15841815Y-12920187D01*
X15827529Y-12863045D01*
X15827529Y-12791616D01*
X15841815Y-12734473D01*
X15856101Y-12705902D01*
X15870386Y-12691616D01*
X15898958Y-12677330D01*
X16127529Y-12948759D02*
X16141815Y-12963045D01*
X16127529Y-12977330D01*
X16113244Y-12963045D01*
X16127529Y-12948759D01*
X16127529Y-12977330D01*
X16327529Y-12677330D02*
X16356101Y-12677330D01*
X16384672Y-12691616D01*
X16398958Y-12705902D01*
X16413244Y-12734473D01*
X16427529Y-12791616D01*
X16427529Y-12863045D01*
X16413244Y-12920187D01*
X16398958Y-12948759D01*
X16384672Y-12963045D01*
X16356101Y-12977330D01*
X16327529Y-12977330D01*
X16298958Y-12963045D01*
X16284672Y-12948759D01*
X16270386Y-12920187D01*
X16256101Y-12863045D01*
X16256101Y-12791616D01*
X16270386Y-12734473D01*
X16284672Y-12705902D01*
X16298958Y-12691616D01*
X16327529Y-12677330D01*
X16684672Y-12777330D02*
X16684672Y-12977330D01*
X16613244Y-12663045D02*
X16541815Y-12877330D01*
X16727529Y-12877330D01*
X16898958Y-12677330D02*
X16927529Y-12677330D01*
X16956101Y-12691616D01*
X16970387Y-12705902D01*
X16984672Y-12734473D01*
X16998958Y-12791616D01*
X16998958Y-12863045D01*
X16984672Y-12920187D01*
X16970387Y-12948759D01*
X16956101Y-12963045D01*
X16927529Y-12977330D01*
X16898958Y-12977330D01*
X16870387Y-12963045D01*
X16856101Y-12948759D01*
X16841815Y-12920187D01*
X16827529Y-12863045D01*
X16827529Y-12791616D01*
X16841815Y-12734473D01*
X16856101Y-12705902D01*
X16870387Y-12691616D01*
X16898958Y-12677330D01*
X17113244Y-12677330D02*
X17113244Y-12734473D01*
X17227529Y-12677330D02*
X17227529Y-12734473D01*
X17670387Y-13091616D02*
X17656101Y-13077330D01*
X17627529Y-13034473D01*
X17613244Y-13005902D01*
X17598958Y-12963045D01*
X17584672Y-12891616D01*
X17584672Y-12834473D01*
X17598958Y-12763045D01*
X17613244Y-12720187D01*
X17627529Y-12691616D01*
X17656101Y-12648759D01*
X17670387Y-12634473D01*
X17827529Y-12805902D02*
X17798958Y-12791616D01*
X17784672Y-12777330D01*
X17770387Y-12748759D01*
X17770387Y-12734473D01*
X17784672Y-12705902D01*
X17798958Y-12691616D01*
X17827529Y-12677330D01*
X17884672Y-12677330D01*
X17913244Y-12691616D01*
X17927529Y-12705902D01*
X17941815Y-12734473D01*
X17941815Y-12748759D01*
X17927529Y-12777330D01*
X17913244Y-12791616D01*
X17884672Y-12805902D01*
X17827529Y-12805902D01*
X17798958Y-12820187D01*
X17784672Y-12834473D01*
X17770387Y-12863045D01*
X17770387Y-12920187D01*
X17784672Y-12948759D01*
X17798958Y-12963045D01*
X17827529Y-12977330D01*
X17884672Y-12977330D01*
X17913244Y-12963045D01*
X17927529Y-12948759D01*
X17941815Y-12920187D01*
X17941815Y-12863045D01*
X17927529Y-12834473D01*
X17913244Y-12820187D01*
X17884672Y-12805902D01*
X18298958Y-12977330D02*
X18298958Y-12677330D01*
X18427529Y-12977330D02*
X18427529Y-12820187D01*
X18413244Y-12791616D01*
X18384672Y-12777330D01*
X18341815Y-12777330D01*
X18313244Y-12791616D01*
X18298958Y-12805902D01*
X18613244Y-12977330D02*
X18584672Y-12963045D01*
X18570387Y-12948759D01*
X18556101Y-12920187D01*
X18556101Y-12834473D01*
X18570387Y-12805902D01*
X18584672Y-12791616D01*
X18613244Y-12777330D01*
X18656101Y-12777330D01*
X18684672Y-12791616D01*
X18698958Y-12805902D01*
X18713244Y-12834473D01*
X18713244Y-12920187D01*
X18698958Y-12948759D01*
X18684672Y-12963045D01*
X18656101Y-12977330D01*
X18613244Y-12977330D01*
X18884672Y-12977330D02*
X18856101Y-12963045D01*
X18841815Y-12934473D01*
X18841815Y-12677330D01*
X19113244Y-12963045D02*
X19084672Y-12977330D01*
X19027529Y-12977330D01*
X18998958Y-12963045D01*
X18984672Y-12934473D01*
X18984672Y-12820187D01*
X18998958Y-12791616D01*
X19027529Y-12777330D01*
X19084672Y-12777330D01*
X19113244Y-12791616D01*
X19127529Y-12820187D01*
X19127529Y-12848759D01*
X18984672Y-12877330D01*
X19241815Y-12963045D02*
X19270387Y-12977330D01*
X19327529Y-12977330D01*
X19356101Y-12963045D01*
X19370387Y-12934473D01*
X19370387Y-12920187D01*
X19356101Y-12891616D01*
X19327529Y-12877330D01*
X19284672Y-12877330D01*
X19256101Y-12863045D01*
X19241815Y-12834473D01*
X19241815Y-12820187D01*
X19256101Y-12791616D01*
X19284672Y-12777330D01*
X19327529Y-12777330D01*
X19356101Y-12791616D01*
X19470387Y-13091616D02*
X19484672Y-13077330D01*
X19513244Y-13034473D01*
X19527529Y-13005902D01*
X19541815Y-12963045D01*
X19556101Y-12891616D01*
X19556101Y-12834473D01*
X19541815Y-12763045D01*
X19527529Y-12720187D01*
X19513244Y-12691616D01*
X19484672Y-12648759D01*
X19470387Y-12634473D01*
X12848958Y-13162616D02*
X12998958Y-13312616D01*
X12998958Y-13162616D02*
X12848958Y-13312616D01*
X12976991Y-13290650D02*
X12976991Y-13184583D01*
X12870924Y-13184583D01*
X12870924Y-13290650D01*
X12976991Y-13290650D01*
X13427529Y-13373330D02*
X13256101Y-13373330D01*
X13341815Y-13373330D02*
X13341815Y-13073330D01*
X13313244Y-13116187D01*
X13284672Y-13144759D01*
X13256101Y-13159045D01*
X13556101Y-13344759D02*
X13570387Y-13359045D01*
X13556101Y-13373330D01*
X13541815Y-13359045D01*
X13556101Y-13344759D01*
X13556101Y-13373330D01*
X13841815Y-13073330D02*
X13698958Y-13073330D01*
X13684672Y-13216187D01*
X13698958Y-13201902D01*
X13727529Y-13187616D01*
X13798958Y-13187616D01*
X13827529Y-13201902D01*
X13841815Y-13216187D01*
X13856101Y-13244759D01*
X13856101Y-13316187D01*
X13841815Y-13344759D01*
X13827529Y-13359045D01*
X13798958Y-13373330D01*
X13727529Y-13373330D01*
X13698958Y-13359045D01*
X13684672Y-13344759D01*
X14041815Y-13073330D02*
X14070387Y-13073330D01*
X14098958Y-13087616D01*
X14113244Y-13101902D01*
X14127529Y-13130473D01*
X14141815Y-13187616D01*
X14141815Y-13259045D01*
X14127529Y-13316187D01*
X14113244Y-13344759D01*
X14098958Y-13359045D01*
X14070387Y-13373330D01*
X14041815Y-13373330D01*
X14013244Y-13359045D01*
X13998958Y-13344759D01*
X13984672Y-13316187D01*
X13970387Y-13259045D01*
X13970387Y-13187616D01*
X13984672Y-13130473D01*
X13998958Y-13101902D01*
X14013244Y-13087616D01*
X14041815Y-13073330D01*
X14270387Y-13373330D02*
X14270387Y-13173330D01*
X14270387Y-13201902D02*
X14284672Y-13187616D01*
X14313244Y-13173330D01*
X14356101Y-13173330D01*
X14384672Y-13187616D01*
X14398958Y-13216187D01*
X14398958Y-13373330D01*
X14398958Y-13216187D02*
X14413244Y-13187616D01*
X14441815Y-13173330D01*
X14484672Y-13173330D01*
X14513244Y-13187616D01*
X14527529Y-13216187D01*
X14527529Y-13373330D01*
X14670387Y-13373330D02*
X14670387Y-13173330D01*
X14670387Y-13201902D02*
X14684672Y-13187616D01*
X14713244Y-13173330D01*
X14756101Y-13173330D01*
X14784672Y-13187616D01*
X14798958Y-13216187D01*
X14798958Y-13373330D01*
X14798958Y-13216187D02*
X14813244Y-13187616D01*
X14841815Y-13173330D01*
X14884672Y-13173330D01*
X14913244Y-13187616D01*
X14927529Y-13216187D01*
X14927529Y-13373330D01*
X15513244Y-13059045D02*
X15256101Y-13444759D01*
X15898958Y-13073330D02*
X15927529Y-13073330D01*
X15956101Y-13087616D01*
X15970386Y-13101902D01*
X15984672Y-13130473D01*
X15998958Y-13187616D01*
X15998958Y-13259045D01*
X15984672Y-13316187D01*
X15970386Y-13344759D01*
X15956101Y-13359045D01*
X15927529Y-13373330D01*
X15898958Y-13373330D01*
X15870386Y-13359045D01*
X15856101Y-13344759D01*
X15841815Y-13316187D01*
X15827529Y-13259045D01*
X15827529Y-13187616D01*
X15841815Y-13130473D01*
X15856101Y-13101902D01*
X15870386Y-13087616D01*
X15898958Y-13073330D01*
X16127529Y-13344759D02*
X16141815Y-13359045D01*
X16127529Y-13373330D01*
X16113244Y-13359045D01*
X16127529Y-13344759D01*
X16127529Y-13373330D01*
X16327529Y-13073330D02*
X16356101Y-13073330D01*
X16384672Y-13087616D01*
X16398958Y-13101902D01*
X16413244Y-13130473D01*
X16427529Y-13187616D01*
X16427529Y-13259045D01*
X16413244Y-13316187D01*
X16398958Y-13344759D01*
X16384672Y-13359045D01*
X16356101Y-13373330D01*
X16327529Y-13373330D01*
X16298958Y-13359045D01*
X16284672Y-13344759D01*
X16270386Y-13316187D01*
X16256101Y-13259045D01*
X16256101Y-13187616D01*
X16270386Y-13130473D01*
X16284672Y-13101902D01*
X16298958Y-13087616D01*
X16327529Y-13073330D01*
X16698958Y-13073330D02*
X16556101Y-13073330D01*
X16541815Y-13216187D01*
X16556101Y-13201902D01*
X16584672Y-13187616D01*
X16656101Y-13187616D01*
X16684672Y-13201902D01*
X16698958Y-13216187D01*
X16713244Y-13244759D01*
X16713244Y-13316187D01*
X16698958Y-13344759D01*
X16684672Y-13359045D01*
X16656101Y-13373330D01*
X16584672Y-13373330D01*
X16556101Y-13359045D01*
X16541815Y-13344759D01*
X16856101Y-13373330D02*
X16913244Y-13373330D01*
X16941815Y-13359045D01*
X16956101Y-13344759D01*
X16984672Y-13301902D01*
X16998958Y-13244759D01*
X16998958Y-13130473D01*
X16984672Y-13101902D01*
X16970387Y-13087616D01*
X16941815Y-13073330D01*
X16884672Y-13073330D01*
X16856101Y-13087616D01*
X16841815Y-13101902D01*
X16827529Y-13130473D01*
X16827529Y-13201902D01*
X16841815Y-13230473D01*
X16856101Y-13244759D01*
X16884672Y-13259045D01*
X16941815Y-13259045D01*
X16970387Y-13244759D01*
X16984672Y-13230473D01*
X16998958Y-13201902D01*
X17113244Y-13073330D02*
X17113244Y-13130473D01*
X17227529Y-13073330D02*
X17227529Y-13130473D01*
X17670387Y-13487616D02*
X17656101Y-13473330D01*
X17627529Y-13430473D01*
X17613244Y-13401902D01*
X17598958Y-13359045D01*
X17584672Y-13287616D01*
X17584672Y-13230473D01*
X17598958Y-13159045D01*
X17613244Y-13116187D01*
X17627529Y-13087616D01*
X17656101Y-13044759D01*
X17670387Y-13030473D01*
X17770387Y-13101902D02*
X17784672Y-13087616D01*
X17813244Y-13073330D01*
X17884672Y-13073330D01*
X17913244Y-13087616D01*
X17927529Y-13101902D01*
X17941815Y-13130473D01*
X17941815Y-13159045D01*
X17927529Y-13201902D01*
X17756101Y-13373330D01*
X17941815Y-13373330D01*
X18298958Y-13373330D02*
X18298958Y-13073330D01*
X18427529Y-13373330D02*
X18427529Y-13216187D01*
X18413244Y-13187616D01*
X18384672Y-13173330D01*
X18341815Y-13173330D01*
X18313244Y-13187616D01*
X18298958Y-13201902D01*
X18613244Y-13373330D02*
X18584672Y-13359045D01*
X18570387Y-13344759D01*
X18556101Y-13316187D01*
X18556101Y-13230473D01*
X18570387Y-13201902D01*
X18584672Y-13187616D01*
X18613244Y-13173330D01*
X18656101Y-13173330D01*
X18684672Y-13187616D01*
X18698958Y-13201902D01*
X18713244Y-13230473D01*
X18713244Y-13316187D01*
X18698958Y-13344759D01*
X18684672Y-13359045D01*
X18656101Y-13373330D01*
X18613244Y-13373330D01*
X18884672Y-13373330D02*
X18856101Y-13359045D01*
X18841815Y-13330473D01*
X18841815Y-13073330D01*
X19113244Y-13359045D02*
X19084672Y-13373330D01*
X19027529Y-13373330D01*
X18998958Y-13359045D01*
X18984672Y-13330473D01*
X18984672Y-13216187D01*
X18998958Y-13187616D01*
X19027529Y-13173330D01*
X19084672Y-13173330D01*
X19113244Y-13187616D01*
X19127529Y-13216187D01*
X19127529Y-13244759D01*
X18984672Y-13273330D01*
X19241815Y-13359045D02*
X19270387Y-13373330D01*
X19327529Y-13373330D01*
X19356101Y-13359045D01*
X19370387Y-13330473D01*
X19370387Y-13316187D01*
X19356101Y-13287616D01*
X19327529Y-13273330D01*
X19284672Y-13273330D01*
X19256101Y-13259045D01*
X19241815Y-13230473D01*
X19241815Y-13216187D01*
X19256101Y-13187616D01*
X19284672Y-13173330D01*
X19327529Y-13173330D01*
X19356101Y-13187616D01*
X19470387Y-13487616D02*
X19484672Y-13473330D01*
X19513244Y-13430473D01*
X19527529Y-13401902D01*
X19541815Y-13359045D01*
X19556101Y-13287616D01*
X19556101Y-13230473D01*
X19541815Y-13159045D01*
X19527529Y-13116187D01*
X19513244Y-13087616D01*
X19484672Y-13044759D01*
X19470387Y-13030473D01*
X12818958Y-13543616D02*
X12998958Y-13723616D01*
X12998958Y-13543616D02*
X12818958Y-13723616D01*
X12908958Y-13723616D02*
X12998958Y-13633616D01*
X12908958Y-13543616D01*
X12818958Y-13633616D01*
X12908958Y-13723616D01*
X13427529Y-13769330D02*
X13256101Y-13769330D01*
X13341815Y-13769330D02*
X13341815Y-13469330D01*
X13313244Y-13512187D01*
X13284672Y-13540759D01*
X13256101Y-13555045D01*
X13556101Y-13740759D02*
X13570387Y-13755045D01*
X13556101Y-13769330D01*
X13541815Y-13755045D01*
X13556101Y-13740759D01*
X13556101Y-13769330D01*
X13741815Y-13597902D02*
X13713244Y-13583616D01*
X13698958Y-13569330D01*
X13684672Y-13540759D01*
X13684672Y-13526473D01*
X13698958Y-13497902D01*
X13713244Y-13483616D01*
X13741815Y-13469330D01*
X13798958Y-13469330D01*
X13827529Y-13483616D01*
X13841815Y-13497902D01*
X13856101Y-13526473D01*
X13856101Y-13540759D01*
X13841815Y-13569330D01*
X13827529Y-13583616D01*
X13798958Y-13597902D01*
X13741815Y-13597902D01*
X13713244Y-13612187D01*
X13698958Y-13626473D01*
X13684672Y-13655045D01*
X13684672Y-13712187D01*
X13698958Y-13740759D01*
X13713244Y-13755045D01*
X13741815Y-13769330D01*
X13798958Y-13769330D01*
X13827529Y-13755045D01*
X13841815Y-13740759D01*
X13856101Y-13712187D01*
X13856101Y-13655045D01*
X13841815Y-13626473D01*
X13827529Y-13612187D01*
X13798958Y-13597902D01*
X14041815Y-13469330D02*
X14070387Y-13469330D01*
X14098958Y-13483616D01*
X14113244Y-13497902D01*
X14127529Y-13526473D01*
X14141815Y-13583616D01*
X14141815Y-13655045D01*
X14127529Y-13712187D01*
X14113244Y-13740759D01*
X14098958Y-13755045D01*
X14070387Y-13769330D01*
X14041815Y-13769330D01*
X14013244Y-13755045D01*
X13998958Y-13740759D01*
X13984672Y-13712187D01*
X13970387Y-13655045D01*
X13970387Y-13583616D01*
X13984672Y-13526473D01*
X13998958Y-13497902D01*
X14013244Y-13483616D01*
X14041815Y-13469330D01*
X14270387Y-13769330D02*
X14270387Y-13569330D01*
X14270387Y-13597902D02*
X14284672Y-13583616D01*
X14313244Y-13569330D01*
X14356101Y-13569330D01*
X14384672Y-13583616D01*
X14398958Y-13612187D01*
X14398958Y-13769330D01*
X14398958Y-13612187D02*
X14413244Y-13583616D01*
X14441815Y-13569330D01*
X14484672Y-13569330D01*
X14513244Y-13583616D01*
X14527529Y-13612187D01*
X14527529Y-13769330D01*
X14670387Y-13769330D02*
X14670387Y-13569330D01*
X14670387Y-13597902D02*
X14684672Y-13583616D01*
X14713244Y-13569330D01*
X14756101Y-13569330D01*
X14784672Y-13583616D01*
X14798958Y-13612187D01*
X14798958Y-13769330D01*
X14798958Y-13612187D02*
X14813244Y-13583616D01*
X14841815Y-13569330D01*
X14884672Y-13569330D01*
X14913244Y-13583616D01*
X14927529Y-13612187D01*
X14927529Y-13769330D01*
X15513244Y-13455045D02*
X15256101Y-13840759D01*
X15898958Y-13469330D02*
X15927529Y-13469330D01*
X15956101Y-13483616D01*
X15970386Y-13497902D01*
X15984672Y-13526473D01*
X15998958Y-13583616D01*
X15998958Y-13655045D01*
X15984672Y-13712187D01*
X15970386Y-13740759D01*
X15956101Y-13755045D01*
X15927529Y-13769330D01*
X15898958Y-13769330D01*
X15870386Y-13755045D01*
X15856101Y-13740759D01*
X15841815Y-13712187D01*
X15827529Y-13655045D01*
X15827529Y-13583616D01*
X15841815Y-13526473D01*
X15856101Y-13497902D01*
X15870386Y-13483616D01*
X15898958Y-13469330D01*
X16127529Y-13740759D02*
X16141815Y-13755045D01*
X16127529Y-13769330D01*
X16113244Y-13755045D01*
X16127529Y-13740759D01*
X16127529Y-13769330D01*
X16327529Y-13469330D02*
X16356101Y-13469330D01*
X16384672Y-13483616D01*
X16398958Y-13497902D01*
X16413244Y-13526473D01*
X16427529Y-13583616D01*
X16427529Y-13655045D01*
X16413244Y-13712187D01*
X16398958Y-13740759D01*
X16384672Y-13755045D01*
X16356101Y-13769330D01*
X16327529Y-13769330D01*
X16298958Y-13755045D01*
X16284672Y-13740759D01*
X16270386Y-13712187D01*
X16256101Y-13655045D01*
X16256101Y-13583616D01*
X16270386Y-13526473D01*
X16284672Y-13497902D01*
X16298958Y-13483616D01*
X16327529Y-13469330D01*
X16527529Y-13469330D02*
X16727529Y-13469330D01*
X16598958Y-13769330D01*
X16998958Y-13769330D02*
X16827529Y-13769330D01*
X16913244Y-13769330D02*
X16913244Y-13469330D01*
X16884672Y-13512187D01*
X16856101Y-13540759D01*
X16827529Y-13555045D01*
X17113244Y-13469330D02*
X17113244Y-13526473D01*
X17227529Y-13469330D02*
X17227529Y-13526473D01*
X17670387Y-13883616D02*
X17656101Y-13869330D01*
X17627529Y-13826473D01*
X17613244Y-13797902D01*
X17598958Y-13755045D01*
X17584672Y-13683616D01*
X17584672Y-13626473D01*
X17598958Y-13555045D01*
X17613244Y-13512187D01*
X17627529Y-13483616D01*
X17656101Y-13440759D01*
X17670387Y-13426473D01*
X17770387Y-13497902D02*
X17784672Y-13483616D01*
X17813244Y-13469330D01*
X17884672Y-13469330D01*
X17913244Y-13483616D01*
X17927529Y-13497902D01*
X17941815Y-13526473D01*
X17941815Y-13555045D01*
X17927529Y-13597902D01*
X17756101Y-13769330D01*
X17941815Y-13769330D01*
X18298958Y-13769330D02*
X18298958Y-13469330D01*
X18427529Y-13769330D02*
X18427529Y-13612187D01*
X18413244Y-13583616D01*
X18384672Y-13569330D01*
X18341815Y-13569330D01*
X18313244Y-13583616D01*
X18298958Y-13597902D01*
X18613244Y-13769330D02*
X18584672Y-13755045D01*
X18570387Y-13740759D01*
X18556101Y-13712187D01*
X18556101Y-13626473D01*
X18570387Y-13597902D01*
X18584672Y-13583616D01*
X18613244Y-13569330D01*
X18656101Y-13569330D01*
X18684672Y-13583616D01*
X18698958Y-13597902D01*
X18713244Y-13626473D01*
X18713244Y-13712187D01*
X18698958Y-13740759D01*
X18684672Y-13755045D01*
X18656101Y-13769330D01*
X18613244Y-13769330D01*
X18884672Y-13769330D02*
X18856101Y-13755045D01*
X18841815Y-13726473D01*
X18841815Y-13469330D01*
X19113244Y-13755045D02*
X19084672Y-13769330D01*
X19027529Y-13769330D01*
X18998958Y-13755045D01*
X18984672Y-13726473D01*
X18984672Y-13612187D01*
X18998958Y-13583616D01*
X19027529Y-13569330D01*
X19084672Y-13569330D01*
X19113244Y-13583616D01*
X19127529Y-13612187D01*
X19127529Y-13640759D01*
X18984672Y-13669330D01*
X19241815Y-13755045D02*
X19270387Y-13769330D01*
X19327529Y-13769330D01*
X19356101Y-13755045D01*
X19370387Y-13726473D01*
X19370387Y-13712187D01*
X19356101Y-13683616D01*
X19327529Y-13669330D01*
X19284672Y-13669330D01*
X19256101Y-13655045D01*
X19241815Y-13626473D01*
X19241815Y-13612187D01*
X19256101Y-13583616D01*
X19284672Y-13569330D01*
X19327529Y-13569330D01*
X19356101Y-13583616D01*
X19470387Y-13883616D02*
X19484672Y-13869330D01*
X19513244Y-13826473D01*
X19527529Y-13797902D01*
X19541815Y-13755045D01*
X19556101Y-13683616D01*
X19556101Y-13626473D01*
X19541815Y-13555045D01*
X19527529Y-13512187D01*
X19513244Y-13483616D01*
X19484672Y-13440759D01*
X19470387Y-13426473D01*
X12823952Y-13854610D02*
X12823952Y-14204622D01*
X12648946Y-14029616D02*
X12998958Y-14029616D01*
X12998958Y-14029616D02*
G75*
G03X12998958Y-14029616I-175006J0D01*
G01*
X13241815Y-13865330D02*
X13427529Y-13865330D01*
X13327529Y-13979616D01*
X13370387Y-13979616D01*
X13398958Y-13993902D01*
X13413244Y-14008187D01*
X13427529Y-14036759D01*
X13427529Y-14108187D01*
X13413244Y-14136759D01*
X13398958Y-14151045D01*
X13370387Y-14165330D01*
X13284672Y-14165330D01*
X13256101Y-14151045D01*
X13241815Y-14136759D01*
X13556101Y-14136759D02*
X13570387Y-14151045D01*
X13556101Y-14165330D01*
X13541815Y-14151045D01*
X13556101Y-14136759D01*
X13556101Y-14165330D01*
X13841815Y-13865330D02*
X13698958Y-13865330D01*
X13684672Y-14008187D01*
X13698958Y-13993902D01*
X13727529Y-13979616D01*
X13798958Y-13979616D01*
X13827529Y-13993902D01*
X13841815Y-14008187D01*
X13856101Y-14036759D01*
X13856101Y-14108187D01*
X13841815Y-14136759D01*
X13827529Y-14151045D01*
X13798958Y-14165330D01*
X13727529Y-14165330D01*
X13698958Y-14151045D01*
X13684672Y-14136759D01*
X14041815Y-13865330D02*
X14070387Y-13865330D01*
X14098958Y-13879616D01*
X14113244Y-13893902D01*
X14127529Y-13922473D01*
X14141815Y-13979616D01*
X14141815Y-14051045D01*
X14127529Y-14108187D01*
X14113244Y-14136759D01*
X14098958Y-14151045D01*
X14070387Y-14165330D01*
X14041815Y-14165330D01*
X14013244Y-14151045D01*
X13998958Y-14136759D01*
X13984672Y-14108187D01*
X13970387Y-14051045D01*
X13970387Y-13979616D01*
X13984672Y-13922473D01*
X13998958Y-13893902D01*
X14013244Y-13879616D01*
X14041815Y-13865330D01*
X14270387Y-14165330D02*
X14270387Y-13965330D01*
X14270387Y-13993902D02*
X14284672Y-13979616D01*
X14313244Y-13965330D01*
X14356101Y-13965330D01*
X14384672Y-13979616D01*
X14398958Y-14008187D01*
X14398958Y-14165330D01*
X14398958Y-14008187D02*
X14413244Y-13979616D01*
X14441815Y-13965330D01*
X14484672Y-13965330D01*
X14513244Y-13979616D01*
X14527529Y-14008187D01*
X14527529Y-14165330D01*
X14670387Y-14165330D02*
X14670387Y-13965330D01*
X14670387Y-13993902D02*
X14684672Y-13979616D01*
X14713244Y-13965330D01*
X14756101Y-13965330D01*
X14784672Y-13979616D01*
X14798958Y-14008187D01*
X14798958Y-14165330D01*
X14798958Y-14008187D02*
X14813244Y-13979616D01*
X14841815Y-13965330D01*
X14884672Y-13965330D01*
X14913244Y-13979616D01*
X14927529Y-14008187D01*
X14927529Y-14165330D01*
X15513244Y-13851045D02*
X15256101Y-14236759D01*
X15898958Y-13865330D02*
X15927529Y-13865330D01*
X15956101Y-13879616D01*
X15970386Y-13893902D01*
X15984672Y-13922473D01*
X15998958Y-13979616D01*
X15998958Y-14051045D01*
X15984672Y-14108187D01*
X15970386Y-14136759D01*
X15956101Y-14151045D01*
X15927529Y-14165330D01*
X15898958Y-14165330D01*
X15870386Y-14151045D01*
X15856101Y-14136759D01*
X15841815Y-14108187D01*
X15827529Y-14051045D01*
X15827529Y-13979616D01*
X15841815Y-13922473D01*
X15856101Y-13893902D01*
X15870386Y-13879616D01*
X15898958Y-13865330D01*
X16127529Y-14136759D02*
X16141815Y-14151045D01*
X16127529Y-14165330D01*
X16113244Y-14151045D01*
X16127529Y-14136759D01*
X16127529Y-14165330D01*
X16427529Y-14165330D02*
X16256101Y-14165330D01*
X16341815Y-14165330D02*
X16341815Y-13865330D01*
X16313244Y-13908187D01*
X16284672Y-13936759D01*
X16256101Y-13951045D01*
X16527529Y-13865330D02*
X16713244Y-13865330D01*
X16613244Y-13979616D01*
X16656101Y-13979616D01*
X16684672Y-13993902D01*
X16698958Y-14008187D01*
X16713244Y-14036759D01*
X16713244Y-14108187D01*
X16698958Y-14136759D01*
X16684672Y-14151045D01*
X16656101Y-14165330D01*
X16570386Y-14165330D01*
X16541815Y-14151045D01*
X16527529Y-14136759D01*
X16884672Y-13993902D02*
X16856101Y-13979616D01*
X16841815Y-13965330D01*
X16827529Y-13936759D01*
X16827529Y-13922473D01*
X16841815Y-13893902D01*
X16856101Y-13879616D01*
X16884672Y-13865330D01*
X16941815Y-13865330D01*
X16970387Y-13879616D01*
X16984672Y-13893902D01*
X16998958Y-13922473D01*
X16998958Y-13936759D01*
X16984672Y-13965330D01*
X16970387Y-13979616D01*
X16941815Y-13993902D01*
X16884672Y-13993902D01*
X16856101Y-14008187D01*
X16841815Y-14022473D01*
X16827529Y-14051045D01*
X16827529Y-14108187D01*
X16841815Y-14136759D01*
X16856101Y-14151045D01*
X16884672Y-14165330D01*
X16941815Y-14165330D01*
X16970387Y-14151045D01*
X16984672Y-14136759D01*
X16998958Y-14108187D01*
X16998958Y-14051045D01*
X16984672Y-14022473D01*
X16970387Y-14008187D01*
X16941815Y-13993902D01*
X17113244Y-13865330D02*
X17113244Y-13922473D01*
X17227529Y-13865330D02*
X17227529Y-13922473D01*
X17670387Y-14279616D02*
X17656101Y-14265330D01*
X17627529Y-14222473D01*
X17613244Y-14193902D01*
X17598958Y-14151045D01*
X17584672Y-14079616D01*
X17584672Y-14022473D01*
X17598958Y-13951045D01*
X17613244Y-13908187D01*
X17627529Y-13879616D01*
X17656101Y-13836759D01*
X17670387Y-13822473D01*
X17913244Y-13965330D02*
X17913244Y-14165330D01*
X17841815Y-13851045D02*
X17770387Y-14065330D01*
X17956101Y-14065330D01*
X18298958Y-14165330D02*
X18298958Y-13865330D01*
X18427529Y-14165330D02*
X18427529Y-14008187D01*
X18413244Y-13979616D01*
X18384672Y-13965330D01*
X18341815Y-13965330D01*
X18313244Y-13979616D01*
X18298958Y-13993902D01*
X18613244Y-14165330D02*
X18584672Y-14151045D01*
X18570387Y-14136759D01*
X18556101Y-14108187D01*
X18556101Y-14022473D01*
X18570387Y-13993902D01*
X18584672Y-13979616D01*
X18613244Y-13965330D01*
X18656101Y-13965330D01*
X18684672Y-13979616D01*
X18698958Y-13993902D01*
X18713244Y-14022473D01*
X18713244Y-14108187D01*
X18698958Y-14136759D01*
X18684672Y-14151045D01*
X18656101Y-14165330D01*
X18613244Y-14165330D01*
X18884672Y-14165330D02*
X18856101Y-14151045D01*
X18841815Y-14122473D01*
X18841815Y-13865330D01*
X19113244Y-14151045D02*
X19084672Y-14165330D01*
X19027529Y-14165330D01*
X18998958Y-14151045D01*
X18984672Y-14122473D01*
X18984672Y-14008187D01*
X18998958Y-13979616D01*
X19027529Y-13965330D01*
X19084672Y-13965330D01*
X19113244Y-13979616D01*
X19127529Y-14008187D01*
X19127529Y-14036759D01*
X18984672Y-14065330D01*
X19241815Y-14151045D02*
X19270387Y-14165330D01*
X19327529Y-14165330D01*
X19356101Y-14151045D01*
X19370387Y-14122473D01*
X19370387Y-14108187D01*
X19356101Y-14079616D01*
X19327529Y-14065330D01*
X19284672Y-14065330D01*
X19256101Y-14051045D01*
X19241815Y-14022473D01*
X19241815Y-14008187D01*
X19256101Y-13979616D01*
X19284672Y-13965330D01*
X19327529Y-13965330D01*
X19356101Y-13979616D01*
X19470387Y-14279616D02*
X19484672Y-14265330D01*
X19513244Y-14222473D01*
X19527529Y-14193902D01*
X19541815Y-14151045D01*
X19556101Y-14079616D01*
X19556101Y-14022473D01*
X19541815Y-13951045D01*
X19527529Y-13908187D01*
X19513244Y-13879616D01*
X19484672Y-13836759D01*
X19470387Y-13822473D01*
X12911100Y-14721744D02*
X12911100Y-14297512D01*
X12486868Y-14297512D01*
X12486868Y-14721744D01*
X12911100Y-14721744D01*
X12998958Y-14509628D02*
G75*
G03X12998958Y-14509628I-299974J0D01*
G01*
X13398958Y-14345342D02*
X13341815Y-14345342D01*
X13313244Y-14359628D01*
X13298958Y-14373914D01*
X13270387Y-14416771D01*
X13256101Y-14473914D01*
X13256101Y-14588199D01*
X13270387Y-14616771D01*
X13284672Y-14631057D01*
X13313244Y-14645342D01*
X13370387Y-14645342D01*
X13398958Y-14631057D01*
X13413244Y-14616771D01*
X13427529Y-14588199D01*
X13427529Y-14516771D01*
X13413244Y-14488199D01*
X13398958Y-14473914D01*
X13370387Y-14459628D01*
X13313244Y-14459628D01*
X13284672Y-14473914D01*
X13270387Y-14488199D01*
X13256101Y-14516771D01*
X13556101Y-14616771D02*
X13570387Y-14631057D01*
X13556101Y-14645342D01*
X13541815Y-14631057D01*
X13556101Y-14616771D01*
X13556101Y-14645342D01*
X13756101Y-14345342D02*
X13784672Y-14345342D01*
X13813244Y-14359628D01*
X13827529Y-14373914D01*
X13841815Y-14402485D01*
X13856101Y-14459628D01*
X13856101Y-14531057D01*
X13841815Y-14588199D01*
X13827529Y-14616771D01*
X13813244Y-14631057D01*
X13784672Y-14645342D01*
X13756101Y-14645342D01*
X13727529Y-14631057D01*
X13713244Y-14616771D01*
X13698958Y-14588199D01*
X13684672Y-14531057D01*
X13684672Y-14459628D01*
X13698958Y-14402485D01*
X13713244Y-14373914D01*
X13727529Y-14359628D01*
X13756101Y-14345342D01*
X14041815Y-14345342D02*
X14070387Y-14345342D01*
X14098958Y-14359628D01*
X14113244Y-14373914D01*
X14127529Y-14402485D01*
X14141815Y-14459628D01*
X14141815Y-14531057D01*
X14127529Y-14588199D01*
X14113244Y-14616771D01*
X14098958Y-14631057D01*
X14070387Y-14645342D01*
X14041815Y-14645342D01*
X14013244Y-14631057D01*
X13998958Y-14616771D01*
X13984672Y-14588199D01*
X13970387Y-14531057D01*
X13970387Y-14459628D01*
X13984672Y-14402485D01*
X13998958Y-14373914D01*
X14013244Y-14359628D01*
X14041815Y-14345342D01*
X14270387Y-14645342D02*
X14270387Y-14445342D01*
X14270387Y-14473914D02*
X14284672Y-14459628D01*
X14313244Y-14445342D01*
X14356101Y-14445342D01*
X14384672Y-14459628D01*
X14398958Y-14488199D01*
X14398958Y-14645342D01*
X14398958Y-14488199D02*
X14413244Y-14459628D01*
X14441815Y-14445342D01*
X14484672Y-14445342D01*
X14513244Y-14459628D01*
X14527529Y-14488199D01*
X14527529Y-14645342D01*
X14670387Y-14645342D02*
X14670387Y-14445342D01*
X14670387Y-14473914D02*
X14684672Y-14459628D01*
X14713244Y-14445342D01*
X14756101Y-14445342D01*
X14784672Y-14459628D01*
X14798958Y-14488199D01*
X14798958Y-14645342D01*
X14798958Y-14488199D02*
X14813244Y-14459628D01*
X14841815Y-14445342D01*
X14884672Y-14445342D01*
X14913244Y-14459628D01*
X14927529Y-14488199D01*
X14927529Y-14645342D01*
X15513244Y-14331057D02*
X15256101Y-14716771D01*
X15898958Y-14345342D02*
X15927529Y-14345342D01*
X15956101Y-14359628D01*
X15970386Y-14373914D01*
X15984672Y-14402485D01*
X15998958Y-14459628D01*
X15998958Y-14531057D01*
X15984672Y-14588199D01*
X15970386Y-14616771D01*
X15956101Y-14631057D01*
X15927529Y-14645342D01*
X15898958Y-14645342D01*
X15870386Y-14631057D01*
X15856101Y-14616771D01*
X15841815Y-14588199D01*
X15827529Y-14531057D01*
X15827529Y-14459628D01*
X15841815Y-14402485D01*
X15856101Y-14373914D01*
X15870386Y-14359628D01*
X15898958Y-14345342D01*
X16127529Y-14616771D02*
X16141815Y-14631057D01*
X16127529Y-14645342D01*
X16113244Y-14631057D01*
X16127529Y-14616771D01*
X16127529Y-14645342D01*
X16256101Y-14373914D02*
X16270386Y-14359628D01*
X16298958Y-14345342D01*
X16370386Y-14345342D01*
X16398958Y-14359628D01*
X16413244Y-14373914D01*
X16427529Y-14402485D01*
X16427529Y-14431057D01*
X16413244Y-14473914D01*
X16241815Y-14645342D01*
X16427529Y-14645342D01*
X16527529Y-14345342D02*
X16713244Y-14345342D01*
X16613244Y-14459628D01*
X16656101Y-14459628D01*
X16684672Y-14473914D01*
X16698958Y-14488199D01*
X16713244Y-14516771D01*
X16713244Y-14588199D01*
X16698958Y-14616771D01*
X16684672Y-14631057D01*
X16656101Y-14645342D01*
X16570386Y-14645342D01*
X16541815Y-14631057D01*
X16527529Y-14616771D01*
X16970387Y-14345342D02*
X16913244Y-14345342D01*
X16884672Y-14359628D01*
X16870387Y-14373914D01*
X16841815Y-14416771D01*
X16827529Y-14473914D01*
X16827529Y-14588199D01*
X16841815Y-14616771D01*
X16856101Y-14631057D01*
X16884672Y-14645342D01*
X16941815Y-14645342D01*
X16970387Y-14631057D01*
X16984672Y-14616771D01*
X16998958Y-14588199D01*
X16998958Y-14516771D01*
X16984672Y-14488199D01*
X16970387Y-14473914D01*
X16941815Y-14459628D01*
X16884672Y-14459628D01*
X16856101Y-14473914D01*
X16841815Y-14488199D01*
X16827529Y-14516771D01*
X17113244Y-14345342D02*
X17113244Y-14402485D01*
X17227529Y-14345342D02*
X17227529Y-14402485D01*
X17670387Y-14759628D02*
X17656101Y-14745342D01*
X17627529Y-14702485D01*
X17613244Y-14673914D01*
X17598958Y-14631057D01*
X17584672Y-14559628D01*
X17584672Y-14502485D01*
X17598958Y-14431057D01*
X17613244Y-14388199D01*
X17627529Y-14359628D01*
X17656101Y-14316771D01*
X17670387Y-14302485D01*
X17941815Y-14645342D02*
X17770387Y-14645342D01*
X17856101Y-14645342D02*
X17856101Y-14345342D01*
X17827529Y-14388199D01*
X17798958Y-14416771D01*
X17770387Y-14431057D01*
X18298958Y-14645342D02*
X18298958Y-14345342D01*
X18427529Y-14645342D02*
X18427529Y-14488199D01*
X18413244Y-14459628D01*
X18384672Y-14445342D01*
X18341815Y-14445342D01*
X18313244Y-14459628D01*
X18298958Y-14473914D01*
X18613244Y-14645342D02*
X18584672Y-14631057D01*
X18570387Y-14616771D01*
X18556101Y-14588199D01*
X18556101Y-14502485D01*
X18570387Y-14473914D01*
X18584672Y-14459628D01*
X18613244Y-14445342D01*
X18656101Y-14445342D01*
X18684672Y-14459628D01*
X18698958Y-14473914D01*
X18713244Y-14502485D01*
X18713244Y-14588199D01*
X18698958Y-14616771D01*
X18684672Y-14631057D01*
X18656101Y-14645342D01*
X18613244Y-14645342D01*
X18884672Y-14645342D02*
X18856101Y-14631057D01*
X18841815Y-14602485D01*
X18841815Y-14345342D01*
X19113244Y-14631057D02*
X19084672Y-14645342D01*
X19027529Y-14645342D01*
X18998958Y-14631057D01*
X18984672Y-14602485D01*
X18984672Y-14488199D01*
X18998958Y-14459628D01*
X19027529Y-14445342D01*
X19084672Y-14445342D01*
X19113244Y-14459628D01*
X19127529Y-14488199D01*
X19127529Y-14516771D01*
X18984672Y-14545342D01*
X19227529Y-14759628D02*
X19241815Y-14745342D01*
X19270387Y-14702485D01*
X19284672Y-14673914D01*
X19298958Y-14631057D01*
X19313244Y-14559628D01*
X19313244Y-14502485D01*
X19298958Y-14431057D01*
X19284672Y-14388199D01*
X19270387Y-14359628D01*
X19241815Y-14316771D01*
X19227529Y-14302485D01*
M02*
