%FSLAX46Y46*%
G04 Gerber Fmt 4.6, Leading zero omitted, Abs format (unit mm)*
G04 Created by KiCad (PCBNEW (2014-10-27 BZR 5228)-product) date 18/01/2015 09:18:43*
%MOMM*%
G01*
G04 APERTURE LIST*
%ADD10C,0.100000*%
%ADD11R,1.250000X1.000000*%
%ADD12R,1.000000X1.250000*%
%ADD13R,4.200000X0.700000*%
%ADD14R,1.524000X2.032000*%
%ADD15R,1.397000X1.397000*%
%ADD16C,1.397000*%
%ADD17C,1.998980*%
%ADD18C,3.500000*%
%ADD19C,2.000000*%
%ADD20R,1.727200X1.727200*%
%ADD21O,1.727200X1.727200*%
%ADD22R,0.599440X1.000760*%
%ADD23R,0.700000X1.300000*%
%ADD24R,1.300000X0.700000*%
%ADD25R,1.800000X1.800000*%
%ADD26C,1.800000*%
%ADD27C,2.540000*%
%ADD28C,1.727200*%
%ADD29C,1.524000*%
%ADD30O,1.501140X2.499360*%
%ADD31R,1.651000X1.651000*%
%ADD32C,1.651000*%
%ADD33R,1.600000X1.000000*%
%ADD34C,0.889000*%
%ADD35C,0.254000*%
%ADD36C,0.635000*%
%ADD37C,0.508000*%
%ADD38C,1.270000*%
%ADD39C,0.381000*%
G04 APERTURE END LIST*
D10*
D11*
X158800000Y-70200000D03*
X158800000Y-68200000D03*
X136800000Y-72600000D03*
X136800000Y-74600000D03*
X142800000Y-60000000D03*
X142800000Y-58000000D03*
D12*
X150500000Y-83000000D03*
X148500000Y-83000000D03*
X140000000Y-86900000D03*
X142000000Y-86900000D03*
D11*
X146200000Y-82100000D03*
X146200000Y-84100000D03*
X145000000Y-88600000D03*
X145000000Y-90600000D03*
X183000000Y-82800000D03*
X183000000Y-84800000D03*
D12*
X177300000Y-83000000D03*
X179300000Y-83000000D03*
D11*
X187200000Y-82600000D03*
X187200000Y-84600000D03*
D12*
X165200000Y-62000000D03*
X163200000Y-62000000D03*
D11*
X176600000Y-46800000D03*
X176600000Y-44800000D03*
X180000000Y-46800000D03*
X180000000Y-44800000D03*
X173600000Y-46800000D03*
X173600000Y-44800000D03*
D12*
X178546000Y-58293000D03*
X176546000Y-58293000D03*
X169000000Y-61800000D03*
X171000000Y-61800000D03*
D13*
X129474560Y-55468200D03*
X129474560Y-56468200D03*
X129474560Y-57468200D03*
X129474560Y-58468200D03*
X129474560Y-59468200D03*
X129474560Y-60468200D03*
X129474560Y-61468200D03*
X129474560Y-62468200D03*
X129474560Y-63468200D03*
X129474560Y-64468200D03*
X129474560Y-65468200D03*
X129474560Y-68468200D03*
X129474560Y-69468200D03*
X129474560Y-70468200D03*
X129474560Y-71468200D03*
X129474560Y-72468200D03*
X129474560Y-73468200D03*
X129474560Y-74468200D03*
D14*
X140949000Y-75600000D03*
X144251000Y-75600000D03*
D15*
X162560000Y-84455000D03*
D16*
X165100000Y-84455000D03*
X167640000Y-84455000D03*
X170180000Y-84455000D03*
X172720000Y-84455000D03*
X172720000Y-76835000D03*
X170180000Y-76835000D03*
X167640000Y-76835000D03*
X165100000Y-76835000D03*
X162560000Y-76835000D03*
D15*
X172339000Y-65913000D03*
D16*
X169799000Y-65913000D03*
X167259000Y-65913000D03*
X164719000Y-65913000D03*
X162179000Y-65913000D03*
X162179000Y-73533000D03*
X164719000Y-73533000D03*
X167259000Y-73533000D03*
X169799000Y-73533000D03*
X172339000Y-73533000D03*
D17*
X158792000Y-79796000D03*
X153204000Y-79796000D03*
X142592000Y-80596000D03*
X137004000Y-80596000D03*
X149596000Y-87608000D03*
X149596000Y-93196000D03*
X144908000Y-79804000D03*
X150496000Y-79804000D03*
X177404000Y-92892000D03*
X177404000Y-87304000D03*
X178008000Y-79004000D03*
X183596000Y-79004000D03*
X163396000Y-87508000D03*
X163396000Y-93096000D03*
X186508000Y-78904000D03*
X192096000Y-78904000D03*
X161108000Y-58304000D03*
X166696000Y-58304000D03*
X174498000Y-55245000D03*
X174498000Y-60833000D03*
D18*
X191800000Y-67600000D03*
X191800000Y-60000000D03*
D19*
X184000000Y-63800000D03*
D20*
X179870000Y-63400000D03*
D21*
X177330000Y-63400000D03*
D22*
X153647500Y-74943360D03*
X154600000Y-77056640D03*
X155552500Y-74943360D03*
D23*
X151550000Y-76800000D03*
X149650000Y-76800000D03*
X158250000Y-72600000D03*
X160150000Y-72600000D03*
D24*
X142800000Y-61450000D03*
X142800000Y-63350000D03*
D23*
X155150000Y-65200000D03*
X153250000Y-65200000D03*
D24*
X151400000Y-63650000D03*
X151400000Y-65550000D03*
D23*
X159450000Y-65300000D03*
X157550000Y-65300000D03*
D20*
X179870000Y-66930000D03*
D21*
X177330000Y-66930000D03*
X179870000Y-69470000D03*
X177330000Y-69470000D03*
D25*
X142200000Y-66800000D03*
D26*
X142200000Y-69300000D03*
X139200000Y-66800000D03*
X142200000Y-71800000D03*
X139200000Y-71800000D03*
X139200000Y-69300000D03*
D25*
X145923000Y-63741300D03*
D26*
X145923000Y-61241300D03*
X148923000Y-63741300D03*
X145923000Y-58741300D03*
X148923000Y-58741300D03*
X148923000Y-61241300D03*
D27*
X163461700Y-39199300D03*
D28*
X163461700Y-43199300D03*
D27*
X163461700Y-47199300D03*
D28*
X163461700Y-51199300D03*
D29*
X138600000Y-48460000D03*
X138600000Y-45920000D03*
X138600000Y-51000000D03*
D30*
X153893520Y-39451280D03*
X156433520Y-39451280D03*
X151353520Y-39451280D03*
D11*
X151200000Y-72200000D03*
X151200000Y-74200000D03*
X159100000Y-90700000D03*
X159100000Y-88700000D03*
D12*
X153400000Y-72200000D03*
X155400000Y-72200000D03*
D17*
X189899460Y-44800000D03*
X183300540Y-44800000D03*
D11*
X174600000Y-69300000D03*
X174600000Y-67300000D03*
D31*
X150470000Y-69100000D03*
D32*
X147930000Y-69100000D03*
D11*
X167800000Y-89000000D03*
X167800000Y-91000000D03*
D33*
X170800000Y-44800000D03*
X170800000Y-47800000D03*
D34*
X160800000Y-69400000D03*
X138600000Y-64000000D03*
X140400000Y-59600000D03*
X137800000Y-54000000D03*
X190200000Y-57400000D03*
X183200000Y-52000000D03*
X134200000Y-55468200D03*
X134373200Y-58373200D03*
X134200000Y-61468200D03*
X134400000Y-64400000D03*
X154000000Y-62300000D03*
X147700000Y-43100000D03*
X142200000Y-43100000D03*
X137600000Y-76000000D03*
X136600000Y-58400000D03*
X136600000Y-56400000D03*
X135600000Y-59400000D03*
X135600000Y-60800000D03*
X186200000Y-56200000D03*
X188600000Y-58300000D03*
X167400000Y-71800000D03*
X171400000Y-71800000D03*
X156800000Y-70400000D03*
X154200000Y-70200000D03*
X136400000Y-68800000D03*
X161400000Y-71800000D03*
X135300000Y-70400000D03*
X147200000Y-76800000D03*
X156900000Y-69000000D03*
X153700000Y-67000000D03*
X157800000Y-77000000D03*
X150700000Y-48000000D03*
D35*
X158800000Y-70200000D02*
X160000000Y-70200000D01*
X160000000Y-70200000D02*
X160800000Y-69400000D01*
X159400000Y-70000000D02*
X159400000Y-71450000D01*
X159400000Y-71450000D02*
X158250000Y-72600000D01*
D36*
X138600000Y-64000000D02*
X138800000Y-63800000D01*
X138800000Y-63800000D02*
X138800000Y-61200000D01*
X138800000Y-61200000D02*
X140400000Y-59600000D01*
X129474560Y-58468200D02*
X133695000Y-58468200D01*
D35*
X133600000Y-58373200D02*
X133706320Y-58479520D01*
X133695000Y-58468200D02*
X133600000Y-58373200D01*
D36*
X134268200Y-55468200D02*
X134400000Y-55600000D01*
X134200000Y-55468200D02*
X134268200Y-55468200D01*
X129474560Y-55468200D02*
X134200000Y-55468200D01*
X133600000Y-58373200D02*
X134373200Y-58373200D01*
X134331800Y-61468200D02*
X134400000Y-61400000D01*
X134200000Y-61468200D02*
X134331800Y-61468200D01*
X134331800Y-64468200D02*
X134400000Y-64400000D01*
X129474560Y-61468200D02*
X133789240Y-61468200D01*
X129474560Y-64468200D02*
X134331800Y-64468200D01*
X133789240Y-61468200D02*
X133818080Y-61497040D01*
D35*
X133789240Y-61468200D02*
X133818080Y-61497040D01*
D36*
X133789240Y-61468200D02*
X134200000Y-61468200D01*
D37*
X139200000Y-71800000D02*
X139700000Y-71800000D01*
X139700000Y-71800000D02*
X142200000Y-69300000D01*
X136800000Y-72600000D02*
X138400000Y-72600000D01*
X138400000Y-72600000D02*
X139200000Y-71800000D01*
D35*
X142800000Y-60000000D02*
X142800000Y-61450000D01*
X142800000Y-60000000D02*
X144681700Y-60000000D01*
X144681700Y-60000000D02*
X145923000Y-61241300D01*
X148923000Y-58741300D02*
X148423000Y-58741300D01*
X148423000Y-58741300D02*
X145923000Y-61241300D01*
D38*
X140000000Y-86900000D02*
X140000000Y-86400000D01*
X140000000Y-86400000D02*
X137004000Y-83404000D01*
X137004000Y-83404000D02*
X137004000Y-80596000D01*
X142000000Y-86900000D02*
X142000000Y-87100000D01*
X142000000Y-87100000D02*
X143500000Y-88600000D01*
X143500000Y-88600000D02*
X145000000Y-88600000D01*
X145000000Y-88600000D02*
X148604000Y-88600000D01*
X148604000Y-88600000D02*
X149596000Y-87608000D01*
X187200000Y-82600000D02*
X187200000Y-79596000D01*
D36*
X187200000Y-79596000D02*
X186508000Y-78904000D01*
D38*
X183000000Y-82800000D02*
X183000000Y-79600000D01*
D36*
X183000000Y-79600000D02*
X183596000Y-79004000D01*
X186408000Y-79004000D02*
X186508000Y-78904000D01*
X177404000Y-92892000D02*
X177404000Y-92496000D01*
D38*
X177404000Y-92496000D02*
X183000000Y-86900000D01*
X183000000Y-86900000D02*
X183000000Y-84800000D01*
X170180000Y-84455000D02*
X170180000Y-82920000D01*
X175900000Y-81600000D02*
X177300000Y-83000000D01*
X171500000Y-81600000D02*
X175900000Y-81600000D01*
X170180000Y-82920000D02*
X171500000Y-81600000D01*
X163396000Y-87508000D02*
X168392000Y-87508000D01*
X170180000Y-85720000D02*
X170180000Y-84455000D01*
X168392000Y-87508000D02*
X170180000Y-85720000D01*
X163396000Y-87508000D02*
X164008000Y-87508000D01*
X164008000Y-87508000D02*
X165500000Y-89000000D01*
X165500000Y-89000000D02*
X167800000Y-89000000D01*
D35*
X153900000Y-62400000D02*
X153900000Y-63650000D01*
X154000000Y-62300000D02*
X153900000Y-62400000D01*
X152600000Y-63650000D02*
X153900000Y-63650000D01*
X153900000Y-63650000D02*
X155900000Y-63650000D01*
X155900000Y-63650000D02*
X157550000Y-65300000D01*
X151400000Y-63650000D02*
X152600000Y-63650000D01*
D39*
X142200000Y-43100000D02*
X147700000Y-43100000D01*
D38*
X161108000Y-59908000D02*
X163200000Y-62000000D01*
X161108000Y-58304000D02*
X161108000Y-59908000D01*
D36*
X170800000Y-44800000D02*
X173600000Y-44800000D01*
X168600000Y-44850600D02*
X170749400Y-44850600D01*
X170749400Y-44850600D02*
X170800000Y-44800000D01*
X170749400Y-44850600D02*
X170800000Y-44800000D01*
X163461700Y-39199300D02*
X163461700Y-39712300D01*
X163461700Y-39712300D02*
X168600000Y-44850600D01*
X180000000Y-44800000D02*
X183300540Y-44800000D01*
X176600000Y-44800000D02*
X180000000Y-44800000D01*
X173600000Y-44800000D02*
X176600000Y-44800000D01*
X173549400Y-44850600D02*
X173600000Y-44800000D01*
X168338500Y-44589100D02*
X168600000Y-44850600D01*
D38*
X174498000Y-55245000D02*
X174498000Y-56245000D01*
X174498000Y-56245000D02*
X176546000Y-58293000D01*
X166696000Y-58304000D02*
X166896000Y-58304000D01*
X174600000Y-67300000D02*
X174600000Y-60935000D01*
X174600000Y-60935000D02*
X174498000Y-60833000D01*
X171967000Y-60833000D02*
X171000000Y-61800000D01*
D35*
X174498000Y-60833000D02*
X174202600Y-60833000D01*
D38*
X174498000Y-60833000D02*
X171967000Y-60833000D01*
D35*
X140949000Y-75600000D02*
X138000000Y-75600000D01*
X138000000Y-75600000D02*
X137600000Y-76000000D01*
D37*
X135000000Y-56468200D02*
X136531800Y-56468200D01*
X136600000Y-56400000D02*
X136531800Y-56468200D01*
X138700000Y-69300000D02*
X136600000Y-67200000D01*
X136600000Y-67200000D02*
X136600000Y-58400000D01*
X136600000Y-58400000D02*
X136600000Y-58268200D01*
X139200000Y-69300000D02*
X138700000Y-69300000D01*
X129474560Y-56468200D02*
X135000000Y-56468200D01*
D35*
X135000000Y-56468200D02*
X135003900Y-56468200D01*
D37*
X129542760Y-57400000D02*
X137600000Y-57400000D01*
X137600000Y-64600000D02*
X137600000Y-57400000D01*
X138000000Y-65000000D02*
X137600000Y-64600000D01*
X143800000Y-65000000D02*
X138000000Y-65000000D01*
X143800000Y-70400000D02*
X143800000Y-65000000D01*
X143800000Y-70400000D02*
X142400000Y-71800000D01*
X129542760Y-57400000D02*
X129474560Y-57468200D01*
X142200000Y-71800000D02*
X142400000Y-71800000D01*
X129542760Y-57400000D02*
X129474560Y-57468200D01*
D35*
X135531800Y-59468200D02*
X135600000Y-59400000D01*
X135531800Y-59468200D02*
X131800000Y-59468200D01*
X129474560Y-59468200D02*
X131800000Y-59468200D01*
X131800000Y-59468200D02*
X132028000Y-59468200D01*
X129474560Y-60468200D02*
X135268200Y-60468200D01*
X135268200Y-60468200D02*
X135600000Y-60800000D01*
X186200000Y-56200000D02*
X186500000Y-56200000D01*
X186500000Y-56200000D02*
X188600000Y-58300000D01*
X167400000Y-71800000D02*
X171400000Y-71800000D01*
X188600000Y-58300000D02*
X188500000Y-58200000D01*
X156600000Y-70200000D02*
X156800000Y-70400000D01*
X154200000Y-70200000D02*
X156600000Y-70200000D01*
X135400000Y-67800000D02*
X136400000Y-68800000D01*
X135400000Y-65468200D02*
X135400000Y-67800000D01*
X160600000Y-72600000D02*
X160150000Y-72600000D01*
X161400000Y-71800000D02*
X160600000Y-72600000D01*
X129474560Y-65468200D02*
X135400000Y-65468200D01*
X135400000Y-65468200D02*
X135434920Y-65468200D01*
X149650000Y-76800000D02*
X147200000Y-76800000D01*
X135300000Y-70400000D02*
X134400000Y-69500000D01*
X134400000Y-69500000D02*
X134400000Y-69400000D01*
X133468200Y-68468200D02*
X134400000Y-69400000D01*
X133468200Y-68468200D02*
X129474560Y-68468200D01*
X144600000Y-72500000D02*
X144600000Y-75251000D01*
X144600000Y-75251000D02*
X144251000Y-75600000D01*
X142800000Y-63350000D02*
X143150000Y-63350000D01*
X143150000Y-63350000D02*
X144600000Y-64800000D01*
X144600000Y-64800000D02*
X144600000Y-72500000D01*
X144600000Y-72500000D02*
X144600000Y-72400000D01*
X144600000Y-72400000D02*
X144600000Y-72600000D01*
X142800000Y-63350000D02*
X142250000Y-63350000D01*
D38*
X167640000Y-84455000D02*
X167640000Y-84140000D01*
X167640000Y-84140000D02*
X164700000Y-81200000D01*
X164700000Y-81200000D02*
X163200000Y-81200000D01*
X167259000Y-73533000D02*
X167259000Y-74441000D01*
X160400000Y-78400000D02*
X163200000Y-81200000D01*
X160400000Y-75800000D02*
X160400000Y-78400000D01*
X161000000Y-75200000D02*
X160400000Y-75800000D01*
X166500000Y-75200000D02*
X161000000Y-75200000D01*
X167259000Y-74441000D02*
X166500000Y-75200000D01*
D35*
X167259000Y-73533000D02*
X167259000Y-73941000D01*
D37*
X155700000Y-69000000D02*
X156900000Y-69000000D01*
X153700000Y-67000000D02*
X155700000Y-69000000D01*
D38*
X151353520Y-39451280D02*
X151348720Y-39451280D01*
D35*
X145923000Y-64123000D02*
X145923000Y-63741300D01*
X151750000Y-65200000D02*
X151400000Y-65550000D01*
X153250000Y-65200000D02*
X151750000Y-65200000D01*
X151050000Y-65900000D02*
X151400000Y-65550000D01*
X145923000Y-65423000D02*
X146400000Y-65900000D01*
X146400000Y-65900000D02*
X151050000Y-65900000D01*
X145923000Y-63741300D02*
X145923000Y-65423000D01*
X151550000Y-76800000D02*
X152800000Y-76800000D01*
X154495860Y-76000000D02*
X155552500Y-74943360D01*
X153600000Y-76000000D02*
X154495860Y-76000000D01*
X152800000Y-76800000D02*
X153600000Y-76000000D01*
X151550000Y-76800000D02*
X151550000Y-75450000D01*
X151200000Y-75100000D02*
X151200000Y-74200000D01*
X151550000Y-75450000D02*
X151200000Y-75100000D01*
X156343360Y-77056640D02*
X157743360Y-77056640D01*
X157743360Y-77056640D02*
X157800000Y-77000000D01*
X155400000Y-72200000D02*
X155400000Y-73200000D01*
X156343360Y-77056640D02*
X154600000Y-77056640D01*
X157400000Y-76000000D02*
X156343360Y-77056640D01*
X157400000Y-75200000D02*
X157400000Y-76000000D01*
X155400000Y-73200000D02*
X157400000Y-75200000D01*
D39*
X150700000Y-48000000D02*
X147700000Y-51000000D01*
X138600000Y-51000000D02*
X147700000Y-51000000D01*
D38*
X174600000Y-69300000D02*
X166100000Y-69300000D01*
X164719000Y-70681000D02*
X164719000Y-73533000D01*
X166100000Y-69300000D02*
X164719000Y-70681000D01*
D35*
X174100000Y-69800000D02*
X174600000Y-69300000D01*
D36*
X159100000Y-88700000D02*
X159100000Y-87915000D01*
X159100000Y-87915000D02*
X162560000Y-84455000D01*
X162505000Y-84400000D02*
X162560000Y-84455000D01*
D38*
X150500000Y-83000000D02*
X151300000Y-83000000D01*
X151300000Y-83000000D02*
X153204000Y-81096000D01*
X153204000Y-81096000D02*
X153204000Y-79796000D01*
X146200000Y-82100000D02*
X146200000Y-81096000D01*
X146200000Y-81096000D02*
X144908000Y-79804000D01*
X148500000Y-83000000D02*
X148500000Y-81200000D01*
X148500000Y-81200000D02*
X147100000Y-79800000D01*
X144908000Y-79804000D02*
X147096000Y-79804000D01*
D35*
X147096000Y-79804000D02*
X147100000Y-79800000D01*
D38*
X142592000Y-80596000D02*
X144116000Y-80596000D01*
X144116000Y-80596000D02*
X144908000Y-79804000D01*
D35*
X146896000Y-80004000D02*
X147100000Y-79800000D01*
X178008000Y-79004000D02*
X178008000Y-79208000D01*
D38*
X178008000Y-79208000D02*
X179300000Y-80500000D01*
X179300000Y-80500000D02*
X179300000Y-83000000D01*
D35*
G36*
X141046674Y-68282388D02*
X140899449Y-68429357D01*
X140699797Y-68910171D01*
X140502068Y-68431629D01*
X140070643Y-67999449D01*
X140061627Y-67995705D01*
X140100554Y-67880159D01*
X139200000Y-66979605D01*
X139185857Y-66993747D01*
X139006252Y-66814142D01*
X139020395Y-66800000D01*
X139006252Y-66785857D01*
X139185857Y-66606252D01*
X139200000Y-66620395D01*
X139214142Y-66606252D01*
X139393747Y-66785857D01*
X139379605Y-66800000D01*
X140280159Y-67700554D01*
X140536643Y-67614148D01*
X140665000Y-67263311D01*
X140665000Y-67826309D01*
X140761673Y-68059698D01*
X140940301Y-68238327D01*
X141046674Y-68282388D01*
X141046674Y-68282388D01*
G37*
X141046674Y-68282388D02*
X140899449Y-68429357D01*
X140699797Y-68910171D01*
X140502068Y-68431629D01*
X140070643Y-67999449D01*
X140061627Y-67995705D01*
X140100554Y-67880159D01*
X139200000Y-66979605D01*
X139185857Y-66993747D01*
X139006252Y-66814142D01*
X139020395Y-66800000D01*
X139006252Y-66785857D01*
X139185857Y-66606252D01*
X139200000Y-66620395D01*
X139214142Y-66606252D01*
X139393747Y-66785857D01*
X139379605Y-66800000D01*
X140280159Y-67700554D01*
X140536643Y-67614148D01*
X140665000Y-67263311D01*
X140665000Y-67826309D01*
X140761673Y-68059698D01*
X140940301Y-68238327D01*
X141046674Y-68282388D01*
G36*
X193715000Y-94015000D02*
X193068557Y-94015000D01*
X193068557Y-80056163D01*
X192096000Y-79083605D01*
X191916395Y-79263210D01*
X191916395Y-78904000D01*
X190943837Y-77931443D01*
X190677035Y-78030042D01*
X190450599Y-78639582D01*
X190474659Y-79289377D01*
X190677035Y-79777958D01*
X190943837Y-79876557D01*
X191916395Y-78904000D01*
X191916395Y-79263210D01*
X191123443Y-80056163D01*
X191222042Y-80322965D01*
X191831582Y-80549401D01*
X192481377Y-80525341D01*
X192969958Y-80322965D01*
X193068557Y-80056163D01*
X193068557Y-94015000D01*
X192185473Y-94015000D01*
X192185473Y-90127664D01*
X191823134Y-89250737D01*
X191152792Y-88579224D01*
X190276499Y-88215355D01*
X189327664Y-88214527D01*
X188460000Y-88573038D01*
X188460000Y-85226309D01*
X188460000Y-84885750D01*
X188301250Y-84727000D01*
X187327000Y-84727000D01*
X187327000Y-85576250D01*
X187485750Y-85735000D01*
X187698691Y-85735000D01*
X187951310Y-85735000D01*
X188184699Y-85638327D01*
X188363327Y-85459698D01*
X188460000Y-85226309D01*
X188460000Y-88573038D01*
X188450737Y-88576866D01*
X187779224Y-89247208D01*
X187415355Y-90123501D01*
X187414527Y-91072336D01*
X187776866Y-91949263D01*
X188447208Y-92620776D01*
X189323501Y-92984645D01*
X190272336Y-92985473D01*
X191149263Y-92623134D01*
X191820776Y-91952792D01*
X192184645Y-91076499D01*
X192185473Y-90127664D01*
X192185473Y-94015000D01*
X187073000Y-94015000D01*
X187073000Y-85576250D01*
X187073000Y-84727000D01*
X186098750Y-84727000D01*
X185940000Y-84885750D01*
X185940000Y-85226309D01*
X186036673Y-85459698D01*
X186215301Y-85638327D01*
X186448690Y-85735000D01*
X186701309Y-85735000D01*
X186914250Y-85735000D01*
X187073000Y-85576250D01*
X187073000Y-94015000D01*
X178592576Y-94015000D01*
X178788846Y-93819073D01*
X179038206Y-93218547D01*
X179038696Y-92657355D01*
X183898026Y-87798026D01*
X184173327Y-87386008D01*
X184270000Y-86900000D01*
X184270000Y-84800000D01*
X184260000Y-84749726D01*
X184260000Y-84173691D01*
X184163327Y-83940302D01*
X184023025Y-83799999D01*
X184163327Y-83659699D01*
X184260000Y-83426310D01*
X184260000Y-83173691D01*
X184260000Y-82850273D01*
X184270000Y-82800000D01*
X184270000Y-80494030D01*
X184520655Y-80390462D01*
X184980846Y-79931073D01*
X185072576Y-79710160D01*
X185121538Y-79828655D01*
X185580927Y-80288846D01*
X185930000Y-80433793D01*
X185930000Y-82600000D01*
X185940000Y-82650273D01*
X185940000Y-83226309D01*
X186036673Y-83459698D01*
X186176974Y-83600000D01*
X186036673Y-83740302D01*
X185940000Y-83973691D01*
X185940000Y-84314250D01*
X186098750Y-84473000D01*
X187073000Y-84473000D01*
X187073000Y-84453000D01*
X187327000Y-84453000D01*
X187327000Y-84473000D01*
X188301250Y-84473000D01*
X188460000Y-84314250D01*
X188460000Y-83973691D01*
X188363327Y-83740302D01*
X188223025Y-83599999D01*
X188363327Y-83459699D01*
X188460000Y-83226310D01*
X188460000Y-82973691D01*
X188460000Y-82650273D01*
X188470000Y-82600000D01*
X188470000Y-79596000D01*
X188373327Y-79109992D01*
X188142612Y-78764703D01*
X188142774Y-78580306D01*
X187894462Y-77979345D01*
X187435073Y-77519154D01*
X186834547Y-77269794D01*
X186184306Y-77269226D01*
X185635284Y-77496077D01*
X185635284Y-63476205D01*
X185386894Y-62875057D01*
X184935314Y-62422686D01*
X184935314Y-44476306D01*
X184687002Y-43875345D01*
X184227613Y-43415154D01*
X183627087Y-43165794D01*
X182976846Y-43165226D01*
X182375885Y-43413538D01*
X181941165Y-43847500D01*
X181070525Y-43847500D01*
X180984699Y-43761673D01*
X180751310Y-43665000D01*
X180498691Y-43665000D01*
X179248691Y-43665000D01*
X179015302Y-43761673D01*
X178929474Y-43847500D01*
X177670525Y-43847500D01*
X177584699Y-43761673D01*
X177351310Y-43665000D01*
X177098691Y-43665000D01*
X175848691Y-43665000D01*
X175615302Y-43761673D01*
X175529474Y-43847500D01*
X174670525Y-43847500D01*
X174584699Y-43761673D01*
X174351310Y-43665000D01*
X174098691Y-43665000D01*
X172848691Y-43665000D01*
X172615302Y-43761673D01*
X172529474Y-43847500D01*
X172045525Y-43847500D01*
X171959699Y-43761673D01*
X171726310Y-43665000D01*
X171473691Y-43665000D01*
X169873691Y-43665000D01*
X169640302Y-43761673D01*
X169503874Y-43898100D01*
X168994538Y-43898100D01*
X165163907Y-40067469D01*
X165366368Y-39579890D01*
X165367030Y-38822035D01*
X165077622Y-38121614D01*
X164542205Y-37585261D01*
X163842290Y-37294632D01*
X163084435Y-37293970D01*
X162384014Y-37583378D01*
X161847661Y-38118795D01*
X161557032Y-38818710D01*
X161556370Y-39576565D01*
X161845778Y-40276986D01*
X162381195Y-40813339D01*
X163081110Y-41103968D01*
X163506701Y-41104339D01*
X167664981Y-45262619D01*
X167926481Y-45524120D01*
X168111721Y-45647892D01*
X168235494Y-45730595D01*
X168235495Y-45730595D01*
X168600000Y-45803100D01*
X169605074Y-45803100D01*
X169640301Y-45838327D01*
X169873690Y-45935000D01*
X170126309Y-45935000D01*
X171726309Y-45935000D01*
X171959698Y-45838327D01*
X172045525Y-45752500D01*
X172529474Y-45752500D01*
X172576974Y-45800000D01*
X172436673Y-45940302D01*
X172340000Y-46173691D01*
X172340000Y-46514250D01*
X172498750Y-46673000D01*
X173473000Y-46673000D01*
X173473000Y-46653000D01*
X173727000Y-46653000D01*
X173727000Y-46673000D01*
X174701250Y-46673000D01*
X174860000Y-46514250D01*
X174860000Y-46173691D01*
X174763327Y-45940302D01*
X174623025Y-45799999D01*
X174670525Y-45752500D01*
X175529474Y-45752500D01*
X175576974Y-45800000D01*
X175436673Y-45940302D01*
X175340000Y-46173691D01*
X175340000Y-46514250D01*
X175498750Y-46673000D01*
X176473000Y-46673000D01*
X176473000Y-46653000D01*
X176727000Y-46653000D01*
X176727000Y-46673000D01*
X177701250Y-46673000D01*
X177860000Y-46514250D01*
X177860000Y-46173691D01*
X177763327Y-45940302D01*
X177623025Y-45799999D01*
X177670525Y-45752500D01*
X178929474Y-45752500D01*
X178976974Y-45800000D01*
X178836673Y-45940302D01*
X178740000Y-46173691D01*
X178740000Y-46514250D01*
X178898750Y-46673000D01*
X179873000Y-46673000D01*
X179873000Y-46653000D01*
X180127000Y-46653000D01*
X180127000Y-46673000D01*
X181101250Y-46673000D01*
X181260000Y-46514250D01*
X181260000Y-46173691D01*
X181163327Y-45940302D01*
X181023025Y-45799999D01*
X181070525Y-45752500D01*
X181941874Y-45752500D01*
X182373467Y-46184846D01*
X182973993Y-46434206D01*
X183624234Y-46434774D01*
X184225195Y-46186462D01*
X184685386Y-45727073D01*
X184934746Y-45126547D01*
X184935314Y-44476306D01*
X184935314Y-62422686D01*
X184927363Y-62414722D01*
X184326648Y-62165284D01*
X183676205Y-62164716D01*
X183075057Y-62413106D01*
X182614722Y-62872637D01*
X182365284Y-63473352D01*
X182364716Y-64123795D01*
X182613106Y-64724943D01*
X183072637Y-65185278D01*
X183673352Y-65434716D01*
X184323795Y-65435284D01*
X184924943Y-65186894D01*
X185385278Y-64727363D01*
X185634716Y-64126648D01*
X185635284Y-63476205D01*
X185635284Y-77496077D01*
X185583345Y-77517538D01*
X185123154Y-77976927D01*
X185031423Y-78197839D01*
X184982462Y-78079345D01*
X184523073Y-77619154D01*
X183922547Y-77369794D01*
X183272306Y-77369226D01*
X182671345Y-77617538D01*
X182211154Y-78076927D01*
X181961794Y-78677453D01*
X181961589Y-78912075D01*
X181826673Y-79113992D01*
X181730000Y-79600000D01*
X181730000Y-82800000D01*
X181740000Y-82850273D01*
X181740000Y-83426309D01*
X181836673Y-83659698D01*
X181976974Y-83800000D01*
X181836673Y-83940301D01*
X181740000Y-84173690D01*
X181740000Y-84426309D01*
X181740000Y-84749726D01*
X181730000Y-84800000D01*
X181730000Y-86373948D01*
X181324968Y-86778979D01*
X181324968Y-69829027D01*
X181204469Y-69597000D01*
X179997000Y-69597000D01*
X179997000Y-70803817D01*
X180229026Y-70924958D01*
X180644947Y-70752688D01*
X181076821Y-70358490D01*
X181324968Y-69829027D01*
X181324968Y-86778979D01*
X179038774Y-89065173D01*
X179038774Y-86980306D01*
X178790462Y-86379345D01*
X178331073Y-85919154D01*
X177730547Y-85669794D01*
X177080306Y-85669226D01*
X176479345Y-85917538D01*
X176019154Y-86376927D01*
X175769794Y-86977453D01*
X175769226Y-87627694D01*
X176017538Y-88228655D01*
X176476927Y-88688846D01*
X177077453Y-88938206D01*
X177727694Y-88938774D01*
X178328655Y-88690462D01*
X178788846Y-88231073D01*
X179038206Y-87630547D01*
X179038774Y-86980306D01*
X179038774Y-89065173D01*
X176682247Y-91421700D01*
X176479345Y-91505538D01*
X176019154Y-91964927D01*
X175769794Y-92565453D01*
X175769226Y-93215694D01*
X176017538Y-93816655D01*
X176215537Y-94015000D01*
X169060000Y-94015000D01*
X169060000Y-91626309D01*
X169060000Y-91285750D01*
X168901250Y-91127000D01*
X167927000Y-91127000D01*
X167927000Y-91976250D01*
X168085750Y-92135000D01*
X168298691Y-92135000D01*
X168551310Y-92135000D01*
X168784699Y-92038327D01*
X168963327Y-91859698D01*
X169060000Y-91626309D01*
X169060000Y-94015000D01*
X167673000Y-94015000D01*
X167673000Y-91976250D01*
X167673000Y-91127000D01*
X166698750Y-91127000D01*
X166540000Y-91285750D01*
X166540000Y-91626309D01*
X166636673Y-91859698D01*
X166815301Y-92038327D01*
X167048690Y-92135000D01*
X167301309Y-92135000D01*
X167514250Y-92135000D01*
X167673000Y-91976250D01*
X167673000Y-94015000D01*
X164693084Y-94015000D01*
X164814965Y-93969958D01*
X165041401Y-93360418D01*
X165017341Y-92710623D01*
X164814965Y-92222042D01*
X164548163Y-92123443D01*
X164368557Y-92303048D01*
X164368557Y-91943837D01*
X164269958Y-91677035D01*
X163660418Y-91450599D01*
X163010623Y-91474659D01*
X162522042Y-91677035D01*
X162423443Y-91943837D01*
X163396000Y-92916395D01*
X164368557Y-91943837D01*
X164368557Y-92303048D01*
X163575605Y-93096000D01*
X163589747Y-93110142D01*
X163410142Y-93289747D01*
X163396000Y-93275605D01*
X163381857Y-93289747D01*
X163202252Y-93110142D01*
X163216395Y-93096000D01*
X162243837Y-92123443D01*
X161977035Y-92222042D01*
X161750599Y-92831582D01*
X161774659Y-93481377D01*
X161977035Y-93969958D01*
X162098915Y-94015000D01*
X160360000Y-94015000D01*
X160360000Y-91326309D01*
X160360000Y-90985750D01*
X160201250Y-90827000D01*
X159227000Y-90827000D01*
X159227000Y-91676250D01*
X159385750Y-91835000D01*
X159598691Y-91835000D01*
X159851310Y-91835000D01*
X160084699Y-91738327D01*
X160263327Y-91559698D01*
X160360000Y-91326309D01*
X160360000Y-94015000D01*
X158973000Y-94015000D01*
X158973000Y-91676250D01*
X158973000Y-90827000D01*
X157998750Y-90827000D01*
X157840000Y-90985750D01*
X157840000Y-91326309D01*
X157936673Y-91559698D01*
X158115301Y-91738327D01*
X158348690Y-91835000D01*
X158601309Y-91835000D01*
X158814250Y-91835000D01*
X158973000Y-91676250D01*
X158973000Y-94015000D01*
X154838774Y-94015000D01*
X154838774Y-79472306D01*
X154590462Y-78871345D01*
X154131073Y-78411154D01*
X153530547Y-78161794D01*
X152880306Y-78161226D01*
X152279345Y-78409538D01*
X151819154Y-78868927D01*
X151809899Y-78891214D01*
X151648163Y-78831443D01*
X151468557Y-79011048D01*
X151468557Y-78651837D01*
X151369958Y-78385035D01*
X150760418Y-78158599D01*
X150110623Y-78182659D01*
X149622042Y-78385035D01*
X149523443Y-78651837D01*
X150496000Y-79624395D01*
X151468557Y-78651837D01*
X151468557Y-79011048D01*
X150675605Y-79804000D01*
X150689747Y-79818142D01*
X150510142Y-79997747D01*
X150496000Y-79983605D01*
X150481857Y-79997747D01*
X150302252Y-79818142D01*
X150316395Y-79804000D01*
X149343837Y-78831443D01*
X149077035Y-78930042D01*
X148850599Y-79539582D01*
X148858864Y-79762812D01*
X147998026Y-78901974D01*
X147586008Y-78626673D01*
X147100000Y-78529999D01*
X147079885Y-78534000D01*
X145949718Y-78534000D01*
X145835073Y-78419154D01*
X145234547Y-78169794D01*
X144584306Y-78169226D01*
X143983345Y-78417538D01*
X143523154Y-78876927D01*
X143404180Y-79163446D01*
X142918547Y-78961794D01*
X142346000Y-78961293D01*
X142346000Y-76742310D01*
X142346000Y-76489691D01*
X142346000Y-74457691D01*
X142249327Y-74224302D01*
X142070699Y-74045673D01*
X141837310Y-73949000D01*
X141584691Y-73949000D01*
X140060691Y-73949000D01*
X139827302Y-74045673D01*
X139648673Y-74224301D01*
X139552000Y-74457690D01*
X139552000Y-74710309D01*
X139552000Y-74838000D01*
X138012250Y-74838000D01*
X137901250Y-74727000D01*
X136927000Y-74727000D01*
X136927000Y-74747000D01*
X136673000Y-74747000D01*
X136673000Y-74727000D01*
X135698750Y-74727000D01*
X135540000Y-74885750D01*
X135540000Y-75226309D01*
X135636673Y-75459698D01*
X135815301Y-75638327D01*
X136048690Y-75735000D01*
X136301309Y-75735000D01*
X136514250Y-75735000D01*
X136560288Y-75688961D01*
X136520687Y-75784332D01*
X136520313Y-76213784D01*
X136684311Y-76610689D01*
X136987714Y-76914622D01*
X137384332Y-77079313D01*
X137813784Y-77079687D01*
X138210689Y-76915689D01*
X138514622Y-76612286D01*
X138618550Y-76362000D01*
X139552000Y-76362000D01*
X139552000Y-76742309D01*
X139648673Y-76975698D01*
X139827301Y-77154327D01*
X140060690Y-77251000D01*
X140313309Y-77251000D01*
X141837309Y-77251000D01*
X142070698Y-77154327D01*
X142249327Y-76975699D01*
X142346000Y-76742310D01*
X142346000Y-78961293D01*
X142268306Y-78961226D01*
X141667345Y-79209538D01*
X141207154Y-79668927D01*
X140957794Y-80269453D01*
X140957226Y-80919694D01*
X141205538Y-81520655D01*
X141664927Y-81980846D01*
X142265453Y-82230206D01*
X142915694Y-82230774D01*
X143516655Y-81982462D01*
X143633320Y-81866000D01*
X144115994Y-81866000D01*
X144116000Y-81866001D01*
X144116000Y-81866000D01*
X144602008Y-81769327D01*
X144886910Y-81578962D01*
X144930000Y-81622052D01*
X144930000Y-82100000D01*
X144940000Y-82150273D01*
X144940000Y-82726309D01*
X145036673Y-82959698D01*
X145176974Y-83100000D01*
X145036673Y-83240302D01*
X144940000Y-83473691D01*
X144940000Y-83814250D01*
X145098750Y-83973000D01*
X146073000Y-83973000D01*
X146073000Y-83953000D01*
X146327000Y-83953000D01*
X146327000Y-83973000D01*
X147301250Y-83973000D01*
X147411259Y-83862990D01*
X147461673Y-83984698D01*
X147640301Y-84163327D01*
X147873690Y-84260000D01*
X148126309Y-84260000D01*
X148449726Y-84260000D01*
X148500000Y-84270000D01*
X148550273Y-84260000D01*
X149126309Y-84260000D01*
X149359698Y-84163327D01*
X149500000Y-84023025D01*
X149640301Y-84163327D01*
X149873690Y-84260000D01*
X150126309Y-84260000D01*
X150449726Y-84260000D01*
X150500000Y-84270000D01*
X151299994Y-84270000D01*
X151300000Y-84270001D01*
X151300000Y-84270000D01*
X151786008Y-84173327D01*
X152198026Y-83898026D01*
X154102022Y-81994028D01*
X154102026Y-81994026D01*
X154102026Y-81994025D01*
X154377327Y-81582008D01*
X154474000Y-81096000D01*
X154474001Y-81096000D01*
X154474000Y-81095994D01*
X154474000Y-80837718D01*
X154588846Y-80723073D01*
X154838206Y-80122547D01*
X154838774Y-79472306D01*
X154838774Y-94015000D01*
X151035381Y-94015000D01*
X151241401Y-93460418D01*
X151230774Y-93173411D01*
X151230774Y-87284306D01*
X150982462Y-86683345D01*
X150523073Y-86223154D01*
X149922547Y-85973794D01*
X149272306Y-85973226D01*
X148671345Y-86221538D01*
X148211154Y-86680927D01*
X147961794Y-87281453D01*
X147961751Y-87330000D01*
X147460000Y-87330000D01*
X147460000Y-84726309D01*
X147460000Y-84385750D01*
X147301250Y-84227000D01*
X146327000Y-84227000D01*
X146327000Y-85076250D01*
X146485750Y-85235000D01*
X146698691Y-85235000D01*
X146951310Y-85235000D01*
X147184699Y-85138327D01*
X147363327Y-84959698D01*
X147460000Y-84726309D01*
X147460000Y-87330000D01*
X146073000Y-87330000D01*
X146073000Y-85076250D01*
X146073000Y-84227000D01*
X145098750Y-84227000D01*
X144940000Y-84385750D01*
X144940000Y-84726309D01*
X145036673Y-84959698D01*
X145215301Y-85138327D01*
X145448690Y-85235000D01*
X145701309Y-85235000D01*
X145914250Y-85235000D01*
X146073000Y-85076250D01*
X146073000Y-87330000D01*
X145000000Y-87330000D01*
X144026051Y-87330000D01*
X143189040Y-86492988D01*
X143173327Y-86413992D01*
X143135000Y-86356631D01*
X143135000Y-86148691D01*
X143038327Y-85915302D01*
X142859699Y-85736673D01*
X142626310Y-85640000D01*
X142373691Y-85640000D01*
X142050273Y-85640000D01*
X142000000Y-85630000D01*
X141949726Y-85640000D01*
X141373691Y-85640000D01*
X141140302Y-85736673D01*
X141089075Y-85787899D01*
X141089074Y-85787899D01*
X140898026Y-85501975D01*
X140898026Y-85501974D01*
X140898022Y-85501971D01*
X138274000Y-82877948D01*
X138274000Y-81637718D01*
X138388846Y-81523073D01*
X138638206Y-80922547D01*
X138638774Y-80272306D01*
X138390462Y-79671345D01*
X137931073Y-79211154D01*
X137330547Y-78961794D01*
X136680306Y-78961226D01*
X136079345Y-79209538D01*
X135619154Y-79668927D01*
X135369794Y-80269453D01*
X135369226Y-80919694D01*
X135617538Y-81520655D01*
X135734000Y-81637320D01*
X135734000Y-83403994D01*
X135733999Y-83404000D01*
X135830673Y-83890008D01*
X136105974Y-84302026D01*
X138736468Y-86932519D01*
X138826673Y-87386008D01*
X138865000Y-87443368D01*
X138865000Y-87651309D01*
X138961673Y-87884698D01*
X139140301Y-88063327D01*
X139373690Y-88160000D01*
X139626309Y-88160000D01*
X139949726Y-88160000D01*
X140000000Y-88170000D01*
X140050273Y-88160000D01*
X140626309Y-88160000D01*
X140859698Y-88063327D01*
X141000000Y-87923025D01*
X141140301Y-88063327D01*
X141186348Y-88082400D01*
X142601971Y-89498022D01*
X142601974Y-89498026D01*
X143013992Y-89773327D01*
X143500000Y-89870000D01*
X143782950Y-89870000D01*
X143740000Y-89973691D01*
X143740000Y-90314250D01*
X143898750Y-90473000D01*
X144873000Y-90473000D01*
X144873000Y-90453000D01*
X145127000Y-90453000D01*
X145127000Y-90473000D01*
X146101250Y-90473000D01*
X146260000Y-90314250D01*
X146260000Y-89973691D01*
X146217049Y-89870000D01*
X148603994Y-89870000D01*
X148604000Y-89870001D01*
X148604000Y-89870000D01*
X149090008Y-89773327D01*
X149502026Y-89498026D01*
X149757419Y-89242632D01*
X149919694Y-89242774D01*
X150520655Y-88994462D01*
X150980846Y-88535073D01*
X151230206Y-87934547D01*
X151230774Y-87284306D01*
X151230774Y-93173411D01*
X151217341Y-92810623D01*
X151014965Y-92322042D01*
X150748163Y-92223443D01*
X150568557Y-92403048D01*
X150568557Y-92043837D01*
X150469958Y-91777035D01*
X149860418Y-91550599D01*
X149210623Y-91574659D01*
X148722042Y-91777035D01*
X148623443Y-92043837D01*
X149596000Y-93016395D01*
X150568557Y-92043837D01*
X150568557Y-92403048D01*
X149775605Y-93196000D01*
X149789747Y-93210142D01*
X149610142Y-93389747D01*
X149596000Y-93375605D01*
X149581857Y-93389747D01*
X149402252Y-93210142D01*
X149416395Y-93196000D01*
X148443837Y-92223443D01*
X148177035Y-92322042D01*
X147950599Y-92931582D01*
X147974659Y-93581377D01*
X148154270Y-94015000D01*
X146260000Y-94015000D01*
X146260000Y-91226309D01*
X146260000Y-90885750D01*
X146101250Y-90727000D01*
X145127000Y-90727000D01*
X145127000Y-91576250D01*
X145285750Y-91735000D01*
X145498691Y-91735000D01*
X145751310Y-91735000D01*
X145984699Y-91638327D01*
X146163327Y-91459698D01*
X146260000Y-91226309D01*
X146260000Y-94015000D01*
X144873000Y-94015000D01*
X144873000Y-91576250D01*
X144873000Y-90727000D01*
X143898750Y-90727000D01*
X143740000Y-90885750D01*
X143740000Y-91226309D01*
X143836673Y-91459698D01*
X144015301Y-91638327D01*
X144248690Y-91735000D01*
X144501309Y-91735000D01*
X144714250Y-91735000D01*
X144873000Y-91576250D01*
X144873000Y-94015000D01*
X141385473Y-94015000D01*
X141385473Y-90127664D01*
X141023134Y-89250737D01*
X140352792Y-88579224D01*
X139476499Y-88215355D01*
X138527664Y-88214527D01*
X137650737Y-88576866D01*
X136979224Y-89247208D01*
X136615355Y-90123501D01*
X136614527Y-91072336D01*
X136976866Y-91949263D01*
X137647208Y-92620776D01*
X138523501Y-92984645D01*
X139472336Y-92985473D01*
X140349263Y-92623134D01*
X141020776Y-91952792D01*
X141384645Y-91076499D01*
X141385473Y-90127664D01*
X141385473Y-94015000D01*
X135085000Y-94015000D01*
X135085000Y-76800000D01*
X135032857Y-76537862D01*
X135019560Y-76517961D01*
X135019560Y-76018200D01*
X135007166Y-75955895D01*
X135007167Y-75892367D01*
X134934853Y-75528818D01*
X134934852Y-75528817D01*
X134838544Y-75296309D01*
X134838543Y-75296308D01*
X134838543Y-75296307D01*
X134792012Y-75226668D01*
X134804976Y-71363313D01*
X135084332Y-71479313D01*
X135513784Y-71479687D01*
X135910689Y-71315689D01*
X136214622Y-71012286D01*
X136379313Y-70615668D01*
X136379687Y-70186216D01*
X136252901Y-69879372D01*
X136613784Y-69879687D01*
X137010689Y-69715689D01*
X137314622Y-69412286D01*
X137385164Y-69242400D01*
X137664806Y-69522042D01*
X137664735Y-69603991D01*
X137897932Y-70168371D01*
X138279181Y-70550287D01*
X137899449Y-70929357D01*
X137665267Y-71493330D01*
X137665250Y-71512195D01*
X137551310Y-71465000D01*
X137298691Y-71465000D01*
X136048691Y-71465000D01*
X135815302Y-71561673D01*
X135636673Y-71740301D01*
X135540000Y-71973690D01*
X135540000Y-72226309D01*
X135540000Y-73226309D01*
X135636673Y-73459698D01*
X135776974Y-73600000D01*
X135636673Y-73740302D01*
X135540000Y-73973691D01*
X135540000Y-74314250D01*
X135698750Y-74473000D01*
X136673000Y-74473000D01*
X136673000Y-74453000D01*
X136927000Y-74453000D01*
X136927000Y-74473000D01*
X137901250Y-74473000D01*
X138060000Y-74314250D01*
X138060000Y-73973691D01*
X137963327Y-73740302D01*
X137823025Y-73599999D01*
X137934025Y-73489000D01*
X138400000Y-73489000D01*
X138740205Y-73421329D01*
X138740206Y-73421329D01*
X138878821Y-73328708D01*
X138893330Y-73334733D01*
X139503991Y-73335265D01*
X140068371Y-73102068D01*
X140500551Y-72670643D01*
X140700202Y-72189828D01*
X140897932Y-72668371D01*
X141329357Y-73100551D01*
X141893330Y-73334733D01*
X142503991Y-73335265D01*
X143068371Y-73102068D01*
X143500551Y-72670643D01*
X143734733Y-72106670D01*
X143735067Y-71722168D01*
X143838000Y-71619236D01*
X143838000Y-72400000D01*
X143838000Y-72500000D01*
X143838000Y-72600000D01*
X143838000Y-73949000D01*
X143362691Y-73949000D01*
X143129302Y-74045673D01*
X142950673Y-74224301D01*
X142854000Y-74457690D01*
X142854000Y-74710309D01*
X142854000Y-76742309D01*
X142950673Y-76975698D01*
X143129301Y-77154327D01*
X143362690Y-77251000D01*
X143615309Y-77251000D01*
X145139309Y-77251000D01*
X145372698Y-77154327D01*
X145551327Y-76975699D01*
X145648000Y-76742310D01*
X145648000Y-76489691D01*
X145648000Y-74457691D01*
X145551327Y-74224302D01*
X145372699Y-74045673D01*
X145362000Y-74041241D01*
X145362000Y-72600000D01*
X145362000Y-72500000D01*
X145362000Y-72400000D01*
X145362000Y-65928612D01*
X145384185Y-65961815D01*
X145861185Y-66438815D01*
X146108395Y-66603996D01*
X146108396Y-66603996D01*
X146400000Y-66662000D01*
X151050000Y-66662000D01*
X151050000Y-66661999D01*
X151341604Y-66603996D01*
X151341605Y-66603996D01*
X151444863Y-66535000D01*
X151444864Y-66535000D01*
X152176309Y-66535000D01*
X152409698Y-66438327D01*
X152499999Y-66348025D01*
X152540301Y-66388327D01*
X152749194Y-66474853D01*
X152620687Y-66784332D01*
X152620313Y-67213784D01*
X152784311Y-67610689D01*
X153087714Y-67914622D01*
X153484332Y-68079313D01*
X153522109Y-68079345D01*
X154668391Y-69225627D01*
X154415668Y-69120687D01*
X153986216Y-69120313D01*
X153589311Y-69284311D01*
X153285378Y-69587714D01*
X153120687Y-69984332D01*
X153120313Y-70413784D01*
X153284311Y-70810689D01*
X153549454Y-71076295D01*
X153527000Y-71098750D01*
X153527000Y-72073000D01*
X153547000Y-72073000D01*
X153547000Y-72327000D01*
X153527000Y-72327000D01*
X153527000Y-73301250D01*
X153685750Y-73460000D01*
X154026309Y-73460000D01*
X154259698Y-73363327D01*
X154400000Y-73223025D01*
X154540301Y-73363327D01*
X154682177Y-73422094D01*
X154696004Y-73491605D01*
X154861185Y-73738815D01*
X154987792Y-73865422D01*
X154893082Y-73904653D01*
X154714453Y-74083281D01*
X154617780Y-74316670D01*
X154617780Y-74569289D01*
X154617780Y-74800449D01*
X154582220Y-74836009D01*
X154582220Y-74816358D01*
X154423472Y-74816358D01*
X154582220Y-74657610D01*
X154582220Y-74569289D01*
X154582220Y-74316670D01*
X154485547Y-74083281D01*
X154306918Y-73904653D01*
X154073529Y-73807980D01*
X153933250Y-73807980D01*
X153774500Y-73966730D01*
X153774500Y-74816360D01*
X153794500Y-74816360D01*
X153794500Y-75070360D01*
X153774500Y-75070360D01*
X153774500Y-75090360D01*
X153520500Y-75090360D01*
X153520500Y-75070360D01*
X153520500Y-74816360D01*
X153520500Y-73966730D01*
X153361750Y-73807980D01*
X153221471Y-73807980D01*
X152988082Y-73904653D01*
X152809453Y-74083281D01*
X152712780Y-74316670D01*
X152712780Y-74569289D01*
X152712780Y-74657610D01*
X152871530Y-74816360D01*
X153520500Y-74816360D01*
X153520500Y-75070360D01*
X152871530Y-75070360D01*
X152712780Y-75229110D01*
X152712780Y-75317431D01*
X152712780Y-75570050D01*
X152782939Y-75739430D01*
X152524361Y-75998008D01*
X152438327Y-75790302D01*
X152312000Y-75663974D01*
X152312000Y-75450000D01*
X152255760Y-75167265D01*
X152363327Y-75059699D01*
X152460000Y-74826310D01*
X152460000Y-74573691D01*
X152460000Y-73573691D01*
X152363327Y-73340302D01*
X152223025Y-73200000D01*
X152325545Y-73097479D01*
X152361673Y-73184699D01*
X152540302Y-73363327D01*
X152773691Y-73460000D01*
X153114250Y-73460000D01*
X153273000Y-73301250D01*
X153273000Y-72327000D01*
X153273000Y-72073000D01*
X153273000Y-71098750D01*
X153114250Y-70940000D01*
X152773691Y-70940000D01*
X152540302Y-71036673D01*
X152361673Y-71215301D01*
X152325545Y-71302520D01*
X152184699Y-71161673D01*
X151951310Y-71065000D01*
X151930500Y-71065000D01*
X151930500Y-70051810D01*
X151930500Y-69799191D01*
X151930500Y-68148191D01*
X151833827Y-67914802D01*
X151655199Y-67736173D01*
X151421810Y-67639500D01*
X151169191Y-67639500D01*
X149518191Y-67639500D01*
X149284802Y-67736173D01*
X149106173Y-67914801D01*
X149009500Y-68148190D01*
X149009500Y-68269940D01*
X148956215Y-68253390D01*
X148776610Y-68432995D01*
X148776610Y-68073785D01*
X148699344Y-67825024D01*
X148152869Y-67627660D01*
X147572465Y-67654447D01*
X147160656Y-67825024D01*
X147083390Y-68073785D01*
X147930000Y-68920395D01*
X148776610Y-68073785D01*
X148776610Y-68432995D01*
X148109605Y-69100000D01*
X148956215Y-69946610D01*
X149009500Y-69930059D01*
X149009500Y-70051809D01*
X149106173Y-70285198D01*
X149284801Y-70463827D01*
X149518190Y-70560500D01*
X149770809Y-70560500D01*
X151421809Y-70560500D01*
X151655198Y-70463827D01*
X151833827Y-70285199D01*
X151930500Y-70051810D01*
X151930500Y-71065000D01*
X151698691Y-71065000D01*
X151485750Y-71065000D01*
X151327000Y-71223750D01*
X151327000Y-72073000D01*
X152301250Y-72073000D01*
X152362500Y-72011750D01*
X152423750Y-72073000D01*
X153273000Y-72073000D01*
X153273000Y-72327000D01*
X152423750Y-72327000D01*
X152362500Y-72388250D01*
X152301250Y-72327000D01*
X151327000Y-72327000D01*
X151327000Y-72347000D01*
X151073000Y-72347000D01*
X151073000Y-72327000D01*
X151073000Y-72073000D01*
X151073000Y-71223750D01*
X150914250Y-71065000D01*
X150701309Y-71065000D01*
X150448690Y-71065000D01*
X150215301Y-71161673D01*
X150036673Y-71340302D01*
X149940000Y-71573691D01*
X149940000Y-71914250D01*
X150098750Y-72073000D01*
X151073000Y-72073000D01*
X151073000Y-72327000D01*
X150098750Y-72327000D01*
X149940000Y-72485750D01*
X149940000Y-72826309D01*
X150036673Y-73059698D01*
X150176974Y-73200000D01*
X150036673Y-73340301D01*
X149940000Y-73573690D01*
X149940000Y-73826309D01*
X149940000Y-74826309D01*
X150036673Y-75059698D01*
X150215301Y-75238327D01*
X150448690Y-75335000D01*
X150484744Y-75335000D01*
X150496004Y-75391605D01*
X150661185Y-75638815D01*
X150737172Y-75714802D01*
X150661673Y-75790301D01*
X150599999Y-75939193D01*
X150538327Y-75790302D01*
X150359699Y-75611673D01*
X150126310Y-75515000D01*
X149873691Y-75515000D01*
X149173691Y-75515000D01*
X148940302Y-75611673D01*
X148776610Y-75775364D01*
X148776610Y-70126215D01*
X147930000Y-69279605D01*
X147750395Y-69459210D01*
X147750395Y-69100000D01*
X146903785Y-68253390D01*
X146655024Y-68330656D01*
X146457660Y-68877131D01*
X146484447Y-69457535D01*
X146655024Y-69869344D01*
X146903785Y-69946610D01*
X147750395Y-69100000D01*
X147750395Y-69459210D01*
X147083390Y-70126215D01*
X147160656Y-70374976D01*
X147707131Y-70572340D01*
X148287535Y-70545553D01*
X148699344Y-70374976D01*
X148776610Y-70126215D01*
X148776610Y-75775364D01*
X148761673Y-75790301D01*
X148665000Y-76023690D01*
X148665000Y-76038000D01*
X147964641Y-76038000D01*
X147812286Y-75885378D01*
X147415668Y-75720687D01*
X146986216Y-75720313D01*
X146589311Y-75884311D01*
X146285378Y-76187714D01*
X146120687Y-76584332D01*
X146120313Y-77013784D01*
X146284311Y-77410689D01*
X146587714Y-77714622D01*
X146984332Y-77879313D01*
X147413784Y-77879687D01*
X147810689Y-77715689D01*
X147964646Y-77562000D01*
X148665000Y-77562000D01*
X148665000Y-77576309D01*
X148761673Y-77809698D01*
X148940301Y-77988327D01*
X149173690Y-78085000D01*
X149426309Y-78085000D01*
X150126309Y-78085000D01*
X150359698Y-77988327D01*
X150538327Y-77809699D01*
X150600000Y-77660806D01*
X150661673Y-77809698D01*
X150840301Y-77988327D01*
X151073690Y-78085000D01*
X151326309Y-78085000D01*
X152026309Y-78085000D01*
X152259698Y-77988327D01*
X152438327Y-77809699D01*
X152535000Y-77576310D01*
X152535000Y-77562000D01*
X152800000Y-77562000D01*
X152800000Y-77561999D01*
X153091604Y-77503996D01*
X153091605Y-77503996D01*
X153338815Y-77338815D01*
X153665280Y-77012350D01*
X153665280Y-77683329D01*
X153761953Y-77916718D01*
X153940581Y-78095347D01*
X154173970Y-78192020D01*
X154426589Y-78192020D01*
X155026029Y-78192020D01*
X155259418Y-78095347D01*
X155438047Y-77916719D01*
X155478672Y-77818640D01*
X156343360Y-77818640D01*
X157091899Y-77818640D01*
X157187714Y-77914622D01*
X157584332Y-78079313D01*
X158013784Y-78079687D01*
X158410689Y-77915689D01*
X158714622Y-77612286D01*
X158879313Y-77215668D01*
X158879687Y-76786216D01*
X158715689Y-76389311D01*
X158412286Y-76085378D01*
X158162000Y-75981449D01*
X158162000Y-75200000D01*
X158103996Y-74908395D01*
X157938815Y-74661185D01*
X156445357Y-73167727D01*
X156535000Y-72951310D01*
X156535000Y-72698691D01*
X156535000Y-71458828D01*
X156584332Y-71479313D01*
X157013784Y-71479687D01*
X157410689Y-71315689D01*
X157651886Y-71074911D01*
X157815301Y-71238327D01*
X158000405Y-71315000D01*
X157773691Y-71315000D01*
X157540302Y-71411673D01*
X157361673Y-71590301D01*
X157265000Y-71823690D01*
X157265000Y-72076309D01*
X157265000Y-73376309D01*
X157361673Y-73609698D01*
X157540301Y-73788327D01*
X157773690Y-73885000D01*
X158026309Y-73885000D01*
X158726309Y-73885000D01*
X158959698Y-73788327D01*
X159138327Y-73609699D01*
X159200000Y-73460806D01*
X159261673Y-73609698D01*
X159440301Y-73788327D01*
X159673690Y-73885000D01*
X159926309Y-73885000D01*
X160626309Y-73885000D01*
X160845271Y-73794302D01*
X160845269Y-73797086D01*
X160907768Y-73948346D01*
X160513992Y-74026673D01*
X160101974Y-74301974D01*
X159501974Y-74901974D01*
X159226673Y-75313992D01*
X159129999Y-75800000D01*
X159130000Y-75800005D01*
X159130000Y-78166549D01*
X159118547Y-78161794D01*
X158468306Y-78161226D01*
X157867345Y-78409538D01*
X157407154Y-78868927D01*
X157157794Y-79469453D01*
X157157226Y-80119694D01*
X157405538Y-80720655D01*
X157864927Y-81180846D01*
X158465453Y-81430206D01*
X159115694Y-81430774D01*
X159716655Y-81182462D01*
X160176846Y-80723073D01*
X160396950Y-80193002D01*
X162301974Y-82098026D01*
X162713992Y-82373327D01*
X163200000Y-82470001D01*
X163200000Y-82470000D01*
X163200005Y-82470000D01*
X164173948Y-82470000D01*
X164828344Y-83124396D01*
X164345620Y-83323854D01*
X163970173Y-83698647D01*
X163893500Y-83883295D01*
X163893500Y-83630191D01*
X163796827Y-83396802D01*
X163618199Y-83218173D01*
X163384810Y-83121500D01*
X163132191Y-83121500D01*
X161735191Y-83121500D01*
X161501802Y-83218173D01*
X161323173Y-83396801D01*
X161226500Y-83630190D01*
X161226500Y-83882809D01*
X161226500Y-84441462D01*
X158426481Y-87241481D01*
X158220005Y-87550494D01*
X158205305Y-87624392D01*
X158115302Y-87661673D01*
X157936673Y-87840301D01*
X157840000Y-88073690D01*
X157840000Y-88326309D01*
X157840000Y-89326309D01*
X157936673Y-89559698D01*
X158076974Y-89700000D01*
X157936673Y-89840302D01*
X157840000Y-90073691D01*
X157840000Y-90414250D01*
X157998750Y-90573000D01*
X158973000Y-90573000D01*
X158973000Y-90553000D01*
X159227000Y-90553000D01*
X159227000Y-90573000D01*
X160201250Y-90573000D01*
X160360000Y-90414250D01*
X160360000Y-90073691D01*
X160263327Y-89840302D01*
X160123025Y-89699999D01*
X160263327Y-89559699D01*
X160360000Y-89326310D01*
X160360000Y-89073691D01*
X160360000Y-88073691D01*
X160339013Y-88023024D01*
X162573538Y-85788500D01*
X163384809Y-85788500D01*
X163618198Y-85691827D01*
X163796827Y-85513199D01*
X163893500Y-85279810D01*
X163893500Y-85027191D01*
X163893500Y-85027009D01*
X163968854Y-85209380D01*
X164343647Y-85584827D01*
X164833587Y-85788268D01*
X165364086Y-85788731D01*
X165854380Y-85586146D01*
X166229827Y-85211353D01*
X166370093Y-84873553D01*
X166508854Y-85209380D01*
X166883647Y-85584827D01*
X167373587Y-85788268D01*
X167904086Y-85788731D01*
X168394380Y-85586146D01*
X168769827Y-85211353D01*
X168910000Y-84873779D01*
X168910000Y-85193948D01*
X167865948Y-86238000D01*
X164437718Y-86238000D01*
X164323073Y-86123154D01*
X163722547Y-85873794D01*
X163072306Y-85873226D01*
X162471345Y-86121538D01*
X162011154Y-86580927D01*
X161761794Y-87181453D01*
X161761226Y-87831694D01*
X162009538Y-88432655D01*
X162468927Y-88892846D01*
X163069453Y-89142206D01*
X163719694Y-89142774D01*
X163809581Y-89105633D01*
X164601971Y-89898022D01*
X164601974Y-89898026D01*
X164601975Y-89898026D01*
X165013992Y-90173327D01*
X165500000Y-90270001D01*
X165500000Y-90270000D01*
X165500005Y-90270000D01*
X166582950Y-90270000D01*
X166540000Y-90373691D01*
X166540000Y-90714250D01*
X166698750Y-90873000D01*
X167673000Y-90873000D01*
X167673000Y-90853000D01*
X167927000Y-90853000D01*
X167927000Y-90873000D01*
X168901250Y-90873000D01*
X169060000Y-90714250D01*
X169060000Y-90373691D01*
X168963327Y-90140302D01*
X168823025Y-89999999D01*
X168963327Y-89859699D01*
X169060000Y-89626310D01*
X169060000Y-89373691D01*
X169060000Y-89050273D01*
X169070000Y-89000000D01*
X169060000Y-88949726D01*
X169060000Y-88559724D01*
X169290026Y-88406026D01*
X171078026Y-86618026D01*
X171353327Y-86206008D01*
X171450000Y-85720000D01*
X171450001Y-85720000D01*
X171450000Y-85719994D01*
X171450000Y-84873779D01*
X171450093Y-84873553D01*
X171588854Y-85209380D01*
X171963647Y-85584827D01*
X172453587Y-85788268D01*
X172984086Y-85788731D01*
X173474380Y-85586146D01*
X173849827Y-85211353D01*
X174053268Y-84721413D01*
X174053731Y-84190914D01*
X173851146Y-83700620D01*
X173476353Y-83325173D01*
X172986413Y-83121732D01*
X172455914Y-83121269D01*
X171965620Y-83323854D01*
X171590173Y-83698647D01*
X171450000Y-84036220D01*
X171450000Y-83446052D01*
X172026052Y-82870000D01*
X175373948Y-82870000D01*
X176165000Y-83661052D01*
X176165000Y-83751309D01*
X176261673Y-83984698D01*
X176440301Y-84163327D01*
X176673690Y-84260000D01*
X176926309Y-84260000D01*
X177249722Y-84260000D01*
X177300000Y-84270001D01*
X177350277Y-84260000D01*
X177926309Y-84260000D01*
X178159698Y-84163327D01*
X178300000Y-84023025D01*
X178440301Y-84163327D01*
X178673690Y-84260000D01*
X178926309Y-84260000D01*
X179249726Y-84260000D01*
X179300000Y-84270000D01*
X179350273Y-84260000D01*
X179926309Y-84260000D01*
X180159698Y-84163327D01*
X180338327Y-83984699D01*
X180435000Y-83751310D01*
X180435000Y-83543368D01*
X180473327Y-83486008D01*
X180570000Y-83000000D01*
X180570000Y-80500005D01*
X180570000Y-80500000D01*
X180570001Y-80500000D01*
X180473327Y-80013992D01*
X180198026Y-79601974D01*
X179642454Y-79046402D01*
X179642774Y-78680306D01*
X179394462Y-78079345D01*
X178935073Y-77619154D01*
X178334547Y-77369794D01*
X177684306Y-77369226D01*
X177083345Y-77617538D01*
X176623154Y-78076927D01*
X176373794Y-78677453D01*
X176373226Y-79327694D01*
X176621538Y-79928655D01*
X177080927Y-80388846D01*
X177614248Y-80610300D01*
X178030000Y-81026052D01*
X178030000Y-81782949D01*
X177926310Y-81740000D01*
X177836052Y-81740000D01*
X176798026Y-80701974D01*
X176386008Y-80426673D01*
X175900000Y-80329999D01*
X175899994Y-80330000D01*
X171500005Y-80330000D01*
X171500000Y-80329999D01*
X171013992Y-80426673D01*
X170601974Y-80701974D01*
X169281974Y-82021974D01*
X169006673Y-82433992D01*
X168909999Y-82920000D01*
X168910000Y-82920005D01*
X168910000Y-84036220D01*
X168909906Y-84036446D01*
X168870368Y-83940758D01*
X168813327Y-83653992D01*
X168538026Y-83241974D01*
X165598026Y-80301974D01*
X165186008Y-80026673D01*
X164700000Y-79929999D01*
X164699994Y-79930000D01*
X163726052Y-79930000D01*
X161670000Y-77873948D01*
X161670000Y-77830946D01*
X161803647Y-77964827D01*
X162293587Y-78168268D01*
X162824086Y-78168731D01*
X163314380Y-77966146D01*
X163689827Y-77591353D01*
X163830093Y-77253553D01*
X163968854Y-77589380D01*
X164343647Y-77964827D01*
X164833587Y-78168268D01*
X165364086Y-78168731D01*
X165854380Y-77966146D01*
X166229827Y-77591353D01*
X166370093Y-77253553D01*
X166508854Y-77589380D01*
X166883647Y-77964827D01*
X167373587Y-78168268D01*
X167904086Y-78168731D01*
X168394380Y-77966146D01*
X168769827Y-77591353D01*
X168910093Y-77253553D01*
X169048854Y-77589380D01*
X169423647Y-77964827D01*
X169913587Y-78168268D01*
X170444086Y-78168731D01*
X170934380Y-77966146D01*
X171309827Y-77591353D01*
X171450093Y-77253553D01*
X171588854Y-77589380D01*
X171963647Y-77964827D01*
X172453587Y-78168268D01*
X172984086Y-78168731D01*
X173474380Y-77966146D01*
X173849827Y-77591353D01*
X174053268Y-77101413D01*
X174053731Y-76570914D01*
X173851146Y-76080620D01*
X173684927Y-75914110D01*
X173684927Y-73725520D01*
X173656148Y-73195801D01*
X173508800Y-72840071D01*
X173273188Y-72778417D01*
X172518605Y-73533000D01*
X173273188Y-74287583D01*
X173508800Y-74225929D01*
X173684927Y-73725520D01*
X173684927Y-75914110D01*
X173476353Y-75705173D01*
X173093583Y-75546232D01*
X173093583Y-74467188D01*
X172339000Y-73712605D01*
X171584417Y-74467188D01*
X171646071Y-74702800D01*
X172146480Y-74878927D01*
X172676199Y-74850148D01*
X173031929Y-74702800D01*
X173093583Y-74467188D01*
X173093583Y-75546232D01*
X172986413Y-75501732D01*
X172455914Y-75501269D01*
X171965620Y-75703854D01*
X171590173Y-76078647D01*
X171449906Y-76416446D01*
X171311146Y-76080620D01*
X170936353Y-75705173D01*
X170446413Y-75501732D01*
X169915914Y-75501269D01*
X169425620Y-75703854D01*
X169050173Y-76078647D01*
X168909906Y-76416446D01*
X168771146Y-76080620D01*
X168396353Y-75705173D01*
X167968527Y-75527524D01*
X168157026Y-75339026D01*
X168432327Y-74927008D01*
X168529000Y-74441000D01*
X168529000Y-73951779D01*
X168529093Y-73951553D01*
X168667854Y-74287380D01*
X169042647Y-74662827D01*
X169532587Y-74866268D01*
X170063086Y-74866731D01*
X170553380Y-74664146D01*
X170928827Y-74289353D01*
X171062313Y-73967881D01*
X171169200Y-74225929D01*
X171404812Y-74287583D01*
X172159395Y-73533000D01*
X172145252Y-73518857D01*
X172324857Y-73339252D01*
X172339000Y-73353395D01*
X173093583Y-72598812D01*
X173031929Y-72363200D01*
X172531520Y-72187073D01*
X172405291Y-72193930D01*
X172479313Y-72015668D01*
X172479687Y-71586216D01*
X172315689Y-71189311D01*
X172012286Y-70885378D01*
X171615668Y-70720687D01*
X171186216Y-70720313D01*
X170789311Y-70884311D01*
X170635353Y-71038000D01*
X168164641Y-71038000D01*
X168012286Y-70885378D01*
X167615668Y-70720687D01*
X167186216Y-70720313D01*
X166789311Y-70884311D01*
X166485378Y-71187714D01*
X166320687Y-71584332D01*
X166320313Y-72013784D01*
X166484311Y-72410689D01*
X166490030Y-72416418D01*
X166129173Y-72776647D01*
X165989000Y-73114220D01*
X165989000Y-71207052D01*
X166626052Y-70570000D01*
X174600000Y-70570000D01*
X175086008Y-70473327D01*
X175143368Y-70435000D01*
X175351309Y-70435000D01*
X175584698Y-70338327D01*
X175763327Y-70159699D01*
X175860000Y-69926310D01*
X175860000Y-69673691D01*
X175860000Y-69643140D01*
X175945474Y-70072848D01*
X176270330Y-70559029D01*
X176756511Y-70883885D01*
X177330000Y-70997959D01*
X177903489Y-70883885D01*
X178389670Y-70559029D01*
X178605663Y-70235771D01*
X178663179Y-70358490D01*
X179095053Y-70752688D01*
X179510974Y-70924958D01*
X179743000Y-70803817D01*
X179743000Y-69597000D01*
X179723000Y-69597000D01*
X179723000Y-69343000D01*
X179743000Y-69343000D01*
X179743000Y-69323000D01*
X179997000Y-69323000D01*
X179997000Y-69343000D01*
X181204469Y-69343000D01*
X181324968Y-69110973D01*
X181076821Y-68581510D01*
X180893880Y-68414528D01*
X181093298Y-68331927D01*
X181271927Y-68153299D01*
X181368600Y-67919910D01*
X181368600Y-67667291D01*
X181368600Y-65940091D01*
X181368600Y-64389909D01*
X181368600Y-63685750D01*
X181368600Y-63114250D01*
X181368600Y-62410091D01*
X181271927Y-62176702D01*
X181260000Y-62164774D01*
X181260000Y-47426309D01*
X181260000Y-47085750D01*
X181101250Y-46927000D01*
X180127000Y-46927000D01*
X180127000Y-47776250D01*
X180285750Y-47935000D01*
X180498691Y-47935000D01*
X180751310Y-47935000D01*
X180984699Y-47838327D01*
X181163327Y-47659698D01*
X181260000Y-47426309D01*
X181260000Y-62164774D01*
X181093299Y-61998073D01*
X180859910Y-61901400D01*
X180607291Y-61901400D01*
X180155750Y-61901400D01*
X179997000Y-62060150D01*
X179997000Y-63273000D01*
X181209850Y-63273000D01*
X181368600Y-63114250D01*
X181368600Y-63685750D01*
X181209850Y-63527000D01*
X179997000Y-63527000D01*
X179997000Y-64739850D01*
X180155750Y-64898600D01*
X180607291Y-64898600D01*
X180859910Y-64898600D01*
X181093299Y-64801927D01*
X181271927Y-64623298D01*
X181368600Y-64389909D01*
X181368600Y-65940091D01*
X181271927Y-65706702D01*
X181093299Y-65528073D01*
X180859910Y-65431400D01*
X180607291Y-65431400D01*
X179873000Y-65431400D01*
X179873000Y-47776250D01*
X179873000Y-46927000D01*
X178898750Y-46927000D01*
X178740000Y-47085750D01*
X178740000Y-47426309D01*
X178836673Y-47659698D01*
X179015301Y-47838327D01*
X179248690Y-47935000D01*
X179501309Y-47935000D01*
X179714250Y-47935000D01*
X179873000Y-47776250D01*
X179873000Y-65431400D01*
X178880091Y-65431400D01*
X178646702Y-65528073D01*
X178468073Y-65706701D01*
X178403736Y-65862022D01*
X178389670Y-65840971D01*
X177903489Y-65516115D01*
X177330000Y-65402041D01*
X176756511Y-65516115D01*
X176270330Y-65840971D01*
X175945474Y-66327152D01*
X175870000Y-66706585D01*
X175870000Y-63623414D01*
X175945474Y-64002848D01*
X176270330Y-64489029D01*
X176756511Y-64813885D01*
X177330000Y-64927959D01*
X177903489Y-64813885D01*
X178389670Y-64489029D01*
X178403736Y-64467976D01*
X178468073Y-64623298D01*
X178646701Y-64801927D01*
X178880090Y-64898600D01*
X179132709Y-64898600D01*
X179584250Y-64898600D01*
X179743000Y-64739850D01*
X179743000Y-63527000D01*
X179723000Y-63527000D01*
X179723000Y-63273000D01*
X179743000Y-63273000D01*
X179743000Y-62060150D01*
X179681000Y-61998150D01*
X179681000Y-59044310D01*
X179681000Y-58791691D01*
X179681000Y-58578750D01*
X179681000Y-58007250D01*
X179681000Y-57794309D01*
X179681000Y-57541690D01*
X179584327Y-57308301D01*
X179405698Y-57129673D01*
X179172309Y-57033000D01*
X178831750Y-57033000D01*
X178673000Y-57191750D01*
X178673000Y-58166000D01*
X179522250Y-58166000D01*
X179681000Y-58007250D01*
X179681000Y-58578750D01*
X179522250Y-58420000D01*
X178673000Y-58420000D01*
X178673000Y-59394250D01*
X178831750Y-59553000D01*
X179172309Y-59553000D01*
X179405698Y-59456327D01*
X179584327Y-59277699D01*
X179681000Y-59044310D01*
X179681000Y-61998150D01*
X179584250Y-61901400D01*
X179132709Y-61901400D01*
X178880090Y-61901400D01*
X178646701Y-61998073D01*
X178468073Y-62176702D01*
X178419000Y-62295172D01*
X178419000Y-59394250D01*
X178419000Y-58420000D01*
X178399000Y-58420000D01*
X178399000Y-58166000D01*
X178419000Y-58166000D01*
X178419000Y-57191750D01*
X178260250Y-57033000D01*
X177919691Y-57033000D01*
X177860000Y-57057724D01*
X177860000Y-47426309D01*
X177860000Y-47085750D01*
X177701250Y-46927000D01*
X176727000Y-46927000D01*
X176727000Y-47776250D01*
X176885750Y-47935000D01*
X177098691Y-47935000D01*
X177351310Y-47935000D01*
X177584699Y-47838327D01*
X177763327Y-47659698D01*
X177860000Y-47426309D01*
X177860000Y-57057724D01*
X177686302Y-57129673D01*
X177545999Y-57269974D01*
X177405699Y-57129673D01*
X177172310Y-57033000D01*
X177082051Y-57033000D01*
X176473000Y-56423948D01*
X176473000Y-47776250D01*
X176473000Y-46927000D01*
X175498750Y-46927000D01*
X175340000Y-47085750D01*
X175340000Y-47426309D01*
X175436673Y-47659698D01*
X175615301Y-47838327D01*
X175848690Y-47935000D01*
X176101309Y-47935000D01*
X176314250Y-47935000D01*
X176473000Y-47776250D01*
X176473000Y-56423948D01*
X175982098Y-55933046D01*
X176132206Y-55571547D01*
X176132774Y-54921306D01*
X175884462Y-54320345D01*
X175425073Y-53860154D01*
X174860000Y-53625515D01*
X174860000Y-47426309D01*
X174860000Y-47085750D01*
X174701250Y-46927000D01*
X173727000Y-46927000D01*
X173727000Y-47776250D01*
X173885750Y-47935000D01*
X174098691Y-47935000D01*
X174351310Y-47935000D01*
X174584699Y-47838327D01*
X174763327Y-47659698D01*
X174860000Y-47426309D01*
X174860000Y-53625515D01*
X174824547Y-53610794D01*
X174174306Y-53610226D01*
X173573345Y-53858538D01*
X173473000Y-53958708D01*
X173473000Y-47776250D01*
X173473000Y-46927000D01*
X172498750Y-46927000D01*
X172340000Y-47085750D01*
X172340000Y-47426309D01*
X172436673Y-47659698D01*
X172615301Y-47838327D01*
X172848690Y-47935000D01*
X173101309Y-47935000D01*
X173314250Y-47935000D01*
X173473000Y-47776250D01*
X173473000Y-53958708D01*
X173113154Y-54317927D01*
X172863794Y-54918453D01*
X172863226Y-55568694D01*
X173111538Y-56169655D01*
X173238263Y-56296601D01*
X173324673Y-56731008D01*
X173599974Y-57143026D01*
X175411000Y-58954051D01*
X175411000Y-59044309D01*
X175507673Y-59277698D01*
X175686301Y-59456327D01*
X175919690Y-59553000D01*
X176172309Y-59553000D01*
X176495726Y-59553000D01*
X176546000Y-59563000D01*
X176596273Y-59553000D01*
X177172309Y-59553000D01*
X177405698Y-59456327D01*
X177546000Y-59316025D01*
X177686302Y-59456327D01*
X177919691Y-59553000D01*
X178260250Y-59553000D01*
X178419000Y-59394250D01*
X178419000Y-62295172D01*
X178403736Y-62332023D01*
X178389670Y-62310971D01*
X177903489Y-61986115D01*
X177330000Y-61872041D01*
X176756511Y-61986115D01*
X176270330Y-62310971D01*
X175945474Y-62797152D01*
X175870000Y-63176585D01*
X175870000Y-61772896D01*
X175882846Y-61760073D01*
X176132206Y-61159547D01*
X176132774Y-60509306D01*
X175884462Y-59908345D01*
X175425073Y-59448154D01*
X174824547Y-59198794D01*
X174174306Y-59198226D01*
X173573345Y-59446538D01*
X173456679Y-59563000D01*
X172235000Y-59563000D01*
X172235000Y-48426309D01*
X172235000Y-48085750D01*
X172235000Y-47514250D01*
X172235000Y-47173691D01*
X172138327Y-46940302D01*
X171959699Y-46761673D01*
X171726310Y-46665000D01*
X171473691Y-46665000D01*
X171085750Y-46665000D01*
X170927000Y-46823750D01*
X170927000Y-47673000D01*
X172076250Y-47673000D01*
X172235000Y-47514250D01*
X172235000Y-48085750D01*
X172076250Y-47927000D01*
X170927000Y-47927000D01*
X170927000Y-48776250D01*
X171085750Y-48935000D01*
X171473691Y-48935000D01*
X171726310Y-48935000D01*
X171959699Y-48838327D01*
X172138327Y-48659698D01*
X172235000Y-48426309D01*
X172235000Y-59563000D01*
X171967005Y-59563000D01*
X171967000Y-59562999D01*
X171480992Y-59659673D01*
X171068974Y-59934974D01*
X171068971Y-59934977D01*
X170673000Y-60330948D01*
X170673000Y-48776250D01*
X170673000Y-47927000D01*
X170673000Y-47673000D01*
X170673000Y-46823750D01*
X170514250Y-46665000D01*
X170126309Y-46665000D01*
X169873690Y-46665000D01*
X169640301Y-46761673D01*
X169461673Y-46940302D01*
X169365000Y-47173691D01*
X169365000Y-47514250D01*
X169523750Y-47673000D01*
X170673000Y-47673000D01*
X170673000Y-47927000D01*
X169523750Y-47927000D01*
X169365000Y-48085750D01*
X169365000Y-48426309D01*
X169461673Y-48659698D01*
X169640301Y-48838327D01*
X169873690Y-48935000D01*
X170126309Y-48935000D01*
X170514250Y-48935000D01*
X170673000Y-48776250D01*
X170673000Y-60330948D01*
X170463948Y-60540000D01*
X170373691Y-60540000D01*
X170140302Y-60636673D01*
X170000000Y-60776974D01*
X169859698Y-60636673D01*
X169626309Y-60540000D01*
X169285750Y-60540000D01*
X169127000Y-60698750D01*
X169127000Y-61673000D01*
X169147000Y-61673000D01*
X169147000Y-61927000D01*
X169127000Y-61927000D01*
X169127000Y-62901250D01*
X169285750Y-63060000D01*
X169626309Y-63060000D01*
X169859698Y-62963327D01*
X170000000Y-62823025D01*
X170140301Y-62963327D01*
X170373690Y-63060000D01*
X170626309Y-63060000D01*
X170949722Y-63060000D01*
X171000000Y-63070001D01*
X171050277Y-63060000D01*
X171626309Y-63060000D01*
X171859698Y-62963327D01*
X172038327Y-62784699D01*
X172135000Y-62551310D01*
X172135000Y-62461051D01*
X172493051Y-62103000D01*
X173330000Y-62103000D01*
X173330000Y-64648338D01*
X173163810Y-64579500D01*
X172911191Y-64579500D01*
X171514191Y-64579500D01*
X171280802Y-64676173D01*
X171102173Y-64854801D01*
X171005500Y-65088190D01*
X171005500Y-65340809D01*
X171005500Y-65340990D01*
X170930146Y-65158620D01*
X170555353Y-64783173D01*
X170065413Y-64579732D01*
X169534914Y-64579269D01*
X169044620Y-64781854D01*
X168873000Y-64953175D01*
X168873000Y-62901250D01*
X168873000Y-61927000D01*
X168873000Y-61673000D01*
X168873000Y-60698750D01*
X168714250Y-60540000D01*
X168373691Y-60540000D01*
X168330774Y-60557776D01*
X168330774Y-57980306D01*
X168082462Y-57379345D01*
X167623073Y-56919154D01*
X167022547Y-56669794D01*
X166372306Y-56669226D01*
X165771345Y-56917538D01*
X165367030Y-57321148D01*
X165367030Y-46822035D01*
X165077622Y-46121614D01*
X164960559Y-46004346D01*
X164960559Y-42902518D01*
X164732892Y-42351520D01*
X164311697Y-41929590D01*
X163761098Y-41700961D01*
X163164918Y-41700441D01*
X162613920Y-41928108D01*
X162191990Y-42349303D01*
X161963361Y-42899902D01*
X161962841Y-43496082D01*
X162190508Y-44047080D01*
X162611703Y-44469010D01*
X163162302Y-44697639D01*
X163758482Y-44698159D01*
X164309480Y-44470492D01*
X164731410Y-44049297D01*
X164960039Y-43498698D01*
X164960559Y-42902518D01*
X164960559Y-46004346D01*
X164542205Y-45585261D01*
X163842290Y-45294632D01*
X163084435Y-45293970D01*
X162384014Y-45583378D01*
X161847661Y-46118795D01*
X161557032Y-46818710D01*
X161556370Y-47576565D01*
X161845778Y-48276986D01*
X162381195Y-48813339D01*
X163081110Y-49103968D01*
X163838965Y-49104630D01*
X164539386Y-48815222D01*
X165075739Y-48279805D01*
X165366368Y-47579890D01*
X165367030Y-46822035D01*
X165367030Y-57321148D01*
X165311154Y-57376927D01*
X165061794Y-57977453D01*
X165061226Y-58627694D01*
X165309538Y-59228655D01*
X165768927Y-59688846D01*
X166369453Y-59938206D01*
X167019694Y-59938774D01*
X167620655Y-59690462D01*
X168080846Y-59231073D01*
X168330206Y-58630547D01*
X168330774Y-57980306D01*
X168330774Y-60557776D01*
X168140302Y-60636673D01*
X167961673Y-60815301D01*
X167865000Y-61048690D01*
X167865000Y-61301309D01*
X167865000Y-61514250D01*
X168023750Y-61673000D01*
X168873000Y-61673000D01*
X168873000Y-61927000D01*
X168023750Y-61927000D01*
X167865000Y-62085750D01*
X167865000Y-62298691D01*
X167865000Y-62551310D01*
X167961673Y-62784699D01*
X168140302Y-62963327D01*
X168373691Y-63060000D01*
X168714250Y-63060000D01*
X168873000Y-62901250D01*
X168873000Y-64953175D01*
X168669173Y-65156647D01*
X168528906Y-65494446D01*
X168390146Y-65158620D01*
X168015353Y-64783173D01*
X167525413Y-64579732D01*
X166994914Y-64579269D01*
X166504620Y-64781854D01*
X166335000Y-64951178D01*
X166335000Y-62751310D01*
X166335000Y-62498691D01*
X166335000Y-62285750D01*
X166335000Y-61714250D01*
X166335000Y-61501309D01*
X166335000Y-61248690D01*
X166238327Y-61015301D01*
X166059698Y-60836673D01*
X165826309Y-60740000D01*
X165485750Y-60740000D01*
X165327000Y-60898750D01*
X165327000Y-61873000D01*
X166176250Y-61873000D01*
X166335000Y-61714250D01*
X166335000Y-62285750D01*
X166176250Y-62127000D01*
X165327000Y-62127000D01*
X165327000Y-63101250D01*
X165485750Y-63260000D01*
X165826309Y-63260000D01*
X166059698Y-63163327D01*
X166238327Y-62984699D01*
X166335000Y-62751310D01*
X166335000Y-64951178D01*
X166129173Y-65156647D01*
X165988906Y-65494446D01*
X165850146Y-65158620D01*
X165475353Y-64783173D01*
X165073000Y-64616101D01*
X165073000Y-63101250D01*
X165073000Y-62127000D01*
X165053000Y-62127000D01*
X165053000Y-61873000D01*
X165073000Y-61873000D01*
X165073000Y-60898750D01*
X164960559Y-60786309D01*
X164960559Y-50902518D01*
X164732892Y-50351520D01*
X164311697Y-49929590D01*
X163761098Y-49700961D01*
X163164918Y-49700441D01*
X162613920Y-49928108D01*
X162191990Y-50349303D01*
X161963361Y-50899902D01*
X161962841Y-51496082D01*
X162190508Y-52047080D01*
X162611703Y-52469010D01*
X163162302Y-52697639D01*
X163758482Y-52698159D01*
X164309480Y-52470492D01*
X164731410Y-52049297D01*
X164960039Y-51498698D01*
X164960559Y-50902518D01*
X164960559Y-60786309D01*
X164914250Y-60740000D01*
X164573691Y-60740000D01*
X164340302Y-60836673D01*
X164199999Y-60976974D01*
X164059699Y-60836673D01*
X163826310Y-60740000D01*
X163736051Y-60740000D01*
X162378000Y-59381948D01*
X162378000Y-59345718D01*
X162492846Y-59231073D01*
X162742206Y-58630547D01*
X162742774Y-57980306D01*
X162494462Y-57379345D01*
X162035073Y-56919154D01*
X161434547Y-56669794D01*
X160784306Y-56669226D01*
X160183345Y-56917538D01*
X159723154Y-57376927D01*
X159473794Y-57977453D01*
X159473226Y-58627694D01*
X159721538Y-59228655D01*
X159838000Y-59345320D01*
X159838000Y-59907994D01*
X159837999Y-59908000D01*
X159934673Y-60394008D01*
X160209974Y-60806026D01*
X162065000Y-62661051D01*
X162065000Y-62751309D01*
X162161673Y-62984698D01*
X162340301Y-63163327D01*
X162573690Y-63260000D01*
X162826309Y-63260000D01*
X163149722Y-63260000D01*
X163200000Y-63270001D01*
X163250277Y-63260000D01*
X163826309Y-63260000D01*
X164059698Y-63163327D01*
X164200000Y-63023025D01*
X164340302Y-63163327D01*
X164573691Y-63260000D01*
X164914250Y-63260000D01*
X165073000Y-63101250D01*
X165073000Y-64616101D01*
X164985413Y-64579732D01*
X164454914Y-64579269D01*
X163964620Y-64781854D01*
X163589173Y-65156647D01*
X163448906Y-65494446D01*
X163310146Y-65158620D01*
X162935353Y-64783173D01*
X162445413Y-64579732D01*
X161914914Y-64579269D01*
X161424620Y-64781854D01*
X161049173Y-65156647D01*
X160845732Y-65646587D01*
X160845269Y-66177086D01*
X161047854Y-66667380D01*
X161422647Y-67042827D01*
X161912587Y-67246268D01*
X162443086Y-67246731D01*
X162933380Y-67044146D01*
X163308827Y-66669353D01*
X163449093Y-66331553D01*
X163587854Y-66667380D01*
X163962647Y-67042827D01*
X164452587Y-67246268D01*
X164983086Y-67246731D01*
X165473380Y-67044146D01*
X165848827Y-66669353D01*
X165989093Y-66331553D01*
X166127854Y-66667380D01*
X166502647Y-67042827D01*
X166992587Y-67246268D01*
X167523086Y-67246731D01*
X168013380Y-67044146D01*
X168388827Y-66669353D01*
X168529093Y-66331553D01*
X168667854Y-66667380D01*
X169042647Y-67042827D01*
X169532587Y-67246268D01*
X170063086Y-67246731D01*
X170553380Y-67044146D01*
X170928827Y-66669353D01*
X171005500Y-66484704D01*
X171005500Y-66737809D01*
X171102173Y-66971198D01*
X171280801Y-67149827D01*
X171514190Y-67246500D01*
X171766809Y-67246500D01*
X173163809Y-67246500D01*
X173330000Y-67177661D01*
X173330000Y-67300000D01*
X173340000Y-67350273D01*
X173340000Y-67926309D01*
X173382950Y-68030000D01*
X166100005Y-68030000D01*
X166100000Y-68029999D01*
X165613992Y-68126673D01*
X165201974Y-68401974D01*
X163820974Y-69782974D01*
X163545673Y-70194992D01*
X163448999Y-70681000D01*
X163449000Y-70681005D01*
X163449000Y-73114220D01*
X163448906Y-73114446D01*
X163310146Y-72778620D01*
X162935353Y-72403173D01*
X162445413Y-72199732D01*
X162402897Y-72199694D01*
X162479313Y-72015668D01*
X162479687Y-71586216D01*
X162315689Y-71189311D01*
X162012286Y-70885378D01*
X161615668Y-70720687D01*
X161186216Y-70720313D01*
X160789311Y-70884311D01*
X160485378Y-71187714D01*
X160432523Y-71315000D01*
X160373691Y-71315000D01*
X160162000Y-71315000D01*
X160162000Y-70929776D01*
X160162000Y-70929775D01*
X160291604Y-70903996D01*
X160291605Y-70903996D01*
X160538815Y-70738815D01*
X160798130Y-70479499D01*
X161013784Y-70479687D01*
X161410689Y-70315689D01*
X161714622Y-70012286D01*
X161879313Y-69615668D01*
X161879687Y-69186216D01*
X161715689Y-68789311D01*
X161412286Y-68485378D01*
X161015668Y-68320687D01*
X160586216Y-68320313D01*
X160435000Y-68382794D01*
X160435000Y-66076310D01*
X160435000Y-65823691D01*
X160435000Y-65585750D01*
X160435000Y-65014250D01*
X160435000Y-64776309D01*
X160435000Y-64523690D01*
X160338327Y-64290301D01*
X160159698Y-64111673D01*
X159926309Y-64015000D01*
X159735750Y-64015000D01*
X159577000Y-64173750D01*
X159577000Y-65173000D01*
X160276250Y-65173000D01*
X160435000Y-65014250D01*
X160435000Y-65585750D01*
X160276250Y-65427000D01*
X159577000Y-65427000D01*
X159577000Y-66426250D01*
X159735750Y-66585000D01*
X159926309Y-66585000D01*
X160159698Y-66488327D01*
X160338327Y-66309699D01*
X160435000Y-66076310D01*
X160435000Y-68382794D01*
X160189311Y-68484311D01*
X160060000Y-68613396D01*
X160060000Y-68485750D01*
X160060000Y-67914250D01*
X160060000Y-67573691D01*
X159963327Y-67340302D01*
X159784699Y-67161673D01*
X159551310Y-67065000D01*
X159298691Y-67065000D01*
X159085750Y-67065000D01*
X158927000Y-67223750D01*
X158927000Y-68073000D01*
X159901250Y-68073000D01*
X160060000Y-67914250D01*
X160060000Y-68485750D01*
X159901250Y-68327000D01*
X158927000Y-68327000D01*
X158927000Y-68347000D01*
X158673000Y-68347000D01*
X158673000Y-68327000D01*
X158653000Y-68327000D01*
X158653000Y-68073000D01*
X158673000Y-68073000D01*
X158673000Y-67223750D01*
X158514250Y-67065000D01*
X158301309Y-67065000D01*
X158048690Y-67065000D01*
X157815301Y-67161673D01*
X157636673Y-67340302D01*
X157540000Y-67573691D01*
X157540000Y-67914250D01*
X157698748Y-68072998D01*
X157540000Y-68072998D01*
X157540000Y-68113140D01*
X157512286Y-68085378D01*
X157115668Y-67920687D01*
X156686216Y-67920313D01*
X156289311Y-68084311D01*
X156262575Y-68111000D01*
X156135000Y-68111000D01*
X156135000Y-65976310D01*
X156135000Y-65723691D01*
X156135000Y-65485750D01*
X155976250Y-65327000D01*
X155277000Y-65327000D01*
X155277000Y-66326250D01*
X155435750Y-66485000D01*
X155626309Y-66485000D01*
X155859698Y-66388327D01*
X156038327Y-66209699D01*
X156135000Y-65976310D01*
X156135000Y-68111000D01*
X156068236Y-68111000D01*
X154779655Y-66822419D01*
X154779687Y-66786216D01*
X154651414Y-66475772D01*
X154673691Y-66485000D01*
X154864250Y-66485000D01*
X155023000Y-66326250D01*
X155023000Y-65327000D01*
X155003000Y-65327000D01*
X155003000Y-65073000D01*
X155023000Y-65073000D01*
X155023000Y-65053000D01*
X155277000Y-65053000D01*
X155277000Y-65073000D01*
X155976250Y-65073000D01*
X156110809Y-64938440D01*
X156565000Y-65392630D01*
X156565000Y-66076309D01*
X156661673Y-66309698D01*
X156840301Y-66488327D01*
X157073690Y-66585000D01*
X157326309Y-66585000D01*
X158026309Y-66585000D01*
X158259698Y-66488327D01*
X158438327Y-66309699D01*
X158500000Y-66160807D01*
X158561673Y-66309699D01*
X158740302Y-66488327D01*
X158973691Y-66585000D01*
X159164250Y-66585000D01*
X159323000Y-66426250D01*
X159323000Y-65427000D01*
X159303000Y-65427000D01*
X159303000Y-65173000D01*
X159323000Y-65173000D01*
X159323000Y-64173750D01*
X159164250Y-64015000D01*
X158973691Y-64015000D01*
X158740302Y-64111673D01*
X158561673Y-64290301D01*
X158499999Y-64439193D01*
X158438327Y-64290302D01*
X158259699Y-64111673D01*
X158026310Y-64015000D01*
X157819090Y-64015000D01*
X157819090Y-39987313D01*
X157819090Y-38915247D01*
X157713620Y-38385012D01*
X157413266Y-37935501D01*
X156963755Y-37635147D01*
X156433520Y-37529677D01*
X155903285Y-37635147D01*
X155453774Y-37935501D01*
X155153420Y-38385012D01*
X155151570Y-38394312D01*
X155125019Y-38304603D01*
X154783464Y-37882622D01*
X154306423Y-37623470D01*
X154234795Y-37609287D01*
X154020520Y-37731941D01*
X154020520Y-39324280D01*
X154040520Y-39324280D01*
X154040520Y-39578280D01*
X154020520Y-39578280D01*
X154020520Y-41170619D01*
X154234795Y-41293273D01*
X154306423Y-41279090D01*
X154783464Y-41019938D01*
X155125019Y-40597957D01*
X155151570Y-40508247D01*
X155153420Y-40517548D01*
X155453774Y-40967059D01*
X155903285Y-41267413D01*
X156433520Y-41372883D01*
X156963755Y-41267413D01*
X157413266Y-40967059D01*
X157713620Y-40517548D01*
X157819090Y-39987313D01*
X157819090Y-64015000D01*
X157773691Y-64015000D01*
X157535370Y-64015000D01*
X157535370Y-53980177D01*
X156983180Y-52643775D01*
X155961603Y-51620414D01*
X154626166Y-51065892D01*
X153766520Y-51065141D01*
X153766520Y-41170619D01*
X153766520Y-39578280D01*
X153746520Y-39578280D01*
X153746520Y-39324280D01*
X153766520Y-39324280D01*
X153766520Y-37731941D01*
X153552245Y-37609287D01*
X153480617Y-37623470D01*
X153003576Y-37882622D01*
X152662021Y-38304603D01*
X152635469Y-38394312D01*
X152633620Y-38385012D01*
X152333266Y-37935501D01*
X151883755Y-37635147D01*
X151353520Y-37529677D01*
X150823285Y-37635147D01*
X150373774Y-37935501D01*
X150073420Y-38385012D01*
X149967950Y-38915247D01*
X149967950Y-39987313D01*
X150073420Y-40517548D01*
X150373774Y-40967059D01*
X150823285Y-41267413D01*
X151353520Y-41372883D01*
X151883755Y-41267413D01*
X152333266Y-40967059D01*
X152633620Y-40517548D01*
X152635469Y-40508247D01*
X152662021Y-40597957D01*
X153003576Y-41019938D01*
X153480617Y-41279090D01*
X153552245Y-41293273D01*
X153766520Y-41170619D01*
X153766520Y-51065141D01*
X153180177Y-51064630D01*
X151843775Y-51616820D01*
X151779687Y-51680796D01*
X151779687Y-47786216D01*
X151615689Y-47389311D01*
X151312286Y-47085378D01*
X150915668Y-46920687D01*
X150486216Y-46920313D01*
X150089311Y-47084311D01*
X149785378Y-47387714D01*
X149620687Y-47784332D01*
X149620575Y-47911991D01*
X148779687Y-48752879D01*
X148779687Y-42886216D01*
X148615689Y-42489311D01*
X148312286Y-42185378D01*
X147915668Y-42020687D01*
X147486216Y-42020313D01*
X147089311Y-42184311D01*
X146998964Y-42274500D01*
X142901252Y-42274500D01*
X142812286Y-42185378D01*
X142415668Y-42020687D01*
X141986216Y-42020313D01*
X141589311Y-42184311D01*
X141385473Y-42387793D01*
X141385473Y-38927664D01*
X141023134Y-38050737D01*
X140352792Y-37379224D01*
X139476499Y-37015355D01*
X138527664Y-37014527D01*
X137650737Y-37376866D01*
X136979224Y-38047208D01*
X136615355Y-38923501D01*
X136614527Y-39872336D01*
X136976866Y-40749263D01*
X137647208Y-41420776D01*
X138523501Y-41784645D01*
X139472336Y-41785473D01*
X140349263Y-41423134D01*
X141020776Y-40752792D01*
X141384645Y-39876499D01*
X141385473Y-38927664D01*
X141385473Y-42387793D01*
X141285378Y-42487714D01*
X141120687Y-42884332D01*
X141120313Y-43313784D01*
X141284311Y-43710689D01*
X141587714Y-44014622D01*
X141984332Y-44179313D01*
X142413784Y-44179687D01*
X142810689Y-44015689D01*
X142901035Y-43925500D01*
X146998747Y-43925500D01*
X147087714Y-44014622D01*
X147484332Y-44179313D01*
X147913784Y-44179687D01*
X148310689Y-44015689D01*
X148614622Y-43712286D01*
X148779313Y-43315668D01*
X148779687Y-42886216D01*
X148779687Y-48752879D01*
X147358066Y-50174500D01*
X140009144Y-50174500D01*
X140009144Y-46127698D01*
X139981362Y-45572632D01*
X139822397Y-45188857D01*
X139580213Y-45119392D01*
X139400608Y-45298997D01*
X139400608Y-44939787D01*
X139331143Y-44697603D01*
X138807698Y-44510856D01*
X138252632Y-44538638D01*
X137868857Y-44697603D01*
X137799392Y-44939787D01*
X138600000Y-45740395D01*
X139400608Y-44939787D01*
X139400608Y-45298997D01*
X138779605Y-45920000D01*
X139580213Y-46720608D01*
X139822397Y-46651143D01*
X140009144Y-46127698D01*
X140009144Y-50174500D01*
X139749874Y-50174500D01*
X139392370Y-49816371D01*
X139184487Y-49730050D01*
X139390303Y-49645010D01*
X139783629Y-49252370D01*
X139996757Y-48739100D01*
X139997242Y-48183339D01*
X139785010Y-47669697D01*
X139392370Y-47276371D01*
X139200272Y-47196605D01*
X139331143Y-47142397D01*
X139400608Y-46900213D01*
X138600000Y-46099605D01*
X138420395Y-46279210D01*
X138420395Y-45920000D01*
X137619787Y-45119392D01*
X137377603Y-45188857D01*
X137190856Y-45712302D01*
X137218638Y-46267368D01*
X137377603Y-46651143D01*
X137619787Y-46720608D01*
X138420395Y-45920000D01*
X138420395Y-46279210D01*
X137799392Y-46900213D01*
X137868857Y-47142397D01*
X138009317Y-47192508D01*
X137809697Y-47274990D01*
X137416371Y-47667630D01*
X137203243Y-48180900D01*
X137202758Y-48736661D01*
X137414990Y-49250303D01*
X137807630Y-49643629D01*
X138015512Y-49729949D01*
X137809697Y-49814990D01*
X137416371Y-50207630D01*
X137203243Y-50720900D01*
X137202758Y-51276661D01*
X137414990Y-51790303D01*
X137807630Y-52183629D01*
X138320900Y-52396757D01*
X138876661Y-52397242D01*
X139390303Y-52185010D01*
X139750441Y-51825500D01*
X147700000Y-51825500D01*
X148015905Y-51762663D01*
X148015906Y-51762663D01*
X148283717Y-51583717D01*
X150787855Y-49079577D01*
X150913784Y-49079687D01*
X151310689Y-48915689D01*
X151614622Y-48612286D01*
X151779313Y-48215668D01*
X151779687Y-47786216D01*
X151779687Y-51680796D01*
X150820414Y-52638397D01*
X150265892Y-53973834D01*
X150264630Y-55419823D01*
X150816820Y-56756225D01*
X151838397Y-57779586D01*
X153173834Y-58334108D01*
X154619823Y-58335370D01*
X155956225Y-57783180D01*
X156979586Y-56761603D01*
X157534108Y-55426166D01*
X157535370Y-53980177D01*
X157535370Y-64015000D01*
X157342630Y-64015000D01*
X156438815Y-63111185D01*
X156191605Y-62946004D01*
X155900000Y-62888000D01*
X154924706Y-62888000D01*
X155079313Y-62515668D01*
X155079687Y-62086216D01*
X154915689Y-61689311D01*
X154612286Y-61385378D01*
X154215668Y-61220687D01*
X153786216Y-61220313D01*
X153389311Y-61384311D01*
X153085378Y-61687714D01*
X152920687Y-62084332D01*
X152920313Y-62513784D01*
X153074936Y-62888000D01*
X152600000Y-62888000D01*
X152536025Y-62888000D01*
X152409699Y-62761673D01*
X152176310Y-62665000D01*
X151923691Y-62665000D01*
X150623691Y-62665000D01*
X150390302Y-62761673D01*
X150233596Y-62918377D01*
X150003159Y-62840746D01*
X149102605Y-63741300D01*
X150003159Y-64641854D01*
X150259643Y-64555448D01*
X150299227Y-64447252D01*
X150390301Y-64538327D01*
X150539193Y-64600000D01*
X150390302Y-64661673D01*
X150211673Y-64840301D01*
X150115000Y-65073690D01*
X150115000Y-65138000D01*
X149592157Y-65138000D01*
X149737148Y-65077943D01*
X149823554Y-64821459D01*
X148923000Y-63920905D01*
X148022446Y-64821459D01*
X148108852Y-65077943D01*
X148273004Y-65138000D01*
X147224325Y-65138000D01*
X147361327Y-65000999D01*
X147458000Y-64767610D01*
X147458000Y-64514991D01*
X147458000Y-64245567D01*
X147586357Y-64555448D01*
X147842841Y-64641854D01*
X148743395Y-63741300D01*
X147842841Y-62840746D01*
X147586357Y-62927152D01*
X147458000Y-63277988D01*
X147458000Y-62714991D01*
X147361327Y-62481602D01*
X147182699Y-62302973D01*
X147076325Y-62258911D01*
X147223551Y-62111943D01*
X147423202Y-61631128D01*
X147620932Y-62109671D01*
X148052357Y-62541851D01*
X148061372Y-62545594D01*
X148022446Y-62661141D01*
X148923000Y-63561695D01*
X149823554Y-62661141D01*
X149784793Y-62546085D01*
X149791371Y-62543368D01*
X150223551Y-62111943D01*
X150457733Y-61547970D01*
X150458265Y-60937309D01*
X150225068Y-60372929D01*
X149843818Y-59991012D01*
X150223551Y-59611943D01*
X150457733Y-59047970D01*
X150458265Y-58437309D01*
X150225068Y-57872929D01*
X149793643Y-57440749D01*
X149229670Y-57206567D01*
X148619009Y-57206035D01*
X148054629Y-57439232D01*
X147622449Y-57870657D01*
X147422797Y-58351471D01*
X147225068Y-57872929D01*
X146793643Y-57440749D01*
X146229670Y-57206567D01*
X145619009Y-57206035D01*
X145054629Y-57439232D01*
X144622449Y-57870657D01*
X144388267Y-58434630D01*
X144387735Y-59045291D01*
X144467360Y-59238000D01*
X144003794Y-59238000D01*
X143963327Y-59140302D01*
X143823025Y-59000000D01*
X143963327Y-58859698D01*
X144060000Y-58626309D01*
X144060000Y-58285750D01*
X144060000Y-57714250D01*
X144060000Y-57373691D01*
X143963327Y-57140302D01*
X143784699Y-56961673D01*
X143551310Y-56865000D01*
X143298691Y-56865000D01*
X143085750Y-56865000D01*
X142927000Y-57023750D01*
X142927000Y-57873000D01*
X143901250Y-57873000D01*
X144060000Y-57714250D01*
X144060000Y-58285750D01*
X143901250Y-58127000D01*
X142927000Y-58127000D01*
X142927000Y-58147000D01*
X142673000Y-58147000D01*
X142673000Y-58127000D01*
X142673000Y-57873000D01*
X142673000Y-57023750D01*
X142514250Y-56865000D01*
X142301309Y-56865000D01*
X142048690Y-56865000D01*
X141815301Y-56961673D01*
X141636673Y-57140302D01*
X141540000Y-57373691D01*
X141540000Y-57714250D01*
X141698750Y-57873000D01*
X142673000Y-57873000D01*
X142673000Y-58127000D01*
X141698750Y-58127000D01*
X141540000Y-58285750D01*
X141540000Y-58626309D01*
X141636673Y-58859698D01*
X141776974Y-59000000D01*
X141636673Y-59140301D01*
X141540000Y-59373690D01*
X141540000Y-59626309D01*
X141540000Y-60626309D01*
X141599445Y-60769821D01*
X141515000Y-60973690D01*
X141515000Y-61226309D01*
X141515000Y-61926309D01*
X141611673Y-62159698D01*
X141790301Y-62338327D01*
X141939193Y-62400000D01*
X141790302Y-62461673D01*
X141611673Y-62640301D01*
X141515000Y-62873690D01*
X141515000Y-63126309D01*
X141515000Y-63214262D01*
X141488000Y-63350000D01*
X141515000Y-63485737D01*
X141515000Y-63826309D01*
X141611673Y-64059698D01*
X141662974Y-64111000D01*
X138489000Y-64111000D01*
X138489000Y-57400000D01*
X138421329Y-57059794D01*
X138228618Y-56771382D01*
X137940206Y-56578671D01*
X137679390Y-56526791D01*
X137679687Y-56186216D01*
X137515689Y-55789311D01*
X137212286Y-55485378D01*
X136815668Y-55320687D01*
X136386216Y-55320313D01*
X135989311Y-55484311D01*
X135894256Y-55579200D01*
X135000000Y-55579200D01*
X134857943Y-55579200D01*
X134861278Y-54585204D01*
X134934852Y-54407583D01*
X134934853Y-54407582D01*
X135007167Y-54044033D01*
X135007166Y-54030503D01*
X135019560Y-53968200D01*
X135019560Y-53282038D01*
X135032857Y-53262138D01*
X135085000Y-53000000D01*
X135085000Y-35685000D01*
X193715000Y-35685000D01*
X193715000Y-58542498D01*
X193152758Y-57979274D01*
X192276487Y-57615415D01*
X191985473Y-57615161D01*
X191985473Y-39127664D01*
X191623134Y-38250737D01*
X190952792Y-37579224D01*
X190076499Y-37215355D01*
X189127664Y-37214527D01*
X188250737Y-37576866D01*
X187579224Y-38247208D01*
X187215355Y-39123501D01*
X187214527Y-40072336D01*
X187576866Y-40949263D01*
X188247208Y-41620776D01*
X189123501Y-41984645D01*
X190072336Y-41985473D01*
X190949263Y-41623134D01*
X191620776Y-40952792D01*
X191984645Y-40076499D01*
X191985473Y-39127664D01*
X191985473Y-57615161D01*
X191534234Y-57614767D01*
X191534234Y-44476306D01*
X191285922Y-43875345D01*
X190826533Y-43415154D01*
X190226007Y-43165794D01*
X189575766Y-43165226D01*
X188974805Y-43413538D01*
X188514614Y-43872927D01*
X188265254Y-44473453D01*
X188264686Y-45123694D01*
X188512998Y-45724655D01*
X188972387Y-46184846D01*
X189572913Y-46434206D01*
X190223154Y-46434774D01*
X190824115Y-46186462D01*
X191284306Y-45727073D01*
X191533666Y-45126547D01*
X191534234Y-44476306D01*
X191534234Y-57614767D01*
X191327675Y-57614587D01*
X190450771Y-57976916D01*
X189779274Y-58647242D01*
X189679687Y-58887074D01*
X189679687Y-58086216D01*
X189515689Y-57689311D01*
X189212286Y-57385378D01*
X188815668Y-57220687D01*
X188598128Y-57220497D01*
X187220427Y-55842797D01*
X187115689Y-55589311D01*
X186812286Y-55285378D01*
X186415668Y-55120687D01*
X185986216Y-55120313D01*
X185589311Y-55284311D01*
X185285378Y-55587714D01*
X185120687Y-55984332D01*
X185120313Y-56413784D01*
X185284311Y-56810689D01*
X185587714Y-57114622D01*
X185984332Y-57279313D01*
X186413784Y-57279687D01*
X186476247Y-57253877D01*
X187520500Y-58298131D01*
X187520313Y-58513784D01*
X187684311Y-58910689D01*
X187987714Y-59214622D01*
X188384332Y-59379313D01*
X188813784Y-59379687D01*
X189210689Y-59215689D01*
X189514622Y-58912286D01*
X189679313Y-58515668D01*
X189679687Y-58086216D01*
X189679687Y-58887074D01*
X189415415Y-59523513D01*
X189414587Y-60472325D01*
X189776916Y-61349229D01*
X190447242Y-62020726D01*
X191323513Y-62384585D01*
X192272325Y-62385413D01*
X193149229Y-62023084D01*
X193715000Y-61458299D01*
X193715000Y-66142498D01*
X193152758Y-65579274D01*
X192276487Y-65215415D01*
X191327675Y-65214587D01*
X190450771Y-65576916D01*
X189779274Y-66247242D01*
X189415415Y-67123513D01*
X189414587Y-68072325D01*
X189776916Y-68949229D01*
X190447242Y-69620726D01*
X191323513Y-69984585D01*
X192272325Y-69985413D01*
X193149229Y-69623084D01*
X193715000Y-69058299D01*
X193715000Y-78512971D01*
X193514965Y-78030042D01*
X193248163Y-77931443D01*
X193068557Y-78111048D01*
X193068557Y-77751837D01*
X192969958Y-77485035D01*
X192360418Y-77258599D01*
X191710623Y-77282659D01*
X191222042Y-77485035D01*
X191123443Y-77751837D01*
X192096000Y-78724395D01*
X193068557Y-77751837D01*
X193068557Y-78111048D01*
X192275605Y-78904000D01*
X193248163Y-79876557D01*
X193514965Y-79777958D01*
X193715000Y-79239486D01*
X193715000Y-94015000D01*
X193715000Y-94015000D01*
G37*
X193715000Y-94015000D02*
X193068557Y-94015000D01*
X193068557Y-80056163D01*
X192096000Y-79083605D01*
X191916395Y-79263210D01*
X191916395Y-78904000D01*
X190943837Y-77931443D01*
X190677035Y-78030042D01*
X190450599Y-78639582D01*
X190474659Y-79289377D01*
X190677035Y-79777958D01*
X190943837Y-79876557D01*
X191916395Y-78904000D01*
X191916395Y-79263210D01*
X191123443Y-80056163D01*
X191222042Y-80322965D01*
X191831582Y-80549401D01*
X192481377Y-80525341D01*
X192969958Y-80322965D01*
X193068557Y-80056163D01*
X193068557Y-94015000D01*
X192185473Y-94015000D01*
X192185473Y-90127664D01*
X191823134Y-89250737D01*
X191152792Y-88579224D01*
X190276499Y-88215355D01*
X189327664Y-88214527D01*
X188460000Y-88573038D01*
X188460000Y-85226309D01*
X188460000Y-84885750D01*
X188301250Y-84727000D01*
X187327000Y-84727000D01*
X187327000Y-85576250D01*
X187485750Y-85735000D01*
X187698691Y-85735000D01*
X187951310Y-85735000D01*
X188184699Y-85638327D01*
X188363327Y-85459698D01*
X188460000Y-85226309D01*
X188460000Y-88573038D01*
X188450737Y-88576866D01*
X187779224Y-89247208D01*
X187415355Y-90123501D01*
X187414527Y-91072336D01*
X187776866Y-91949263D01*
X188447208Y-92620776D01*
X189323501Y-92984645D01*
X190272336Y-92985473D01*
X191149263Y-92623134D01*
X191820776Y-91952792D01*
X192184645Y-91076499D01*
X192185473Y-90127664D01*
X192185473Y-94015000D01*
X187073000Y-94015000D01*
X187073000Y-85576250D01*
X187073000Y-84727000D01*
X186098750Y-84727000D01*
X185940000Y-84885750D01*
X185940000Y-85226309D01*
X186036673Y-85459698D01*
X186215301Y-85638327D01*
X186448690Y-85735000D01*
X186701309Y-85735000D01*
X186914250Y-85735000D01*
X187073000Y-85576250D01*
X187073000Y-94015000D01*
X178592576Y-94015000D01*
X178788846Y-93819073D01*
X179038206Y-93218547D01*
X179038696Y-92657355D01*
X183898026Y-87798026D01*
X184173327Y-87386008D01*
X184270000Y-86900000D01*
X184270000Y-84800000D01*
X184260000Y-84749726D01*
X184260000Y-84173691D01*
X184163327Y-83940302D01*
X184023025Y-83799999D01*
X184163327Y-83659699D01*
X184260000Y-83426310D01*
X184260000Y-83173691D01*
X184260000Y-82850273D01*
X184270000Y-82800000D01*
X184270000Y-80494030D01*
X184520655Y-80390462D01*
X184980846Y-79931073D01*
X185072576Y-79710160D01*
X185121538Y-79828655D01*
X185580927Y-80288846D01*
X185930000Y-80433793D01*
X185930000Y-82600000D01*
X185940000Y-82650273D01*
X185940000Y-83226309D01*
X186036673Y-83459698D01*
X186176974Y-83600000D01*
X186036673Y-83740302D01*
X185940000Y-83973691D01*
X185940000Y-84314250D01*
X186098750Y-84473000D01*
X187073000Y-84473000D01*
X187073000Y-84453000D01*
X187327000Y-84453000D01*
X187327000Y-84473000D01*
X188301250Y-84473000D01*
X188460000Y-84314250D01*
X188460000Y-83973691D01*
X188363327Y-83740302D01*
X188223025Y-83599999D01*
X188363327Y-83459699D01*
X188460000Y-83226310D01*
X188460000Y-82973691D01*
X188460000Y-82650273D01*
X188470000Y-82600000D01*
X188470000Y-79596000D01*
X188373327Y-79109992D01*
X188142612Y-78764703D01*
X188142774Y-78580306D01*
X187894462Y-77979345D01*
X187435073Y-77519154D01*
X186834547Y-77269794D01*
X186184306Y-77269226D01*
X185635284Y-77496077D01*
X185635284Y-63476205D01*
X185386894Y-62875057D01*
X184935314Y-62422686D01*
X184935314Y-44476306D01*
X184687002Y-43875345D01*
X184227613Y-43415154D01*
X183627087Y-43165794D01*
X182976846Y-43165226D01*
X182375885Y-43413538D01*
X181941165Y-43847500D01*
X181070525Y-43847500D01*
X180984699Y-43761673D01*
X180751310Y-43665000D01*
X180498691Y-43665000D01*
X179248691Y-43665000D01*
X179015302Y-43761673D01*
X178929474Y-43847500D01*
X177670525Y-43847500D01*
X177584699Y-43761673D01*
X177351310Y-43665000D01*
X177098691Y-43665000D01*
X175848691Y-43665000D01*
X175615302Y-43761673D01*
X175529474Y-43847500D01*
X174670525Y-43847500D01*
X174584699Y-43761673D01*
X174351310Y-43665000D01*
X174098691Y-43665000D01*
X172848691Y-43665000D01*
X172615302Y-43761673D01*
X172529474Y-43847500D01*
X172045525Y-43847500D01*
X171959699Y-43761673D01*
X171726310Y-43665000D01*
X171473691Y-43665000D01*
X169873691Y-43665000D01*
X169640302Y-43761673D01*
X169503874Y-43898100D01*
X168994538Y-43898100D01*
X165163907Y-40067469D01*
X165366368Y-39579890D01*
X165367030Y-38822035D01*
X165077622Y-38121614D01*
X164542205Y-37585261D01*
X163842290Y-37294632D01*
X163084435Y-37293970D01*
X162384014Y-37583378D01*
X161847661Y-38118795D01*
X161557032Y-38818710D01*
X161556370Y-39576565D01*
X161845778Y-40276986D01*
X162381195Y-40813339D01*
X163081110Y-41103968D01*
X163506701Y-41104339D01*
X167664981Y-45262619D01*
X167926481Y-45524120D01*
X168111721Y-45647892D01*
X168235494Y-45730595D01*
X168235495Y-45730595D01*
X168600000Y-45803100D01*
X169605074Y-45803100D01*
X169640301Y-45838327D01*
X169873690Y-45935000D01*
X170126309Y-45935000D01*
X171726309Y-45935000D01*
X171959698Y-45838327D01*
X172045525Y-45752500D01*
X172529474Y-45752500D01*
X172576974Y-45800000D01*
X172436673Y-45940302D01*
X172340000Y-46173691D01*
X172340000Y-46514250D01*
X172498750Y-46673000D01*
X173473000Y-46673000D01*
X173473000Y-46653000D01*
X173727000Y-46653000D01*
X173727000Y-46673000D01*
X174701250Y-46673000D01*
X174860000Y-46514250D01*
X174860000Y-46173691D01*
X174763327Y-45940302D01*
X174623025Y-45799999D01*
X174670525Y-45752500D01*
X175529474Y-45752500D01*
X175576974Y-45800000D01*
X175436673Y-45940302D01*
X175340000Y-46173691D01*
X175340000Y-46514250D01*
X175498750Y-46673000D01*
X176473000Y-46673000D01*
X176473000Y-46653000D01*
X176727000Y-46653000D01*
X176727000Y-46673000D01*
X177701250Y-46673000D01*
X177860000Y-46514250D01*
X177860000Y-46173691D01*
X177763327Y-45940302D01*
X177623025Y-45799999D01*
X177670525Y-45752500D01*
X178929474Y-45752500D01*
X178976974Y-45800000D01*
X178836673Y-45940302D01*
X178740000Y-46173691D01*
X178740000Y-46514250D01*
X178898750Y-46673000D01*
X179873000Y-46673000D01*
X179873000Y-46653000D01*
X180127000Y-46653000D01*
X180127000Y-46673000D01*
X181101250Y-46673000D01*
X181260000Y-46514250D01*
X181260000Y-46173691D01*
X181163327Y-45940302D01*
X181023025Y-45799999D01*
X181070525Y-45752500D01*
X181941874Y-45752500D01*
X182373467Y-46184846D01*
X182973993Y-46434206D01*
X183624234Y-46434774D01*
X184225195Y-46186462D01*
X184685386Y-45727073D01*
X184934746Y-45126547D01*
X184935314Y-44476306D01*
X184935314Y-62422686D01*
X184927363Y-62414722D01*
X184326648Y-62165284D01*
X183676205Y-62164716D01*
X183075057Y-62413106D01*
X182614722Y-62872637D01*
X182365284Y-63473352D01*
X182364716Y-64123795D01*
X182613106Y-64724943D01*
X183072637Y-65185278D01*
X183673352Y-65434716D01*
X184323795Y-65435284D01*
X184924943Y-65186894D01*
X185385278Y-64727363D01*
X185634716Y-64126648D01*
X185635284Y-63476205D01*
X185635284Y-77496077D01*
X185583345Y-77517538D01*
X185123154Y-77976927D01*
X185031423Y-78197839D01*
X184982462Y-78079345D01*
X184523073Y-77619154D01*
X183922547Y-77369794D01*
X183272306Y-77369226D01*
X182671345Y-77617538D01*
X182211154Y-78076927D01*
X181961794Y-78677453D01*
X181961589Y-78912075D01*
X181826673Y-79113992D01*
X181730000Y-79600000D01*
X181730000Y-82800000D01*
X181740000Y-82850273D01*
X181740000Y-83426309D01*
X181836673Y-83659698D01*
X181976974Y-83800000D01*
X181836673Y-83940301D01*
X181740000Y-84173690D01*
X181740000Y-84426309D01*
X181740000Y-84749726D01*
X181730000Y-84800000D01*
X181730000Y-86373948D01*
X181324968Y-86778979D01*
X181324968Y-69829027D01*
X181204469Y-69597000D01*
X179997000Y-69597000D01*
X179997000Y-70803817D01*
X180229026Y-70924958D01*
X180644947Y-70752688D01*
X181076821Y-70358490D01*
X181324968Y-69829027D01*
X181324968Y-86778979D01*
X179038774Y-89065173D01*
X179038774Y-86980306D01*
X178790462Y-86379345D01*
X178331073Y-85919154D01*
X177730547Y-85669794D01*
X177080306Y-85669226D01*
X176479345Y-85917538D01*
X176019154Y-86376927D01*
X175769794Y-86977453D01*
X175769226Y-87627694D01*
X176017538Y-88228655D01*
X176476927Y-88688846D01*
X177077453Y-88938206D01*
X177727694Y-88938774D01*
X178328655Y-88690462D01*
X178788846Y-88231073D01*
X179038206Y-87630547D01*
X179038774Y-86980306D01*
X179038774Y-89065173D01*
X176682247Y-91421700D01*
X176479345Y-91505538D01*
X176019154Y-91964927D01*
X175769794Y-92565453D01*
X175769226Y-93215694D01*
X176017538Y-93816655D01*
X176215537Y-94015000D01*
X169060000Y-94015000D01*
X169060000Y-91626309D01*
X169060000Y-91285750D01*
X168901250Y-91127000D01*
X167927000Y-91127000D01*
X167927000Y-91976250D01*
X168085750Y-92135000D01*
X168298691Y-92135000D01*
X168551310Y-92135000D01*
X168784699Y-92038327D01*
X168963327Y-91859698D01*
X169060000Y-91626309D01*
X169060000Y-94015000D01*
X167673000Y-94015000D01*
X167673000Y-91976250D01*
X167673000Y-91127000D01*
X166698750Y-91127000D01*
X166540000Y-91285750D01*
X166540000Y-91626309D01*
X166636673Y-91859698D01*
X166815301Y-92038327D01*
X167048690Y-92135000D01*
X167301309Y-92135000D01*
X167514250Y-92135000D01*
X167673000Y-91976250D01*
X167673000Y-94015000D01*
X164693084Y-94015000D01*
X164814965Y-93969958D01*
X165041401Y-93360418D01*
X165017341Y-92710623D01*
X164814965Y-92222042D01*
X164548163Y-92123443D01*
X164368557Y-92303048D01*
X164368557Y-91943837D01*
X164269958Y-91677035D01*
X163660418Y-91450599D01*
X163010623Y-91474659D01*
X162522042Y-91677035D01*
X162423443Y-91943837D01*
X163396000Y-92916395D01*
X164368557Y-91943837D01*
X164368557Y-92303048D01*
X163575605Y-93096000D01*
X163589747Y-93110142D01*
X163410142Y-93289747D01*
X163396000Y-93275605D01*
X163381857Y-93289747D01*
X163202252Y-93110142D01*
X163216395Y-93096000D01*
X162243837Y-92123443D01*
X161977035Y-92222042D01*
X161750599Y-92831582D01*
X161774659Y-93481377D01*
X161977035Y-93969958D01*
X162098915Y-94015000D01*
X160360000Y-94015000D01*
X160360000Y-91326309D01*
X160360000Y-90985750D01*
X160201250Y-90827000D01*
X159227000Y-90827000D01*
X159227000Y-91676250D01*
X159385750Y-91835000D01*
X159598691Y-91835000D01*
X159851310Y-91835000D01*
X160084699Y-91738327D01*
X160263327Y-91559698D01*
X160360000Y-91326309D01*
X160360000Y-94015000D01*
X158973000Y-94015000D01*
X158973000Y-91676250D01*
X158973000Y-90827000D01*
X157998750Y-90827000D01*
X157840000Y-90985750D01*
X157840000Y-91326309D01*
X157936673Y-91559698D01*
X158115301Y-91738327D01*
X158348690Y-91835000D01*
X158601309Y-91835000D01*
X158814250Y-91835000D01*
X158973000Y-91676250D01*
X158973000Y-94015000D01*
X154838774Y-94015000D01*
X154838774Y-79472306D01*
X154590462Y-78871345D01*
X154131073Y-78411154D01*
X153530547Y-78161794D01*
X152880306Y-78161226D01*
X152279345Y-78409538D01*
X151819154Y-78868927D01*
X151809899Y-78891214D01*
X151648163Y-78831443D01*
X151468557Y-79011048D01*
X151468557Y-78651837D01*
X151369958Y-78385035D01*
X150760418Y-78158599D01*
X150110623Y-78182659D01*
X149622042Y-78385035D01*
X149523443Y-78651837D01*
X150496000Y-79624395D01*
X151468557Y-78651837D01*
X151468557Y-79011048D01*
X150675605Y-79804000D01*
X150689747Y-79818142D01*
X150510142Y-79997747D01*
X150496000Y-79983605D01*
X150481857Y-79997747D01*
X150302252Y-79818142D01*
X150316395Y-79804000D01*
X149343837Y-78831443D01*
X149077035Y-78930042D01*
X148850599Y-79539582D01*
X148858864Y-79762812D01*
X147998026Y-78901974D01*
X147586008Y-78626673D01*
X147100000Y-78529999D01*
X147079885Y-78534000D01*
X145949718Y-78534000D01*
X145835073Y-78419154D01*
X145234547Y-78169794D01*
X144584306Y-78169226D01*
X143983345Y-78417538D01*
X143523154Y-78876927D01*
X143404180Y-79163446D01*
X142918547Y-78961794D01*
X142346000Y-78961293D01*
X142346000Y-76742310D01*
X142346000Y-76489691D01*
X142346000Y-74457691D01*
X142249327Y-74224302D01*
X142070699Y-74045673D01*
X141837310Y-73949000D01*
X141584691Y-73949000D01*
X140060691Y-73949000D01*
X139827302Y-74045673D01*
X139648673Y-74224301D01*
X139552000Y-74457690D01*
X139552000Y-74710309D01*
X139552000Y-74838000D01*
X138012250Y-74838000D01*
X137901250Y-74727000D01*
X136927000Y-74727000D01*
X136927000Y-74747000D01*
X136673000Y-74747000D01*
X136673000Y-74727000D01*
X135698750Y-74727000D01*
X135540000Y-74885750D01*
X135540000Y-75226309D01*
X135636673Y-75459698D01*
X135815301Y-75638327D01*
X136048690Y-75735000D01*
X136301309Y-75735000D01*
X136514250Y-75735000D01*
X136560288Y-75688961D01*
X136520687Y-75784332D01*
X136520313Y-76213784D01*
X136684311Y-76610689D01*
X136987714Y-76914622D01*
X137384332Y-77079313D01*
X137813784Y-77079687D01*
X138210689Y-76915689D01*
X138514622Y-76612286D01*
X138618550Y-76362000D01*
X139552000Y-76362000D01*
X139552000Y-76742309D01*
X139648673Y-76975698D01*
X139827301Y-77154327D01*
X140060690Y-77251000D01*
X140313309Y-77251000D01*
X141837309Y-77251000D01*
X142070698Y-77154327D01*
X142249327Y-76975699D01*
X142346000Y-76742310D01*
X142346000Y-78961293D01*
X142268306Y-78961226D01*
X141667345Y-79209538D01*
X141207154Y-79668927D01*
X140957794Y-80269453D01*
X140957226Y-80919694D01*
X141205538Y-81520655D01*
X141664927Y-81980846D01*
X142265453Y-82230206D01*
X142915694Y-82230774D01*
X143516655Y-81982462D01*
X143633320Y-81866000D01*
X144115994Y-81866000D01*
X144116000Y-81866001D01*
X144116000Y-81866000D01*
X144602008Y-81769327D01*
X144886910Y-81578962D01*
X144930000Y-81622052D01*
X144930000Y-82100000D01*
X144940000Y-82150273D01*
X144940000Y-82726309D01*
X145036673Y-82959698D01*
X145176974Y-83100000D01*
X145036673Y-83240302D01*
X144940000Y-83473691D01*
X144940000Y-83814250D01*
X145098750Y-83973000D01*
X146073000Y-83973000D01*
X146073000Y-83953000D01*
X146327000Y-83953000D01*
X146327000Y-83973000D01*
X147301250Y-83973000D01*
X147411259Y-83862990D01*
X147461673Y-83984698D01*
X147640301Y-84163327D01*
X147873690Y-84260000D01*
X148126309Y-84260000D01*
X148449726Y-84260000D01*
X148500000Y-84270000D01*
X148550273Y-84260000D01*
X149126309Y-84260000D01*
X149359698Y-84163327D01*
X149500000Y-84023025D01*
X149640301Y-84163327D01*
X149873690Y-84260000D01*
X150126309Y-84260000D01*
X150449726Y-84260000D01*
X150500000Y-84270000D01*
X151299994Y-84270000D01*
X151300000Y-84270001D01*
X151300000Y-84270000D01*
X151786008Y-84173327D01*
X152198026Y-83898026D01*
X154102022Y-81994028D01*
X154102026Y-81994026D01*
X154102026Y-81994025D01*
X154377327Y-81582008D01*
X154474000Y-81096000D01*
X154474001Y-81096000D01*
X154474000Y-81095994D01*
X154474000Y-80837718D01*
X154588846Y-80723073D01*
X154838206Y-80122547D01*
X154838774Y-79472306D01*
X154838774Y-94015000D01*
X151035381Y-94015000D01*
X151241401Y-93460418D01*
X151230774Y-93173411D01*
X151230774Y-87284306D01*
X150982462Y-86683345D01*
X150523073Y-86223154D01*
X149922547Y-85973794D01*
X149272306Y-85973226D01*
X148671345Y-86221538D01*
X148211154Y-86680927D01*
X147961794Y-87281453D01*
X147961751Y-87330000D01*
X147460000Y-87330000D01*
X147460000Y-84726309D01*
X147460000Y-84385750D01*
X147301250Y-84227000D01*
X146327000Y-84227000D01*
X146327000Y-85076250D01*
X146485750Y-85235000D01*
X146698691Y-85235000D01*
X146951310Y-85235000D01*
X147184699Y-85138327D01*
X147363327Y-84959698D01*
X147460000Y-84726309D01*
X147460000Y-87330000D01*
X146073000Y-87330000D01*
X146073000Y-85076250D01*
X146073000Y-84227000D01*
X145098750Y-84227000D01*
X144940000Y-84385750D01*
X144940000Y-84726309D01*
X145036673Y-84959698D01*
X145215301Y-85138327D01*
X145448690Y-85235000D01*
X145701309Y-85235000D01*
X145914250Y-85235000D01*
X146073000Y-85076250D01*
X146073000Y-87330000D01*
X145000000Y-87330000D01*
X144026051Y-87330000D01*
X143189040Y-86492988D01*
X143173327Y-86413992D01*
X143135000Y-86356631D01*
X143135000Y-86148691D01*
X143038327Y-85915302D01*
X142859699Y-85736673D01*
X142626310Y-85640000D01*
X142373691Y-85640000D01*
X142050273Y-85640000D01*
X142000000Y-85630000D01*
X141949726Y-85640000D01*
X141373691Y-85640000D01*
X141140302Y-85736673D01*
X141089075Y-85787899D01*
X141089074Y-85787899D01*
X140898026Y-85501975D01*
X140898026Y-85501974D01*
X140898022Y-85501971D01*
X138274000Y-82877948D01*
X138274000Y-81637718D01*
X138388846Y-81523073D01*
X138638206Y-80922547D01*
X138638774Y-80272306D01*
X138390462Y-79671345D01*
X137931073Y-79211154D01*
X137330547Y-78961794D01*
X136680306Y-78961226D01*
X136079345Y-79209538D01*
X135619154Y-79668927D01*
X135369794Y-80269453D01*
X135369226Y-80919694D01*
X135617538Y-81520655D01*
X135734000Y-81637320D01*
X135734000Y-83403994D01*
X135733999Y-83404000D01*
X135830673Y-83890008D01*
X136105974Y-84302026D01*
X138736468Y-86932519D01*
X138826673Y-87386008D01*
X138865000Y-87443368D01*
X138865000Y-87651309D01*
X138961673Y-87884698D01*
X139140301Y-88063327D01*
X139373690Y-88160000D01*
X139626309Y-88160000D01*
X139949726Y-88160000D01*
X140000000Y-88170000D01*
X140050273Y-88160000D01*
X140626309Y-88160000D01*
X140859698Y-88063327D01*
X141000000Y-87923025D01*
X141140301Y-88063327D01*
X141186348Y-88082400D01*
X142601971Y-89498022D01*
X142601974Y-89498026D01*
X143013992Y-89773327D01*
X143500000Y-89870000D01*
X143782950Y-89870000D01*
X143740000Y-89973691D01*
X143740000Y-90314250D01*
X143898750Y-90473000D01*
X144873000Y-90473000D01*
X144873000Y-90453000D01*
X145127000Y-90453000D01*
X145127000Y-90473000D01*
X146101250Y-90473000D01*
X146260000Y-90314250D01*
X146260000Y-89973691D01*
X146217049Y-89870000D01*
X148603994Y-89870000D01*
X148604000Y-89870001D01*
X148604000Y-89870000D01*
X149090008Y-89773327D01*
X149502026Y-89498026D01*
X149757419Y-89242632D01*
X149919694Y-89242774D01*
X150520655Y-88994462D01*
X150980846Y-88535073D01*
X151230206Y-87934547D01*
X151230774Y-87284306D01*
X151230774Y-93173411D01*
X151217341Y-92810623D01*
X151014965Y-92322042D01*
X150748163Y-92223443D01*
X150568557Y-92403048D01*
X150568557Y-92043837D01*
X150469958Y-91777035D01*
X149860418Y-91550599D01*
X149210623Y-91574659D01*
X148722042Y-91777035D01*
X148623443Y-92043837D01*
X149596000Y-93016395D01*
X150568557Y-92043837D01*
X150568557Y-92403048D01*
X149775605Y-93196000D01*
X149789747Y-93210142D01*
X149610142Y-93389747D01*
X149596000Y-93375605D01*
X149581857Y-93389747D01*
X149402252Y-93210142D01*
X149416395Y-93196000D01*
X148443837Y-92223443D01*
X148177035Y-92322042D01*
X147950599Y-92931582D01*
X147974659Y-93581377D01*
X148154270Y-94015000D01*
X146260000Y-94015000D01*
X146260000Y-91226309D01*
X146260000Y-90885750D01*
X146101250Y-90727000D01*
X145127000Y-90727000D01*
X145127000Y-91576250D01*
X145285750Y-91735000D01*
X145498691Y-91735000D01*
X145751310Y-91735000D01*
X145984699Y-91638327D01*
X146163327Y-91459698D01*
X146260000Y-91226309D01*
X146260000Y-94015000D01*
X144873000Y-94015000D01*
X144873000Y-91576250D01*
X144873000Y-90727000D01*
X143898750Y-90727000D01*
X143740000Y-90885750D01*
X143740000Y-91226309D01*
X143836673Y-91459698D01*
X144015301Y-91638327D01*
X144248690Y-91735000D01*
X144501309Y-91735000D01*
X144714250Y-91735000D01*
X144873000Y-91576250D01*
X144873000Y-94015000D01*
X141385473Y-94015000D01*
X141385473Y-90127664D01*
X141023134Y-89250737D01*
X140352792Y-88579224D01*
X139476499Y-88215355D01*
X138527664Y-88214527D01*
X137650737Y-88576866D01*
X136979224Y-89247208D01*
X136615355Y-90123501D01*
X136614527Y-91072336D01*
X136976866Y-91949263D01*
X137647208Y-92620776D01*
X138523501Y-92984645D01*
X139472336Y-92985473D01*
X140349263Y-92623134D01*
X141020776Y-91952792D01*
X141384645Y-91076499D01*
X141385473Y-90127664D01*
X141385473Y-94015000D01*
X135085000Y-94015000D01*
X135085000Y-76800000D01*
X135032857Y-76537862D01*
X135019560Y-76517961D01*
X135019560Y-76018200D01*
X135007166Y-75955895D01*
X135007167Y-75892367D01*
X134934853Y-75528818D01*
X134934852Y-75528817D01*
X134838544Y-75296309D01*
X134838543Y-75296308D01*
X134838543Y-75296307D01*
X134792012Y-75226668D01*
X134804976Y-71363313D01*
X135084332Y-71479313D01*
X135513784Y-71479687D01*
X135910689Y-71315689D01*
X136214622Y-71012286D01*
X136379313Y-70615668D01*
X136379687Y-70186216D01*
X136252901Y-69879372D01*
X136613784Y-69879687D01*
X137010689Y-69715689D01*
X137314622Y-69412286D01*
X137385164Y-69242400D01*
X137664806Y-69522042D01*
X137664735Y-69603991D01*
X137897932Y-70168371D01*
X138279181Y-70550287D01*
X137899449Y-70929357D01*
X137665267Y-71493330D01*
X137665250Y-71512195D01*
X137551310Y-71465000D01*
X137298691Y-71465000D01*
X136048691Y-71465000D01*
X135815302Y-71561673D01*
X135636673Y-71740301D01*
X135540000Y-71973690D01*
X135540000Y-72226309D01*
X135540000Y-73226309D01*
X135636673Y-73459698D01*
X135776974Y-73600000D01*
X135636673Y-73740302D01*
X135540000Y-73973691D01*
X135540000Y-74314250D01*
X135698750Y-74473000D01*
X136673000Y-74473000D01*
X136673000Y-74453000D01*
X136927000Y-74453000D01*
X136927000Y-74473000D01*
X137901250Y-74473000D01*
X138060000Y-74314250D01*
X138060000Y-73973691D01*
X137963327Y-73740302D01*
X137823025Y-73599999D01*
X137934025Y-73489000D01*
X138400000Y-73489000D01*
X138740205Y-73421329D01*
X138740206Y-73421329D01*
X138878821Y-73328708D01*
X138893330Y-73334733D01*
X139503991Y-73335265D01*
X140068371Y-73102068D01*
X140500551Y-72670643D01*
X140700202Y-72189828D01*
X140897932Y-72668371D01*
X141329357Y-73100551D01*
X141893330Y-73334733D01*
X142503991Y-73335265D01*
X143068371Y-73102068D01*
X143500551Y-72670643D01*
X143734733Y-72106670D01*
X143735067Y-71722168D01*
X143838000Y-71619236D01*
X143838000Y-72400000D01*
X143838000Y-72500000D01*
X143838000Y-72600000D01*
X143838000Y-73949000D01*
X143362691Y-73949000D01*
X143129302Y-74045673D01*
X142950673Y-74224301D01*
X142854000Y-74457690D01*
X142854000Y-74710309D01*
X142854000Y-76742309D01*
X142950673Y-76975698D01*
X143129301Y-77154327D01*
X143362690Y-77251000D01*
X143615309Y-77251000D01*
X145139309Y-77251000D01*
X145372698Y-77154327D01*
X145551327Y-76975699D01*
X145648000Y-76742310D01*
X145648000Y-76489691D01*
X145648000Y-74457691D01*
X145551327Y-74224302D01*
X145372699Y-74045673D01*
X145362000Y-74041241D01*
X145362000Y-72600000D01*
X145362000Y-72500000D01*
X145362000Y-72400000D01*
X145362000Y-65928612D01*
X145384185Y-65961815D01*
X145861185Y-66438815D01*
X146108395Y-66603996D01*
X146108396Y-66603996D01*
X146400000Y-66662000D01*
X151050000Y-66662000D01*
X151050000Y-66661999D01*
X151341604Y-66603996D01*
X151341605Y-66603996D01*
X151444863Y-66535000D01*
X151444864Y-66535000D01*
X152176309Y-66535000D01*
X152409698Y-66438327D01*
X152499999Y-66348025D01*
X152540301Y-66388327D01*
X152749194Y-66474853D01*
X152620687Y-66784332D01*
X152620313Y-67213784D01*
X152784311Y-67610689D01*
X153087714Y-67914622D01*
X153484332Y-68079313D01*
X153522109Y-68079345D01*
X154668391Y-69225627D01*
X154415668Y-69120687D01*
X153986216Y-69120313D01*
X153589311Y-69284311D01*
X153285378Y-69587714D01*
X153120687Y-69984332D01*
X153120313Y-70413784D01*
X153284311Y-70810689D01*
X153549454Y-71076295D01*
X153527000Y-71098750D01*
X153527000Y-72073000D01*
X153547000Y-72073000D01*
X153547000Y-72327000D01*
X153527000Y-72327000D01*
X153527000Y-73301250D01*
X153685750Y-73460000D01*
X154026309Y-73460000D01*
X154259698Y-73363327D01*
X154400000Y-73223025D01*
X154540301Y-73363327D01*
X154682177Y-73422094D01*
X154696004Y-73491605D01*
X154861185Y-73738815D01*
X154987792Y-73865422D01*
X154893082Y-73904653D01*
X154714453Y-74083281D01*
X154617780Y-74316670D01*
X154617780Y-74569289D01*
X154617780Y-74800449D01*
X154582220Y-74836009D01*
X154582220Y-74816358D01*
X154423472Y-74816358D01*
X154582220Y-74657610D01*
X154582220Y-74569289D01*
X154582220Y-74316670D01*
X154485547Y-74083281D01*
X154306918Y-73904653D01*
X154073529Y-73807980D01*
X153933250Y-73807980D01*
X153774500Y-73966730D01*
X153774500Y-74816360D01*
X153794500Y-74816360D01*
X153794500Y-75070360D01*
X153774500Y-75070360D01*
X153774500Y-75090360D01*
X153520500Y-75090360D01*
X153520500Y-75070360D01*
X153520500Y-74816360D01*
X153520500Y-73966730D01*
X153361750Y-73807980D01*
X153221471Y-73807980D01*
X152988082Y-73904653D01*
X152809453Y-74083281D01*
X152712780Y-74316670D01*
X152712780Y-74569289D01*
X152712780Y-74657610D01*
X152871530Y-74816360D01*
X153520500Y-74816360D01*
X153520500Y-75070360D01*
X152871530Y-75070360D01*
X152712780Y-75229110D01*
X152712780Y-75317431D01*
X152712780Y-75570050D01*
X152782939Y-75739430D01*
X152524361Y-75998008D01*
X152438327Y-75790302D01*
X152312000Y-75663974D01*
X152312000Y-75450000D01*
X152255760Y-75167265D01*
X152363327Y-75059699D01*
X152460000Y-74826310D01*
X152460000Y-74573691D01*
X152460000Y-73573691D01*
X152363327Y-73340302D01*
X152223025Y-73200000D01*
X152325545Y-73097479D01*
X152361673Y-73184699D01*
X152540302Y-73363327D01*
X152773691Y-73460000D01*
X153114250Y-73460000D01*
X153273000Y-73301250D01*
X153273000Y-72327000D01*
X153273000Y-72073000D01*
X153273000Y-71098750D01*
X153114250Y-70940000D01*
X152773691Y-70940000D01*
X152540302Y-71036673D01*
X152361673Y-71215301D01*
X152325545Y-71302520D01*
X152184699Y-71161673D01*
X151951310Y-71065000D01*
X151930500Y-71065000D01*
X151930500Y-70051810D01*
X151930500Y-69799191D01*
X151930500Y-68148191D01*
X151833827Y-67914802D01*
X151655199Y-67736173D01*
X151421810Y-67639500D01*
X151169191Y-67639500D01*
X149518191Y-67639500D01*
X149284802Y-67736173D01*
X149106173Y-67914801D01*
X149009500Y-68148190D01*
X149009500Y-68269940D01*
X148956215Y-68253390D01*
X148776610Y-68432995D01*
X148776610Y-68073785D01*
X148699344Y-67825024D01*
X148152869Y-67627660D01*
X147572465Y-67654447D01*
X147160656Y-67825024D01*
X147083390Y-68073785D01*
X147930000Y-68920395D01*
X148776610Y-68073785D01*
X148776610Y-68432995D01*
X148109605Y-69100000D01*
X148956215Y-69946610D01*
X149009500Y-69930059D01*
X149009500Y-70051809D01*
X149106173Y-70285198D01*
X149284801Y-70463827D01*
X149518190Y-70560500D01*
X149770809Y-70560500D01*
X151421809Y-70560500D01*
X151655198Y-70463827D01*
X151833827Y-70285199D01*
X151930500Y-70051810D01*
X151930500Y-71065000D01*
X151698691Y-71065000D01*
X151485750Y-71065000D01*
X151327000Y-71223750D01*
X151327000Y-72073000D01*
X152301250Y-72073000D01*
X152362500Y-72011750D01*
X152423750Y-72073000D01*
X153273000Y-72073000D01*
X153273000Y-72327000D01*
X152423750Y-72327000D01*
X152362500Y-72388250D01*
X152301250Y-72327000D01*
X151327000Y-72327000D01*
X151327000Y-72347000D01*
X151073000Y-72347000D01*
X151073000Y-72327000D01*
X151073000Y-72073000D01*
X151073000Y-71223750D01*
X150914250Y-71065000D01*
X150701309Y-71065000D01*
X150448690Y-71065000D01*
X150215301Y-71161673D01*
X150036673Y-71340302D01*
X149940000Y-71573691D01*
X149940000Y-71914250D01*
X150098750Y-72073000D01*
X151073000Y-72073000D01*
X151073000Y-72327000D01*
X150098750Y-72327000D01*
X149940000Y-72485750D01*
X149940000Y-72826309D01*
X150036673Y-73059698D01*
X150176974Y-73200000D01*
X150036673Y-73340301D01*
X149940000Y-73573690D01*
X149940000Y-73826309D01*
X149940000Y-74826309D01*
X150036673Y-75059698D01*
X150215301Y-75238327D01*
X150448690Y-75335000D01*
X150484744Y-75335000D01*
X150496004Y-75391605D01*
X150661185Y-75638815D01*
X150737172Y-75714802D01*
X150661673Y-75790301D01*
X150599999Y-75939193D01*
X150538327Y-75790302D01*
X150359699Y-75611673D01*
X150126310Y-75515000D01*
X149873691Y-75515000D01*
X149173691Y-75515000D01*
X148940302Y-75611673D01*
X148776610Y-75775364D01*
X148776610Y-70126215D01*
X147930000Y-69279605D01*
X147750395Y-69459210D01*
X147750395Y-69100000D01*
X146903785Y-68253390D01*
X146655024Y-68330656D01*
X146457660Y-68877131D01*
X146484447Y-69457535D01*
X146655024Y-69869344D01*
X146903785Y-69946610D01*
X147750395Y-69100000D01*
X147750395Y-69459210D01*
X147083390Y-70126215D01*
X147160656Y-70374976D01*
X147707131Y-70572340D01*
X148287535Y-70545553D01*
X148699344Y-70374976D01*
X148776610Y-70126215D01*
X148776610Y-75775364D01*
X148761673Y-75790301D01*
X148665000Y-76023690D01*
X148665000Y-76038000D01*
X147964641Y-76038000D01*
X147812286Y-75885378D01*
X147415668Y-75720687D01*
X146986216Y-75720313D01*
X146589311Y-75884311D01*
X146285378Y-76187714D01*
X146120687Y-76584332D01*
X146120313Y-77013784D01*
X146284311Y-77410689D01*
X146587714Y-77714622D01*
X146984332Y-77879313D01*
X147413784Y-77879687D01*
X147810689Y-77715689D01*
X147964646Y-77562000D01*
X148665000Y-77562000D01*
X148665000Y-77576309D01*
X148761673Y-77809698D01*
X148940301Y-77988327D01*
X149173690Y-78085000D01*
X149426309Y-78085000D01*
X150126309Y-78085000D01*
X150359698Y-77988327D01*
X150538327Y-77809699D01*
X150600000Y-77660806D01*
X150661673Y-77809698D01*
X150840301Y-77988327D01*
X151073690Y-78085000D01*
X151326309Y-78085000D01*
X152026309Y-78085000D01*
X152259698Y-77988327D01*
X152438327Y-77809699D01*
X152535000Y-77576310D01*
X152535000Y-77562000D01*
X152800000Y-77562000D01*
X152800000Y-77561999D01*
X153091604Y-77503996D01*
X153091605Y-77503996D01*
X153338815Y-77338815D01*
X153665280Y-77012350D01*
X153665280Y-77683329D01*
X153761953Y-77916718D01*
X153940581Y-78095347D01*
X154173970Y-78192020D01*
X154426589Y-78192020D01*
X155026029Y-78192020D01*
X155259418Y-78095347D01*
X155438047Y-77916719D01*
X155478672Y-77818640D01*
X156343360Y-77818640D01*
X157091899Y-77818640D01*
X157187714Y-77914622D01*
X157584332Y-78079313D01*
X158013784Y-78079687D01*
X158410689Y-77915689D01*
X158714622Y-77612286D01*
X158879313Y-77215668D01*
X158879687Y-76786216D01*
X158715689Y-76389311D01*
X158412286Y-76085378D01*
X158162000Y-75981449D01*
X158162000Y-75200000D01*
X158103996Y-74908395D01*
X157938815Y-74661185D01*
X156445357Y-73167727D01*
X156535000Y-72951310D01*
X156535000Y-72698691D01*
X156535000Y-71458828D01*
X156584332Y-71479313D01*
X157013784Y-71479687D01*
X157410689Y-71315689D01*
X157651886Y-71074911D01*
X157815301Y-71238327D01*
X158000405Y-71315000D01*
X157773691Y-71315000D01*
X157540302Y-71411673D01*
X157361673Y-71590301D01*
X157265000Y-71823690D01*
X157265000Y-72076309D01*
X157265000Y-73376309D01*
X157361673Y-73609698D01*
X157540301Y-73788327D01*
X157773690Y-73885000D01*
X158026309Y-73885000D01*
X158726309Y-73885000D01*
X158959698Y-73788327D01*
X159138327Y-73609699D01*
X159200000Y-73460806D01*
X159261673Y-73609698D01*
X159440301Y-73788327D01*
X159673690Y-73885000D01*
X159926309Y-73885000D01*
X160626309Y-73885000D01*
X160845271Y-73794302D01*
X160845269Y-73797086D01*
X160907768Y-73948346D01*
X160513992Y-74026673D01*
X160101974Y-74301974D01*
X159501974Y-74901974D01*
X159226673Y-75313992D01*
X159129999Y-75800000D01*
X159130000Y-75800005D01*
X159130000Y-78166549D01*
X159118547Y-78161794D01*
X158468306Y-78161226D01*
X157867345Y-78409538D01*
X157407154Y-78868927D01*
X157157794Y-79469453D01*
X157157226Y-80119694D01*
X157405538Y-80720655D01*
X157864927Y-81180846D01*
X158465453Y-81430206D01*
X159115694Y-81430774D01*
X159716655Y-81182462D01*
X160176846Y-80723073D01*
X160396950Y-80193002D01*
X162301974Y-82098026D01*
X162713992Y-82373327D01*
X163200000Y-82470001D01*
X163200000Y-82470000D01*
X163200005Y-82470000D01*
X164173948Y-82470000D01*
X164828344Y-83124396D01*
X164345620Y-83323854D01*
X163970173Y-83698647D01*
X163893500Y-83883295D01*
X163893500Y-83630191D01*
X163796827Y-83396802D01*
X163618199Y-83218173D01*
X163384810Y-83121500D01*
X163132191Y-83121500D01*
X161735191Y-83121500D01*
X161501802Y-83218173D01*
X161323173Y-83396801D01*
X161226500Y-83630190D01*
X161226500Y-83882809D01*
X161226500Y-84441462D01*
X158426481Y-87241481D01*
X158220005Y-87550494D01*
X158205305Y-87624392D01*
X158115302Y-87661673D01*
X157936673Y-87840301D01*
X157840000Y-88073690D01*
X157840000Y-88326309D01*
X157840000Y-89326309D01*
X157936673Y-89559698D01*
X158076974Y-89700000D01*
X157936673Y-89840302D01*
X157840000Y-90073691D01*
X157840000Y-90414250D01*
X157998750Y-90573000D01*
X158973000Y-90573000D01*
X158973000Y-90553000D01*
X159227000Y-90553000D01*
X159227000Y-90573000D01*
X160201250Y-90573000D01*
X160360000Y-90414250D01*
X160360000Y-90073691D01*
X160263327Y-89840302D01*
X160123025Y-89699999D01*
X160263327Y-89559699D01*
X160360000Y-89326310D01*
X160360000Y-89073691D01*
X160360000Y-88073691D01*
X160339013Y-88023024D01*
X162573538Y-85788500D01*
X163384809Y-85788500D01*
X163618198Y-85691827D01*
X163796827Y-85513199D01*
X163893500Y-85279810D01*
X163893500Y-85027191D01*
X163893500Y-85027009D01*
X163968854Y-85209380D01*
X164343647Y-85584827D01*
X164833587Y-85788268D01*
X165364086Y-85788731D01*
X165854380Y-85586146D01*
X166229827Y-85211353D01*
X166370093Y-84873553D01*
X166508854Y-85209380D01*
X166883647Y-85584827D01*
X167373587Y-85788268D01*
X167904086Y-85788731D01*
X168394380Y-85586146D01*
X168769827Y-85211353D01*
X168910000Y-84873779D01*
X168910000Y-85193948D01*
X167865948Y-86238000D01*
X164437718Y-86238000D01*
X164323073Y-86123154D01*
X163722547Y-85873794D01*
X163072306Y-85873226D01*
X162471345Y-86121538D01*
X162011154Y-86580927D01*
X161761794Y-87181453D01*
X161761226Y-87831694D01*
X162009538Y-88432655D01*
X162468927Y-88892846D01*
X163069453Y-89142206D01*
X163719694Y-89142774D01*
X163809581Y-89105633D01*
X164601971Y-89898022D01*
X164601974Y-89898026D01*
X164601975Y-89898026D01*
X165013992Y-90173327D01*
X165500000Y-90270001D01*
X165500000Y-90270000D01*
X165500005Y-90270000D01*
X166582950Y-90270000D01*
X166540000Y-90373691D01*
X166540000Y-90714250D01*
X166698750Y-90873000D01*
X167673000Y-90873000D01*
X167673000Y-90853000D01*
X167927000Y-90853000D01*
X167927000Y-90873000D01*
X168901250Y-90873000D01*
X169060000Y-90714250D01*
X169060000Y-90373691D01*
X168963327Y-90140302D01*
X168823025Y-89999999D01*
X168963327Y-89859699D01*
X169060000Y-89626310D01*
X169060000Y-89373691D01*
X169060000Y-89050273D01*
X169070000Y-89000000D01*
X169060000Y-88949726D01*
X169060000Y-88559724D01*
X169290026Y-88406026D01*
X171078026Y-86618026D01*
X171353327Y-86206008D01*
X171450000Y-85720000D01*
X171450001Y-85720000D01*
X171450000Y-85719994D01*
X171450000Y-84873779D01*
X171450093Y-84873553D01*
X171588854Y-85209380D01*
X171963647Y-85584827D01*
X172453587Y-85788268D01*
X172984086Y-85788731D01*
X173474380Y-85586146D01*
X173849827Y-85211353D01*
X174053268Y-84721413D01*
X174053731Y-84190914D01*
X173851146Y-83700620D01*
X173476353Y-83325173D01*
X172986413Y-83121732D01*
X172455914Y-83121269D01*
X171965620Y-83323854D01*
X171590173Y-83698647D01*
X171450000Y-84036220D01*
X171450000Y-83446052D01*
X172026052Y-82870000D01*
X175373948Y-82870000D01*
X176165000Y-83661052D01*
X176165000Y-83751309D01*
X176261673Y-83984698D01*
X176440301Y-84163327D01*
X176673690Y-84260000D01*
X176926309Y-84260000D01*
X177249722Y-84260000D01*
X177300000Y-84270001D01*
X177350277Y-84260000D01*
X177926309Y-84260000D01*
X178159698Y-84163327D01*
X178300000Y-84023025D01*
X178440301Y-84163327D01*
X178673690Y-84260000D01*
X178926309Y-84260000D01*
X179249726Y-84260000D01*
X179300000Y-84270000D01*
X179350273Y-84260000D01*
X179926309Y-84260000D01*
X180159698Y-84163327D01*
X180338327Y-83984699D01*
X180435000Y-83751310D01*
X180435000Y-83543368D01*
X180473327Y-83486008D01*
X180570000Y-83000000D01*
X180570000Y-80500005D01*
X180570000Y-80500000D01*
X180570001Y-80500000D01*
X180473327Y-80013992D01*
X180198026Y-79601974D01*
X179642454Y-79046402D01*
X179642774Y-78680306D01*
X179394462Y-78079345D01*
X178935073Y-77619154D01*
X178334547Y-77369794D01*
X177684306Y-77369226D01*
X177083345Y-77617538D01*
X176623154Y-78076927D01*
X176373794Y-78677453D01*
X176373226Y-79327694D01*
X176621538Y-79928655D01*
X177080927Y-80388846D01*
X177614248Y-80610300D01*
X178030000Y-81026052D01*
X178030000Y-81782949D01*
X177926310Y-81740000D01*
X177836052Y-81740000D01*
X176798026Y-80701974D01*
X176386008Y-80426673D01*
X175900000Y-80329999D01*
X175899994Y-80330000D01*
X171500005Y-80330000D01*
X171500000Y-80329999D01*
X171013992Y-80426673D01*
X170601974Y-80701974D01*
X169281974Y-82021974D01*
X169006673Y-82433992D01*
X168909999Y-82920000D01*
X168910000Y-82920005D01*
X168910000Y-84036220D01*
X168909906Y-84036446D01*
X168870368Y-83940758D01*
X168813327Y-83653992D01*
X168538026Y-83241974D01*
X165598026Y-80301974D01*
X165186008Y-80026673D01*
X164700000Y-79929999D01*
X164699994Y-79930000D01*
X163726052Y-79930000D01*
X161670000Y-77873948D01*
X161670000Y-77830946D01*
X161803647Y-77964827D01*
X162293587Y-78168268D01*
X162824086Y-78168731D01*
X163314380Y-77966146D01*
X163689827Y-77591353D01*
X163830093Y-77253553D01*
X163968854Y-77589380D01*
X164343647Y-77964827D01*
X164833587Y-78168268D01*
X165364086Y-78168731D01*
X165854380Y-77966146D01*
X166229827Y-77591353D01*
X166370093Y-77253553D01*
X166508854Y-77589380D01*
X166883647Y-77964827D01*
X167373587Y-78168268D01*
X167904086Y-78168731D01*
X168394380Y-77966146D01*
X168769827Y-77591353D01*
X168910093Y-77253553D01*
X169048854Y-77589380D01*
X169423647Y-77964827D01*
X169913587Y-78168268D01*
X170444086Y-78168731D01*
X170934380Y-77966146D01*
X171309827Y-77591353D01*
X171450093Y-77253553D01*
X171588854Y-77589380D01*
X171963647Y-77964827D01*
X172453587Y-78168268D01*
X172984086Y-78168731D01*
X173474380Y-77966146D01*
X173849827Y-77591353D01*
X174053268Y-77101413D01*
X174053731Y-76570914D01*
X173851146Y-76080620D01*
X173684927Y-75914110D01*
X173684927Y-73725520D01*
X173656148Y-73195801D01*
X173508800Y-72840071D01*
X173273188Y-72778417D01*
X172518605Y-73533000D01*
X173273188Y-74287583D01*
X173508800Y-74225929D01*
X173684927Y-73725520D01*
X173684927Y-75914110D01*
X173476353Y-75705173D01*
X173093583Y-75546232D01*
X173093583Y-74467188D01*
X172339000Y-73712605D01*
X171584417Y-74467188D01*
X171646071Y-74702800D01*
X172146480Y-74878927D01*
X172676199Y-74850148D01*
X173031929Y-74702800D01*
X173093583Y-74467188D01*
X173093583Y-75546232D01*
X172986413Y-75501732D01*
X172455914Y-75501269D01*
X171965620Y-75703854D01*
X171590173Y-76078647D01*
X171449906Y-76416446D01*
X171311146Y-76080620D01*
X170936353Y-75705173D01*
X170446413Y-75501732D01*
X169915914Y-75501269D01*
X169425620Y-75703854D01*
X169050173Y-76078647D01*
X168909906Y-76416446D01*
X168771146Y-76080620D01*
X168396353Y-75705173D01*
X167968527Y-75527524D01*
X168157026Y-75339026D01*
X168432327Y-74927008D01*
X168529000Y-74441000D01*
X168529000Y-73951779D01*
X168529093Y-73951553D01*
X168667854Y-74287380D01*
X169042647Y-74662827D01*
X169532587Y-74866268D01*
X170063086Y-74866731D01*
X170553380Y-74664146D01*
X170928827Y-74289353D01*
X171062313Y-73967881D01*
X171169200Y-74225929D01*
X171404812Y-74287583D01*
X172159395Y-73533000D01*
X172145252Y-73518857D01*
X172324857Y-73339252D01*
X172339000Y-73353395D01*
X173093583Y-72598812D01*
X173031929Y-72363200D01*
X172531520Y-72187073D01*
X172405291Y-72193930D01*
X172479313Y-72015668D01*
X172479687Y-71586216D01*
X172315689Y-71189311D01*
X172012286Y-70885378D01*
X171615668Y-70720687D01*
X171186216Y-70720313D01*
X170789311Y-70884311D01*
X170635353Y-71038000D01*
X168164641Y-71038000D01*
X168012286Y-70885378D01*
X167615668Y-70720687D01*
X167186216Y-70720313D01*
X166789311Y-70884311D01*
X166485378Y-71187714D01*
X166320687Y-71584332D01*
X166320313Y-72013784D01*
X166484311Y-72410689D01*
X166490030Y-72416418D01*
X166129173Y-72776647D01*
X165989000Y-73114220D01*
X165989000Y-71207052D01*
X166626052Y-70570000D01*
X174600000Y-70570000D01*
X175086008Y-70473327D01*
X175143368Y-70435000D01*
X175351309Y-70435000D01*
X175584698Y-70338327D01*
X175763327Y-70159699D01*
X175860000Y-69926310D01*
X175860000Y-69673691D01*
X175860000Y-69643140D01*
X175945474Y-70072848D01*
X176270330Y-70559029D01*
X176756511Y-70883885D01*
X177330000Y-70997959D01*
X177903489Y-70883885D01*
X178389670Y-70559029D01*
X178605663Y-70235771D01*
X178663179Y-70358490D01*
X179095053Y-70752688D01*
X179510974Y-70924958D01*
X179743000Y-70803817D01*
X179743000Y-69597000D01*
X179723000Y-69597000D01*
X179723000Y-69343000D01*
X179743000Y-69343000D01*
X179743000Y-69323000D01*
X179997000Y-69323000D01*
X179997000Y-69343000D01*
X181204469Y-69343000D01*
X181324968Y-69110973D01*
X181076821Y-68581510D01*
X180893880Y-68414528D01*
X181093298Y-68331927D01*
X181271927Y-68153299D01*
X181368600Y-67919910D01*
X181368600Y-67667291D01*
X181368600Y-65940091D01*
X181368600Y-64389909D01*
X181368600Y-63685750D01*
X181368600Y-63114250D01*
X181368600Y-62410091D01*
X181271927Y-62176702D01*
X181260000Y-62164774D01*
X181260000Y-47426309D01*
X181260000Y-47085750D01*
X181101250Y-46927000D01*
X180127000Y-46927000D01*
X180127000Y-47776250D01*
X180285750Y-47935000D01*
X180498691Y-47935000D01*
X180751310Y-47935000D01*
X180984699Y-47838327D01*
X181163327Y-47659698D01*
X181260000Y-47426309D01*
X181260000Y-62164774D01*
X181093299Y-61998073D01*
X180859910Y-61901400D01*
X180607291Y-61901400D01*
X180155750Y-61901400D01*
X179997000Y-62060150D01*
X179997000Y-63273000D01*
X181209850Y-63273000D01*
X181368600Y-63114250D01*
X181368600Y-63685750D01*
X181209850Y-63527000D01*
X179997000Y-63527000D01*
X179997000Y-64739850D01*
X180155750Y-64898600D01*
X180607291Y-64898600D01*
X180859910Y-64898600D01*
X181093299Y-64801927D01*
X181271927Y-64623298D01*
X181368600Y-64389909D01*
X181368600Y-65940091D01*
X181271927Y-65706702D01*
X181093299Y-65528073D01*
X180859910Y-65431400D01*
X180607291Y-65431400D01*
X179873000Y-65431400D01*
X179873000Y-47776250D01*
X179873000Y-46927000D01*
X178898750Y-46927000D01*
X178740000Y-47085750D01*
X178740000Y-47426309D01*
X178836673Y-47659698D01*
X179015301Y-47838327D01*
X179248690Y-47935000D01*
X179501309Y-47935000D01*
X179714250Y-47935000D01*
X179873000Y-47776250D01*
X179873000Y-65431400D01*
X178880091Y-65431400D01*
X178646702Y-65528073D01*
X178468073Y-65706701D01*
X178403736Y-65862022D01*
X178389670Y-65840971D01*
X177903489Y-65516115D01*
X177330000Y-65402041D01*
X176756511Y-65516115D01*
X176270330Y-65840971D01*
X175945474Y-66327152D01*
X175870000Y-66706585D01*
X175870000Y-63623414D01*
X175945474Y-64002848D01*
X176270330Y-64489029D01*
X176756511Y-64813885D01*
X177330000Y-64927959D01*
X177903489Y-64813885D01*
X178389670Y-64489029D01*
X178403736Y-64467976D01*
X178468073Y-64623298D01*
X178646701Y-64801927D01*
X178880090Y-64898600D01*
X179132709Y-64898600D01*
X179584250Y-64898600D01*
X179743000Y-64739850D01*
X179743000Y-63527000D01*
X179723000Y-63527000D01*
X179723000Y-63273000D01*
X179743000Y-63273000D01*
X179743000Y-62060150D01*
X179681000Y-61998150D01*
X179681000Y-59044310D01*
X179681000Y-58791691D01*
X179681000Y-58578750D01*
X179681000Y-58007250D01*
X179681000Y-57794309D01*
X179681000Y-57541690D01*
X179584327Y-57308301D01*
X179405698Y-57129673D01*
X179172309Y-57033000D01*
X178831750Y-57033000D01*
X178673000Y-57191750D01*
X178673000Y-58166000D01*
X179522250Y-58166000D01*
X179681000Y-58007250D01*
X179681000Y-58578750D01*
X179522250Y-58420000D01*
X178673000Y-58420000D01*
X178673000Y-59394250D01*
X178831750Y-59553000D01*
X179172309Y-59553000D01*
X179405698Y-59456327D01*
X179584327Y-59277699D01*
X179681000Y-59044310D01*
X179681000Y-61998150D01*
X179584250Y-61901400D01*
X179132709Y-61901400D01*
X178880090Y-61901400D01*
X178646701Y-61998073D01*
X178468073Y-62176702D01*
X178419000Y-62295172D01*
X178419000Y-59394250D01*
X178419000Y-58420000D01*
X178399000Y-58420000D01*
X178399000Y-58166000D01*
X178419000Y-58166000D01*
X178419000Y-57191750D01*
X178260250Y-57033000D01*
X177919691Y-57033000D01*
X177860000Y-57057724D01*
X177860000Y-47426309D01*
X177860000Y-47085750D01*
X177701250Y-46927000D01*
X176727000Y-46927000D01*
X176727000Y-47776250D01*
X176885750Y-47935000D01*
X177098691Y-47935000D01*
X177351310Y-47935000D01*
X177584699Y-47838327D01*
X177763327Y-47659698D01*
X177860000Y-47426309D01*
X177860000Y-57057724D01*
X177686302Y-57129673D01*
X177545999Y-57269974D01*
X177405699Y-57129673D01*
X177172310Y-57033000D01*
X177082051Y-57033000D01*
X176473000Y-56423948D01*
X176473000Y-47776250D01*
X176473000Y-46927000D01*
X175498750Y-46927000D01*
X175340000Y-47085750D01*
X175340000Y-47426309D01*
X175436673Y-47659698D01*
X175615301Y-47838327D01*
X175848690Y-47935000D01*
X176101309Y-47935000D01*
X176314250Y-47935000D01*
X176473000Y-47776250D01*
X176473000Y-56423948D01*
X175982098Y-55933046D01*
X176132206Y-55571547D01*
X176132774Y-54921306D01*
X175884462Y-54320345D01*
X175425073Y-53860154D01*
X174860000Y-53625515D01*
X174860000Y-47426309D01*
X174860000Y-47085750D01*
X174701250Y-46927000D01*
X173727000Y-46927000D01*
X173727000Y-47776250D01*
X173885750Y-47935000D01*
X174098691Y-47935000D01*
X174351310Y-47935000D01*
X174584699Y-47838327D01*
X174763327Y-47659698D01*
X174860000Y-47426309D01*
X174860000Y-53625515D01*
X174824547Y-53610794D01*
X174174306Y-53610226D01*
X173573345Y-53858538D01*
X173473000Y-53958708D01*
X173473000Y-47776250D01*
X173473000Y-46927000D01*
X172498750Y-46927000D01*
X172340000Y-47085750D01*
X172340000Y-47426309D01*
X172436673Y-47659698D01*
X172615301Y-47838327D01*
X172848690Y-47935000D01*
X173101309Y-47935000D01*
X173314250Y-47935000D01*
X173473000Y-47776250D01*
X173473000Y-53958708D01*
X173113154Y-54317927D01*
X172863794Y-54918453D01*
X172863226Y-55568694D01*
X173111538Y-56169655D01*
X173238263Y-56296601D01*
X173324673Y-56731008D01*
X173599974Y-57143026D01*
X175411000Y-58954051D01*
X175411000Y-59044309D01*
X175507673Y-59277698D01*
X175686301Y-59456327D01*
X175919690Y-59553000D01*
X176172309Y-59553000D01*
X176495726Y-59553000D01*
X176546000Y-59563000D01*
X176596273Y-59553000D01*
X177172309Y-59553000D01*
X177405698Y-59456327D01*
X177546000Y-59316025D01*
X177686302Y-59456327D01*
X177919691Y-59553000D01*
X178260250Y-59553000D01*
X178419000Y-59394250D01*
X178419000Y-62295172D01*
X178403736Y-62332023D01*
X178389670Y-62310971D01*
X177903489Y-61986115D01*
X177330000Y-61872041D01*
X176756511Y-61986115D01*
X176270330Y-62310971D01*
X175945474Y-62797152D01*
X175870000Y-63176585D01*
X175870000Y-61772896D01*
X175882846Y-61760073D01*
X176132206Y-61159547D01*
X176132774Y-60509306D01*
X175884462Y-59908345D01*
X175425073Y-59448154D01*
X174824547Y-59198794D01*
X174174306Y-59198226D01*
X173573345Y-59446538D01*
X173456679Y-59563000D01*
X172235000Y-59563000D01*
X172235000Y-48426309D01*
X172235000Y-48085750D01*
X172235000Y-47514250D01*
X172235000Y-47173691D01*
X172138327Y-46940302D01*
X171959699Y-46761673D01*
X171726310Y-46665000D01*
X171473691Y-46665000D01*
X171085750Y-46665000D01*
X170927000Y-46823750D01*
X170927000Y-47673000D01*
X172076250Y-47673000D01*
X172235000Y-47514250D01*
X172235000Y-48085750D01*
X172076250Y-47927000D01*
X170927000Y-47927000D01*
X170927000Y-48776250D01*
X171085750Y-48935000D01*
X171473691Y-48935000D01*
X171726310Y-48935000D01*
X171959699Y-48838327D01*
X172138327Y-48659698D01*
X172235000Y-48426309D01*
X172235000Y-59563000D01*
X171967005Y-59563000D01*
X171967000Y-59562999D01*
X171480992Y-59659673D01*
X171068974Y-59934974D01*
X171068971Y-59934977D01*
X170673000Y-60330948D01*
X170673000Y-48776250D01*
X170673000Y-47927000D01*
X170673000Y-47673000D01*
X170673000Y-46823750D01*
X170514250Y-46665000D01*
X170126309Y-46665000D01*
X169873690Y-46665000D01*
X169640301Y-46761673D01*
X169461673Y-46940302D01*
X169365000Y-47173691D01*
X169365000Y-47514250D01*
X169523750Y-47673000D01*
X170673000Y-47673000D01*
X170673000Y-47927000D01*
X169523750Y-47927000D01*
X169365000Y-48085750D01*
X169365000Y-48426309D01*
X169461673Y-48659698D01*
X169640301Y-48838327D01*
X169873690Y-48935000D01*
X170126309Y-48935000D01*
X170514250Y-48935000D01*
X170673000Y-48776250D01*
X170673000Y-60330948D01*
X170463948Y-60540000D01*
X170373691Y-60540000D01*
X170140302Y-60636673D01*
X170000000Y-60776974D01*
X169859698Y-60636673D01*
X169626309Y-60540000D01*
X169285750Y-60540000D01*
X169127000Y-60698750D01*
X169127000Y-61673000D01*
X169147000Y-61673000D01*
X169147000Y-61927000D01*
X169127000Y-61927000D01*
X169127000Y-62901250D01*
X169285750Y-63060000D01*
X169626309Y-63060000D01*
X169859698Y-62963327D01*
X170000000Y-62823025D01*
X170140301Y-62963327D01*
X170373690Y-63060000D01*
X170626309Y-63060000D01*
X170949722Y-63060000D01*
X171000000Y-63070001D01*
X171050277Y-63060000D01*
X171626309Y-63060000D01*
X171859698Y-62963327D01*
X172038327Y-62784699D01*
X172135000Y-62551310D01*
X172135000Y-62461051D01*
X172493051Y-62103000D01*
X173330000Y-62103000D01*
X173330000Y-64648338D01*
X173163810Y-64579500D01*
X172911191Y-64579500D01*
X171514191Y-64579500D01*
X171280802Y-64676173D01*
X171102173Y-64854801D01*
X171005500Y-65088190D01*
X171005500Y-65340809D01*
X171005500Y-65340990D01*
X170930146Y-65158620D01*
X170555353Y-64783173D01*
X170065413Y-64579732D01*
X169534914Y-64579269D01*
X169044620Y-64781854D01*
X168873000Y-64953175D01*
X168873000Y-62901250D01*
X168873000Y-61927000D01*
X168873000Y-61673000D01*
X168873000Y-60698750D01*
X168714250Y-60540000D01*
X168373691Y-60540000D01*
X168330774Y-60557776D01*
X168330774Y-57980306D01*
X168082462Y-57379345D01*
X167623073Y-56919154D01*
X167022547Y-56669794D01*
X166372306Y-56669226D01*
X165771345Y-56917538D01*
X165367030Y-57321148D01*
X165367030Y-46822035D01*
X165077622Y-46121614D01*
X164960559Y-46004346D01*
X164960559Y-42902518D01*
X164732892Y-42351520D01*
X164311697Y-41929590D01*
X163761098Y-41700961D01*
X163164918Y-41700441D01*
X162613920Y-41928108D01*
X162191990Y-42349303D01*
X161963361Y-42899902D01*
X161962841Y-43496082D01*
X162190508Y-44047080D01*
X162611703Y-44469010D01*
X163162302Y-44697639D01*
X163758482Y-44698159D01*
X164309480Y-44470492D01*
X164731410Y-44049297D01*
X164960039Y-43498698D01*
X164960559Y-42902518D01*
X164960559Y-46004346D01*
X164542205Y-45585261D01*
X163842290Y-45294632D01*
X163084435Y-45293970D01*
X162384014Y-45583378D01*
X161847661Y-46118795D01*
X161557032Y-46818710D01*
X161556370Y-47576565D01*
X161845778Y-48276986D01*
X162381195Y-48813339D01*
X163081110Y-49103968D01*
X163838965Y-49104630D01*
X164539386Y-48815222D01*
X165075739Y-48279805D01*
X165366368Y-47579890D01*
X165367030Y-46822035D01*
X165367030Y-57321148D01*
X165311154Y-57376927D01*
X165061794Y-57977453D01*
X165061226Y-58627694D01*
X165309538Y-59228655D01*
X165768927Y-59688846D01*
X166369453Y-59938206D01*
X167019694Y-59938774D01*
X167620655Y-59690462D01*
X168080846Y-59231073D01*
X168330206Y-58630547D01*
X168330774Y-57980306D01*
X168330774Y-60557776D01*
X168140302Y-60636673D01*
X167961673Y-60815301D01*
X167865000Y-61048690D01*
X167865000Y-61301309D01*
X167865000Y-61514250D01*
X168023750Y-61673000D01*
X168873000Y-61673000D01*
X168873000Y-61927000D01*
X168023750Y-61927000D01*
X167865000Y-62085750D01*
X167865000Y-62298691D01*
X167865000Y-62551310D01*
X167961673Y-62784699D01*
X168140302Y-62963327D01*
X168373691Y-63060000D01*
X168714250Y-63060000D01*
X168873000Y-62901250D01*
X168873000Y-64953175D01*
X168669173Y-65156647D01*
X168528906Y-65494446D01*
X168390146Y-65158620D01*
X168015353Y-64783173D01*
X167525413Y-64579732D01*
X166994914Y-64579269D01*
X166504620Y-64781854D01*
X166335000Y-64951178D01*
X166335000Y-62751310D01*
X166335000Y-62498691D01*
X166335000Y-62285750D01*
X166335000Y-61714250D01*
X166335000Y-61501309D01*
X166335000Y-61248690D01*
X166238327Y-61015301D01*
X166059698Y-60836673D01*
X165826309Y-60740000D01*
X165485750Y-60740000D01*
X165327000Y-60898750D01*
X165327000Y-61873000D01*
X166176250Y-61873000D01*
X166335000Y-61714250D01*
X166335000Y-62285750D01*
X166176250Y-62127000D01*
X165327000Y-62127000D01*
X165327000Y-63101250D01*
X165485750Y-63260000D01*
X165826309Y-63260000D01*
X166059698Y-63163327D01*
X166238327Y-62984699D01*
X166335000Y-62751310D01*
X166335000Y-64951178D01*
X166129173Y-65156647D01*
X165988906Y-65494446D01*
X165850146Y-65158620D01*
X165475353Y-64783173D01*
X165073000Y-64616101D01*
X165073000Y-63101250D01*
X165073000Y-62127000D01*
X165053000Y-62127000D01*
X165053000Y-61873000D01*
X165073000Y-61873000D01*
X165073000Y-60898750D01*
X164960559Y-60786309D01*
X164960559Y-50902518D01*
X164732892Y-50351520D01*
X164311697Y-49929590D01*
X163761098Y-49700961D01*
X163164918Y-49700441D01*
X162613920Y-49928108D01*
X162191990Y-50349303D01*
X161963361Y-50899902D01*
X161962841Y-51496082D01*
X162190508Y-52047080D01*
X162611703Y-52469010D01*
X163162302Y-52697639D01*
X163758482Y-52698159D01*
X164309480Y-52470492D01*
X164731410Y-52049297D01*
X164960039Y-51498698D01*
X164960559Y-50902518D01*
X164960559Y-60786309D01*
X164914250Y-60740000D01*
X164573691Y-60740000D01*
X164340302Y-60836673D01*
X164199999Y-60976974D01*
X164059699Y-60836673D01*
X163826310Y-60740000D01*
X163736051Y-60740000D01*
X162378000Y-59381948D01*
X162378000Y-59345718D01*
X162492846Y-59231073D01*
X162742206Y-58630547D01*
X162742774Y-57980306D01*
X162494462Y-57379345D01*
X162035073Y-56919154D01*
X161434547Y-56669794D01*
X160784306Y-56669226D01*
X160183345Y-56917538D01*
X159723154Y-57376927D01*
X159473794Y-57977453D01*
X159473226Y-58627694D01*
X159721538Y-59228655D01*
X159838000Y-59345320D01*
X159838000Y-59907994D01*
X159837999Y-59908000D01*
X159934673Y-60394008D01*
X160209974Y-60806026D01*
X162065000Y-62661051D01*
X162065000Y-62751309D01*
X162161673Y-62984698D01*
X162340301Y-63163327D01*
X162573690Y-63260000D01*
X162826309Y-63260000D01*
X163149722Y-63260000D01*
X163200000Y-63270001D01*
X163250277Y-63260000D01*
X163826309Y-63260000D01*
X164059698Y-63163327D01*
X164200000Y-63023025D01*
X164340302Y-63163327D01*
X164573691Y-63260000D01*
X164914250Y-63260000D01*
X165073000Y-63101250D01*
X165073000Y-64616101D01*
X164985413Y-64579732D01*
X164454914Y-64579269D01*
X163964620Y-64781854D01*
X163589173Y-65156647D01*
X163448906Y-65494446D01*
X163310146Y-65158620D01*
X162935353Y-64783173D01*
X162445413Y-64579732D01*
X161914914Y-64579269D01*
X161424620Y-64781854D01*
X161049173Y-65156647D01*
X160845732Y-65646587D01*
X160845269Y-66177086D01*
X161047854Y-66667380D01*
X161422647Y-67042827D01*
X161912587Y-67246268D01*
X162443086Y-67246731D01*
X162933380Y-67044146D01*
X163308827Y-66669353D01*
X163449093Y-66331553D01*
X163587854Y-66667380D01*
X163962647Y-67042827D01*
X164452587Y-67246268D01*
X164983086Y-67246731D01*
X165473380Y-67044146D01*
X165848827Y-66669353D01*
X165989093Y-66331553D01*
X166127854Y-66667380D01*
X166502647Y-67042827D01*
X166992587Y-67246268D01*
X167523086Y-67246731D01*
X168013380Y-67044146D01*
X168388827Y-66669353D01*
X168529093Y-66331553D01*
X168667854Y-66667380D01*
X169042647Y-67042827D01*
X169532587Y-67246268D01*
X170063086Y-67246731D01*
X170553380Y-67044146D01*
X170928827Y-66669353D01*
X171005500Y-66484704D01*
X171005500Y-66737809D01*
X171102173Y-66971198D01*
X171280801Y-67149827D01*
X171514190Y-67246500D01*
X171766809Y-67246500D01*
X173163809Y-67246500D01*
X173330000Y-67177661D01*
X173330000Y-67300000D01*
X173340000Y-67350273D01*
X173340000Y-67926309D01*
X173382950Y-68030000D01*
X166100005Y-68030000D01*
X166100000Y-68029999D01*
X165613992Y-68126673D01*
X165201974Y-68401974D01*
X163820974Y-69782974D01*
X163545673Y-70194992D01*
X163448999Y-70681000D01*
X163449000Y-70681005D01*
X163449000Y-73114220D01*
X163448906Y-73114446D01*
X163310146Y-72778620D01*
X162935353Y-72403173D01*
X162445413Y-72199732D01*
X162402897Y-72199694D01*
X162479313Y-72015668D01*
X162479687Y-71586216D01*
X162315689Y-71189311D01*
X162012286Y-70885378D01*
X161615668Y-70720687D01*
X161186216Y-70720313D01*
X160789311Y-70884311D01*
X160485378Y-71187714D01*
X160432523Y-71315000D01*
X160373691Y-71315000D01*
X160162000Y-71315000D01*
X160162000Y-70929776D01*
X160162000Y-70929775D01*
X160291604Y-70903996D01*
X160291605Y-70903996D01*
X160538815Y-70738815D01*
X160798130Y-70479499D01*
X161013784Y-70479687D01*
X161410689Y-70315689D01*
X161714622Y-70012286D01*
X161879313Y-69615668D01*
X161879687Y-69186216D01*
X161715689Y-68789311D01*
X161412286Y-68485378D01*
X161015668Y-68320687D01*
X160586216Y-68320313D01*
X160435000Y-68382794D01*
X160435000Y-66076310D01*
X160435000Y-65823691D01*
X160435000Y-65585750D01*
X160435000Y-65014250D01*
X160435000Y-64776309D01*
X160435000Y-64523690D01*
X160338327Y-64290301D01*
X160159698Y-64111673D01*
X159926309Y-64015000D01*
X159735750Y-64015000D01*
X159577000Y-64173750D01*
X159577000Y-65173000D01*
X160276250Y-65173000D01*
X160435000Y-65014250D01*
X160435000Y-65585750D01*
X160276250Y-65427000D01*
X159577000Y-65427000D01*
X159577000Y-66426250D01*
X159735750Y-66585000D01*
X159926309Y-66585000D01*
X160159698Y-66488327D01*
X160338327Y-66309699D01*
X160435000Y-66076310D01*
X160435000Y-68382794D01*
X160189311Y-68484311D01*
X160060000Y-68613396D01*
X160060000Y-68485750D01*
X160060000Y-67914250D01*
X160060000Y-67573691D01*
X159963327Y-67340302D01*
X159784699Y-67161673D01*
X159551310Y-67065000D01*
X159298691Y-67065000D01*
X159085750Y-67065000D01*
X158927000Y-67223750D01*
X158927000Y-68073000D01*
X159901250Y-68073000D01*
X160060000Y-67914250D01*
X160060000Y-68485750D01*
X159901250Y-68327000D01*
X158927000Y-68327000D01*
X158927000Y-68347000D01*
X158673000Y-68347000D01*
X158673000Y-68327000D01*
X158653000Y-68327000D01*
X158653000Y-68073000D01*
X158673000Y-68073000D01*
X158673000Y-67223750D01*
X158514250Y-67065000D01*
X158301309Y-67065000D01*
X158048690Y-67065000D01*
X157815301Y-67161673D01*
X157636673Y-67340302D01*
X157540000Y-67573691D01*
X157540000Y-67914250D01*
X157698748Y-68072998D01*
X157540000Y-68072998D01*
X157540000Y-68113140D01*
X157512286Y-68085378D01*
X157115668Y-67920687D01*
X156686216Y-67920313D01*
X156289311Y-68084311D01*
X156262575Y-68111000D01*
X156135000Y-68111000D01*
X156135000Y-65976310D01*
X156135000Y-65723691D01*
X156135000Y-65485750D01*
X155976250Y-65327000D01*
X155277000Y-65327000D01*
X155277000Y-66326250D01*
X155435750Y-66485000D01*
X155626309Y-66485000D01*
X155859698Y-66388327D01*
X156038327Y-66209699D01*
X156135000Y-65976310D01*
X156135000Y-68111000D01*
X156068236Y-68111000D01*
X154779655Y-66822419D01*
X154779687Y-66786216D01*
X154651414Y-66475772D01*
X154673691Y-66485000D01*
X154864250Y-66485000D01*
X155023000Y-66326250D01*
X155023000Y-65327000D01*
X155003000Y-65327000D01*
X155003000Y-65073000D01*
X155023000Y-65073000D01*
X155023000Y-65053000D01*
X155277000Y-65053000D01*
X155277000Y-65073000D01*
X155976250Y-65073000D01*
X156110809Y-64938440D01*
X156565000Y-65392630D01*
X156565000Y-66076309D01*
X156661673Y-66309698D01*
X156840301Y-66488327D01*
X157073690Y-66585000D01*
X157326309Y-66585000D01*
X158026309Y-66585000D01*
X158259698Y-66488327D01*
X158438327Y-66309699D01*
X158500000Y-66160807D01*
X158561673Y-66309699D01*
X158740302Y-66488327D01*
X158973691Y-66585000D01*
X159164250Y-66585000D01*
X159323000Y-66426250D01*
X159323000Y-65427000D01*
X159303000Y-65427000D01*
X159303000Y-65173000D01*
X159323000Y-65173000D01*
X159323000Y-64173750D01*
X159164250Y-64015000D01*
X158973691Y-64015000D01*
X158740302Y-64111673D01*
X158561673Y-64290301D01*
X158499999Y-64439193D01*
X158438327Y-64290302D01*
X158259699Y-64111673D01*
X158026310Y-64015000D01*
X157819090Y-64015000D01*
X157819090Y-39987313D01*
X157819090Y-38915247D01*
X157713620Y-38385012D01*
X157413266Y-37935501D01*
X156963755Y-37635147D01*
X156433520Y-37529677D01*
X155903285Y-37635147D01*
X155453774Y-37935501D01*
X155153420Y-38385012D01*
X155151570Y-38394312D01*
X155125019Y-38304603D01*
X154783464Y-37882622D01*
X154306423Y-37623470D01*
X154234795Y-37609287D01*
X154020520Y-37731941D01*
X154020520Y-39324280D01*
X154040520Y-39324280D01*
X154040520Y-39578280D01*
X154020520Y-39578280D01*
X154020520Y-41170619D01*
X154234795Y-41293273D01*
X154306423Y-41279090D01*
X154783464Y-41019938D01*
X155125019Y-40597957D01*
X155151570Y-40508247D01*
X155153420Y-40517548D01*
X155453774Y-40967059D01*
X155903285Y-41267413D01*
X156433520Y-41372883D01*
X156963755Y-41267413D01*
X157413266Y-40967059D01*
X157713620Y-40517548D01*
X157819090Y-39987313D01*
X157819090Y-64015000D01*
X157773691Y-64015000D01*
X157535370Y-64015000D01*
X157535370Y-53980177D01*
X156983180Y-52643775D01*
X155961603Y-51620414D01*
X154626166Y-51065892D01*
X153766520Y-51065141D01*
X153766520Y-41170619D01*
X153766520Y-39578280D01*
X153746520Y-39578280D01*
X153746520Y-39324280D01*
X153766520Y-39324280D01*
X153766520Y-37731941D01*
X153552245Y-37609287D01*
X153480617Y-37623470D01*
X153003576Y-37882622D01*
X152662021Y-38304603D01*
X152635469Y-38394312D01*
X152633620Y-38385012D01*
X152333266Y-37935501D01*
X151883755Y-37635147D01*
X151353520Y-37529677D01*
X150823285Y-37635147D01*
X150373774Y-37935501D01*
X150073420Y-38385012D01*
X149967950Y-38915247D01*
X149967950Y-39987313D01*
X150073420Y-40517548D01*
X150373774Y-40967059D01*
X150823285Y-41267413D01*
X151353520Y-41372883D01*
X151883755Y-41267413D01*
X152333266Y-40967059D01*
X152633620Y-40517548D01*
X152635469Y-40508247D01*
X152662021Y-40597957D01*
X153003576Y-41019938D01*
X153480617Y-41279090D01*
X153552245Y-41293273D01*
X153766520Y-41170619D01*
X153766520Y-51065141D01*
X153180177Y-51064630D01*
X151843775Y-51616820D01*
X151779687Y-51680796D01*
X151779687Y-47786216D01*
X151615689Y-47389311D01*
X151312286Y-47085378D01*
X150915668Y-46920687D01*
X150486216Y-46920313D01*
X150089311Y-47084311D01*
X149785378Y-47387714D01*
X149620687Y-47784332D01*
X149620575Y-47911991D01*
X148779687Y-48752879D01*
X148779687Y-42886216D01*
X148615689Y-42489311D01*
X148312286Y-42185378D01*
X147915668Y-42020687D01*
X147486216Y-42020313D01*
X147089311Y-42184311D01*
X146998964Y-42274500D01*
X142901252Y-42274500D01*
X142812286Y-42185378D01*
X142415668Y-42020687D01*
X141986216Y-42020313D01*
X141589311Y-42184311D01*
X141385473Y-42387793D01*
X141385473Y-38927664D01*
X141023134Y-38050737D01*
X140352792Y-37379224D01*
X139476499Y-37015355D01*
X138527664Y-37014527D01*
X137650737Y-37376866D01*
X136979224Y-38047208D01*
X136615355Y-38923501D01*
X136614527Y-39872336D01*
X136976866Y-40749263D01*
X137647208Y-41420776D01*
X138523501Y-41784645D01*
X139472336Y-41785473D01*
X140349263Y-41423134D01*
X141020776Y-40752792D01*
X141384645Y-39876499D01*
X141385473Y-38927664D01*
X141385473Y-42387793D01*
X141285378Y-42487714D01*
X141120687Y-42884332D01*
X141120313Y-43313784D01*
X141284311Y-43710689D01*
X141587714Y-44014622D01*
X141984332Y-44179313D01*
X142413784Y-44179687D01*
X142810689Y-44015689D01*
X142901035Y-43925500D01*
X146998747Y-43925500D01*
X147087714Y-44014622D01*
X147484332Y-44179313D01*
X147913784Y-44179687D01*
X148310689Y-44015689D01*
X148614622Y-43712286D01*
X148779313Y-43315668D01*
X148779687Y-42886216D01*
X148779687Y-48752879D01*
X147358066Y-50174500D01*
X140009144Y-50174500D01*
X140009144Y-46127698D01*
X139981362Y-45572632D01*
X139822397Y-45188857D01*
X139580213Y-45119392D01*
X139400608Y-45298997D01*
X139400608Y-44939787D01*
X139331143Y-44697603D01*
X138807698Y-44510856D01*
X138252632Y-44538638D01*
X137868857Y-44697603D01*
X137799392Y-44939787D01*
X138600000Y-45740395D01*
X139400608Y-44939787D01*
X139400608Y-45298997D01*
X138779605Y-45920000D01*
X139580213Y-46720608D01*
X139822397Y-46651143D01*
X140009144Y-46127698D01*
X140009144Y-50174500D01*
X139749874Y-50174500D01*
X139392370Y-49816371D01*
X139184487Y-49730050D01*
X139390303Y-49645010D01*
X139783629Y-49252370D01*
X139996757Y-48739100D01*
X139997242Y-48183339D01*
X139785010Y-47669697D01*
X139392370Y-47276371D01*
X139200272Y-47196605D01*
X139331143Y-47142397D01*
X139400608Y-46900213D01*
X138600000Y-46099605D01*
X138420395Y-46279210D01*
X138420395Y-45920000D01*
X137619787Y-45119392D01*
X137377603Y-45188857D01*
X137190856Y-45712302D01*
X137218638Y-46267368D01*
X137377603Y-46651143D01*
X137619787Y-46720608D01*
X138420395Y-45920000D01*
X138420395Y-46279210D01*
X137799392Y-46900213D01*
X137868857Y-47142397D01*
X138009317Y-47192508D01*
X137809697Y-47274990D01*
X137416371Y-47667630D01*
X137203243Y-48180900D01*
X137202758Y-48736661D01*
X137414990Y-49250303D01*
X137807630Y-49643629D01*
X138015512Y-49729949D01*
X137809697Y-49814990D01*
X137416371Y-50207630D01*
X137203243Y-50720900D01*
X137202758Y-51276661D01*
X137414990Y-51790303D01*
X137807630Y-52183629D01*
X138320900Y-52396757D01*
X138876661Y-52397242D01*
X139390303Y-52185010D01*
X139750441Y-51825500D01*
X147700000Y-51825500D01*
X148015905Y-51762663D01*
X148015906Y-51762663D01*
X148283717Y-51583717D01*
X150787855Y-49079577D01*
X150913784Y-49079687D01*
X151310689Y-48915689D01*
X151614622Y-48612286D01*
X151779313Y-48215668D01*
X151779687Y-47786216D01*
X151779687Y-51680796D01*
X150820414Y-52638397D01*
X150265892Y-53973834D01*
X150264630Y-55419823D01*
X150816820Y-56756225D01*
X151838397Y-57779586D01*
X153173834Y-58334108D01*
X154619823Y-58335370D01*
X155956225Y-57783180D01*
X156979586Y-56761603D01*
X157534108Y-55426166D01*
X157535370Y-53980177D01*
X157535370Y-64015000D01*
X157342630Y-64015000D01*
X156438815Y-63111185D01*
X156191605Y-62946004D01*
X155900000Y-62888000D01*
X154924706Y-62888000D01*
X155079313Y-62515668D01*
X155079687Y-62086216D01*
X154915689Y-61689311D01*
X154612286Y-61385378D01*
X154215668Y-61220687D01*
X153786216Y-61220313D01*
X153389311Y-61384311D01*
X153085378Y-61687714D01*
X152920687Y-62084332D01*
X152920313Y-62513784D01*
X153074936Y-62888000D01*
X152600000Y-62888000D01*
X152536025Y-62888000D01*
X152409699Y-62761673D01*
X152176310Y-62665000D01*
X151923691Y-62665000D01*
X150623691Y-62665000D01*
X150390302Y-62761673D01*
X150233596Y-62918377D01*
X150003159Y-62840746D01*
X149102605Y-63741300D01*
X150003159Y-64641854D01*
X150259643Y-64555448D01*
X150299227Y-64447252D01*
X150390301Y-64538327D01*
X150539193Y-64600000D01*
X150390302Y-64661673D01*
X150211673Y-64840301D01*
X150115000Y-65073690D01*
X150115000Y-65138000D01*
X149592157Y-65138000D01*
X149737148Y-65077943D01*
X149823554Y-64821459D01*
X148923000Y-63920905D01*
X148022446Y-64821459D01*
X148108852Y-65077943D01*
X148273004Y-65138000D01*
X147224325Y-65138000D01*
X147361327Y-65000999D01*
X147458000Y-64767610D01*
X147458000Y-64514991D01*
X147458000Y-64245567D01*
X147586357Y-64555448D01*
X147842841Y-64641854D01*
X148743395Y-63741300D01*
X147842841Y-62840746D01*
X147586357Y-62927152D01*
X147458000Y-63277988D01*
X147458000Y-62714991D01*
X147361327Y-62481602D01*
X147182699Y-62302973D01*
X147076325Y-62258911D01*
X147223551Y-62111943D01*
X147423202Y-61631128D01*
X147620932Y-62109671D01*
X148052357Y-62541851D01*
X148061372Y-62545594D01*
X148022446Y-62661141D01*
X148923000Y-63561695D01*
X149823554Y-62661141D01*
X149784793Y-62546085D01*
X149791371Y-62543368D01*
X150223551Y-62111943D01*
X150457733Y-61547970D01*
X150458265Y-60937309D01*
X150225068Y-60372929D01*
X149843818Y-59991012D01*
X150223551Y-59611943D01*
X150457733Y-59047970D01*
X150458265Y-58437309D01*
X150225068Y-57872929D01*
X149793643Y-57440749D01*
X149229670Y-57206567D01*
X148619009Y-57206035D01*
X148054629Y-57439232D01*
X147622449Y-57870657D01*
X147422797Y-58351471D01*
X147225068Y-57872929D01*
X146793643Y-57440749D01*
X146229670Y-57206567D01*
X145619009Y-57206035D01*
X145054629Y-57439232D01*
X144622449Y-57870657D01*
X144388267Y-58434630D01*
X144387735Y-59045291D01*
X144467360Y-59238000D01*
X144003794Y-59238000D01*
X143963327Y-59140302D01*
X143823025Y-59000000D01*
X143963327Y-58859698D01*
X144060000Y-58626309D01*
X144060000Y-58285750D01*
X144060000Y-57714250D01*
X144060000Y-57373691D01*
X143963327Y-57140302D01*
X143784699Y-56961673D01*
X143551310Y-56865000D01*
X143298691Y-56865000D01*
X143085750Y-56865000D01*
X142927000Y-57023750D01*
X142927000Y-57873000D01*
X143901250Y-57873000D01*
X144060000Y-57714250D01*
X144060000Y-58285750D01*
X143901250Y-58127000D01*
X142927000Y-58127000D01*
X142927000Y-58147000D01*
X142673000Y-58147000D01*
X142673000Y-58127000D01*
X142673000Y-57873000D01*
X142673000Y-57023750D01*
X142514250Y-56865000D01*
X142301309Y-56865000D01*
X142048690Y-56865000D01*
X141815301Y-56961673D01*
X141636673Y-57140302D01*
X141540000Y-57373691D01*
X141540000Y-57714250D01*
X141698750Y-57873000D01*
X142673000Y-57873000D01*
X142673000Y-58127000D01*
X141698750Y-58127000D01*
X141540000Y-58285750D01*
X141540000Y-58626309D01*
X141636673Y-58859698D01*
X141776974Y-59000000D01*
X141636673Y-59140301D01*
X141540000Y-59373690D01*
X141540000Y-59626309D01*
X141540000Y-60626309D01*
X141599445Y-60769821D01*
X141515000Y-60973690D01*
X141515000Y-61226309D01*
X141515000Y-61926309D01*
X141611673Y-62159698D01*
X141790301Y-62338327D01*
X141939193Y-62400000D01*
X141790302Y-62461673D01*
X141611673Y-62640301D01*
X141515000Y-62873690D01*
X141515000Y-63126309D01*
X141515000Y-63214262D01*
X141488000Y-63350000D01*
X141515000Y-63485737D01*
X141515000Y-63826309D01*
X141611673Y-64059698D01*
X141662974Y-64111000D01*
X138489000Y-64111000D01*
X138489000Y-57400000D01*
X138421329Y-57059794D01*
X138228618Y-56771382D01*
X137940206Y-56578671D01*
X137679390Y-56526791D01*
X137679687Y-56186216D01*
X137515689Y-55789311D01*
X137212286Y-55485378D01*
X136815668Y-55320687D01*
X136386216Y-55320313D01*
X135989311Y-55484311D01*
X135894256Y-55579200D01*
X135000000Y-55579200D01*
X134857943Y-55579200D01*
X134861278Y-54585204D01*
X134934852Y-54407583D01*
X134934853Y-54407582D01*
X135007167Y-54044033D01*
X135007166Y-54030503D01*
X135019560Y-53968200D01*
X135019560Y-53282038D01*
X135032857Y-53262138D01*
X135085000Y-53000000D01*
X135085000Y-35685000D01*
X193715000Y-35685000D01*
X193715000Y-58542498D01*
X193152758Y-57979274D01*
X192276487Y-57615415D01*
X191985473Y-57615161D01*
X191985473Y-39127664D01*
X191623134Y-38250737D01*
X190952792Y-37579224D01*
X190076499Y-37215355D01*
X189127664Y-37214527D01*
X188250737Y-37576866D01*
X187579224Y-38247208D01*
X187215355Y-39123501D01*
X187214527Y-40072336D01*
X187576866Y-40949263D01*
X188247208Y-41620776D01*
X189123501Y-41984645D01*
X190072336Y-41985473D01*
X190949263Y-41623134D01*
X191620776Y-40952792D01*
X191984645Y-40076499D01*
X191985473Y-39127664D01*
X191985473Y-57615161D01*
X191534234Y-57614767D01*
X191534234Y-44476306D01*
X191285922Y-43875345D01*
X190826533Y-43415154D01*
X190226007Y-43165794D01*
X189575766Y-43165226D01*
X188974805Y-43413538D01*
X188514614Y-43872927D01*
X188265254Y-44473453D01*
X188264686Y-45123694D01*
X188512998Y-45724655D01*
X188972387Y-46184846D01*
X189572913Y-46434206D01*
X190223154Y-46434774D01*
X190824115Y-46186462D01*
X191284306Y-45727073D01*
X191533666Y-45126547D01*
X191534234Y-44476306D01*
X191534234Y-57614767D01*
X191327675Y-57614587D01*
X190450771Y-57976916D01*
X189779274Y-58647242D01*
X189679687Y-58887074D01*
X189679687Y-58086216D01*
X189515689Y-57689311D01*
X189212286Y-57385378D01*
X188815668Y-57220687D01*
X188598128Y-57220497D01*
X187220427Y-55842797D01*
X187115689Y-55589311D01*
X186812286Y-55285378D01*
X186415668Y-55120687D01*
X185986216Y-55120313D01*
X185589311Y-55284311D01*
X185285378Y-55587714D01*
X185120687Y-55984332D01*
X185120313Y-56413784D01*
X185284311Y-56810689D01*
X185587714Y-57114622D01*
X185984332Y-57279313D01*
X186413784Y-57279687D01*
X186476247Y-57253877D01*
X187520500Y-58298131D01*
X187520313Y-58513784D01*
X187684311Y-58910689D01*
X187987714Y-59214622D01*
X188384332Y-59379313D01*
X188813784Y-59379687D01*
X189210689Y-59215689D01*
X189514622Y-58912286D01*
X189679313Y-58515668D01*
X189679687Y-58086216D01*
X189679687Y-58887074D01*
X189415415Y-59523513D01*
X189414587Y-60472325D01*
X189776916Y-61349229D01*
X190447242Y-62020726D01*
X191323513Y-62384585D01*
X192272325Y-62385413D01*
X193149229Y-62023084D01*
X193715000Y-61458299D01*
X193715000Y-66142498D01*
X193152758Y-65579274D01*
X192276487Y-65215415D01*
X191327675Y-65214587D01*
X190450771Y-65576916D01*
X189779274Y-66247242D01*
X189415415Y-67123513D01*
X189414587Y-68072325D01*
X189776916Y-68949229D01*
X190447242Y-69620726D01*
X191323513Y-69984585D01*
X192272325Y-69985413D01*
X193149229Y-69623084D01*
X193715000Y-69058299D01*
X193715000Y-78512971D01*
X193514965Y-78030042D01*
X193248163Y-77931443D01*
X193068557Y-78111048D01*
X193068557Y-77751837D01*
X192969958Y-77485035D01*
X192360418Y-77258599D01*
X191710623Y-77282659D01*
X191222042Y-77485035D01*
X191123443Y-77751837D01*
X192096000Y-78724395D01*
X193068557Y-77751837D01*
X193068557Y-78111048D01*
X192275605Y-78904000D01*
X193248163Y-79876557D01*
X193514965Y-79777958D01*
X193715000Y-79239486D01*
X193715000Y-94015000D01*
M02*
