%FSLAX46Y46*%
G04 Gerber Fmt 4.6, Leading zero omitted, Abs format (unit mm)*
G04 Created by KiCad (PCBNEW (2014-10-27 BZR 5228)-product) date 14/01/2015 20:27:40*
%MOMM*%
G01*
G04 APERTURE LIST*
%ADD10C,0.100000*%
%ADD11C,0.150000*%
G04 APERTURE END LIST*
D10*
D11*
X159650000Y-68700000D02*
X159650000Y-69700000D01*
X157950000Y-69700000D02*
X157950000Y-68700000D01*
X135950000Y-74100000D02*
X135950000Y-73100000D01*
X137650000Y-73100000D02*
X137650000Y-74100000D01*
X143650000Y-58500000D02*
X143650000Y-59500000D01*
X141950000Y-59500000D02*
X141950000Y-58500000D01*
X149000000Y-82150000D02*
X150000000Y-82150000D01*
X150000000Y-83850000D02*
X149000000Y-83850000D01*
X143400000Y-85850000D02*
X142400000Y-85850000D01*
X142400000Y-84150000D02*
X143400000Y-84150000D01*
X147950000Y-78300000D02*
X147950000Y-79300000D01*
X146250000Y-79300000D02*
X146250000Y-78300000D01*
X144150000Y-90100000D02*
X144150000Y-89100000D01*
X145850000Y-89100000D02*
X145850000Y-90100000D01*
X182150000Y-84300000D02*
X182150000Y-83300000D01*
X183850000Y-83300000D02*
X183850000Y-84300000D01*
X178800000Y-83850000D02*
X177800000Y-83850000D01*
X177800000Y-82150000D02*
X178800000Y-82150000D01*
X186350000Y-84100000D02*
X186350000Y-83100000D01*
X188050000Y-83100000D02*
X188050000Y-84100000D01*
X146350000Y-49100000D02*
X146350000Y-48100000D01*
X148050000Y-48100000D02*
X148050000Y-49100000D01*
X146100000Y-38950000D02*
X147100000Y-38950000D01*
X147100000Y-40650000D02*
X146100000Y-40650000D01*
X163500000Y-56150000D02*
X164500000Y-56150000D01*
X164500000Y-57850000D02*
X163500000Y-57850000D01*
X177450000Y-45300000D02*
X177450000Y-46300000D01*
X175750000Y-46300000D02*
X175750000Y-45300000D01*
X180850000Y-45300000D02*
X180850000Y-46300000D01*
X179150000Y-46300000D02*
X179150000Y-45300000D01*
X174450000Y-45300000D02*
X174450000Y-46300000D01*
X172750000Y-46300000D02*
X172750000Y-45300000D01*
X177046000Y-57443000D02*
X178046000Y-57443000D01*
X178046000Y-59143000D02*
X177046000Y-59143000D01*
X170500000Y-62650000D02*
X169500000Y-62650000D01*
X169500000Y-60950000D02*
X170500000Y-60950000D01*
X140060000Y-78143000D02*
X140060000Y-75857000D01*
X140060000Y-75857000D02*
X141711000Y-75857000D01*
X143489000Y-78143000D02*
X145140000Y-78143000D01*
X145140000Y-78143000D02*
X145140000Y-75857000D01*
X145140000Y-75857000D02*
X143489000Y-75857000D01*
X141711000Y-78143000D02*
X140060000Y-78143000D01*
X153100000Y-75800000D02*
X153100000Y-76700000D01*
X153100000Y-76700000D02*
X153900000Y-76700000D01*
X156100000Y-75800000D02*
X156100000Y-76700000D01*
X156100000Y-76700000D02*
X155300000Y-76700000D01*
X154900000Y-75300000D02*
X154300000Y-75300000D01*
X150000000Y-77675000D02*
X151200000Y-77675000D01*
X151200000Y-75925000D02*
X150000000Y-75925000D01*
X159800000Y-71725000D02*
X158600000Y-71725000D01*
X158600000Y-73475000D02*
X159800000Y-73475000D01*
X143675000Y-63000000D02*
X143675000Y-61800000D01*
X141925000Y-61800000D02*
X141925000Y-63000000D01*
X148600000Y-44125000D02*
X147400000Y-44125000D01*
X147400000Y-45875000D02*
X148600000Y-45875000D01*
X148000000Y-43475000D02*
X149200000Y-43475000D01*
X149200000Y-41725000D02*
X148000000Y-41725000D01*
X153800000Y-64075000D02*
X155000000Y-64075000D01*
X155000000Y-62325000D02*
X153800000Y-62325000D01*
X152475000Y-59800000D02*
X152475000Y-58600000D01*
X150725000Y-58600000D02*
X150725000Y-59800000D01*
X154800000Y-59275000D02*
X156000000Y-59275000D01*
X156000000Y-57525000D02*
X154800000Y-57525000D01*
X150350000Y-73700000D02*
X150350000Y-72700000D01*
X152050000Y-72700000D02*
X152050000Y-73700000D01*
X159950000Y-89200000D02*
X159950000Y-90200000D01*
X158250000Y-90200000D02*
X158250000Y-89200000D01*
X154900000Y-73050000D02*
X153900000Y-73050000D01*
X153900000Y-71350000D02*
X154900000Y-71350000D01*
X175450000Y-67800000D02*
X175450000Y-68800000D01*
X173750000Y-68800000D02*
X173750000Y-67800000D01*
X166950000Y-90500000D02*
X166950000Y-89500000D01*
X168650000Y-89500000D02*
X168650000Y-90500000D01*
X169775000Y-47300000D02*
X169775000Y-45300000D01*
X171825000Y-45300000D02*
X171825000Y-47300000D01*
X160757143Y-69033334D02*
X160804762Y-68985715D01*
X160852381Y-68842858D01*
X160852381Y-68747620D01*
X160804762Y-68604762D01*
X160709524Y-68509524D01*
X160614286Y-68461905D01*
X160423810Y-68414286D01*
X160280952Y-68414286D01*
X160090476Y-68461905D01*
X159995238Y-68509524D01*
X159900000Y-68604762D01*
X159852381Y-68747620D01*
X159852381Y-68842858D01*
X159900000Y-68985715D01*
X159947619Y-69033334D01*
X160852381Y-69985715D02*
X160852381Y-69414286D01*
X160852381Y-69700000D02*
X159852381Y-69700000D01*
X159995238Y-69604762D01*
X160090476Y-69509524D01*
X160138095Y-69414286D01*
X135557143Y-73433334D02*
X135604762Y-73385715D01*
X135652381Y-73242858D01*
X135652381Y-73147620D01*
X135604762Y-73004762D01*
X135509524Y-72909524D01*
X135414286Y-72861905D01*
X135223810Y-72814286D01*
X135080952Y-72814286D01*
X134890476Y-72861905D01*
X134795238Y-72909524D01*
X134700000Y-73004762D01*
X134652381Y-73147620D01*
X134652381Y-73242858D01*
X134700000Y-73385715D01*
X134747619Y-73433334D01*
X134747619Y-73814286D02*
X134700000Y-73861905D01*
X134652381Y-73957143D01*
X134652381Y-74195239D01*
X134700000Y-74290477D01*
X134747619Y-74338096D01*
X134842857Y-74385715D01*
X134938095Y-74385715D01*
X135080952Y-74338096D01*
X135652381Y-73766667D01*
X135652381Y-74385715D01*
X145257143Y-58833334D02*
X145304762Y-58785715D01*
X145352381Y-58642858D01*
X145352381Y-58547620D01*
X145304762Y-58404762D01*
X145209524Y-58309524D01*
X145114286Y-58261905D01*
X144923810Y-58214286D01*
X144780952Y-58214286D01*
X144590476Y-58261905D01*
X144495238Y-58309524D01*
X144400000Y-58404762D01*
X144352381Y-58547620D01*
X144352381Y-58642858D01*
X144400000Y-58785715D01*
X144447619Y-58833334D01*
X144352381Y-59166667D02*
X144352381Y-59785715D01*
X144733333Y-59452381D01*
X144733333Y-59595239D01*
X144780952Y-59690477D01*
X144828571Y-59738096D01*
X144923810Y-59785715D01*
X145161905Y-59785715D01*
X145257143Y-59738096D01*
X145304762Y-59690477D01*
X145352381Y-59595239D01*
X145352381Y-59309524D01*
X145304762Y-59214286D01*
X145257143Y-59166667D01*
X149666666Y-81257143D02*
X149714285Y-81304762D01*
X149857142Y-81352381D01*
X149952380Y-81352381D01*
X150095238Y-81304762D01*
X150190476Y-81209524D01*
X150238095Y-81114286D01*
X150285714Y-80923810D01*
X150285714Y-80780952D01*
X150238095Y-80590476D01*
X150190476Y-80495238D01*
X150095238Y-80400000D01*
X149952380Y-80352381D01*
X149857142Y-80352381D01*
X149714285Y-80400000D01*
X149666666Y-80447619D01*
X148761904Y-80352381D02*
X149238095Y-80352381D01*
X149285714Y-80828571D01*
X149238095Y-80780952D01*
X149142857Y-80733333D01*
X148904761Y-80733333D01*
X148809523Y-80780952D01*
X148761904Y-80828571D01*
X148714285Y-80923810D01*
X148714285Y-81161905D01*
X148761904Y-81257143D01*
X148809523Y-81304762D01*
X148904761Y-81352381D01*
X149142857Y-81352381D01*
X149238095Y-81304762D01*
X149285714Y-81257143D01*
X143066666Y-87457143D02*
X143114285Y-87504762D01*
X143257142Y-87552381D01*
X143352380Y-87552381D01*
X143495238Y-87504762D01*
X143590476Y-87409524D01*
X143638095Y-87314286D01*
X143685714Y-87123810D01*
X143685714Y-86980952D01*
X143638095Y-86790476D01*
X143590476Y-86695238D01*
X143495238Y-86600000D01*
X143352380Y-86552381D01*
X143257142Y-86552381D01*
X143114285Y-86600000D01*
X143066666Y-86647619D01*
X142209523Y-86552381D02*
X142400000Y-86552381D01*
X142495238Y-86600000D01*
X142542857Y-86647619D01*
X142638095Y-86790476D01*
X142685714Y-86980952D01*
X142685714Y-87361905D01*
X142638095Y-87457143D01*
X142590476Y-87504762D01*
X142495238Y-87552381D01*
X142304761Y-87552381D01*
X142209523Y-87504762D01*
X142161904Y-87457143D01*
X142114285Y-87361905D01*
X142114285Y-87123810D01*
X142161904Y-87028571D01*
X142209523Y-86980952D01*
X142304761Y-86933333D01*
X142495238Y-86933333D01*
X142590476Y-86980952D01*
X142638095Y-87028571D01*
X142685714Y-87123810D01*
X149557143Y-78633334D02*
X149604762Y-78585715D01*
X149652381Y-78442858D01*
X149652381Y-78347620D01*
X149604762Y-78204762D01*
X149509524Y-78109524D01*
X149414286Y-78061905D01*
X149223810Y-78014286D01*
X149080952Y-78014286D01*
X148890476Y-78061905D01*
X148795238Y-78109524D01*
X148700000Y-78204762D01*
X148652381Y-78347620D01*
X148652381Y-78442858D01*
X148700000Y-78585715D01*
X148747619Y-78633334D01*
X149080952Y-79204762D02*
X149033333Y-79109524D01*
X148985714Y-79061905D01*
X148890476Y-79014286D01*
X148842857Y-79014286D01*
X148747619Y-79061905D01*
X148700000Y-79109524D01*
X148652381Y-79204762D01*
X148652381Y-79395239D01*
X148700000Y-79490477D01*
X148747619Y-79538096D01*
X148842857Y-79585715D01*
X148890476Y-79585715D01*
X148985714Y-79538096D01*
X149033333Y-79490477D01*
X149080952Y-79395239D01*
X149080952Y-79204762D01*
X149128571Y-79109524D01*
X149176190Y-79061905D01*
X149271429Y-79014286D01*
X149461905Y-79014286D01*
X149557143Y-79061905D01*
X149604762Y-79109524D01*
X149652381Y-79204762D01*
X149652381Y-79395239D01*
X149604762Y-79490477D01*
X149557143Y-79538096D01*
X149461905Y-79585715D01*
X149271429Y-79585715D01*
X149176190Y-79538096D01*
X149128571Y-79490477D01*
X149080952Y-79395239D01*
X143257143Y-89433334D02*
X143304762Y-89385715D01*
X143352381Y-89242858D01*
X143352381Y-89147620D01*
X143304762Y-89004762D01*
X143209524Y-88909524D01*
X143114286Y-88861905D01*
X142923810Y-88814286D01*
X142780952Y-88814286D01*
X142590476Y-88861905D01*
X142495238Y-88909524D01*
X142400000Y-89004762D01*
X142352381Y-89147620D01*
X142352381Y-89242858D01*
X142400000Y-89385715D01*
X142447619Y-89433334D01*
X143352381Y-89909524D02*
X143352381Y-90100000D01*
X143304762Y-90195239D01*
X143257143Y-90242858D01*
X143114286Y-90338096D01*
X142923810Y-90385715D01*
X142542857Y-90385715D01*
X142447619Y-90338096D01*
X142400000Y-90290477D01*
X142352381Y-90195239D01*
X142352381Y-90004762D01*
X142400000Y-89909524D01*
X142447619Y-89861905D01*
X142542857Y-89814286D01*
X142780952Y-89814286D01*
X142876190Y-89861905D01*
X142923810Y-89909524D01*
X142971429Y-90004762D01*
X142971429Y-90195239D01*
X142923810Y-90290477D01*
X142876190Y-90338096D01*
X142780952Y-90385715D01*
X181257143Y-83157143D02*
X181304762Y-83109524D01*
X181352381Y-82966667D01*
X181352381Y-82871429D01*
X181304762Y-82728571D01*
X181209524Y-82633333D01*
X181114286Y-82585714D01*
X180923810Y-82538095D01*
X180780952Y-82538095D01*
X180590476Y-82585714D01*
X180495238Y-82633333D01*
X180400000Y-82728571D01*
X180352381Y-82871429D01*
X180352381Y-82966667D01*
X180400000Y-83109524D01*
X180447619Y-83157143D01*
X181352381Y-84109524D02*
X181352381Y-83538095D01*
X181352381Y-83823809D02*
X180352381Y-83823809D01*
X180495238Y-83728571D01*
X180590476Y-83633333D01*
X180638095Y-83538095D01*
X180352381Y-84728571D02*
X180352381Y-84823810D01*
X180400000Y-84919048D01*
X180447619Y-84966667D01*
X180542857Y-85014286D01*
X180733333Y-85061905D01*
X180971429Y-85061905D01*
X181161905Y-85014286D01*
X181257143Y-84966667D01*
X181304762Y-84919048D01*
X181352381Y-84823810D01*
X181352381Y-84728571D01*
X181304762Y-84633333D01*
X181257143Y-84585714D01*
X181161905Y-84538095D01*
X180971429Y-84490476D01*
X180733333Y-84490476D01*
X180542857Y-84538095D01*
X180447619Y-84585714D01*
X180400000Y-84633333D01*
X180352381Y-84728571D01*
X178942857Y-85457143D02*
X178990476Y-85504762D01*
X179133333Y-85552381D01*
X179228571Y-85552381D01*
X179371429Y-85504762D01*
X179466667Y-85409524D01*
X179514286Y-85314286D01*
X179561905Y-85123810D01*
X179561905Y-84980952D01*
X179514286Y-84790476D01*
X179466667Y-84695238D01*
X179371429Y-84600000D01*
X179228571Y-84552381D01*
X179133333Y-84552381D01*
X178990476Y-84600000D01*
X178942857Y-84647619D01*
X177990476Y-85552381D02*
X178561905Y-85552381D01*
X178276191Y-85552381D02*
X178276191Y-84552381D01*
X178371429Y-84695238D01*
X178466667Y-84790476D01*
X178561905Y-84838095D01*
X177038095Y-85552381D02*
X177609524Y-85552381D01*
X177323810Y-85552381D02*
X177323810Y-84552381D01*
X177419048Y-84695238D01*
X177514286Y-84790476D01*
X177609524Y-84838095D01*
X185457143Y-82957143D02*
X185504762Y-82909524D01*
X185552381Y-82766667D01*
X185552381Y-82671429D01*
X185504762Y-82528571D01*
X185409524Y-82433333D01*
X185314286Y-82385714D01*
X185123810Y-82338095D01*
X184980952Y-82338095D01*
X184790476Y-82385714D01*
X184695238Y-82433333D01*
X184600000Y-82528571D01*
X184552381Y-82671429D01*
X184552381Y-82766667D01*
X184600000Y-82909524D01*
X184647619Y-82957143D01*
X185552381Y-83909524D02*
X185552381Y-83338095D01*
X185552381Y-83623809D02*
X184552381Y-83623809D01*
X184695238Y-83528571D01*
X184790476Y-83433333D01*
X184838095Y-83338095D01*
X184552381Y-84242857D02*
X184552381Y-84861905D01*
X184933333Y-84528571D01*
X184933333Y-84671429D01*
X184980952Y-84766667D01*
X185028571Y-84814286D01*
X185123810Y-84861905D01*
X185361905Y-84861905D01*
X185457143Y-84814286D01*
X185504762Y-84766667D01*
X185552381Y-84671429D01*
X185552381Y-84385714D01*
X185504762Y-84290476D01*
X185457143Y-84242857D01*
X145957143Y-47757143D02*
X146004762Y-47709524D01*
X146052381Y-47566667D01*
X146052381Y-47471429D01*
X146004762Y-47328571D01*
X145909524Y-47233333D01*
X145814286Y-47185714D01*
X145623810Y-47138095D01*
X145480952Y-47138095D01*
X145290476Y-47185714D01*
X145195238Y-47233333D01*
X145100000Y-47328571D01*
X145052381Y-47471429D01*
X145052381Y-47566667D01*
X145100000Y-47709524D01*
X145147619Y-47757143D01*
X146052381Y-48709524D02*
X146052381Y-48138095D01*
X146052381Y-48423809D02*
X145052381Y-48423809D01*
X145195238Y-48328571D01*
X145290476Y-48233333D01*
X145338095Y-48138095D01*
X145052381Y-49614286D02*
X145052381Y-49138095D01*
X145528571Y-49090476D01*
X145480952Y-49138095D01*
X145433333Y-49233333D01*
X145433333Y-49471429D01*
X145480952Y-49566667D01*
X145528571Y-49614286D01*
X145623810Y-49661905D01*
X145861905Y-49661905D01*
X145957143Y-49614286D01*
X146004762Y-49566667D01*
X146052381Y-49471429D01*
X146052381Y-49233333D01*
X146004762Y-49138095D01*
X145957143Y-49090476D01*
X147442857Y-38557143D02*
X147490476Y-38604762D01*
X147633333Y-38652381D01*
X147728571Y-38652381D01*
X147871429Y-38604762D01*
X147966667Y-38509524D01*
X148014286Y-38414286D01*
X148061905Y-38223810D01*
X148061905Y-38080952D01*
X148014286Y-37890476D01*
X147966667Y-37795238D01*
X147871429Y-37700000D01*
X147728571Y-37652381D01*
X147633333Y-37652381D01*
X147490476Y-37700000D01*
X147442857Y-37747619D01*
X146490476Y-38652381D02*
X147061905Y-38652381D01*
X146776191Y-38652381D02*
X146776191Y-37652381D01*
X146871429Y-37795238D01*
X146966667Y-37890476D01*
X147061905Y-37938095D01*
X145633333Y-37652381D02*
X145823810Y-37652381D01*
X145919048Y-37700000D01*
X145966667Y-37747619D01*
X146061905Y-37890476D01*
X146109524Y-38080952D01*
X146109524Y-38461905D01*
X146061905Y-38557143D01*
X146014286Y-38604762D01*
X145919048Y-38652381D01*
X145728571Y-38652381D01*
X145633333Y-38604762D01*
X145585714Y-38557143D01*
X145538095Y-38461905D01*
X145538095Y-38223810D01*
X145585714Y-38128571D01*
X145633333Y-38080952D01*
X145728571Y-38033333D01*
X145919048Y-38033333D01*
X146014286Y-38080952D01*
X146061905Y-38128571D01*
X146109524Y-38223810D01*
X164642857Y-55257143D02*
X164690476Y-55304762D01*
X164833333Y-55352381D01*
X164928571Y-55352381D01*
X165071429Y-55304762D01*
X165166667Y-55209524D01*
X165214286Y-55114286D01*
X165261905Y-54923810D01*
X165261905Y-54780952D01*
X165214286Y-54590476D01*
X165166667Y-54495238D01*
X165071429Y-54400000D01*
X164928571Y-54352381D01*
X164833333Y-54352381D01*
X164690476Y-54400000D01*
X164642857Y-54447619D01*
X163690476Y-55352381D02*
X164261905Y-55352381D01*
X163976191Y-55352381D02*
X163976191Y-54352381D01*
X164071429Y-54495238D01*
X164166667Y-54590476D01*
X164261905Y-54638095D01*
X163119048Y-54780952D02*
X163214286Y-54733333D01*
X163261905Y-54685714D01*
X163309524Y-54590476D01*
X163309524Y-54542857D01*
X163261905Y-54447619D01*
X163214286Y-54400000D01*
X163119048Y-54352381D01*
X162928571Y-54352381D01*
X162833333Y-54400000D01*
X162785714Y-54447619D01*
X162738095Y-54542857D01*
X162738095Y-54590476D01*
X162785714Y-54685714D01*
X162833333Y-54733333D01*
X162928571Y-54780952D01*
X163119048Y-54780952D01*
X163214286Y-54828571D01*
X163261905Y-54876190D01*
X163309524Y-54971429D01*
X163309524Y-55161905D01*
X163261905Y-55257143D01*
X163214286Y-55304762D01*
X163119048Y-55352381D01*
X162928571Y-55352381D01*
X162833333Y-55304762D01*
X162785714Y-55257143D01*
X162738095Y-55161905D01*
X162738095Y-54971429D01*
X162785714Y-54876190D01*
X162833333Y-54828571D01*
X162928571Y-54780952D01*
X176957143Y-48757143D02*
X177004762Y-48709524D01*
X177052381Y-48566667D01*
X177052381Y-48471429D01*
X177004762Y-48328571D01*
X176909524Y-48233333D01*
X176814286Y-48185714D01*
X176623810Y-48138095D01*
X176480952Y-48138095D01*
X176290476Y-48185714D01*
X176195238Y-48233333D01*
X176100000Y-48328571D01*
X176052381Y-48471429D01*
X176052381Y-48566667D01*
X176100000Y-48709524D01*
X176147619Y-48757143D01*
X177052381Y-49709524D02*
X177052381Y-49138095D01*
X177052381Y-49423809D02*
X176052381Y-49423809D01*
X176195238Y-49328571D01*
X176290476Y-49233333D01*
X176338095Y-49138095D01*
X177052381Y-50185714D02*
X177052381Y-50376190D01*
X177004762Y-50471429D01*
X176957143Y-50519048D01*
X176814286Y-50614286D01*
X176623810Y-50661905D01*
X176242857Y-50661905D01*
X176147619Y-50614286D01*
X176100000Y-50566667D01*
X176052381Y-50471429D01*
X176052381Y-50280952D01*
X176100000Y-50185714D01*
X176147619Y-50138095D01*
X176242857Y-50090476D01*
X176480952Y-50090476D01*
X176576190Y-50138095D01*
X176623810Y-50185714D01*
X176671429Y-50280952D01*
X176671429Y-50471429D01*
X176623810Y-50566667D01*
X176576190Y-50614286D01*
X176480952Y-50661905D01*
X180230243Y-48535943D02*
X180277862Y-48488324D01*
X180325481Y-48345467D01*
X180325481Y-48250229D01*
X180277862Y-48107371D01*
X180182624Y-48012133D01*
X180087386Y-47964514D01*
X179896910Y-47916895D01*
X179754052Y-47916895D01*
X179563576Y-47964514D01*
X179468338Y-48012133D01*
X179373100Y-48107371D01*
X179325481Y-48250229D01*
X179325481Y-48345467D01*
X179373100Y-48488324D01*
X179420719Y-48535943D01*
X179420719Y-48916895D02*
X179373100Y-48964514D01*
X179325481Y-49059752D01*
X179325481Y-49297848D01*
X179373100Y-49393086D01*
X179420719Y-49440705D01*
X179515957Y-49488324D01*
X179611195Y-49488324D01*
X179754052Y-49440705D01*
X180325481Y-48869276D01*
X180325481Y-49488324D01*
X179325481Y-50107371D02*
X179325481Y-50202610D01*
X179373100Y-50297848D01*
X179420719Y-50345467D01*
X179515957Y-50393086D01*
X179706433Y-50440705D01*
X179944529Y-50440705D01*
X180135005Y-50393086D01*
X180230243Y-50345467D01*
X180277862Y-50297848D01*
X180325481Y-50202610D01*
X180325481Y-50107371D01*
X180277862Y-50012133D01*
X180230243Y-49964514D01*
X180135005Y-49916895D01*
X179944529Y-49869276D01*
X179706433Y-49869276D01*
X179515957Y-49916895D01*
X179420719Y-49964514D01*
X179373100Y-50012133D01*
X179325481Y-50107371D01*
X174157143Y-48757143D02*
X174204762Y-48709524D01*
X174252381Y-48566667D01*
X174252381Y-48471429D01*
X174204762Y-48328571D01*
X174109524Y-48233333D01*
X174014286Y-48185714D01*
X173823810Y-48138095D01*
X173680952Y-48138095D01*
X173490476Y-48185714D01*
X173395238Y-48233333D01*
X173300000Y-48328571D01*
X173252381Y-48471429D01*
X173252381Y-48566667D01*
X173300000Y-48709524D01*
X173347619Y-48757143D01*
X173347619Y-49138095D02*
X173300000Y-49185714D01*
X173252381Y-49280952D01*
X173252381Y-49519048D01*
X173300000Y-49614286D01*
X173347619Y-49661905D01*
X173442857Y-49709524D01*
X173538095Y-49709524D01*
X173680952Y-49661905D01*
X174252381Y-49090476D01*
X174252381Y-49709524D01*
X174252381Y-50661905D02*
X174252381Y-50090476D01*
X174252381Y-50376190D02*
X173252381Y-50376190D01*
X173395238Y-50280952D01*
X173490476Y-50185714D01*
X173538095Y-50090476D01*
X178188857Y-56550143D02*
X178236476Y-56597762D01*
X178379333Y-56645381D01*
X178474571Y-56645381D01*
X178617429Y-56597762D01*
X178712667Y-56502524D01*
X178760286Y-56407286D01*
X178807905Y-56216810D01*
X178807905Y-56073952D01*
X178760286Y-55883476D01*
X178712667Y-55788238D01*
X178617429Y-55693000D01*
X178474571Y-55645381D01*
X178379333Y-55645381D01*
X178236476Y-55693000D01*
X178188857Y-55740619D01*
X177807905Y-55740619D02*
X177760286Y-55693000D01*
X177665048Y-55645381D01*
X177426952Y-55645381D01*
X177331714Y-55693000D01*
X177284095Y-55740619D01*
X177236476Y-55835857D01*
X177236476Y-55931095D01*
X177284095Y-56073952D01*
X177855524Y-56645381D01*
X177236476Y-56645381D01*
X176903143Y-55645381D02*
X176284095Y-55645381D01*
X176617429Y-56026333D01*
X176474571Y-56026333D01*
X176379333Y-56073952D01*
X176331714Y-56121571D01*
X176284095Y-56216810D01*
X176284095Y-56454905D01*
X176331714Y-56550143D01*
X176379333Y-56597762D01*
X176474571Y-56645381D01*
X176760286Y-56645381D01*
X176855524Y-56597762D01*
X176903143Y-56550143D01*
X170642857Y-64257143D02*
X170690476Y-64304762D01*
X170833333Y-64352381D01*
X170928571Y-64352381D01*
X171071429Y-64304762D01*
X171166667Y-64209524D01*
X171214286Y-64114286D01*
X171261905Y-63923810D01*
X171261905Y-63780952D01*
X171214286Y-63590476D01*
X171166667Y-63495238D01*
X171071429Y-63400000D01*
X170928571Y-63352381D01*
X170833333Y-63352381D01*
X170690476Y-63400000D01*
X170642857Y-63447619D01*
X170261905Y-63447619D02*
X170214286Y-63400000D01*
X170119048Y-63352381D01*
X169880952Y-63352381D01*
X169785714Y-63400000D01*
X169738095Y-63447619D01*
X169690476Y-63542857D01*
X169690476Y-63638095D01*
X169738095Y-63780952D01*
X170309524Y-64352381D01*
X169690476Y-64352381D01*
X168833333Y-63685714D02*
X168833333Y-64352381D01*
X169071429Y-63304762D02*
X169309524Y-64019048D01*
X168690476Y-64019048D01*
X143433333Y-76928571D02*
X143766667Y-76928571D01*
X143766667Y-77452381D02*
X143766667Y-76452381D01*
X143290476Y-76452381D01*
X142576190Y-76928571D02*
X142433333Y-76976190D01*
X142385714Y-77023810D01*
X142338095Y-77119048D01*
X142338095Y-77261905D01*
X142385714Y-77357143D01*
X142433333Y-77404762D01*
X142528571Y-77452381D01*
X142909524Y-77452381D01*
X142909524Y-76452381D01*
X142576190Y-76452381D01*
X142480952Y-76500000D01*
X142433333Y-76547619D01*
X142385714Y-76642857D01*
X142385714Y-76738095D01*
X142433333Y-76833333D01*
X142480952Y-76880952D01*
X142576190Y-76928571D01*
X142909524Y-76928571D01*
X141385714Y-77452381D02*
X141957143Y-77452381D01*
X141671429Y-77452381D02*
X141671429Y-76452381D01*
X141766667Y-76595238D01*
X141861905Y-76690476D01*
X141957143Y-76738095D01*
X156095238Y-77147619D02*
X156190476Y-77100000D01*
X156285714Y-77004762D01*
X156428571Y-76861905D01*
X156523810Y-76814286D01*
X156619048Y-76814286D01*
X156571429Y-77052381D02*
X156666667Y-77004762D01*
X156761905Y-76909524D01*
X156809524Y-76719048D01*
X156809524Y-76385714D01*
X156761905Y-76195238D01*
X156666667Y-76100000D01*
X156571429Y-76052381D01*
X156380952Y-76052381D01*
X156285714Y-76100000D01*
X156190476Y-76195238D01*
X156142857Y-76385714D01*
X156142857Y-76719048D01*
X156190476Y-76909524D01*
X156285714Y-77004762D01*
X156380952Y-77052381D01*
X156571429Y-77052381D01*
X155190476Y-77052381D02*
X155761905Y-77052381D01*
X155476191Y-77052381D02*
X155476191Y-76052381D01*
X155571429Y-76195238D01*
X155666667Y-76290476D01*
X155761905Y-76338095D01*
X147966666Y-77052381D02*
X148300000Y-76576190D01*
X148538095Y-77052381D02*
X148538095Y-76052381D01*
X148157142Y-76052381D01*
X148061904Y-76100000D01*
X148014285Y-76147619D01*
X147966666Y-76242857D01*
X147966666Y-76385714D01*
X148014285Y-76480952D01*
X148061904Y-76528571D01*
X148157142Y-76576190D01*
X148538095Y-76576190D01*
X147014285Y-77052381D02*
X147585714Y-77052381D01*
X147300000Y-77052381D02*
X147300000Y-76052381D01*
X147395238Y-76195238D01*
X147490476Y-76290476D01*
X147585714Y-76338095D01*
X159366666Y-74652381D02*
X159700000Y-74176190D01*
X159938095Y-74652381D02*
X159938095Y-73652381D01*
X159557142Y-73652381D01*
X159461904Y-73700000D01*
X159414285Y-73747619D01*
X159366666Y-73842857D01*
X159366666Y-73985714D01*
X159414285Y-74080952D01*
X159461904Y-74128571D01*
X159557142Y-74176190D01*
X159938095Y-74176190D01*
X158985714Y-73747619D02*
X158938095Y-73700000D01*
X158842857Y-73652381D01*
X158604761Y-73652381D01*
X158509523Y-73700000D01*
X158461904Y-73747619D01*
X158414285Y-73842857D01*
X158414285Y-73938095D01*
X158461904Y-74080952D01*
X159033333Y-74652381D01*
X158414285Y-74652381D01*
X141152381Y-62233334D02*
X140676190Y-61900000D01*
X141152381Y-61661905D02*
X140152381Y-61661905D01*
X140152381Y-62042858D01*
X140200000Y-62138096D01*
X140247619Y-62185715D01*
X140342857Y-62233334D01*
X140485714Y-62233334D01*
X140580952Y-62185715D01*
X140628571Y-62138096D01*
X140676190Y-62042858D01*
X140676190Y-61661905D01*
X140485714Y-63090477D02*
X141152381Y-63090477D01*
X140104762Y-62852381D02*
X140819048Y-62614286D01*
X140819048Y-63233334D01*
X145566666Y-45452381D02*
X145900000Y-44976190D01*
X146138095Y-45452381D02*
X146138095Y-44452381D01*
X145757142Y-44452381D01*
X145661904Y-44500000D01*
X145614285Y-44547619D01*
X145566666Y-44642857D01*
X145566666Y-44785714D01*
X145614285Y-44880952D01*
X145661904Y-44928571D01*
X145757142Y-44976190D01*
X146138095Y-44976190D01*
X144661904Y-44452381D02*
X145138095Y-44452381D01*
X145185714Y-44928571D01*
X145138095Y-44880952D01*
X145042857Y-44833333D01*
X144804761Y-44833333D01*
X144709523Y-44880952D01*
X144661904Y-44928571D01*
X144614285Y-45023810D01*
X144614285Y-45261905D01*
X144661904Y-45357143D01*
X144709523Y-45404762D01*
X144804761Y-45452381D01*
X145042857Y-45452381D01*
X145138095Y-45404762D01*
X145185714Y-45357143D01*
X146166666Y-43052381D02*
X146500000Y-42576190D01*
X146738095Y-43052381D02*
X146738095Y-42052381D01*
X146357142Y-42052381D01*
X146261904Y-42100000D01*
X146214285Y-42147619D01*
X146166666Y-42242857D01*
X146166666Y-42385714D01*
X146214285Y-42480952D01*
X146261904Y-42528571D01*
X146357142Y-42576190D01*
X146738095Y-42576190D01*
X145833333Y-42052381D02*
X145166666Y-42052381D01*
X145595238Y-43052381D01*
X155042857Y-61552381D02*
X155376191Y-61076190D01*
X155614286Y-61552381D02*
X155614286Y-60552381D01*
X155233333Y-60552381D01*
X155138095Y-60600000D01*
X155090476Y-60647619D01*
X155042857Y-60742857D01*
X155042857Y-60885714D01*
X155090476Y-60980952D01*
X155138095Y-61028571D01*
X155233333Y-61076190D01*
X155614286Y-61076190D01*
X154090476Y-61552381D02*
X154661905Y-61552381D01*
X154376191Y-61552381D02*
X154376191Y-60552381D01*
X154471429Y-60695238D01*
X154566667Y-60790476D01*
X154661905Y-60838095D01*
X153471429Y-60552381D02*
X153376190Y-60552381D01*
X153280952Y-60600000D01*
X153233333Y-60647619D01*
X153185714Y-60742857D01*
X153138095Y-60933333D01*
X153138095Y-61171429D01*
X153185714Y-61361905D01*
X153233333Y-61457143D01*
X153280952Y-61504762D01*
X153376190Y-61552381D01*
X153471429Y-61552381D01*
X153566667Y-61504762D01*
X153614286Y-61457143D01*
X153661905Y-61361905D01*
X153709524Y-61171429D01*
X153709524Y-60933333D01*
X153661905Y-60742857D01*
X153614286Y-60647619D01*
X153566667Y-60600000D01*
X153471429Y-60552381D01*
X149952381Y-58557143D02*
X149476190Y-58223809D01*
X149952381Y-57985714D02*
X148952381Y-57985714D01*
X148952381Y-58366667D01*
X149000000Y-58461905D01*
X149047619Y-58509524D01*
X149142857Y-58557143D01*
X149285714Y-58557143D01*
X149380952Y-58509524D01*
X149428571Y-58461905D01*
X149476190Y-58366667D01*
X149476190Y-57985714D01*
X149952381Y-59509524D02*
X149952381Y-58938095D01*
X149952381Y-59223809D02*
X148952381Y-59223809D01*
X149095238Y-59128571D01*
X149190476Y-59033333D01*
X149238095Y-58938095D01*
X149952381Y-60461905D02*
X149952381Y-59890476D01*
X149952381Y-60176190D02*
X148952381Y-60176190D01*
X149095238Y-60080952D01*
X149190476Y-59985714D01*
X149238095Y-59890476D01*
X156042857Y-56752381D02*
X156376191Y-56276190D01*
X156614286Y-56752381D02*
X156614286Y-55752381D01*
X156233333Y-55752381D01*
X156138095Y-55800000D01*
X156090476Y-55847619D01*
X156042857Y-55942857D01*
X156042857Y-56085714D01*
X156090476Y-56180952D01*
X156138095Y-56228571D01*
X156233333Y-56276190D01*
X156614286Y-56276190D01*
X155090476Y-56752381D02*
X155661905Y-56752381D01*
X155376191Y-56752381D02*
X155376191Y-55752381D01*
X155471429Y-55895238D01*
X155566667Y-55990476D01*
X155661905Y-56038095D01*
X154709524Y-55847619D02*
X154661905Y-55800000D01*
X154566667Y-55752381D01*
X154328571Y-55752381D01*
X154233333Y-55800000D01*
X154185714Y-55847619D01*
X154138095Y-55942857D01*
X154138095Y-56038095D01*
X154185714Y-56180952D01*
X154757143Y-56752381D01*
X154138095Y-56752381D01*
X149457143Y-72557143D02*
X149504762Y-72509524D01*
X149552381Y-72366667D01*
X149552381Y-72271429D01*
X149504762Y-72128571D01*
X149409524Y-72033333D01*
X149314286Y-71985714D01*
X149123810Y-71938095D01*
X148980952Y-71938095D01*
X148790476Y-71985714D01*
X148695238Y-72033333D01*
X148600000Y-72128571D01*
X148552381Y-72271429D01*
X148552381Y-72366667D01*
X148600000Y-72509524D01*
X148647619Y-72557143D01*
X148647619Y-72938095D02*
X148600000Y-72985714D01*
X148552381Y-73080952D01*
X148552381Y-73319048D01*
X148600000Y-73414286D01*
X148647619Y-73461905D01*
X148742857Y-73509524D01*
X148838095Y-73509524D01*
X148980952Y-73461905D01*
X149552381Y-72890476D01*
X149552381Y-73509524D01*
X148552381Y-74414286D02*
X148552381Y-73938095D01*
X149028571Y-73890476D01*
X148980952Y-73938095D01*
X148933333Y-74033333D01*
X148933333Y-74271429D01*
X148980952Y-74366667D01*
X149028571Y-74414286D01*
X149123810Y-74461905D01*
X149361905Y-74461905D01*
X149457143Y-74414286D01*
X149504762Y-74366667D01*
X149552381Y-74271429D01*
X149552381Y-74033333D01*
X149504762Y-73938095D01*
X149457143Y-73890476D01*
X161557143Y-89057143D02*
X161604762Y-89009524D01*
X161652381Y-88866667D01*
X161652381Y-88771429D01*
X161604762Y-88628571D01*
X161509524Y-88533333D01*
X161414286Y-88485714D01*
X161223810Y-88438095D01*
X161080952Y-88438095D01*
X160890476Y-88485714D01*
X160795238Y-88533333D01*
X160700000Y-88628571D01*
X160652381Y-88771429D01*
X160652381Y-88866667D01*
X160700000Y-89009524D01*
X160747619Y-89057143D01*
X160747619Y-89438095D02*
X160700000Y-89485714D01*
X160652381Y-89580952D01*
X160652381Y-89819048D01*
X160700000Y-89914286D01*
X160747619Y-89961905D01*
X160842857Y-90009524D01*
X160938095Y-90009524D01*
X161080952Y-89961905D01*
X161652381Y-89390476D01*
X161652381Y-90009524D01*
X160652381Y-90866667D02*
X160652381Y-90676190D01*
X160700000Y-90580952D01*
X160747619Y-90533333D01*
X160890476Y-90438095D01*
X161080952Y-90390476D01*
X161461905Y-90390476D01*
X161557143Y-90438095D01*
X161604762Y-90485714D01*
X161652381Y-90580952D01*
X161652381Y-90771429D01*
X161604762Y-90866667D01*
X161557143Y-90914286D01*
X161461905Y-90961905D01*
X161223810Y-90961905D01*
X161128571Y-90914286D01*
X161080952Y-90866667D01*
X161033333Y-90771429D01*
X161033333Y-90580952D01*
X161080952Y-90485714D01*
X161128571Y-90438095D01*
X161223810Y-90390476D01*
X155042857Y-71157143D02*
X155090476Y-71204762D01*
X155233333Y-71252381D01*
X155328571Y-71252381D01*
X155471429Y-71204762D01*
X155566667Y-71109524D01*
X155614286Y-71014286D01*
X155661905Y-70823810D01*
X155661905Y-70680952D01*
X155614286Y-70490476D01*
X155566667Y-70395238D01*
X155471429Y-70300000D01*
X155328571Y-70252381D01*
X155233333Y-70252381D01*
X155090476Y-70300000D01*
X155042857Y-70347619D01*
X154661905Y-70347619D02*
X154614286Y-70300000D01*
X154519048Y-70252381D01*
X154280952Y-70252381D01*
X154185714Y-70300000D01*
X154138095Y-70347619D01*
X154090476Y-70442857D01*
X154090476Y-70538095D01*
X154138095Y-70680952D01*
X154709524Y-71252381D01*
X154090476Y-71252381D01*
X153757143Y-70252381D02*
X153090476Y-70252381D01*
X153519048Y-71252381D01*
X177057143Y-67657143D02*
X177104762Y-67609524D01*
X177152381Y-67466667D01*
X177152381Y-67371429D01*
X177104762Y-67228571D01*
X177009524Y-67133333D01*
X176914286Y-67085714D01*
X176723810Y-67038095D01*
X176580952Y-67038095D01*
X176390476Y-67085714D01*
X176295238Y-67133333D01*
X176200000Y-67228571D01*
X176152381Y-67371429D01*
X176152381Y-67466667D01*
X176200000Y-67609524D01*
X176247619Y-67657143D01*
X176247619Y-68038095D02*
X176200000Y-68085714D01*
X176152381Y-68180952D01*
X176152381Y-68419048D01*
X176200000Y-68514286D01*
X176247619Y-68561905D01*
X176342857Y-68609524D01*
X176438095Y-68609524D01*
X176580952Y-68561905D01*
X177152381Y-67990476D01*
X177152381Y-68609524D01*
X177152381Y-69085714D02*
X177152381Y-69276190D01*
X177104762Y-69371429D01*
X177057143Y-69419048D01*
X176914286Y-69514286D01*
X176723810Y-69561905D01*
X176342857Y-69561905D01*
X176247619Y-69514286D01*
X176200000Y-69466667D01*
X176152381Y-69371429D01*
X176152381Y-69180952D01*
X176200000Y-69085714D01*
X176247619Y-69038095D01*
X176342857Y-68990476D01*
X176580952Y-68990476D01*
X176676190Y-69038095D01*
X176723810Y-69085714D01*
X176771429Y-69180952D01*
X176771429Y-69371429D01*
X176723810Y-69466667D01*
X176676190Y-69514286D01*
X176580952Y-69561905D01*
X166057143Y-89357143D02*
X166104762Y-89309524D01*
X166152381Y-89166667D01*
X166152381Y-89071429D01*
X166104762Y-88928571D01*
X166009524Y-88833333D01*
X165914286Y-88785714D01*
X165723810Y-88738095D01*
X165580952Y-88738095D01*
X165390476Y-88785714D01*
X165295238Y-88833333D01*
X165200000Y-88928571D01*
X165152381Y-89071429D01*
X165152381Y-89166667D01*
X165200000Y-89309524D01*
X165247619Y-89357143D01*
X166152381Y-90309524D02*
X166152381Y-89738095D01*
X166152381Y-90023809D02*
X165152381Y-90023809D01*
X165295238Y-89928571D01*
X165390476Y-89833333D01*
X165438095Y-89738095D01*
X165485714Y-91166667D02*
X166152381Y-91166667D01*
X165104762Y-90928571D02*
X165819048Y-90690476D01*
X165819048Y-91309524D01*
X171257143Y-49657143D02*
X171304762Y-49609524D01*
X171352381Y-49466667D01*
X171352381Y-49371429D01*
X171304762Y-49228571D01*
X171209524Y-49133333D01*
X171114286Y-49085714D01*
X170923810Y-49038095D01*
X170780952Y-49038095D01*
X170590476Y-49085714D01*
X170495238Y-49133333D01*
X170400000Y-49228571D01*
X170352381Y-49371429D01*
X170352381Y-49466667D01*
X170400000Y-49609524D01*
X170447619Y-49657143D01*
X170447619Y-50038095D02*
X170400000Y-50085714D01*
X170352381Y-50180952D01*
X170352381Y-50419048D01*
X170400000Y-50514286D01*
X170447619Y-50561905D01*
X170542857Y-50609524D01*
X170638095Y-50609524D01*
X170780952Y-50561905D01*
X171352381Y-49990476D01*
X171352381Y-50609524D01*
X170447619Y-50990476D02*
X170400000Y-51038095D01*
X170352381Y-51133333D01*
X170352381Y-51371429D01*
X170400000Y-51466667D01*
X170447619Y-51514286D01*
X170542857Y-51561905D01*
X170638095Y-51561905D01*
X170780952Y-51514286D01*
X171352381Y-50942857D01*
X171352381Y-51561905D01*
M02*
