%FSLAX46Y46*%
G04 Gerber Fmt 4.6, Leading zero omitted, Abs format (unit mm)*
G04 Created by KiCad (PCBNEW (2014-10-27 BZR 5228)-product) date 21/02/2015 07:43:22*
%MOMM*%
G01*
G04 APERTURE LIST*
%ADD10C,0.100000*%
%ADD11C,0.150000*%
G04 APERTURE END LIST*
D10*
D11*
X143750000Y-72000000D02*
X143750000Y-71000000D01*
X145450000Y-71000000D02*
X145450000Y-72000000D01*
X147650000Y-61200000D02*
X147650000Y-62200000D01*
X145950000Y-62200000D02*
X145950000Y-61200000D01*
X147100000Y-71950000D02*
X148100000Y-71950000D01*
X148100000Y-73650000D02*
X147100000Y-73650000D01*
X149000000Y-82150000D02*
X150000000Y-82150000D01*
X150000000Y-83850000D02*
X149000000Y-83850000D01*
X141300000Y-84950000D02*
X140300000Y-84950000D01*
X140300000Y-83250000D02*
X141300000Y-83250000D01*
X145350000Y-83600000D02*
X145350000Y-82600000D01*
X147050000Y-82600000D02*
X147050000Y-83600000D01*
X154650000Y-90300000D02*
X154650000Y-89300000D01*
X156350000Y-89300000D02*
X156350000Y-90300000D01*
X182150000Y-84300000D02*
X182150000Y-83300000D01*
X183850000Y-83300000D02*
X183850000Y-84300000D01*
X178800000Y-83850000D02*
X177800000Y-83850000D01*
X177800000Y-82150000D02*
X178800000Y-82150000D01*
X142850000Y-50100000D02*
X142850000Y-51100000D01*
X141150000Y-51100000D02*
X141150000Y-50100000D01*
X186350000Y-84100000D02*
X186350000Y-83100000D01*
X188050000Y-83100000D02*
X188050000Y-84100000D01*
X146750000Y-52100000D02*
X146750000Y-51100000D01*
X148450000Y-51100000D02*
X148450000Y-52100000D01*
X150500000Y-43850000D02*
X151500000Y-43850000D01*
X151500000Y-45550000D02*
X150500000Y-45550000D01*
X163700000Y-61150000D02*
X164700000Y-61150000D01*
X164700000Y-62850000D02*
X163700000Y-62850000D01*
X177450000Y-45300000D02*
X177450000Y-46300000D01*
X175750000Y-46300000D02*
X175750000Y-45300000D01*
X180850000Y-45300000D02*
X180850000Y-46300000D01*
X179150000Y-46300000D02*
X179150000Y-45300000D01*
X174450000Y-45300000D02*
X174450000Y-46300000D01*
X172750000Y-46300000D02*
X172750000Y-45300000D01*
X177046000Y-57443000D02*
X178046000Y-57443000D01*
X178046000Y-59143000D02*
X177046000Y-59143000D01*
X170500000Y-62650000D02*
X169500000Y-62650000D01*
X169500000Y-60950000D02*
X170500000Y-60950000D01*
X175450000Y-67800000D02*
X175450000Y-68800000D01*
X173750000Y-68800000D02*
X173750000Y-67800000D01*
X170850000Y-90200000D02*
X170850000Y-89200000D01*
X172550000Y-89200000D02*
X172550000Y-90200000D01*
X136165000Y-56951000D02*
G75*
G03X136165000Y-56951000I-127000J0D01*
G01*
X136038000Y-55808000D02*
X136038000Y-56824000D01*
X136038000Y-56824000D02*
X137562000Y-56824000D01*
X137562000Y-56824000D02*
X137562000Y-55808000D01*
X137562000Y-54792000D02*
X137562000Y-53776000D01*
X137562000Y-53776000D02*
X136038000Y-53776000D01*
X136038000Y-53776000D02*
X136038000Y-54792000D01*
X147675000Y-66100000D02*
X147675000Y-64900000D01*
X145925000Y-64900000D02*
X145925000Y-66100000D01*
X148475000Y-48000000D02*
X148475000Y-46800000D01*
X146725000Y-46800000D02*
X146725000Y-48000000D01*
X142875000Y-47400000D02*
X142875000Y-46200000D01*
X141125000Y-46200000D02*
X141125000Y-47400000D01*
X154900000Y-46575000D02*
X156100000Y-46575000D01*
X156100000Y-44825000D02*
X154900000Y-44825000D01*
X151800000Y-68275000D02*
X153000000Y-68275000D01*
X153000000Y-66525000D02*
X151800000Y-66525000D01*
X150700000Y-64375000D02*
X151900000Y-64375000D01*
X151900000Y-62625000D02*
X150700000Y-62625000D01*
X157900000Y-64075000D02*
X159100000Y-64075000D01*
X159100000Y-62325000D02*
X157900000Y-62325000D01*
X189200000Y-64450000D02*
X188200000Y-64450000D01*
X188200000Y-62750000D02*
X189200000Y-62750000D01*
X163650000Y-68700000D02*
X163650000Y-69700000D01*
X161950000Y-69700000D02*
X161950000Y-68700000D01*
X159200000Y-66625000D02*
X158000000Y-66625000D01*
X158000000Y-68375000D02*
X159200000Y-68375000D01*
X154103340Y-73600360D02*
X154103340Y-77999640D01*
X152200880Y-77999640D02*
X143199120Y-77999640D01*
X143199120Y-73600360D02*
X152200880Y-73600360D01*
X154558000Y-72597060D02*
X154558000Y-73696880D01*
X155157440Y-73097440D02*
X153958560Y-73097440D01*
X168600740Y-42949820D02*
X171999260Y-42949820D01*
X171999260Y-51199740D02*
X171999260Y-45200260D01*
X168600740Y-51199740D02*
X168600740Y-45200260D01*
X167597440Y-42446900D02*
X168697260Y-42446900D01*
X168097820Y-41847460D02*
X168097820Y-43046340D01*
X176000000Y-53475000D02*
X177200000Y-53475000D01*
X177200000Y-51725000D02*
X176000000Y-51725000D01*
X145057143Y-68733334D02*
X145104762Y-68685715D01*
X145152381Y-68542858D01*
X145152381Y-68447620D01*
X145104762Y-68304762D01*
X145009524Y-68209524D01*
X144914286Y-68161905D01*
X144723810Y-68114286D01*
X144580952Y-68114286D01*
X144390476Y-68161905D01*
X144295238Y-68209524D01*
X144200000Y-68304762D01*
X144152381Y-68447620D01*
X144152381Y-68542858D01*
X144200000Y-68685715D01*
X144247619Y-68733334D01*
X144247619Y-69114286D02*
X144200000Y-69161905D01*
X144152381Y-69257143D01*
X144152381Y-69495239D01*
X144200000Y-69590477D01*
X144247619Y-69638096D01*
X144342857Y-69685715D01*
X144438095Y-69685715D01*
X144580952Y-69638096D01*
X145152381Y-69066667D01*
X145152381Y-69685715D01*
X148857143Y-61533334D02*
X148904762Y-61485715D01*
X148952381Y-61342858D01*
X148952381Y-61247620D01*
X148904762Y-61104762D01*
X148809524Y-61009524D01*
X148714286Y-60961905D01*
X148523810Y-60914286D01*
X148380952Y-60914286D01*
X148190476Y-60961905D01*
X148095238Y-61009524D01*
X148000000Y-61104762D01*
X147952381Y-61247620D01*
X147952381Y-61342858D01*
X148000000Y-61485715D01*
X148047619Y-61533334D01*
X147952381Y-61866667D02*
X147952381Y-62485715D01*
X148333333Y-62152381D01*
X148333333Y-62295239D01*
X148380952Y-62390477D01*
X148428571Y-62438096D01*
X148523810Y-62485715D01*
X148761905Y-62485715D01*
X148857143Y-62438096D01*
X148904762Y-62390477D01*
X148952381Y-62295239D01*
X148952381Y-62009524D01*
X148904762Y-61914286D01*
X148857143Y-61866667D01*
X147766666Y-71457143D02*
X147814285Y-71504762D01*
X147957142Y-71552381D01*
X148052380Y-71552381D01*
X148195238Y-71504762D01*
X148290476Y-71409524D01*
X148338095Y-71314286D01*
X148385714Y-71123810D01*
X148385714Y-70980952D01*
X148338095Y-70790476D01*
X148290476Y-70695238D01*
X148195238Y-70600000D01*
X148052380Y-70552381D01*
X147957142Y-70552381D01*
X147814285Y-70600000D01*
X147766666Y-70647619D01*
X146909523Y-70885714D02*
X146909523Y-71552381D01*
X147147619Y-70504762D02*
X147385714Y-71219048D01*
X146766666Y-71219048D01*
X149566666Y-85057143D02*
X149614285Y-85104762D01*
X149757142Y-85152381D01*
X149852380Y-85152381D01*
X149995238Y-85104762D01*
X150090476Y-85009524D01*
X150138095Y-84914286D01*
X150185714Y-84723810D01*
X150185714Y-84580952D01*
X150138095Y-84390476D01*
X150090476Y-84295238D01*
X149995238Y-84200000D01*
X149852380Y-84152381D01*
X149757142Y-84152381D01*
X149614285Y-84200000D01*
X149566666Y-84247619D01*
X148661904Y-84152381D02*
X149138095Y-84152381D01*
X149185714Y-84628571D01*
X149138095Y-84580952D01*
X149042857Y-84533333D01*
X148804761Y-84533333D01*
X148709523Y-84580952D01*
X148661904Y-84628571D01*
X148614285Y-84723810D01*
X148614285Y-84961905D01*
X148661904Y-85057143D01*
X148709523Y-85104762D01*
X148804761Y-85152381D01*
X149042857Y-85152381D01*
X149138095Y-85104762D01*
X149185714Y-85057143D01*
X140966666Y-86557143D02*
X141014285Y-86604762D01*
X141157142Y-86652381D01*
X141252380Y-86652381D01*
X141395238Y-86604762D01*
X141490476Y-86509524D01*
X141538095Y-86414286D01*
X141585714Y-86223810D01*
X141585714Y-86080952D01*
X141538095Y-85890476D01*
X141490476Y-85795238D01*
X141395238Y-85700000D01*
X141252380Y-85652381D01*
X141157142Y-85652381D01*
X141014285Y-85700000D01*
X140966666Y-85747619D01*
X140109523Y-85652381D02*
X140300000Y-85652381D01*
X140395238Y-85700000D01*
X140442857Y-85747619D01*
X140538095Y-85890476D01*
X140585714Y-86080952D01*
X140585714Y-86461905D01*
X140538095Y-86557143D01*
X140490476Y-86604762D01*
X140395238Y-86652381D01*
X140204761Y-86652381D01*
X140109523Y-86604762D01*
X140061904Y-86557143D01*
X140014285Y-86461905D01*
X140014285Y-86223810D01*
X140061904Y-86128571D01*
X140109523Y-86080952D01*
X140204761Y-86033333D01*
X140395238Y-86033333D01*
X140490476Y-86080952D01*
X140538095Y-86128571D01*
X140585714Y-86223810D01*
X144857143Y-82833334D02*
X144904762Y-82785715D01*
X144952381Y-82642858D01*
X144952381Y-82547620D01*
X144904762Y-82404762D01*
X144809524Y-82309524D01*
X144714286Y-82261905D01*
X144523810Y-82214286D01*
X144380952Y-82214286D01*
X144190476Y-82261905D01*
X144095238Y-82309524D01*
X144000000Y-82404762D01*
X143952381Y-82547620D01*
X143952381Y-82642858D01*
X144000000Y-82785715D01*
X144047619Y-82833334D01*
X144380952Y-83404762D02*
X144333333Y-83309524D01*
X144285714Y-83261905D01*
X144190476Y-83214286D01*
X144142857Y-83214286D01*
X144047619Y-83261905D01*
X144000000Y-83309524D01*
X143952381Y-83404762D01*
X143952381Y-83595239D01*
X144000000Y-83690477D01*
X144047619Y-83738096D01*
X144142857Y-83785715D01*
X144190476Y-83785715D01*
X144285714Y-83738096D01*
X144333333Y-83690477D01*
X144380952Y-83595239D01*
X144380952Y-83404762D01*
X144428571Y-83309524D01*
X144476190Y-83261905D01*
X144571429Y-83214286D01*
X144761905Y-83214286D01*
X144857143Y-83261905D01*
X144904762Y-83309524D01*
X144952381Y-83404762D01*
X144952381Y-83595239D01*
X144904762Y-83690477D01*
X144857143Y-83738096D01*
X144761905Y-83785715D01*
X144571429Y-83785715D01*
X144476190Y-83738096D01*
X144428571Y-83690477D01*
X144380952Y-83595239D01*
X153757143Y-89633334D02*
X153804762Y-89585715D01*
X153852381Y-89442858D01*
X153852381Y-89347620D01*
X153804762Y-89204762D01*
X153709524Y-89109524D01*
X153614286Y-89061905D01*
X153423810Y-89014286D01*
X153280952Y-89014286D01*
X153090476Y-89061905D01*
X152995238Y-89109524D01*
X152900000Y-89204762D01*
X152852381Y-89347620D01*
X152852381Y-89442858D01*
X152900000Y-89585715D01*
X152947619Y-89633334D01*
X153852381Y-90109524D02*
X153852381Y-90300000D01*
X153804762Y-90395239D01*
X153757143Y-90442858D01*
X153614286Y-90538096D01*
X153423810Y-90585715D01*
X153042857Y-90585715D01*
X152947619Y-90538096D01*
X152900000Y-90490477D01*
X152852381Y-90395239D01*
X152852381Y-90204762D01*
X152900000Y-90109524D01*
X152947619Y-90061905D01*
X153042857Y-90014286D01*
X153280952Y-90014286D01*
X153376190Y-90061905D01*
X153423810Y-90109524D01*
X153471429Y-90204762D01*
X153471429Y-90395239D01*
X153423810Y-90490477D01*
X153376190Y-90538096D01*
X153280952Y-90585715D01*
X181757143Y-83157143D02*
X181804762Y-83109524D01*
X181852381Y-82966667D01*
X181852381Y-82871429D01*
X181804762Y-82728571D01*
X181709524Y-82633333D01*
X181614286Y-82585714D01*
X181423810Y-82538095D01*
X181280952Y-82538095D01*
X181090476Y-82585714D01*
X180995238Y-82633333D01*
X180900000Y-82728571D01*
X180852381Y-82871429D01*
X180852381Y-82966667D01*
X180900000Y-83109524D01*
X180947619Y-83157143D01*
X181852381Y-84109524D02*
X181852381Y-83538095D01*
X181852381Y-83823809D02*
X180852381Y-83823809D01*
X180995238Y-83728571D01*
X181090476Y-83633333D01*
X181138095Y-83538095D01*
X180852381Y-84728571D02*
X180852381Y-84823810D01*
X180900000Y-84919048D01*
X180947619Y-84966667D01*
X181042857Y-85014286D01*
X181233333Y-85061905D01*
X181471429Y-85061905D01*
X181661905Y-85014286D01*
X181757143Y-84966667D01*
X181804762Y-84919048D01*
X181852381Y-84823810D01*
X181852381Y-84728571D01*
X181804762Y-84633333D01*
X181757143Y-84585714D01*
X181661905Y-84538095D01*
X181471429Y-84490476D01*
X181233333Y-84490476D01*
X181042857Y-84538095D01*
X180947619Y-84585714D01*
X180900000Y-84633333D01*
X180852381Y-84728571D01*
X178942857Y-84857143D02*
X178990476Y-84904762D01*
X179133333Y-84952381D01*
X179228571Y-84952381D01*
X179371429Y-84904762D01*
X179466667Y-84809524D01*
X179514286Y-84714286D01*
X179561905Y-84523810D01*
X179561905Y-84380952D01*
X179514286Y-84190476D01*
X179466667Y-84095238D01*
X179371429Y-84000000D01*
X179228571Y-83952381D01*
X179133333Y-83952381D01*
X178990476Y-84000000D01*
X178942857Y-84047619D01*
X177990476Y-84952381D02*
X178561905Y-84952381D01*
X178276191Y-84952381D02*
X178276191Y-83952381D01*
X178371429Y-84095238D01*
X178466667Y-84190476D01*
X178561905Y-84238095D01*
X177038095Y-84952381D02*
X177609524Y-84952381D01*
X177323810Y-84952381D02*
X177323810Y-83952381D01*
X177419048Y-84095238D01*
X177514286Y-84190476D01*
X177609524Y-84238095D01*
X140957143Y-49957143D02*
X141004762Y-49909524D01*
X141052381Y-49766667D01*
X141052381Y-49671429D01*
X141004762Y-49528571D01*
X140909524Y-49433333D01*
X140814286Y-49385714D01*
X140623810Y-49338095D01*
X140480952Y-49338095D01*
X140290476Y-49385714D01*
X140195238Y-49433333D01*
X140100000Y-49528571D01*
X140052381Y-49671429D01*
X140052381Y-49766667D01*
X140100000Y-49909524D01*
X140147619Y-49957143D01*
X141052381Y-50909524D02*
X141052381Y-50338095D01*
X141052381Y-50623809D02*
X140052381Y-50623809D01*
X140195238Y-50528571D01*
X140290476Y-50433333D01*
X140338095Y-50338095D01*
X140147619Y-51290476D02*
X140100000Y-51338095D01*
X140052381Y-51433333D01*
X140052381Y-51671429D01*
X140100000Y-51766667D01*
X140147619Y-51814286D01*
X140242857Y-51861905D01*
X140338095Y-51861905D01*
X140480952Y-51814286D01*
X141052381Y-51242857D01*
X141052381Y-51861905D01*
X185957143Y-82957143D02*
X186004762Y-82909524D01*
X186052381Y-82766667D01*
X186052381Y-82671429D01*
X186004762Y-82528571D01*
X185909524Y-82433333D01*
X185814286Y-82385714D01*
X185623810Y-82338095D01*
X185480952Y-82338095D01*
X185290476Y-82385714D01*
X185195238Y-82433333D01*
X185100000Y-82528571D01*
X185052381Y-82671429D01*
X185052381Y-82766667D01*
X185100000Y-82909524D01*
X185147619Y-82957143D01*
X186052381Y-83909524D02*
X186052381Y-83338095D01*
X186052381Y-83623809D02*
X185052381Y-83623809D01*
X185195238Y-83528571D01*
X185290476Y-83433333D01*
X185338095Y-83338095D01*
X185052381Y-84242857D02*
X185052381Y-84861905D01*
X185433333Y-84528571D01*
X185433333Y-84671429D01*
X185480952Y-84766667D01*
X185528571Y-84814286D01*
X185623810Y-84861905D01*
X185861905Y-84861905D01*
X185957143Y-84814286D01*
X186004762Y-84766667D01*
X186052381Y-84671429D01*
X186052381Y-84385714D01*
X186004762Y-84290476D01*
X185957143Y-84242857D01*
X146357143Y-50757143D02*
X146404762Y-50709524D01*
X146452381Y-50566667D01*
X146452381Y-50471429D01*
X146404762Y-50328571D01*
X146309524Y-50233333D01*
X146214286Y-50185714D01*
X146023810Y-50138095D01*
X145880952Y-50138095D01*
X145690476Y-50185714D01*
X145595238Y-50233333D01*
X145500000Y-50328571D01*
X145452381Y-50471429D01*
X145452381Y-50566667D01*
X145500000Y-50709524D01*
X145547619Y-50757143D01*
X146452381Y-51709524D02*
X146452381Y-51138095D01*
X146452381Y-51423809D02*
X145452381Y-51423809D01*
X145595238Y-51328571D01*
X145690476Y-51233333D01*
X145738095Y-51138095D01*
X145452381Y-52614286D02*
X145452381Y-52138095D01*
X145928571Y-52090476D01*
X145880952Y-52138095D01*
X145833333Y-52233333D01*
X145833333Y-52471429D01*
X145880952Y-52566667D01*
X145928571Y-52614286D01*
X146023810Y-52661905D01*
X146261905Y-52661905D01*
X146357143Y-52614286D01*
X146404762Y-52566667D01*
X146452381Y-52471429D01*
X146452381Y-52233333D01*
X146404762Y-52138095D01*
X146357143Y-52090476D01*
X151842857Y-43457143D02*
X151890476Y-43504762D01*
X152033333Y-43552381D01*
X152128571Y-43552381D01*
X152271429Y-43504762D01*
X152366667Y-43409524D01*
X152414286Y-43314286D01*
X152461905Y-43123810D01*
X152461905Y-42980952D01*
X152414286Y-42790476D01*
X152366667Y-42695238D01*
X152271429Y-42600000D01*
X152128571Y-42552381D01*
X152033333Y-42552381D01*
X151890476Y-42600000D01*
X151842857Y-42647619D01*
X150890476Y-43552381D02*
X151461905Y-43552381D01*
X151176191Y-43552381D02*
X151176191Y-42552381D01*
X151271429Y-42695238D01*
X151366667Y-42790476D01*
X151461905Y-42838095D01*
X150033333Y-42552381D02*
X150223810Y-42552381D01*
X150319048Y-42600000D01*
X150366667Y-42647619D01*
X150461905Y-42790476D01*
X150509524Y-42980952D01*
X150509524Y-43361905D01*
X150461905Y-43457143D01*
X150414286Y-43504762D01*
X150319048Y-43552381D01*
X150128571Y-43552381D01*
X150033333Y-43504762D01*
X149985714Y-43457143D01*
X149938095Y-43361905D01*
X149938095Y-43123810D01*
X149985714Y-43028571D01*
X150033333Y-42980952D01*
X150128571Y-42933333D01*
X150319048Y-42933333D01*
X150414286Y-42980952D01*
X150461905Y-43028571D01*
X150509524Y-43123810D01*
X164842857Y-60257143D02*
X164890476Y-60304762D01*
X165033333Y-60352381D01*
X165128571Y-60352381D01*
X165271429Y-60304762D01*
X165366667Y-60209524D01*
X165414286Y-60114286D01*
X165461905Y-59923810D01*
X165461905Y-59780952D01*
X165414286Y-59590476D01*
X165366667Y-59495238D01*
X165271429Y-59400000D01*
X165128571Y-59352381D01*
X165033333Y-59352381D01*
X164890476Y-59400000D01*
X164842857Y-59447619D01*
X163890476Y-60352381D02*
X164461905Y-60352381D01*
X164176191Y-60352381D02*
X164176191Y-59352381D01*
X164271429Y-59495238D01*
X164366667Y-59590476D01*
X164461905Y-59638095D01*
X163319048Y-59780952D02*
X163414286Y-59733333D01*
X163461905Y-59685714D01*
X163509524Y-59590476D01*
X163509524Y-59542857D01*
X163461905Y-59447619D01*
X163414286Y-59400000D01*
X163319048Y-59352381D01*
X163128571Y-59352381D01*
X163033333Y-59400000D01*
X162985714Y-59447619D01*
X162938095Y-59542857D01*
X162938095Y-59590476D01*
X162985714Y-59685714D01*
X163033333Y-59733333D01*
X163128571Y-59780952D01*
X163319048Y-59780952D01*
X163414286Y-59828571D01*
X163461905Y-59876190D01*
X163509524Y-59971429D01*
X163509524Y-60161905D01*
X163461905Y-60257143D01*
X163414286Y-60304762D01*
X163319048Y-60352381D01*
X163128571Y-60352381D01*
X163033333Y-60304762D01*
X162985714Y-60257143D01*
X162938095Y-60161905D01*
X162938095Y-59971429D01*
X162985714Y-59876190D01*
X163033333Y-59828571D01*
X163128571Y-59780952D01*
X176957143Y-48757143D02*
X177004762Y-48709524D01*
X177052381Y-48566667D01*
X177052381Y-48471429D01*
X177004762Y-48328571D01*
X176909524Y-48233333D01*
X176814286Y-48185714D01*
X176623810Y-48138095D01*
X176480952Y-48138095D01*
X176290476Y-48185714D01*
X176195238Y-48233333D01*
X176100000Y-48328571D01*
X176052381Y-48471429D01*
X176052381Y-48566667D01*
X176100000Y-48709524D01*
X176147619Y-48757143D01*
X177052381Y-49709524D02*
X177052381Y-49138095D01*
X177052381Y-49423809D02*
X176052381Y-49423809D01*
X176195238Y-49328571D01*
X176290476Y-49233333D01*
X176338095Y-49138095D01*
X177052381Y-50185714D02*
X177052381Y-50376190D01*
X177004762Y-50471429D01*
X176957143Y-50519048D01*
X176814286Y-50614286D01*
X176623810Y-50661905D01*
X176242857Y-50661905D01*
X176147619Y-50614286D01*
X176100000Y-50566667D01*
X176052381Y-50471429D01*
X176052381Y-50280952D01*
X176100000Y-50185714D01*
X176147619Y-50138095D01*
X176242857Y-50090476D01*
X176480952Y-50090476D01*
X176576190Y-50138095D01*
X176623810Y-50185714D01*
X176671429Y-50280952D01*
X176671429Y-50471429D01*
X176623810Y-50566667D01*
X176576190Y-50614286D01*
X176480952Y-50661905D01*
X180230243Y-48535943D02*
X180277862Y-48488324D01*
X180325481Y-48345467D01*
X180325481Y-48250229D01*
X180277862Y-48107371D01*
X180182624Y-48012133D01*
X180087386Y-47964514D01*
X179896910Y-47916895D01*
X179754052Y-47916895D01*
X179563576Y-47964514D01*
X179468338Y-48012133D01*
X179373100Y-48107371D01*
X179325481Y-48250229D01*
X179325481Y-48345467D01*
X179373100Y-48488324D01*
X179420719Y-48535943D01*
X179420719Y-48916895D02*
X179373100Y-48964514D01*
X179325481Y-49059752D01*
X179325481Y-49297848D01*
X179373100Y-49393086D01*
X179420719Y-49440705D01*
X179515957Y-49488324D01*
X179611195Y-49488324D01*
X179754052Y-49440705D01*
X180325481Y-48869276D01*
X180325481Y-49488324D01*
X179325481Y-50107371D02*
X179325481Y-50202610D01*
X179373100Y-50297848D01*
X179420719Y-50345467D01*
X179515957Y-50393086D01*
X179706433Y-50440705D01*
X179944529Y-50440705D01*
X180135005Y-50393086D01*
X180230243Y-50345467D01*
X180277862Y-50297848D01*
X180325481Y-50202610D01*
X180325481Y-50107371D01*
X180277862Y-50012133D01*
X180230243Y-49964514D01*
X180135005Y-49916895D01*
X179944529Y-49869276D01*
X179706433Y-49869276D01*
X179515957Y-49916895D01*
X179420719Y-49964514D01*
X179373100Y-50012133D01*
X179325481Y-50107371D01*
X174157143Y-48757143D02*
X174204762Y-48709524D01*
X174252381Y-48566667D01*
X174252381Y-48471429D01*
X174204762Y-48328571D01*
X174109524Y-48233333D01*
X174014286Y-48185714D01*
X173823810Y-48138095D01*
X173680952Y-48138095D01*
X173490476Y-48185714D01*
X173395238Y-48233333D01*
X173300000Y-48328571D01*
X173252381Y-48471429D01*
X173252381Y-48566667D01*
X173300000Y-48709524D01*
X173347619Y-48757143D01*
X173347619Y-49138095D02*
X173300000Y-49185714D01*
X173252381Y-49280952D01*
X173252381Y-49519048D01*
X173300000Y-49614286D01*
X173347619Y-49661905D01*
X173442857Y-49709524D01*
X173538095Y-49709524D01*
X173680952Y-49661905D01*
X174252381Y-49090476D01*
X174252381Y-49709524D01*
X174252381Y-50661905D02*
X174252381Y-50090476D01*
X174252381Y-50376190D02*
X173252381Y-50376190D01*
X173395238Y-50280952D01*
X173490476Y-50185714D01*
X173538095Y-50090476D01*
X178188857Y-56550143D02*
X178236476Y-56597762D01*
X178379333Y-56645381D01*
X178474571Y-56645381D01*
X178617429Y-56597762D01*
X178712667Y-56502524D01*
X178760286Y-56407286D01*
X178807905Y-56216810D01*
X178807905Y-56073952D01*
X178760286Y-55883476D01*
X178712667Y-55788238D01*
X178617429Y-55693000D01*
X178474571Y-55645381D01*
X178379333Y-55645381D01*
X178236476Y-55693000D01*
X178188857Y-55740619D01*
X177807905Y-55740619D02*
X177760286Y-55693000D01*
X177665048Y-55645381D01*
X177426952Y-55645381D01*
X177331714Y-55693000D01*
X177284095Y-55740619D01*
X177236476Y-55835857D01*
X177236476Y-55931095D01*
X177284095Y-56073952D01*
X177855524Y-56645381D01*
X177236476Y-56645381D01*
X176903143Y-55645381D02*
X176284095Y-55645381D01*
X176617429Y-56026333D01*
X176474571Y-56026333D01*
X176379333Y-56073952D01*
X176331714Y-56121571D01*
X176284095Y-56216810D01*
X176284095Y-56454905D01*
X176331714Y-56550143D01*
X176379333Y-56597762D01*
X176474571Y-56645381D01*
X176760286Y-56645381D01*
X176855524Y-56597762D01*
X176903143Y-56550143D01*
X170642857Y-64257143D02*
X170690476Y-64304762D01*
X170833333Y-64352381D01*
X170928571Y-64352381D01*
X171071429Y-64304762D01*
X171166667Y-64209524D01*
X171214286Y-64114286D01*
X171261905Y-63923810D01*
X171261905Y-63780952D01*
X171214286Y-63590476D01*
X171166667Y-63495238D01*
X171071429Y-63400000D01*
X170928571Y-63352381D01*
X170833333Y-63352381D01*
X170690476Y-63400000D01*
X170642857Y-63447619D01*
X170261905Y-63447619D02*
X170214286Y-63400000D01*
X170119048Y-63352381D01*
X169880952Y-63352381D01*
X169785714Y-63400000D01*
X169738095Y-63447619D01*
X169690476Y-63542857D01*
X169690476Y-63638095D01*
X169738095Y-63780952D01*
X170309524Y-64352381D01*
X169690476Y-64352381D01*
X168833333Y-63685714D02*
X168833333Y-64352381D01*
X169071429Y-63304762D02*
X169309524Y-64019048D01*
X168690476Y-64019048D01*
X173357143Y-67757143D02*
X173404762Y-67709524D01*
X173452381Y-67566667D01*
X173452381Y-67471429D01*
X173404762Y-67328571D01*
X173309524Y-67233333D01*
X173214286Y-67185714D01*
X173023810Y-67138095D01*
X172880952Y-67138095D01*
X172690476Y-67185714D01*
X172595238Y-67233333D01*
X172500000Y-67328571D01*
X172452381Y-67471429D01*
X172452381Y-67566667D01*
X172500000Y-67709524D01*
X172547619Y-67757143D01*
X172547619Y-68138095D02*
X172500000Y-68185714D01*
X172452381Y-68280952D01*
X172452381Y-68519048D01*
X172500000Y-68614286D01*
X172547619Y-68661905D01*
X172642857Y-68709524D01*
X172738095Y-68709524D01*
X172880952Y-68661905D01*
X173452381Y-68090476D01*
X173452381Y-68709524D01*
X173452381Y-69185714D02*
X173452381Y-69376190D01*
X173404762Y-69471429D01*
X173357143Y-69519048D01*
X173214286Y-69614286D01*
X173023810Y-69661905D01*
X172642857Y-69661905D01*
X172547619Y-69614286D01*
X172500000Y-69566667D01*
X172452381Y-69471429D01*
X172452381Y-69280952D01*
X172500000Y-69185714D01*
X172547619Y-69138095D01*
X172642857Y-69090476D01*
X172880952Y-69090476D01*
X172976190Y-69138095D01*
X173023810Y-69185714D01*
X173071429Y-69280952D01*
X173071429Y-69471429D01*
X173023810Y-69566667D01*
X172976190Y-69614286D01*
X172880952Y-69661905D01*
X170457143Y-89057143D02*
X170504762Y-89009524D01*
X170552381Y-88866667D01*
X170552381Y-88771429D01*
X170504762Y-88628571D01*
X170409524Y-88533333D01*
X170314286Y-88485714D01*
X170123810Y-88438095D01*
X169980952Y-88438095D01*
X169790476Y-88485714D01*
X169695238Y-88533333D01*
X169600000Y-88628571D01*
X169552381Y-88771429D01*
X169552381Y-88866667D01*
X169600000Y-89009524D01*
X169647619Y-89057143D01*
X170552381Y-90009524D02*
X170552381Y-89438095D01*
X170552381Y-89723809D02*
X169552381Y-89723809D01*
X169695238Y-89628571D01*
X169790476Y-89533333D01*
X169838095Y-89438095D01*
X169885714Y-90866667D02*
X170552381Y-90866667D01*
X169504762Y-90628571D02*
X170219048Y-90390476D01*
X170219048Y-91009524D01*
X138328571Y-54466667D02*
X138328571Y-54133333D01*
X138852381Y-54133333D02*
X137852381Y-54133333D01*
X137852381Y-54609524D01*
X138328571Y-55323810D02*
X138376190Y-55466667D01*
X138423810Y-55514286D01*
X138519048Y-55561905D01*
X138661905Y-55561905D01*
X138757143Y-55514286D01*
X138804762Y-55466667D01*
X138852381Y-55371429D01*
X138852381Y-54990476D01*
X137852381Y-54990476D01*
X137852381Y-55323810D01*
X137900000Y-55419048D01*
X137947619Y-55466667D01*
X138042857Y-55514286D01*
X138138095Y-55514286D01*
X138233333Y-55466667D01*
X138280952Y-55419048D01*
X138328571Y-55323810D01*
X138328571Y-54990476D01*
X138852381Y-56514286D02*
X138852381Y-55942857D01*
X138852381Y-56228571D02*
X137852381Y-56228571D01*
X137995238Y-56133333D01*
X138090476Y-56038095D01*
X138138095Y-55942857D01*
X145752381Y-65333334D02*
X145276190Y-65000000D01*
X145752381Y-64761905D02*
X144752381Y-64761905D01*
X144752381Y-65142858D01*
X144800000Y-65238096D01*
X144847619Y-65285715D01*
X144942857Y-65333334D01*
X145085714Y-65333334D01*
X145180952Y-65285715D01*
X145228571Y-65238096D01*
X145276190Y-65142858D01*
X145276190Y-64761905D01*
X145085714Y-66190477D02*
X145752381Y-66190477D01*
X144704762Y-65952381D02*
X145419048Y-65714286D01*
X145419048Y-66333334D01*
X146452381Y-47333334D02*
X145976190Y-47000000D01*
X146452381Y-46761905D02*
X145452381Y-46761905D01*
X145452381Y-47142858D01*
X145500000Y-47238096D01*
X145547619Y-47285715D01*
X145642857Y-47333334D01*
X145785714Y-47333334D01*
X145880952Y-47285715D01*
X145928571Y-47238096D01*
X145976190Y-47142858D01*
X145976190Y-46761905D01*
X145452381Y-48238096D02*
X145452381Y-47761905D01*
X145928571Y-47714286D01*
X145880952Y-47761905D01*
X145833333Y-47857143D01*
X145833333Y-48095239D01*
X145880952Y-48190477D01*
X145928571Y-48238096D01*
X146023810Y-48285715D01*
X146261905Y-48285715D01*
X146357143Y-48238096D01*
X146404762Y-48190477D01*
X146452381Y-48095239D01*
X146452381Y-47857143D01*
X146404762Y-47761905D01*
X146357143Y-47714286D01*
X140852381Y-46633334D02*
X140376190Y-46300000D01*
X140852381Y-46061905D02*
X139852381Y-46061905D01*
X139852381Y-46442858D01*
X139900000Y-46538096D01*
X139947619Y-46585715D01*
X140042857Y-46633334D01*
X140185714Y-46633334D01*
X140280952Y-46585715D01*
X140328571Y-46538096D01*
X140376190Y-46442858D01*
X140376190Y-46061905D01*
X139852381Y-47490477D02*
X139852381Y-47300000D01*
X139900000Y-47204762D01*
X139947619Y-47157143D01*
X140090476Y-47061905D01*
X140280952Y-47014286D01*
X140661905Y-47014286D01*
X140757143Y-47061905D01*
X140804762Y-47109524D01*
X140852381Y-47204762D01*
X140852381Y-47395239D01*
X140804762Y-47490477D01*
X140757143Y-47538096D01*
X140661905Y-47585715D01*
X140423810Y-47585715D01*
X140328571Y-47538096D01*
X140280952Y-47490477D01*
X140233333Y-47395239D01*
X140233333Y-47204762D01*
X140280952Y-47109524D01*
X140328571Y-47061905D01*
X140423810Y-47014286D01*
X155566666Y-44552381D02*
X155900000Y-44076190D01*
X156138095Y-44552381D02*
X156138095Y-43552381D01*
X155757142Y-43552381D01*
X155661904Y-43600000D01*
X155614285Y-43647619D01*
X155566666Y-43742857D01*
X155566666Y-43885714D01*
X155614285Y-43980952D01*
X155661904Y-44028571D01*
X155757142Y-44076190D01*
X156138095Y-44076190D01*
X155233333Y-43552381D02*
X154566666Y-43552381D01*
X154995238Y-44552381D01*
X153142857Y-69252381D02*
X153476191Y-68776190D01*
X153714286Y-69252381D02*
X153714286Y-68252381D01*
X153333333Y-68252381D01*
X153238095Y-68300000D01*
X153190476Y-68347619D01*
X153142857Y-68442857D01*
X153142857Y-68585714D01*
X153190476Y-68680952D01*
X153238095Y-68728571D01*
X153333333Y-68776190D01*
X153714286Y-68776190D01*
X152190476Y-69252381D02*
X152761905Y-69252381D01*
X152476191Y-69252381D02*
X152476191Y-68252381D01*
X152571429Y-68395238D01*
X152666667Y-68490476D01*
X152761905Y-68538095D01*
X151571429Y-68252381D02*
X151476190Y-68252381D01*
X151380952Y-68300000D01*
X151333333Y-68347619D01*
X151285714Y-68442857D01*
X151238095Y-68633333D01*
X151238095Y-68871429D01*
X151285714Y-69061905D01*
X151333333Y-69157143D01*
X151380952Y-69204762D01*
X151476190Y-69252381D01*
X151571429Y-69252381D01*
X151666667Y-69204762D01*
X151714286Y-69157143D01*
X151761905Y-69061905D01*
X151809524Y-68871429D01*
X151809524Y-68633333D01*
X151761905Y-68442857D01*
X151714286Y-68347619D01*
X151666667Y-68300000D01*
X151571429Y-68252381D01*
X153623809Y-70452381D02*
X153623809Y-69452381D01*
X153385714Y-69452381D01*
X153242856Y-69500000D01*
X153147618Y-69595238D01*
X153099999Y-69690476D01*
X153052380Y-69880952D01*
X153052380Y-70023810D01*
X153099999Y-70214286D01*
X153147618Y-70309524D01*
X153242856Y-70404762D01*
X153385714Y-70452381D01*
X153623809Y-70452381D01*
X152623809Y-70452381D02*
X152623809Y-69452381D01*
X152052380Y-70452381D01*
X152052380Y-69452381D01*
X151576190Y-70452381D02*
X151576190Y-69452381D01*
X151942857Y-62352381D02*
X152276191Y-61876190D01*
X152514286Y-62352381D02*
X152514286Y-61352381D01*
X152133333Y-61352381D01*
X152038095Y-61400000D01*
X151990476Y-61447619D01*
X151942857Y-61542857D01*
X151942857Y-61685714D01*
X151990476Y-61780952D01*
X152038095Y-61828571D01*
X152133333Y-61876190D01*
X152514286Y-61876190D01*
X150990476Y-62352381D02*
X151561905Y-62352381D01*
X151276191Y-62352381D02*
X151276191Y-61352381D01*
X151371429Y-61495238D01*
X151466667Y-61590476D01*
X151561905Y-61638095D01*
X150038095Y-62352381D02*
X150609524Y-62352381D01*
X150323810Y-62352381D02*
X150323810Y-61352381D01*
X150419048Y-61495238D01*
X150514286Y-61590476D01*
X150609524Y-61638095D01*
X159142857Y-62352381D02*
X159476191Y-61876190D01*
X159714286Y-62352381D02*
X159714286Y-61352381D01*
X159333333Y-61352381D01*
X159238095Y-61400000D01*
X159190476Y-61447619D01*
X159142857Y-61542857D01*
X159142857Y-61685714D01*
X159190476Y-61780952D01*
X159238095Y-61828571D01*
X159333333Y-61876190D01*
X159714286Y-61876190D01*
X158190476Y-62352381D02*
X158761905Y-62352381D01*
X158476191Y-62352381D02*
X158476191Y-61352381D01*
X158571429Y-61495238D01*
X158666667Y-61590476D01*
X158761905Y-61638095D01*
X157809524Y-61447619D02*
X157761905Y-61400000D01*
X157666667Y-61352381D01*
X157428571Y-61352381D01*
X157333333Y-61400000D01*
X157285714Y-61447619D01*
X157238095Y-61542857D01*
X157238095Y-61638095D01*
X157285714Y-61780952D01*
X157857143Y-62352381D01*
X157238095Y-62352381D01*
X159623809Y-61052381D02*
X159623809Y-60052381D01*
X159385714Y-60052381D01*
X159242856Y-60100000D01*
X159147618Y-60195238D01*
X159099999Y-60290476D01*
X159052380Y-60480952D01*
X159052380Y-60623810D01*
X159099999Y-60814286D01*
X159147618Y-60909524D01*
X159242856Y-61004762D01*
X159385714Y-61052381D01*
X159623809Y-61052381D01*
X158623809Y-61052381D02*
X158623809Y-60052381D01*
X158052380Y-61052381D01*
X158052380Y-60052381D01*
X157576190Y-61052381D02*
X157576190Y-60052381D01*
X189342857Y-66057143D02*
X189390476Y-66104762D01*
X189533333Y-66152381D01*
X189628571Y-66152381D01*
X189771429Y-66104762D01*
X189866667Y-66009524D01*
X189914286Y-65914286D01*
X189961905Y-65723810D01*
X189961905Y-65580952D01*
X189914286Y-65390476D01*
X189866667Y-65295238D01*
X189771429Y-65200000D01*
X189628571Y-65152381D01*
X189533333Y-65152381D01*
X189390476Y-65200000D01*
X189342857Y-65247619D01*
X189009524Y-65152381D02*
X188390476Y-65152381D01*
X188723810Y-65533333D01*
X188580952Y-65533333D01*
X188485714Y-65580952D01*
X188438095Y-65628571D01*
X188390476Y-65723810D01*
X188390476Y-65961905D01*
X188438095Y-66057143D01*
X188485714Y-66104762D01*
X188580952Y-66152381D01*
X188866667Y-66152381D01*
X188961905Y-66104762D01*
X189009524Y-66057143D01*
X187771429Y-65152381D02*
X187676190Y-65152381D01*
X187580952Y-65200000D01*
X187533333Y-65247619D01*
X187485714Y-65342857D01*
X187438095Y-65533333D01*
X187438095Y-65771429D01*
X187485714Y-65961905D01*
X187533333Y-66057143D01*
X187580952Y-66104762D01*
X187676190Y-66152381D01*
X187771429Y-66152381D01*
X187866667Y-66104762D01*
X187914286Y-66057143D01*
X187961905Y-65961905D01*
X188009524Y-65771429D01*
X188009524Y-65533333D01*
X187961905Y-65342857D01*
X187914286Y-65247619D01*
X187866667Y-65200000D01*
X187771429Y-65152381D01*
X165257143Y-68557143D02*
X165304762Y-68509524D01*
X165352381Y-68366667D01*
X165352381Y-68271429D01*
X165304762Y-68128571D01*
X165209524Y-68033333D01*
X165114286Y-67985714D01*
X164923810Y-67938095D01*
X164780952Y-67938095D01*
X164590476Y-67985714D01*
X164495238Y-68033333D01*
X164400000Y-68128571D01*
X164352381Y-68271429D01*
X164352381Y-68366667D01*
X164400000Y-68509524D01*
X164447619Y-68557143D01*
X164352381Y-68890476D02*
X164352381Y-69509524D01*
X164733333Y-69176190D01*
X164733333Y-69319048D01*
X164780952Y-69414286D01*
X164828571Y-69461905D01*
X164923810Y-69509524D01*
X165161905Y-69509524D01*
X165257143Y-69461905D01*
X165304762Y-69414286D01*
X165352381Y-69319048D01*
X165352381Y-69033333D01*
X165304762Y-68938095D01*
X165257143Y-68890476D01*
X165352381Y-70461905D02*
X165352381Y-69890476D01*
X165352381Y-70176190D02*
X164352381Y-70176190D01*
X164495238Y-70080952D01*
X164590476Y-69985714D01*
X164638095Y-69890476D01*
X158766666Y-69652381D02*
X159100000Y-69176190D01*
X159338095Y-69652381D02*
X159338095Y-68652381D01*
X158957142Y-68652381D01*
X158861904Y-68700000D01*
X158814285Y-68747619D01*
X158766666Y-68842857D01*
X158766666Y-68985714D01*
X158814285Y-69080952D01*
X158861904Y-69128571D01*
X158957142Y-69176190D01*
X159338095Y-69176190D01*
X157814285Y-69652381D02*
X158385714Y-69652381D01*
X158100000Y-69652381D02*
X158100000Y-68652381D01*
X158195238Y-68795238D01*
X158290476Y-68890476D01*
X158385714Y-68938095D01*
X147966666Y-79157143D02*
X148014285Y-79204762D01*
X148157142Y-79252381D01*
X148252380Y-79252381D01*
X148395238Y-79204762D01*
X148490476Y-79109524D01*
X148538095Y-79014286D01*
X148585714Y-78823810D01*
X148585714Y-78680952D01*
X148538095Y-78490476D01*
X148490476Y-78395238D01*
X148395238Y-78300000D01*
X148252380Y-78252381D01*
X148157142Y-78252381D01*
X148014285Y-78300000D01*
X147966666Y-78347619D01*
X147633333Y-78252381D02*
X146966666Y-78252381D01*
X147395238Y-79252381D01*
X154936412Y-73171409D02*
X154174507Y-73171409D01*
X154555459Y-73552361D02*
X154555459Y-72790456D01*
X167357683Y-47356483D02*
X167405302Y-47308864D01*
X167452921Y-47166007D01*
X167452921Y-47070769D01*
X167405302Y-46927911D01*
X167310064Y-46832673D01*
X167214826Y-46785054D01*
X167024350Y-46737435D01*
X166881492Y-46737435D01*
X166691016Y-46785054D01*
X166595778Y-46832673D01*
X166500540Y-46927911D01*
X166452921Y-47070769D01*
X166452921Y-47166007D01*
X166500540Y-47308864D01*
X166548159Y-47356483D01*
X166548159Y-47737435D02*
X166500540Y-47785054D01*
X166452921Y-47880292D01*
X166452921Y-48118388D01*
X166500540Y-48213626D01*
X166548159Y-48261245D01*
X166643397Y-48308864D01*
X166738635Y-48308864D01*
X166881492Y-48261245D01*
X167452921Y-47689816D01*
X167452921Y-48308864D01*
X166548159Y-48689816D02*
X166500540Y-48737435D01*
X166452921Y-48832673D01*
X166452921Y-49070769D01*
X166500540Y-49166007D01*
X166548159Y-49213626D01*
X166643397Y-49261245D01*
X166738635Y-49261245D01*
X166881492Y-49213626D01*
X167452921Y-48642197D01*
X167452921Y-49261245D01*
X168171789Y-42068488D02*
X168171789Y-42830393D01*
X168552741Y-42449441D02*
X167790836Y-42449441D01*
X176866666Y-54652381D02*
X177200000Y-54176190D01*
X177438095Y-54652381D02*
X177438095Y-53652381D01*
X177057142Y-53652381D01*
X176961904Y-53700000D01*
X176914285Y-53747619D01*
X176866666Y-53842857D01*
X176866666Y-53985714D01*
X176914285Y-54080952D01*
X176961904Y-54128571D01*
X177057142Y-54176190D01*
X177438095Y-54176190D01*
X176390476Y-54652381D02*
X176200000Y-54652381D01*
X176104761Y-54604762D01*
X176057142Y-54557143D01*
X175961904Y-54414286D01*
X175914285Y-54223810D01*
X175914285Y-53842857D01*
X175961904Y-53747619D01*
X176009523Y-53700000D01*
X176104761Y-53652381D01*
X176295238Y-53652381D01*
X176390476Y-53700000D01*
X176438095Y-53747619D01*
X176485714Y-53842857D01*
X176485714Y-54080952D01*
X176438095Y-54176190D01*
X176390476Y-54223810D01*
X176295238Y-54271429D01*
X176104761Y-54271429D01*
X176009523Y-54223810D01*
X175961904Y-54176190D01*
X175914285Y-54080952D01*
M02*
