%FSLAX46Y46*%
G04 Gerber Fmt 4.6, Leading zero omitted, Abs format (unit mm)*
G04 Created by KiCad (PCBNEW (2014-10-27 BZR 5228)-product) date 14/01/2015 11:03:29*
%MOMM*%
G01*
G04 APERTURE LIST*
%ADD10C,0.100000*%
%ADD11R,1.250000X1.000000*%
%ADD12R,4.200000X0.700000*%
%ADD13R,1.397000X1.397000*%
%ADD14C,1.397000*%
%ADD15C,1.998980*%
%ADD16C,3.500000*%
%ADD17C,2.000000*%
%ADD18R,1.727200X1.727200*%
%ADD19O,1.727200X1.727200*%
%ADD20R,0.599440X1.000760*%
%ADD21R,1.300000X0.700000*%
%ADD22R,0.700000X1.300000*%
%ADD23R,1.800000X1.800000*%
%ADD24C,1.800000*%
%ADD25C,2.540000*%
%ADD26C,1.727200*%
%ADD27R,1.550000X0.600000*%
%ADD28C,1.524000*%
%ADD29O,1.501140X2.499360*%
%ADD30R,1.000000X1.250000*%
%ADD31R,1.651000X1.651000*%
%ADD32C,1.651000*%
G04 APERTURE END LIST*
D10*
D11*
X140100000Y-62600000D03*
X140100000Y-60600000D03*
X142000000Y-51600000D03*
X142000000Y-49600000D03*
X191600000Y-54200000D03*
X191600000Y-56200000D03*
D12*
X129474560Y-55468200D03*
X129474560Y-56468200D03*
X129474560Y-57468200D03*
X129474560Y-58468200D03*
X129474560Y-59468200D03*
X129474560Y-60468200D03*
X129474560Y-61468200D03*
X129474560Y-62468200D03*
X129474560Y-63468200D03*
X129474560Y-64468200D03*
X129474560Y-65468200D03*
X129474560Y-68468200D03*
X129474560Y-69468200D03*
X129474560Y-70468200D03*
X129474560Y-71468200D03*
X129474560Y-72468200D03*
X129474560Y-73468200D03*
X129474560Y-74468200D03*
D13*
X162560000Y-84455000D03*
D14*
X165100000Y-84455000D03*
X167640000Y-84455000D03*
X170180000Y-84455000D03*
X172720000Y-84455000D03*
X172720000Y-76835000D03*
X170180000Y-76835000D03*
X167640000Y-76835000D03*
X165100000Y-76835000D03*
X162560000Y-76835000D03*
D13*
X172339000Y-65913000D03*
D14*
X169799000Y-65913000D03*
X167259000Y-65913000D03*
X164719000Y-65913000D03*
X162179000Y-65913000D03*
X162179000Y-73533000D03*
X164719000Y-73533000D03*
X167259000Y-73533000D03*
X169799000Y-73533000D03*
X172339000Y-73533000D03*
D15*
X158792000Y-79796000D03*
X153204000Y-79796000D03*
X142592000Y-80596000D03*
X137004000Y-80596000D03*
X149596000Y-87608000D03*
X149596000Y-93196000D03*
X144908000Y-79804000D03*
X150496000Y-79804000D03*
X177404000Y-92892000D03*
X177404000Y-87304000D03*
X178008000Y-79004000D03*
X183596000Y-79004000D03*
X163396000Y-87508000D03*
X163396000Y-93096000D03*
X186508000Y-78904000D03*
X192096000Y-78904000D03*
X159258000Y-55499000D03*
X159258000Y-61087000D03*
X174498000Y-55245000D03*
X174498000Y-60833000D03*
D16*
X191800000Y-67600000D03*
X191800000Y-60000000D03*
D17*
X184000000Y-63800000D03*
D18*
X179870000Y-63400000D03*
D19*
X177330000Y-63400000D03*
D20*
X157247500Y-66056640D03*
X158200000Y-63943360D03*
X159152500Y-66056640D03*
D21*
X142000000Y-45850000D03*
X142000000Y-47750000D03*
D22*
X189350000Y-54200000D03*
X187450000Y-54200000D03*
D18*
X179870000Y-66930000D03*
D19*
X177330000Y-66930000D03*
X179870000Y-69470000D03*
X177330000Y-69470000D03*
D23*
X142200000Y-66800000D03*
D24*
X142200000Y-69300000D03*
X139200000Y-66800000D03*
X142200000Y-71800000D03*
X139200000Y-71800000D03*
X139200000Y-69300000D03*
D23*
X145923000Y-63741300D03*
D24*
X145923000Y-61241300D03*
X148923000Y-63741300D03*
X145923000Y-58741300D03*
X148923000Y-58741300D03*
X148923000Y-61241300D03*
D25*
X163461700Y-39199300D03*
D26*
X163461700Y-43199300D03*
D25*
X163461700Y-47199300D03*
D26*
X163461700Y-51199300D03*
D27*
X185501300Y-48234600D03*
X185501300Y-49504600D03*
X185501300Y-50774600D03*
X185501300Y-52044600D03*
X190901300Y-52044600D03*
X190901300Y-50774600D03*
X190901300Y-49504600D03*
X190901300Y-48234600D03*
D28*
X138600000Y-48460000D03*
X138600000Y-45920000D03*
X138600000Y-51000000D03*
D29*
X153893520Y-39451280D03*
X156433520Y-39451280D03*
X151353520Y-39451280D03*
D30*
X184200000Y-54800000D03*
X182200000Y-54800000D03*
D15*
X189899460Y-44800000D03*
X183300540Y-44800000D03*
D31*
X150470000Y-69100000D03*
D32*
X147930000Y-69100000D03*
M02*
