M48
;DRILL file {kicad (2014-10-27 BZR 5228)-product} date 15/01/2015 07:57:49
;FORMAT={3:3/ absolute / metric / keep zeros}
FMAT,2
METRIC,TZ
T1C0.635
T2C0.800
T3C0.813
T4C0.900
T5C0.920
T6C1.001
T7C1.016
T8C1.500
T9C1.800
T10C3.500
T11C5.999
%
G90
G05
M71
T1
X134200Y-055468
X134200Y-061468
X134373Y-058373
X134400Y-064400
X135600Y-059400
X135600Y-060800
X136400Y-068800
X136600Y-056400
X136600Y-058400
X137800Y-054000
X138600Y-064000
X138600Y-077000
X140400Y-059600
X142000Y-055100
X144600Y-072600
X144600Y-074600
X145600Y-038000
X146200Y-074800
X153700Y-067000
X154200Y-060800
X154200Y-070200
X155300Y-085400
X156900Y-069000
X157800Y-077000
X160800Y-069400
X161400Y-071800
X167400Y-071800
X171400Y-071800
X176600Y-061400
X183200Y-052000
X186200Y-056200
X190200Y-057400
T2
X183301Y-044800
X189899Y-044800
T3
X138600Y-045920
X138600Y-048460
X138600Y-051000
X147930Y-069100
X150470Y-069100
X162179Y-065913
X162179Y-073533
X162560Y-076835
X162560Y-084455
X164719Y-065913
X164719Y-073533
X165100Y-076835
X165100Y-084455
X167259Y-065913
X167259Y-073533
X167640Y-076835
X167640Y-084455
X169799Y-065913
X169799Y-073533
X170180Y-076835
X170180Y-084455
X172339Y-065913
X172339Y-073533
X172720Y-076835
X172720Y-084455
T4
X139200Y-066800
X139200Y-069300
X139200Y-071800
X142200Y-066800
X142200Y-069300
X142200Y-071800
X145923Y-058741
X145923Y-061241
X145923Y-063741
X148923Y-058741
X148923Y-061241
X148923Y-063741
T5
X184000Y-063800
T6
X137004Y-080596
X142592Y-080596
X144908Y-079804
X149596Y-087608
X149596Y-093196
X150496Y-079804
X151354Y-039451
X153204Y-079796
X153894Y-039451
X156434Y-039451
X158792Y-079796
X161108Y-058304
X163396Y-087508
X163396Y-093096
X166696Y-058304
X174498Y-055245
X174498Y-060833
X177404Y-087304
X177404Y-092892
X178008Y-079004
X183596Y-079004
X186508Y-078904
X192096Y-078904
T7
X163462Y-043199
X163462Y-051199
X177330Y-063400
X177330Y-066930
X177330Y-069470
X179870Y-063400
X179870Y-066930
X179870Y-069470
T8
X163462Y-039199
X163462Y-047199
T9
X191800Y-060000
X191800Y-067600
T10
X139000Y-039400
X139000Y-090600
X189600Y-039600
X189800Y-090600
T11
X154700Y-054800
T0
M30
