%FSLAX46Y46*%
G04 Gerber Fmt 4.6, Leading zero omitted, Abs format (unit mm)*
G04 Created by KiCad (PCBNEW (2014-10-27 BZR 5228)-product) date 19/01/2015 07:09:11*
%MOMM*%
G01*
G04 APERTURE LIST*
%ADD10C,0.100000*%
%ADD11C,0.200000*%
%ADD12C,0.150000*%
G04 APERTURE END LIST*
D10*
D11*
X159157144Y-37102857D02*
X159157144Y-35902857D01*
X159157144Y-36474286D02*
X159842859Y-36474286D01*
X159842859Y-37102857D02*
X159842859Y-35902857D01*
X160871430Y-37045714D02*
X160757144Y-37102857D01*
X160528573Y-37102857D01*
X160414287Y-37045714D01*
X160357144Y-36931429D01*
X160357144Y-36474286D01*
X160414287Y-36360000D01*
X160528573Y-36302857D01*
X160757144Y-36302857D01*
X160871430Y-36360000D01*
X160928573Y-36474286D01*
X160928573Y-36588571D01*
X160357144Y-36702857D01*
X161442858Y-37102857D02*
X161442858Y-36302857D01*
X161442858Y-36531429D02*
X161500001Y-36417143D01*
X161557144Y-36360000D01*
X161671430Y-36302857D01*
X161785715Y-36302857D01*
X162185715Y-37102857D02*
X162185715Y-36302857D01*
X162185715Y-36417143D02*
X162242858Y-36360000D01*
X162357144Y-36302857D01*
X162528572Y-36302857D01*
X162642858Y-36360000D01*
X162700001Y-36474286D01*
X162700001Y-37102857D01*
X162700001Y-36474286D02*
X162757144Y-36360000D01*
X162871430Y-36302857D01*
X163042858Y-36302857D01*
X163157144Y-36360000D01*
X163214287Y-36474286D01*
X163214287Y-37102857D01*
X164242858Y-37045714D02*
X164128572Y-37102857D01*
X163900001Y-37102857D01*
X163785715Y-37045714D01*
X163728572Y-36931429D01*
X163728572Y-36474286D01*
X163785715Y-36360000D01*
X163900001Y-36302857D01*
X164128572Y-36302857D01*
X164242858Y-36360000D01*
X164300001Y-36474286D01*
X164300001Y-36588571D01*
X163728572Y-36702857D01*
X164757143Y-37045714D02*
X164871429Y-37102857D01*
X165100001Y-37102857D01*
X165214286Y-37045714D01*
X165271429Y-36931429D01*
X165271429Y-36874286D01*
X165214286Y-36760000D01*
X165100001Y-36702857D01*
X164928572Y-36702857D01*
X164814286Y-36645714D01*
X164757143Y-36531429D01*
X164757143Y-36474286D01*
X164814286Y-36360000D01*
X164928572Y-36302857D01*
X165100001Y-36302857D01*
X165214286Y-36360000D01*
X167271430Y-37102857D02*
X166700001Y-37102857D01*
X166700001Y-35902857D01*
X167671430Y-37102857D02*
X167671430Y-36302857D01*
X167671430Y-35902857D02*
X167614287Y-35960000D01*
X167671430Y-36017143D01*
X167728573Y-35960000D01*
X167671430Y-35902857D01*
X167671430Y-36017143D01*
X168071431Y-36302857D02*
X168528574Y-36302857D01*
X168242859Y-35902857D02*
X168242859Y-36931429D01*
X168300002Y-37045714D01*
X168414288Y-37102857D01*
X168528574Y-37102857D01*
X169385716Y-37045714D02*
X169271430Y-37102857D01*
X169042859Y-37102857D01*
X168928573Y-37045714D01*
X168871430Y-36931429D01*
X168871430Y-36474286D01*
X168928573Y-36360000D01*
X169042859Y-36302857D01*
X169271430Y-36302857D01*
X169385716Y-36360000D01*
X169442859Y-36474286D01*
X169442859Y-36588571D01*
X168871430Y-36702857D01*
X170814287Y-37045714D02*
X170985716Y-37102857D01*
X171271430Y-37102857D01*
X171385716Y-37045714D01*
X171442859Y-36988571D01*
X171500002Y-36874286D01*
X171500002Y-36760000D01*
X171442859Y-36645714D01*
X171385716Y-36588571D01*
X171271430Y-36531429D01*
X171042859Y-36474286D01*
X170928573Y-36417143D01*
X170871430Y-36360000D01*
X170814287Y-36245714D01*
X170814287Y-36131429D01*
X170871430Y-36017143D01*
X170928573Y-35960000D01*
X171042859Y-35902857D01*
X171328573Y-35902857D01*
X171500002Y-35960000D01*
X172528573Y-36302857D02*
X172528573Y-37102857D01*
X172014287Y-36302857D02*
X172014287Y-36931429D01*
X172071430Y-37045714D01*
X172185716Y-37102857D01*
X172357144Y-37102857D01*
X172471430Y-37045714D01*
X172528573Y-36988571D01*
X173100001Y-36302857D02*
X173100001Y-37502857D01*
X173100001Y-36360000D02*
X173214287Y-36302857D01*
X173442858Y-36302857D01*
X173557144Y-36360000D01*
X173614287Y-36417143D01*
X173671430Y-36531429D01*
X173671430Y-36874286D01*
X173614287Y-36988571D01*
X173557144Y-37045714D01*
X173442858Y-37102857D01*
X173214287Y-37102857D01*
X173100001Y-37045714D01*
X174642858Y-37045714D02*
X174528572Y-37102857D01*
X174300001Y-37102857D01*
X174185715Y-37045714D01*
X174128572Y-36931429D01*
X174128572Y-36474286D01*
X174185715Y-36360000D01*
X174300001Y-36302857D01*
X174528572Y-36302857D01*
X174642858Y-36360000D01*
X174700001Y-36474286D01*
X174700001Y-36588571D01*
X174128572Y-36702857D01*
X175214286Y-37102857D02*
X175214286Y-36302857D01*
X175214286Y-36531429D02*
X175271429Y-36417143D01*
X175328572Y-36360000D01*
X175442858Y-36302857D01*
X175557143Y-36302857D01*
X175957143Y-37102857D02*
X175957143Y-35902857D01*
X175957143Y-36360000D02*
X176071429Y-36302857D01*
X176300000Y-36302857D01*
X176414286Y-36360000D01*
X176471429Y-36417143D01*
X176528572Y-36531429D01*
X176528572Y-36874286D01*
X176471429Y-36988571D01*
X176414286Y-37045714D01*
X176300000Y-37102857D01*
X176071429Y-37102857D01*
X175957143Y-37045714D01*
X177557143Y-37102857D02*
X177557143Y-36474286D01*
X177500000Y-36360000D01*
X177385714Y-36302857D01*
X177157143Y-36302857D01*
X177042857Y-36360000D01*
X177557143Y-37045714D02*
X177442857Y-37102857D01*
X177157143Y-37102857D01*
X177042857Y-37045714D01*
X176985714Y-36931429D01*
X176985714Y-36817143D01*
X177042857Y-36702857D01*
X177157143Y-36645714D01*
X177442857Y-36645714D01*
X177557143Y-36588571D01*
X178128571Y-36302857D02*
X178128571Y-37102857D01*
X178128571Y-36417143D02*
X178185714Y-36360000D01*
X178300000Y-36302857D01*
X178471428Y-36302857D01*
X178585714Y-36360000D01*
X178642857Y-36474286D01*
X178642857Y-37102857D01*
X179728571Y-37102857D02*
X179728571Y-35902857D01*
X179728571Y-37045714D02*
X179614285Y-37102857D01*
X179385714Y-37102857D01*
X179271428Y-37045714D01*
X179214285Y-36988571D01*
X179157142Y-36874286D01*
X179157142Y-36531429D01*
X179214285Y-36417143D01*
X179271428Y-36360000D01*
X179385714Y-36302857D01*
X179614285Y-36302857D01*
X179728571Y-36360000D01*
X181214285Y-37102857D02*
X181214285Y-35902857D01*
X181671428Y-35902857D01*
X181785714Y-35960000D01*
X181842857Y-36017143D01*
X181900000Y-36131429D01*
X181900000Y-36302857D01*
X181842857Y-36417143D01*
X181785714Y-36474286D01*
X181671428Y-36531429D01*
X181214285Y-36531429D01*
X182357142Y-36760000D02*
X182928571Y-36760000D01*
X182242857Y-37102857D02*
X182642857Y-35902857D01*
X183042857Y-37102857D01*
X184985714Y-37102857D02*
X184299999Y-37102857D01*
X184642857Y-37102857D02*
X184642857Y-35902857D01*
X184528571Y-36074286D01*
X184414285Y-36188571D01*
X184299999Y-36245714D01*
X185499999Y-36988571D02*
X185557142Y-37045714D01*
X185499999Y-37102857D01*
X185442856Y-37045714D01*
X185499999Y-36988571D01*
X185499999Y-37102857D01*
X186300000Y-35902857D02*
X186414285Y-35902857D01*
X186528571Y-35960000D01*
X186585714Y-36017143D01*
X186642857Y-36131429D01*
X186700000Y-36360000D01*
X186700000Y-36645714D01*
X186642857Y-36874286D01*
X186585714Y-36988571D01*
X186528571Y-37045714D01*
X186414285Y-37102857D01*
X186300000Y-37102857D01*
X186185714Y-37045714D01*
X186128571Y-36988571D01*
X186071428Y-36874286D01*
X186014285Y-36645714D01*
X186014285Y-36360000D01*
X186071428Y-36131429D01*
X186128571Y-36017143D01*
X186185714Y-35960000D01*
X186300000Y-35902857D01*
X167557144Y-38068571D02*
X167442858Y-38011429D01*
X167214287Y-38011429D01*
X167100001Y-38068571D01*
X166985715Y-38182857D01*
X166928572Y-38297143D01*
X166928572Y-38525714D01*
X166985715Y-38640000D01*
X167100001Y-38754286D01*
X167214287Y-38811429D01*
X167442858Y-38811429D01*
X167557144Y-38754286D01*
X167328572Y-37611429D02*
X167042858Y-37668571D01*
X166757144Y-37840000D01*
X166585715Y-38125714D01*
X166528572Y-38411429D01*
X166585715Y-38697143D01*
X166757144Y-38982857D01*
X167042858Y-39154286D01*
X167328572Y-39211429D01*
X167614287Y-39154286D01*
X167900001Y-38982857D01*
X168071430Y-38697143D01*
X168128572Y-38411429D01*
X168071430Y-38125714D01*
X167900001Y-37840000D01*
X167614287Y-37668571D01*
X167328572Y-37611429D01*
X169500001Y-37897143D02*
X169557144Y-37840000D01*
X169671430Y-37782857D01*
X169957144Y-37782857D01*
X170071430Y-37840000D01*
X170128573Y-37897143D01*
X170185716Y-38011429D01*
X170185716Y-38125714D01*
X170128573Y-38297143D01*
X169442859Y-38982857D01*
X170185716Y-38982857D01*
X170928573Y-37782857D02*
X171042858Y-37782857D01*
X171157144Y-37840000D01*
X171214287Y-37897143D01*
X171271430Y-38011429D01*
X171328573Y-38240000D01*
X171328573Y-38525714D01*
X171271430Y-38754286D01*
X171214287Y-38868571D01*
X171157144Y-38925714D01*
X171042858Y-38982857D01*
X170928573Y-38982857D01*
X170814287Y-38925714D01*
X170757144Y-38868571D01*
X170700001Y-38754286D01*
X170642858Y-38525714D01*
X170642858Y-38240000D01*
X170700001Y-38011429D01*
X170757144Y-37897143D01*
X170814287Y-37840000D01*
X170928573Y-37782857D01*
X172471430Y-38982857D02*
X171785715Y-38982857D01*
X172128573Y-38982857D02*
X172128573Y-37782857D01*
X172014287Y-37954286D01*
X171900001Y-38068571D01*
X171785715Y-38125714D01*
X173557144Y-37782857D02*
X172985715Y-37782857D01*
X172928572Y-38354286D01*
X172985715Y-38297143D01*
X173100001Y-38240000D01*
X173385715Y-38240000D01*
X173500001Y-38297143D01*
X173557144Y-38354286D01*
X173614287Y-38468571D01*
X173614287Y-38754286D01*
X173557144Y-38868571D01*
X173500001Y-38925714D01*
X173385715Y-38982857D01*
X173100001Y-38982857D01*
X172985715Y-38925714D01*
X172928572Y-38868571D01*
X174985715Y-38640000D02*
X175557144Y-38640000D01*
X174871430Y-38982857D02*
X175271430Y-37782857D01*
X175671430Y-38982857D01*
X176757144Y-38868571D02*
X176700001Y-38925714D01*
X176528572Y-38982857D01*
X176414286Y-38982857D01*
X176242858Y-38925714D01*
X176128572Y-38811429D01*
X176071429Y-38697143D01*
X176014286Y-38468571D01*
X176014286Y-38297143D01*
X176071429Y-38068571D01*
X176128572Y-37954286D01*
X176242858Y-37840000D01*
X176414286Y-37782857D01*
X176528572Y-37782857D01*
X176700001Y-37840000D01*
X176757144Y-37897143D01*
X177328572Y-38982857D02*
X177557144Y-38982857D01*
X177671429Y-38925714D01*
X177728572Y-38868571D01*
X177842858Y-38697143D01*
X177900001Y-38468571D01*
X177900001Y-38011429D01*
X177842858Y-37897143D01*
X177785715Y-37840000D01*
X177671429Y-37782857D01*
X177442858Y-37782857D01*
X177328572Y-37840000D01*
X177271429Y-37897143D01*
X177214286Y-38011429D01*
X177214286Y-38297143D01*
X177271429Y-38411429D01*
X177328572Y-38468571D01*
X177442858Y-38525714D01*
X177671429Y-38525714D01*
X177785715Y-38468571D01*
X177842858Y-38411429D01*
X177900001Y-38297143D01*
X178414286Y-38982857D02*
X178414286Y-37782857D01*
X178414286Y-38354286D02*
X179100001Y-38354286D01*
X179100001Y-38982857D02*
X179100001Y-37782857D01*
X179900001Y-38411429D02*
X179900001Y-38982857D01*
X179500001Y-37782857D02*
X179900001Y-38411429D01*
X180300001Y-37782857D01*
D12*
X139250000Y-61100000D02*
X139250000Y-62100000D01*
X140950000Y-62100000D02*
X140950000Y-61100000D01*
X141150000Y-50100000D02*
X141150000Y-51100000D01*
X142850000Y-51100000D02*
X142850000Y-50100000D01*
X148550000Y-49900000D02*
X148550000Y-48900000D01*
X146850000Y-48900000D02*
X146850000Y-49900000D01*
X150500000Y-45550000D02*
X151500000Y-45550000D01*
X151500000Y-43850000D02*
X150500000Y-43850000D01*
X192450000Y-55700000D02*
X192450000Y-54700000D01*
X190750000Y-54700000D02*
X190750000Y-55700000D01*
X160640000Y-76145000D02*
X174640000Y-76145000D01*
X174640000Y-76145000D02*
X174640000Y-85145000D01*
X174640000Y-85145000D02*
X160640000Y-85145000D01*
X160640000Y-85145000D02*
X160640000Y-76145000D01*
X174259000Y-74223000D02*
X160259000Y-74223000D01*
X160259000Y-74223000D02*
X160259000Y-65223000D01*
X160259000Y-65223000D02*
X174259000Y-65223000D01*
X174259000Y-65223000D02*
X174259000Y-74223000D01*
X152696000Y-86400000D02*
X152696000Y-81193000D01*
X152696000Y-73319000D02*
X152696000Y-78272000D01*
X159300000Y-86400000D02*
X159300000Y-81320000D01*
X159300000Y-73319000D02*
X159300000Y-78399000D01*
X159300000Y-73319000D02*
X152696000Y-73319000D01*
X152696000Y-86400000D02*
X159300000Y-86400000D01*
X136496000Y-87200000D02*
X136496000Y-81993000D01*
X136496000Y-74119000D02*
X136496000Y-79072000D01*
X143100000Y-87200000D02*
X143100000Y-82120000D01*
X143100000Y-74119000D02*
X143100000Y-79199000D01*
X143100000Y-74119000D02*
X136496000Y-74119000D01*
X136496000Y-87200000D02*
X143100000Y-87200000D01*
X154700000Y-93204000D02*
X149493000Y-93204000D01*
X141619000Y-93204000D02*
X146572000Y-93204000D01*
X154700000Y-86600000D02*
X149620000Y-86600000D01*
X141619000Y-86600000D02*
X146699000Y-86600000D01*
X141619000Y-86600000D02*
X141619000Y-93204000D01*
X154700000Y-93204000D02*
X154700000Y-86600000D01*
X151004000Y-73200000D02*
X151004000Y-78407000D01*
X151004000Y-86281000D02*
X151004000Y-81328000D01*
X144400000Y-73200000D02*
X144400000Y-78280000D01*
X144400000Y-86281000D02*
X144400000Y-81201000D01*
X144400000Y-86281000D02*
X151004000Y-86281000D01*
X151004000Y-73200000D02*
X144400000Y-73200000D01*
X174000000Y-86696000D02*
X179207000Y-86696000D01*
X187081000Y-86696000D02*
X182128000Y-86696000D01*
X174000000Y-93300000D02*
X179080000Y-93300000D01*
X187081000Y-93300000D02*
X182001000Y-93300000D01*
X187081000Y-93300000D02*
X187081000Y-86696000D01*
X174000000Y-86696000D02*
X174000000Y-93300000D01*
X184104000Y-72400000D02*
X184104000Y-77607000D01*
X184104000Y-85481000D02*
X184104000Y-80528000D01*
X177500000Y-72400000D02*
X177500000Y-77480000D01*
X177500000Y-85481000D02*
X177500000Y-80401000D01*
X177500000Y-85481000D02*
X184104000Y-85481000D01*
X184104000Y-72400000D02*
X177500000Y-72400000D01*
X174000000Y-93304000D02*
X168793000Y-93304000D01*
X160919000Y-93304000D02*
X165872000Y-93304000D01*
X174000000Y-86700000D02*
X168920000Y-86700000D01*
X160919000Y-86700000D02*
X165999000Y-86700000D01*
X160919000Y-86700000D02*
X160919000Y-93304000D01*
X174000000Y-93304000D02*
X174000000Y-86700000D01*
X192604000Y-72300000D02*
X192604000Y-77507000D01*
X192604000Y-85381000D02*
X192604000Y-80428000D01*
X186000000Y-72300000D02*
X186000000Y-77380000D01*
X186000000Y-85381000D02*
X186000000Y-80301000D01*
X186000000Y-85381000D02*
X192604000Y-85381000D01*
X192604000Y-72300000D02*
X186000000Y-72300000D01*
X167204000Y-51700000D02*
X167204000Y-56907000D01*
X167204000Y-64781000D02*
X167204000Y-59828000D01*
X160600000Y-51700000D02*
X160600000Y-56780000D01*
X160600000Y-64781000D02*
X160600000Y-59701000D01*
X160600000Y-64781000D02*
X167204000Y-64781000D01*
X167204000Y-51700000D02*
X160600000Y-51700000D01*
X181102000Y-61341000D02*
X175895000Y-61341000D01*
X168021000Y-61341000D02*
X172974000Y-61341000D01*
X181102000Y-54737000D02*
X176022000Y-54737000D01*
X168021000Y-54737000D02*
X173101000Y-54737000D01*
X168021000Y-54737000D02*
X168021000Y-61341000D01*
X181102000Y-61341000D02*
X181102000Y-54737000D01*
D10*
X191800000Y-70200000D02*
X182200000Y-70200000D01*
X182200000Y-70200000D02*
X182200000Y-57800000D01*
X182200000Y-57800000D02*
X194200000Y-57800000D01*
X194200000Y-57800000D02*
X194200000Y-70200000D01*
X194200000Y-70200000D02*
X191800000Y-70200000D01*
D12*
X178600000Y-64670000D02*
X181140000Y-64670000D01*
X181140000Y-64670000D02*
X181140000Y-62130000D01*
X181140000Y-62130000D02*
X178600000Y-62130000D01*
X176060000Y-64670000D02*
X178600000Y-64670000D01*
X178600000Y-64670000D02*
X178600000Y-62130000D01*
X178600000Y-62130000D02*
X176060000Y-62130000D01*
X176060000Y-62130000D02*
X176060000Y-64670000D01*
X156700000Y-65200000D02*
X156700000Y-64300000D01*
X156700000Y-64300000D02*
X157500000Y-64300000D01*
X159700000Y-65200000D02*
X159700000Y-64300000D01*
X159700000Y-64300000D02*
X158900000Y-64300000D01*
X158500000Y-65700000D02*
X157900000Y-65700000D01*
X146825000Y-46300000D02*
X146825000Y-45100000D01*
X148575000Y-45100000D02*
X148575000Y-46300000D01*
X141125000Y-47400000D02*
X141125000Y-46200000D01*
X142875000Y-46200000D02*
X142875000Y-47400000D01*
X154900000Y-44825000D02*
X156100000Y-44825000D01*
X156100000Y-46575000D02*
X154900000Y-46575000D01*
X187800000Y-53325000D02*
X189000000Y-53325000D01*
X189000000Y-55075000D02*
X187800000Y-55075000D01*
X178600000Y-65660000D02*
X181140000Y-65660000D01*
X181140000Y-65660000D02*
X181140000Y-68200000D01*
X181140000Y-68200000D02*
X178600000Y-68200000D01*
X178600000Y-68200000D02*
X178600000Y-65660000D01*
X178600000Y-65660000D02*
X176060000Y-65660000D01*
X176060000Y-65660000D02*
X176060000Y-70740000D01*
X176060000Y-70740000D02*
X181140000Y-70740000D01*
X181140000Y-70740000D02*
X181140000Y-68200000D01*
D10*
X143400000Y-65600000D02*
X143400000Y-73000000D01*
X143400000Y-73000000D02*
X138000000Y-73000000D01*
X138000000Y-73000000D02*
X138000000Y-65600000D01*
X138000000Y-65600000D02*
X143400000Y-65600000D01*
X144723000Y-64941300D02*
X144723000Y-57541300D01*
X144723000Y-57541300D02*
X150123000Y-57541300D01*
X150123000Y-57541300D02*
X150123000Y-64941300D01*
X150123000Y-64941300D02*
X144723000Y-64941300D01*
D12*
X166261700Y-39199300D02*
X182261700Y-39199300D01*
X182261700Y-39199300D02*
X182261700Y-51199300D01*
X182261700Y-51199300D02*
X166261700Y-51199300D01*
X166261700Y-51199300D02*
X166261700Y-39199300D01*
X186126300Y-47564600D02*
X186126300Y-47709600D01*
X190276300Y-47564600D02*
X190276300Y-47709600D01*
X190276300Y-52714600D02*
X190276300Y-52569600D01*
X186126300Y-52714600D02*
X186126300Y-52569600D01*
X186126300Y-47564600D02*
X190276300Y-47564600D01*
X186126300Y-52714600D02*
X190276300Y-52714600D01*
X186126300Y-47709600D02*
X184726300Y-47709600D01*
X136568000Y-52016000D02*
X137838000Y-52016000D01*
X137317300Y-51228600D02*
X137063300Y-51266700D01*
X137063300Y-51266700D02*
X136783900Y-51444500D01*
X136783900Y-51444500D02*
X136568000Y-51762000D01*
X136568000Y-51762000D02*
X136555300Y-52206500D01*
X136555300Y-52206500D02*
X136758500Y-52562100D01*
X136758500Y-52562100D02*
X137050600Y-52739900D01*
X137050600Y-52739900D02*
X137368100Y-52790700D01*
X137368100Y-52790700D02*
X137774500Y-52689100D01*
X137774500Y-52689100D02*
X138028500Y-52346200D01*
X138028500Y-52346200D02*
X138117400Y-52168400D01*
X140378000Y-43634000D02*
X140378000Y-53286000D01*
X137330000Y-53286000D02*
X136060000Y-53286000D01*
X136060000Y-53286000D02*
X136060000Y-43634000D01*
X136060000Y-43634000D02*
X141140000Y-43634000D01*
X141140000Y-53286000D02*
X138600000Y-53286000D01*
X138600000Y-53286000D02*
X137330000Y-53286000D01*
X155417520Y-42499280D02*
X155417520Y-41356280D01*
X152369520Y-42499280D02*
X152369520Y-41356280D01*
X148559520Y-41356280D02*
X148559520Y-37673280D01*
X148559520Y-37673280D02*
X159227520Y-37673280D01*
X159227520Y-37673280D02*
X159227520Y-41356280D01*
X148559520Y-42499280D02*
X148559520Y-41356280D01*
X148559520Y-41356280D02*
X159227520Y-41356280D01*
X159227520Y-41356280D02*
X159227520Y-42499280D01*
X153893520Y-42499280D02*
X159227520Y-42499280D01*
X153893520Y-42499280D02*
X148559520Y-42499280D01*
X182700000Y-55650000D02*
X183700000Y-55650000D01*
X183700000Y-53950000D02*
X182700000Y-53950000D01*
X188400860Y-44800000D02*
X187400100Y-44800000D01*
X187400100Y-44800000D02*
X188101140Y-43999900D01*
X188101140Y-43999900D02*
X187199440Y-44299620D01*
X187199440Y-44299620D02*
X187400100Y-43298860D01*
X187400100Y-43298860D02*
X186699060Y-44098960D01*
X186699060Y-44098960D02*
X186699060Y-43100740D01*
X186699060Y-43100740D02*
X186300280Y-44200560D01*
X186300280Y-44200560D02*
X185599240Y-43400460D01*
X185599240Y-43400460D02*
X186000560Y-44401220D01*
X186000560Y-44401220D02*
X185098860Y-44098960D01*
X185098860Y-44098960D02*
X185799900Y-44800000D01*
X185799900Y-44800000D02*
X184900740Y-44800000D01*
X187301040Y-44800000D02*
G75*
G03X187301040Y-44800000I-701040J0D01*
G01*
X188400860Y-44800000D02*
G75*
G03X188400860Y-44800000I-1800860J0D01*
G01*
X153264000Y-69100000D02*
G75*
G03X153264000Y-69100000I-4064000J0D01*
G01*
D10*
X165748500Y-84455000D02*
G75*
G03X165748500Y-84455000I-648500J0D01*
G01*
X168288500Y-84455000D02*
G75*
G03X168288500Y-84455000I-648500J0D01*
G01*
X170828500Y-84455000D02*
G75*
G03X170828500Y-84455000I-648500J0D01*
G01*
X173368500Y-84455000D02*
G75*
G03X173368500Y-84455000I-648500J0D01*
G01*
X173368500Y-76835000D02*
G75*
G03X173368500Y-76835000I-648500J0D01*
G01*
X170828500Y-76835000D02*
G75*
G03X170828500Y-76835000I-648500J0D01*
G01*
X168288500Y-76835000D02*
G75*
G03X168288500Y-76835000I-648500J0D01*
G01*
X165748500Y-76835000D02*
G75*
G03X165748500Y-76835000I-648500J0D01*
G01*
X163208500Y-76835000D02*
G75*
G03X163208500Y-76835000I-648500J0D01*
G01*
X170447500Y-65913000D02*
G75*
G03X170447500Y-65913000I-648500J0D01*
G01*
X167907500Y-65913000D02*
G75*
G03X167907500Y-65913000I-648500J0D01*
G01*
X165367500Y-65913000D02*
G75*
G03X165367500Y-65913000I-648500J0D01*
G01*
X162827500Y-65913000D02*
G75*
G03X162827500Y-65913000I-648500J0D01*
G01*
X162827500Y-73533000D02*
G75*
G03X162827500Y-73533000I-648500J0D01*
G01*
X165367500Y-73533000D02*
G75*
G03X165367500Y-73533000I-648500J0D01*
G01*
X167907500Y-73533000D02*
G75*
G03X167907500Y-73533000I-648500J0D01*
G01*
X170447500Y-73533000D02*
G75*
G03X170447500Y-73533000I-648500J0D01*
G01*
X172987500Y-73533000D02*
G75*
G03X172987500Y-73533000I-648500J0D01*
G01*
X159741490Y-79796000D02*
G75*
G03X159741490Y-79796000I-949490J0D01*
G01*
X154153490Y-79796000D02*
G75*
G03X154153490Y-79796000I-949490J0D01*
G01*
X143541490Y-80596000D02*
G75*
G03X143541490Y-80596000I-949490J0D01*
G01*
X137953490Y-80596000D02*
G75*
G03X137953490Y-80596000I-949490J0D01*
G01*
X149045490Y-87108000D02*
G75*
G03X149045490Y-87108000I-949490J0D01*
G01*
X149045490Y-92696000D02*
G75*
G03X149045490Y-92696000I-949490J0D01*
G01*
X145857490Y-79804000D02*
G75*
G03X145857490Y-79804000I-949490J0D01*
G01*
X151445490Y-79804000D02*
G75*
G03X151445490Y-79804000I-949490J0D01*
G01*
X181553490Y-92792000D02*
G75*
G03X181553490Y-92792000I-949490J0D01*
G01*
X181553490Y-87204000D02*
G75*
G03X181553490Y-87204000I-949490J0D01*
G01*
X178957490Y-79004000D02*
G75*
G03X178957490Y-79004000I-949490J0D01*
G01*
X184545490Y-79004000D02*
G75*
G03X184545490Y-79004000I-949490J0D01*
G01*
X168345490Y-87208000D02*
G75*
G03X168345490Y-87208000I-949490J0D01*
G01*
X168345490Y-92796000D02*
G75*
G03X168345490Y-92796000I-949490J0D01*
G01*
X187457490Y-78904000D02*
G75*
G03X187457490Y-78904000I-949490J0D01*
G01*
X193045490Y-78904000D02*
G75*
G03X193045490Y-78904000I-949490J0D01*
G01*
X162057490Y-58304000D02*
G75*
G03X162057490Y-58304000I-949490J0D01*
G01*
X167645490Y-58304000D02*
G75*
G03X167645490Y-58304000I-949490J0D01*
G01*
X175447490Y-55245000D02*
G75*
G03X175447490Y-55245000I-949490J0D01*
G01*
X175447490Y-60833000D02*
G75*
G03X175447490Y-60833000I-949490J0D01*
G01*
X193500000Y-67600000D02*
G75*
G03X193500000Y-67600000I-1700000J0D01*
G01*
X193500000Y-60000000D02*
G75*
G03X193500000Y-60000000I-1700000J0D01*
G01*
X184950000Y-63800000D02*
G75*
G03X184950000Y-63800000I-950000J0D01*
G01*
X177330000Y-64213600D02*
X177330000Y-64213600D01*
X177330000Y-62586400D02*
X177330000Y-62586400D01*
X177330000Y-64213600D02*
G75*
G03X177330000Y-62586400I0J813600D01*
G01*
X177330000Y-62586400D02*
G75*
G03X177330000Y-64213600I0J-813600D01*
G01*
X177330000Y-66116400D02*
X177330000Y-66116400D01*
X177330000Y-67743600D02*
X177330000Y-67743600D01*
X177330000Y-66116400D02*
G75*
G03X177330000Y-67743600I0J-813600D01*
G01*
X177330000Y-67743600D02*
G75*
G03X177330000Y-66116400I0J813600D01*
G01*
X179870000Y-68656400D02*
X179870000Y-68656400D01*
X179870000Y-70283600D02*
X179870000Y-70283600D01*
X179870000Y-68656400D02*
G75*
G03X179870000Y-70283600I0J-813600D01*
G01*
X179870000Y-70283600D02*
G75*
G03X179870000Y-68656400I0J813600D01*
G01*
X177330000Y-68656400D02*
X177330000Y-68656400D01*
X177330000Y-70283600D02*
X177330000Y-70283600D01*
X177330000Y-68656400D02*
G75*
G03X177330000Y-70283600I0J-813600D01*
G01*
X177330000Y-70283600D02*
G75*
G03X177330000Y-68656400I0J813600D01*
G01*
X143050000Y-69300000D02*
G75*
G03X143050000Y-69300000I-850000J0D01*
G01*
X140050000Y-66800000D02*
G75*
G03X140050000Y-66800000I-850000J0D01*
G01*
X143050000Y-71800000D02*
G75*
G03X143050000Y-71800000I-850000J0D01*
G01*
X140050000Y-71800000D02*
G75*
G03X140050000Y-71800000I-850000J0D01*
G01*
X140050000Y-69300000D02*
G75*
G03X140050000Y-69300000I-850000J0D01*
G01*
X146773000Y-61241300D02*
G75*
G03X146773000Y-61241300I-850000J0D01*
G01*
X149773000Y-63741300D02*
G75*
G03X149773000Y-63741300I-850000J0D01*
G01*
X146773000Y-58741300D02*
G75*
G03X146773000Y-58741300I-850000J0D01*
G01*
X149773000Y-58741300D02*
G75*
G03X149773000Y-58741300I-850000J0D01*
G01*
X149773000Y-61241300D02*
G75*
G03X149773000Y-61241300I-850000J0D01*
G01*
X164681700Y-39199300D02*
G75*
G03X164681700Y-39199300I-1220000J0D01*
G01*
X164275300Y-43199300D02*
G75*
G03X164275300Y-43199300I-813600J0D01*
G01*
X164681700Y-47199300D02*
G75*
G03X164681700Y-47199300I-1220000J0D01*
G01*
X164275300Y-51199300D02*
G75*
G03X164275300Y-51199300I-813600J0D01*
G01*
X139312000Y-48460000D02*
G75*
G03X139312000Y-48460000I-712000J0D01*
G01*
X139312000Y-45920000D02*
G75*
G03X139312000Y-45920000I-712000J0D01*
G01*
X139312000Y-51000000D02*
G75*
G03X139312000Y-51000000I-712000J0D01*
G01*
X153192950Y-38952170D02*
X153192950Y-39950390D01*
X154594090Y-38952170D02*
X154594090Y-39950390D01*
X153192950Y-39950390D02*
G75*
G03X154594090Y-39950390I700570J0D01*
G01*
X154594090Y-38952170D02*
G75*
G03X153192950Y-38952170I-700570J0D01*
G01*
X155732950Y-38952170D02*
X155732950Y-39950390D01*
X157134090Y-38952170D02*
X157134090Y-39950390D01*
X155732950Y-39950390D02*
G75*
G03X157134090Y-39950390I700570J0D01*
G01*
X157134090Y-38952170D02*
G75*
G03X155732950Y-38952170I-700570J0D01*
G01*
X150652950Y-38952170D02*
X150652950Y-39950390D01*
X152054090Y-38952170D02*
X152054090Y-39950390D01*
X150652950Y-39950390D02*
G75*
G03X152054090Y-39950390I700570J0D01*
G01*
X152054090Y-38952170D02*
G75*
G03X150652950Y-38952170I-700570J0D01*
G01*
X190848950Y-44800000D02*
G75*
G03X190848950Y-44800000I-949490J0D01*
G01*
X184250030Y-44800000D02*
G75*
G03X184250030Y-44800000I-949490J0D01*
G01*
X148705500Y-69100000D02*
G75*
G03X148705500Y-69100000I-775500J0D01*
G01*
X157050000Y-90400000D02*
G75*
G03X157050000Y-90400000I-850000J0D01*
G01*
X159590000Y-92940000D02*
G75*
G03X159590000Y-92940000I-850000J0D01*
G01*
X159590000Y-87860000D02*
G75*
G03X159590000Y-87860000I-850000J0D01*
G01*
X159590000Y-90400000D02*
G75*
G03X159590000Y-90400000I-850000J0D01*
G01*
D12*
X138357143Y-61766666D02*
X138404762Y-61814285D01*
X138452381Y-61957142D01*
X138452381Y-62052380D01*
X138404762Y-62195238D01*
X138309524Y-62290476D01*
X138214286Y-62338095D01*
X138023810Y-62385714D01*
X137880952Y-62385714D01*
X137690476Y-62338095D01*
X137595238Y-62290476D01*
X137500000Y-62195238D01*
X137452381Y-62052380D01*
X137452381Y-61957142D01*
X137500000Y-61814285D01*
X137547619Y-61766666D01*
X137785714Y-60909523D02*
X138452381Y-60909523D01*
X137404762Y-61147619D02*
X138119048Y-61385714D01*
X138119048Y-60766666D01*
X143757143Y-51242857D02*
X143804762Y-51290476D01*
X143852381Y-51433333D01*
X143852381Y-51528571D01*
X143804762Y-51671429D01*
X143709524Y-51766667D01*
X143614286Y-51814286D01*
X143423810Y-51861905D01*
X143280952Y-51861905D01*
X143090476Y-51814286D01*
X142995238Y-51766667D01*
X142900000Y-51671429D01*
X142852381Y-51528571D01*
X142852381Y-51433333D01*
X142900000Y-51290476D01*
X142947619Y-51242857D01*
X143852381Y-50290476D02*
X143852381Y-50861905D01*
X143852381Y-50576191D02*
X142852381Y-50576191D01*
X142995238Y-50671429D01*
X143090476Y-50766667D01*
X143138095Y-50861905D01*
X142947619Y-49909524D02*
X142900000Y-49861905D01*
X142852381Y-49766667D01*
X142852381Y-49528571D01*
X142900000Y-49433333D01*
X142947619Y-49385714D01*
X143042857Y-49338095D01*
X143138095Y-49338095D01*
X143280952Y-49385714D01*
X143852381Y-49957143D01*
X143852381Y-49338095D01*
X149657143Y-49842857D02*
X149704762Y-49890476D01*
X149752381Y-50033333D01*
X149752381Y-50128571D01*
X149704762Y-50271429D01*
X149609524Y-50366667D01*
X149514286Y-50414286D01*
X149323810Y-50461905D01*
X149180952Y-50461905D01*
X148990476Y-50414286D01*
X148895238Y-50366667D01*
X148800000Y-50271429D01*
X148752381Y-50128571D01*
X148752381Y-50033333D01*
X148800000Y-49890476D01*
X148847619Y-49842857D01*
X149752381Y-48890476D02*
X149752381Y-49461905D01*
X149752381Y-49176191D02*
X148752381Y-49176191D01*
X148895238Y-49271429D01*
X148990476Y-49366667D01*
X149038095Y-49461905D01*
X148752381Y-47985714D02*
X148752381Y-48461905D01*
X149228571Y-48509524D01*
X149180952Y-48461905D01*
X149133333Y-48366667D01*
X149133333Y-48128571D01*
X149180952Y-48033333D01*
X149228571Y-47985714D01*
X149323810Y-47938095D01*
X149561905Y-47938095D01*
X149657143Y-47985714D01*
X149704762Y-48033333D01*
X149752381Y-48128571D01*
X149752381Y-48366667D01*
X149704762Y-48461905D01*
X149657143Y-48509524D01*
X150557143Y-46657143D02*
X150509524Y-46704762D01*
X150366667Y-46752381D01*
X150271429Y-46752381D01*
X150128571Y-46704762D01*
X150033333Y-46609524D01*
X149985714Y-46514286D01*
X149938095Y-46323810D01*
X149938095Y-46180952D01*
X149985714Y-45990476D01*
X150033333Y-45895238D01*
X150128571Y-45800000D01*
X150271429Y-45752381D01*
X150366667Y-45752381D01*
X150509524Y-45800000D01*
X150557143Y-45847619D01*
X151509524Y-46752381D02*
X150938095Y-46752381D01*
X151223809Y-46752381D02*
X151223809Y-45752381D01*
X151128571Y-45895238D01*
X151033333Y-45990476D01*
X150938095Y-46038095D01*
X152366667Y-45752381D02*
X152176190Y-45752381D01*
X152080952Y-45800000D01*
X152033333Y-45847619D01*
X151938095Y-45990476D01*
X151890476Y-46180952D01*
X151890476Y-46561905D01*
X151938095Y-46657143D01*
X151985714Y-46704762D01*
X152080952Y-46752381D01*
X152271429Y-46752381D01*
X152366667Y-46704762D01*
X152414286Y-46657143D01*
X152461905Y-46561905D01*
X152461905Y-46323810D01*
X152414286Y-46228571D01*
X152366667Y-46180952D01*
X152271429Y-46133333D01*
X152080952Y-46133333D01*
X151985714Y-46180952D01*
X151938095Y-46228571D01*
X151890476Y-46323810D01*
X194057143Y-55842857D02*
X194104762Y-55890476D01*
X194152381Y-56033333D01*
X194152381Y-56128571D01*
X194104762Y-56271429D01*
X194009524Y-56366667D01*
X193914286Y-56414286D01*
X193723810Y-56461905D01*
X193580952Y-56461905D01*
X193390476Y-56414286D01*
X193295238Y-56366667D01*
X193200000Y-56271429D01*
X193152381Y-56128571D01*
X193152381Y-56033333D01*
X193200000Y-55890476D01*
X193247619Y-55842857D01*
X194152381Y-54890476D02*
X194152381Y-55461905D01*
X194152381Y-55176191D02*
X193152381Y-55176191D01*
X193295238Y-55271429D01*
X193390476Y-55366667D01*
X193438095Y-55461905D01*
X193152381Y-54557143D02*
X193152381Y-53890476D01*
X194152381Y-54319048D01*
D10*
X133024560Y-57351533D02*
X133057893Y-57384867D01*
X133091227Y-57484867D01*
X133091227Y-57551533D01*
X133057893Y-57651533D01*
X132991227Y-57718200D01*
X132924560Y-57751533D01*
X132791227Y-57784867D01*
X132691227Y-57784867D01*
X132557893Y-57751533D01*
X132491227Y-57718200D01*
X132424560Y-57651533D01*
X132391227Y-57551533D01*
X132391227Y-57484867D01*
X132424560Y-57384867D01*
X132457893Y-57351533D01*
X133091227Y-57051533D02*
X132391227Y-57051533D01*
X133091227Y-56651533D01*
X132391227Y-56651533D01*
X133091227Y-55951534D02*
X133091227Y-56351534D01*
X133091227Y-56151534D02*
X132391227Y-56151534D01*
X132491227Y-56218200D01*
X132557893Y-56284867D01*
X132591227Y-56351534D01*
X132724560Y-74234866D02*
X132724560Y-74001533D01*
X133091227Y-73901533D02*
X133091227Y-74234866D01*
X132391227Y-74234866D01*
X132391227Y-73901533D01*
X133091227Y-73601533D02*
X132391227Y-73601533D01*
X132391227Y-73434867D01*
X132424560Y-73334867D01*
X132491227Y-73268200D01*
X132557893Y-73234867D01*
X132691227Y-73201533D01*
X132791227Y-73201533D01*
X132924560Y-73234867D01*
X132991227Y-73268200D01*
X133057893Y-73334867D01*
X133091227Y-73434867D01*
X133091227Y-73601533D01*
X132424560Y-72534867D02*
X132391227Y-72601533D01*
X132391227Y-72701533D01*
X132424560Y-72801533D01*
X132491227Y-72868200D01*
X132557893Y-72901533D01*
X132691227Y-72934867D01*
X132791227Y-72934867D01*
X132924560Y-72901533D01*
X132991227Y-72868200D01*
X133057893Y-72801533D01*
X133091227Y-72701533D01*
X133091227Y-72634867D01*
X133057893Y-72534867D01*
X133024560Y-72501533D01*
X132791227Y-72501533D01*
X132791227Y-72634867D01*
X132724560Y-72201533D02*
X132724560Y-71968200D01*
X133091227Y-71868200D02*
X133091227Y-72201533D01*
X132391227Y-72201533D01*
X132391227Y-71868200D01*
D12*
X166901905Y-79827381D02*
X166901905Y-78827381D01*
X167473334Y-79827381D02*
X167044762Y-79255952D01*
X167473334Y-78827381D02*
X166901905Y-79398810D01*
X168425715Y-79827381D02*
X167854286Y-79827381D01*
X168140000Y-79827381D02*
X168140000Y-78827381D01*
X168044762Y-78970238D01*
X167949524Y-79065476D01*
X167854286Y-79113095D01*
X166520905Y-71445381D02*
X166520905Y-70445381D01*
X167092334Y-71445381D02*
X166663762Y-70873952D01*
X167092334Y-70445381D02*
X166520905Y-71016810D01*
X167473286Y-70540619D02*
X167520905Y-70493000D01*
X167616143Y-70445381D01*
X167854239Y-70445381D01*
X167949477Y-70493000D01*
X167997096Y-70540619D01*
X168044715Y-70635857D01*
X168044715Y-70731095D01*
X167997096Y-70873952D01*
X167425667Y-71445381D01*
X168044715Y-71445381D01*
X156353861Y-80018546D02*
X156353861Y-80494737D01*
X155353861Y-80494737D01*
X156353861Y-79161403D02*
X156353861Y-79732832D01*
X156353861Y-79447118D02*
X155353861Y-79447118D01*
X155496718Y-79542356D01*
X155591956Y-79637594D01*
X155639575Y-79732832D01*
X140316421Y-80803306D02*
X140316421Y-81279497D01*
X139316421Y-81279497D01*
X139411659Y-80517592D02*
X139364040Y-80469973D01*
X139316421Y-80374735D01*
X139316421Y-80136639D01*
X139364040Y-80041401D01*
X139411659Y-79993782D01*
X139506897Y-79946163D01*
X139602135Y-79946163D01*
X139744992Y-79993782D01*
X140316421Y-80565211D01*
X140316421Y-79946163D01*
X148010614Y-90344221D02*
X147534423Y-90344221D01*
X147534423Y-89344221D01*
X148248709Y-89344221D02*
X148867757Y-89344221D01*
X148534423Y-89725173D01*
X148677281Y-89725173D01*
X148772519Y-89772792D01*
X148820138Y-89820411D01*
X148867757Y-89915650D01*
X148867757Y-90153745D01*
X148820138Y-90248983D01*
X148772519Y-90296602D01*
X148677281Y-90344221D01*
X148391566Y-90344221D01*
X148296328Y-90296602D01*
X148248709Y-90248983D01*
X148301701Y-80041786D02*
X148301701Y-80517977D01*
X147301701Y-80517977D01*
X147635034Y-79279881D02*
X148301701Y-79279881D01*
X147254082Y-79517977D02*
X147968368Y-79756072D01*
X147968368Y-79137024D01*
X180564334Y-89942381D02*
X180088143Y-89942381D01*
X180088143Y-88942381D01*
X181373858Y-88942381D02*
X180897667Y-88942381D01*
X180850048Y-89418571D01*
X180897667Y-89370952D01*
X180992905Y-89323333D01*
X181231001Y-89323333D01*
X181326239Y-89370952D01*
X181373858Y-89418571D01*
X181421477Y-89513810D01*
X181421477Y-89751905D01*
X181373858Y-89847143D01*
X181326239Y-89894762D01*
X181231001Y-89942381D01*
X180992905Y-89942381D01*
X180897667Y-89894762D01*
X180850048Y-89847143D01*
X181508381Y-79297666D02*
X181508381Y-79773857D01*
X180508381Y-79773857D01*
X180508381Y-78535761D02*
X180508381Y-78726238D01*
X180556000Y-78821476D01*
X180603619Y-78869095D01*
X180746476Y-78964333D01*
X180936952Y-79011952D01*
X181317905Y-79011952D01*
X181413143Y-78964333D01*
X181460762Y-78916714D01*
X181508381Y-78821476D01*
X181508381Y-78630999D01*
X181460762Y-78535761D01*
X181413143Y-78488142D01*
X181317905Y-78440523D01*
X181079810Y-78440523D01*
X180984571Y-78488142D01*
X180936952Y-78535761D01*
X180889333Y-78630999D01*
X180889333Y-78821476D01*
X180936952Y-78916714D01*
X180984571Y-78964333D01*
X181079810Y-79011952D01*
X167102334Y-90454381D02*
X166626143Y-90454381D01*
X166626143Y-89454381D01*
X167340429Y-89454381D02*
X168007096Y-89454381D01*
X167578524Y-90454381D01*
X189627381Y-78943666D02*
X189627381Y-79419857D01*
X188627381Y-79419857D01*
X189055952Y-78467476D02*
X189008333Y-78562714D01*
X188960714Y-78610333D01*
X188865476Y-78657952D01*
X188817857Y-78657952D01*
X188722619Y-78610333D01*
X188675000Y-78562714D01*
X188627381Y-78467476D01*
X188627381Y-78276999D01*
X188675000Y-78181761D01*
X188722619Y-78134142D01*
X188817857Y-78086523D01*
X188865476Y-78086523D01*
X188960714Y-78134142D01*
X189008333Y-78181761D01*
X189055952Y-78276999D01*
X189055952Y-78467476D01*
X189103571Y-78562714D01*
X189151190Y-78610333D01*
X189246429Y-78657952D01*
X189436905Y-78657952D01*
X189532143Y-78610333D01*
X189579762Y-78562714D01*
X189627381Y-78467476D01*
X189627381Y-78276999D01*
X189579762Y-78181761D01*
X189532143Y-78134142D01*
X189436905Y-78086523D01*
X189246429Y-78086523D01*
X189151190Y-78134142D01*
X189103571Y-78181761D01*
X189055952Y-78276999D01*
X164661381Y-58528666D02*
X164661381Y-59004857D01*
X163661381Y-59004857D01*
X164661381Y-58147714D02*
X164661381Y-57957238D01*
X164613762Y-57861999D01*
X164566143Y-57814380D01*
X164423286Y-57719142D01*
X164232810Y-57671523D01*
X163851857Y-57671523D01*
X163756619Y-57719142D01*
X163709000Y-57766761D01*
X163661381Y-57861999D01*
X163661381Y-58052476D01*
X163709000Y-58147714D01*
X163756619Y-58195333D01*
X163851857Y-58242952D01*
X164089952Y-58242952D01*
X164185190Y-58195333D01*
X164232810Y-58147714D01*
X164280429Y-58052476D01*
X164280429Y-57861999D01*
X164232810Y-57766761D01*
X164185190Y-57719142D01*
X164089952Y-57671523D01*
X173357143Y-59052381D02*
X172880952Y-59052381D01*
X172880952Y-58052381D01*
X174214286Y-59052381D02*
X173642857Y-59052381D01*
X173928571Y-59052381D02*
X173928571Y-58052381D01*
X173833333Y-58195238D01*
X173738095Y-58290476D01*
X173642857Y-58338095D01*
X175166667Y-59052381D02*
X174595238Y-59052381D01*
X174880952Y-59052381D02*
X174880952Y-58052381D01*
X174785714Y-58195238D01*
X174690476Y-58290476D01*
X174595238Y-58338095D01*
D10*
X188916667Y-67916666D02*
X188216667Y-67916666D01*
X188216667Y-67650000D01*
X188250000Y-67583333D01*
X188283333Y-67550000D01*
X188350000Y-67516666D01*
X188450000Y-67516666D01*
X188516667Y-67550000D01*
X188550000Y-67583333D01*
X188583333Y-67650000D01*
X188583333Y-67916666D01*
X188916667Y-66850000D02*
X188916667Y-67250000D01*
X188916667Y-67050000D02*
X188216667Y-67050000D01*
X188316667Y-67116666D01*
X188383333Y-67183333D01*
X188416667Y-67250000D01*
X188150000Y-64666666D02*
X188183333Y-64566666D01*
X188216667Y-64533333D01*
X188283333Y-64499999D01*
X188383333Y-64499999D01*
X188450000Y-64533333D01*
X188483333Y-64566666D01*
X188516667Y-64633333D01*
X188516667Y-64899999D01*
X187816667Y-64899999D01*
X187816667Y-64666666D01*
X187850000Y-64599999D01*
X187883333Y-64566666D01*
X187950000Y-64533333D01*
X188016667Y-64533333D01*
X188083333Y-64566666D01*
X188116667Y-64599999D01*
X188150000Y-64666666D01*
X188150000Y-64899999D01*
X188516667Y-64199999D02*
X187816667Y-64199999D01*
X188516667Y-63799999D01*
X187816667Y-63799999D01*
X188450000Y-63066666D02*
X188483333Y-63100000D01*
X188516667Y-63200000D01*
X188516667Y-63266666D01*
X188483333Y-63366666D01*
X188416667Y-63433333D01*
X188350000Y-63466666D01*
X188216667Y-63500000D01*
X188116667Y-63500000D01*
X187983333Y-63466666D01*
X187916667Y-63433333D01*
X187850000Y-63366666D01*
X187816667Y-63266666D01*
X187816667Y-63200000D01*
X187850000Y-63100000D01*
X187883333Y-63066666D01*
D12*
X175242381Y-64138095D02*
X174242381Y-64138095D01*
X174242381Y-63757142D01*
X174290000Y-63661904D01*
X174337619Y-63614285D01*
X174432857Y-63566666D01*
X174575714Y-63566666D01*
X174670952Y-63614285D01*
X174718571Y-63661904D01*
X174766190Y-63757142D01*
X174766190Y-64138095D01*
X174337619Y-63185714D02*
X174290000Y-63138095D01*
X174242381Y-63042857D01*
X174242381Y-62804761D01*
X174290000Y-62709523D01*
X174337619Y-62661904D01*
X174432857Y-62614285D01*
X174528095Y-62614285D01*
X174670952Y-62661904D01*
X175242381Y-63233333D01*
X175242381Y-62614285D01*
X155326762Y-65999619D02*
X155231524Y-65952000D01*
X155136286Y-65856762D01*
X154993429Y-65713905D01*
X154898190Y-65666286D01*
X154802952Y-65666286D01*
X154850571Y-65904381D02*
X154755333Y-65856762D01*
X154660095Y-65761524D01*
X154612476Y-65571048D01*
X154612476Y-65237714D01*
X154660095Y-65047238D01*
X154755333Y-64952000D01*
X154850571Y-64904381D01*
X155041048Y-64904381D01*
X155136286Y-64952000D01*
X155231524Y-65047238D01*
X155279143Y-65237714D01*
X155279143Y-65571048D01*
X155231524Y-65761524D01*
X155136286Y-65856762D01*
X155041048Y-65904381D01*
X154850571Y-65904381D01*
X155660095Y-64999619D02*
X155707714Y-64952000D01*
X155802952Y-64904381D01*
X156041048Y-64904381D01*
X156136286Y-64952000D01*
X156183905Y-64999619D01*
X156231524Y-65094857D01*
X156231524Y-65190095D01*
X156183905Y-65332952D01*
X155612476Y-65904381D01*
X156231524Y-65904381D01*
X148152381Y-43266666D02*
X147676190Y-43600000D01*
X148152381Y-43838095D02*
X147152381Y-43838095D01*
X147152381Y-43457142D01*
X147200000Y-43361904D01*
X147247619Y-43314285D01*
X147342857Y-43266666D01*
X147485714Y-43266666D01*
X147580952Y-43314285D01*
X147628571Y-43361904D01*
X147676190Y-43457142D01*
X147676190Y-43838095D01*
X147152381Y-42361904D02*
X147152381Y-42838095D01*
X147628571Y-42885714D01*
X147580952Y-42838095D01*
X147533333Y-42742857D01*
X147533333Y-42504761D01*
X147580952Y-42409523D01*
X147628571Y-42361904D01*
X147723810Y-42314285D01*
X147961905Y-42314285D01*
X148057143Y-42361904D01*
X148104762Y-42409523D01*
X148152381Y-42504761D01*
X148152381Y-42742857D01*
X148104762Y-42838095D01*
X148057143Y-42885714D01*
X144152381Y-46966666D02*
X143676190Y-47300000D01*
X144152381Y-47538095D02*
X143152381Y-47538095D01*
X143152381Y-47157142D01*
X143200000Y-47061904D01*
X143247619Y-47014285D01*
X143342857Y-46966666D01*
X143485714Y-46966666D01*
X143580952Y-47014285D01*
X143628571Y-47061904D01*
X143676190Y-47157142D01*
X143676190Y-47538095D01*
X143152381Y-46109523D02*
X143152381Y-46300000D01*
X143200000Y-46395238D01*
X143247619Y-46442857D01*
X143390476Y-46538095D01*
X143580952Y-46585714D01*
X143961905Y-46585714D01*
X144057143Y-46538095D01*
X144104762Y-46490476D01*
X144152381Y-46395238D01*
X144152381Y-46204761D01*
X144104762Y-46109523D01*
X144057143Y-46061904D01*
X143961905Y-46014285D01*
X143723810Y-46014285D01*
X143628571Y-46061904D01*
X143580952Y-46109523D01*
X143533333Y-46204761D01*
X143533333Y-46395238D01*
X143580952Y-46490476D01*
X143628571Y-46538095D01*
X143723810Y-46585714D01*
X155333334Y-47752381D02*
X155000000Y-47276190D01*
X154761905Y-47752381D02*
X154761905Y-46752381D01*
X155142858Y-46752381D01*
X155238096Y-46800000D01*
X155285715Y-46847619D01*
X155333334Y-46942857D01*
X155333334Y-47085714D01*
X155285715Y-47180952D01*
X155238096Y-47228571D01*
X155142858Y-47276190D01*
X154761905Y-47276190D01*
X155666667Y-46752381D02*
X156333334Y-46752381D01*
X155904762Y-47752381D01*
X188233334Y-56752381D02*
X187900000Y-56276190D01*
X187661905Y-56752381D02*
X187661905Y-55752381D01*
X188042858Y-55752381D01*
X188138096Y-55800000D01*
X188185715Y-55847619D01*
X188233334Y-55942857D01*
X188233334Y-56085714D01*
X188185715Y-56180952D01*
X188138096Y-56228571D01*
X188042858Y-56276190D01*
X187661905Y-56276190D01*
X188804762Y-56180952D02*
X188709524Y-56133333D01*
X188661905Y-56085714D01*
X188614286Y-55990476D01*
X188614286Y-55942857D01*
X188661905Y-55847619D01*
X188709524Y-55800000D01*
X188804762Y-55752381D01*
X188995239Y-55752381D01*
X189090477Y-55800000D01*
X189138096Y-55847619D01*
X189185715Y-55942857D01*
X189185715Y-55990476D01*
X189138096Y-56085714D01*
X189090477Y-56133333D01*
X188995239Y-56180952D01*
X188804762Y-56180952D01*
X188709524Y-56228571D01*
X188661905Y-56276190D01*
X188614286Y-56371429D01*
X188614286Y-56561905D01*
X188661905Y-56657143D01*
X188709524Y-56704762D01*
X188804762Y-56752381D01*
X188995239Y-56752381D01*
X189090477Y-56704762D01*
X189138096Y-56657143D01*
X189185715Y-56561905D01*
X189185715Y-56371429D01*
X189138096Y-56276190D01*
X189090477Y-56228571D01*
X188995239Y-56180952D01*
X174242381Y-68961905D02*
X174242381Y-68390476D01*
X175242381Y-68676191D02*
X174242381Y-68676191D01*
X175242381Y-67533333D02*
X175242381Y-68104762D01*
X175242381Y-67819048D02*
X174242381Y-67819048D01*
X174385238Y-67914286D01*
X174480476Y-68009524D01*
X174528095Y-68104762D01*
D10*
X140166667Y-73416667D02*
X140566667Y-73416667D01*
X140366667Y-74116667D02*
X140366667Y-73416667D01*
X140766666Y-73483333D02*
X140800000Y-73450000D01*
X140866666Y-73416667D01*
X141033333Y-73416667D01*
X141100000Y-73450000D01*
X141133333Y-73483333D01*
X141166666Y-73550000D01*
X141166666Y-73616667D01*
X141133333Y-73716667D01*
X140733333Y-74116667D01*
X141166666Y-74116667D01*
X139633334Y-64616667D02*
X139566667Y-64583333D01*
X139533334Y-64550000D01*
X139500000Y-64483333D01*
X139500000Y-64450000D01*
X139533334Y-64383333D01*
X139566667Y-64350000D01*
X139633334Y-64316667D01*
X139766667Y-64316667D01*
X139833334Y-64350000D01*
X139866667Y-64383333D01*
X139900000Y-64450000D01*
X139900000Y-64483333D01*
X139866667Y-64550000D01*
X139833334Y-64583333D01*
X139766667Y-64616667D01*
X139633334Y-64616667D01*
X139566667Y-64650000D01*
X139533334Y-64683333D01*
X139500000Y-64750000D01*
X139500000Y-64883333D01*
X139533334Y-64950000D01*
X139566667Y-64983333D01*
X139633334Y-65016667D01*
X139766667Y-65016667D01*
X139833334Y-64983333D01*
X139866667Y-64950000D01*
X139900000Y-64883333D01*
X139900000Y-64750000D01*
X139866667Y-64683333D01*
X139833334Y-64650000D01*
X139766667Y-64616667D01*
X140200001Y-64950000D02*
X140233334Y-64983333D01*
X140200001Y-65016667D01*
X140166667Y-64983333D01*
X140200001Y-64950000D01*
X140200001Y-65016667D01*
X140200001Y-64583333D02*
X140233334Y-64616667D01*
X140200001Y-64650000D01*
X140166667Y-64616667D01*
X140200001Y-64583333D01*
X140200001Y-64650000D01*
X140900000Y-65016667D02*
X140500000Y-65016667D01*
X140700000Y-65016667D02*
X140700000Y-64316667D01*
X140633334Y-64416667D01*
X140566667Y-64483333D01*
X140500000Y-64516667D01*
X146889667Y-56357967D02*
X147289667Y-56357967D01*
X147089667Y-57057967D02*
X147089667Y-56357967D01*
X147456333Y-56357967D02*
X147889666Y-56357967D01*
X147656333Y-56624633D01*
X147756333Y-56624633D01*
X147823000Y-56657967D01*
X147856333Y-56691300D01*
X147889666Y-56757967D01*
X147889666Y-56924633D01*
X147856333Y-56991300D01*
X147823000Y-57024633D01*
X147756333Y-57057967D01*
X147556333Y-57057967D01*
X147489666Y-57024633D01*
X147456333Y-56991300D01*
X147556334Y-65691300D02*
X147556334Y-66157967D01*
X147389667Y-65424633D02*
X147223000Y-65924633D01*
X147656334Y-65924633D01*
X147923001Y-66091300D02*
X147956334Y-66124633D01*
X147923001Y-66157967D01*
X147889667Y-66124633D01*
X147923001Y-66091300D01*
X147923001Y-66157967D01*
X147923001Y-65724633D02*
X147956334Y-65757967D01*
X147923001Y-65791300D01*
X147889667Y-65757967D01*
X147923001Y-65724633D01*
X147923001Y-65791300D01*
X148623000Y-66157967D02*
X148223000Y-66157967D01*
X148423000Y-66157967D02*
X148423000Y-65457967D01*
X148356334Y-65557967D01*
X148289667Y-65624633D01*
X148223000Y-65657967D01*
D12*
X174114081Y-45961205D02*
X174114081Y-45389776D01*
X175114081Y-45675491D02*
X174114081Y-45675491D01*
X174447414Y-44627871D02*
X175114081Y-44627871D01*
X174066462Y-44865967D02*
X174780748Y-45104062D01*
X174780748Y-44485014D01*
X187439395Y-46091981D02*
X187439395Y-46901505D01*
X187487014Y-46996743D01*
X187534633Y-47044362D01*
X187629871Y-47091981D01*
X187820348Y-47091981D01*
X187915586Y-47044362D01*
X187963205Y-46996743D01*
X188010824Y-46901505D01*
X188010824Y-46091981D01*
X189010824Y-47091981D02*
X188439395Y-47091981D01*
X188725109Y-47091981D02*
X188725109Y-46091981D01*
X188629871Y-46234838D01*
X188534633Y-46330076D01*
X188439395Y-46377695D01*
X140890476Y-42252381D02*
X141223809Y-43252381D01*
X141557143Y-42252381D01*
X142461905Y-43252381D02*
X142128571Y-42776190D01*
X141890476Y-43252381D02*
X141890476Y-42252381D01*
X142271429Y-42252381D01*
X142366667Y-42300000D01*
X142414286Y-42347619D01*
X142461905Y-42442857D01*
X142461905Y-42585714D01*
X142414286Y-42680952D01*
X142366667Y-42728571D01*
X142271429Y-42776190D01*
X141890476Y-42776190D01*
X143414286Y-43252381D02*
X142842857Y-43252381D01*
X143128571Y-43252381D02*
X143128571Y-42252381D01*
X143033333Y-42395238D01*
X142938095Y-42490476D01*
X142842857Y-42538095D01*
X153704762Y-42547619D02*
X153609524Y-42500000D01*
X153514286Y-42404762D01*
X153371429Y-42261905D01*
X153276190Y-42214286D01*
X153180952Y-42214286D01*
X153228571Y-42452381D02*
X153133333Y-42404762D01*
X153038095Y-42309524D01*
X152990476Y-42119048D01*
X152990476Y-41785714D01*
X153038095Y-41595238D01*
X153133333Y-41500000D01*
X153228571Y-41452381D01*
X153419048Y-41452381D01*
X153514286Y-41500000D01*
X153609524Y-41595238D01*
X153657143Y-41785714D01*
X153657143Y-42119048D01*
X153609524Y-42309524D01*
X153514286Y-42404762D01*
X153419048Y-42452381D01*
X153228571Y-42452381D01*
X153990476Y-41452381D02*
X154609524Y-41452381D01*
X154276190Y-41833333D01*
X154419048Y-41833333D01*
X154514286Y-41880952D01*
X154561905Y-41928571D01*
X154609524Y-42023810D01*
X154609524Y-42261905D01*
X154561905Y-42357143D01*
X154514286Y-42404762D01*
X154419048Y-42452381D01*
X154133333Y-42452381D01*
X154038095Y-42404762D01*
X153990476Y-42357143D01*
X182557143Y-57257143D02*
X182509524Y-57304762D01*
X182366667Y-57352381D01*
X182271429Y-57352381D01*
X182128571Y-57304762D01*
X182033333Y-57209524D01*
X181985714Y-57114286D01*
X181938095Y-56923810D01*
X181938095Y-56780952D01*
X181985714Y-56590476D01*
X182033333Y-56495238D01*
X182128571Y-56400000D01*
X182271429Y-56352381D01*
X182366667Y-56352381D01*
X182509524Y-56400000D01*
X182557143Y-56447619D01*
X182938095Y-56447619D02*
X182985714Y-56400000D01*
X183080952Y-56352381D01*
X183319048Y-56352381D01*
X183414286Y-56400000D01*
X183461905Y-56447619D01*
X183509524Y-56542857D01*
X183509524Y-56638095D01*
X183461905Y-56780952D01*
X182890476Y-57352381D01*
X183509524Y-57352381D01*
X184080952Y-56780952D02*
X183985714Y-56733333D01*
X183938095Y-56685714D01*
X183890476Y-56590476D01*
X183890476Y-56542857D01*
X183938095Y-56447619D01*
X183985714Y-56400000D01*
X184080952Y-56352381D01*
X184271429Y-56352381D01*
X184366667Y-56400000D01*
X184414286Y-56447619D01*
X184461905Y-56542857D01*
X184461905Y-56590476D01*
X184414286Y-56685714D01*
X184366667Y-56733333D01*
X184271429Y-56780952D01*
X184080952Y-56780952D01*
X183985714Y-56828571D01*
X183938095Y-56876190D01*
X183890476Y-56971429D01*
X183890476Y-57161905D01*
X183938095Y-57257143D01*
X183985714Y-57304762D01*
X184080952Y-57352381D01*
X184271429Y-57352381D01*
X184366667Y-57304762D01*
X184414286Y-57257143D01*
X184461905Y-57161905D01*
X184461905Y-56971429D01*
X184414286Y-56876190D01*
X184366667Y-56828571D01*
X184271429Y-56780952D01*
X183557143Y-42652381D02*
X183080952Y-42652381D01*
X183080952Y-41652381D01*
X184414286Y-42652381D02*
X183842857Y-42652381D01*
X184128571Y-42652381D02*
X184128571Y-41652381D01*
X184033333Y-41795238D01*
X183938095Y-41890476D01*
X183842857Y-41938095D01*
X185033333Y-41652381D02*
X185128572Y-41652381D01*
X185223810Y-41700000D01*
X185271429Y-41747619D01*
X185319048Y-41842857D01*
X185366667Y-42033333D01*
X185366667Y-42271429D01*
X185319048Y-42461905D01*
X185271429Y-42557143D01*
X185223810Y-42604762D01*
X185128572Y-42652381D01*
X185033333Y-42652381D01*
X184938095Y-42604762D01*
X184890476Y-42557143D01*
X184842857Y-42461905D01*
X184795238Y-42271429D01*
X184795238Y-42033333D01*
X184842857Y-41842857D01*
X184890476Y-41747619D01*
X184938095Y-41700000D01*
X185033333Y-41652381D01*
X149033334Y-67425143D02*
X148985715Y-67472762D01*
X148842858Y-67520381D01*
X148747620Y-67520381D01*
X148604762Y-67472762D01*
X148509524Y-67377524D01*
X148461905Y-67282286D01*
X148414286Y-67091810D01*
X148414286Y-66948952D01*
X148461905Y-66758476D01*
X148509524Y-66663238D01*
X148604762Y-66568000D01*
X148747620Y-66520381D01*
X148842858Y-66520381D01*
X148985715Y-66568000D01*
X149033334Y-66615619D01*
X149366667Y-66520381D02*
X150033334Y-66520381D01*
X149604762Y-67520381D01*
X151864508Y-69171429D02*
X152626413Y-69171429D01*
X152245461Y-69552381D02*
X152245461Y-68790476D01*
D10*
X155616667Y-92316667D02*
X155616667Y-92816667D01*
X155583333Y-92916667D01*
X155516667Y-92983333D01*
X155416667Y-93016667D01*
X155350000Y-93016667D01*
X155950000Y-93016667D02*
X155950000Y-92316667D01*
X156216666Y-92316667D01*
X156283333Y-92350000D01*
X156316666Y-92383333D01*
X156350000Y-92450000D01*
X156350000Y-92550000D01*
X156316666Y-92616667D01*
X156283333Y-92650000D01*
X156216666Y-92683333D01*
X155950000Y-92683333D01*
X157016666Y-93016667D02*
X156616666Y-93016667D01*
X156816666Y-93016667D02*
X156816666Y-92316667D01*
X156750000Y-92416667D01*
X156683333Y-92483333D01*
X156616666Y-92516667D01*
M02*
