%FSLAX46Y46*%
G04 Gerber Fmt 4.6, Leading zero omitted, Abs format (unit mm)*
G04 Created by KiCad (PCBNEW (2014-10-27 BZR 5228)-product) date 11/01/2015 08:06:02*
%MOMM*%
G01*
G04 APERTURE LIST*
%ADD10C,0.100000*%
%ADD11C,0.020000*%
G04 APERTURE END LIST*
D10*
X129959100Y-94996000D02*
X129959100Y-94983300D01*
X129959100Y-113614200D02*
X129959100Y-94996000D01*
X194335400Y-113614200D02*
X129959100Y-113614200D01*
X194335400Y-35036760D02*
X194335400Y-113614200D01*
X129966720Y-35036760D02*
X194335400Y-35036760D01*
X129966720Y-61788040D02*
X129966720Y-35036760D01*
X129974340Y-95006160D02*
X129943860Y-95006160D01*
X129974340Y-85686900D02*
X129974340Y-95006160D01*
D11*
X129974560Y-62768200D02*
X129974560Y-61768200D01*
X129974560Y-84818200D02*
X129974560Y-85768200D01*
X129024560Y-63668200D02*
G75*
G03X129974560Y-62718200I0J950000D01*
G01*
X121574560Y-64018200D02*
X121924560Y-63668200D01*
X121924560Y-63668200D02*
X129024560Y-63668200D01*
X121574560Y-74468200D02*
X121574560Y-64018200D01*
X129974560Y-84818200D02*
G75*
G03X129024560Y-83868200I-950000J0D01*
G01*
X121574560Y-83518200D02*
X121924560Y-83868200D01*
X121924560Y-83868200D02*
X129024560Y-83868200D01*
X129024560Y-76718200D02*
X121924560Y-76718200D01*
X121924560Y-76718200D02*
X121574560Y-77068200D01*
X121574560Y-77068200D02*
X121574560Y-83518200D01*
X121924560Y-74818200D02*
X129024560Y-74818200D01*
X121924560Y-74818200D02*
X121574560Y-74468200D01*
X129974560Y-75768200D02*
G75*
G03X129024560Y-74818200I-950000J0D01*
G01*
X129024560Y-76718200D02*
G75*
G03X129974560Y-75768200I0J950000D01*
G01*
M02*
