%FSLAX46Y46*%
G04 Gerber Fmt 4.6, Leading zero omitted, Abs format (unit mm)*
G04 Created by KiCad (PCBNEW (2014-10-27 BZR 5228)-product) date 11/01/2015 08:06:02*
%MOMM*%
G01*
G04 APERTURE LIST*
%ADD10C,0.100000*%
%ADD11C,0.150000*%
G04 APERTURE END LIST*
D10*
D11*
X143650000Y-58500000D02*
X143650000Y-59500000D01*
X141950000Y-59500000D02*
X141950000Y-58500000D01*
X147300000Y-107850000D02*
X146300000Y-107850000D01*
X146300000Y-106150000D02*
X147300000Y-106150000D01*
X152950000Y-108300000D02*
X152950000Y-107300000D01*
X154650000Y-107300000D02*
X154650000Y-108300000D01*
X166100000Y-108450000D02*
X165100000Y-108450000D01*
X165100000Y-106750000D02*
X166100000Y-106750000D01*
X172950000Y-108100000D02*
X172950000Y-107100000D01*
X174650000Y-107100000D02*
X174650000Y-108100000D01*
X160900000Y-94050000D02*
X159900000Y-94050000D01*
X159900000Y-92350000D02*
X160900000Y-92350000D01*
X174832900Y-92861500D02*
X173832900Y-92861500D01*
X173832900Y-91161500D02*
X174832900Y-91161500D01*
X186850000Y-90700000D02*
X186850000Y-91700000D01*
X185150000Y-91700000D02*
X185150000Y-90700000D01*
X180428000Y-90432000D02*
X180428000Y-91432000D01*
X178728000Y-91432000D02*
X178728000Y-90432000D01*
X132150000Y-47700000D02*
X132150000Y-46700000D01*
X133850000Y-46700000D02*
X133850000Y-47700000D01*
X162542600Y-57379500D02*
X163542600Y-57379500D01*
X163542600Y-59079500D02*
X162542600Y-59079500D01*
X169121200Y-47600500D02*
X170121200Y-47600500D01*
X170121200Y-49300500D02*
X169121200Y-49300500D01*
X169121200Y-50623100D02*
X170121200Y-50623100D01*
X170121200Y-52323100D02*
X169121200Y-52323100D01*
X169032300Y-44755700D02*
X170032300Y-44755700D01*
X170032300Y-46455700D02*
X169032300Y-46455700D01*
X166888160Y-43860720D02*
X166888160Y-40060880D01*
X172387260Y-43860720D02*
X167388540Y-43860720D01*
X172384720Y-40060880D02*
X167386000Y-40060880D01*
X166286180Y-44963080D02*
X166286180Y-43863260D01*
X165686740Y-44462700D02*
X166885620Y-44462700D01*
X177046000Y-57443000D02*
X178046000Y-57443000D01*
X178046000Y-59143000D02*
X177046000Y-59143000D01*
X170500000Y-62650000D02*
X169500000Y-62650000D01*
X169500000Y-60950000D02*
X170500000Y-60950000D01*
X140543000Y-77740000D02*
X138257000Y-77740000D01*
X138257000Y-77740000D02*
X138257000Y-76089000D01*
X140543000Y-74311000D02*
X140543000Y-72660000D01*
X140543000Y-72660000D02*
X138257000Y-72660000D01*
X138257000Y-72660000D02*
X138257000Y-74311000D01*
X140543000Y-76089000D02*
X140543000Y-77740000D01*
X143675000Y-63000000D02*
X143675000Y-61800000D01*
X141925000Y-61800000D02*
X141925000Y-63000000D01*
X153800000Y-64075000D02*
X155000000Y-64075000D01*
X155000000Y-62325000D02*
X153800000Y-62325000D01*
X152475000Y-59800000D02*
X152475000Y-58600000D01*
X150725000Y-58600000D02*
X150725000Y-59800000D01*
X154800000Y-59275000D02*
X156000000Y-59275000D01*
X156000000Y-57525000D02*
X154800000Y-57525000D01*
X145257143Y-58833334D02*
X145304762Y-58785715D01*
X145352381Y-58642858D01*
X145352381Y-58547620D01*
X145304762Y-58404762D01*
X145209524Y-58309524D01*
X145114286Y-58261905D01*
X144923810Y-58214286D01*
X144780952Y-58214286D01*
X144590476Y-58261905D01*
X144495238Y-58309524D01*
X144400000Y-58404762D01*
X144352381Y-58547620D01*
X144352381Y-58642858D01*
X144400000Y-58785715D01*
X144447619Y-58833334D01*
X144352381Y-59166667D02*
X144352381Y-59785715D01*
X144733333Y-59452381D01*
X144733333Y-59595239D01*
X144780952Y-59690477D01*
X144828571Y-59738096D01*
X144923810Y-59785715D01*
X145161905Y-59785715D01*
X145257143Y-59738096D01*
X145304762Y-59690477D01*
X145352381Y-59595239D01*
X145352381Y-59309524D01*
X145304762Y-59214286D01*
X145257143Y-59166667D01*
X146966666Y-109457143D02*
X147014285Y-109504762D01*
X147157142Y-109552381D01*
X147252380Y-109552381D01*
X147395238Y-109504762D01*
X147490476Y-109409524D01*
X147538095Y-109314286D01*
X147585714Y-109123810D01*
X147585714Y-108980952D01*
X147538095Y-108790476D01*
X147490476Y-108695238D01*
X147395238Y-108600000D01*
X147252380Y-108552381D01*
X147157142Y-108552381D01*
X147014285Y-108600000D01*
X146966666Y-108647619D01*
X146109523Y-108885714D02*
X146109523Y-109552381D01*
X146347619Y-108504762D02*
X146585714Y-109219048D01*
X145966666Y-109219048D01*
X152057143Y-107633334D02*
X152104762Y-107585715D01*
X152152381Y-107442858D01*
X152152381Y-107347620D01*
X152104762Y-107204762D01*
X152009524Y-107109524D01*
X151914286Y-107061905D01*
X151723810Y-107014286D01*
X151580952Y-107014286D01*
X151390476Y-107061905D01*
X151295238Y-107109524D01*
X151200000Y-107204762D01*
X151152381Y-107347620D01*
X151152381Y-107442858D01*
X151200000Y-107585715D01*
X151247619Y-107633334D01*
X151152381Y-108538096D02*
X151152381Y-108061905D01*
X151628571Y-108014286D01*
X151580952Y-108061905D01*
X151533333Y-108157143D01*
X151533333Y-108395239D01*
X151580952Y-108490477D01*
X151628571Y-108538096D01*
X151723810Y-108585715D01*
X151961905Y-108585715D01*
X152057143Y-108538096D01*
X152104762Y-108490477D01*
X152152381Y-108395239D01*
X152152381Y-108157143D01*
X152104762Y-108061905D01*
X152057143Y-108014286D01*
X165766666Y-110057143D02*
X165814285Y-110104762D01*
X165957142Y-110152381D01*
X166052380Y-110152381D01*
X166195238Y-110104762D01*
X166290476Y-110009524D01*
X166338095Y-109914286D01*
X166385714Y-109723810D01*
X166385714Y-109580952D01*
X166338095Y-109390476D01*
X166290476Y-109295238D01*
X166195238Y-109200000D01*
X166052380Y-109152381D01*
X165957142Y-109152381D01*
X165814285Y-109200000D01*
X165766666Y-109247619D01*
X164909523Y-109152381D02*
X165100000Y-109152381D01*
X165195238Y-109200000D01*
X165242857Y-109247619D01*
X165338095Y-109390476D01*
X165385714Y-109580952D01*
X165385714Y-109961905D01*
X165338095Y-110057143D01*
X165290476Y-110104762D01*
X165195238Y-110152381D01*
X165004761Y-110152381D01*
X164909523Y-110104762D01*
X164861904Y-110057143D01*
X164814285Y-109961905D01*
X164814285Y-109723810D01*
X164861904Y-109628571D01*
X164909523Y-109580952D01*
X165004761Y-109533333D01*
X165195238Y-109533333D01*
X165290476Y-109580952D01*
X165338095Y-109628571D01*
X165385714Y-109723810D01*
X172057143Y-107433334D02*
X172104762Y-107385715D01*
X172152381Y-107242858D01*
X172152381Y-107147620D01*
X172104762Y-107004762D01*
X172009524Y-106909524D01*
X171914286Y-106861905D01*
X171723810Y-106814286D01*
X171580952Y-106814286D01*
X171390476Y-106861905D01*
X171295238Y-106909524D01*
X171200000Y-107004762D01*
X171152381Y-107147620D01*
X171152381Y-107242858D01*
X171200000Y-107385715D01*
X171247619Y-107433334D01*
X171152381Y-107766667D02*
X171152381Y-108433334D01*
X172152381Y-108004762D01*
X160566666Y-95657143D02*
X160614285Y-95704762D01*
X160757142Y-95752381D01*
X160852380Y-95752381D01*
X160995238Y-95704762D01*
X161090476Y-95609524D01*
X161138095Y-95514286D01*
X161185714Y-95323810D01*
X161185714Y-95180952D01*
X161138095Y-94990476D01*
X161090476Y-94895238D01*
X160995238Y-94800000D01*
X160852380Y-94752381D01*
X160757142Y-94752381D01*
X160614285Y-94800000D01*
X160566666Y-94847619D01*
X159995238Y-95180952D02*
X160090476Y-95133333D01*
X160138095Y-95085714D01*
X160185714Y-94990476D01*
X160185714Y-94942857D01*
X160138095Y-94847619D01*
X160090476Y-94800000D01*
X159995238Y-94752381D01*
X159804761Y-94752381D01*
X159709523Y-94800000D01*
X159661904Y-94847619D01*
X159614285Y-94942857D01*
X159614285Y-94990476D01*
X159661904Y-95085714D01*
X159709523Y-95133333D01*
X159804761Y-95180952D01*
X159995238Y-95180952D01*
X160090476Y-95228571D01*
X160138095Y-95276190D01*
X160185714Y-95371429D01*
X160185714Y-95561905D01*
X160138095Y-95657143D01*
X160090476Y-95704762D01*
X159995238Y-95752381D01*
X159804761Y-95752381D01*
X159709523Y-95704762D01*
X159661904Y-95657143D01*
X159614285Y-95561905D01*
X159614285Y-95371429D01*
X159661904Y-95276190D01*
X159709523Y-95228571D01*
X159804761Y-95180952D01*
X174499566Y-94468643D02*
X174547185Y-94516262D01*
X174690042Y-94563881D01*
X174785280Y-94563881D01*
X174928138Y-94516262D01*
X175023376Y-94421024D01*
X175070995Y-94325786D01*
X175118614Y-94135310D01*
X175118614Y-93992452D01*
X175070995Y-93801976D01*
X175023376Y-93706738D01*
X174928138Y-93611500D01*
X174785280Y-93563881D01*
X174690042Y-93563881D01*
X174547185Y-93611500D01*
X174499566Y-93659119D01*
X174023376Y-94563881D02*
X173832900Y-94563881D01*
X173737661Y-94516262D01*
X173690042Y-94468643D01*
X173594804Y-94325786D01*
X173547185Y-94135310D01*
X173547185Y-93754357D01*
X173594804Y-93659119D01*
X173642423Y-93611500D01*
X173737661Y-93563881D01*
X173928138Y-93563881D01*
X174023376Y-93611500D01*
X174070995Y-93659119D01*
X174118614Y-93754357D01*
X174118614Y-93992452D01*
X174070995Y-94087690D01*
X174023376Y-94135310D01*
X173928138Y-94182929D01*
X173737661Y-94182929D01*
X173642423Y-94135310D01*
X173594804Y-94087690D01*
X173547185Y-93992452D01*
X188457143Y-90557143D02*
X188504762Y-90509524D01*
X188552381Y-90366667D01*
X188552381Y-90271429D01*
X188504762Y-90128571D01*
X188409524Y-90033333D01*
X188314286Y-89985714D01*
X188123810Y-89938095D01*
X187980952Y-89938095D01*
X187790476Y-89985714D01*
X187695238Y-90033333D01*
X187600000Y-90128571D01*
X187552381Y-90271429D01*
X187552381Y-90366667D01*
X187600000Y-90509524D01*
X187647619Y-90557143D01*
X188552381Y-91509524D02*
X188552381Y-90938095D01*
X188552381Y-91223809D02*
X187552381Y-91223809D01*
X187695238Y-91128571D01*
X187790476Y-91033333D01*
X187838095Y-90938095D01*
X187552381Y-92128571D02*
X187552381Y-92223810D01*
X187600000Y-92319048D01*
X187647619Y-92366667D01*
X187742857Y-92414286D01*
X187933333Y-92461905D01*
X188171429Y-92461905D01*
X188361905Y-92414286D01*
X188457143Y-92366667D01*
X188504762Y-92319048D01*
X188552381Y-92223810D01*
X188552381Y-92128571D01*
X188504762Y-92033333D01*
X188457143Y-91985714D01*
X188361905Y-91938095D01*
X188171429Y-91890476D01*
X187933333Y-91890476D01*
X187742857Y-91938095D01*
X187647619Y-91985714D01*
X187600000Y-92033333D01*
X187552381Y-92128571D01*
X182035143Y-90289143D02*
X182082762Y-90241524D01*
X182130381Y-90098667D01*
X182130381Y-90003429D01*
X182082762Y-89860571D01*
X181987524Y-89765333D01*
X181892286Y-89717714D01*
X181701810Y-89670095D01*
X181558952Y-89670095D01*
X181368476Y-89717714D01*
X181273238Y-89765333D01*
X181178000Y-89860571D01*
X181130381Y-90003429D01*
X181130381Y-90098667D01*
X181178000Y-90241524D01*
X181225619Y-90289143D01*
X182130381Y-91241524D02*
X182130381Y-90670095D01*
X182130381Y-90955809D02*
X181130381Y-90955809D01*
X181273238Y-90860571D01*
X181368476Y-90765333D01*
X181416095Y-90670095D01*
X182130381Y-92193905D02*
X182130381Y-91622476D01*
X182130381Y-91908190D02*
X181130381Y-91908190D01*
X181273238Y-91812952D01*
X181368476Y-91717714D01*
X181416095Y-91622476D01*
X131257143Y-46557143D02*
X131304762Y-46509524D01*
X131352381Y-46366667D01*
X131352381Y-46271429D01*
X131304762Y-46128571D01*
X131209524Y-46033333D01*
X131114286Y-45985714D01*
X130923810Y-45938095D01*
X130780952Y-45938095D01*
X130590476Y-45985714D01*
X130495238Y-46033333D01*
X130400000Y-46128571D01*
X130352381Y-46271429D01*
X130352381Y-46366667D01*
X130400000Y-46509524D01*
X130447619Y-46557143D01*
X131352381Y-47509524D02*
X131352381Y-46938095D01*
X131352381Y-47223809D02*
X130352381Y-47223809D01*
X130495238Y-47128571D01*
X130590476Y-47033333D01*
X130638095Y-46938095D01*
X130447619Y-47890476D02*
X130400000Y-47938095D01*
X130352381Y-48033333D01*
X130352381Y-48271429D01*
X130400000Y-48366667D01*
X130447619Y-48414286D01*
X130542857Y-48461905D01*
X130638095Y-48461905D01*
X130780952Y-48414286D01*
X131352381Y-47842857D01*
X131352381Y-48461905D01*
X163685457Y-56486643D02*
X163733076Y-56534262D01*
X163875933Y-56581881D01*
X163971171Y-56581881D01*
X164114029Y-56534262D01*
X164209267Y-56439024D01*
X164256886Y-56343786D01*
X164304505Y-56153310D01*
X164304505Y-56010452D01*
X164256886Y-55819976D01*
X164209267Y-55724738D01*
X164114029Y-55629500D01*
X163971171Y-55581881D01*
X163875933Y-55581881D01*
X163733076Y-55629500D01*
X163685457Y-55677119D01*
X162733076Y-56581881D02*
X163304505Y-56581881D01*
X163018791Y-56581881D02*
X163018791Y-55581881D01*
X163114029Y-55724738D01*
X163209267Y-55819976D01*
X163304505Y-55867595D01*
X162161648Y-56010452D02*
X162256886Y-55962833D01*
X162304505Y-55915214D01*
X162352124Y-55819976D01*
X162352124Y-55772357D01*
X162304505Y-55677119D01*
X162256886Y-55629500D01*
X162161648Y-55581881D01*
X161971171Y-55581881D01*
X161875933Y-55629500D01*
X161828314Y-55677119D01*
X161780695Y-55772357D01*
X161780695Y-55819976D01*
X161828314Y-55915214D01*
X161875933Y-55962833D01*
X161971171Y-56010452D01*
X162161648Y-56010452D01*
X162256886Y-56058071D01*
X162304505Y-56105690D01*
X162352124Y-56200929D01*
X162352124Y-56391405D01*
X162304505Y-56486643D01*
X162256886Y-56534262D01*
X162161648Y-56581881D01*
X161971171Y-56581881D01*
X161875933Y-56534262D01*
X161828314Y-56486643D01*
X161780695Y-56391405D01*
X161780695Y-56200929D01*
X161828314Y-56105690D01*
X161875933Y-56058071D01*
X161971171Y-56010452D01*
X173842857Y-48757143D02*
X173890476Y-48804762D01*
X174033333Y-48852381D01*
X174128571Y-48852381D01*
X174271429Y-48804762D01*
X174366667Y-48709524D01*
X174414286Y-48614286D01*
X174461905Y-48423810D01*
X174461905Y-48280952D01*
X174414286Y-48090476D01*
X174366667Y-47995238D01*
X174271429Y-47900000D01*
X174128571Y-47852381D01*
X174033333Y-47852381D01*
X173890476Y-47900000D01*
X173842857Y-47947619D01*
X172890476Y-48852381D02*
X173461905Y-48852381D01*
X173176191Y-48852381D02*
X173176191Y-47852381D01*
X173271429Y-47995238D01*
X173366667Y-48090476D01*
X173461905Y-48138095D01*
X172414286Y-48852381D02*
X172223810Y-48852381D01*
X172128571Y-48804762D01*
X172080952Y-48757143D01*
X171985714Y-48614286D01*
X171938095Y-48423810D01*
X171938095Y-48042857D01*
X171985714Y-47947619D01*
X172033333Y-47900000D01*
X172128571Y-47852381D01*
X172319048Y-47852381D01*
X172414286Y-47900000D01*
X172461905Y-47947619D01*
X172509524Y-48042857D01*
X172509524Y-48280952D01*
X172461905Y-48376190D01*
X172414286Y-48423810D01*
X172319048Y-48471429D01*
X172128571Y-48471429D01*
X172033333Y-48423810D01*
X171985714Y-48376190D01*
X171938095Y-48280952D01*
X173642857Y-51957143D02*
X173690476Y-52004762D01*
X173833333Y-52052381D01*
X173928571Y-52052381D01*
X174071429Y-52004762D01*
X174166667Y-51909524D01*
X174214286Y-51814286D01*
X174261905Y-51623810D01*
X174261905Y-51480952D01*
X174214286Y-51290476D01*
X174166667Y-51195238D01*
X174071429Y-51100000D01*
X173928571Y-51052381D01*
X173833333Y-51052381D01*
X173690476Y-51100000D01*
X173642857Y-51147619D01*
X173261905Y-51147619D02*
X173214286Y-51100000D01*
X173119048Y-51052381D01*
X172880952Y-51052381D01*
X172785714Y-51100000D01*
X172738095Y-51147619D01*
X172690476Y-51242857D01*
X172690476Y-51338095D01*
X172738095Y-51480952D01*
X173309524Y-52052381D01*
X172690476Y-52052381D01*
X172071429Y-51052381D02*
X171976190Y-51052381D01*
X171880952Y-51100000D01*
X171833333Y-51147619D01*
X171785714Y-51242857D01*
X171738095Y-51433333D01*
X171738095Y-51671429D01*
X171785714Y-51861905D01*
X171833333Y-51957143D01*
X171880952Y-52004762D01*
X171976190Y-52052381D01*
X172071429Y-52052381D01*
X172166667Y-52004762D01*
X172214286Y-51957143D01*
X172261905Y-51861905D01*
X172309524Y-51671429D01*
X172309524Y-51433333D01*
X172261905Y-51242857D01*
X172214286Y-51147619D01*
X172166667Y-51100000D01*
X172071429Y-51052381D01*
X174442857Y-42157143D02*
X174490476Y-42204762D01*
X174633333Y-42252381D01*
X174728571Y-42252381D01*
X174871429Y-42204762D01*
X174966667Y-42109524D01*
X175014286Y-42014286D01*
X175061905Y-41823810D01*
X175061905Y-41680952D01*
X175014286Y-41490476D01*
X174966667Y-41395238D01*
X174871429Y-41300000D01*
X174728571Y-41252381D01*
X174633333Y-41252381D01*
X174490476Y-41300000D01*
X174442857Y-41347619D01*
X174061905Y-41347619D02*
X174014286Y-41300000D01*
X173919048Y-41252381D01*
X173680952Y-41252381D01*
X173585714Y-41300000D01*
X173538095Y-41347619D01*
X173490476Y-41442857D01*
X173490476Y-41538095D01*
X173538095Y-41680952D01*
X174109524Y-42252381D01*
X173490476Y-42252381D01*
X172538095Y-42252381D02*
X173109524Y-42252381D01*
X172823810Y-42252381D02*
X172823810Y-41252381D01*
X172919048Y-41395238D01*
X173014286Y-41490476D01*
X173109524Y-41538095D01*
X173442857Y-45957143D02*
X173490476Y-46004762D01*
X173633333Y-46052381D01*
X173728571Y-46052381D01*
X173871429Y-46004762D01*
X173966667Y-45909524D01*
X174014286Y-45814286D01*
X174061905Y-45623810D01*
X174061905Y-45480952D01*
X174014286Y-45290476D01*
X173966667Y-45195238D01*
X173871429Y-45100000D01*
X173728571Y-45052381D01*
X173633333Y-45052381D01*
X173490476Y-45100000D01*
X173442857Y-45147619D01*
X173061905Y-45147619D02*
X173014286Y-45100000D01*
X172919048Y-45052381D01*
X172680952Y-45052381D01*
X172585714Y-45100000D01*
X172538095Y-45147619D01*
X172490476Y-45242857D01*
X172490476Y-45338095D01*
X172538095Y-45480952D01*
X173109524Y-46052381D01*
X172490476Y-46052381D01*
X172109524Y-45147619D02*
X172061905Y-45100000D01*
X171966667Y-45052381D01*
X171728571Y-45052381D01*
X171633333Y-45100000D01*
X171585714Y-45147619D01*
X171538095Y-45242857D01*
X171538095Y-45338095D01*
X171585714Y-45480952D01*
X172157143Y-46052381D01*
X171538095Y-46052381D01*
X166669672Y-44531589D02*
X165907767Y-44531589D01*
X166288719Y-44912541D02*
X166288719Y-44150636D01*
X178188857Y-56550143D02*
X178236476Y-56597762D01*
X178379333Y-56645381D01*
X178474571Y-56645381D01*
X178617429Y-56597762D01*
X178712667Y-56502524D01*
X178760286Y-56407286D01*
X178807905Y-56216810D01*
X178807905Y-56073952D01*
X178760286Y-55883476D01*
X178712667Y-55788238D01*
X178617429Y-55693000D01*
X178474571Y-55645381D01*
X178379333Y-55645381D01*
X178236476Y-55693000D01*
X178188857Y-55740619D01*
X177807905Y-55740619D02*
X177760286Y-55693000D01*
X177665048Y-55645381D01*
X177426952Y-55645381D01*
X177331714Y-55693000D01*
X177284095Y-55740619D01*
X177236476Y-55835857D01*
X177236476Y-55931095D01*
X177284095Y-56073952D01*
X177855524Y-56645381D01*
X177236476Y-56645381D01*
X176903143Y-55645381D02*
X176284095Y-55645381D01*
X176617429Y-56026333D01*
X176474571Y-56026333D01*
X176379333Y-56073952D01*
X176331714Y-56121571D01*
X176284095Y-56216810D01*
X176284095Y-56454905D01*
X176331714Y-56550143D01*
X176379333Y-56597762D01*
X176474571Y-56645381D01*
X176760286Y-56645381D01*
X176855524Y-56597762D01*
X176903143Y-56550143D01*
X170642857Y-64257143D02*
X170690476Y-64304762D01*
X170833333Y-64352381D01*
X170928571Y-64352381D01*
X171071429Y-64304762D01*
X171166667Y-64209524D01*
X171214286Y-64114286D01*
X171261905Y-63923810D01*
X171261905Y-63780952D01*
X171214286Y-63590476D01*
X171166667Y-63495238D01*
X171071429Y-63400000D01*
X170928571Y-63352381D01*
X170833333Y-63352381D01*
X170690476Y-63400000D01*
X170642857Y-63447619D01*
X170261905Y-63447619D02*
X170214286Y-63400000D01*
X170119048Y-63352381D01*
X169880952Y-63352381D01*
X169785714Y-63400000D01*
X169738095Y-63447619D01*
X169690476Y-63542857D01*
X169690476Y-63638095D01*
X169738095Y-63780952D01*
X170309524Y-64352381D01*
X169690476Y-64352381D01*
X168833333Y-63685714D02*
X168833333Y-64352381D01*
X169071429Y-63304762D02*
X169309524Y-64019048D01*
X168690476Y-64019048D01*
X139328571Y-74366667D02*
X139328571Y-74033333D01*
X139852381Y-74033333D02*
X138852381Y-74033333D01*
X138852381Y-74509524D01*
X139328571Y-75223810D02*
X139376190Y-75366667D01*
X139423810Y-75414286D01*
X139519048Y-75461905D01*
X139661905Y-75461905D01*
X139757143Y-75414286D01*
X139804762Y-75366667D01*
X139852381Y-75271429D01*
X139852381Y-74890476D01*
X138852381Y-74890476D01*
X138852381Y-75223810D01*
X138900000Y-75319048D01*
X138947619Y-75366667D01*
X139042857Y-75414286D01*
X139138095Y-75414286D01*
X139233333Y-75366667D01*
X139280952Y-75319048D01*
X139328571Y-75223810D01*
X139328571Y-74890476D01*
X139852381Y-76414286D02*
X139852381Y-75842857D01*
X139852381Y-76128571D02*
X138852381Y-76128571D01*
X138995238Y-76033333D01*
X139090476Y-75938095D01*
X139138095Y-75842857D01*
X141152381Y-62233334D02*
X140676190Y-61900000D01*
X141152381Y-61661905D02*
X140152381Y-61661905D01*
X140152381Y-62042858D01*
X140200000Y-62138096D01*
X140247619Y-62185715D01*
X140342857Y-62233334D01*
X140485714Y-62233334D01*
X140580952Y-62185715D01*
X140628571Y-62138096D01*
X140676190Y-62042858D01*
X140676190Y-61661905D01*
X140485714Y-63090477D02*
X141152381Y-63090477D01*
X140104762Y-62852381D02*
X140819048Y-62614286D01*
X140819048Y-63233334D01*
X155042857Y-61552381D02*
X155376191Y-61076190D01*
X155614286Y-61552381D02*
X155614286Y-60552381D01*
X155233333Y-60552381D01*
X155138095Y-60600000D01*
X155090476Y-60647619D01*
X155042857Y-60742857D01*
X155042857Y-60885714D01*
X155090476Y-60980952D01*
X155138095Y-61028571D01*
X155233333Y-61076190D01*
X155614286Y-61076190D01*
X154090476Y-61552381D02*
X154661905Y-61552381D01*
X154376191Y-61552381D02*
X154376191Y-60552381D01*
X154471429Y-60695238D01*
X154566667Y-60790476D01*
X154661905Y-60838095D01*
X153471429Y-60552381D02*
X153376190Y-60552381D01*
X153280952Y-60600000D01*
X153233333Y-60647619D01*
X153185714Y-60742857D01*
X153138095Y-60933333D01*
X153138095Y-61171429D01*
X153185714Y-61361905D01*
X153233333Y-61457143D01*
X153280952Y-61504762D01*
X153376190Y-61552381D01*
X153471429Y-61552381D01*
X153566667Y-61504762D01*
X153614286Y-61457143D01*
X153661905Y-61361905D01*
X153709524Y-61171429D01*
X153709524Y-60933333D01*
X153661905Y-60742857D01*
X153614286Y-60647619D01*
X153566667Y-60600000D01*
X153471429Y-60552381D01*
X149952381Y-58557143D02*
X149476190Y-58223809D01*
X149952381Y-57985714D02*
X148952381Y-57985714D01*
X148952381Y-58366667D01*
X149000000Y-58461905D01*
X149047619Y-58509524D01*
X149142857Y-58557143D01*
X149285714Y-58557143D01*
X149380952Y-58509524D01*
X149428571Y-58461905D01*
X149476190Y-58366667D01*
X149476190Y-57985714D01*
X149952381Y-59509524D02*
X149952381Y-58938095D01*
X149952381Y-59223809D02*
X148952381Y-59223809D01*
X149095238Y-59128571D01*
X149190476Y-59033333D01*
X149238095Y-58938095D01*
X149952381Y-60461905D02*
X149952381Y-59890476D01*
X149952381Y-60176190D02*
X148952381Y-60176190D01*
X149095238Y-60080952D01*
X149190476Y-59985714D01*
X149238095Y-59890476D01*
X156042857Y-56752381D02*
X156376191Y-56276190D01*
X156614286Y-56752381D02*
X156614286Y-55752381D01*
X156233333Y-55752381D01*
X156138095Y-55800000D01*
X156090476Y-55847619D01*
X156042857Y-55942857D01*
X156042857Y-56085714D01*
X156090476Y-56180952D01*
X156138095Y-56228571D01*
X156233333Y-56276190D01*
X156614286Y-56276190D01*
X155090476Y-56752381D02*
X155661905Y-56752381D01*
X155376191Y-56752381D02*
X155376191Y-55752381D01*
X155471429Y-55895238D01*
X155566667Y-55990476D01*
X155661905Y-56038095D01*
X154709524Y-55847619D02*
X154661905Y-55800000D01*
X154566667Y-55752381D01*
X154328571Y-55752381D01*
X154233333Y-55800000D01*
X154185714Y-55847619D01*
X154138095Y-55942857D01*
X154138095Y-56038095D01*
X154185714Y-56180952D01*
X154757143Y-56752381D01*
X154138095Y-56752381D01*
M02*
