M48
;DRILL file {kicad (2014-10-27 BZR 5228)-product} date 02/04/2015 10:02:43
;FORMAT={3:3/ absolute / metric / keep zeros}
FMAT,2
METRIC,TZ
T1C0.635
T2C1.016
T3C1.143
T4C3.900
%
G90
G05
M71
T1
X128000Y-107700
X128000Y-119500
X134200Y-112200
X134200Y-114800
X134400Y-119000
X134500Y-122600
X135200Y-113500
X136200Y-116000
X153000Y-121300
X156200Y-117900
T2
X131000Y-102260
X131000Y-104800
X133540Y-102260
X133540Y-104800
X136080Y-102260
X136080Y-104800
X138620Y-102260
X138620Y-104800
X141160Y-102260
X141160Y-104800
X143700Y-102260
X143700Y-104800
X146200Y-102260
X146200Y-104800
X147860Y-125600
X148740Y-102260
X148740Y-104800
X150400Y-125600
X151280Y-102260
X151280Y-104800
X153820Y-102260
X153820Y-104800
X156360Y-102260
X156360Y-104800
X158900Y-102260
X158900Y-104800
X160200Y-113020
X160200Y-115560
X160200Y-118100
T3
X145600Y-112660
X145600Y-115200
X145600Y-117740
X152500Y-112560
X152500Y-115100
X152500Y-117640
T4
X128500Y-125600
X159500Y-125700
T0
M30
