%FSLAX46Y46*%
G04 Gerber Fmt 4.6, Leading zero omitted, Abs format (unit mm)*
G04 Created by KiCad (PCBNEW (2014-10-27 BZR 5228)-product) date 02/04/2015 10:02:40*
%MOMM*%
G01*
G04 APERTURE LIST*
%ADD10C,0.100000*%
%ADD11R,3.500120X1.800860*%
%ADD12R,0.889000X1.397000*%
%ADD13R,1.250000X1.500000*%
%ADD14R,1.500000X1.250000*%
%ADD15R,1.249680X0.899160*%
%ADD16R,1.998980X0.500380*%
%ADD17R,0.899160X1.249680*%
%ADD18R,0.500380X1.998980*%
%ADD19R,2.032000X2.032000*%
%ADD20O,2.032000X2.032000*%
%ADD21R,2.032000X1.727200*%
%ADD22O,2.032000X1.727200*%
%ADD23R,1.500000X0.600000*%
%ADD24R,1.727200X1.727200*%
%ADD25O,1.727200X1.727200*%
%ADD26C,1.778000*%
%ADD27R,1.778000X1.778000*%
%ADD28C,6.350000*%
G04 APERTURE END LIST*
D10*
D11*
X134500260Y-125800000D03*
X140499740Y-125800000D03*
D12*
X142047500Y-122100000D03*
X143952500Y-122100000D03*
X136452500Y-121000000D03*
X134547500Y-121000000D03*
D13*
X128000000Y-115050000D03*
X128000000Y-117550000D03*
X128000000Y-112050000D03*
X128000000Y-109550000D03*
D14*
X146650000Y-122000000D03*
X149150000Y-122000000D03*
D15*
X156700000Y-116298880D03*
X156700000Y-113901120D03*
D16*
X156700000Y-115100000D03*
D17*
X148201120Y-108500000D03*
X150598880Y-108500000D03*
D18*
X149400000Y-108500000D03*
D17*
X155001120Y-121200000D03*
X157398880Y-121200000D03*
D18*
X156200000Y-121200000D03*
D17*
X153801120Y-108500000D03*
X156198880Y-108500000D03*
D18*
X155000000Y-108500000D03*
D19*
X150400000Y-125600000D03*
D20*
X147860000Y-125600000D03*
D21*
X160200000Y-118100000D03*
D22*
X160200000Y-115560000D03*
X160200000Y-113020000D03*
D23*
X132500000Y-109655000D03*
X132500000Y-110925000D03*
X132500000Y-112195000D03*
X132500000Y-113465000D03*
X132500000Y-114735000D03*
X132500000Y-116005000D03*
X132500000Y-117275000D03*
X132500000Y-118545000D03*
X137900000Y-118545000D03*
X137900000Y-117275000D03*
X137900000Y-116005000D03*
X137900000Y-114735000D03*
X137900000Y-113465000D03*
X137900000Y-112195000D03*
X137900000Y-110925000D03*
X137900000Y-109655000D03*
D24*
X143700000Y-104800000D03*
D25*
X143700000Y-102260000D03*
X141160000Y-104800000D03*
X141160000Y-102260000D03*
X138620000Y-104800000D03*
X138620000Y-102260000D03*
X136080000Y-104800000D03*
X136080000Y-102260000D03*
X133540000Y-104800000D03*
X133540000Y-102260000D03*
X131000000Y-104800000D03*
X131000000Y-102260000D03*
D24*
X158900000Y-104800000D03*
D25*
X158900000Y-102260000D03*
X156360000Y-104800000D03*
X156360000Y-102260000D03*
X153820000Y-104800000D03*
X153820000Y-102260000D03*
X151280000Y-104800000D03*
X151280000Y-102260000D03*
X148740000Y-104800000D03*
X148740000Y-102260000D03*
X146200000Y-104800000D03*
X146200000Y-102260000D03*
D26*
X152500000Y-117640000D03*
D27*
X152500000Y-115100000D03*
D26*
X152500000Y-112560000D03*
X145600000Y-117740000D03*
D27*
X145600000Y-115200000D03*
D26*
X145600000Y-112660000D03*
D28*
X159500000Y-125700000D03*
X128500000Y-125600000D03*
M02*
