%FSLAX45Y45*%
G04 Gerber Fmt 4.5, Leading zero omitted, Abs format (unit mm)*
G04 Created by KiCad (PCBNEW (2014-10-27 BZR 5228)-product) date 02/04/2015 10:02:44*
%MOMM*%
G01*
G04 APERTURE LIST*
%ADD10C,0.127000*%
%ADD11C,0.100000*%
%ADD12C,0.200000*%
%ADD13C,0.300000*%
G04 APERTURE END LIST*
D10*
D11*
X12400000Y-10000000D02*
X16400000Y-10000000D01*
X16400000Y-13000000D02*
X12400000Y-13000000D01*
X12400000Y-13000000D02*
X12400000Y-10000000D01*
X16400000Y-10000000D02*
X16400000Y-13000000D01*
D12*
X12768250Y-10738250D02*
X12831750Y-10801750D01*
X12831750Y-10738250D02*
X12768250Y-10801750D01*
X12768250Y-11918250D02*
X12831750Y-11981750D01*
X12831750Y-11918250D02*
X12768250Y-11981750D01*
X13388250Y-11188250D02*
X13451750Y-11251750D01*
X13451750Y-11188250D02*
X13388250Y-11251750D01*
X13388250Y-11448250D02*
X13451750Y-11511750D01*
X13451750Y-11448250D02*
X13388250Y-11511750D01*
X13408250Y-11868250D02*
X13471750Y-11931750D01*
X13471750Y-11868250D02*
X13408250Y-11931750D01*
X13418250Y-12228250D02*
X13481750Y-12291750D01*
X13481750Y-12228250D02*
X13418250Y-12291750D01*
X13488250Y-11318250D02*
X13551750Y-11381750D01*
X13551750Y-11318250D02*
X13488250Y-11381750D01*
X13588250Y-11568250D02*
X13651750Y-11631750D01*
X13651750Y-11568250D02*
X13588250Y-11631750D01*
X15268250Y-12098250D02*
X15331750Y-12161750D01*
X15331750Y-12098250D02*
X15268250Y-12161750D01*
X15588250Y-11758250D02*
X15651750Y-11821750D01*
X15651750Y-11758250D02*
X15588250Y-11821750D01*
X13150800Y-10226000D02*
G75*
G03X13150800Y-10226000I-50800J0D01*
G01*
X13150800Y-10480000D02*
G75*
G03X13150800Y-10480000I-50800J0D01*
G01*
X13404800Y-10226000D02*
G75*
G03X13404800Y-10226000I-50800J0D01*
G01*
X13404800Y-10480000D02*
G75*
G03X13404800Y-10480000I-50800J0D01*
G01*
X13658800Y-10226000D02*
G75*
G03X13658800Y-10226000I-50800J0D01*
G01*
X13658800Y-10480000D02*
G75*
G03X13658800Y-10480000I-50800J0D01*
G01*
X13912800Y-10226000D02*
G75*
G03X13912800Y-10226000I-50800J0D01*
G01*
X13912800Y-10480000D02*
G75*
G03X13912800Y-10480000I-50800J0D01*
G01*
X14166800Y-10226000D02*
G75*
G03X14166800Y-10226000I-50800J0D01*
G01*
X14166800Y-10480000D02*
G75*
G03X14166800Y-10480000I-50800J0D01*
G01*
X14420800Y-10226000D02*
G75*
G03X14420800Y-10226000I-50800J0D01*
G01*
X14420800Y-10480000D02*
G75*
G03X14420800Y-10480000I-50800J0D01*
G01*
X14670800Y-10226000D02*
G75*
G03X14670800Y-10226000I-50800J0D01*
G01*
X14670800Y-10480000D02*
G75*
G03X14670800Y-10480000I-50800J0D01*
G01*
X14836800Y-12560000D02*
G75*
G03X14836800Y-12560000I-50800J0D01*
G01*
X14924800Y-10226000D02*
G75*
G03X14924800Y-10226000I-50800J0D01*
G01*
X14924800Y-10480000D02*
G75*
G03X14924800Y-10480000I-50800J0D01*
G01*
X15090800Y-12560000D02*
G75*
G03X15090800Y-12560000I-50800J0D01*
G01*
X15178800Y-10226000D02*
G75*
G03X15178800Y-10226000I-50800J0D01*
G01*
X15178800Y-10480000D02*
G75*
G03X15178800Y-10480000I-50800J0D01*
G01*
X15432800Y-10226000D02*
G75*
G03X15432800Y-10226000I-50800J0D01*
G01*
X15432800Y-10480000D02*
G75*
G03X15432800Y-10480000I-50800J0D01*
G01*
X15686800Y-10226000D02*
G75*
G03X15686800Y-10226000I-50800J0D01*
G01*
X15686800Y-10480000D02*
G75*
G03X15686800Y-10480000I-50800J0D01*
G01*
X15940800Y-10226000D02*
G75*
G03X15940800Y-10226000I-50800J0D01*
G01*
X15940800Y-10480000D02*
G75*
G03X15940800Y-10480000I-50800J0D01*
G01*
X16070800Y-11302000D02*
G75*
G03X16070800Y-11302000I-50800J0D01*
G01*
X16070800Y-11556000D02*
G75*
G03X16070800Y-11556000I-50800J0D01*
G01*
X16070800Y-11810000D02*
G75*
G03X16070800Y-11810000I-50800J0D01*
G01*
X14560000Y-11208850D02*
X14560000Y-11323150D01*
X14502850Y-11266000D02*
X14617150Y-11266000D01*
X14560000Y-11462850D02*
X14560000Y-11577150D01*
X14502850Y-11520000D02*
X14617150Y-11520000D01*
X14560000Y-11716850D02*
X14560000Y-11831150D01*
X14502850Y-11774000D02*
X14617150Y-11774000D01*
X15250000Y-11198850D02*
X15250000Y-11313150D01*
X15192850Y-11256000D02*
X15307150Y-11256000D01*
X15250000Y-11452850D02*
X15250000Y-11567150D01*
X15192850Y-11510000D02*
X15307150Y-11510000D01*
X15250000Y-11706850D02*
X15250000Y-11821150D01*
X15192850Y-11764000D02*
X15307150Y-11764000D01*
X12987887Y-12697887D02*
X12987887Y-12422113D01*
X12712113Y-12422113D01*
X12712113Y-12697887D01*
X12987887Y-12697887D01*
X16087887Y-12707887D02*
X16087887Y-12432113D01*
X15812113Y-12432113D01*
X15812113Y-12707887D01*
X16087887Y-12707887D01*
D13*
X12666428Y-13470714D02*
X12666428Y-13170714D01*
X12737857Y-13170714D01*
X12780714Y-13185000D01*
X12809286Y-13213571D01*
X12823571Y-13242143D01*
X12837857Y-13299286D01*
X12837857Y-13342143D01*
X12823571Y-13399286D01*
X12809286Y-13427857D01*
X12780714Y-13456429D01*
X12737857Y-13470714D01*
X12666428Y-13470714D01*
X12966428Y-13470714D02*
X12966428Y-13270714D01*
X12966428Y-13327857D02*
X12980714Y-13299286D01*
X12995000Y-13285000D01*
X13023571Y-13270714D01*
X13052143Y-13270714D01*
X13152143Y-13470714D02*
X13152143Y-13270714D01*
X13152143Y-13170714D02*
X13137857Y-13185000D01*
X13152143Y-13199286D01*
X13166428Y-13185000D01*
X13152143Y-13170714D01*
X13152143Y-13199286D01*
X13337857Y-13470714D02*
X13309286Y-13456429D01*
X13295000Y-13427857D01*
X13295000Y-13170714D01*
X13495000Y-13470714D02*
X13466428Y-13456429D01*
X13452143Y-13427857D01*
X13452143Y-13170714D01*
X13837857Y-13470714D02*
X13837857Y-13170714D01*
X13937857Y-13385000D01*
X14037857Y-13170714D01*
X14037857Y-13470714D01*
X14309286Y-13470714D02*
X14309286Y-13313571D01*
X14295000Y-13285000D01*
X14266428Y-13270714D01*
X14209286Y-13270714D01*
X14180714Y-13285000D01*
X14309286Y-13456429D02*
X14280714Y-13470714D01*
X14209286Y-13470714D01*
X14180714Y-13456429D01*
X14166428Y-13427857D01*
X14166428Y-13399286D01*
X14180714Y-13370714D01*
X14209286Y-13356429D01*
X14280714Y-13356429D01*
X14309286Y-13342143D01*
X14452143Y-13270714D02*
X14452143Y-13570714D01*
X14452143Y-13285000D02*
X14480714Y-13270714D01*
X14537857Y-13270714D01*
X14566428Y-13285000D01*
X14580714Y-13299286D01*
X14595000Y-13327857D01*
X14595000Y-13413571D01*
X14580714Y-13442143D01*
X14566428Y-13456429D01*
X14537857Y-13470714D01*
X14480714Y-13470714D01*
X14452143Y-13456429D01*
X14723571Y-13442143D02*
X14737857Y-13456429D01*
X14723571Y-13470714D01*
X14709286Y-13456429D01*
X14723571Y-13442143D01*
X14723571Y-13470714D01*
X14723571Y-13285000D02*
X14737857Y-13299286D01*
X14723571Y-13313571D01*
X14709286Y-13299286D01*
X14723571Y-13285000D01*
X14723571Y-13313571D01*
X12331500Y-13933250D02*
X12395000Y-13996750D01*
X12395000Y-13933250D02*
X12331500Y-13996750D01*
X12723571Y-13800714D02*
X12752143Y-13800714D01*
X12780714Y-13815000D01*
X12795000Y-13829286D01*
X12809286Y-13857857D01*
X12823571Y-13915000D01*
X12823571Y-13986429D01*
X12809286Y-14043571D01*
X12795000Y-14072143D01*
X12780714Y-14086429D01*
X12752143Y-14100714D01*
X12723571Y-14100714D01*
X12695000Y-14086429D01*
X12680714Y-14072143D01*
X12666428Y-14043571D01*
X12652143Y-13986429D01*
X12652143Y-13915000D01*
X12666428Y-13857857D01*
X12680714Y-13829286D01*
X12695000Y-13815000D01*
X12723571Y-13800714D01*
X12952143Y-14072143D02*
X12966428Y-14086429D01*
X12952143Y-14100714D01*
X12937857Y-14086429D01*
X12952143Y-14072143D01*
X12952143Y-14100714D01*
X13223571Y-13800714D02*
X13166428Y-13800714D01*
X13137857Y-13815000D01*
X13123571Y-13829286D01*
X13095000Y-13872143D01*
X13080714Y-13929286D01*
X13080714Y-14043571D01*
X13095000Y-14072143D01*
X13109286Y-14086429D01*
X13137857Y-14100714D01*
X13195000Y-14100714D01*
X13223571Y-14086429D01*
X13237857Y-14072143D01*
X13252143Y-14043571D01*
X13252143Y-13972143D01*
X13237857Y-13943571D01*
X13223571Y-13929286D01*
X13195000Y-13915000D01*
X13137857Y-13915000D01*
X13109286Y-13929286D01*
X13095000Y-13943571D01*
X13080714Y-13972143D01*
X13509286Y-13900714D02*
X13509286Y-14100714D01*
X13437857Y-13786429D02*
X13366428Y-14000714D01*
X13552143Y-14000714D01*
X13666428Y-14100714D02*
X13666428Y-13900714D01*
X13666428Y-13929286D02*
X13680714Y-13915000D01*
X13709286Y-13900714D01*
X13752143Y-13900714D01*
X13780714Y-13915000D01*
X13795000Y-13943571D01*
X13795000Y-14100714D01*
X13795000Y-13943571D02*
X13809286Y-13915000D01*
X13837857Y-13900714D01*
X13880714Y-13900714D01*
X13909286Y-13915000D01*
X13923571Y-13943571D01*
X13923571Y-14100714D01*
X14066428Y-14100714D02*
X14066428Y-13900714D01*
X14066428Y-13929286D02*
X14080714Y-13915000D01*
X14109286Y-13900714D01*
X14152143Y-13900714D01*
X14180714Y-13915000D01*
X14195000Y-13943571D01*
X14195000Y-14100714D01*
X14195000Y-13943571D02*
X14209286Y-13915000D01*
X14237857Y-13900714D01*
X14280714Y-13900714D01*
X14309286Y-13915000D01*
X14323571Y-13943571D01*
X14323571Y-14100714D01*
X14909286Y-13786429D02*
X14652143Y-14172143D01*
X15295000Y-13800714D02*
X15323571Y-13800714D01*
X15352143Y-13815000D01*
X15366428Y-13829286D01*
X15380714Y-13857857D01*
X15395000Y-13915000D01*
X15395000Y-13986429D01*
X15380714Y-14043571D01*
X15366428Y-14072143D01*
X15352143Y-14086429D01*
X15323571Y-14100714D01*
X15295000Y-14100714D01*
X15266428Y-14086429D01*
X15252143Y-14072143D01*
X15237857Y-14043571D01*
X15223571Y-13986429D01*
X15223571Y-13915000D01*
X15237857Y-13857857D01*
X15252143Y-13829286D01*
X15266428Y-13815000D01*
X15295000Y-13800714D01*
X15523571Y-14072143D02*
X15537857Y-14086429D01*
X15523571Y-14100714D01*
X15509286Y-14086429D01*
X15523571Y-14072143D01*
X15523571Y-14100714D01*
X15723571Y-13800714D02*
X15752143Y-13800714D01*
X15780714Y-13815000D01*
X15795000Y-13829286D01*
X15809285Y-13857857D01*
X15823571Y-13915000D01*
X15823571Y-13986429D01*
X15809285Y-14043571D01*
X15795000Y-14072143D01*
X15780714Y-14086429D01*
X15752143Y-14100714D01*
X15723571Y-14100714D01*
X15695000Y-14086429D01*
X15680714Y-14072143D01*
X15666428Y-14043571D01*
X15652143Y-13986429D01*
X15652143Y-13915000D01*
X15666428Y-13857857D01*
X15680714Y-13829286D01*
X15695000Y-13815000D01*
X15723571Y-13800714D01*
X15937857Y-13829286D02*
X15952143Y-13815000D01*
X15980714Y-13800714D01*
X16052143Y-13800714D01*
X16080714Y-13815000D01*
X16095000Y-13829286D01*
X16109285Y-13857857D01*
X16109285Y-13886429D01*
X16095000Y-13929286D01*
X15923571Y-14100714D01*
X16109285Y-14100714D01*
X16380714Y-13800714D02*
X16237857Y-13800714D01*
X16223571Y-13943571D01*
X16237857Y-13929286D01*
X16266428Y-13915000D01*
X16337857Y-13915000D01*
X16366428Y-13929286D01*
X16380714Y-13943571D01*
X16395000Y-13972143D01*
X16395000Y-14043571D01*
X16380714Y-14072143D01*
X16366428Y-14086429D01*
X16337857Y-14100714D01*
X16266428Y-14100714D01*
X16237857Y-14086429D01*
X16223571Y-14072143D01*
X16509286Y-13800714D02*
X16509286Y-13857857D01*
X16623571Y-13800714D02*
X16623571Y-13857857D01*
X17066428Y-14215000D02*
X17052143Y-14200714D01*
X17023571Y-14157857D01*
X17009286Y-14129286D01*
X16995000Y-14086429D01*
X16980714Y-14015000D01*
X16980714Y-13957857D01*
X16995000Y-13886429D01*
X17009286Y-13843571D01*
X17023571Y-13815000D01*
X17052143Y-13772143D01*
X17066428Y-13757857D01*
X17337857Y-14100714D02*
X17166428Y-14100714D01*
X17252143Y-14100714D02*
X17252143Y-13800714D01*
X17223571Y-13843571D01*
X17195000Y-13872143D01*
X17166428Y-13886429D01*
X17523571Y-13800714D02*
X17552143Y-13800714D01*
X17580714Y-13815000D01*
X17595000Y-13829286D01*
X17609286Y-13857857D01*
X17623571Y-13915000D01*
X17623571Y-13986429D01*
X17609286Y-14043571D01*
X17595000Y-14072143D01*
X17580714Y-14086429D01*
X17552143Y-14100714D01*
X17523571Y-14100714D01*
X17495000Y-14086429D01*
X17480714Y-14072143D01*
X17466428Y-14043571D01*
X17452143Y-13986429D01*
X17452143Y-13915000D01*
X17466428Y-13857857D01*
X17480714Y-13829286D01*
X17495000Y-13815000D01*
X17523571Y-13800714D01*
X17980714Y-14100714D02*
X17980714Y-13800714D01*
X18109286Y-14100714D02*
X18109286Y-13943571D01*
X18095000Y-13915000D01*
X18066428Y-13900714D01*
X18023571Y-13900714D01*
X17995000Y-13915000D01*
X17980714Y-13929286D01*
X18295000Y-14100714D02*
X18266428Y-14086429D01*
X18252143Y-14072143D01*
X18237857Y-14043571D01*
X18237857Y-13957857D01*
X18252143Y-13929286D01*
X18266428Y-13915000D01*
X18295000Y-13900714D01*
X18337857Y-13900714D01*
X18366428Y-13915000D01*
X18380714Y-13929286D01*
X18395000Y-13957857D01*
X18395000Y-14043571D01*
X18380714Y-14072143D01*
X18366428Y-14086429D01*
X18337857Y-14100714D01*
X18295000Y-14100714D01*
X18566428Y-14100714D02*
X18537857Y-14086429D01*
X18523571Y-14057857D01*
X18523571Y-13800714D01*
X18795000Y-14086429D02*
X18766429Y-14100714D01*
X18709286Y-14100714D01*
X18680714Y-14086429D01*
X18666429Y-14057857D01*
X18666429Y-13943571D01*
X18680714Y-13915000D01*
X18709286Y-13900714D01*
X18766429Y-13900714D01*
X18795000Y-13915000D01*
X18809286Y-13943571D01*
X18809286Y-13972143D01*
X18666429Y-14000714D01*
X18923571Y-14086429D02*
X18952143Y-14100714D01*
X19009286Y-14100714D01*
X19037857Y-14086429D01*
X19052143Y-14057857D01*
X19052143Y-14043571D01*
X19037857Y-14015000D01*
X19009286Y-14000714D01*
X18966429Y-14000714D01*
X18937857Y-13986429D01*
X18923571Y-13957857D01*
X18923571Y-13943571D01*
X18937857Y-13915000D01*
X18966429Y-13900714D01*
X19009286Y-13900714D01*
X19037857Y-13915000D01*
X19152143Y-14215000D02*
X19166429Y-14200714D01*
X19195000Y-14157857D01*
X19209286Y-14129286D01*
X19223571Y-14086429D01*
X19237857Y-14015000D01*
X19237857Y-13957857D01*
X19223571Y-13886429D01*
X19209286Y-13843571D01*
X19195000Y-13815000D01*
X19166429Y-13772143D01*
X19152143Y-13757857D01*
X12395000Y-14361000D02*
G75*
G03X12395000Y-14361000I-50800J0D01*
G01*
X12823571Y-14496714D02*
X12652143Y-14496714D01*
X12737857Y-14496714D02*
X12737857Y-14196714D01*
X12709286Y-14239571D01*
X12680714Y-14268143D01*
X12652143Y-14282429D01*
X12952143Y-14468143D02*
X12966428Y-14482429D01*
X12952143Y-14496714D01*
X12937857Y-14482429D01*
X12952143Y-14468143D01*
X12952143Y-14496714D01*
X13152143Y-14196714D02*
X13180714Y-14196714D01*
X13209286Y-14211000D01*
X13223571Y-14225286D01*
X13237857Y-14253857D01*
X13252143Y-14311000D01*
X13252143Y-14382429D01*
X13237857Y-14439571D01*
X13223571Y-14468143D01*
X13209286Y-14482429D01*
X13180714Y-14496714D01*
X13152143Y-14496714D01*
X13123571Y-14482429D01*
X13109286Y-14468143D01*
X13095000Y-14439571D01*
X13080714Y-14382429D01*
X13080714Y-14311000D01*
X13095000Y-14253857D01*
X13109286Y-14225286D01*
X13123571Y-14211000D01*
X13152143Y-14196714D01*
X13366428Y-14225286D02*
X13380714Y-14211000D01*
X13409286Y-14196714D01*
X13480714Y-14196714D01*
X13509286Y-14211000D01*
X13523571Y-14225286D01*
X13537857Y-14253857D01*
X13537857Y-14282429D01*
X13523571Y-14325286D01*
X13352143Y-14496714D01*
X13537857Y-14496714D01*
X13666428Y-14496714D02*
X13666428Y-14296714D01*
X13666428Y-14325286D02*
X13680714Y-14311000D01*
X13709286Y-14296714D01*
X13752143Y-14296714D01*
X13780714Y-14311000D01*
X13795000Y-14339571D01*
X13795000Y-14496714D01*
X13795000Y-14339571D02*
X13809286Y-14311000D01*
X13837857Y-14296714D01*
X13880714Y-14296714D01*
X13909286Y-14311000D01*
X13923571Y-14339571D01*
X13923571Y-14496714D01*
X14066428Y-14496714D02*
X14066428Y-14296714D01*
X14066428Y-14325286D02*
X14080714Y-14311000D01*
X14109286Y-14296714D01*
X14152143Y-14296714D01*
X14180714Y-14311000D01*
X14195000Y-14339571D01*
X14195000Y-14496714D01*
X14195000Y-14339571D02*
X14209286Y-14311000D01*
X14237857Y-14296714D01*
X14280714Y-14296714D01*
X14309286Y-14311000D01*
X14323571Y-14339571D01*
X14323571Y-14496714D01*
X14909286Y-14182429D02*
X14652143Y-14568143D01*
X15295000Y-14196714D02*
X15323571Y-14196714D01*
X15352143Y-14211000D01*
X15366428Y-14225286D01*
X15380714Y-14253857D01*
X15395000Y-14311000D01*
X15395000Y-14382429D01*
X15380714Y-14439571D01*
X15366428Y-14468143D01*
X15352143Y-14482429D01*
X15323571Y-14496714D01*
X15295000Y-14496714D01*
X15266428Y-14482429D01*
X15252143Y-14468143D01*
X15237857Y-14439571D01*
X15223571Y-14382429D01*
X15223571Y-14311000D01*
X15237857Y-14253857D01*
X15252143Y-14225286D01*
X15266428Y-14211000D01*
X15295000Y-14196714D01*
X15523571Y-14468143D02*
X15537857Y-14482429D01*
X15523571Y-14496714D01*
X15509286Y-14482429D01*
X15523571Y-14468143D01*
X15523571Y-14496714D01*
X15723571Y-14196714D02*
X15752143Y-14196714D01*
X15780714Y-14211000D01*
X15795000Y-14225286D01*
X15809285Y-14253857D01*
X15823571Y-14311000D01*
X15823571Y-14382429D01*
X15809285Y-14439571D01*
X15795000Y-14468143D01*
X15780714Y-14482429D01*
X15752143Y-14496714D01*
X15723571Y-14496714D01*
X15695000Y-14482429D01*
X15680714Y-14468143D01*
X15666428Y-14439571D01*
X15652143Y-14382429D01*
X15652143Y-14311000D01*
X15666428Y-14253857D01*
X15680714Y-14225286D01*
X15695000Y-14211000D01*
X15723571Y-14196714D01*
X16080714Y-14296714D02*
X16080714Y-14496714D01*
X16009285Y-14182429D02*
X15937857Y-14396714D01*
X16123571Y-14396714D01*
X16295000Y-14196714D02*
X16323571Y-14196714D01*
X16352143Y-14211000D01*
X16366428Y-14225286D01*
X16380714Y-14253857D01*
X16395000Y-14311000D01*
X16395000Y-14382429D01*
X16380714Y-14439571D01*
X16366428Y-14468143D01*
X16352143Y-14482429D01*
X16323571Y-14496714D01*
X16295000Y-14496714D01*
X16266428Y-14482429D01*
X16252143Y-14468143D01*
X16237857Y-14439571D01*
X16223571Y-14382429D01*
X16223571Y-14311000D01*
X16237857Y-14253857D01*
X16252143Y-14225286D01*
X16266428Y-14211000D01*
X16295000Y-14196714D01*
X16509286Y-14196714D02*
X16509286Y-14253857D01*
X16623571Y-14196714D02*
X16623571Y-14253857D01*
X17066428Y-14611000D02*
X17052143Y-14596714D01*
X17023571Y-14553857D01*
X17009286Y-14525286D01*
X16995000Y-14482429D01*
X16980714Y-14411000D01*
X16980714Y-14353857D01*
X16995000Y-14282429D01*
X17009286Y-14239571D01*
X17023571Y-14211000D01*
X17052143Y-14168143D01*
X17066428Y-14153857D01*
X17166428Y-14225286D02*
X17180714Y-14211000D01*
X17209286Y-14196714D01*
X17280714Y-14196714D01*
X17309286Y-14211000D01*
X17323571Y-14225286D01*
X17337857Y-14253857D01*
X17337857Y-14282429D01*
X17323571Y-14325286D01*
X17152143Y-14496714D01*
X17337857Y-14496714D01*
X17480714Y-14496714D02*
X17537857Y-14496714D01*
X17566428Y-14482429D01*
X17580714Y-14468143D01*
X17609286Y-14425286D01*
X17623571Y-14368143D01*
X17623571Y-14253857D01*
X17609286Y-14225286D01*
X17595000Y-14211000D01*
X17566428Y-14196714D01*
X17509286Y-14196714D01*
X17480714Y-14211000D01*
X17466428Y-14225286D01*
X17452143Y-14253857D01*
X17452143Y-14325286D01*
X17466428Y-14353857D01*
X17480714Y-14368143D01*
X17509286Y-14382429D01*
X17566428Y-14382429D01*
X17595000Y-14368143D01*
X17609286Y-14353857D01*
X17623571Y-14325286D01*
X17980714Y-14496714D02*
X17980714Y-14196714D01*
X18109286Y-14496714D02*
X18109286Y-14339571D01*
X18095000Y-14311000D01*
X18066428Y-14296714D01*
X18023571Y-14296714D01*
X17995000Y-14311000D01*
X17980714Y-14325286D01*
X18295000Y-14496714D02*
X18266428Y-14482429D01*
X18252143Y-14468143D01*
X18237857Y-14439571D01*
X18237857Y-14353857D01*
X18252143Y-14325286D01*
X18266428Y-14311000D01*
X18295000Y-14296714D01*
X18337857Y-14296714D01*
X18366428Y-14311000D01*
X18380714Y-14325286D01*
X18395000Y-14353857D01*
X18395000Y-14439571D01*
X18380714Y-14468143D01*
X18366428Y-14482429D01*
X18337857Y-14496714D01*
X18295000Y-14496714D01*
X18566428Y-14496714D02*
X18537857Y-14482429D01*
X18523571Y-14453857D01*
X18523571Y-14196714D01*
X18795000Y-14482429D02*
X18766429Y-14496714D01*
X18709286Y-14496714D01*
X18680714Y-14482429D01*
X18666429Y-14453857D01*
X18666429Y-14339571D01*
X18680714Y-14311000D01*
X18709286Y-14296714D01*
X18766429Y-14296714D01*
X18795000Y-14311000D01*
X18809286Y-14339571D01*
X18809286Y-14368143D01*
X18666429Y-14396714D01*
X18923571Y-14482429D02*
X18952143Y-14496714D01*
X19009286Y-14496714D01*
X19037857Y-14482429D01*
X19052143Y-14453857D01*
X19052143Y-14439571D01*
X19037857Y-14411000D01*
X19009286Y-14396714D01*
X18966429Y-14396714D01*
X18937857Y-14382429D01*
X18923571Y-14353857D01*
X18923571Y-14339571D01*
X18937857Y-14311000D01*
X18966429Y-14296714D01*
X19009286Y-14296714D01*
X19037857Y-14311000D01*
X19152143Y-14611000D02*
X19166429Y-14596714D01*
X19195000Y-14553857D01*
X19209286Y-14525286D01*
X19223571Y-14482429D01*
X19237857Y-14411000D01*
X19237857Y-14353857D01*
X19223571Y-14282429D01*
X19209286Y-14239571D01*
X19195000Y-14211000D01*
X19166429Y-14168143D01*
X19152143Y-14153857D01*
X12337850Y-14699850D02*
X12337850Y-14814150D01*
X12280700Y-14757000D02*
X12395000Y-14757000D01*
X12823571Y-14892714D02*
X12652143Y-14892714D01*
X12737857Y-14892714D02*
X12737857Y-14592714D01*
X12709286Y-14635571D01*
X12680714Y-14664143D01*
X12652143Y-14678429D01*
X12952143Y-14864143D02*
X12966428Y-14878429D01*
X12952143Y-14892714D01*
X12937857Y-14878429D01*
X12952143Y-14864143D01*
X12952143Y-14892714D01*
X13252143Y-14892714D02*
X13080714Y-14892714D01*
X13166428Y-14892714D02*
X13166428Y-14592714D01*
X13137857Y-14635571D01*
X13109286Y-14664143D01*
X13080714Y-14678429D01*
X13509286Y-14692714D02*
X13509286Y-14892714D01*
X13437857Y-14578429D02*
X13366428Y-14792714D01*
X13552143Y-14792714D01*
X13666428Y-14892714D02*
X13666428Y-14692714D01*
X13666428Y-14721286D02*
X13680714Y-14707000D01*
X13709286Y-14692714D01*
X13752143Y-14692714D01*
X13780714Y-14707000D01*
X13795000Y-14735571D01*
X13795000Y-14892714D01*
X13795000Y-14735571D02*
X13809286Y-14707000D01*
X13837857Y-14692714D01*
X13880714Y-14692714D01*
X13909286Y-14707000D01*
X13923571Y-14735571D01*
X13923571Y-14892714D01*
X14066428Y-14892714D02*
X14066428Y-14692714D01*
X14066428Y-14721286D02*
X14080714Y-14707000D01*
X14109286Y-14692714D01*
X14152143Y-14692714D01*
X14180714Y-14707000D01*
X14195000Y-14735571D01*
X14195000Y-14892714D01*
X14195000Y-14735571D02*
X14209286Y-14707000D01*
X14237857Y-14692714D01*
X14280714Y-14692714D01*
X14309286Y-14707000D01*
X14323571Y-14735571D01*
X14323571Y-14892714D01*
X14909286Y-14578429D02*
X14652143Y-14964143D01*
X15295000Y-14592714D02*
X15323571Y-14592714D01*
X15352143Y-14607000D01*
X15366428Y-14621286D01*
X15380714Y-14649857D01*
X15395000Y-14707000D01*
X15395000Y-14778429D01*
X15380714Y-14835571D01*
X15366428Y-14864143D01*
X15352143Y-14878429D01*
X15323571Y-14892714D01*
X15295000Y-14892714D01*
X15266428Y-14878429D01*
X15252143Y-14864143D01*
X15237857Y-14835571D01*
X15223571Y-14778429D01*
X15223571Y-14707000D01*
X15237857Y-14649857D01*
X15252143Y-14621286D01*
X15266428Y-14607000D01*
X15295000Y-14592714D01*
X15523571Y-14864143D02*
X15537857Y-14878429D01*
X15523571Y-14892714D01*
X15509286Y-14878429D01*
X15523571Y-14864143D01*
X15523571Y-14892714D01*
X15723571Y-14592714D02*
X15752143Y-14592714D01*
X15780714Y-14607000D01*
X15795000Y-14621286D01*
X15809285Y-14649857D01*
X15823571Y-14707000D01*
X15823571Y-14778429D01*
X15809285Y-14835571D01*
X15795000Y-14864143D01*
X15780714Y-14878429D01*
X15752143Y-14892714D01*
X15723571Y-14892714D01*
X15695000Y-14878429D01*
X15680714Y-14864143D01*
X15666428Y-14835571D01*
X15652143Y-14778429D01*
X15652143Y-14707000D01*
X15666428Y-14649857D01*
X15680714Y-14621286D01*
X15695000Y-14607000D01*
X15723571Y-14592714D01*
X16080714Y-14692714D02*
X16080714Y-14892714D01*
X16009285Y-14578429D02*
X15937857Y-14792714D01*
X16123571Y-14792714D01*
X16380714Y-14592714D02*
X16237857Y-14592714D01*
X16223571Y-14735571D01*
X16237857Y-14721286D01*
X16266428Y-14707000D01*
X16337857Y-14707000D01*
X16366428Y-14721286D01*
X16380714Y-14735571D01*
X16395000Y-14764143D01*
X16395000Y-14835571D01*
X16380714Y-14864143D01*
X16366428Y-14878429D01*
X16337857Y-14892714D01*
X16266428Y-14892714D01*
X16237857Y-14878429D01*
X16223571Y-14864143D01*
X16509286Y-14592714D02*
X16509286Y-14649857D01*
X16623571Y-14592714D02*
X16623571Y-14649857D01*
X17066428Y-15007000D02*
X17052143Y-14992714D01*
X17023571Y-14949857D01*
X17009286Y-14921286D01*
X16995000Y-14878429D01*
X16980714Y-14807000D01*
X16980714Y-14749857D01*
X16995000Y-14678429D01*
X17009286Y-14635571D01*
X17023571Y-14607000D01*
X17052143Y-14564143D01*
X17066428Y-14549857D01*
X17309286Y-14592714D02*
X17252143Y-14592714D01*
X17223571Y-14607000D01*
X17209286Y-14621286D01*
X17180714Y-14664143D01*
X17166428Y-14721286D01*
X17166428Y-14835571D01*
X17180714Y-14864143D01*
X17195000Y-14878429D01*
X17223571Y-14892714D01*
X17280714Y-14892714D01*
X17309286Y-14878429D01*
X17323571Y-14864143D01*
X17337857Y-14835571D01*
X17337857Y-14764143D01*
X17323571Y-14735571D01*
X17309286Y-14721286D01*
X17280714Y-14707000D01*
X17223571Y-14707000D01*
X17195000Y-14721286D01*
X17180714Y-14735571D01*
X17166428Y-14764143D01*
X17695000Y-14892714D02*
X17695000Y-14592714D01*
X17823571Y-14892714D02*
X17823571Y-14735571D01*
X17809286Y-14707000D01*
X17780714Y-14692714D01*
X17737857Y-14692714D01*
X17709286Y-14707000D01*
X17695000Y-14721286D01*
X18009286Y-14892714D02*
X17980714Y-14878429D01*
X17966428Y-14864143D01*
X17952143Y-14835571D01*
X17952143Y-14749857D01*
X17966428Y-14721286D01*
X17980714Y-14707000D01*
X18009286Y-14692714D01*
X18052143Y-14692714D01*
X18080714Y-14707000D01*
X18095000Y-14721286D01*
X18109286Y-14749857D01*
X18109286Y-14835571D01*
X18095000Y-14864143D01*
X18080714Y-14878429D01*
X18052143Y-14892714D01*
X18009286Y-14892714D01*
X18280714Y-14892714D02*
X18252143Y-14878429D01*
X18237857Y-14849857D01*
X18237857Y-14592714D01*
X18509286Y-14878429D02*
X18480714Y-14892714D01*
X18423571Y-14892714D01*
X18395000Y-14878429D01*
X18380714Y-14849857D01*
X18380714Y-14735571D01*
X18395000Y-14707000D01*
X18423571Y-14692714D01*
X18480714Y-14692714D01*
X18509286Y-14707000D01*
X18523571Y-14735571D01*
X18523571Y-14764143D01*
X18380714Y-14792714D01*
X18637857Y-14878429D02*
X18666429Y-14892714D01*
X18723571Y-14892714D01*
X18752143Y-14878429D01*
X18766429Y-14849857D01*
X18766429Y-14835571D01*
X18752143Y-14807000D01*
X18723571Y-14792714D01*
X18680714Y-14792714D01*
X18652143Y-14778429D01*
X18637857Y-14749857D01*
X18637857Y-14735571D01*
X18652143Y-14707000D01*
X18680714Y-14692714D01*
X18723571Y-14692714D01*
X18752143Y-14707000D01*
X18866428Y-15007000D02*
X18880714Y-14992714D01*
X18909286Y-14949857D01*
X18923571Y-14921286D01*
X18937857Y-14878429D01*
X18952143Y-14807000D01*
X18952143Y-14749857D01*
X18937857Y-14678429D01*
X18923571Y-14635571D01*
X18909286Y-14607000D01*
X18880714Y-14564143D01*
X18866428Y-14549857D01*
X12337887Y-15290887D02*
X12337887Y-15015113D01*
X12062113Y-15015113D01*
X12062113Y-15290887D01*
X12337887Y-15290887D01*
X12637857Y-14988714D02*
X12823571Y-14988714D01*
X12723571Y-15103000D01*
X12766428Y-15103000D01*
X12795000Y-15117286D01*
X12809286Y-15131571D01*
X12823571Y-15160143D01*
X12823571Y-15231571D01*
X12809286Y-15260143D01*
X12795000Y-15274429D01*
X12766428Y-15288714D01*
X12680714Y-15288714D01*
X12652143Y-15274429D01*
X12637857Y-15260143D01*
X12952143Y-15260143D02*
X12966428Y-15274429D01*
X12952143Y-15288714D01*
X12937857Y-15274429D01*
X12952143Y-15260143D01*
X12952143Y-15288714D01*
X13109286Y-15288714D02*
X13166428Y-15288714D01*
X13195000Y-15274429D01*
X13209286Y-15260143D01*
X13237857Y-15217286D01*
X13252143Y-15160143D01*
X13252143Y-15045857D01*
X13237857Y-15017286D01*
X13223571Y-15003000D01*
X13195000Y-14988714D01*
X13137857Y-14988714D01*
X13109286Y-15003000D01*
X13095000Y-15017286D01*
X13080714Y-15045857D01*
X13080714Y-15117286D01*
X13095000Y-15145857D01*
X13109286Y-15160143D01*
X13137857Y-15174429D01*
X13195000Y-15174429D01*
X13223571Y-15160143D01*
X13237857Y-15145857D01*
X13252143Y-15117286D01*
X13437857Y-14988714D02*
X13466428Y-14988714D01*
X13495000Y-15003000D01*
X13509286Y-15017286D01*
X13523571Y-15045857D01*
X13537857Y-15103000D01*
X13537857Y-15174429D01*
X13523571Y-15231571D01*
X13509286Y-15260143D01*
X13495000Y-15274429D01*
X13466428Y-15288714D01*
X13437857Y-15288714D01*
X13409286Y-15274429D01*
X13395000Y-15260143D01*
X13380714Y-15231571D01*
X13366428Y-15174429D01*
X13366428Y-15103000D01*
X13380714Y-15045857D01*
X13395000Y-15017286D01*
X13409286Y-15003000D01*
X13437857Y-14988714D01*
X13666428Y-15288714D02*
X13666428Y-15088714D01*
X13666428Y-15117286D02*
X13680714Y-15103000D01*
X13709286Y-15088714D01*
X13752143Y-15088714D01*
X13780714Y-15103000D01*
X13795000Y-15131571D01*
X13795000Y-15288714D01*
X13795000Y-15131571D02*
X13809286Y-15103000D01*
X13837857Y-15088714D01*
X13880714Y-15088714D01*
X13909286Y-15103000D01*
X13923571Y-15131571D01*
X13923571Y-15288714D01*
X14066428Y-15288714D02*
X14066428Y-15088714D01*
X14066428Y-15117286D02*
X14080714Y-15103000D01*
X14109286Y-15088714D01*
X14152143Y-15088714D01*
X14180714Y-15103000D01*
X14195000Y-15131571D01*
X14195000Y-15288714D01*
X14195000Y-15131571D02*
X14209286Y-15103000D01*
X14237857Y-15088714D01*
X14280714Y-15088714D01*
X14309286Y-15103000D01*
X14323571Y-15131571D01*
X14323571Y-15288714D01*
X14909286Y-14974429D02*
X14652143Y-15360143D01*
X15295000Y-14988714D02*
X15323571Y-14988714D01*
X15352143Y-15003000D01*
X15366428Y-15017286D01*
X15380714Y-15045857D01*
X15395000Y-15103000D01*
X15395000Y-15174429D01*
X15380714Y-15231571D01*
X15366428Y-15260143D01*
X15352143Y-15274429D01*
X15323571Y-15288714D01*
X15295000Y-15288714D01*
X15266428Y-15274429D01*
X15252143Y-15260143D01*
X15237857Y-15231571D01*
X15223571Y-15174429D01*
X15223571Y-15103000D01*
X15237857Y-15045857D01*
X15252143Y-15017286D01*
X15266428Y-15003000D01*
X15295000Y-14988714D01*
X15523571Y-15260143D02*
X15537857Y-15274429D01*
X15523571Y-15288714D01*
X15509286Y-15274429D01*
X15523571Y-15260143D01*
X15523571Y-15288714D01*
X15823571Y-15288714D02*
X15652143Y-15288714D01*
X15737857Y-15288714D02*
X15737857Y-14988714D01*
X15709285Y-15031571D01*
X15680714Y-15060143D01*
X15652143Y-15074429D01*
X16095000Y-14988714D02*
X15952143Y-14988714D01*
X15937857Y-15131571D01*
X15952143Y-15117286D01*
X15980714Y-15103000D01*
X16052143Y-15103000D01*
X16080714Y-15117286D01*
X16095000Y-15131571D01*
X16109285Y-15160143D01*
X16109285Y-15231571D01*
X16095000Y-15260143D01*
X16080714Y-15274429D01*
X16052143Y-15288714D01*
X15980714Y-15288714D01*
X15952143Y-15274429D01*
X15937857Y-15260143D01*
X16366428Y-15088714D02*
X16366428Y-15288714D01*
X16295000Y-14974429D02*
X16223571Y-15188714D01*
X16409285Y-15188714D01*
X16509286Y-14988714D02*
X16509286Y-15045857D01*
X16623571Y-14988714D02*
X16623571Y-15045857D01*
X17066428Y-15403000D02*
X17052143Y-15388714D01*
X17023571Y-15345857D01*
X17009286Y-15317286D01*
X16995000Y-15274429D01*
X16980714Y-15203000D01*
X16980714Y-15145857D01*
X16995000Y-15074429D01*
X17009286Y-15031571D01*
X17023571Y-15003000D01*
X17052143Y-14960143D01*
X17066428Y-14945857D01*
X17166428Y-15017286D02*
X17180714Y-15003000D01*
X17209286Y-14988714D01*
X17280714Y-14988714D01*
X17309286Y-15003000D01*
X17323571Y-15017286D01*
X17337857Y-15045857D01*
X17337857Y-15074429D01*
X17323571Y-15117286D01*
X17152143Y-15288714D01*
X17337857Y-15288714D01*
X17695000Y-15288714D02*
X17695000Y-14988714D01*
X17823571Y-15288714D02*
X17823571Y-15131571D01*
X17809286Y-15103000D01*
X17780714Y-15088714D01*
X17737857Y-15088714D01*
X17709286Y-15103000D01*
X17695000Y-15117286D01*
X18009286Y-15288714D02*
X17980714Y-15274429D01*
X17966428Y-15260143D01*
X17952143Y-15231571D01*
X17952143Y-15145857D01*
X17966428Y-15117286D01*
X17980714Y-15103000D01*
X18009286Y-15088714D01*
X18052143Y-15088714D01*
X18080714Y-15103000D01*
X18095000Y-15117286D01*
X18109286Y-15145857D01*
X18109286Y-15231571D01*
X18095000Y-15260143D01*
X18080714Y-15274429D01*
X18052143Y-15288714D01*
X18009286Y-15288714D01*
X18280714Y-15288714D02*
X18252143Y-15274429D01*
X18237857Y-15245857D01*
X18237857Y-14988714D01*
X18509286Y-15274429D02*
X18480714Y-15288714D01*
X18423571Y-15288714D01*
X18395000Y-15274429D01*
X18380714Y-15245857D01*
X18380714Y-15131571D01*
X18395000Y-15103000D01*
X18423571Y-15088714D01*
X18480714Y-15088714D01*
X18509286Y-15103000D01*
X18523571Y-15131571D01*
X18523571Y-15160143D01*
X18380714Y-15188714D01*
X18637857Y-15274429D02*
X18666429Y-15288714D01*
X18723571Y-15288714D01*
X18752143Y-15274429D01*
X18766429Y-15245857D01*
X18766429Y-15231571D01*
X18752143Y-15203000D01*
X18723571Y-15188714D01*
X18680714Y-15188714D01*
X18652143Y-15174429D01*
X18637857Y-15145857D01*
X18637857Y-15131571D01*
X18652143Y-15103000D01*
X18680714Y-15088714D01*
X18723571Y-15088714D01*
X18752143Y-15103000D01*
X18866428Y-15403000D02*
X18880714Y-15388714D01*
X18909286Y-15345857D01*
X18923571Y-15317286D01*
X18937857Y-15274429D01*
X18952143Y-15203000D01*
X18952143Y-15145857D01*
X18937857Y-15074429D01*
X18923571Y-15031571D01*
X18909286Y-15003000D01*
X18880714Y-14960143D01*
X18866428Y-14945857D01*
M02*
