%FSLAX46Y46*%
G04 Gerber Fmt 4.6, Leading zero omitted, Abs format (unit mm)*
G04 Created by KiCad (PCBNEW (2014-10-27 BZR 5228)-product) date 12/17/2014 3:51:32 PM*
%MOMM*%
G01*
G04 APERTURE LIST*
%ADD10C,0.100000*%
%ADD11R,1.500000X1.250000*%
%ADD12R,1.250000X1.500000*%
%ADD13R,1.500000X1.300000*%
%ADD14R,1.300000X1.500000*%
%ADD15R,3.500120X2.301240*%
%ADD16R,0.599440X1.000760*%
%ADD17R,3.657600X2.032000*%
%ADD18R,1.016000X2.032000*%
%ADD19R,0.889000X1.397000*%
G04 APERTURE END LIST*
D10*
D11*
X88050000Y-40400000D03*
X85550000Y-40400000D03*
D12*
X82200000Y-43850000D03*
X82200000Y-41350000D03*
X85400000Y-64150000D03*
X85400000Y-66650000D03*
D11*
X131150000Y-39200000D03*
X133650000Y-39200000D03*
X101050000Y-45400000D03*
X98550000Y-45400000D03*
D12*
X136600000Y-40850000D03*
X136600000Y-38350000D03*
D11*
X161750000Y-39600000D03*
X164250000Y-39600000D03*
X119950000Y-47000000D03*
X122450000Y-47000000D03*
X160750000Y-66600000D03*
X163250000Y-66600000D03*
D12*
X170000000Y-57150000D03*
X170000000Y-59650000D03*
D11*
X134550000Y-50200000D03*
X137050000Y-50200000D03*
X124750000Y-87200000D03*
X127250000Y-87200000D03*
X155950000Y-87600000D03*
X158450000Y-87600000D03*
X92950000Y-126400000D03*
X95450000Y-126400000D03*
X124350000Y-126800000D03*
X126850000Y-126800000D03*
X155350000Y-127000000D03*
X157850000Y-127000000D03*
X93750000Y-99000000D03*
X96250000Y-99000000D03*
X123750000Y-99200000D03*
X126250000Y-99200000D03*
X90950000Y-137800000D03*
X93450000Y-137800000D03*
D13*
X89350000Y-52600000D03*
X86650000Y-52600000D03*
X88150000Y-43600000D03*
X85450000Y-43600000D03*
D14*
X88200000Y-59250000D03*
X88200000Y-61950000D03*
D13*
X91850000Y-41000000D03*
X94550000Y-41000000D03*
X125650000Y-39400000D03*
X128350000Y-39400000D03*
X112750000Y-51800000D03*
X110050000Y-51800000D03*
X101150000Y-41400000D03*
X98450000Y-41400000D03*
X138550000Y-44800000D03*
X135850000Y-44800000D03*
X107550000Y-41400000D03*
X104850000Y-41400000D03*
X145750000Y-44600000D03*
X143050000Y-44600000D03*
X122150000Y-41400000D03*
X119450000Y-41400000D03*
X144650000Y-66800000D03*
X147350000Y-66800000D03*
X158950000Y-63600000D03*
X156250000Y-63600000D03*
X152750000Y-63600000D03*
X150050000Y-63600000D03*
X166150000Y-63600000D03*
X163450000Y-63600000D03*
X154650000Y-39600000D03*
X157350000Y-39600000D03*
X134450000Y-54000000D03*
X137150000Y-54000000D03*
X135450000Y-67200000D03*
X138150000Y-67200000D03*
D11*
X123150000Y-137600000D03*
X125650000Y-137600000D03*
X153550000Y-138200000D03*
X156050000Y-138200000D03*
X99350000Y-99000000D03*
X101850000Y-99000000D03*
X129950000Y-99000000D03*
X132450000Y-99000000D03*
X160550000Y-98600000D03*
X163050000Y-98600000D03*
X97150000Y-138000000D03*
X99650000Y-138000000D03*
X128950000Y-137600000D03*
X131450000Y-137600000D03*
X159550000Y-138200000D03*
X162050000Y-138200000D03*
X105150000Y-99200000D03*
X107650000Y-99200000D03*
X136150000Y-99000000D03*
X138650000Y-99000000D03*
X166750000Y-98600000D03*
X169250000Y-98600000D03*
X104550000Y-138000000D03*
X107050000Y-138000000D03*
X136750000Y-137400000D03*
X139250000Y-137400000D03*
X165150000Y-138200000D03*
X167650000Y-138200000D03*
D15*
X149300020Y-40000000D03*
X143899980Y-40000000D03*
D16*
X129047500Y-45856640D03*
X130000000Y-43743360D03*
X130952500Y-45856640D03*
D17*
X113000000Y-40898000D03*
D18*
X113000000Y-47502000D03*
X115286000Y-47502000D03*
X110714000Y-47502000D03*
D16*
X136752500Y-58943360D03*
X135800000Y-61056640D03*
X134847500Y-58943360D03*
D11*
X93750000Y-87400000D03*
X96250000Y-87400000D03*
X154350000Y-98600000D03*
X156850000Y-98600000D03*
D19*
X75247500Y-68200000D03*
X77152500Y-68200000D03*
M02*
