%FSLAX46Y46*%
G04 Gerber Fmt 4.6, Leading zero omitted, Abs format (unit mm)*
G04 Created by KiCad (PCBNEW (2014-10-27 BZR 5228)-product) date 12/17/2014 3:51:32 PM*
%MOMM*%
G01*
G04 APERTURE LIST*
%ADD10C,0.100000*%
%ADD11C,0.020000*%
G04 APERTURE END LIST*
D10*
D11*
X71600000Y-78200000D02*
X71600000Y-157200000D01*
X71600000Y-30400000D02*
X71600000Y-54200000D01*
X186600000Y-30400000D02*
X71600000Y-30400000D01*
X186600000Y-157200000D02*
X186600000Y-30400000D01*
X71600000Y-157200000D02*
X186600000Y-157200000D01*
X71600000Y-55200000D02*
X71600000Y-54200000D01*
X71600000Y-77250000D02*
X71600000Y-78200000D01*
X70650000Y-56100000D02*
G75*
G03X71600000Y-55150000I0J950000D01*
G01*
X63200000Y-56450000D02*
X63550000Y-56100000D01*
X63550000Y-56100000D02*
X70650000Y-56100000D01*
X63200000Y-66900000D02*
X63200000Y-56450000D01*
X71600000Y-77250000D02*
G75*
G03X70650000Y-76300000I-950000J0D01*
G01*
X63200000Y-75950000D02*
X63550000Y-76300000D01*
X63550000Y-76300000D02*
X70650000Y-76300000D01*
X70650000Y-69150000D02*
X63550000Y-69150000D01*
X63550000Y-69150000D02*
X63200000Y-69500000D01*
X63200000Y-69500000D02*
X63200000Y-75950000D01*
X63550000Y-67250000D02*
X70650000Y-67250000D01*
X63550000Y-67250000D02*
X63200000Y-66900000D01*
X71600000Y-68200000D02*
G75*
G03X70650000Y-67250000I-950000J0D01*
G01*
X70650000Y-69150000D02*
G75*
G03X71600000Y-68200000I0J950000D01*
G01*
M02*
