M48
;DRILL file {kicad (2014-10-27 BZR 5228)-product} date 12/17/2014 3:51:47 PM
;FORMAT={-:-/ absolute / metric / decimal}
FMAT,2
METRIC,TZ
T1C0.635
T2C0.813
T3C0.900
T4C1.001
T5C1.016
%
G90
G05
M71
T1
X70.8Y-56.7
X70.8Y-59.8
X70.8Y-62.8
X70.8Y-65.7
X73.Y-76.6
X74.2Y-64.6
X76.2Y-110.8
X78.8Y-67.8
X80.8Y-97.8
X83.6Y-105.8
X84.Y-52.6
X84.4Y-62.2
X85.8Y-108.4
X85.8Y-113.6
X86.8Y-45.6
X88.6Y-102.8
X91.Y-68.
X91.4Y-44.8
X92.2Y-67.
X93.4Y-65.6
X94.6Y-64.6
X95.2Y-50.
X95.6Y-43.4
X96.Y-63.2
X96.4Y-105.6
X103.Y-42.6
X103.Y-74.6
X103.6Y-124.2
X107.2Y-44.8
X107.6Y-58.6
X107.6Y-69.6
X108.Y-127.4
X108.Y-131.8
X108.2Y-82.4
X108.2Y-88.4
X109.2Y-85.8
X109.4Y-77.2
X109.8Y-105.6
X110.2Y-59.6
X111.6Y-62.2
X112.2Y-57.2
X112.8Y-85.8
X114.Y-86.8
X114.Y-94.2
X115.4Y-51.8
X116.Y-72.2
X116.4Y-105.6
X116.8Y-42.
X117.6Y-45.
X119.2Y-51.8
X120.6Y-94.
X121.4Y-91.8
X122.4Y-88.4
X123.8Y-94.6
X124.8Y-83.2
X125.Y-51.8
X127.8Y-94.6
X128.2Y-43.4
X129.Y-47.8
X129.4Y-125.6
X130.6Y-51.8
X131.2Y-50.2
X132.2Y-61.
X132.2Y-67.2
X133.Y-42.8
X134.8Y-56.8
X139.2Y-124.2
X139.6Y-88.6
X140.4Y-126.6
X141.Y-42.8
X141.2Y-66.6
X147.4Y-73.
X147.6Y-109.8
X148.4Y-61.7
X149.9Y-66.8
X152.6Y-92.4
X154.Y-53.6
X155.6Y-53.6
X156.2Y-91.2
X158.6Y-65.4
X159.Y-48.8
X161.Y-108.
X162.Y-51.2
X163.Y-49.2
X164.Y-112.4
X165.4Y-70.8
X167.Y-51.
X169.2Y-70.8
X173.Y-76.2
T2
X82.79Y-113.72
X82.79Y-116.26
X82.79Y-118.8
X82.79Y-121.34
X82.79Y-123.88
X84.19Y-74.32
X84.19Y-76.86
X84.19Y-79.4
X84.19Y-81.94
X84.19Y-84.48
X88.66Y-47.4
X90.41Y-113.72
X90.41Y-116.26
X90.41Y-118.8
X90.41Y-121.34
X90.41Y-123.88
X91.2Y-47.4
X91.81Y-74.32
X91.81Y-76.86
X91.81Y-79.4
X91.81Y-81.94
X91.81Y-84.48
X93.74Y-47.4
X97.99Y-49.51
X97.99Y-52.05
X97.99Y-54.59
X97.99Y-57.13
X97.99Y-59.67
X97.99Y-62.21
X97.99Y-64.75
X97.99Y-67.29
X98.19Y-74.52
X98.19Y-77.06
X98.19Y-79.6
X98.19Y-82.14
X98.19Y-84.68
X98.19Y-113.72
X98.19Y-116.26
X98.19Y-118.8
X98.19Y-121.34
X98.19Y-123.88
X105.61Y-49.51
X105.61Y-52.05
X105.61Y-54.59
X105.61Y-57.13
X105.61Y-59.67
X105.61Y-62.21
X105.61Y-64.75
X105.61Y-67.29
X105.81Y-74.52
X105.81Y-77.06
X105.81Y-79.6
X105.81Y-82.14
X105.81Y-84.68
X105.81Y-113.72
X105.81Y-116.26
X105.81Y-118.8
X105.81Y-121.34
X105.81Y-123.88
X114.39Y-113.52
X114.39Y-116.06
X114.39Y-118.6
X114.39Y-121.14
X114.39Y-123.68
X114.79Y-74.32
X114.79Y-76.86
X114.79Y-79.4
X114.79Y-81.94
X114.79Y-84.48
X122.01Y-113.52
X122.01Y-116.06
X122.01Y-118.6
X122.01Y-121.14
X122.01Y-123.68
X122.41Y-74.32
X122.41Y-76.86
X122.41Y-79.4
X122.41Y-81.94
X122.41Y-84.48
X122.53Y-66.6
X125.07Y-66.6
X129.59Y-74.32
X129.59Y-76.86
X129.59Y-79.4
X129.59Y-81.94
X129.59Y-84.48
X129.79Y-113.32
X129.79Y-115.86
X129.79Y-118.4
X129.79Y-120.94
X129.79Y-123.48
X137.21Y-74.32
X137.21Y-76.86
X137.21Y-79.4
X137.21Y-81.94
X137.21Y-84.48
X137.41Y-113.32
X137.41Y-115.86
X137.41Y-118.4
X137.41Y-120.94
X137.41Y-123.48
X141.3Y-48.96
X141.3Y-51.5
X141.3Y-54.04
X145.19Y-113.72
X145.19Y-116.26
X145.19Y-118.8
X145.19Y-121.34
X145.19Y-123.88
X146.19Y-74.72
X146.19Y-77.26
X146.19Y-79.8
X146.19Y-82.34
X146.19Y-84.88
X152.81Y-113.72
X152.81Y-116.26
X152.81Y-118.8
X152.81Y-121.34
X152.81Y-123.88
X153.81Y-74.72
X153.81Y-77.26
X153.81Y-79.8
X153.81Y-82.34
X153.81Y-84.88
X154.06Y-44.2
X154.06Y-59.2
X156.6Y-44.2
X156.6Y-59.2
X159.14Y-44.2
X159.14Y-59.2
X159.59Y-74.52
X159.59Y-77.06
X159.59Y-79.6
X159.59Y-82.14
X159.59Y-84.68
X160.19Y-113.72
X160.19Y-116.26
X160.19Y-118.8
X160.19Y-121.34
X160.19Y-123.88
X161.66Y-44.2
X161.86Y-58.8
X164.2Y-44.2
X164.4Y-58.8
X166.74Y-44.2
X166.94Y-58.8
X167.21Y-74.52
X167.21Y-77.06
X167.21Y-79.6
X167.21Y-82.14
X167.21Y-84.68
X167.81Y-113.72
X167.81Y-116.26
X167.81Y-118.8
X167.81Y-121.34
X167.81Y-123.88
X171.73Y-43.2
X174.27Y-43.2
T3
X76.2Y-47.
X76.2Y-50.
X78.7Y-47.
X78.7Y-50.
X79.Y-57.2
X79.Y-60.2
X81.2Y-47.
X81.2Y-50.
X81.5Y-57.2
X81.5Y-60.2
X84.Y-57.2
X84.Y-60.2
X118.8Y-55.8
X118.8Y-58.8
X121.3Y-55.8
X121.3Y-58.8
X123.8Y-55.8
X123.8Y-58.8
X171.4Y-49.2
X171.4Y-51.7
X171.4Y-54.2
X174.4Y-49.2
X174.4Y-51.7
X174.4Y-54.2
T4
X87.004Y-129.504
X87.004Y-135.092
X87.804Y-90.304
X87.804Y-95.892
X88.396Y-141.108
X88.396Y-146.696
X91.996Y-102.108
X91.996Y-107.696
X101.996Y-129.708
X101.996Y-135.296
X102.196Y-90.308
X102.196Y-95.896
X103.604Y-141.104
X103.604Y-146.692
X106.204Y-102.104
X106.204Y-107.692
X118.404Y-129.504
X118.404Y-135.092
X118.604Y-90.304
X118.604Y-95.892
X119.396Y-141.108
X119.396Y-146.696
X121.196Y-102.108
X121.196Y-107.696
X133.196Y-90.308
X133.196Y-95.896
X133.196Y-129.308
X133.196Y-134.896
X134.404Y-140.904
X134.404Y-146.492
X135.804Y-102.104
X135.804Y-107.692
X149.204Y-129.504
X149.204Y-135.092
X150.004Y-90.104
X150.004Y-95.692
X150.196Y-141.108
X150.196Y-146.696
X150.996Y-102.108
X150.996Y-107.696
X163.796Y-129.508
X163.796Y-135.096
X164.596Y-90.308
X164.596Y-95.896
X165.004Y-141.104
X165.004Y-146.692
X166.204Y-101.904
X166.204Y-107.492
X177.4Y-60.599
X177.4Y-70.759
T5
X75.73Y-114.73
X75.73Y-117.27
X75.8Y-122.93
X75.8Y-125.47
X76.2Y-90.38
X76.2Y-92.92
X76.2Y-95.46
X76.2Y-98.
X76.2Y-100.54
X76.2Y-103.08
X76.2Y-105.62
X76.4Y-132.13
X76.4Y-134.67
X76.53Y-63.6
X76.6Y-78.4
X78.27Y-114.73
X78.27Y-117.27
X79.07Y-63.6
X100.66Y-37.2
X103.2Y-37.2
X105.74Y-37.2
T0
M30
