%FSLAX46Y46*%
G04 Gerber Fmt 4.6, Leading zero omitted, Abs format (unit mm)*
G04 Created by KiCad (PCBNEW (2014-10-27 BZR 5228)-product) date 12/17/2014 3:51:32 PM*
%MOMM*%
G01*
G04 APERTURE LIST*
%ADD10C,0.100000*%
%ADD11R,4.200000X0.700000*%
%ADD12C,1.998980*%
%ADD13C,1.524000*%
%ADD14R,1.800000X1.800000*%
%ADD15C,1.800000*%
%ADD16C,6.350000*%
%ADD17R,2.032000X2.032000*%
%ADD18O,2.032000X2.032000*%
%ADD19R,1.651000X1.651000*%
%ADD20C,1.651000*%
%ADD21R,2.235200X2.235200*%
%ADD22R,1.727200X1.727200*%
%ADD23O,1.727200X1.727200*%
%ADD24R,1.397000X1.397000*%
%ADD25C,1.397000*%
%ADD26R,1.727200X2.032000*%
%ADD27O,1.727200X2.032000*%
%ADD28R,2.032000X1.727200*%
%ADD29O,2.032000X1.727200*%
G04 APERTURE END LIST*
D10*
D11*
X66700000Y-56700000D03*
X66700000Y-57700000D03*
X66700000Y-58700000D03*
X66700000Y-59700000D03*
X66700000Y-60700000D03*
X66700000Y-61700000D03*
X66700000Y-62700000D03*
X66700000Y-63700000D03*
X66700000Y-64700000D03*
X66700000Y-65700000D03*
X66700000Y-66700000D03*
X66700000Y-69700000D03*
X66700000Y-70700000D03*
X66700000Y-71700000D03*
X66700000Y-72700000D03*
X66700000Y-73700000D03*
X66700000Y-74700000D03*
X66700000Y-75700000D03*
D12*
X87804000Y-95892000D03*
X87804000Y-90304000D03*
X118604000Y-95892000D03*
X118604000Y-90304000D03*
X150004000Y-95692000D03*
X150004000Y-90104000D03*
X87004000Y-135092000D03*
X87004000Y-129504000D03*
X118404000Y-135092000D03*
X118404000Y-129504000D03*
X149204000Y-135092000D03*
X149204000Y-129504000D03*
X102196000Y-90308000D03*
X102196000Y-95896000D03*
D13*
X156600000Y-59200000D03*
X159140000Y-59200000D03*
X154060000Y-59200000D03*
X164200000Y-44200000D03*
X161660000Y-44200000D03*
X166740000Y-44200000D03*
D14*
X81200000Y-50000000D03*
D15*
X78700000Y-50000000D03*
X81200000Y-47000000D03*
X76200000Y-50000000D03*
X76200000Y-47000000D03*
X78700000Y-47000000D03*
D14*
X84000000Y-60200000D03*
D15*
X81500000Y-60200000D03*
X84000000Y-57200000D03*
X79000000Y-60200000D03*
X79000000Y-57200000D03*
X81500000Y-57200000D03*
D14*
X118800000Y-55800000D03*
D15*
X121300000Y-55800000D03*
X118800000Y-58800000D03*
X123800000Y-55800000D03*
X123800000Y-58800000D03*
X121300000Y-58800000D03*
D16*
X149500000Y-51100000D03*
D17*
X76400000Y-134670000D03*
D18*
X76400000Y-132130000D03*
D17*
X76530000Y-63600000D03*
D18*
X79070000Y-63600000D03*
D19*
X125070000Y-66600000D03*
D20*
X122530000Y-66600000D03*
D19*
X174270000Y-43200000D03*
D20*
X171730000Y-43200000D03*
D12*
X133196000Y-90308000D03*
X133196000Y-95896000D03*
X101996000Y-129708000D03*
X101996000Y-135296000D03*
X133196000Y-129308000D03*
X133196000Y-134896000D03*
X163796000Y-129508000D03*
X163796000Y-135096000D03*
X91996000Y-102108000D03*
X91996000Y-107696000D03*
X121196000Y-102108000D03*
X121196000Y-107696000D03*
X150996000Y-102108000D03*
X150996000Y-107696000D03*
X88396000Y-141108000D03*
X88396000Y-146696000D03*
X119396000Y-141108000D03*
X119396000Y-146696000D03*
X150196000Y-141108000D03*
X150196000Y-146696000D03*
X106204000Y-107692000D03*
X106204000Y-102104000D03*
X135804000Y-107692000D03*
X135804000Y-102104000D03*
X166204000Y-107492000D03*
X166204000Y-101904000D03*
X103604000Y-146692000D03*
X103604000Y-141104000D03*
X134404000Y-146492000D03*
X134404000Y-140904000D03*
X165004000Y-146692000D03*
X165004000Y-141104000D03*
D13*
X91200000Y-47400000D03*
X93740000Y-47400000D03*
X88660000Y-47400000D03*
X141300000Y-51500000D03*
X141300000Y-54040000D03*
X141300000Y-48960000D03*
X164400000Y-58800000D03*
X166940000Y-58800000D03*
X161860000Y-58800000D03*
X156600000Y-44200000D03*
X154060000Y-44200000D03*
X159140000Y-44200000D03*
D12*
X177400000Y-60598740D03*
X177400000Y-70758740D03*
X164596000Y-90308000D03*
X164596000Y-95896000D03*
D21*
X76600000Y-78400000D03*
D22*
X75730000Y-117270000D03*
D23*
X78270000Y-117270000D03*
X75730000Y-114730000D03*
X78270000Y-114730000D03*
D14*
X171400000Y-54200000D03*
D15*
X171400000Y-51700000D03*
X174400000Y-54200000D03*
X171400000Y-49200000D03*
X174400000Y-49200000D03*
X174400000Y-51700000D03*
D24*
X84190000Y-74320000D03*
D25*
X84190000Y-76860000D03*
X84190000Y-79400000D03*
X84190000Y-81940000D03*
X84190000Y-84480000D03*
X91810000Y-84480000D03*
X91810000Y-81940000D03*
X91810000Y-79400000D03*
X91810000Y-76860000D03*
X91810000Y-74320000D03*
D24*
X114790000Y-74320000D03*
D25*
X114790000Y-76860000D03*
X114790000Y-79400000D03*
X114790000Y-81940000D03*
X114790000Y-84480000D03*
X122410000Y-84480000D03*
X122410000Y-81940000D03*
X122410000Y-79400000D03*
X122410000Y-76860000D03*
X122410000Y-74320000D03*
D24*
X146190000Y-74720000D03*
D25*
X146190000Y-77260000D03*
X146190000Y-79800000D03*
X146190000Y-82340000D03*
X146190000Y-84880000D03*
X153810000Y-84880000D03*
X153810000Y-82340000D03*
X153810000Y-79800000D03*
X153810000Y-77260000D03*
X153810000Y-74720000D03*
D24*
X82790000Y-113720000D03*
D25*
X82790000Y-116260000D03*
X82790000Y-118800000D03*
X82790000Y-121340000D03*
X82790000Y-123880000D03*
X90410000Y-123880000D03*
X90410000Y-121340000D03*
X90410000Y-118800000D03*
X90410000Y-116260000D03*
X90410000Y-113720000D03*
D24*
X114390000Y-113520000D03*
D25*
X114390000Y-116060000D03*
X114390000Y-118600000D03*
X114390000Y-121140000D03*
X114390000Y-123680000D03*
X122010000Y-123680000D03*
X122010000Y-121140000D03*
X122010000Y-118600000D03*
X122010000Y-116060000D03*
X122010000Y-113520000D03*
D24*
X145190000Y-113720000D03*
D25*
X145190000Y-116260000D03*
X145190000Y-118800000D03*
X145190000Y-121340000D03*
X145190000Y-123880000D03*
X152810000Y-123880000D03*
X152810000Y-121340000D03*
X152810000Y-118800000D03*
X152810000Y-116260000D03*
X152810000Y-113720000D03*
D24*
X98190000Y-74520000D03*
D25*
X98190000Y-77060000D03*
X98190000Y-79600000D03*
X98190000Y-82140000D03*
X98190000Y-84680000D03*
X105810000Y-84680000D03*
X105810000Y-82140000D03*
X105810000Y-79600000D03*
X105810000Y-77060000D03*
X105810000Y-74520000D03*
D24*
X129590000Y-74320000D03*
D25*
X129590000Y-76860000D03*
X129590000Y-79400000D03*
X129590000Y-81940000D03*
X129590000Y-84480000D03*
X137210000Y-84480000D03*
X137210000Y-81940000D03*
X137210000Y-79400000D03*
X137210000Y-76860000D03*
X137210000Y-74320000D03*
D24*
X159590000Y-74520000D03*
D25*
X159590000Y-77060000D03*
X159590000Y-79600000D03*
X159590000Y-82140000D03*
X159590000Y-84680000D03*
X167210000Y-84680000D03*
X167210000Y-82140000D03*
X167210000Y-79600000D03*
X167210000Y-77060000D03*
X167210000Y-74520000D03*
D24*
X98190000Y-113720000D03*
D25*
X98190000Y-116260000D03*
X98190000Y-118800000D03*
X98190000Y-121340000D03*
X98190000Y-123880000D03*
X105810000Y-123880000D03*
X105810000Y-121340000D03*
X105810000Y-118800000D03*
X105810000Y-116260000D03*
X105810000Y-113720000D03*
D24*
X129790000Y-113320000D03*
D25*
X129790000Y-115860000D03*
X129790000Y-118400000D03*
X129790000Y-120940000D03*
X129790000Y-123480000D03*
X137410000Y-123480000D03*
X137410000Y-120940000D03*
X137410000Y-118400000D03*
X137410000Y-115860000D03*
X137410000Y-113320000D03*
D24*
X160190000Y-113720000D03*
D25*
X160190000Y-116260000D03*
X160190000Y-118800000D03*
X160190000Y-121340000D03*
X160190000Y-123880000D03*
X167810000Y-123880000D03*
X167810000Y-121340000D03*
X167810000Y-118800000D03*
X167810000Y-116260000D03*
X167810000Y-113720000D03*
D24*
X97990000Y-49510000D03*
D25*
X97990000Y-52050000D03*
X97990000Y-54590000D03*
X97990000Y-57130000D03*
X97990000Y-59670000D03*
X97990000Y-62210000D03*
X97990000Y-64750000D03*
X97990000Y-67290000D03*
X105610000Y-67290000D03*
X105610000Y-64750000D03*
X105610000Y-62210000D03*
X105610000Y-59670000D03*
X105610000Y-57130000D03*
X105610000Y-54590000D03*
X105610000Y-52050000D03*
X105610000Y-49510000D03*
D16*
X179600000Y-37200000D03*
X78600000Y-37200000D03*
X78600000Y-150200000D03*
X179600000Y-150200000D03*
D17*
X75800000Y-125470000D03*
D18*
X75800000Y-122930000D03*
D26*
X100660000Y-37200000D03*
D27*
X103200000Y-37200000D03*
X105740000Y-37200000D03*
D28*
X76200000Y-90380000D03*
D29*
X76200000Y-92920000D03*
X76200000Y-95460000D03*
X76200000Y-98000000D03*
X76200000Y-100540000D03*
X76200000Y-103080000D03*
X76200000Y-105620000D03*
M02*
