%FSLAX46Y46*%
G04 Gerber Fmt 4.6, Leading zero omitted, Abs format (unit mm)*
G04 Created by KiCad (PCBNEW (2014-10-27 BZR 5228)-product) date 12/17/2014 3:51:32 PM*
%MOMM*%
G01*
G04 APERTURE LIST*
%ADD10C,0.100000*%
%ADD11R,4.200000X0.700000*%
%ADD12C,1.998980*%
%ADD13C,1.524000*%
%ADD14R,1.800000X1.800000*%
%ADD15C,1.800000*%
%ADD16C,6.350000*%
%ADD17R,1.500000X1.250000*%
%ADD18R,1.250000X1.500000*%
%ADD19R,1.500000X1.300000*%
%ADD20R,1.300000X1.500000*%
%ADD21R,2.032000X2.032000*%
%ADD22O,2.032000X2.032000*%
%ADD23R,1.651000X1.651000*%
%ADD24C,1.651000*%
%ADD25R,3.500120X2.301240*%
%ADD26R,0.599440X1.000760*%
%ADD27R,3.657600X2.032000*%
%ADD28R,1.016000X2.032000*%
%ADD29R,0.889000X1.397000*%
%ADD30R,2.235200X2.235200*%
%ADD31R,1.727200X1.727200*%
%ADD32O,1.727200X1.727200*%
%ADD33R,1.397000X1.397000*%
%ADD34C,1.397000*%
%ADD35R,1.727200X2.032000*%
%ADD36O,1.727200X2.032000*%
%ADD37R,2.032000X1.727200*%
%ADD38O,2.032000X1.727200*%
G04 APERTURE END LIST*
D10*
D11*
X66700000Y-56700000D03*
X66700000Y-57700000D03*
X66700000Y-58700000D03*
X66700000Y-59700000D03*
X66700000Y-60700000D03*
X66700000Y-61700000D03*
X66700000Y-62700000D03*
X66700000Y-63700000D03*
X66700000Y-64700000D03*
X66700000Y-65700000D03*
X66700000Y-66700000D03*
X66700000Y-69700000D03*
X66700000Y-70700000D03*
X66700000Y-71700000D03*
X66700000Y-72700000D03*
X66700000Y-73700000D03*
X66700000Y-74700000D03*
X66700000Y-75700000D03*
D12*
X87804000Y-95892000D03*
X87804000Y-90304000D03*
X118604000Y-95892000D03*
X118604000Y-90304000D03*
X150004000Y-95692000D03*
X150004000Y-90104000D03*
X87004000Y-135092000D03*
X87004000Y-129504000D03*
X118404000Y-135092000D03*
X118404000Y-129504000D03*
X149204000Y-135092000D03*
X149204000Y-129504000D03*
X102196000Y-90308000D03*
X102196000Y-95896000D03*
D13*
X156600000Y-59200000D03*
X159140000Y-59200000D03*
X154060000Y-59200000D03*
X164200000Y-44200000D03*
X161660000Y-44200000D03*
X166740000Y-44200000D03*
D14*
X81200000Y-50000000D03*
D15*
X78700000Y-50000000D03*
X81200000Y-47000000D03*
X76200000Y-50000000D03*
X76200000Y-47000000D03*
X78700000Y-47000000D03*
D14*
X84000000Y-60200000D03*
D15*
X81500000Y-60200000D03*
X84000000Y-57200000D03*
X79000000Y-60200000D03*
X79000000Y-57200000D03*
X81500000Y-57200000D03*
D14*
X118800000Y-55800000D03*
D15*
X121300000Y-55800000D03*
X118800000Y-58800000D03*
X123800000Y-55800000D03*
X123800000Y-58800000D03*
X121300000Y-58800000D03*
D16*
X149500000Y-51100000D03*
D17*
X88050000Y-40400000D03*
X85550000Y-40400000D03*
D18*
X82200000Y-43850000D03*
X82200000Y-41350000D03*
X85400000Y-64150000D03*
X85400000Y-66650000D03*
D17*
X131150000Y-39200000D03*
X133650000Y-39200000D03*
X101050000Y-45400000D03*
X98550000Y-45400000D03*
D18*
X136600000Y-40850000D03*
X136600000Y-38350000D03*
D17*
X161750000Y-39600000D03*
X164250000Y-39600000D03*
X119950000Y-47000000D03*
X122450000Y-47000000D03*
X160750000Y-66600000D03*
X163250000Y-66600000D03*
D18*
X170000000Y-57150000D03*
X170000000Y-59650000D03*
D17*
X134550000Y-50200000D03*
X137050000Y-50200000D03*
X124750000Y-87200000D03*
X127250000Y-87200000D03*
X155950000Y-87600000D03*
X158450000Y-87600000D03*
X92950000Y-126400000D03*
X95450000Y-126400000D03*
X124350000Y-126800000D03*
X126850000Y-126800000D03*
X155350000Y-127000000D03*
X157850000Y-127000000D03*
X93750000Y-99000000D03*
X96250000Y-99000000D03*
X123750000Y-99200000D03*
X126250000Y-99200000D03*
X90950000Y-137800000D03*
X93450000Y-137800000D03*
D19*
X89350000Y-52600000D03*
X86650000Y-52600000D03*
X88150000Y-43600000D03*
X85450000Y-43600000D03*
D20*
X88200000Y-59250000D03*
X88200000Y-61950000D03*
D19*
X91850000Y-41000000D03*
X94550000Y-41000000D03*
X125650000Y-39400000D03*
X128350000Y-39400000D03*
X112750000Y-51800000D03*
X110050000Y-51800000D03*
X101150000Y-41400000D03*
X98450000Y-41400000D03*
X138550000Y-44800000D03*
X135850000Y-44800000D03*
X107550000Y-41400000D03*
X104850000Y-41400000D03*
X145750000Y-44600000D03*
X143050000Y-44600000D03*
X122150000Y-41400000D03*
X119450000Y-41400000D03*
X144650000Y-66800000D03*
X147350000Y-66800000D03*
X158950000Y-63600000D03*
X156250000Y-63600000D03*
X152750000Y-63600000D03*
X150050000Y-63600000D03*
X166150000Y-63600000D03*
X163450000Y-63600000D03*
X154650000Y-39600000D03*
X157350000Y-39600000D03*
X134450000Y-54000000D03*
X137150000Y-54000000D03*
X135450000Y-67200000D03*
X138150000Y-67200000D03*
D21*
X76400000Y-134670000D03*
D22*
X76400000Y-132130000D03*
D21*
X76530000Y-63600000D03*
D22*
X79070000Y-63600000D03*
D23*
X125070000Y-66600000D03*
D24*
X122530000Y-66600000D03*
D23*
X174270000Y-43200000D03*
D24*
X171730000Y-43200000D03*
D17*
X123150000Y-137600000D03*
X125650000Y-137600000D03*
X153550000Y-138200000D03*
X156050000Y-138200000D03*
X99350000Y-99000000D03*
X101850000Y-99000000D03*
X129950000Y-99000000D03*
X132450000Y-99000000D03*
X160550000Y-98600000D03*
X163050000Y-98600000D03*
X97150000Y-138000000D03*
X99650000Y-138000000D03*
X128950000Y-137600000D03*
X131450000Y-137600000D03*
X159550000Y-138200000D03*
X162050000Y-138200000D03*
X105150000Y-99200000D03*
X107650000Y-99200000D03*
X136150000Y-99000000D03*
X138650000Y-99000000D03*
X166750000Y-98600000D03*
X169250000Y-98600000D03*
X104550000Y-138000000D03*
X107050000Y-138000000D03*
X136750000Y-137400000D03*
X139250000Y-137400000D03*
X165150000Y-138200000D03*
X167650000Y-138200000D03*
D25*
X149300020Y-40000000D03*
X143899980Y-40000000D03*
D12*
X133196000Y-90308000D03*
X133196000Y-95896000D03*
X101996000Y-129708000D03*
X101996000Y-135296000D03*
X133196000Y-129308000D03*
X133196000Y-134896000D03*
X163796000Y-129508000D03*
X163796000Y-135096000D03*
X91996000Y-102108000D03*
X91996000Y-107696000D03*
X121196000Y-102108000D03*
X121196000Y-107696000D03*
X150996000Y-102108000D03*
X150996000Y-107696000D03*
X88396000Y-141108000D03*
X88396000Y-146696000D03*
X119396000Y-141108000D03*
X119396000Y-146696000D03*
X150196000Y-141108000D03*
X150196000Y-146696000D03*
X106204000Y-107692000D03*
X106204000Y-102104000D03*
X135804000Y-107692000D03*
X135804000Y-102104000D03*
X166204000Y-107492000D03*
X166204000Y-101904000D03*
X103604000Y-146692000D03*
X103604000Y-141104000D03*
X134404000Y-146492000D03*
X134404000Y-140904000D03*
X165004000Y-146692000D03*
X165004000Y-141104000D03*
D13*
X91200000Y-47400000D03*
X93740000Y-47400000D03*
X88660000Y-47400000D03*
D26*
X129047500Y-45856640D03*
X130000000Y-43743360D03*
X130952500Y-45856640D03*
D27*
X113000000Y-40898000D03*
D28*
X113000000Y-47502000D03*
X115286000Y-47502000D03*
X110714000Y-47502000D03*
D13*
X141300000Y-51500000D03*
X141300000Y-54040000D03*
X141300000Y-48960000D03*
D26*
X136752500Y-58943360D03*
X135800000Y-61056640D03*
X134847500Y-58943360D03*
D13*
X164400000Y-58800000D03*
X166940000Y-58800000D03*
X161860000Y-58800000D03*
X156600000Y-44200000D03*
X154060000Y-44200000D03*
X159140000Y-44200000D03*
D12*
X177400000Y-60598740D03*
X177400000Y-70758740D03*
X164596000Y-90308000D03*
X164596000Y-95896000D03*
D17*
X93750000Y-87400000D03*
X96250000Y-87400000D03*
X154350000Y-98600000D03*
X156850000Y-98600000D03*
D29*
X75247500Y-68200000D03*
X77152500Y-68200000D03*
D30*
X76600000Y-78400000D03*
D31*
X75730000Y-117270000D03*
D32*
X78270000Y-117270000D03*
X75730000Y-114730000D03*
X78270000Y-114730000D03*
D14*
X171400000Y-54200000D03*
D15*
X171400000Y-51700000D03*
X174400000Y-54200000D03*
X171400000Y-49200000D03*
X174400000Y-49200000D03*
X174400000Y-51700000D03*
D33*
X84190000Y-74320000D03*
D34*
X84190000Y-76860000D03*
X84190000Y-79400000D03*
X84190000Y-81940000D03*
X84190000Y-84480000D03*
X91810000Y-84480000D03*
X91810000Y-81940000D03*
X91810000Y-79400000D03*
X91810000Y-76860000D03*
X91810000Y-74320000D03*
D33*
X114790000Y-74320000D03*
D34*
X114790000Y-76860000D03*
X114790000Y-79400000D03*
X114790000Y-81940000D03*
X114790000Y-84480000D03*
X122410000Y-84480000D03*
X122410000Y-81940000D03*
X122410000Y-79400000D03*
X122410000Y-76860000D03*
X122410000Y-74320000D03*
D33*
X146190000Y-74720000D03*
D34*
X146190000Y-77260000D03*
X146190000Y-79800000D03*
X146190000Y-82340000D03*
X146190000Y-84880000D03*
X153810000Y-84880000D03*
X153810000Y-82340000D03*
X153810000Y-79800000D03*
X153810000Y-77260000D03*
X153810000Y-74720000D03*
D33*
X82790000Y-113720000D03*
D34*
X82790000Y-116260000D03*
X82790000Y-118800000D03*
X82790000Y-121340000D03*
X82790000Y-123880000D03*
X90410000Y-123880000D03*
X90410000Y-121340000D03*
X90410000Y-118800000D03*
X90410000Y-116260000D03*
X90410000Y-113720000D03*
D33*
X114390000Y-113520000D03*
D34*
X114390000Y-116060000D03*
X114390000Y-118600000D03*
X114390000Y-121140000D03*
X114390000Y-123680000D03*
X122010000Y-123680000D03*
X122010000Y-121140000D03*
X122010000Y-118600000D03*
X122010000Y-116060000D03*
X122010000Y-113520000D03*
D33*
X145190000Y-113720000D03*
D34*
X145190000Y-116260000D03*
X145190000Y-118800000D03*
X145190000Y-121340000D03*
X145190000Y-123880000D03*
X152810000Y-123880000D03*
X152810000Y-121340000D03*
X152810000Y-118800000D03*
X152810000Y-116260000D03*
X152810000Y-113720000D03*
D33*
X98190000Y-74520000D03*
D34*
X98190000Y-77060000D03*
X98190000Y-79600000D03*
X98190000Y-82140000D03*
X98190000Y-84680000D03*
X105810000Y-84680000D03*
X105810000Y-82140000D03*
X105810000Y-79600000D03*
X105810000Y-77060000D03*
X105810000Y-74520000D03*
D33*
X129590000Y-74320000D03*
D34*
X129590000Y-76860000D03*
X129590000Y-79400000D03*
X129590000Y-81940000D03*
X129590000Y-84480000D03*
X137210000Y-84480000D03*
X137210000Y-81940000D03*
X137210000Y-79400000D03*
X137210000Y-76860000D03*
X137210000Y-74320000D03*
D33*
X159590000Y-74520000D03*
D34*
X159590000Y-77060000D03*
X159590000Y-79600000D03*
X159590000Y-82140000D03*
X159590000Y-84680000D03*
X167210000Y-84680000D03*
X167210000Y-82140000D03*
X167210000Y-79600000D03*
X167210000Y-77060000D03*
X167210000Y-74520000D03*
D33*
X98190000Y-113720000D03*
D34*
X98190000Y-116260000D03*
X98190000Y-118800000D03*
X98190000Y-121340000D03*
X98190000Y-123880000D03*
X105810000Y-123880000D03*
X105810000Y-121340000D03*
X105810000Y-118800000D03*
X105810000Y-116260000D03*
X105810000Y-113720000D03*
D33*
X129790000Y-113320000D03*
D34*
X129790000Y-115860000D03*
X129790000Y-118400000D03*
X129790000Y-120940000D03*
X129790000Y-123480000D03*
X137410000Y-123480000D03*
X137410000Y-120940000D03*
X137410000Y-118400000D03*
X137410000Y-115860000D03*
X137410000Y-113320000D03*
D33*
X160190000Y-113720000D03*
D34*
X160190000Y-116260000D03*
X160190000Y-118800000D03*
X160190000Y-121340000D03*
X160190000Y-123880000D03*
X167810000Y-123880000D03*
X167810000Y-121340000D03*
X167810000Y-118800000D03*
X167810000Y-116260000D03*
X167810000Y-113720000D03*
D33*
X97990000Y-49510000D03*
D34*
X97990000Y-52050000D03*
X97990000Y-54590000D03*
X97990000Y-57130000D03*
X97990000Y-59670000D03*
X97990000Y-62210000D03*
X97990000Y-64750000D03*
X97990000Y-67290000D03*
X105610000Y-67290000D03*
X105610000Y-64750000D03*
X105610000Y-62210000D03*
X105610000Y-59670000D03*
X105610000Y-57130000D03*
X105610000Y-54590000D03*
X105610000Y-52050000D03*
X105610000Y-49510000D03*
D16*
X179600000Y-37200000D03*
X78600000Y-37200000D03*
X78600000Y-150200000D03*
X179600000Y-150200000D03*
D21*
X75800000Y-125470000D03*
D22*
X75800000Y-122930000D03*
D35*
X100660000Y-37200000D03*
D36*
X103200000Y-37200000D03*
X105740000Y-37200000D03*
D37*
X76200000Y-90380000D03*
D38*
X76200000Y-92920000D03*
X76200000Y-95460000D03*
X76200000Y-98000000D03*
X76200000Y-100540000D03*
X76200000Y-103080000D03*
X76200000Y-105620000D03*
M02*
