%FSLAX46Y46*%
G04 Gerber Fmt 4.6, Leading zero omitted, Abs format (unit mm)*
G04 Created by KiCad (PCBNEW (2014-10-27 BZR 5228)-product) date 12/17/2014 3:51:32 PM*
%MOMM*%
G01*
G04 APERTURE LIST*
%ADD10C,0.100000*%
%ADD11C,0.150000*%
%ADD12C,0.304800*%
G04 APERTURE END LIST*
D10*
D11*
X81200000Y-89796000D02*
X86407000Y-89796000D01*
X94281000Y-89796000D02*
X89328000Y-89796000D01*
X81200000Y-96400000D02*
X86280000Y-96400000D01*
X94281000Y-96400000D02*
X89201000Y-96400000D01*
X94281000Y-96400000D02*
X94281000Y-89796000D01*
X81200000Y-89796000D02*
X81200000Y-96400000D01*
X112000000Y-89796000D02*
X117207000Y-89796000D01*
X125081000Y-89796000D02*
X120128000Y-89796000D01*
X112000000Y-96400000D02*
X117080000Y-96400000D01*
X125081000Y-96400000D02*
X120001000Y-96400000D01*
X125081000Y-96400000D02*
X125081000Y-89796000D01*
X112000000Y-89796000D02*
X112000000Y-96400000D01*
X143400000Y-89596000D02*
X148607000Y-89596000D01*
X156481000Y-89596000D02*
X151528000Y-89596000D01*
X143400000Y-96200000D02*
X148480000Y-96200000D01*
X156481000Y-96200000D02*
X151401000Y-96200000D01*
X156481000Y-96200000D02*
X156481000Y-89596000D01*
X143400000Y-89596000D02*
X143400000Y-96200000D01*
X80400000Y-128996000D02*
X85607000Y-128996000D01*
X93481000Y-128996000D02*
X88528000Y-128996000D01*
X80400000Y-135600000D02*
X85480000Y-135600000D01*
X93481000Y-135600000D02*
X88401000Y-135600000D01*
X93481000Y-135600000D02*
X93481000Y-128996000D01*
X80400000Y-128996000D02*
X80400000Y-135600000D01*
X111800000Y-128996000D02*
X117007000Y-128996000D01*
X124881000Y-128996000D02*
X119928000Y-128996000D01*
X111800000Y-135600000D02*
X116880000Y-135600000D01*
X124881000Y-135600000D02*
X119801000Y-135600000D01*
X124881000Y-135600000D02*
X124881000Y-128996000D01*
X111800000Y-128996000D02*
X111800000Y-135600000D01*
X142600000Y-128996000D02*
X147807000Y-128996000D01*
X155681000Y-128996000D02*
X150728000Y-128996000D01*
X142600000Y-135600000D02*
X147680000Y-135600000D01*
X155681000Y-135600000D02*
X150601000Y-135600000D01*
X155681000Y-135600000D02*
X155681000Y-128996000D01*
X142600000Y-128996000D02*
X142600000Y-135600000D01*
X108800000Y-96404000D02*
X103593000Y-96404000D01*
X95719000Y-96404000D02*
X100672000Y-96404000D01*
X108800000Y-89800000D02*
X103720000Y-89800000D01*
X95719000Y-89800000D02*
X100799000Y-89800000D01*
X95719000Y-89800000D02*
X95719000Y-96404000D01*
X108800000Y-96404000D02*
X108800000Y-89800000D01*
X159267000Y-60724000D02*
X159521000Y-60343000D01*
X153933000Y-57523600D02*
X153729800Y-57993500D01*
X153806000Y-60584300D02*
X153729800Y-60406500D01*
X159254300Y-57574400D02*
X159432100Y-57993500D01*
X156600000Y-56025000D02*
X157108000Y-56025000D01*
X157108000Y-56025000D02*
X157616000Y-56152000D01*
X157616000Y-56152000D02*
X158124000Y-56406000D01*
X158124000Y-56406000D02*
X158505000Y-56660000D01*
X158505000Y-56660000D02*
X158886000Y-57041000D01*
X158886000Y-57041000D02*
X159267000Y-57549000D01*
X153933000Y-57549000D02*
X154314000Y-56914000D01*
X154314000Y-56914000D02*
X154949000Y-56533000D01*
X154949000Y-56533000D02*
X155330000Y-56279000D01*
X155330000Y-56279000D02*
X155838000Y-56152000D01*
X155838000Y-56152000D02*
X156346000Y-56025000D01*
X156346000Y-56025000D02*
X156600000Y-56025000D01*
X153933000Y-60724000D02*
X153806000Y-60470000D01*
X153933000Y-60724000D02*
X159267000Y-60724000D01*
X161533000Y-42676000D02*
X161279000Y-43057000D01*
X166867000Y-45876400D02*
X167070200Y-45406500D01*
X166994000Y-42815700D02*
X167070200Y-42993500D01*
X161545700Y-45825600D02*
X161367900Y-45406500D01*
X164200000Y-47375000D02*
X163692000Y-47375000D01*
X163692000Y-47375000D02*
X163184000Y-47248000D01*
X163184000Y-47248000D02*
X162676000Y-46994000D01*
X162676000Y-46994000D02*
X162295000Y-46740000D01*
X162295000Y-46740000D02*
X161914000Y-46359000D01*
X161914000Y-46359000D02*
X161533000Y-45851000D01*
X166867000Y-45851000D02*
X166486000Y-46486000D01*
X166486000Y-46486000D02*
X165851000Y-46867000D01*
X165851000Y-46867000D02*
X165470000Y-47121000D01*
X165470000Y-47121000D02*
X164962000Y-47248000D01*
X164962000Y-47248000D02*
X164454000Y-47375000D01*
X164454000Y-47375000D02*
X164200000Y-47375000D01*
X166867000Y-42676000D02*
X166994000Y-42930000D01*
X166867000Y-42676000D02*
X161533000Y-42676000D01*
D10*
X82400000Y-51200000D02*
X75000000Y-51200000D01*
X75000000Y-51200000D02*
X75000000Y-45800000D01*
X75000000Y-45800000D02*
X82400000Y-45800000D01*
X82400000Y-45800000D02*
X82400000Y-51200000D01*
X85200000Y-61400000D02*
X77800000Y-61400000D01*
X77800000Y-61400000D02*
X77800000Y-56000000D01*
X77800000Y-56000000D02*
X85200000Y-56000000D01*
X85200000Y-56000000D02*
X85200000Y-61400000D01*
X117600000Y-54600000D02*
X125000000Y-54600000D01*
X125000000Y-54600000D02*
X125000000Y-60000000D01*
X125000000Y-60000000D02*
X117600000Y-60000000D01*
X117600000Y-60000000D02*
X117600000Y-54600000D01*
D11*
X86300000Y-41250000D02*
X87300000Y-41250000D01*
X87300000Y-39550000D02*
X86300000Y-39550000D01*
X81350000Y-42100000D02*
X81350000Y-43100000D01*
X83050000Y-43100000D02*
X83050000Y-42100000D01*
X86250000Y-65900000D02*
X86250000Y-64900000D01*
X84550000Y-64900000D02*
X84550000Y-65900000D01*
X132900000Y-38350000D02*
X131900000Y-38350000D01*
X131900000Y-40050000D02*
X132900000Y-40050000D01*
X99300000Y-46250000D02*
X100300000Y-46250000D01*
X100300000Y-44550000D02*
X99300000Y-44550000D01*
X135750000Y-39100000D02*
X135750000Y-40100000D01*
X137450000Y-40100000D02*
X137450000Y-39100000D01*
X163500000Y-38750000D02*
X162500000Y-38750000D01*
X162500000Y-40450000D02*
X163500000Y-40450000D01*
X121700000Y-46150000D02*
X120700000Y-46150000D01*
X120700000Y-47850000D02*
X121700000Y-47850000D01*
X162500000Y-65750000D02*
X161500000Y-65750000D01*
X161500000Y-67450000D02*
X162500000Y-67450000D01*
X170850000Y-58900000D02*
X170850000Y-57900000D01*
X169150000Y-57900000D02*
X169150000Y-58900000D01*
X136300000Y-49350000D02*
X135300000Y-49350000D01*
X135300000Y-51050000D02*
X136300000Y-51050000D01*
X126500000Y-86350000D02*
X125500000Y-86350000D01*
X125500000Y-88050000D02*
X126500000Y-88050000D01*
X157700000Y-86750000D02*
X156700000Y-86750000D01*
X156700000Y-88450000D02*
X157700000Y-88450000D01*
X94700000Y-125550000D02*
X93700000Y-125550000D01*
X93700000Y-127250000D02*
X94700000Y-127250000D01*
X126100000Y-125950000D02*
X125100000Y-125950000D01*
X125100000Y-127650000D02*
X126100000Y-127650000D01*
X157100000Y-126150000D02*
X156100000Y-126150000D01*
X156100000Y-127850000D02*
X157100000Y-127850000D01*
X95500000Y-98150000D02*
X94500000Y-98150000D01*
X94500000Y-99850000D02*
X95500000Y-99850000D01*
X125500000Y-98350000D02*
X124500000Y-98350000D01*
X124500000Y-100050000D02*
X125500000Y-100050000D01*
X92700000Y-136950000D02*
X91700000Y-136950000D01*
X91700000Y-138650000D02*
X92700000Y-138650000D01*
X87400000Y-51725000D02*
X88600000Y-51725000D01*
X88600000Y-53475000D02*
X87400000Y-53475000D01*
X86200000Y-42725000D02*
X87400000Y-42725000D01*
X87400000Y-44475000D02*
X86200000Y-44475000D01*
X87325000Y-61200000D02*
X87325000Y-60000000D01*
X89075000Y-60000000D02*
X89075000Y-61200000D01*
X93800000Y-41875000D02*
X92600000Y-41875000D01*
X92600000Y-40125000D02*
X93800000Y-40125000D01*
X127600000Y-40275000D02*
X126400000Y-40275000D01*
X126400000Y-38525000D02*
X127600000Y-38525000D01*
X110800000Y-50925000D02*
X112000000Y-50925000D01*
X112000000Y-52675000D02*
X110800000Y-52675000D01*
X99200000Y-40525000D02*
X100400000Y-40525000D01*
X100400000Y-42275000D02*
X99200000Y-42275000D01*
X136600000Y-43925000D02*
X137800000Y-43925000D01*
X137800000Y-45675000D02*
X136600000Y-45675000D01*
X105600000Y-40525000D02*
X106800000Y-40525000D01*
X106800000Y-42275000D02*
X105600000Y-42275000D01*
X143800000Y-43725000D02*
X145000000Y-43725000D01*
X145000000Y-45475000D02*
X143800000Y-45475000D01*
X120200000Y-40525000D02*
X121400000Y-40525000D01*
X121400000Y-42275000D02*
X120200000Y-42275000D01*
X146600000Y-67675000D02*
X145400000Y-67675000D01*
X145400000Y-65925000D02*
X146600000Y-65925000D01*
X157000000Y-62725000D02*
X158200000Y-62725000D01*
X158200000Y-64475000D02*
X157000000Y-64475000D01*
X150800000Y-62725000D02*
X152000000Y-62725000D01*
X152000000Y-64475000D02*
X150800000Y-64475000D01*
X164200000Y-62725000D02*
X165400000Y-62725000D01*
X165400000Y-64475000D02*
X164200000Y-64475000D01*
X156600000Y-40475000D02*
X155400000Y-40475000D01*
X155400000Y-38725000D02*
X156600000Y-38725000D01*
X136400000Y-54875000D02*
X135200000Y-54875000D01*
X135200000Y-53125000D02*
X136400000Y-53125000D01*
X137400000Y-68075000D02*
X136200000Y-68075000D01*
X136200000Y-66325000D02*
X137400000Y-66325000D01*
X75130000Y-133400000D02*
X77670000Y-133400000D01*
X75130000Y-135940000D02*
X77670000Y-135940000D01*
X77670000Y-135940000D02*
X77670000Y-133400000D01*
X77670000Y-133400000D02*
X77670000Y-130860000D01*
X77670000Y-130860000D02*
X75130000Y-130860000D01*
X75130000Y-130860000D02*
X75130000Y-135940000D01*
X77800000Y-62330000D02*
X77800000Y-64870000D01*
X75260000Y-62330000D02*
X75260000Y-64870000D01*
X75260000Y-64870000D02*
X77800000Y-64870000D01*
X77800000Y-64870000D02*
X80340000Y-64870000D01*
X80340000Y-64870000D02*
X80340000Y-62330000D01*
X80340000Y-62330000D02*
X75260000Y-62330000D01*
X127864000Y-66600000D02*
G75*
G03X127864000Y-66600000I-4064000J0D01*
G01*
X177064000Y-43200000D02*
G75*
G03X177064000Y-43200000I-4064000J0D01*
G01*
X124900000Y-136750000D02*
X123900000Y-136750000D01*
X123900000Y-138450000D02*
X124900000Y-138450000D01*
X155300000Y-137350000D02*
X154300000Y-137350000D01*
X154300000Y-139050000D02*
X155300000Y-139050000D01*
X101100000Y-98150000D02*
X100100000Y-98150000D01*
X100100000Y-99850000D02*
X101100000Y-99850000D01*
X131700000Y-98150000D02*
X130700000Y-98150000D01*
X130700000Y-99850000D02*
X131700000Y-99850000D01*
X162300000Y-97750000D02*
X161300000Y-97750000D01*
X161300000Y-99450000D02*
X162300000Y-99450000D01*
X98900000Y-137150000D02*
X97900000Y-137150000D01*
X97900000Y-138850000D02*
X98900000Y-138850000D01*
X130700000Y-136750000D02*
X129700000Y-136750000D01*
X129700000Y-138450000D02*
X130700000Y-138450000D01*
X161300000Y-137350000D02*
X160300000Y-137350000D01*
X160300000Y-139050000D02*
X161300000Y-139050000D01*
X106900000Y-98350000D02*
X105900000Y-98350000D01*
X105900000Y-100050000D02*
X106900000Y-100050000D01*
X137900000Y-98150000D02*
X136900000Y-98150000D01*
X136900000Y-99850000D02*
X137900000Y-99850000D01*
X168500000Y-97750000D02*
X167500000Y-97750000D01*
X167500000Y-99450000D02*
X168500000Y-99450000D01*
X106300000Y-137150000D02*
X105300000Y-137150000D01*
X105300000Y-138850000D02*
X106300000Y-138850000D01*
X138500000Y-136550000D02*
X137500000Y-136550000D01*
X137500000Y-138250000D02*
X138500000Y-138250000D01*
X166900000Y-137350000D02*
X165900000Y-137350000D01*
X165900000Y-139050000D02*
X166900000Y-139050000D01*
X146150420Y-40000000D02*
X146998780Y-41000760D01*
X146998780Y-41000760D02*
X146998780Y-38999240D01*
X146998780Y-38999240D02*
X146150420Y-40000000D01*
X146150420Y-40000000D02*
X146150420Y-38999240D01*
X146150420Y-40000000D02*
X146150420Y-41000760D01*
X148901240Y-38249940D02*
X148901240Y-38399800D01*
X144649280Y-38249940D02*
X144649280Y-38349000D01*
X144298760Y-38249940D02*
X144298760Y-38349000D01*
X148901240Y-41750060D02*
X148901240Y-41651000D01*
X144649280Y-41750060D02*
X144649280Y-41651000D01*
X144298760Y-41750060D02*
X144298760Y-41651000D01*
X144649280Y-38001020D02*
X144649280Y-38199140D01*
X144649280Y-41998980D02*
X144649280Y-41800860D01*
X144303840Y-38003560D02*
X144303840Y-38201680D01*
X148906320Y-38003560D02*
X144303840Y-38003560D01*
X148906320Y-38003560D02*
X148906320Y-38201680D01*
X148901240Y-41998980D02*
X148901240Y-41800860D01*
X148901240Y-41998980D02*
X144298760Y-41998980D01*
X144298760Y-41998980D02*
X144298760Y-41800860D01*
X139800000Y-96404000D02*
X134593000Y-96404000D01*
X126719000Y-96404000D02*
X131672000Y-96404000D01*
X139800000Y-89800000D02*
X134720000Y-89800000D01*
X126719000Y-89800000D02*
X131799000Y-89800000D01*
X126719000Y-89800000D02*
X126719000Y-96404000D01*
X139800000Y-96404000D02*
X139800000Y-89800000D01*
X108600000Y-135804000D02*
X103393000Y-135804000D01*
X95519000Y-135804000D02*
X100472000Y-135804000D01*
X108600000Y-129200000D02*
X103520000Y-129200000D01*
X95519000Y-129200000D02*
X100599000Y-129200000D01*
X95519000Y-129200000D02*
X95519000Y-135804000D01*
X108600000Y-135804000D02*
X108600000Y-129200000D01*
X139800000Y-135404000D02*
X134593000Y-135404000D01*
X126719000Y-135404000D02*
X131672000Y-135404000D01*
X139800000Y-128800000D02*
X134720000Y-128800000D01*
X126719000Y-128800000D02*
X131799000Y-128800000D01*
X126719000Y-128800000D02*
X126719000Y-135404000D01*
X139800000Y-135404000D02*
X139800000Y-128800000D01*
X170400000Y-135604000D02*
X165193000Y-135604000D01*
X157319000Y-135604000D02*
X162272000Y-135604000D01*
X170400000Y-129000000D02*
X165320000Y-129000000D01*
X157319000Y-129000000D02*
X162399000Y-129000000D01*
X157319000Y-129000000D02*
X157319000Y-135604000D01*
X170400000Y-135604000D02*
X170400000Y-129000000D01*
X98600000Y-108204000D02*
X93393000Y-108204000D01*
X85519000Y-108204000D02*
X90472000Y-108204000D01*
X98600000Y-101600000D02*
X93520000Y-101600000D01*
X85519000Y-101600000D02*
X90599000Y-101600000D01*
X85519000Y-101600000D02*
X85519000Y-108204000D01*
X98600000Y-108204000D02*
X98600000Y-101600000D01*
X127800000Y-108204000D02*
X122593000Y-108204000D01*
X114719000Y-108204000D02*
X119672000Y-108204000D01*
X127800000Y-101600000D02*
X122720000Y-101600000D01*
X114719000Y-101600000D02*
X119799000Y-101600000D01*
X114719000Y-101600000D02*
X114719000Y-108204000D01*
X127800000Y-108204000D02*
X127800000Y-101600000D01*
X157600000Y-108204000D02*
X152393000Y-108204000D01*
X144519000Y-108204000D02*
X149472000Y-108204000D01*
X157600000Y-101600000D02*
X152520000Y-101600000D01*
X144519000Y-101600000D02*
X149599000Y-101600000D01*
X144519000Y-101600000D02*
X144519000Y-108204000D01*
X157600000Y-108204000D02*
X157600000Y-101600000D01*
X95000000Y-147204000D02*
X89793000Y-147204000D01*
X81919000Y-147204000D02*
X86872000Y-147204000D01*
X95000000Y-140600000D02*
X89920000Y-140600000D01*
X81919000Y-140600000D02*
X86999000Y-140600000D01*
X81919000Y-140600000D02*
X81919000Y-147204000D01*
X95000000Y-147204000D02*
X95000000Y-140600000D01*
X126000000Y-147204000D02*
X120793000Y-147204000D01*
X112919000Y-147204000D02*
X117872000Y-147204000D01*
X126000000Y-140600000D02*
X120920000Y-140600000D01*
X112919000Y-140600000D02*
X117999000Y-140600000D01*
X112919000Y-140600000D02*
X112919000Y-147204000D01*
X126000000Y-147204000D02*
X126000000Y-140600000D01*
X156800000Y-147204000D02*
X151593000Y-147204000D01*
X143719000Y-147204000D02*
X148672000Y-147204000D01*
X156800000Y-140600000D02*
X151720000Y-140600000D01*
X143719000Y-140600000D02*
X148799000Y-140600000D01*
X143719000Y-140600000D02*
X143719000Y-147204000D01*
X156800000Y-147204000D02*
X156800000Y-140600000D01*
X99600000Y-101596000D02*
X104807000Y-101596000D01*
X112681000Y-101596000D02*
X107728000Y-101596000D01*
X99600000Y-108200000D02*
X104680000Y-108200000D01*
X112681000Y-108200000D02*
X107601000Y-108200000D01*
X112681000Y-108200000D02*
X112681000Y-101596000D01*
X99600000Y-101596000D02*
X99600000Y-108200000D01*
X129200000Y-101596000D02*
X134407000Y-101596000D01*
X142281000Y-101596000D02*
X137328000Y-101596000D01*
X129200000Y-108200000D02*
X134280000Y-108200000D01*
X142281000Y-108200000D02*
X137201000Y-108200000D01*
X142281000Y-108200000D02*
X142281000Y-101596000D01*
X129200000Y-101596000D02*
X129200000Y-108200000D01*
X159600000Y-101396000D02*
X164807000Y-101396000D01*
X172681000Y-101396000D02*
X167728000Y-101396000D01*
X159600000Y-108000000D02*
X164680000Y-108000000D01*
X172681000Y-108000000D02*
X167601000Y-108000000D01*
X172681000Y-108000000D02*
X172681000Y-101396000D01*
X159600000Y-101396000D02*
X159600000Y-108000000D01*
X97000000Y-140596000D02*
X102207000Y-140596000D01*
X110081000Y-140596000D02*
X105128000Y-140596000D01*
X97000000Y-147200000D02*
X102080000Y-147200000D01*
X110081000Y-147200000D02*
X105001000Y-147200000D01*
X110081000Y-147200000D02*
X110081000Y-140596000D01*
X97000000Y-140596000D02*
X97000000Y-147200000D01*
X127800000Y-140396000D02*
X133007000Y-140396000D01*
X140881000Y-140396000D02*
X135928000Y-140396000D01*
X127800000Y-147000000D02*
X132880000Y-147000000D01*
X140881000Y-147000000D02*
X135801000Y-147000000D01*
X140881000Y-147000000D02*
X140881000Y-140396000D01*
X127800000Y-140396000D02*
X127800000Y-147000000D01*
X158400000Y-140596000D02*
X163607000Y-140596000D01*
X171481000Y-140596000D02*
X166528000Y-140596000D01*
X158400000Y-147200000D02*
X163480000Y-147200000D01*
X171481000Y-147200000D02*
X166401000Y-147200000D01*
X171481000Y-147200000D02*
X171481000Y-140596000D01*
X158400000Y-140596000D02*
X158400000Y-147200000D01*
X93867000Y-48924000D02*
X94121000Y-48543000D01*
X88533000Y-45723600D02*
X88329800Y-46193500D01*
X88406000Y-48784300D02*
X88329800Y-48606500D01*
X93854300Y-45774400D02*
X94032100Y-46193500D01*
X91200000Y-44225000D02*
X91708000Y-44225000D01*
X91708000Y-44225000D02*
X92216000Y-44352000D01*
X92216000Y-44352000D02*
X92724000Y-44606000D01*
X92724000Y-44606000D02*
X93105000Y-44860000D01*
X93105000Y-44860000D02*
X93486000Y-45241000D01*
X93486000Y-45241000D02*
X93867000Y-45749000D01*
X88533000Y-45749000D02*
X88914000Y-45114000D01*
X88914000Y-45114000D02*
X89549000Y-44733000D01*
X89549000Y-44733000D02*
X89930000Y-44479000D01*
X89930000Y-44479000D02*
X90438000Y-44352000D01*
X90438000Y-44352000D02*
X90946000Y-44225000D01*
X90946000Y-44225000D02*
X91200000Y-44225000D01*
X88533000Y-48924000D02*
X88406000Y-48670000D01*
X88533000Y-48924000D02*
X93867000Y-48924000D01*
X128500000Y-45000000D02*
X128500000Y-44100000D01*
X128500000Y-44100000D02*
X129300000Y-44100000D01*
X131500000Y-45000000D02*
X131500000Y-44100000D01*
X131500000Y-44100000D02*
X130700000Y-44100000D01*
X130300000Y-45500000D02*
X129700000Y-45500000D01*
X109444000Y-45724000D02*
X109444000Y-48772000D01*
X109444000Y-48772000D02*
X116556000Y-48772000D01*
X116556000Y-48772000D02*
X116556000Y-45724000D01*
X109444000Y-42676000D02*
X109444000Y-41914000D01*
X109444000Y-41914000D02*
X110968000Y-39628000D01*
X110968000Y-39628000D02*
X115032000Y-39628000D01*
X115032000Y-39628000D02*
X116556000Y-41914000D01*
X116556000Y-41914000D02*
X116556000Y-42676000D01*
X139776000Y-54167000D02*
X140157000Y-54421000D01*
X142976400Y-48833000D02*
X142506500Y-48629800D01*
X139915700Y-48706000D02*
X140093500Y-48629800D01*
X142925600Y-54154300D02*
X142506500Y-54332100D01*
X144475000Y-51500000D02*
X144475000Y-52008000D01*
X144475000Y-52008000D02*
X144348000Y-52516000D01*
X144348000Y-52516000D02*
X144094000Y-53024000D01*
X144094000Y-53024000D02*
X143840000Y-53405000D01*
X143840000Y-53405000D02*
X143459000Y-53786000D01*
X143459000Y-53786000D02*
X142951000Y-54167000D01*
X142951000Y-48833000D02*
X143586000Y-49214000D01*
X143586000Y-49214000D02*
X143967000Y-49849000D01*
X143967000Y-49849000D02*
X144221000Y-50230000D01*
X144221000Y-50230000D02*
X144348000Y-50738000D01*
X144348000Y-50738000D02*
X144475000Y-51246000D01*
X144475000Y-51246000D02*
X144475000Y-51500000D01*
X139776000Y-48833000D02*
X140030000Y-48706000D01*
X139776000Y-48833000D02*
X139776000Y-54167000D01*
X137300000Y-59800000D02*
X137300000Y-60700000D01*
X137300000Y-60700000D02*
X136500000Y-60700000D01*
X134300000Y-59800000D02*
X134300000Y-60700000D01*
X134300000Y-60700000D02*
X135100000Y-60700000D01*
X135500000Y-59300000D02*
X136100000Y-59300000D01*
X167067000Y-60324000D02*
X167321000Y-59943000D01*
X161733000Y-57123600D02*
X161529800Y-57593500D01*
X161606000Y-60184300D02*
X161529800Y-60006500D01*
X167054300Y-57174400D02*
X167232100Y-57593500D01*
X164400000Y-55625000D02*
X164908000Y-55625000D01*
X164908000Y-55625000D02*
X165416000Y-55752000D01*
X165416000Y-55752000D02*
X165924000Y-56006000D01*
X165924000Y-56006000D02*
X166305000Y-56260000D01*
X166305000Y-56260000D02*
X166686000Y-56641000D01*
X166686000Y-56641000D02*
X167067000Y-57149000D01*
X161733000Y-57149000D02*
X162114000Y-56514000D01*
X162114000Y-56514000D02*
X162749000Y-56133000D01*
X162749000Y-56133000D02*
X163130000Y-55879000D01*
X163130000Y-55879000D02*
X163638000Y-55752000D01*
X163638000Y-55752000D02*
X164146000Y-55625000D01*
X164146000Y-55625000D02*
X164400000Y-55625000D01*
X161733000Y-60324000D02*
X161606000Y-60070000D01*
X161733000Y-60324000D02*
X167067000Y-60324000D01*
X153933000Y-42676000D02*
X153679000Y-43057000D01*
X159267000Y-45876400D02*
X159470200Y-45406500D01*
X159394000Y-42815700D02*
X159470200Y-42993500D01*
X153945700Y-45825600D02*
X153767900Y-45406500D01*
X156600000Y-47375000D02*
X156092000Y-47375000D01*
X156092000Y-47375000D02*
X155584000Y-47248000D01*
X155584000Y-47248000D02*
X155076000Y-46994000D01*
X155076000Y-46994000D02*
X154695000Y-46740000D01*
X154695000Y-46740000D02*
X154314000Y-46359000D01*
X154314000Y-46359000D02*
X153933000Y-45851000D01*
X159267000Y-45851000D02*
X158886000Y-46486000D01*
X158886000Y-46486000D02*
X158251000Y-46867000D01*
X158251000Y-46867000D02*
X157870000Y-47121000D01*
X157870000Y-47121000D02*
X157362000Y-47248000D01*
X157362000Y-47248000D02*
X156854000Y-47375000D01*
X156854000Y-47375000D02*
X156600000Y-47375000D01*
X159267000Y-42676000D02*
X159394000Y-42930000D01*
X159267000Y-42676000D02*
X153933000Y-42676000D01*
X177400000Y-62884740D02*
X177400000Y-62122740D01*
X177400000Y-68345740D02*
X177400000Y-69234740D01*
X176130000Y-62884740D02*
X178797000Y-62884740D01*
X178797000Y-62884740D02*
X178797000Y-68345740D01*
X178797000Y-68345740D02*
X176130000Y-68345740D01*
X176130000Y-68345740D02*
X176130000Y-62884740D01*
X171200000Y-96404000D02*
X165993000Y-96404000D01*
X158119000Y-96404000D02*
X163072000Y-96404000D01*
X171200000Y-89800000D02*
X166120000Y-89800000D01*
X158119000Y-89800000D02*
X163199000Y-89800000D01*
X158119000Y-89800000D02*
X158119000Y-96404000D01*
X171200000Y-96404000D02*
X171200000Y-89800000D01*
X95500000Y-86550000D02*
X94500000Y-86550000D01*
X94500000Y-88250000D02*
X95500000Y-88250000D01*
X156100000Y-97750000D02*
X155100000Y-97750000D01*
X155100000Y-99450000D02*
X156100000Y-99450000D01*
X74676000Y-68962000D02*
G75*
G03X74676000Y-68962000I-127000J0D01*
G01*
X75692000Y-68962000D02*
X74676000Y-68962000D01*
X74676000Y-68962000D02*
X74676000Y-67438000D01*
X74676000Y-67438000D02*
X75692000Y-67438000D01*
X76708000Y-67438000D02*
X77724000Y-67438000D01*
X77724000Y-67438000D02*
X77724000Y-68962000D01*
X77724000Y-68962000D02*
X76708000Y-68962000D01*
X75330000Y-77130000D02*
X75330000Y-79670000D01*
X75330000Y-79670000D02*
X77870000Y-79670000D01*
X77870000Y-79670000D02*
X77870000Y-77130000D01*
X77870000Y-77130000D02*
X75330000Y-77130000D01*
X77000000Y-118540000D02*
X74460000Y-118540000D01*
X74460000Y-118540000D02*
X74460000Y-116000000D01*
X74460000Y-116000000D02*
X77000000Y-116000000D01*
X77000000Y-116000000D02*
X77000000Y-118540000D01*
X77000000Y-118540000D02*
X79540000Y-118540000D01*
X79540000Y-118540000D02*
X79540000Y-113460000D01*
X79540000Y-113460000D02*
X74460000Y-113460000D01*
X74460000Y-113460000D02*
X74460000Y-116000000D01*
D10*
X170200000Y-55400000D02*
X170200000Y-48000000D01*
X170200000Y-48000000D02*
X175600000Y-48000000D01*
X175600000Y-48000000D02*
X175600000Y-55400000D01*
X175600000Y-55400000D02*
X170200000Y-55400000D01*
D11*
X85460000Y-71780000D02*
X85460000Y-87020000D01*
X85460000Y-87020000D02*
X90540000Y-87020000D01*
X90540000Y-87020000D02*
X90540000Y-71780000D01*
X89270000Y-71780000D02*
X89270000Y-73050000D01*
X89270000Y-73050000D02*
X86730000Y-73050000D01*
X86730000Y-73050000D02*
X86730000Y-71780000D01*
X90540000Y-71780000D02*
X85460000Y-71780000D01*
X116060000Y-71780000D02*
X116060000Y-87020000D01*
X116060000Y-87020000D02*
X121140000Y-87020000D01*
X121140000Y-87020000D02*
X121140000Y-71780000D01*
X119870000Y-71780000D02*
X119870000Y-73050000D01*
X119870000Y-73050000D02*
X117330000Y-73050000D01*
X117330000Y-73050000D02*
X117330000Y-71780000D01*
X121140000Y-71780000D02*
X116060000Y-71780000D01*
X147460000Y-72180000D02*
X147460000Y-87420000D01*
X147460000Y-87420000D02*
X152540000Y-87420000D01*
X152540000Y-87420000D02*
X152540000Y-72180000D01*
X151270000Y-72180000D02*
X151270000Y-73450000D01*
X151270000Y-73450000D02*
X148730000Y-73450000D01*
X148730000Y-73450000D02*
X148730000Y-72180000D01*
X152540000Y-72180000D02*
X147460000Y-72180000D01*
X84060000Y-111180000D02*
X84060000Y-126420000D01*
X84060000Y-126420000D02*
X89140000Y-126420000D01*
X89140000Y-126420000D02*
X89140000Y-111180000D01*
X87870000Y-111180000D02*
X87870000Y-112450000D01*
X87870000Y-112450000D02*
X85330000Y-112450000D01*
X85330000Y-112450000D02*
X85330000Y-111180000D01*
X89140000Y-111180000D02*
X84060000Y-111180000D01*
X115660000Y-110980000D02*
X115660000Y-126220000D01*
X115660000Y-126220000D02*
X120740000Y-126220000D01*
X120740000Y-126220000D02*
X120740000Y-110980000D01*
X119470000Y-110980000D02*
X119470000Y-112250000D01*
X119470000Y-112250000D02*
X116930000Y-112250000D01*
X116930000Y-112250000D02*
X116930000Y-110980000D01*
X120740000Y-110980000D02*
X115660000Y-110980000D01*
X146460000Y-111180000D02*
X146460000Y-126420000D01*
X146460000Y-126420000D02*
X151540000Y-126420000D01*
X151540000Y-126420000D02*
X151540000Y-111180000D01*
X150270000Y-111180000D02*
X150270000Y-112450000D01*
X150270000Y-112450000D02*
X147730000Y-112450000D01*
X147730000Y-112450000D02*
X147730000Y-111180000D01*
X151540000Y-111180000D02*
X146460000Y-111180000D01*
X99460000Y-71980000D02*
X99460000Y-87220000D01*
X99460000Y-87220000D02*
X104540000Y-87220000D01*
X104540000Y-87220000D02*
X104540000Y-71980000D01*
X103270000Y-71980000D02*
X103270000Y-73250000D01*
X103270000Y-73250000D02*
X100730000Y-73250000D01*
X100730000Y-73250000D02*
X100730000Y-71980000D01*
X104540000Y-71980000D02*
X99460000Y-71980000D01*
X130860000Y-71780000D02*
X130860000Y-87020000D01*
X130860000Y-87020000D02*
X135940000Y-87020000D01*
X135940000Y-87020000D02*
X135940000Y-71780000D01*
X134670000Y-71780000D02*
X134670000Y-73050000D01*
X134670000Y-73050000D02*
X132130000Y-73050000D01*
X132130000Y-73050000D02*
X132130000Y-71780000D01*
X135940000Y-71780000D02*
X130860000Y-71780000D01*
X160860000Y-71980000D02*
X160860000Y-87220000D01*
X160860000Y-87220000D02*
X165940000Y-87220000D01*
X165940000Y-87220000D02*
X165940000Y-71980000D01*
X164670000Y-71980000D02*
X164670000Y-73250000D01*
X164670000Y-73250000D02*
X162130000Y-73250000D01*
X162130000Y-73250000D02*
X162130000Y-71980000D01*
X165940000Y-71980000D02*
X160860000Y-71980000D01*
X99460000Y-111180000D02*
X99460000Y-126420000D01*
X99460000Y-126420000D02*
X104540000Y-126420000D01*
X104540000Y-126420000D02*
X104540000Y-111180000D01*
X103270000Y-111180000D02*
X103270000Y-112450000D01*
X103270000Y-112450000D02*
X100730000Y-112450000D01*
X100730000Y-112450000D02*
X100730000Y-111180000D01*
X104540000Y-111180000D02*
X99460000Y-111180000D01*
X131060000Y-110780000D02*
X131060000Y-126020000D01*
X131060000Y-126020000D02*
X136140000Y-126020000D01*
X136140000Y-126020000D02*
X136140000Y-110780000D01*
X134870000Y-110780000D02*
X134870000Y-112050000D01*
X134870000Y-112050000D02*
X132330000Y-112050000D01*
X132330000Y-112050000D02*
X132330000Y-110780000D01*
X136140000Y-110780000D02*
X131060000Y-110780000D01*
X161460000Y-111180000D02*
X161460000Y-126420000D01*
X161460000Y-126420000D02*
X166540000Y-126420000D01*
X166540000Y-126420000D02*
X166540000Y-111180000D01*
X165270000Y-111180000D02*
X165270000Y-112450000D01*
X165270000Y-112450000D02*
X162730000Y-112450000D01*
X162730000Y-112450000D02*
X162730000Y-111180000D01*
X166540000Y-111180000D02*
X161460000Y-111180000D01*
X103070000Y-46970000D02*
X103070000Y-46970000D01*
X103070000Y-46970000D02*
X103070000Y-48240000D01*
X103070000Y-48240000D02*
X100530000Y-48240000D01*
X100530000Y-48240000D02*
X100530000Y-46970000D01*
X104340000Y-46970000D02*
X104340000Y-69830000D01*
X104340000Y-69830000D02*
X99260000Y-69830000D01*
X99260000Y-69830000D02*
X99260000Y-46970000D01*
X99260000Y-46970000D02*
X104340000Y-46970000D01*
X71736000Y-124200000D02*
X74276000Y-126740000D01*
X71736000Y-126740000D02*
X74276000Y-124200000D01*
X71609000Y-125597000D02*
X65767000Y-125597000D01*
X65767000Y-125597000D02*
X65767000Y-125343000D01*
X65767000Y-125343000D02*
X71609000Y-125343000D01*
X71609000Y-125343000D02*
X71609000Y-125470000D01*
X71609000Y-125470000D02*
X65767000Y-125470000D01*
X74276000Y-125724000D02*
X74657000Y-125724000D01*
X74276000Y-125216000D02*
X74657000Y-125216000D01*
X74276000Y-123184000D02*
X74657000Y-123184000D01*
X74276000Y-122676000D02*
X74657000Y-122676000D01*
X74276000Y-126740000D02*
X71736000Y-126740000D01*
X74276000Y-124200000D02*
X71736000Y-124200000D01*
X74276000Y-124200000D02*
X74276000Y-121660000D01*
X74276000Y-121660000D02*
X71736000Y-121660000D01*
X71736000Y-123184000D02*
X65640000Y-123184000D01*
X65640000Y-123184000D02*
X65640000Y-122676000D01*
X65640000Y-122676000D02*
X71736000Y-122676000D01*
X71736000Y-121660000D02*
X71736000Y-124200000D01*
X71736000Y-124200000D02*
X71736000Y-126740000D01*
X65640000Y-125216000D02*
X71736000Y-125216000D01*
X65640000Y-125724000D02*
X65640000Y-125216000D01*
X71736000Y-125724000D02*
X65640000Y-125724000D01*
X74276000Y-124200000D02*
X71736000Y-124200000D01*
X74276000Y-126740000D02*
X74276000Y-124200000D01*
X101930000Y-38470000D02*
X107010000Y-38470000D01*
X107010000Y-38470000D02*
X107010000Y-35930000D01*
X107010000Y-35930000D02*
X101930000Y-35930000D01*
X99390000Y-35930000D02*
X101930000Y-35930000D01*
X101930000Y-35930000D02*
X101930000Y-38470000D01*
X99390000Y-35930000D02*
X99390000Y-38470000D01*
X99390000Y-38470000D02*
X101930000Y-38470000D01*
X77470000Y-91650000D02*
X77470000Y-106890000D01*
X77470000Y-106890000D02*
X74930000Y-106890000D01*
X74930000Y-106890000D02*
X74930000Y-91650000D01*
X77470000Y-89110000D02*
X77470000Y-91650000D01*
X77470000Y-91650000D02*
X74930000Y-91650000D01*
X77470000Y-89110000D02*
X74930000Y-89110000D01*
X74930000Y-89110000D02*
X74930000Y-91650000D01*
D10*
X70250000Y-58583333D02*
X70283333Y-58616667D01*
X70316667Y-58716667D01*
X70316667Y-58783333D01*
X70283333Y-58883333D01*
X70216667Y-58950000D01*
X70150000Y-58983333D01*
X70016667Y-59016667D01*
X69916667Y-59016667D01*
X69783333Y-58983333D01*
X69716667Y-58950000D01*
X69650000Y-58883333D01*
X69616667Y-58783333D01*
X69616667Y-58716667D01*
X69650000Y-58616667D01*
X69683333Y-58583333D01*
X70316667Y-58283333D02*
X69616667Y-58283333D01*
X70316667Y-57883333D01*
X69616667Y-57883333D01*
X70316667Y-57183334D02*
X70316667Y-57583334D01*
X70316667Y-57383334D02*
X69616667Y-57383334D01*
X69716667Y-57450000D01*
X69783333Y-57516667D01*
X69816667Y-57583334D01*
D12*
X94916000Y-88199429D02*
X94190286Y-88199429D01*
X94190286Y-86675429D01*
X95351429Y-86820571D02*
X95424000Y-86748000D01*
X95569143Y-86675429D01*
X95932000Y-86675429D01*
X96077143Y-86748000D01*
X96149714Y-86820571D01*
X96222286Y-86965714D01*
X96222286Y-87110857D01*
X96149714Y-87328571D01*
X95278857Y-88199429D01*
X96222286Y-88199429D01*
X125716000Y-88199429D02*
X124990286Y-88199429D01*
X124990286Y-86675429D01*
X126078857Y-86675429D02*
X127022286Y-86675429D01*
X126514286Y-87256000D01*
X126732000Y-87256000D01*
X126877143Y-87328571D01*
X126949714Y-87401143D01*
X127022286Y-87546286D01*
X127022286Y-87909143D01*
X126949714Y-88054286D01*
X126877143Y-88126857D01*
X126732000Y-88199429D01*
X126296572Y-88199429D01*
X126151429Y-88126857D01*
X126078857Y-88054286D01*
X157116000Y-87999429D02*
X156390286Y-87999429D01*
X156390286Y-86475429D01*
X158277143Y-86983429D02*
X158277143Y-87999429D01*
X157914286Y-86402857D02*
X157551429Y-87491429D01*
X158494857Y-87491429D01*
X94116000Y-127399429D02*
X93390286Y-127399429D01*
X93390286Y-125875429D01*
X95349714Y-125875429D02*
X94624000Y-125875429D01*
X94551429Y-126601143D01*
X94624000Y-126528571D01*
X94769143Y-126456000D01*
X95132000Y-126456000D01*
X95277143Y-126528571D01*
X95349714Y-126601143D01*
X95422286Y-126746286D01*
X95422286Y-127109143D01*
X95349714Y-127254286D01*
X95277143Y-127326857D01*
X95132000Y-127399429D01*
X94769143Y-127399429D01*
X94624000Y-127326857D01*
X94551429Y-127254286D01*
X125516000Y-127399429D02*
X124790286Y-127399429D01*
X124790286Y-125875429D01*
X126677143Y-125875429D02*
X126386857Y-125875429D01*
X126241714Y-125948000D01*
X126169143Y-126020571D01*
X126024000Y-126238286D01*
X125951429Y-126528571D01*
X125951429Y-127109143D01*
X126024000Y-127254286D01*
X126096572Y-127326857D01*
X126241714Y-127399429D01*
X126532000Y-127399429D01*
X126677143Y-127326857D01*
X126749714Y-127254286D01*
X126822286Y-127109143D01*
X126822286Y-126746286D01*
X126749714Y-126601143D01*
X126677143Y-126528571D01*
X126532000Y-126456000D01*
X126241714Y-126456000D01*
X126096572Y-126528571D01*
X126024000Y-126601143D01*
X125951429Y-126746286D01*
X156316000Y-127399429D02*
X155590286Y-127399429D01*
X155590286Y-125875429D01*
X156678857Y-125875429D02*
X157694857Y-125875429D01*
X157041714Y-127399429D01*
X94576000Y-99379429D02*
X93850286Y-99379429D01*
X93850286Y-97855429D01*
X95301714Y-98508571D02*
X95156572Y-98436000D01*
X95084000Y-98363429D01*
X95011429Y-98218286D01*
X95011429Y-98145714D01*
X95084000Y-98000571D01*
X95156572Y-97928000D01*
X95301714Y-97855429D01*
X95592000Y-97855429D01*
X95737143Y-97928000D01*
X95809714Y-98000571D01*
X95882286Y-98145714D01*
X95882286Y-98218286D01*
X95809714Y-98363429D01*
X95737143Y-98436000D01*
X95592000Y-98508571D01*
X95301714Y-98508571D01*
X95156572Y-98581143D01*
X95084000Y-98653714D01*
X95011429Y-98798857D01*
X95011429Y-99089143D01*
X95084000Y-99234286D01*
X95156572Y-99306857D01*
X95301714Y-99379429D01*
X95592000Y-99379429D01*
X95737143Y-99306857D01*
X95809714Y-99234286D01*
X95882286Y-99089143D01*
X95882286Y-98798857D01*
X95809714Y-98653714D01*
X95737143Y-98581143D01*
X95592000Y-98508571D01*
X150854857Y-60034571D02*
X150709714Y-59962000D01*
X150564571Y-59816857D01*
X150346857Y-59599143D01*
X150201714Y-59526571D01*
X150056571Y-59526571D01*
X150129143Y-59889429D02*
X149984000Y-59816857D01*
X149838857Y-59671714D01*
X149766286Y-59381429D01*
X149766286Y-58873429D01*
X149838857Y-58583143D01*
X149984000Y-58438000D01*
X150129143Y-58365429D01*
X150419429Y-58365429D01*
X150564571Y-58438000D01*
X150709714Y-58583143D01*
X150782286Y-58873429D01*
X150782286Y-59381429D01*
X150709714Y-59671714D01*
X150564571Y-59816857D01*
X150419429Y-59889429D01*
X150129143Y-59889429D01*
X151290285Y-58365429D02*
X152306285Y-58365429D01*
X151653142Y-59889429D01*
X169452357Y-48273071D02*
X169307214Y-48200500D01*
X169162071Y-48055357D01*
X168944357Y-47837643D01*
X168799214Y-47765071D01*
X168654071Y-47765071D01*
X168726643Y-48127929D02*
X168581500Y-48055357D01*
X168436357Y-47910214D01*
X168363786Y-47619929D01*
X168363786Y-47111929D01*
X168436357Y-46821643D01*
X168581500Y-46676500D01*
X168726643Y-46603929D01*
X169016929Y-46603929D01*
X169162071Y-46676500D01*
X169307214Y-46821643D01*
X169379786Y-47111929D01*
X169379786Y-47619929D01*
X169307214Y-47910214D01*
X169162071Y-48055357D01*
X169016929Y-48127929D01*
X168726643Y-48127929D01*
X170250642Y-47257071D02*
X170105500Y-47184500D01*
X170032928Y-47111929D01*
X169960357Y-46966786D01*
X169960357Y-46894214D01*
X170032928Y-46749071D01*
X170105500Y-46676500D01*
X170250642Y-46603929D01*
X170540928Y-46603929D01*
X170686071Y-46676500D01*
X170758642Y-46749071D01*
X170831214Y-46894214D01*
X170831214Y-46966786D01*
X170758642Y-47111929D01*
X170686071Y-47184500D01*
X170540928Y-47257071D01*
X170250642Y-47257071D01*
X170105500Y-47329643D01*
X170032928Y-47402214D01*
X169960357Y-47547357D01*
X169960357Y-47837643D01*
X170032928Y-47982786D01*
X170105500Y-48055357D01*
X170250642Y-48127929D01*
X170540928Y-48127929D01*
X170686071Y-48055357D01*
X170758642Y-47982786D01*
X170831214Y-47837643D01*
X170831214Y-47547357D01*
X170758642Y-47402214D01*
X170686071Y-47329643D01*
X170540928Y-47257071D01*
D10*
X73816667Y-49033333D02*
X73816667Y-48633333D01*
X74516667Y-48833333D02*
X73816667Y-48833333D01*
X73883333Y-48433334D02*
X73850000Y-48400000D01*
X73816667Y-48333334D01*
X73816667Y-48166667D01*
X73850000Y-48100000D01*
X73883333Y-48066667D01*
X73950000Y-48033334D01*
X74016667Y-48033334D01*
X74116667Y-48066667D01*
X74516667Y-48466667D01*
X74516667Y-48033334D01*
X76616667Y-59233333D02*
X76616667Y-58833333D01*
X77316667Y-59033333D02*
X76616667Y-59033333D01*
X76616667Y-58666667D02*
X76616667Y-58233334D01*
X76883333Y-58466667D01*
X76883333Y-58366667D01*
X76916667Y-58300000D01*
X76950000Y-58266667D01*
X77016667Y-58233334D01*
X77183333Y-58233334D01*
X77250000Y-58266667D01*
X77283333Y-58300000D01*
X77316667Y-58366667D01*
X77316667Y-58566667D01*
X77283333Y-58633334D01*
X77250000Y-58666667D01*
X125416667Y-57833333D02*
X125416667Y-57433333D01*
X126116667Y-57633333D02*
X125416667Y-57633333D01*
X125650000Y-56900000D02*
X126116667Y-56900000D01*
X125383333Y-57066667D02*
X125883333Y-57233334D01*
X125883333Y-56800000D01*
D11*
X86633334Y-42857143D02*
X86585715Y-42904762D01*
X86442858Y-42952381D01*
X86347620Y-42952381D01*
X86204762Y-42904762D01*
X86109524Y-42809524D01*
X86061905Y-42714286D01*
X86014286Y-42523810D01*
X86014286Y-42380952D01*
X86061905Y-42190476D01*
X86109524Y-42095238D01*
X86204762Y-42000000D01*
X86347620Y-41952381D01*
X86442858Y-41952381D01*
X86585715Y-42000000D01*
X86633334Y-42047619D01*
X86966667Y-41952381D02*
X87585715Y-41952381D01*
X87252381Y-42333333D01*
X87395239Y-42333333D01*
X87490477Y-42380952D01*
X87538096Y-42428571D01*
X87585715Y-42523810D01*
X87585715Y-42761905D01*
X87538096Y-42857143D01*
X87490477Y-42904762D01*
X87395239Y-42952381D01*
X87109524Y-42952381D01*
X87014286Y-42904762D01*
X86966667Y-42857143D01*
X80457143Y-42766666D02*
X80504762Y-42814285D01*
X80552381Y-42957142D01*
X80552381Y-43052380D01*
X80504762Y-43195238D01*
X80409524Y-43290476D01*
X80314286Y-43338095D01*
X80123810Y-43385714D01*
X79980952Y-43385714D01*
X79790476Y-43338095D01*
X79695238Y-43290476D01*
X79600000Y-43195238D01*
X79552381Y-43052380D01*
X79552381Y-42957142D01*
X79600000Y-42814285D01*
X79647619Y-42766666D01*
X79885714Y-41909523D02*
X80552381Y-41909523D01*
X79504762Y-42147619D02*
X80219048Y-42385714D01*
X80219048Y-41766666D01*
X87857143Y-65566666D02*
X87904762Y-65614285D01*
X87952381Y-65757142D01*
X87952381Y-65852380D01*
X87904762Y-65995238D01*
X87809524Y-66090476D01*
X87714286Y-66138095D01*
X87523810Y-66185714D01*
X87380952Y-66185714D01*
X87190476Y-66138095D01*
X87095238Y-66090476D01*
X87000000Y-65995238D01*
X86952381Y-65852380D01*
X86952381Y-65757142D01*
X87000000Y-65614285D01*
X87047619Y-65566666D01*
X86952381Y-64661904D02*
X86952381Y-65138095D01*
X87428571Y-65185714D01*
X87380952Y-65138095D01*
X87333333Y-65042857D01*
X87333333Y-64804761D01*
X87380952Y-64709523D01*
X87428571Y-64661904D01*
X87523810Y-64614285D01*
X87761905Y-64614285D01*
X87857143Y-64661904D01*
X87904762Y-64709523D01*
X87952381Y-64804761D01*
X87952381Y-65042857D01*
X87904762Y-65138095D01*
X87857143Y-65185714D01*
X132233334Y-37457143D02*
X132185715Y-37504762D01*
X132042858Y-37552381D01*
X131947620Y-37552381D01*
X131804762Y-37504762D01*
X131709524Y-37409524D01*
X131661905Y-37314286D01*
X131614286Y-37123810D01*
X131614286Y-36980952D01*
X131661905Y-36790476D01*
X131709524Y-36695238D01*
X131804762Y-36600000D01*
X131947620Y-36552381D01*
X132042858Y-36552381D01*
X132185715Y-36600000D01*
X132233334Y-36647619D01*
X133090477Y-36552381D02*
X132900000Y-36552381D01*
X132804762Y-36600000D01*
X132757143Y-36647619D01*
X132661905Y-36790476D01*
X132614286Y-36980952D01*
X132614286Y-37361905D01*
X132661905Y-37457143D01*
X132709524Y-37504762D01*
X132804762Y-37552381D01*
X132995239Y-37552381D01*
X133090477Y-37504762D01*
X133138096Y-37457143D01*
X133185715Y-37361905D01*
X133185715Y-37123810D01*
X133138096Y-37028571D01*
X133090477Y-36980952D01*
X132995239Y-36933333D01*
X132804762Y-36933333D01*
X132709524Y-36980952D01*
X132661905Y-37028571D01*
X132614286Y-37123810D01*
X99633334Y-47857143D02*
X99585715Y-47904762D01*
X99442858Y-47952381D01*
X99347620Y-47952381D01*
X99204762Y-47904762D01*
X99109524Y-47809524D01*
X99061905Y-47714286D01*
X99014286Y-47523810D01*
X99014286Y-47380952D01*
X99061905Y-47190476D01*
X99109524Y-47095238D01*
X99204762Y-47000000D01*
X99347620Y-46952381D01*
X99442858Y-46952381D01*
X99585715Y-47000000D01*
X99633334Y-47047619D01*
X100204762Y-47380952D02*
X100109524Y-47333333D01*
X100061905Y-47285714D01*
X100014286Y-47190476D01*
X100014286Y-47142857D01*
X100061905Y-47047619D01*
X100109524Y-47000000D01*
X100204762Y-46952381D01*
X100395239Y-46952381D01*
X100490477Y-47000000D01*
X100538096Y-47047619D01*
X100585715Y-47142857D01*
X100585715Y-47190476D01*
X100538096Y-47285714D01*
X100490477Y-47333333D01*
X100395239Y-47380952D01*
X100204762Y-47380952D01*
X100109524Y-47428571D01*
X100061905Y-47476190D01*
X100014286Y-47571429D01*
X100014286Y-47761905D01*
X100061905Y-47857143D01*
X100109524Y-47904762D01*
X100204762Y-47952381D01*
X100395239Y-47952381D01*
X100490477Y-47904762D01*
X100538096Y-47857143D01*
X100585715Y-47761905D01*
X100585715Y-47571429D01*
X100538096Y-47476190D01*
X100490477Y-47428571D01*
X100395239Y-47380952D01*
X134857143Y-39766666D02*
X134904762Y-39814285D01*
X134952381Y-39957142D01*
X134952381Y-40052380D01*
X134904762Y-40195238D01*
X134809524Y-40290476D01*
X134714286Y-40338095D01*
X134523810Y-40385714D01*
X134380952Y-40385714D01*
X134190476Y-40338095D01*
X134095238Y-40290476D01*
X134000000Y-40195238D01*
X133952381Y-40052380D01*
X133952381Y-39957142D01*
X134000000Y-39814285D01*
X134047619Y-39766666D01*
X134952381Y-39290476D02*
X134952381Y-39100000D01*
X134904762Y-39004761D01*
X134857143Y-38957142D01*
X134714286Y-38861904D01*
X134523810Y-38814285D01*
X134142857Y-38814285D01*
X134047619Y-38861904D01*
X134000000Y-38909523D01*
X133952381Y-39004761D01*
X133952381Y-39195238D01*
X134000000Y-39290476D01*
X134047619Y-39338095D01*
X134142857Y-39385714D01*
X134380952Y-39385714D01*
X134476190Y-39338095D01*
X134523810Y-39290476D01*
X134571429Y-39195238D01*
X134571429Y-39004761D01*
X134523810Y-38909523D01*
X134476190Y-38861904D01*
X134380952Y-38814285D01*
X162357143Y-37857143D02*
X162309524Y-37904762D01*
X162166667Y-37952381D01*
X162071429Y-37952381D01*
X161928571Y-37904762D01*
X161833333Y-37809524D01*
X161785714Y-37714286D01*
X161738095Y-37523810D01*
X161738095Y-37380952D01*
X161785714Y-37190476D01*
X161833333Y-37095238D01*
X161928571Y-37000000D01*
X162071429Y-36952381D01*
X162166667Y-36952381D01*
X162309524Y-37000000D01*
X162357143Y-37047619D01*
X163309524Y-37952381D02*
X162738095Y-37952381D01*
X163023809Y-37952381D02*
X163023809Y-36952381D01*
X162928571Y-37095238D01*
X162833333Y-37190476D01*
X162738095Y-37238095D01*
X163928571Y-36952381D02*
X164023810Y-36952381D01*
X164119048Y-37000000D01*
X164166667Y-37047619D01*
X164214286Y-37142857D01*
X164261905Y-37333333D01*
X164261905Y-37571429D01*
X164214286Y-37761905D01*
X164166667Y-37857143D01*
X164119048Y-37904762D01*
X164023810Y-37952381D01*
X163928571Y-37952381D01*
X163833333Y-37904762D01*
X163785714Y-37857143D01*
X163738095Y-37761905D01*
X163690476Y-37571429D01*
X163690476Y-37333333D01*
X163738095Y-37142857D01*
X163785714Y-37047619D01*
X163833333Y-37000000D01*
X163928571Y-36952381D01*
X120557143Y-45257143D02*
X120509524Y-45304762D01*
X120366667Y-45352381D01*
X120271429Y-45352381D01*
X120128571Y-45304762D01*
X120033333Y-45209524D01*
X119985714Y-45114286D01*
X119938095Y-44923810D01*
X119938095Y-44780952D01*
X119985714Y-44590476D01*
X120033333Y-44495238D01*
X120128571Y-44400000D01*
X120271429Y-44352381D01*
X120366667Y-44352381D01*
X120509524Y-44400000D01*
X120557143Y-44447619D01*
X121509524Y-45352381D02*
X120938095Y-45352381D01*
X121223809Y-45352381D02*
X121223809Y-44352381D01*
X121128571Y-44495238D01*
X121033333Y-44590476D01*
X120938095Y-44638095D01*
X122461905Y-45352381D02*
X121890476Y-45352381D01*
X122176190Y-45352381D02*
X122176190Y-44352381D01*
X122080952Y-44495238D01*
X121985714Y-44590476D01*
X121890476Y-44638095D01*
X161357143Y-64857143D02*
X161309524Y-64904762D01*
X161166667Y-64952381D01*
X161071429Y-64952381D01*
X160928571Y-64904762D01*
X160833333Y-64809524D01*
X160785714Y-64714286D01*
X160738095Y-64523810D01*
X160738095Y-64380952D01*
X160785714Y-64190476D01*
X160833333Y-64095238D01*
X160928571Y-64000000D01*
X161071429Y-63952381D01*
X161166667Y-63952381D01*
X161309524Y-64000000D01*
X161357143Y-64047619D01*
X162309524Y-64952381D02*
X161738095Y-64952381D01*
X162023809Y-64952381D02*
X162023809Y-63952381D01*
X161928571Y-64095238D01*
X161833333Y-64190476D01*
X161738095Y-64238095D01*
X162690476Y-64047619D02*
X162738095Y-64000000D01*
X162833333Y-63952381D01*
X163071429Y-63952381D01*
X163166667Y-64000000D01*
X163214286Y-64047619D01*
X163261905Y-64142857D01*
X163261905Y-64238095D01*
X163214286Y-64380952D01*
X162642857Y-64952381D01*
X163261905Y-64952381D01*
X172457143Y-59042857D02*
X172504762Y-59090476D01*
X172552381Y-59233333D01*
X172552381Y-59328571D01*
X172504762Y-59471429D01*
X172409524Y-59566667D01*
X172314286Y-59614286D01*
X172123810Y-59661905D01*
X171980952Y-59661905D01*
X171790476Y-59614286D01*
X171695238Y-59566667D01*
X171600000Y-59471429D01*
X171552381Y-59328571D01*
X171552381Y-59233333D01*
X171600000Y-59090476D01*
X171647619Y-59042857D01*
X172552381Y-58090476D02*
X172552381Y-58661905D01*
X172552381Y-58376191D02*
X171552381Y-58376191D01*
X171695238Y-58471429D01*
X171790476Y-58566667D01*
X171838095Y-58661905D01*
X171552381Y-57757143D02*
X171552381Y-57138095D01*
X171933333Y-57471429D01*
X171933333Y-57328571D01*
X171980952Y-57233333D01*
X172028571Y-57185714D01*
X172123810Y-57138095D01*
X172361905Y-57138095D01*
X172457143Y-57185714D01*
X172504762Y-57233333D01*
X172552381Y-57328571D01*
X172552381Y-57614286D01*
X172504762Y-57709524D01*
X172457143Y-57757143D01*
X135157143Y-48457143D02*
X135109524Y-48504762D01*
X134966667Y-48552381D01*
X134871429Y-48552381D01*
X134728571Y-48504762D01*
X134633333Y-48409524D01*
X134585714Y-48314286D01*
X134538095Y-48123810D01*
X134538095Y-47980952D01*
X134585714Y-47790476D01*
X134633333Y-47695238D01*
X134728571Y-47600000D01*
X134871429Y-47552381D01*
X134966667Y-47552381D01*
X135109524Y-47600000D01*
X135157143Y-47647619D01*
X136109524Y-48552381D02*
X135538095Y-48552381D01*
X135823809Y-48552381D02*
X135823809Y-47552381D01*
X135728571Y-47695238D01*
X135633333Y-47790476D01*
X135538095Y-47838095D01*
X137014286Y-47552381D02*
X136538095Y-47552381D01*
X136490476Y-48028571D01*
X136538095Y-47980952D01*
X136633333Y-47933333D01*
X136871429Y-47933333D01*
X136966667Y-47980952D01*
X137014286Y-48028571D01*
X137061905Y-48123810D01*
X137061905Y-48361905D01*
X137014286Y-48457143D01*
X136966667Y-48504762D01*
X136871429Y-48552381D01*
X136633333Y-48552381D01*
X136538095Y-48504762D01*
X136490476Y-48457143D01*
X125357143Y-85457143D02*
X125309524Y-85504762D01*
X125166667Y-85552381D01*
X125071429Y-85552381D01*
X124928571Y-85504762D01*
X124833333Y-85409524D01*
X124785714Y-85314286D01*
X124738095Y-85123810D01*
X124738095Y-84980952D01*
X124785714Y-84790476D01*
X124833333Y-84695238D01*
X124928571Y-84600000D01*
X125071429Y-84552381D01*
X125166667Y-84552381D01*
X125309524Y-84600000D01*
X125357143Y-84647619D01*
X126309524Y-85552381D02*
X125738095Y-85552381D01*
X126023809Y-85552381D02*
X126023809Y-84552381D01*
X125928571Y-84695238D01*
X125833333Y-84790476D01*
X125738095Y-84838095D01*
X126642857Y-84552381D02*
X127309524Y-84552381D01*
X126880952Y-85552381D01*
X156557143Y-85857143D02*
X156509524Y-85904762D01*
X156366667Y-85952381D01*
X156271429Y-85952381D01*
X156128571Y-85904762D01*
X156033333Y-85809524D01*
X155985714Y-85714286D01*
X155938095Y-85523810D01*
X155938095Y-85380952D01*
X155985714Y-85190476D01*
X156033333Y-85095238D01*
X156128571Y-85000000D01*
X156271429Y-84952381D01*
X156366667Y-84952381D01*
X156509524Y-85000000D01*
X156557143Y-85047619D01*
X157509524Y-85952381D02*
X156938095Y-85952381D01*
X157223809Y-85952381D02*
X157223809Y-84952381D01*
X157128571Y-85095238D01*
X157033333Y-85190476D01*
X156938095Y-85238095D01*
X158080952Y-85380952D02*
X157985714Y-85333333D01*
X157938095Y-85285714D01*
X157890476Y-85190476D01*
X157890476Y-85142857D01*
X157938095Y-85047619D01*
X157985714Y-85000000D01*
X158080952Y-84952381D01*
X158271429Y-84952381D01*
X158366667Y-85000000D01*
X158414286Y-85047619D01*
X158461905Y-85142857D01*
X158461905Y-85190476D01*
X158414286Y-85285714D01*
X158366667Y-85333333D01*
X158271429Y-85380952D01*
X158080952Y-85380952D01*
X157985714Y-85428571D01*
X157938095Y-85476190D01*
X157890476Y-85571429D01*
X157890476Y-85761905D01*
X157938095Y-85857143D01*
X157985714Y-85904762D01*
X158080952Y-85952381D01*
X158271429Y-85952381D01*
X158366667Y-85904762D01*
X158414286Y-85857143D01*
X158461905Y-85761905D01*
X158461905Y-85571429D01*
X158414286Y-85476190D01*
X158366667Y-85428571D01*
X158271429Y-85380952D01*
X93557143Y-124657143D02*
X93509524Y-124704762D01*
X93366667Y-124752381D01*
X93271429Y-124752381D01*
X93128571Y-124704762D01*
X93033333Y-124609524D01*
X92985714Y-124514286D01*
X92938095Y-124323810D01*
X92938095Y-124180952D01*
X92985714Y-123990476D01*
X93033333Y-123895238D01*
X93128571Y-123800000D01*
X93271429Y-123752381D01*
X93366667Y-123752381D01*
X93509524Y-123800000D01*
X93557143Y-123847619D01*
X94509524Y-124752381D02*
X93938095Y-124752381D01*
X94223809Y-124752381D02*
X94223809Y-123752381D01*
X94128571Y-123895238D01*
X94033333Y-123990476D01*
X93938095Y-124038095D01*
X94985714Y-124752381D02*
X95176190Y-124752381D01*
X95271429Y-124704762D01*
X95319048Y-124657143D01*
X95414286Y-124514286D01*
X95461905Y-124323810D01*
X95461905Y-123942857D01*
X95414286Y-123847619D01*
X95366667Y-123800000D01*
X95271429Y-123752381D01*
X95080952Y-123752381D01*
X94985714Y-123800000D01*
X94938095Y-123847619D01*
X94890476Y-123942857D01*
X94890476Y-124180952D01*
X94938095Y-124276190D01*
X94985714Y-124323810D01*
X95080952Y-124371429D01*
X95271429Y-124371429D01*
X95366667Y-124323810D01*
X95414286Y-124276190D01*
X95461905Y-124180952D01*
X124957143Y-125057143D02*
X124909524Y-125104762D01*
X124766667Y-125152381D01*
X124671429Y-125152381D01*
X124528571Y-125104762D01*
X124433333Y-125009524D01*
X124385714Y-124914286D01*
X124338095Y-124723810D01*
X124338095Y-124580952D01*
X124385714Y-124390476D01*
X124433333Y-124295238D01*
X124528571Y-124200000D01*
X124671429Y-124152381D01*
X124766667Y-124152381D01*
X124909524Y-124200000D01*
X124957143Y-124247619D01*
X125338095Y-124247619D02*
X125385714Y-124200000D01*
X125480952Y-124152381D01*
X125719048Y-124152381D01*
X125814286Y-124200000D01*
X125861905Y-124247619D01*
X125909524Y-124342857D01*
X125909524Y-124438095D01*
X125861905Y-124580952D01*
X125290476Y-125152381D01*
X125909524Y-125152381D01*
X126528571Y-124152381D02*
X126623810Y-124152381D01*
X126719048Y-124200000D01*
X126766667Y-124247619D01*
X126814286Y-124342857D01*
X126861905Y-124533333D01*
X126861905Y-124771429D01*
X126814286Y-124961905D01*
X126766667Y-125057143D01*
X126719048Y-125104762D01*
X126623810Y-125152381D01*
X126528571Y-125152381D01*
X126433333Y-125104762D01*
X126385714Y-125057143D01*
X126338095Y-124961905D01*
X126290476Y-124771429D01*
X126290476Y-124533333D01*
X126338095Y-124342857D01*
X126385714Y-124247619D01*
X126433333Y-124200000D01*
X126528571Y-124152381D01*
X155957143Y-125257143D02*
X155909524Y-125304762D01*
X155766667Y-125352381D01*
X155671429Y-125352381D01*
X155528571Y-125304762D01*
X155433333Y-125209524D01*
X155385714Y-125114286D01*
X155338095Y-124923810D01*
X155338095Y-124780952D01*
X155385714Y-124590476D01*
X155433333Y-124495238D01*
X155528571Y-124400000D01*
X155671429Y-124352381D01*
X155766667Y-124352381D01*
X155909524Y-124400000D01*
X155957143Y-124447619D01*
X156338095Y-124447619D02*
X156385714Y-124400000D01*
X156480952Y-124352381D01*
X156719048Y-124352381D01*
X156814286Y-124400000D01*
X156861905Y-124447619D01*
X156909524Y-124542857D01*
X156909524Y-124638095D01*
X156861905Y-124780952D01*
X156290476Y-125352381D01*
X156909524Y-125352381D01*
X157861905Y-125352381D02*
X157290476Y-125352381D01*
X157576190Y-125352381D02*
X157576190Y-124352381D01*
X157480952Y-124495238D01*
X157385714Y-124590476D01*
X157290476Y-124638095D01*
X94357143Y-97257143D02*
X94309524Y-97304762D01*
X94166667Y-97352381D01*
X94071429Y-97352381D01*
X93928571Y-97304762D01*
X93833333Y-97209524D01*
X93785714Y-97114286D01*
X93738095Y-96923810D01*
X93738095Y-96780952D01*
X93785714Y-96590476D01*
X93833333Y-96495238D01*
X93928571Y-96400000D01*
X94071429Y-96352381D01*
X94166667Y-96352381D01*
X94309524Y-96400000D01*
X94357143Y-96447619D01*
X94738095Y-96447619D02*
X94785714Y-96400000D01*
X94880952Y-96352381D01*
X95119048Y-96352381D01*
X95214286Y-96400000D01*
X95261905Y-96447619D01*
X95309524Y-96542857D01*
X95309524Y-96638095D01*
X95261905Y-96780952D01*
X94690476Y-97352381D01*
X95309524Y-97352381D01*
X95690476Y-96447619D02*
X95738095Y-96400000D01*
X95833333Y-96352381D01*
X96071429Y-96352381D01*
X96166667Y-96400000D01*
X96214286Y-96447619D01*
X96261905Y-96542857D01*
X96261905Y-96638095D01*
X96214286Y-96780952D01*
X95642857Y-97352381D01*
X96261905Y-97352381D01*
X124357143Y-97457143D02*
X124309524Y-97504762D01*
X124166667Y-97552381D01*
X124071429Y-97552381D01*
X123928571Y-97504762D01*
X123833333Y-97409524D01*
X123785714Y-97314286D01*
X123738095Y-97123810D01*
X123738095Y-96980952D01*
X123785714Y-96790476D01*
X123833333Y-96695238D01*
X123928571Y-96600000D01*
X124071429Y-96552381D01*
X124166667Y-96552381D01*
X124309524Y-96600000D01*
X124357143Y-96647619D01*
X124738095Y-96647619D02*
X124785714Y-96600000D01*
X124880952Y-96552381D01*
X125119048Y-96552381D01*
X125214286Y-96600000D01*
X125261905Y-96647619D01*
X125309524Y-96742857D01*
X125309524Y-96838095D01*
X125261905Y-96980952D01*
X124690476Y-97552381D01*
X125309524Y-97552381D01*
X125642857Y-96552381D02*
X126261905Y-96552381D01*
X125928571Y-96933333D01*
X126071429Y-96933333D01*
X126166667Y-96980952D01*
X126214286Y-97028571D01*
X126261905Y-97123810D01*
X126261905Y-97361905D01*
X126214286Y-97457143D01*
X126166667Y-97504762D01*
X126071429Y-97552381D01*
X125785714Y-97552381D01*
X125690476Y-97504762D01*
X125642857Y-97457143D01*
X91557143Y-136057143D02*
X91509524Y-136104762D01*
X91366667Y-136152381D01*
X91271429Y-136152381D01*
X91128571Y-136104762D01*
X91033333Y-136009524D01*
X90985714Y-135914286D01*
X90938095Y-135723810D01*
X90938095Y-135580952D01*
X90985714Y-135390476D01*
X91033333Y-135295238D01*
X91128571Y-135200000D01*
X91271429Y-135152381D01*
X91366667Y-135152381D01*
X91509524Y-135200000D01*
X91557143Y-135247619D01*
X91938095Y-135247619D02*
X91985714Y-135200000D01*
X92080952Y-135152381D01*
X92319048Y-135152381D01*
X92414286Y-135200000D01*
X92461905Y-135247619D01*
X92509524Y-135342857D01*
X92509524Y-135438095D01*
X92461905Y-135580952D01*
X91890476Y-136152381D01*
X92509524Y-136152381D01*
X93414286Y-135152381D02*
X92938095Y-135152381D01*
X92890476Y-135628571D01*
X92938095Y-135580952D01*
X93033333Y-135533333D01*
X93271429Y-135533333D01*
X93366667Y-135580952D01*
X93414286Y-135628571D01*
X93461905Y-135723810D01*
X93461905Y-135961905D01*
X93414286Y-136057143D01*
X93366667Y-136104762D01*
X93271429Y-136152381D01*
X93033333Y-136152381D01*
X92938095Y-136104762D01*
X92890476Y-136057143D01*
X87833334Y-55152381D02*
X87500000Y-54676190D01*
X87261905Y-55152381D02*
X87261905Y-54152381D01*
X87642858Y-54152381D01*
X87738096Y-54200000D01*
X87785715Y-54247619D01*
X87833334Y-54342857D01*
X87833334Y-54485714D01*
X87785715Y-54580952D01*
X87738096Y-54628571D01*
X87642858Y-54676190D01*
X87261905Y-54676190D01*
X88785715Y-55152381D02*
X88214286Y-55152381D01*
X88500000Y-55152381D02*
X88500000Y-54152381D01*
X88404762Y-54295238D01*
X88309524Y-54390476D01*
X88214286Y-54438095D01*
X86633334Y-46152381D02*
X86300000Y-45676190D01*
X86061905Y-46152381D02*
X86061905Y-45152381D01*
X86442858Y-45152381D01*
X86538096Y-45200000D01*
X86585715Y-45247619D01*
X86633334Y-45342857D01*
X86633334Y-45485714D01*
X86585715Y-45580952D01*
X86538096Y-45628571D01*
X86442858Y-45676190D01*
X86061905Y-45676190D01*
X87014286Y-45247619D02*
X87061905Y-45200000D01*
X87157143Y-45152381D01*
X87395239Y-45152381D01*
X87490477Y-45200000D01*
X87538096Y-45247619D01*
X87585715Y-45342857D01*
X87585715Y-45438095D01*
X87538096Y-45580952D01*
X86966667Y-46152381D01*
X87585715Y-46152381D01*
X90752381Y-60766666D02*
X90276190Y-61100000D01*
X90752381Y-61338095D02*
X89752381Y-61338095D01*
X89752381Y-60957142D01*
X89800000Y-60861904D01*
X89847619Y-60814285D01*
X89942857Y-60766666D01*
X90085714Y-60766666D01*
X90180952Y-60814285D01*
X90228571Y-60861904D01*
X90276190Y-60957142D01*
X90276190Y-61338095D01*
X89752381Y-60433333D02*
X89752381Y-59814285D01*
X90133333Y-60147619D01*
X90133333Y-60004761D01*
X90180952Y-59909523D01*
X90228571Y-59861904D01*
X90323810Y-59814285D01*
X90561905Y-59814285D01*
X90657143Y-59861904D01*
X90704762Y-59909523D01*
X90752381Y-60004761D01*
X90752381Y-60290476D01*
X90704762Y-60385714D01*
X90657143Y-60433333D01*
X93033334Y-39352381D02*
X92700000Y-38876190D01*
X92461905Y-39352381D02*
X92461905Y-38352381D01*
X92842858Y-38352381D01*
X92938096Y-38400000D01*
X92985715Y-38447619D01*
X93033334Y-38542857D01*
X93033334Y-38685714D01*
X92985715Y-38780952D01*
X92938096Y-38828571D01*
X92842858Y-38876190D01*
X92461905Y-38876190D01*
X93890477Y-38685714D02*
X93890477Y-39352381D01*
X93652381Y-38304762D02*
X93414286Y-39019048D01*
X94033334Y-39019048D01*
X126833334Y-37752381D02*
X126500000Y-37276190D01*
X126261905Y-37752381D02*
X126261905Y-36752381D01*
X126642858Y-36752381D01*
X126738096Y-36800000D01*
X126785715Y-36847619D01*
X126833334Y-36942857D01*
X126833334Y-37085714D01*
X126785715Y-37180952D01*
X126738096Y-37228571D01*
X126642858Y-37276190D01*
X126261905Y-37276190D01*
X127738096Y-36752381D02*
X127261905Y-36752381D01*
X127214286Y-37228571D01*
X127261905Y-37180952D01*
X127357143Y-37133333D01*
X127595239Y-37133333D01*
X127690477Y-37180952D01*
X127738096Y-37228571D01*
X127785715Y-37323810D01*
X127785715Y-37561905D01*
X127738096Y-37657143D01*
X127690477Y-37704762D01*
X127595239Y-37752381D01*
X127357143Y-37752381D01*
X127261905Y-37704762D01*
X127214286Y-37657143D01*
X111233334Y-54352381D02*
X110900000Y-53876190D01*
X110661905Y-54352381D02*
X110661905Y-53352381D01*
X111042858Y-53352381D01*
X111138096Y-53400000D01*
X111185715Y-53447619D01*
X111233334Y-53542857D01*
X111233334Y-53685714D01*
X111185715Y-53780952D01*
X111138096Y-53828571D01*
X111042858Y-53876190D01*
X110661905Y-53876190D01*
X112090477Y-53352381D02*
X111900000Y-53352381D01*
X111804762Y-53400000D01*
X111757143Y-53447619D01*
X111661905Y-53590476D01*
X111614286Y-53780952D01*
X111614286Y-54161905D01*
X111661905Y-54257143D01*
X111709524Y-54304762D01*
X111804762Y-54352381D01*
X111995239Y-54352381D01*
X112090477Y-54304762D01*
X112138096Y-54257143D01*
X112185715Y-54161905D01*
X112185715Y-53923810D01*
X112138096Y-53828571D01*
X112090477Y-53780952D01*
X111995239Y-53733333D01*
X111804762Y-53733333D01*
X111709524Y-53780952D01*
X111661905Y-53828571D01*
X111614286Y-53923810D01*
X99633334Y-43952381D02*
X99300000Y-43476190D01*
X99061905Y-43952381D02*
X99061905Y-42952381D01*
X99442858Y-42952381D01*
X99538096Y-43000000D01*
X99585715Y-43047619D01*
X99633334Y-43142857D01*
X99633334Y-43285714D01*
X99585715Y-43380952D01*
X99538096Y-43428571D01*
X99442858Y-43476190D01*
X99061905Y-43476190D01*
X99966667Y-42952381D02*
X100633334Y-42952381D01*
X100204762Y-43952381D01*
X137033334Y-47352381D02*
X136700000Y-46876190D01*
X136461905Y-47352381D02*
X136461905Y-46352381D01*
X136842858Y-46352381D01*
X136938096Y-46400000D01*
X136985715Y-46447619D01*
X137033334Y-46542857D01*
X137033334Y-46685714D01*
X136985715Y-46780952D01*
X136938096Y-46828571D01*
X136842858Y-46876190D01*
X136461905Y-46876190D01*
X137604762Y-46780952D02*
X137509524Y-46733333D01*
X137461905Y-46685714D01*
X137414286Y-46590476D01*
X137414286Y-46542857D01*
X137461905Y-46447619D01*
X137509524Y-46400000D01*
X137604762Y-46352381D01*
X137795239Y-46352381D01*
X137890477Y-46400000D01*
X137938096Y-46447619D01*
X137985715Y-46542857D01*
X137985715Y-46590476D01*
X137938096Y-46685714D01*
X137890477Y-46733333D01*
X137795239Y-46780952D01*
X137604762Y-46780952D01*
X137509524Y-46828571D01*
X137461905Y-46876190D01*
X137414286Y-46971429D01*
X137414286Y-47161905D01*
X137461905Y-47257143D01*
X137509524Y-47304762D01*
X137604762Y-47352381D01*
X137795239Y-47352381D01*
X137890477Y-47304762D01*
X137938096Y-47257143D01*
X137985715Y-47161905D01*
X137985715Y-46971429D01*
X137938096Y-46876190D01*
X137890477Y-46828571D01*
X137795239Y-46780952D01*
X106033334Y-43952381D02*
X105700000Y-43476190D01*
X105461905Y-43952381D02*
X105461905Y-42952381D01*
X105842858Y-42952381D01*
X105938096Y-43000000D01*
X105985715Y-43047619D01*
X106033334Y-43142857D01*
X106033334Y-43285714D01*
X105985715Y-43380952D01*
X105938096Y-43428571D01*
X105842858Y-43476190D01*
X105461905Y-43476190D01*
X106509524Y-43952381D02*
X106700000Y-43952381D01*
X106795239Y-43904762D01*
X106842858Y-43857143D01*
X106938096Y-43714286D01*
X106985715Y-43523810D01*
X106985715Y-43142857D01*
X106938096Y-43047619D01*
X106890477Y-43000000D01*
X106795239Y-42952381D01*
X106604762Y-42952381D01*
X106509524Y-43000000D01*
X106461905Y-43047619D01*
X106414286Y-43142857D01*
X106414286Y-43380952D01*
X106461905Y-43476190D01*
X106509524Y-43523810D01*
X106604762Y-43571429D01*
X106795239Y-43571429D01*
X106890477Y-43523810D01*
X106938096Y-43476190D01*
X106985715Y-43380952D01*
X143757143Y-47152381D02*
X143423809Y-46676190D01*
X143185714Y-47152381D02*
X143185714Y-46152381D01*
X143566667Y-46152381D01*
X143661905Y-46200000D01*
X143709524Y-46247619D01*
X143757143Y-46342857D01*
X143757143Y-46485714D01*
X143709524Y-46580952D01*
X143661905Y-46628571D01*
X143566667Y-46676190D01*
X143185714Y-46676190D01*
X144709524Y-47152381D02*
X144138095Y-47152381D01*
X144423809Y-47152381D02*
X144423809Y-46152381D01*
X144328571Y-46295238D01*
X144233333Y-46390476D01*
X144138095Y-46438095D01*
X145328571Y-46152381D02*
X145423810Y-46152381D01*
X145519048Y-46200000D01*
X145566667Y-46247619D01*
X145614286Y-46342857D01*
X145661905Y-46533333D01*
X145661905Y-46771429D01*
X145614286Y-46961905D01*
X145566667Y-47057143D01*
X145519048Y-47104762D01*
X145423810Y-47152381D01*
X145328571Y-47152381D01*
X145233333Y-47104762D01*
X145185714Y-47057143D01*
X145138095Y-46961905D01*
X145090476Y-46771429D01*
X145090476Y-46533333D01*
X145138095Y-46342857D01*
X145185714Y-46247619D01*
X145233333Y-46200000D01*
X145328571Y-46152381D01*
X120157143Y-43952381D02*
X119823809Y-43476190D01*
X119585714Y-43952381D02*
X119585714Y-42952381D01*
X119966667Y-42952381D01*
X120061905Y-43000000D01*
X120109524Y-43047619D01*
X120157143Y-43142857D01*
X120157143Y-43285714D01*
X120109524Y-43380952D01*
X120061905Y-43428571D01*
X119966667Y-43476190D01*
X119585714Y-43476190D01*
X121109524Y-43952381D02*
X120538095Y-43952381D01*
X120823809Y-43952381D02*
X120823809Y-42952381D01*
X120728571Y-43095238D01*
X120633333Y-43190476D01*
X120538095Y-43238095D01*
X122061905Y-43952381D02*
X121490476Y-43952381D01*
X121776190Y-43952381D02*
X121776190Y-42952381D01*
X121680952Y-43095238D01*
X121585714Y-43190476D01*
X121490476Y-43238095D01*
X145357143Y-65152381D02*
X145023809Y-64676190D01*
X144785714Y-65152381D02*
X144785714Y-64152381D01*
X145166667Y-64152381D01*
X145261905Y-64200000D01*
X145309524Y-64247619D01*
X145357143Y-64342857D01*
X145357143Y-64485714D01*
X145309524Y-64580952D01*
X145261905Y-64628571D01*
X145166667Y-64676190D01*
X144785714Y-64676190D01*
X146309524Y-65152381D02*
X145738095Y-65152381D01*
X146023809Y-65152381D02*
X146023809Y-64152381D01*
X145928571Y-64295238D01*
X145833333Y-64390476D01*
X145738095Y-64438095D01*
X146690476Y-64247619D02*
X146738095Y-64200000D01*
X146833333Y-64152381D01*
X147071429Y-64152381D01*
X147166667Y-64200000D01*
X147214286Y-64247619D01*
X147261905Y-64342857D01*
X147261905Y-64438095D01*
X147214286Y-64580952D01*
X146642857Y-65152381D01*
X147261905Y-65152381D01*
X156957143Y-66152381D02*
X156623809Y-65676190D01*
X156385714Y-66152381D02*
X156385714Y-65152381D01*
X156766667Y-65152381D01*
X156861905Y-65200000D01*
X156909524Y-65247619D01*
X156957143Y-65342857D01*
X156957143Y-65485714D01*
X156909524Y-65580952D01*
X156861905Y-65628571D01*
X156766667Y-65676190D01*
X156385714Y-65676190D01*
X157909524Y-66152381D02*
X157338095Y-66152381D01*
X157623809Y-66152381D02*
X157623809Y-65152381D01*
X157528571Y-65295238D01*
X157433333Y-65390476D01*
X157338095Y-65438095D01*
X158242857Y-65152381D02*
X158861905Y-65152381D01*
X158528571Y-65533333D01*
X158671429Y-65533333D01*
X158766667Y-65580952D01*
X158814286Y-65628571D01*
X158861905Y-65723810D01*
X158861905Y-65961905D01*
X158814286Y-66057143D01*
X158766667Y-66104762D01*
X158671429Y-66152381D01*
X158385714Y-66152381D01*
X158290476Y-66104762D01*
X158242857Y-66057143D01*
X150757143Y-66152381D02*
X150423809Y-65676190D01*
X150185714Y-66152381D02*
X150185714Y-65152381D01*
X150566667Y-65152381D01*
X150661905Y-65200000D01*
X150709524Y-65247619D01*
X150757143Y-65342857D01*
X150757143Y-65485714D01*
X150709524Y-65580952D01*
X150661905Y-65628571D01*
X150566667Y-65676190D01*
X150185714Y-65676190D01*
X151709524Y-66152381D02*
X151138095Y-66152381D01*
X151423809Y-66152381D02*
X151423809Y-65152381D01*
X151328571Y-65295238D01*
X151233333Y-65390476D01*
X151138095Y-65438095D01*
X152566667Y-65485714D02*
X152566667Y-66152381D01*
X152328571Y-65104762D02*
X152090476Y-65819048D01*
X152709524Y-65819048D01*
X164157143Y-66152381D02*
X163823809Y-65676190D01*
X163585714Y-66152381D02*
X163585714Y-65152381D01*
X163966667Y-65152381D01*
X164061905Y-65200000D01*
X164109524Y-65247619D01*
X164157143Y-65342857D01*
X164157143Y-65485714D01*
X164109524Y-65580952D01*
X164061905Y-65628571D01*
X163966667Y-65676190D01*
X163585714Y-65676190D01*
X165109524Y-66152381D02*
X164538095Y-66152381D01*
X164823809Y-66152381D02*
X164823809Y-65152381D01*
X164728571Y-65295238D01*
X164633333Y-65390476D01*
X164538095Y-65438095D01*
X166014286Y-65152381D02*
X165538095Y-65152381D01*
X165490476Y-65628571D01*
X165538095Y-65580952D01*
X165633333Y-65533333D01*
X165871429Y-65533333D01*
X165966667Y-65580952D01*
X166014286Y-65628571D01*
X166061905Y-65723810D01*
X166061905Y-65961905D01*
X166014286Y-66057143D01*
X165966667Y-66104762D01*
X165871429Y-66152381D01*
X165633333Y-66152381D01*
X165538095Y-66104762D01*
X165490476Y-66057143D01*
X155357143Y-37952381D02*
X155023809Y-37476190D01*
X154785714Y-37952381D02*
X154785714Y-36952381D01*
X155166667Y-36952381D01*
X155261905Y-37000000D01*
X155309524Y-37047619D01*
X155357143Y-37142857D01*
X155357143Y-37285714D01*
X155309524Y-37380952D01*
X155261905Y-37428571D01*
X155166667Y-37476190D01*
X154785714Y-37476190D01*
X156309524Y-37952381D02*
X155738095Y-37952381D01*
X156023809Y-37952381D02*
X156023809Y-36952381D01*
X155928571Y-37095238D01*
X155833333Y-37190476D01*
X155738095Y-37238095D01*
X157166667Y-36952381D02*
X156976190Y-36952381D01*
X156880952Y-37000000D01*
X156833333Y-37047619D01*
X156738095Y-37190476D01*
X156690476Y-37380952D01*
X156690476Y-37761905D01*
X156738095Y-37857143D01*
X156785714Y-37904762D01*
X156880952Y-37952381D01*
X157071429Y-37952381D01*
X157166667Y-37904762D01*
X157214286Y-37857143D01*
X157261905Y-37761905D01*
X157261905Y-37523810D01*
X157214286Y-37428571D01*
X157166667Y-37380952D01*
X157071429Y-37333333D01*
X156880952Y-37333333D01*
X156785714Y-37380952D01*
X156738095Y-37428571D01*
X156690476Y-37523810D01*
X135157143Y-52352381D02*
X134823809Y-51876190D01*
X134585714Y-52352381D02*
X134585714Y-51352381D01*
X134966667Y-51352381D01*
X135061905Y-51400000D01*
X135109524Y-51447619D01*
X135157143Y-51542857D01*
X135157143Y-51685714D01*
X135109524Y-51780952D01*
X135061905Y-51828571D01*
X134966667Y-51876190D01*
X134585714Y-51876190D01*
X136109524Y-52352381D02*
X135538095Y-52352381D01*
X135823809Y-52352381D02*
X135823809Y-51352381D01*
X135728571Y-51495238D01*
X135633333Y-51590476D01*
X135538095Y-51638095D01*
X136442857Y-51352381D02*
X137109524Y-51352381D01*
X136680952Y-52352381D01*
X136157143Y-65552381D02*
X135823809Y-65076190D01*
X135585714Y-65552381D02*
X135585714Y-64552381D01*
X135966667Y-64552381D01*
X136061905Y-64600000D01*
X136109524Y-64647619D01*
X136157143Y-64742857D01*
X136157143Y-64885714D01*
X136109524Y-64980952D01*
X136061905Y-65028571D01*
X135966667Y-65076190D01*
X135585714Y-65076190D01*
X137109524Y-65552381D02*
X136538095Y-65552381D01*
X136823809Y-65552381D02*
X136823809Y-64552381D01*
X136728571Y-64695238D01*
X136633333Y-64790476D01*
X136538095Y-64838095D01*
X137680952Y-64980952D02*
X137585714Y-64933333D01*
X137538095Y-64885714D01*
X137490476Y-64790476D01*
X137490476Y-64742857D01*
X137538095Y-64647619D01*
X137585714Y-64600000D01*
X137680952Y-64552381D01*
X137871429Y-64552381D01*
X137966667Y-64600000D01*
X138014286Y-64647619D01*
X138061905Y-64742857D01*
X138061905Y-64790476D01*
X138014286Y-64885714D01*
X137966667Y-64933333D01*
X137871429Y-64980952D01*
X137680952Y-64980952D01*
X137585714Y-65028571D01*
X137538095Y-65076190D01*
X137490476Y-65171429D01*
X137490476Y-65361905D01*
X137538095Y-65457143D01*
X137585714Y-65504762D01*
X137680952Y-65552381D01*
X137871429Y-65552381D01*
X137966667Y-65504762D01*
X138014286Y-65457143D01*
X138061905Y-65361905D01*
X138061905Y-65171429D01*
X138014286Y-65076190D01*
X137966667Y-65028571D01*
X137871429Y-64980952D01*
X74566381Y-134138095D02*
X73566381Y-134138095D01*
X73566381Y-133757142D01*
X73614000Y-133661904D01*
X73661619Y-133614285D01*
X73756857Y-133566666D01*
X73899714Y-133566666D01*
X73994952Y-133614285D01*
X74042571Y-133661904D01*
X74090190Y-133757142D01*
X74090190Y-134138095D01*
X73661619Y-133185714D02*
X73614000Y-133138095D01*
X73566381Y-133042857D01*
X73566381Y-132804761D01*
X73614000Y-132709523D01*
X73661619Y-132661904D01*
X73756857Y-132614285D01*
X73852095Y-132614285D01*
X73994952Y-132661904D01*
X74566381Y-133233333D01*
X74566381Y-132614285D01*
X77061905Y-61766381D02*
X77061905Y-60766381D01*
X77442858Y-60766381D01*
X77538096Y-60814000D01*
X77585715Y-60861619D01*
X77633334Y-60956857D01*
X77633334Y-61099714D01*
X77585715Y-61194952D01*
X77538096Y-61242571D01*
X77442858Y-61290190D01*
X77061905Y-61290190D01*
X77966667Y-60766381D02*
X78585715Y-60766381D01*
X78252381Y-61147333D01*
X78395239Y-61147333D01*
X78490477Y-61194952D01*
X78538096Y-61242571D01*
X78585715Y-61337810D01*
X78585715Y-61575905D01*
X78538096Y-61671143D01*
X78490477Y-61718762D01*
X78395239Y-61766381D01*
X78109524Y-61766381D01*
X78014286Y-61718762D01*
X77966667Y-61671143D01*
X123633334Y-64925143D02*
X123585715Y-64972762D01*
X123442858Y-65020381D01*
X123347620Y-65020381D01*
X123204762Y-64972762D01*
X123109524Y-64877524D01*
X123061905Y-64782286D01*
X123014286Y-64591810D01*
X123014286Y-64448952D01*
X123061905Y-64258476D01*
X123109524Y-64163238D01*
X123204762Y-64068000D01*
X123347620Y-64020381D01*
X123442858Y-64020381D01*
X123585715Y-64068000D01*
X123633334Y-64115619D01*
X123966667Y-64020381D02*
X124633334Y-64020381D01*
X124204762Y-65020381D01*
X126464508Y-66671429D02*
X127226413Y-66671429D01*
X126845461Y-67052381D02*
X126845461Y-66290476D01*
X172357143Y-41525143D02*
X172309524Y-41572762D01*
X172166667Y-41620381D01*
X172071429Y-41620381D01*
X171928571Y-41572762D01*
X171833333Y-41477524D01*
X171785714Y-41382286D01*
X171738095Y-41191810D01*
X171738095Y-41048952D01*
X171785714Y-40858476D01*
X171833333Y-40763238D01*
X171928571Y-40668000D01*
X172071429Y-40620381D01*
X172166667Y-40620381D01*
X172309524Y-40668000D01*
X172357143Y-40715619D01*
X173309524Y-41620381D02*
X172738095Y-41620381D01*
X173023809Y-41620381D02*
X173023809Y-40620381D01*
X172928571Y-40763238D01*
X172833333Y-40858476D01*
X172738095Y-40906095D01*
X174166667Y-40953714D02*
X174166667Y-41620381D01*
X173928571Y-40572762D02*
X173690476Y-41287048D01*
X174309524Y-41287048D01*
X175664508Y-43271429D02*
X176426413Y-43271429D01*
X176045461Y-43652381D02*
X176045461Y-42890476D01*
X123757143Y-135857143D02*
X123709524Y-135904762D01*
X123566667Y-135952381D01*
X123471429Y-135952381D01*
X123328571Y-135904762D01*
X123233333Y-135809524D01*
X123185714Y-135714286D01*
X123138095Y-135523810D01*
X123138095Y-135380952D01*
X123185714Y-135190476D01*
X123233333Y-135095238D01*
X123328571Y-135000000D01*
X123471429Y-134952381D01*
X123566667Y-134952381D01*
X123709524Y-135000000D01*
X123757143Y-135047619D01*
X124138095Y-135047619D02*
X124185714Y-135000000D01*
X124280952Y-134952381D01*
X124519048Y-134952381D01*
X124614286Y-135000000D01*
X124661905Y-135047619D01*
X124709524Y-135142857D01*
X124709524Y-135238095D01*
X124661905Y-135380952D01*
X124090476Y-135952381D01*
X124709524Y-135952381D01*
X125566667Y-134952381D02*
X125376190Y-134952381D01*
X125280952Y-135000000D01*
X125233333Y-135047619D01*
X125138095Y-135190476D01*
X125090476Y-135380952D01*
X125090476Y-135761905D01*
X125138095Y-135857143D01*
X125185714Y-135904762D01*
X125280952Y-135952381D01*
X125471429Y-135952381D01*
X125566667Y-135904762D01*
X125614286Y-135857143D01*
X125661905Y-135761905D01*
X125661905Y-135523810D01*
X125614286Y-135428571D01*
X125566667Y-135380952D01*
X125471429Y-135333333D01*
X125280952Y-135333333D01*
X125185714Y-135380952D01*
X125138095Y-135428571D01*
X125090476Y-135523810D01*
X154157143Y-136457143D02*
X154109524Y-136504762D01*
X153966667Y-136552381D01*
X153871429Y-136552381D01*
X153728571Y-136504762D01*
X153633333Y-136409524D01*
X153585714Y-136314286D01*
X153538095Y-136123810D01*
X153538095Y-135980952D01*
X153585714Y-135790476D01*
X153633333Y-135695238D01*
X153728571Y-135600000D01*
X153871429Y-135552381D01*
X153966667Y-135552381D01*
X154109524Y-135600000D01*
X154157143Y-135647619D01*
X154538095Y-135647619D02*
X154585714Y-135600000D01*
X154680952Y-135552381D01*
X154919048Y-135552381D01*
X155014286Y-135600000D01*
X155061905Y-135647619D01*
X155109524Y-135742857D01*
X155109524Y-135838095D01*
X155061905Y-135980952D01*
X154490476Y-136552381D01*
X155109524Y-136552381D01*
X155442857Y-135552381D02*
X156109524Y-135552381D01*
X155680952Y-136552381D01*
X99957143Y-97257143D02*
X99909524Y-97304762D01*
X99766667Y-97352381D01*
X99671429Y-97352381D01*
X99528571Y-97304762D01*
X99433333Y-97209524D01*
X99385714Y-97114286D01*
X99338095Y-96923810D01*
X99338095Y-96780952D01*
X99385714Y-96590476D01*
X99433333Y-96495238D01*
X99528571Y-96400000D01*
X99671429Y-96352381D01*
X99766667Y-96352381D01*
X99909524Y-96400000D01*
X99957143Y-96447619D01*
X100338095Y-96447619D02*
X100385714Y-96400000D01*
X100480952Y-96352381D01*
X100719048Y-96352381D01*
X100814286Y-96400000D01*
X100861905Y-96447619D01*
X100909524Y-96542857D01*
X100909524Y-96638095D01*
X100861905Y-96780952D01*
X100290476Y-97352381D01*
X100909524Y-97352381D01*
X101480952Y-96780952D02*
X101385714Y-96733333D01*
X101338095Y-96685714D01*
X101290476Y-96590476D01*
X101290476Y-96542857D01*
X101338095Y-96447619D01*
X101385714Y-96400000D01*
X101480952Y-96352381D01*
X101671429Y-96352381D01*
X101766667Y-96400000D01*
X101814286Y-96447619D01*
X101861905Y-96542857D01*
X101861905Y-96590476D01*
X101814286Y-96685714D01*
X101766667Y-96733333D01*
X101671429Y-96780952D01*
X101480952Y-96780952D01*
X101385714Y-96828571D01*
X101338095Y-96876190D01*
X101290476Y-96971429D01*
X101290476Y-97161905D01*
X101338095Y-97257143D01*
X101385714Y-97304762D01*
X101480952Y-97352381D01*
X101671429Y-97352381D01*
X101766667Y-97304762D01*
X101814286Y-97257143D01*
X101861905Y-97161905D01*
X101861905Y-96971429D01*
X101814286Y-96876190D01*
X101766667Y-96828571D01*
X101671429Y-96780952D01*
X130557143Y-97257143D02*
X130509524Y-97304762D01*
X130366667Y-97352381D01*
X130271429Y-97352381D01*
X130128571Y-97304762D01*
X130033333Y-97209524D01*
X129985714Y-97114286D01*
X129938095Y-96923810D01*
X129938095Y-96780952D01*
X129985714Y-96590476D01*
X130033333Y-96495238D01*
X130128571Y-96400000D01*
X130271429Y-96352381D01*
X130366667Y-96352381D01*
X130509524Y-96400000D01*
X130557143Y-96447619D01*
X130938095Y-96447619D02*
X130985714Y-96400000D01*
X131080952Y-96352381D01*
X131319048Y-96352381D01*
X131414286Y-96400000D01*
X131461905Y-96447619D01*
X131509524Y-96542857D01*
X131509524Y-96638095D01*
X131461905Y-96780952D01*
X130890476Y-97352381D01*
X131509524Y-97352381D01*
X131985714Y-97352381D02*
X132176190Y-97352381D01*
X132271429Y-97304762D01*
X132319048Y-97257143D01*
X132414286Y-97114286D01*
X132461905Y-96923810D01*
X132461905Y-96542857D01*
X132414286Y-96447619D01*
X132366667Y-96400000D01*
X132271429Y-96352381D01*
X132080952Y-96352381D01*
X131985714Y-96400000D01*
X131938095Y-96447619D01*
X131890476Y-96542857D01*
X131890476Y-96780952D01*
X131938095Y-96876190D01*
X131985714Y-96923810D01*
X132080952Y-96971429D01*
X132271429Y-96971429D01*
X132366667Y-96923810D01*
X132414286Y-96876190D01*
X132461905Y-96780952D01*
X161157143Y-96857143D02*
X161109524Y-96904762D01*
X160966667Y-96952381D01*
X160871429Y-96952381D01*
X160728571Y-96904762D01*
X160633333Y-96809524D01*
X160585714Y-96714286D01*
X160538095Y-96523810D01*
X160538095Y-96380952D01*
X160585714Y-96190476D01*
X160633333Y-96095238D01*
X160728571Y-96000000D01*
X160871429Y-95952381D01*
X160966667Y-95952381D01*
X161109524Y-96000000D01*
X161157143Y-96047619D01*
X161490476Y-95952381D02*
X162109524Y-95952381D01*
X161776190Y-96333333D01*
X161919048Y-96333333D01*
X162014286Y-96380952D01*
X162061905Y-96428571D01*
X162109524Y-96523810D01*
X162109524Y-96761905D01*
X162061905Y-96857143D01*
X162014286Y-96904762D01*
X161919048Y-96952381D01*
X161633333Y-96952381D01*
X161538095Y-96904762D01*
X161490476Y-96857143D01*
X162728571Y-95952381D02*
X162823810Y-95952381D01*
X162919048Y-96000000D01*
X162966667Y-96047619D01*
X163014286Y-96142857D01*
X163061905Y-96333333D01*
X163061905Y-96571429D01*
X163014286Y-96761905D01*
X162966667Y-96857143D01*
X162919048Y-96904762D01*
X162823810Y-96952381D01*
X162728571Y-96952381D01*
X162633333Y-96904762D01*
X162585714Y-96857143D01*
X162538095Y-96761905D01*
X162490476Y-96571429D01*
X162490476Y-96333333D01*
X162538095Y-96142857D01*
X162585714Y-96047619D01*
X162633333Y-96000000D01*
X162728571Y-95952381D01*
X97757143Y-136257143D02*
X97709524Y-136304762D01*
X97566667Y-136352381D01*
X97471429Y-136352381D01*
X97328571Y-136304762D01*
X97233333Y-136209524D01*
X97185714Y-136114286D01*
X97138095Y-135923810D01*
X97138095Y-135780952D01*
X97185714Y-135590476D01*
X97233333Y-135495238D01*
X97328571Y-135400000D01*
X97471429Y-135352381D01*
X97566667Y-135352381D01*
X97709524Y-135400000D01*
X97757143Y-135447619D01*
X98090476Y-135352381D02*
X98709524Y-135352381D01*
X98376190Y-135733333D01*
X98519048Y-135733333D01*
X98614286Y-135780952D01*
X98661905Y-135828571D01*
X98709524Y-135923810D01*
X98709524Y-136161905D01*
X98661905Y-136257143D01*
X98614286Y-136304762D01*
X98519048Y-136352381D01*
X98233333Y-136352381D01*
X98138095Y-136304762D01*
X98090476Y-136257143D01*
X99661905Y-136352381D02*
X99090476Y-136352381D01*
X99376190Y-136352381D02*
X99376190Y-135352381D01*
X99280952Y-135495238D01*
X99185714Y-135590476D01*
X99090476Y-135638095D01*
X129557143Y-135857143D02*
X129509524Y-135904762D01*
X129366667Y-135952381D01*
X129271429Y-135952381D01*
X129128571Y-135904762D01*
X129033333Y-135809524D01*
X128985714Y-135714286D01*
X128938095Y-135523810D01*
X128938095Y-135380952D01*
X128985714Y-135190476D01*
X129033333Y-135095238D01*
X129128571Y-135000000D01*
X129271429Y-134952381D01*
X129366667Y-134952381D01*
X129509524Y-135000000D01*
X129557143Y-135047619D01*
X129890476Y-134952381D02*
X130509524Y-134952381D01*
X130176190Y-135333333D01*
X130319048Y-135333333D01*
X130414286Y-135380952D01*
X130461905Y-135428571D01*
X130509524Y-135523810D01*
X130509524Y-135761905D01*
X130461905Y-135857143D01*
X130414286Y-135904762D01*
X130319048Y-135952381D01*
X130033333Y-135952381D01*
X129938095Y-135904762D01*
X129890476Y-135857143D01*
X130890476Y-135047619D02*
X130938095Y-135000000D01*
X131033333Y-134952381D01*
X131271429Y-134952381D01*
X131366667Y-135000000D01*
X131414286Y-135047619D01*
X131461905Y-135142857D01*
X131461905Y-135238095D01*
X131414286Y-135380952D01*
X130842857Y-135952381D01*
X131461905Y-135952381D01*
X160157143Y-136457143D02*
X160109524Y-136504762D01*
X159966667Y-136552381D01*
X159871429Y-136552381D01*
X159728571Y-136504762D01*
X159633333Y-136409524D01*
X159585714Y-136314286D01*
X159538095Y-136123810D01*
X159538095Y-135980952D01*
X159585714Y-135790476D01*
X159633333Y-135695238D01*
X159728571Y-135600000D01*
X159871429Y-135552381D01*
X159966667Y-135552381D01*
X160109524Y-135600000D01*
X160157143Y-135647619D01*
X160490476Y-135552381D02*
X161109524Y-135552381D01*
X160776190Y-135933333D01*
X160919048Y-135933333D01*
X161014286Y-135980952D01*
X161061905Y-136028571D01*
X161109524Y-136123810D01*
X161109524Y-136361905D01*
X161061905Y-136457143D01*
X161014286Y-136504762D01*
X160919048Y-136552381D01*
X160633333Y-136552381D01*
X160538095Y-136504762D01*
X160490476Y-136457143D01*
X161442857Y-135552381D02*
X162061905Y-135552381D01*
X161728571Y-135933333D01*
X161871429Y-135933333D01*
X161966667Y-135980952D01*
X162014286Y-136028571D01*
X162061905Y-136123810D01*
X162061905Y-136361905D01*
X162014286Y-136457143D01*
X161966667Y-136504762D01*
X161871429Y-136552381D01*
X161585714Y-136552381D01*
X161490476Y-136504762D01*
X161442857Y-136457143D01*
X105757143Y-97457143D02*
X105709524Y-97504762D01*
X105566667Y-97552381D01*
X105471429Y-97552381D01*
X105328571Y-97504762D01*
X105233333Y-97409524D01*
X105185714Y-97314286D01*
X105138095Y-97123810D01*
X105138095Y-96980952D01*
X105185714Y-96790476D01*
X105233333Y-96695238D01*
X105328571Y-96600000D01*
X105471429Y-96552381D01*
X105566667Y-96552381D01*
X105709524Y-96600000D01*
X105757143Y-96647619D01*
X106090476Y-96552381D02*
X106709524Y-96552381D01*
X106376190Y-96933333D01*
X106519048Y-96933333D01*
X106614286Y-96980952D01*
X106661905Y-97028571D01*
X106709524Y-97123810D01*
X106709524Y-97361905D01*
X106661905Y-97457143D01*
X106614286Y-97504762D01*
X106519048Y-97552381D01*
X106233333Y-97552381D01*
X106138095Y-97504762D01*
X106090476Y-97457143D01*
X107566667Y-96885714D02*
X107566667Y-97552381D01*
X107328571Y-96504762D02*
X107090476Y-97219048D01*
X107709524Y-97219048D01*
X136757143Y-97257143D02*
X136709524Y-97304762D01*
X136566667Y-97352381D01*
X136471429Y-97352381D01*
X136328571Y-97304762D01*
X136233333Y-97209524D01*
X136185714Y-97114286D01*
X136138095Y-96923810D01*
X136138095Y-96780952D01*
X136185714Y-96590476D01*
X136233333Y-96495238D01*
X136328571Y-96400000D01*
X136471429Y-96352381D01*
X136566667Y-96352381D01*
X136709524Y-96400000D01*
X136757143Y-96447619D01*
X137090476Y-96352381D02*
X137709524Y-96352381D01*
X137376190Y-96733333D01*
X137519048Y-96733333D01*
X137614286Y-96780952D01*
X137661905Y-96828571D01*
X137709524Y-96923810D01*
X137709524Y-97161905D01*
X137661905Y-97257143D01*
X137614286Y-97304762D01*
X137519048Y-97352381D01*
X137233333Y-97352381D01*
X137138095Y-97304762D01*
X137090476Y-97257143D01*
X138614286Y-96352381D02*
X138138095Y-96352381D01*
X138090476Y-96828571D01*
X138138095Y-96780952D01*
X138233333Y-96733333D01*
X138471429Y-96733333D01*
X138566667Y-96780952D01*
X138614286Y-96828571D01*
X138661905Y-96923810D01*
X138661905Y-97161905D01*
X138614286Y-97257143D01*
X138566667Y-97304762D01*
X138471429Y-97352381D01*
X138233333Y-97352381D01*
X138138095Y-97304762D01*
X138090476Y-97257143D01*
X167357143Y-96857143D02*
X167309524Y-96904762D01*
X167166667Y-96952381D01*
X167071429Y-96952381D01*
X166928571Y-96904762D01*
X166833333Y-96809524D01*
X166785714Y-96714286D01*
X166738095Y-96523810D01*
X166738095Y-96380952D01*
X166785714Y-96190476D01*
X166833333Y-96095238D01*
X166928571Y-96000000D01*
X167071429Y-95952381D01*
X167166667Y-95952381D01*
X167309524Y-96000000D01*
X167357143Y-96047619D01*
X167690476Y-95952381D02*
X168309524Y-95952381D01*
X167976190Y-96333333D01*
X168119048Y-96333333D01*
X168214286Y-96380952D01*
X168261905Y-96428571D01*
X168309524Y-96523810D01*
X168309524Y-96761905D01*
X168261905Y-96857143D01*
X168214286Y-96904762D01*
X168119048Y-96952381D01*
X167833333Y-96952381D01*
X167738095Y-96904762D01*
X167690476Y-96857143D01*
X169166667Y-95952381D02*
X168976190Y-95952381D01*
X168880952Y-96000000D01*
X168833333Y-96047619D01*
X168738095Y-96190476D01*
X168690476Y-96380952D01*
X168690476Y-96761905D01*
X168738095Y-96857143D01*
X168785714Y-96904762D01*
X168880952Y-96952381D01*
X169071429Y-96952381D01*
X169166667Y-96904762D01*
X169214286Y-96857143D01*
X169261905Y-96761905D01*
X169261905Y-96523810D01*
X169214286Y-96428571D01*
X169166667Y-96380952D01*
X169071429Y-96333333D01*
X168880952Y-96333333D01*
X168785714Y-96380952D01*
X168738095Y-96428571D01*
X168690476Y-96523810D01*
X105157143Y-136257143D02*
X105109524Y-136304762D01*
X104966667Y-136352381D01*
X104871429Y-136352381D01*
X104728571Y-136304762D01*
X104633333Y-136209524D01*
X104585714Y-136114286D01*
X104538095Y-135923810D01*
X104538095Y-135780952D01*
X104585714Y-135590476D01*
X104633333Y-135495238D01*
X104728571Y-135400000D01*
X104871429Y-135352381D01*
X104966667Y-135352381D01*
X105109524Y-135400000D01*
X105157143Y-135447619D01*
X105490476Y-135352381D02*
X106109524Y-135352381D01*
X105776190Y-135733333D01*
X105919048Y-135733333D01*
X106014286Y-135780952D01*
X106061905Y-135828571D01*
X106109524Y-135923810D01*
X106109524Y-136161905D01*
X106061905Y-136257143D01*
X106014286Y-136304762D01*
X105919048Y-136352381D01*
X105633333Y-136352381D01*
X105538095Y-136304762D01*
X105490476Y-136257143D01*
X106442857Y-135352381D02*
X107109524Y-135352381D01*
X106680952Y-136352381D01*
X137357143Y-135657143D02*
X137309524Y-135704762D01*
X137166667Y-135752381D01*
X137071429Y-135752381D01*
X136928571Y-135704762D01*
X136833333Y-135609524D01*
X136785714Y-135514286D01*
X136738095Y-135323810D01*
X136738095Y-135180952D01*
X136785714Y-134990476D01*
X136833333Y-134895238D01*
X136928571Y-134800000D01*
X137071429Y-134752381D01*
X137166667Y-134752381D01*
X137309524Y-134800000D01*
X137357143Y-134847619D01*
X137690476Y-134752381D02*
X138309524Y-134752381D01*
X137976190Y-135133333D01*
X138119048Y-135133333D01*
X138214286Y-135180952D01*
X138261905Y-135228571D01*
X138309524Y-135323810D01*
X138309524Y-135561905D01*
X138261905Y-135657143D01*
X138214286Y-135704762D01*
X138119048Y-135752381D01*
X137833333Y-135752381D01*
X137738095Y-135704762D01*
X137690476Y-135657143D01*
X138880952Y-135180952D02*
X138785714Y-135133333D01*
X138738095Y-135085714D01*
X138690476Y-134990476D01*
X138690476Y-134942857D01*
X138738095Y-134847619D01*
X138785714Y-134800000D01*
X138880952Y-134752381D01*
X139071429Y-134752381D01*
X139166667Y-134800000D01*
X139214286Y-134847619D01*
X139261905Y-134942857D01*
X139261905Y-134990476D01*
X139214286Y-135085714D01*
X139166667Y-135133333D01*
X139071429Y-135180952D01*
X138880952Y-135180952D01*
X138785714Y-135228571D01*
X138738095Y-135276190D01*
X138690476Y-135371429D01*
X138690476Y-135561905D01*
X138738095Y-135657143D01*
X138785714Y-135704762D01*
X138880952Y-135752381D01*
X139071429Y-135752381D01*
X139166667Y-135704762D01*
X139214286Y-135657143D01*
X139261905Y-135561905D01*
X139261905Y-135371429D01*
X139214286Y-135276190D01*
X139166667Y-135228571D01*
X139071429Y-135180952D01*
X165757143Y-136457143D02*
X165709524Y-136504762D01*
X165566667Y-136552381D01*
X165471429Y-136552381D01*
X165328571Y-136504762D01*
X165233333Y-136409524D01*
X165185714Y-136314286D01*
X165138095Y-136123810D01*
X165138095Y-135980952D01*
X165185714Y-135790476D01*
X165233333Y-135695238D01*
X165328571Y-135600000D01*
X165471429Y-135552381D01*
X165566667Y-135552381D01*
X165709524Y-135600000D01*
X165757143Y-135647619D01*
X166090476Y-135552381D02*
X166709524Y-135552381D01*
X166376190Y-135933333D01*
X166519048Y-135933333D01*
X166614286Y-135980952D01*
X166661905Y-136028571D01*
X166709524Y-136123810D01*
X166709524Y-136361905D01*
X166661905Y-136457143D01*
X166614286Y-136504762D01*
X166519048Y-136552381D01*
X166233333Y-136552381D01*
X166138095Y-136504762D01*
X166090476Y-136457143D01*
X167185714Y-136552381D02*
X167376190Y-136552381D01*
X167471429Y-136504762D01*
X167519048Y-136457143D01*
X167614286Y-136314286D01*
X167661905Y-136123810D01*
X167661905Y-135742857D01*
X167614286Y-135647619D01*
X167566667Y-135600000D01*
X167471429Y-135552381D01*
X167280952Y-135552381D01*
X167185714Y-135600000D01*
X167138095Y-135647619D01*
X167090476Y-135742857D01*
X167090476Y-135980952D01*
X167138095Y-136076190D01*
X167185714Y-136123810D01*
X167280952Y-136171429D01*
X167471429Y-136171429D01*
X167566667Y-136123810D01*
X167614286Y-136076190D01*
X167661905Y-135980952D01*
X145861905Y-44262381D02*
X145861905Y-43262381D01*
X146100000Y-43262381D01*
X146242858Y-43310000D01*
X146338096Y-43405238D01*
X146385715Y-43500476D01*
X146433334Y-43690952D01*
X146433334Y-43833810D01*
X146385715Y-44024286D01*
X146338096Y-44119524D01*
X146242858Y-44214762D01*
X146100000Y-44262381D01*
X145861905Y-44262381D01*
X146814286Y-43357619D02*
X146861905Y-43310000D01*
X146957143Y-43262381D01*
X147195239Y-43262381D01*
X147290477Y-43310000D01*
X147338096Y-43357619D01*
X147385715Y-43452857D01*
X147385715Y-43548095D01*
X147338096Y-43690952D01*
X146766667Y-44262381D01*
X147385715Y-44262381D01*
X149562305Y-38215947D02*
X150038496Y-38215947D01*
X149467067Y-38501661D02*
X149800400Y-37501661D01*
X150133734Y-38501661D01*
X143338355Y-38501661D02*
X143338355Y-37501661D01*
X143909784Y-38501661D02*
X143481212Y-37930232D01*
X143909784Y-37501661D02*
X143338355Y-38073090D01*
X125663334Y-99142381D02*
X125187143Y-99142381D01*
X125187143Y-98142381D01*
X126044286Y-99142381D02*
X126234762Y-99142381D01*
X126330001Y-99094762D01*
X126377620Y-99047143D01*
X126472858Y-98904286D01*
X126520477Y-98713810D01*
X126520477Y-98332857D01*
X126472858Y-98237619D01*
X126425239Y-98190000D01*
X126330001Y-98142381D01*
X126139524Y-98142381D01*
X126044286Y-98190000D01*
X125996667Y-98237619D01*
X125949048Y-98332857D01*
X125949048Y-98570952D01*
X125996667Y-98666190D01*
X126044286Y-98713810D01*
X126139524Y-98761429D01*
X126330001Y-98761429D01*
X126425239Y-98713810D01*
X126472858Y-98666190D01*
X126520477Y-98570952D01*
X93987143Y-138542381D02*
X93510952Y-138542381D01*
X93510952Y-137542381D01*
X94844286Y-138542381D02*
X94272857Y-138542381D01*
X94558571Y-138542381D02*
X94558571Y-137542381D01*
X94463333Y-137685238D01*
X94368095Y-137780476D01*
X94272857Y-137828095D01*
X95796667Y-138542381D02*
X95225238Y-138542381D01*
X95510952Y-138542381D02*
X95510952Y-137542381D01*
X95415714Y-137685238D01*
X95320476Y-137780476D01*
X95225238Y-137828095D01*
X125187143Y-138142381D02*
X124710952Y-138142381D01*
X124710952Y-137142381D01*
X126044286Y-138142381D02*
X125472857Y-138142381D01*
X125758571Y-138142381D02*
X125758571Y-137142381D01*
X125663333Y-137285238D01*
X125568095Y-137380476D01*
X125472857Y-137428095D01*
X126425238Y-137237619D02*
X126472857Y-137190000D01*
X126568095Y-137142381D01*
X126806191Y-137142381D01*
X126901429Y-137190000D01*
X126949048Y-137237619D01*
X126996667Y-137332857D01*
X126996667Y-137428095D01*
X126949048Y-137570952D01*
X126377619Y-138142381D01*
X126996667Y-138142381D01*
X155787143Y-138342381D02*
X155310952Y-138342381D01*
X155310952Y-137342381D01*
X156644286Y-138342381D02*
X156072857Y-138342381D01*
X156358571Y-138342381D02*
X156358571Y-137342381D01*
X156263333Y-137485238D01*
X156168095Y-137580476D01*
X156072857Y-137628095D01*
X156977619Y-137342381D02*
X157596667Y-137342381D01*
X157263333Y-137723333D01*
X157406191Y-137723333D01*
X157501429Y-137770952D01*
X157549048Y-137818571D01*
X157596667Y-137913810D01*
X157596667Y-138151905D01*
X157549048Y-138247143D01*
X157501429Y-138294762D01*
X157406191Y-138342381D01*
X157120476Y-138342381D01*
X157025238Y-138294762D01*
X156977619Y-138247143D01*
X83987143Y-110942381D02*
X83510952Y-110942381D01*
X83510952Y-109942381D01*
X84844286Y-110942381D02*
X84272857Y-110942381D01*
X84558571Y-110942381D02*
X84558571Y-109942381D01*
X84463333Y-110085238D01*
X84368095Y-110180476D01*
X84272857Y-110228095D01*
X85701429Y-110275714D02*
X85701429Y-110942381D01*
X85463333Y-109894762D02*
X85225238Y-110609048D01*
X85844286Y-110609048D01*
X113187143Y-110942381D02*
X112710952Y-110942381D01*
X112710952Y-109942381D01*
X114044286Y-110942381D02*
X113472857Y-110942381D01*
X113758571Y-110942381D02*
X113758571Y-109942381D01*
X113663333Y-110085238D01*
X113568095Y-110180476D01*
X113472857Y-110228095D01*
X114949048Y-109942381D02*
X114472857Y-109942381D01*
X114425238Y-110418571D01*
X114472857Y-110370952D01*
X114568095Y-110323333D01*
X114806191Y-110323333D01*
X114901429Y-110370952D01*
X114949048Y-110418571D01*
X114996667Y-110513810D01*
X114996667Y-110751905D01*
X114949048Y-110847143D01*
X114901429Y-110894762D01*
X114806191Y-110942381D01*
X114568095Y-110942381D01*
X114472857Y-110894762D01*
X114425238Y-110847143D01*
X142987143Y-110942381D02*
X142510952Y-110942381D01*
X142510952Y-109942381D01*
X143844286Y-110942381D02*
X143272857Y-110942381D01*
X143558571Y-110942381D02*
X143558571Y-109942381D01*
X143463333Y-110085238D01*
X143368095Y-110180476D01*
X143272857Y-110228095D01*
X144701429Y-109942381D02*
X144510952Y-109942381D01*
X144415714Y-109990000D01*
X144368095Y-110037619D01*
X144272857Y-110180476D01*
X144225238Y-110370952D01*
X144225238Y-110751905D01*
X144272857Y-110847143D01*
X144320476Y-110894762D01*
X144415714Y-110942381D01*
X144606191Y-110942381D01*
X144701429Y-110894762D01*
X144749048Y-110847143D01*
X144796667Y-110751905D01*
X144796667Y-110513810D01*
X144749048Y-110418571D01*
X144701429Y-110370952D01*
X144606191Y-110323333D01*
X144415714Y-110323333D01*
X144320476Y-110370952D01*
X144272857Y-110418571D01*
X144225238Y-110513810D01*
X80387143Y-149942381D02*
X79910952Y-149942381D01*
X79910952Y-148942381D01*
X81244286Y-149942381D02*
X80672857Y-149942381D01*
X80958571Y-149942381D02*
X80958571Y-148942381D01*
X80863333Y-149085238D01*
X80768095Y-149180476D01*
X80672857Y-149228095D01*
X81577619Y-148942381D02*
X82244286Y-148942381D01*
X81815714Y-149942381D01*
X111387143Y-149942381D02*
X110910952Y-149942381D01*
X110910952Y-148942381D01*
X112244286Y-149942381D02*
X111672857Y-149942381D01*
X111958571Y-149942381D02*
X111958571Y-148942381D01*
X111863333Y-149085238D01*
X111768095Y-149180476D01*
X111672857Y-149228095D01*
X112815714Y-149370952D02*
X112720476Y-149323333D01*
X112672857Y-149275714D01*
X112625238Y-149180476D01*
X112625238Y-149132857D01*
X112672857Y-149037619D01*
X112720476Y-148990000D01*
X112815714Y-148942381D01*
X113006191Y-148942381D01*
X113101429Y-148990000D01*
X113149048Y-149037619D01*
X113196667Y-149132857D01*
X113196667Y-149180476D01*
X113149048Y-149275714D01*
X113101429Y-149323333D01*
X113006191Y-149370952D01*
X112815714Y-149370952D01*
X112720476Y-149418571D01*
X112672857Y-149466190D01*
X112625238Y-149561429D01*
X112625238Y-149751905D01*
X112672857Y-149847143D01*
X112720476Y-149894762D01*
X112815714Y-149942381D01*
X113006191Y-149942381D01*
X113101429Y-149894762D01*
X113149048Y-149847143D01*
X113196667Y-149751905D01*
X113196667Y-149561429D01*
X113149048Y-149466190D01*
X113101429Y-149418571D01*
X113006191Y-149370952D01*
X142187143Y-149942381D02*
X141710952Y-149942381D01*
X141710952Y-148942381D01*
X143044286Y-149942381D02*
X142472857Y-149942381D01*
X142758571Y-149942381D02*
X142758571Y-148942381D01*
X142663333Y-149085238D01*
X142568095Y-149180476D01*
X142472857Y-149228095D01*
X143520476Y-149942381D02*
X143710952Y-149942381D01*
X143806191Y-149894762D01*
X143853810Y-149847143D01*
X143949048Y-149704286D01*
X143996667Y-149513810D01*
X143996667Y-149132857D01*
X143949048Y-149037619D01*
X143901429Y-148990000D01*
X143806191Y-148942381D01*
X143615714Y-148942381D01*
X143520476Y-148990000D01*
X143472857Y-149037619D01*
X143425238Y-149132857D01*
X143425238Y-149370952D01*
X143472857Y-149466190D01*
X143520476Y-149513810D01*
X143615714Y-149561429D01*
X143806191Y-149561429D01*
X143901429Y-149513810D01*
X143949048Y-149466190D01*
X143996667Y-149370952D01*
X112927143Y-99762381D02*
X112450952Y-99762381D01*
X112450952Y-98762381D01*
X113212857Y-98857619D02*
X113260476Y-98810000D01*
X113355714Y-98762381D01*
X113593810Y-98762381D01*
X113689048Y-98810000D01*
X113736667Y-98857619D01*
X113784286Y-98952857D01*
X113784286Y-99048095D01*
X113736667Y-99190952D01*
X113165238Y-99762381D01*
X113784286Y-99762381D01*
X114403333Y-98762381D02*
X114498572Y-98762381D01*
X114593810Y-98810000D01*
X114641429Y-98857619D01*
X114689048Y-98952857D01*
X114736667Y-99143333D01*
X114736667Y-99381429D01*
X114689048Y-99571905D01*
X114641429Y-99667143D01*
X114593810Y-99714762D01*
X114498572Y-99762381D01*
X114403333Y-99762381D01*
X114308095Y-99714762D01*
X114260476Y-99667143D01*
X114212857Y-99571905D01*
X114165238Y-99381429D01*
X114165238Y-99143333D01*
X114212857Y-98952857D01*
X114260476Y-98857619D01*
X114308095Y-98810000D01*
X114403333Y-98762381D01*
X142527143Y-99762381D02*
X142050952Y-99762381D01*
X142050952Y-98762381D01*
X142812857Y-98857619D02*
X142860476Y-98810000D01*
X142955714Y-98762381D01*
X143193810Y-98762381D01*
X143289048Y-98810000D01*
X143336667Y-98857619D01*
X143384286Y-98952857D01*
X143384286Y-99048095D01*
X143336667Y-99190952D01*
X142765238Y-99762381D01*
X143384286Y-99762381D01*
X144336667Y-99762381D02*
X143765238Y-99762381D01*
X144050952Y-99762381D02*
X144050952Y-98762381D01*
X143955714Y-98905238D01*
X143860476Y-99000476D01*
X143765238Y-99048095D01*
X172927143Y-99562381D02*
X172450952Y-99562381D01*
X172450952Y-98562381D01*
X173212857Y-98657619D02*
X173260476Y-98610000D01*
X173355714Y-98562381D01*
X173593810Y-98562381D01*
X173689048Y-98610000D01*
X173736667Y-98657619D01*
X173784286Y-98752857D01*
X173784286Y-98848095D01*
X173736667Y-98990952D01*
X173165238Y-99562381D01*
X173784286Y-99562381D01*
X174165238Y-98657619D02*
X174212857Y-98610000D01*
X174308095Y-98562381D01*
X174546191Y-98562381D01*
X174641429Y-98610000D01*
X174689048Y-98657619D01*
X174736667Y-98752857D01*
X174736667Y-98848095D01*
X174689048Y-98990952D01*
X174117619Y-99562381D01*
X174736667Y-99562381D01*
X110327143Y-138762381D02*
X109850952Y-138762381D01*
X109850952Y-137762381D01*
X110612857Y-137857619D02*
X110660476Y-137810000D01*
X110755714Y-137762381D01*
X110993810Y-137762381D01*
X111089048Y-137810000D01*
X111136667Y-137857619D01*
X111184286Y-137952857D01*
X111184286Y-138048095D01*
X111136667Y-138190952D01*
X110565238Y-138762381D01*
X111184286Y-138762381D01*
X111517619Y-137762381D02*
X112136667Y-137762381D01*
X111803333Y-138143333D01*
X111946191Y-138143333D01*
X112041429Y-138190952D01*
X112089048Y-138238571D01*
X112136667Y-138333810D01*
X112136667Y-138571905D01*
X112089048Y-138667143D01*
X112041429Y-138714762D01*
X111946191Y-138762381D01*
X111660476Y-138762381D01*
X111565238Y-138714762D01*
X111517619Y-138667143D01*
X141127143Y-138562381D02*
X140650952Y-138562381D01*
X140650952Y-137562381D01*
X141412857Y-137657619D02*
X141460476Y-137610000D01*
X141555714Y-137562381D01*
X141793810Y-137562381D01*
X141889048Y-137610000D01*
X141936667Y-137657619D01*
X141984286Y-137752857D01*
X141984286Y-137848095D01*
X141936667Y-137990952D01*
X141365238Y-138562381D01*
X141984286Y-138562381D01*
X142841429Y-137895714D02*
X142841429Y-138562381D01*
X142603333Y-137514762D02*
X142365238Y-138229048D01*
X142984286Y-138229048D01*
X171727143Y-138762381D02*
X171250952Y-138762381D01*
X171250952Y-137762381D01*
X172012857Y-137857619D02*
X172060476Y-137810000D01*
X172155714Y-137762381D01*
X172393810Y-137762381D01*
X172489048Y-137810000D01*
X172536667Y-137857619D01*
X172584286Y-137952857D01*
X172584286Y-138048095D01*
X172536667Y-138190952D01*
X171965238Y-138762381D01*
X172584286Y-138762381D01*
X173489048Y-137762381D02*
X173012857Y-137762381D01*
X172965238Y-138238571D01*
X173012857Y-138190952D01*
X173108095Y-138143333D01*
X173346191Y-138143333D01*
X173441429Y-138190952D01*
X173489048Y-138238571D01*
X173536667Y-138333810D01*
X173536667Y-138571905D01*
X173489048Y-138667143D01*
X173441429Y-138714762D01*
X173346191Y-138762381D01*
X173108095Y-138762381D01*
X173012857Y-138714762D01*
X172965238Y-138667143D01*
X86350119Y-44256738D02*
X86302500Y-44351976D01*
X86207262Y-44447214D01*
X86064405Y-44590071D01*
X86016786Y-44685310D01*
X86016786Y-44780548D01*
X86254881Y-44732929D02*
X86207262Y-44828167D01*
X86112024Y-44923405D01*
X85921548Y-44971024D01*
X85588214Y-44971024D01*
X85397738Y-44923405D01*
X85302500Y-44828167D01*
X85254881Y-44732929D01*
X85254881Y-44542452D01*
X85302500Y-44447214D01*
X85397738Y-44351976D01*
X85588214Y-44304357D01*
X85921548Y-44304357D01*
X86112024Y-44351976D01*
X86207262Y-44447214D01*
X86254881Y-44542452D01*
X86254881Y-44732929D01*
X86254881Y-43351976D02*
X86254881Y-43923405D01*
X86254881Y-43637691D02*
X85254881Y-43637691D01*
X85397738Y-43732929D01*
X85492976Y-43828167D01*
X85540595Y-43923405D01*
X130804762Y-44147619D02*
X130709524Y-44100000D01*
X130614286Y-44004762D01*
X130471429Y-43861905D01*
X130376190Y-43814286D01*
X130280952Y-43814286D01*
X130328571Y-44052381D02*
X130233333Y-44004762D01*
X130138095Y-43909524D01*
X130090476Y-43719048D01*
X130090476Y-43385714D01*
X130138095Y-43195238D01*
X130233333Y-43100000D01*
X130328571Y-43052381D01*
X130519048Y-43052381D01*
X130614286Y-43100000D01*
X130709524Y-43195238D01*
X130757143Y-43385714D01*
X130757143Y-43719048D01*
X130709524Y-43909524D01*
X130614286Y-44004762D01*
X130519048Y-44052381D01*
X130328571Y-44052381D01*
X131138095Y-43147619D02*
X131185714Y-43100000D01*
X131280952Y-43052381D01*
X131519048Y-43052381D01*
X131614286Y-43100000D01*
X131661905Y-43147619D01*
X131709524Y-43242857D01*
X131709524Y-43338095D01*
X131661905Y-43480952D01*
X131090476Y-44052381D01*
X131709524Y-44052381D01*
X112904762Y-43985619D02*
X112809524Y-43938000D01*
X112714286Y-43842762D01*
X112571429Y-43699905D01*
X112476190Y-43652286D01*
X112380952Y-43652286D01*
X112428571Y-43890381D02*
X112333333Y-43842762D01*
X112238095Y-43747524D01*
X112190476Y-43557048D01*
X112190476Y-43223714D01*
X112238095Y-43033238D01*
X112333333Y-42938000D01*
X112428571Y-42890381D01*
X112619048Y-42890381D01*
X112714286Y-42938000D01*
X112809524Y-43033238D01*
X112857143Y-43223714D01*
X112857143Y-43557048D01*
X112809524Y-43747524D01*
X112714286Y-43842762D01*
X112619048Y-43890381D01*
X112428571Y-43890381D01*
X113190476Y-42890381D02*
X113809524Y-42890381D01*
X113476190Y-43271333D01*
X113619048Y-43271333D01*
X113714286Y-43318952D01*
X113761905Y-43366571D01*
X113809524Y-43461810D01*
X113809524Y-43699905D01*
X113761905Y-43795143D01*
X113714286Y-43842762D01*
X113619048Y-43890381D01*
X113333333Y-43890381D01*
X113238095Y-43842762D01*
X113190476Y-43795143D01*
X144443262Y-46650119D02*
X144348024Y-46602500D01*
X144252786Y-46507262D01*
X144109929Y-46364405D01*
X144014690Y-46316786D01*
X143919452Y-46316786D01*
X143967071Y-46554881D02*
X143871833Y-46507262D01*
X143776595Y-46412024D01*
X143728976Y-46221548D01*
X143728976Y-45888214D01*
X143776595Y-45697738D01*
X143871833Y-45602500D01*
X143967071Y-45554881D01*
X144157548Y-45554881D01*
X144252786Y-45602500D01*
X144348024Y-45697738D01*
X144395643Y-45888214D01*
X144395643Y-46221548D01*
X144348024Y-46412024D01*
X144252786Y-46507262D01*
X144157548Y-46554881D01*
X143967071Y-46554881D01*
X145252786Y-45888214D02*
X145252786Y-46554881D01*
X145014690Y-45507262D02*
X144776595Y-46221548D01*
X145395643Y-46221548D01*
X134804762Y-61747619D02*
X134709524Y-61700000D01*
X134614286Y-61604762D01*
X134471429Y-61461905D01*
X134376190Y-61414286D01*
X134280952Y-61414286D01*
X134328571Y-61652381D02*
X134233333Y-61604762D01*
X134138095Y-61509524D01*
X134090476Y-61319048D01*
X134090476Y-60985714D01*
X134138095Y-60795238D01*
X134233333Y-60700000D01*
X134328571Y-60652381D01*
X134519048Y-60652381D01*
X134614286Y-60700000D01*
X134709524Y-60795238D01*
X134757143Y-60985714D01*
X134757143Y-61319048D01*
X134709524Y-61509524D01*
X134614286Y-61604762D01*
X134519048Y-61652381D01*
X134328571Y-61652381D01*
X135661905Y-60652381D02*
X135185714Y-60652381D01*
X135138095Y-61128571D01*
X135185714Y-61080952D01*
X135280952Y-61033333D01*
X135519048Y-61033333D01*
X135614286Y-61080952D01*
X135661905Y-61128571D01*
X135709524Y-61223810D01*
X135709524Y-61461905D01*
X135661905Y-61557143D01*
X135614286Y-61604762D01*
X135519048Y-61652381D01*
X135280952Y-61652381D01*
X135185714Y-61604762D01*
X135138095Y-61557143D01*
X169504762Y-59947619D02*
X169409524Y-59900000D01*
X169314286Y-59804762D01*
X169171429Y-59661905D01*
X169076190Y-59614286D01*
X168980952Y-59614286D01*
X169028571Y-59852381D02*
X168933333Y-59804762D01*
X168838095Y-59709524D01*
X168790476Y-59519048D01*
X168790476Y-59185714D01*
X168838095Y-58995238D01*
X168933333Y-58900000D01*
X169028571Y-58852381D01*
X169219048Y-58852381D01*
X169314286Y-58900000D01*
X169409524Y-58995238D01*
X169457143Y-59185714D01*
X169457143Y-59519048D01*
X169409524Y-59709524D01*
X169314286Y-59804762D01*
X169219048Y-59852381D01*
X169028571Y-59852381D01*
X170314286Y-58852381D02*
X170123809Y-58852381D01*
X170028571Y-58900000D01*
X169980952Y-58947619D01*
X169885714Y-59090476D01*
X169838095Y-59280952D01*
X169838095Y-59661905D01*
X169885714Y-59757143D01*
X169933333Y-59804762D01*
X170028571Y-59852381D01*
X170219048Y-59852381D01*
X170314286Y-59804762D01*
X170361905Y-59757143D01*
X170409524Y-59661905D01*
X170409524Y-59423810D01*
X170361905Y-59328571D01*
X170314286Y-59280952D01*
X170219048Y-59233333D01*
X170028571Y-59233333D01*
X169933333Y-59280952D01*
X169885714Y-59328571D01*
X169838095Y-59423810D01*
X151504762Y-44747619D02*
X151409524Y-44700000D01*
X151314286Y-44604762D01*
X151171429Y-44461905D01*
X151076190Y-44414286D01*
X150980952Y-44414286D01*
X151028571Y-44652381D02*
X150933333Y-44604762D01*
X150838095Y-44509524D01*
X150790476Y-44319048D01*
X150790476Y-43985714D01*
X150838095Y-43795238D01*
X150933333Y-43700000D01*
X151028571Y-43652381D01*
X151219048Y-43652381D01*
X151314286Y-43700000D01*
X151409524Y-43795238D01*
X151457143Y-43985714D01*
X151457143Y-44319048D01*
X151409524Y-44509524D01*
X151314286Y-44604762D01*
X151219048Y-44652381D01*
X151028571Y-44652381D01*
X151933333Y-44652381D02*
X152123809Y-44652381D01*
X152219048Y-44604762D01*
X152266667Y-44557143D01*
X152361905Y-44414286D01*
X152409524Y-44223810D01*
X152409524Y-43842857D01*
X152361905Y-43747619D01*
X152314286Y-43700000D01*
X152219048Y-43652381D01*
X152028571Y-43652381D01*
X151933333Y-43700000D01*
X151885714Y-43747619D01*
X151838095Y-43842857D01*
X151838095Y-44080952D01*
X151885714Y-44176190D01*
X151933333Y-44223810D01*
X152028571Y-44271429D01*
X152219048Y-44271429D01*
X152314286Y-44223810D01*
X152361905Y-44176190D01*
X152409524Y-44080952D01*
X181352501Y-65766666D02*
X181352501Y-66242857D01*
X180352501Y-66242857D01*
X181352501Y-64909523D02*
X181352501Y-65480952D01*
X181352501Y-65195238D02*
X180352501Y-65195238D01*
X180495358Y-65290476D01*
X180590596Y-65385714D01*
X180638215Y-65480952D01*
X156587143Y-99142381D02*
X156110952Y-99142381D01*
X156110952Y-98142381D01*
X157444286Y-99142381D02*
X156872857Y-99142381D01*
X157158571Y-99142381D02*
X157158571Y-98142381D01*
X157063333Y-98285238D01*
X156968095Y-98380476D01*
X156872857Y-98428095D01*
X158063333Y-98142381D02*
X158158572Y-98142381D01*
X158253810Y-98190000D01*
X158301429Y-98237619D01*
X158349048Y-98332857D01*
X158396667Y-98523333D01*
X158396667Y-98761429D01*
X158349048Y-98951905D01*
X158301429Y-99047143D01*
X158253810Y-99094762D01*
X158158572Y-99142381D01*
X158063333Y-99142381D01*
X157968095Y-99094762D01*
X157920476Y-99047143D01*
X157872857Y-98951905D01*
X157825238Y-98761429D01*
X157825238Y-98523333D01*
X157872857Y-98332857D01*
X157920476Y-98237619D01*
X157968095Y-98190000D01*
X158063333Y-98142381D01*
X94357143Y-85657143D02*
X94309524Y-85704762D01*
X94166667Y-85752381D01*
X94071429Y-85752381D01*
X93928571Y-85704762D01*
X93833333Y-85609524D01*
X93785714Y-85514286D01*
X93738095Y-85323810D01*
X93738095Y-85180952D01*
X93785714Y-84990476D01*
X93833333Y-84895238D01*
X93928571Y-84800000D01*
X94071429Y-84752381D01*
X94166667Y-84752381D01*
X94309524Y-84800000D01*
X94357143Y-84847619D01*
X95309524Y-85752381D02*
X94738095Y-85752381D01*
X95023809Y-85752381D02*
X95023809Y-84752381D01*
X94928571Y-84895238D01*
X94833333Y-84990476D01*
X94738095Y-85038095D01*
X96166667Y-84752381D02*
X95976190Y-84752381D01*
X95880952Y-84800000D01*
X95833333Y-84847619D01*
X95738095Y-84990476D01*
X95690476Y-85180952D01*
X95690476Y-85561905D01*
X95738095Y-85657143D01*
X95785714Y-85704762D01*
X95880952Y-85752381D01*
X96071429Y-85752381D01*
X96166667Y-85704762D01*
X96214286Y-85657143D01*
X96261905Y-85561905D01*
X96261905Y-85323810D01*
X96214286Y-85228571D01*
X96166667Y-85180952D01*
X96071429Y-85133333D01*
X95880952Y-85133333D01*
X95785714Y-85180952D01*
X95738095Y-85228571D01*
X95690476Y-85323810D01*
X154957143Y-96857143D02*
X154909524Y-96904762D01*
X154766667Y-96952381D01*
X154671429Y-96952381D01*
X154528571Y-96904762D01*
X154433333Y-96809524D01*
X154385714Y-96714286D01*
X154338095Y-96523810D01*
X154338095Y-96380952D01*
X154385714Y-96190476D01*
X154433333Y-96095238D01*
X154528571Y-96000000D01*
X154671429Y-95952381D01*
X154766667Y-95952381D01*
X154909524Y-96000000D01*
X154957143Y-96047619D01*
X155338095Y-96047619D02*
X155385714Y-96000000D01*
X155480952Y-95952381D01*
X155719048Y-95952381D01*
X155814286Y-96000000D01*
X155861905Y-96047619D01*
X155909524Y-96142857D01*
X155909524Y-96238095D01*
X155861905Y-96380952D01*
X155290476Y-96952381D01*
X155909524Y-96952381D01*
X156766667Y-96285714D02*
X156766667Y-96952381D01*
X156528571Y-95904762D02*
X156290476Y-96619048D01*
X156909524Y-96619048D01*
X75366667Y-67811071D02*
X75033333Y-67811071D01*
X75033333Y-68334881D02*
X75033333Y-67334881D01*
X75509524Y-67334881D01*
X76223810Y-67811071D02*
X76366667Y-67858690D01*
X76414286Y-67906310D01*
X76461905Y-68001548D01*
X76461905Y-68144405D01*
X76414286Y-68239643D01*
X76366667Y-68287262D01*
X76271429Y-68334881D01*
X75890476Y-68334881D01*
X75890476Y-67334881D01*
X76223810Y-67334881D01*
X76319048Y-67382500D01*
X76366667Y-67430119D01*
X76414286Y-67525357D01*
X76414286Y-67620595D01*
X76366667Y-67715833D01*
X76319048Y-67763452D01*
X76223810Y-67811071D01*
X75890476Y-67811071D01*
X77414286Y-68334881D02*
X76842857Y-68334881D01*
X77128571Y-68334881D02*
X77128571Y-67334881D01*
X77033333Y-67477738D01*
X76938095Y-67572976D01*
X76842857Y-67620595D01*
X75861905Y-76566381D02*
X75861905Y-75566381D01*
X76242858Y-75566381D01*
X76338096Y-75614000D01*
X76385715Y-75661619D01*
X76433334Y-75756857D01*
X76433334Y-75899714D01*
X76385715Y-75994952D01*
X76338096Y-76042571D01*
X76242858Y-76090190D01*
X75861905Y-76090190D01*
X77338096Y-75566381D02*
X76861905Y-75566381D01*
X76814286Y-76042571D01*
X76861905Y-75994952D01*
X76957143Y-75947333D01*
X77195239Y-75947333D01*
X77290477Y-75994952D01*
X77338096Y-76042571D01*
X77385715Y-76137810D01*
X77385715Y-76375905D01*
X77338096Y-76471143D01*
X77290477Y-76518762D01*
X77195239Y-76566381D01*
X76957143Y-76566381D01*
X76861905Y-76518762D01*
X76814286Y-76471143D01*
X80262381Y-116761905D02*
X80262381Y-116190476D01*
X81262381Y-116476191D02*
X80262381Y-116476191D01*
X81262381Y-115333333D02*
X81262381Y-115904762D01*
X81262381Y-115619048D02*
X80262381Y-115619048D01*
X80405238Y-115714286D01*
X80500476Y-115809524D01*
X80548095Y-115904762D01*
D10*
X172366667Y-46816667D02*
X172766667Y-46816667D01*
X172566667Y-47516667D02*
X172566667Y-46816667D01*
X173333333Y-46816667D02*
X173000000Y-46816667D01*
X172966666Y-47150000D01*
X173000000Y-47116667D01*
X173066666Y-47083333D01*
X173233333Y-47083333D01*
X173300000Y-47116667D01*
X173333333Y-47150000D01*
X173366666Y-47216667D01*
X173366666Y-47383333D01*
X173333333Y-47450000D01*
X173300000Y-47483333D01*
X173233333Y-47516667D01*
X173066666Y-47516667D01*
X173000000Y-47483333D01*
X172966666Y-47450000D01*
D11*
X89722381Y-80138095D02*
X88722381Y-80138095D01*
X89722381Y-79566666D02*
X89150952Y-79995238D01*
X88722381Y-79566666D02*
X89293810Y-80138095D01*
X89722381Y-78614285D02*
X89722381Y-79185714D01*
X89722381Y-78900000D02*
X88722381Y-78900000D01*
X88865238Y-78995238D01*
X88960476Y-79090476D01*
X89008095Y-79185714D01*
X120322381Y-80138095D02*
X119322381Y-80138095D01*
X120322381Y-79566666D02*
X119750952Y-79995238D01*
X119322381Y-79566666D02*
X119893810Y-80138095D01*
X119417619Y-79185714D02*
X119370000Y-79138095D01*
X119322381Y-79042857D01*
X119322381Y-78804761D01*
X119370000Y-78709523D01*
X119417619Y-78661904D01*
X119512857Y-78614285D01*
X119608095Y-78614285D01*
X119750952Y-78661904D01*
X120322381Y-79233333D01*
X120322381Y-78614285D01*
X151722381Y-80538095D02*
X150722381Y-80538095D01*
X151722381Y-79966666D02*
X151150952Y-80395238D01*
X150722381Y-79966666D02*
X151293810Y-80538095D01*
X150722381Y-79633333D02*
X150722381Y-79014285D01*
X151103333Y-79347619D01*
X151103333Y-79204761D01*
X151150952Y-79109523D01*
X151198571Y-79061904D01*
X151293810Y-79014285D01*
X151531905Y-79014285D01*
X151627143Y-79061904D01*
X151674762Y-79109523D01*
X151722381Y-79204761D01*
X151722381Y-79490476D01*
X151674762Y-79585714D01*
X151627143Y-79633333D01*
X88322381Y-119538095D02*
X87322381Y-119538095D01*
X88322381Y-118966666D02*
X87750952Y-119395238D01*
X87322381Y-118966666D02*
X87893810Y-119538095D01*
X87655714Y-118109523D02*
X88322381Y-118109523D01*
X87274762Y-118347619D02*
X87989048Y-118585714D01*
X87989048Y-117966666D01*
X119922381Y-119338095D02*
X118922381Y-119338095D01*
X119922381Y-118766666D02*
X119350952Y-119195238D01*
X118922381Y-118766666D02*
X119493810Y-119338095D01*
X118922381Y-117861904D02*
X118922381Y-118338095D01*
X119398571Y-118385714D01*
X119350952Y-118338095D01*
X119303333Y-118242857D01*
X119303333Y-118004761D01*
X119350952Y-117909523D01*
X119398571Y-117861904D01*
X119493810Y-117814285D01*
X119731905Y-117814285D01*
X119827143Y-117861904D01*
X119874762Y-117909523D01*
X119922381Y-118004761D01*
X119922381Y-118242857D01*
X119874762Y-118338095D01*
X119827143Y-118385714D01*
X150722381Y-119538095D02*
X149722381Y-119538095D01*
X150722381Y-118966666D02*
X150150952Y-119395238D01*
X149722381Y-118966666D02*
X150293810Y-119538095D01*
X149722381Y-118109523D02*
X149722381Y-118300000D01*
X149770000Y-118395238D01*
X149817619Y-118442857D01*
X149960476Y-118538095D01*
X150150952Y-118585714D01*
X150531905Y-118585714D01*
X150627143Y-118538095D01*
X150674762Y-118490476D01*
X150722381Y-118395238D01*
X150722381Y-118204761D01*
X150674762Y-118109523D01*
X150627143Y-118061904D01*
X150531905Y-118014285D01*
X150293810Y-118014285D01*
X150198571Y-118061904D01*
X150150952Y-118109523D01*
X150103333Y-118204761D01*
X150103333Y-118395238D01*
X150150952Y-118490476D01*
X150198571Y-118538095D01*
X150293810Y-118585714D01*
X103722381Y-80338095D02*
X102722381Y-80338095D01*
X103722381Y-79766666D02*
X103150952Y-80195238D01*
X102722381Y-79766666D02*
X103293810Y-80338095D01*
X102722381Y-79433333D02*
X102722381Y-78766666D01*
X103722381Y-79195238D01*
X135122381Y-80138095D02*
X134122381Y-80138095D01*
X135122381Y-79566666D02*
X134550952Y-79995238D01*
X134122381Y-79566666D02*
X134693810Y-80138095D01*
X134550952Y-78995238D02*
X134503333Y-79090476D01*
X134455714Y-79138095D01*
X134360476Y-79185714D01*
X134312857Y-79185714D01*
X134217619Y-79138095D01*
X134170000Y-79090476D01*
X134122381Y-78995238D01*
X134122381Y-78804761D01*
X134170000Y-78709523D01*
X134217619Y-78661904D01*
X134312857Y-78614285D01*
X134360476Y-78614285D01*
X134455714Y-78661904D01*
X134503333Y-78709523D01*
X134550952Y-78804761D01*
X134550952Y-78995238D01*
X134598571Y-79090476D01*
X134646190Y-79138095D01*
X134741429Y-79185714D01*
X134931905Y-79185714D01*
X135027143Y-79138095D01*
X135074762Y-79090476D01*
X135122381Y-78995238D01*
X135122381Y-78804761D01*
X135074762Y-78709523D01*
X135027143Y-78661904D01*
X134931905Y-78614285D01*
X134741429Y-78614285D01*
X134646190Y-78661904D01*
X134598571Y-78709523D01*
X134550952Y-78804761D01*
X165122381Y-80338095D02*
X164122381Y-80338095D01*
X165122381Y-79766666D02*
X164550952Y-80195238D01*
X164122381Y-79766666D02*
X164693810Y-80338095D01*
X165122381Y-79290476D02*
X165122381Y-79100000D01*
X165074762Y-79004761D01*
X165027143Y-78957142D01*
X164884286Y-78861904D01*
X164693810Y-78814285D01*
X164312857Y-78814285D01*
X164217619Y-78861904D01*
X164170000Y-78909523D01*
X164122381Y-79004761D01*
X164122381Y-79195238D01*
X164170000Y-79290476D01*
X164217619Y-79338095D01*
X164312857Y-79385714D01*
X164550952Y-79385714D01*
X164646190Y-79338095D01*
X164693810Y-79290476D01*
X164741429Y-79195238D01*
X164741429Y-79004761D01*
X164693810Y-78909523D01*
X164646190Y-78861904D01*
X164550952Y-78814285D01*
X103722381Y-120014286D02*
X102722381Y-120014286D01*
X103722381Y-119442857D02*
X103150952Y-119871429D01*
X102722381Y-119442857D02*
X103293810Y-120014286D01*
X103722381Y-118490476D02*
X103722381Y-119061905D01*
X103722381Y-118776191D02*
X102722381Y-118776191D01*
X102865238Y-118871429D01*
X102960476Y-118966667D01*
X103008095Y-119061905D01*
X102722381Y-117871429D02*
X102722381Y-117776190D01*
X102770000Y-117680952D01*
X102817619Y-117633333D01*
X102912857Y-117585714D01*
X103103333Y-117538095D01*
X103341429Y-117538095D01*
X103531905Y-117585714D01*
X103627143Y-117633333D01*
X103674762Y-117680952D01*
X103722381Y-117776190D01*
X103722381Y-117871429D01*
X103674762Y-117966667D01*
X103627143Y-118014286D01*
X103531905Y-118061905D01*
X103341429Y-118109524D01*
X103103333Y-118109524D01*
X102912857Y-118061905D01*
X102817619Y-118014286D01*
X102770000Y-117966667D01*
X102722381Y-117871429D01*
X135322381Y-119614286D02*
X134322381Y-119614286D01*
X135322381Y-119042857D02*
X134750952Y-119471429D01*
X134322381Y-119042857D02*
X134893810Y-119614286D01*
X135322381Y-118090476D02*
X135322381Y-118661905D01*
X135322381Y-118376191D02*
X134322381Y-118376191D01*
X134465238Y-118471429D01*
X134560476Y-118566667D01*
X134608095Y-118661905D01*
X135322381Y-117138095D02*
X135322381Y-117709524D01*
X135322381Y-117423810D02*
X134322381Y-117423810D01*
X134465238Y-117519048D01*
X134560476Y-117614286D01*
X134608095Y-117709524D01*
X165722381Y-120014286D02*
X164722381Y-120014286D01*
X165722381Y-119442857D02*
X165150952Y-119871429D01*
X164722381Y-119442857D02*
X165293810Y-120014286D01*
X165722381Y-118490476D02*
X165722381Y-119061905D01*
X165722381Y-118776191D02*
X164722381Y-118776191D01*
X164865238Y-118871429D01*
X164960476Y-118966667D01*
X165008095Y-119061905D01*
X164817619Y-118109524D02*
X164770000Y-118061905D01*
X164722381Y-117966667D01*
X164722381Y-117728571D01*
X164770000Y-117633333D01*
X164817619Y-117585714D01*
X164912857Y-117538095D01*
X165008095Y-117538095D01*
X165150952Y-117585714D01*
X165722381Y-118157143D01*
X165722381Y-117538095D01*
X102522381Y-52811905D02*
X103331905Y-52811905D01*
X103427143Y-52764286D01*
X103474762Y-52716667D01*
X103522381Y-52621429D01*
X103522381Y-52430952D01*
X103474762Y-52335714D01*
X103427143Y-52288095D01*
X103331905Y-52240476D01*
X102522381Y-52240476D01*
X103522381Y-51240476D02*
X103522381Y-51811905D01*
X103522381Y-51526191D02*
X102522381Y-51526191D01*
X102665238Y-51621429D01*
X102760476Y-51716667D01*
X102808095Y-51811905D01*
X78538381Y-124938095D02*
X77538381Y-124938095D01*
X77538381Y-124557142D01*
X77586000Y-124461904D01*
X77633619Y-124414285D01*
X77728857Y-124366666D01*
X77871714Y-124366666D01*
X77966952Y-124414285D01*
X78014571Y-124461904D01*
X78062190Y-124557142D01*
X78062190Y-124938095D01*
X78538381Y-123414285D02*
X78538381Y-123985714D01*
X78538381Y-123700000D02*
X77538381Y-123700000D01*
X77681238Y-123795238D01*
X77776476Y-123890476D01*
X77824095Y-123985714D01*
X102461905Y-35366381D02*
X102461905Y-34366381D01*
X102842858Y-34366381D01*
X102938096Y-34414000D01*
X102985715Y-34461619D01*
X103033334Y-34556857D01*
X103033334Y-34699714D01*
X102985715Y-34794952D01*
X102938096Y-34842571D01*
X102842858Y-34890190D01*
X102461905Y-34890190D01*
X103890477Y-34366381D02*
X103700000Y-34366381D01*
X103604762Y-34414000D01*
X103557143Y-34461619D01*
X103461905Y-34604476D01*
X103414286Y-34794952D01*
X103414286Y-35175905D01*
X103461905Y-35271143D01*
X103509524Y-35318762D01*
X103604762Y-35366381D01*
X103795239Y-35366381D01*
X103890477Y-35318762D01*
X103938096Y-35271143D01*
X103985715Y-35175905D01*
X103985715Y-34937810D01*
X103938096Y-34842571D01*
X103890477Y-34794952D01*
X103795239Y-34747333D01*
X103604762Y-34747333D01*
X103509524Y-34794952D01*
X103461905Y-34842571D01*
X103414286Y-34937810D01*
X78938381Y-98738095D02*
X77938381Y-98738095D01*
X77938381Y-98357142D01*
X77986000Y-98261904D01*
X78033619Y-98214285D01*
X78128857Y-98166666D01*
X78271714Y-98166666D01*
X78366952Y-98214285D01*
X78414571Y-98261904D01*
X78462190Y-98357142D01*
X78462190Y-98738095D01*
X78271714Y-97309523D02*
X78938381Y-97309523D01*
X77890762Y-97547619D02*
X78605048Y-97785714D01*
X78605048Y-97166666D01*
M02*
