%FSLAX46Y46*%
G04 Gerber Fmt 4.6, Leading zero omitted, Abs format (unit mm)*
G04 Created by KiCad (PCBNEW (2014-10-27 BZR 5228)-product) date 17/01/2015 07:27:26*
%MOMM*%
G01*
G04 APERTURE LIST*
%ADD10C,0.100000*%
%ADD11R,2.032000X2.032000*%
%ADD12O,2.032000X2.032000*%
%ADD13R,2.032000X1.727200*%
%ADD14O,2.032000X1.727200*%
%ADD15R,1.250000X1.500000*%
%ADD16R,0.889000X1.397000*%
%ADD17C,0.889000*%
%ADD18C,0.350000*%
%ADD19C,0.635000*%
%ADD20C,0.254000*%
G04 APERTURE END LIST*
D10*
D11*
X127100000Y-116070000D03*
D12*
X127100000Y-113530000D03*
D13*
X160000000Y-118710000D03*
D14*
X160000000Y-116170000D03*
X160000000Y-113630000D03*
X160000000Y-111090000D03*
D15*
X132700000Y-113550000D03*
X132700000Y-111050000D03*
D16*
X135447500Y-113600000D03*
X137352500Y-113600000D03*
D17*
X143100000Y-128400000D03*
X152900000Y-113800000D03*
X137600000Y-107800000D03*
X141400000Y-104900000D03*
X148000000Y-106300000D03*
X150000000Y-104600000D03*
X151700000Y-114700000D03*
X150500000Y-127600000D03*
X146700000Y-128700000D03*
X137100000Y-128400000D03*
X139400000Y-127000000D03*
X150100000Y-124100000D03*
X140800000Y-114900000D03*
X143500000Y-114900000D03*
D18*
X143100000Y-128400000D02*
X152900000Y-118600000D01*
X152900000Y-118600000D02*
X152900000Y-113800000D01*
D19*
X132680000Y-113530000D02*
X132700000Y-113550000D01*
X127100000Y-113530000D02*
X132680000Y-113530000D01*
X135397500Y-113550000D02*
X135447500Y-113600000D01*
X132700000Y-113550000D02*
X135397500Y-113550000D01*
X137352500Y-113600000D02*
X137500000Y-113600000D01*
X137352500Y-113600000D02*
X139500000Y-113600000D01*
X139500000Y-113600000D02*
X140800000Y-114900000D01*
X140800000Y-114900000D02*
X143500000Y-114900000D01*
X148310000Y-111090000D02*
X160000000Y-111090000D01*
X144500000Y-114900000D02*
X148310000Y-111090000D01*
X143500000Y-114900000D02*
X144500000Y-114900000D01*
D20*
G36*
X163315000Y-129315000D02*
X162335707Y-129315000D01*
X162335707Y-104078116D01*
X161935359Y-103109201D01*
X161194698Y-102367246D01*
X160226483Y-101965208D01*
X159178116Y-101964293D01*
X158209201Y-102364641D01*
X157467246Y-103105302D01*
X157065208Y-104073517D01*
X157064293Y-105121884D01*
X157464641Y-106090799D01*
X158205302Y-106832754D01*
X159173517Y-107234792D01*
X160221884Y-107235707D01*
X161190799Y-106835359D01*
X161932754Y-106094698D01*
X162334792Y-105126483D01*
X162335707Y-104078116D01*
X162335707Y-129315000D01*
X162235707Y-129315000D01*
X162235707Y-124978116D01*
X161835359Y-124009201D01*
X161683345Y-123856921D01*
X161683345Y-116170000D01*
X161569271Y-115596511D01*
X161244415Y-115110330D01*
X160929634Y-114900000D01*
X161244415Y-114689670D01*
X161569271Y-114203489D01*
X161683345Y-113630000D01*
X161569271Y-113056511D01*
X161244415Y-112570330D01*
X160929634Y-112360000D01*
X161244415Y-112149670D01*
X161569271Y-111663489D01*
X161683345Y-111090000D01*
X161569271Y-110516511D01*
X161244415Y-110030330D01*
X160758234Y-109705474D01*
X160184745Y-109591400D01*
X159815255Y-109591400D01*
X159241766Y-109705474D01*
X158755585Y-110030330D01*
X158588760Y-110280000D01*
X148310000Y-110280000D01*
X148000027Y-110341657D01*
X147737244Y-110517243D01*
X144190629Y-114063858D01*
X144112286Y-113985378D01*
X143715668Y-113820687D01*
X143286216Y-113820313D01*
X142978400Y-113947500D01*
X141321066Y-113947500D01*
X141104690Y-113857652D01*
X140173519Y-112926481D01*
X139864506Y-112720005D01*
X139500000Y-112647500D01*
X138379108Y-112647500D01*
X138335327Y-112541802D01*
X138156699Y-112363173D01*
X137923310Y-112266500D01*
X137670691Y-112266500D01*
X136781691Y-112266500D01*
X136548302Y-112363173D01*
X136399999Y-112511474D01*
X136251699Y-112363173D01*
X136018310Y-112266500D01*
X135765691Y-112266500D01*
X134876691Y-112266500D01*
X134643302Y-112363173D01*
X134464673Y-112541801D01*
X134441601Y-112597500D01*
X133928440Y-112597500D01*
X133863327Y-112440302D01*
X133723025Y-112300000D01*
X133863327Y-112159698D01*
X133960000Y-111926309D01*
X133960000Y-111335750D01*
X133960000Y-110764250D01*
X133960000Y-110173691D01*
X133863327Y-109940302D01*
X133684699Y-109761673D01*
X133451310Y-109665000D01*
X133198691Y-109665000D01*
X132985750Y-109665000D01*
X132827000Y-109823750D01*
X132827000Y-110923000D01*
X133801250Y-110923000D01*
X133960000Y-110764250D01*
X133960000Y-111335750D01*
X133801250Y-111177000D01*
X132827000Y-111177000D01*
X132827000Y-111197000D01*
X132573000Y-111197000D01*
X132573000Y-111177000D01*
X132573000Y-110923000D01*
X132573000Y-109823750D01*
X132414250Y-109665000D01*
X132201309Y-109665000D01*
X131948690Y-109665000D01*
X131715301Y-109761673D01*
X131536673Y-109940302D01*
X131440000Y-110173691D01*
X131440000Y-110764250D01*
X131598750Y-110923000D01*
X132573000Y-110923000D01*
X132573000Y-111177000D01*
X131598750Y-111177000D01*
X131440000Y-111335750D01*
X131440000Y-111926309D01*
X131536673Y-112159698D01*
X131676974Y-112300000D01*
X131536673Y-112440301D01*
X131479843Y-112577500D01*
X131135707Y-112577500D01*
X131135707Y-103978116D01*
X130735359Y-103009201D01*
X129994698Y-102267246D01*
X129026483Y-101865208D01*
X127978116Y-101864293D01*
X127009201Y-102264641D01*
X126267246Y-103005302D01*
X125865208Y-103973517D01*
X125864293Y-105021884D01*
X126264641Y-105990799D01*
X127005302Y-106732754D01*
X127973517Y-107134792D01*
X129021884Y-107135707D01*
X129990799Y-106735359D01*
X130732754Y-105994698D01*
X131134792Y-105026483D01*
X131135707Y-103978116D01*
X131135707Y-112577500D01*
X128432658Y-112577500D01*
X128267433Y-112330222D01*
X127731810Y-111972330D01*
X127100000Y-111846655D01*
X126468190Y-111972330D01*
X125932567Y-112330222D01*
X125574675Y-112865845D01*
X125449000Y-113497655D01*
X125449000Y-113562345D01*
X125574675Y-114194155D01*
X125775371Y-114494518D01*
X125724301Y-114515673D01*
X125545673Y-114694302D01*
X125449000Y-114927691D01*
X125449000Y-115784250D01*
X125607750Y-115943000D01*
X126973000Y-115943000D01*
X126973000Y-115923000D01*
X127227000Y-115923000D01*
X127227000Y-115943000D01*
X128592250Y-115943000D01*
X128751000Y-115784250D01*
X128751000Y-114927691D01*
X128654327Y-114694302D01*
X128475699Y-114515673D01*
X128424628Y-114494518D01*
X128432658Y-114482500D01*
X131463275Y-114482500D01*
X131536673Y-114659698D01*
X131715301Y-114838327D01*
X131948690Y-114935000D01*
X132201309Y-114935000D01*
X133451309Y-114935000D01*
X133684698Y-114838327D01*
X133863327Y-114659699D01*
X133928441Y-114502500D01*
X134400180Y-114502500D01*
X134464673Y-114658198D01*
X134643301Y-114836827D01*
X134876690Y-114933500D01*
X135129309Y-114933500D01*
X136018309Y-114933500D01*
X136251698Y-114836827D01*
X136400000Y-114688525D01*
X136548301Y-114836827D01*
X136781690Y-114933500D01*
X137034309Y-114933500D01*
X137923309Y-114933500D01*
X138156698Y-114836827D01*
X138335327Y-114658199D01*
X138379109Y-114552500D01*
X139105462Y-114552500D01*
X139758031Y-115205069D01*
X139884311Y-115510689D01*
X140187714Y-115814622D01*
X140584332Y-115979313D01*
X141013784Y-115979687D01*
X141321599Y-115852500D01*
X142978933Y-115852500D01*
X143284332Y-115979313D01*
X143713784Y-115979687D01*
X144110689Y-115815689D01*
X144216562Y-115710000D01*
X144500000Y-115710000D01*
X144500000Y-115709999D01*
X144809973Y-115648342D01*
X144809974Y-115648342D01*
X145072756Y-115472756D01*
X148645512Y-111900000D01*
X158588760Y-111900000D01*
X158755585Y-112149670D01*
X159070365Y-112360000D01*
X158755585Y-112570330D01*
X158430729Y-113056511D01*
X158316655Y-113630000D01*
X158430729Y-114203489D01*
X158755585Y-114689670D01*
X159070365Y-114900000D01*
X158755585Y-115110330D01*
X158430729Y-115596511D01*
X158316655Y-116170000D01*
X158430729Y-116743489D01*
X158755585Y-117229670D01*
X158777779Y-117244499D01*
X158624301Y-117308073D01*
X158445673Y-117486702D01*
X158349000Y-117720091D01*
X158349000Y-118424250D01*
X158507750Y-118583000D01*
X159873000Y-118583000D01*
X159873000Y-118563000D01*
X160127000Y-118563000D01*
X160127000Y-118583000D01*
X161492250Y-118583000D01*
X161651000Y-118424250D01*
X161651000Y-117720091D01*
X161554327Y-117486702D01*
X161375699Y-117308073D01*
X161222220Y-117244499D01*
X161244415Y-117229670D01*
X161569271Y-116743489D01*
X161683345Y-116170000D01*
X161683345Y-123856921D01*
X161651000Y-123824519D01*
X161651000Y-119699909D01*
X161651000Y-118995750D01*
X161492250Y-118837000D01*
X160127000Y-118837000D01*
X160127000Y-120049850D01*
X160285750Y-120208600D01*
X160889691Y-120208600D01*
X161142310Y-120208600D01*
X161375699Y-120111927D01*
X161554327Y-119933298D01*
X161651000Y-119699909D01*
X161651000Y-123824519D01*
X161094698Y-123267246D01*
X160126483Y-122865208D01*
X159873000Y-122864986D01*
X159873000Y-120049850D01*
X159873000Y-118837000D01*
X158507750Y-118837000D01*
X158349000Y-118995750D01*
X158349000Y-119699909D01*
X158445673Y-119933298D01*
X158624301Y-120111927D01*
X158857690Y-120208600D01*
X159110309Y-120208600D01*
X159714250Y-120208600D01*
X159873000Y-120049850D01*
X159873000Y-122864986D01*
X159078116Y-122864293D01*
X158109201Y-123264641D01*
X157367246Y-124005302D01*
X156965208Y-124973517D01*
X156964293Y-126021884D01*
X157364641Y-126990799D01*
X158105302Y-127732754D01*
X159073517Y-128134792D01*
X160121884Y-128135707D01*
X161090799Y-127735359D01*
X161832754Y-126994698D01*
X162234792Y-126026483D01*
X162235707Y-124978116D01*
X162235707Y-129315000D01*
X143711379Y-129315000D01*
X144014622Y-129012286D01*
X144179313Y-128615668D01*
X144179443Y-128466068D01*
X153472756Y-119172756D01*
X153472757Y-119172756D01*
X153578012Y-119015229D01*
X153648342Y-118909974D01*
X153648342Y-118909973D01*
X153709999Y-118600000D01*
X153710000Y-118600000D01*
X153710000Y-114516725D01*
X153814622Y-114412286D01*
X153979313Y-114015668D01*
X153979687Y-113586216D01*
X153815689Y-113189311D01*
X153512286Y-112885378D01*
X153115668Y-112720687D01*
X152686216Y-112720313D01*
X152289311Y-112884311D01*
X151985378Y-113187714D01*
X151820687Y-113584332D01*
X151820313Y-114013784D01*
X151984311Y-114410689D01*
X152090000Y-114516562D01*
X152090000Y-118264487D01*
X143034046Y-127320441D01*
X142886216Y-127320313D01*
X142489311Y-127484311D01*
X142185378Y-127787714D01*
X142020687Y-128184332D01*
X142020313Y-128613784D01*
X142184311Y-129010689D01*
X142487714Y-129314622D01*
X142488624Y-129315000D01*
X131035707Y-129315000D01*
X131035707Y-125378116D01*
X130635359Y-124409201D01*
X129894698Y-123667246D01*
X128926483Y-123265208D01*
X128751000Y-123265054D01*
X128751000Y-117212309D01*
X128751000Y-116355750D01*
X128592250Y-116197000D01*
X127227000Y-116197000D01*
X127227000Y-117562250D01*
X127385750Y-117721000D01*
X127989691Y-117721000D01*
X128242310Y-117721000D01*
X128475699Y-117624327D01*
X128654327Y-117445698D01*
X128751000Y-117212309D01*
X128751000Y-123265054D01*
X127878116Y-123264293D01*
X126973000Y-123638279D01*
X126973000Y-117562250D01*
X126973000Y-116197000D01*
X125607750Y-116197000D01*
X125449000Y-116355750D01*
X125449000Y-117212309D01*
X125545673Y-117445698D01*
X125724301Y-117624327D01*
X125957690Y-117721000D01*
X126210309Y-117721000D01*
X126814250Y-117721000D01*
X126973000Y-117562250D01*
X126973000Y-123638279D01*
X126909201Y-123664641D01*
X126167246Y-124405302D01*
X125765208Y-125373517D01*
X125764293Y-126421884D01*
X126164641Y-127390799D01*
X126905302Y-128132754D01*
X127873517Y-128534792D01*
X128921884Y-128535707D01*
X129890799Y-128135359D01*
X130632754Y-127394698D01*
X131034792Y-126426483D01*
X131035707Y-125378116D01*
X131035707Y-129315000D01*
X124685000Y-129315000D01*
X124685000Y-100685000D01*
X163315000Y-100685000D01*
X163315000Y-129315000D01*
X163315000Y-129315000D01*
G37*
X163315000Y-129315000D02*
X162335707Y-129315000D01*
X162335707Y-104078116D01*
X161935359Y-103109201D01*
X161194698Y-102367246D01*
X160226483Y-101965208D01*
X159178116Y-101964293D01*
X158209201Y-102364641D01*
X157467246Y-103105302D01*
X157065208Y-104073517D01*
X157064293Y-105121884D01*
X157464641Y-106090799D01*
X158205302Y-106832754D01*
X159173517Y-107234792D01*
X160221884Y-107235707D01*
X161190799Y-106835359D01*
X161932754Y-106094698D01*
X162334792Y-105126483D01*
X162335707Y-104078116D01*
X162335707Y-129315000D01*
X162235707Y-129315000D01*
X162235707Y-124978116D01*
X161835359Y-124009201D01*
X161683345Y-123856921D01*
X161683345Y-116170000D01*
X161569271Y-115596511D01*
X161244415Y-115110330D01*
X160929634Y-114900000D01*
X161244415Y-114689670D01*
X161569271Y-114203489D01*
X161683345Y-113630000D01*
X161569271Y-113056511D01*
X161244415Y-112570330D01*
X160929634Y-112360000D01*
X161244415Y-112149670D01*
X161569271Y-111663489D01*
X161683345Y-111090000D01*
X161569271Y-110516511D01*
X161244415Y-110030330D01*
X160758234Y-109705474D01*
X160184745Y-109591400D01*
X159815255Y-109591400D01*
X159241766Y-109705474D01*
X158755585Y-110030330D01*
X158588760Y-110280000D01*
X148310000Y-110280000D01*
X148000027Y-110341657D01*
X147737244Y-110517243D01*
X144190629Y-114063858D01*
X144112286Y-113985378D01*
X143715668Y-113820687D01*
X143286216Y-113820313D01*
X142978400Y-113947500D01*
X141321066Y-113947500D01*
X141104690Y-113857652D01*
X140173519Y-112926481D01*
X139864506Y-112720005D01*
X139500000Y-112647500D01*
X138379108Y-112647500D01*
X138335327Y-112541802D01*
X138156699Y-112363173D01*
X137923310Y-112266500D01*
X137670691Y-112266500D01*
X136781691Y-112266500D01*
X136548302Y-112363173D01*
X136399999Y-112511474D01*
X136251699Y-112363173D01*
X136018310Y-112266500D01*
X135765691Y-112266500D01*
X134876691Y-112266500D01*
X134643302Y-112363173D01*
X134464673Y-112541801D01*
X134441601Y-112597500D01*
X133928440Y-112597500D01*
X133863327Y-112440302D01*
X133723025Y-112300000D01*
X133863327Y-112159698D01*
X133960000Y-111926309D01*
X133960000Y-111335750D01*
X133960000Y-110764250D01*
X133960000Y-110173691D01*
X133863327Y-109940302D01*
X133684699Y-109761673D01*
X133451310Y-109665000D01*
X133198691Y-109665000D01*
X132985750Y-109665000D01*
X132827000Y-109823750D01*
X132827000Y-110923000D01*
X133801250Y-110923000D01*
X133960000Y-110764250D01*
X133960000Y-111335750D01*
X133801250Y-111177000D01*
X132827000Y-111177000D01*
X132827000Y-111197000D01*
X132573000Y-111197000D01*
X132573000Y-111177000D01*
X132573000Y-110923000D01*
X132573000Y-109823750D01*
X132414250Y-109665000D01*
X132201309Y-109665000D01*
X131948690Y-109665000D01*
X131715301Y-109761673D01*
X131536673Y-109940302D01*
X131440000Y-110173691D01*
X131440000Y-110764250D01*
X131598750Y-110923000D01*
X132573000Y-110923000D01*
X132573000Y-111177000D01*
X131598750Y-111177000D01*
X131440000Y-111335750D01*
X131440000Y-111926309D01*
X131536673Y-112159698D01*
X131676974Y-112300000D01*
X131536673Y-112440301D01*
X131479843Y-112577500D01*
X131135707Y-112577500D01*
X131135707Y-103978116D01*
X130735359Y-103009201D01*
X129994698Y-102267246D01*
X129026483Y-101865208D01*
X127978116Y-101864293D01*
X127009201Y-102264641D01*
X126267246Y-103005302D01*
X125865208Y-103973517D01*
X125864293Y-105021884D01*
X126264641Y-105990799D01*
X127005302Y-106732754D01*
X127973517Y-107134792D01*
X129021884Y-107135707D01*
X129990799Y-106735359D01*
X130732754Y-105994698D01*
X131134792Y-105026483D01*
X131135707Y-103978116D01*
X131135707Y-112577500D01*
X128432658Y-112577500D01*
X128267433Y-112330222D01*
X127731810Y-111972330D01*
X127100000Y-111846655D01*
X126468190Y-111972330D01*
X125932567Y-112330222D01*
X125574675Y-112865845D01*
X125449000Y-113497655D01*
X125449000Y-113562345D01*
X125574675Y-114194155D01*
X125775371Y-114494518D01*
X125724301Y-114515673D01*
X125545673Y-114694302D01*
X125449000Y-114927691D01*
X125449000Y-115784250D01*
X125607750Y-115943000D01*
X126973000Y-115943000D01*
X126973000Y-115923000D01*
X127227000Y-115923000D01*
X127227000Y-115943000D01*
X128592250Y-115943000D01*
X128751000Y-115784250D01*
X128751000Y-114927691D01*
X128654327Y-114694302D01*
X128475699Y-114515673D01*
X128424628Y-114494518D01*
X128432658Y-114482500D01*
X131463275Y-114482500D01*
X131536673Y-114659698D01*
X131715301Y-114838327D01*
X131948690Y-114935000D01*
X132201309Y-114935000D01*
X133451309Y-114935000D01*
X133684698Y-114838327D01*
X133863327Y-114659699D01*
X133928441Y-114502500D01*
X134400180Y-114502500D01*
X134464673Y-114658198D01*
X134643301Y-114836827D01*
X134876690Y-114933500D01*
X135129309Y-114933500D01*
X136018309Y-114933500D01*
X136251698Y-114836827D01*
X136400000Y-114688525D01*
X136548301Y-114836827D01*
X136781690Y-114933500D01*
X137034309Y-114933500D01*
X137923309Y-114933500D01*
X138156698Y-114836827D01*
X138335327Y-114658199D01*
X138379109Y-114552500D01*
X139105462Y-114552500D01*
X139758031Y-115205069D01*
X139884311Y-115510689D01*
X140187714Y-115814622D01*
X140584332Y-115979313D01*
X141013784Y-115979687D01*
X141321599Y-115852500D01*
X142978933Y-115852500D01*
X143284332Y-115979313D01*
X143713784Y-115979687D01*
X144110689Y-115815689D01*
X144216562Y-115710000D01*
X144500000Y-115710000D01*
X144500000Y-115709999D01*
X144809973Y-115648342D01*
X144809974Y-115648342D01*
X145072756Y-115472756D01*
X148645512Y-111900000D01*
X158588760Y-111900000D01*
X158755585Y-112149670D01*
X159070365Y-112360000D01*
X158755585Y-112570330D01*
X158430729Y-113056511D01*
X158316655Y-113630000D01*
X158430729Y-114203489D01*
X158755585Y-114689670D01*
X159070365Y-114900000D01*
X158755585Y-115110330D01*
X158430729Y-115596511D01*
X158316655Y-116170000D01*
X158430729Y-116743489D01*
X158755585Y-117229670D01*
X158777779Y-117244499D01*
X158624301Y-117308073D01*
X158445673Y-117486702D01*
X158349000Y-117720091D01*
X158349000Y-118424250D01*
X158507750Y-118583000D01*
X159873000Y-118583000D01*
X159873000Y-118563000D01*
X160127000Y-118563000D01*
X160127000Y-118583000D01*
X161492250Y-118583000D01*
X161651000Y-118424250D01*
X161651000Y-117720091D01*
X161554327Y-117486702D01*
X161375699Y-117308073D01*
X161222220Y-117244499D01*
X161244415Y-117229670D01*
X161569271Y-116743489D01*
X161683345Y-116170000D01*
X161683345Y-123856921D01*
X161651000Y-123824519D01*
X161651000Y-119699909D01*
X161651000Y-118995750D01*
X161492250Y-118837000D01*
X160127000Y-118837000D01*
X160127000Y-120049850D01*
X160285750Y-120208600D01*
X160889691Y-120208600D01*
X161142310Y-120208600D01*
X161375699Y-120111927D01*
X161554327Y-119933298D01*
X161651000Y-119699909D01*
X161651000Y-123824519D01*
X161094698Y-123267246D01*
X160126483Y-122865208D01*
X159873000Y-122864986D01*
X159873000Y-120049850D01*
X159873000Y-118837000D01*
X158507750Y-118837000D01*
X158349000Y-118995750D01*
X158349000Y-119699909D01*
X158445673Y-119933298D01*
X158624301Y-120111927D01*
X158857690Y-120208600D01*
X159110309Y-120208600D01*
X159714250Y-120208600D01*
X159873000Y-120049850D01*
X159873000Y-122864986D01*
X159078116Y-122864293D01*
X158109201Y-123264641D01*
X157367246Y-124005302D01*
X156965208Y-124973517D01*
X156964293Y-126021884D01*
X157364641Y-126990799D01*
X158105302Y-127732754D01*
X159073517Y-128134792D01*
X160121884Y-128135707D01*
X161090799Y-127735359D01*
X161832754Y-126994698D01*
X162234792Y-126026483D01*
X162235707Y-124978116D01*
X162235707Y-129315000D01*
X143711379Y-129315000D01*
X144014622Y-129012286D01*
X144179313Y-128615668D01*
X144179443Y-128466068D01*
X153472756Y-119172756D01*
X153472757Y-119172756D01*
X153578012Y-119015229D01*
X153648342Y-118909974D01*
X153648342Y-118909973D01*
X153709999Y-118600000D01*
X153710000Y-118600000D01*
X153710000Y-114516725D01*
X153814622Y-114412286D01*
X153979313Y-114015668D01*
X153979687Y-113586216D01*
X153815689Y-113189311D01*
X153512286Y-112885378D01*
X153115668Y-112720687D01*
X152686216Y-112720313D01*
X152289311Y-112884311D01*
X151985378Y-113187714D01*
X151820687Y-113584332D01*
X151820313Y-114013784D01*
X151984311Y-114410689D01*
X152090000Y-114516562D01*
X152090000Y-118264487D01*
X143034046Y-127320441D01*
X142886216Y-127320313D01*
X142489311Y-127484311D01*
X142185378Y-127787714D01*
X142020687Y-128184332D01*
X142020313Y-128613784D01*
X142184311Y-129010689D01*
X142487714Y-129314622D01*
X142488624Y-129315000D01*
X131035707Y-129315000D01*
X131035707Y-125378116D01*
X130635359Y-124409201D01*
X129894698Y-123667246D01*
X128926483Y-123265208D01*
X128751000Y-123265054D01*
X128751000Y-117212309D01*
X128751000Y-116355750D01*
X128592250Y-116197000D01*
X127227000Y-116197000D01*
X127227000Y-117562250D01*
X127385750Y-117721000D01*
X127989691Y-117721000D01*
X128242310Y-117721000D01*
X128475699Y-117624327D01*
X128654327Y-117445698D01*
X128751000Y-117212309D01*
X128751000Y-123265054D01*
X127878116Y-123264293D01*
X126973000Y-123638279D01*
X126973000Y-117562250D01*
X126973000Y-116197000D01*
X125607750Y-116197000D01*
X125449000Y-116355750D01*
X125449000Y-117212309D01*
X125545673Y-117445698D01*
X125724301Y-117624327D01*
X125957690Y-117721000D01*
X126210309Y-117721000D01*
X126814250Y-117721000D01*
X126973000Y-117562250D01*
X126973000Y-123638279D01*
X126909201Y-123664641D01*
X126167246Y-124405302D01*
X125765208Y-125373517D01*
X125764293Y-126421884D01*
X126164641Y-127390799D01*
X126905302Y-128132754D01*
X127873517Y-128534792D01*
X128921884Y-128535707D01*
X129890799Y-128135359D01*
X130632754Y-127394698D01*
X131034792Y-126426483D01*
X131035707Y-125378116D01*
X131035707Y-129315000D01*
X124685000Y-129315000D01*
X124685000Y-100685000D01*
X163315000Y-100685000D01*
X163315000Y-129315000D01*
M02*
