%FSLAX46Y46*%
G04 Gerber Fmt 4.6, Leading zero omitted, Abs format (unit mm)*
G04 Created by KiCad (PCBNEW (2014-10-27 BZR 5228)-product) date 17/01/2015 10:16:10*
%MOMM*%
G01*
G04 APERTURE LIST*
%ADD10C,0.100000*%
%ADD11R,2.032000X2.032000*%
%ADD12O,2.032000X2.032000*%
%ADD13R,2.032000X1.727200*%
%ADD14O,2.032000X1.727200*%
%ADD15R,1.800860X3.500120*%
%ADD16R,0.889000X1.397000*%
%ADD17R,1.250000X1.500000*%
%ADD18R,1.300000X1.500000*%
%ADD19R,1.249680X0.899160*%
%ADD20R,1.998980X0.500380*%
%ADD21R,0.899160X1.249680*%
%ADD22R,0.500380X1.998980*%
%ADD23R,1.397000X0.889000*%
%ADD24R,0.419100X1.470660*%
%ADD25O,5.000000X3.000000*%
G04 APERTURE END LIST*
D10*
D11*
X127100000Y-116070000D03*
D12*
X127100000Y-113530000D03*
D13*
X160000000Y-118710000D03*
D14*
X160000000Y-116170000D03*
X160000000Y-113630000D03*
X160000000Y-111090000D03*
D15*
X152500000Y-104500260D03*
X152500000Y-110499740D03*
D16*
X157152500Y-113800000D03*
X155247500Y-113800000D03*
X136947500Y-121100000D03*
X138852500Y-121100000D03*
X145947500Y-121100000D03*
X147852500Y-121100000D03*
D17*
X145000000Y-126150000D03*
X145000000Y-128650000D03*
X140700000Y-121450000D03*
X140700000Y-123950000D03*
X143600000Y-107350000D03*
X143600000Y-104850000D03*
X143500000Y-123650000D03*
X143500000Y-121150000D03*
X149900000Y-119350000D03*
X149900000Y-121850000D03*
D18*
X135300000Y-113750000D03*
X135300000Y-116450000D03*
X135500000Y-107750000D03*
X135500000Y-110450000D03*
X149700000Y-108350000D03*
X149700000Y-111050000D03*
D19*
X141400000Y-128198880D03*
X141400000Y-125801120D03*
D20*
X141400000Y-127000000D03*
D17*
X137000000Y-124150000D03*
X137000000Y-126650000D03*
X148000000Y-124450000D03*
X148000000Y-126950000D03*
D21*
X151201120Y-116800000D03*
X153598880Y-116800000D03*
D22*
X152400000Y-116800000D03*
D15*
X153200000Y-127699740D03*
X153200000Y-121700260D03*
D23*
X156600000Y-120552500D03*
X156600000Y-118647500D03*
D18*
X149600000Y-116250000D03*
X149600000Y-113550000D03*
D24*
X142125120Y-112100920D03*
X141474880Y-112100920D03*
X140824640Y-112100920D03*
X140174400Y-112100920D03*
X144065680Y-117694000D03*
X144075840Y-112100920D03*
X143425600Y-112100920D03*
X142775360Y-112100920D03*
X139524160Y-117699080D03*
X140174400Y-117699080D03*
X140824640Y-117699080D03*
X141474880Y-117699080D03*
X142125120Y-117699080D03*
X142775360Y-117699080D03*
X139524160Y-112100920D03*
X143425600Y-117694000D03*
X144726080Y-112100920D03*
X138873920Y-112100920D03*
X138873920Y-117699080D03*
X144726080Y-117699080D03*
X145373780Y-112100920D03*
X138226220Y-112100920D03*
X138226220Y-117699080D03*
X145373780Y-117699080D03*
X146024020Y-112100920D03*
X137575980Y-112100920D03*
X137575980Y-117699080D03*
X146024020Y-117699080D03*
D25*
X141800000Y-114900000D03*
M02*
