%FSLAX46Y46*%
G04 Gerber Fmt 4.6, Leading zero omitted, Abs format (unit mm)*
G04 Created by KiCad (PCBNEW (2014-10-27 BZR 5228)-product) date 19/01/2015 07:29:33*
%MOMM*%
G01*
G04 APERTURE LIST*
%ADD10C,0.100000*%
%ADD11C,0.150000*%
G04 APERTURE END LIST*
D10*
D11*
X133076000Y-118338000D02*
G75*
G03X133076000Y-118338000I-127000J0D01*
G01*
X134092000Y-118338000D02*
X133076000Y-118338000D01*
X133076000Y-118338000D02*
X133076000Y-119862000D01*
X133076000Y-119862000D02*
X134092000Y-119862000D01*
X135108000Y-119862000D02*
X136124000Y-119862000D01*
X136124000Y-119862000D02*
X136124000Y-118338000D01*
X136124000Y-118338000D02*
X135108000Y-118338000D01*
X134399260Y-117550180D02*
X131000740Y-117550180D01*
X131000740Y-109300260D02*
X131000740Y-115299740D01*
X134399260Y-109300260D02*
X134399260Y-115299740D01*
X135402560Y-118053100D02*
X134302740Y-118053100D01*
X134902180Y-118652540D02*
X134902180Y-117453660D01*
X155550180Y-102500740D02*
X155550180Y-105899260D01*
X147300260Y-105899260D02*
X153299740Y-105899260D01*
X147300260Y-102500740D02*
X153299740Y-102500740D01*
X156053100Y-101497440D02*
X156053100Y-102597260D01*
X156652540Y-101997820D02*
X155453660Y-101997820D01*
X155700000Y-110350000D02*
X156700000Y-110350000D01*
X156700000Y-112050000D02*
X155700000Y-112050000D01*
X134766666Y-121352381D02*
X135242857Y-121352381D01*
X135242857Y-120352381D01*
X133957142Y-120352381D02*
X134433333Y-120352381D01*
X134480952Y-120828571D01*
X134433333Y-120780952D01*
X134338095Y-120733333D01*
X134099999Y-120733333D01*
X134004761Y-120780952D01*
X133957142Y-120828571D01*
X133909523Y-120923810D01*
X133909523Y-121161905D01*
X133957142Y-121257143D01*
X134004761Y-121304762D01*
X134099999Y-121352381D01*
X134338095Y-121352381D01*
X134433333Y-121304762D01*
X134480952Y-121257143D01*
X136356603Y-112333994D02*
X136404222Y-112286375D01*
X136451841Y-112143518D01*
X136451841Y-112048280D01*
X136404222Y-111905422D01*
X136308984Y-111810184D01*
X136213746Y-111762565D01*
X136023270Y-111714946D01*
X135880412Y-111714946D01*
X135689936Y-111762565D01*
X135594698Y-111810184D01*
X135499460Y-111905422D01*
X135451841Y-112048280D01*
X135451841Y-112143518D01*
X135499460Y-112286375D01*
X135547079Y-112333994D01*
X135451841Y-113238756D02*
X135451841Y-112762565D01*
X135928031Y-112714946D01*
X135880412Y-112762565D01*
X135832793Y-112857803D01*
X135832793Y-113095899D01*
X135880412Y-113191137D01*
X135928031Y-113238756D01*
X136023270Y-113286375D01*
X136261365Y-113286375D01*
X136356603Y-113238756D01*
X136404222Y-113191137D01*
X136451841Y-113095899D01*
X136451841Y-112857803D01*
X136404222Y-112762565D01*
X136356603Y-112714946D01*
X134971069Y-117669608D02*
X134971069Y-118431513D01*
X135352021Y-118050561D02*
X134590116Y-118050561D01*
X151143517Y-101257683D02*
X151191136Y-101305302D01*
X151333993Y-101352921D01*
X151429231Y-101352921D01*
X151572089Y-101305302D01*
X151667327Y-101210064D01*
X151714946Y-101114826D01*
X151762565Y-100924350D01*
X151762565Y-100781492D01*
X151714946Y-100591016D01*
X151667327Y-100495778D01*
X151572089Y-100400540D01*
X151429231Y-100352921D01*
X151333993Y-100352921D01*
X151191136Y-100400540D01*
X151143517Y-100448159D01*
X150191136Y-101352921D02*
X150762565Y-101352921D01*
X150476851Y-101352921D02*
X150476851Y-100352921D01*
X150572089Y-100495778D01*
X150667327Y-100591016D01*
X150762565Y-100638635D01*
X149857803Y-100352921D02*
X149238755Y-100352921D01*
X149572089Y-100733873D01*
X149429231Y-100733873D01*
X149333993Y-100781492D01*
X149286374Y-100829111D01*
X149238755Y-100924350D01*
X149238755Y-101162445D01*
X149286374Y-101257683D01*
X149333993Y-101305302D01*
X149429231Y-101352921D01*
X149714946Y-101352921D01*
X149810184Y-101305302D01*
X149857803Y-101257683D01*
X156431512Y-102071789D02*
X155669607Y-102071789D01*
X156050559Y-102452741D02*
X156050559Y-101690836D01*
X156842857Y-109457143D02*
X156890476Y-109504762D01*
X157033333Y-109552381D01*
X157128571Y-109552381D01*
X157271429Y-109504762D01*
X157366667Y-109409524D01*
X157414286Y-109314286D01*
X157461905Y-109123810D01*
X157461905Y-108980952D01*
X157414286Y-108790476D01*
X157366667Y-108695238D01*
X157271429Y-108600000D01*
X157128571Y-108552381D01*
X157033333Y-108552381D01*
X156890476Y-108600000D01*
X156842857Y-108647619D01*
X155890476Y-109552381D02*
X156461905Y-109552381D01*
X156176191Y-109552381D02*
X156176191Y-108552381D01*
X156271429Y-108695238D01*
X156366667Y-108790476D01*
X156461905Y-108838095D01*
X155033333Y-108885714D02*
X155033333Y-109552381D01*
X155271429Y-108504762D02*
X155509524Y-109219048D01*
X154890476Y-109219048D01*
X157223809Y-113752381D02*
X157223809Y-112752381D01*
X156985714Y-112752381D01*
X156842856Y-112800000D01*
X156747618Y-112895238D01*
X156699999Y-112990476D01*
X156652380Y-113180952D01*
X156652380Y-113323810D01*
X156699999Y-113514286D01*
X156747618Y-113609524D01*
X156842856Y-113704762D01*
X156985714Y-113752381D01*
X157223809Y-113752381D01*
X156223809Y-113752381D02*
X156223809Y-112752381D01*
X155652380Y-113752381D01*
X155652380Y-112752381D01*
X155176190Y-113752381D02*
X155176190Y-112752381D01*
M02*
