%FSLAX46Y46*%
G04 Gerber Fmt 4.6, Leading zero omitted, Abs format (unit mm)*
G04 Created by KiCad (PCBNEW (2014-10-27 BZR 5228)-product) date 17/01/2015 07:27:26*
%MOMM*%
G01*
G04 APERTURE LIST*
%ADD10C,0.100000*%
%ADD11C,0.150000*%
%ADD12C,0.127000*%
G04 APERTURE END LIST*
D10*
D11*
X131438095Y-101377381D02*
X131438095Y-100377381D01*
X131438095Y-100853571D02*
X132009524Y-100853571D01*
X132009524Y-101377381D02*
X132009524Y-100377381D01*
X132866667Y-101329762D02*
X132771429Y-101377381D01*
X132580952Y-101377381D01*
X132485714Y-101329762D01*
X132438095Y-101234524D01*
X132438095Y-100853571D01*
X132485714Y-100758333D01*
X132580952Y-100710714D01*
X132771429Y-100710714D01*
X132866667Y-100758333D01*
X132914286Y-100853571D01*
X132914286Y-100948810D01*
X132438095Y-101044048D01*
X133342857Y-101377381D02*
X133342857Y-100710714D01*
X133342857Y-100901190D02*
X133390476Y-100805952D01*
X133438095Y-100758333D01*
X133533333Y-100710714D01*
X133628572Y-100710714D01*
X133961905Y-101377381D02*
X133961905Y-100710714D01*
X133961905Y-100805952D02*
X134009524Y-100758333D01*
X134104762Y-100710714D01*
X134247620Y-100710714D01*
X134342858Y-100758333D01*
X134390477Y-100853571D01*
X134390477Y-101377381D01*
X134390477Y-100853571D02*
X134438096Y-100758333D01*
X134533334Y-100710714D01*
X134676191Y-100710714D01*
X134771429Y-100758333D01*
X134819048Y-100853571D01*
X134819048Y-101377381D01*
X135676191Y-101329762D02*
X135580953Y-101377381D01*
X135390476Y-101377381D01*
X135295238Y-101329762D01*
X135247619Y-101234524D01*
X135247619Y-100853571D01*
X135295238Y-100758333D01*
X135390476Y-100710714D01*
X135580953Y-100710714D01*
X135676191Y-100758333D01*
X135723810Y-100853571D01*
X135723810Y-100948810D01*
X135247619Y-101044048D01*
X136104762Y-101329762D02*
X136200000Y-101377381D01*
X136390476Y-101377381D01*
X136485715Y-101329762D01*
X136533334Y-101234524D01*
X136533334Y-101186905D01*
X136485715Y-101091667D01*
X136390476Y-101044048D01*
X136247619Y-101044048D01*
X136152381Y-100996429D01*
X136104762Y-100901190D01*
X136104762Y-100853571D01*
X136152381Y-100758333D01*
X136247619Y-100710714D01*
X136390476Y-100710714D01*
X136485715Y-100758333D01*
X138200001Y-101377381D02*
X137723810Y-101377381D01*
X137723810Y-100377381D01*
X138533334Y-101377381D02*
X138533334Y-100710714D01*
X138533334Y-100377381D02*
X138485715Y-100425000D01*
X138533334Y-100472619D01*
X138580953Y-100425000D01*
X138533334Y-100377381D01*
X138533334Y-100472619D01*
X138866667Y-100710714D02*
X139247619Y-100710714D01*
X139009524Y-100377381D02*
X139009524Y-101234524D01*
X139057143Y-101329762D01*
X139152381Y-101377381D01*
X139247619Y-101377381D01*
X139961906Y-101329762D02*
X139866668Y-101377381D01*
X139676191Y-101377381D01*
X139580953Y-101329762D01*
X139533334Y-101234524D01*
X139533334Y-100853571D01*
X139580953Y-100758333D01*
X139676191Y-100710714D01*
X139866668Y-100710714D01*
X139961906Y-100758333D01*
X140009525Y-100853571D01*
X140009525Y-100948810D01*
X139533334Y-101044048D01*
X141723811Y-101377381D02*
X141152382Y-101377381D01*
X141438096Y-101377381D02*
X141438096Y-100377381D01*
X141342858Y-100520238D01*
X141247620Y-100615476D01*
X141152382Y-100663095D01*
X142104763Y-100472619D02*
X142152382Y-100425000D01*
X142247620Y-100377381D01*
X142485716Y-100377381D01*
X142580954Y-100425000D01*
X142628573Y-100472619D01*
X142676192Y-100567857D01*
X142676192Y-100663095D01*
X142628573Y-100805952D01*
X142057144Y-101377381D01*
X142676192Y-101377381D01*
X142961906Y-100377381D02*
X143295239Y-101377381D01*
X143628573Y-100377381D01*
X144723811Y-101377381D02*
X144723811Y-100377381D01*
X145104764Y-100377381D01*
X145200002Y-100425000D01*
X145247621Y-100472619D01*
X145295240Y-100567857D01*
X145295240Y-100710714D01*
X145247621Y-100805952D01*
X145200002Y-100853571D01*
X145104764Y-100901190D01*
X144723811Y-100901190D01*
X145866668Y-101377381D02*
X145771430Y-101329762D01*
X145723811Y-101282143D01*
X145676192Y-101186905D01*
X145676192Y-100901190D01*
X145723811Y-100805952D01*
X145771430Y-100758333D01*
X145866668Y-100710714D01*
X146009526Y-100710714D01*
X146104764Y-100758333D01*
X146152383Y-100805952D01*
X146200002Y-100901190D01*
X146200002Y-101186905D01*
X146152383Y-101282143D01*
X146104764Y-101329762D01*
X146009526Y-101377381D01*
X145866668Y-101377381D01*
X146533335Y-100710714D02*
X146723811Y-101377381D01*
X146914288Y-100901190D01*
X147104764Y-101377381D01*
X147295240Y-100710714D01*
X148057145Y-101329762D02*
X147961907Y-101377381D01*
X147771430Y-101377381D01*
X147676192Y-101329762D01*
X147628573Y-101234524D01*
X147628573Y-100853571D01*
X147676192Y-100758333D01*
X147771430Y-100710714D01*
X147961907Y-100710714D01*
X148057145Y-100758333D01*
X148104764Y-100853571D01*
X148104764Y-100948810D01*
X147628573Y-101044048D01*
X148533335Y-101377381D02*
X148533335Y-100710714D01*
X148533335Y-100901190D02*
X148580954Y-100805952D01*
X148628573Y-100758333D01*
X148723811Y-100710714D01*
X148819050Y-100710714D01*
X150485717Y-101282143D02*
X150438098Y-101329762D01*
X150295241Y-101377381D01*
X150200003Y-101377381D01*
X150057145Y-101329762D01*
X149961907Y-101234524D01*
X149914288Y-101139286D01*
X149866669Y-100948810D01*
X149866669Y-100805952D01*
X149914288Y-100615476D01*
X149961907Y-100520238D01*
X150057145Y-100425000D01*
X150200003Y-100377381D01*
X150295241Y-100377381D01*
X150438098Y-100425000D01*
X150485717Y-100472619D01*
X151057145Y-101377381D02*
X150961907Y-101329762D01*
X150914288Y-101282143D01*
X150866669Y-101186905D01*
X150866669Y-100901190D01*
X150914288Y-100805952D01*
X150961907Y-100758333D01*
X151057145Y-100710714D01*
X151200003Y-100710714D01*
X151295241Y-100758333D01*
X151342860Y-100805952D01*
X151390479Y-100901190D01*
X151390479Y-101186905D01*
X151342860Y-101282143D01*
X151295241Y-101329762D01*
X151200003Y-101377381D01*
X151057145Y-101377381D01*
X151819050Y-100710714D02*
X151819050Y-101377381D01*
X151819050Y-100805952D02*
X151866669Y-100758333D01*
X151961907Y-100710714D01*
X152104765Y-100710714D01*
X152200003Y-100758333D01*
X152247622Y-100853571D01*
X152247622Y-101377381D01*
X152628574Y-100710714D02*
X152866669Y-101377381D01*
X153104765Y-100710714D01*
X153866670Y-101329762D02*
X153771432Y-101377381D01*
X153580955Y-101377381D01*
X153485717Y-101329762D01*
X153438098Y-101234524D01*
X153438098Y-100853571D01*
X153485717Y-100758333D01*
X153580955Y-100710714D01*
X153771432Y-100710714D01*
X153866670Y-100758333D01*
X153914289Y-100853571D01*
X153914289Y-100948810D01*
X153438098Y-101044048D01*
X154342860Y-101377381D02*
X154342860Y-100710714D01*
X154342860Y-100901190D02*
X154390479Y-100805952D01*
X154438098Y-100758333D01*
X154533336Y-100710714D01*
X154628575Y-100710714D01*
X154819051Y-100710714D02*
X155200003Y-100710714D01*
X154961908Y-100377381D02*
X154961908Y-101234524D01*
X155009527Y-101329762D01*
X155104765Y-101377381D01*
X155200003Y-101377381D01*
X155914290Y-101329762D02*
X155819052Y-101377381D01*
X155628575Y-101377381D01*
X155533337Y-101329762D01*
X155485718Y-101234524D01*
X155485718Y-100853571D01*
X155533337Y-100758333D01*
X155628575Y-100710714D01*
X155819052Y-100710714D01*
X155914290Y-100758333D01*
X155961909Y-100853571D01*
X155961909Y-100948810D01*
X155485718Y-101044048D01*
X156390480Y-101377381D02*
X156390480Y-100710714D01*
X156390480Y-100901190D02*
X156438099Y-100805952D01*
X156485718Y-100758333D01*
X156580956Y-100710714D01*
X156676195Y-100710714D01*
X133771429Y-102165476D02*
X133676191Y-102117857D01*
X133485715Y-102117857D01*
X133390477Y-102165476D01*
X133295239Y-102260714D01*
X133247620Y-102355952D01*
X133247620Y-102546429D01*
X133295239Y-102641667D01*
X133390477Y-102736905D01*
X133485715Y-102784524D01*
X133676191Y-102784524D01*
X133771429Y-102736905D01*
X133580953Y-101784524D02*
X133342858Y-101832143D01*
X133104762Y-101975000D01*
X132961905Y-102213095D01*
X132914286Y-102451190D01*
X132961905Y-102689286D01*
X133104762Y-102927381D01*
X133342858Y-103070238D01*
X133580953Y-103117857D01*
X133819048Y-103070238D01*
X134057143Y-102927381D01*
X134200000Y-102689286D01*
X134247620Y-102451190D01*
X134200000Y-102213095D01*
X134057143Y-101975000D01*
X133819048Y-101832143D01*
X133580953Y-101784524D01*
X135390477Y-102022619D02*
X135438096Y-101975000D01*
X135533334Y-101927381D01*
X135771430Y-101927381D01*
X135866668Y-101975000D01*
X135914287Y-102022619D01*
X135961906Y-102117857D01*
X135961906Y-102213095D01*
X135914287Y-102355952D01*
X135342858Y-102927381D01*
X135961906Y-102927381D01*
X136580953Y-101927381D02*
X136676192Y-101927381D01*
X136771430Y-101975000D01*
X136819049Y-102022619D01*
X136866668Y-102117857D01*
X136914287Y-102308333D01*
X136914287Y-102546429D01*
X136866668Y-102736905D01*
X136819049Y-102832143D01*
X136771430Y-102879762D01*
X136676192Y-102927381D01*
X136580953Y-102927381D01*
X136485715Y-102879762D01*
X136438096Y-102832143D01*
X136390477Y-102736905D01*
X136342858Y-102546429D01*
X136342858Y-102308333D01*
X136390477Y-102117857D01*
X136438096Y-102022619D01*
X136485715Y-101975000D01*
X136580953Y-101927381D01*
X137866668Y-102927381D02*
X137295239Y-102927381D01*
X137580953Y-102927381D02*
X137580953Y-101927381D01*
X137485715Y-102070238D01*
X137390477Y-102165476D01*
X137295239Y-102213095D01*
X138771430Y-101927381D02*
X138295239Y-101927381D01*
X138247620Y-102403571D01*
X138295239Y-102355952D01*
X138390477Y-102308333D01*
X138628573Y-102308333D01*
X138723811Y-102355952D01*
X138771430Y-102403571D01*
X138819049Y-102498810D01*
X138819049Y-102736905D01*
X138771430Y-102832143D01*
X138723811Y-102879762D01*
X138628573Y-102927381D01*
X138390477Y-102927381D01*
X138295239Y-102879762D01*
X138247620Y-102832143D01*
X139961906Y-102641667D02*
X140438097Y-102641667D01*
X139866668Y-102927381D02*
X140200001Y-101927381D01*
X140533335Y-102927381D01*
X141438097Y-102832143D02*
X141390478Y-102879762D01*
X141247621Y-102927381D01*
X141152383Y-102927381D01*
X141009525Y-102879762D01*
X140914287Y-102784524D01*
X140866668Y-102689286D01*
X140819049Y-102498810D01*
X140819049Y-102355952D01*
X140866668Y-102165476D01*
X140914287Y-102070238D01*
X141009525Y-101975000D01*
X141152383Y-101927381D01*
X141247621Y-101927381D01*
X141390478Y-101975000D01*
X141438097Y-102022619D01*
X141914287Y-102927381D02*
X142104763Y-102927381D01*
X142200002Y-102879762D01*
X142247621Y-102832143D01*
X142342859Y-102689286D01*
X142390478Y-102498810D01*
X142390478Y-102117857D01*
X142342859Y-102022619D01*
X142295240Y-101975000D01*
X142200002Y-101927381D01*
X142009525Y-101927381D01*
X141914287Y-101975000D01*
X141866668Y-102022619D01*
X141819049Y-102117857D01*
X141819049Y-102355952D01*
X141866668Y-102451190D01*
X141914287Y-102498810D01*
X142009525Y-102546429D01*
X142200002Y-102546429D01*
X142295240Y-102498810D01*
X142342859Y-102451190D01*
X142390478Y-102355952D01*
X142819049Y-102927381D02*
X142819049Y-101927381D01*
X142819049Y-102403571D02*
X143390478Y-102403571D01*
X143390478Y-102927381D02*
X143390478Y-101927381D01*
X144057144Y-102451190D02*
X144057144Y-102927381D01*
X143723811Y-101927381D02*
X144057144Y-102451190D01*
X144390478Y-101927381D01*
X145390478Y-102260714D02*
X145628573Y-102927381D01*
X145866669Y-102260714D01*
X146628574Y-102879762D02*
X146533336Y-102927381D01*
X146342859Y-102927381D01*
X146247621Y-102879762D01*
X146200002Y-102784524D01*
X146200002Y-102403571D01*
X146247621Y-102308333D01*
X146342859Y-102260714D01*
X146533336Y-102260714D01*
X146628574Y-102308333D01*
X146676193Y-102403571D01*
X146676193Y-102498810D01*
X146200002Y-102594048D01*
X147104764Y-102927381D02*
X147104764Y-102260714D01*
X147104764Y-102451190D02*
X147152383Y-102355952D01*
X147200002Y-102308333D01*
X147295240Y-102260714D01*
X147390479Y-102260714D01*
X149009527Y-102927381D02*
X148438098Y-102927381D01*
X148723812Y-102927381D02*
X148723812Y-101927381D01*
X148628574Y-102070238D01*
X148533336Y-102165476D01*
X148438098Y-102213095D01*
X149438098Y-102832143D02*
X149485717Y-102879762D01*
X149438098Y-102927381D01*
X149390479Y-102879762D01*
X149438098Y-102832143D01*
X149438098Y-102927381D01*
X150104764Y-101927381D02*
X150200003Y-101927381D01*
X150295241Y-101975000D01*
X150342860Y-102022619D01*
X150390479Y-102117857D01*
X150438098Y-102308333D01*
X150438098Y-102546429D01*
X150390479Y-102736905D01*
X150342860Y-102832143D01*
X150295241Y-102879762D01*
X150200003Y-102927381D01*
X150104764Y-102927381D01*
X150009526Y-102879762D01*
X149961907Y-102832143D01*
X149914288Y-102736905D01*
X149866669Y-102546429D01*
X149866669Y-102308333D01*
X149914288Y-102117857D01*
X149961907Y-102022619D01*
X150009526Y-101975000D01*
X150104764Y-101927381D01*
X161700000Y-120361904D02*
X161652381Y-120457142D01*
X161652381Y-120599999D01*
X161700000Y-120742857D01*
X161795238Y-120838095D01*
X161890476Y-120885714D01*
X162080952Y-120933333D01*
X162223810Y-120933333D01*
X162414286Y-120885714D01*
X162509524Y-120838095D01*
X162604762Y-120742857D01*
X162652381Y-120599999D01*
X162652381Y-120504761D01*
X162604762Y-120361904D01*
X162557143Y-120314285D01*
X162223810Y-120314285D01*
X162223810Y-120504761D01*
X162652381Y-119885714D02*
X161652381Y-119885714D01*
X162652381Y-119314285D01*
X161652381Y-119314285D01*
X162652381Y-118838095D02*
X161652381Y-118838095D01*
X161652381Y-118600000D01*
X161700000Y-118457142D01*
X161795238Y-118361904D01*
X161890476Y-118314285D01*
X162080952Y-118266666D01*
X162223810Y-118266666D01*
X162414286Y-118314285D01*
X162509524Y-118361904D01*
X162604762Y-118457142D01*
X162652381Y-118600000D01*
X162652381Y-118838095D01*
X161752381Y-117776190D02*
X161752381Y-117157142D01*
X162133333Y-117490476D01*
X162133333Y-117347618D01*
X162180952Y-117252380D01*
X162228571Y-117204761D01*
X162323810Y-117157142D01*
X162561905Y-117157142D01*
X162657143Y-117204761D01*
X162704762Y-117252380D01*
X162752381Y-117347618D01*
X162752381Y-117633333D01*
X162704762Y-117728571D01*
X162657143Y-117776190D01*
X162657143Y-116728571D02*
X162704762Y-116680952D01*
X162752381Y-116728571D01*
X162704762Y-116776190D01*
X162657143Y-116728571D01*
X162752381Y-116728571D01*
X161752381Y-116347619D02*
X161752381Y-115728571D01*
X162133333Y-116061905D01*
X162133333Y-115919047D01*
X162180952Y-115823809D01*
X162228571Y-115776190D01*
X162323810Y-115728571D01*
X162561905Y-115728571D01*
X162657143Y-115776190D01*
X162704762Y-115823809D01*
X162752381Y-115919047D01*
X162752381Y-116204762D01*
X162704762Y-116300000D01*
X162657143Y-116347619D01*
X161752381Y-115442857D02*
X162752381Y-115109524D01*
X161752381Y-114776190D01*
X161752381Y-113690476D02*
X161752381Y-114166667D01*
X162228571Y-114214286D01*
X162180952Y-114166667D01*
X162133333Y-114071429D01*
X162133333Y-113833333D01*
X162180952Y-113738095D01*
X162228571Y-113690476D01*
X162323810Y-113642857D01*
X162561905Y-113642857D01*
X162657143Y-113690476D01*
X162704762Y-113738095D01*
X162752381Y-113833333D01*
X162752381Y-114071429D01*
X162704762Y-114166667D01*
X162657143Y-114214286D01*
X161752381Y-113357143D02*
X162752381Y-113023810D01*
X161752381Y-112690476D01*
X162752381Y-111319047D02*
X162752381Y-111890476D01*
X162752381Y-111604762D02*
X161752381Y-111604762D01*
X161895238Y-111700000D01*
X161990476Y-111795238D01*
X162038095Y-111890476D01*
X161847619Y-110938095D02*
X161800000Y-110890476D01*
X161752381Y-110795238D01*
X161752381Y-110557142D01*
X161800000Y-110461904D01*
X161847619Y-110414285D01*
X161942857Y-110366666D01*
X162038095Y-110366666D01*
X162180952Y-110414285D01*
X162752381Y-110985714D01*
X162752381Y-110366666D01*
X161752381Y-110080952D02*
X162752381Y-109747619D01*
X161752381Y-109414285D01*
X126438096Y-118000000D02*
X126342858Y-117952381D01*
X126200001Y-117952381D01*
X126057143Y-118000000D01*
X125961905Y-118095238D01*
X125914286Y-118190476D01*
X125866667Y-118380952D01*
X125866667Y-118523810D01*
X125914286Y-118714286D01*
X125961905Y-118809524D01*
X126057143Y-118904762D01*
X126200001Y-118952381D01*
X126295239Y-118952381D01*
X126438096Y-118904762D01*
X126485715Y-118857143D01*
X126485715Y-118523810D01*
X126295239Y-118523810D01*
X126914286Y-118952381D02*
X126914286Y-117952381D01*
X127485715Y-118952381D01*
X127485715Y-117952381D01*
X127961905Y-118952381D02*
X127961905Y-117952381D01*
X128200000Y-117952381D01*
X128342858Y-118000000D01*
X128438096Y-118095238D01*
X128485715Y-118190476D01*
X128533334Y-118380952D01*
X128533334Y-118523810D01*
X128485715Y-118714286D01*
X128438096Y-118809524D01*
X128342858Y-118904762D01*
X128200000Y-118952381D01*
X127961905Y-118952381D01*
X125538095Y-111271429D02*
X126300000Y-111271429D01*
X125919048Y-111652381D02*
X125919048Y-110890476D01*
X127300000Y-111652381D02*
X126728571Y-111652381D01*
X127014285Y-111652381D02*
X127014285Y-110652381D01*
X126919047Y-110795238D01*
X126823809Y-110890476D01*
X126728571Y-110938095D01*
X127680952Y-110747619D02*
X127728571Y-110700000D01*
X127823809Y-110652381D01*
X128061905Y-110652381D01*
X128157143Y-110700000D01*
X128204762Y-110747619D01*
X128252381Y-110842857D01*
X128252381Y-110938095D01*
X128204762Y-111080952D01*
X127633333Y-111652381D01*
X128252381Y-111652381D01*
X128538095Y-110652381D02*
X128871428Y-111652381D01*
X129204762Y-110652381D01*
X125830000Y-114800000D02*
X128370000Y-114800000D01*
X125830000Y-117340000D02*
X128370000Y-117340000D01*
X128370000Y-117340000D02*
X128370000Y-114800000D01*
X128370000Y-114800000D02*
X128370000Y-112260000D01*
X128370000Y-112260000D02*
X125830000Y-112260000D01*
X125830000Y-112260000D02*
X125830000Y-117340000D01*
X161270000Y-117440000D02*
X161270000Y-109820000D01*
X158730000Y-117440000D02*
X158730000Y-109820000D01*
X158730000Y-119980000D02*
X158730000Y-117440000D01*
X161270000Y-109820000D02*
X158730000Y-109820000D01*
X158730000Y-117440000D02*
X161270000Y-117440000D01*
X158730000Y-119980000D02*
X161270000Y-119980000D01*
X161270000Y-119980000D02*
X161270000Y-117440000D01*
X150800740Y-112750180D02*
X154199260Y-112750180D01*
X154199260Y-104500260D02*
X154199260Y-110499740D01*
X150800740Y-104500260D02*
X150800740Y-110499740D01*
X149797440Y-113253100D02*
X150897260Y-113253100D01*
X150297820Y-113852540D02*
X150297820Y-112653660D01*
X157978000Y-113038000D02*
G75*
G03X157978000Y-113038000I-127000J0D01*
G01*
X156708000Y-113038000D02*
X157724000Y-113038000D01*
X157724000Y-113038000D02*
X157724000Y-114562000D01*
X157724000Y-114562000D02*
X156708000Y-114562000D01*
X155692000Y-114562000D02*
X154676000Y-114562000D01*
X154676000Y-114562000D02*
X154676000Y-113038000D01*
X154676000Y-113038000D02*
X155692000Y-113038000D01*
X136376000Y-121862000D02*
G75*
G03X136376000Y-121862000I-127000J0D01*
G01*
X137392000Y-121862000D02*
X136376000Y-121862000D01*
X136376000Y-121862000D02*
X136376000Y-120338000D01*
X136376000Y-120338000D02*
X137392000Y-120338000D01*
X138408000Y-120338000D02*
X139424000Y-120338000D01*
X139424000Y-120338000D02*
X139424000Y-121862000D01*
X139424000Y-121862000D02*
X138408000Y-121862000D01*
X145376000Y-121862000D02*
G75*
G03X145376000Y-121862000I-127000J0D01*
G01*
X146392000Y-121862000D02*
X145376000Y-121862000D01*
X145376000Y-121862000D02*
X145376000Y-120338000D01*
X145376000Y-120338000D02*
X146392000Y-120338000D01*
X147408000Y-120338000D02*
X148424000Y-120338000D01*
X148424000Y-120338000D02*
X148424000Y-121862000D01*
X148424000Y-121862000D02*
X147408000Y-121862000D01*
X145850000Y-127900000D02*
X145850000Y-126900000D01*
X144150000Y-126900000D02*
X144150000Y-127900000D01*
X141850000Y-122900000D02*
X141850000Y-121900000D01*
X140150000Y-121900000D02*
X140150000Y-122900000D01*
X142750000Y-105600000D02*
X142750000Y-106600000D01*
X144450000Y-106600000D02*
X144450000Y-105600000D01*
X142650000Y-121900000D02*
X142650000Y-122900000D01*
X144350000Y-122900000D02*
X144350000Y-121900000D01*
X150750000Y-121100000D02*
X150750000Y-120100000D01*
X149050000Y-120100000D02*
X149050000Y-121100000D01*
X134425000Y-115700000D02*
X134425000Y-114500000D01*
X136175000Y-114500000D02*
X136175000Y-115700000D01*
X134625000Y-109700000D02*
X134625000Y-108500000D01*
X136375000Y-108500000D02*
X136375000Y-109700000D01*
X147025000Y-110400000D02*
X147025000Y-109200000D01*
X148775000Y-109200000D02*
X148775000Y-110400000D01*
D12*
X142035000Y-127635000D02*
X140765000Y-127635000D01*
X142035000Y-126365000D02*
X140790400Y-126365000D01*
X142035000Y-125984000D02*
X142035000Y-128016000D01*
X142035000Y-128016000D02*
X140765000Y-128016000D01*
X140765000Y-128016000D02*
X140765000Y-125984000D01*
X140765000Y-125984000D02*
X142035000Y-125984000D01*
D11*
X137850000Y-125900000D02*
X137850000Y-124900000D01*
X136150000Y-124900000D02*
X136150000Y-125900000D01*
X148850000Y-126200000D02*
X148850000Y-125200000D01*
X147150000Y-125200000D02*
X147150000Y-126200000D01*
D12*
X151765000Y-117435000D02*
X151765000Y-116165000D01*
X153035000Y-117435000D02*
X153035000Y-116190400D01*
X153416000Y-117435000D02*
X151384000Y-117435000D01*
X151384000Y-117435000D02*
X151384000Y-116165000D01*
X151384000Y-116165000D02*
X153416000Y-116165000D01*
X153416000Y-116165000D02*
X153416000Y-117435000D01*
D11*
X154899260Y-119449820D02*
X151500740Y-119449820D01*
X151500740Y-127699740D02*
X151500740Y-121700260D01*
X154899260Y-127699740D02*
X154899260Y-121700260D01*
X155902560Y-118946900D02*
X154802740Y-118946900D01*
X155402180Y-118347460D02*
X155402180Y-119546340D01*
X157489000Y-121251000D02*
G75*
G03X157489000Y-121251000I-127000J0D01*
G01*
X157362000Y-120108000D02*
X157362000Y-121124000D01*
X157362000Y-121124000D02*
X155838000Y-121124000D01*
X155838000Y-121124000D02*
X155838000Y-120108000D01*
X155838000Y-119092000D02*
X155838000Y-118076000D01*
X155838000Y-118076000D02*
X157362000Y-118076000D01*
X157362000Y-118076000D02*
X157362000Y-119092000D01*
X149475000Y-114300000D02*
X149475000Y-115500000D01*
X147725000Y-115500000D02*
X147725000Y-114300000D01*
X146753000Y-116678000D02*
X146753000Y-113122000D01*
X136847000Y-116678000D02*
X136847000Y-113122000D01*
X136847000Y-116678000D02*
X146753000Y-116678000D01*
X146753000Y-113122000D02*
X136847000Y-113122000D01*
X146274981Y-113884000D02*
G75*
G03X146274981Y-113884000I-283981J0D01*
G01*
X125266381Y-115538095D02*
X124266381Y-115538095D01*
X124266381Y-115157142D01*
X124314000Y-115061904D01*
X124361619Y-115014285D01*
X124456857Y-114966666D01*
X124599714Y-114966666D01*
X124694952Y-115014285D01*
X124742571Y-115061904D01*
X124790190Y-115157142D01*
X124790190Y-115538095D01*
X125266381Y-114014285D02*
X125266381Y-114585714D01*
X125266381Y-114300000D02*
X124266381Y-114300000D01*
X124409238Y-114395238D01*
X124504476Y-114490476D01*
X124552095Y-114585714D01*
X159161905Y-109452381D02*
X159161905Y-108452381D01*
X159542858Y-108452381D01*
X159638096Y-108500000D01*
X159685715Y-108547619D01*
X159733334Y-108642857D01*
X159733334Y-108785714D01*
X159685715Y-108880952D01*
X159638096Y-108928571D01*
X159542858Y-108976190D01*
X159161905Y-108976190D01*
X160114286Y-108547619D02*
X160161905Y-108500000D01*
X160257143Y-108452381D01*
X160495239Y-108452381D01*
X160590477Y-108500000D01*
X160638096Y-108547619D01*
X160685715Y-108642857D01*
X160685715Y-108738095D01*
X160638096Y-108880952D01*
X160066667Y-109452381D01*
X160685715Y-109452381D01*
X152757143Y-107666666D02*
X152804762Y-107714285D01*
X152852381Y-107857142D01*
X152852381Y-107952380D01*
X152804762Y-108095238D01*
X152709524Y-108190476D01*
X152614286Y-108238095D01*
X152423810Y-108285714D01*
X152280952Y-108285714D01*
X152090476Y-108238095D01*
X151995238Y-108190476D01*
X151900000Y-108095238D01*
X151852381Y-107952380D01*
X151852381Y-107857142D01*
X151900000Y-107714285D01*
X151947619Y-107666666D01*
X152852381Y-106714285D02*
X152852381Y-107285714D01*
X152852381Y-107000000D02*
X151852381Y-107000000D01*
X151995238Y-107095238D01*
X152090476Y-107190476D01*
X152138095Y-107285714D01*
X150371789Y-113631512D02*
X150371789Y-112869607D01*
X150752741Y-113250559D02*
X149990836Y-113250559D01*
X156033334Y-115852381D02*
X155557143Y-115852381D01*
X155557143Y-114852381D01*
X156890477Y-115852381D02*
X156319048Y-115852381D01*
X156604762Y-115852381D02*
X156604762Y-114852381D01*
X156509524Y-114995238D01*
X156414286Y-115090476D01*
X156319048Y-115138095D01*
X137733334Y-120052381D02*
X137257143Y-120052381D01*
X137257143Y-119052381D01*
X138019048Y-119147619D02*
X138066667Y-119100000D01*
X138161905Y-119052381D01*
X138400001Y-119052381D01*
X138495239Y-119100000D01*
X138542858Y-119147619D01*
X138590477Y-119242857D01*
X138590477Y-119338095D01*
X138542858Y-119480952D01*
X137971429Y-120052381D01*
X138590477Y-120052381D01*
X146833334Y-119952381D02*
X146357143Y-119952381D01*
X146357143Y-118952381D01*
X147071429Y-118952381D02*
X147690477Y-118952381D01*
X147357143Y-119333333D01*
X147500001Y-119333333D01*
X147595239Y-119380952D01*
X147642858Y-119428571D01*
X147690477Y-119523810D01*
X147690477Y-119761905D01*
X147642858Y-119857143D01*
X147595239Y-119904762D01*
X147500001Y-119952381D01*
X147214286Y-119952381D01*
X147119048Y-119904762D01*
X147071429Y-119857143D01*
X147057143Y-127566666D02*
X147104762Y-127614285D01*
X147152381Y-127757142D01*
X147152381Y-127852380D01*
X147104762Y-127995238D01*
X147009524Y-128090476D01*
X146914286Y-128138095D01*
X146723810Y-128185714D01*
X146580952Y-128185714D01*
X146390476Y-128138095D01*
X146295238Y-128090476D01*
X146200000Y-127995238D01*
X146152381Y-127852380D01*
X146152381Y-127757142D01*
X146200000Y-127614285D01*
X146247619Y-127566666D01*
X146485714Y-126709523D02*
X147152381Y-126709523D01*
X146104762Y-126947619D02*
X146819048Y-127185714D01*
X146819048Y-126566666D01*
X139857143Y-122966666D02*
X139904762Y-123014285D01*
X139952381Y-123157142D01*
X139952381Y-123252380D01*
X139904762Y-123395238D01*
X139809524Y-123490476D01*
X139714286Y-123538095D01*
X139523810Y-123585714D01*
X139380952Y-123585714D01*
X139190476Y-123538095D01*
X139095238Y-123490476D01*
X139000000Y-123395238D01*
X138952381Y-123252380D01*
X138952381Y-123157142D01*
X139000000Y-123014285D01*
X139047619Y-122966666D01*
X138952381Y-122109523D02*
X138952381Y-122300000D01*
X139000000Y-122395238D01*
X139047619Y-122442857D01*
X139190476Y-122538095D01*
X139380952Y-122585714D01*
X139761905Y-122585714D01*
X139857143Y-122538095D01*
X139904762Y-122490476D01*
X139952381Y-122395238D01*
X139952381Y-122204761D01*
X139904762Y-122109523D01*
X139857143Y-122061904D01*
X139761905Y-122014285D01*
X139523810Y-122014285D01*
X139428571Y-122061904D01*
X139380952Y-122109523D01*
X139333333Y-122204761D01*
X139333333Y-122395238D01*
X139380952Y-122490476D01*
X139428571Y-122538095D01*
X139523810Y-122585714D01*
X142357143Y-106166666D02*
X142404762Y-106214285D01*
X142452381Y-106357142D01*
X142452381Y-106452380D01*
X142404762Y-106595238D01*
X142309524Y-106690476D01*
X142214286Y-106738095D01*
X142023810Y-106785714D01*
X141880952Y-106785714D01*
X141690476Y-106738095D01*
X141595238Y-106690476D01*
X141500000Y-106595238D01*
X141452381Y-106452380D01*
X141452381Y-106357142D01*
X141500000Y-106214285D01*
X141547619Y-106166666D01*
X141452381Y-105833333D02*
X141452381Y-105166666D01*
X142452381Y-105595238D01*
X145457143Y-123366666D02*
X145504762Y-123414285D01*
X145552381Y-123557142D01*
X145552381Y-123652380D01*
X145504762Y-123795238D01*
X145409524Y-123890476D01*
X145314286Y-123938095D01*
X145123810Y-123985714D01*
X144980952Y-123985714D01*
X144790476Y-123938095D01*
X144695238Y-123890476D01*
X144600000Y-123795238D01*
X144552381Y-123652380D01*
X144552381Y-123557142D01*
X144600000Y-123414285D01*
X144647619Y-123366666D01*
X144980952Y-122795238D02*
X144933333Y-122890476D01*
X144885714Y-122938095D01*
X144790476Y-122985714D01*
X144742857Y-122985714D01*
X144647619Y-122938095D01*
X144600000Y-122890476D01*
X144552381Y-122795238D01*
X144552381Y-122604761D01*
X144600000Y-122509523D01*
X144647619Y-122461904D01*
X144742857Y-122414285D01*
X144790476Y-122414285D01*
X144885714Y-122461904D01*
X144933333Y-122509523D01*
X144980952Y-122604761D01*
X144980952Y-122795238D01*
X145028571Y-122890476D01*
X145076190Y-122938095D01*
X145171429Y-122985714D01*
X145361905Y-122985714D01*
X145457143Y-122938095D01*
X145504762Y-122890476D01*
X145552381Y-122795238D01*
X145552381Y-122604761D01*
X145504762Y-122509523D01*
X145457143Y-122461904D01*
X145361905Y-122414285D01*
X145171429Y-122414285D01*
X145076190Y-122461904D01*
X145028571Y-122509523D01*
X144980952Y-122604761D01*
X151757143Y-120666666D02*
X151804762Y-120714285D01*
X151852381Y-120857142D01*
X151852381Y-120952380D01*
X151804762Y-121095238D01*
X151709524Y-121190476D01*
X151614286Y-121238095D01*
X151423810Y-121285714D01*
X151280952Y-121285714D01*
X151090476Y-121238095D01*
X150995238Y-121190476D01*
X150900000Y-121095238D01*
X150852381Y-120952380D01*
X150852381Y-120857142D01*
X150900000Y-120714285D01*
X150947619Y-120666666D01*
X151852381Y-120190476D02*
X151852381Y-120000000D01*
X151804762Y-119904761D01*
X151757143Y-119857142D01*
X151614286Y-119761904D01*
X151423810Y-119714285D01*
X151042857Y-119714285D01*
X150947619Y-119761904D01*
X150900000Y-119809523D01*
X150852381Y-119904761D01*
X150852381Y-120095238D01*
X150900000Y-120190476D01*
X150947619Y-120238095D01*
X151042857Y-120285714D01*
X151280952Y-120285714D01*
X151376190Y-120238095D01*
X151423810Y-120190476D01*
X151471429Y-120095238D01*
X151471429Y-119904761D01*
X151423810Y-119809523D01*
X151376190Y-119761904D01*
X151280952Y-119714285D01*
X134152381Y-115966666D02*
X133676190Y-116300000D01*
X134152381Y-116538095D02*
X133152381Y-116538095D01*
X133152381Y-116157142D01*
X133200000Y-116061904D01*
X133247619Y-116014285D01*
X133342857Y-115966666D01*
X133485714Y-115966666D01*
X133580952Y-116014285D01*
X133628571Y-116061904D01*
X133676190Y-116157142D01*
X133676190Y-116538095D01*
X134152381Y-115014285D02*
X134152381Y-115585714D01*
X134152381Y-115300000D02*
X133152381Y-115300000D01*
X133295238Y-115395238D01*
X133390476Y-115490476D01*
X133438095Y-115585714D01*
X134352381Y-109066666D02*
X133876190Y-109400000D01*
X134352381Y-109638095D02*
X133352381Y-109638095D01*
X133352381Y-109257142D01*
X133400000Y-109161904D01*
X133447619Y-109114285D01*
X133542857Y-109066666D01*
X133685714Y-109066666D01*
X133780952Y-109114285D01*
X133828571Y-109161904D01*
X133876190Y-109257142D01*
X133876190Y-109638095D01*
X133447619Y-108685714D02*
X133400000Y-108638095D01*
X133352381Y-108542857D01*
X133352381Y-108304761D01*
X133400000Y-108209523D01*
X133447619Y-108161904D01*
X133542857Y-108114285D01*
X133638095Y-108114285D01*
X133780952Y-108161904D01*
X134352381Y-108733333D01*
X134352381Y-108114285D01*
X146752381Y-109966666D02*
X146276190Y-110300000D01*
X146752381Y-110538095D02*
X145752381Y-110538095D01*
X145752381Y-110157142D01*
X145800000Y-110061904D01*
X145847619Y-110014285D01*
X145942857Y-109966666D01*
X146085714Y-109966666D01*
X146180952Y-110014285D01*
X146228571Y-110061904D01*
X146276190Y-110157142D01*
X146276190Y-110538095D01*
X145752381Y-109633333D02*
X145752381Y-109014285D01*
X146133333Y-109347619D01*
X146133333Y-109204761D01*
X146180952Y-109109523D01*
X146228571Y-109061904D01*
X146323810Y-109014285D01*
X146561905Y-109014285D01*
X146657143Y-109061904D01*
X146704762Y-109109523D01*
X146752381Y-109204761D01*
X146752381Y-109490476D01*
X146704762Y-109585714D01*
X146657143Y-109633333D01*
X140457143Y-127166666D02*
X140504762Y-127214285D01*
X140552381Y-127357142D01*
X140552381Y-127452380D01*
X140504762Y-127595238D01*
X140409524Y-127690476D01*
X140314286Y-127738095D01*
X140123810Y-127785714D01*
X139980952Y-127785714D01*
X139790476Y-127738095D01*
X139695238Y-127690476D01*
X139600000Y-127595238D01*
X139552381Y-127452380D01*
X139552381Y-127357142D01*
X139600000Y-127214285D01*
X139647619Y-127166666D01*
X139647619Y-126785714D02*
X139600000Y-126738095D01*
X139552381Y-126642857D01*
X139552381Y-126404761D01*
X139600000Y-126309523D01*
X139647619Y-126261904D01*
X139742857Y-126214285D01*
X139838095Y-126214285D01*
X139980952Y-126261904D01*
X140552381Y-126833333D01*
X140552381Y-126214285D01*
X138957143Y-125666666D02*
X139004762Y-125714285D01*
X139052381Y-125857142D01*
X139052381Y-125952380D01*
X139004762Y-126095238D01*
X138909524Y-126190476D01*
X138814286Y-126238095D01*
X138623810Y-126285714D01*
X138480952Y-126285714D01*
X138290476Y-126238095D01*
X138195238Y-126190476D01*
X138100000Y-126095238D01*
X138052381Y-125952380D01*
X138052381Y-125857142D01*
X138100000Y-125714285D01*
X138147619Y-125666666D01*
X138052381Y-125333333D02*
X138052381Y-124714285D01*
X138433333Y-125047619D01*
X138433333Y-124904761D01*
X138480952Y-124809523D01*
X138528571Y-124761904D01*
X138623810Y-124714285D01*
X138861905Y-124714285D01*
X138957143Y-124761904D01*
X139004762Y-124809523D01*
X139052381Y-124904761D01*
X139052381Y-125190476D01*
X139004762Y-125285714D01*
X138957143Y-125333333D01*
X149957143Y-126242857D02*
X150004762Y-126290476D01*
X150052381Y-126433333D01*
X150052381Y-126528571D01*
X150004762Y-126671429D01*
X149909524Y-126766667D01*
X149814286Y-126814286D01*
X149623810Y-126861905D01*
X149480952Y-126861905D01*
X149290476Y-126814286D01*
X149195238Y-126766667D01*
X149100000Y-126671429D01*
X149052381Y-126528571D01*
X149052381Y-126433333D01*
X149100000Y-126290476D01*
X149147619Y-126242857D01*
X150052381Y-125290476D02*
X150052381Y-125861905D01*
X150052381Y-125576191D02*
X149052381Y-125576191D01*
X149195238Y-125671429D01*
X149290476Y-125766667D01*
X149338095Y-125861905D01*
X149052381Y-124671429D02*
X149052381Y-124576190D01*
X149100000Y-124480952D01*
X149147619Y-124433333D01*
X149242857Y-124385714D01*
X149433333Y-124338095D01*
X149671429Y-124338095D01*
X149861905Y-124385714D01*
X149957143Y-124433333D01*
X150004762Y-124480952D01*
X150052381Y-124576190D01*
X150052381Y-124671429D01*
X150004762Y-124766667D01*
X149957143Y-124814286D01*
X149861905Y-124861905D01*
X149671429Y-124909524D01*
X149433333Y-124909524D01*
X149242857Y-124861905D01*
X149147619Y-124814286D01*
X149100000Y-124766667D01*
X149052381Y-124671429D01*
X151657143Y-115757143D02*
X151609524Y-115804762D01*
X151466667Y-115852381D01*
X151371429Y-115852381D01*
X151228571Y-115804762D01*
X151133333Y-115709524D01*
X151085714Y-115614286D01*
X151038095Y-115423810D01*
X151038095Y-115280952D01*
X151085714Y-115090476D01*
X151133333Y-114995238D01*
X151228571Y-114900000D01*
X151371429Y-114852381D01*
X151466667Y-114852381D01*
X151609524Y-114900000D01*
X151657143Y-114947619D01*
X152609524Y-115852381D02*
X152038095Y-115852381D01*
X152323809Y-115852381D02*
X152323809Y-114852381D01*
X152228571Y-114995238D01*
X152133333Y-115090476D01*
X152038095Y-115138095D01*
X153561905Y-115852381D02*
X152990476Y-115852381D01*
X153276190Y-115852381D02*
X153276190Y-114852381D01*
X153180952Y-114995238D01*
X153085714Y-115090476D01*
X152990476Y-115138095D01*
X153757143Y-125142857D02*
X153804762Y-125190476D01*
X153852381Y-125333333D01*
X153852381Y-125428571D01*
X153804762Y-125571429D01*
X153709524Y-125666667D01*
X153614286Y-125714286D01*
X153423810Y-125761905D01*
X153280952Y-125761905D01*
X153090476Y-125714286D01*
X152995238Y-125666667D01*
X152900000Y-125571429D01*
X152852381Y-125428571D01*
X152852381Y-125333333D01*
X152900000Y-125190476D01*
X152947619Y-125142857D01*
X153852381Y-124190476D02*
X153852381Y-124761905D01*
X153852381Y-124476191D02*
X152852381Y-124476191D01*
X152995238Y-124571429D01*
X153090476Y-124666667D01*
X153138095Y-124761905D01*
X152947619Y-123809524D02*
X152900000Y-123761905D01*
X152852381Y-123666667D01*
X152852381Y-123428571D01*
X152900000Y-123333333D01*
X152947619Y-123285714D01*
X153042857Y-123238095D01*
X153138095Y-123238095D01*
X153280952Y-123285714D01*
X153852381Y-123857143D01*
X153852381Y-123238095D01*
X155471069Y-119330392D02*
X155471069Y-118568487D01*
X155852021Y-118949439D02*
X155090116Y-118949439D01*
X156533334Y-122352381D02*
X156057143Y-122352381D01*
X156057143Y-121352381D01*
X157295239Y-121685714D02*
X157295239Y-122352381D01*
X157057143Y-121304762D02*
X156819048Y-122019048D01*
X157438096Y-122019048D01*
X150652381Y-114966666D02*
X150176190Y-115300000D01*
X150652381Y-115538095D02*
X149652381Y-115538095D01*
X149652381Y-115157142D01*
X149700000Y-115061904D01*
X149747619Y-115014285D01*
X149842857Y-114966666D01*
X149985714Y-114966666D01*
X150080952Y-115014285D01*
X150128571Y-115061904D01*
X150176190Y-115157142D01*
X150176190Y-115538095D01*
X149985714Y-114109523D02*
X150652381Y-114109523D01*
X149604762Y-114347619D02*
X150319048Y-114585714D01*
X150319048Y-113966666D01*
X141038095Y-113844381D02*
X141038095Y-114653905D01*
X141085714Y-114749143D01*
X141133333Y-114796762D01*
X141228571Y-114844381D01*
X141419048Y-114844381D01*
X141514286Y-114796762D01*
X141561905Y-114749143D01*
X141609524Y-114653905D01*
X141609524Y-113844381D01*
X142609524Y-114844381D02*
X142038095Y-114844381D01*
X142323809Y-114844381D02*
X142323809Y-113844381D01*
X142228571Y-113987238D01*
X142133333Y-114082476D01*
X142038095Y-114130095D01*
M02*
