%FSLAX46Y46*%
G04 Gerber Fmt 4.6, Leading zero omitted, Abs format (unit mm)*
G04 Created by KiCad (PCBNEW (2014-10-27 BZR 5228)-product) date 17/01/2015 07:27:26*
%MOMM*%
G01*
G04 APERTURE LIST*
%ADD10C,0.100000*%
%ADD11R,2.032000X2.032000*%
%ADD12O,2.032000X2.032000*%
%ADD13R,2.032000X1.727200*%
%ADD14O,2.032000X1.727200*%
%ADD15R,1.800860X3.500120*%
%ADD16R,0.889000X1.397000*%
%ADD17R,1.250000X1.500000*%
%ADD18R,1.300000X1.500000*%
%ADD19R,1.249680X0.899160*%
%ADD20R,1.998980X0.500380*%
%ADD21R,0.899160X1.249680*%
%ADD22R,0.500380X1.998980*%
%ADD23R,1.397000X0.889000*%
%ADD24R,0.419100X1.470660*%
%ADD25C,0.889000*%
%ADD26C,0.350000*%
G04 APERTURE END LIST*
D10*
D11*
X127100000Y-116070000D03*
D12*
X127100000Y-113530000D03*
D13*
X160000000Y-118710000D03*
D14*
X160000000Y-116170000D03*
X160000000Y-113630000D03*
X160000000Y-111090000D03*
D15*
X152500000Y-104500260D03*
X152500000Y-110499740D03*
D16*
X157152500Y-113800000D03*
X155247500Y-113800000D03*
X136947500Y-121100000D03*
X138852500Y-121100000D03*
X145947500Y-121100000D03*
X147852500Y-121100000D03*
D17*
X145000000Y-126150000D03*
X145000000Y-128650000D03*
X141000000Y-121150000D03*
X141000000Y-123650000D03*
X143600000Y-107350000D03*
X143600000Y-104850000D03*
X143500000Y-123650000D03*
X143500000Y-121150000D03*
X149900000Y-119350000D03*
X149900000Y-121850000D03*
D18*
X135300000Y-113750000D03*
X135300000Y-116450000D03*
X135500000Y-107750000D03*
X135500000Y-110450000D03*
X147900000Y-108450000D03*
X147900000Y-111150000D03*
D19*
X141400000Y-128198880D03*
X141400000Y-125801120D03*
D20*
X141400000Y-127000000D03*
D17*
X137000000Y-124150000D03*
X137000000Y-126650000D03*
X148000000Y-124450000D03*
X148000000Y-126950000D03*
D21*
X151201120Y-116800000D03*
X153598880Y-116800000D03*
D22*
X152400000Y-116800000D03*
D15*
X153200000Y-127699740D03*
X153200000Y-121700260D03*
D23*
X156600000Y-120552500D03*
X156600000Y-118647500D03*
D18*
X148600000Y-116250000D03*
X148600000Y-113550000D03*
D24*
X142125120Y-112100920D03*
X141474880Y-112100920D03*
X140824640Y-112100920D03*
X140174400Y-112100920D03*
X144065680Y-117694000D03*
X144075840Y-112100920D03*
X143425600Y-112100920D03*
X142775360Y-112100920D03*
X139524160Y-117699080D03*
X140174400Y-117699080D03*
X140824640Y-117699080D03*
X141474880Y-117699080D03*
X142125120Y-117699080D03*
X142775360Y-117699080D03*
X139524160Y-112100920D03*
X143425600Y-117694000D03*
X144726080Y-112100920D03*
X138873920Y-112100920D03*
X138873920Y-117699080D03*
X144726080Y-117699080D03*
X145373780Y-112100920D03*
X138226220Y-112100920D03*
X138226220Y-117699080D03*
X145373780Y-117699080D03*
X146024020Y-112100920D03*
X137575980Y-112100920D03*
X137575980Y-117699080D03*
X146024020Y-117699080D03*
D25*
X143100000Y-128400000D03*
X152900000Y-113800000D03*
X137600000Y-107800000D03*
X141400000Y-104900000D03*
X148000000Y-106300000D03*
X150000000Y-104600000D03*
X151700000Y-114700000D03*
X150500000Y-127600000D03*
X146700000Y-128700000D03*
X137100000Y-128400000D03*
X139400000Y-127000000D03*
X150100000Y-124100000D03*
X140800000Y-114900000D03*
X143500000Y-114900000D03*
D26*
X142898880Y-128198880D02*
X143100000Y-128400000D01*
X152900000Y-113800000D02*
X152500000Y-113400000D01*
X152500000Y-113400000D02*
X152500000Y-110499740D01*
X141400000Y-128198880D02*
X142898880Y-128198880D01*
X152900000Y-113800000D02*
X155247500Y-113800000D01*
X137550000Y-107750000D02*
X137600000Y-107800000D01*
X135500000Y-107750000D02*
X137550000Y-107750000D01*
X141450000Y-104850000D02*
X141400000Y-104900000D01*
X143600000Y-104850000D02*
X141450000Y-104850000D01*
X147900000Y-106400000D02*
X148000000Y-106300000D01*
X147900000Y-108450000D02*
X147900000Y-106400000D01*
X150099740Y-104500260D02*
X150000000Y-104600000D01*
X152500000Y-104500260D02*
X150099740Y-104500260D01*
X152400000Y-115400000D02*
X151700000Y-114700000D01*
X152400000Y-116800000D02*
X152400000Y-115400000D01*
X149850000Y-126950000D02*
X150500000Y-127600000D01*
X150599740Y-127699740D02*
X153200000Y-127699740D01*
X150599740Y-127699740D02*
X150500000Y-127600000D01*
X148000000Y-126950000D02*
X149850000Y-126950000D01*
X146650000Y-128650000D02*
X146700000Y-128700000D01*
X145000000Y-128650000D02*
X146650000Y-128650000D01*
X137000000Y-128300000D02*
X137100000Y-128400000D01*
X137000000Y-126650000D02*
X137000000Y-128300000D01*
X141400000Y-127000000D02*
X139400000Y-127000000D01*
X149900000Y-123900000D02*
X150100000Y-124100000D01*
X149900000Y-121850000D02*
X149900000Y-123900000D01*
X145750000Y-123650000D02*
X145947500Y-123452500D01*
X145947500Y-123452500D02*
X145947500Y-121100000D01*
X143500000Y-123650000D02*
X145750000Y-123650000D01*
X144726080Y-119626080D02*
X144726080Y-117699080D01*
X145947500Y-120847500D02*
X144726080Y-119626080D01*
X145947500Y-121100000D02*
X145947500Y-120847500D01*
X135300000Y-110650000D02*
X135500000Y-110450000D01*
X135300000Y-113750000D02*
X135300000Y-110650000D01*
X138873920Y-113573920D02*
X138647840Y-113800000D01*
X138647840Y-113800000D02*
X137200000Y-113800000D01*
X137200000Y-113800000D02*
X136800000Y-113400000D01*
X136800000Y-113400000D02*
X136800000Y-111750000D01*
X136800000Y-111750000D02*
X135500000Y-110450000D01*
X138873920Y-112100920D02*
X138873920Y-113573920D01*
X142200000Y-109400000D02*
X141474880Y-110125120D01*
X142550000Y-109050000D02*
X142200000Y-109400000D01*
X141474880Y-110125120D02*
X141474880Y-112100920D01*
X142125120Y-109474880D02*
X142200000Y-109400000D01*
X142125120Y-112100920D02*
X142125120Y-109474880D01*
X142550000Y-109150000D02*
X143425600Y-110025600D01*
X143425600Y-110025600D02*
X143425600Y-112100920D01*
X142550000Y-109050000D02*
X142550000Y-109150000D01*
X141474880Y-113974880D02*
X142125120Y-114625120D01*
X142125120Y-115900000D02*
X142125120Y-117699080D01*
X142125120Y-114625120D02*
X142125120Y-115900000D01*
X141474880Y-113900000D02*
X141474880Y-113974880D01*
X141474880Y-112100920D02*
X141474880Y-113900000D01*
X141900000Y-115900000D02*
X141474880Y-116325120D01*
X141474880Y-116325120D02*
X141474880Y-117699080D01*
X142125120Y-115900000D02*
X141900000Y-115900000D01*
X142850000Y-108100000D02*
X143600000Y-107350000D01*
X142550000Y-109050000D02*
X142850000Y-108750000D01*
X142850000Y-108750000D02*
X142850000Y-108100000D01*
X144150000Y-107900000D02*
X143600000Y-107350000D01*
X146024020Y-110624020D02*
X146024020Y-112100920D01*
X144150000Y-108750000D02*
X146024020Y-110624020D01*
X144150000Y-107900000D02*
X144150000Y-108750000D01*
X137575980Y-111024020D02*
X138474880Y-110125120D01*
X138474880Y-110125120D02*
X141474880Y-110125120D01*
X137575980Y-112100920D02*
X137575980Y-111024020D01*
X143500000Y-120300000D02*
X142775360Y-119575360D01*
X142775360Y-119575360D02*
X142775360Y-117699080D01*
X143500000Y-121150000D02*
X143500000Y-120300000D01*
X146024020Y-118424020D02*
X146024020Y-117699080D01*
X147852500Y-120252500D02*
X146024020Y-118424020D01*
X147852500Y-121100000D02*
X147852500Y-120252500D01*
X147674940Y-119350000D02*
X146024020Y-117699080D01*
X149900000Y-119350000D02*
X147674940Y-119350000D01*
X147473100Y-116250000D02*
X146024020Y-117699080D01*
X148600000Y-116250000D02*
X147473100Y-116250000D01*
X147852500Y-124302500D02*
X148000000Y-124450000D01*
X147852500Y-121100000D02*
X147852500Y-124302500D01*
X150651120Y-116250000D02*
X151201120Y-116800000D01*
X148600000Y-116250000D02*
X150651120Y-116250000D01*
X137575980Y-118924020D02*
X136947500Y-119552500D01*
X136947500Y-119552500D02*
X136947500Y-121100000D01*
X137575980Y-117699080D02*
X137575980Y-118924020D01*
X136947500Y-124097500D02*
X137000000Y-124150000D01*
X136947500Y-121100000D02*
X136947500Y-124097500D01*
X138050000Y-124150000D02*
X139701120Y-125801120D01*
X139701120Y-125801120D02*
X141400000Y-125801120D01*
X137000000Y-124150000D02*
X138050000Y-124150000D01*
X144651120Y-125801120D02*
X145000000Y-126150000D01*
X141400000Y-125801120D02*
X144651120Y-125801120D01*
X135300000Y-117400000D02*
X135599080Y-117699080D01*
X135599080Y-117699080D02*
X137575980Y-117699080D01*
X135300000Y-116450000D02*
X135300000Y-117400000D01*
X140824640Y-119324640D02*
X141000000Y-119500000D01*
X141000000Y-119500000D02*
X141000000Y-121150000D01*
X140824640Y-117699080D02*
X140824640Y-119324640D01*
X138852500Y-119547500D02*
X138873920Y-119526080D01*
X138873920Y-119526080D02*
X138873920Y-117699080D01*
X138852500Y-121100000D02*
X138852500Y-119547500D01*
X139450000Y-123650000D02*
X138852500Y-123052500D01*
X138852500Y-123052500D02*
X138852500Y-121100000D01*
X141000000Y-123650000D02*
X139450000Y-123650000D01*
X155452240Y-121700260D02*
X156600000Y-120552500D01*
X153200000Y-121700260D02*
X155452240Y-121700260D01*
X153598880Y-121301380D02*
X153200000Y-121700260D01*
X153598880Y-116800000D02*
X153598880Y-121301380D01*
X159830000Y-113800000D02*
X160000000Y-113630000D01*
X157152500Y-113800000D02*
X159830000Y-113800000D01*
X156600000Y-118100000D02*
X158530000Y-116170000D01*
X158530000Y-116170000D02*
X160000000Y-116170000D01*
X156600000Y-118647500D02*
X156600000Y-118100000D01*
X140150000Y-115750000D02*
X139524160Y-116375840D01*
X140800000Y-115100000D02*
X140150000Y-115750000D01*
X139524160Y-116375840D02*
X139524160Y-117699080D01*
X140800000Y-114900000D02*
X140800000Y-115100000D01*
X140150000Y-117674680D02*
X140174400Y-117699080D01*
X140150000Y-115750000D02*
X140150000Y-117674680D01*
X140824640Y-114875360D02*
X140800000Y-114900000D01*
X140824640Y-112100920D02*
X140824640Y-114875360D01*
X142775360Y-114175360D02*
X143500000Y-114900000D01*
X142775360Y-112100920D02*
X142775360Y-114175360D01*
X143500000Y-117619600D02*
X143425600Y-117694000D01*
X143500000Y-114900000D02*
X143500000Y-117619600D01*
X144065680Y-116465680D02*
X143500000Y-115900000D01*
X143500000Y-115900000D02*
X143500000Y-114900000D01*
X144065680Y-117694000D02*
X144065680Y-116465680D01*
X145050000Y-113550000D02*
X144726080Y-113226080D01*
X144726080Y-113226080D02*
X144726080Y-112100920D01*
X148600000Y-113550000D02*
X145050000Y-113550000D01*
X148600000Y-111850000D02*
X147900000Y-111150000D01*
X148600000Y-113550000D02*
X148600000Y-111850000D01*
M02*
