%FSLAX46Y46*%
G04 Gerber Fmt 4.6, Leading zero omitted, Abs format (unit mm)*
G04 Created by KiCad (PCBNEW (2014-10-27 BZR 5228)-product) date 18/01/2015 09:30:56*
%MOMM*%
G01*
G04 APERTURE LIST*
%ADD10C,0.100000*%
%ADD11R,9.200000X3.000000*%
%ADD12R,2.032000X2.032000*%
%ADD13O,2.032000X2.032000*%
%ADD14R,2.032000X1.727200*%
%ADD15O,2.032000X1.727200*%
%ADD16R,1.250000X1.500000*%
%ADD17R,1.397000X0.889000*%
%ADD18C,0.889000*%
%ADD19C,0.350000*%
%ADD20C,0.635000*%
%ADD21C,0.254000*%
G04 APERTURE END LIST*
D10*
D11*
X141800000Y-114900000D03*
D12*
X127100000Y-116070000D03*
D13*
X127100000Y-113530000D03*
D14*
X160000000Y-118710000D03*
D15*
X160000000Y-116170000D03*
X160000000Y-113630000D03*
X160000000Y-111090000D03*
D16*
X132700000Y-113550000D03*
X132700000Y-111050000D03*
D17*
X134600000Y-118252500D03*
X134600000Y-116347500D03*
D18*
X152900000Y-113800000D03*
X143100000Y-128400000D03*
X147700000Y-107500000D03*
X150100000Y-124100000D03*
X139400000Y-127000000D03*
X137100000Y-128400000D03*
X146700000Y-128700000D03*
X150500000Y-127600000D03*
X151700000Y-114700000D03*
X150000000Y-104600000D03*
X141400000Y-104900000D03*
X137600000Y-107800000D03*
X137200000Y-109100000D03*
X139100000Y-110100000D03*
X141700000Y-119600000D03*
X147800000Y-118100000D03*
X146200000Y-108400000D03*
X146300000Y-110300000D03*
X143500000Y-119500000D03*
X139800000Y-119400000D03*
X143300000Y-109600000D03*
X140600000Y-109700000D03*
D19*
X152900000Y-118600000D02*
X152900000Y-113800000D01*
X143100000Y-128400000D02*
X152900000Y-118600000D01*
X134600000Y-118252500D02*
X133352500Y-118252500D01*
X132700000Y-117600000D02*
X132700000Y-113550000D01*
X133352500Y-118252500D02*
X132700000Y-117600000D01*
D20*
X127100000Y-113530000D02*
X132680000Y-113530000D01*
X132680000Y-113530000D02*
X132700000Y-113550000D01*
D19*
X138100000Y-109100000D02*
X137200000Y-109100000D01*
X139100000Y-110100000D02*
X138100000Y-109100000D01*
X145700000Y-118600000D02*
X147300000Y-118600000D01*
X141700000Y-119600000D02*
X142700000Y-118600000D01*
X142700000Y-118600000D02*
X145700000Y-118600000D01*
X147300000Y-118600000D02*
X147800000Y-118100000D01*
X146200000Y-110200000D02*
X146200000Y-108400000D01*
X146300000Y-110300000D02*
X146200000Y-110200000D01*
X134600000Y-116347500D02*
X135247500Y-116347500D01*
X135247500Y-116347500D02*
X138300000Y-119400000D01*
X138300000Y-119400000D02*
X139800000Y-119400000D01*
X139800000Y-119400000D02*
X139800000Y-119900000D01*
X141900000Y-121100000D02*
X143500000Y-119500000D01*
X141000000Y-121100000D02*
X141900000Y-121100000D01*
X139800000Y-119900000D02*
X141000000Y-121100000D01*
X143300000Y-109600000D02*
X143300000Y-108800000D01*
X154910000Y-106000000D02*
X160000000Y-111090000D01*
X146100000Y-106000000D02*
X154910000Y-106000000D01*
X143300000Y-108800000D02*
X146100000Y-106000000D01*
X134600000Y-116347500D02*
X134600000Y-113600000D01*
X140600000Y-110500000D02*
X140600000Y-109700000D01*
X139400000Y-111700000D02*
X140600000Y-110500000D01*
X136500000Y-111700000D02*
X139400000Y-111700000D01*
X134600000Y-113600000D02*
X136500000Y-111700000D01*
X139800000Y-119400000D02*
X139800000Y-119100000D01*
X143400000Y-119400000D02*
X143500000Y-119500000D01*
X143200000Y-109700000D02*
X140600000Y-109700000D01*
X143300000Y-109600000D02*
X143200000Y-109700000D01*
D21*
G36*
X163315000Y-129315000D02*
X162335707Y-129315000D01*
X162335707Y-104078116D01*
X161935359Y-103109201D01*
X161194698Y-102367246D01*
X160226483Y-101965208D01*
X159178116Y-101964293D01*
X158209201Y-102364641D01*
X157467246Y-103105302D01*
X157065208Y-104073517D01*
X157064293Y-105121884D01*
X157464641Y-106090799D01*
X158205302Y-106832754D01*
X159173517Y-107234792D01*
X160221884Y-107235707D01*
X161190799Y-106835359D01*
X161932754Y-106094698D01*
X162334792Y-105126483D01*
X162335707Y-104078116D01*
X162335707Y-129315000D01*
X162235707Y-129315000D01*
X162235707Y-124978116D01*
X161835359Y-124009201D01*
X161683345Y-123856921D01*
X161683345Y-116170000D01*
X161569271Y-115596511D01*
X161244415Y-115110330D01*
X160929634Y-114900000D01*
X161244415Y-114689670D01*
X161569271Y-114203489D01*
X161683345Y-113630000D01*
X161569271Y-113056511D01*
X161244415Y-112570330D01*
X160929634Y-112360000D01*
X161244415Y-112149670D01*
X161569271Y-111663489D01*
X161683345Y-111090000D01*
X161569271Y-110516511D01*
X161244415Y-110030330D01*
X160758234Y-109705474D01*
X160184745Y-109591400D01*
X159815255Y-109591400D01*
X159674842Y-109619329D01*
X155482756Y-105427244D01*
X155219974Y-105251658D01*
X154910000Y-105190000D01*
X146100000Y-105190000D01*
X145790026Y-105251658D01*
X145684770Y-105321987D01*
X145527244Y-105427243D01*
X142727244Y-108227244D01*
X142551658Y-108490026D01*
X142490000Y-108800000D01*
X142490000Y-108883274D01*
X142483262Y-108890000D01*
X141316725Y-108890000D01*
X141212286Y-108785378D01*
X140815668Y-108620687D01*
X140386216Y-108620313D01*
X139989311Y-108784311D01*
X139685378Y-109087714D01*
X139654745Y-109161484D01*
X139315668Y-109020687D01*
X139166069Y-109020556D01*
X138672756Y-108527244D01*
X138409974Y-108351658D01*
X138100000Y-108290000D01*
X137916725Y-108290000D01*
X137812286Y-108185378D01*
X137415668Y-108020687D01*
X136986216Y-108020313D01*
X136589311Y-108184311D01*
X136285378Y-108487714D01*
X136120687Y-108884332D01*
X136120313Y-109313784D01*
X136284311Y-109710689D01*
X136587714Y-110014622D01*
X136984332Y-110179313D01*
X137413784Y-110179687D01*
X137810689Y-110015689D01*
X137840458Y-109985971D01*
X138020441Y-110165954D01*
X138020313Y-110313784D01*
X138184311Y-110710689D01*
X138363309Y-110890000D01*
X136500000Y-110890000D01*
X136327896Y-110924233D01*
X136190027Y-110951657D01*
X135927244Y-111127243D01*
X134027244Y-113027244D01*
X133960000Y-113127881D01*
X133960000Y-112673691D01*
X133863327Y-112440302D01*
X133723025Y-112300000D01*
X133863327Y-112159698D01*
X133960000Y-111926309D01*
X133960000Y-111335750D01*
X133960000Y-110764250D01*
X133960000Y-110173691D01*
X133863327Y-109940302D01*
X133684699Y-109761673D01*
X133451310Y-109665000D01*
X133198691Y-109665000D01*
X132985750Y-109665000D01*
X132827000Y-109823750D01*
X132827000Y-110923000D01*
X133801250Y-110923000D01*
X133960000Y-110764250D01*
X133960000Y-111335750D01*
X133801250Y-111177000D01*
X132827000Y-111177000D01*
X132827000Y-111197000D01*
X132573000Y-111197000D01*
X132573000Y-111177000D01*
X132573000Y-110923000D01*
X132573000Y-109823750D01*
X132414250Y-109665000D01*
X132201309Y-109665000D01*
X131948690Y-109665000D01*
X131715301Y-109761673D01*
X131536673Y-109940302D01*
X131440000Y-110173691D01*
X131440000Y-110764250D01*
X131598750Y-110923000D01*
X132573000Y-110923000D01*
X132573000Y-111177000D01*
X131598750Y-111177000D01*
X131440000Y-111335750D01*
X131440000Y-111926309D01*
X131536673Y-112159698D01*
X131676974Y-112300000D01*
X131536673Y-112440301D01*
X131479843Y-112577500D01*
X131135707Y-112577500D01*
X131135707Y-103978116D01*
X130735359Y-103009201D01*
X129994698Y-102267246D01*
X129026483Y-101865208D01*
X127978116Y-101864293D01*
X127009201Y-102264641D01*
X126267246Y-103005302D01*
X125865208Y-103973517D01*
X125864293Y-105021884D01*
X126264641Y-105990799D01*
X127005302Y-106732754D01*
X127973517Y-107134792D01*
X129021884Y-107135707D01*
X129990799Y-106735359D01*
X130732754Y-105994698D01*
X131134792Y-105026483D01*
X131135707Y-103978116D01*
X131135707Y-112577500D01*
X128432658Y-112577500D01*
X128267433Y-112330222D01*
X127731810Y-111972330D01*
X127100000Y-111846655D01*
X126468190Y-111972330D01*
X125932567Y-112330222D01*
X125574675Y-112865845D01*
X125449000Y-113497655D01*
X125449000Y-113562345D01*
X125574675Y-114194155D01*
X125775371Y-114494518D01*
X125724301Y-114515673D01*
X125545673Y-114694302D01*
X125449000Y-114927691D01*
X125449000Y-115784250D01*
X125607750Y-115943000D01*
X126973000Y-115943000D01*
X126973000Y-115923000D01*
X127227000Y-115923000D01*
X127227000Y-115943000D01*
X128592250Y-115943000D01*
X128751000Y-115784250D01*
X128751000Y-114927691D01*
X128654327Y-114694302D01*
X128475699Y-114515673D01*
X128424628Y-114494518D01*
X128432658Y-114482500D01*
X131463275Y-114482500D01*
X131536673Y-114659698D01*
X131715301Y-114838327D01*
X131890000Y-114910689D01*
X131890000Y-117600000D01*
X131951658Y-117909974D01*
X132127244Y-118172756D01*
X132779743Y-118825256D01*
X132779744Y-118825256D01*
X132911135Y-118913049D01*
X133042526Y-119000842D01*
X133042527Y-119000842D01*
X133352500Y-119062500D01*
X133368974Y-119062500D01*
X133541801Y-119235327D01*
X133775190Y-119332000D01*
X134027809Y-119332000D01*
X135424809Y-119332000D01*
X135658198Y-119235327D01*
X135836827Y-119056699D01*
X135933500Y-118823310D01*
X135933500Y-118570691D01*
X135933500Y-118179012D01*
X137727244Y-119972757D01*
X137884770Y-120078012D01*
X137990026Y-120148342D01*
X137990027Y-120148342D01*
X138300000Y-120210000D01*
X139051675Y-120210000D01*
X139051676Y-120210000D01*
X139227244Y-120472756D01*
X140427243Y-121672756D01*
X140427244Y-121672756D01*
X140558635Y-121760549D01*
X140690026Y-121848342D01*
X140690027Y-121848342D01*
X141000000Y-121910000D01*
X141900000Y-121910000D01*
X141900000Y-121909999D01*
X142209973Y-121848342D01*
X142209974Y-121848342D01*
X142472756Y-121672756D01*
X143565954Y-120579558D01*
X143713784Y-120579687D01*
X144110689Y-120415689D01*
X144414622Y-120112286D01*
X144579313Y-119715668D01*
X144579579Y-119410000D01*
X145700000Y-119410000D01*
X147300000Y-119410000D01*
X147300000Y-119409999D01*
X147609973Y-119348342D01*
X147609974Y-119348342D01*
X147862580Y-119179555D01*
X148013784Y-119179687D01*
X148410689Y-119015689D01*
X148714622Y-118712286D01*
X148879313Y-118315668D01*
X148879687Y-117886216D01*
X148715689Y-117489311D01*
X148412286Y-117185378D01*
X148015668Y-117020687D01*
X147586216Y-117020313D01*
X147189311Y-117184311D01*
X147035000Y-117338352D01*
X147035000Y-116526310D01*
X147035000Y-116273691D01*
X147035000Y-115185750D01*
X147035000Y-114614250D01*
X147035000Y-113526309D01*
X147035000Y-113273690D01*
X146938327Y-113040301D01*
X146759698Y-112861673D01*
X146526309Y-112765000D01*
X142085750Y-112765000D01*
X141927000Y-112923750D01*
X141927000Y-114773000D01*
X146876250Y-114773000D01*
X147035000Y-114614250D01*
X147035000Y-115185750D01*
X146876250Y-115027000D01*
X141927000Y-115027000D01*
X141927000Y-116876250D01*
X142085750Y-117035000D01*
X146526309Y-117035000D01*
X146759698Y-116938327D01*
X146938327Y-116759699D01*
X147035000Y-116526310D01*
X147035000Y-117338352D01*
X146885378Y-117487714D01*
X146759857Y-117790000D01*
X145700000Y-117790000D01*
X142700000Y-117790000D01*
X142390027Y-117851657D01*
X142127244Y-118027243D01*
X141634045Y-118520441D01*
X141486216Y-118520313D01*
X141089311Y-118684311D01*
X140794078Y-118979028D01*
X140715689Y-118789311D01*
X140412286Y-118485378D01*
X140142346Y-118373288D01*
X140109974Y-118351658D01*
X140072121Y-118344128D01*
X140015668Y-118320687D01*
X139954003Y-118320633D01*
X139800000Y-118290000D01*
X139647339Y-118320366D01*
X139586216Y-118320313D01*
X139529227Y-118343860D01*
X139490026Y-118351658D01*
X139457083Y-118373669D01*
X139189311Y-118484311D01*
X139083437Y-118590000D01*
X138635512Y-118590000D01*
X137080512Y-117035000D01*
X141514250Y-117035000D01*
X141673000Y-116876250D01*
X141673000Y-115027000D01*
X141673000Y-114773000D01*
X141673000Y-112923750D01*
X141514250Y-112765000D01*
X137073691Y-112765000D01*
X136840302Y-112861673D01*
X136661673Y-113040301D01*
X136565000Y-113273690D01*
X136565000Y-113526309D01*
X136565000Y-114614250D01*
X136723750Y-114773000D01*
X141673000Y-114773000D01*
X141673000Y-115027000D01*
X136723750Y-115027000D01*
X136565000Y-115185750D01*
X136565000Y-116273691D01*
X136565000Y-116519487D01*
X135933500Y-115887987D01*
X135933500Y-115776691D01*
X135836827Y-115543302D01*
X135658199Y-115364673D01*
X135424810Y-115268000D01*
X135410000Y-115268000D01*
X135410000Y-113935512D01*
X136835512Y-112510000D01*
X139400000Y-112510000D01*
X139400000Y-112509999D01*
X139709973Y-112448342D01*
X139709974Y-112448342D01*
X139972756Y-112272756D01*
X141172756Y-111072757D01*
X141172756Y-111072756D01*
X141260549Y-110941365D01*
X141348342Y-110809974D01*
X141348342Y-110809973D01*
X141408010Y-110510000D01*
X142683100Y-110510000D01*
X142687714Y-110514622D01*
X143084332Y-110679313D01*
X143513784Y-110679687D01*
X143910689Y-110515689D01*
X144214622Y-110212286D01*
X144379313Y-109815668D01*
X144379687Y-109386216D01*
X144227534Y-109017978D01*
X145162942Y-108082569D01*
X145120687Y-108184332D01*
X145120313Y-108613784D01*
X145284311Y-109010689D01*
X145390000Y-109116562D01*
X145390000Y-109683100D01*
X145385378Y-109687714D01*
X145220687Y-110084332D01*
X145220313Y-110513784D01*
X145384311Y-110910689D01*
X145687714Y-111214622D01*
X146084332Y-111379313D01*
X146513784Y-111379687D01*
X146910689Y-111215689D01*
X147214622Y-110912286D01*
X147379313Y-110515668D01*
X147379687Y-110086216D01*
X147215689Y-109689311D01*
X147010000Y-109483262D01*
X147010000Y-109116725D01*
X147114622Y-109012286D01*
X147279313Y-108615668D01*
X147279687Y-108186216D01*
X147115689Y-107789311D01*
X146812286Y-107485378D01*
X146415668Y-107320687D01*
X145986216Y-107320313D01*
X145882236Y-107363276D01*
X146435512Y-106810000D01*
X154574487Y-106810000D01*
X158405887Y-110641399D01*
X158316655Y-111090000D01*
X158430729Y-111663489D01*
X158755585Y-112149670D01*
X159070365Y-112360000D01*
X158755585Y-112570330D01*
X158430729Y-113056511D01*
X158316655Y-113630000D01*
X158430729Y-114203489D01*
X158755585Y-114689670D01*
X159070365Y-114900000D01*
X158755585Y-115110330D01*
X158430729Y-115596511D01*
X158316655Y-116170000D01*
X158430729Y-116743489D01*
X158755585Y-117229670D01*
X158777779Y-117244499D01*
X158624301Y-117308073D01*
X158445673Y-117486702D01*
X158349000Y-117720091D01*
X158349000Y-118424250D01*
X158507750Y-118583000D01*
X159873000Y-118583000D01*
X159873000Y-118563000D01*
X160127000Y-118563000D01*
X160127000Y-118583000D01*
X161492250Y-118583000D01*
X161651000Y-118424250D01*
X161651000Y-117720091D01*
X161554327Y-117486702D01*
X161375699Y-117308073D01*
X161222220Y-117244499D01*
X161244415Y-117229670D01*
X161569271Y-116743489D01*
X161683345Y-116170000D01*
X161683345Y-123856921D01*
X161651000Y-123824519D01*
X161651000Y-119699909D01*
X161651000Y-118995750D01*
X161492250Y-118837000D01*
X160127000Y-118837000D01*
X160127000Y-120049850D01*
X160285750Y-120208600D01*
X160889691Y-120208600D01*
X161142310Y-120208600D01*
X161375699Y-120111927D01*
X161554327Y-119933298D01*
X161651000Y-119699909D01*
X161651000Y-123824519D01*
X161094698Y-123267246D01*
X160126483Y-122865208D01*
X159873000Y-122864986D01*
X159873000Y-120049850D01*
X159873000Y-118837000D01*
X158507750Y-118837000D01*
X158349000Y-118995750D01*
X158349000Y-119699909D01*
X158445673Y-119933298D01*
X158624301Y-120111927D01*
X158857690Y-120208600D01*
X159110309Y-120208600D01*
X159714250Y-120208600D01*
X159873000Y-120049850D01*
X159873000Y-122864986D01*
X159078116Y-122864293D01*
X158109201Y-123264641D01*
X157367246Y-124005302D01*
X156965208Y-124973517D01*
X156964293Y-126021884D01*
X157364641Y-126990799D01*
X158105302Y-127732754D01*
X159073517Y-128134792D01*
X160121884Y-128135707D01*
X161090799Y-127735359D01*
X161832754Y-126994698D01*
X162234792Y-126026483D01*
X162235707Y-124978116D01*
X162235707Y-129315000D01*
X143711379Y-129315000D01*
X144014622Y-129012286D01*
X144179313Y-128615668D01*
X144179443Y-128466068D01*
X153472756Y-119172756D01*
X153472757Y-119172756D01*
X153578012Y-119015229D01*
X153648342Y-118909974D01*
X153648342Y-118909973D01*
X153709999Y-118600000D01*
X153710000Y-118600000D01*
X153710000Y-114516725D01*
X153814622Y-114412286D01*
X153979313Y-114015668D01*
X153979687Y-113586216D01*
X153815689Y-113189311D01*
X153512286Y-112885378D01*
X153115668Y-112720687D01*
X152686216Y-112720313D01*
X152289311Y-112884311D01*
X151985378Y-113187714D01*
X151820687Y-113584332D01*
X151820313Y-114013784D01*
X151984311Y-114410689D01*
X152090000Y-114516562D01*
X152090000Y-118264487D01*
X143034046Y-127320441D01*
X142886216Y-127320313D01*
X142489311Y-127484311D01*
X142185378Y-127787714D01*
X142020687Y-128184332D01*
X142020313Y-128613784D01*
X142184311Y-129010689D01*
X142487714Y-129314622D01*
X142488624Y-129315000D01*
X131235707Y-129315000D01*
X131235707Y-124978116D01*
X130835359Y-124009201D01*
X130094698Y-123267246D01*
X129126483Y-122865208D01*
X128751000Y-122864880D01*
X128751000Y-117212309D01*
X128751000Y-116355750D01*
X128592250Y-116197000D01*
X127227000Y-116197000D01*
X127227000Y-117562250D01*
X127385750Y-117721000D01*
X127989691Y-117721000D01*
X128242310Y-117721000D01*
X128475699Y-117624327D01*
X128654327Y-117445698D01*
X128751000Y-117212309D01*
X128751000Y-122864880D01*
X128078116Y-122864293D01*
X127109201Y-123264641D01*
X126973000Y-123400604D01*
X126973000Y-117562250D01*
X126973000Y-116197000D01*
X125607750Y-116197000D01*
X125449000Y-116355750D01*
X125449000Y-117212309D01*
X125545673Y-117445698D01*
X125724301Y-117624327D01*
X125957690Y-117721000D01*
X126210309Y-117721000D01*
X126814250Y-117721000D01*
X126973000Y-117562250D01*
X126973000Y-123400604D01*
X126367246Y-124005302D01*
X125965208Y-124973517D01*
X125964293Y-126021884D01*
X126364641Y-126990799D01*
X127105302Y-127732754D01*
X128073517Y-128134792D01*
X129121884Y-128135707D01*
X130090799Y-127735359D01*
X130832754Y-126994698D01*
X131234792Y-126026483D01*
X131235707Y-124978116D01*
X131235707Y-129315000D01*
X124685000Y-129315000D01*
X124685000Y-100685000D01*
X163315000Y-100685000D01*
X163315000Y-129315000D01*
X163315000Y-129315000D01*
G37*
X163315000Y-129315000D02*
X162335707Y-129315000D01*
X162335707Y-104078116D01*
X161935359Y-103109201D01*
X161194698Y-102367246D01*
X160226483Y-101965208D01*
X159178116Y-101964293D01*
X158209201Y-102364641D01*
X157467246Y-103105302D01*
X157065208Y-104073517D01*
X157064293Y-105121884D01*
X157464641Y-106090799D01*
X158205302Y-106832754D01*
X159173517Y-107234792D01*
X160221884Y-107235707D01*
X161190799Y-106835359D01*
X161932754Y-106094698D01*
X162334792Y-105126483D01*
X162335707Y-104078116D01*
X162335707Y-129315000D01*
X162235707Y-129315000D01*
X162235707Y-124978116D01*
X161835359Y-124009201D01*
X161683345Y-123856921D01*
X161683345Y-116170000D01*
X161569271Y-115596511D01*
X161244415Y-115110330D01*
X160929634Y-114900000D01*
X161244415Y-114689670D01*
X161569271Y-114203489D01*
X161683345Y-113630000D01*
X161569271Y-113056511D01*
X161244415Y-112570330D01*
X160929634Y-112360000D01*
X161244415Y-112149670D01*
X161569271Y-111663489D01*
X161683345Y-111090000D01*
X161569271Y-110516511D01*
X161244415Y-110030330D01*
X160758234Y-109705474D01*
X160184745Y-109591400D01*
X159815255Y-109591400D01*
X159674842Y-109619329D01*
X155482756Y-105427244D01*
X155219974Y-105251658D01*
X154910000Y-105190000D01*
X146100000Y-105190000D01*
X145790026Y-105251658D01*
X145684770Y-105321987D01*
X145527244Y-105427243D01*
X142727244Y-108227244D01*
X142551658Y-108490026D01*
X142490000Y-108800000D01*
X142490000Y-108883274D01*
X142483262Y-108890000D01*
X141316725Y-108890000D01*
X141212286Y-108785378D01*
X140815668Y-108620687D01*
X140386216Y-108620313D01*
X139989311Y-108784311D01*
X139685378Y-109087714D01*
X139654745Y-109161484D01*
X139315668Y-109020687D01*
X139166069Y-109020556D01*
X138672756Y-108527244D01*
X138409974Y-108351658D01*
X138100000Y-108290000D01*
X137916725Y-108290000D01*
X137812286Y-108185378D01*
X137415668Y-108020687D01*
X136986216Y-108020313D01*
X136589311Y-108184311D01*
X136285378Y-108487714D01*
X136120687Y-108884332D01*
X136120313Y-109313784D01*
X136284311Y-109710689D01*
X136587714Y-110014622D01*
X136984332Y-110179313D01*
X137413784Y-110179687D01*
X137810689Y-110015689D01*
X137840458Y-109985971D01*
X138020441Y-110165954D01*
X138020313Y-110313784D01*
X138184311Y-110710689D01*
X138363309Y-110890000D01*
X136500000Y-110890000D01*
X136327896Y-110924233D01*
X136190027Y-110951657D01*
X135927244Y-111127243D01*
X134027244Y-113027244D01*
X133960000Y-113127881D01*
X133960000Y-112673691D01*
X133863327Y-112440302D01*
X133723025Y-112300000D01*
X133863327Y-112159698D01*
X133960000Y-111926309D01*
X133960000Y-111335750D01*
X133960000Y-110764250D01*
X133960000Y-110173691D01*
X133863327Y-109940302D01*
X133684699Y-109761673D01*
X133451310Y-109665000D01*
X133198691Y-109665000D01*
X132985750Y-109665000D01*
X132827000Y-109823750D01*
X132827000Y-110923000D01*
X133801250Y-110923000D01*
X133960000Y-110764250D01*
X133960000Y-111335750D01*
X133801250Y-111177000D01*
X132827000Y-111177000D01*
X132827000Y-111197000D01*
X132573000Y-111197000D01*
X132573000Y-111177000D01*
X132573000Y-110923000D01*
X132573000Y-109823750D01*
X132414250Y-109665000D01*
X132201309Y-109665000D01*
X131948690Y-109665000D01*
X131715301Y-109761673D01*
X131536673Y-109940302D01*
X131440000Y-110173691D01*
X131440000Y-110764250D01*
X131598750Y-110923000D01*
X132573000Y-110923000D01*
X132573000Y-111177000D01*
X131598750Y-111177000D01*
X131440000Y-111335750D01*
X131440000Y-111926309D01*
X131536673Y-112159698D01*
X131676974Y-112300000D01*
X131536673Y-112440301D01*
X131479843Y-112577500D01*
X131135707Y-112577500D01*
X131135707Y-103978116D01*
X130735359Y-103009201D01*
X129994698Y-102267246D01*
X129026483Y-101865208D01*
X127978116Y-101864293D01*
X127009201Y-102264641D01*
X126267246Y-103005302D01*
X125865208Y-103973517D01*
X125864293Y-105021884D01*
X126264641Y-105990799D01*
X127005302Y-106732754D01*
X127973517Y-107134792D01*
X129021884Y-107135707D01*
X129990799Y-106735359D01*
X130732754Y-105994698D01*
X131134792Y-105026483D01*
X131135707Y-103978116D01*
X131135707Y-112577500D01*
X128432658Y-112577500D01*
X128267433Y-112330222D01*
X127731810Y-111972330D01*
X127100000Y-111846655D01*
X126468190Y-111972330D01*
X125932567Y-112330222D01*
X125574675Y-112865845D01*
X125449000Y-113497655D01*
X125449000Y-113562345D01*
X125574675Y-114194155D01*
X125775371Y-114494518D01*
X125724301Y-114515673D01*
X125545673Y-114694302D01*
X125449000Y-114927691D01*
X125449000Y-115784250D01*
X125607750Y-115943000D01*
X126973000Y-115943000D01*
X126973000Y-115923000D01*
X127227000Y-115923000D01*
X127227000Y-115943000D01*
X128592250Y-115943000D01*
X128751000Y-115784250D01*
X128751000Y-114927691D01*
X128654327Y-114694302D01*
X128475699Y-114515673D01*
X128424628Y-114494518D01*
X128432658Y-114482500D01*
X131463275Y-114482500D01*
X131536673Y-114659698D01*
X131715301Y-114838327D01*
X131890000Y-114910689D01*
X131890000Y-117600000D01*
X131951658Y-117909974D01*
X132127244Y-118172756D01*
X132779743Y-118825256D01*
X132779744Y-118825256D01*
X132911135Y-118913049D01*
X133042526Y-119000842D01*
X133042527Y-119000842D01*
X133352500Y-119062500D01*
X133368974Y-119062500D01*
X133541801Y-119235327D01*
X133775190Y-119332000D01*
X134027809Y-119332000D01*
X135424809Y-119332000D01*
X135658198Y-119235327D01*
X135836827Y-119056699D01*
X135933500Y-118823310D01*
X135933500Y-118570691D01*
X135933500Y-118179012D01*
X137727244Y-119972757D01*
X137884770Y-120078012D01*
X137990026Y-120148342D01*
X137990027Y-120148342D01*
X138300000Y-120210000D01*
X139051675Y-120210000D01*
X139051676Y-120210000D01*
X139227244Y-120472756D01*
X140427243Y-121672756D01*
X140427244Y-121672756D01*
X140558635Y-121760549D01*
X140690026Y-121848342D01*
X140690027Y-121848342D01*
X141000000Y-121910000D01*
X141900000Y-121910000D01*
X141900000Y-121909999D01*
X142209973Y-121848342D01*
X142209974Y-121848342D01*
X142472756Y-121672756D01*
X143565954Y-120579558D01*
X143713784Y-120579687D01*
X144110689Y-120415689D01*
X144414622Y-120112286D01*
X144579313Y-119715668D01*
X144579579Y-119410000D01*
X145700000Y-119410000D01*
X147300000Y-119410000D01*
X147300000Y-119409999D01*
X147609973Y-119348342D01*
X147609974Y-119348342D01*
X147862580Y-119179555D01*
X148013784Y-119179687D01*
X148410689Y-119015689D01*
X148714622Y-118712286D01*
X148879313Y-118315668D01*
X148879687Y-117886216D01*
X148715689Y-117489311D01*
X148412286Y-117185378D01*
X148015668Y-117020687D01*
X147586216Y-117020313D01*
X147189311Y-117184311D01*
X147035000Y-117338352D01*
X147035000Y-116526310D01*
X147035000Y-116273691D01*
X147035000Y-115185750D01*
X147035000Y-114614250D01*
X147035000Y-113526309D01*
X147035000Y-113273690D01*
X146938327Y-113040301D01*
X146759698Y-112861673D01*
X146526309Y-112765000D01*
X142085750Y-112765000D01*
X141927000Y-112923750D01*
X141927000Y-114773000D01*
X146876250Y-114773000D01*
X147035000Y-114614250D01*
X147035000Y-115185750D01*
X146876250Y-115027000D01*
X141927000Y-115027000D01*
X141927000Y-116876250D01*
X142085750Y-117035000D01*
X146526309Y-117035000D01*
X146759698Y-116938327D01*
X146938327Y-116759699D01*
X147035000Y-116526310D01*
X147035000Y-117338352D01*
X146885378Y-117487714D01*
X146759857Y-117790000D01*
X145700000Y-117790000D01*
X142700000Y-117790000D01*
X142390027Y-117851657D01*
X142127244Y-118027243D01*
X141634045Y-118520441D01*
X141486216Y-118520313D01*
X141089311Y-118684311D01*
X140794078Y-118979028D01*
X140715689Y-118789311D01*
X140412286Y-118485378D01*
X140142346Y-118373288D01*
X140109974Y-118351658D01*
X140072121Y-118344128D01*
X140015668Y-118320687D01*
X139954003Y-118320633D01*
X139800000Y-118290000D01*
X139647339Y-118320366D01*
X139586216Y-118320313D01*
X139529227Y-118343860D01*
X139490026Y-118351658D01*
X139457083Y-118373669D01*
X139189311Y-118484311D01*
X139083437Y-118590000D01*
X138635512Y-118590000D01*
X137080512Y-117035000D01*
X141514250Y-117035000D01*
X141673000Y-116876250D01*
X141673000Y-115027000D01*
X141673000Y-114773000D01*
X141673000Y-112923750D01*
X141514250Y-112765000D01*
X137073691Y-112765000D01*
X136840302Y-112861673D01*
X136661673Y-113040301D01*
X136565000Y-113273690D01*
X136565000Y-113526309D01*
X136565000Y-114614250D01*
X136723750Y-114773000D01*
X141673000Y-114773000D01*
X141673000Y-115027000D01*
X136723750Y-115027000D01*
X136565000Y-115185750D01*
X136565000Y-116273691D01*
X136565000Y-116519487D01*
X135933500Y-115887987D01*
X135933500Y-115776691D01*
X135836827Y-115543302D01*
X135658199Y-115364673D01*
X135424810Y-115268000D01*
X135410000Y-115268000D01*
X135410000Y-113935512D01*
X136835512Y-112510000D01*
X139400000Y-112510000D01*
X139400000Y-112509999D01*
X139709973Y-112448342D01*
X139709974Y-112448342D01*
X139972756Y-112272756D01*
X141172756Y-111072757D01*
X141172756Y-111072756D01*
X141260549Y-110941365D01*
X141348342Y-110809974D01*
X141348342Y-110809973D01*
X141408010Y-110510000D01*
X142683100Y-110510000D01*
X142687714Y-110514622D01*
X143084332Y-110679313D01*
X143513784Y-110679687D01*
X143910689Y-110515689D01*
X144214622Y-110212286D01*
X144379313Y-109815668D01*
X144379687Y-109386216D01*
X144227534Y-109017978D01*
X145162942Y-108082569D01*
X145120687Y-108184332D01*
X145120313Y-108613784D01*
X145284311Y-109010689D01*
X145390000Y-109116562D01*
X145390000Y-109683100D01*
X145385378Y-109687714D01*
X145220687Y-110084332D01*
X145220313Y-110513784D01*
X145384311Y-110910689D01*
X145687714Y-111214622D01*
X146084332Y-111379313D01*
X146513784Y-111379687D01*
X146910689Y-111215689D01*
X147214622Y-110912286D01*
X147379313Y-110515668D01*
X147379687Y-110086216D01*
X147215689Y-109689311D01*
X147010000Y-109483262D01*
X147010000Y-109116725D01*
X147114622Y-109012286D01*
X147279313Y-108615668D01*
X147279687Y-108186216D01*
X147115689Y-107789311D01*
X146812286Y-107485378D01*
X146415668Y-107320687D01*
X145986216Y-107320313D01*
X145882236Y-107363276D01*
X146435512Y-106810000D01*
X154574487Y-106810000D01*
X158405887Y-110641399D01*
X158316655Y-111090000D01*
X158430729Y-111663489D01*
X158755585Y-112149670D01*
X159070365Y-112360000D01*
X158755585Y-112570330D01*
X158430729Y-113056511D01*
X158316655Y-113630000D01*
X158430729Y-114203489D01*
X158755585Y-114689670D01*
X159070365Y-114900000D01*
X158755585Y-115110330D01*
X158430729Y-115596511D01*
X158316655Y-116170000D01*
X158430729Y-116743489D01*
X158755585Y-117229670D01*
X158777779Y-117244499D01*
X158624301Y-117308073D01*
X158445673Y-117486702D01*
X158349000Y-117720091D01*
X158349000Y-118424250D01*
X158507750Y-118583000D01*
X159873000Y-118583000D01*
X159873000Y-118563000D01*
X160127000Y-118563000D01*
X160127000Y-118583000D01*
X161492250Y-118583000D01*
X161651000Y-118424250D01*
X161651000Y-117720091D01*
X161554327Y-117486702D01*
X161375699Y-117308073D01*
X161222220Y-117244499D01*
X161244415Y-117229670D01*
X161569271Y-116743489D01*
X161683345Y-116170000D01*
X161683345Y-123856921D01*
X161651000Y-123824519D01*
X161651000Y-119699909D01*
X161651000Y-118995750D01*
X161492250Y-118837000D01*
X160127000Y-118837000D01*
X160127000Y-120049850D01*
X160285750Y-120208600D01*
X160889691Y-120208600D01*
X161142310Y-120208600D01*
X161375699Y-120111927D01*
X161554327Y-119933298D01*
X161651000Y-119699909D01*
X161651000Y-123824519D01*
X161094698Y-123267246D01*
X160126483Y-122865208D01*
X159873000Y-122864986D01*
X159873000Y-120049850D01*
X159873000Y-118837000D01*
X158507750Y-118837000D01*
X158349000Y-118995750D01*
X158349000Y-119699909D01*
X158445673Y-119933298D01*
X158624301Y-120111927D01*
X158857690Y-120208600D01*
X159110309Y-120208600D01*
X159714250Y-120208600D01*
X159873000Y-120049850D01*
X159873000Y-122864986D01*
X159078116Y-122864293D01*
X158109201Y-123264641D01*
X157367246Y-124005302D01*
X156965208Y-124973517D01*
X156964293Y-126021884D01*
X157364641Y-126990799D01*
X158105302Y-127732754D01*
X159073517Y-128134792D01*
X160121884Y-128135707D01*
X161090799Y-127735359D01*
X161832754Y-126994698D01*
X162234792Y-126026483D01*
X162235707Y-124978116D01*
X162235707Y-129315000D01*
X143711379Y-129315000D01*
X144014622Y-129012286D01*
X144179313Y-128615668D01*
X144179443Y-128466068D01*
X153472756Y-119172756D01*
X153472757Y-119172756D01*
X153578012Y-119015229D01*
X153648342Y-118909974D01*
X153648342Y-118909973D01*
X153709999Y-118600000D01*
X153710000Y-118600000D01*
X153710000Y-114516725D01*
X153814622Y-114412286D01*
X153979313Y-114015668D01*
X153979687Y-113586216D01*
X153815689Y-113189311D01*
X153512286Y-112885378D01*
X153115668Y-112720687D01*
X152686216Y-112720313D01*
X152289311Y-112884311D01*
X151985378Y-113187714D01*
X151820687Y-113584332D01*
X151820313Y-114013784D01*
X151984311Y-114410689D01*
X152090000Y-114516562D01*
X152090000Y-118264487D01*
X143034046Y-127320441D01*
X142886216Y-127320313D01*
X142489311Y-127484311D01*
X142185378Y-127787714D01*
X142020687Y-128184332D01*
X142020313Y-128613784D01*
X142184311Y-129010689D01*
X142487714Y-129314622D01*
X142488624Y-129315000D01*
X131235707Y-129315000D01*
X131235707Y-124978116D01*
X130835359Y-124009201D01*
X130094698Y-123267246D01*
X129126483Y-122865208D01*
X128751000Y-122864880D01*
X128751000Y-117212309D01*
X128751000Y-116355750D01*
X128592250Y-116197000D01*
X127227000Y-116197000D01*
X127227000Y-117562250D01*
X127385750Y-117721000D01*
X127989691Y-117721000D01*
X128242310Y-117721000D01*
X128475699Y-117624327D01*
X128654327Y-117445698D01*
X128751000Y-117212309D01*
X128751000Y-122864880D01*
X128078116Y-122864293D01*
X127109201Y-123264641D01*
X126973000Y-123400604D01*
X126973000Y-117562250D01*
X126973000Y-116197000D01*
X125607750Y-116197000D01*
X125449000Y-116355750D01*
X125449000Y-117212309D01*
X125545673Y-117445698D01*
X125724301Y-117624327D01*
X125957690Y-117721000D01*
X126210309Y-117721000D01*
X126814250Y-117721000D01*
X126973000Y-117562250D01*
X126973000Y-123400604D01*
X126367246Y-124005302D01*
X125965208Y-124973517D01*
X125964293Y-126021884D01*
X126364641Y-126990799D01*
X127105302Y-127732754D01*
X128073517Y-128134792D01*
X129121884Y-128135707D01*
X130090799Y-127735359D01*
X130832754Y-126994698D01*
X131234792Y-126026483D01*
X131235707Y-124978116D01*
X131235707Y-129315000D01*
X124685000Y-129315000D01*
X124685000Y-100685000D01*
X163315000Y-100685000D01*
X163315000Y-129315000D01*
M02*
