M48
;DRILL file {kicad (2014-10-27 BZR 5228)-product} date 17/01/2015 07:27:29
;FORMAT={3:3/ absolute / metric / keep zeros}
FMAT,2
METRIC,TZ
T1C0.635
T2C1.016
T3C4.000
%
G90
G05
M71
T1
X137100Y-128400
X137600Y-107800
X139400Y-127000
X140800Y-114900
X141400Y-104900
X143100Y-128400
X143500Y-114900
X146700Y-128700
X148000Y-106300
X150000Y-104600
X150100Y-124100
X150500Y-127600
X151700Y-114700
X152900Y-113800
T2
X127100Y-113530
X127100Y-116070
X160000Y-111090
X160000Y-113630
X160000Y-116170
X160000Y-118710
T3
X128500Y-104500
X128600Y-125500
X159600Y-125500
X159700Y-104600
T0
M30
