%FSLAX46Y46*%
G04 Gerber Fmt 4.6, Leading zero omitted, Abs format (unit mm)*
G04 Created by KiCad (PCBNEW (2014-10-27 BZR 5228)-product) date 18/01/2015 09:30:56*
%MOMM*%
G01*
G04 APERTURE LIST*
%ADD10C,0.100000*%
%ADD11C,0.150000*%
G04 APERTURE END LIST*
D10*
D11*
X133550000Y-111800000D02*
X133550000Y-112800000D01*
X131850000Y-112800000D02*
X131850000Y-111800000D01*
X133965000Y-118951000D02*
G75*
G03X133965000Y-118951000I-127000J0D01*
G01*
X133838000Y-117808000D02*
X133838000Y-118824000D01*
X133838000Y-118824000D02*
X135362000Y-118824000D01*
X135362000Y-118824000D02*
X135362000Y-117808000D01*
X135362000Y-116792000D02*
X135362000Y-115776000D01*
X135362000Y-115776000D02*
X133838000Y-115776000D01*
X133838000Y-115776000D02*
X133838000Y-116792000D01*
X131457143Y-112133334D02*
X131504762Y-112085715D01*
X131552381Y-111942858D01*
X131552381Y-111847620D01*
X131504762Y-111704762D01*
X131409524Y-111609524D01*
X131314286Y-111561905D01*
X131123810Y-111514286D01*
X130980952Y-111514286D01*
X130790476Y-111561905D01*
X130695238Y-111609524D01*
X130600000Y-111704762D01*
X130552381Y-111847620D01*
X130552381Y-111942858D01*
X130600000Y-112085715D01*
X130647619Y-112133334D01*
X130552381Y-113038096D02*
X130552381Y-112561905D01*
X131028571Y-112514286D01*
X130980952Y-112561905D01*
X130933333Y-112657143D01*
X130933333Y-112895239D01*
X130980952Y-112990477D01*
X131028571Y-113038096D01*
X131123810Y-113085715D01*
X131361905Y-113085715D01*
X131457143Y-113038096D01*
X131504762Y-112990477D01*
X131552381Y-112895239D01*
X131552381Y-112657143D01*
X131504762Y-112561905D01*
X131457143Y-112514286D01*
X136852381Y-117133334D02*
X136852381Y-116657143D01*
X135852381Y-116657143D01*
X135852381Y-117942858D02*
X135852381Y-117466667D01*
X136328571Y-117419048D01*
X136280952Y-117466667D01*
X136233333Y-117561905D01*
X136233333Y-117800001D01*
X136280952Y-117895239D01*
X136328571Y-117942858D01*
X136423810Y-117990477D01*
X136661905Y-117990477D01*
X136757143Y-117942858D01*
X136804762Y-117895239D01*
X136852381Y-117800001D01*
X136852381Y-117561905D01*
X136804762Y-117466667D01*
X136757143Y-117419048D01*
M02*
