%FSLAX46Y46*%
G04 Gerber Fmt 4.6, Leading zero omitted, Abs format (unit mm)*
G04 Created by KiCad (PCBNEW (2014-10-27 BZR 5228)-product) date 07/01/2015 12:37:54*
%MOMM*%
G01*
G04 APERTURE LIST*
%ADD10C,0.100000*%
%ADD11R,1.651000X1.651000*%
%ADD12C,1.651000*%
%ADD13R,2.499360X1.800860*%
%ADD14C,1.998980*%
%ADD15R,2.032000X2.032000*%
%ADD16O,2.032000X2.032000*%
%ADD17R,1.727200X1.727200*%
%ADD18O,1.727200X1.727200*%
%ADD19R,2.235200X2.235200*%
%ADD20R,2.032000X1.727200*%
%ADD21O,2.032000X1.727200*%
%ADD22R,0.599440X1.000760*%
%ADD23O,1.699260X3.500120*%
%ADD24R,1.300480X0.299720*%
%ADD25R,1.950000X0.600000*%
%ADD26C,1.524000*%
%ADD27R,1.550000X0.600000*%
%ADD28C,2.540000*%
%ADD29C,1.727200*%
%ADD30R,1.397000X1.397000*%
%ADD31C,1.397000*%
%ADD32R,1.000000X1.250000*%
%ADD33R,1.250000X1.000000*%
%ADD34R,1.600200X1.198880*%
%ADD35R,1.198880X1.600200*%
%ADD36R,0.700000X1.300000*%
%ADD37R,1.300000X0.700000*%
G04 APERTURE END LIST*
D10*
D11*
X105700000Y-78470000D03*
D12*
X105700000Y-75930000D03*
D11*
X164730000Y-54500000D03*
D12*
X167270000Y-54500000D03*
D13*
X130401020Y-119550000D03*
X134398980Y-119550000D03*
X104122220Y-138353800D03*
X108120180Y-138353800D03*
X116530120Y-146380200D03*
X120528080Y-146380200D03*
X112669320Y-124498100D03*
X116667280Y-124498100D03*
X135859520Y-146685000D03*
X139857480Y-146685000D03*
X145130520Y-146634200D03*
X149128480Y-146634200D03*
X138801020Y-113400000D03*
X142798980Y-113400000D03*
X108110020Y-145465800D03*
X112107980Y-145465800D03*
X125255020Y-146380200D03*
X129252980Y-146380200D03*
X121724420Y-119862600D03*
X125722380Y-119862600D03*
D14*
X164700000Y-76801260D03*
X164700000Y-66641260D03*
X132804000Y-85592000D03*
X132804000Y-80004000D03*
X118704000Y-85692000D03*
X118704000Y-80104000D03*
X185992000Y-64196000D03*
X180404000Y-64196000D03*
X186192000Y-84096000D03*
X180604000Y-84096000D03*
X186392000Y-103296000D03*
X180804000Y-103296000D03*
X186292000Y-139396000D03*
X180704000Y-139396000D03*
X186592000Y-122296000D03*
X181004000Y-122296000D03*
X196292000Y-64196000D03*
X190704000Y-64196000D03*
X196392000Y-83796000D03*
X190804000Y-83796000D03*
X196692000Y-103296000D03*
X191104000Y-103296000D03*
X196492000Y-139296000D03*
X190904000Y-139296000D03*
X196792000Y-122396000D03*
X191204000Y-122396000D03*
D15*
X103330000Y-88100000D03*
D16*
X105870000Y-88100000D03*
D15*
X103330000Y-92000000D03*
D16*
X105870000Y-92000000D03*
D17*
X131870000Y-103850000D03*
D18*
X129330000Y-103850000D03*
X131870000Y-101310000D03*
X129330000Y-101310000D03*
X131870000Y-98770000D03*
X129330000Y-98770000D03*
X131870000Y-96230000D03*
X129330000Y-96230000D03*
X131870000Y-93690000D03*
X129330000Y-93690000D03*
X131870000Y-91150000D03*
X129330000Y-91150000D03*
D15*
X102600000Y-58670000D03*
D16*
X102600000Y-56130000D03*
D15*
X105371900Y-120281700D03*
D16*
X102831900Y-120281700D03*
D19*
X142800000Y-69400000D03*
D20*
X102500000Y-69810000D03*
D21*
X102500000Y-67270000D03*
X102500000Y-64730000D03*
X102500000Y-62190000D03*
D22*
X137347500Y-71856640D03*
X138300000Y-69743360D03*
X139252500Y-71856640D03*
D23*
X130200000Y-55900000D03*
X132740000Y-55900000D03*
X127660000Y-55900000D03*
D14*
X111351060Y-107569000D03*
X106349800Y-107569000D03*
X117414040Y-107569000D03*
X122415300Y-107569000D03*
D17*
X105770000Y-98470000D03*
D18*
X105770000Y-95930000D03*
X103230000Y-98470000D03*
X103230000Y-95930000D03*
D24*
X142894000Y-91830400D03*
X142894000Y-91195400D03*
X142894000Y-90535000D03*
X142894000Y-89900000D03*
X142894000Y-89239600D03*
X142894000Y-88591900D03*
X142894000Y-87944200D03*
X137306000Y-87944200D03*
X137306000Y-88591900D03*
X137306000Y-89239600D03*
X137306000Y-89900000D03*
X137306000Y-90547700D03*
X137306000Y-91195400D03*
X137306000Y-91843100D03*
X142894000Y-97830400D03*
X142894000Y-97195400D03*
X142894000Y-96535000D03*
X142894000Y-95900000D03*
X142894000Y-95239600D03*
X142894000Y-94591900D03*
X142894000Y-93944200D03*
X137306000Y-93944200D03*
X137306000Y-94591900D03*
X137306000Y-95239600D03*
X137306000Y-95900000D03*
X137306000Y-96547700D03*
X137306000Y-97195400D03*
X137306000Y-97843100D03*
D25*
X147300000Y-69685000D03*
X147300000Y-70955000D03*
X147300000Y-72225000D03*
X147300000Y-73495000D03*
X147300000Y-74765000D03*
X147300000Y-76035000D03*
X147300000Y-77305000D03*
X147300000Y-78575000D03*
X147300000Y-79845000D03*
X147300000Y-81115000D03*
X156700000Y-81115000D03*
X156700000Y-79845000D03*
X156700000Y-78575000D03*
X156700000Y-77305000D03*
X156700000Y-76035000D03*
X156700000Y-74765000D03*
X156700000Y-73495000D03*
X156700000Y-72225000D03*
X156700000Y-70955000D03*
X156700000Y-69685000D03*
X147700000Y-86285000D03*
X147700000Y-87555000D03*
X147700000Y-88825000D03*
X147700000Y-90095000D03*
X147700000Y-91365000D03*
X147700000Y-92635000D03*
X147700000Y-93905000D03*
X147700000Y-95175000D03*
X147700000Y-96445000D03*
X147700000Y-97715000D03*
X157100000Y-97715000D03*
X157100000Y-96445000D03*
X157100000Y-95175000D03*
X157100000Y-93905000D03*
X157100000Y-92635000D03*
X157100000Y-91365000D03*
X157100000Y-90095000D03*
X157100000Y-88825000D03*
X157100000Y-87555000D03*
X157100000Y-86285000D03*
X147600000Y-104685000D03*
X147600000Y-105955000D03*
X147600000Y-107225000D03*
X147600000Y-108495000D03*
X147600000Y-109765000D03*
X147600000Y-111035000D03*
X147600000Y-112305000D03*
X147600000Y-113575000D03*
X147600000Y-114845000D03*
X147600000Y-116115000D03*
X157000000Y-116115000D03*
X157000000Y-114845000D03*
X157000000Y-113575000D03*
X157000000Y-112305000D03*
X157000000Y-111035000D03*
X157000000Y-109765000D03*
X157000000Y-108495000D03*
X157000000Y-107225000D03*
X157000000Y-105955000D03*
X157000000Y-104685000D03*
X147600000Y-121785000D03*
X147600000Y-123055000D03*
X147600000Y-124325000D03*
X147600000Y-125595000D03*
X147600000Y-126865000D03*
X147600000Y-128135000D03*
X147600000Y-129405000D03*
X147600000Y-130675000D03*
X147600000Y-131945000D03*
X147600000Y-133215000D03*
X157000000Y-133215000D03*
X157000000Y-131945000D03*
X157000000Y-130675000D03*
X157000000Y-129405000D03*
X157000000Y-128135000D03*
X157000000Y-126865000D03*
X157000000Y-125595000D03*
X157000000Y-124325000D03*
X157000000Y-123055000D03*
X157000000Y-121785000D03*
D26*
X116200000Y-68360000D03*
X116200000Y-65820000D03*
X116200000Y-70900000D03*
D17*
X163144200Y-133781800D03*
D18*
X160604200Y-133781800D03*
X163144200Y-131241800D03*
X160604200Y-131241800D03*
X163144200Y-128701800D03*
X160604200Y-128701800D03*
X163144200Y-126161800D03*
X160604200Y-126161800D03*
X163144200Y-123621800D03*
X160604200Y-123621800D03*
D20*
X162788600Y-88798400D03*
D21*
X162788600Y-91338400D03*
X162788600Y-93878400D03*
X162788600Y-96418400D03*
X162788600Y-98958400D03*
X162788600Y-101498400D03*
X162788600Y-104038400D03*
X162788600Y-106578400D03*
D27*
X125600000Y-73095000D03*
X125600000Y-74365000D03*
X125600000Y-75635000D03*
X125600000Y-76905000D03*
X131000000Y-76905000D03*
X131000000Y-75635000D03*
X131000000Y-74365000D03*
X131000000Y-73095000D03*
D28*
X137900000Y-53300000D03*
D29*
X137900000Y-57300000D03*
D28*
X137900000Y-61300000D03*
D29*
X137900000Y-65300000D03*
D30*
X122580000Y-90690000D03*
D31*
X120040000Y-90690000D03*
X117500000Y-90690000D03*
X114960000Y-90690000D03*
X112420000Y-90690000D03*
X112420000Y-98310000D03*
X114960000Y-98310000D03*
X117500000Y-98310000D03*
X120040000Y-98310000D03*
X122580000Y-98310000D03*
D30*
X176410000Y-69980000D03*
D31*
X176410000Y-67440000D03*
X176410000Y-64900000D03*
X176410000Y-62360000D03*
X176410000Y-59820000D03*
X168790000Y-59820000D03*
X168790000Y-62360000D03*
X168790000Y-64900000D03*
X168790000Y-67440000D03*
X168790000Y-69980000D03*
D30*
X176310000Y-88280000D03*
D31*
X176310000Y-85740000D03*
X176310000Y-83200000D03*
X176310000Y-80660000D03*
X176310000Y-78120000D03*
X168690000Y-78120000D03*
X168690000Y-80660000D03*
X168690000Y-83200000D03*
X168690000Y-85740000D03*
X168690000Y-88280000D03*
D30*
X176410000Y-107480000D03*
D31*
X176410000Y-104940000D03*
X176410000Y-102400000D03*
X176410000Y-99860000D03*
X176410000Y-97320000D03*
X168790000Y-97320000D03*
X168790000Y-99860000D03*
X168790000Y-102400000D03*
X168790000Y-104940000D03*
X168790000Y-107480000D03*
D30*
X176510000Y-125480000D03*
D31*
X176510000Y-122940000D03*
X176510000Y-120400000D03*
X176510000Y-117860000D03*
X176510000Y-115320000D03*
X168890000Y-115320000D03*
X168890000Y-117860000D03*
X168890000Y-120400000D03*
X168890000Y-122940000D03*
X168890000Y-125480000D03*
D30*
X176810000Y-143780000D03*
D31*
X176810000Y-141240000D03*
X176810000Y-138700000D03*
X176810000Y-136160000D03*
X176810000Y-133620000D03*
X169190000Y-133620000D03*
X169190000Y-136160000D03*
X169190000Y-138700000D03*
X169190000Y-141240000D03*
X169190000Y-143780000D03*
D32*
X106700000Y-70000000D03*
X108700000Y-70000000D03*
X112100000Y-60900000D03*
X110100000Y-60900000D03*
X120300000Y-62900000D03*
X122300000Y-62900000D03*
X106800000Y-64400000D03*
X108800000Y-64400000D03*
X120400000Y-68200000D03*
X122400000Y-68200000D03*
X158400000Y-66100000D03*
X160400000Y-66100000D03*
X158300000Y-60500000D03*
X160300000Y-60500000D03*
X158300000Y-55200000D03*
X160300000Y-55200000D03*
X162800000Y-60400000D03*
X164800000Y-60400000D03*
X140400000Y-82300000D03*
X142400000Y-82300000D03*
X112800000Y-78300000D03*
X114800000Y-78300000D03*
X121200000Y-87800000D03*
X123200000Y-87800000D03*
X184875000Y-54000000D03*
X182875000Y-54000000D03*
X179800000Y-74100000D03*
X177800000Y-74100000D03*
X181499000Y-93599000D03*
X183499000Y-93599000D03*
D33*
X179832000Y-113699800D03*
X179832000Y-111699800D03*
X188874400Y-125339600D03*
X188874400Y-127339600D03*
D32*
X185359800Y-147193000D03*
X187359800Y-147193000D03*
X187200000Y-54100000D03*
X189200000Y-54100000D03*
X182300000Y-74100000D03*
X184300000Y-74100000D03*
X186198000Y-93599000D03*
X188198000Y-93599000D03*
X180787800Y-147421600D03*
X182787800Y-147421600D03*
D33*
X184124600Y-113776000D03*
X184124600Y-111776000D03*
D32*
X190160400Y-147066000D03*
X192160400Y-147066000D03*
X178900000Y-54000000D03*
X180900000Y-54000000D03*
X195850000Y-73914000D03*
X197850000Y-73914000D03*
X190897000Y-93599000D03*
X192897000Y-93599000D03*
X189976000Y-130759200D03*
X187976000Y-130759200D03*
D33*
X188417200Y-113649000D03*
X188417200Y-111649000D03*
D32*
X191625000Y-54175000D03*
X193625000Y-54175000D03*
X186642500Y-74041000D03*
X188642500Y-74041000D03*
D33*
X188722000Y-98441000D03*
X188722000Y-100441000D03*
D32*
X193005200Y-130937000D03*
X195005200Y-130937000D03*
D33*
X188849000Y-117745000D03*
X188849000Y-119745000D03*
D32*
X185454800Y-130708400D03*
X183454800Y-130708400D03*
X196100000Y-54100000D03*
X198100000Y-54100000D03*
X191532000Y-73977500D03*
X193532000Y-73977500D03*
X195215000Y-93472000D03*
X197215000Y-93472000D03*
D33*
X193100000Y-113800000D03*
X193100000Y-111800000D03*
X197231000Y-113776000D03*
X197231000Y-111776000D03*
X117100000Y-103400000D03*
X117100000Y-101400000D03*
D32*
X146700000Y-101200000D03*
X148700000Y-101200000D03*
X110194600Y-141770100D03*
X108194600Y-141770100D03*
X135118600Y-137134600D03*
X137118600Y-137134600D03*
X128870200Y-124218700D03*
X130870200Y-124218700D03*
X142611600Y-142659100D03*
X144611600Y-142659100D03*
X128870200Y-116230400D03*
X130870200Y-116230400D03*
X105330500Y-133667500D03*
X103330500Y-133667500D03*
X136229600Y-141706600D03*
X134229600Y-141706600D03*
X110531400Y-117182900D03*
X112531400Y-117182900D03*
X147600000Y-142900000D03*
X149600000Y-142900000D03*
X122400000Y-111900000D03*
X120400000Y-111900000D03*
X113598200Y-138188700D03*
X111598200Y-138188700D03*
X136953500Y-132041900D03*
X134953500Y-132041900D03*
X102301800Y-109702600D03*
X104301800Y-109702600D03*
X160607500Y-142773400D03*
X162607500Y-142773400D03*
X156400000Y-142800000D03*
X158400000Y-142800000D03*
X132100000Y-113800000D03*
X134100000Y-113800000D03*
X123100000Y-134100000D03*
X125100000Y-134100000D03*
X135100000Y-128300000D03*
X137100000Y-128300000D03*
X107235500Y-101168200D03*
X105235500Y-101168200D03*
X152200000Y-142900000D03*
X154200000Y-142900000D03*
X132600000Y-106700000D03*
X130600000Y-106700000D03*
X122482100Y-138341100D03*
X124482100Y-138341100D03*
X123383800Y-128473200D03*
X125383800Y-128473200D03*
X103267000Y-128854200D03*
X105267000Y-128854200D03*
X142700000Y-105600000D03*
X140700000Y-105600000D03*
X117986300Y-141884400D03*
X119986300Y-141884400D03*
X132432300Y-135001000D03*
X130432300Y-135001000D03*
X134737600Y-124498100D03*
X136737600Y-124498100D03*
X135800000Y-105600000D03*
X137800000Y-105600000D03*
X124520200Y-141846300D03*
X122520200Y-141846300D03*
X140100000Y-128200000D03*
X142100000Y-128200000D03*
X139982700Y-118021100D03*
X141982700Y-118021100D03*
X116233700Y-120256300D03*
X118233700Y-120256300D03*
X102263700Y-105664000D03*
X104263700Y-105664000D03*
X103216200Y-124612400D03*
X105216200Y-124612400D03*
D34*
X109899140Y-102900000D03*
X113500860Y-102900000D03*
X135099140Y-109500000D03*
X138700860Y-109500000D03*
X112328960Y-129870200D03*
X108727240Y-129870200D03*
X128120140Y-137299700D03*
X131721860Y-137299700D03*
X120855740Y-124282200D03*
X124457460Y-124282200D03*
D35*
X141147800Y-140332460D03*
X141147800Y-136730740D03*
D34*
X125803660Y-116509800D03*
X122201940Y-116509800D03*
X115432840Y-129921000D03*
X119034560Y-129921000D03*
X128099140Y-131800000D03*
X131700860Y-131800000D03*
X109679740Y-112547400D03*
X113281460Y-112547400D03*
X152097740Y-137744200D03*
X155699460Y-137744200D03*
X128900860Y-112200000D03*
X125299140Y-112200000D03*
X116105940Y-133997700D03*
X119707660Y-133997700D03*
X127447040Y-141706600D03*
X131048760Y-141706600D03*
X102999140Y-114300000D03*
X106600860Y-114300000D03*
X147876260Y-137795000D03*
X144274540Y-137795000D03*
X125199140Y-109600000D03*
X128800860Y-109600000D03*
X116220240Y-138252200D03*
X119821960Y-138252200D03*
X143012160Y-132435600D03*
X139410440Y-132435600D03*
X102499140Y-117500000D03*
X106100860Y-117500000D03*
X138584940Y-101955600D03*
X142186660Y-101955600D03*
X112608360Y-134061200D03*
X109006640Y-134061200D03*
X128120140Y-128295400D03*
X131721860Y-128295400D03*
X139626340Y-124167900D03*
X143228060Y-124167900D03*
X115318540Y-116395500D03*
X118920260Y-116395500D03*
D36*
X141050000Y-76500000D03*
X142950000Y-76500000D03*
X125150000Y-68300000D03*
X127050000Y-68300000D03*
X110950000Y-67800000D03*
X112850000Y-67800000D03*
X131550000Y-68300000D03*
X133450000Y-68300000D03*
D37*
X135400000Y-65050000D03*
X135400000Y-66950000D03*
D36*
X160644800Y-110261400D03*
X162544800Y-110261400D03*
X160721000Y-114604800D03*
X162621000Y-114604800D03*
X158892200Y-118922800D03*
X160792200Y-118922800D03*
X151424600Y-119075200D03*
X153324600Y-119075200D03*
X147250000Y-119100000D03*
X149150000Y-119100000D03*
D33*
X188450000Y-80650000D03*
X188450000Y-78650000D03*
X188650000Y-86650000D03*
X188650000Y-88650000D03*
M02*
