M48
;DRILL file {kicad (2014-10-27 BZR 5228)-product} date 07/01/2015 12:32:25
;FORMAT={-:-/ absolute / metric / decimal}
FMAT,2
METRIC,TZ
T1C0.635
T2C0.813
T3C1.001
T4C1.016
T5C1.500
T6C2.700
%
G90
G05
M71
T1
X103.886Y-140.538
X104.318Y-131.826
X108.179Y-143.497
X110.642Y-131.445
X111.Y-63.
X111.709Y-120.929
X114.3Y-120.244
X114.4Y-94.
X115.506Y-143.942
X120.015Y-128.054
X121.349Y-143.446
X121.488Y-122.149
X123.2Y-76.9
X125.311Y-94.259
X125.7Y-63.3
X126.517Y-92.608
X127.457Y-95.148
X127.457Y-143.662
X128.346Y-106.528
X129.134Y-133.439
X131.712Y-129.972
X132.486Y-146.355
X132.8Y-71.2
X133.502Y-128.359
X133.693Y-122.936
X134.048Y-90.462
X134.341Y-116.51
X134.772Y-96.266
X135.039Y-89.395
X135.064Y-135.179
X135.2Y-83.
X135.723Y-95.24
X136.677Y-114.998
X136.754Y-69.621
X137.135Y-135.319
X137.236Y-117.856
X137.312Y-85.319
X137.376Y-92.926
X138.43Y-82.982
X138.532Y-128.524
X138.887Y-98.044
X138.976Y-90.576
X139.04Y-95.555
X140.106Y-92.735
X140.183Y-90.348
X141.249Y-93.929
X142.1Y-120.193
X142.4Y-85.649
X143.218Y-109.88
X143.7Y-130.6
X143.764Y-107.213
X143.916Y-103.048
X143.993Y-101.702
X144.221Y-92.304
X144.247Y-98.73
X144.475Y-74.193
X144.78Y-127.127
X144.983Y-78.575
X145.136Y-93.193
X145.136Y-105.994
X145.136Y-108.102
X145.136Y-113.081
X145.161Y-87.782
X145.161Y-110.287
X145.669Y-115.519
X145.682Y-120.409
X146.025Y-88.849
X149.555Y-73.457
X149.606Y-76.073
X149.682Y-74.727
X149.9Y-132.639
X150.165Y-128.118
X150.19Y-129.362
X150.266Y-126.848
X150.317Y-125.501
X150.495Y-110.795
X150.597Y-72.314
X150.597Y-96.495
X150.825Y-87.782
X150.99Y-142.113
X151.638Y-99.289
X151.943Y-71.349
X152.133Y-102.756
X152.222Y-85.776
X152.4Y-73.495
X152.4Y-121.844
X153.391Y-70.333
X153.391Y-124.219
X153.695Y-97.765
X154.584Y-115.164
X154.61Y-90.068
X154.915Y-87.554
X154.965Y-123.114
X154.965Y-127.33
X154.965Y-133.198
X156.032Y-100.051
X156.642Y-82.448
X157.099Y-117.5
X158.699Y-83.363
X159.461Y-107.34
X159.766Y-121.488
X161.493Y-117.183
X162.052Y-116.015
X163.22Y-119.253
X164.173Y-120.193
X165.468Y-136.512
X165.862Y-90.106
X166.37Y-127.356
X175.971Y-74.041
X180.975Y-56.
X182.27Y-118.516
X184.023Y-109.982
X186.792Y-91.745
X188.417Y-76.937
X188.874Y-128.905
X189.662Y-144.907
X193.573Y-75.946
X193.575Y-56.225
X195.25Y-98.806
X197.155Y-116.408
X198.125Y-56.075
T2
X105.7Y-75.93
X105.7Y-78.47
X112.42Y-90.69
X112.42Y-98.31
X114.96Y-90.69
X114.96Y-98.31
X116.2Y-65.82
X116.2Y-68.36
X116.2Y-70.9
X117.5Y-90.69
X117.5Y-98.31
X120.04Y-90.69
X120.04Y-98.31
X122.58Y-90.69
X122.58Y-98.31
X164.73Y-54.5
X167.27Y-54.5
X168.69Y-78.12
X168.69Y-80.66
X168.69Y-83.2
X168.69Y-85.74
X168.69Y-88.28
X168.79Y-59.82
X168.79Y-62.36
X168.79Y-64.9
X168.79Y-67.44
X168.79Y-69.98
X168.79Y-97.32
X168.79Y-99.86
X168.79Y-102.4
X168.79Y-104.94
X168.79Y-107.48
X168.89Y-115.32
X168.89Y-117.86
X168.89Y-120.4
X168.89Y-122.94
X168.89Y-125.48
X169.19Y-133.62
X169.19Y-136.16
X169.19Y-138.7
X169.19Y-141.24
X169.19Y-143.78
X176.31Y-78.12
X176.31Y-80.66
X176.31Y-83.2
X176.31Y-85.74
X176.31Y-88.28
X176.41Y-59.82
X176.41Y-62.36
X176.41Y-64.9
X176.41Y-67.44
X176.41Y-69.98
X176.41Y-97.32
X176.41Y-99.86
X176.41Y-102.4
X176.41Y-104.94
X176.41Y-107.48
X176.51Y-115.32
X176.51Y-117.86
X176.51Y-120.4
X176.51Y-122.94
X176.51Y-125.48
X176.81Y-133.62
X176.81Y-136.16
X176.81Y-138.7
X176.81Y-141.24
X176.81Y-143.78
T3
X106.35Y-107.569
X111.351Y-107.569
X117.414Y-107.569
X118.704Y-80.104
X118.704Y-85.692
X122.415Y-107.569
X127.66Y-55.9
X130.2Y-55.9
X132.74Y-55.9
X132.804Y-80.004
X132.804Y-85.592
X164.7Y-66.641
X164.7Y-76.801
X180.404Y-64.196
X180.604Y-84.096
X180.704Y-139.396
X180.804Y-103.296
X181.004Y-122.296
X185.992Y-64.196
X186.192Y-84.096
X186.292Y-139.396
X186.392Y-103.296
X186.592Y-122.296
X190.704Y-64.196
X190.804Y-83.796
X190.904Y-139.296
X191.104Y-103.296
X191.204Y-122.396
X196.292Y-64.196
X196.392Y-83.796
X196.492Y-139.296
X196.692Y-103.296
X196.792Y-122.396
T4
X102.5Y-62.19
X102.5Y-64.73
X102.5Y-67.27
X102.5Y-69.81
X102.6Y-56.13
X102.6Y-58.67
X102.832Y-120.282
X103.23Y-95.93
X103.23Y-98.47
X103.33Y-88.1
X103.33Y-92.
X105.372Y-120.282
X105.77Y-95.93
X105.77Y-98.47
X105.87Y-88.1
X105.87Y-92.
X129.33Y-91.15
X129.33Y-93.69
X129.33Y-96.23
X129.33Y-98.77
X129.33Y-101.31
X129.33Y-103.85
X131.87Y-91.15
X131.87Y-93.69
X131.87Y-96.23
X131.87Y-98.77
X131.87Y-101.31
X131.87Y-103.85
X137.9Y-57.3
X137.9Y-65.3
X142.8Y-69.4
X160.604Y-123.622
X160.604Y-126.162
X160.604Y-128.702
X160.604Y-131.242
X160.604Y-133.782
X162.789Y-88.798
X162.789Y-91.338
X162.789Y-93.878
X162.789Y-96.418
X162.789Y-98.958
X162.789Y-101.498
X162.789Y-104.038
X162.789Y-106.578
X163.144Y-123.622
X163.144Y-126.162
X163.144Y-128.702
X163.144Y-131.242
X163.144Y-133.782
T5
X137.9Y-53.3
X137.9Y-61.3
T6
X130.175Y-63.602
T0
M30
