%FSLAX46Y46*%
G04 Gerber Fmt 4.6, Leading zero omitted, Abs format (unit mm)*
G04 Created by KiCad (PCBNEW (2014-10-27 BZR 5228)-product) date 22/01/2015 08:27:09*
%MOMM*%
G01*
G04 APERTURE LIST*
%ADD10C,0.100000*%
%ADD11C,0.150000*%
G04 APERTURE END LIST*
D10*
D11*
X121353200Y-67982200D02*
X120353200Y-67982200D01*
X120353200Y-66282200D02*
X121353200Y-66282200D01*
X147839800Y-62479300D02*
X147839800Y-63479300D01*
X146139800Y-63479300D02*
X146139800Y-62479300D01*
X152411800Y-62479300D02*
X152411800Y-63479300D01*
X150711800Y-63479300D02*
X150711800Y-62479300D01*
X150163900Y-62479300D02*
X150163900Y-63479300D01*
X148463900Y-63479300D02*
X148463900Y-62479300D01*
X154659700Y-62555500D02*
X154659700Y-63555500D01*
X152959700Y-63555500D02*
X152959700Y-62555500D01*
X138200000Y-71850000D02*
X139200000Y-71850000D01*
X139200000Y-73550000D02*
X138200000Y-73550000D01*
X137231500Y-75578600D02*
X138231500Y-75578600D01*
X138231500Y-77278600D02*
X137231500Y-77278600D01*
X151722200Y-73711700D02*
X152722200Y-73711700D01*
X152722200Y-75411700D02*
X151722200Y-75411700D01*
X195550000Y-68500000D02*
X195550000Y-67500000D01*
X197250000Y-67500000D02*
X197250000Y-68500000D01*
X193350000Y-85100000D02*
X193350000Y-84100000D01*
X195050000Y-84100000D02*
X195050000Y-85100000D01*
X195450000Y-91700000D02*
X195450000Y-92700000D01*
X193750000Y-92700000D02*
X193750000Y-91700000D01*
X196550000Y-107400000D02*
X196550000Y-108400000D01*
X194850000Y-108400000D02*
X194850000Y-107400000D01*
X192850000Y-107500000D02*
X192850000Y-108500000D01*
X191150000Y-108500000D02*
X191150000Y-107500000D01*
X183200000Y-122350000D02*
X182200000Y-122350000D01*
X182200000Y-120650000D02*
X183200000Y-120650000D01*
X192900000Y-60750000D02*
X193900000Y-60750000D01*
X193900000Y-62450000D02*
X192900000Y-62450000D01*
X184050000Y-82100000D02*
X184050000Y-83100000D01*
X182350000Y-83100000D02*
X182350000Y-82100000D01*
X192500000Y-98950000D02*
X193500000Y-98950000D01*
X193500000Y-100650000D02*
X192500000Y-100650000D01*
X183600000Y-124650000D02*
X184600000Y-124650000D01*
X184600000Y-126350000D02*
X183600000Y-126350000D01*
X192700000Y-114550000D02*
X193700000Y-114550000D01*
X193700000Y-116250000D02*
X192700000Y-116250000D01*
X188000000Y-122350000D02*
X187000000Y-122350000D01*
X187000000Y-120650000D02*
X188000000Y-120650000D01*
X189050000Y-60300000D02*
X189050000Y-61300000D01*
X187350000Y-61300000D02*
X187350000Y-60300000D01*
X195250000Y-74700000D02*
X195250000Y-75700000D01*
X193550000Y-75700000D02*
X193550000Y-74700000D01*
X189250000Y-91500000D02*
X189250000Y-92500000D01*
X187550000Y-92500000D02*
X187550000Y-91500000D01*
X196750000Y-122600000D02*
X196750000Y-123600000D01*
X195050000Y-123600000D02*
X195050000Y-122600000D01*
X188850000Y-107500000D02*
X188850000Y-108500000D01*
X187150000Y-108500000D02*
X187150000Y-107500000D01*
X182700000Y-66750000D02*
X183700000Y-66750000D01*
X183700000Y-68450000D02*
X182700000Y-68450000D01*
X189350000Y-75700000D02*
X189350000Y-74700000D01*
X191050000Y-74700000D02*
X191050000Y-75700000D01*
X182500000Y-98750000D02*
X183500000Y-98750000D01*
X183500000Y-100450000D02*
X182500000Y-100450000D01*
X193806700Y-132510900D02*
X192806700Y-132510900D01*
X192806700Y-130810900D02*
X193806700Y-130810900D01*
X182800000Y-114750000D02*
X183800000Y-114750000D01*
X183800000Y-116450000D02*
X182800000Y-116450000D01*
X192550000Y-122500000D02*
X192550000Y-123500000D01*
X190850000Y-123500000D02*
X190850000Y-122500000D01*
X184050000Y-60300000D02*
X184050000Y-61300000D01*
X182350000Y-61300000D02*
X182350000Y-60300000D01*
X183650000Y-74700000D02*
X183650000Y-75700000D01*
X181950000Y-75700000D02*
X181950000Y-74700000D01*
X183650000Y-91500000D02*
X183650000Y-92500000D01*
X181950000Y-92500000D02*
X181950000Y-91500000D01*
X181450000Y-107600000D02*
X181450000Y-108600000D01*
X179750000Y-108600000D02*
X179750000Y-107600000D01*
X185350000Y-107700000D02*
X185350000Y-108700000D01*
X183650000Y-108700000D02*
X183650000Y-107700000D01*
X189750000Y-85100000D02*
X189750000Y-84100000D01*
X191450000Y-84100000D02*
X191450000Y-85100000D01*
X187650000Y-74700000D02*
X187650000Y-75700000D01*
X185950000Y-75700000D02*
X185950000Y-74700000D01*
X141775180Y-60741560D02*
X145575020Y-60741560D01*
X141775180Y-66240660D02*
X141775180Y-61241940D01*
X145575020Y-66238120D02*
X145575020Y-61239400D01*
X140672820Y-60139580D02*
X141772640Y-60139580D01*
X141173200Y-59540140D02*
X141173200Y-60739020D01*
X161500000Y-122500000D02*
X162400000Y-122500000D01*
X162400000Y-122500000D02*
X162400000Y-121700000D01*
X161500000Y-119500000D02*
X162400000Y-119500000D01*
X162400000Y-119500000D02*
X162400000Y-120300000D01*
X161000000Y-120700000D02*
X161000000Y-121300000D01*
X153525000Y-116900000D02*
X153525000Y-118100000D01*
X155275000Y-118100000D02*
X155275000Y-116900000D01*
X160100000Y-119275000D02*
X161300000Y-119275000D01*
X161300000Y-117525000D02*
X160100000Y-117525000D01*
X121030266Y-69010243D02*
X121077885Y-69057862D01*
X121220742Y-69105481D01*
X121315980Y-69105481D01*
X121458838Y-69057862D01*
X121554076Y-68962624D01*
X121601695Y-68867386D01*
X121649314Y-68676910D01*
X121649314Y-68534052D01*
X121601695Y-68343576D01*
X121554076Y-68248338D01*
X121458838Y-68153100D01*
X121315980Y-68105481D01*
X121220742Y-68105481D01*
X121077885Y-68153100D01*
X121030266Y-68200719D01*
X120173123Y-68438814D02*
X120173123Y-69105481D01*
X120411219Y-68057862D02*
X120649314Y-68772148D01*
X120030266Y-68772148D01*
X147357143Y-59533334D02*
X147404762Y-59485715D01*
X147452381Y-59342858D01*
X147452381Y-59247620D01*
X147404762Y-59104762D01*
X147309524Y-59009524D01*
X147214286Y-58961905D01*
X147023810Y-58914286D01*
X146880952Y-58914286D01*
X146690476Y-58961905D01*
X146595238Y-59009524D01*
X146500000Y-59104762D01*
X146452381Y-59247620D01*
X146452381Y-59342858D01*
X146500000Y-59485715D01*
X146547619Y-59533334D01*
X146452381Y-59866667D02*
X146452381Y-60533334D01*
X147452381Y-60104762D01*
X152057143Y-59433334D02*
X152104762Y-59385715D01*
X152152381Y-59242858D01*
X152152381Y-59147620D01*
X152104762Y-59004762D01*
X152009524Y-58909524D01*
X151914286Y-58861905D01*
X151723810Y-58814286D01*
X151580952Y-58814286D01*
X151390476Y-58861905D01*
X151295238Y-58909524D01*
X151200000Y-59004762D01*
X151152381Y-59147620D01*
X151152381Y-59242858D01*
X151200000Y-59385715D01*
X151247619Y-59433334D01*
X151580952Y-60004762D02*
X151533333Y-59909524D01*
X151485714Y-59861905D01*
X151390476Y-59814286D01*
X151342857Y-59814286D01*
X151247619Y-59861905D01*
X151200000Y-59909524D01*
X151152381Y-60004762D01*
X151152381Y-60195239D01*
X151200000Y-60290477D01*
X151247619Y-60338096D01*
X151342857Y-60385715D01*
X151390476Y-60385715D01*
X151485714Y-60338096D01*
X151533333Y-60290477D01*
X151580952Y-60195239D01*
X151580952Y-60004762D01*
X151628571Y-59909524D01*
X151676190Y-59861905D01*
X151771429Y-59814286D01*
X151961905Y-59814286D01*
X152057143Y-59861905D01*
X152104762Y-59909524D01*
X152152381Y-60004762D01*
X152152381Y-60195239D01*
X152104762Y-60290477D01*
X152057143Y-60338096D01*
X151961905Y-60385715D01*
X151771429Y-60385715D01*
X151676190Y-60338096D01*
X151628571Y-60290477D01*
X151580952Y-60195239D01*
X149657143Y-59433334D02*
X149704762Y-59385715D01*
X149752381Y-59242858D01*
X149752381Y-59147620D01*
X149704762Y-59004762D01*
X149609524Y-58909524D01*
X149514286Y-58861905D01*
X149323810Y-58814286D01*
X149180952Y-58814286D01*
X148990476Y-58861905D01*
X148895238Y-58909524D01*
X148800000Y-59004762D01*
X148752381Y-59147620D01*
X148752381Y-59242858D01*
X148800000Y-59385715D01*
X148847619Y-59433334D01*
X149752381Y-59909524D02*
X149752381Y-60100000D01*
X149704762Y-60195239D01*
X149657143Y-60242858D01*
X149514286Y-60338096D01*
X149323810Y-60385715D01*
X148942857Y-60385715D01*
X148847619Y-60338096D01*
X148800000Y-60290477D01*
X148752381Y-60195239D01*
X148752381Y-60004762D01*
X148800000Y-59909524D01*
X148847619Y-59861905D01*
X148942857Y-59814286D01*
X149180952Y-59814286D01*
X149276190Y-59861905D01*
X149323810Y-59909524D01*
X149371429Y-60004762D01*
X149371429Y-60195239D01*
X149323810Y-60290477D01*
X149276190Y-60338096D01*
X149180952Y-60385715D01*
X154057143Y-59057143D02*
X154104762Y-59009524D01*
X154152381Y-58866667D01*
X154152381Y-58771429D01*
X154104762Y-58628571D01*
X154009524Y-58533333D01*
X153914286Y-58485714D01*
X153723810Y-58438095D01*
X153580952Y-58438095D01*
X153390476Y-58485714D01*
X153295238Y-58533333D01*
X153200000Y-58628571D01*
X153152381Y-58771429D01*
X153152381Y-58866667D01*
X153200000Y-59009524D01*
X153247619Y-59057143D01*
X154152381Y-60009524D02*
X154152381Y-59438095D01*
X154152381Y-59723809D02*
X153152381Y-59723809D01*
X153295238Y-59628571D01*
X153390476Y-59533333D01*
X153438095Y-59438095D01*
X154152381Y-60961905D02*
X154152381Y-60390476D01*
X154152381Y-60676190D02*
X153152381Y-60676190D01*
X153295238Y-60580952D01*
X153390476Y-60485714D01*
X153438095Y-60390476D01*
X139429957Y-71452943D02*
X139477576Y-71500562D01*
X139620433Y-71548181D01*
X139715671Y-71548181D01*
X139858529Y-71500562D01*
X139953767Y-71405324D01*
X140001386Y-71310086D01*
X140049005Y-71119610D01*
X140049005Y-70976752D01*
X140001386Y-70786276D01*
X139953767Y-70691038D01*
X139858529Y-70595800D01*
X139715671Y-70548181D01*
X139620433Y-70548181D01*
X139477576Y-70595800D01*
X139429957Y-70643419D01*
X138477576Y-71548181D02*
X139049005Y-71548181D01*
X138763291Y-71548181D02*
X138763291Y-70548181D01*
X138858529Y-70691038D01*
X138953767Y-70786276D01*
X139049005Y-70833895D01*
X138096624Y-70643419D02*
X138049005Y-70595800D01*
X137953767Y-70548181D01*
X137715671Y-70548181D01*
X137620433Y-70595800D01*
X137572814Y-70643419D01*
X137525195Y-70738657D01*
X137525195Y-70833895D01*
X137572814Y-70976752D01*
X138144243Y-71548181D01*
X137525195Y-71548181D01*
X138374357Y-74685743D02*
X138421976Y-74733362D01*
X138564833Y-74780981D01*
X138660071Y-74780981D01*
X138802929Y-74733362D01*
X138898167Y-74638124D01*
X138945786Y-74542886D01*
X138993405Y-74352410D01*
X138993405Y-74209552D01*
X138945786Y-74019076D01*
X138898167Y-73923838D01*
X138802929Y-73828600D01*
X138660071Y-73780981D01*
X138564833Y-73780981D01*
X138421976Y-73828600D01*
X138374357Y-73876219D01*
X137421976Y-74780981D02*
X137993405Y-74780981D01*
X137707691Y-74780981D02*
X137707691Y-73780981D01*
X137802929Y-73923838D01*
X137898167Y-74019076D01*
X137993405Y-74066695D01*
X137088643Y-73780981D02*
X136469595Y-73780981D01*
X136802929Y-74161933D01*
X136660071Y-74161933D01*
X136564833Y-74209552D01*
X136517214Y-74257171D01*
X136469595Y-74352410D01*
X136469595Y-74590505D01*
X136517214Y-74685743D01*
X136564833Y-74733362D01*
X136660071Y-74780981D01*
X136945786Y-74780981D01*
X137041024Y-74733362D01*
X137088643Y-74685743D01*
X152738657Y-73288343D02*
X152786276Y-73335962D01*
X152929133Y-73383581D01*
X153024371Y-73383581D01*
X153167229Y-73335962D01*
X153262467Y-73240724D01*
X153310086Y-73145486D01*
X153357705Y-72955010D01*
X153357705Y-72812152D01*
X153310086Y-72621676D01*
X153262467Y-72526438D01*
X153167229Y-72431200D01*
X153024371Y-72383581D01*
X152929133Y-72383581D01*
X152786276Y-72431200D01*
X152738657Y-72478819D01*
X151786276Y-73383581D02*
X152357705Y-73383581D01*
X152071991Y-73383581D02*
X152071991Y-72383581D01*
X152167229Y-72526438D01*
X152262467Y-72621676D01*
X152357705Y-72669295D01*
X150929133Y-72716914D02*
X150929133Y-73383581D01*
X151167229Y-72335962D02*
X151405324Y-73050248D01*
X150786276Y-73050248D01*
X194657143Y-67357143D02*
X194704762Y-67309524D01*
X194752381Y-67166667D01*
X194752381Y-67071429D01*
X194704762Y-66928571D01*
X194609524Y-66833333D01*
X194514286Y-66785714D01*
X194323810Y-66738095D01*
X194180952Y-66738095D01*
X193990476Y-66785714D01*
X193895238Y-66833333D01*
X193800000Y-66928571D01*
X193752381Y-67071429D01*
X193752381Y-67166667D01*
X193800000Y-67309524D01*
X193847619Y-67357143D01*
X194752381Y-68309524D02*
X194752381Y-67738095D01*
X194752381Y-68023809D02*
X193752381Y-68023809D01*
X193895238Y-67928571D01*
X193990476Y-67833333D01*
X194038095Y-67738095D01*
X193752381Y-69214286D02*
X193752381Y-68738095D01*
X194228571Y-68690476D01*
X194180952Y-68738095D01*
X194133333Y-68833333D01*
X194133333Y-69071429D01*
X194180952Y-69166667D01*
X194228571Y-69214286D01*
X194323810Y-69261905D01*
X194561905Y-69261905D01*
X194657143Y-69214286D01*
X194704762Y-69166667D01*
X194752381Y-69071429D01*
X194752381Y-68833333D01*
X194704762Y-68738095D01*
X194657143Y-68690476D01*
X192457143Y-83957143D02*
X192504762Y-83909524D01*
X192552381Y-83766667D01*
X192552381Y-83671429D01*
X192504762Y-83528571D01*
X192409524Y-83433333D01*
X192314286Y-83385714D01*
X192123810Y-83338095D01*
X191980952Y-83338095D01*
X191790476Y-83385714D01*
X191695238Y-83433333D01*
X191600000Y-83528571D01*
X191552381Y-83671429D01*
X191552381Y-83766667D01*
X191600000Y-83909524D01*
X191647619Y-83957143D01*
X192552381Y-84909524D02*
X192552381Y-84338095D01*
X192552381Y-84623809D02*
X191552381Y-84623809D01*
X191695238Y-84528571D01*
X191790476Y-84433333D01*
X191838095Y-84338095D01*
X191552381Y-85766667D02*
X191552381Y-85576190D01*
X191600000Y-85480952D01*
X191647619Y-85433333D01*
X191790476Y-85338095D01*
X191980952Y-85290476D01*
X192361905Y-85290476D01*
X192457143Y-85338095D01*
X192504762Y-85385714D01*
X192552381Y-85480952D01*
X192552381Y-85671429D01*
X192504762Y-85766667D01*
X192457143Y-85814286D01*
X192361905Y-85861905D01*
X192123810Y-85861905D01*
X192028571Y-85814286D01*
X191980952Y-85766667D01*
X191933333Y-85671429D01*
X191933333Y-85480952D01*
X191980952Y-85385714D01*
X192028571Y-85338095D01*
X192123810Y-85290476D01*
X197057143Y-91557143D02*
X197104762Y-91509524D01*
X197152381Y-91366667D01*
X197152381Y-91271429D01*
X197104762Y-91128571D01*
X197009524Y-91033333D01*
X196914286Y-90985714D01*
X196723810Y-90938095D01*
X196580952Y-90938095D01*
X196390476Y-90985714D01*
X196295238Y-91033333D01*
X196200000Y-91128571D01*
X196152381Y-91271429D01*
X196152381Y-91366667D01*
X196200000Y-91509524D01*
X196247619Y-91557143D01*
X197152381Y-92509524D02*
X197152381Y-91938095D01*
X197152381Y-92223809D02*
X196152381Y-92223809D01*
X196295238Y-92128571D01*
X196390476Y-92033333D01*
X196438095Y-91938095D01*
X196152381Y-92842857D02*
X196152381Y-93509524D01*
X197152381Y-93080952D01*
X198157143Y-107257143D02*
X198204762Y-107209524D01*
X198252381Y-107066667D01*
X198252381Y-106971429D01*
X198204762Y-106828571D01*
X198109524Y-106733333D01*
X198014286Y-106685714D01*
X197823810Y-106638095D01*
X197680952Y-106638095D01*
X197490476Y-106685714D01*
X197395238Y-106733333D01*
X197300000Y-106828571D01*
X197252381Y-106971429D01*
X197252381Y-107066667D01*
X197300000Y-107209524D01*
X197347619Y-107257143D01*
X198252381Y-108209524D02*
X198252381Y-107638095D01*
X198252381Y-107923809D02*
X197252381Y-107923809D01*
X197395238Y-107828571D01*
X197490476Y-107733333D01*
X197538095Y-107638095D01*
X197680952Y-108780952D02*
X197633333Y-108685714D01*
X197585714Y-108638095D01*
X197490476Y-108590476D01*
X197442857Y-108590476D01*
X197347619Y-108638095D01*
X197300000Y-108685714D01*
X197252381Y-108780952D01*
X197252381Y-108971429D01*
X197300000Y-109066667D01*
X197347619Y-109114286D01*
X197442857Y-109161905D01*
X197490476Y-109161905D01*
X197585714Y-109114286D01*
X197633333Y-109066667D01*
X197680952Y-108971429D01*
X197680952Y-108780952D01*
X197728571Y-108685714D01*
X197776190Y-108638095D01*
X197871429Y-108590476D01*
X198061905Y-108590476D01*
X198157143Y-108638095D01*
X198204762Y-108685714D01*
X198252381Y-108780952D01*
X198252381Y-108971429D01*
X198204762Y-109066667D01*
X198157143Y-109114286D01*
X198061905Y-109161905D01*
X197871429Y-109161905D01*
X197776190Y-109114286D01*
X197728571Y-109066667D01*
X197680952Y-108971429D01*
X194457143Y-107357143D02*
X194504762Y-107309524D01*
X194552381Y-107166667D01*
X194552381Y-107071429D01*
X194504762Y-106928571D01*
X194409524Y-106833333D01*
X194314286Y-106785714D01*
X194123810Y-106738095D01*
X193980952Y-106738095D01*
X193790476Y-106785714D01*
X193695238Y-106833333D01*
X193600000Y-106928571D01*
X193552381Y-107071429D01*
X193552381Y-107166667D01*
X193600000Y-107309524D01*
X193647619Y-107357143D01*
X194552381Y-108309524D02*
X194552381Y-107738095D01*
X194552381Y-108023809D02*
X193552381Y-108023809D01*
X193695238Y-107928571D01*
X193790476Y-107833333D01*
X193838095Y-107738095D01*
X194552381Y-108785714D02*
X194552381Y-108976190D01*
X194504762Y-109071429D01*
X194457143Y-109119048D01*
X194314286Y-109214286D01*
X194123810Y-109261905D01*
X193742857Y-109261905D01*
X193647619Y-109214286D01*
X193600000Y-109166667D01*
X193552381Y-109071429D01*
X193552381Y-108880952D01*
X193600000Y-108785714D01*
X193647619Y-108738095D01*
X193742857Y-108690476D01*
X193980952Y-108690476D01*
X194076190Y-108738095D01*
X194123810Y-108785714D01*
X194171429Y-108880952D01*
X194171429Y-109071429D01*
X194123810Y-109166667D01*
X194076190Y-109214286D01*
X193980952Y-109261905D01*
X183342857Y-120257143D02*
X183390476Y-120304762D01*
X183533333Y-120352381D01*
X183628571Y-120352381D01*
X183771429Y-120304762D01*
X183866667Y-120209524D01*
X183914286Y-120114286D01*
X183961905Y-119923810D01*
X183961905Y-119780952D01*
X183914286Y-119590476D01*
X183866667Y-119495238D01*
X183771429Y-119400000D01*
X183628571Y-119352381D01*
X183533333Y-119352381D01*
X183390476Y-119400000D01*
X183342857Y-119447619D01*
X182961905Y-119447619D02*
X182914286Y-119400000D01*
X182819048Y-119352381D01*
X182580952Y-119352381D01*
X182485714Y-119400000D01*
X182438095Y-119447619D01*
X182390476Y-119542857D01*
X182390476Y-119638095D01*
X182438095Y-119780952D01*
X183009524Y-120352381D01*
X182390476Y-120352381D01*
X181771429Y-119352381D02*
X181676190Y-119352381D01*
X181580952Y-119400000D01*
X181533333Y-119447619D01*
X181485714Y-119542857D01*
X181438095Y-119733333D01*
X181438095Y-119971429D01*
X181485714Y-120161905D01*
X181533333Y-120257143D01*
X181580952Y-120304762D01*
X181676190Y-120352381D01*
X181771429Y-120352381D01*
X181866667Y-120304762D01*
X181914286Y-120257143D01*
X181961905Y-120161905D01*
X182009524Y-119971429D01*
X182009524Y-119733333D01*
X181961905Y-119542857D01*
X181914286Y-119447619D01*
X181866667Y-119400000D01*
X181771429Y-119352381D01*
X194042857Y-59857143D02*
X194090476Y-59904762D01*
X194233333Y-59952381D01*
X194328571Y-59952381D01*
X194471429Y-59904762D01*
X194566667Y-59809524D01*
X194614286Y-59714286D01*
X194661905Y-59523810D01*
X194661905Y-59380952D01*
X194614286Y-59190476D01*
X194566667Y-59095238D01*
X194471429Y-59000000D01*
X194328571Y-58952381D01*
X194233333Y-58952381D01*
X194090476Y-59000000D01*
X194042857Y-59047619D01*
X193661905Y-59047619D02*
X193614286Y-59000000D01*
X193519048Y-58952381D01*
X193280952Y-58952381D01*
X193185714Y-59000000D01*
X193138095Y-59047619D01*
X193090476Y-59142857D01*
X193090476Y-59238095D01*
X193138095Y-59380952D01*
X193709524Y-59952381D01*
X193090476Y-59952381D01*
X192138095Y-59952381D02*
X192709524Y-59952381D01*
X192423810Y-59952381D02*
X192423810Y-58952381D01*
X192519048Y-59095238D01*
X192614286Y-59190476D01*
X192709524Y-59238095D01*
X185657143Y-81957143D02*
X185704762Y-81909524D01*
X185752381Y-81766667D01*
X185752381Y-81671429D01*
X185704762Y-81528571D01*
X185609524Y-81433333D01*
X185514286Y-81385714D01*
X185323810Y-81338095D01*
X185180952Y-81338095D01*
X184990476Y-81385714D01*
X184895238Y-81433333D01*
X184800000Y-81528571D01*
X184752381Y-81671429D01*
X184752381Y-81766667D01*
X184800000Y-81909524D01*
X184847619Y-81957143D01*
X184847619Y-82338095D02*
X184800000Y-82385714D01*
X184752381Y-82480952D01*
X184752381Y-82719048D01*
X184800000Y-82814286D01*
X184847619Y-82861905D01*
X184942857Y-82909524D01*
X185038095Y-82909524D01*
X185180952Y-82861905D01*
X185752381Y-82290476D01*
X185752381Y-82909524D01*
X184847619Y-83290476D02*
X184800000Y-83338095D01*
X184752381Y-83433333D01*
X184752381Y-83671429D01*
X184800000Y-83766667D01*
X184847619Y-83814286D01*
X184942857Y-83861905D01*
X185038095Y-83861905D01*
X185180952Y-83814286D01*
X185752381Y-83242857D01*
X185752381Y-83861905D01*
X193642857Y-98057143D02*
X193690476Y-98104762D01*
X193833333Y-98152381D01*
X193928571Y-98152381D01*
X194071429Y-98104762D01*
X194166667Y-98009524D01*
X194214286Y-97914286D01*
X194261905Y-97723810D01*
X194261905Y-97580952D01*
X194214286Y-97390476D01*
X194166667Y-97295238D01*
X194071429Y-97200000D01*
X193928571Y-97152381D01*
X193833333Y-97152381D01*
X193690476Y-97200000D01*
X193642857Y-97247619D01*
X193261905Y-97247619D02*
X193214286Y-97200000D01*
X193119048Y-97152381D01*
X192880952Y-97152381D01*
X192785714Y-97200000D01*
X192738095Y-97247619D01*
X192690476Y-97342857D01*
X192690476Y-97438095D01*
X192738095Y-97580952D01*
X193309524Y-98152381D01*
X192690476Y-98152381D01*
X192357143Y-97152381D02*
X191738095Y-97152381D01*
X192071429Y-97533333D01*
X191928571Y-97533333D01*
X191833333Y-97580952D01*
X191785714Y-97628571D01*
X191738095Y-97723810D01*
X191738095Y-97961905D01*
X191785714Y-98057143D01*
X191833333Y-98104762D01*
X191928571Y-98152381D01*
X192214286Y-98152381D01*
X192309524Y-98104762D01*
X192357143Y-98057143D01*
X184742857Y-123757143D02*
X184790476Y-123804762D01*
X184933333Y-123852381D01*
X185028571Y-123852381D01*
X185171429Y-123804762D01*
X185266667Y-123709524D01*
X185314286Y-123614286D01*
X185361905Y-123423810D01*
X185361905Y-123280952D01*
X185314286Y-123090476D01*
X185266667Y-122995238D01*
X185171429Y-122900000D01*
X185028571Y-122852381D01*
X184933333Y-122852381D01*
X184790476Y-122900000D01*
X184742857Y-122947619D01*
X184361905Y-122947619D02*
X184314286Y-122900000D01*
X184219048Y-122852381D01*
X183980952Y-122852381D01*
X183885714Y-122900000D01*
X183838095Y-122947619D01*
X183790476Y-123042857D01*
X183790476Y-123138095D01*
X183838095Y-123280952D01*
X184409524Y-123852381D01*
X183790476Y-123852381D01*
X182933333Y-123185714D02*
X182933333Y-123852381D01*
X183171429Y-122804762D02*
X183409524Y-123519048D01*
X182790476Y-123519048D01*
X193842857Y-113657143D02*
X193890476Y-113704762D01*
X194033333Y-113752381D01*
X194128571Y-113752381D01*
X194271429Y-113704762D01*
X194366667Y-113609524D01*
X194414286Y-113514286D01*
X194461905Y-113323810D01*
X194461905Y-113180952D01*
X194414286Y-112990476D01*
X194366667Y-112895238D01*
X194271429Y-112800000D01*
X194128571Y-112752381D01*
X194033333Y-112752381D01*
X193890476Y-112800000D01*
X193842857Y-112847619D01*
X193461905Y-112847619D02*
X193414286Y-112800000D01*
X193319048Y-112752381D01*
X193080952Y-112752381D01*
X192985714Y-112800000D01*
X192938095Y-112847619D01*
X192890476Y-112942857D01*
X192890476Y-113038095D01*
X192938095Y-113180952D01*
X193509524Y-113752381D01*
X192890476Y-113752381D01*
X191985714Y-112752381D02*
X192461905Y-112752381D01*
X192509524Y-113228571D01*
X192461905Y-113180952D01*
X192366667Y-113133333D01*
X192128571Y-113133333D01*
X192033333Y-113180952D01*
X191985714Y-113228571D01*
X191938095Y-113323810D01*
X191938095Y-113561905D01*
X191985714Y-113657143D01*
X192033333Y-113704762D01*
X192128571Y-113752381D01*
X192366667Y-113752381D01*
X192461905Y-113704762D01*
X192509524Y-113657143D01*
X188042857Y-120257143D02*
X188090476Y-120304762D01*
X188233333Y-120352381D01*
X188328571Y-120352381D01*
X188471429Y-120304762D01*
X188566667Y-120209524D01*
X188614286Y-120114286D01*
X188661905Y-119923810D01*
X188661905Y-119780952D01*
X188614286Y-119590476D01*
X188566667Y-119495238D01*
X188471429Y-119400000D01*
X188328571Y-119352381D01*
X188233333Y-119352381D01*
X188090476Y-119400000D01*
X188042857Y-119447619D01*
X187661905Y-119447619D02*
X187614286Y-119400000D01*
X187519048Y-119352381D01*
X187280952Y-119352381D01*
X187185714Y-119400000D01*
X187138095Y-119447619D01*
X187090476Y-119542857D01*
X187090476Y-119638095D01*
X187138095Y-119780952D01*
X187709524Y-120352381D01*
X187090476Y-120352381D01*
X186233333Y-119352381D02*
X186423810Y-119352381D01*
X186519048Y-119400000D01*
X186566667Y-119447619D01*
X186661905Y-119590476D01*
X186709524Y-119780952D01*
X186709524Y-120161905D01*
X186661905Y-120257143D01*
X186614286Y-120304762D01*
X186519048Y-120352381D01*
X186328571Y-120352381D01*
X186233333Y-120304762D01*
X186185714Y-120257143D01*
X186138095Y-120161905D01*
X186138095Y-119923810D01*
X186185714Y-119828571D01*
X186233333Y-119780952D01*
X186328571Y-119733333D01*
X186519048Y-119733333D01*
X186614286Y-119780952D01*
X186661905Y-119828571D01*
X186709524Y-119923810D01*
X190657143Y-60157143D02*
X190704762Y-60109524D01*
X190752381Y-59966667D01*
X190752381Y-59871429D01*
X190704762Y-59728571D01*
X190609524Y-59633333D01*
X190514286Y-59585714D01*
X190323810Y-59538095D01*
X190180952Y-59538095D01*
X189990476Y-59585714D01*
X189895238Y-59633333D01*
X189800000Y-59728571D01*
X189752381Y-59871429D01*
X189752381Y-59966667D01*
X189800000Y-60109524D01*
X189847619Y-60157143D01*
X189847619Y-60538095D02*
X189800000Y-60585714D01*
X189752381Y-60680952D01*
X189752381Y-60919048D01*
X189800000Y-61014286D01*
X189847619Y-61061905D01*
X189942857Y-61109524D01*
X190038095Y-61109524D01*
X190180952Y-61061905D01*
X190752381Y-60490476D01*
X190752381Y-61109524D01*
X189752381Y-61442857D02*
X189752381Y-62109524D01*
X190752381Y-61680952D01*
X196857143Y-74557143D02*
X196904762Y-74509524D01*
X196952381Y-74366667D01*
X196952381Y-74271429D01*
X196904762Y-74128571D01*
X196809524Y-74033333D01*
X196714286Y-73985714D01*
X196523810Y-73938095D01*
X196380952Y-73938095D01*
X196190476Y-73985714D01*
X196095238Y-74033333D01*
X196000000Y-74128571D01*
X195952381Y-74271429D01*
X195952381Y-74366667D01*
X196000000Y-74509524D01*
X196047619Y-74557143D01*
X196047619Y-74938095D02*
X196000000Y-74985714D01*
X195952381Y-75080952D01*
X195952381Y-75319048D01*
X196000000Y-75414286D01*
X196047619Y-75461905D01*
X196142857Y-75509524D01*
X196238095Y-75509524D01*
X196380952Y-75461905D01*
X196952381Y-74890476D01*
X196952381Y-75509524D01*
X196380952Y-76080952D02*
X196333333Y-75985714D01*
X196285714Y-75938095D01*
X196190476Y-75890476D01*
X196142857Y-75890476D01*
X196047619Y-75938095D01*
X196000000Y-75985714D01*
X195952381Y-76080952D01*
X195952381Y-76271429D01*
X196000000Y-76366667D01*
X196047619Y-76414286D01*
X196142857Y-76461905D01*
X196190476Y-76461905D01*
X196285714Y-76414286D01*
X196333333Y-76366667D01*
X196380952Y-76271429D01*
X196380952Y-76080952D01*
X196428571Y-75985714D01*
X196476190Y-75938095D01*
X196571429Y-75890476D01*
X196761905Y-75890476D01*
X196857143Y-75938095D01*
X196904762Y-75985714D01*
X196952381Y-76080952D01*
X196952381Y-76271429D01*
X196904762Y-76366667D01*
X196857143Y-76414286D01*
X196761905Y-76461905D01*
X196571429Y-76461905D01*
X196476190Y-76414286D01*
X196428571Y-76366667D01*
X196380952Y-76271429D01*
X190857143Y-91357143D02*
X190904762Y-91309524D01*
X190952381Y-91166667D01*
X190952381Y-91071429D01*
X190904762Y-90928571D01*
X190809524Y-90833333D01*
X190714286Y-90785714D01*
X190523810Y-90738095D01*
X190380952Y-90738095D01*
X190190476Y-90785714D01*
X190095238Y-90833333D01*
X190000000Y-90928571D01*
X189952381Y-91071429D01*
X189952381Y-91166667D01*
X190000000Y-91309524D01*
X190047619Y-91357143D01*
X190047619Y-91738095D02*
X190000000Y-91785714D01*
X189952381Y-91880952D01*
X189952381Y-92119048D01*
X190000000Y-92214286D01*
X190047619Y-92261905D01*
X190142857Y-92309524D01*
X190238095Y-92309524D01*
X190380952Y-92261905D01*
X190952381Y-91690476D01*
X190952381Y-92309524D01*
X190952381Y-92785714D02*
X190952381Y-92976190D01*
X190904762Y-93071429D01*
X190857143Y-93119048D01*
X190714286Y-93214286D01*
X190523810Y-93261905D01*
X190142857Y-93261905D01*
X190047619Y-93214286D01*
X190000000Y-93166667D01*
X189952381Y-93071429D01*
X189952381Y-92880952D01*
X190000000Y-92785714D01*
X190047619Y-92738095D01*
X190142857Y-92690476D01*
X190380952Y-92690476D01*
X190476190Y-92738095D01*
X190523810Y-92785714D01*
X190571429Y-92880952D01*
X190571429Y-93071429D01*
X190523810Y-93166667D01*
X190476190Y-93214286D01*
X190380952Y-93261905D01*
X198357143Y-122457143D02*
X198404762Y-122409524D01*
X198452381Y-122266667D01*
X198452381Y-122171429D01*
X198404762Y-122028571D01*
X198309524Y-121933333D01*
X198214286Y-121885714D01*
X198023810Y-121838095D01*
X197880952Y-121838095D01*
X197690476Y-121885714D01*
X197595238Y-121933333D01*
X197500000Y-122028571D01*
X197452381Y-122171429D01*
X197452381Y-122266667D01*
X197500000Y-122409524D01*
X197547619Y-122457143D01*
X197452381Y-122790476D02*
X197452381Y-123409524D01*
X197833333Y-123076190D01*
X197833333Y-123219048D01*
X197880952Y-123314286D01*
X197928571Y-123361905D01*
X198023810Y-123409524D01*
X198261905Y-123409524D01*
X198357143Y-123361905D01*
X198404762Y-123314286D01*
X198452381Y-123219048D01*
X198452381Y-122933333D01*
X198404762Y-122838095D01*
X198357143Y-122790476D01*
X197452381Y-124028571D02*
X197452381Y-124123810D01*
X197500000Y-124219048D01*
X197547619Y-124266667D01*
X197642857Y-124314286D01*
X197833333Y-124361905D01*
X198071429Y-124361905D01*
X198261905Y-124314286D01*
X198357143Y-124266667D01*
X198404762Y-124219048D01*
X198452381Y-124123810D01*
X198452381Y-124028571D01*
X198404762Y-123933333D01*
X198357143Y-123885714D01*
X198261905Y-123838095D01*
X198071429Y-123790476D01*
X197833333Y-123790476D01*
X197642857Y-123838095D01*
X197547619Y-123885714D01*
X197500000Y-123933333D01*
X197452381Y-124028571D01*
X190457143Y-107357143D02*
X190504762Y-107309524D01*
X190552381Y-107166667D01*
X190552381Y-107071429D01*
X190504762Y-106928571D01*
X190409524Y-106833333D01*
X190314286Y-106785714D01*
X190123810Y-106738095D01*
X189980952Y-106738095D01*
X189790476Y-106785714D01*
X189695238Y-106833333D01*
X189600000Y-106928571D01*
X189552381Y-107071429D01*
X189552381Y-107166667D01*
X189600000Y-107309524D01*
X189647619Y-107357143D01*
X189552381Y-107690476D02*
X189552381Y-108309524D01*
X189933333Y-107976190D01*
X189933333Y-108119048D01*
X189980952Y-108214286D01*
X190028571Y-108261905D01*
X190123810Y-108309524D01*
X190361905Y-108309524D01*
X190457143Y-108261905D01*
X190504762Y-108214286D01*
X190552381Y-108119048D01*
X190552381Y-107833333D01*
X190504762Y-107738095D01*
X190457143Y-107690476D01*
X190552381Y-109261905D02*
X190552381Y-108690476D01*
X190552381Y-108976190D02*
X189552381Y-108976190D01*
X189695238Y-108880952D01*
X189790476Y-108785714D01*
X189838095Y-108690476D01*
X183842857Y-65857143D02*
X183890476Y-65904762D01*
X184033333Y-65952381D01*
X184128571Y-65952381D01*
X184271429Y-65904762D01*
X184366667Y-65809524D01*
X184414286Y-65714286D01*
X184461905Y-65523810D01*
X184461905Y-65380952D01*
X184414286Y-65190476D01*
X184366667Y-65095238D01*
X184271429Y-65000000D01*
X184128571Y-64952381D01*
X184033333Y-64952381D01*
X183890476Y-65000000D01*
X183842857Y-65047619D01*
X183509524Y-64952381D02*
X182890476Y-64952381D01*
X183223810Y-65333333D01*
X183080952Y-65333333D01*
X182985714Y-65380952D01*
X182938095Y-65428571D01*
X182890476Y-65523810D01*
X182890476Y-65761905D01*
X182938095Y-65857143D01*
X182985714Y-65904762D01*
X183080952Y-65952381D01*
X183366667Y-65952381D01*
X183461905Y-65904762D01*
X183509524Y-65857143D01*
X182509524Y-65047619D02*
X182461905Y-65000000D01*
X182366667Y-64952381D01*
X182128571Y-64952381D01*
X182033333Y-65000000D01*
X181985714Y-65047619D01*
X181938095Y-65142857D01*
X181938095Y-65238095D01*
X181985714Y-65380952D01*
X182557143Y-65952381D01*
X181938095Y-65952381D01*
X188457143Y-74557143D02*
X188504762Y-74509524D01*
X188552381Y-74366667D01*
X188552381Y-74271429D01*
X188504762Y-74128571D01*
X188409524Y-74033333D01*
X188314286Y-73985714D01*
X188123810Y-73938095D01*
X187980952Y-73938095D01*
X187790476Y-73985714D01*
X187695238Y-74033333D01*
X187600000Y-74128571D01*
X187552381Y-74271429D01*
X187552381Y-74366667D01*
X187600000Y-74509524D01*
X187647619Y-74557143D01*
X187552381Y-74890476D02*
X187552381Y-75509524D01*
X187933333Y-75176190D01*
X187933333Y-75319048D01*
X187980952Y-75414286D01*
X188028571Y-75461905D01*
X188123810Y-75509524D01*
X188361905Y-75509524D01*
X188457143Y-75461905D01*
X188504762Y-75414286D01*
X188552381Y-75319048D01*
X188552381Y-75033333D01*
X188504762Y-74938095D01*
X188457143Y-74890476D01*
X187552381Y-75842857D02*
X187552381Y-76461905D01*
X187933333Y-76128571D01*
X187933333Y-76271429D01*
X187980952Y-76366667D01*
X188028571Y-76414286D01*
X188123810Y-76461905D01*
X188361905Y-76461905D01*
X188457143Y-76414286D01*
X188504762Y-76366667D01*
X188552381Y-76271429D01*
X188552381Y-75985714D01*
X188504762Y-75890476D01*
X188457143Y-75842857D01*
X183642857Y-97857143D02*
X183690476Y-97904762D01*
X183833333Y-97952381D01*
X183928571Y-97952381D01*
X184071429Y-97904762D01*
X184166667Y-97809524D01*
X184214286Y-97714286D01*
X184261905Y-97523810D01*
X184261905Y-97380952D01*
X184214286Y-97190476D01*
X184166667Y-97095238D01*
X184071429Y-97000000D01*
X183928571Y-96952381D01*
X183833333Y-96952381D01*
X183690476Y-97000000D01*
X183642857Y-97047619D01*
X183309524Y-96952381D02*
X182690476Y-96952381D01*
X183023810Y-97333333D01*
X182880952Y-97333333D01*
X182785714Y-97380952D01*
X182738095Y-97428571D01*
X182690476Y-97523810D01*
X182690476Y-97761905D01*
X182738095Y-97857143D01*
X182785714Y-97904762D01*
X182880952Y-97952381D01*
X183166667Y-97952381D01*
X183261905Y-97904762D01*
X183309524Y-97857143D01*
X181833333Y-97285714D02*
X181833333Y-97952381D01*
X182071429Y-96904762D02*
X182309524Y-97619048D01*
X181690476Y-97619048D01*
X193949557Y-134118043D02*
X193997176Y-134165662D01*
X194140033Y-134213281D01*
X194235271Y-134213281D01*
X194378129Y-134165662D01*
X194473367Y-134070424D01*
X194520986Y-133975186D01*
X194568605Y-133784710D01*
X194568605Y-133641852D01*
X194520986Y-133451376D01*
X194473367Y-133356138D01*
X194378129Y-133260900D01*
X194235271Y-133213281D01*
X194140033Y-133213281D01*
X193997176Y-133260900D01*
X193949557Y-133308519D01*
X193616224Y-133213281D02*
X192997176Y-133213281D01*
X193330510Y-133594233D01*
X193187652Y-133594233D01*
X193092414Y-133641852D01*
X193044795Y-133689471D01*
X192997176Y-133784710D01*
X192997176Y-134022805D01*
X193044795Y-134118043D01*
X193092414Y-134165662D01*
X193187652Y-134213281D01*
X193473367Y-134213281D01*
X193568605Y-134165662D01*
X193616224Y-134118043D01*
X192092414Y-133213281D02*
X192568605Y-133213281D01*
X192616224Y-133689471D01*
X192568605Y-133641852D01*
X192473367Y-133594233D01*
X192235271Y-133594233D01*
X192140033Y-133641852D01*
X192092414Y-133689471D01*
X192044795Y-133784710D01*
X192044795Y-134022805D01*
X192092414Y-134118043D01*
X192140033Y-134165662D01*
X192235271Y-134213281D01*
X192473367Y-134213281D01*
X192568605Y-134165662D01*
X192616224Y-134118043D01*
X183942857Y-113857143D02*
X183990476Y-113904762D01*
X184133333Y-113952381D01*
X184228571Y-113952381D01*
X184371429Y-113904762D01*
X184466667Y-113809524D01*
X184514286Y-113714286D01*
X184561905Y-113523810D01*
X184561905Y-113380952D01*
X184514286Y-113190476D01*
X184466667Y-113095238D01*
X184371429Y-113000000D01*
X184228571Y-112952381D01*
X184133333Y-112952381D01*
X183990476Y-113000000D01*
X183942857Y-113047619D01*
X183609524Y-112952381D02*
X182990476Y-112952381D01*
X183323810Y-113333333D01*
X183180952Y-113333333D01*
X183085714Y-113380952D01*
X183038095Y-113428571D01*
X182990476Y-113523810D01*
X182990476Y-113761905D01*
X183038095Y-113857143D01*
X183085714Y-113904762D01*
X183180952Y-113952381D01*
X183466667Y-113952381D01*
X183561905Y-113904762D01*
X183609524Y-113857143D01*
X182133333Y-112952381D02*
X182323810Y-112952381D01*
X182419048Y-113000000D01*
X182466667Y-113047619D01*
X182561905Y-113190476D01*
X182609524Y-113380952D01*
X182609524Y-113761905D01*
X182561905Y-113857143D01*
X182514286Y-113904762D01*
X182419048Y-113952381D01*
X182228571Y-113952381D01*
X182133333Y-113904762D01*
X182085714Y-113857143D01*
X182038095Y-113761905D01*
X182038095Y-113523810D01*
X182085714Y-113428571D01*
X182133333Y-113380952D01*
X182228571Y-113333333D01*
X182419048Y-113333333D01*
X182514286Y-113380952D01*
X182561905Y-113428571D01*
X182609524Y-113523810D01*
X194157143Y-122357143D02*
X194204762Y-122309524D01*
X194252381Y-122166667D01*
X194252381Y-122071429D01*
X194204762Y-121928571D01*
X194109524Y-121833333D01*
X194014286Y-121785714D01*
X193823810Y-121738095D01*
X193680952Y-121738095D01*
X193490476Y-121785714D01*
X193395238Y-121833333D01*
X193300000Y-121928571D01*
X193252381Y-122071429D01*
X193252381Y-122166667D01*
X193300000Y-122309524D01*
X193347619Y-122357143D01*
X193252381Y-122690476D02*
X193252381Y-123309524D01*
X193633333Y-122976190D01*
X193633333Y-123119048D01*
X193680952Y-123214286D01*
X193728571Y-123261905D01*
X193823810Y-123309524D01*
X194061905Y-123309524D01*
X194157143Y-123261905D01*
X194204762Y-123214286D01*
X194252381Y-123119048D01*
X194252381Y-122833333D01*
X194204762Y-122738095D01*
X194157143Y-122690476D01*
X193252381Y-123642857D02*
X193252381Y-124309524D01*
X194252381Y-123880952D01*
X185657143Y-60157143D02*
X185704762Y-60109524D01*
X185752381Y-59966667D01*
X185752381Y-59871429D01*
X185704762Y-59728571D01*
X185609524Y-59633333D01*
X185514286Y-59585714D01*
X185323810Y-59538095D01*
X185180952Y-59538095D01*
X184990476Y-59585714D01*
X184895238Y-59633333D01*
X184800000Y-59728571D01*
X184752381Y-59871429D01*
X184752381Y-59966667D01*
X184800000Y-60109524D01*
X184847619Y-60157143D01*
X184752381Y-60490476D02*
X184752381Y-61109524D01*
X185133333Y-60776190D01*
X185133333Y-60919048D01*
X185180952Y-61014286D01*
X185228571Y-61061905D01*
X185323810Y-61109524D01*
X185561905Y-61109524D01*
X185657143Y-61061905D01*
X185704762Y-61014286D01*
X185752381Y-60919048D01*
X185752381Y-60633333D01*
X185704762Y-60538095D01*
X185657143Y-60490476D01*
X185180952Y-61680952D02*
X185133333Y-61585714D01*
X185085714Y-61538095D01*
X184990476Y-61490476D01*
X184942857Y-61490476D01*
X184847619Y-61538095D01*
X184800000Y-61585714D01*
X184752381Y-61680952D01*
X184752381Y-61871429D01*
X184800000Y-61966667D01*
X184847619Y-62014286D01*
X184942857Y-62061905D01*
X184990476Y-62061905D01*
X185085714Y-62014286D01*
X185133333Y-61966667D01*
X185180952Y-61871429D01*
X185180952Y-61680952D01*
X185228571Y-61585714D01*
X185276190Y-61538095D01*
X185371429Y-61490476D01*
X185561905Y-61490476D01*
X185657143Y-61538095D01*
X185704762Y-61585714D01*
X185752381Y-61680952D01*
X185752381Y-61871429D01*
X185704762Y-61966667D01*
X185657143Y-62014286D01*
X185561905Y-62061905D01*
X185371429Y-62061905D01*
X185276190Y-62014286D01*
X185228571Y-61966667D01*
X185180952Y-61871429D01*
X185257143Y-74557143D02*
X185304762Y-74509524D01*
X185352381Y-74366667D01*
X185352381Y-74271429D01*
X185304762Y-74128571D01*
X185209524Y-74033333D01*
X185114286Y-73985714D01*
X184923810Y-73938095D01*
X184780952Y-73938095D01*
X184590476Y-73985714D01*
X184495238Y-74033333D01*
X184400000Y-74128571D01*
X184352381Y-74271429D01*
X184352381Y-74366667D01*
X184400000Y-74509524D01*
X184447619Y-74557143D01*
X184352381Y-74890476D02*
X184352381Y-75509524D01*
X184733333Y-75176190D01*
X184733333Y-75319048D01*
X184780952Y-75414286D01*
X184828571Y-75461905D01*
X184923810Y-75509524D01*
X185161905Y-75509524D01*
X185257143Y-75461905D01*
X185304762Y-75414286D01*
X185352381Y-75319048D01*
X185352381Y-75033333D01*
X185304762Y-74938095D01*
X185257143Y-74890476D01*
X185352381Y-75985714D02*
X185352381Y-76176190D01*
X185304762Y-76271429D01*
X185257143Y-76319048D01*
X185114286Y-76414286D01*
X184923810Y-76461905D01*
X184542857Y-76461905D01*
X184447619Y-76414286D01*
X184400000Y-76366667D01*
X184352381Y-76271429D01*
X184352381Y-76080952D01*
X184400000Y-75985714D01*
X184447619Y-75938095D01*
X184542857Y-75890476D01*
X184780952Y-75890476D01*
X184876190Y-75938095D01*
X184923810Y-75985714D01*
X184971429Y-76080952D01*
X184971429Y-76271429D01*
X184923810Y-76366667D01*
X184876190Y-76414286D01*
X184780952Y-76461905D01*
X185257143Y-91357143D02*
X185304762Y-91309524D01*
X185352381Y-91166667D01*
X185352381Y-91071429D01*
X185304762Y-90928571D01*
X185209524Y-90833333D01*
X185114286Y-90785714D01*
X184923810Y-90738095D01*
X184780952Y-90738095D01*
X184590476Y-90785714D01*
X184495238Y-90833333D01*
X184400000Y-90928571D01*
X184352381Y-91071429D01*
X184352381Y-91166667D01*
X184400000Y-91309524D01*
X184447619Y-91357143D01*
X184685714Y-92214286D02*
X185352381Y-92214286D01*
X184304762Y-91976190D02*
X185019048Y-91738095D01*
X185019048Y-92357143D01*
X184352381Y-92928571D02*
X184352381Y-93023810D01*
X184400000Y-93119048D01*
X184447619Y-93166667D01*
X184542857Y-93214286D01*
X184733333Y-93261905D01*
X184971429Y-93261905D01*
X185161905Y-93214286D01*
X185257143Y-93166667D01*
X185304762Y-93119048D01*
X185352381Y-93023810D01*
X185352381Y-92928571D01*
X185304762Y-92833333D01*
X185257143Y-92785714D01*
X185161905Y-92738095D01*
X184971429Y-92690476D01*
X184733333Y-92690476D01*
X184542857Y-92738095D01*
X184447619Y-92785714D01*
X184400000Y-92833333D01*
X184352381Y-92928571D01*
X183057143Y-107457143D02*
X183104762Y-107409524D01*
X183152381Y-107266667D01*
X183152381Y-107171429D01*
X183104762Y-107028571D01*
X183009524Y-106933333D01*
X182914286Y-106885714D01*
X182723810Y-106838095D01*
X182580952Y-106838095D01*
X182390476Y-106885714D01*
X182295238Y-106933333D01*
X182200000Y-107028571D01*
X182152381Y-107171429D01*
X182152381Y-107266667D01*
X182200000Y-107409524D01*
X182247619Y-107457143D01*
X182485714Y-108314286D02*
X183152381Y-108314286D01*
X182104762Y-108076190D02*
X182819048Y-107838095D01*
X182819048Y-108457143D01*
X183152381Y-109361905D02*
X183152381Y-108790476D01*
X183152381Y-109076190D02*
X182152381Y-109076190D01*
X182295238Y-108980952D01*
X182390476Y-108885714D01*
X182438095Y-108790476D01*
X186957143Y-107557143D02*
X187004762Y-107509524D01*
X187052381Y-107366667D01*
X187052381Y-107271429D01*
X187004762Y-107128571D01*
X186909524Y-107033333D01*
X186814286Y-106985714D01*
X186623810Y-106938095D01*
X186480952Y-106938095D01*
X186290476Y-106985714D01*
X186195238Y-107033333D01*
X186100000Y-107128571D01*
X186052381Y-107271429D01*
X186052381Y-107366667D01*
X186100000Y-107509524D01*
X186147619Y-107557143D01*
X186385714Y-108414286D02*
X187052381Y-108414286D01*
X186004762Y-108176190D02*
X186719048Y-107938095D01*
X186719048Y-108557143D01*
X186147619Y-108890476D02*
X186100000Y-108938095D01*
X186052381Y-109033333D01*
X186052381Y-109271429D01*
X186100000Y-109366667D01*
X186147619Y-109414286D01*
X186242857Y-109461905D01*
X186338095Y-109461905D01*
X186480952Y-109414286D01*
X187052381Y-108842857D01*
X187052381Y-109461905D01*
X188857143Y-83957143D02*
X188904762Y-83909524D01*
X188952381Y-83766667D01*
X188952381Y-83671429D01*
X188904762Y-83528571D01*
X188809524Y-83433333D01*
X188714286Y-83385714D01*
X188523810Y-83338095D01*
X188380952Y-83338095D01*
X188190476Y-83385714D01*
X188095238Y-83433333D01*
X188000000Y-83528571D01*
X187952381Y-83671429D01*
X187952381Y-83766667D01*
X188000000Y-83909524D01*
X188047619Y-83957143D01*
X188380952Y-84528571D02*
X188333333Y-84433333D01*
X188285714Y-84385714D01*
X188190476Y-84338095D01*
X188142857Y-84338095D01*
X188047619Y-84385714D01*
X188000000Y-84433333D01*
X187952381Y-84528571D01*
X187952381Y-84719048D01*
X188000000Y-84814286D01*
X188047619Y-84861905D01*
X188142857Y-84909524D01*
X188190476Y-84909524D01*
X188285714Y-84861905D01*
X188333333Y-84814286D01*
X188380952Y-84719048D01*
X188380952Y-84528571D01*
X188428571Y-84433333D01*
X188476190Y-84385714D01*
X188571429Y-84338095D01*
X188761905Y-84338095D01*
X188857143Y-84385714D01*
X188904762Y-84433333D01*
X188952381Y-84528571D01*
X188952381Y-84719048D01*
X188904762Y-84814286D01*
X188857143Y-84861905D01*
X188761905Y-84909524D01*
X188571429Y-84909524D01*
X188476190Y-84861905D01*
X188428571Y-84814286D01*
X188380952Y-84719048D01*
X187952381Y-85528571D02*
X187952381Y-85623810D01*
X188000000Y-85719048D01*
X188047619Y-85766667D01*
X188142857Y-85814286D01*
X188333333Y-85861905D01*
X188571429Y-85861905D01*
X188761905Y-85814286D01*
X188857143Y-85766667D01*
X188904762Y-85719048D01*
X188952381Y-85623810D01*
X188952381Y-85528571D01*
X188904762Y-85433333D01*
X188857143Y-85385714D01*
X188761905Y-85338095D01*
X188571429Y-85290476D01*
X188333333Y-85290476D01*
X188142857Y-85338095D01*
X188047619Y-85385714D01*
X188000000Y-85433333D01*
X187952381Y-85528571D01*
X189257143Y-74557143D02*
X189304762Y-74509524D01*
X189352381Y-74366667D01*
X189352381Y-74271429D01*
X189304762Y-74128571D01*
X189209524Y-74033333D01*
X189114286Y-73985714D01*
X188923810Y-73938095D01*
X188780952Y-73938095D01*
X188590476Y-73985714D01*
X188495238Y-74033333D01*
X188400000Y-74128571D01*
X188352381Y-74271429D01*
X188352381Y-74366667D01*
X188400000Y-74509524D01*
X188447619Y-74557143D01*
X188780952Y-75128571D02*
X188733333Y-75033333D01*
X188685714Y-74985714D01*
X188590476Y-74938095D01*
X188542857Y-74938095D01*
X188447619Y-74985714D01*
X188400000Y-75033333D01*
X188352381Y-75128571D01*
X188352381Y-75319048D01*
X188400000Y-75414286D01*
X188447619Y-75461905D01*
X188542857Y-75509524D01*
X188590476Y-75509524D01*
X188685714Y-75461905D01*
X188733333Y-75414286D01*
X188780952Y-75319048D01*
X188780952Y-75128571D01*
X188828571Y-75033333D01*
X188876190Y-74985714D01*
X188971429Y-74938095D01*
X189161905Y-74938095D01*
X189257143Y-74985714D01*
X189304762Y-75033333D01*
X189352381Y-75128571D01*
X189352381Y-75319048D01*
X189304762Y-75414286D01*
X189257143Y-75461905D01*
X189161905Y-75509524D01*
X188971429Y-75509524D01*
X188876190Y-75461905D01*
X188828571Y-75414286D01*
X188780952Y-75319048D01*
X189352381Y-76461905D02*
X189352381Y-75890476D01*
X189352381Y-76176190D02*
X188352381Y-76176190D01*
X188495238Y-76080952D01*
X188590476Y-75985714D01*
X188638095Y-75890476D01*
X144057143Y-58457143D02*
X144104762Y-58409524D01*
X144152381Y-58266667D01*
X144152381Y-58171429D01*
X144104762Y-58028571D01*
X144009524Y-57933333D01*
X143914286Y-57885714D01*
X143723810Y-57838095D01*
X143580952Y-57838095D01*
X143390476Y-57885714D01*
X143295238Y-57933333D01*
X143200000Y-58028571D01*
X143152381Y-58171429D01*
X143152381Y-58266667D01*
X143200000Y-58409524D01*
X143247619Y-58457143D01*
X144152381Y-59409524D02*
X144152381Y-58838095D01*
X144152381Y-59123809D02*
X143152381Y-59123809D01*
X143295238Y-59028571D01*
X143390476Y-58933333D01*
X143438095Y-58838095D01*
X143152381Y-60028571D02*
X143152381Y-60123810D01*
X143200000Y-60219048D01*
X143247619Y-60266667D01*
X143342857Y-60314286D01*
X143533333Y-60361905D01*
X143771429Y-60361905D01*
X143961905Y-60314286D01*
X144057143Y-60266667D01*
X144104762Y-60219048D01*
X144152381Y-60123810D01*
X144152381Y-60028571D01*
X144104762Y-59933333D01*
X144057143Y-59885714D01*
X143961905Y-59838095D01*
X143771429Y-59790476D01*
X143533333Y-59790476D01*
X143342857Y-59838095D01*
X143247619Y-59885714D01*
X143200000Y-59933333D01*
X143152381Y-60028571D01*
X141247169Y-59761168D02*
X141247169Y-60523073D01*
X141628121Y-60142121D02*
X140866216Y-60142121D01*
X162395238Y-119947619D02*
X162490476Y-119900000D01*
X162585714Y-119804762D01*
X162728571Y-119661905D01*
X162823810Y-119614286D01*
X162919048Y-119614286D01*
X162871429Y-119852381D02*
X162966667Y-119804762D01*
X163061905Y-119709524D01*
X163109524Y-119519048D01*
X163109524Y-119185714D01*
X163061905Y-118995238D01*
X162966667Y-118900000D01*
X162871429Y-118852381D01*
X162680952Y-118852381D01*
X162585714Y-118900000D01*
X162490476Y-118995238D01*
X162442857Y-119185714D01*
X162442857Y-119519048D01*
X162490476Y-119709524D01*
X162585714Y-119804762D01*
X162680952Y-119852381D01*
X162871429Y-119852381D01*
X162061905Y-118947619D02*
X162014286Y-118900000D01*
X161919048Y-118852381D01*
X161680952Y-118852381D01*
X161585714Y-118900000D01*
X161538095Y-118947619D01*
X161490476Y-119042857D01*
X161490476Y-119138095D01*
X161538095Y-119280952D01*
X162109524Y-119852381D01*
X161490476Y-119852381D01*
X156352381Y-117333334D02*
X155876190Y-117000000D01*
X156352381Y-116761905D02*
X155352381Y-116761905D01*
X155352381Y-117142858D01*
X155400000Y-117238096D01*
X155447619Y-117285715D01*
X155542857Y-117333334D01*
X155685714Y-117333334D01*
X155780952Y-117285715D01*
X155828571Y-117238096D01*
X155876190Y-117142858D01*
X155876190Y-116761905D01*
X155447619Y-117714286D02*
X155400000Y-117761905D01*
X155352381Y-117857143D01*
X155352381Y-118095239D01*
X155400000Y-118190477D01*
X155447619Y-118238096D01*
X155542857Y-118285715D01*
X155638095Y-118285715D01*
X155780952Y-118238096D01*
X156352381Y-117666667D01*
X156352381Y-118285715D01*
X160966666Y-117152381D02*
X161300000Y-116676190D01*
X161538095Y-117152381D02*
X161538095Y-116152381D01*
X161157142Y-116152381D01*
X161061904Y-116200000D01*
X161014285Y-116247619D01*
X160966666Y-116342857D01*
X160966666Y-116485714D01*
X161014285Y-116580952D01*
X161061904Y-116628571D01*
X161157142Y-116676190D01*
X161538095Y-116676190D01*
X160633333Y-116152381D02*
X160014285Y-116152381D01*
X160347619Y-116533333D01*
X160204761Y-116533333D01*
X160109523Y-116580952D01*
X160061904Y-116628571D01*
X160014285Y-116723810D01*
X160014285Y-116961905D01*
X160061904Y-117057143D01*
X160109523Y-117104762D01*
X160204761Y-117152381D01*
X160490476Y-117152381D01*
X160585714Y-117104762D01*
X160633333Y-117057143D01*
M02*
