%FSLAX46Y46*%
G04 Gerber Fmt 4.6, Leading zero omitted, Abs format (unit mm)*
G04 Created by KiCad (PCBNEW (2014-10-27 BZR 5228)-product) date 07/01/2015 12:37:54*
%MOMM*%
G01*
G04 APERTURE LIST*
%ADD10C,0.100000*%
%ADD11R,1.651000X1.651000*%
%ADD12C,1.651000*%
%ADD13C,1.998980*%
%ADD14R,2.032000X2.032000*%
%ADD15O,2.032000X2.032000*%
%ADD16R,1.727200X1.727200*%
%ADD17O,1.727200X1.727200*%
%ADD18R,2.235200X2.235200*%
%ADD19R,2.032000X1.727200*%
%ADD20O,2.032000X1.727200*%
%ADD21O,1.699260X3.500120*%
%ADD22C,1.524000*%
%ADD23C,2.540000*%
%ADD24C,1.727200*%
%ADD25R,1.397000X1.397000*%
%ADD26C,1.397000*%
%ADD27C,0.889000*%
%ADD28C,0.254000*%
G04 APERTURE END LIST*
D10*
D11*
X105700000Y-78470000D03*
D12*
X105700000Y-75930000D03*
D11*
X164730000Y-54500000D03*
D12*
X167270000Y-54500000D03*
D13*
X164700000Y-76801260D03*
X164700000Y-66641260D03*
X132804000Y-85592000D03*
X132804000Y-80004000D03*
X118704000Y-85692000D03*
X118704000Y-80104000D03*
X185992000Y-64196000D03*
X180404000Y-64196000D03*
X186192000Y-84096000D03*
X180604000Y-84096000D03*
X186392000Y-103296000D03*
X180804000Y-103296000D03*
X186292000Y-139396000D03*
X180704000Y-139396000D03*
X186592000Y-122296000D03*
X181004000Y-122296000D03*
X196292000Y-64196000D03*
X190704000Y-64196000D03*
X196392000Y-83796000D03*
X190804000Y-83796000D03*
X196692000Y-103296000D03*
X191104000Y-103296000D03*
X196492000Y-139296000D03*
X190904000Y-139296000D03*
X196792000Y-122396000D03*
X191204000Y-122396000D03*
D14*
X103330000Y-88100000D03*
D15*
X105870000Y-88100000D03*
D14*
X103330000Y-92000000D03*
D15*
X105870000Y-92000000D03*
D16*
X131870000Y-103850000D03*
D17*
X129330000Y-103850000D03*
X131870000Y-101310000D03*
X129330000Y-101310000D03*
X131870000Y-98770000D03*
X129330000Y-98770000D03*
X131870000Y-96230000D03*
X129330000Y-96230000D03*
X131870000Y-93690000D03*
X129330000Y-93690000D03*
X131870000Y-91150000D03*
X129330000Y-91150000D03*
D14*
X102600000Y-58670000D03*
D15*
X102600000Y-56130000D03*
D14*
X105371900Y-120281700D03*
D15*
X102831900Y-120281700D03*
D18*
X142800000Y-69400000D03*
D19*
X102500000Y-69810000D03*
D20*
X102500000Y-67270000D03*
X102500000Y-64730000D03*
X102500000Y-62190000D03*
D21*
X130200000Y-55900000D03*
X132740000Y-55900000D03*
X127660000Y-55900000D03*
D13*
X111351060Y-107569000D03*
X106349800Y-107569000D03*
X117414040Y-107569000D03*
X122415300Y-107569000D03*
D16*
X105770000Y-98470000D03*
D17*
X105770000Y-95930000D03*
X103230000Y-98470000D03*
X103230000Y-95930000D03*
D22*
X116200000Y-68360000D03*
X116200000Y-65820000D03*
X116200000Y-70900000D03*
D16*
X163144200Y-133781800D03*
D17*
X160604200Y-133781800D03*
X163144200Y-131241800D03*
X160604200Y-131241800D03*
X163144200Y-128701800D03*
X160604200Y-128701800D03*
X163144200Y-126161800D03*
X160604200Y-126161800D03*
X163144200Y-123621800D03*
X160604200Y-123621800D03*
D19*
X162788600Y-88798400D03*
D20*
X162788600Y-91338400D03*
X162788600Y-93878400D03*
X162788600Y-96418400D03*
X162788600Y-98958400D03*
X162788600Y-101498400D03*
X162788600Y-104038400D03*
X162788600Y-106578400D03*
D23*
X137900000Y-53300000D03*
D24*
X137900000Y-57300000D03*
D23*
X137900000Y-61300000D03*
D24*
X137900000Y-65300000D03*
D25*
X122580000Y-90690000D03*
D26*
X120040000Y-90690000D03*
X117500000Y-90690000D03*
X114960000Y-90690000D03*
X112420000Y-90690000D03*
X112420000Y-98310000D03*
X114960000Y-98310000D03*
X117500000Y-98310000D03*
X120040000Y-98310000D03*
X122580000Y-98310000D03*
D25*
X176410000Y-69980000D03*
D26*
X176410000Y-67440000D03*
X176410000Y-64900000D03*
X176410000Y-62360000D03*
X176410000Y-59820000D03*
X168790000Y-59820000D03*
X168790000Y-62360000D03*
X168790000Y-64900000D03*
X168790000Y-67440000D03*
X168790000Y-69980000D03*
D25*
X176310000Y-88280000D03*
D26*
X176310000Y-85740000D03*
X176310000Y-83200000D03*
X176310000Y-80660000D03*
X176310000Y-78120000D03*
X168690000Y-78120000D03*
X168690000Y-80660000D03*
X168690000Y-83200000D03*
X168690000Y-85740000D03*
X168690000Y-88280000D03*
D25*
X176410000Y-107480000D03*
D26*
X176410000Y-104940000D03*
X176410000Y-102400000D03*
X176410000Y-99860000D03*
X176410000Y-97320000D03*
X168790000Y-97320000D03*
X168790000Y-99860000D03*
X168790000Y-102400000D03*
X168790000Y-104940000D03*
X168790000Y-107480000D03*
D25*
X176510000Y-125480000D03*
D26*
X176510000Y-122940000D03*
X176510000Y-120400000D03*
X176510000Y-117860000D03*
X176510000Y-115320000D03*
X168890000Y-115320000D03*
X168890000Y-117860000D03*
X168890000Y-120400000D03*
X168890000Y-122940000D03*
X168890000Y-125480000D03*
D25*
X176810000Y-143780000D03*
D26*
X176810000Y-141240000D03*
X176810000Y-138700000D03*
X176810000Y-136160000D03*
X176810000Y-133620000D03*
X169190000Y-133620000D03*
X169190000Y-136160000D03*
X169190000Y-138700000D03*
X169190000Y-141240000D03*
X169190000Y-143780000D03*
D27*
X162052000Y-116014500D03*
X154584400Y-115163600D03*
X145681700Y-120408700D03*
X137236200Y-117856000D03*
X136677400Y-114998500D03*
X153390600Y-70332600D03*
X132800000Y-71200000D03*
X165862000Y-90106500D03*
X166370000Y-127355600D03*
X163220400Y-119253000D03*
X157099000Y-117500400D03*
X156032200Y-100050600D03*
X152133300Y-102755700D03*
X125310900Y-94259400D03*
X186791600Y-91744800D03*
X152400000Y-73494900D03*
X151942800Y-71348600D03*
X133692900Y-122936000D03*
X153695400Y-97764600D03*
X123200000Y-76900000D03*
X143700000Y-130600000D03*
X180975000Y-56000000D03*
X198125000Y-56075000D03*
X142400000Y-85648800D03*
X193573400Y-75946000D03*
X188417200Y-76936600D03*
X175971200Y-74041000D03*
X184023000Y-109982000D03*
X188874400Y-128905000D03*
X189661800Y-144907000D03*
X154965400Y-123113800D03*
X149900000Y-132638800D03*
X154965400Y-133197600D03*
X145669000Y-115519200D03*
X154914600Y-87553800D03*
X156641800Y-82448400D03*
X142100300Y-120192800D03*
X134340600Y-116509800D03*
X137134600Y-135318500D03*
X121348500Y-143446500D03*
X129133600Y-133438900D03*
X150990300Y-142113000D03*
X120015000Y-128054100D03*
X111000000Y-63000000D03*
X125700000Y-63300000D03*
X137312400Y-85318600D03*
X138430000Y-82981800D03*
X182270400Y-118516400D03*
X193575000Y-56225000D03*
X195249800Y-98806000D03*
X197154800Y-116408200D03*
X104317800Y-131826000D03*
X111709200Y-120929400D03*
X115506500Y-143941800D03*
X103886000Y-140538200D03*
X132486400Y-146354800D03*
X143217900Y-109880400D03*
X110642400Y-131445000D03*
X133502400Y-128358900D03*
X153390600Y-124218700D03*
X131711700Y-129971800D03*
X135064500Y-135178800D03*
X161493200Y-117182900D03*
X144780000Y-127127000D03*
X164172900Y-120192800D03*
X165468300Y-136512300D03*
X127457200Y-143662400D03*
X138531600Y-128524000D03*
X114300000Y-120243600D03*
X108178600Y-143497300D03*
X121488200Y-122148600D03*
X135200000Y-83000000D03*
X114400000Y-94000000D03*
X154609800Y-90068400D03*
X158699200Y-83362800D03*
X152222200Y-85775800D03*
X150825200Y-87782400D03*
X135039100Y-89395300D03*
X126517400Y-92608400D03*
X127457200Y-95148400D03*
X145135600Y-113080800D03*
X145161000Y-110286800D03*
X145135600Y-108102400D03*
X138887200Y-98044000D03*
X144983200Y-78575000D03*
X145161000Y-87782400D03*
X136753600Y-69621400D03*
X145135600Y-105994200D03*
X145135600Y-93192600D03*
X151638000Y-99288600D03*
X144246600Y-98729800D03*
X144221200Y-92303600D03*
X140182600Y-90347800D03*
X140106400Y-92735400D03*
X134048500Y-90462100D03*
X137375900Y-92925900D03*
X139039600Y-95554800D03*
X138976100Y-90576400D03*
X141249400Y-93929200D03*
X143764000Y-107213400D03*
X144475200Y-74193400D03*
X134772400Y-96266000D03*
X143916400Y-103047800D03*
X135722600Y-95239600D03*
X143992600Y-101701600D03*
X128346200Y-106527600D03*
X152400000Y-121843800D03*
X146024600Y-88849200D03*
X150596600Y-72313800D03*
X159461200Y-107340400D03*
X150495000Y-110794800D03*
X150596600Y-96494600D03*
X154965400Y-127330200D03*
X150190200Y-129362200D03*
X149555200Y-73456800D03*
X159766000Y-121488200D03*
X150164800Y-128117600D03*
X149682200Y-74726800D03*
X150266400Y-126847600D03*
X149606000Y-76073000D03*
X150317200Y-125501400D03*
D28*
X154584400Y-115163600D02*
X161239200Y-115163600D01*
X162052000Y-115976400D02*
X162052000Y-116014500D01*
X161239200Y-115163600D02*
X162052000Y-115976400D01*
X145681700Y-120408700D02*
X143129000Y-117856000D01*
X143129000Y-117856000D02*
X137236200Y-117856000D01*
X136677400Y-114998500D02*
X131089400Y-109410500D01*
X131089400Y-109410500D02*
X124256800Y-109410500D01*
X124256800Y-109410500D02*
X122415300Y-107569000D01*
X161330140Y-73431400D02*
X164700000Y-76801260D01*
X156489400Y-73431400D02*
X161330140Y-73431400D01*
X153390600Y-70332600D02*
X156489400Y-73431400D01*
X176490000Y-125500000D02*
X176510000Y-125480000D01*
X176410000Y-69980000D02*
X172400000Y-69980000D01*
X171521260Y-69980000D02*
X164700000Y-76801260D01*
X172400000Y-69980000D02*
X171521260Y-69980000D01*
X105700000Y-78470000D02*
X105170000Y-78470000D01*
X105170000Y-78470000D02*
X102500000Y-75800000D01*
X102500000Y-75800000D02*
X102500000Y-69810000D01*
X104990000Y-72300000D02*
X102500000Y-69810000D01*
X120000000Y-72300000D02*
X104990000Y-72300000D01*
X121300000Y-71000000D02*
X120000000Y-72300000D01*
X132600000Y-71000000D02*
X121300000Y-71000000D01*
X132800000Y-71200000D02*
X132600000Y-71000000D01*
X165862000Y-90297000D02*
X165862000Y-90106500D01*
X165862000Y-109474000D02*
X165862000Y-90297000D01*
X165862000Y-90106500D02*
X165862000Y-77963260D01*
X165862000Y-77963260D02*
X164700000Y-76801260D01*
X174416000Y-109474000D02*
X176410000Y-107480000D01*
X165862000Y-109474000D02*
X174416000Y-109474000D01*
X176810000Y-143780000D02*
X173593000Y-143780000D01*
X173593000Y-143780000D02*
X171831000Y-145542000D01*
X171831000Y-145542000D02*
X167640000Y-145542000D01*
X167640000Y-145542000D02*
X166370000Y-143637000D01*
X166370000Y-143637000D02*
X166370000Y-127635000D01*
X166370000Y-127355600D02*
X166370000Y-127635000D01*
X166370000Y-125984000D02*
X166370000Y-127355600D01*
X165862000Y-125476000D02*
X166370000Y-125984000D01*
X165862000Y-119176800D02*
X165862000Y-125476000D01*
X165862000Y-109474000D02*
X165862000Y-119176800D01*
X163296600Y-119176800D02*
X163220400Y-119253000D01*
X165862000Y-119176800D02*
X163296600Y-119176800D01*
X105700000Y-80935000D02*
X109728000Y-84963000D01*
X109728000Y-84963000D02*
X109728000Y-99314000D01*
X109728000Y-99314000D02*
X113538000Y-103124000D01*
X113601500Y-103124000D02*
X117970300Y-103124000D01*
X113538000Y-103124000D02*
X113601500Y-103124000D01*
X117970300Y-103124000D02*
X122415300Y-107569000D01*
X105700000Y-78470000D02*
X105700000Y-80935000D01*
X113296700Y-103124000D02*
X111351060Y-105069640D01*
X111351060Y-105069640D02*
X111351060Y-107569000D01*
X113601500Y-103124000D02*
X113296700Y-103124000D01*
X157099000Y-117500400D02*
X155600400Y-117500400D01*
X160655000Y-108712000D02*
X162788600Y-106578400D01*
X159461200Y-108712000D02*
X160655000Y-108712000D01*
X153238200Y-114935000D02*
X159461200Y-108712000D01*
X153238200Y-115138200D02*
X153238200Y-114935000D01*
X155600400Y-117500400D02*
X153238200Y-115138200D01*
X131870000Y-103850000D02*
X131434400Y-103850000D01*
X131434400Y-103850000D02*
X130175000Y-102590600D01*
X130175000Y-102590600D02*
X126860600Y-102590600D01*
X126860600Y-102590600D02*
X122580000Y-98310000D01*
X129330000Y-96230000D02*
X129330000Y-93690000D01*
X142400000Y-85648800D02*
X142417800Y-85648800D01*
X149900000Y-132638800D02*
X149910800Y-132638800D01*
X145669000Y-115519200D02*
X145669000Y-115544600D01*
X111000000Y-63000000D02*
X111300000Y-63300000D01*
X111300000Y-63300000D02*
X125700000Y-63300000D01*
X137312400Y-84099400D02*
X137312400Y-85318600D01*
X138430000Y-82981800D02*
X137312400Y-84099400D01*
X137900000Y-65300000D02*
X137900000Y-74908000D01*
X137900000Y-74908000D02*
X132804000Y-80004000D01*
X132804000Y-85592000D02*
X128208000Y-85592000D01*
X115100000Y-83708000D02*
X118704000Y-80104000D01*
X115100000Y-87000000D02*
X115100000Y-83708000D01*
X115600000Y-87500000D02*
X115100000Y-87000000D01*
X126300000Y-87500000D02*
X115600000Y-87500000D01*
X128208000Y-85592000D02*
X126300000Y-87500000D01*
X118704000Y-85692000D02*
X120608000Y-85692000D01*
X166500000Y-64900000D02*
X168790000Y-64900000D01*
X165900000Y-64300000D02*
X166500000Y-64900000D01*
X151139800Y-64300000D02*
X165900000Y-64300000D01*
X133339800Y-82100000D02*
X151139800Y-64300000D01*
X124200000Y-82100000D02*
X133339800Y-82100000D01*
X120608000Y-85692000D02*
X124200000Y-82100000D01*
X184796000Y-64196000D02*
X182750000Y-62150000D01*
X182750000Y-62150000D02*
X179475000Y-62150000D01*
X179475000Y-62150000D02*
X177925000Y-63700000D01*
X177925000Y-63700000D02*
X172530000Y-63700000D01*
X172530000Y-63700000D02*
X168790000Y-67440000D01*
X185992000Y-64196000D02*
X184796000Y-64196000D01*
X184011000Y-81915000D02*
X186192000Y-84096000D01*
X172339000Y-81915000D02*
X184011000Y-81915000D01*
X168690000Y-85564000D02*
X172339000Y-81915000D01*
X168690000Y-85740000D02*
X168690000Y-85564000D01*
X184435200Y-103296000D02*
X181559200Y-106172000D01*
X181559200Y-106172000D02*
X170022000Y-106172000D01*
X170022000Y-106172000D02*
X168790000Y-104940000D01*
X186392000Y-103296000D02*
X184435200Y-103296000D01*
X186050000Y-122296000D02*
X186592000Y-122296000D01*
X182270400Y-118516400D02*
X186050000Y-122296000D01*
X183845200Y-124155200D02*
X170105200Y-124155200D01*
X170105200Y-124155200D02*
X168890000Y-122940000D01*
X185704400Y-122296000D02*
X183845200Y-124155200D01*
X186592000Y-122296000D02*
X185704400Y-122296000D01*
X196392000Y-83552500D02*
X196392000Y-83796000D01*
X178654000Y-139396000D02*
X176810000Y-141240000D01*
X180704000Y-139396000D02*
X178654000Y-139396000D01*
X195226800Y-139296000D02*
X190830200Y-134899400D01*
X190830200Y-134899400D02*
X170450600Y-134899400D01*
X170450600Y-134899400D02*
X169190000Y-136160000D01*
X196492000Y-139296000D02*
X195226800Y-139296000D01*
X193575000Y-56225000D02*
X193625000Y-56275000D01*
X193625000Y-56275000D02*
X193625000Y-61275000D01*
X193625000Y-61275000D02*
X190704000Y-64196000D01*
X188860000Y-85740000D02*
X190804000Y-83796000D01*
X176310000Y-85740000D02*
X188860000Y-85740000D01*
X191104000Y-102951800D02*
X191104000Y-103296000D01*
X195249800Y-98806000D02*
X191104000Y-102951800D01*
X189306200Y-100914200D02*
X179832000Y-100914200D01*
X179832000Y-100914200D02*
X178358800Y-102387400D01*
X178358800Y-102387400D02*
X178358800Y-102991200D01*
X178358800Y-102991200D02*
X176410000Y-104940000D01*
X191104000Y-102712000D02*
X189306200Y-100914200D01*
X191104000Y-103296000D02*
X191104000Y-102712000D01*
X188366400Y-137515600D02*
X172914400Y-137515600D01*
X172914400Y-137515600D02*
X169190000Y-141240000D01*
X190146800Y-139296000D02*
X188366400Y-137515600D01*
X190904000Y-139296000D02*
X190146800Y-139296000D01*
X189502800Y-122396000D02*
X184226200Y-117119400D01*
X184226200Y-117119400D02*
X180340000Y-117119400D01*
X180340000Y-117119400D02*
X178714400Y-118745000D01*
X178714400Y-118745000D02*
X178714400Y-120735600D01*
X178714400Y-120735600D02*
X176510000Y-122940000D01*
X191204000Y-122396000D02*
X189502800Y-122396000D01*
X191204000Y-122359000D02*
X197154800Y-116408200D01*
X191204000Y-122396000D02*
X191204000Y-122359000D01*
X104317800Y-131826000D02*
X108585000Y-127558800D01*
X108585000Y-127558800D02*
X108585000Y-124053600D01*
X108585000Y-124053600D02*
X111709200Y-120929400D01*
X115506500Y-143941800D02*
X115404900Y-143840200D01*
X115404900Y-143840200D02*
X113436400Y-143840200D01*
X113436400Y-143840200D02*
X112102900Y-145173700D01*
X112102900Y-145173700D02*
X104546400Y-145173700D01*
X104546400Y-145173700D02*
X103886000Y-144513300D01*
X103886000Y-144513300D02*
X103886000Y-140538200D01*
X118021100Y-143941800D02*
X120434100Y-146354800D01*
X120434100Y-146354800D02*
X132486400Y-146354800D01*
X115506500Y-143941800D02*
X118021100Y-143941800D01*
X143217900Y-109880400D02*
X132905500Y-120192800D01*
X132905500Y-120192800D02*
X121894600Y-120192800D01*
X121894600Y-120192800D02*
X110642400Y-131445000D01*
X133502400Y-126225300D02*
X133502400Y-128358900D01*
X135445500Y-124282200D02*
X133502400Y-126225300D01*
X153327100Y-124282200D02*
X135445500Y-124282200D01*
X153390600Y-124218700D02*
X153327100Y-124282200D01*
X131711700Y-131826000D02*
X131711700Y-129971800D01*
X135064500Y-135178800D02*
X131711700Y-131826000D01*
X161493200Y-117182900D02*
X161823400Y-117513100D01*
X161823400Y-117513100D02*
X161823400Y-119354600D01*
X161823400Y-119354600D02*
X164731700Y-122262900D01*
X164731700Y-122262900D02*
X164731700Y-135623300D01*
X164731700Y-135623300D02*
X164668200Y-135559800D01*
X164668200Y-135559800D02*
X145618200Y-135559800D01*
X145618200Y-135559800D02*
X144780000Y-134721600D01*
X144780000Y-134721600D02*
X144780000Y-127127000D01*
X165468300Y-126619000D02*
X165239702Y-126390402D01*
X165239702Y-126390402D02*
X165239702Y-121259602D01*
X165239702Y-121259602D02*
X164172900Y-120192800D01*
X165468300Y-136512300D02*
X165468300Y-126619000D01*
X127457200Y-143662400D02*
X134264400Y-136855200D01*
X134264400Y-136855200D02*
X137845800Y-136855200D01*
X137845800Y-136855200D02*
X138531600Y-136169400D01*
X138531600Y-136169400D02*
X138531600Y-128524000D01*
X110528100Y-120281700D02*
X111518700Y-119291100D01*
X111518700Y-119291100D02*
X113347500Y-119291100D01*
X113347500Y-119291100D02*
X114300000Y-120243600D01*
X105371900Y-120281700D02*
X110528100Y-120281700D01*
X108178600Y-143497300D02*
X121488200Y-130187700D01*
X121488200Y-130187700D02*
X121488200Y-122148600D01*
X125510000Y-90690000D02*
X122580000Y-90690000D01*
X128200000Y-88000000D02*
X125510000Y-90690000D01*
X134100000Y-88000000D02*
X128200000Y-88000000D01*
X135100000Y-87000000D02*
X134100000Y-88000000D01*
X135100000Y-83100000D02*
X135100000Y-87000000D01*
X135200000Y-83000000D02*
X135100000Y-83100000D01*
X120040000Y-90690000D02*
X120040000Y-91040000D01*
X134340600Y-88700000D02*
X134347600Y-88700000D01*
X128900000Y-88700000D02*
X134340600Y-88700000D01*
X125500000Y-92100000D02*
X128900000Y-88700000D01*
X121100000Y-92100000D02*
X125500000Y-92100000D01*
X120040000Y-91040000D02*
X121100000Y-92100000D01*
X134540600Y-88700000D02*
X136245600Y-86995000D01*
X136245600Y-86995000D02*
X136245600Y-80848200D01*
X136245600Y-80848200D02*
X148493800Y-68600000D01*
X148493800Y-68600000D02*
X154447600Y-68600000D01*
X174200000Y-64900000D02*
X176410000Y-64900000D01*
X154447600Y-68600000D02*
X170500000Y-68600000D01*
X170500000Y-68600000D02*
X174200000Y-64900000D01*
X134340600Y-88700000D02*
X134540600Y-88700000D01*
X114400000Y-94000000D02*
X117500000Y-90900000D01*
X117500000Y-90900000D02*
X117500000Y-90690000D01*
X167688500Y-80660000D02*
X166814500Y-81534000D01*
X166814500Y-81534000D02*
X166814500Y-100424500D01*
X166814500Y-100424500D02*
X168790000Y-102400000D01*
X168690000Y-80660000D02*
X167688500Y-80660000D01*
X154609800Y-90068400D02*
X154686000Y-90144600D01*
X154686000Y-90144600D02*
X161594800Y-90144600D01*
X161594800Y-90144600D02*
X162788600Y-91338400D01*
X154432000Y-93878400D02*
X162788600Y-93878400D01*
X153568400Y-93014800D02*
X154432000Y-93878400D01*
X153568400Y-83515200D02*
X153568400Y-93014800D01*
X153720800Y-83362800D02*
X153568400Y-83515200D01*
X158699200Y-83362800D02*
X153720800Y-83362800D01*
X167360600Y-118694200D02*
X167360600Y-136870600D01*
X167360600Y-136870600D02*
X169190000Y-138700000D01*
X168194800Y-117860000D02*
X167360600Y-118694200D01*
X168890000Y-117860000D02*
X168194800Y-117860000D01*
X155270200Y-96418400D02*
X152222200Y-93370400D01*
X152222200Y-93370400D02*
X152222200Y-85775800D01*
X162788600Y-96418400D02*
X155270200Y-96418400D01*
X150825200Y-87782400D02*
X150774400Y-87833200D01*
X150774400Y-87833200D02*
X150774400Y-93040200D01*
X150774400Y-93040200D02*
X156692600Y-98958400D01*
X156692600Y-98958400D02*
X162788600Y-98958400D01*
X105870000Y-92000000D02*
X105870000Y-90640000D01*
X105870000Y-90640000D02*
X103330000Y-88100000D01*
X105870000Y-92000000D02*
X105870000Y-95830000D01*
X105870000Y-95830000D02*
X105770000Y-95930000D01*
X105870000Y-95830000D02*
X105770000Y-95930000D01*
X105870000Y-88100000D02*
X106600000Y-88100000D01*
X106600000Y-88100000D02*
X108200000Y-89700000D01*
X108200000Y-89700000D02*
X108200000Y-96040000D01*
X108200000Y-96040000D02*
X105770000Y-98470000D01*
X131870000Y-101310000D02*
X131870000Y-100831200D01*
X131870000Y-100831200D02*
X130606800Y-99568000D01*
X130606800Y-99568000D02*
X130606800Y-93116400D01*
X130606800Y-93116400D02*
X130606800Y-89306400D01*
X130606800Y-89306400D02*
X130632200Y-89281000D01*
X130632200Y-89281000D02*
X135039100Y-89395300D01*
X126517400Y-93522800D02*
X126517400Y-92608400D01*
X126517400Y-98958400D02*
X126517400Y-93522800D01*
X128869000Y-101310000D02*
X126517400Y-98958400D01*
X129330000Y-101310000D02*
X128869000Y-101310000D01*
X127457200Y-97459800D02*
X127457200Y-95148400D01*
X127457200Y-97459800D02*
X128767400Y-98770000D01*
X129330000Y-98770000D02*
X128767400Y-98770000D01*
X145135600Y-105994200D02*
X145135600Y-108102400D01*
X145135600Y-110312200D02*
X145135600Y-113080800D01*
X145161000Y-110286800D02*
X145135600Y-110312200D01*
X145135600Y-99745800D02*
X140589000Y-99745800D01*
X140589000Y-99745800D02*
X138887200Y-98044000D01*
X145161000Y-78752800D02*
X145161000Y-87782400D01*
X145161000Y-78752800D02*
X144983200Y-78575000D01*
X102500000Y-67270000D02*
X107960800Y-67270000D01*
X110312200Y-69621400D02*
X136753600Y-69621400D01*
X107960800Y-67270000D02*
X110312200Y-69621400D01*
X145135600Y-105968800D02*
X145135600Y-105994200D01*
X145135600Y-99415600D02*
X145135600Y-93192600D01*
X145135600Y-105994200D02*
X145135600Y-99745800D01*
X145135600Y-99745800D02*
X145135600Y-99415600D01*
X145135600Y-99415600D02*
X145135600Y-99644200D01*
X151638000Y-99288600D02*
X155498800Y-103149400D01*
X155498800Y-103149400D02*
X161899600Y-103149400D01*
X161899600Y-103149400D02*
X162788600Y-104038400D01*
X144246600Y-92329000D02*
X144246600Y-98729800D01*
X144221200Y-92303600D02*
X144246600Y-92329000D01*
X140182600Y-92659200D02*
X140182600Y-90347800D01*
X140106400Y-92735400D02*
X140182600Y-92659200D01*
X134048500Y-90462100D02*
X134048500Y-91211400D01*
X135763000Y-92925900D02*
X137375900Y-92925900D01*
X134048500Y-91211400D02*
X135763000Y-92925900D01*
X139039600Y-90639900D02*
X139039600Y-95554800D01*
X138976100Y-90576400D02*
X139039600Y-90639900D01*
X135369300Y-93929200D02*
X137248900Y-93929200D01*
X134658100Y-94640400D02*
X135369300Y-93929200D01*
X134620000Y-94640400D02*
X134658100Y-94640400D01*
X141249400Y-96037400D02*
X141249400Y-93929200D01*
X140500100Y-96786700D02*
X141249400Y-96037400D01*
X138785600Y-96786700D02*
X140500100Y-96786700D01*
X137388600Y-95389700D02*
X138785600Y-96786700D01*
X137388600Y-94068900D02*
X137388600Y-95389700D01*
X137248900Y-93929200D02*
X137388600Y-94068900D01*
X141338300Y-93840300D02*
X141338300Y-87922100D01*
X141249400Y-93929200D02*
X141338300Y-93840300D01*
X141338300Y-77330300D02*
X141338300Y-87922100D01*
X133731000Y-95529400D02*
X134620000Y-94640400D01*
X134620000Y-94640400D02*
X134645400Y-94615000D01*
X133731000Y-104038400D02*
X133731000Y-95529400D01*
X136880600Y-107188000D02*
X133731000Y-104038400D01*
X143738600Y-107188000D02*
X136880600Y-107188000D01*
X143764000Y-107213400D02*
X143738600Y-107188000D01*
X144475200Y-74193400D02*
X141338300Y-77330300D01*
X141338300Y-77330300D02*
X141325600Y-77343000D01*
X134734300Y-103009700D02*
X134734300Y-96304100D01*
X134734300Y-96304100D02*
X134772400Y-96266000D01*
X134721600Y-102997000D02*
X134734300Y-103009700D01*
X134734300Y-103009700D02*
X134772400Y-103047800D01*
X134772400Y-103047800D02*
X143916400Y-103047800D01*
X135722600Y-95239600D02*
X135737600Y-95254600D01*
X135737600Y-95254600D02*
X135737600Y-101574600D01*
X135737600Y-101574600D02*
X135864600Y-101701600D01*
X135864600Y-101701600D02*
X143992600Y-101701600D01*
X128346200Y-106527600D02*
X129768600Y-107950000D01*
X129768600Y-107950000D02*
X142646400Y-107950000D01*
X142646400Y-107950000D02*
X144068800Y-109372400D01*
X144068800Y-109372400D02*
X146634200Y-109372400D01*
X146634200Y-109372400D02*
X147015200Y-109753400D01*
X147015200Y-109753400D02*
X147015200Y-116459000D01*
X147015200Y-116459000D02*
X152400000Y-121843800D01*
X146024600Y-73482200D02*
X146024600Y-88849200D01*
X147370800Y-72136000D02*
X146024600Y-73482200D01*
X150418800Y-72136000D02*
X147370800Y-72136000D01*
X150596600Y-72313800D02*
X150418800Y-72136000D01*
X158369000Y-108432600D02*
X159461200Y-107340400D01*
X152857200Y-108432600D02*
X158369000Y-108432600D01*
X150495000Y-110794800D02*
X152857200Y-108432600D01*
X150596600Y-96494600D02*
X155600400Y-101498400D01*
X155600400Y-101498400D02*
X162788600Y-101498400D01*
X154965400Y-127330200D02*
X155067000Y-127431800D01*
X155067000Y-127431800D02*
X161442400Y-127431800D01*
X161442400Y-127431800D02*
X161874200Y-127863600D01*
X161874200Y-127863600D02*
X161874200Y-132511800D01*
X161874200Y-132511800D02*
X160604200Y-133781800D01*
X155930600Y-131241800D02*
X154051000Y-129362200D01*
X154051000Y-129362200D02*
X150190200Y-129362200D01*
X160604200Y-131241800D02*
X155930600Y-131241800D01*
X149555200Y-73456800D02*
X149529800Y-73431400D01*
X149529800Y-73431400D02*
X147980400Y-73431400D01*
X147980400Y-73431400D02*
X148031200Y-73482200D01*
X148031200Y-73482200D02*
X148031200Y-116103400D01*
X148031200Y-116103400D02*
X152527000Y-120599200D01*
X152527000Y-120599200D02*
X158877000Y-120599200D01*
X158877000Y-120599200D02*
X159766000Y-121488200D01*
X154965400Y-128701800D02*
X154381200Y-128117600D01*
X154381200Y-128117600D02*
X150164800Y-128117600D01*
X160604200Y-128701800D02*
X154965400Y-128701800D01*
X149682200Y-74726800D02*
X149555200Y-74599800D01*
X148767800Y-75184000D02*
X148767800Y-112776000D01*
X148767800Y-75057000D02*
X148767800Y-75184000D01*
X148767800Y-112776000D02*
X155803600Y-119811800D01*
X155803600Y-119811800D02*
X159486600Y-119811800D01*
X159486600Y-119811800D02*
X161874200Y-122199400D01*
X161874200Y-122199400D02*
X161874200Y-124891800D01*
X161874200Y-124891800D02*
X163144200Y-126161800D01*
X148767800Y-74777600D02*
X148818600Y-74726800D01*
X148818600Y-74726800D02*
X149682200Y-74726800D01*
X148767800Y-75184000D02*
X148767800Y-74777600D01*
X154813000Y-126161800D02*
X154127200Y-126847600D01*
X154127200Y-126847600D02*
X150266400Y-126847600D01*
X160604200Y-126161800D02*
X154813000Y-126161800D01*
X163144200Y-122250200D02*
X160147000Y-119253000D01*
X160147000Y-119253000D02*
X156210000Y-119253000D01*
X156210000Y-119253000D02*
X149606000Y-112649000D01*
X149606000Y-112649000D02*
X149606000Y-76073000D01*
X163144200Y-123621800D02*
X163144200Y-122250200D01*
X156006800Y-123621800D02*
X154127200Y-125501400D01*
X154127200Y-125501400D02*
X150317200Y-125501400D01*
X160604200Y-123621800D02*
X156006800Y-123621800D01*
G36*
X100200000Y-50399799D02*
X100100000Y-50400000D01*
X100200000Y-50300000D01*
X100200000Y-50399799D01*
X100200000Y-50399799D01*
G37*
X100200000Y-50399799D02*
X100100000Y-50400000D01*
X100200000Y-50300000D01*
X100200000Y-50399799D01*
G36*
X129477000Y-96357000D02*
X129457000Y-96357000D01*
X129457000Y-96377000D01*
X129203000Y-96377000D01*
X129203000Y-96357000D01*
X129183000Y-96357000D01*
X129183000Y-96103000D01*
X129203000Y-96103000D01*
X129203000Y-95023817D01*
X129203000Y-94896183D01*
X129203000Y-93817000D01*
X127995531Y-93817000D01*
X127875032Y-94049027D01*
X127935556Y-94178165D01*
X127672868Y-94069087D01*
X127279400Y-94068744D01*
X127279400Y-93522800D01*
X127279400Y-93373041D01*
X127432022Y-93220686D01*
X127596713Y-92824068D01*
X127597087Y-92394616D01*
X127433089Y-91997711D01*
X127129686Y-91693778D01*
X127026640Y-91650989D01*
X127899537Y-90778092D01*
X127831400Y-91120641D01*
X127831400Y-91179359D01*
X127945474Y-91752848D01*
X128270330Y-92239029D01*
X128541160Y-92419992D01*
X128123179Y-92801510D01*
X127875032Y-93330973D01*
X127995531Y-93563000D01*
X129203000Y-93563000D01*
X129203000Y-93543000D01*
X129457000Y-93543000D01*
X129457000Y-93563000D01*
X129477000Y-93563000D01*
X129477000Y-93817000D01*
X129457000Y-93817000D01*
X129457000Y-94896183D01*
X129457000Y-95023817D01*
X129457000Y-96103000D01*
X129477000Y-96103000D01*
X129477000Y-96357000D01*
X129477000Y-96357000D01*
G37*
X129477000Y-96357000D02*
X129457000Y-96357000D01*
X129457000Y-96377000D01*
X129203000Y-96377000D01*
X129203000Y-96357000D01*
X129183000Y-96357000D01*
X129183000Y-96103000D01*
X129203000Y-96103000D01*
X129203000Y-95023817D01*
X129203000Y-94896183D01*
X129203000Y-93817000D01*
X127995531Y-93817000D01*
X127875032Y-94049027D01*
X127935556Y-94178165D01*
X127672868Y-94069087D01*
X127279400Y-94068744D01*
X127279400Y-93522800D01*
X127279400Y-93373041D01*
X127432022Y-93220686D01*
X127596713Y-92824068D01*
X127597087Y-92394616D01*
X127433089Y-91997711D01*
X127129686Y-91693778D01*
X127026640Y-91650989D01*
X127899537Y-90778092D01*
X127831400Y-91120641D01*
X127831400Y-91179359D01*
X127945474Y-91752848D01*
X128270330Y-92239029D01*
X128541160Y-92419992D01*
X128123179Y-92801510D01*
X127875032Y-93330973D01*
X127995531Y-93563000D01*
X129203000Y-93563000D01*
X129203000Y-93543000D01*
X129457000Y-93543000D01*
X129457000Y-93563000D01*
X129477000Y-93563000D01*
X129477000Y-93817000D01*
X129457000Y-93817000D01*
X129457000Y-94896183D01*
X129457000Y-95023817D01*
X129457000Y-96103000D01*
X129477000Y-96103000D01*
X129477000Y-96357000D01*
G36*
X130800526Y-102384356D02*
X130646701Y-102448073D01*
X130468073Y-102626702D01*
X130403736Y-102782023D01*
X130389670Y-102760971D01*
X130118827Y-102580000D01*
X130389670Y-102399029D01*
X130600000Y-102084248D01*
X130800526Y-102384356D01*
X130800526Y-102384356D01*
G37*
X130800526Y-102384356D02*
X130646701Y-102448073D01*
X130468073Y-102626702D01*
X130403736Y-102782023D01*
X130389670Y-102760971D01*
X130118827Y-102580000D01*
X130389670Y-102399029D01*
X130600000Y-102084248D01*
X130800526Y-102384356D01*
G36*
X137138000Y-74592369D02*
X133293084Y-78437285D01*
X133130547Y-78369794D01*
X132480306Y-78369226D01*
X131879345Y-78617538D01*
X131419154Y-79076927D01*
X131169794Y-79677453D01*
X131169226Y-80327694D01*
X131417538Y-80928655D01*
X131826169Y-81338000D01*
X124200000Y-81338000D01*
X123908395Y-81396004D01*
X123661185Y-81561185D01*
X120292370Y-84930000D01*
X120157669Y-84930000D01*
X120090462Y-84767345D01*
X119631073Y-84307154D01*
X119030547Y-84057794D01*
X118380306Y-84057226D01*
X117779345Y-84305538D01*
X117319154Y-84764927D01*
X117069794Y-85365453D01*
X117069226Y-86015694D01*
X117317538Y-86616655D01*
X117438671Y-86738000D01*
X115915630Y-86738000D01*
X115862000Y-86684369D01*
X115862000Y-84023630D01*
X118214915Y-81670714D01*
X118377453Y-81738206D01*
X119027694Y-81738774D01*
X119628655Y-81490462D01*
X120088846Y-81031073D01*
X120338206Y-80430547D01*
X120338774Y-79780306D01*
X120090462Y-79179345D01*
X119631073Y-78719154D01*
X119030547Y-78469794D01*
X118380306Y-78469226D01*
X117779345Y-78717538D01*
X117319154Y-79176927D01*
X117069794Y-79777453D01*
X117069226Y-80427694D01*
X117137482Y-80592886D01*
X114561185Y-83169185D01*
X114396004Y-83416395D01*
X114338000Y-83708000D01*
X114338000Y-87000000D01*
X114396004Y-87291605D01*
X114561185Y-87538815D01*
X115061185Y-88038816D01*
X115209376Y-88137834D01*
X115308395Y-88203996D01*
X115308396Y-88203996D01*
X115600000Y-88262000D01*
X126300000Y-88262000D01*
X126300000Y-88261999D01*
X126591604Y-88203996D01*
X126591605Y-88203996D01*
X126838815Y-88038815D01*
X128523630Y-86354000D01*
X131350330Y-86354000D01*
X131417538Y-86516655D01*
X131876927Y-86976846D01*
X132477453Y-87226206D01*
X133127694Y-87226774D01*
X133728655Y-86978462D01*
X134188846Y-86519073D01*
X134338000Y-86159870D01*
X134338000Y-86684369D01*
X133784369Y-87238000D01*
X128200000Y-87238000D01*
X127908395Y-87296004D01*
X127661184Y-87461185D01*
X125194369Y-89928000D01*
X123913500Y-89928000D01*
X123913500Y-89865191D01*
X123816827Y-89631802D01*
X123638199Y-89453173D01*
X123404810Y-89356500D01*
X123152191Y-89356500D01*
X121755191Y-89356500D01*
X121521802Y-89453173D01*
X121343173Y-89631801D01*
X121246500Y-89865190D01*
X121246500Y-90117809D01*
X121246500Y-90117990D01*
X121171146Y-89935620D01*
X120796353Y-89560173D01*
X120306413Y-89356732D01*
X119775914Y-89356269D01*
X119285620Y-89558854D01*
X118910173Y-89933647D01*
X118769906Y-90271446D01*
X118631146Y-89935620D01*
X118256353Y-89560173D01*
X117766413Y-89356732D01*
X117235914Y-89356269D01*
X116745620Y-89558854D01*
X116370173Y-89933647D01*
X116229906Y-90271446D01*
X116091146Y-89935620D01*
X115716353Y-89560173D01*
X115226413Y-89356732D01*
X114695914Y-89356269D01*
X114205620Y-89558854D01*
X113830173Y-89933647D01*
X113689906Y-90271446D01*
X113551146Y-89935620D01*
X113176353Y-89560173D01*
X112686413Y-89356732D01*
X112155914Y-89356269D01*
X111665620Y-89558854D01*
X111290173Y-89933647D01*
X111086732Y-90423587D01*
X111086269Y-90954086D01*
X111288854Y-91444380D01*
X111663647Y-91819827D01*
X112153587Y-92023268D01*
X112684086Y-92023731D01*
X113174380Y-91821146D01*
X113549827Y-91446353D01*
X113690093Y-91108553D01*
X113828854Y-91444380D01*
X114203647Y-91819827D01*
X114693587Y-92023268D01*
X115224086Y-92023731D01*
X115351134Y-91971235D01*
X114401869Y-92920500D01*
X114186216Y-92920313D01*
X113789311Y-93084311D01*
X113485378Y-93387714D01*
X113320687Y-93784332D01*
X113320313Y-94213784D01*
X113484311Y-94610689D01*
X113787714Y-94914622D01*
X114184332Y-95079313D01*
X114613784Y-95079687D01*
X115010689Y-94915689D01*
X115314622Y-94612286D01*
X115479313Y-94215668D01*
X115479502Y-93998127D01*
X117454169Y-92023460D01*
X117764086Y-92023731D01*
X118254380Y-91821146D01*
X118629827Y-91446353D01*
X118770093Y-91108553D01*
X118908854Y-91444380D01*
X119283647Y-91819827D01*
X119773587Y-92023268D01*
X119945787Y-92023418D01*
X120561184Y-92638815D01*
X120561185Y-92638815D01*
X120808395Y-92803996D01*
X121100000Y-92862000D01*
X125454164Y-92862000D01*
X125601711Y-93219089D01*
X125755400Y-93373046D01*
X125755400Y-93522800D01*
X125755400Y-98958400D01*
X125813404Y-99250005D01*
X125978585Y-99497215D01*
X127834049Y-101352680D01*
X127945474Y-101912848D01*
X128270330Y-102399029D01*
X128541172Y-102580000D01*
X128270330Y-102760971D01*
X127945474Y-103247152D01*
X127831400Y-103820641D01*
X127831400Y-103879359D01*
X127945474Y-104452848D01*
X128270330Y-104939029D01*
X128756511Y-105263885D01*
X129330000Y-105377959D01*
X129903489Y-105263885D01*
X130389670Y-104939029D01*
X130403736Y-104917976D01*
X130468073Y-105073298D01*
X130646701Y-105251927D01*
X130880090Y-105348600D01*
X131132709Y-105348600D01*
X131584250Y-105348600D01*
X131743000Y-105189850D01*
X131743000Y-103977000D01*
X131723000Y-103977000D01*
X131723000Y-103723000D01*
X131743000Y-103723000D01*
X131743000Y-103703000D01*
X131997000Y-103703000D01*
X131997000Y-103723000D01*
X132017000Y-103723000D01*
X132017000Y-103977000D01*
X131997000Y-103977000D01*
X131997000Y-105189850D01*
X132155750Y-105348600D01*
X132607291Y-105348600D01*
X132859910Y-105348600D01*
X133093299Y-105251927D01*
X133271927Y-105073298D01*
X133368600Y-104839909D01*
X133368600Y-104753630D01*
X135802969Y-107188000D01*
X130084230Y-107188000D01*
X129425699Y-106529468D01*
X129425887Y-106313816D01*
X129261889Y-105916911D01*
X128958486Y-105612978D01*
X128561868Y-105448287D01*
X128132416Y-105447913D01*
X127735511Y-105611911D01*
X127431578Y-105915314D01*
X127266887Y-106311932D01*
X127266513Y-106741384D01*
X127430511Y-107138289D01*
X127733914Y-107442222D01*
X128130532Y-107606913D01*
X128348072Y-107607102D01*
X129229784Y-108488815D01*
X129229785Y-108488815D01*
X129468769Y-108648500D01*
X124572430Y-108648500D01*
X123982014Y-108058084D01*
X124049506Y-107895547D01*
X124050074Y-107245306D01*
X123925927Y-106944847D01*
X123925927Y-98502520D01*
X123897148Y-97972801D01*
X123749800Y-97617071D01*
X123514188Y-97555417D01*
X123334583Y-97735022D01*
X123334583Y-97375812D01*
X123272929Y-97140200D01*
X122772520Y-96964073D01*
X122242801Y-96992852D01*
X121887071Y-97140200D01*
X121825417Y-97375812D01*
X122580000Y-98130395D01*
X123334583Y-97375812D01*
X123334583Y-97735022D01*
X122759605Y-98310000D01*
X123514188Y-99064583D01*
X123749800Y-99002929D01*
X123925927Y-98502520D01*
X123925927Y-106944847D01*
X123801762Y-106644345D01*
X123342373Y-106184154D01*
X123334583Y-106180919D01*
X123334583Y-99244188D01*
X122580000Y-98489605D01*
X122400395Y-98669210D01*
X122400395Y-98310000D01*
X121645812Y-97555417D01*
X121410200Y-97617071D01*
X121311916Y-97896311D01*
X121171146Y-97555620D01*
X120796353Y-97180173D01*
X120306413Y-96976732D01*
X119775914Y-96976269D01*
X119285620Y-97178854D01*
X118910173Y-97553647D01*
X118769906Y-97891446D01*
X118631146Y-97555620D01*
X118256353Y-97180173D01*
X117766413Y-96976732D01*
X117235914Y-96976269D01*
X116745620Y-97178854D01*
X116370173Y-97553647D01*
X116229906Y-97891446D01*
X116091146Y-97555620D01*
X115716353Y-97180173D01*
X115226413Y-96976732D01*
X114695914Y-96976269D01*
X114205620Y-97178854D01*
X113830173Y-97553647D01*
X113689906Y-97891446D01*
X113551146Y-97555620D01*
X113176353Y-97180173D01*
X112686413Y-96976732D01*
X112155914Y-96976269D01*
X111665620Y-97178854D01*
X111290173Y-97553647D01*
X111086732Y-98043587D01*
X111086269Y-98574086D01*
X111288854Y-99064380D01*
X111663647Y-99439827D01*
X112153587Y-99643268D01*
X112684086Y-99643731D01*
X113174380Y-99441146D01*
X113549827Y-99066353D01*
X113690093Y-98728553D01*
X113828854Y-99064380D01*
X114203647Y-99439827D01*
X114693587Y-99643268D01*
X115224086Y-99643731D01*
X115714380Y-99441146D01*
X116089827Y-99066353D01*
X116230093Y-98728553D01*
X116368854Y-99064380D01*
X116743647Y-99439827D01*
X117233587Y-99643268D01*
X117764086Y-99643731D01*
X118254380Y-99441146D01*
X118629827Y-99066353D01*
X118770093Y-98728553D01*
X118908854Y-99064380D01*
X119283647Y-99439827D01*
X119773587Y-99643268D01*
X120304086Y-99643731D01*
X120794380Y-99441146D01*
X121169827Y-99066353D01*
X121303313Y-98744881D01*
X121410200Y-99002929D01*
X121645812Y-99064583D01*
X122400395Y-98310000D01*
X122400395Y-98669210D01*
X121825417Y-99244188D01*
X121887071Y-99479800D01*
X122387480Y-99655927D01*
X122917199Y-99627148D01*
X123272929Y-99479800D01*
X123334583Y-99244188D01*
X123334583Y-106180919D01*
X122741847Y-105934794D01*
X122091606Y-105934226D01*
X121926413Y-106002482D01*
X118509115Y-102585185D01*
X118261905Y-102420004D01*
X117970300Y-102362000D01*
X113853630Y-102362000D01*
X110490000Y-98998369D01*
X110490000Y-84963000D01*
X110431996Y-84671395D01*
X110266815Y-84424185D01*
X110266815Y-84424184D01*
X107172340Y-81329709D01*
X107172340Y-76152869D01*
X107145553Y-75572465D01*
X106974976Y-75160656D01*
X106726215Y-75083390D01*
X106546610Y-75262995D01*
X106546610Y-74903785D01*
X106469344Y-74655024D01*
X105922869Y-74457660D01*
X105342465Y-74484447D01*
X104930656Y-74655024D01*
X104853390Y-74903785D01*
X105700000Y-75750395D01*
X106546610Y-74903785D01*
X106546610Y-75262995D01*
X105879605Y-75930000D01*
X106726215Y-76776610D01*
X106974976Y-76699344D01*
X107172340Y-76152869D01*
X107172340Y-81329709D01*
X106462000Y-80619369D01*
X106462000Y-79930500D01*
X106651809Y-79930500D01*
X106885198Y-79833827D01*
X107063827Y-79655199D01*
X107160500Y-79421810D01*
X107160500Y-79169191D01*
X107160500Y-77518191D01*
X107063827Y-77284802D01*
X106885199Y-77106173D01*
X106651810Y-77009500D01*
X106530059Y-77009500D01*
X106546610Y-76956215D01*
X105700000Y-76109605D01*
X105685857Y-76123747D01*
X105506252Y-75944142D01*
X105520395Y-75930000D01*
X104673785Y-75083390D01*
X104425024Y-75160656D01*
X104227660Y-75707131D01*
X104254447Y-76287535D01*
X104388289Y-76610658D01*
X103262000Y-75484369D01*
X103262000Y-71649630D01*
X104451185Y-72838816D01*
X104599376Y-72937834D01*
X104698395Y-73003996D01*
X104698396Y-73003996D01*
X104990000Y-73062000D01*
X120000000Y-73062000D01*
X120000000Y-73061999D01*
X120291604Y-73003996D01*
X120291605Y-73003996D01*
X120538815Y-72838815D01*
X121615630Y-71762000D01*
X131864193Y-71762000D01*
X131884311Y-71810689D01*
X132187714Y-72114622D01*
X132584332Y-72279313D01*
X133013784Y-72279687D01*
X133410689Y-72115689D01*
X133714622Y-71812286D01*
X133879313Y-71415668D01*
X133879687Y-70986216D01*
X133715689Y-70589311D01*
X133510137Y-70383400D01*
X135988958Y-70383400D01*
X136141314Y-70536022D01*
X136537932Y-70700713D01*
X136967384Y-70701087D01*
X137138000Y-70630589D01*
X137138000Y-74592369D01*
X137138000Y-74592369D01*
G37*
X137138000Y-74592369D02*
X133293084Y-78437285D01*
X133130547Y-78369794D01*
X132480306Y-78369226D01*
X131879345Y-78617538D01*
X131419154Y-79076927D01*
X131169794Y-79677453D01*
X131169226Y-80327694D01*
X131417538Y-80928655D01*
X131826169Y-81338000D01*
X124200000Y-81338000D01*
X123908395Y-81396004D01*
X123661185Y-81561185D01*
X120292370Y-84930000D01*
X120157669Y-84930000D01*
X120090462Y-84767345D01*
X119631073Y-84307154D01*
X119030547Y-84057794D01*
X118380306Y-84057226D01*
X117779345Y-84305538D01*
X117319154Y-84764927D01*
X117069794Y-85365453D01*
X117069226Y-86015694D01*
X117317538Y-86616655D01*
X117438671Y-86738000D01*
X115915630Y-86738000D01*
X115862000Y-86684369D01*
X115862000Y-84023630D01*
X118214915Y-81670714D01*
X118377453Y-81738206D01*
X119027694Y-81738774D01*
X119628655Y-81490462D01*
X120088846Y-81031073D01*
X120338206Y-80430547D01*
X120338774Y-79780306D01*
X120090462Y-79179345D01*
X119631073Y-78719154D01*
X119030547Y-78469794D01*
X118380306Y-78469226D01*
X117779345Y-78717538D01*
X117319154Y-79176927D01*
X117069794Y-79777453D01*
X117069226Y-80427694D01*
X117137482Y-80592886D01*
X114561185Y-83169185D01*
X114396004Y-83416395D01*
X114338000Y-83708000D01*
X114338000Y-87000000D01*
X114396004Y-87291605D01*
X114561185Y-87538815D01*
X115061185Y-88038816D01*
X115209376Y-88137834D01*
X115308395Y-88203996D01*
X115308396Y-88203996D01*
X115600000Y-88262000D01*
X126300000Y-88262000D01*
X126300000Y-88261999D01*
X126591604Y-88203996D01*
X126591605Y-88203996D01*
X126838815Y-88038815D01*
X128523630Y-86354000D01*
X131350330Y-86354000D01*
X131417538Y-86516655D01*
X131876927Y-86976846D01*
X132477453Y-87226206D01*
X133127694Y-87226774D01*
X133728655Y-86978462D01*
X134188846Y-86519073D01*
X134338000Y-86159870D01*
X134338000Y-86684369D01*
X133784369Y-87238000D01*
X128200000Y-87238000D01*
X127908395Y-87296004D01*
X127661184Y-87461185D01*
X125194369Y-89928000D01*
X123913500Y-89928000D01*
X123913500Y-89865191D01*
X123816827Y-89631802D01*
X123638199Y-89453173D01*
X123404810Y-89356500D01*
X123152191Y-89356500D01*
X121755191Y-89356500D01*
X121521802Y-89453173D01*
X121343173Y-89631801D01*
X121246500Y-89865190D01*
X121246500Y-90117809D01*
X121246500Y-90117990D01*
X121171146Y-89935620D01*
X120796353Y-89560173D01*
X120306413Y-89356732D01*
X119775914Y-89356269D01*
X119285620Y-89558854D01*
X118910173Y-89933647D01*
X118769906Y-90271446D01*
X118631146Y-89935620D01*
X118256353Y-89560173D01*
X117766413Y-89356732D01*
X117235914Y-89356269D01*
X116745620Y-89558854D01*
X116370173Y-89933647D01*
X116229906Y-90271446D01*
X116091146Y-89935620D01*
X115716353Y-89560173D01*
X115226413Y-89356732D01*
X114695914Y-89356269D01*
X114205620Y-89558854D01*
X113830173Y-89933647D01*
X113689906Y-90271446D01*
X113551146Y-89935620D01*
X113176353Y-89560173D01*
X112686413Y-89356732D01*
X112155914Y-89356269D01*
X111665620Y-89558854D01*
X111290173Y-89933647D01*
X111086732Y-90423587D01*
X111086269Y-90954086D01*
X111288854Y-91444380D01*
X111663647Y-91819827D01*
X112153587Y-92023268D01*
X112684086Y-92023731D01*
X113174380Y-91821146D01*
X113549827Y-91446353D01*
X113690093Y-91108553D01*
X113828854Y-91444380D01*
X114203647Y-91819827D01*
X114693587Y-92023268D01*
X115224086Y-92023731D01*
X115351134Y-91971235D01*
X114401869Y-92920500D01*
X114186216Y-92920313D01*
X113789311Y-93084311D01*
X113485378Y-93387714D01*
X113320687Y-93784332D01*
X113320313Y-94213784D01*
X113484311Y-94610689D01*
X113787714Y-94914622D01*
X114184332Y-95079313D01*
X114613784Y-95079687D01*
X115010689Y-94915689D01*
X115314622Y-94612286D01*
X115479313Y-94215668D01*
X115479502Y-93998127D01*
X117454169Y-92023460D01*
X117764086Y-92023731D01*
X118254380Y-91821146D01*
X118629827Y-91446353D01*
X118770093Y-91108553D01*
X118908854Y-91444380D01*
X119283647Y-91819827D01*
X119773587Y-92023268D01*
X119945787Y-92023418D01*
X120561184Y-92638815D01*
X120561185Y-92638815D01*
X120808395Y-92803996D01*
X121100000Y-92862000D01*
X125454164Y-92862000D01*
X125601711Y-93219089D01*
X125755400Y-93373046D01*
X125755400Y-93522800D01*
X125755400Y-98958400D01*
X125813404Y-99250005D01*
X125978585Y-99497215D01*
X127834049Y-101352680D01*
X127945474Y-101912848D01*
X128270330Y-102399029D01*
X128541172Y-102580000D01*
X128270330Y-102760971D01*
X127945474Y-103247152D01*
X127831400Y-103820641D01*
X127831400Y-103879359D01*
X127945474Y-104452848D01*
X128270330Y-104939029D01*
X128756511Y-105263885D01*
X129330000Y-105377959D01*
X129903489Y-105263885D01*
X130389670Y-104939029D01*
X130403736Y-104917976D01*
X130468073Y-105073298D01*
X130646701Y-105251927D01*
X130880090Y-105348600D01*
X131132709Y-105348600D01*
X131584250Y-105348600D01*
X131743000Y-105189850D01*
X131743000Y-103977000D01*
X131723000Y-103977000D01*
X131723000Y-103723000D01*
X131743000Y-103723000D01*
X131743000Y-103703000D01*
X131997000Y-103703000D01*
X131997000Y-103723000D01*
X132017000Y-103723000D01*
X132017000Y-103977000D01*
X131997000Y-103977000D01*
X131997000Y-105189850D01*
X132155750Y-105348600D01*
X132607291Y-105348600D01*
X132859910Y-105348600D01*
X133093299Y-105251927D01*
X133271927Y-105073298D01*
X133368600Y-104839909D01*
X133368600Y-104753630D01*
X135802969Y-107188000D01*
X130084230Y-107188000D01*
X129425699Y-106529468D01*
X129425887Y-106313816D01*
X129261889Y-105916911D01*
X128958486Y-105612978D01*
X128561868Y-105448287D01*
X128132416Y-105447913D01*
X127735511Y-105611911D01*
X127431578Y-105915314D01*
X127266887Y-106311932D01*
X127266513Y-106741384D01*
X127430511Y-107138289D01*
X127733914Y-107442222D01*
X128130532Y-107606913D01*
X128348072Y-107607102D01*
X129229784Y-108488815D01*
X129229785Y-108488815D01*
X129468769Y-108648500D01*
X124572430Y-108648500D01*
X123982014Y-108058084D01*
X124049506Y-107895547D01*
X124050074Y-107245306D01*
X123925927Y-106944847D01*
X123925927Y-98502520D01*
X123897148Y-97972801D01*
X123749800Y-97617071D01*
X123514188Y-97555417D01*
X123334583Y-97735022D01*
X123334583Y-97375812D01*
X123272929Y-97140200D01*
X122772520Y-96964073D01*
X122242801Y-96992852D01*
X121887071Y-97140200D01*
X121825417Y-97375812D01*
X122580000Y-98130395D01*
X123334583Y-97375812D01*
X123334583Y-97735022D01*
X122759605Y-98310000D01*
X123514188Y-99064583D01*
X123749800Y-99002929D01*
X123925927Y-98502520D01*
X123925927Y-106944847D01*
X123801762Y-106644345D01*
X123342373Y-106184154D01*
X123334583Y-106180919D01*
X123334583Y-99244188D01*
X122580000Y-98489605D01*
X122400395Y-98669210D01*
X122400395Y-98310000D01*
X121645812Y-97555417D01*
X121410200Y-97617071D01*
X121311916Y-97896311D01*
X121171146Y-97555620D01*
X120796353Y-97180173D01*
X120306413Y-96976732D01*
X119775914Y-96976269D01*
X119285620Y-97178854D01*
X118910173Y-97553647D01*
X118769906Y-97891446D01*
X118631146Y-97555620D01*
X118256353Y-97180173D01*
X117766413Y-96976732D01*
X117235914Y-96976269D01*
X116745620Y-97178854D01*
X116370173Y-97553647D01*
X116229906Y-97891446D01*
X116091146Y-97555620D01*
X115716353Y-97180173D01*
X115226413Y-96976732D01*
X114695914Y-96976269D01*
X114205620Y-97178854D01*
X113830173Y-97553647D01*
X113689906Y-97891446D01*
X113551146Y-97555620D01*
X113176353Y-97180173D01*
X112686413Y-96976732D01*
X112155914Y-96976269D01*
X111665620Y-97178854D01*
X111290173Y-97553647D01*
X111086732Y-98043587D01*
X111086269Y-98574086D01*
X111288854Y-99064380D01*
X111663647Y-99439827D01*
X112153587Y-99643268D01*
X112684086Y-99643731D01*
X113174380Y-99441146D01*
X113549827Y-99066353D01*
X113690093Y-98728553D01*
X113828854Y-99064380D01*
X114203647Y-99439827D01*
X114693587Y-99643268D01*
X115224086Y-99643731D01*
X115714380Y-99441146D01*
X116089827Y-99066353D01*
X116230093Y-98728553D01*
X116368854Y-99064380D01*
X116743647Y-99439827D01*
X117233587Y-99643268D01*
X117764086Y-99643731D01*
X118254380Y-99441146D01*
X118629827Y-99066353D01*
X118770093Y-98728553D01*
X118908854Y-99064380D01*
X119283647Y-99439827D01*
X119773587Y-99643268D01*
X120304086Y-99643731D01*
X120794380Y-99441146D01*
X121169827Y-99066353D01*
X121303313Y-98744881D01*
X121410200Y-99002929D01*
X121645812Y-99064583D01*
X122400395Y-98310000D01*
X122400395Y-98669210D01*
X121825417Y-99244188D01*
X121887071Y-99479800D01*
X122387480Y-99655927D01*
X122917199Y-99627148D01*
X123272929Y-99479800D01*
X123334583Y-99244188D01*
X123334583Y-106180919D01*
X122741847Y-105934794D01*
X122091606Y-105934226D01*
X121926413Y-106002482D01*
X118509115Y-102585185D01*
X118261905Y-102420004D01*
X117970300Y-102362000D01*
X113853630Y-102362000D01*
X110490000Y-98998369D01*
X110490000Y-84963000D01*
X110431996Y-84671395D01*
X110266815Y-84424185D01*
X110266815Y-84424184D01*
X107172340Y-81329709D01*
X107172340Y-76152869D01*
X107145553Y-75572465D01*
X106974976Y-75160656D01*
X106726215Y-75083390D01*
X106546610Y-75262995D01*
X106546610Y-74903785D01*
X106469344Y-74655024D01*
X105922869Y-74457660D01*
X105342465Y-74484447D01*
X104930656Y-74655024D01*
X104853390Y-74903785D01*
X105700000Y-75750395D01*
X106546610Y-74903785D01*
X106546610Y-75262995D01*
X105879605Y-75930000D01*
X106726215Y-76776610D01*
X106974976Y-76699344D01*
X107172340Y-76152869D01*
X107172340Y-81329709D01*
X106462000Y-80619369D01*
X106462000Y-79930500D01*
X106651809Y-79930500D01*
X106885198Y-79833827D01*
X107063827Y-79655199D01*
X107160500Y-79421810D01*
X107160500Y-79169191D01*
X107160500Y-77518191D01*
X107063827Y-77284802D01*
X106885199Y-77106173D01*
X106651810Y-77009500D01*
X106530059Y-77009500D01*
X106546610Y-76956215D01*
X105700000Y-76109605D01*
X105685857Y-76123747D01*
X105506252Y-75944142D01*
X105520395Y-75930000D01*
X104673785Y-75083390D01*
X104425024Y-75160656D01*
X104227660Y-75707131D01*
X104254447Y-76287535D01*
X104388289Y-76610658D01*
X103262000Y-75484369D01*
X103262000Y-71649630D01*
X104451185Y-72838816D01*
X104599376Y-72937834D01*
X104698395Y-73003996D01*
X104698396Y-73003996D01*
X104990000Y-73062000D01*
X120000000Y-73062000D01*
X120000000Y-73061999D01*
X120291604Y-73003996D01*
X120291605Y-73003996D01*
X120538815Y-72838815D01*
X121615630Y-71762000D01*
X131864193Y-71762000D01*
X131884311Y-71810689D01*
X132187714Y-72114622D01*
X132584332Y-72279313D01*
X133013784Y-72279687D01*
X133410689Y-72115689D01*
X133714622Y-71812286D01*
X133879313Y-71415668D01*
X133879687Y-70986216D01*
X133715689Y-70589311D01*
X133510137Y-70383400D01*
X135988958Y-70383400D01*
X136141314Y-70536022D01*
X136537932Y-70700713D01*
X136967384Y-70701087D01*
X137138000Y-70630589D01*
X137138000Y-74592369D01*
G36*
X147269200Y-108929769D02*
X147173015Y-108833585D01*
X146925805Y-108668404D01*
X146634200Y-108610400D01*
X146093525Y-108610400D01*
X146214913Y-108318068D01*
X146215287Y-107888616D01*
X146051289Y-107491711D01*
X145897600Y-107337753D01*
X145897600Y-106758841D01*
X146050222Y-106606486D01*
X146214913Y-106209868D01*
X146215287Y-105780416D01*
X146051289Y-105383511D01*
X145897600Y-105229553D01*
X145897600Y-99745800D01*
X145897600Y-99644200D01*
X145897600Y-99415600D01*
X145897600Y-93957241D01*
X146050222Y-93804886D01*
X146214913Y-93408268D01*
X146215287Y-92978816D01*
X146051289Y-92581911D01*
X145747886Y-92277978D01*
X145351268Y-92113287D01*
X145300866Y-92113243D01*
X145300887Y-92089816D01*
X145136889Y-91692911D01*
X144833486Y-91388978D01*
X144436868Y-91224287D01*
X144007416Y-91223913D01*
X143610511Y-91387911D01*
X143306578Y-91691314D01*
X143141887Y-92087932D01*
X143141513Y-92517384D01*
X143305511Y-92914289D01*
X143484600Y-93093690D01*
X143484600Y-97965158D01*
X143331978Y-98117514D01*
X143167287Y-98514132D01*
X143166913Y-98943584D01*
X143183529Y-98983800D01*
X140904630Y-98983800D01*
X139966699Y-98045868D01*
X139966887Y-97830216D01*
X139850566Y-97548700D01*
X140500100Y-97548700D01*
X140500100Y-97548699D01*
X140791704Y-97490696D01*
X140791705Y-97490696D01*
X141038915Y-97325515D01*
X141788215Y-96576216D01*
X141788215Y-96576215D01*
X141953396Y-96329005D01*
X142011399Y-96037400D01*
X142011400Y-96037400D01*
X142011400Y-94693841D01*
X142164022Y-94541486D01*
X142328713Y-94144868D01*
X142329087Y-93715416D01*
X142165089Y-93318511D01*
X142100300Y-93253608D01*
X142100300Y-87922100D01*
X142100300Y-77645930D01*
X144473331Y-75272899D01*
X144688984Y-75273087D01*
X145085889Y-75109089D01*
X145262600Y-74932686D01*
X145262600Y-77522150D01*
X145198868Y-77495687D01*
X144769416Y-77495313D01*
X144372511Y-77659311D01*
X144068578Y-77962714D01*
X143903887Y-78359332D01*
X143903513Y-78788784D01*
X144067511Y-79185689D01*
X144370914Y-79489622D01*
X144399000Y-79501284D01*
X144399000Y-87017758D01*
X144246378Y-87170114D01*
X144081687Y-87566732D01*
X144081313Y-87996184D01*
X144245311Y-88393089D01*
X144548714Y-88697022D01*
X144945088Y-88861611D01*
X144944913Y-89062984D01*
X145108911Y-89459889D01*
X145412314Y-89763822D01*
X145808932Y-89928513D01*
X146238384Y-89928887D01*
X146635289Y-89764889D01*
X146939222Y-89461486D01*
X147103913Y-89064868D01*
X147104287Y-88635416D01*
X146940289Y-88238511D01*
X146786600Y-88084553D01*
X146786600Y-73797830D01*
X147234631Y-73349799D01*
X147218400Y-73431400D01*
X147269200Y-73686788D01*
X147269200Y-108929769D01*
X147269200Y-108929769D01*
G37*
X147269200Y-108929769D02*
X147173015Y-108833585D01*
X146925805Y-108668404D01*
X146634200Y-108610400D01*
X146093525Y-108610400D01*
X146214913Y-108318068D01*
X146215287Y-107888616D01*
X146051289Y-107491711D01*
X145897600Y-107337753D01*
X145897600Y-106758841D01*
X146050222Y-106606486D01*
X146214913Y-106209868D01*
X146215287Y-105780416D01*
X146051289Y-105383511D01*
X145897600Y-105229553D01*
X145897600Y-99745800D01*
X145897600Y-99644200D01*
X145897600Y-99415600D01*
X145897600Y-93957241D01*
X146050222Y-93804886D01*
X146214913Y-93408268D01*
X146215287Y-92978816D01*
X146051289Y-92581911D01*
X145747886Y-92277978D01*
X145351268Y-92113287D01*
X145300866Y-92113243D01*
X145300887Y-92089816D01*
X145136889Y-91692911D01*
X144833486Y-91388978D01*
X144436868Y-91224287D01*
X144007416Y-91223913D01*
X143610511Y-91387911D01*
X143306578Y-91691314D01*
X143141887Y-92087932D01*
X143141513Y-92517384D01*
X143305511Y-92914289D01*
X143484600Y-93093690D01*
X143484600Y-97965158D01*
X143331978Y-98117514D01*
X143167287Y-98514132D01*
X143166913Y-98943584D01*
X143183529Y-98983800D01*
X140904630Y-98983800D01*
X139966699Y-98045868D01*
X139966887Y-97830216D01*
X139850566Y-97548700D01*
X140500100Y-97548700D01*
X140500100Y-97548699D01*
X140791704Y-97490696D01*
X140791705Y-97490696D01*
X141038915Y-97325515D01*
X141788215Y-96576216D01*
X141788215Y-96576215D01*
X141953396Y-96329005D01*
X142011399Y-96037400D01*
X142011400Y-96037400D01*
X142011400Y-94693841D01*
X142164022Y-94541486D01*
X142328713Y-94144868D01*
X142329087Y-93715416D01*
X142165089Y-93318511D01*
X142100300Y-93253608D01*
X142100300Y-87922100D01*
X142100300Y-77645930D01*
X144473331Y-75272899D01*
X144688984Y-75273087D01*
X145085889Y-75109089D01*
X145262600Y-74932686D01*
X145262600Y-77522150D01*
X145198868Y-77495687D01*
X144769416Y-77495313D01*
X144372511Y-77659311D01*
X144068578Y-77962714D01*
X143903887Y-78359332D01*
X143903513Y-78788784D01*
X144067511Y-79185689D01*
X144370914Y-79489622D01*
X144399000Y-79501284D01*
X144399000Y-87017758D01*
X144246378Y-87170114D01*
X144081687Y-87566732D01*
X144081313Y-87996184D01*
X144245311Y-88393089D01*
X144548714Y-88697022D01*
X144945088Y-88861611D01*
X144944913Y-89062984D01*
X145108911Y-89459889D01*
X145412314Y-89763822D01*
X145808932Y-89928513D01*
X146238384Y-89928887D01*
X146635289Y-89764889D01*
X146939222Y-89461486D01*
X147103913Y-89064868D01*
X147104287Y-88635416D01*
X146940289Y-88238511D01*
X146786600Y-88084553D01*
X146786600Y-73797830D01*
X147234631Y-73349799D01*
X147218400Y-73431400D01*
X147269200Y-73686788D01*
X147269200Y-108929769D01*
G36*
X161061400Y-119089770D02*
X160685815Y-118714185D01*
X160438605Y-118549004D01*
X160147000Y-118491000D01*
X156525630Y-118491000D01*
X154731327Y-116696696D01*
X154881996Y-116471205D01*
X154938896Y-116185145D01*
X155195089Y-116079289D01*
X155349046Y-115925600D01*
X160923569Y-115925600D01*
X160972533Y-115974564D01*
X160972313Y-116228284D01*
X160972955Y-116229839D01*
X160882511Y-116267211D01*
X160578578Y-116570614D01*
X160413887Y-116967232D01*
X160413513Y-117396684D01*
X160577511Y-117793589D01*
X160880914Y-118097522D01*
X161061400Y-118172466D01*
X161061400Y-119089770D01*
X161061400Y-119089770D01*
G37*
X161061400Y-119089770D02*
X160685815Y-118714185D01*
X160438605Y-118549004D01*
X160147000Y-118491000D01*
X156525630Y-118491000D01*
X154731327Y-116696696D01*
X154881996Y-116471205D01*
X154938896Y-116185145D01*
X155195089Y-116079289D01*
X155349046Y-115925600D01*
X160923569Y-115925600D01*
X160972533Y-115974564D01*
X160972313Y-116228284D01*
X160972955Y-116229839D01*
X160882511Y-116267211D01*
X160578578Y-116570614D01*
X160413887Y-116967232D01*
X160413513Y-117396684D01*
X160577511Y-117793589D01*
X160880914Y-118097522D01*
X161061400Y-118172466D01*
X161061400Y-119089770D01*
G36*
X161858965Y-100228400D02*
X161544185Y-100438730D01*
X161345288Y-100736400D01*
X155916030Y-100736400D01*
X151676099Y-96496469D01*
X151676287Y-96280816D01*
X151512289Y-95883911D01*
X151208886Y-95579978D01*
X150812268Y-95415287D01*
X150382816Y-95414913D01*
X150368000Y-95421034D01*
X150368000Y-93711430D01*
X156153785Y-99497216D01*
X156301976Y-99596234D01*
X156400995Y-99662396D01*
X156400996Y-99662396D01*
X156692600Y-99720400D01*
X161345288Y-99720400D01*
X161544185Y-100018070D01*
X161858965Y-100228400D01*
X161858965Y-100228400D01*
G37*
X161858965Y-100228400D02*
X161544185Y-100438730D01*
X161345288Y-100736400D01*
X155916030Y-100736400D01*
X151676099Y-96496469D01*
X151676287Y-96280816D01*
X151512289Y-95883911D01*
X151208886Y-95579978D01*
X150812268Y-95415287D01*
X150382816Y-95414913D01*
X150368000Y-95421034D01*
X150368000Y-93711430D01*
X156153785Y-99497216D01*
X156301976Y-99596234D01*
X156400995Y-99662396D01*
X156400996Y-99662396D01*
X156692600Y-99720400D01*
X161345288Y-99720400D01*
X161544185Y-100018070D01*
X161858965Y-100228400D01*
G36*
X165100000Y-118414800D02*
X164395958Y-118414800D01*
X164395958Y-106937426D01*
X164274817Y-106705400D01*
X162915600Y-106705400D01*
X162915600Y-107919324D01*
X163150513Y-108063584D01*
X163702920Y-107870354D01*
X164139332Y-107480436D01*
X164393309Y-106953191D01*
X164395958Y-106937426D01*
X164395958Y-118414800D01*
X163908974Y-118414800D01*
X163832686Y-118338378D01*
X163436068Y-118173687D01*
X163006616Y-118173313D01*
X162609711Y-118337311D01*
X162585400Y-118361579D01*
X162585400Y-117513100D01*
X162565822Y-117414680D01*
X162565822Y-117414679D01*
X162572513Y-117398568D01*
X162572887Y-116969116D01*
X162572244Y-116967560D01*
X162662689Y-116930189D01*
X162966622Y-116626786D01*
X163131313Y-116230168D01*
X163131687Y-115800716D01*
X162967689Y-115403811D01*
X162664286Y-115099878D01*
X162661600Y-115098762D01*
X162661600Y-107919324D01*
X162661600Y-106705400D01*
X161302383Y-106705400D01*
X161181242Y-106937426D01*
X161183891Y-106953191D01*
X161437868Y-107480436D01*
X161874280Y-107870354D01*
X162426687Y-108063584D01*
X162661600Y-107919324D01*
X162661600Y-115098762D01*
X162267668Y-114935187D01*
X162088261Y-114935030D01*
X161778015Y-114624785D01*
X161530805Y-114459604D01*
X161239200Y-114401600D01*
X155349041Y-114401600D01*
X155196686Y-114248978D01*
X154800068Y-114084287D01*
X154370616Y-114083913D01*
X153973711Y-114247911D01*
X153669778Y-114551314D01*
X153530486Y-114886764D01*
X153517600Y-114884201D01*
X153225996Y-114942204D01*
X153076634Y-115042004D01*
X150368000Y-112333369D01*
X150368000Y-111874190D01*
X150708784Y-111874487D01*
X151105689Y-111710489D01*
X151409622Y-111407086D01*
X151574313Y-111010468D01*
X151574502Y-110792927D01*
X153172830Y-109194600D01*
X158369000Y-109194600D01*
X158369000Y-109194599D01*
X158660604Y-109136596D01*
X158660605Y-109136596D01*
X158907815Y-108971415D01*
X159459330Y-108419899D01*
X159674984Y-108420087D01*
X160071889Y-108256089D01*
X160375822Y-107952686D01*
X160540513Y-107556068D01*
X160540887Y-107126616D01*
X160376889Y-106729711D01*
X160073486Y-106425778D01*
X159676868Y-106261087D01*
X159247416Y-106260713D01*
X158850511Y-106424711D01*
X158546578Y-106728114D01*
X158381887Y-107124732D01*
X158381697Y-107342272D01*
X158053370Y-107670600D01*
X152857200Y-107670600D01*
X152565595Y-107728604D01*
X152318384Y-107893785D01*
X150496868Y-109715300D01*
X150368000Y-109715188D01*
X150368000Y-97568543D01*
X150380932Y-97573913D01*
X150598472Y-97574102D01*
X151289108Y-98264738D01*
X151027311Y-98372911D01*
X150723378Y-98676314D01*
X150558687Y-99072932D01*
X150558313Y-99502384D01*
X150722311Y-99899289D01*
X151025714Y-100203222D01*
X151422332Y-100367913D01*
X151639872Y-100368102D01*
X154959985Y-103688216D01*
X155108176Y-103787234D01*
X155207195Y-103853396D01*
X155207196Y-103853396D01*
X155498800Y-103911400D01*
X161130516Y-103911400D01*
X161105255Y-104038400D01*
X161219329Y-104611889D01*
X161544185Y-105098070D01*
X161853669Y-105304860D01*
X161437868Y-105676364D01*
X161183891Y-106203609D01*
X161181242Y-106219374D01*
X161302383Y-106451400D01*
X162661600Y-106451400D01*
X162661600Y-106431400D01*
X162915600Y-106431400D01*
X162915600Y-106451400D01*
X164274817Y-106451400D01*
X164395958Y-106219374D01*
X164393309Y-106203609D01*
X164139332Y-105676364D01*
X163723530Y-105304860D01*
X164033015Y-105098070D01*
X164357871Y-104611889D01*
X164471945Y-104038400D01*
X164357871Y-103464911D01*
X164033015Y-102978730D01*
X163718234Y-102768400D01*
X164033015Y-102558070D01*
X164357871Y-102071889D01*
X164471945Y-101498400D01*
X164357871Y-100924911D01*
X164033015Y-100438730D01*
X163718234Y-100228400D01*
X164033015Y-100018070D01*
X164357871Y-99531889D01*
X164471945Y-98958400D01*
X164357871Y-98384911D01*
X164033015Y-97898730D01*
X163718234Y-97688400D01*
X164033015Y-97478070D01*
X164357871Y-96991889D01*
X164471945Y-96418400D01*
X164357871Y-95844911D01*
X164033015Y-95358730D01*
X163718234Y-95148400D01*
X164033015Y-94938070D01*
X164357871Y-94451889D01*
X164471945Y-93878400D01*
X164357871Y-93304911D01*
X164033015Y-92818730D01*
X163718234Y-92608400D01*
X164033015Y-92398070D01*
X164357871Y-91911889D01*
X164471945Y-91338400D01*
X164357871Y-90764911D01*
X164033015Y-90278730D01*
X164010819Y-90263899D01*
X164164298Y-90200327D01*
X164342927Y-90021699D01*
X164439600Y-89788310D01*
X164439600Y-89535691D01*
X164439600Y-87808491D01*
X164342927Y-87575102D01*
X164164299Y-87396473D01*
X163930910Y-87299800D01*
X163678291Y-87299800D01*
X161646291Y-87299800D01*
X161412902Y-87396473D01*
X161234273Y-87575101D01*
X161137600Y-87808490D01*
X161137600Y-88061109D01*
X161137600Y-89382600D01*
X155450508Y-89382600D01*
X155222086Y-89153778D01*
X154825468Y-88989087D01*
X154396016Y-88988713D01*
X154330400Y-89015825D01*
X154330400Y-84124800D01*
X157934558Y-84124800D01*
X158086914Y-84277422D01*
X158483532Y-84442113D01*
X158912984Y-84442487D01*
X159309889Y-84278489D01*
X159613822Y-83975086D01*
X159778513Y-83578468D01*
X159778887Y-83149016D01*
X159614889Y-82752111D01*
X159311486Y-82448178D01*
X158914868Y-82283487D01*
X158485416Y-82283113D01*
X158088511Y-82447111D01*
X157934553Y-82600800D01*
X153720800Y-82600800D01*
X153429195Y-82658804D01*
X153181985Y-82823985D01*
X153029585Y-82976385D01*
X152864404Y-83223595D01*
X152806400Y-83515200D01*
X152806400Y-84849515D01*
X152437868Y-84696487D01*
X152008416Y-84696113D01*
X151611511Y-84860111D01*
X151307578Y-85163514D01*
X151142887Y-85560132D01*
X151142513Y-85989584D01*
X151306511Y-86386489D01*
X151460200Y-86540446D01*
X151460200Y-86890531D01*
X151437486Y-86867778D01*
X151040868Y-86703087D01*
X150611416Y-86702713D01*
X150368000Y-86803290D01*
X150368000Y-76837641D01*
X150520622Y-76685286D01*
X150685313Y-76288668D01*
X150685687Y-75859216D01*
X150521689Y-75462311D01*
X150497577Y-75438157D01*
X150596822Y-75339086D01*
X150761513Y-74942468D01*
X150761887Y-74513016D01*
X150597889Y-74116111D01*
X150493653Y-74011693D01*
X150634513Y-73672468D01*
X150634756Y-73393334D01*
X150810384Y-73393487D01*
X151207289Y-73229489D01*
X151511222Y-72926086D01*
X151675913Y-72529468D01*
X151676287Y-72100016D01*
X151512289Y-71703111D01*
X151208886Y-71399178D01*
X150812268Y-71234487D01*
X150382816Y-71234113D01*
X150044264Y-71374000D01*
X147370800Y-71374000D01*
X147079195Y-71432004D01*
X146831984Y-71597185D01*
X145485785Y-72943385D01*
X145320604Y-73190595D01*
X145267244Y-73458850D01*
X145087486Y-73278778D01*
X144949817Y-73221612D01*
X148809430Y-69362000D01*
X152912805Y-69362000D01*
X152779911Y-69416911D01*
X152475978Y-69720314D01*
X152311287Y-70116932D01*
X152310913Y-70546384D01*
X152474911Y-70943289D01*
X152778314Y-71247222D01*
X153174932Y-71411913D01*
X153392472Y-71412102D01*
X155950585Y-73970215D01*
X156197795Y-74135396D01*
X156197796Y-74135396D01*
X156489400Y-74193400D01*
X161014509Y-74193400D01*
X163133285Y-76312175D01*
X163065794Y-76474713D01*
X163065226Y-77124954D01*
X163313538Y-77725915D01*
X163772927Y-78186106D01*
X164373453Y-78435466D01*
X165023694Y-78436034D01*
X165100000Y-78404505D01*
X165100000Y-89341858D01*
X164947378Y-89494214D01*
X164782687Y-89890832D01*
X164782313Y-90320284D01*
X164946311Y-90717189D01*
X165100000Y-90871146D01*
X165100000Y-109474000D01*
X165100000Y-118414800D01*
X165100000Y-118414800D01*
G37*
X165100000Y-118414800D02*
X164395958Y-118414800D01*
X164395958Y-106937426D01*
X164274817Y-106705400D01*
X162915600Y-106705400D01*
X162915600Y-107919324D01*
X163150513Y-108063584D01*
X163702920Y-107870354D01*
X164139332Y-107480436D01*
X164393309Y-106953191D01*
X164395958Y-106937426D01*
X164395958Y-118414800D01*
X163908974Y-118414800D01*
X163832686Y-118338378D01*
X163436068Y-118173687D01*
X163006616Y-118173313D01*
X162609711Y-118337311D01*
X162585400Y-118361579D01*
X162585400Y-117513100D01*
X162565822Y-117414680D01*
X162565822Y-117414679D01*
X162572513Y-117398568D01*
X162572887Y-116969116D01*
X162572244Y-116967560D01*
X162662689Y-116930189D01*
X162966622Y-116626786D01*
X163131313Y-116230168D01*
X163131687Y-115800716D01*
X162967689Y-115403811D01*
X162664286Y-115099878D01*
X162661600Y-115098762D01*
X162661600Y-107919324D01*
X162661600Y-106705400D01*
X161302383Y-106705400D01*
X161181242Y-106937426D01*
X161183891Y-106953191D01*
X161437868Y-107480436D01*
X161874280Y-107870354D01*
X162426687Y-108063584D01*
X162661600Y-107919324D01*
X162661600Y-115098762D01*
X162267668Y-114935187D01*
X162088261Y-114935030D01*
X161778015Y-114624785D01*
X161530805Y-114459604D01*
X161239200Y-114401600D01*
X155349041Y-114401600D01*
X155196686Y-114248978D01*
X154800068Y-114084287D01*
X154370616Y-114083913D01*
X153973711Y-114247911D01*
X153669778Y-114551314D01*
X153530486Y-114886764D01*
X153517600Y-114884201D01*
X153225996Y-114942204D01*
X153076634Y-115042004D01*
X150368000Y-112333369D01*
X150368000Y-111874190D01*
X150708784Y-111874487D01*
X151105689Y-111710489D01*
X151409622Y-111407086D01*
X151574313Y-111010468D01*
X151574502Y-110792927D01*
X153172830Y-109194600D01*
X158369000Y-109194600D01*
X158369000Y-109194599D01*
X158660604Y-109136596D01*
X158660605Y-109136596D01*
X158907815Y-108971415D01*
X159459330Y-108419899D01*
X159674984Y-108420087D01*
X160071889Y-108256089D01*
X160375822Y-107952686D01*
X160540513Y-107556068D01*
X160540887Y-107126616D01*
X160376889Y-106729711D01*
X160073486Y-106425778D01*
X159676868Y-106261087D01*
X159247416Y-106260713D01*
X158850511Y-106424711D01*
X158546578Y-106728114D01*
X158381887Y-107124732D01*
X158381697Y-107342272D01*
X158053370Y-107670600D01*
X152857200Y-107670600D01*
X152565595Y-107728604D01*
X152318384Y-107893785D01*
X150496868Y-109715300D01*
X150368000Y-109715188D01*
X150368000Y-97568543D01*
X150380932Y-97573913D01*
X150598472Y-97574102D01*
X151289108Y-98264738D01*
X151027311Y-98372911D01*
X150723378Y-98676314D01*
X150558687Y-99072932D01*
X150558313Y-99502384D01*
X150722311Y-99899289D01*
X151025714Y-100203222D01*
X151422332Y-100367913D01*
X151639872Y-100368102D01*
X154959985Y-103688216D01*
X155108176Y-103787234D01*
X155207195Y-103853396D01*
X155207196Y-103853396D01*
X155498800Y-103911400D01*
X161130516Y-103911400D01*
X161105255Y-104038400D01*
X161219329Y-104611889D01*
X161544185Y-105098070D01*
X161853669Y-105304860D01*
X161437868Y-105676364D01*
X161183891Y-106203609D01*
X161181242Y-106219374D01*
X161302383Y-106451400D01*
X162661600Y-106451400D01*
X162661600Y-106431400D01*
X162915600Y-106431400D01*
X162915600Y-106451400D01*
X164274817Y-106451400D01*
X164395958Y-106219374D01*
X164393309Y-106203609D01*
X164139332Y-105676364D01*
X163723530Y-105304860D01*
X164033015Y-105098070D01*
X164357871Y-104611889D01*
X164471945Y-104038400D01*
X164357871Y-103464911D01*
X164033015Y-102978730D01*
X163718234Y-102768400D01*
X164033015Y-102558070D01*
X164357871Y-102071889D01*
X164471945Y-101498400D01*
X164357871Y-100924911D01*
X164033015Y-100438730D01*
X163718234Y-100228400D01*
X164033015Y-100018070D01*
X164357871Y-99531889D01*
X164471945Y-98958400D01*
X164357871Y-98384911D01*
X164033015Y-97898730D01*
X163718234Y-97688400D01*
X164033015Y-97478070D01*
X164357871Y-96991889D01*
X164471945Y-96418400D01*
X164357871Y-95844911D01*
X164033015Y-95358730D01*
X163718234Y-95148400D01*
X164033015Y-94938070D01*
X164357871Y-94451889D01*
X164471945Y-93878400D01*
X164357871Y-93304911D01*
X164033015Y-92818730D01*
X163718234Y-92608400D01*
X164033015Y-92398070D01*
X164357871Y-91911889D01*
X164471945Y-91338400D01*
X164357871Y-90764911D01*
X164033015Y-90278730D01*
X164010819Y-90263899D01*
X164164298Y-90200327D01*
X164342927Y-90021699D01*
X164439600Y-89788310D01*
X164439600Y-89535691D01*
X164439600Y-87808491D01*
X164342927Y-87575102D01*
X164164299Y-87396473D01*
X163930910Y-87299800D01*
X163678291Y-87299800D01*
X161646291Y-87299800D01*
X161412902Y-87396473D01*
X161234273Y-87575101D01*
X161137600Y-87808490D01*
X161137600Y-88061109D01*
X161137600Y-89382600D01*
X155450508Y-89382600D01*
X155222086Y-89153778D01*
X154825468Y-88989087D01*
X154396016Y-88988713D01*
X154330400Y-89015825D01*
X154330400Y-84124800D01*
X157934558Y-84124800D01*
X158086914Y-84277422D01*
X158483532Y-84442113D01*
X158912984Y-84442487D01*
X159309889Y-84278489D01*
X159613822Y-83975086D01*
X159778513Y-83578468D01*
X159778887Y-83149016D01*
X159614889Y-82752111D01*
X159311486Y-82448178D01*
X158914868Y-82283487D01*
X158485416Y-82283113D01*
X158088511Y-82447111D01*
X157934553Y-82600800D01*
X153720800Y-82600800D01*
X153429195Y-82658804D01*
X153181985Y-82823985D01*
X153029585Y-82976385D01*
X152864404Y-83223595D01*
X152806400Y-83515200D01*
X152806400Y-84849515D01*
X152437868Y-84696487D01*
X152008416Y-84696113D01*
X151611511Y-84860111D01*
X151307578Y-85163514D01*
X151142887Y-85560132D01*
X151142513Y-85989584D01*
X151306511Y-86386489D01*
X151460200Y-86540446D01*
X151460200Y-86890531D01*
X151437486Y-86867778D01*
X151040868Y-86703087D01*
X150611416Y-86702713D01*
X150368000Y-86803290D01*
X150368000Y-76837641D01*
X150520622Y-76685286D01*
X150685313Y-76288668D01*
X150685687Y-75859216D01*
X150521689Y-75462311D01*
X150497577Y-75438157D01*
X150596822Y-75339086D01*
X150761513Y-74942468D01*
X150761887Y-74513016D01*
X150597889Y-74116111D01*
X150493653Y-74011693D01*
X150634513Y-73672468D01*
X150634756Y-73393334D01*
X150810384Y-73393487D01*
X151207289Y-73229489D01*
X151511222Y-72926086D01*
X151675913Y-72529468D01*
X151676287Y-72100016D01*
X151512289Y-71703111D01*
X151208886Y-71399178D01*
X150812268Y-71234487D01*
X150382816Y-71234113D01*
X150044264Y-71374000D01*
X147370800Y-71374000D01*
X147079195Y-71432004D01*
X146831984Y-71597185D01*
X145485785Y-72943385D01*
X145320604Y-73190595D01*
X145267244Y-73458850D01*
X145087486Y-73278778D01*
X144949817Y-73221612D01*
X148809430Y-69362000D01*
X152912805Y-69362000D01*
X152779911Y-69416911D01*
X152475978Y-69720314D01*
X152311287Y-70116932D01*
X152310913Y-70546384D01*
X152474911Y-70943289D01*
X152778314Y-71247222D01*
X153174932Y-71411913D01*
X153392472Y-71412102D01*
X155950585Y-73970215D01*
X156197795Y-74135396D01*
X156197796Y-74135396D01*
X156489400Y-74193400D01*
X161014509Y-74193400D01*
X163133285Y-76312175D01*
X163065794Y-76474713D01*
X163065226Y-77124954D01*
X163313538Y-77725915D01*
X163772927Y-78186106D01*
X164373453Y-78435466D01*
X165023694Y-78436034D01*
X165100000Y-78404505D01*
X165100000Y-89341858D01*
X164947378Y-89494214D01*
X164782687Y-89890832D01*
X164782313Y-90320284D01*
X164946311Y-90717189D01*
X165100000Y-90871146D01*
X165100000Y-109474000D01*
X165100000Y-118414800D01*
G36*
X199315000Y-149315000D02*
X198426774Y-149315000D01*
X198426774Y-122072306D01*
X198326774Y-121830287D01*
X198326774Y-102972306D01*
X198078462Y-102371345D01*
X198026774Y-102319566D01*
X198026774Y-83472306D01*
X197926774Y-83230287D01*
X197926774Y-63872306D01*
X197678462Y-63271345D01*
X197219073Y-62811154D01*
X196618547Y-62561794D01*
X195968306Y-62561226D01*
X195367345Y-62809538D01*
X194907154Y-63268927D01*
X194657794Y-63869453D01*
X194657226Y-64519694D01*
X194905538Y-65120655D01*
X195364927Y-65580846D01*
X195965453Y-65830206D01*
X196615694Y-65830774D01*
X197216655Y-65582462D01*
X197676846Y-65123073D01*
X197926206Y-64522547D01*
X197926774Y-63872306D01*
X197926774Y-83230287D01*
X197778462Y-82871345D01*
X197319073Y-82411154D01*
X196718547Y-82161794D01*
X196068306Y-82161226D01*
X195467345Y-82409538D01*
X195007154Y-82868927D01*
X194757794Y-83469453D01*
X194757226Y-84119694D01*
X195005538Y-84720655D01*
X195464927Y-85180846D01*
X196065453Y-85430206D01*
X196715694Y-85430774D01*
X197316655Y-85182462D01*
X197776846Y-84723073D01*
X198026206Y-84122547D01*
X198026774Y-83472306D01*
X198026774Y-102319566D01*
X197619073Y-101911154D01*
X197018547Y-101661794D01*
X196368306Y-101661226D01*
X195767345Y-101909538D01*
X195307154Y-102368927D01*
X195057794Y-102969453D01*
X195057226Y-103619694D01*
X195305538Y-104220655D01*
X195764927Y-104680846D01*
X196365453Y-104930206D01*
X197015694Y-104930774D01*
X197616655Y-104682462D01*
X198076846Y-104223073D01*
X198326206Y-103622547D01*
X198326774Y-102972306D01*
X198326774Y-121830287D01*
X198234487Y-121606935D01*
X198234487Y-116194416D01*
X198070489Y-115797511D01*
X197767086Y-115493578D01*
X197370468Y-115328887D01*
X196941016Y-115328513D01*
X196544111Y-115492511D01*
X196240178Y-115795914D01*
X196075487Y-116192532D01*
X196075297Y-116410072D01*
X191666940Y-120818429D01*
X191530547Y-120761794D01*
X190880306Y-120761226D01*
X190279345Y-121009538D01*
X189819154Y-121468927D01*
X189770508Y-121586077D01*
X184765015Y-116580585D01*
X184517805Y-116415404D01*
X184226200Y-116357400D01*
X180340000Y-116357400D01*
X180048396Y-116415403D01*
X179801185Y-116580584D01*
X178175585Y-118206185D01*
X178010404Y-118453395D01*
X177952400Y-118745000D01*
X177952400Y-120419969D01*
X177843387Y-120528981D01*
X177843731Y-120135914D01*
X177641146Y-119645620D01*
X177266353Y-119270173D01*
X176928553Y-119129906D01*
X177264380Y-118991146D01*
X177639827Y-118616353D01*
X177843268Y-118126413D01*
X177843731Y-117595914D01*
X177641146Y-117105620D01*
X177266353Y-116730173D01*
X176928553Y-116589906D01*
X177264380Y-116451146D01*
X177639827Y-116076353D01*
X177843268Y-115586413D01*
X177843731Y-115055914D01*
X177641146Y-114565620D01*
X177266353Y-114190173D01*
X176776413Y-113986732D01*
X176245914Y-113986269D01*
X175755620Y-114188854D01*
X175380173Y-114563647D01*
X175176732Y-115053587D01*
X175176269Y-115584086D01*
X175378854Y-116074380D01*
X175753647Y-116449827D01*
X176091446Y-116590093D01*
X175755620Y-116728854D01*
X175380173Y-117103647D01*
X175176732Y-117593587D01*
X175176269Y-118124086D01*
X175378854Y-118614380D01*
X175753647Y-118989827D01*
X176091446Y-119130093D01*
X175755620Y-119268854D01*
X175380173Y-119643647D01*
X175176732Y-120133587D01*
X175176269Y-120664086D01*
X175378854Y-121154380D01*
X175753647Y-121529827D01*
X176091446Y-121670093D01*
X175755620Y-121808854D01*
X175380173Y-122183647D01*
X175176732Y-122673587D01*
X175176269Y-123204086D01*
X175254409Y-123393200D01*
X170420830Y-123393200D01*
X170223277Y-123195646D01*
X170223731Y-122675914D01*
X170021146Y-122185620D01*
X169646353Y-121810173D01*
X169308553Y-121669906D01*
X169644380Y-121531146D01*
X170019827Y-121156353D01*
X170223268Y-120666413D01*
X170223731Y-120135914D01*
X170021146Y-119645620D01*
X169646353Y-119270173D01*
X169308553Y-119129906D01*
X169644380Y-118991146D01*
X170019827Y-118616353D01*
X170223268Y-118126413D01*
X170223731Y-117595914D01*
X170021146Y-117105620D01*
X169646353Y-116730173D01*
X169308553Y-116589906D01*
X169644380Y-116451146D01*
X170019827Y-116076353D01*
X170223268Y-115586413D01*
X170223731Y-115055914D01*
X170021146Y-114565620D01*
X169646353Y-114190173D01*
X169156413Y-113986732D01*
X168625914Y-113986269D01*
X168135620Y-114188854D01*
X167760173Y-114563647D01*
X167556732Y-115053587D01*
X167556269Y-115584086D01*
X167758854Y-116074380D01*
X168133647Y-116449827D01*
X168471446Y-116590093D01*
X168135620Y-116728854D01*
X167760173Y-117103647D01*
X167675164Y-117308369D01*
X167655985Y-117321185D01*
X166821785Y-118155385D01*
X166656604Y-118402595D01*
X166624000Y-118566505D01*
X166624000Y-110236000D01*
X174416000Y-110236000D01*
X174416000Y-110235999D01*
X174707604Y-110177996D01*
X174707605Y-110177996D01*
X174954815Y-110012815D01*
X176154130Y-108813500D01*
X177234809Y-108813500D01*
X177468198Y-108716827D01*
X177646827Y-108538199D01*
X177743500Y-108304810D01*
X177743500Y-108052191D01*
X177743500Y-106934000D01*
X181559200Y-106934000D01*
X181559200Y-106933999D01*
X181850804Y-106875996D01*
X181850805Y-106875996D01*
X182098015Y-106710815D01*
X184750830Y-104058000D01*
X184938330Y-104058000D01*
X185005538Y-104220655D01*
X185464927Y-104680846D01*
X186065453Y-104930206D01*
X186715694Y-104930774D01*
X187316655Y-104682462D01*
X187776846Y-104223073D01*
X188026206Y-103622547D01*
X188026774Y-102972306D01*
X187778462Y-102371345D01*
X187319073Y-101911154D01*
X186753240Y-101676200D01*
X188990570Y-101676200D01*
X189708633Y-102394263D01*
X189469794Y-102969453D01*
X189469226Y-103619694D01*
X189717538Y-104220655D01*
X190176927Y-104680846D01*
X190777453Y-104930206D01*
X191427694Y-104930774D01*
X192028655Y-104682462D01*
X192488846Y-104223073D01*
X192738206Y-103622547D01*
X192738774Y-102972306D01*
X192569879Y-102563550D01*
X195247931Y-99885499D01*
X195463584Y-99885687D01*
X195860489Y-99721689D01*
X196164422Y-99418286D01*
X196329113Y-99021668D01*
X196329487Y-98592216D01*
X196165489Y-98195311D01*
X195862086Y-97891378D01*
X195465468Y-97726687D01*
X195036016Y-97726313D01*
X194654687Y-97883875D01*
X194654687Y-56011216D01*
X194490689Y-55614311D01*
X194187286Y-55310378D01*
X193790668Y-55145687D01*
X193361216Y-55145313D01*
X192964311Y-55309311D01*
X192660378Y-55612714D01*
X192495687Y-56009332D01*
X192495313Y-56438784D01*
X192659311Y-56835689D01*
X192863000Y-57039733D01*
X192863000Y-60959370D01*
X191193084Y-62629285D01*
X191030547Y-62561794D01*
X190380306Y-62561226D01*
X189779345Y-62809538D01*
X189319154Y-63268927D01*
X189069794Y-63869453D01*
X189069226Y-64519694D01*
X189317538Y-65120655D01*
X189776927Y-65580846D01*
X190377453Y-65830206D01*
X191027694Y-65830774D01*
X191628655Y-65582462D01*
X192088846Y-65123073D01*
X192338206Y-64522547D01*
X192338774Y-63872306D01*
X192270517Y-63707112D01*
X194163815Y-61813815D01*
X194328996Y-61566605D01*
X194328996Y-61566604D01*
X194387000Y-61275000D01*
X194387000Y-56939729D01*
X194489622Y-56837286D01*
X194654313Y-56440668D01*
X194654687Y-56011216D01*
X194654687Y-97883875D01*
X194639111Y-97890311D01*
X194335178Y-98193714D01*
X194170487Y-98590332D01*
X194170297Y-98807871D01*
X191316475Y-101661694D01*
X191131162Y-101661532D01*
X189845015Y-100375385D01*
X189597805Y-100210204D01*
X189306200Y-100152200D01*
X179832000Y-100152200D01*
X179540395Y-100210204D01*
X179293184Y-100375385D01*
X177819985Y-101848585D01*
X177699509Y-102028889D01*
X177541146Y-101645620D01*
X177166353Y-101270173D01*
X176828553Y-101129906D01*
X177164380Y-100991146D01*
X177539827Y-100616353D01*
X177743268Y-100126413D01*
X177743731Y-99595914D01*
X177541146Y-99105620D01*
X177166353Y-98730173D01*
X176828553Y-98589906D01*
X177164380Y-98451146D01*
X177539827Y-98076353D01*
X177743268Y-97586413D01*
X177743731Y-97055914D01*
X177541146Y-96565620D01*
X177166353Y-96190173D01*
X176676413Y-95986732D01*
X176145914Y-95986269D01*
X175655620Y-96188854D01*
X175280173Y-96563647D01*
X175076732Y-97053587D01*
X175076269Y-97584086D01*
X175278854Y-98074380D01*
X175653647Y-98449827D01*
X175991446Y-98590093D01*
X175655620Y-98728854D01*
X175280173Y-99103647D01*
X175076732Y-99593587D01*
X175076269Y-100124086D01*
X175278854Y-100614380D01*
X175653647Y-100989827D01*
X175991446Y-101130093D01*
X175655620Y-101268854D01*
X175280173Y-101643647D01*
X175076732Y-102133587D01*
X175076269Y-102664086D01*
X175278854Y-103154380D01*
X175653647Y-103529827D01*
X175991446Y-103670093D01*
X175655620Y-103808854D01*
X175280173Y-104183647D01*
X175076732Y-104673587D01*
X175076269Y-105204086D01*
X175161350Y-105410000D01*
X170337630Y-105410000D01*
X170123277Y-105195647D01*
X170123731Y-104675914D01*
X169921146Y-104185620D01*
X169546353Y-103810173D01*
X169208553Y-103669906D01*
X169544380Y-103531146D01*
X169919827Y-103156353D01*
X170123268Y-102666413D01*
X170123731Y-102135914D01*
X169921146Y-101645620D01*
X169546353Y-101270173D01*
X169208553Y-101129906D01*
X169544380Y-100991146D01*
X169919827Y-100616353D01*
X170123268Y-100126413D01*
X170123731Y-99595914D01*
X169921146Y-99105620D01*
X169546353Y-98730173D01*
X169208553Y-98589906D01*
X169544380Y-98451146D01*
X169919827Y-98076353D01*
X170123268Y-97586413D01*
X170123731Y-97055914D01*
X169921146Y-96565620D01*
X169546353Y-96190173D01*
X169056413Y-95986732D01*
X168525914Y-95986269D01*
X168035620Y-96188854D01*
X167660173Y-96563647D01*
X167576500Y-96765153D01*
X167576500Y-89052056D01*
X167933647Y-89409827D01*
X168423587Y-89613268D01*
X168954086Y-89613731D01*
X169444380Y-89411146D01*
X169819827Y-89036353D01*
X170023268Y-88546413D01*
X170023731Y-88015914D01*
X169821146Y-87525620D01*
X169446353Y-87150173D01*
X169108553Y-87009906D01*
X169444380Y-86871146D01*
X169819827Y-86496353D01*
X170023268Y-86006413D01*
X170023731Y-85475914D01*
X169974606Y-85357023D01*
X172654630Y-82677000D01*
X175083276Y-82677000D01*
X174976732Y-82933587D01*
X174976269Y-83464086D01*
X175178854Y-83954380D01*
X175553647Y-84329827D01*
X175891446Y-84470093D01*
X175555620Y-84608854D01*
X175180173Y-84983647D01*
X174976732Y-85473587D01*
X174976269Y-86004086D01*
X175178854Y-86494380D01*
X175553647Y-86869827D01*
X175738295Y-86946500D01*
X175485191Y-86946500D01*
X175251802Y-87043173D01*
X175073173Y-87221801D01*
X174976500Y-87455190D01*
X174976500Y-87707809D01*
X174976500Y-89104809D01*
X175073173Y-89338198D01*
X175251801Y-89516827D01*
X175485190Y-89613500D01*
X175737809Y-89613500D01*
X177134809Y-89613500D01*
X177368198Y-89516827D01*
X177546827Y-89338199D01*
X177643500Y-89104810D01*
X177643500Y-88852191D01*
X177643500Y-87455191D01*
X177546827Y-87221802D01*
X177368199Y-87043173D01*
X177134810Y-86946500D01*
X176882191Y-86946500D01*
X176882009Y-86946500D01*
X177064380Y-86871146D01*
X177434170Y-86502000D01*
X188860000Y-86502000D01*
X188860000Y-86501999D01*
X189151604Y-86443996D01*
X189151605Y-86443996D01*
X189398815Y-86278815D01*
X190314915Y-85362714D01*
X190477453Y-85430206D01*
X191127694Y-85430774D01*
X191728655Y-85182462D01*
X192188846Y-84723073D01*
X192438206Y-84122547D01*
X192438774Y-83472306D01*
X192190462Y-82871345D01*
X191731073Y-82411154D01*
X191130547Y-82161794D01*
X190480306Y-82161226D01*
X189879345Y-82409538D01*
X189419154Y-82868927D01*
X189169794Y-83469453D01*
X189169226Y-84119694D01*
X189237482Y-84284887D01*
X188544370Y-84978000D01*
X187595561Y-84978000D01*
X187826206Y-84422547D01*
X187826774Y-83772306D01*
X187578462Y-83171345D01*
X187119073Y-82711154D01*
X186518547Y-82461794D01*
X185868306Y-82461226D01*
X185703112Y-82529482D01*
X184549815Y-81376185D01*
X184302605Y-81211004D01*
X184011000Y-81153000D01*
X177549180Y-81153000D01*
X177643268Y-80926413D01*
X177643731Y-80395914D01*
X177441146Y-79905620D01*
X177066353Y-79530173D01*
X176728553Y-79389906D01*
X177064380Y-79251146D01*
X177439827Y-78876353D01*
X177643268Y-78386413D01*
X177643731Y-77855914D01*
X177441146Y-77365620D01*
X177066353Y-76990173D01*
X176576413Y-76786732D01*
X176045914Y-76786269D01*
X175555620Y-76988854D01*
X175180173Y-77363647D01*
X174976732Y-77853587D01*
X174976269Y-78384086D01*
X175178854Y-78874380D01*
X175553647Y-79249827D01*
X175891446Y-79390093D01*
X175555620Y-79528854D01*
X175180173Y-79903647D01*
X174976732Y-80393587D01*
X174976269Y-80924086D01*
X175070854Y-81153000D01*
X172339000Y-81153000D01*
X172047395Y-81211004D01*
X171800184Y-81376185D01*
X170023541Y-83152827D01*
X170023731Y-82935914D01*
X169821146Y-82445620D01*
X169446353Y-82070173D01*
X169108553Y-81929906D01*
X169444380Y-81791146D01*
X169819827Y-81416353D01*
X170023268Y-80926413D01*
X170023731Y-80395914D01*
X169821146Y-79905620D01*
X169446353Y-79530173D01*
X169108553Y-79389906D01*
X169444380Y-79251146D01*
X169819827Y-78876353D01*
X170023268Y-78386413D01*
X170023731Y-77855914D01*
X169821146Y-77365620D01*
X169446353Y-76990173D01*
X168956413Y-76786732D01*
X168425914Y-76786269D01*
X167935620Y-76988854D01*
X167560173Y-77363647D01*
X167356732Y-77853587D01*
X167356269Y-78384086D01*
X167558854Y-78874380D01*
X167933647Y-79249827D01*
X168271446Y-79390093D01*
X167935620Y-79528854D01*
X167560173Y-79903647D01*
X167551175Y-79925315D01*
X167396895Y-79956004D01*
X167297876Y-80022165D01*
X167149685Y-80121184D01*
X166624000Y-80646869D01*
X166624000Y-77963260D01*
X166565996Y-77671655D01*
X166400815Y-77424445D01*
X166266714Y-77290344D01*
X166334206Y-77127807D01*
X166334774Y-76477566D01*
X166266517Y-76312372D01*
X171836890Y-70742000D01*
X172400000Y-70742000D01*
X175076500Y-70742000D01*
X175076500Y-70804809D01*
X175173173Y-71038198D01*
X175351801Y-71216827D01*
X175585190Y-71313500D01*
X175837809Y-71313500D01*
X177234809Y-71313500D01*
X177468198Y-71216827D01*
X177646827Y-71038199D01*
X177743500Y-70804810D01*
X177743500Y-70552191D01*
X177743500Y-69155191D01*
X177646827Y-68921802D01*
X177468199Y-68743173D01*
X177234810Y-68646500D01*
X176982191Y-68646500D01*
X176982009Y-68646500D01*
X177164380Y-68571146D01*
X177539827Y-68196353D01*
X177743268Y-67706413D01*
X177743731Y-67175914D01*
X177541146Y-66685620D01*
X177166353Y-66310173D01*
X176828553Y-66169906D01*
X177164380Y-66031146D01*
X177539827Y-65656353D01*
X177743268Y-65166413D01*
X177743731Y-64635914D01*
X177671871Y-64462000D01*
X177925000Y-64462000D01*
X177925000Y-64461999D01*
X178216604Y-64403996D01*
X178216605Y-64403996D01*
X178463815Y-64238815D01*
X178769738Y-63932891D01*
X178769226Y-64519694D01*
X179017538Y-65120655D01*
X179476927Y-65580846D01*
X180077453Y-65830206D01*
X180727694Y-65830774D01*
X181328655Y-65582462D01*
X181788846Y-65123073D01*
X182038206Y-64522547D01*
X182038774Y-63872306D01*
X181790462Y-63271345D01*
X181431743Y-62912000D01*
X182434370Y-62912000D01*
X184257185Y-64734815D01*
X184504395Y-64899996D01*
X184504396Y-64899996D01*
X184515256Y-64902156D01*
X184605538Y-65120655D01*
X185064927Y-65580846D01*
X185665453Y-65830206D01*
X186315694Y-65830774D01*
X186916655Y-65582462D01*
X187376846Y-65123073D01*
X187626206Y-64522547D01*
X187626774Y-63872306D01*
X187378462Y-63271345D01*
X186919073Y-62811154D01*
X186318547Y-62561794D01*
X185668306Y-62561226D01*
X185067345Y-62809538D01*
X184777003Y-63099373D01*
X183288815Y-61611185D01*
X183041605Y-61446004D01*
X182750000Y-61388000D01*
X179475000Y-61388000D01*
X179183395Y-61446004D01*
X178936185Y-61611185D01*
X177617092Y-62930277D01*
X177743268Y-62626413D01*
X177743731Y-62095914D01*
X177541146Y-61605620D01*
X177166353Y-61230173D01*
X176828553Y-61089906D01*
X177164380Y-60951146D01*
X177539827Y-60576353D01*
X177743268Y-60086413D01*
X177743731Y-59555914D01*
X177541146Y-59065620D01*
X177166353Y-58690173D01*
X176676413Y-58486732D01*
X176145914Y-58486269D01*
X175655620Y-58688854D01*
X175280173Y-59063647D01*
X175076732Y-59553587D01*
X175076269Y-60084086D01*
X175278854Y-60574380D01*
X175653647Y-60949827D01*
X175991446Y-61090093D01*
X175655620Y-61228854D01*
X175280173Y-61603647D01*
X175076732Y-62093587D01*
X175076269Y-62624086D01*
X175205975Y-62938000D01*
X172530000Y-62938000D01*
X172238395Y-62996004D01*
X172139376Y-63062165D01*
X171991185Y-63161184D01*
X170123387Y-65028981D01*
X170123731Y-64635914D01*
X169921146Y-64145620D01*
X169546353Y-63770173D01*
X169208553Y-63629906D01*
X169544380Y-63491146D01*
X169919827Y-63116353D01*
X170123268Y-62626413D01*
X170123731Y-62095914D01*
X169921146Y-61605620D01*
X169546353Y-61230173D01*
X169208553Y-61089906D01*
X169544380Y-60951146D01*
X169919827Y-60576353D01*
X170123268Y-60086413D01*
X170123731Y-59555914D01*
X169921146Y-59065620D01*
X169546353Y-58690173D01*
X169056413Y-58486732D01*
X168742340Y-58486457D01*
X168742340Y-54722869D01*
X168715553Y-54142465D01*
X168544976Y-53730656D01*
X168296215Y-53653390D01*
X168116610Y-53832995D01*
X168116610Y-53473785D01*
X168039344Y-53225024D01*
X167492869Y-53027660D01*
X166912465Y-53054447D01*
X166500656Y-53225024D01*
X166423390Y-53473785D01*
X167270000Y-54320395D01*
X168116610Y-53473785D01*
X168116610Y-53832995D01*
X167449605Y-54500000D01*
X168296215Y-55346610D01*
X168544976Y-55269344D01*
X168742340Y-54722869D01*
X168742340Y-58486457D01*
X168525914Y-58486269D01*
X168116610Y-58655389D01*
X168116610Y-55526215D01*
X167270000Y-54679605D01*
X167090395Y-54859210D01*
X167090395Y-54500000D01*
X166243785Y-53653390D01*
X166190500Y-53669940D01*
X166190500Y-53548191D01*
X166093827Y-53314802D01*
X165915199Y-53136173D01*
X165681810Y-53039500D01*
X165429191Y-53039500D01*
X163778191Y-53039500D01*
X163544802Y-53136173D01*
X163366173Y-53314801D01*
X163269500Y-53548190D01*
X163269500Y-53800809D01*
X163269500Y-55451809D01*
X163366173Y-55685198D01*
X163544801Y-55863827D01*
X163778190Y-55960500D01*
X164030809Y-55960500D01*
X165681809Y-55960500D01*
X165915198Y-55863827D01*
X166093827Y-55685199D01*
X166190500Y-55451810D01*
X166190500Y-55330059D01*
X166243785Y-55346610D01*
X167090395Y-54500000D01*
X167090395Y-54859210D01*
X166423390Y-55526215D01*
X166500656Y-55774976D01*
X167047131Y-55972340D01*
X167627535Y-55945553D01*
X168039344Y-55774976D01*
X168116610Y-55526215D01*
X168116610Y-58655389D01*
X168035620Y-58688854D01*
X167660173Y-59063647D01*
X167456732Y-59553587D01*
X167456269Y-60084086D01*
X167658854Y-60574380D01*
X168033647Y-60949827D01*
X168371446Y-61090093D01*
X168035620Y-61228854D01*
X167660173Y-61603647D01*
X167456732Y-62093587D01*
X167456269Y-62624086D01*
X167658854Y-63114380D01*
X168033647Y-63489827D01*
X168371446Y-63630093D01*
X168035620Y-63768854D01*
X167665829Y-64138000D01*
X166815630Y-64138000D01*
X166438815Y-63761185D01*
X166191605Y-63596004D01*
X165900000Y-63538000D01*
X151139800Y-63538000D01*
X150848195Y-63596004D01*
X150600984Y-63761185D01*
X144552600Y-69809569D01*
X144552600Y-68156091D01*
X144455927Y-67922702D01*
X144277299Y-67744073D01*
X144043910Y-67647400D01*
X143791291Y-67647400D01*
X141556091Y-67647400D01*
X141322702Y-67744073D01*
X141144073Y-67922701D01*
X141047400Y-68156090D01*
X141047400Y-68408709D01*
X141047400Y-70643909D01*
X141144073Y-70877298D01*
X141322701Y-71055927D01*
X141556090Y-71152600D01*
X141808709Y-71152600D01*
X143209569Y-71152600D01*
X139805330Y-74556839D01*
X139805330Y-60922735D01*
X139805330Y-52922735D01*
X139515922Y-52222314D01*
X138980505Y-51685961D01*
X138280590Y-51395332D01*
X137522735Y-51394670D01*
X136822314Y-51684078D01*
X136285961Y-52219495D01*
X135995332Y-52919410D01*
X135994670Y-53677265D01*
X136284078Y-54377686D01*
X136819495Y-54914039D01*
X137519410Y-55204668D01*
X138277265Y-55205330D01*
X138977686Y-54915922D01*
X139514039Y-54380505D01*
X139804668Y-53680590D01*
X139805330Y-52922735D01*
X139805330Y-60922735D01*
X139515922Y-60222314D01*
X139398859Y-60105046D01*
X139398859Y-57003218D01*
X139171192Y-56452220D01*
X138749997Y-56030290D01*
X138199398Y-55801661D01*
X137603218Y-55801141D01*
X137052220Y-56028808D01*
X136630290Y-56450003D01*
X136401661Y-57000602D01*
X136401141Y-57596782D01*
X136628808Y-58147780D01*
X137050003Y-58569710D01*
X137600602Y-58798339D01*
X138196782Y-58798859D01*
X138747780Y-58571192D01*
X139169710Y-58149997D01*
X139398339Y-57599398D01*
X139398859Y-57003218D01*
X139398859Y-60105046D01*
X138980505Y-59685961D01*
X138280590Y-59395332D01*
X137522735Y-59394670D01*
X136822314Y-59684078D01*
X136285961Y-60219495D01*
X135995332Y-60919410D01*
X135994670Y-61677265D01*
X136284078Y-62377686D01*
X136819495Y-62914039D01*
X137519410Y-63204668D01*
X138277265Y-63205330D01*
X138977686Y-62915922D01*
X139514039Y-62380505D01*
X139804668Y-61680590D01*
X139805330Y-60922735D01*
X139805330Y-74556839D01*
X134438561Y-79923608D01*
X134438774Y-79680306D01*
X134370517Y-79515112D01*
X138438815Y-75446816D01*
X138438815Y-75446815D01*
X138603996Y-75199605D01*
X138661999Y-74908000D01*
X138662000Y-74908000D01*
X138662000Y-66606635D01*
X138747780Y-66571192D01*
X139169710Y-66149997D01*
X139398339Y-65599398D01*
X139398859Y-65003218D01*
X139171192Y-64452220D01*
X138749997Y-64030290D01*
X138199398Y-63801661D01*
X137603218Y-63801141D01*
X137052220Y-64028808D01*
X136630290Y-64450003D01*
X136401661Y-65000602D01*
X136401141Y-65596782D01*
X136628808Y-66147780D01*
X137050003Y-66569710D01*
X137138000Y-66606249D01*
X137138000Y-68612150D01*
X136969268Y-68542087D01*
X136539816Y-68541713D01*
X136142911Y-68705711D01*
X135988953Y-68859400D01*
X134224630Y-68859400D01*
X134224630Y-56847156D01*
X134224630Y-54952844D01*
X134111619Y-54384701D01*
X133789792Y-53903052D01*
X133308143Y-53581225D01*
X132740000Y-53468214D01*
X132171857Y-53581225D01*
X131690208Y-53903052D01*
X131464483Y-54240872D01*
X131159989Y-53859976D01*
X130650810Y-53579351D01*
X130556832Y-53558460D01*
X130327000Y-53679786D01*
X130327000Y-55773000D01*
X130347000Y-55773000D01*
X130347000Y-56027000D01*
X130327000Y-56027000D01*
X130327000Y-58120214D01*
X130556832Y-58241540D01*
X130650810Y-58220649D01*
X131159989Y-57940024D01*
X131464483Y-57559127D01*
X131690208Y-57896948D01*
X132171857Y-58218775D01*
X132740000Y-58331786D01*
X133308143Y-58218775D01*
X133789792Y-57896948D01*
X134111619Y-57415299D01*
X134224630Y-56847156D01*
X134224630Y-68859400D01*
X130073000Y-68859400D01*
X130073000Y-58120214D01*
X130073000Y-56027000D01*
X130053000Y-56027000D01*
X130053000Y-55773000D01*
X130073000Y-55773000D01*
X130073000Y-53679786D01*
X129843168Y-53558460D01*
X129749190Y-53579351D01*
X129240011Y-53859976D01*
X128935516Y-54240872D01*
X128709792Y-53903052D01*
X128228143Y-53581225D01*
X127660000Y-53468214D01*
X127091857Y-53581225D01*
X126610208Y-53903052D01*
X126288381Y-54384701D01*
X126175370Y-54952844D01*
X126175370Y-56847156D01*
X126288381Y-57415299D01*
X126610208Y-57896948D01*
X127091857Y-58218775D01*
X127660000Y-58331786D01*
X128228143Y-58218775D01*
X128709792Y-57896948D01*
X128935516Y-57559127D01*
X129240011Y-57940024D01*
X129749190Y-58220649D01*
X129843168Y-58241540D01*
X130073000Y-58120214D01*
X130073000Y-68859400D01*
X126779687Y-68859400D01*
X126779687Y-63086216D01*
X126615689Y-62689311D01*
X126312286Y-62385378D01*
X125915668Y-62220687D01*
X125486216Y-62220313D01*
X125089311Y-62384311D01*
X124935353Y-62538000D01*
X111977126Y-62538000D01*
X111915689Y-62389311D01*
X111612286Y-62085378D01*
X111215668Y-61920687D01*
X110786216Y-61920313D01*
X110389311Y-62084311D01*
X110085378Y-62387714D01*
X109920687Y-62784332D01*
X109920313Y-63213784D01*
X110084311Y-63610689D01*
X110387714Y-63914622D01*
X110784332Y-64079313D01*
X111213784Y-64079687D01*
X111270696Y-64056171D01*
X111300000Y-64062000D01*
X124935358Y-64062000D01*
X125087714Y-64214622D01*
X125484332Y-64379313D01*
X125913784Y-64379687D01*
X126310689Y-64215689D01*
X126614622Y-63912286D01*
X126779313Y-63515668D01*
X126779687Y-63086216D01*
X126779687Y-68859400D01*
X117609144Y-68859400D01*
X117609144Y-66027698D01*
X117581362Y-65472632D01*
X117422397Y-65088857D01*
X117180213Y-65019392D01*
X117000608Y-65198997D01*
X117000608Y-64839787D01*
X116931143Y-64597603D01*
X116407698Y-64410856D01*
X115852632Y-64438638D01*
X115468857Y-64597603D01*
X115399392Y-64839787D01*
X116200000Y-65640395D01*
X117000608Y-64839787D01*
X117000608Y-65198997D01*
X116379605Y-65820000D01*
X117180213Y-66620608D01*
X117422397Y-66551143D01*
X117609144Y-66027698D01*
X117609144Y-68859400D01*
X117505280Y-68859400D01*
X117596757Y-68639100D01*
X117597242Y-68083339D01*
X117385010Y-67569697D01*
X116992370Y-67176371D01*
X116800272Y-67096605D01*
X116931143Y-67042397D01*
X117000608Y-66800213D01*
X116200000Y-65999605D01*
X116020395Y-66179210D01*
X116020395Y-65820000D01*
X115219787Y-65019392D01*
X114977603Y-65088857D01*
X114790856Y-65612302D01*
X114818638Y-66167368D01*
X114977603Y-66551143D01*
X115219787Y-66620608D01*
X116020395Y-65820000D01*
X116020395Y-66179210D01*
X115399392Y-66800213D01*
X115468857Y-67042397D01*
X115609317Y-67092508D01*
X115409697Y-67174990D01*
X115016371Y-67567630D01*
X114803243Y-68080900D01*
X114802758Y-68636661D01*
X114894791Y-68859400D01*
X110627830Y-68859400D01*
X108499615Y-66731185D01*
X108252405Y-66566004D01*
X107960800Y-66508000D01*
X104251000Y-66508000D01*
X104251000Y-59812309D01*
X104251000Y-58955750D01*
X104251000Y-58384250D01*
X104251000Y-57527691D01*
X104154327Y-57294302D01*
X103975699Y-57115673D01*
X103924628Y-57094518D01*
X104125325Y-56794155D01*
X104251000Y-56162345D01*
X104251000Y-56097655D01*
X104125325Y-55465845D01*
X103767433Y-54930222D01*
X103231810Y-54572330D01*
X102600000Y-54446655D01*
X101968190Y-54572330D01*
X101432567Y-54930222D01*
X101074675Y-55465845D01*
X100949000Y-56097655D01*
X100949000Y-56162345D01*
X101074675Y-56794155D01*
X101275371Y-57094518D01*
X101224301Y-57115673D01*
X101045673Y-57294302D01*
X100949000Y-57527691D01*
X100949000Y-58384250D01*
X101107750Y-58543000D01*
X102473000Y-58543000D01*
X102473000Y-58523000D01*
X102727000Y-58523000D01*
X102727000Y-58543000D01*
X104092250Y-58543000D01*
X104251000Y-58384250D01*
X104251000Y-58955750D01*
X104092250Y-58797000D01*
X102727000Y-58797000D01*
X102727000Y-60162250D01*
X102885750Y-60321000D01*
X103489691Y-60321000D01*
X103742310Y-60321000D01*
X103975699Y-60224327D01*
X104154327Y-60045698D01*
X104251000Y-59812309D01*
X104251000Y-66508000D01*
X103943311Y-66508000D01*
X103744415Y-66210330D01*
X103429634Y-66000000D01*
X103744415Y-65789670D01*
X104069271Y-65303489D01*
X104183345Y-64730000D01*
X104069271Y-64156511D01*
X103744415Y-63670330D01*
X103434930Y-63463539D01*
X103850732Y-63092036D01*
X104104709Y-62564791D01*
X104107358Y-62549026D01*
X104107358Y-61830974D01*
X104104709Y-61815209D01*
X103850732Y-61287964D01*
X103414320Y-60898046D01*
X102861913Y-60704816D01*
X102627000Y-60849076D01*
X102627000Y-62063000D01*
X103986217Y-62063000D01*
X104107358Y-61830974D01*
X104107358Y-62549026D01*
X103986217Y-62317000D01*
X102627000Y-62317000D01*
X102627000Y-62337000D01*
X102473000Y-62337000D01*
X102473000Y-60162250D01*
X102473000Y-58797000D01*
X101107750Y-58797000D01*
X100949000Y-58955750D01*
X100949000Y-59812309D01*
X101045673Y-60045698D01*
X101224301Y-60224327D01*
X101457690Y-60321000D01*
X101710309Y-60321000D01*
X102314250Y-60321000D01*
X102473000Y-60162250D01*
X102473000Y-62337000D01*
X102373000Y-62337000D01*
X102373000Y-62317000D01*
X102373000Y-62063000D01*
X102373000Y-60849076D01*
X102138087Y-60704816D01*
X101585680Y-60898046D01*
X101149268Y-61287964D01*
X100895291Y-61815209D01*
X100892642Y-61830974D01*
X101013783Y-62063000D01*
X102373000Y-62063000D01*
X102373000Y-62317000D01*
X101013783Y-62317000D01*
X100892642Y-62549026D01*
X100895291Y-62564791D01*
X101149268Y-63092036D01*
X101565069Y-63463539D01*
X101255585Y-63670330D01*
X100930729Y-64156511D01*
X100816655Y-64730000D01*
X100930729Y-65303489D01*
X101255585Y-65789670D01*
X101570365Y-66000000D01*
X101255585Y-66210330D01*
X100930729Y-66696511D01*
X100816655Y-67270000D01*
X100930729Y-67843489D01*
X101255585Y-68329670D01*
X101277780Y-68344500D01*
X101124302Y-68408073D01*
X100945673Y-68586701D01*
X100849000Y-68820090D01*
X100849000Y-69072709D01*
X100849000Y-70799909D01*
X100945673Y-71033298D01*
X101124301Y-71211927D01*
X101357690Y-71308600D01*
X101610309Y-71308600D01*
X101738000Y-71308600D01*
X101738000Y-75800000D01*
X101796004Y-76091605D01*
X101961185Y-76338815D01*
X104239500Y-78617130D01*
X104239500Y-79421809D01*
X104336173Y-79655198D01*
X104514801Y-79833827D01*
X104748190Y-79930500D01*
X104938000Y-79930500D01*
X104938000Y-80935000D01*
X104996004Y-81226605D01*
X105161185Y-81473815D01*
X108966000Y-85278630D01*
X108966000Y-99314000D01*
X109024004Y-99605605D01*
X109189185Y-99852815D01*
X112339719Y-103003350D01*
X110812245Y-104530825D01*
X110647064Y-104778035D01*
X110589060Y-105069640D01*
X110589060Y-106115330D01*
X110426405Y-106182538D01*
X109966214Y-106641927D01*
X109716854Y-107242453D01*
X109716286Y-107892694D01*
X109964598Y-108493655D01*
X110423987Y-108953846D01*
X111024513Y-109203206D01*
X111674754Y-109203774D01*
X112275715Y-108955462D01*
X112735906Y-108496073D01*
X112985266Y-107895547D01*
X112985834Y-107245306D01*
X112737522Y-106644345D01*
X112278133Y-106184154D01*
X112113060Y-106115609D01*
X112113060Y-105385270D01*
X113612330Y-103886000D01*
X117654669Y-103886000D01*
X120848585Y-107079915D01*
X120781094Y-107242453D01*
X120780526Y-107892694D01*
X121028838Y-108493655D01*
X121488227Y-108953846D01*
X122088753Y-109203206D01*
X122738994Y-109203774D01*
X122904187Y-109135517D01*
X123717984Y-109949315D01*
X123717985Y-109949315D01*
X123965195Y-110114496D01*
X124256800Y-110172500D01*
X130773769Y-110172500D01*
X135597900Y-114996631D01*
X135597713Y-115212284D01*
X135761711Y-115609189D01*
X136065114Y-115913122D01*
X136095097Y-115925572D01*
X132589870Y-119430800D01*
X121894600Y-119430800D01*
X121602995Y-119488804D01*
X121355785Y-119653985D01*
X119048814Y-121960955D01*
X119048814Y-107245306D01*
X118800502Y-106644345D01*
X118341113Y-106184154D01*
X117740587Y-105934794D01*
X117090346Y-105934226D01*
X116489385Y-106182538D01*
X116029194Y-106641927D01*
X115779834Y-107242453D01*
X115779266Y-107892694D01*
X116027578Y-108493655D01*
X116486967Y-108953846D01*
X117087493Y-109203206D01*
X117737734Y-109203774D01*
X118338695Y-108955462D01*
X118798886Y-108496073D01*
X119048246Y-107895547D01*
X119048814Y-107245306D01*
X119048814Y-121960955D01*
X115379687Y-125630082D01*
X115379687Y-120029816D01*
X115215689Y-119632911D01*
X114912286Y-119328978D01*
X114515668Y-119164287D01*
X114298127Y-119164097D01*
X113886315Y-118752285D01*
X113639105Y-118587104D01*
X113347500Y-118529100D01*
X111518700Y-118529100D01*
X111227095Y-118587104D01*
X110979885Y-118752285D01*
X110212470Y-119519700D01*
X108962000Y-119519700D01*
X108962000Y-96040000D01*
X108962000Y-89700000D01*
X108903996Y-89408396D01*
X108903996Y-89408395D01*
X108837834Y-89309376D01*
X108738816Y-89161185D01*
X107522484Y-87944854D01*
X107427670Y-87468190D01*
X107069778Y-86932567D01*
X106534155Y-86574675D01*
X105902345Y-86449000D01*
X105837655Y-86449000D01*
X105205845Y-86574675D01*
X104905480Y-86775371D01*
X104884327Y-86724302D01*
X104705699Y-86545673D01*
X104472310Y-86449000D01*
X104219691Y-86449000D01*
X102187691Y-86449000D01*
X101954302Y-86545673D01*
X101775673Y-86724301D01*
X101679000Y-86957690D01*
X101679000Y-87210309D01*
X101679000Y-89242309D01*
X101775673Y-89475698D01*
X101954301Y-89654327D01*
X102187690Y-89751000D01*
X102440309Y-89751000D01*
X103903369Y-89751000D01*
X104521918Y-90369548D01*
X104472309Y-90349000D01*
X103615750Y-90349000D01*
X103457000Y-90507750D01*
X103457000Y-91873000D01*
X103477000Y-91873000D01*
X103477000Y-92127000D01*
X103457000Y-92127000D01*
X103457000Y-93492250D01*
X103615750Y-93651000D01*
X104472309Y-93651000D01*
X104705698Y-93554327D01*
X104884327Y-93375699D01*
X104905481Y-93324628D01*
X105108000Y-93459947D01*
X105108000Y-94584998D01*
X104680971Y-94870330D01*
X104500000Y-95141172D01*
X104319029Y-94870330D01*
X103832848Y-94545474D01*
X103259359Y-94431400D01*
X103203000Y-94431400D01*
X103203000Y-93492250D01*
X103203000Y-92127000D01*
X103203000Y-91873000D01*
X103203000Y-90507750D01*
X103044250Y-90349000D01*
X102187691Y-90349000D01*
X101954302Y-90445673D01*
X101775673Y-90624301D01*
X101679000Y-90857690D01*
X101679000Y-91110309D01*
X101679000Y-91714250D01*
X101837750Y-91873000D01*
X103203000Y-91873000D01*
X103203000Y-92127000D01*
X101837750Y-92127000D01*
X101679000Y-92285750D01*
X101679000Y-92889691D01*
X101679000Y-93142310D01*
X101775673Y-93375699D01*
X101954302Y-93554327D01*
X102187691Y-93651000D01*
X103044250Y-93651000D01*
X103203000Y-93492250D01*
X103203000Y-94431400D01*
X103200641Y-94431400D01*
X102627152Y-94545474D01*
X102140971Y-94870330D01*
X101816115Y-95356511D01*
X101702041Y-95930000D01*
X101816115Y-96503489D01*
X102140971Y-96989670D01*
X102464228Y-97205663D01*
X102341510Y-97263179D01*
X101947312Y-97695053D01*
X101775042Y-98110974D01*
X101896183Y-98343000D01*
X103103000Y-98343000D01*
X103103000Y-98323000D01*
X103357000Y-98323000D01*
X103357000Y-98343000D01*
X103377000Y-98343000D01*
X103377000Y-98597000D01*
X103357000Y-98597000D01*
X103357000Y-99804469D01*
X103589027Y-99924968D01*
X104118490Y-99676821D01*
X104285471Y-99493880D01*
X104368073Y-99693298D01*
X104546701Y-99871927D01*
X104780090Y-99968600D01*
X105032709Y-99968600D01*
X106759909Y-99968600D01*
X106993298Y-99871927D01*
X107171927Y-99693299D01*
X107268600Y-99459910D01*
X107268600Y-99207291D01*
X107268600Y-98049030D01*
X108738815Y-96578815D01*
X108903996Y-96331605D01*
X108903996Y-96331604D01*
X108962000Y-96040000D01*
X108962000Y-119519700D01*
X107984574Y-119519700D01*
X107984574Y-107245306D01*
X107736262Y-106644345D01*
X107276873Y-106184154D01*
X106676347Y-105934794D01*
X106026106Y-105934226D01*
X105425145Y-106182538D01*
X104964954Y-106641927D01*
X104715594Y-107242453D01*
X104715026Y-107892694D01*
X104963338Y-108493655D01*
X105422727Y-108953846D01*
X106023253Y-109203206D01*
X106673494Y-109203774D01*
X107274455Y-108955462D01*
X107734646Y-108496073D01*
X107984006Y-107895547D01*
X107984574Y-107245306D01*
X107984574Y-119519700D01*
X107022900Y-119519700D01*
X107022900Y-119139391D01*
X106926227Y-118906002D01*
X106747599Y-118727373D01*
X106514210Y-118630700D01*
X106261591Y-118630700D01*
X104229591Y-118630700D01*
X103996202Y-118727373D01*
X103817573Y-118906001D01*
X103801206Y-118945512D01*
X103800279Y-118944512D01*
X103214846Y-118675717D01*
X103103000Y-118727551D01*
X103103000Y-99804469D01*
X103103000Y-98597000D01*
X101896183Y-98597000D01*
X101775042Y-98829026D01*
X101947312Y-99244947D01*
X102341510Y-99676821D01*
X102870973Y-99924968D01*
X103103000Y-99804469D01*
X103103000Y-118727551D01*
X102958900Y-118794333D01*
X102958900Y-120154700D01*
X102978900Y-120154700D01*
X102978900Y-120408700D01*
X102958900Y-120408700D01*
X102958900Y-121769067D01*
X103214846Y-121887683D01*
X103800279Y-121618888D01*
X103801207Y-121617887D01*
X103817573Y-121657398D01*
X103996201Y-121836027D01*
X104229590Y-121932700D01*
X104482209Y-121932700D01*
X106514209Y-121932700D01*
X106747598Y-121836027D01*
X106926227Y-121657399D01*
X107022900Y-121424010D01*
X107022900Y-121171391D01*
X107022900Y-121043700D01*
X110517269Y-121043700D01*
X108046185Y-123514785D01*
X107881004Y-123761995D01*
X107823000Y-124053600D01*
X107823000Y-127243170D01*
X104319669Y-130746500D01*
X104104016Y-130746313D01*
X103707111Y-130910311D01*
X103403178Y-131213714D01*
X103238487Y-131610332D01*
X103238113Y-132039784D01*
X103402111Y-132436689D01*
X103705514Y-132740622D01*
X104102132Y-132905313D01*
X104531584Y-132905687D01*
X104928489Y-132741689D01*
X105232422Y-132438286D01*
X105397113Y-132041668D01*
X105397302Y-131824127D01*
X109123815Y-128097615D01*
X109288996Y-127850405D01*
X109346999Y-127558800D01*
X109347000Y-127558800D01*
X109347000Y-124369230D01*
X111707330Y-122008899D01*
X111922984Y-122009087D01*
X112319889Y-121845089D01*
X112623822Y-121541686D01*
X112788513Y-121145068D01*
X112788887Y-120715616D01*
X112624889Y-120318711D01*
X112359741Y-120053100D01*
X113031869Y-120053100D01*
X113220500Y-120241731D01*
X113220313Y-120457384D01*
X113384311Y-120854289D01*
X113687714Y-121158222D01*
X114084332Y-121322913D01*
X114513784Y-121323287D01*
X114910689Y-121159289D01*
X115214622Y-120855886D01*
X115379313Y-120459268D01*
X115379687Y-120029816D01*
X115379687Y-125630082D01*
X110644269Y-130365500D01*
X110428616Y-130365313D01*
X110031711Y-130529311D01*
X109727778Y-130832714D01*
X109563087Y-131229332D01*
X109562713Y-131658784D01*
X109726711Y-132055689D01*
X110030114Y-132359622D01*
X110426732Y-132524313D01*
X110856184Y-132524687D01*
X111253089Y-132360689D01*
X111557022Y-132057286D01*
X111721713Y-131660668D01*
X111721902Y-131443127D01*
X120523750Y-122641279D01*
X120572511Y-122759289D01*
X120726200Y-122913246D01*
X120726200Y-129872070D01*
X108180469Y-142417800D01*
X107964816Y-142417613D01*
X107567911Y-142581611D01*
X107263978Y-142885014D01*
X107099287Y-143281632D01*
X107098913Y-143711084D01*
X107262911Y-144107989D01*
X107566092Y-144411700D01*
X104862030Y-144411700D01*
X104648000Y-144197669D01*
X104648000Y-141302841D01*
X104800622Y-141150486D01*
X104965313Y-140753868D01*
X104965687Y-140324416D01*
X104801689Y-139927511D01*
X104498286Y-139623578D01*
X104101668Y-139458887D01*
X103672216Y-139458513D01*
X103275311Y-139622511D01*
X102971378Y-139925914D01*
X102806687Y-140322532D01*
X102806313Y-140751984D01*
X102970311Y-141148889D01*
X103124000Y-141302846D01*
X103124000Y-144513300D01*
X103182004Y-144804905D01*
X103347185Y-145052115D01*
X104007585Y-145712516D01*
X104155776Y-145811534D01*
X104254795Y-145877696D01*
X104254796Y-145877696D01*
X104546400Y-145935700D01*
X112102900Y-145935700D01*
X112102900Y-145935699D01*
X112394504Y-145877696D01*
X112394505Y-145877696D01*
X112641715Y-145712515D01*
X113752030Y-144602200D01*
X114640435Y-144602200D01*
X114894214Y-144856422D01*
X115290832Y-145021113D01*
X115720284Y-145021487D01*
X116117189Y-144857489D01*
X116271146Y-144703800D01*
X117705469Y-144703800D01*
X119895284Y-146893615D01*
X119895285Y-146893615D01*
X120142495Y-147058796D01*
X120434100Y-147116800D01*
X131721758Y-147116800D01*
X131874114Y-147269422D01*
X132270732Y-147434113D01*
X132700184Y-147434487D01*
X133097089Y-147270489D01*
X133401022Y-146967086D01*
X133565713Y-146570468D01*
X133566087Y-146141016D01*
X133402089Y-145744111D01*
X133098686Y-145440178D01*
X132702068Y-145275487D01*
X132272616Y-145275113D01*
X131875711Y-145439111D01*
X131721753Y-145592800D01*
X120749730Y-145592800D01*
X118559915Y-143402985D01*
X118312705Y-143237804D01*
X118021100Y-143179800D01*
X116271141Y-143179800D01*
X116118786Y-143027178D01*
X115722168Y-142862487D01*
X115292716Y-142862113D01*
X114895811Y-143026111D01*
X114843631Y-143078200D01*
X113436400Y-143078200D01*
X113144795Y-143136204D01*
X113045776Y-143202365D01*
X112897585Y-143301384D01*
X111787269Y-144411700D01*
X108790580Y-144411700D01*
X109093222Y-144109586D01*
X109257913Y-143712968D01*
X109258102Y-143495427D01*
X122027015Y-130726515D01*
X122192196Y-130479305D01*
X122192196Y-130479304D01*
X122250200Y-130187700D01*
X122250200Y-122913241D01*
X122402822Y-122760886D01*
X122567513Y-122364268D01*
X122567887Y-121934816D01*
X122403889Y-121537911D01*
X122100486Y-121233978D01*
X121980764Y-121184265D01*
X122210229Y-120954800D01*
X132905500Y-120954800D01*
X132905500Y-120954799D01*
X133197104Y-120896796D01*
X133197105Y-120896796D01*
X133444315Y-120731615D01*
X136156556Y-118019373D01*
X136156513Y-118069784D01*
X136320511Y-118466689D01*
X136623914Y-118770622D01*
X137020532Y-118935313D01*
X137449984Y-118935687D01*
X137846889Y-118771689D01*
X138000846Y-118618000D01*
X142813370Y-118618000D01*
X144602200Y-120406830D01*
X144602013Y-120622484D01*
X144766011Y-121019389D01*
X145069414Y-121323322D01*
X145466032Y-121488013D01*
X145895484Y-121488387D01*
X146292389Y-121324389D01*
X146596322Y-121020986D01*
X146761013Y-120624368D01*
X146761387Y-120194916D01*
X146597389Y-119798011D01*
X146293986Y-119494078D01*
X145897368Y-119329387D01*
X145679827Y-119329197D01*
X143667815Y-117317185D01*
X143420605Y-117152004D01*
X143129000Y-117094000D01*
X138000841Y-117094000D01*
X137848486Y-116941378D01*
X137451868Y-116776687D01*
X137399288Y-116776641D01*
X143216030Y-110959899D01*
X143431684Y-110960087D01*
X143828589Y-110796089D01*
X144093956Y-110531184D01*
X144245311Y-110897489D01*
X144373600Y-111026002D01*
X144373600Y-112316158D01*
X144220978Y-112468514D01*
X144056287Y-112865132D01*
X144055913Y-113294584D01*
X144219911Y-113691489D01*
X144523314Y-113995422D01*
X144919932Y-114160113D01*
X145349384Y-114160487D01*
X145746289Y-113996489D01*
X146050222Y-113693086D01*
X146214913Y-113296468D01*
X146215287Y-112867016D01*
X146051289Y-112470111D01*
X145897600Y-112316153D01*
X145897600Y-111076797D01*
X146075622Y-110899086D01*
X146240313Y-110502468D01*
X146240633Y-110134400D01*
X146253200Y-110134400D01*
X146253200Y-116459000D01*
X146311204Y-116750605D01*
X146476385Y-116997815D01*
X151320500Y-121841931D01*
X151320313Y-122057584D01*
X151484311Y-122454489D01*
X151787714Y-122758422D01*
X152184332Y-122923113D01*
X152613784Y-122923487D01*
X153010689Y-122759489D01*
X153314622Y-122456086D01*
X153479313Y-122059468D01*
X153479687Y-121630016D01*
X153368614Y-121361200D01*
X158561370Y-121361200D01*
X158686500Y-121486330D01*
X158686313Y-121701984D01*
X158850311Y-122098889D01*
X159153714Y-122402822D01*
X159527618Y-122558081D01*
X159326016Y-122859800D01*
X156006800Y-122859800D01*
X155715195Y-122917804D01*
X155616176Y-122983965D01*
X155467985Y-123082984D01*
X154470220Y-124080748D01*
X154470287Y-124004916D01*
X154306289Y-123608011D01*
X154002886Y-123304078D01*
X153606268Y-123139387D01*
X153176816Y-123139013D01*
X152779911Y-123303011D01*
X152562342Y-123520200D01*
X135445500Y-123520200D01*
X135153895Y-123578204D01*
X134906684Y-123743385D01*
X132963585Y-125686485D01*
X132798404Y-125933695D01*
X132740400Y-126225300D01*
X132740400Y-127594258D01*
X132587778Y-127746614D01*
X132423087Y-128143232D01*
X132422713Y-128572684D01*
X132586711Y-128969589D01*
X132890114Y-129273522D01*
X133286732Y-129438213D01*
X133716184Y-129438587D01*
X134113089Y-129274589D01*
X134417022Y-128971186D01*
X134581713Y-128574568D01*
X134582087Y-128145116D01*
X134418089Y-127748211D01*
X134264400Y-127594253D01*
X134264400Y-126540930D01*
X135761130Y-125044200D01*
X149338180Y-125044200D01*
X149237887Y-125285732D01*
X149237513Y-125715184D01*
X149401511Y-126112089D01*
X149438300Y-126148942D01*
X149351778Y-126235314D01*
X149187087Y-126631932D01*
X149186713Y-127061384D01*
X149335109Y-127420530D01*
X149250178Y-127505314D01*
X149085487Y-127901932D01*
X149085113Y-128331384D01*
X149249111Y-128728289D01*
X149274144Y-128753366D01*
X149110887Y-129146532D01*
X149110513Y-129575984D01*
X149274511Y-129972889D01*
X149577914Y-130276822D01*
X149974532Y-130441513D01*
X150403984Y-130441887D01*
X150800889Y-130277889D01*
X150954846Y-130124200D01*
X153735369Y-130124200D01*
X155391785Y-131780616D01*
X155539976Y-131879634D01*
X155638995Y-131945796D01*
X155638996Y-131945796D01*
X155930600Y-132003800D01*
X159326016Y-132003800D01*
X159544530Y-132330829D01*
X159815372Y-132511800D01*
X159544530Y-132692771D01*
X159219674Y-133178952D01*
X159105600Y-133752441D01*
X159105600Y-133811159D01*
X159219674Y-134384648D01*
X159495733Y-134797800D01*
X145933830Y-134797800D01*
X145542000Y-134405969D01*
X145542000Y-127891641D01*
X145694622Y-127739286D01*
X145859313Y-127342668D01*
X145859687Y-126913216D01*
X145695689Y-126516311D01*
X145392286Y-126212378D01*
X144995668Y-126047687D01*
X144566216Y-126047313D01*
X144169311Y-126211311D01*
X143865378Y-126514714D01*
X143700687Y-126911332D01*
X143700313Y-127340784D01*
X143864311Y-127737689D01*
X144018000Y-127891646D01*
X144018000Y-134721600D01*
X144076004Y-135013205D01*
X144241185Y-135260415D01*
X145079385Y-136098616D01*
X145227576Y-136197634D01*
X145326595Y-136263796D01*
X145326596Y-136263796D01*
X145618200Y-136321800D01*
X164388965Y-136321800D01*
X164388613Y-136726084D01*
X164552611Y-137122989D01*
X164856014Y-137426922D01*
X165252632Y-137591613D01*
X165608000Y-137591922D01*
X165608000Y-143637000D01*
X165622565Y-143710223D01*
X165622487Y-143784877D01*
X165651285Y-143854608D01*
X165666004Y-143928605D01*
X165707480Y-143990678D01*
X165735978Y-144059682D01*
X167005978Y-145964681D01*
X167059269Y-146018084D01*
X167101185Y-146080815D01*
X167163257Y-146122290D01*
X167215993Y-146175137D01*
X167285665Y-146204081D01*
X167348395Y-146245996D01*
X167421617Y-146260560D01*
X167490560Y-146289202D01*
X167566002Y-146289280D01*
X167640000Y-146304000D01*
X171831000Y-146304000D01*
X171831000Y-146303999D01*
X172122604Y-146245996D01*
X172122605Y-146245996D01*
X172369815Y-146080815D01*
X173908630Y-144542000D01*
X175476500Y-144542000D01*
X175476500Y-144604809D01*
X175573173Y-144838198D01*
X175751801Y-145016827D01*
X175985190Y-145113500D01*
X176237809Y-145113500D01*
X177634809Y-145113500D01*
X177868198Y-145016827D01*
X178046827Y-144838199D01*
X178143500Y-144604810D01*
X178143500Y-144352191D01*
X178143500Y-142955191D01*
X178046827Y-142721802D01*
X177868199Y-142543173D01*
X177634810Y-142446500D01*
X177382191Y-142446500D01*
X177382009Y-142446500D01*
X177564380Y-142371146D01*
X177939827Y-141996353D01*
X178143268Y-141506413D01*
X178143724Y-140983906D01*
X178969630Y-140158000D01*
X179250330Y-140158000D01*
X179317538Y-140320655D01*
X179776927Y-140780846D01*
X180377453Y-141030206D01*
X181027694Y-141030774D01*
X181628655Y-140782462D01*
X182088846Y-140323073D01*
X182338206Y-139722547D01*
X182338774Y-139072306D01*
X182090462Y-138471345D01*
X181897054Y-138277600D01*
X185098815Y-138277600D01*
X184907154Y-138468927D01*
X184657794Y-139069453D01*
X184657226Y-139719694D01*
X184905538Y-140320655D01*
X185364927Y-140780846D01*
X185965453Y-141030206D01*
X186615694Y-141030774D01*
X187216655Y-140782462D01*
X187676846Y-140323073D01*
X187926206Y-139722547D01*
X187926774Y-139072306D01*
X187678462Y-138471345D01*
X187485054Y-138277600D01*
X188050770Y-138277600D01*
X189269333Y-139496163D01*
X189269226Y-139619694D01*
X189517538Y-140220655D01*
X189976927Y-140680846D01*
X190577453Y-140930206D01*
X191227694Y-140930774D01*
X191828655Y-140682462D01*
X192288846Y-140223073D01*
X192538206Y-139622547D01*
X192538774Y-138972306D01*
X192290462Y-138371345D01*
X191831073Y-137911154D01*
X191230547Y-137661794D01*
X190580306Y-137661226D01*
X189979345Y-137909538D01*
X189908594Y-137980164D01*
X188905215Y-136976785D01*
X188658005Y-136811604D01*
X188366400Y-136753600D01*
X178007407Y-136753600D01*
X178143268Y-136426413D01*
X178143731Y-135895914D01*
X178046831Y-135661400D01*
X190514569Y-135661400D01*
X194687984Y-139834815D01*
X194687985Y-139834815D01*
X194935195Y-139999996D01*
X195021452Y-140017153D01*
X195021453Y-140017153D01*
X195105538Y-140220655D01*
X195564927Y-140680846D01*
X196165453Y-140930206D01*
X196815694Y-140930774D01*
X197416655Y-140682462D01*
X197876846Y-140223073D01*
X198126206Y-139622547D01*
X198126774Y-138972306D01*
X197878462Y-138371345D01*
X197419073Y-137911154D01*
X196818547Y-137661794D01*
X196168306Y-137661226D01*
X195567345Y-137909538D01*
X195242373Y-138233942D01*
X191369015Y-134360585D01*
X191121805Y-134195404D01*
X190830200Y-134137400D01*
X178039049Y-134137400D01*
X178143268Y-133886413D01*
X178143731Y-133355914D01*
X177941146Y-132865620D01*
X177566353Y-132490173D01*
X177076413Y-132286732D01*
X176545914Y-132286269D01*
X176055620Y-132488854D01*
X175680173Y-132863647D01*
X175476732Y-133353587D01*
X175476269Y-133884086D01*
X175580936Y-134137400D01*
X170450600Y-134137400D01*
X170416208Y-134144240D01*
X170523268Y-133886413D01*
X170523731Y-133355914D01*
X170321146Y-132865620D01*
X169946353Y-132490173D01*
X169456413Y-132286732D01*
X168925914Y-132286269D01*
X168435620Y-132488854D01*
X168122600Y-132801328D01*
X168122600Y-126598760D01*
X168133647Y-126609827D01*
X168623587Y-126813268D01*
X169154086Y-126813731D01*
X169644380Y-126611146D01*
X170019827Y-126236353D01*
X170223268Y-125746413D01*
X170223731Y-125215914D01*
X170099866Y-124916139D01*
X170105200Y-124917200D01*
X175176500Y-124917200D01*
X175176500Y-126304809D01*
X175273173Y-126538198D01*
X175451801Y-126716827D01*
X175685190Y-126813500D01*
X175937809Y-126813500D01*
X177334809Y-126813500D01*
X177568198Y-126716827D01*
X177746827Y-126538199D01*
X177843500Y-126304810D01*
X177843500Y-126052191D01*
X177843500Y-124917200D01*
X183845200Y-124917200D01*
X183845200Y-124917199D01*
X184136804Y-124859196D01*
X184136805Y-124859196D01*
X184384015Y-124694015D01*
X185531172Y-123546857D01*
X185664927Y-123680846D01*
X186265453Y-123930206D01*
X186915694Y-123930774D01*
X187516655Y-123682462D01*
X187976846Y-123223073D01*
X188226206Y-122622547D01*
X188226577Y-122197408D01*
X188963984Y-122934815D01*
X188963985Y-122934815D01*
X189211195Y-123099996D01*
X189502800Y-123158000D01*
X189750330Y-123158000D01*
X189817538Y-123320655D01*
X190276927Y-123780846D01*
X190877453Y-124030206D01*
X191527694Y-124030774D01*
X192128655Y-123782462D01*
X192588846Y-123323073D01*
X192838206Y-122722547D01*
X192838774Y-122072306D01*
X192759699Y-121880930D01*
X197152930Y-117487699D01*
X197368584Y-117487887D01*
X197765489Y-117323889D01*
X198069422Y-117020486D01*
X198234113Y-116623868D01*
X198234487Y-116194416D01*
X198234487Y-121606935D01*
X198178462Y-121471345D01*
X197719073Y-121011154D01*
X197118547Y-120761794D01*
X196468306Y-120761226D01*
X195867345Y-121009538D01*
X195407154Y-121468927D01*
X195157794Y-122069453D01*
X195157226Y-122719694D01*
X195405538Y-123320655D01*
X195864927Y-123780846D01*
X196465453Y-124030206D01*
X197115694Y-124030774D01*
X197716655Y-123782462D01*
X198176846Y-123323073D01*
X198426206Y-122722547D01*
X198426774Y-122072306D01*
X198426774Y-149315000D01*
X139611287Y-149315000D01*
X139611287Y-128310216D01*
X139447289Y-127913311D01*
X139143886Y-127609378D01*
X138747268Y-127444687D01*
X138317816Y-127444313D01*
X137920911Y-127608311D01*
X137616978Y-127911714D01*
X137452287Y-128308332D01*
X137451913Y-128737784D01*
X137615911Y-129134689D01*
X137769600Y-129288646D01*
X137769600Y-135853769D01*
X137530169Y-136093200D01*
X135676480Y-136093200D01*
X135979122Y-135791086D01*
X136143813Y-135394468D01*
X136144187Y-134965016D01*
X135980189Y-134568111D01*
X135676786Y-134264178D01*
X135280168Y-134099487D01*
X135062628Y-134099297D01*
X132473700Y-131510369D01*
X132473700Y-130736441D01*
X132626322Y-130584086D01*
X132791013Y-130187468D01*
X132791387Y-129758016D01*
X132627389Y-129361111D01*
X132323986Y-129057178D01*
X131927368Y-128892487D01*
X131497916Y-128892113D01*
X131101011Y-129056111D01*
X130797078Y-129359514D01*
X130632387Y-129756132D01*
X130632013Y-130185584D01*
X130796011Y-130582489D01*
X130949700Y-130736446D01*
X130949700Y-131826000D01*
X131007704Y-132117605D01*
X131172885Y-132364815D01*
X133985000Y-135176931D01*
X133984813Y-135392584D01*
X134148811Y-135789489D01*
X134451992Y-136093200D01*
X134264400Y-136093200D01*
X133972796Y-136151203D01*
X133725585Y-136316384D01*
X127459069Y-142582900D01*
X127243416Y-142582713D01*
X126846511Y-142746711D01*
X126542578Y-143050114D01*
X126377887Y-143446732D01*
X126377513Y-143876184D01*
X126541511Y-144273089D01*
X126844914Y-144577022D01*
X127241532Y-144741713D01*
X127670984Y-144742087D01*
X128067889Y-144578089D01*
X128371822Y-144274686D01*
X128536513Y-143878068D01*
X128536702Y-143660527D01*
X134580030Y-137617200D01*
X137845800Y-137617200D01*
X137845800Y-137617199D01*
X138137404Y-137559196D01*
X138137405Y-137559196D01*
X138384615Y-137394015D01*
X139070415Y-136708215D01*
X139070416Y-136708215D01*
X139169434Y-136560023D01*
X139235596Y-136461005D01*
X139235596Y-136461004D01*
X139293600Y-136169400D01*
X139293600Y-129288641D01*
X139446222Y-129136286D01*
X139610913Y-128739668D01*
X139611287Y-128310216D01*
X139611287Y-149315000D01*
X102704900Y-149315000D01*
X102704900Y-121769067D01*
X102704900Y-120408700D01*
X102704900Y-120154700D01*
X102704900Y-118794333D01*
X102448954Y-118675717D01*
X101863521Y-118944512D01*
X101425515Y-119416882D01*
X101225925Y-119898756D01*
X101345064Y-120154700D01*
X102704900Y-120154700D01*
X102704900Y-120408700D01*
X101345064Y-120408700D01*
X101225925Y-120664644D01*
X101425515Y-121146518D01*
X101863521Y-121618888D01*
X102448954Y-121887683D01*
X102704900Y-121769067D01*
X102704900Y-149315000D01*
X100685000Y-149315000D01*
X100685000Y-50685000D01*
X199315000Y-50685000D01*
X199315000Y-149315000D01*
X199315000Y-149315000D01*
G37*
X199315000Y-149315000D02*
X198426774Y-149315000D01*
X198426774Y-122072306D01*
X198326774Y-121830287D01*
X198326774Y-102972306D01*
X198078462Y-102371345D01*
X198026774Y-102319566D01*
X198026774Y-83472306D01*
X197926774Y-83230287D01*
X197926774Y-63872306D01*
X197678462Y-63271345D01*
X197219073Y-62811154D01*
X196618547Y-62561794D01*
X195968306Y-62561226D01*
X195367345Y-62809538D01*
X194907154Y-63268927D01*
X194657794Y-63869453D01*
X194657226Y-64519694D01*
X194905538Y-65120655D01*
X195364927Y-65580846D01*
X195965453Y-65830206D01*
X196615694Y-65830774D01*
X197216655Y-65582462D01*
X197676846Y-65123073D01*
X197926206Y-64522547D01*
X197926774Y-63872306D01*
X197926774Y-83230287D01*
X197778462Y-82871345D01*
X197319073Y-82411154D01*
X196718547Y-82161794D01*
X196068306Y-82161226D01*
X195467345Y-82409538D01*
X195007154Y-82868927D01*
X194757794Y-83469453D01*
X194757226Y-84119694D01*
X195005538Y-84720655D01*
X195464927Y-85180846D01*
X196065453Y-85430206D01*
X196715694Y-85430774D01*
X197316655Y-85182462D01*
X197776846Y-84723073D01*
X198026206Y-84122547D01*
X198026774Y-83472306D01*
X198026774Y-102319566D01*
X197619073Y-101911154D01*
X197018547Y-101661794D01*
X196368306Y-101661226D01*
X195767345Y-101909538D01*
X195307154Y-102368927D01*
X195057794Y-102969453D01*
X195057226Y-103619694D01*
X195305538Y-104220655D01*
X195764927Y-104680846D01*
X196365453Y-104930206D01*
X197015694Y-104930774D01*
X197616655Y-104682462D01*
X198076846Y-104223073D01*
X198326206Y-103622547D01*
X198326774Y-102972306D01*
X198326774Y-121830287D01*
X198234487Y-121606935D01*
X198234487Y-116194416D01*
X198070489Y-115797511D01*
X197767086Y-115493578D01*
X197370468Y-115328887D01*
X196941016Y-115328513D01*
X196544111Y-115492511D01*
X196240178Y-115795914D01*
X196075487Y-116192532D01*
X196075297Y-116410072D01*
X191666940Y-120818429D01*
X191530547Y-120761794D01*
X190880306Y-120761226D01*
X190279345Y-121009538D01*
X189819154Y-121468927D01*
X189770508Y-121586077D01*
X184765015Y-116580585D01*
X184517805Y-116415404D01*
X184226200Y-116357400D01*
X180340000Y-116357400D01*
X180048396Y-116415403D01*
X179801185Y-116580584D01*
X178175585Y-118206185D01*
X178010404Y-118453395D01*
X177952400Y-118745000D01*
X177952400Y-120419969D01*
X177843387Y-120528981D01*
X177843731Y-120135914D01*
X177641146Y-119645620D01*
X177266353Y-119270173D01*
X176928553Y-119129906D01*
X177264380Y-118991146D01*
X177639827Y-118616353D01*
X177843268Y-118126413D01*
X177843731Y-117595914D01*
X177641146Y-117105620D01*
X177266353Y-116730173D01*
X176928553Y-116589906D01*
X177264380Y-116451146D01*
X177639827Y-116076353D01*
X177843268Y-115586413D01*
X177843731Y-115055914D01*
X177641146Y-114565620D01*
X177266353Y-114190173D01*
X176776413Y-113986732D01*
X176245914Y-113986269D01*
X175755620Y-114188854D01*
X175380173Y-114563647D01*
X175176732Y-115053587D01*
X175176269Y-115584086D01*
X175378854Y-116074380D01*
X175753647Y-116449827D01*
X176091446Y-116590093D01*
X175755620Y-116728854D01*
X175380173Y-117103647D01*
X175176732Y-117593587D01*
X175176269Y-118124086D01*
X175378854Y-118614380D01*
X175753647Y-118989827D01*
X176091446Y-119130093D01*
X175755620Y-119268854D01*
X175380173Y-119643647D01*
X175176732Y-120133587D01*
X175176269Y-120664086D01*
X175378854Y-121154380D01*
X175753647Y-121529827D01*
X176091446Y-121670093D01*
X175755620Y-121808854D01*
X175380173Y-122183647D01*
X175176732Y-122673587D01*
X175176269Y-123204086D01*
X175254409Y-123393200D01*
X170420830Y-123393200D01*
X170223277Y-123195646D01*
X170223731Y-122675914D01*
X170021146Y-122185620D01*
X169646353Y-121810173D01*
X169308553Y-121669906D01*
X169644380Y-121531146D01*
X170019827Y-121156353D01*
X170223268Y-120666413D01*
X170223731Y-120135914D01*
X170021146Y-119645620D01*
X169646353Y-119270173D01*
X169308553Y-119129906D01*
X169644380Y-118991146D01*
X170019827Y-118616353D01*
X170223268Y-118126413D01*
X170223731Y-117595914D01*
X170021146Y-117105620D01*
X169646353Y-116730173D01*
X169308553Y-116589906D01*
X169644380Y-116451146D01*
X170019827Y-116076353D01*
X170223268Y-115586413D01*
X170223731Y-115055914D01*
X170021146Y-114565620D01*
X169646353Y-114190173D01*
X169156413Y-113986732D01*
X168625914Y-113986269D01*
X168135620Y-114188854D01*
X167760173Y-114563647D01*
X167556732Y-115053587D01*
X167556269Y-115584086D01*
X167758854Y-116074380D01*
X168133647Y-116449827D01*
X168471446Y-116590093D01*
X168135620Y-116728854D01*
X167760173Y-117103647D01*
X167675164Y-117308369D01*
X167655985Y-117321185D01*
X166821785Y-118155385D01*
X166656604Y-118402595D01*
X166624000Y-118566505D01*
X166624000Y-110236000D01*
X174416000Y-110236000D01*
X174416000Y-110235999D01*
X174707604Y-110177996D01*
X174707605Y-110177996D01*
X174954815Y-110012815D01*
X176154130Y-108813500D01*
X177234809Y-108813500D01*
X177468198Y-108716827D01*
X177646827Y-108538199D01*
X177743500Y-108304810D01*
X177743500Y-108052191D01*
X177743500Y-106934000D01*
X181559200Y-106934000D01*
X181559200Y-106933999D01*
X181850804Y-106875996D01*
X181850805Y-106875996D01*
X182098015Y-106710815D01*
X184750830Y-104058000D01*
X184938330Y-104058000D01*
X185005538Y-104220655D01*
X185464927Y-104680846D01*
X186065453Y-104930206D01*
X186715694Y-104930774D01*
X187316655Y-104682462D01*
X187776846Y-104223073D01*
X188026206Y-103622547D01*
X188026774Y-102972306D01*
X187778462Y-102371345D01*
X187319073Y-101911154D01*
X186753240Y-101676200D01*
X188990570Y-101676200D01*
X189708633Y-102394263D01*
X189469794Y-102969453D01*
X189469226Y-103619694D01*
X189717538Y-104220655D01*
X190176927Y-104680846D01*
X190777453Y-104930206D01*
X191427694Y-104930774D01*
X192028655Y-104682462D01*
X192488846Y-104223073D01*
X192738206Y-103622547D01*
X192738774Y-102972306D01*
X192569879Y-102563550D01*
X195247931Y-99885499D01*
X195463584Y-99885687D01*
X195860489Y-99721689D01*
X196164422Y-99418286D01*
X196329113Y-99021668D01*
X196329487Y-98592216D01*
X196165489Y-98195311D01*
X195862086Y-97891378D01*
X195465468Y-97726687D01*
X195036016Y-97726313D01*
X194654687Y-97883875D01*
X194654687Y-56011216D01*
X194490689Y-55614311D01*
X194187286Y-55310378D01*
X193790668Y-55145687D01*
X193361216Y-55145313D01*
X192964311Y-55309311D01*
X192660378Y-55612714D01*
X192495687Y-56009332D01*
X192495313Y-56438784D01*
X192659311Y-56835689D01*
X192863000Y-57039733D01*
X192863000Y-60959370D01*
X191193084Y-62629285D01*
X191030547Y-62561794D01*
X190380306Y-62561226D01*
X189779345Y-62809538D01*
X189319154Y-63268927D01*
X189069794Y-63869453D01*
X189069226Y-64519694D01*
X189317538Y-65120655D01*
X189776927Y-65580846D01*
X190377453Y-65830206D01*
X191027694Y-65830774D01*
X191628655Y-65582462D01*
X192088846Y-65123073D01*
X192338206Y-64522547D01*
X192338774Y-63872306D01*
X192270517Y-63707112D01*
X194163815Y-61813815D01*
X194328996Y-61566605D01*
X194328996Y-61566604D01*
X194387000Y-61275000D01*
X194387000Y-56939729D01*
X194489622Y-56837286D01*
X194654313Y-56440668D01*
X194654687Y-56011216D01*
X194654687Y-97883875D01*
X194639111Y-97890311D01*
X194335178Y-98193714D01*
X194170487Y-98590332D01*
X194170297Y-98807871D01*
X191316475Y-101661694D01*
X191131162Y-101661532D01*
X189845015Y-100375385D01*
X189597805Y-100210204D01*
X189306200Y-100152200D01*
X179832000Y-100152200D01*
X179540395Y-100210204D01*
X179293184Y-100375385D01*
X177819985Y-101848585D01*
X177699509Y-102028889D01*
X177541146Y-101645620D01*
X177166353Y-101270173D01*
X176828553Y-101129906D01*
X177164380Y-100991146D01*
X177539827Y-100616353D01*
X177743268Y-100126413D01*
X177743731Y-99595914D01*
X177541146Y-99105620D01*
X177166353Y-98730173D01*
X176828553Y-98589906D01*
X177164380Y-98451146D01*
X177539827Y-98076353D01*
X177743268Y-97586413D01*
X177743731Y-97055914D01*
X177541146Y-96565620D01*
X177166353Y-96190173D01*
X176676413Y-95986732D01*
X176145914Y-95986269D01*
X175655620Y-96188854D01*
X175280173Y-96563647D01*
X175076732Y-97053587D01*
X175076269Y-97584086D01*
X175278854Y-98074380D01*
X175653647Y-98449827D01*
X175991446Y-98590093D01*
X175655620Y-98728854D01*
X175280173Y-99103647D01*
X175076732Y-99593587D01*
X175076269Y-100124086D01*
X175278854Y-100614380D01*
X175653647Y-100989827D01*
X175991446Y-101130093D01*
X175655620Y-101268854D01*
X175280173Y-101643647D01*
X175076732Y-102133587D01*
X175076269Y-102664086D01*
X175278854Y-103154380D01*
X175653647Y-103529827D01*
X175991446Y-103670093D01*
X175655620Y-103808854D01*
X175280173Y-104183647D01*
X175076732Y-104673587D01*
X175076269Y-105204086D01*
X175161350Y-105410000D01*
X170337630Y-105410000D01*
X170123277Y-105195647D01*
X170123731Y-104675914D01*
X169921146Y-104185620D01*
X169546353Y-103810173D01*
X169208553Y-103669906D01*
X169544380Y-103531146D01*
X169919827Y-103156353D01*
X170123268Y-102666413D01*
X170123731Y-102135914D01*
X169921146Y-101645620D01*
X169546353Y-101270173D01*
X169208553Y-101129906D01*
X169544380Y-100991146D01*
X169919827Y-100616353D01*
X170123268Y-100126413D01*
X170123731Y-99595914D01*
X169921146Y-99105620D01*
X169546353Y-98730173D01*
X169208553Y-98589906D01*
X169544380Y-98451146D01*
X169919827Y-98076353D01*
X170123268Y-97586413D01*
X170123731Y-97055914D01*
X169921146Y-96565620D01*
X169546353Y-96190173D01*
X169056413Y-95986732D01*
X168525914Y-95986269D01*
X168035620Y-96188854D01*
X167660173Y-96563647D01*
X167576500Y-96765153D01*
X167576500Y-89052056D01*
X167933647Y-89409827D01*
X168423587Y-89613268D01*
X168954086Y-89613731D01*
X169444380Y-89411146D01*
X169819827Y-89036353D01*
X170023268Y-88546413D01*
X170023731Y-88015914D01*
X169821146Y-87525620D01*
X169446353Y-87150173D01*
X169108553Y-87009906D01*
X169444380Y-86871146D01*
X169819827Y-86496353D01*
X170023268Y-86006413D01*
X170023731Y-85475914D01*
X169974606Y-85357023D01*
X172654630Y-82677000D01*
X175083276Y-82677000D01*
X174976732Y-82933587D01*
X174976269Y-83464086D01*
X175178854Y-83954380D01*
X175553647Y-84329827D01*
X175891446Y-84470093D01*
X175555620Y-84608854D01*
X175180173Y-84983647D01*
X174976732Y-85473587D01*
X174976269Y-86004086D01*
X175178854Y-86494380D01*
X175553647Y-86869827D01*
X175738295Y-86946500D01*
X175485191Y-86946500D01*
X175251802Y-87043173D01*
X175073173Y-87221801D01*
X174976500Y-87455190D01*
X174976500Y-87707809D01*
X174976500Y-89104809D01*
X175073173Y-89338198D01*
X175251801Y-89516827D01*
X175485190Y-89613500D01*
X175737809Y-89613500D01*
X177134809Y-89613500D01*
X177368198Y-89516827D01*
X177546827Y-89338199D01*
X177643500Y-89104810D01*
X177643500Y-88852191D01*
X177643500Y-87455191D01*
X177546827Y-87221802D01*
X177368199Y-87043173D01*
X177134810Y-86946500D01*
X176882191Y-86946500D01*
X176882009Y-86946500D01*
X177064380Y-86871146D01*
X177434170Y-86502000D01*
X188860000Y-86502000D01*
X188860000Y-86501999D01*
X189151604Y-86443996D01*
X189151605Y-86443996D01*
X189398815Y-86278815D01*
X190314915Y-85362714D01*
X190477453Y-85430206D01*
X191127694Y-85430774D01*
X191728655Y-85182462D01*
X192188846Y-84723073D01*
X192438206Y-84122547D01*
X192438774Y-83472306D01*
X192190462Y-82871345D01*
X191731073Y-82411154D01*
X191130547Y-82161794D01*
X190480306Y-82161226D01*
X189879345Y-82409538D01*
X189419154Y-82868927D01*
X189169794Y-83469453D01*
X189169226Y-84119694D01*
X189237482Y-84284887D01*
X188544370Y-84978000D01*
X187595561Y-84978000D01*
X187826206Y-84422547D01*
X187826774Y-83772306D01*
X187578462Y-83171345D01*
X187119073Y-82711154D01*
X186518547Y-82461794D01*
X185868306Y-82461226D01*
X185703112Y-82529482D01*
X184549815Y-81376185D01*
X184302605Y-81211004D01*
X184011000Y-81153000D01*
X177549180Y-81153000D01*
X177643268Y-80926413D01*
X177643731Y-80395914D01*
X177441146Y-79905620D01*
X177066353Y-79530173D01*
X176728553Y-79389906D01*
X177064380Y-79251146D01*
X177439827Y-78876353D01*
X177643268Y-78386413D01*
X177643731Y-77855914D01*
X177441146Y-77365620D01*
X177066353Y-76990173D01*
X176576413Y-76786732D01*
X176045914Y-76786269D01*
X175555620Y-76988854D01*
X175180173Y-77363647D01*
X174976732Y-77853587D01*
X174976269Y-78384086D01*
X175178854Y-78874380D01*
X175553647Y-79249827D01*
X175891446Y-79390093D01*
X175555620Y-79528854D01*
X175180173Y-79903647D01*
X174976732Y-80393587D01*
X174976269Y-80924086D01*
X175070854Y-81153000D01*
X172339000Y-81153000D01*
X172047395Y-81211004D01*
X171800184Y-81376185D01*
X170023541Y-83152827D01*
X170023731Y-82935914D01*
X169821146Y-82445620D01*
X169446353Y-82070173D01*
X169108553Y-81929906D01*
X169444380Y-81791146D01*
X169819827Y-81416353D01*
X170023268Y-80926413D01*
X170023731Y-80395914D01*
X169821146Y-79905620D01*
X169446353Y-79530173D01*
X169108553Y-79389906D01*
X169444380Y-79251146D01*
X169819827Y-78876353D01*
X170023268Y-78386413D01*
X170023731Y-77855914D01*
X169821146Y-77365620D01*
X169446353Y-76990173D01*
X168956413Y-76786732D01*
X168425914Y-76786269D01*
X167935620Y-76988854D01*
X167560173Y-77363647D01*
X167356732Y-77853587D01*
X167356269Y-78384086D01*
X167558854Y-78874380D01*
X167933647Y-79249827D01*
X168271446Y-79390093D01*
X167935620Y-79528854D01*
X167560173Y-79903647D01*
X167551175Y-79925315D01*
X167396895Y-79956004D01*
X167297876Y-80022165D01*
X167149685Y-80121184D01*
X166624000Y-80646869D01*
X166624000Y-77963260D01*
X166565996Y-77671655D01*
X166400815Y-77424445D01*
X166266714Y-77290344D01*
X166334206Y-77127807D01*
X166334774Y-76477566D01*
X166266517Y-76312372D01*
X171836890Y-70742000D01*
X172400000Y-70742000D01*
X175076500Y-70742000D01*
X175076500Y-70804809D01*
X175173173Y-71038198D01*
X175351801Y-71216827D01*
X175585190Y-71313500D01*
X175837809Y-71313500D01*
X177234809Y-71313500D01*
X177468198Y-71216827D01*
X177646827Y-71038199D01*
X177743500Y-70804810D01*
X177743500Y-70552191D01*
X177743500Y-69155191D01*
X177646827Y-68921802D01*
X177468199Y-68743173D01*
X177234810Y-68646500D01*
X176982191Y-68646500D01*
X176982009Y-68646500D01*
X177164380Y-68571146D01*
X177539827Y-68196353D01*
X177743268Y-67706413D01*
X177743731Y-67175914D01*
X177541146Y-66685620D01*
X177166353Y-66310173D01*
X176828553Y-66169906D01*
X177164380Y-66031146D01*
X177539827Y-65656353D01*
X177743268Y-65166413D01*
X177743731Y-64635914D01*
X177671871Y-64462000D01*
X177925000Y-64462000D01*
X177925000Y-64461999D01*
X178216604Y-64403996D01*
X178216605Y-64403996D01*
X178463815Y-64238815D01*
X178769738Y-63932891D01*
X178769226Y-64519694D01*
X179017538Y-65120655D01*
X179476927Y-65580846D01*
X180077453Y-65830206D01*
X180727694Y-65830774D01*
X181328655Y-65582462D01*
X181788846Y-65123073D01*
X182038206Y-64522547D01*
X182038774Y-63872306D01*
X181790462Y-63271345D01*
X181431743Y-62912000D01*
X182434370Y-62912000D01*
X184257185Y-64734815D01*
X184504395Y-64899996D01*
X184504396Y-64899996D01*
X184515256Y-64902156D01*
X184605538Y-65120655D01*
X185064927Y-65580846D01*
X185665453Y-65830206D01*
X186315694Y-65830774D01*
X186916655Y-65582462D01*
X187376846Y-65123073D01*
X187626206Y-64522547D01*
X187626774Y-63872306D01*
X187378462Y-63271345D01*
X186919073Y-62811154D01*
X186318547Y-62561794D01*
X185668306Y-62561226D01*
X185067345Y-62809538D01*
X184777003Y-63099373D01*
X183288815Y-61611185D01*
X183041605Y-61446004D01*
X182750000Y-61388000D01*
X179475000Y-61388000D01*
X179183395Y-61446004D01*
X178936185Y-61611185D01*
X177617092Y-62930277D01*
X177743268Y-62626413D01*
X177743731Y-62095914D01*
X177541146Y-61605620D01*
X177166353Y-61230173D01*
X176828553Y-61089906D01*
X177164380Y-60951146D01*
X177539827Y-60576353D01*
X177743268Y-60086413D01*
X177743731Y-59555914D01*
X177541146Y-59065620D01*
X177166353Y-58690173D01*
X176676413Y-58486732D01*
X176145914Y-58486269D01*
X175655620Y-58688854D01*
X175280173Y-59063647D01*
X175076732Y-59553587D01*
X175076269Y-60084086D01*
X175278854Y-60574380D01*
X175653647Y-60949827D01*
X175991446Y-61090093D01*
X175655620Y-61228854D01*
X175280173Y-61603647D01*
X175076732Y-62093587D01*
X175076269Y-62624086D01*
X175205975Y-62938000D01*
X172530000Y-62938000D01*
X172238395Y-62996004D01*
X172139376Y-63062165D01*
X171991185Y-63161184D01*
X170123387Y-65028981D01*
X170123731Y-64635914D01*
X169921146Y-64145620D01*
X169546353Y-63770173D01*
X169208553Y-63629906D01*
X169544380Y-63491146D01*
X169919827Y-63116353D01*
X170123268Y-62626413D01*
X170123731Y-62095914D01*
X169921146Y-61605620D01*
X169546353Y-61230173D01*
X169208553Y-61089906D01*
X169544380Y-60951146D01*
X169919827Y-60576353D01*
X170123268Y-60086413D01*
X170123731Y-59555914D01*
X169921146Y-59065620D01*
X169546353Y-58690173D01*
X169056413Y-58486732D01*
X168742340Y-58486457D01*
X168742340Y-54722869D01*
X168715553Y-54142465D01*
X168544976Y-53730656D01*
X168296215Y-53653390D01*
X168116610Y-53832995D01*
X168116610Y-53473785D01*
X168039344Y-53225024D01*
X167492869Y-53027660D01*
X166912465Y-53054447D01*
X166500656Y-53225024D01*
X166423390Y-53473785D01*
X167270000Y-54320395D01*
X168116610Y-53473785D01*
X168116610Y-53832995D01*
X167449605Y-54500000D01*
X168296215Y-55346610D01*
X168544976Y-55269344D01*
X168742340Y-54722869D01*
X168742340Y-58486457D01*
X168525914Y-58486269D01*
X168116610Y-58655389D01*
X168116610Y-55526215D01*
X167270000Y-54679605D01*
X167090395Y-54859210D01*
X167090395Y-54500000D01*
X166243785Y-53653390D01*
X166190500Y-53669940D01*
X166190500Y-53548191D01*
X166093827Y-53314802D01*
X165915199Y-53136173D01*
X165681810Y-53039500D01*
X165429191Y-53039500D01*
X163778191Y-53039500D01*
X163544802Y-53136173D01*
X163366173Y-53314801D01*
X163269500Y-53548190D01*
X163269500Y-53800809D01*
X163269500Y-55451809D01*
X163366173Y-55685198D01*
X163544801Y-55863827D01*
X163778190Y-55960500D01*
X164030809Y-55960500D01*
X165681809Y-55960500D01*
X165915198Y-55863827D01*
X166093827Y-55685199D01*
X166190500Y-55451810D01*
X166190500Y-55330059D01*
X166243785Y-55346610D01*
X167090395Y-54500000D01*
X167090395Y-54859210D01*
X166423390Y-55526215D01*
X166500656Y-55774976D01*
X167047131Y-55972340D01*
X167627535Y-55945553D01*
X168039344Y-55774976D01*
X168116610Y-55526215D01*
X168116610Y-58655389D01*
X168035620Y-58688854D01*
X167660173Y-59063647D01*
X167456732Y-59553587D01*
X167456269Y-60084086D01*
X167658854Y-60574380D01*
X168033647Y-60949827D01*
X168371446Y-61090093D01*
X168035620Y-61228854D01*
X167660173Y-61603647D01*
X167456732Y-62093587D01*
X167456269Y-62624086D01*
X167658854Y-63114380D01*
X168033647Y-63489827D01*
X168371446Y-63630093D01*
X168035620Y-63768854D01*
X167665829Y-64138000D01*
X166815630Y-64138000D01*
X166438815Y-63761185D01*
X166191605Y-63596004D01*
X165900000Y-63538000D01*
X151139800Y-63538000D01*
X150848195Y-63596004D01*
X150600984Y-63761185D01*
X144552600Y-69809569D01*
X144552600Y-68156091D01*
X144455927Y-67922702D01*
X144277299Y-67744073D01*
X144043910Y-67647400D01*
X143791291Y-67647400D01*
X141556091Y-67647400D01*
X141322702Y-67744073D01*
X141144073Y-67922701D01*
X141047400Y-68156090D01*
X141047400Y-68408709D01*
X141047400Y-70643909D01*
X141144073Y-70877298D01*
X141322701Y-71055927D01*
X141556090Y-71152600D01*
X141808709Y-71152600D01*
X143209569Y-71152600D01*
X139805330Y-74556839D01*
X139805330Y-60922735D01*
X139805330Y-52922735D01*
X139515922Y-52222314D01*
X138980505Y-51685961D01*
X138280590Y-51395332D01*
X137522735Y-51394670D01*
X136822314Y-51684078D01*
X136285961Y-52219495D01*
X135995332Y-52919410D01*
X135994670Y-53677265D01*
X136284078Y-54377686D01*
X136819495Y-54914039D01*
X137519410Y-55204668D01*
X138277265Y-55205330D01*
X138977686Y-54915922D01*
X139514039Y-54380505D01*
X139804668Y-53680590D01*
X139805330Y-52922735D01*
X139805330Y-60922735D01*
X139515922Y-60222314D01*
X139398859Y-60105046D01*
X139398859Y-57003218D01*
X139171192Y-56452220D01*
X138749997Y-56030290D01*
X138199398Y-55801661D01*
X137603218Y-55801141D01*
X137052220Y-56028808D01*
X136630290Y-56450003D01*
X136401661Y-57000602D01*
X136401141Y-57596782D01*
X136628808Y-58147780D01*
X137050003Y-58569710D01*
X137600602Y-58798339D01*
X138196782Y-58798859D01*
X138747780Y-58571192D01*
X139169710Y-58149997D01*
X139398339Y-57599398D01*
X139398859Y-57003218D01*
X139398859Y-60105046D01*
X138980505Y-59685961D01*
X138280590Y-59395332D01*
X137522735Y-59394670D01*
X136822314Y-59684078D01*
X136285961Y-60219495D01*
X135995332Y-60919410D01*
X135994670Y-61677265D01*
X136284078Y-62377686D01*
X136819495Y-62914039D01*
X137519410Y-63204668D01*
X138277265Y-63205330D01*
X138977686Y-62915922D01*
X139514039Y-62380505D01*
X139804668Y-61680590D01*
X139805330Y-60922735D01*
X139805330Y-74556839D01*
X134438561Y-79923608D01*
X134438774Y-79680306D01*
X134370517Y-79515112D01*
X138438815Y-75446816D01*
X138438815Y-75446815D01*
X138603996Y-75199605D01*
X138661999Y-74908000D01*
X138662000Y-74908000D01*
X138662000Y-66606635D01*
X138747780Y-66571192D01*
X139169710Y-66149997D01*
X139398339Y-65599398D01*
X139398859Y-65003218D01*
X139171192Y-64452220D01*
X138749997Y-64030290D01*
X138199398Y-63801661D01*
X137603218Y-63801141D01*
X137052220Y-64028808D01*
X136630290Y-64450003D01*
X136401661Y-65000602D01*
X136401141Y-65596782D01*
X136628808Y-66147780D01*
X137050003Y-66569710D01*
X137138000Y-66606249D01*
X137138000Y-68612150D01*
X136969268Y-68542087D01*
X136539816Y-68541713D01*
X136142911Y-68705711D01*
X135988953Y-68859400D01*
X134224630Y-68859400D01*
X134224630Y-56847156D01*
X134224630Y-54952844D01*
X134111619Y-54384701D01*
X133789792Y-53903052D01*
X133308143Y-53581225D01*
X132740000Y-53468214D01*
X132171857Y-53581225D01*
X131690208Y-53903052D01*
X131464483Y-54240872D01*
X131159989Y-53859976D01*
X130650810Y-53579351D01*
X130556832Y-53558460D01*
X130327000Y-53679786D01*
X130327000Y-55773000D01*
X130347000Y-55773000D01*
X130347000Y-56027000D01*
X130327000Y-56027000D01*
X130327000Y-58120214D01*
X130556832Y-58241540D01*
X130650810Y-58220649D01*
X131159989Y-57940024D01*
X131464483Y-57559127D01*
X131690208Y-57896948D01*
X132171857Y-58218775D01*
X132740000Y-58331786D01*
X133308143Y-58218775D01*
X133789792Y-57896948D01*
X134111619Y-57415299D01*
X134224630Y-56847156D01*
X134224630Y-68859400D01*
X130073000Y-68859400D01*
X130073000Y-58120214D01*
X130073000Y-56027000D01*
X130053000Y-56027000D01*
X130053000Y-55773000D01*
X130073000Y-55773000D01*
X130073000Y-53679786D01*
X129843168Y-53558460D01*
X129749190Y-53579351D01*
X129240011Y-53859976D01*
X128935516Y-54240872D01*
X128709792Y-53903052D01*
X128228143Y-53581225D01*
X127660000Y-53468214D01*
X127091857Y-53581225D01*
X126610208Y-53903052D01*
X126288381Y-54384701D01*
X126175370Y-54952844D01*
X126175370Y-56847156D01*
X126288381Y-57415299D01*
X126610208Y-57896948D01*
X127091857Y-58218775D01*
X127660000Y-58331786D01*
X128228143Y-58218775D01*
X128709792Y-57896948D01*
X128935516Y-57559127D01*
X129240011Y-57940024D01*
X129749190Y-58220649D01*
X129843168Y-58241540D01*
X130073000Y-58120214D01*
X130073000Y-68859400D01*
X126779687Y-68859400D01*
X126779687Y-63086216D01*
X126615689Y-62689311D01*
X126312286Y-62385378D01*
X125915668Y-62220687D01*
X125486216Y-62220313D01*
X125089311Y-62384311D01*
X124935353Y-62538000D01*
X111977126Y-62538000D01*
X111915689Y-62389311D01*
X111612286Y-62085378D01*
X111215668Y-61920687D01*
X110786216Y-61920313D01*
X110389311Y-62084311D01*
X110085378Y-62387714D01*
X109920687Y-62784332D01*
X109920313Y-63213784D01*
X110084311Y-63610689D01*
X110387714Y-63914622D01*
X110784332Y-64079313D01*
X111213784Y-64079687D01*
X111270696Y-64056171D01*
X111300000Y-64062000D01*
X124935358Y-64062000D01*
X125087714Y-64214622D01*
X125484332Y-64379313D01*
X125913784Y-64379687D01*
X126310689Y-64215689D01*
X126614622Y-63912286D01*
X126779313Y-63515668D01*
X126779687Y-63086216D01*
X126779687Y-68859400D01*
X117609144Y-68859400D01*
X117609144Y-66027698D01*
X117581362Y-65472632D01*
X117422397Y-65088857D01*
X117180213Y-65019392D01*
X117000608Y-65198997D01*
X117000608Y-64839787D01*
X116931143Y-64597603D01*
X116407698Y-64410856D01*
X115852632Y-64438638D01*
X115468857Y-64597603D01*
X115399392Y-64839787D01*
X116200000Y-65640395D01*
X117000608Y-64839787D01*
X117000608Y-65198997D01*
X116379605Y-65820000D01*
X117180213Y-66620608D01*
X117422397Y-66551143D01*
X117609144Y-66027698D01*
X117609144Y-68859400D01*
X117505280Y-68859400D01*
X117596757Y-68639100D01*
X117597242Y-68083339D01*
X117385010Y-67569697D01*
X116992370Y-67176371D01*
X116800272Y-67096605D01*
X116931143Y-67042397D01*
X117000608Y-66800213D01*
X116200000Y-65999605D01*
X116020395Y-66179210D01*
X116020395Y-65820000D01*
X115219787Y-65019392D01*
X114977603Y-65088857D01*
X114790856Y-65612302D01*
X114818638Y-66167368D01*
X114977603Y-66551143D01*
X115219787Y-66620608D01*
X116020395Y-65820000D01*
X116020395Y-66179210D01*
X115399392Y-66800213D01*
X115468857Y-67042397D01*
X115609317Y-67092508D01*
X115409697Y-67174990D01*
X115016371Y-67567630D01*
X114803243Y-68080900D01*
X114802758Y-68636661D01*
X114894791Y-68859400D01*
X110627830Y-68859400D01*
X108499615Y-66731185D01*
X108252405Y-66566004D01*
X107960800Y-66508000D01*
X104251000Y-66508000D01*
X104251000Y-59812309D01*
X104251000Y-58955750D01*
X104251000Y-58384250D01*
X104251000Y-57527691D01*
X104154327Y-57294302D01*
X103975699Y-57115673D01*
X103924628Y-57094518D01*
X104125325Y-56794155D01*
X104251000Y-56162345D01*
X104251000Y-56097655D01*
X104125325Y-55465845D01*
X103767433Y-54930222D01*
X103231810Y-54572330D01*
X102600000Y-54446655D01*
X101968190Y-54572330D01*
X101432567Y-54930222D01*
X101074675Y-55465845D01*
X100949000Y-56097655D01*
X100949000Y-56162345D01*
X101074675Y-56794155D01*
X101275371Y-57094518D01*
X101224301Y-57115673D01*
X101045673Y-57294302D01*
X100949000Y-57527691D01*
X100949000Y-58384250D01*
X101107750Y-58543000D01*
X102473000Y-58543000D01*
X102473000Y-58523000D01*
X102727000Y-58523000D01*
X102727000Y-58543000D01*
X104092250Y-58543000D01*
X104251000Y-58384250D01*
X104251000Y-58955750D01*
X104092250Y-58797000D01*
X102727000Y-58797000D01*
X102727000Y-60162250D01*
X102885750Y-60321000D01*
X103489691Y-60321000D01*
X103742310Y-60321000D01*
X103975699Y-60224327D01*
X104154327Y-60045698D01*
X104251000Y-59812309D01*
X104251000Y-66508000D01*
X103943311Y-66508000D01*
X103744415Y-66210330D01*
X103429634Y-66000000D01*
X103744415Y-65789670D01*
X104069271Y-65303489D01*
X104183345Y-64730000D01*
X104069271Y-64156511D01*
X103744415Y-63670330D01*
X103434930Y-63463539D01*
X103850732Y-63092036D01*
X104104709Y-62564791D01*
X104107358Y-62549026D01*
X104107358Y-61830974D01*
X104104709Y-61815209D01*
X103850732Y-61287964D01*
X103414320Y-60898046D01*
X102861913Y-60704816D01*
X102627000Y-60849076D01*
X102627000Y-62063000D01*
X103986217Y-62063000D01*
X104107358Y-61830974D01*
X104107358Y-62549026D01*
X103986217Y-62317000D01*
X102627000Y-62317000D01*
X102627000Y-62337000D01*
X102473000Y-62337000D01*
X102473000Y-60162250D01*
X102473000Y-58797000D01*
X101107750Y-58797000D01*
X100949000Y-58955750D01*
X100949000Y-59812309D01*
X101045673Y-60045698D01*
X101224301Y-60224327D01*
X101457690Y-60321000D01*
X101710309Y-60321000D01*
X102314250Y-60321000D01*
X102473000Y-60162250D01*
X102473000Y-62337000D01*
X102373000Y-62337000D01*
X102373000Y-62317000D01*
X102373000Y-62063000D01*
X102373000Y-60849076D01*
X102138087Y-60704816D01*
X101585680Y-60898046D01*
X101149268Y-61287964D01*
X100895291Y-61815209D01*
X100892642Y-61830974D01*
X101013783Y-62063000D01*
X102373000Y-62063000D01*
X102373000Y-62317000D01*
X101013783Y-62317000D01*
X100892642Y-62549026D01*
X100895291Y-62564791D01*
X101149268Y-63092036D01*
X101565069Y-63463539D01*
X101255585Y-63670330D01*
X100930729Y-64156511D01*
X100816655Y-64730000D01*
X100930729Y-65303489D01*
X101255585Y-65789670D01*
X101570365Y-66000000D01*
X101255585Y-66210330D01*
X100930729Y-66696511D01*
X100816655Y-67270000D01*
X100930729Y-67843489D01*
X101255585Y-68329670D01*
X101277780Y-68344500D01*
X101124302Y-68408073D01*
X100945673Y-68586701D01*
X100849000Y-68820090D01*
X100849000Y-69072709D01*
X100849000Y-70799909D01*
X100945673Y-71033298D01*
X101124301Y-71211927D01*
X101357690Y-71308600D01*
X101610309Y-71308600D01*
X101738000Y-71308600D01*
X101738000Y-75800000D01*
X101796004Y-76091605D01*
X101961185Y-76338815D01*
X104239500Y-78617130D01*
X104239500Y-79421809D01*
X104336173Y-79655198D01*
X104514801Y-79833827D01*
X104748190Y-79930500D01*
X104938000Y-79930500D01*
X104938000Y-80935000D01*
X104996004Y-81226605D01*
X105161185Y-81473815D01*
X108966000Y-85278630D01*
X108966000Y-99314000D01*
X109024004Y-99605605D01*
X109189185Y-99852815D01*
X112339719Y-103003350D01*
X110812245Y-104530825D01*
X110647064Y-104778035D01*
X110589060Y-105069640D01*
X110589060Y-106115330D01*
X110426405Y-106182538D01*
X109966214Y-106641927D01*
X109716854Y-107242453D01*
X109716286Y-107892694D01*
X109964598Y-108493655D01*
X110423987Y-108953846D01*
X111024513Y-109203206D01*
X111674754Y-109203774D01*
X112275715Y-108955462D01*
X112735906Y-108496073D01*
X112985266Y-107895547D01*
X112985834Y-107245306D01*
X112737522Y-106644345D01*
X112278133Y-106184154D01*
X112113060Y-106115609D01*
X112113060Y-105385270D01*
X113612330Y-103886000D01*
X117654669Y-103886000D01*
X120848585Y-107079915D01*
X120781094Y-107242453D01*
X120780526Y-107892694D01*
X121028838Y-108493655D01*
X121488227Y-108953846D01*
X122088753Y-109203206D01*
X122738994Y-109203774D01*
X122904187Y-109135517D01*
X123717984Y-109949315D01*
X123717985Y-109949315D01*
X123965195Y-110114496D01*
X124256800Y-110172500D01*
X130773769Y-110172500D01*
X135597900Y-114996631D01*
X135597713Y-115212284D01*
X135761711Y-115609189D01*
X136065114Y-115913122D01*
X136095097Y-115925572D01*
X132589870Y-119430800D01*
X121894600Y-119430800D01*
X121602995Y-119488804D01*
X121355785Y-119653985D01*
X119048814Y-121960955D01*
X119048814Y-107245306D01*
X118800502Y-106644345D01*
X118341113Y-106184154D01*
X117740587Y-105934794D01*
X117090346Y-105934226D01*
X116489385Y-106182538D01*
X116029194Y-106641927D01*
X115779834Y-107242453D01*
X115779266Y-107892694D01*
X116027578Y-108493655D01*
X116486967Y-108953846D01*
X117087493Y-109203206D01*
X117737734Y-109203774D01*
X118338695Y-108955462D01*
X118798886Y-108496073D01*
X119048246Y-107895547D01*
X119048814Y-107245306D01*
X119048814Y-121960955D01*
X115379687Y-125630082D01*
X115379687Y-120029816D01*
X115215689Y-119632911D01*
X114912286Y-119328978D01*
X114515668Y-119164287D01*
X114298127Y-119164097D01*
X113886315Y-118752285D01*
X113639105Y-118587104D01*
X113347500Y-118529100D01*
X111518700Y-118529100D01*
X111227095Y-118587104D01*
X110979885Y-118752285D01*
X110212470Y-119519700D01*
X108962000Y-119519700D01*
X108962000Y-96040000D01*
X108962000Y-89700000D01*
X108903996Y-89408396D01*
X108903996Y-89408395D01*
X108837834Y-89309376D01*
X108738816Y-89161185D01*
X107522484Y-87944854D01*
X107427670Y-87468190D01*
X107069778Y-86932567D01*
X106534155Y-86574675D01*
X105902345Y-86449000D01*
X105837655Y-86449000D01*
X105205845Y-86574675D01*
X104905480Y-86775371D01*
X104884327Y-86724302D01*
X104705699Y-86545673D01*
X104472310Y-86449000D01*
X104219691Y-86449000D01*
X102187691Y-86449000D01*
X101954302Y-86545673D01*
X101775673Y-86724301D01*
X101679000Y-86957690D01*
X101679000Y-87210309D01*
X101679000Y-89242309D01*
X101775673Y-89475698D01*
X101954301Y-89654327D01*
X102187690Y-89751000D01*
X102440309Y-89751000D01*
X103903369Y-89751000D01*
X104521918Y-90369548D01*
X104472309Y-90349000D01*
X103615750Y-90349000D01*
X103457000Y-90507750D01*
X103457000Y-91873000D01*
X103477000Y-91873000D01*
X103477000Y-92127000D01*
X103457000Y-92127000D01*
X103457000Y-93492250D01*
X103615750Y-93651000D01*
X104472309Y-93651000D01*
X104705698Y-93554327D01*
X104884327Y-93375699D01*
X104905481Y-93324628D01*
X105108000Y-93459947D01*
X105108000Y-94584998D01*
X104680971Y-94870330D01*
X104500000Y-95141172D01*
X104319029Y-94870330D01*
X103832848Y-94545474D01*
X103259359Y-94431400D01*
X103203000Y-94431400D01*
X103203000Y-93492250D01*
X103203000Y-92127000D01*
X103203000Y-91873000D01*
X103203000Y-90507750D01*
X103044250Y-90349000D01*
X102187691Y-90349000D01*
X101954302Y-90445673D01*
X101775673Y-90624301D01*
X101679000Y-90857690D01*
X101679000Y-91110309D01*
X101679000Y-91714250D01*
X101837750Y-91873000D01*
X103203000Y-91873000D01*
X103203000Y-92127000D01*
X101837750Y-92127000D01*
X101679000Y-92285750D01*
X101679000Y-92889691D01*
X101679000Y-93142310D01*
X101775673Y-93375699D01*
X101954302Y-93554327D01*
X102187691Y-93651000D01*
X103044250Y-93651000D01*
X103203000Y-93492250D01*
X103203000Y-94431400D01*
X103200641Y-94431400D01*
X102627152Y-94545474D01*
X102140971Y-94870330D01*
X101816115Y-95356511D01*
X101702041Y-95930000D01*
X101816115Y-96503489D01*
X102140971Y-96989670D01*
X102464228Y-97205663D01*
X102341510Y-97263179D01*
X101947312Y-97695053D01*
X101775042Y-98110974D01*
X101896183Y-98343000D01*
X103103000Y-98343000D01*
X103103000Y-98323000D01*
X103357000Y-98323000D01*
X103357000Y-98343000D01*
X103377000Y-98343000D01*
X103377000Y-98597000D01*
X103357000Y-98597000D01*
X103357000Y-99804469D01*
X103589027Y-99924968D01*
X104118490Y-99676821D01*
X104285471Y-99493880D01*
X104368073Y-99693298D01*
X104546701Y-99871927D01*
X104780090Y-99968600D01*
X105032709Y-99968600D01*
X106759909Y-99968600D01*
X106993298Y-99871927D01*
X107171927Y-99693299D01*
X107268600Y-99459910D01*
X107268600Y-99207291D01*
X107268600Y-98049030D01*
X108738815Y-96578815D01*
X108903996Y-96331605D01*
X108903996Y-96331604D01*
X108962000Y-96040000D01*
X108962000Y-119519700D01*
X107984574Y-119519700D01*
X107984574Y-107245306D01*
X107736262Y-106644345D01*
X107276873Y-106184154D01*
X106676347Y-105934794D01*
X106026106Y-105934226D01*
X105425145Y-106182538D01*
X104964954Y-106641927D01*
X104715594Y-107242453D01*
X104715026Y-107892694D01*
X104963338Y-108493655D01*
X105422727Y-108953846D01*
X106023253Y-109203206D01*
X106673494Y-109203774D01*
X107274455Y-108955462D01*
X107734646Y-108496073D01*
X107984006Y-107895547D01*
X107984574Y-107245306D01*
X107984574Y-119519700D01*
X107022900Y-119519700D01*
X107022900Y-119139391D01*
X106926227Y-118906002D01*
X106747599Y-118727373D01*
X106514210Y-118630700D01*
X106261591Y-118630700D01*
X104229591Y-118630700D01*
X103996202Y-118727373D01*
X103817573Y-118906001D01*
X103801206Y-118945512D01*
X103800279Y-118944512D01*
X103214846Y-118675717D01*
X103103000Y-118727551D01*
X103103000Y-99804469D01*
X103103000Y-98597000D01*
X101896183Y-98597000D01*
X101775042Y-98829026D01*
X101947312Y-99244947D01*
X102341510Y-99676821D01*
X102870973Y-99924968D01*
X103103000Y-99804469D01*
X103103000Y-118727551D01*
X102958900Y-118794333D01*
X102958900Y-120154700D01*
X102978900Y-120154700D01*
X102978900Y-120408700D01*
X102958900Y-120408700D01*
X102958900Y-121769067D01*
X103214846Y-121887683D01*
X103800279Y-121618888D01*
X103801207Y-121617887D01*
X103817573Y-121657398D01*
X103996201Y-121836027D01*
X104229590Y-121932700D01*
X104482209Y-121932700D01*
X106514209Y-121932700D01*
X106747598Y-121836027D01*
X106926227Y-121657399D01*
X107022900Y-121424010D01*
X107022900Y-121171391D01*
X107022900Y-121043700D01*
X110517269Y-121043700D01*
X108046185Y-123514785D01*
X107881004Y-123761995D01*
X107823000Y-124053600D01*
X107823000Y-127243170D01*
X104319669Y-130746500D01*
X104104016Y-130746313D01*
X103707111Y-130910311D01*
X103403178Y-131213714D01*
X103238487Y-131610332D01*
X103238113Y-132039784D01*
X103402111Y-132436689D01*
X103705514Y-132740622D01*
X104102132Y-132905313D01*
X104531584Y-132905687D01*
X104928489Y-132741689D01*
X105232422Y-132438286D01*
X105397113Y-132041668D01*
X105397302Y-131824127D01*
X109123815Y-128097615D01*
X109288996Y-127850405D01*
X109346999Y-127558800D01*
X109347000Y-127558800D01*
X109347000Y-124369230D01*
X111707330Y-122008899D01*
X111922984Y-122009087D01*
X112319889Y-121845089D01*
X112623822Y-121541686D01*
X112788513Y-121145068D01*
X112788887Y-120715616D01*
X112624889Y-120318711D01*
X112359741Y-120053100D01*
X113031869Y-120053100D01*
X113220500Y-120241731D01*
X113220313Y-120457384D01*
X113384311Y-120854289D01*
X113687714Y-121158222D01*
X114084332Y-121322913D01*
X114513784Y-121323287D01*
X114910689Y-121159289D01*
X115214622Y-120855886D01*
X115379313Y-120459268D01*
X115379687Y-120029816D01*
X115379687Y-125630082D01*
X110644269Y-130365500D01*
X110428616Y-130365313D01*
X110031711Y-130529311D01*
X109727778Y-130832714D01*
X109563087Y-131229332D01*
X109562713Y-131658784D01*
X109726711Y-132055689D01*
X110030114Y-132359622D01*
X110426732Y-132524313D01*
X110856184Y-132524687D01*
X111253089Y-132360689D01*
X111557022Y-132057286D01*
X111721713Y-131660668D01*
X111721902Y-131443127D01*
X120523750Y-122641279D01*
X120572511Y-122759289D01*
X120726200Y-122913246D01*
X120726200Y-129872070D01*
X108180469Y-142417800D01*
X107964816Y-142417613D01*
X107567911Y-142581611D01*
X107263978Y-142885014D01*
X107099287Y-143281632D01*
X107098913Y-143711084D01*
X107262911Y-144107989D01*
X107566092Y-144411700D01*
X104862030Y-144411700D01*
X104648000Y-144197669D01*
X104648000Y-141302841D01*
X104800622Y-141150486D01*
X104965313Y-140753868D01*
X104965687Y-140324416D01*
X104801689Y-139927511D01*
X104498286Y-139623578D01*
X104101668Y-139458887D01*
X103672216Y-139458513D01*
X103275311Y-139622511D01*
X102971378Y-139925914D01*
X102806687Y-140322532D01*
X102806313Y-140751984D01*
X102970311Y-141148889D01*
X103124000Y-141302846D01*
X103124000Y-144513300D01*
X103182004Y-144804905D01*
X103347185Y-145052115D01*
X104007585Y-145712516D01*
X104155776Y-145811534D01*
X104254795Y-145877696D01*
X104254796Y-145877696D01*
X104546400Y-145935700D01*
X112102900Y-145935700D01*
X112102900Y-145935699D01*
X112394504Y-145877696D01*
X112394505Y-145877696D01*
X112641715Y-145712515D01*
X113752030Y-144602200D01*
X114640435Y-144602200D01*
X114894214Y-144856422D01*
X115290832Y-145021113D01*
X115720284Y-145021487D01*
X116117189Y-144857489D01*
X116271146Y-144703800D01*
X117705469Y-144703800D01*
X119895284Y-146893615D01*
X119895285Y-146893615D01*
X120142495Y-147058796D01*
X120434100Y-147116800D01*
X131721758Y-147116800D01*
X131874114Y-147269422D01*
X132270732Y-147434113D01*
X132700184Y-147434487D01*
X133097089Y-147270489D01*
X133401022Y-146967086D01*
X133565713Y-146570468D01*
X133566087Y-146141016D01*
X133402089Y-145744111D01*
X133098686Y-145440178D01*
X132702068Y-145275487D01*
X132272616Y-145275113D01*
X131875711Y-145439111D01*
X131721753Y-145592800D01*
X120749730Y-145592800D01*
X118559915Y-143402985D01*
X118312705Y-143237804D01*
X118021100Y-143179800D01*
X116271141Y-143179800D01*
X116118786Y-143027178D01*
X115722168Y-142862487D01*
X115292716Y-142862113D01*
X114895811Y-143026111D01*
X114843631Y-143078200D01*
X113436400Y-143078200D01*
X113144795Y-143136204D01*
X113045776Y-143202365D01*
X112897585Y-143301384D01*
X111787269Y-144411700D01*
X108790580Y-144411700D01*
X109093222Y-144109586D01*
X109257913Y-143712968D01*
X109258102Y-143495427D01*
X122027015Y-130726515D01*
X122192196Y-130479305D01*
X122192196Y-130479304D01*
X122250200Y-130187700D01*
X122250200Y-122913241D01*
X122402822Y-122760886D01*
X122567513Y-122364268D01*
X122567887Y-121934816D01*
X122403889Y-121537911D01*
X122100486Y-121233978D01*
X121980764Y-121184265D01*
X122210229Y-120954800D01*
X132905500Y-120954800D01*
X132905500Y-120954799D01*
X133197104Y-120896796D01*
X133197105Y-120896796D01*
X133444315Y-120731615D01*
X136156556Y-118019373D01*
X136156513Y-118069784D01*
X136320511Y-118466689D01*
X136623914Y-118770622D01*
X137020532Y-118935313D01*
X137449984Y-118935687D01*
X137846889Y-118771689D01*
X138000846Y-118618000D01*
X142813370Y-118618000D01*
X144602200Y-120406830D01*
X144602013Y-120622484D01*
X144766011Y-121019389D01*
X145069414Y-121323322D01*
X145466032Y-121488013D01*
X145895484Y-121488387D01*
X146292389Y-121324389D01*
X146596322Y-121020986D01*
X146761013Y-120624368D01*
X146761387Y-120194916D01*
X146597389Y-119798011D01*
X146293986Y-119494078D01*
X145897368Y-119329387D01*
X145679827Y-119329197D01*
X143667815Y-117317185D01*
X143420605Y-117152004D01*
X143129000Y-117094000D01*
X138000841Y-117094000D01*
X137848486Y-116941378D01*
X137451868Y-116776687D01*
X137399288Y-116776641D01*
X143216030Y-110959899D01*
X143431684Y-110960087D01*
X143828589Y-110796089D01*
X144093956Y-110531184D01*
X144245311Y-110897489D01*
X144373600Y-111026002D01*
X144373600Y-112316158D01*
X144220978Y-112468514D01*
X144056287Y-112865132D01*
X144055913Y-113294584D01*
X144219911Y-113691489D01*
X144523314Y-113995422D01*
X144919932Y-114160113D01*
X145349384Y-114160487D01*
X145746289Y-113996489D01*
X146050222Y-113693086D01*
X146214913Y-113296468D01*
X146215287Y-112867016D01*
X146051289Y-112470111D01*
X145897600Y-112316153D01*
X145897600Y-111076797D01*
X146075622Y-110899086D01*
X146240313Y-110502468D01*
X146240633Y-110134400D01*
X146253200Y-110134400D01*
X146253200Y-116459000D01*
X146311204Y-116750605D01*
X146476385Y-116997815D01*
X151320500Y-121841931D01*
X151320313Y-122057584D01*
X151484311Y-122454489D01*
X151787714Y-122758422D01*
X152184332Y-122923113D01*
X152613784Y-122923487D01*
X153010689Y-122759489D01*
X153314622Y-122456086D01*
X153479313Y-122059468D01*
X153479687Y-121630016D01*
X153368614Y-121361200D01*
X158561370Y-121361200D01*
X158686500Y-121486330D01*
X158686313Y-121701984D01*
X158850311Y-122098889D01*
X159153714Y-122402822D01*
X159527618Y-122558081D01*
X159326016Y-122859800D01*
X156006800Y-122859800D01*
X155715195Y-122917804D01*
X155616176Y-122983965D01*
X155467985Y-123082984D01*
X154470220Y-124080748D01*
X154470287Y-124004916D01*
X154306289Y-123608011D01*
X154002886Y-123304078D01*
X153606268Y-123139387D01*
X153176816Y-123139013D01*
X152779911Y-123303011D01*
X152562342Y-123520200D01*
X135445500Y-123520200D01*
X135153895Y-123578204D01*
X134906684Y-123743385D01*
X132963585Y-125686485D01*
X132798404Y-125933695D01*
X132740400Y-126225300D01*
X132740400Y-127594258D01*
X132587778Y-127746614D01*
X132423087Y-128143232D01*
X132422713Y-128572684D01*
X132586711Y-128969589D01*
X132890114Y-129273522D01*
X133286732Y-129438213D01*
X133716184Y-129438587D01*
X134113089Y-129274589D01*
X134417022Y-128971186D01*
X134581713Y-128574568D01*
X134582087Y-128145116D01*
X134418089Y-127748211D01*
X134264400Y-127594253D01*
X134264400Y-126540930D01*
X135761130Y-125044200D01*
X149338180Y-125044200D01*
X149237887Y-125285732D01*
X149237513Y-125715184D01*
X149401511Y-126112089D01*
X149438300Y-126148942D01*
X149351778Y-126235314D01*
X149187087Y-126631932D01*
X149186713Y-127061384D01*
X149335109Y-127420530D01*
X149250178Y-127505314D01*
X149085487Y-127901932D01*
X149085113Y-128331384D01*
X149249111Y-128728289D01*
X149274144Y-128753366D01*
X149110887Y-129146532D01*
X149110513Y-129575984D01*
X149274511Y-129972889D01*
X149577914Y-130276822D01*
X149974532Y-130441513D01*
X150403984Y-130441887D01*
X150800889Y-130277889D01*
X150954846Y-130124200D01*
X153735369Y-130124200D01*
X155391785Y-131780616D01*
X155539976Y-131879634D01*
X155638995Y-131945796D01*
X155638996Y-131945796D01*
X155930600Y-132003800D01*
X159326016Y-132003800D01*
X159544530Y-132330829D01*
X159815372Y-132511800D01*
X159544530Y-132692771D01*
X159219674Y-133178952D01*
X159105600Y-133752441D01*
X159105600Y-133811159D01*
X159219674Y-134384648D01*
X159495733Y-134797800D01*
X145933830Y-134797800D01*
X145542000Y-134405969D01*
X145542000Y-127891641D01*
X145694622Y-127739286D01*
X145859313Y-127342668D01*
X145859687Y-126913216D01*
X145695689Y-126516311D01*
X145392286Y-126212378D01*
X144995668Y-126047687D01*
X144566216Y-126047313D01*
X144169311Y-126211311D01*
X143865378Y-126514714D01*
X143700687Y-126911332D01*
X143700313Y-127340784D01*
X143864311Y-127737689D01*
X144018000Y-127891646D01*
X144018000Y-134721600D01*
X144076004Y-135013205D01*
X144241185Y-135260415D01*
X145079385Y-136098616D01*
X145227576Y-136197634D01*
X145326595Y-136263796D01*
X145326596Y-136263796D01*
X145618200Y-136321800D01*
X164388965Y-136321800D01*
X164388613Y-136726084D01*
X164552611Y-137122989D01*
X164856014Y-137426922D01*
X165252632Y-137591613D01*
X165608000Y-137591922D01*
X165608000Y-143637000D01*
X165622565Y-143710223D01*
X165622487Y-143784877D01*
X165651285Y-143854608D01*
X165666004Y-143928605D01*
X165707480Y-143990678D01*
X165735978Y-144059682D01*
X167005978Y-145964681D01*
X167059269Y-146018084D01*
X167101185Y-146080815D01*
X167163257Y-146122290D01*
X167215993Y-146175137D01*
X167285665Y-146204081D01*
X167348395Y-146245996D01*
X167421617Y-146260560D01*
X167490560Y-146289202D01*
X167566002Y-146289280D01*
X167640000Y-146304000D01*
X171831000Y-146304000D01*
X171831000Y-146303999D01*
X172122604Y-146245996D01*
X172122605Y-146245996D01*
X172369815Y-146080815D01*
X173908630Y-144542000D01*
X175476500Y-144542000D01*
X175476500Y-144604809D01*
X175573173Y-144838198D01*
X175751801Y-145016827D01*
X175985190Y-145113500D01*
X176237809Y-145113500D01*
X177634809Y-145113500D01*
X177868198Y-145016827D01*
X178046827Y-144838199D01*
X178143500Y-144604810D01*
X178143500Y-144352191D01*
X178143500Y-142955191D01*
X178046827Y-142721802D01*
X177868199Y-142543173D01*
X177634810Y-142446500D01*
X177382191Y-142446500D01*
X177382009Y-142446500D01*
X177564380Y-142371146D01*
X177939827Y-141996353D01*
X178143268Y-141506413D01*
X178143724Y-140983906D01*
X178969630Y-140158000D01*
X179250330Y-140158000D01*
X179317538Y-140320655D01*
X179776927Y-140780846D01*
X180377453Y-141030206D01*
X181027694Y-141030774D01*
X181628655Y-140782462D01*
X182088846Y-140323073D01*
X182338206Y-139722547D01*
X182338774Y-139072306D01*
X182090462Y-138471345D01*
X181897054Y-138277600D01*
X185098815Y-138277600D01*
X184907154Y-138468927D01*
X184657794Y-139069453D01*
X184657226Y-139719694D01*
X184905538Y-140320655D01*
X185364927Y-140780846D01*
X185965453Y-141030206D01*
X186615694Y-141030774D01*
X187216655Y-140782462D01*
X187676846Y-140323073D01*
X187926206Y-139722547D01*
X187926774Y-139072306D01*
X187678462Y-138471345D01*
X187485054Y-138277600D01*
X188050770Y-138277600D01*
X189269333Y-139496163D01*
X189269226Y-139619694D01*
X189517538Y-140220655D01*
X189976927Y-140680846D01*
X190577453Y-140930206D01*
X191227694Y-140930774D01*
X191828655Y-140682462D01*
X192288846Y-140223073D01*
X192538206Y-139622547D01*
X192538774Y-138972306D01*
X192290462Y-138371345D01*
X191831073Y-137911154D01*
X191230547Y-137661794D01*
X190580306Y-137661226D01*
X189979345Y-137909538D01*
X189908594Y-137980164D01*
X188905215Y-136976785D01*
X188658005Y-136811604D01*
X188366400Y-136753600D01*
X178007407Y-136753600D01*
X178143268Y-136426413D01*
X178143731Y-135895914D01*
X178046831Y-135661400D01*
X190514569Y-135661400D01*
X194687984Y-139834815D01*
X194687985Y-139834815D01*
X194935195Y-139999996D01*
X195021452Y-140017153D01*
X195021453Y-140017153D01*
X195105538Y-140220655D01*
X195564927Y-140680846D01*
X196165453Y-140930206D01*
X196815694Y-140930774D01*
X197416655Y-140682462D01*
X197876846Y-140223073D01*
X198126206Y-139622547D01*
X198126774Y-138972306D01*
X197878462Y-138371345D01*
X197419073Y-137911154D01*
X196818547Y-137661794D01*
X196168306Y-137661226D01*
X195567345Y-137909538D01*
X195242373Y-138233942D01*
X191369015Y-134360585D01*
X191121805Y-134195404D01*
X190830200Y-134137400D01*
X178039049Y-134137400D01*
X178143268Y-133886413D01*
X178143731Y-133355914D01*
X177941146Y-132865620D01*
X177566353Y-132490173D01*
X177076413Y-132286732D01*
X176545914Y-132286269D01*
X176055620Y-132488854D01*
X175680173Y-132863647D01*
X175476732Y-133353587D01*
X175476269Y-133884086D01*
X175580936Y-134137400D01*
X170450600Y-134137400D01*
X170416208Y-134144240D01*
X170523268Y-133886413D01*
X170523731Y-133355914D01*
X170321146Y-132865620D01*
X169946353Y-132490173D01*
X169456413Y-132286732D01*
X168925914Y-132286269D01*
X168435620Y-132488854D01*
X168122600Y-132801328D01*
X168122600Y-126598760D01*
X168133647Y-126609827D01*
X168623587Y-126813268D01*
X169154086Y-126813731D01*
X169644380Y-126611146D01*
X170019827Y-126236353D01*
X170223268Y-125746413D01*
X170223731Y-125215914D01*
X170099866Y-124916139D01*
X170105200Y-124917200D01*
X175176500Y-124917200D01*
X175176500Y-126304809D01*
X175273173Y-126538198D01*
X175451801Y-126716827D01*
X175685190Y-126813500D01*
X175937809Y-126813500D01*
X177334809Y-126813500D01*
X177568198Y-126716827D01*
X177746827Y-126538199D01*
X177843500Y-126304810D01*
X177843500Y-126052191D01*
X177843500Y-124917200D01*
X183845200Y-124917200D01*
X183845200Y-124917199D01*
X184136804Y-124859196D01*
X184136805Y-124859196D01*
X184384015Y-124694015D01*
X185531172Y-123546857D01*
X185664927Y-123680846D01*
X186265453Y-123930206D01*
X186915694Y-123930774D01*
X187516655Y-123682462D01*
X187976846Y-123223073D01*
X188226206Y-122622547D01*
X188226577Y-122197408D01*
X188963984Y-122934815D01*
X188963985Y-122934815D01*
X189211195Y-123099996D01*
X189502800Y-123158000D01*
X189750330Y-123158000D01*
X189817538Y-123320655D01*
X190276927Y-123780846D01*
X190877453Y-124030206D01*
X191527694Y-124030774D01*
X192128655Y-123782462D01*
X192588846Y-123323073D01*
X192838206Y-122722547D01*
X192838774Y-122072306D01*
X192759699Y-121880930D01*
X197152930Y-117487699D01*
X197368584Y-117487887D01*
X197765489Y-117323889D01*
X198069422Y-117020486D01*
X198234113Y-116623868D01*
X198234487Y-116194416D01*
X198234487Y-121606935D01*
X198178462Y-121471345D01*
X197719073Y-121011154D01*
X197118547Y-120761794D01*
X196468306Y-120761226D01*
X195867345Y-121009538D01*
X195407154Y-121468927D01*
X195157794Y-122069453D01*
X195157226Y-122719694D01*
X195405538Y-123320655D01*
X195864927Y-123780846D01*
X196465453Y-124030206D01*
X197115694Y-124030774D01*
X197716655Y-123782462D01*
X198176846Y-123323073D01*
X198426206Y-122722547D01*
X198426774Y-122072306D01*
X198426774Y-149315000D01*
X139611287Y-149315000D01*
X139611287Y-128310216D01*
X139447289Y-127913311D01*
X139143886Y-127609378D01*
X138747268Y-127444687D01*
X138317816Y-127444313D01*
X137920911Y-127608311D01*
X137616978Y-127911714D01*
X137452287Y-128308332D01*
X137451913Y-128737784D01*
X137615911Y-129134689D01*
X137769600Y-129288646D01*
X137769600Y-135853769D01*
X137530169Y-136093200D01*
X135676480Y-136093200D01*
X135979122Y-135791086D01*
X136143813Y-135394468D01*
X136144187Y-134965016D01*
X135980189Y-134568111D01*
X135676786Y-134264178D01*
X135280168Y-134099487D01*
X135062628Y-134099297D01*
X132473700Y-131510369D01*
X132473700Y-130736441D01*
X132626322Y-130584086D01*
X132791013Y-130187468D01*
X132791387Y-129758016D01*
X132627389Y-129361111D01*
X132323986Y-129057178D01*
X131927368Y-128892487D01*
X131497916Y-128892113D01*
X131101011Y-129056111D01*
X130797078Y-129359514D01*
X130632387Y-129756132D01*
X130632013Y-130185584D01*
X130796011Y-130582489D01*
X130949700Y-130736446D01*
X130949700Y-131826000D01*
X131007704Y-132117605D01*
X131172885Y-132364815D01*
X133985000Y-135176931D01*
X133984813Y-135392584D01*
X134148811Y-135789489D01*
X134451992Y-136093200D01*
X134264400Y-136093200D01*
X133972796Y-136151203D01*
X133725585Y-136316384D01*
X127459069Y-142582900D01*
X127243416Y-142582713D01*
X126846511Y-142746711D01*
X126542578Y-143050114D01*
X126377887Y-143446732D01*
X126377513Y-143876184D01*
X126541511Y-144273089D01*
X126844914Y-144577022D01*
X127241532Y-144741713D01*
X127670984Y-144742087D01*
X128067889Y-144578089D01*
X128371822Y-144274686D01*
X128536513Y-143878068D01*
X128536702Y-143660527D01*
X134580030Y-137617200D01*
X137845800Y-137617200D01*
X137845800Y-137617199D01*
X138137404Y-137559196D01*
X138137405Y-137559196D01*
X138384615Y-137394015D01*
X139070415Y-136708215D01*
X139070416Y-136708215D01*
X139169434Y-136560023D01*
X139235596Y-136461005D01*
X139235596Y-136461004D01*
X139293600Y-136169400D01*
X139293600Y-129288641D01*
X139446222Y-129136286D01*
X139610913Y-128739668D01*
X139611287Y-128310216D01*
X139611287Y-149315000D01*
X102704900Y-149315000D01*
X102704900Y-121769067D01*
X102704900Y-120408700D01*
X102704900Y-120154700D01*
X102704900Y-118794333D01*
X102448954Y-118675717D01*
X101863521Y-118944512D01*
X101425515Y-119416882D01*
X101225925Y-119898756D01*
X101345064Y-120154700D01*
X102704900Y-120154700D01*
X102704900Y-120408700D01*
X101345064Y-120408700D01*
X101225925Y-120664644D01*
X101425515Y-121146518D01*
X101863521Y-121618888D01*
X102448954Y-121887683D01*
X102704900Y-121769067D01*
X102704900Y-149315000D01*
X100685000Y-149315000D01*
X100685000Y-50685000D01*
X199315000Y-50685000D01*
X199315000Y-149315000D01*
M02*
