%FSLAX46Y46*%
G04 Gerber Fmt 4.6, Leading zero omitted, Abs format (unit mm)*
G04 Created by KiCad (PCBNEW (2014-10-27 BZR 5228)-product) date 10/01/2015 12:02:04*
%MOMM*%
G01*
G04 APERTURE LIST*
%ADD10C,0.100000*%
%ADD11R,1.800860X2.499360*%
%ADD12R,2.499360X1.800860*%
%ADD13C,1.998980*%
%ADD14R,2.032000X2.032000*%
%ADD15O,2.032000X2.032000*%
%ADD16R,1.727200X1.727200*%
%ADD17O,1.727200X1.727200*%
%ADD18R,2.235200X2.235200*%
%ADD19R,2.032000X1.727200*%
%ADD20O,2.032000X1.727200*%
%ADD21R,0.599440X1.000760*%
%ADD22O,1.699260X3.500120*%
%ADD23R,0.299720X1.300480*%
%ADD24R,1.950000X0.600000*%
%ADD25C,1.524000*%
%ADD26R,1.550000X0.600000*%
%ADD27C,2.540000*%
%ADD28C,1.727200*%
%ADD29R,1.397000X1.397000*%
%ADD30C,1.397000*%
%ADD31R,1.250000X1.000000*%
%ADD32R,1.000000X1.250000*%
%ADD33R,1.198880X1.600200*%
%ADD34R,1.600200X1.198880*%
%ADD35R,0.700000X1.300000*%
%ADD36R,1.300000X0.700000*%
%ADD37R,2.700020X2.550160*%
%ADD38C,6.350000*%
%ADD39C,0.889000*%
%ADD40C,0.762000*%
%ADD41C,0.254000*%
%ADD42C,0.381000*%
%ADD43C,1.524000*%
%ADD44C,1.016000*%
G04 APERTURE END LIST*
D10*
D11*
X109651800Y-94470220D03*
X109651800Y-98468180D03*
D12*
X147528280Y-131191000D03*
X143530320Y-131191000D03*
X121302780Y-131838700D03*
X117304820Y-131838700D03*
D11*
X105765600Y-138346180D03*
X105765600Y-134348220D03*
D12*
X130472180Y-119900700D03*
X126474220Y-119900700D03*
X137193020Y-119621300D03*
X141190980Y-119621300D03*
X118600220Y-97040700D03*
X122598180Y-97040700D03*
X156141420Y-131229100D03*
X160139380Y-131229100D03*
X133040120Y-130962400D03*
X137038080Y-130962400D03*
X116974620Y-116903500D03*
X120972580Y-116903500D03*
D13*
X160375600Y-54917340D03*
X160375600Y-65077340D03*
X142392400Y-77228700D03*
X142392400Y-71640700D03*
X156197300Y-77292200D03*
X156197300Y-71704200D03*
X185992000Y-64196000D03*
X180404000Y-64196000D03*
X185938000Y-79765300D03*
X180350000Y-79765300D03*
X185896700Y-96755500D03*
X180308700Y-96755500D03*
X185784000Y-129363000D03*
X180196000Y-129363000D03*
X185830000Y-113152000D03*
X180242000Y-113152000D03*
X196292000Y-64196000D03*
X190704000Y-64196000D03*
X196138000Y-79465300D03*
X190550000Y-79465300D03*
X196196700Y-96755500D03*
X190608700Y-96755500D03*
X195984000Y-129263000D03*
X190396000Y-129263000D03*
X196030000Y-113252000D03*
X190442000Y-113252000D03*
D14*
X130644900Y-81788000D03*
D15*
X130644900Y-79248000D03*
D14*
X124307600Y-70446900D03*
D15*
X126847600Y-70446900D03*
D16*
X125564900Y-88950800D03*
D17*
X125564900Y-91490800D03*
X123024900Y-88950800D03*
X123024900Y-91490800D03*
X120484900Y-88950800D03*
X120484900Y-91490800D03*
X117944900Y-88950800D03*
X117944900Y-91490800D03*
X115404900Y-88950800D03*
X115404900Y-91490800D03*
X112864900Y-88950800D03*
X112864900Y-91490800D03*
D14*
X107391200Y-69227700D03*
D15*
X109931200Y-69227700D03*
D14*
X103035100Y-81546700D03*
D15*
X103035100Y-79006700D03*
D18*
X124777500Y-76161900D03*
D19*
X103136700Y-60198000D03*
D20*
X103136700Y-62738000D03*
X103136700Y-65278000D03*
X103136700Y-67818000D03*
D21*
X129362200Y-72024240D03*
X130314700Y-69910960D03*
X131267200Y-72024240D03*
D22*
X130200000Y-55900000D03*
X132740000Y-55900000D03*
X127660000Y-55900000D03*
D13*
X122138440Y-112547400D03*
X127139700Y-112547400D03*
X106172000Y-90002360D03*
X106172000Y-85001100D03*
D16*
X135902700Y-81140300D03*
D17*
X135902700Y-83680300D03*
X138442700Y-81140300D03*
X138442700Y-83680300D03*
D23*
X134023100Y-91211400D03*
X133388100Y-91211400D03*
X132727700Y-91211400D03*
X132092700Y-91211400D03*
X131432300Y-91211400D03*
X130784600Y-91211400D03*
X130136900Y-91211400D03*
X130136900Y-96799400D03*
X130784600Y-96799400D03*
X131432300Y-96799400D03*
X132092700Y-96799400D03*
X132740400Y-96799400D03*
X133388100Y-96799400D03*
X134035800Y-96799400D03*
X142392400Y-91160600D03*
X141757400Y-91160600D03*
X141097000Y-91160600D03*
X140462000Y-91160600D03*
X139801600Y-91160600D03*
X139153900Y-91160600D03*
X138506200Y-91160600D03*
X138506200Y-96748600D03*
X139153900Y-96748600D03*
X139801600Y-96748600D03*
X140462000Y-96748600D03*
X141109700Y-96748600D03*
X141757400Y-96748600D03*
X142405100Y-96748600D03*
D24*
X147496800Y-114300000D03*
X147496800Y-115570000D03*
X147496800Y-116840000D03*
X147496800Y-118110000D03*
X147496800Y-119380000D03*
X147496800Y-120650000D03*
X147496800Y-121920000D03*
X147496800Y-123190000D03*
X147496800Y-124460000D03*
X147496800Y-125730000D03*
X156896800Y-125730000D03*
X156896800Y-124460000D03*
X156896800Y-123190000D03*
X156896800Y-121920000D03*
X156896800Y-120650000D03*
X156896800Y-119380000D03*
X156896800Y-118110000D03*
X156896800Y-116840000D03*
X156896800Y-115570000D03*
X156896800Y-114300000D03*
X146963400Y-96215200D03*
X146963400Y-97485200D03*
X146963400Y-98755200D03*
X146963400Y-100025200D03*
X146963400Y-101295200D03*
X146963400Y-102565200D03*
X146963400Y-103835200D03*
X146963400Y-105105200D03*
X146963400Y-106375200D03*
X146963400Y-107645200D03*
X156363400Y-107645200D03*
X156363400Y-106375200D03*
X156363400Y-105105200D03*
X156363400Y-103835200D03*
X156363400Y-102565200D03*
X156363400Y-101295200D03*
X156363400Y-100025200D03*
X156363400Y-98755200D03*
X156363400Y-97485200D03*
X156363400Y-96215200D03*
X131761500Y-103085900D03*
X131761500Y-104355900D03*
X131761500Y-105625900D03*
X131761500Y-106895900D03*
X131761500Y-108165900D03*
X131761500Y-109435900D03*
X131761500Y-110705900D03*
X131761500Y-111975900D03*
X131761500Y-113245900D03*
X131761500Y-114515900D03*
X141161500Y-114515900D03*
X141161500Y-113245900D03*
X141161500Y-111975900D03*
X141161500Y-110705900D03*
X141161500Y-109435900D03*
X141161500Y-108165900D03*
X141161500Y-106895900D03*
X141161500Y-105625900D03*
X141161500Y-104355900D03*
X141161500Y-103085900D03*
D25*
X117170200Y-64668400D03*
X117170200Y-62128400D03*
X117170200Y-67208400D03*
D16*
X182968900Y-141566900D03*
D17*
X182968900Y-144106900D03*
X180428900Y-141566900D03*
X180428900Y-144106900D03*
X177888900Y-141566900D03*
X177888900Y-144106900D03*
X175348900Y-141566900D03*
X175348900Y-144106900D03*
X172808900Y-141566900D03*
X172808900Y-144106900D03*
D19*
X160909000Y-96723200D03*
D20*
X160909000Y-99263200D03*
X160909000Y-101803200D03*
X160909000Y-104343200D03*
X160909000Y-106883200D03*
X160909000Y-109423200D03*
X160909000Y-111963200D03*
X160909000Y-114503200D03*
D26*
X114635300Y-74091800D03*
X114635300Y-75361800D03*
X114635300Y-76631800D03*
X114635300Y-77901800D03*
X120035300Y-77901800D03*
X120035300Y-76631800D03*
X120035300Y-75361800D03*
X120035300Y-74091800D03*
D27*
X138582400Y-55976000D03*
D28*
X138582400Y-59976000D03*
D27*
X138582400Y-63976000D03*
D28*
X138582400Y-67976000D03*
D29*
X152603200Y-82207100D03*
D30*
X152603200Y-84747100D03*
X152603200Y-87287100D03*
X152603200Y-89827100D03*
X152603200Y-92367100D03*
X160223200Y-92367100D03*
X160223200Y-89827100D03*
X160223200Y-87287100D03*
X160223200Y-84747100D03*
X160223200Y-82207100D03*
D29*
X165646100Y-68389500D03*
D30*
X168186100Y-68389500D03*
X170726100Y-68389500D03*
X173266100Y-68389500D03*
X175806100Y-68389500D03*
X175806100Y-60769500D03*
X173266100Y-60769500D03*
X170726100Y-60769500D03*
X168186100Y-60769500D03*
X165646100Y-60769500D03*
D29*
X166725600Y-75272900D03*
D30*
X166725600Y-77812900D03*
X166725600Y-80352900D03*
X166725600Y-82892900D03*
X166725600Y-85432900D03*
X174345600Y-85432900D03*
X174345600Y-82892900D03*
X174345600Y-80352900D03*
X174345600Y-77812900D03*
X174345600Y-75272900D03*
D29*
X166674800Y-91427300D03*
D30*
X166674800Y-93967300D03*
X166674800Y-96507300D03*
X166674800Y-99047300D03*
X166674800Y-101587300D03*
X174294800Y-101587300D03*
X174294800Y-99047300D03*
X174294800Y-96507300D03*
X174294800Y-93967300D03*
X174294800Y-91427300D03*
D29*
X166878000Y-108178600D03*
D30*
X166878000Y-110718600D03*
X166878000Y-113258600D03*
X166878000Y-115798600D03*
X166878000Y-118338600D03*
X174498000Y-118338600D03*
X174498000Y-115798600D03*
X174498000Y-113258600D03*
X174498000Y-110718600D03*
X174498000Y-108178600D03*
D29*
X167055800Y-124447300D03*
D30*
X167055800Y-126987300D03*
X167055800Y-129527300D03*
X167055800Y-132067300D03*
X167055800Y-134607300D03*
X174675800Y-134607300D03*
X174675800Y-132067300D03*
X174675800Y-129527300D03*
X174675800Y-126987300D03*
X174675800Y-124447300D03*
D31*
X121196100Y-68227700D03*
X121196100Y-70227700D03*
D32*
X114671600Y-83769200D03*
X116671600Y-83769200D03*
X125904500Y-66675000D03*
X123904500Y-66675000D03*
X120704100Y-83769200D03*
X122704100Y-83769200D03*
D31*
X118567200Y-108143800D03*
X118567200Y-110143800D03*
X155587700Y-140478000D03*
X155587700Y-142478000D03*
X129882900Y-141621000D03*
X129882900Y-143621000D03*
X113728500Y-127206500D03*
X113728500Y-129206500D03*
X131470400Y-126114300D03*
X131470400Y-128114300D03*
D32*
X108308900Y-105575100D03*
X110308900Y-105575100D03*
X145939000Y-138049000D03*
X147939000Y-138049000D03*
X120081800Y-138658600D03*
X122081800Y-138658600D03*
X106670600Y-124320300D03*
X108670600Y-124320300D03*
D31*
X133870700Y-120341900D03*
X133870700Y-118341900D03*
D32*
X112988600Y-101904800D03*
X110988600Y-101904800D03*
X151177500Y-134581900D03*
X149177500Y-134581900D03*
X125548900Y-135128000D03*
X123548900Y-135128000D03*
X109851700Y-121081800D03*
X107851700Y-121081800D03*
X139861800Y-123037600D03*
X137861800Y-123037600D03*
D31*
X128231900Y-125923800D03*
X128231900Y-127923800D03*
X113538000Y-107966000D03*
X113538000Y-109966000D03*
X151587200Y-140401800D03*
X151587200Y-142401800D03*
X125628400Y-141519400D03*
X125628400Y-143519400D03*
X111061500Y-127206500D03*
X111061500Y-129206500D03*
X142519400Y-123104400D03*
X142519400Y-125104400D03*
D32*
X124228100Y-101790500D03*
X122228100Y-101790500D03*
X161655000Y-134620000D03*
X159655000Y-134620000D03*
X137550400Y-135128000D03*
X135550400Y-135128000D03*
X121815100Y-121145300D03*
X119815100Y-121145300D03*
D31*
X108686600Y-107953300D03*
X108686600Y-109953300D03*
X147205700Y-140439900D03*
X147205700Y-142439900D03*
X121119900Y-141544800D03*
X121119900Y-143544800D03*
X108051600Y-127168400D03*
X108051600Y-129168400D03*
X121081800Y-104664000D03*
X121081800Y-106664000D03*
X158711900Y-137582400D03*
X158711900Y-139582400D03*
X133819900Y-138293600D03*
X133819900Y-140293600D03*
X124968000Y-129225800D03*
X124968000Y-131225800D03*
D32*
X112792000Y-96647000D03*
X114792000Y-96647000D03*
X110982000Y-117195600D03*
X108982000Y-117195600D03*
X121815100Y-124447300D03*
X119815100Y-124447300D03*
D33*
X127800100Y-108531660D03*
X127800100Y-104929940D03*
X105041700Y-104574340D03*
X105041700Y-108176060D03*
X142671800Y-137962640D03*
X142671800Y-141564360D03*
X116319300Y-138991340D03*
X116319300Y-142593060D03*
X105117900Y-127053340D03*
X105117900Y-130655060D03*
X125717300Y-123027440D03*
X125717300Y-126629160D03*
D34*
X104777540Y-101866700D03*
X108379260Y-101866700D03*
X143156940Y-134505700D03*
X146758660Y-134505700D03*
X117058440Y-135039100D03*
X120660160Y-135039100D03*
D33*
X105079800Y-117490240D03*
X105079800Y-121091960D03*
D34*
X131155440Y-123075700D03*
X134757160Y-123075700D03*
X117154960Y-105575100D03*
X113553240Y-105575100D03*
X155293060Y-137744200D03*
X151691340Y-137744200D03*
X129893060Y-138544300D03*
X126291340Y-138544300D03*
X115376960Y-124396500D03*
X111775240Y-124396500D03*
X138795760Y-125971300D03*
X135194040Y-125971300D03*
X115636040Y-101981000D03*
X119237760Y-101981000D03*
X153482040Y-134543800D03*
X157083760Y-134543800D03*
X128628140Y-135102600D03*
X132229860Y-135102600D03*
X113032540Y-121196100D03*
X116634260Y-121196100D03*
D33*
X124333000Y-104929940D03*
X124333000Y-108531660D03*
X161747200Y-137568940D03*
X161747200Y-141170660D03*
X137312400Y-137988040D03*
X137312400Y-141589760D03*
D34*
X120926860Y-127482600D03*
X117325140Y-127482600D03*
D33*
X126123700Y-96382840D03*
X126123700Y-99984560D03*
D35*
X130871000Y-75488800D03*
X128971000Y-75488800D03*
X125854500Y-62852300D03*
X123954500Y-62852300D03*
D36*
X120967500Y-62067400D03*
X120967500Y-63967400D03*
D35*
X116456500Y-81076800D03*
X114556500Y-81076800D03*
D36*
X135400000Y-65050000D03*
X135400000Y-66950000D03*
D35*
X139334200Y-128854200D03*
X141234200Y-128854200D03*
D36*
X110871000Y-133924000D03*
X110871000Y-135824000D03*
D35*
X114056200Y-140868400D03*
X112156200Y-140868400D03*
X143202700Y-144907000D03*
X141302700Y-144907000D03*
X105991700Y-112547400D03*
X104091700Y-112547400D03*
D37*
X108407200Y-81013300D03*
X108407200Y-74663300D03*
D38*
X196024500Y-54089300D03*
X195453000Y-145542000D03*
X104000300Y-54000400D03*
X104051100Y-146037300D03*
X146240500Y-54051200D03*
X103977440Y-96128840D03*
X146062700Y-84632800D03*
D39*
X157251400Y-138099800D03*
X153936700Y-139230100D03*
X102108000Y-101727000D03*
X120853200Y-94386400D03*
X125679200Y-94361000D03*
X130378200Y-93497400D03*
X137617200Y-93306900D03*
X163652200Y-137922000D03*
X154137360Y-142473680D03*
X118272560Y-83743800D03*
X138709400Y-104521000D03*
X134950200Y-111175800D03*
X165404800Y-121539000D03*
X160375600Y-120586500D03*
X114757200Y-79362300D03*
X150495000Y-107873800D03*
X148259800Y-108915200D03*
X154838400Y-107899200D03*
X142836900Y-115404900D03*
X131864100Y-117805200D03*
X111048800Y-131038600D03*
X127825500Y-130517900D03*
X121145300Y-145148300D03*
X129857500Y-145173700D03*
X125387100Y-145338800D03*
X158419800Y-96240600D03*
X149834600Y-138049000D03*
X148805900Y-142963900D03*
X110032800Y-124396500D03*
X124015500Y-138658600D03*
X135331200Y-142125700D03*
X121031000Y-108686600D03*
X111810800Y-105575100D03*
X113538000Y-112318800D03*
X108356400Y-83794600D03*
X108292900Y-138074400D03*
X129082800Y-131711700D03*
X150431500Y-131267200D03*
X137388600Y-86525100D03*
X124231400Y-110388400D03*
X129184400Y-110286800D03*
X142773400Y-128244600D03*
X136017000Y-110236000D03*
X141808200Y-126949200D03*
X138836400Y-114338100D03*
X124853700Y-116014500D03*
X127901700Y-115785900D03*
X137502900Y-124460000D03*
X136398000Y-112585500D03*
X137502900Y-128435100D03*
X112814100Y-94716600D03*
X108432600Y-89179400D03*
X152882600Y-129971800D03*
X136182100Y-117182900D03*
X130149600Y-130327400D03*
X113766600Y-116903500D03*
X116065300Y-99517200D03*
X126123700Y-102590600D03*
X162229800Y-60833000D03*
X167309800Y-88633300D03*
X167589200Y-104940100D03*
X164846000Y-111925100D03*
X164960300Y-128295400D03*
X124333000Y-99517200D03*
X132892800Y-98602800D03*
X143979900Y-91173300D03*
X134340600Y-98564700D03*
X124688600Y-80645000D03*
X133537960Y-112054640D03*
X156057600Y-109308900D03*
X161505900Y-122643900D03*
X150368000Y-115493800D03*
X145262600Y-117805200D03*
X166598600Y-144602200D03*
X152285700Y-146672300D03*
X134531100Y-103365300D03*
X135305800Y-88671400D03*
X135382000Y-92557600D03*
X142595600Y-94589600D03*
X135178800Y-96901000D03*
X137185400Y-87960200D03*
X150228300Y-93116400D03*
X153835100Y-102425500D03*
X157975300Y-112826800D03*
X139293600Y-89649300D03*
X118300500Y-81191100D03*
X144896840Y-102641400D03*
X144932400Y-108168440D03*
X139090400Y-93522800D03*
X145072100Y-98844100D03*
X145503900Y-112052100D03*
X144145000Y-95453200D03*
X138049000Y-98425000D03*
X151663400Y-105168700D03*
X151599900Y-123266200D03*
X154000200Y-129184400D03*
X143713200Y-100050600D03*
X153390600Y-124498100D03*
X153339800Y-106451400D03*
X142494000Y-98907600D03*
X151358600Y-132207000D03*
X145110200Y-123926600D03*
X143865600Y-113157000D03*
X149644100Y-98742500D03*
X159143700Y-116954300D03*
X163055300Y-126339600D03*
X154901900Y-109918500D03*
X145084800Y-110070900D03*
X150418800Y-110032800D03*
X164744400Y-143306800D03*
X169202100Y-140144500D03*
X166357300Y-138976100D03*
X177533300Y-138404600D03*
X168109900Y-138811000D03*
X149618700Y-117309900D03*
X149618700Y-119481600D03*
X145427700Y-120662700D03*
X114681000Y-72656700D03*
D40*
X153936700Y-139230100D02*
X156705300Y-139230100D01*
X157340300Y-138595100D02*
X156705300Y-139230100D01*
X157340300Y-138188700D02*
X157340300Y-138595100D01*
X157340300Y-138188700D02*
X157251400Y-138099800D01*
X110022600Y-140995400D02*
X112029200Y-140995400D01*
X112029200Y-140995400D02*
X112156200Y-140868400D01*
X113959600Y-146088100D02*
X113982500Y-146088100D01*
X110022600Y-142151100D02*
X113959600Y-146088100D01*
X110022600Y-140995400D02*
X110022600Y-142151100D01*
X139626300Y-146583400D02*
X141302700Y-144907000D01*
X114477800Y-146583400D02*
X139626300Y-146583400D01*
X113982500Y-146088100D02*
X114477800Y-146583400D01*
X101923850Y-113538000D02*
X101923850Y-101911150D01*
X101923850Y-101911150D02*
X102108000Y-101727000D01*
X106172000Y-85001100D02*
X111569502Y-85001100D01*
X111569502Y-85001100D02*
X112801402Y-83769200D01*
X112801402Y-83769200D02*
X112801400Y-83769200D01*
X101923850Y-113036350D02*
X101923850Y-113538000D01*
X101923850Y-113538000D02*
X101923850Y-138817350D01*
X104101900Y-140995400D02*
X110022600Y-140995400D01*
X101923850Y-138817350D02*
X104101900Y-140995400D01*
X103657400Y-112547400D02*
X103657400Y-113880900D01*
X120246140Y-114439700D02*
X122138440Y-112547400D01*
X104216200Y-114439700D02*
X120246140Y-114439700D01*
X103657400Y-113880900D02*
X104216200Y-114439700D01*
X104091700Y-112547400D02*
X103657400Y-112547400D01*
X103657400Y-112547400D02*
X102412800Y-112547400D01*
X102412800Y-112547400D02*
X101923850Y-113036350D01*
X141234200Y-128854200D02*
X141234200Y-131244300D01*
X141234200Y-131244300D02*
X140106400Y-132372100D01*
X140106400Y-132372100D02*
X140106400Y-143710700D01*
X140106400Y-143710700D02*
X141302700Y-144907000D01*
X110022600Y-140995400D02*
X110022600Y-138808500D01*
X110022600Y-138808500D02*
X110871000Y-137960100D01*
X110871000Y-137960100D02*
X110871000Y-135824000D01*
X108407200Y-74663300D02*
X108407200Y-74320400D01*
X108407200Y-74320400D02*
X105333800Y-71247000D01*
X104673400Y-60198000D02*
X103136700Y-60198000D01*
X105333800Y-60858400D02*
X104673400Y-60198000D01*
X105333800Y-71247000D02*
X105333800Y-60858400D01*
X112179100Y-80949800D02*
X114429500Y-80949800D01*
X114429500Y-80949800D02*
X114556500Y-81076800D01*
X108407200Y-74663300D02*
X110540800Y-74663300D01*
X112801400Y-83769200D02*
X114671600Y-83769200D01*
X112179100Y-83146900D02*
X112801400Y-83769200D01*
X112179100Y-76301600D02*
X112179100Y-80949800D01*
X112179100Y-80949800D02*
X112179100Y-83146900D01*
X110540800Y-74663300D02*
X112179100Y-76301600D01*
X108407200Y-74663300D02*
X108191300Y-74663300D01*
X120035300Y-74091800D02*
X120035300Y-74010500D01*
X120035300Y-74010500D02*
X117386100Y-71361300D01*
X111709200Y-71361300D02*
X108407200Y-74663300D01*
X117386100Y-71361300D02*
X111709200Y-71361300D01*
X129362200Y-72024240D02*
X129362200Y-72072500D01*
X129362200Y-72072500D02*
X128168400Y-73266300D01*
X128168400Y-73266300D02*
X126568200Y-73266300D01*
X126568200Y-73266300D02*
X120860800Y-73266300D01*
X120860800Y-73266300D02*
X120035300Y-74091800D01*
X125653800Y-94386400D02*
X120853200Y-94386400D01*
X125679200Y-94361000D02*
X125653800Y-94386400D01*
D41*
X130136900Y-91211400D02*
X130136900Y-93256100D01*
X130136900Y-93256100D02*
X130378200Y-93497400D01*
X138506200Y-92417900D02*
X137617200Y-93306900D01*
X138506200Y-92417900D02*
X138506200Y-91160600D01*
D40*
X148805900Y-142963900D02*
X149572980Y-142963900D01*
X150135080Y-142401800D02*
X151587200Y-142401800D01*
X149572980Y-142963900D02*
X150135080Y-142401800D01*
X161940240Y-139582400D02*
X163600640Y-139582400D01*
X163652200Y-139530840D02*
X163652200Y-137922000D01*
X163600640Y-139582400D02*
X163652200Y-139530840D01*
X155587700Y-142478000D02*
X158095440Y-142478000D01*
X158490920Y-142082520D02*
X158490920Y-139803380D01*
X158095440Y-142478000D02*
X158490920Y-142082520D01*
X158490920Y-139803380D02*
X158711900Y-139582400D01*
X155587700Y-142478000D02*
X154141680Y-142478000D01*
X154141680Y-142478000D02*
X154137360Y-142473680D01*
X116671600Y-83769200D02*
X118247160Y-83769200D01*
X118247160Y-83769200D02*
X118272560Y-83743800D01*
X131761500Y-114515900D02*
X134434580Y-114515900D01*
X138874500Y-104355900D02*
X138709400Y-104521000D01*
X138874500Y-104355900D02*
X141161500Y-104355900D01*
X134950200Y-114000280D02*
X134950200Y-111175800D01*
X134434580Y-114515900D02*
X134950200Y-114000280D01*
D41*
X164452300Y-120586500D02*
X165404800Y-121539000D01*
X160375600Y-120586500D02*
X164452300Y-120586500D01*
D40*
X146963400Y-106375200D02*
X145074640Y-106375200D01*
X145074640Y-106375200D02*
X144571720Y-105872280D01*
X144571720Y-105872280D02*
X144571720Y-104851200D01*
X144571720Y-104851200D02*
X144076420Y-104355900D01*
X144076420Y-104355900D02*
X141161500Y-104355900D01*
X107391200Y-69227700D02*
X107391200Y-65557400D01*
X110820200Y-62128400D02*
X117170200Y-62128400D01*
X107391200Y-65557400D02*
X110820200Y-62128400D01*
D41*
X114635300Y-77901800D02*
X114635300Y-79255600D01*
X114681000Y-79438500D02*
X114757200Y-79362300D01*
X114452400Y-79438500D02*
X114681000Y-79438500D01*
X114635300Y-79255600D02*
X114452400Y-79438500D01*
D40*
X154838400Y-107899200D02*
X150520400Y-107899200D01*
X150520400Y-107899200D02*
X150495000Y-107873800D01*
X148259800Y-108915200D02*
X146989800Y-107645200D01*
X156363400Y-107645200D02*
X155092400Y-107645200D01*
X155092400Y-107645200D02*
X154838400Y-107899200D01*
D41*
X146989800Y-107645200D02*
X146963400Y-107645200D01*
X147496800Y-125730000D02*
X148717000Y-125730000D01*
X158216600Y-132791200D02*
X158216600Y-125730000D01*
X158115000Y-132892800D02*
X158216600Y-132791200D01*
X154127200Y-132892800D02*
X158115000Y-132892800D01*
X152019000Y-130784600D02*
X154127200Y-132892800D01*
X152019000Y-129032000D02*
X152019000Y-130784600D01*
X148717000Y-125730000D02*
X152019000Y-129032000D01*
X142519400Y-125104400D02*
X142281400Y-125104400D01*
X142281400Y-125104400D02*
X139903200Y-127482600D01*
X139903200Y-127482600D02*
X134239000Y-127482600D01*
X134239000Y-127482600D02*
X133607300Y-128114300D01*
X133607300Y-128114300D02*
X131470400Y-128114300D01*
X141947900Y-114515900D02*
X142836900Y-115404900D01*
X141161500Y-114515900D02*
X141947900Y-114515900D01*
X133870700Y-118341900D02*
X132400800Y-118341900D01*
X132400800Y-118341900D02*
X131864100Y-117805200D01*
X131761500Y-113245900D02*
X131761500Y-114515900D01*
X131761500Y-114515900D02*
X134010400Y-114515900D01*
X134010400Y-114515900D02*
X134378700Y-114147600D01*
X131470400Y-128114300D02*
X128422400Y-128114300D01*
X128422400Y-128114300D02*
X128231900Y-127923800D01*
X111048800Y-131038600D02*
X111061500Y-131025900D01*
X128231900Y-127923800D02*
X128231900Y-130111500D01*
X127117600Y-131225800D02*
X124968000Y-131225800D01*
X128231900Y-130111500D02*
X127825500Y-130517900D01*
X127825500Y-130517900D02*
X127117600Y-131225800D01*
X121119900Y-143544800D02*
X121119900Y-145122900D01*
X121119900Y-145122900D02*
X121145300Y-145148300D01*
X129882900Y-143621000D02*
X129882900Y-145148300D01*
X129882900Y-145148300D02*
X129857500Y-145173700D01*
X125628400Y-143519400D02*
X125628400Y-145097500D01*
X125628400Y-145097500D02*
X125387100Y-145338800D01*
X121119900Y-143544800D02*
X121119900Y-143929100D01*
X156363400Y-97485200D02*
X157175200Y-97485200D01*
X157175200Y-97485200D02*
X158419800Y-96240600D01*
D40*
X158711900Y-139582400D02*
X161940240Y-139582400D01*
X161940240Y-139582400D02*
X161991800Y-139582400D01*
D41*
X111775240Y-124396500D02*
X110032800Y-124396500D01*
X110032800Y-124396500D02*
X108746800Y-124396500D01*
X108746800Y-124396500D02*
X108670600Y-124320300D01*
X111061500Y-129206500D02*
X111061500Y-131025900D01*
X111099600Y-131064000D02*
X111099600Y-131025900D01*
X111061500Y-131025900D02*
X111099600Y-131064000D01*
X108051600Y-129168400D02*
X108061000Y-129168400D01*
X108061000Y-129168400D02*
X109918500Y-131025900D01*
X109918500Y-131025900D02*
X111099600Y-131025900D01*
X111099600Y-131025900D02*
X111909100Y-131025900D01*
X111909100Y-131025900D02*
X113728500Y-129206500D01*
X121119900Y-143544800D02*
X121510300Y-143544800D01*
X125768100Y-143621000D02*
X125577600Y-143811500D01*
X133819900Y-140293600D02*
X133819900Y-140614400D01*
X133819900Y-140614400D02*
X135331200Y-142125700D01*
X122081800Y-138658600D02*
X124015500Y-138658600D01*
X124015500Y-138658600D02*
X126177040Y-138658600D01*
X126177040Y-138658600D02*
X126291340Y-138544300D01*
X121081800Y-106664000D02*
X121081800Y-108635800D01*
X121081800Y-108635800D02*
X121031000Y-108686600D01*
X110308900Y-105575100D02*
X111810800Y-105575100D01*
X111810800Y-105575100D02*
X113553240Y-105575100D01*
X113538000Y-109966000D02*
X113538000Y-112318800D01*
X113538000Y-112318800D02*
X113538000Y-112433100D01*
X113538000Y-112433100D02*
X113538000Y-112496600D01*
X113538000Y-112496600D02*
X113538000Y-112433100D01*
X108686600Y-109953300D02*
X108988100Y-109953300D01*
X108988100Y-109953300D02*
X111467900Y-112433100D01*
X111467900Y-112433100D02*
X113538000Y-112433100D01*
X113538000Y-112433100D02*
X116277900Y-112433100D01*
X116277900Y-112433100D02*
X118567200Y-110143800D01*
X147496800Y-124460000D02*
X147496800Y-125730000D01*
D40*
X146963400Y-106375200D02*
X146963400Y-107645200D01*
D41*
X159156400Y-115570000D02*
X160375600Y-116789200D01*
X160375600Y-120586500D02*
X160375600Y-123837700D01*
X160375600Y-116789200D02*
X160375600Y-120586500D01*
X160375600Y-123837700D02*
X158483300Y-125730000D01*
X158483300Y-125730000D02*
X158216600Y-125730000D01*
X156896800Y-115570000D02*
X159156400Y-115570000D01*
X158216600Y-125730000D02*
X156896800Y-125730000D01*
X108407200Y-81013300D02*
X108407200Y-83743800D01*
X108407200Y-83743800D02*
X108356400Y-83794600D01*
X147939000Y-138049000D02*
X149834600Y-138049000D01*
X149834600Y-138049000D02*
X151386540Y-138049000D01*
X151386540Y-138049000D02*
X151691340Y-137744200D01*
X151777700Y-142592300D02*
X151587200Y-142401800D01*
D40*
X147205700Y-142439900D02*
X148281900Y-142439900D01*
X148281900Y-142439900D02*
X148805900Y-142963900D01*
D41*
X155159200Y-142478000D02*
X155587700Y-142478000D01*
X158321500Y-139839700D02*
X158359600Y-139801600D01*
D42*
X123954500Y-62852300D02*
X123954500Y-63726100D01*
X123954500Y-63726100D02*
X121767600Y-65913000D01*
X121767600Y-65913000D02*
X121767600Y-67656200D01*
X121767600Y-67656200D02*
X121196100Y-68227700D01*
X121196100Y-70227700D02*
X110931200Y-70227700D01*
X110931200Y-70227700D02*
X109931200Y-69227700D01*
D41*
X120967500Y-63967400D02*
X117871200Y-63967400D01*
X117871200Y-63967400D02*
X117170200Y-64668400D01*
X135400000Y-66950000D02*
X135400000Y-67177700D01*
D42*
X135400000Y-67177700D02*
X134378700Y-68199000D01*
X134378700Y-68199000D02*
X127428500Y-68199000D01*
X127428500Y-68199000D02*
X125904500Y-66675000D01*
D41*
X135350000Y-67000000D02*
X135400000Y-66950000D01*
D42*
X120967500Y-62067400D02*
X120967500Y-61569600D01*
X121837100Y-60700000D02*
X124000000Y-60700000D01*
X120967500Y-61569600D02*
X121837100Y-60700000D01*
X125854500Y-62852300D02*
X125854500Y-61292700D01*
X125261800Y-60700000D02*
X124000000Y-60700000D01*
X125854500Y-61292700D02*
X125261800Y-60700000D01*
X123904500Y-66675000D02*
X123904500Y-65300100D01*
X125854500Y-64455000D02*
X125854500Y-62852300D01*
X125387100Y-64922400D02*
X125854500Y-64455000D01*
X124282200Y-64922400D02*
X125387100Y-64922400D01*
X123904500Y-65300100D02*
X124282200Y-64922400D01*
X124100000Y-58600000D02*
X124100000Y-60600000D01*
D41*
X124100000Y-60600000D02*
X124000000Y-60700000D01*
X124000000Y-60700000D02*
X124100000Y-60700000D01*
X124100000Y-60600000D02*
X124100000Y-60700000D01*
D42*
X108000000Y-58600000D02*
X124100000Y-58600000D01*
X108000000Y-53100000D02*
X108000000Y-58600000D01*
D41*
X124100000Y-58600000D02*
X124100000Y-58600000D01*
X124100000Y-58600000D02*
X124100000Y-58500000D01*
D42*
X125500000Y-53100000D02*
X108000000Y-53100000D01*
X131900000Y-53100000D02*
X125500000Y-53100000D01*
X132740000Y-53940000D02*
X131900000Y-53100000D01*
X132740000Y-55900000D02*
X132740000Y-53940000D01*
D43*
X156197300Y-77292200D02*
X156286200Y-77292200D01*
X156286200Y-77292200D02*
X162280600Y-71297800D01*
X170726100Y-62966600D02*
X170726100Y-60769500D01*
X170103800Y-63588900D02*
X170726100Y-62966600D01*
X166077900Y-63588900D02*
X170103800Y-63588900D01*
X162280600Y-67386200D02*
X166077900Y-63588900D01*
X162280600Y-71297800D02*
X162280600Y-67386200D01*
D44*
X168186100Y-60769500D02*
X168186100Y-59486800D01*
X180292200Y-58496200D02*
X185992000Y-64196000D01*
X169176700Y-58496200D02*
X180292200Y-58496200D01*
X168186100Y-59486800D02*
X169176700Y-58496200D01*
D41*
X185784000Y-129363000D02*
X185784000Y-130268200D01*
D44*
X185784000Y-130268200D02*
X179768500Y-136283700D01*
X179768500Y-136283700D02*
X171932600Y-136283700D01*
X171932600Y-136283700D02*
X169760900Y-134112000D01*
X169760900Y-134112000D02*
X169760900Y-132499100D01*
X169760900Y-132499100D02*
X169329100Y-132067300D01*
X169329100Y-132067300D02*
X167055800Y-132067300D01*
X196292000Y-64196000D02*
X195023700Y-64196000D01*
X195023700Y-64196000D02*
X192443100Y-66776600D01*
X192443100Y-66776600D02*
X182984600Y-66776600D01*
X182984600Y-66776600D02*
X180404000Y-64196000D01*
X196138000Y-79465300D02*
X196086600Y-79465300D01*
X196086600Y-79465300D02*
X192735200Y-82816700D01*
X183401400Y-82816700D02*
X180350000Y-79765300D01*
X192735200Y-82816700D02*
X183401400Y-82816700D01*
D41*
X196138000Y-79465300D02*
X196138000Y-79947300D01*
X195596000Y-78923300D02*
X196138000Y-79465300D01*
D44*
X180308700Y-96755500D02*
X180346900Y-96755500D01*
X180346900Y-96755500D02*
X183007000Y-99415600D01*
X193536600Y-99415600D02*
X196196700Y-96755500D01*
X183007000Y-99415600D02*
X193536600Y-99415600D01*
D41*
X180242000Y-113152000D02*
X180855700Y-113152000D01*
D44*
X180855700Y-113152000D02*
X183642000Y-115938300D01*
X183642000Y-115938300D02*
X193343700Y-115938300D01*
X193343700Y-115938300D02*
X196030000Y-113252000D01*
D41*
X190704000Y-64196000D02*
X190704000Y-64771000D01*
X190550000Y-79465300D02*
X190550000Y-80165300D01*
X190396000Y-129263000D02*
X190396000Y-129156600D01*
D44*
X190396000Y-129156600D02*
X188226700Y-126987300D01*
X188226700Y-126987300D02*
X174675800Y-126987300D01*
D41*
X190442000Y-113252000D02*
X190442000Y-112956000D01*
X109651800Y-93230700D02*
X109651800Y-87706200D01*
X109651800Y-87706200D02*
X111404400Y-85953600D01*
X111404400Y-85953600D02*
X118519700Y-85953600D01*
X118519700Y-85953600D02*
X120704100Y-83769200D01*
X109651800Y-93230700D02*
X126225300Y-93230700D01*
X126225300Y-93230700D02*
X127800100Y-94805500D01*
X127800100Y-94805500D02*
X127800100Y-104929940D01*
X120704100Y-83769200D02*
X120704100Y-83867500D01*
X108021120Y-138346180D02*
X105765600Y-138346180D01*
X108292900Y-138074400D02*
X108021120Y-138346180D01*
X147528280Y-131191000D02*
X150355300Y-131191000D01*
X122293380Y-132829300D02*
X121302780Y-131838700D01*
X127965200Y-132829300D02*
X122293380Y-132829300D01*
X129082800Y-131711700D02*
X127965200Y-132829300D01*
X150355300Y-131191000D02*
X150431500Y-131267200D01*
X130472180Y-119900700D02*
X130472180Y-117863620D01*
X143840200Y-127502920D02*
X147528280Y-131191000D01*
X143840200Y-118084600D02*
X143840200Y-127502920D01*
X141871700Y-116116100D02*
X143840200Y-118084600D01*
X132219700Y-116116100D02*
X141871700Y-116116100D01*
X130472180Y-117863620D02*
X132219700Y-116116100D01*
X127800100Y-104929940D02*
X126387860Y-104929940D01*
X128097280Y-117525800D02*
X130472180Y-119900700D01*
X127927100Y-117525800D02*
X128097280Y-117525800D01*
X124904500Y-114503200D02*
X127927100Y-117525800D01*
X124904500Y-111302800D02*
X124904500Y-114503200D01*
X126326900Y-109880400D02*
X124904500Y-111302800D01*
X126326900Y-104990900D02*
X126326900Y-109880400D01*
X126387860Y-104929940D02*
X126326900Y-104990900D01*
X122704100Y-83769200D02*
X122704100Y-80330800D01*
X130759200Y-86525100D02*
X137388600Y-86525100D01*
X127406400Y-83172300D02*
X130759200Y-86525100D01*
X127406400Y-80962500D02*
X127406400Y-83172300D01*
X125996700Y-79552800D02*
X127406400Y-80962500D01*
X123482100Y-79552800D02*
X125996700Y-79552800D01*
X122704100Y-80330800D02*
X123482100Y-79552800D01*
X131761500Y-109435900D02*
X130035300Y-109435900D01*
X124333000Y-110286800D02*
X124333000Y-108531660D01*
X124231400Y-110388400D02*
X124333000Y-110286800D01*
X130035300Y-109435900D02*
X129184400Y-110286800D01*
X105991700Y-112547400D02*
X107010200Y-112547400D01*
X120859550Y-110089950D02*
X120513350Y-110089950D01*
X120513350Y-110089950D02*
X118567200Y-108143800D01*
X105041700Y-108176060D02*
X108463840Y-108176060D01*
X108463840Y-108176060D02*
X108686600Y-107953300D01*
X124333000Y-108531660D02*
X122417840Y-108531660D01*
X105041700Y-109131100D02*
X105041700Y-108176060D01*
X122417840Y-108531660D02*
X120859550Y-110089950D01*
X120859550Y-110089950D02*
X117449600Y-113499900D01*
X107734100Y-111823500D02*
X107670600Y-111760000D01*
X107010200Y-112547400D02*
X107734100Y-111823500D01*
X109410500Y-113499900D02*
X107670600Y-111760000D01*
X107670600Y-111760000D02*
X105041700Y-109131100D01*
X117449600Y-113499900D02*
X109410500Y-113499900D01*
X153106120Y-145465800D02*
X153106120Y-141122400D01*
X153750520Y-140478000D02*
X155587700Y-140478000D01*
X153106120Y-141122400D02*
X153750520Y-140478000D01*
X143865600Y-129311400D02*
X144856200Y-129311400D01*
X146989800Y-136779000D02*
X146989800Y-140224000D01*
X145338800Y-135128000D02*
X146989800Y-136779000D01*
X145338800Y-129794000D02*
X145338800Y-135128000D01*
X144856200Y-129311400D02*
X145338800Y-129794000D01*
X146989800Y-140224000D02*
X147205700Y-140439900D01*
X131761500Y-108165900D02*
X133946900Y-108165900D01*
X143891000Y-129336800D02*
X143865600Y-129311400D01*
X143865600Y-129311400D02*
X143789400Y-129235200D01*
X143891000Y-129362200D02*
X143891000Y-129336800D01*
X142773400Y-128244600D02*
X143891000Y-129362200D01*
X133946900Y-108165900D02*
X136017000Y-110236000D01*
X143202700Y-144907000D02*
X144094200Y-144907000D01*
X144094200Y-144907000D02*
X145054320Y-143946880D01*
X161747200Y-141170660D02*
X161737040Y-141170660D01*
X161737040Y-141170660D02*
X157441900Y-145465800D01*
X157441900Y-145465800D02*
X153106120Y-145465800D01*
X153106120Y-145465800D02*
X146573240Y-145465800D01*
X146573240Y-145465800D02*
X145054320Y-143946880D01*
X145054320Y-143946880D02*
X142671800Y-141564360D01*
X142671800Y-141564360D02*
X142671800Y-142163800D01*
X161721800Y-141259560D02*
X161444940Y-141259560D01*
X147205700Y-140439900D02*
X145195800Y-140439900D01*
X144071340Y-141564360D02*
X142671800Y-141564360D01*
X145195800Y-140439900D02*
X144071340Y-141564360D01*
X140290550Y-130638550D02*
X140290550Y-127984250D01*
X141808200Y-126949200D02*
X141046200Y-127711200D01*
X140563600Y-127711200D02*
X141046200Y-127711200D01*
X140290550Y-127984250D02*
X140563600Y-127711200D01*
X114056200Y-140868400D02*
X114594640Y-140868400D01*
X114594640Y-140868400D02*
X116319300Y-142593060D01*
X120015000Y-142593060D02*
X127708660Y-142593060D01*
X128680720Y-141621000D02*
X129882900Y-141621000D01*
X127708660Y-142593060D02*
X128680720Y-141621000D01*
X115859600Y-143052760D02*
X116319300Y-142593060D01*
X116319300Y-142593060D02*
X120015000Y-142593060D01*
X120015000Y-142593060D02*
X120071640Y-142593060D01*
X120071640Y-142593060D02*
X121119900Y-141544800D01*
X115859600Y-143052760D02*
X116319300Y-142593060D01*
X139268200Y-110705900D02*
X141161500Y-110705900D01*
X138950700Y-111023400D02*
X139268200Y-110705900D01*
X138950700Y-114223800D02*
X138950700Y-111023400D01*
X138836400Y-114338100D02*
X138950700Y-114223800D01*
X137312400Y-141589760D02*
X137312400Y-141198600D01*
X137312400Y-141198600D02*
X138874500Y-139636500D01*
X138874500Y-139636500D02*
X138874500Y-132054600D01*
X138874500Y-132054600D02*
X140290550Y-130638550D01*
X140290550Y-130638550D02*
X140322300Y-130606800D01*
X134988300Y-144678400D02*
X135699500Y-144678400D01*
X131644900Y-141621000D02*
X134702300Y-144678400D01*
X134702300Y-144678400D02*
X134988300Y-144678400D01*
X129882900Y-141621000D02*
X131644900Y-141621000D01*
X135699500Y-144678400D02*
X137312400Y-143065500D01*
X137312400Y-143065500D02*
X137312400Y-141589760D01*
X116319300Y-142593060D02*
X116481860Y-142593060D01*
X105117900Y-130655060D02*
X105117900Y-130102100D01*
X105117900Y-130102100D02*
X108051600Y-127168400D01*
X105117900Y-130655060D02*
X106512360Y-130655060D01*
X107962700Y-132105400D02*
X110578900Y-132105400D01*
X106512360Y-130655060D02*
X107962700Y-132105400D01*
X141161500Y-109435900D02*
X139090400Y-109435900D01*
X117325140Y-128831340D02*
X117325140Y-127482600D01*
X118719600Y-130225800D02*
X117325140Y-128831340D01*
X126187200Y-130225800D02*
X118719600Y-130225800D01*
X126568200Y-129844800D02*
X126187200Y-130225800D01*
X126568200Y-128587500D02*
X126568200Y-129844800D01*
X126225300Y-128244600D02*
X126568200Y-128587500D01*
X124587000Y-128244600D02*
X126225300Y-128244600D01*
X123748800Y-127406400D02*
X124587000Y-128244600D01*
X123748800Y-117119400D02*
X123748800Y-127406400D01*
X124853700Y-116014500D02*
X123748800Y-117119400D01*
X128130300Y-115557300D02*
X127901700Y-115785900D01*
X135483600Y-115557300D02*
X128130300Y-115557300D01*
X137388600Y-113652300D02*
X135483600Y-115557300D01*
X137388600Y-111137700D02*
X137388600Y-113652300D01*
X139090400Y-109435900D02*
X137388600Y-111137700D01*
X110871000Y-133924000D02*
X110871000Y-132397500D01*
X110871000Y-132397500D02*
X110578900Y-132105400D01*
X110578900Y-132105400D02*
X110490000Y-132016500D01*
X115519200Y-129288540D02*
X117325140Y-127482600D01*
X115519200Y-130721100D02*
X115519200Y-129288540D01*
X114223800Y-132016500D02*
X115519200Y-130721100D01*
X110490000Y-132016500D02*
X114223800Y-132016500D01*
X113728500Y-127206500D02*
X117049040Y-127206500D01*
X117049040Y-127206500D02*
X117325140Y-127482600D01*
X135194040Y-125971300D02*
X136578340Y-124587000D01*
X137375900Y-124587000D02*
X136578340Y-124587000D01*
X137375900Y-124587000D02*
X137502900Y-124460000D01*
X136398000Y-112585500D02*
X136398000Y-111175800D01*
X138036300Y-107975400D02*
X140971000Y-107975400D01*
X137388600Y-108623100D02*
X138036300Y-107975400D01*
X137388600Y-110185200D02*
X137388600Y-108623100D01*
X136398000Y-111175800D02*
X137388600Y-110185200D01*
X140971000Y-107975400D02*
X141161500Y-108165900D01*
X141161500Y-108165900D02*
X140398500Y-108165900D01*
X136398000Y-112166400D02*
X136398000Y-112585500D01*
X137502900Y-128435100D02*
X137502900Y-128372850D01*
X136980950Y-128372850D02*
X137502900Y-128372850D01*
X137502900Y-128372850D02*
X138852850Y-128372850D01*
X138852850Y-128372850D02*
X139334200Y-128854200D01*
X136980950Y-128372850D02*
X137005100Y-128397000D01*
X135194040Y-125971300D02*
X131613400Y-125971300D01*
X131613400Y-125971300D02*
X131470400Y-126114300D01*
X131470400Y-126114300D02*
X128422400Y-126114300D01*
X128422400Y-126114300D02*
X128231900Y-125923800D01*
X125717300Y-126629160D02*
X127526540Y-126629160D01*
X127526540Y-126629160D02*
X128231900Y-125923800D01*
X109651800Y-98468180D02*
X108587540Y-98468180D01*
X108587540Y-98468180D02*
X104983280Y-102072440D01*
X105041700Y-104574340D02*
X105041700Y-102130860D01*
X105041700Y-102130860D02*
X104983280Y-102072440D01*
X108308900Y-105575100D02*
X106042460Y-105575100D01*
X106042460Y-105575100D02*
X105041700Y-104574340D01*
X143156940Y-134505700D02*
X143156940Y-131564380D01*
X143156940Y-131564380D02*
X143530320Y-131191000D01*
X143530320Y-131191000D02*
X143530320Y-131323080D01*
X143530320Y-131323080D02*
X140995400Y-133858000D01*
X140995400Y-133858000D02*
X140995400Y-136286240D01*
X140995400Y-136286240D02*
X142671800Y-137962640D01*
X142671800Y-137962640D02*
X145852640Y-137962640D01*
X145852640Y-137962640D02*
X145939000Y-138049000D01*
X116319300Y-138991340D02*
X119749060Y-138991340D01*
X119749060Y-138991340D02*
X120081800Y-138658600D01*
X117058440Y-135039100D02*
X117058440Y-138252200D01*
X117058440Y-138252200D02*
X116319300Y-138991340D01*
X117304820Y-131838700D02*
X117304820Y-134792720D01*
X117304820Y-134792720D02*
X117058440Y-135039100D01*
X105117900Y-127053340D02*
X104206040Y-127053340D01*
X104206040Y-127053340D02*
X103568500Y-126415800D01*
X106670600Y-124320300D02*
X106670600Y-125500640D01*
X106670600Y-125500640D02*
X105117900Y-127053340D01*
X105765600Y-134348220D02*
X105722420Y-134348220D01*
X105722420Y-134348220D02*
X103568500Y-132194300D01*
X103568500Y-132194300D02*
X103568500Y-126415800D01*
X103568500Y-126415800D02*
X103568500Y-119001540D01*
X103568500Y-119001540D02*
X105079800Y-117490240D01*
X131155440Y-123075700D02*
X131155440Y-123057160D01*
X131155440Y-123057160D02*
X133870700Y-120341900D01*
X131155440Y-123075700D02*
X125765560Y-123075700D01*
X125765560Y-123075700D02*
X125717300Y-123027440D01*
X126474220Y-119900700D02*
X126474220Y-122270520D01*
X126474220Y-122270520D02*
X125717300Y-123027440D01*
X117154960Y-105575100D02*
X115928900Y-105575100D01*
X115928900Y-105575100D02*
X113538000Y-107966000D01*
X115636040Y-101981000D02*
X115636040Y-104056180D01*
X115636040Y-104056180D02*
X117154960Y-105575100D01*
X112988600Y-101904800D02*
X115559840Y-101904800D01*
X115559840Y-101904800D02*
X115636040Y-101981000D01*
X108379260Y-101866700D02*
X110950500Y-101866700D01*
X110950500Y-101866700D02*
X110988600Y-101904800D01*
X155293060Y-137744200D02*
X154244800Y-137744200D01*
X154244800Y-137744200D02*
X151587200Y-140401800D01*
X153482040Y-134543800D02*
X153482040Y-135933180D01*
X153482040Y-135933180D02*
X155293060Y-137744200D01*
X151177500Y-134581900D02*
X153443940Y-134581900D01*
X153443940Y-134581900D02*
X153482040Y-134543800D01*
X146758660Y-134505700D02*
X149101300Y-134505700D01*
X149101300Y-134505700D02*
X149177500Y-134581900D01*
X129893060Y-138544300D02*
X128540000Y-138544300D01*
X128540000Y-138544300D02*
X125615700Y-141468600D01*
X125548900Y-135128000D02*
X128602740Y-135128000D01*
X128602740Y-135128000D02*
X128628140Y-135102600D01*
X129893060Y-138544300D02*
X129893060Y-136367520D01*
X129893060Y-136367520D02*
X128628140Y-135102600D01*
X123548900Y-135128000D02*
X120749060Y-135128000D01*
X120749060Y-135128000D02*
X120660160Y-135039100D01*
X109851700Y-121081800D02*
X109851700Y-118325900D01*
X109851700Y-118325900D02*
X110982000Y-117195600D01*
X113032540Y-121196100D02*
X109966000Y-121196100D01*
X109966000Y-121196100D02*
X109851700Y-121081800D01*
X111061500Y-127206500D02*
X111223300Y-127206500D01*
X111223300Y-127206500D02*
X112547400Y-125882400D01*
X112547400Y-125882400D02*
X113891060Y-125882400D01*
X113891060Y-125882400D02*
X115376960Y-124396500D01*
X115376960Y-124396500D02*
X115376960Y-123454160D01*
X115376960Y-123454160D02*
X113118900Y-121196100D01*
X113118900Y-121196100D02*
X113032540Y-121196100D01*
X105079800Y-121091960D02*
X107841540Y-121091960D01*
X107841540Y-121091960D02*
X107851700Y-121081800D01*
X107851700Y-121081800D02*
X107851700Y-118563900D01*
X107851700Y-118563900D02*
X108982000Y-117433600D01*
X108982000Y-117433600D02*
X108982000Y-117195600D01*
X139861800Y-123037600D02*
X142452600Y-123037600D01*
X142452600Y-123037600D02*
X142519400Y-123104400D01*
X138795760Y-125971300D02*
X138795760Y-125884940D01*
X138795760Y-125884940D02*
X139861800Y-124818900D01*
X139861800Y-124818900D02*
X139861800Y-123037600D01*
X139861800Y-123037600D02*
X139861800Y-120950480D01*
X139861800Y-120950480D02*
X141190980Y-119621300D01*
X134757160Y-123075700D02*
X137823700Y-123075700D01*
X137823700Y-123075700D02*
X137861800Y-123037600D01*
X122598180Y-97040700D02*
X122598180Y-100160580D01*
X122598180Y-100160580D02*
X124228100Y-101790500D01*
X124333000Y-104929940D02*
X121347740Y-104929940D01*
X121347740Y-104929940D02*
X121081800Y-104664000D01*
X124228100Y-101790500D02*
X124228100Y-104825040D01*
X124228100Y-104825040D02*
X124333000Y-104929940D01*
X119237760Y-101981000D02*
X122037600Y-101981000D01*
X122037600Y-101981000D02*
X122228100Y-101790500D01*
X161655000Y-134620000D02*
X161655000Y-137476740D01*
X161655000Y-137476740D02*
X161549340Y-137582400D01*
X161549340Y-137582400D02*
X158711900Y-137582400D01*
X158787340Y-137657840D02*
X158711900Y-137582400D01*
X161655000Y-134620000D02*
X161655000Y-132744720D01*
X161655000Y-132744720D02*
X160139380Y-131229100D01*
X157083760Y-134543800D02*
X159578800Y-134543800D01*
X159578800Y-134543800D02*
X159655000Y-134620000D01*
X137550400Y-135128000D02*
X137550400Y-137750040D01*
X137550400Y-137750040D02*
X137312400Y-137988040D01*
X137312400Y-135366000D02*
X137550400Y-135128000D01*
X133819900Y-138293600D02*
X137006840Y-138293600D01*
X137006840Y-138293600D02*
X137312400Y-137988040D01*
X137550400Y-135128000D02*
X137550400Y-131474720D01*
X137550400Y-131474720D02*
X137038080Y-130962400D01*
X137883900Y-135461500D02*
X137550400Y-135128000D01*
X137871960Y-138293600D02*
X137883900Y-138305540D01*
X135550400Y-135128000D02*
X132255260Y-135128000D01*
X132255260Y-135128000D02*
X132229860Y-135102600D01*
X121815100Y-124447300D02*
X121815100Y-121145300D01*
X124968000Y-129225800D02*
X122670060Y-129225800D01*
X122670060Y-129225800D02*
X120926860Y-127482600D01*
X120926860Y-127482600D02*
X120926860Y-126380240D01*
X120926860Y-126380240D02*
X121815100Y-125492000D01*
X121815100Y-125492000D02*
X121815100Y-121145300D01*
X121815100Y-121145300D02*
X121653300Y-120983500D01*
X121653300Y-120983500D02*
X121653300Y-119024400D01*
X121653300Y-119024400D02*
X120972580Y-118343680D01*
X120972580Y-118343680D02*
X120972580Y-116903500D01*
X116634260Y-121196100D02*
X119764300Y-121196100D01*
X119764300Y-121196100D02*
X119815100Y-121145300D01*
X119815100Y-121145300D02*
X119815100Y-124447300D01*
D44*
X112792000Y-94738700D02*
X112792000Y-96647000D01*
X112814100Y-94716600D02*
X112792000Y-94738700D01*
X103035100Y-81546700D02*
X103035100Y-85966300D01*
X107010200Y-87757000D02*
X108432600Y-89179400D01*
X104825800Y-87757000D02*
X107010200Y-87757000D01*
X103035100Y-85966300D02*
X104825800Y-87757000D01*
D41*
X156141420Y-131229100D02*
X154190700Y-131229100D01*
X152933400Y-129971800D02*
X152882600Y-129971800D01*
X154190700Y-131229100D02*
X152933400Y-129971800D01*
X137193020Y-119621300D02*
X137193020Y-118193820D01*
X137193020Y-118193820D02*
X136182100Y-117182900D01*
X130784600Y-130962400D02*
X133040120Y-130962400D01*
X130149600Y-130327400D02*
X130784600Y-130962400D01*
X113766600Y-116903500D02*
X116974620Y-116903500D01*
X126123700Y-99984560D02*
X126123700Y-102590600D01*
X116179600Y-99402900D02*
X116179600Y-96647000D01*
X116065300Y-99517200D02*
X116179600Y-99402900D01*
X114792000Y-96647000D02*
X116179600Y-96647000D01*
X116179600Y-96647000D02*
X118206520Y-96647000D01*
X118206520Y-96647000D02*
X118600220Y-97040700D01*
X130314700Y-69910960D02*
X133004560Y-69910960D01*
X149631400Y-79235300D02*
X152603200Y-82207100D01*
X141757400Y-79235300D02*
X149631400Y-79235300D01*
X141706600Y-79184500D02*
X141757400Y-79235300D01*
X136080500Y-79184500D02*
X141706600Y-79184500D01*
X133553200Y-76657200D02*
X136080500Y-79184500D01*
X133553200Y-70459600D02*
X133553200Y-76657200D01*
X133004560Y-69910960D02*
X133553200Y-70459600D01*
D43*
X170726100Y-68389500D02*
X170726100Y-69926200D01*
X155257500Y-84747100D02*
X152603200Y-84747100D01*
X155575000Y-84429600D02*
X155257500Y-84747100D01*
X155575000Y-82765900D02*
X155575000Y-84429600D01*
X166509700Y-71831200D02*
X155575000Y-82765900D01*
X168821100Y-71831200D02*
X166509700Y-71831200D01*
X170726100Y-69926200D02*
X168821100Y-71831200D01*
X152603200Y-87287100D02*
X151257000Y-87287100D01*
X143992600Y-89230200D02*
X138442700Y-83680300D01*
X149313900Y-89230200D02*
X143992600Y-89230200D01*
X151257000Y-87287100D02*
X149313900Y-89230200D01*
X173266100Y-68389500D02*
X173266100Y-71716900D01*
X168973500Y-80352900D02*
X166725600Y-80352900D01*
X169621200Y-79705200D02*
X168973500Y-80352900D01*
X169621200Y-75361800D02*
X169621200Y-79705200D01*
X173266100Y-71716900D02*
X169621200Y-75361800D01*
X173266100Y-60769500D02*
X173266100Y-62280800D01*
X176593500Y-80352900D02*
X174345600Y-80352900D01*
X178041300Y-78905100D02*
X176593500Y-80352900D01*
X178041300Y-67322700D02*
X178041300Y-78905100D01*
X175945800Y-65227200D02*
X178041300Y-67322700D01*
X175945800Y-64960500D02*
X175945800Y-65227200D01*
X173266100Y-62280800D02*
X175945800Y-64960500D01*
D41*
X162293300Y-60769500D02*
X165646100Y-60769500D01*
X162229800Y-60833000D02*
X162293300Y-60769500D01*
X160909000Y-96723200D02*
X159537400Y-96723200D01*
X158546800Y-101295200D02*
X156363400Y-101295200D01*
X158584900Y-101257100D02*
X158546800Y-101295200D01*
X158584900Y-97675700D02*
X158584900Y-101257100D01*
X159537400Y-96723200D02*
X158584900Y-97675700D01*
D43*
X166674800Y-96507300D02*
X168757600Y-96507300D01*
X169087800Y-83083400D02*
X166916100Y-83083400D01*
X169710100Y-83705700D02*
X169087800Y-83083400D01*
X169710100Y-95554800D02*
X169710100Y-83705700D01*
X168757600Y-96507300D02*
X169710100Y-95554800D01*
X166916100Y-83083400D02*
X166725600Y-82892900D01*
X174345600Y-82892900D02*
X172250100Y-82892900D01*
X172288200Y-96507300D02*
X174294800Y-96507300D01*
X171742102Y-95961202D02*
X172288200Y-96507300D01*
X171742102Y-83400898D02*
X171742102Y-95961202D01*
X172250100Y-82892900D02*
X171742102Y-83400898D01*
D41*
X162166300Y-94322900D02*
X162166300Y-94488000D01*
X165265100Y-88633300D02*
X167309800Y-88633300D01*
X163753800Y-90144600D02*
X165265100Y-88633300D01*
X163753800Y-92900500D02*
X163753800Y-90144600D01*
X162166300Y-94488000D02*
X163753800Y-92900500D01*
X156363400Y-100025200D02*
X153949400Y-100025200D01*
X162534600Y-99263200D02*
X160909000Y-99263200D01*
X163398200Y-98399600D02*
X162534600Y-99263200D01*
X163398200Y-95275400D02*
X163398200Y-98399600D01*
X162445700Y-94322900D02*
X163398200Y-95275400D01*
X154165300Y-94322900D02*
X162166300Y-94322900D01*
X162166300Y-94322900D02*
X162445700Y-94322900D01*
X153949400Y-94107000D02*
X154165300Y-94322900D01*
X153949400Y-100025200D02*
X153949400Y-94107000D01*
D43*
X166674800Y-99047300D02*
X169227500Y-99047300D01*
X169379900Y-113258600D02*
X166878000Y-113258600D01*
X169760900Y-112877600D02*
X169379900Y-113258600D01*
X169760900Y-99580700D02*
X169760900Y-112877600D01*
X169227500Y-99047300D02*
X169760900Y-99580700D01*
X174294800Y-99047300D02*
X171856400Y-99047300D01*
X172097700Y-113258600D02*
X174498000Y-113258600D01*
X171881800Y-113042700D02*
X172097700Y-113258600D01*
X171881800Y-99072700D02*
X171881800Y-113042700D01*
X171856400Y-99047300D02*
X171881800Y-99072700D01*
D41*
X160909000Y-101803200D02*
X159829500Y-101803200D01*
X154000200Y-121920000D02*
X156896800Y-121920000D01*
X153060400Y-120980200D02*
X154000200Y-121920000D01*
X153060400Y-114096800D02*
X153060400Y-120980200D01*
X158369000Y-108788200D02*
X153060400Y-114096800D01*
X158369000Y-103263700D02*
X158369000Y-108788200D01*
X159829500Y-101803200D02*
X158369000Y-103263700D01*
X160909000Y-101803200D02*
X164566600Y-101803200D01*
X166128700Y-104940100D02*
X167589200Y-104940100D01*
X165074600Y-103886000D02*
X166128700Y-104940100D01*
X165074600Y-102311200D02*
X165074600Y-103886000D01*
X164566600Y-101803200D02*
X165074600Y-102311200D01*
D43*
X166878000Y-115798600D02*
X169252900Y-115798600D01*
X169151300Y-129527300D02*
X167055800Y-129527300D01*
X169646600Y-129032000D02*
X169151300Y-129527300D01*
X169646600Y-116192300D02*
X169646600Y-129032000D01*
X169252900Y-115798600D02*
X169646600Y-116192300D01*
X174498000Y-115798600D02*
X172237400Y-115798600D01*
X172161200Y-129527300D02*
X174675800Y-129527300D01*
X171831000Y-129197100D02*
X172161200Y-129527300D01*
X171831000Y-116205000D02*
X171831000Y-129197100D01*
X172237400Y-115798600D02*
X171831000Y-116205000D01*
D41*
X160909000Y-104343200D02*
X161785300Y-104343200D01*
X161785300Y-104343200D02*
X164846000Y-107403900D01*
X164846000Y-107403900D02*
X164846000Y-111925100D01*
X160909000Y-104343200D02*
X160020000Y-104343200D01*
X160020000Y-104343200D02*
X158927800Y-105435400D01*
X158927800Y-105435400D02*
X158927800Y-108947824D01*
X158927800Y-108947824D02*
X153619200Y-114256424D01*
X153619200Y-114256424D02*
X153619200Y-119748300D01*
X153619200Y-119748300D02*
X154520900Y-120650000D01*
X154520900Y-120650000D02*
X156896800Y-120650000D01*
X163677600Y-108534200D02*
X163677600Y-112941100D01*
X162026600Y-106883200D02*
X163677600Y-108534200D01*
X164960300Y-125387100D02*
X164960300Y-128295400D01*
X162026600Y-106883200D02*
X160909000Y-106883200D01*
X164960300Y-123494800D02*
X164960300Y-125387100D01*
X166357300Y-122097800D02*
X164960300Y-123494800D01*
X166357300Y-121208800D02*
X166357300Y-122097800D01*
X165125400Y-119976900D02*
X166357300Y-121208800D01*
X165125400Y-114388900D02*
X165125400Y-119976900D01*
X163677600Y-112941100D02*
X165125400Y-114388900D01*
X160909000Y-106883200D02*
X160274000Y-106883200D01*
X160274000Y-106883200D02*
X159486600Y-107670600D01*
X159486600Y-107670600D02*
X159486600Y-109107448D01*
X159486600Y-109107448D02*
X154127202Y-114466846D01*
X154127202Y-114466846D02*
X154127202Y-118643402D01*
X154127202Y-118643402D02*
X154863800Y-119380000D01*
X154863800Y-119380000D02*
X156896800Y-119380000D01*
X127800100Y-108531660D02*
X127800100Y-111887000D01*
X127800100Y-111887000D02*
X127139700Y-112547400D01*
X124612400Y-97894140D02*
X126123700Y-96382840D01*
X124612400Y-99237800D02*
X124612400Y-97894140D01*
X124333000Y-99517200D02*
X124612400Y-99237800D01*
X126123700Y-96382840D02*
X126123700Y-95834200D01*
D44*
X135902700Y-83680300D02*
X132537200Y-83680300D01*
X132537200Y-83680300D02*
X130644900Y-81788000D01*
X130644900Y-79248000D02*
X132816600Y-79248000D01*
X132816600Y-79248000D02*
X134708900Y-81140300D01*
X134708900Y-81140300D02*
X135902700Y-81140300D01*
D41*
X123024900Y-88950800D02*
X123024900Y-88163400D01*
X123024900Y-88163400D02*
X124434600Y-86753700D01*
X124434600Y-86753700D02*
X127101600Y-86753700D01*
X127101600Y-86753700D02*
X129044700Y-88696800D01*
X129044700Y-88696800D02*
X129044700Y-98488500D01*
X129044700Y-98488500D02*
X129120900Y-98564700D01*
X129120900Y-98564700D02*
X130340100Y-98564700D01*
X130340100Y-98564700D02*
X130784600Y-98120200D01*
X130784600Y-98120200D02*
X130784600Y-96799400D01*
X132092700Y-96799400D02*
X132092700Y-97917000D01*
X132778500Y-98602800D02*
X132892800Y-98602800D01*
X132092700Y-97917000D02*
X132778500Y-98602800D01*
X143967200Y-91160600D02*
X142392400Y-91160600D01*
X143979900Y-91173300D02*
X143967200Y-91160600D01*
X133388100Y-96799400D02*
X133388100Y-97612200D01*
X133388100Y-97612200D02*
X134340600Y-98564700D01*
X124777500Y-76161900D02*
X128297900Y-76161900D01*
X128297900Y-76161900D02*
X128971000Y-75488800D01*
X131432300Y-91211400D02*
X131432300Y-90055700D01*
X124688600Y-83312000D02*
X124688600Y-80645000D01*
X131432300Y-90055700D02*
X124688600Y-83312000D01*
D42*
X131761500Y-111975900D02*
X133459220Y-111975900D01*
X133459220Y-111975900D02*
X133537960Y-112054640D01*
X151428450Y-101365050D02*
X151428450Y-101174550D01*
X148285200Y-97485200D02*
X146963400Y-97485200D01*
X148412200Y-97358200D02*
X148285200Y-97485200D01*
X148412200Y-97002600D02*
X148412200Y-97358200D01*
X149834600Y-95580200D02*
X148412200Y-97002600D01*
X150672800Y-95580200D02*
X149834600Y-95580200D01*
X151866600Y-96774000D02*
X150672800Y-95580200D01*
X151866600Y-100736400D02*
X151866600Y-96774000D01*
X151428450Y-101174550D02*
X151866600Y-100736400D01*
X162877500Y-124548900D02*
X162877500Y-124015500D01*
X166598600Y-142570200D02*
X165354000Y-141325600D01*
X165354000Y-141325600D02*
X165354000Y-135115300D01*
X165354000Y-135115300D02*
X163957000Y-133718300D01*
X163957000Y-133718300D02*
X163957000Y-125666500D01*
X163957000Y-125666500D02*
X162877500Y-124587000D01*
X162877500Y-124587000D02*
X162877500Y-124548900D01*
X166598600Y-144602200D02*
X166598600Y-142570200D01*
X155714700Y-108966000D02*
X149313900Y-108966000D01*
X156057600Y-109308900D02*
X155714700Y-108966000D01*
X162877500Y-124015500D02*
X161505900Y-122643900D01*
X147496800Y-123190000D02*
X146024600Y-123190000D01*
X150291800Y-115570000D02*
X147496800Y-115570000D01*
X150368000Y-115493800D02*
X150291800Y-115570000D01*
X144500600Y-118567200D02*
X145262600Y-117805200D01*
X144500600Y-121666000D02*
X144500600Y-118567200D01*
X146024600Y-123190000D02*
X144500600Y-121666000D01*
X166598600Y-144602200D02*
X166598600Y-144589500D01*
X165074600Y-144589500D02*
X166598600Y-144589500D01*
X166598600Y-144589500D02*
X166611300Y-144589500D01*
X162991800Y-146672300D02*
X165074600Y-144589500D01*
X152285700Y-146672300D02*
X162991800Y-146672300D01*
X133769100Y-104355900D02*
X131761500Y-104355900D01*
X134188200Y-103936800D02*
X133769100Y-104355900D01*
X134188200Y-103708200D02*
X134188200Y-103936800D01*
X134531100Y-103365300D02*
X134188200Y-103708200D01*
X149009100Y-104597200D02*
X148501100Y-105105200D01*
X149009100Y-103784400D02*
X149009100Y-104597200D01*
X151485600Y-101307900D02*
X151428450Y-101365050D01*
X151428450Y-101365050D02*
X149009100Y-103784400D01*
X148501100Y-105105200D02*
X146963400Y-105105200D01*
X135343900Y-88709500D02*
X135382000Y-92557600D01*
X135343900Y-88709500D02*
X135305800Y-88671400D01*
D41*
X146963400Y-105105200D02*
X148501100Y-105105200D01*
D42*
X148920200Y-115570000D02*
X147496800Y-115570000D01*
X149313900Y-108966000D02*
X149313900Y-115176300D01*
X149313900Y-115176300D02*
X148920200Y-115570000D01*
X149313900Y-105918000D02*
X149313900Y-108966000D01*
X148501100Y-105105200D02*
X149313900Y-105918000D01*
X142405100Y-96748600D02*
X142405100Y-94780100D01*
X142405100Y-94780100D02*
X142595600Y-94589600D01*
X135077200Y-96799400D02*
X134035800Y-96799400D01*
X135178800Y-96901000D02*
X135077200Y-96799400D01*
D41*
X134035800Y-96799400D02*
X134035800Y-97053400D01*
D42*
X142405100Y-96748600D02*
X142925800Y-96748600D01*
X143662400Y-97485200D02*
X146963400Y-97485200D01*
X142925800Y-96748600D02*
X143662400Y-97485200D01*
D41*
X150228300Y-93116400D02*
X150710900Y-93599000D01*
X150710900Y-93599000D02*
X150812500Y-93599000D01*
X158838900Y-111963200D02*
X157975300Y-112826800D01*
X160909000Y-111963200D02*
X158838900Y-111963200D01*
X153162000Y-95948500D02*
X150812500Y-93599000D01*
X153162000Y-101752400D02*
X153162000Y-95948500D01*
X153835100Y-102425500D02*
X153162000Y-101752400D01*
X150812500Y-93599000D02*
X150253700Y-93040200D01*
X140462000Y-91160600D02*
X140462000Y-89941400D01*
X140462000Y-89941400D02*
X140169900Y-89649300D01*
X140169900Y-89649300D02*
X139293600Y-89649300D01*
X118186200Y-81076800D02*
X116456500Y-81076800D01*
X118300500Y-81191100D02*
X118186200Y-81076800D01*
X116456500Y-81076800D02*
X116456500Y-77251600D01*
X115836700Y-76631800D02*
X114635300Y-76631800D01*
X116456500Y-77251600D02*
X115836700Y-76631800D01*
X130871000Y-75488800D02*
X130871000Y-74373700D01*
X131267200Y-73977500D02*
X131267200Y-72024240D01*
X130871000Y-74373700D02*
X131267200Y-73977500D01*
D43*
X135400000Y-65050000D02*
X135400000Y-63939200D01*
X135436800Y-63976000D02*
X138582400Y-63976000D01*
X135400000Y-63939200D02*
X135436800Y-63976000D01*
D41*
X136747250Y-92563950D02*
X136747250Y-92576650D01*
X130784600Y-92316300D02*
X130784600Y-91211400D01*
X132715000Y-94246700D02*
X130784600Y-92316300D01*
X135077200Y-94246700D02*
X132715000Y-94246700D01*
X136747250Y-92576650D02*
X135077200Y-94246700D01*
X138341100Y-88811100D02*
X138264900Y-88811100D01*
X141097000Y-89814400D02*
X140093700Y-88811100D01*
X140093700Y-88811100D02*
X138341100Y-88811100D01*
X141097000Y-89814400D02*
X141097000Y-91160600D01*
X137388600Y-91922600D02*
X136747250Y-92563950D01*
X136747250Y-92563950D02*
X136728200Y-92583000D01*
X137388600Y-89687400D02*
X137388600Y-91922600D01*
X138264900Y-88811100D02*
X137388600Y-89687400D01*
X139801600Y-91160600D02*
X139801600Y-92557600D01*
X130136900Y-95300800D02*
X130136900Y-96799400D01*
X130644900Y-94792800D02*
X130136900Y-95300800D01*
X139674600Y-94792800D02*
X130644900Y-94792800D01*
X140398500Y-94068900D02*
X139674600Y-94792800D01*
X140398500Y-93154500D02*
X140398500Y-94068900D01*
X139801600Y-92557600D02*
X140398500Y-93154500D01*
X139153900Y-96748600D02*
X139153900Y-98767900D01*
X131432300Y-98691700D02*
X131432300Y-96799400D01*
X132207000Y-99466400D02*
X131432300Y-98691700D01*
X138455400Y-99466400D02*
X132207000Y-99466400D01*
X139153900Y-98767900D02*
X138455400Y-99466400D01*
X140462000Y-96748600D02*
X140462000Y-95478600D01*
X132740400Y-95808800D02*
X132740400Y-96799400D01*
X133096000Y-95453200D02*
X132740400Y-95808800D01*
X140436600Y-95453200D02*
X133096000Y-95453200D01*
X140462000Y-95478600D02*
X140436600Y-95453200D01*
X141757400Y-91160600D02*
X141757400Y-96748600D01*
X145087340Y-108816140D02*
X145087340Y-108323380D01*
X145125440Y-101539040D02*
X145072100Y-101539040D01*
X145072100Y-101592380D02*
X145125440Y-101539040D01*
X145072100Y-102466140D02*
X145072100Y-101592380D01*
X144896840Y-102641400D02*
X145072100Y-102466140D01*
X145087340Y-108323380D02*
X144932400Y-108168440D01*
X145072100Y-101688900D02*
X138074400Y-101688900D01*
X145072100Y-101688900D02*
X145072100Y-101539040D01*
X138074400Y-101688900D02*
X134378700Y-105384600D01*
X134378700Y-105384600D02*
X134340600Y-105384600D01*
X134340600Y-105384600D02*
X134099300Y-105625900D01*
X134099300Y-105625900D02*
X131761500Y-105625900D01*
X145332450Y-116414550D02*
X145332450Y-113785650D01*
X145072100Y-101539040D02*
X145072100Y-98844100D01*
X145275300Y-109004100D02*
X145087340Y-108816140D01*
X145087340Y-108816140D02*
X145072100Y-108800900D01*
X146913600Y-109004100D02*
X145275300Y-109004100D01*
X147027900Y-109118400D02*
X146913600Y-109004100D01*
X147027900Y-112090200D02*
X147027900Y-109118400D01*
X145332450Y-113785650D02*
X147027900Y-112090200D01*
X139153900Y-91160600D02*
X139153900Y-93459300D01*
X139153900Y-93459300D02*
X139090400Y-93522800D01*
X145757900Y-116840000D02*
X147496800Y-116840000D01*
X145313400Y-116395500D02*
X145332450Y-116414550D01*
X145332450Y-116414550D02*
X145757900Y-116840000D01*
X145072100Y-98844100D02*
X145313400Y-99085400D01*
X145427700Y-111975900D02*
X141161500Y-111975900D01*
X145503900Y-112052100D02*
X145427700Y-111975900D01*
X138506200Y-96748600D02*
X138506200Y-97967800D01*
X151663400Y-103098600D02*
X151663400Y-105168700D01*
X152577800Y-102184200D02*
X151663400Y-103098600D01*
X152577800Y-96570800D02*
X152577800Y-102184200D01*
X150876000Y-94869000D02*
X152577800Y-96570800D01*
X144729200Y-94869000D02*
X150876000Y-94869000D01*
X144145000Y-95453200D02*
X144729200Y-94869000D01*
X138506200Y-97967800D02*
X138049000Y-98425000D01*
X156896800Y-123190000D02*
X151676100Y-123190000D01*
X151726900Y-105105200D02*
X156363400Y-105105200D01*
X151663400Y-105168700D02*
X151726900Y-105105200D01*
X151676100Y-123190000D02*
X151599900Y-123266200D01*
X151599900Y-125615700D02*
X154000200Y-128016000D01*
X154000200Y-128016000D02*
X154000200Y-129184400D01*
X151599900Y-123266200D02*
X151599900Y-125615700D01*
X139801600Y-96748600D02*
X139801600Y-99415600D01*
X143687800Y-100025200D02*
X143713200Y-100050600D01*
X140411200Y-100025200D02*
X143687800Y-100025200D01*
X139801600Y-99415600D02*
X140411200Y-100025200D01*
X156363400Y-106375200D02*
X153416000Y-106375200D01*
X153428700Y-124460000D02*
X156896800Y-124460000D01*
X153390600Y-124498100D02*
X153428700Y-124460000D01*
X153416000Y-106375200D02*
X153339800Y-106451400D01*
X141109700Y-96748600D02*
X141109700Y-97523300D01*
X141109700Y-97523300D02*
X142494000Y-98907600D01*
X151358600Y-132207000D02*
X151307800Y-132156200D01*
X151307800Y-132156200D02*
X151307800Y-129946400D01*
X151307800Y-129946400D02*
X149606000Y-128244600D01*
X149606000Y-128244600D02*
X146761200Y-128244600D01*
X146761200Y-128244600D02*
X145110200Y-126593600D01*
X145110200Y-126593600D02*
X145110200Y-123926600D01*
X143865600Y-113157000D02*
X143776700Y-113245900D01*
X143776700Y-113245900D02*
X141161500Y-113245900D01*
X156896800Y-116840000D02*
X159029400Y-116840000D01*
X149631400Y-98755200D02*
X146963400Y-98755200D01*
X149644100Y-98742500D02*
X149631400Y-98755200D01*
X159029400Y-116840000D02*
X159143700Y-116954300D01*
X163055300Y-135458200D02*
X163055300Y-136512300D01*
X163055300Y-135458200D02*
X163055300Y-126339600D01*
X164503100Y-143065500D02*
X164744400Y-143306800D01*
X164503100Y-137439400D02*
X164503100Y-143065500D01*
X164007800Y-136944100D02*
X164503100Y-137439400D01*
X163487100Y-136944100D02*
X164007800Y-136944100D01*
X163055300Y-136512300D02*
X163487100Y-136944100D01*
X154901900Y-109918500D02*
X150533100Y-109918500D01*
X143306800Y-105625900D02*
X141161500Y-105625900D01*
X143484600Y-105803700D02*
X143306800Y-105625900D01*
X143484600Y-108470700D02*
X143484600Y-105803700D01*
X145084800Y-110070900D02*
X143484600Y-108470700D01*
X150533100Y-109918500D02*
X150418800Y-110032800D01*
X154965400Y-109855000D02*
X155016200Y-109855000D01*
X154901900Y-109918500D02*
X154965400Y-109855000D01*
X160909000Y-109423200D02*
X159889272Y-109423200D01*
X154889200Y-118110000D02*
X156896800Y-118110000D01*
X154736800Y-117957600D02*
X154889200Y-118110000D01*
X154736800Y-114575672D02*
X154736800Y-117957600D01*
X159889272Y-109423200D02*
X154736800Y-114575672D01*
X180657500Y-139255500D02*
X182968900Y-141566900D01*
X170091100Y-139255500D02*
X180657500Y-139255500D01*
X169202100Y-140144500D02*
X170091100Y-139255500D01*
X181267100Y-146405600D02*
X182968900Y-144703800D01*
X171665900Y-146405600D02*
X181267100Y-146405600D01*
X170040300Y-144780000D02*
X171665900Y-146405600D01*
X170040300Y-142659100D02*
X170040300Y-144780000D01*
X166357300Y-138976100D02*
X170040300Y-142659100D01*
X182968900Y-144703800D02*
X182968900Y-144106900D01*
X168516300Y-138404600D02*
X177533300Y-138404600D01*
X168109900Y-138811000D02*
X168516300Y-138404600D01*
X148818600Y-118110000D02*
X149618700Y-117309900D01*
X147496800Y-118110000D02*
X148818600Y-118110000D01*
X149517100Y-119380000D02*
X147496800Y-119380000D01*
X149618700Y-119481600D02*
X149517100Y-119380000D01*
X147496800Y-120650000D02*
X145440400Y-120650000D01*
X145440400Y-120650000D02*
X145427700Y-120662700D01*
X114635300Y-74091800D02*
X114635300Y-72664300D01*
X114642900Y-72656700D02*
X114681000Y-72656700D01*
X114635300Y-72664300D02*
X114642900Y-72656700D01*
X114635300Y-74091800D02*
X114635300Y-75361800D01*
X120035300Y-75361800D02*
X118910100Y-75361800D01*
X118275100Y-76631800D02*
X120035300Y-76631800D01*
X118224300Y-76581000D02*
X118275100Y-76631800D01*
X118224300Y-76047600D02*
X118224300Y-76581000D01*
X118910100Y-75361800D02*
X118224300Y-76047600D01*
M02*
