%FSLAX46Y46*%
G04 Gerber Fmt 4.6, Leading zero omitted, Abs format (unit mm)*
G04 Created by KiCad (PCBNEW (2014-10-27 BZR 5228)-product) date 07/01/2015 12:37:54*
%MOMM*%
G01*
G04 APERTURE LIST*
%ADD10C,0.100000*%
%ADD11R,1.651000X1.651000*%
%ADD12C,1.651000*%
%ADD13C,1.998980*%
%ADD14R,2.032000X2.032000*%
%ADD15O,2.032000X2.032000*%
%ADD16R,1.727200X1.727200*%
%ADD17O,1.727200X1.727200*%
%ADD18R,2.235200X2.235200*%
%ADD19R,2.032000X1.727200*%
%ADD20O,2.032000X1.727200*%
%ADD21O,1.699260X3.500120*%
%ADD22C,1.524000*%
%ADD23C,2.540000*%
%ADD24C,1.727200*%
%ADD25R,1.397000X1.397000*%
%ADD26C,1.397000*%
G04 APERTURE END LIST*
D10*
D11*
X105700000Y-78470000D03*
D12*
X105700000Y-75930000D03*
D11*
X164730000Y-54500000D03*
D12*
X167270000Y-54500000D03*
D13*
X164700000Y-76801260D03*
X164700000Y-66641260D03*
X132804000Y-85592000D03*
X132804000Y-80004000D03*
X118704000Y-85692000D03*
X118704000Y-80104000D03*
X185992000Y-64196000D03*
X180404000Y-64196000D03*
X186192000Y-84096000D03*
X180604000Y-84096000D03*
X186392000Y-103296000D03*
X180804000Y-103296000D03*
X186292000Y-139396000D03*
X180704000Y-139396000D03*
X186592000Y-122296000D03*
X181004000Y-122296000D03*
X196292000Y-64196000D03*
X190704000Y-64196000D03*
X196392000Y-83796000D03*
X190804000Y-83796000D03*
X196692000Y-103296000D03*
X191104000Y-103296000D03*
X196492000Y-139296000D03*
X190904000Y-139296000D03*
X196792000Y-122396000D03*
X191204000Y-122396000D03*
D14*
X103330000Y-88100000D03*
D15*
X105870000Y-88100000D03*
D14*
X103330000Y-92000000D03*
D15*
X105870000Y-92000000D03*
D16*
X131870000Y-103850000D03*
D17*
X129330000Y-103850000D03*
X131870000Y-101310000D03*
X129330000Y-101310000D03*
X131870000Y-98770000D03*
X129330000Y-98770000D03*
X131870000Y-96230000D03*
X129330000Y-96230000D03*
X131870000Y-93690000D03*
X129330000Y-93690000D03*
X131870000Y-91150000D03*
X129330000Y-91150000D03*
D14*
X102600000Y-58670000D03*
D15*
X102600000Y-56130000D03*
D14*
X105371900Y-120281700D03*
D15*
X102831900Y-120281700D03*
D18*
X142800000Y-69400000D03*
D19*
X102500000Y-69810000D03*
D20*
X102500000Y-67270000D03*
X102500000Y-64730000D03*
X102500000Y-62190000D03*
D21*
X130200000Y-55900000D03*
X132740000Y-55900000D03*
X127660000Y-55900000D03*
D13*
X111351060Y-107569000D03*
X106349800Y-107569000D03*
X117414040Y-107569000D03*
X122415300Y-107569000D03*
D16*
X105770000Y-98470000D03*
D17*
X105770000Y-95930000D03*
X103230000Y-98470000D03*
X103230000Y-95930000D03*
D22*
X116200000Y-68360000D03*
X116200000Y-65820000D03*
X116200000Y-70900000D03*
D16*
X163144200Y-133781800D03*
D17*
X160604200Y-133781800D03*
X163144200Y-131241800D03*
X160604200Y-131241800D03*
X163144200Y-128701800D03*
X160604200Y-128701800D03*
X163144200Y-126161800D03*
X160604200Y-126161800D03*
X163144200Y-123621800D03*
X160604200Y-123621800D03*
D19*
X162788600Y-88798400D03*
D20*
X162788600Y-91338400D03*
X162788600Y-93878400D03*
X162788600Y-96418400D03*
X162788600Y-98958400D03*
X162788600Y-101498400D03*
X162788600Y-104038400D03*
X162788600Y-106578400D03*
D23*
X137900000Y-53300000D03*
D24*
X137900000Y-57300000D03*
D23*
X137900000Y-61300000D03*
D24*
X137900000Y-65300000D03*
D25*
X122580000Y-90690000D03*
D26*
X120040000Y-90690000D03*
X117500000Y-90690000D03*
X114960000Y-90690000D03*
X112420000Y-90690000D03*
X112420000Y-98310000D03*
X114960000Y-98310000D03*
X117500000Y-98310000D03*
X120040000Y-98310000D03*
X122580000Y-98310000D03*
D25*
X176410000Y-69980000D03*
D26*
X176410000Y-67440000D03*
X176410000Y-64900000D03*
X176410000Y-62360000D03*
X176410000Y-59820000D03*
X168790000Y-59820000D03*
X168790000Y-62360000D03*
X168790000Y-64900000D03*
X168790000Y-67440000D03*
X168790000Y-69980000D03*
D25*
X176310000Y-88280000D03*
D26*
X176310000Y-85740000D03*
X176310000Y-83200000D03*
X176310000Y-80660000D03*
X176310000Y-78120000D03*
X168690000Y-78120000D03*
X168690000Y-80660000D03*
X168690000Y-83200000D03*
X168690000Y-85740000D03*
X168690000Y-88280000D03*
D25*
X176410000Y-107480000D03*
D26*
X176410000Y-104940000D03*
X176410000Y-102400000D03*
X176410000Y-99860000D03*
X176410000Y-97320000D03*
X168790000Y-97320000D03*
X168790000Y-99860000D03*
X168790000Y-102400000D03*
X168790000Y-104940000D03*
X168790000Y-107480000D03*
D25*
X176510000Y-125480000D03*
D26*
X176510000Y-122940000D03*
X176510000Y-120400000D03*
X176510000Y-117860000D03*
X176510000Y-115320000D03*
X168890000Y-115320000D03*
X168890000Y-117860000D03*
X168890000Y-120400000D03*
X168890000Y-122940000D03*
X168890000Y-125480000D03*
D25*
X176810000Y-143780000D03*
D26*
X176810000Y-141240000D03*
X176810000Y-138700000D03*
X176810000Y-136160000D03*
X176810000Y-133620000D03*
X169190000Y-133620000D03*
X169190000Y-136160000D03*
X169190000Y-138700000D03*
X169190000Y-141240000D03*
X169190000Y-143780000D03*
M02*
