%FSLAX46Y46*%
G04 Gerber Fmt 4.6, Leading zero omitted, Abs format (unit mm)*
G04 Created by KiCad (PCBNEW (2014-10-27 BZR 5228)-product) date 10/01/2015 12:02:04*
%MOMM*%
G01*
G04 APERTURE LIST*
%ADD10C,0.100000*%
%ADD11R,1.800860X2.499360*%
%ADD12R,2.499360X1.800860*%
%ADD13C,1.998980*%
%ADD14R,2.032000X2.032000*%
%ADD15O,2.032000X2.032000*%
%ADD16R,1.727200X1.727200*%
%ADD17O,1.727200X1.727200*%
%ADD18R,2.235200X2.235200*%
%ADD19R,2.032000X1.727200*%
%ADD20O,2.032000X1.727200*%
%ADD21R,0.599440X1.000760*%
%ADD22O,1.699260X3.500120*%
%ADD23R,0.299720X1.300480*%
%ADD24R,1.950000X0.600000*%
%ADD25C,1.524000*%
%ADD26R,1.550000X0.600000*%
%ADD27C,2.540000*%
%ADD28C,1.727200*%
%ADD29R,1.397000X1.397000*%
%ADD30C,1.397000*%
%ADD31R,1.250000X1.000000*%
%ADD32R,1.000000X1.250000*%
%ADD33R,1.198880X1.600200*%
%ADD34R,1.600200X1.198880*%
%ADD35R,0.700000X1.300000*%
%ADD36R,1.300000X0.700000*%
%ADD37R,2.700020X2.550160*%
%ADD38C,6.350000*%
G04 APERTURE END LIST*
D10*
D11*
X109651800Y-94470220D03*
X109651800Y-98468180D03*
D12*
X147528280Y-131191000D03*
X143530320Y-131191000D03*
X121302780Y-131838700D03*
X117304820Y-131838700D03*
D11*
X105765600Y-138346180D03*
X105765600Y-134348220D03*
D12*
X130472180Y-119900700D03*
X126474220Y-119900700D03*
X137193020Y-119621300D03*
X141190980Y-119621300D03*
X118600220Y-97040700D03*
X122598180Y-97040700D03*
X156141420Y-131229100D03*
X160139380Y-131229100D03*
X133040120Y-130962400D03*
X137038080Y-130962400D03*
X116974620Y-116903500D03*
X120972580Y-116903500D03*
D13*
X160375600Y-54917340D03*
X160375600Y-65077340D03*
X142392400Y-77228700D03*
X142392400Y-71640700D03*
X156197300Y-77292200D03*
X156197300Y-71704200D03*
X185992000Y-64196000D03*
X180404000Y-64196000D03*
X185938000Y-79765300D03*
X180350000Y-79765300D03*
X185896700Y-96755500D03*
X180308700Y-96755500D03*
X185784000Y-129363000D03*
X180196000Y-129363000D03*
X185830000Y-113152000D03*
X180242000Y-113152000D03*
X196292000Y-64196000D03*
X190704000Y-64196000D03*
X196138000Y-79465300D03*
X190550000Y-79465300D03*
X196196700Y-96755500D03*
X190608700Y-96755500D03*
X195984000Y-129263000D03*
X190396000Y-129263000D03*
X196030000Y-113252000D03*
X190442000Y-113252000D03*
D14*
X130644900Y-81788000D03*
D15*
X130644900Y-79248000D03*
D14*
X124307600Y-70446900D03*
D15*
X126847600Y-70446900D03*
D16*
X125564900Y-88950800D03*
D17*
X125564900Y-91490800D03*
X123024900Y-88950800D03*
X123024900Y-91490800D03*
X120484900Y-88950800D03*
X120484900Y-91490800D03*
X117944900Y-88950800D03*
X117944900Y-91490800D03*
X115404900Y-88950800D03*
X115404900Y-91490800D03*
X112864900Y-88950800D03*
X112864900Y-91490800D03*
D14*
X107391200Y-69227700D03*
D15*
X109931200Y-69227700D03*
D14*
X103035100Y-81546700D03*
D15*
X103035100Y-79006700D03*
D18*
X124777500Y-76161900D03*
D19*
X103136700Y-60198000D03*
D20*
X103136700Y-62738000D03*
X103136700Y-65278000D03*
X103136700Y-67818000D03*
D21*
X129362200Y-72024240D03*
X130314700Y-69910960D03*
X131267200Y-72024240D03*
D22*
X130200000Y-55900000D03*
X132740000Y-55900000D03*
X127660000Y-55900000D03*
D13*
X122138440Y-112547400D03*
X127139700Y-112547400D03*
X106172000Y-90002360D03*
X106172000Y-85001100D03*
D16*
X135902700Y-81140300D03*
D17*
X135902700Y-83680300D03*
X138442700Y-81140300D03*
X138442700Y-83680300D03*
D23*
X134023100Y-91211400D03*
X133388100Y-91211400D03*
X132727700Y-91211400D03*
X132092700Y-91211400D03*
X131432300Y-91211400D03*
X130784600Y-91211400D03*
X130136900Y-91211400D03*
X130136900Y-96799400D03*
X130784600Y-96799400D03*
X131432300Y-96799400D03*
X132092700Y-96799400D03*
X132740400Y-96799400D03*
X133388100Y-96799400D03*
X134035800Y-96799400D03*
X142392400Y-91160600D03*
X141757400Y-91160600D03*
X141097000Y-91160600D03*
X140462000Y-91160600D03*
X139801600Y-91160600D03*
X139153900Y-91160600D03*
X138506200Y-91160600D03*
X138506200Y-96748600D03*
X139153900Y-96748600D03*
X139801600Y-96748600D03*
X140462000Y-96748600D03*
X141109700Y-96748600D03*
X141757400Y-96748600D03*
X142405100Y-96748600D03*
D24*
X147496800Y-114300000D03*
X147496800Y-115570000D03*
X147496800Y-116840000D03*
X147496800Y-118110000D03*
X147496800Y-119380000D03*
X147496800Y-120650000D03*
X147496800Y-121920000D03*
X147496800Y-123190000D03*
X147496800Y-124460000D03*
X147496800Y-125730000D03*
X156896800Y-125730000D03*
X156896800Y-124460000D03*
X156896800Y-123190000D03*
X156896800Y-121920000D03*
X156896800Y-120650000D03*
X156896800Y-119380000D03*
X156896800Y-118110000D03*
X156896800Y-116840000D03*
X156896800Y-115570000D03*
X156896800Y-114300000D03*
X146963400Y-96215200D03*
X146963400Y-97485200D03*
X146963400Y-98755200D03*
X146963400Y-100025200D03*
X146963400Y-101295200D03*
X146963400Y-102565200D03*
X146963400Y-103835200D03*
X146963400Y-105105200D03*
X146963400Y-106375200D03*
X146963400Y-107645200D03*
X156363400Y-107645200D03*
X156363400Y-106375200D03*
X156363400Y-105105200D03*
X156363400Y-103835200D03*
X156363400Y-102565200D03*
X156363400Y-101295200D03*
X156363400Y-100025200D03*
X156363400Y-98755200D03*
X156363400Y-97485200D03*
X156363400Y-96215200D03*
X131761500Y-103085900D03*
X131761500Y-104355900D03*
X131761500Y-105625900D03*
X131761500Y-106895900D03*
X131761500Y-108165900D03*
X131761500Y-109435900D03*
X131761500Y-110705900D03*
X131761500Y-111975900D03*
X131761500Y-113245900D03*
X131761500Y-114515900D03*
X141161500Y-114515900D03*
X141161500Y-113245900D03*
X141161500Y-111975900D03*
X141161500Y-110705900D03*
X141161500Y-109435900D03*
X141161500Y-108165900D03*
X141161500Y-106895900D03*
X141161500Y-105625900D03*
X141161500Y-104355900D03*
X141161500Y-103085900D03*
D25*
X117170200Y-64668400D03*
X117170200Y-62128400D03*
X117170200Y-67208400D03*
D16*
X182968900Y-141566900D03*
D17*
X182968900Y-144106900D03*
X180428900Y-141566900D03*
X180428900Y-144106900D03*
X177888900Y-141566900D03*
X177888900Y-144106900D03*
X175348900Y-141566900D03*
X175348900Y-144106900D03*
X172808900Y-141566900D03*
X172808900Y-144106900D03*
D19*
X160909000Y-96723200D03*
D20*
X160909000Y-99263200D03*
X160909000Y-101803200D03*
X160909000Y-104343200D03*
X160909000Y-106883200D03*
X160909000Y-109423200D03*
X160909000Y-111963200D03*
X160909000Y-114503200D03*
D26*
X114635300Y-74091800D03*
X114635300Y-75361800D03*
X114635300Y-76631800D03*
X114635300Y-77901800D03*
X120035300Y-77901800D03*
X120035300Y-76631800D03*
X120035300Y-75361800D03*
X120035300Y-74091800D03*
D27*
X138582400Y-55976000D03*
D28*
X138582400Y-59976000D03*
D27*
X138582400Y-63976000D03*
D28*
X138582400Y-67976000D03*
D29*
X152603200Y-82207100D03*
D30*
X152603200Y-84747100D03*
X152603200Y-87287100D03*
X152603200Y-89827100D03*
X152603200Y-92367100D03*
X160223200Y-92367100D03*
X160223200Y-89827100D03*
X160223200Y-87287100D03*
X160223200Y-84747100D03*
X160223200Y-82207100D03*
D29*
X165646100Y-68389500D03*
D30*
X168186100Y-68389500D03*
X170726100Y-68389500D03*
X173266100Y-68389500D03*
X175806100Y-68389500D03*
X175806100Y-60769500D03*
X173266100Y-60769500D03*
X170726100Y-60769500D03*
X168186100Y-60769500D03*
X165646100Y-60769500D03*
D29*
X166725600Y-75272900D03*
D30*
X166725600Y-77812900D03*
X166725600Y-80352900D03*
X166725600Y-82892900D03*
X166725600Y-85432900D03*
X174345600Y-85432900D03*
X174345600Y-82892900D03*
X174345600Y-80352900D03*
X174345600Y-77812900D03*
X174345600Y-75272900D03*
D29*
X166674800Y-91427300D03*
D30*
X166674800Y-93967300D03*
X166674800Y-96507300D03*
X166674800Y-99047300D03*
X166674800Y-101587300D03*
X174294800Y-101587300D03*
X174294800Y-99047300D03*
X174294800Y-96507300D03*
X174294800Y-93967300D03*
X174294800Y-91427300D03*
D29*
X166878000Y-108178600D03*
D30*
X166878000Y-110718600D03*
X166878000Y-113258600D03*
X166878000Y-115798600D03*
X166878000Y-118338600D03*
X174498000Y-118338600D03*
X174498000Y-115798600D03*
X174498000Y-113258600D03*
X174498000Y-110718600D03*
X174498000Y-108178600D03*
D29*
X167055800Y-124447300D03*
D30*
X167055800Y-126987300D03*
X167055800Y-129527300D03*
X167055800Y-132067300D03*
X167055800Y-134607300D03*
X174675800Y-134607300D03*
X174675800Y-132067300D03*
X174675800Y-129527300D03*
X174675800Y-126987300D03*
X174675800Y-124447300D03*
D31*
X121196100Y-68227700D03*
X121196100Y-70227700D03*
D32*
X114671600Y-83769200D03*
X116671600Y-83769200D03*
X125904500Y-66675000D03*
X123904500Y-66675000D03*
X120704100Y-83769200D03*
X122704100Y-83769200D03*
D31*
X118567200Y-108143800D03*
X118567200Y-110143800D03*
X155587700Y-140478000D03*
X155587700Y-142478000D03*
X129882900Y-141621000D03*
X129882900Y-143621000D03*
X113728500Y-127206500D03*
X113728500Y-129206500D03*
X131470400Y-126114300D03*
X131470400Y-128114300D03*
D32*
X108308900Y-105575100D03*
X110308900Y-105575100D03*
X145939000Y-138049000D03*
X147939000Y-138049000D03*
X120081800Y-138658600D03*
X122081800Y-138658600D03*
X106670600Y-124320300D03*
X108670600Y-124320300D03*
D31*
X133870700Y-120341900D03*
X133870700Y-118341900D03*
D32*
X112988600Y-101904800D03*
X110988600Y-101904800D03*
X151177500Y-134581900D03*
X149177500Y-134581900D03*
X125548900Y-135128000D03*
X123548900Y-135128000D03*
X109851700Y-121081800D03*
X107851700Y-121081800D03*
X139861800Y-123037600D03*
X137861800Y-123037600D03*
D31*
X128231900Y-125923800D03*
X128231900Y-127923800D03*
X113538000Y-107966000D03*
X113538000Y-109966000D03*
X151587200Y-140401800D03*
X151587200Y-142401800D03*
X125628400Y-141519400D03*
X125628400Y-143519400D03*
X111061500Y-127206500D03*
X111061500Y-129206500D03*
X142519400Y-123104400D03*
X142519400Y-125104400D03*
D32*
X124228100Y-101790500D03*
X122228100Y-101790500D03*
X161655000Y-134620000D03*
X159655000Y-134620000D03*
X137550400Y-135128000D03*
X135550400Y-135128000D03*
X121815100Y-121145300D03*
X119815100Y-121145300D03*
D31*
X108686600Y-107953300D03*
X108686600Y-109953300D03*
X147205700Y-140439900D03*
X147205700Y-142439900D03*
X121119900Y-141544800D03*
X121119900Y-143544800D03*
X108051600Y-127168400D03*
X108051600Y-129168400D03*
X121081800Y-104664000D03*
X121081800Y-106664000D03*
X158711900Y-137582400D03*
X158711900Y-139582400D03*
X133819900Y-138293600D03*
X133819900Y-140293600D03*
X124968000Y-129225800D03*
X124968000Y-131225800D03*
D32*
X112792000Y-96647000D03*
X114792000Y-96647000D03*
X110982000Y-117195600D03*
X108982000Y-117195600D03*
X121815100Y-124447300D03*
X119815100Y-124447300D03*
D33*
X127800100Y-108531660D03*
X127800100Y-104929940D03*
X105041700Y-104574340D03*
X105041700Y-108176060D03*
X142671800Y-137962640D03*
X142671800Y-141564360D03*
X116319300Y-138991340D03*
X116319300Y-142593060D03*
X105117900Y-127053340D03*
X105117900Y-130655060D03*
X125717300Y-123027440D03*
X125717300Y-126629160D03*
D34*
X104777540Y-101866700D03*
X108379260Y-101866700D03*
X143156940Y-134505700D03*
X146758660Y-134505700D03*
X117058440Y-135039100D03*
X120660160Y-135039100D03*
D33*
X105079800Y-117490240D03*
X105079800Y-121091960D03*
D34*
X131155440Y-123075700D03*
X134757160Y-123075700D03*
X117154960Y-105575100D03*
X113553240Y-105575100D03*
X155293060Y-137744200D03*
X151691340Y-137744200D03*
X129893060Y-138544300D03*
X126291340Y-138544300D03*
X115376960Y-124396500D03*
X111775240Y-124396500D03*
X138795760Y-125971300D03*
X135194040Y-125971300D03*
X115636040Y-101981000D03*
X119237760Y-101981000D03*
X153482040Y-134543800D03*
X157083760Y-134543800D03*
X128628140Y-135102600D03*
X132229860Y-135102600D03*
X113032540Y-121196100D03*
X116634260Y-121196100D03*
D33*
X124333000Y-104929940D03*
X124333000Y-108531660D03*
X161747200Y-137568940D03*
X161747200Y-141170660D03*
X137312400Y-137988040D03*
X137312400Y-141589760D03*
D34*
X120926860Y-127482600D03*
X117325140Y-127482600D03*
D33*
X126123700Y-96382840D03*
X126123700Y-99984560D03*
D35*
X130871000Y-75488800D03*
X128971000Y-75488800D03*
X125854500Y-62852300D03*
X123954500Y-62852300D03*
D36*
X120967500Y-62067400D03*
X120967500Y-63967400D03*
D35*
X116456500Y-81076800D03*
X114556500Y-81076800D03*
D36*
X135400000Y-65050000D03*
X135400000Y-66950000D03*
D35*
X139334200Y-128854200D03*
X141234200Y-128854200D03*
D36*
X110871000Y-133924000D03*
X110871000Y-135824000D03*
D35*
X114056200Y-140868400D03*
X112156200Y-140868400D03*
X143202700Y-144907000D03*
X141302700Y-144907000D03*
X105991700Y-112547400D03*
X104091700Y-112547400D03*
D37*
X108407200Y-81013300D03*
X108407200Y-74663300D03*
D38*
X196024500Y-54089300D03*
X195453000Y-145542000D03*
X104000300Y-54000400D03*
X104051100Y-146037300D03*
X146240500Y-54051200D03*
X103977440Y-96128840D03*
X146062700Y-84632800D03*
M02*
