%FSLAX46Y46*%
G04 Gerber Fmt 4.6, Leading zero omitted, Abs format (unit mm)*
G04 Created by KiCad (PCBNEW (2014-10-27 BZR 5228)-product) date 07/01/2015 12:48:53*
%MOMM*%
G01*
G04 APERTURE LIST*
%ADD10C,0.100000*%
%ADD11C,0.300000*%
G04 APERTURE END LIST*
D10*
D11*
X185921370Y-146935000D02*
X185207084Y-146935000D01*
X186064227Y-147363571D02*
X185564227Y-145863571D01*
X185064227Y-147363571D01*
X183707084Y-147220714D02*
X183778513Y-147292143D01*
X183992799Y-147363571D01*
X184135656Y-147363571D01*
X184349941Y-147292143D01*
X184492799Y-147149286D01*
X184564227Y-147006429D01*
X184635656Y-146720714D01*
X184635656Y-146506429D01*
X184564227Y-146220714D01*
X184492799Y-146077857D01*
X184349941Y-145935000D01*
X184135656Y-145863571D01*
X183992799Y-145863571D01*
X183778513Y-145935000D01*
X183707084Y-146006429D01*
X182992799Y-147363571D02*
X182707084Y-147363571D01*
X182564227Y-147292143D01*
X182492799Y-147220714D01*
X182349941Y-147006429D01*
X182278513Y-146720714D01*
X182278513Y-146149286D01*
X182349941Y-146006429D01*
X182421370Y-145935000D01*
X182564227Y-145863571D01*
X182849941Y-145863571D01*
X182992799Y-145935000D01*
X183064227Y-146006429D01*
X183135656Y-146149286D01*
X183135656Y-146506429D01*
X183064227Y-146649286D01*
X182992799Y-146720714D01*
X182849941Y-146792143D01*
X182564227Y-146792143D01*
X182421370Y-146720714D01*
X182349941Y-146649286D01*
X182278513Y-146506429D01*
X181635656Y-147363571D02*
X181635656Y-145863571D01*
X181635656Y-146577857D02*
X180778513Y-146577857D01*
X180778513Y-147363571D02*
X180778513Y-145863571D01*
X179778513Y-146649286D02*
X179778513Y-147363571D01*
X180278513Y-145863571D02*
X179778513Y-146649286D01*
X179278513Y-145863571D01*
X177707085Y-145792143D02*
X178992799Y-147720714D01*
X177349941Y-145863571D02*
X176992798Y-147363571D01*
X176707084Y-146292143D01*
X176421370Y-147363571D01*
X176064227Y-145863571D01*
X175564227Y-146935000D02*
X174849941Y-146935000D01*
X175707084Y-147363571D02*
X175207084Y-145863571D01*
X174707084Y-147363571D01*
X174278513Y-146006429D02*
X174207084Y-145935000D01*
X174064227Y-145863571D01*
X173707084Y-145863571D01*
X173564227Y-145935000D01*
X173492798Y-146006429D01*
X173421370Y-146149286D01*
X173421370Y-146292143D01*
X173492798Y-146506429D01*
X174349941Y-147363571D01*
X173421370Y-147363571D01*
X172778513Y-146577857D02*
X172278513Y-146577857D01*
X172064227Y-147363571D02*
X172778513Y-147363571D01*
X172778513Y-145863571D01*
X172064227Y-145863571D01*
X171421370Y-145863571D02*
X171421370Y-147077857D01*
X171349942Y-147220714D01*
X171278513Y-147292143D01*
X171135656Y-147363571D01*
X170849942Y-147363571D01*
X170707084Y-147292143D01*
X170635656Y-147220714D01*
X170564227Y-147077857D01*
X170564227Y-145863571D01*
X169421370Y-145863571D02*
X169421370Y-146935000D01*
X169492798Y-147149286D01*
X169635655Y-147292143D01*
X169849941Y-147363571D01*
X169992798Y-147363571D01*
X167564227Y-147363571D02*
X167564227Y-145863571D01*
X166992799Y-145863571D01*
X166849941Y-145935000D01*
X166778513Y-146006429D01*
X166707084Y-146149286D01*
X166707084Y-146363571D01*
X166778513Y-146506429D01*
X166849941Y-146577857D01*
X166992799Y-146649286D01*
X167564227Y-146649286D01*
X166135656Y-146935000D02*
X165421370Y-146935000D01*
X166278513Y-147363571D02*
X165778513Y-145863571D01*
X165278513Y-147363571D01*
X163849942Y-145863571D02*
X163349942Y-147363571D01*
X162849942Y-145863571D01*
X161778514Y-147292143D02*
X161921371Y-147363571D01*
X162207085Y-147363571D01*
X162349942Y-147292143D01*
X162421371Y-147149286D01*
X162421371Y-146577857D01*
X162349942Y-146435000D01*
X162207085Y-146363571D01*
X161921371Y-146363571D01*
X161778514Y-146435000D01*
X161707085Y-146577857D01*
X161707085Y-146720714D01*
X162421371Y-146863571D01*
X161064228Y-147363571D02*
X161064228Y-146363571D01*
X161064228Y-146649286D02*
X160992800Y-146506429D01*
X160921371Y-146435000D01*
X160778514Y-146363571D01*
X160635657Y-146363571D01*
X158207086Y-147363571D02*
X159064229Y-147363571D01*
X158635657Y-147363571D02*
X158635657Y-145863571D01*
X158778514Y-146077857D01*
X158921372Y-146220714D01*
X159064229Y-146292143D01*
X157564229Y-147220714D02*
X157492801Y-147292143D01*
X157564229Y-147363571D01*
X157635658Y-147292143D01*
X157564229Y-147220714D01*
X157564229Y-147363571D01*
X156564229Y-145863571D02*
X156421372Y-145863571D01*
X156278515Y-145935000D01*
X156207086Y-146006429D01*
X156135657Y-146149286D01*
X156064229Y-146435000D01*
X156064229Y-146792143D01*
X156135657Y-147077857D01*
X156207086Y-147220714D01*
X156278515Y-147292143D01*
X156421372Y-147363571D01*
X156564229Y-147363571D01*
X156707086Y-147292143D01*
X156778515Y-147220714D01*
X156849943Y-147077857D01*
X156921372Y-146792143D01*
X156921372Y-146435000D01*
X156849943Y-146149286D01*
X156778515Y-146006429D01*
X156707086Y-145935000D01*
X156564229Y-145863571D01*
M02*
