%FSLAX45Y45*%
G04 Gerber Fmt 4.5, Leading zero omitted, Abs format (unit mm)*
G04 Created by KiCad (PCBNEW (2014-10-27 BZR 5228)-product) date 10/01/2015 12:02:00*
%MOMM*%
G01*
G04 APERTURE LIST*
%ADD10C,0.127000*%
%ADD11C,0.100000*%
%ADD12C,0.200000*%
%ADD13C,0.300000*%
G04 APERTURE END LIST*
D10*
D11*
X20000000Y-5000000D02*
X10000000Y-5000000D01*
X20000000Y-15000000D02*
X20000000Y-5000000D01*
X10000000Y-15000000D02*
X20000000Y-15000000D01*
X10000000Y-5000000D02*
X10000000Y-15000000D01*
D12*
X10202744Y-9417884D02*
X10592744Y-9807884D01*
X10592744Y-9417884D02*
X10202744Y-9807884D01*
X10205030Y-5205040D02*
X10595030Y-5595040D01*
X10595030Y-5205040D02*
X10205030Y-5595040D01*
X10210110Y-14408730D02*
X10600110Y-14798730D01*
X10600110Y-14408730D02*
X10210110Y-14798730D01*
X14411270Y-8268280D02*
X14801270Y-8658280D01*
X14801270Y-8268280D02*
X14411270Y-8658280D01*
X14429050Y-5210120D02*
X14819050Y-5600120D01*
X14819050Y-5210120D02*
X14429050Y-5600120D01*
X19350300Y-14359200D02*
X19740300Y-14749200D01*
X19740300Y-14359200D02*
X19350300Y-14749200D01*
X19407450Y-5213930D02*
X19797450Y-5603930D01*
X19797450Y-5213930D02*
X19407450Y-5603930D01*
D13*
X10266429Y-15470714D02*
X10266429Y-15170714D01*
X10337857Y-15170714D01*
X10380714Y-15185000D01*
X10409286Y-15213571D01*
X10423571Y-15242143D01*
X10437857Y-15299286D01*
X10437857Y-15342143D01*
X10423571Y-15399286D01*
X10409286Y-15427857D01*
X10380714Y-15456429D01*
X10337857Y-15470714D01*
X10266429Y-15470714D01*
X10566429Y-15470714D02*
X10566429Y-15270714D01*
X10566429Y-15327857D02*
X10580714Y-15299286D01*
X10595000Y-15285000D01*
X10623571Y-15270714D01*
X10652143Y-15270714D01*
X10752143Y-15470714D02*
X10752143Y-15270714D01*
X10752143Y-15170714D02*
X10737857Y-15185000D01*
X10752143Y-15199286D01*
X10766429Y-15185000D01*
X10752143Y-15170714D01*
X10752143Y-15199286D01*
X10937857Y-15470714D02*
X10909286Y-15456429D01*
X10895000Y-15427857D01*
X10895000Y-15170714D01*
X11095000Y-15470714D02*
X11066429Y-15456429D01*
X11052143Y-15427857D01*
X11052143Y-15170714D01*
X11437857Y-15470714D02*
X11437857Y-15170714D01*
X11537857Y-15385000D01*
X11637857Y-15170714D01*
X11637857Y-15470714D01*
X11909286Y-15470714D02*
X11909286Y-15313571D01*
X11895000Y-15285000D01*
X11866428Y-15270714D01*
X11809286Y-15270714D01*
X11780714Y-15285000D01*
X11909286Y-15456429D02*
X11880714Y-15470714D01*
X11809286Y-15470714D01*
X11780714Y-15456429D01*
X11766428Y-15427857D01*
X11766428Y-15399286D01*
X11780714Y-15370714D01*
X11809286Y-15356429D01*
X11880714Y-15356429D01*
X11909286Y-15342143D01*
X12052143Y-15270714D02*
X12052143Y-15570714D01*
X12052143Y-15285000D02*
X12080714Y-15270714D01*
X12137857Y-15270714D01*
X12166428Y-15285000D01*
X12180714Y-15299286D01*
X12195000Y-15327857D01*
X12195000Y-15413571D01*
X12180714Y-15442143D01*
X12166428Y-15456429D01*
X12137857Y-15470714D01*
X12080714Y-15470714D01*
X12052143Y-15456429D01*
X12323571Y-15442143D02*
X12337857Y-15456429D01*
X12323571Y-15470714D01*
X12309286Y-15456429D01*
X12323571Y-15442143D01*
X12323571Y-15470714D01*
X12323571Y-15285000D02*
X12337857Y-15299286D01*
X12323571Y-15313571D01*
X12309286Y-15299286D01*
X12323571Y-15285000D01*
X12323571Y-15313571D01*
X9605000Y-15770000D02*
X9995000Y-16160000D01*
X9995000Y-15770000D02*
X9605000Y-16160000D01*
X10237857Y-15800714D02*
X10423571Y-15800714D01*
X10323571Y-15915000D01*
X10366429Y-15915000D01*
X10395000Y-15929286D01*
X10409286Y-15943571D01*
X10423571Y-15972143D01*
X10423571Y-16043571D01*
X10409286Y-16072143D01*
X10395000Y-16086429D01*
X10366429Y-16100714D01*
X10280714Y-16100714D01*
X10252143Y-16086429D01*
X10237857Y-16072143D01*
X10552143Y-16072143D02*
X10566429Y-16086429D01*
X10552143Y-16100714D01*
X10537857Y-16086429D01*
X10552143Y-16072143D01*
X10552143Y-16100714D01*
X10709286Y-16100714D02*
X10766428Y-16100714D01*
X10795000Y-16086429D01*
X10809286Y-16072143D01*
X10837857Y-16029286D01*
X10852143Y-15972143D01*
X10852143Y-15857857D01*
X10837857Y-15829286D01*
X10823571Y-15815000D01*
X10795000Y-15800714D01*
X10737857Y-15800714D01*
X10709286Y-15815000D01*
X10695000Y-15829286D01*
X10680714Y-15857857D01*
X10680714Y-15929286D01*
X10695000Y-15957857D01*
X10709286Y-15972143D01*
X10737857Y-15986429D01*
X10795000Y-15986429D01*
X10823571Y-15972143D01*
X10837857Y-15957857D01*
X10852143Y-15929286D01*
X11037857Y-15800714D02*
X11066429Y-15800714D01*
X11095000Y-15815000D01*
X11109286Y-15829286D01*
X11123571Y-15857857D01*
X11137857Y-15915000D01*
X11137857Y-15986429D01*
X11123571Y-16043571D01*
X11109286Y-16072143D01*
X11095000Y-16086429D01*
X11066429Y-16100714D01*
X11037857Y-16100714D01*
X11009286Y-16086429D01*
X10995000Y-16072143D01*
X10980714Y-16043571D01*
X10966429Y-15986429D01*
X10966429Y-15915000D01*
X10980714Y-15857857D01*
X10995000Y-15829286D01*
X11009286Y-15815000D01*
X11037857Y-15800714D01*
X11266428Y-16100714D02*
X11266428Y-15900714D01*
X11266428Y-15929286D02*
X11280714Y-15915000D01*
X11309286Y-15900714D01*
X11352143Y-15900714D01*
X11380714Y-15915000D01*
X11395000Y-15943571D01*
X11395000Y-16100714D01*
X11395000Y-15943571D02*
X11409286Y-15915000D01*
X11437857Y-15900714D01*
X11480714Y-15900714D01*
X11509286Y-15915000D01*
X11523571Y-15943571D01*
X11523571Y-16100714D01*
X11666428Y-16100714D02*
X11666428Y-15900714D01*
X11666428Y-15929286D02*
X11680714Y-15915000D01*
X11709286Y-15900714D01*
X11752143Y-15900714D01*
X11780714Y-15915000D01*
X11795000Y-15943571D01*
X11795000Y-16100714D01*
X11795000Y-15943571D02*
X11809286Y-15915000D01*
X11837857Y-15900714D01*
X11880714Y-15900714D01*
X11909286Y-15915000D01*
X11923571Y-15943571D01*
X11923571Y-16100714D01*
X12509286Y-15786429D02*
X12252143Y-16172143D01*
X12895000Y-15800714D02*
X12923571Y-15800714D01*
X12952143Y-15815000D01*
X12966428Y-15829286D01*
X12980714Y-15857857D01*
X12995000Y-15915000D01*
X12995000Y-15986429D01*
X12980714Y-16043571D01*
X12966428Y-16072143D01*
X12952143Y-16086429D01*
X12923571Y-16100714D01*
X12895000Y-16100714D01*
X12866428Y-16086429D01*
X12852143Y-16072143D01*
X12837857Y-16043571D01*
X12823571Y-15986429D01*
X12823571Y-15915000D01*
X12837857Y-15857857D01*
X12852143Y-15829286D01*
X12866428Y-15815000D01*
X12895000Y-15800714D01*
X13123571Y-16072143D02*
X13137857Y-16086429D01*
X13123571Y-16100714D01*
X13109286Y-16086429D01*
X13123571Y-16072143D01*
X13123571Y-16100714D01*
X13423571Y-16100714D02*
X13252143Y-16100714D01*
X13337857Y-16100714D02*
X13337857Y-15800714D01*
X13309285Y-15843571D01*
X13280714Y-15872143D01*
X13252143Y-15886429D01*
X13695000Y-15800714D02*
X13552143Y-15800714D01*
X13537857Y-15943571D01*
X13552143Y-15929286D01*
X13580714Y-15915000D01*
X13652143Y-15915000D01*
X13680714Y-15929286D01*
X13695000Y-15943571D01*
X13709285Y-15972143D01*
X13709285Y-16043571D01*
X13695000Y-16072143D01*
X13680714Y-16086429D01*
X13652143Y-16100714D01*
X13580714Y-16100714D01*
X13552143Y-16086429D01*
X13537857Y-16072143D01*
X13966428Y-15900714D02*
X13966428Y-16100714D01*
X13895000Y-15786429D02*
X13823571Y-16000714D01*
X14009285Y-16000714D01*
X14109286Y-15800714D02*
X14109286Y-15857857D01*
X14223571Y-15800714D02*
X14223571Y-15857857D01*
X14666428Y-16215000D02*
X14652143Y-16200714D01*
X14623571Y-16157857D01*
X14609285Y-16129286D01*
X14595000Y-16086429D01*
X14580714Y-16015000D01*
X14580714Y-15957857D01*
X14595000Y-15886429D01*
X14609285Y-15843571D01*
X14623571Y-15815000D01*
X14652143Y-15772143D01*
X14666428Y-15757857D01*
X14752143Y-15800714D02*
X14952143Y-15800714D01*
X14823571Y-16100714D01*
X15295000Y-16100714D02*
X15295000Y-15800714D01*
X15423571Y-16100714D02*
X15423571Y-15943571D01*
X15409285Y-15915000D01*
X15380714Y-15900714D01*
X15337857Y-15900714D01*
X15309285Y-15915000D01*
X15295000Y-15929286D01*
X15609285Y-16100714D02*
X15580714Y-16086429D01*
X15566428Y-16072143D01*
X15552143Y-16043571D01*
X15552143Y-15957857D01*
X15566428Y-15929286D01*
X15580714Y-15915000D01*
X15609285Y-15900714D01*
X15652143Y-15900714D01*
X15680714Y-15915000D01*
X15695000Y-15929286D01*
X15709285Y-15957857D01*
X15709285Y-16043571D01*
X15695000Y-16072143D01*
X15680714Y-16086429D01*
X15652143Y-16100714D01*
X15609285Y-16100714D01*
X15880714Y-16100714D02*
X15852143Y-16086429D01*
X15837857Y-16057857D01*
X15837857Y-15800714D01*
X16109286Y-16086429D02*
X16080714Y-16100714D01*
X16023571Y-16100714D01*
X15995000Y-16086429D01*
X15980714Y-16057857D01*
X15980714Y-15943571D01*
X15995000Y-15915000D01*
X16023571Y-15900714D01*
X16080714Y-15900714D01*
X16109286Y-15915000D01*
X16123571Y-15943571D01*
X16123571Y-15972143D01*
X15980714Y-16000714D01*
X16237857Y-16086429D02*
X16266428Y-16100714D01*
X16323571Y-16100714D01*
X16352143Y-16086429D01*
X16366428Y-16057857D01*
X16366428Y-16043571D01*
X16352143Y-16015000D01*
X16323571Y-16000714D01*
X16280714Y-16000714D01*
X16252143Y-15986429D01*
X16237857Y-15957857D01*
X16237857Y-15943571D01*
X16252143Y-15915000D01*
X16280714Y-15900714D01*
X16323571Y-15900714D01*
X16352143Y-15915000D01*
X16466428Y-16215000D02*
X16480714Y-16200714D01*
X16509286Y-16157857D01*
X16523571Y-16129286D01*
X16537857Y-16086429D01*
X16552143Y-16015000D01*
X16552143Y-15957857D01*
X16537857Y-15886429D01*
X16523571Y-15843571D01*
X16509286Y-15815000D01*
X16480714Y-15772143D01*
X16466428Y-15757857D01*
M02*
