%FSLAX46Y46*%
G04 Gerber Fmt 4.6, Leading zero omitted, Abs format (unit mm)*
G04 Created by KiCad (PCBNEW (2014-10-27 BZR 5228)-product) date 22/01/2015 08:27:09*
%MOMM*%
G01*
G04 APERTURE LIST*
%ADD10C,0.100000*%
%ADD11R,1.800860X2.499360*%
%ADD12R,2.499360X1.800860*%
%ADD13C,1.998980*%
%ADD14R,2.032000X2.032000*%
%ADD15O,2.032000X2.032000*%
%ADD16R,1.000760X0.599440*%
%ADD17O,1.699260X3.500120*%
%ADD18R,1.727200X1.727200*%
%ADD19O,1.727200X1.727200*%
%ADD20C,1.524000*%
%ADD21R,1.550000X0.600000*%
%ADD22C,2.540000*%
%ADD23C,1.727200*%
%ADD24R,1.397000X1.397000*%
%ADD25C,1.397000*%
%ADD26R,1.000000X1.250000*%
%ADD27R,1.250000X1.000000*%
%ADD28R,1.198880X1.600200*%
%ADD29R,1.600200X1.198880*%
%ADD30R,1.300000X0.700000*%
%ADD31R,0.700000X1.300000*%
%ADD32R,2.700020X2.550160*%
%ADD33R,1.270000X0.381000*%
%ADD34R,1.800000X1.800000*%
%ADD35C,1.800000*%
%ADD36C,0.254000*%
G04 APERTURE END LIST*
D10*
D11*
X104600000Y-117898980D03*
X104600000Y-113901020D03*
X108600000Y-117898980D03*
X108600000Y-113901020D03*
D12*
X105601020Y-121500000D03*
X109598980Y-121500000D03*
D11*
X108400000Y-125201020D03*
X108400000Y-129198980D03*
X104300000Y-125001020D03*
X104300000Y-128998980D03*
X140100000Y-125501020D03*
X140100000Y-129498980D03*
X140400000Y-117098980D03*
X140400000Y-113101020D03*
X136400000Y-117198980D03*
X136400000Y-113201020D03*
D12*
X139298980Y-121200000D03*
X135301020Y-121200000D03*
D11*
X136200000Y-125701020D03*
X136200000Y-129698980D03*
D13*
X160375600Y-54917340D03*
X160375600Y-65077340D03*
X142392400Y-77228700D03*
X142392400Y-71640700D03*
X156197300Y-77292200D03*
X156197300Y-71704200D03*
X196092000Y-64396000D03*
X190504000Y-64396000D03*
X196292000Y-79396000D03*
X190704000Y-79396000D03*
X195892000Y-96996000D03*
X190304000Y-96996000D03*
X181308000Y-127804000D03*
X186896000Y-127804000D03*
X195992000Y-112896000D03*
X190404000Y-112896000D03*
X185892000Y-64396000D03*
X180304000Y-64396000D03*
X185892000Y-79396000D03*
X180304000Y-79396000D03*
X185692000Y-96796000D03*
X180104000Y-96796000D03*
X196092000Y-127896000D03*
X190504000Y-127896000D03*
X185792000Y-112796000D03*
X180204000Y-112796000D03*
D14*
X130644900Y-81788000D03*
D15*
X130644900Y-79248000D03*
D14*
X123630000Y-78900000D03*
D15*
X126170000Y-78900000D03*
D14*
X102900000Y-70670000D03*
D15*
X102900000Y-68130000D03*
D14*
X103035100Y-81546700D03*
D15*
X103035100Y-79006700D03*
D16*
X122543360Y-74747500D03*
X124656640Y-75700000D03*
X122543360Y-76652500D03*
D17*
X130200000Y-55900000D03*
X132740000Y-55900000D03*
X127660000Y-55900000D03*
D13*
X107700000Y-102800640D03*
X107700000Y-107801900D03*
X135400000Y-107299360D03*
X135400000Y-102298100D03*
D18*
X135902700Y-81140300D03*
D19*
X135902700Y-83680300D03*
X138442700Y-81140300D03*
X138442700Y-83680300D03*
D20*
X117170200Y-64668400D03*
X117170200Y-62128400D03*
X117170200Y-67208400D03*
D21*
X114635300Y-74091800D03*
X114635300Y-75361800D03*
X114635300Y-76631800D03*
X114635300Y-77901800D03*
X120035300Y-77901800D03*
X120035300Y-76631800D03*
X120035300Y-75361800D03*
X120035300Y-74091800D03*
D22*
X138582400Y-55976000D03*
D23*
X138582400Y-59976000D03*
D22*
X138582400Y-63976000D03*
D23*
X138582400Y-67976000D03*
D24*
X152603200Y-82207100D03*
D25*
X152603200Y-84747100D03*
X152603200Y-87287100D03*
X152603200Y-89827100D03*
X152603200Y-92367100D03*
X160223200Y-92367100D03*
X160223200Y-89827100D03*
X160223200Y-87287100D03*
X160223200Y-84747100D03*
X160223200Y-82207100D03*
D24*
X168590000Y-59520000D03*
D25*
X168590000Y-62060000D03*
X168590000Y-64600000D03*
X168590000Y-67140000D03*
X168590000Y-69680000D03*
X176210000Y-69680000D03*
X176210000Y-67140000D03*
X176210000Y-64600000D03*
X176210000Y-62060000D03*
X176210000Y-59520000D03*
D24*
X168590000Y-74920000D03*
D25*
X168590000Y-77460000D03*
X168590000Y-80000000D03*
X168590000Y-82540000D03*
X168590000Y-85080000D03*
X176210000Y-85080000D03*
X176210000Y-82540000D03*
X176210000Y-80000000D03*
X176210000Y-77460000D03*
X176210000Y-74920000D03*
D24*
X168690000Y-91320000D03*
D25*
X168690000Y-93860000D03*
X168690000Y-96400000D03*
X168690000Y-98940000D03*
X168690000Y-101480000D03*
X176310000Y-101480000D03*
X176310000Y-98940000D03*
X176310000Y-96400000D03*
X176310000Y-93860000D03*
X176310000Y-91320000D03*
D24*
X168790000Y-107920000D03*
D25*
X168790000Y-110460000D03*
X168790000Y-113000000D03*
X168790000Y-115540000D03*
X168790000Y-118080000D03*
X176410000Y-118080000D03*
X176410000Y-115540000D03*
X176410000Y-113000000D03*
X176410000Y-110460000D03*
X176410000Y-107920000D03*
D24*
X168790000Y-123420000D03*
D25*
X168790000Y-125960000D03*
X168790000Y-128500000D03*
X168790000Y-131040000D03*
X168790000Y-133580000D03*
X176410000Y-133580000D03*
X176410000Y-131040000D03*
X176410000Y-128500000D03*
X176410000Y-125960000D03*
X176410000Y-123420000D03*
D26*
X114700000Y-86500000D03*
X116700000Y-86500000D03*
D27*
X121196100Y-68227700D03*
X121196100Y-70227700D03*
D26*
X114671600Y-83769200D03*
X116671600Y-83769200D03*
X130100000Y-62400000D03*
X128100000Y-62400000D03*
D27*
X103100000Y-104000000D03*
X103100000Y-102000000D03*
D26*
X115100000Y-105000000D03*
X117100000Y-105000000D03*
X114900000Y-114600000D03*
X116900000Y-114600000D03*
X130500000Y-125600000D03*
X128500000Y-125600000D03*
X114300000Y-136900000D03*
X116300000Y-136900000D03*
X115000000Y-144700000D03*
X117000000Y-144700000D03*
X115200000Y-102700000D03*
X117200000Y-102700000D03*
X114700000Y-112000000D03*
X116700000Y-112000000D03*
X114500000Y-123400000D03*
X116500000Y-123400000D03*
X114300000Y-134400000D03*
X116300000Y-134400000D03*
X115000000Y-142600000D03*
X117000000Y-142600000D03*
X120700000Y-100200000D03*
X118700000Y-100200000D03*
X120400000Y-109600000D03*
X118400000Y-109600000D03*
X120200000Y-121300000D03*
X118200000Y-121300000D03*
X120200000Y-131400000D03*
X118200000Y-131400000D03*
X125000000Y-140200000D03*
X123000000Y-140200000D03*
X124500000Y-144800000D03*
X122500000Y-144800000D03*
D27*
X125400000Y-102300000D03*
X125400000Y-104300000D03*
X124500000Y-111600000D03*
X124500000Y-113600000D03*
X124700000Y-123100000D03*
X124700000Y-125100000D03*
D26*
X120100000Y-133500000D03*
X118100000Y-133500000D03*
X124500000Y-142500000D03*
X122500000Y-142500000D03*
X131300000Y-100300000D03*
X129300000Y-100300000D03*
X129900000Y-109400000D03*
X127900000Y-109400000D03*
X132500000Y-121200000D03*
X130500000Y-121200000D03*
X129800000Y-129200000D03*
X127800000Y-129200000D03*
X129500000Y-104900000D03*
X127500000Y-104900000D03*
X129800000Y-114400000D03*
X127800000Y-114400000D03*
X114500000Y-125700000D03*
X116500000Y-125700000D03*
X127700000Y-136100000D03*
X125700000Y-136100000D03*
X129400000Y-102400000D03*
X127400000Y-102400000D03*
X129800000Y-111600000D03*
X127800000Y-111600000D03*
X130500000Y-123400000D03*
X128500000Y-123400000D03*
X127800000Y-133700000D03*
X125800000Y-133700000D03*
D27*
X140800000Y-101700000D03*
X140800000Y-103700000D03*
D26*
X120100000Y-129200000D03*
X118100000Y-129200000D03*
X129800000Y-131400000D03*
X127800000Y-131400000D03*
D28*
X103200000Y-106699140D03*
X103200000Y-110300860D03*
X112500000Y-102599140D03*
X112500000Y-106200860D03*
X112700000Y-111999140D03*
X112700000Y-115600860D03*
X112400000Y-123499140D03*
X112400000Y-127100860D03*
X112400000Y-133499140D03*
X112400000Y-137100860D03*
X112600000Y-142499140D03*
X112600000Y-146100860D03*
D29*
X112599140Y-100200000D03*
X116200860Y-100200000D03*
X112699140Y-109700000D03*
X116300860Y-109700000D03*
X112399140Y-121400000D03*
X116000860Y-121400000D03*
X112599140Y-131400000D03*
X116200860Y-131400000D03*
X112699140Y-140400000D03*
X116300860Y-140400000D03*
D28*
X123000000Y-102699140D03*
X123000000Y-106300860D03*
X122400000Y-111799140D03*
X122400000Y-115400860D03*
X122200000Y-121399140D03*
X122200000Y-125000860D03*
X122200000Y-133599140D03*
X122200000Y-137200860D03*
X126800000Y-142599140D03*
X126800000Y-146200860D03*
D29*
X123299140Y-100300000D03*
X126900860Y-100300000D03*
X122399140Y-109500000D03*
X126000860Y-109500000D03*
X124599140Y-121300000D03*
X128200860Y-121300000D03*
X122199140Y-131400000D03*
X125800860Y-131400000D03*
D28*
X131200000Y-102599140D03*
X131200000Y-106200860D03*
X132100000Y-111799140D03*
X132100000Y-115400860D03*
X132400000Y-123399140D03*
X132400000Y-127000860D03*
X129700000Y-133499140D03*
X129700000Y-137100860D03*
X140800000Y-106199140D03*
X140800000Y-109800860D03*
D30*
X121100000Y-79250000D03*
X121100000Y-81150000D03*
D31*
X125350000Y-60600000D03*
X123450000Y-60600000D03*
D30*
X120967500Y-62067400D03*
X120967500Y-63967400D03*
D31*
X116456500Y-81076800D03*
X114556500Y-81076800D03*
X135050000Y-63600000D03*
X133150000Y-63600000D03*
D30*
X110100000Y-146050000D03*
X110100000Y-144150000D03*
X110200000Y-135250000D03*
X110200000Y-133350000D03*
D31*
X116450000Y-129300000D03*
X114550000Y-129300000D03*
X114650000Y-118800000D03*
X112750000Y-118800000D03*
D30*
X120100000Y-105650000D03*
X120100000Y-103750000D03*
D32*
X108407200Y-81013300D03*
X108407200Y-74663300D03*
D26*
X166000000Y-72300000D03*
X164000000Y-72300000D03*
D24*
X177620000Y-144910000D03*
D25*
X180160000Y-144910000D03*
X182700000Y-144910000D03*
X185240000Y-144910000D03*
X187780000Y-144910000D03*
X187780000Y-137290000D03*
X185240000Y-137290000D03*
X182700000Y-137290000D03*
X180160000Y-137290000D03*
X177620000Y-137290000D03*
D33*
X157599080Y-115175840D03*
X157599080Y-114525600D03*
X157599080Y-113875360D03*
X157599080Y-113225120D03*
X157599080Y-112574880D03*
X157599080Y-111924640D03*
X157599080Y-111274400D03*
X157599080Y-110624160D03*
X152000920Y-110624160D03*
X152000920Y-111274400D03*
X152000920Y-111924640D03*
X152000920Y-112574880D03*
X152000920Y-113225120D03*
X152000920Y-113875360D03*
X152000920Y-114525600D03*
X152000920Y-115175840D03*
X152400920Y-101224160D03*
X152400920Y-101874400D03*
X152400920Y-102524640D03*
X152400920Y-103174880D03*
X152400920Y-103825120D03*
X152400920Y-104475360D03*
X152400920Y-105125600D03*
X152400920Y-105775840D03*
X157999080Y-105775840D03*
X157999080Y-105125600D03*
X157999080Y-104475360D03*
X157999080Y-103825120D03*
X157999080Y-103174880D03*
X157999080Y-102524640D03*
X157999080Y-101874400D03*
X157999080Y-101224160D03*
X157599080Y-124475840D03*
X157599080Y-123825600D03*
X157599080Y-123175360D03*
X157599080Y-122525120D03*
X157599080Y-121874880D03*
X157599080Y-121224640D03*
X157599080Y-120574400D03*
X157599080Y-119924160D03*
X152000920Y-119924160D03*
X152000920Y-120574400D03*
X152000920Y-121224640D03*
X152000920Y-121874880D03*
X152000920Y-122525120D03*
X152000920Y-123175360D03*
X152000920Y-123825600D03*
X152000920Y-124475840D03*
X157599080Y-134775840D03*
X157599080Y-134125600D03*
X157599080Y-133475360D03*
X157599080Y-132825120D03*
X157599080Y-132174880D03*
X157599080Y-131524640D03*
X157599080Y-130874400D03*
X157599080Y-130224160D03*
X152000920Y-130224160D03*
X152000920Y-130874400D03*
X152000920Y-131524640D03*
X152000920Y-132174880D03*
X152000920Y-132825120D03*
X152000920Y-133475360D03*
X152000920Y-134125600D03*
X152000920Y-134775840D03*
D34*
X120300000Y-89300000D03*
D35*
X122840000Y-89300000D03*
X125380000Y-89300000D03*
X127920000Y-89300000D03*
X130460000Y-89300000D03*
X133000000Y-89300000D03*
X120300000Y-86760000D03*
X122840000Y-86760000D03*
X125380000Y-86760000D03*
X127920000Y-86760000D03*
X130460000Y-86760000D03*
X133000000Y-86760000D03*
D36*
G36*
X199673000Y-52373000D02*
X190000000Y-52373000D01*
X146400000Y-52373000D01*
X100327000Y-52373000D01*
X100327000Y-50327000D01*
X146400000Y-50327000D01*
X199673000Y-50327000D01*
X199673000Y-52373000D01*
X199673000Y-52373000D01*
G37*
X199673000Y-52373000D02*
X190000000Y-52373000D01*
X146400000Y-52373000D01*
X100327000Y-52373000D01*
X100327000Y-50327000D01*
X146400000Y-50327000D01*
X199673000Y-50327000D01*
X199673000Y-52373000D01*
G36*
X199673000Y-149773000D02*
X100227000Y-149773000D01*
X100227000Y-147627000D01*
X199673000Y-147627000D01*
X199673000Y-149773000D01*
X199673000Y-149773000D01*
G37*
X199673000Y-149773000D02*
X100227000Y-149773000D01*
X100227000Y-147627000D01*
X199673000Y-147627000D01*
X199673000Y-149773000D01*
M02*
