%FSLAX45Y45*%
G04 Gerber Fmt 4.5, Leading zero omitted, Abs format (unit mm)*
G04 Created by KiCad (PCBNEW (2014-10-27 BZR 5228)-product) date 07/01/2015 12:32:30*
%MOMM*%
G01*
G04 APERTURE LIST*
%ADD10C,0.127000*%
%ADD11C,0.100000*%
%ADD12C,0.200000*%
%ADD13C,0.300000*%
G04 APERTURE END LIST*
D10*
D11*
X20000000Y-5000000D02*
X10000000Y-5000000D01*
X20000000Y-15000000D02*
X20000000Y-5000000D01*
X10000000Y-15000000D02*
X20000000Y-15000000D01*
X10000000Y-5000000D02*
X10000000Y-15000000D01*
D12*
X10356850Y-14022070D02*
X10420350Y-14085570D01*
X10420350Y-14022070D02*
X10356850Y-14085570D01*
X10400030Y-13150850D02*
X10463530Y-13214350D01*
X10463530Y-13150850D02*
X10400030Y-13214350D01*
X10786110Y-14317980D02*
X10849610Y-14381480D01*
X10849610Y-14317980D02*
X10786110Y-14381480D01*
X11032490Y-13112750D02*
X11095990Y-13176250D01*
X11095990Y-13112750D02*
X11032490Y-13176250D01*
X11068250Y-6268250D02*
X11131750Y-6331750D01*
X11131750Y-6268250D02*
X11068250Y-6331750D01*
X11139170Y-12061190D02*
X11202670Y-12124690D01*
X11202670Y-12061190D02*
X11139170Y-12124690D01*
X11398250Y-11992610D02*
X11461750Y-12056110D01*
X11461750Y-11992610D02*
X11398250Y-12056110D01*
X11408250Y-9368250D02*
X11471750Y-9431750D01*
X11471750Y-9368250D02*
X11408250Y-9431750D01*
X11518900Y-14362430D02*
X11582400Y-14425930D01*
X11582400Y-14362430D02*
X11518900Y-14425930D01*
X11969750Y-12773660D02*
X12033250Y-12837160D01*
X12033250Y-12773660D02*
X11969750Y-12837160D01*
X12103100Y-14312900D02*
X12166600Y-14376400D01*
X12166600Y-14312900D02*
X12103100Y-14376400D01*
X12117070Y-12183110D02*
X12180570Y-12246610D01*
X12180570Y-12183110D02*
X12117070Y-12246610D01*
X12288250Y-7658250D02*
X12351750Y-7721750D01*
X12351750Y-7658250D02*
X12288250Y-7721750D01*
X12499340Y-9394190D02*
X12562840Y-9457690D01*
X12562840Y-9394190D02*
X12499340Y-9457690D01*
X12538250Y-6298250D02*
X12601750Y-6361750D01*
X12601750Y-6298250D02*
X12538250Y-6361750D01*
X12619990Y-9229090D02*
X12683490Y-9292590D01*
X12683490Y-9229090D02*
X12619990Y-9292590D01*
X12713970Y-9483090D02*
X12777470Y-9546590D01*
X12777470Y-9483090D02*
X12713970Y-9546590D01*
X12713970Y-14334490D02*
X12777470Y-14397990D01*
X12777470Y-14334490D02*
X12713970Y-14397990D01*
X12802870Y-10621010D02*
X12866370Y-10684510D01*
X12866370Y-10621010D02*
X12802870Y-10684510D01*
X12881610Y-13312140D02*
X12945110Y-13375640D01*
X12945110Y-13312140D02*
X12881610Y-13375640D01*
X13139420Y-12965430D02*
X13202920Y-13028930D01*
X13202920Y-12965430D02*
X13139420Y-13028930D01*
X13216890Y-14603730D02*
X13280390Y-14667230D01*
X13280390Y-14603730D02*
X13216890Y-14667230D01*
X13248250Y-7088250D02*
X13311750Y-7151750D01*
X13311750Y-7088250D02*
X13248250Y-7151750D01*
X13318490Y-12804140D02*
X13381990Y-12867640D01*
X13381990Y-12804140D02*
X13318490Y-12867640D01*
X13337540Y-12261850D02*
X13401040Y-12325350D01*
X13401040Y-12261850D02*
X13337540Y-12325350D01*
X13373100Y-9014460D02*
X13436600Y-9077960D01*
X13436600Y-9014460D02*
X13373100Y-9077960D01*
X13402310Y-11619230D02*
X13465810Y-11682730D01*
X13465810Y-11619230D02*
X13402310Y-11682730D01*
X13445490Y-9594850D02*
X13508990Y-9658350D01*
X13508990Y-9594850D02*
X13445490Y-9658350D01*
X13472160Y-8907780D02*
X13535660Y-8971280D01*
X13535660Y-8907780D02*
X13472160Y-8971280D01*
X13474700Y-13486130D02*
X13538200Y-13549630D01*
X13538200Y-13486130D02*
X13474700Y-13549630D01*
X13488250Y-8268250D02*
X13551750Y-8331750D01*
X13551750Y-8268250D02*
X13488250Y-8331750D01*
X13540510Y-9492210D02*
X13604010Y-9555710D01*
X13604010Y-9492210D02*
X13540510Y-9555710D01*
X13635990Y-11468100D02*
X13699490Y-11531600D01*
X13699490Y-11468100D02*
X13635990Y-11531600D01*
X13643610Y-6930390D02*
X13707110Y-6993890D01*
X13707110Y-6930390D02*
X13643610Y-6993890D01*
X13681710Y-13500100D02*
X13745210Y-13563600D01*
X13745210Y-13500100D02*
X13681710Y-13563600D01*
X13691870Y-11753850D02*
X13755370Y-11817350D01*
X13755370Y-11753850D02*
X13691870Y-11817350D01*
X13699490Y-8500110D02*
X13762990Y-8563610D01*
X13762990Y-8500110D02*
X13699490Y-8563610D01*
X13705840Y-9260840D02*
X13769340Y-9324340D01*
X13769340Y-9260840D02*
X13705840Y-9324340D01*
X13811250Y-8266430D02*
X13874750Y-8329930D01*
X13874750Y-8266430D02*
X13811250Y-8329930D01*
X13821410Y-12820650D02*
X13884910Y-12884150D01*
X13884910Y-12820650D02*
X13821410Y-12884150D01*
X13856970Y-9772650D02*
X13920470Y-9836150D01*
X13920470Y-9772650D02*
X13856970Y-9836150D01*
X13865860Y-9025890D02*
X13929360Y-9089390D01*
X13929360Y-9025890D02*
X13865860Y-9089390D01*
X13872210Y-9523730D02*
X13935710Y-9587230D01*
X13935710Y-9523730D02*
X13872210Y-9587230D01*
X13978890Y-9241790D02*
X14042390Y-9305290D01*
X14042390Y-9241790D02*
X13978890Y-9305290D01*
X13986510Y-9003030D02*
X14050010Y-9066530D01*
X14050010Y-9003030D02*
X13986510Y-9066530D01*
X14093190Y-9361170D02*
X14156690Y-9424670D01*
X14156690Y-9361170D02*
X14093190Y-9424670D01*
X14178280Y-11987530D02*
X14241780Y-12051030D01*
X14241780Y-11987530D02*
X14178280Y-12051030D01*
X14208250Y-8533130D02*
X14271750Y-8596630D01*
X14271750Y-8533130D02*
X14208250Y-8596630D01*
X14290040Y-10956290D02*
X14353540Y-11019790D01*
X14353540Y-10956290D02*
X14290040Y-11019790D01*
X14338250Y-13028250D02*
X14401750Y-13091750D01*
X14401750Y-13028250D02*
X14338250Y-13091750D01*
X14344650Y-10689590D02*
X14408150Y-10753090D01*
X14408150Y-10689590D02*
X14344650Y-10753090D01*
X14359890Y-10273030D02*
X14423390Y-10336530D01*
X14423390Y-10273030D02*
X14359890Y-10336530D01*
X14367510Y-10138410D02*
X14431010Y-10201910D01*
X14431010Y-10138410D02*
X14367510Y-10201910D01*
X14390370Y-9198610D02*
X14453870Y-9262110D01*
X14453870Y-9198610D02*
X14390370Y-9262110D01*
X14392910Y-9841230D02*
X14456410Y-9904730D01*
X14456410Y-9841230D02*
X14392910Y-9904730D01*
X14415770Y-7387590D02*
X14479270Y-7451090D01*
X14479270Y-7387590D02*
X14415770Y-7451090D01*
X14446250Y-12680950D02*
X14509750Y-12744450D01*
X14509750Y-12680950D02*
X14446250Y-12744450D01*
X14466570Y-7825750D02*
X14530070Y-7889250D01*
X14530070Y-7825750D02*
X14466570Y-7889250D01*
X14481810Y-9287510D02*
X14545310Y-9351010D01*
X14545310Y-9287510D02*
X14481810Y-9351010D01*
X14481810Y-10567670D02*
X14545310Y-10631170D01*
X14545310Y-10567670D02*
X14481810Y-10631170D01*
X14481810Y-10778490D02*
X14545310Y-10841990D01*
X14545310Y-10778490D02*
X14481810Y-10841990D01*
X14481810Y-11276330D02*
X14545310Y-11339830D01*
X14545310Y-11276330D02*
X14481810Y-11339830D01*
X14484350Y-8746490D02*
X14547850Y-8809990D01*
X14547850Y-8746490D02*
X14484350Y-8809990D01*
X14484350Y-10996930D02*
X14547850Y-11060430D01*
X14547850Y-10996930D02*
X14484350Y-11060430D01*
X14535150Y-11520170D02*
X14598650Y-11583670D01*
X14598650Y-11520170D02*
X14535150Y-11583670D01*
X14536420Y-12009120D02*
X14599920Y-12072620D01*
X14599920Y-12009120D02*
X14536420Y-12072620D01*
X14570710Y-8853170D02*
X14634210Y-8916670D01*
X14634210Y-8853170D02*
X14570710Y-8916670D01*
X14923770Y-7313930D02*
X14987270Y-7377430D01*
X14987270Y-7313930D02*
X14923770Y-7377430D01*
X14928850Y-7575550D02*
X14992350Y-7639050D01*
X14992350Y-7575550D02*
X14928850Y-7639050D01*
X14936470Y-7440930D02*
X14999970Y-7504430D01*
X14999970Y-7440930D02*
X14936470Y-7504430D01*
X14958250Y-13232130D02*
X15021750Y-13295630D01*
X15021750Y-13232130D02*
X14958250Y-13295630D01*
X14984730Y-12780010D02*
X15048230Y-12843510D01*
X15048230Y-12780010D02*
X14984730Y-12843510D01*
X14987270Y-12904470D02*
X15050770Y-12967970D01*
X15050770Y-12904470D02*
X14987270Y-12967970D01*
X14994890Y-12653010D02*
X15058390Y-12716510D01*
X15058390Y-12653010D02*
X14994890Y-12716510D01*
X14999970Y-12518390D02*
X15063470Y-12581890D01*
X15063470Y-12518390D02*
X14999970Y-12581890D01*
X15017750Y-11047730D02*
X15081250Y-11111230D01*
X15081250Y-11047730D02*
X15017750Y-11111230D01*
X15027910Y-7199630D02*
X15091410Y-7263130D01*
X15091410Y-7199630D02*
X15027910Y-7263130D01*
X15027910Y-9617710D02*
X15091410Y-9681210D01*
X15091410Y-9617710D02*
X15027910Y-9681210D01*
X15050770Y-8746490D02*
X15114270Y-8809990D01*
X15114270Y-8746490D02*
X15050770Y-8809990D01*
X15067280Y-14179550D02*
X15130780Y-14243050D01*
X15130780Y-14179550D02*
X15067280Y-14243050D01*
X15132050Y-9897110D02*
X15195550Y-9960610D01*
X15195550Y-9897110D02*
X15132050Y-9960610D01*
X15162530Y-7103110D02*
X15226030Y-7166610D01*
X15226030Y-7103110D02*
X15162530Y-7166610D01*
X15181580Y-10243820D02*
X15245080Y-10307320D01*
X15245080Y-10243820D02*
X15181580Y-10307320D01*
X15190470Y-8545830D02*
X15253970Y-8609330D01*
X15253970Y-8545830D02*
X15190470Y-8609330D01*
X15208250Y-7317740D02*
X15271750Y-7381240D01*
X15271750Y-7317740D02*
X15208250Y-7381240D01*
X15208250Y-12152630D02*
X15271750Y-12216130D01*
X15271750Y-12152630D02*
X15208250Y-12216130D01*
X15307310Y-7001510D02*
X15370810Y-7065010D01*
X15370810Y-7001510D02*
X15307310Y-7065010D01*
X15307310Y-12390120D02*
X15370810Y-12453620D01*
X15370810Y-12390120D02*
X15307310Y-12453620D01*
X15337790Y-9744710D02*
X15401290Y-9808210D01*
X15401290Y-9744710D02*
X15337790Y-9808210D01*
X15426690Y-11484610D02*
X15490190Y-11548110D01*
X15490190Y-11484610D02*
X15426690Y-11548110D01*
X15429230Y-8975090D02*
X15492730Y-9038590D01*
X15492730Y-8975090D02*
X15429230Y-9038590D01*
X15459710Y-8723630D02*
X15523210Y-8787130D01*
X15523210Y-8723630D02*
X15459710Y-8787130D01*
X15464790Y-12279630D02*
X15528290Y-12343130D01*
X15528290Y-12279630D02*
X15464790Y-12343130D01*
X15464790Y-12701270D02*
X15528290Y-12764770D01*
X15528290Y-12701270D02*
X15464790Y-12764770D01*
X15464790Y-13288010D02*
X15528290Y-13351510D01*
X15528290Y-13288010D02*
X15464790Y-13351510D01*
X15571470Y-9973310D02*
X15634970Y-10036810D01*
X15634970Y-9973310D02*
X15571470Y-10036810D01*
X15632430Y-8213090D02*
X15695930Y-8276590D01*
X15695930Y-8213090D02*
X15632430Y-8276590D01*
X15678150Y-11718290D02*
X15741650Y-11781790D01*
X15741650Y-11718290D02*
X15678150Y-11781790D01*
X15838170Y-8304530D02*
X15901670Y-8368030D01*
X15901670Y-8304530D02*
X15838170Y-8368030D01*
X15914370Y-10702290D02*
X15977870Y-10765790D01*
X15977870Y-10702290D02*
X15914370Y-10765790D01*
X15944850Y-12117070D02*
X16008350Y-12180570D01*
X16008350Y-12117070D02*
X15944850Y-12180570D01*
X16117570Y-11686540D02*
X16181070Y-11750040D01*
X16181070Y-11686540D02*
X16117570Y-11750040D01*
X16173450Y-11569700D02*
X16236950Y-11633200D01*
X16236950Y-11569700D02*
X16173450Y-11633200D01*
X16290290Y-11893550D02*
X16353790Y-11957050D01*
X16353790Y-11893550D02*
X16290290Y-11957050D01*
X16385540Y-11987530D02*
X16449040Y-12051030D01*
X16449040Y-11987530D02*
X16385540Y-12051030D01*
X16515080Y-13619480D02*
X16578580Y-13682980D01*
X16578580Y-13619480D02*
X16515080Y-13682980D01*
X16554450Y-8978900D02*
X16617950Y-9042400D01*
X16617950Y-8978900D02*
X16554450Y-9042400D01*
X16605250Y-12703810D02*
X16668750Y-12767310D01*
X16668750Y-12703810D02*
X16605250Y-12767310D01*
X17565370Y-7372350D02*
X17628870Y-7435850D01*
X17628870Y-7372350D02*
X17565370Y-7435850D01*
X18065750Y-5568250D02*
X18129250Y-5631750D01*
X18129250Y-5568250D02*
X18065750Y-5631750D01*
X18195290Y-11819890D02*
X18258790Y-11883390D01*
X18258790Y-11819890D02*
X18195290Y-11883390D01*
X18370550Y-10966450D02*
X18434050Y-11029950D01*
X18434050Y-10966450D02*
X18370550Y-11029950D01*
X18647410Y-9142730D02*
X18710910Y-9206230D01*
X18710910Y-9142730D02*
X18647410Y-9206230D01*
X18809970Y-7661910D02*
X18873470Y-7725410D01*
X18873470Y-7661910D02*
X18809970Y-7725410D01*
X18855690Y-12858750D02*
X18919190Y-12922250D01*
X18919190Y-12858750D02*
X18855690Y-12922250D01*
X18934430Y-14458950D02*
X18997930Y-14522450D01*
X18997930Y-14458950D02*
X18934430Y-14522450D01*
X19325590Y-7562850D02*
X19389090Y-7626350D01*
X19389090Y-7562850D02*
X19325590Y-7626350D01*
X19325750Y-5590750D02*
X19389250Y-5654250D01*
X19389250Y-5590750D02*
X19325750Y-5654250D01*
X19493230Y-9848850D02*
X19556730Y-9912350D01*
X19556730Y-9848850D02*
X19493230Y-9912350D01*
X19683730Y-11609070D02*
X19747230Y-11672570D01*
X19747230Y-11609070D02*
X19683730Y-11672570D01*
X19780750Y-5575750D02*
X19844250Y-5639250D01*
X19844250Y-5575750D02*
X19780750Y-5639250D01*
X10610640Y-7593000D02*
G75*
G03X10610640Y-7593000I-40640J0D01*
G01*
X10610640Y-7847000D02*
G75*
G03X10610640Y-7847000I-40640J0D01*
G01*
X11282640Y-9069000D02*
G75*
G03X11282640Y-9069000I-40640J0D01*
G01*
X11282640Y-9831000D02*
G75*
G03X11282640Y-9831000I-40640J0D01*
G01*
X11536640Y-9069000D02*
G75*
G03X11536640Y-9069000I-40640J0D01*
G01*
X11536640Y-9831000D02*
G75*
G03X11536640Y-9831000I-40640J0D01*
G01*
X11660640Y-6582000D02*
G75*
G03X11660640Y-6582000I-40640J0D01*
G01*
X11660640Y-6836000D02*
G75*
G03X11660640Y-6836000I-40640J0D01*
G01*
X11660640Y-7090000D02*
G75*
G03X11660640Y-7090000I-40640J0D01*
G01*
X11790640Y-9069000D02*
G75*
G03X11790640Y-9069000I-40640J0D01*
G01*
X11790640Y-9831000D02*
G75*
G03X11790640Y-9831000I-40640J0D01*
G01*
X12044640Y-9069000D02*
G75*
G03X12044640Y-9069000I-40640J0D01*
G01*
X12044640Y-9831000D02*
G75*
G03X12044640Y-9831000I-40640J0D01*
G01*
X12298640Y-9069000D02*
G75*
G03X12298640Y-9069000I-40640J0D01*
G01*
X12298640Y-9831000D02*
G75*
G03X12298640Y-9831000I-40640J0D01*
G01*
X16513640Y-5450000D02*
G75*
G03X16513640Y-5450000I-40640J0D01*
G01*
X16767640Y-5450000D02*
G75*
G03X16767640Y-5450000I-40640J0D01*
G01*
X16909640Y-7812000D02*
G75*
G03X16909640Y-7812000I-40640J0D01*
G01*
X16909640Y-8066000D02*
G75*
G03X16909640Y-8066000I-40640J0D01*
G01*
X16909640Y-8320000D02*
G75*
G03X16909640Y-8320000I-40640J0D01*
G01*
X16909640Y-8574000D02*
G75*
G03X16909640Y-8574000I-40640J0D01*
G01*
X16909640Y-8828000D02*
G75*
G03X16909640Y-8828000I-40640J0D01*
G01*
X16919640Y-5982000D02*
G75*
G03X16919640Y-5982000I-40640J0D01*
G01*
X16919640Y-6236000D02*
G75*
G03X16919640Y-6236000I-40640J0D01*
G01*
X16919640Y-6490000D02*
G75*
G03X16919640Y-6490000I-40640J0D01*
G01*
X16919640Y-6744000D02*
G75*
G03X16919640Y-6744000I-40640J0D01*
G01*
X16919640Y-6998000D02*
G75*
G03X16919640Y-6998000I-40640J0D01*
G01*
X16919640Y-9732000D02*
G75*
G03X16919640Y-9732000I-40640J0D01*
G01*
X16919640Y-9986000D02*
G75*
G03X16919640Y-9986000I-40640J0D01*
G01*
X16919640Y-10240000D02*
G75*
G03X16919640Y-10240000I-40640J0D01*
G01*
X16919640Y-10494000D02*
G75*
G03X16919640Y-10494000I-40640J0D01*
G01*
X16919640Y-10748000D02*
G75*
G03X16919640Y-10748000I-40640J0D01*
G01*
X16929640Y-11532000D02*
G75*
G03X16929640Y-11532000I-40640J0D01*
G01*
X16929640Y-11786000D02*
G75*
G03X16929640Y-11786000I-40640J0D01*
G01*
X16929640Y-12040000D02*
G75*
G03X16929640Y-12040000I-40640J0D01*
G01*
X16929640Y-12294000D02*
G75*
G03X16929640Y-12294000I-40640J0D01*
G01*
X16929640Y-12548000D02*
G75*
G03X16929640Y-12548000I-40640J0D01*
G01*
X16959640Y-13362000D02*
G75*
G03X16959640Y-13362000I-40640J0D01*
G01*
X16959640Y-13616000D02*
G75*
G03X16959640Y-13616000I-40640J0D01*
G01*
X16959640Y-13870000D02*
G75*
G03X16959640Y-13870000I-40640J0D01*
G01*
X16959640Y-14124000D02*
G75*
G03X16959640Y-14124000I-40640J0D01*
G01*
X16959640Y-14378000D02*
G75*
G03X16959640Y-14378000I-40640J0D01*
G01*
X17671640Y-7812000D02*
G75*
G03X17671640Y-7812000I-40640J0D01*
G01*
X17671640Y-8066000D02*
G75*
G03X17671640Y-8066000I-40640J0D01*
G01*
X17671640Y-8320000D02*
G75*
G03X17671640Y-8320000I-40640J0D01*
G01*
X17671640Y-8574000D02*
G75*
G03X17671640Y-8574000I-40640J0D01*
G01*
X17671640Y-8828000D02*
G75*
G03X17671640Y-8828000I-40640J0D01*
G01*
X17681640Y-5982000D02*
G75*
G03X17681640Y-5982000I-40640J0D01*
G01*
X17681640Y-6236000D02*
G75*
G03X17681640Y-6236000I-40640J0D01*
G01*
X17681640Y-6490000D02*
G75*
G03X17681640Y-6490000I-40640J0D01*
G01*
X17681640Y-6744000D02*
G75*
G03X17681640Y-6744000I-40640J0D01*
G01*
X17681640Y-6998000D02*
G75*
G03X17681640Y-6998000I-40640J0D01*
G01*
X17681640Y-9732000D02*
G75*
G03X17681640Y-9732000I-40640J0D01*
G01*
X17681640Y-9986000D02*
G75*
G03X17681640Y-9986000I-40640J0D01*
G01*
X17681640Y-10240000D02*
G75*
G03X17681640Y-10240000I-40640J0D01*
G01*
X17681640Y-10494000D02*
G75*
G03X17681640Y-10494000I-40640J0D01*
G01*
X17681640Y-10748000D02*
G75*
G03X17681640Y-10748000I-40640J0D01*
G01*
X17691640Y-11532000D02*
G75*
G03X17691640Y-11532000I-40640J0D01*
G01*
X17691640Y-11786000D02*
G75*
G03X17691640Y-11786000I-40640J0D01*
G01*
X17691640Y-12040000D02*
G75*
G03X17691640Y-12040000I-40640J0D01*
G01*
X17691640Y-12294000D02*
G75*
G03X17691640Y-12294000I-40640J0D01*
G01*
X17691640Y-12548000D02*
G75*
G03X17691640Y-12548000I-40640J0D01*
G01*
X17721640Y-13362000D02*
G75*
G03X17721640Y-13362000I-40640J0D01*
G01*
X17721640Y-13616000D02*
G75*
G03X17721640Y-13616000I-40640J0D01*
G01*
X17721640Y-13870000D02*
G75*
G03X17721640Y-13870000I-40640J0D01*
G01*
X17721640Y-14124000D02*
G75*
G03X17721640Y-14124000I-40640J0D01*
G01*
X17721640Y-14378000D02*
G75*
G03X17721640Y-14378000I-40640J0D01*
G01*
X10634980Y-10706862D02*
X10634980Y-10806938D01*
X10584942Y-10756900D02*
X10685018Y-10756900D01*
X11135106Y-10706862D02*
X11135106Y-10806938D01*
X11085068Y-10756900D02*
X11185144Y-10756900D01*
X11741404Y-10706862D02*
X11741404Y-10806938D01*
X11691366Y-10756900D02*
X11791442Y-10756900D01*
X11870400Y-7960362D02*
X11870400Y-8060438D01*
X11820362Y-8010400D02*
X11920438Y-8010400D01*
X11870400Y-8519162D02*
X11870400Y-8619238D01*
X11820362Y-8569200D02*
X11920438Y-8569200D01*
X12241530Y-10706862D02*
X12241530Y-10806938D01*
X12191492Y-10756900D02*
X12291568Y-10756900D01*
X12766000Y-5539962D02*
X12766000Y-5640038D01*
X12715962Y-5590000D02*
X12816038Y-5590000D01*
X13020000Y-5539962D02*
X13020000Y-5640038D01*
X12969962Y-5590000D02*
X13070038Y-5590000D01*
X13274000Y-5539962D02*
X13274000Y-5640038D01*
X13223962Y-5590000D02*
X13324038Y-5590000D01*
X13280400Y-7950362D02*
X13280400Y-8050438D01*
X13230362Y-8000400D02*
X13330438Y-8000400D01*
X13280400Y-8509162D02*
X13280400Y-8609238D01*
X13230362Y-8559200D02*
X13330438Y-8559200D01*
X16470000Y-6614088D02*
X16470000Y-6714164D01*
X16419962Y-6664126D02*
X16520038Y-6664126D01*
X16470000Y-7630088D02*
X16470000Y-7730164D01*
X16419962Y-7680126D02*
X16520038Y-7680126D01*
X18040400Y-6369562D02*
X18040400Y-6469638D01*
X17990362Y-6419600D02*
X18090438Y-6419600D01*
X18060400Y-8359562D02*
X18060400Y-8459638D01*
X18010362Y-8409600D02*
X18110438Y-8409600D01*
X18070400Y-13889562D02*
X18070400Y-13989638D01*
X18020362Y-13939600D02*
X18120438Y-13939600D01*
X18080400Y-10279562D02*
X18080400Y-10379638D01*
X18030362Y-10329600D02*
X18130438Y-10329600D01*
X18100400Y-12179562D02*
X18100400Y-12279638D01*
X18050362Y-12229600D02*
X18150438Y-12229600D01*
X18599200Y-6369562D02*
X18599200Y-6469638D01*
X18549162Y-6419600D02*
X18649238Y-6419600D01*
X18619200Y-8359562D02*
X18619200Y-8459638D01*
X18569162Y-8409600D02*
X18669238Y-8409600D01*
X18629200Y-13889562D02*
X18629200Y-13989638D01*
X18579162Y-13939600D02*
X18679238Y-13939600D01*
X18639200Y-10279562D02*
X18639200Y-10379638D01*
X18589162Y-10329600D02*
X18689238Y-10329600D01*
X18659200Y-12179562D02*
X18659200Y-12279638D01*
X18609162Y-12229600D02*
X18709238Y-12229600D01*
X19070400Y-6369562D02*
X19070400Y-6469638D01*
X19020362Y-6419600D02*
X19120438Y-6419600D01*
X19080400Y-8329562D02*
X19080400Y-8429638D01*
X19030362Y-8379600D02*
X19130438Y-8379600D01*
X19090400Y-13879562D02*
X19090400Y-13979638D01*
X19040362Y-13929600D02*
X19140438Y-13929600D01*
X19110400Y-10279562D02*
X19110400Y-10379638D01*
X19060362Y-10329600D02*
X19160438Y-10329600D01*
X19120400Y-12189562D02*
X19120400Y-12289638D01*
X19070362Y-12239600D02*
X19170438Y-12239600D01*
X19629200Y-6369562D02*
X19629200Y-6469638D01*
X19579162Y-6419600D02*
X19679238Y-6419600D01*
X19639200Y-8329562D02*
X19639200Y-8429638D01*
X19589162Y-8379600D02*
X19689238Y-8379600D01*
X19649200Y-13879562D02*
X19649200Y-13979638D01*
X19599162Y-13929600D02*
X19699238Y-13929600D01*
X19669200Y-10279562D02*
X19669200Y-10379638D01*
X19619162Y-10329600D02*
X19719238Y-10329600D01*
X19679200Y-12189562D02*
X19679200Y-12289638D01*
X19629162Y-12239600D02*
X19729238Y-12239600D01*
X10285921Y-6254921D02*
X10285921Y-6183079D01*
X10214079Y-6183079D01*
X10214079Y-6254921D01*
X10285921Y-6254921D01*
X10285921Y-6508921D02*
X10285921Y-6437079D01*
X10214079Y-6437079D01*
X10214079Y-6508921D01*
X10285921Y-6508921D01*
X10285921Y-6762921D02*
X10285921Y-6691079D01*
X10214079Y-6691079D01*
X10214079Y-6762921D01*
X10285921Y-6762921D01*
X10285921Y-7016921D02*
X10285921Y-6945079D01*
X10214079Y-6945079D01*
X10214079Y-7016921D01*
X10285921Y-7016921D01*
X10295921Y-5648921D02*
X10295921Y-5577079D01*
X10224079Y-5577079D01*
X10224079Y-5648921D01*
X10295921Y-5648921D01*
X10295921Y-5902921D02*
X10295921Y-5831079D01*
X10224079Y-5831079D01*
X10224079Y-5902921D01*
X10295921Y-5902921D01*
X10319111Y-12064091D02*
X10319111Y-11992249D01*
X10247269Y-11992249D01*
X10247269Y-12064091D01*
X10319111Y-12064091D01*
X10358921Y-9628921D02*
X10358921Y-9557079D01*
X10287079Y-9557079D01*
X10287079Y-9628921D01*
X10358921Y-9628921D01*
X10358921Y-9882921D02*
X10358921Y-9811079D01*
X10287079Y-9811079D01*
X10287079Y-9882921D01*
X10358921Y-9882921D01*
X10368921Y-8845921D02*
X10368921Y-8774079D01*
X10297079Y-8774079D01*
X10297079Y-8845921D01*
X10368921Y-8845921D01*
X10368921Y-9235921D02*
X10368921Y-9164079D01*
X10297079Y-9164079D01*
X10297079Y-9235921D01*
X10368921Y-9235921D01*
X10573111Y-12064091D02*
X10573111Y-11992249D01*
X10501269Y-11992249D01*
X10501269Y-12064091D01*
X10573111Y-12064091D01*
X10612921Y-9628921D02*
X10612921Y-9557079D01*
X10541079Y-9557079D01*
X10541079Y-9628921D01*
X10612921Y-9628921D01*
X10612921Y-9882921D02*
X10612921Y-9811079D01*
X10541079Y-9811079D01*
X10541079Y-9882921D01*
X10612921Y-9882921D01*
X10622921Y-8845921D02*
X10622921Y-8774079D01*
X10551079Y-8774079D01*
X10551079Y-8845921D01*
X10622921Y-8845921D01*
X10622921Y-9235921D02*
X10622921Y-9164079D01*
X10551079Y-9164079D01*
X10551079Y-9235921D01*
X10622921Y-9235921D01*
X12968921Y-9150921D02*
X12968921Y-9079079D01*
X12897079Y-9079079D01*
X12897079Y-9150921D01*
X12968921Y-9150921D01*
X12968921Y-9404921D02*
X12968921Y-9333079D01*
X12897079Y-9333079D01*
X12897079Y-9404921D01*
X12968921Y-9404921D01*
X12968921Y-9658921D02*
X12968921Y-9587079D01*
X12897079Y-9587079D01*
X12897079Y-9658921D01*
X12968921Y-9658921D01*
X12968921Y-9912921D02*
X12968921Y-9841079D01*
X12897079Y-9841079D01*
X12897079Y-9912921D01*
X12968921Y-9912921D01*
X12968921Y-10166921D02*
X12968921Y-10095079D01*
X12897079Y-10095079D01*
X12897079Y-10166921D01*
X12968921Y-10166921D01*
X12968921Y-10420921D02*
X12968921Y-10349079D01*
X12897079Y-10349079D01*
X12897079Y-10420921D01*
X12968921Y-10420921D01*
X13222921Y-9150921D02*
X13222921Y-9079079D01*
X13151079Y-9079079D01*
X13151079Y-9150921D01*
X13222921Y-9150921D01*
X13222921Y-9404921D02*
X13222921Y-9333079D01*
X13151079Y-9333079D01*
X13151079Y-9404921D01*
X13222921Y-9404921D01*
X13222921Y-9658921D02*
X13222921Y-9587079D01*
X13151079Y-9587079D01*
X13151079Y-9658921D01*
X13222921Y-9658921D01*
X13222921Y-9912921D02*
X13222921Y-9841079D01*
X13151079Y-9841079D01*
X13151079Y-9912921D01*
X13222921Y-9912921D01*
X13222921Y-10166921D02*
X13222921Y-10095079D01*
X13151079Y-10095079D01*
X13151079Y-10166921D01*
X13222921Y-10166921D01*
X13222921Y-10420921D02*
X13222921Y-10349079D01*
X13151079Y-10349079D01*
X13151079Y-10420921D01*
X13222921Y-10420921D01*
X13825921Y-5765921D02*
X13825921Y-5694079D01*
X13754079Y-5694079D01*
X13754079Y-5765921D01*
X13825921Y-5765921D01*
X13825921Y-6565921D02*
X13825921Y-6494079D01*
X13754079Y-6494079D01*
X13754079Y-6565921D01*
X13825921Y-6565921D01*
X14315921Y-6975921D02*
X14315921Y-6904079D01*
X14244079Y-6904079D01*
X14244079Y-6975921D01*
X14315921Y-6975921D01*
X16096341Y-12398101D02*
X16096341Y-12326259D01*
X16024499Y-12326259D01*
X16024499Y-12398101D01*
X16096341Y-12398101D01*
X16096341Y-12652101D02*
X16096341Y-12580259D01*
X16024499Y-12580259D01*
X16024499Y-12652101D01*
X16096341Y-12652101D01*
X16096341Y-12906101D02*
X16096341Y-12834259D01*
X16024499Y-12834259D01*
X16024499Y-12906101D01*
X16096341Y-12906101D01*
X16096341Y-13160101D02*
X16096341Y-13088259D01*
X16024499Y-13088259D01*
X16024499Y-13160101D01*
X16096341Y-13160101D01*
X16096341Y-13414101D02*
X16096341Y-13342259D01*
X16024499Y-13342259D01*
X16024499Y-13414101D01*
X16096341Y-13414101D01*
X16314781Y-8915761D02*
X16314781Y-8843919D01*
X16242939Y-8843919D01*
X16242939Y-8915761D01*
X16314781Y-8915761D01*
X16314781Y-9169761D02*
X16314781Y-9097919D01*
X16242939Y-9097919D01*
X16242939Y-9169761D01*
X16314781Y-9169761D01*
X16314781Y-9423761D02*
X16314781Y-9351919D01*
X16242939Y-9351919D01*
X16242939Y-9423761D01*
X16314781Y-9423761D01*
X16314781Y-9677761D02*
X16314781Y-9605919D01*
X16242939Y-9605919D01*
X16242939Y-9677761D01*
X16314781Y-9677761D01*
X16314781Y-9931761D02*
X16314781Y-9859919D01*
X16242939Y-9859919D01*
X16242939Y-9931761D01*
X16314781Y-9931761D01*
X16314781Y-10185761D02*
X16314781Y-10113919D01*
X16242939Y-10113919D01*
X16242939Y-10185761D01*
X16314781Y-10185761D01*
X16314781Y-10439761D02*
X16314781Y-10367919D01*
X16242939Y-10367919D01*
X16242939Y-10439761D01*
X16314781Y-10439761D01*
X16314781Y-10693761D02*
X16314781Y-10621919D01*
X16242939Y-10621919D01*
X16242939Y-10693761D01*
X16314781Y-10693761D01*
X16350341Y-12398101D02*
X16350341Y-12326259D01*
X16278499Y-12326259D01*
X16278499Y-12398101D01*
X16350341Y-12398101D01*
X16350341Y-12652101D02*
X16350341Y-12580259D01*
X16278499Y-12580259D01*
X16278499Y-12652101D01*
X16350341Y-12652101D01*
X16350341Y-12906101D02*
X16350341Y-12834259D01*
X16278499Y-12834259D01*
X16278499Y-12906101D01*
X16350341Y-12906101D01*
X16350341Y-13160101D02*
X16350341Y-13088259D01*
X16278499Y-13088259D01*
X16278499Y-13160101D01*
X16350341Y-13160101D01*
X16350341Y-13414101D02*
X16350341Y-13342259D01*
X16278499Y-13342259D01*
X16278499Y-13414101D01*
X16350341Y-13414101D01*
X13790000Y-5405000D02*
X13865000Y-5330000D01*
X13790000Y-5255000D01*
X13715000Y-5330000D01*
X13790000Y-5405000D01*
X13790000Y-6205000D02*
X13865000Y-6130000D01*
X13790000Y-6055000D01*
X13715000Y-6130000D01*
X13790000Y-6205000D01*
X12882499Y-6225159D02*
X13152501Y-6495161D01*
X13152501Y-6225159D02*
X12882499Y-6495161D01*
X13152501Y-6360160D02*
G75*
G03X13152501Y-6360160I-135001J0D01*
G01*
D13*
X10266429Y-15470714D02*
X10266429Y-15170714D01*
X10337857Y-15170714D01*
X10380714Y-15185000D01*
X10409286Y-15213571D01*
X10423571Y-15242143D01*
X10437857Y-15299286D01*
X10437857Y-15342143D01*
X10423571Y-15399286D01*
X10409286Y-15427857D01*
X10380714Y-15456429D01*
X10337857Y-15470714D01*
X10266429Y-15470714D01*
X10566429Y-15470714D02*
X10566429Y-15270714D01*
X10566429Y-15327857D02*
X10580714Y-15299286D01*
X10595000Y-15285000D01*
X10623571Y-15270714D01*
X10652143Y-15270714D01*
X10752143Y-15470714D02*
X10752143Y-15270714D01*
X10752143Y-15170714D02*
X10737857Y-15185000D01*
X10752143Y-15199286D01*
X10766429Y-15185000D01*
X10752143Y-15170714D01*
X10752143Y-15199286D01*
X10937857Y-15470714D02*
X10909286Y-15456429D01*
X10895000Y-15427857D01*
X10895000Y-15170714D01*
X11095000Y-15470714D02*
X11066429Y-15456429D01*
X11052143Y-15427857D01*
X11052143Y-15170714D01*
X11437857Y-15470714D02*
X11437857Y-15170714D01*
X11537857Y-15385000D01*
X11637857Y-15170714D01*
X11637857Y-15470714D01*
X11909286Y-15470714D02*
X11909286Y-15313571D01*
X11895000Y-15285000D01*
X11866428Y-15270714D01*
X11809286Y-15270714D01*
X11780714Y-15285000D01*
X11909286Y-15456429D02*
X11880714Y-15470714D01*
X11809286Y-15470714D01*
X11780714Y-15456429D01*
X11766428Y-15427857D01*
X11766428Y-15399286D01*
X11780714Y-15370714D01*
X11809286Y-15356429D01*
X11880714Y-15356429D01*
X11909286Y-15342143D01*
X12052143Y-15270714D02*
X12052143Y-15570714D01*
X12052143Y-15285000D02*
X12080714Y-15270714D01*
X12137857Y-15270714D01*
X12166428Y-15285000D01*
X12180714Y-15299286D01*
X12195000Y-15327857D01*
X12195000Y-15413571D01*
X12180714Y-15442143D01*
X12166428Y-15456429D01*
X12137857Y-15470714D01*
X12080714Y-15470714D01*
X12052143Y-15456429D01*
X12323571Y-15442143D02*
X12337857Y-15456429D01*
X12323571Y-15470714D01*
X12309286Y-15456429D01*
X12323571Y-15442143D01*
X12323571Y-15470714D01*
X12323571Y-15285000D02*
X12337857Y-15299286D01*
X12323571Y-15313571D01*
X12309286Y-15299286D01*
X12323571Y-15285000D01*
X12323571Y-15313571D01*
X9931500Y-15933250D02*
X9995000Y-15996750D01*
X9995000Y-15933250D02*
X9931500Y-15996750D01*
X10323571Y-15800714D02*
X10352143Y-15800714D01*
X10380714Y-15815000D01*
X10395000Y-15829286D01*
X10409286Y-15857857D01*
X10423571Y-15915000D01*
X10423571Y-15986429D01*
X10409286Y-16043571D01*
X10395000Y-16072143D01*
X10380714Y-16086429D01*
X10352143Y-16100714D01*
X10323571Y-16100714D01*
X10295000Y-16086429D01*
X10280714Y-16072143D01*
X10266429Y-16043571D01*
X10252143Y-15986429D01*
X10252143Y-15915000D01*
X10266429Y-15857857D01*
X10280714Y-15829286D01*
X10295000Y-15815000D01*
X10323571Y-15800714D01*
X10552143Y-16072143D02*
X10566429Y-16086429D01*
X10552143Y-16100714D01*
X10537857Y-16086429D01*
X10552143Y-16072143D01*
X10552143Y-16100714D01*
X10823571Y-15800714D02*
X10766428Y-15800714D01*
X10737857Y-15815000D01*
X10723571Y-15829286D01*
X10695000Y-15872143D01*
X10680714Y-15929286D01*
X10680714Y-16043571D01*
X10695000Y-16072143D01*
X10709286Y-16086429D01*
X10737857Y-16100714D01*
X10795000Y-16100714D01*
X10823571Y-16086429D01*
X10837857Y-16072143D01*
X10852143Y-16043571D01*
X10852143Y-15972143D01*
X10837857Y-15943571D01*
X10823571Y-15929286D01*
X10795000Y-15915000D01*
X10737857Y-15915000D01*
X10709286Y-15929286D01*
X10695000Y-15943571D01*
X10680714Y-15972143D01*
X11109286Y-15900714D02*
X11109286Y-16100714D01*
X11037857Y-15786429D02*
X10966429Y-16000714D01*
X11152143Y-16000714D01*
X11266428Y-16100714D02*
X11266428Y-15900714D01*
X11266428Y-15929286D02*
X11280714Y-15915000D01*
X11309286Y-15900714D01*
X11352143Y-15900714D01*
X11380714Y-15915000D01*
X11395000Y-15943571D01*
X11395000Y-16100714D01*
X11395000Y-15943571D02*
X11409286Y-15915000D01*
X11437857Y-15900714D01*
X11480714Y-15900714D01*
X11509286Y-15915000D01*
X11523571Y-15943571D01*
X11523571Y-16100714D01*
X11666428Y-16100714D02*
X11666428Y-15900714D01*
X11666428Y-15929286D02*
X11680714Y-15915000D01*
X11709286Y-15900714D01*
X11752143Y-15900714D01*
X11780714Y-15915000D01*
X11795000Y-15943571D01*
X11795000Y-16100714D01*
X11795000Y-15943571D02*
X11809286Y-15915000D01*
X11837857Y-15900714D01*
X11880714Y-15900714D01*
X11909286Y-15915000D01*
X11923571Y-15943571D01*
X11923571Y-16100714D01*
X12509286Y-15786429D02*
X12252143Y-16172143D01*
X12895000Y-15800714D02*
X12923571Y-15800714D01*
X12952143Y-15815000D01*
X12966428Y-15829286D01*
X12980714Y-15857857D01*
X12995000Y-15915000D01*
X12995000Y-15986429D01*
X12980714Y-16043571D01*
X12966428Y-16072143D01*
X12952143Y-16086429D01*
X12923571Y-16100714D01*
X12895000Y-16100714D01*
X12866428Y-16086429D01*
X12852143Y-16072143D01*
X12837857Y-16043571D01*
X12823571Y-15986429D01*
X12823571Y-15915000D01*
X12837857Y-15857857D01*
X12852143Y-15829286D01*
X12866428Y-15815000D01*
X12895000Y-15800714D01*
X13123571Y-16072143D02*
X13137857Y-16086429D01*
X13123571Y-16100714D01*
X13109286Y-16086429D01*
X13123571Y-16072143D01*
X13123571Y-16100714D01*
X13323571Y-15800714D02*
X13352143Y-15800714D01*
X13380714Y-15815000D01*
X13395000Y-15829286D01*
X13409285Y-15857857D01*
X13423571Y-15915000D01*
X13423571Y-15986429D01*
X13409285Y-16043571D01*
X13395000Y-16072143D01*
X13380714Y-16086429D01*
X13352143Y-16100714D01*
X13323571Y-16100714D01*
X13295000Y-16086429D01*
X13280714Y-16072143D01*
X13266428Y-16043571D01*
X13252143Y-15986429D01*
X13252143Y-15915000D01*
X13266428Y-15857857D01*
X13280714Y-15829286D01*
X13295000Y-15815000D01*
X13323571Y-15800714D01*
X13537857Y-15829286D02*
X13552143Y-15815000D01*
X13580714Y-15800714D01*
X13652143Y-15800714D01*
X13680714Y-15815000D01*
X13695000Y-15829286D01*
X13709285Y-15857857D01*
X13709285Y-15886429D01*
X13695000Y-15929286D01*
X13523571Y-16100714D01*
X13709285Y-16100714D01*
X13980714Y-15800714D02*
X13837857Y-15800714D01*
X13823571Y-15943571D01*
X13837857Y-15929286D01*
X13866428Y-15915000D01*
X13937857Y-15915000D01*
X13966428Y-15929286D01*
X13980714Y-15943571D01*
X13995000Y-15972143D01*
X13995000Y-16043571D01*
X13980714Y-16072143D01*
X13966428Y-16086429D01*
X13937857Y-16100714D01*
X13866428Y-16100714D01*
X13837857Y-16086429D01*
X13823571Y-16072143D01*
X14109286Y-15800714D02*
X14109286Y-15857857D01*
X14223571Y-15800714D02*
X14223571Y-15857857D01*
X14666428Y-16215000D02*
X14652143Y-16200714D01*
X14623571Y-16157857D01*
X14609285Y-16129286D01*
X14595000Y-16086429D01*
X14580714Y-16015000D01*
X14580714Y-15957857D01*
X14595000Y-15886429D01*
X14609285Y-15843571D01*
X14623571Y-15815000D01*
X14652143Y-15772143D01*
X14666428Y-15757857D01*
X14937857Y-16100714D02*
X14766428Y-16100714D01*
X14852143Y-16100714D02*
X14852143Y-15800714D01*
X14823571Y-15843571D01*
X14795000Y-15872143D01*
X14766428Y-15886429D01*
X15052143Y-15829286D02*
X15066428Y-15815000D01*
X15095000Y-15800714D01*
X15166428Y-15800714D01*
X15195000Y-15815000D01*
X15209285Y-15829286D01*
X15223571Y-15857857D01*
X15223571Y-15886429D01*
X15209285Y-15929286D01*
X15037857Y-16100714D01*
X15223571Y-16100714D01*
X15509285Y-16100714D02*
X15337857Y-16100714D01*
X15423571Y-16100714D02*
X15423571Y-15800714D01*
X15395000Y-15843571D01*
X15366428Y-15872143D01*
X15337857Y-15886429D01*
X15866428Y-16100714D02*
X15866428Y-15800714D01*
X15995000Y-16100714D02*
X15995000Y-15943571D01*
X15980714Y-15915000D01*
X15952143Y-15900714D01*
X15909285Y-15900714D01*
X15880714Y-15915000D01*
X15866428Y-15929286D01*
X16180714Y-16100714D02*
X16152143Y-16086429D01*
X16137857Y-16072143D01*
X16123571Y-16043571D01*
X16123571Y-15957857D01*
X16137857Y-15929286D01*
X16152143Y-15915000D01*
X16180714Y-15900714D01*
X16223571Y-15900714D01*
X16252143Y-15915000D01*
X16266428Y-15929286D01*
X16280714Y-15957857D01*
X16280714Y-16043571D01*
X16266428Y-16072143D01*
X16252143Y-16086429D01*
X16223571Y-16100714D01*
X16180714Y-16100714D01*
X16452143Y-16100714D02*
X16423571Y-16086429D01*
X16409286Y-16057857D01*
X16409286Y-15800714D01*
X16680714Y-16086429D02*
X16652143Y-16100714D01*
X16595000Y-16100714D01*
X16566428Y-16086429D01*
X16552143Y-16057857D01*
X16552143Y-15943571D01*
X16566428Y-15915000D01*
X16595000Y-15900714D01*
X16652143Y-15900714D01*
X16680714Y-15915000D01*
X16695000Y-15943571D01*
X16695000Y-15972143D01*
X16552143Y-16000714D01*
X16809286Y-16086429D02*
X16837857Y-16100714D01*
X16895000Y-16100714D01*
X16923571Y-16086429D01*
X16937857Y-16057857D01*
X16937857Y-16043571D01*
X16923571Y-16015000D01*
X16895000Y-16000714D01*
X16852143Y-16000714D01*
X16823571Y-15986429D01*
X16809286Y-15957857D01*
X16809286Y-15943571D01*
X16823571Y-15915000D01*
X16852143Y-15900714D01*
X16895000Y-15900714D01*
X16923571Y-15915000D01*
X17037857Y-16215000D02*
X17052143Y-16200714D01*
X17080714Y-16157857D01*
X17095000Y-16129286D01*
X17109286Y-16086429D01*
X17123571Y-16015000D01*
X17123571Y-15957857D01*
X17109286Y-15886429D01*
X17095000Y-15843571D01*
X17080714Y-15815000D01*
X17052143Y-15772143D01*
X17037857Y-15757857D01*
X9995000Y-16361000D02*
G75*
G03X9995000Y-16361000I-40640J0D01*
G01*
X10323571Y-16196714D02*
X10352143Y-16196714D01*
X10380714Y-16211000D01*
X10395000Y-16225286D01*
X10409286Y-16253857D01*
X10423571Y-16311000D01*
X10423571Y-16382429D01*
X10409286Y-16439571D01*
X10395000Y-16468143D01*
X10380714Y-16482429D01*
X10352143Y-16496714D01*
X10323571Y-16496714D01*
X10295000Y-16482429D01*
X10280714Y-16468143D01*
X10266429Y-16439571D01*
X10252143Y-16382429D01*
X10252143Y-16311000D01*
X10266429Y-16253857D01*
X10280714Y-16225286D01*
X10295000Y-16211000D01*
X10323571Y-16196714D01*
X10552143Y-16468143D02*
X10566429Y-16482429D01*
X10552143Y-16496714D01*
X10537857Y-16482429D01*
X10552143Y-16468143D01*
X10552143Y-16496714D01*
X10737857Y-16325286D02*
X10709286Y-16311000D01*
X10695000Y-16296714D01*
X10680714Y-16268143D01*
X10680714Y-16253857D01*
X10695000Y-16225286D01*
X10709286Y-16211000D01*
X10737857Y-16196714D01*
X10795000Y-16196714D01*
X10823571Y-16211000D01*
X10837857Y-16225286D01*
X10852143Y-16253857D01*
X10852143Y-16268143D01*
X10837857Y-16296714D01*
X10823571Y-16311000D01*
X10795000Y-16325286D01*
X10737857Y-16325286D01*
X10709286Y-16339571D01*
X10695000Y-16353857D01*
X10680714Y-16382429D01*
X10680714Y-16439571D01*
X10695000Y-16468143D01*
X10709286Y-16482429D01*
X10737857Y-16496714D01*
X10795000Y-16496714D01*
X10823571Y-16482429D01*
X10837857Y-16468143D01*
X10852143Y-16439571D01*
X10852143Y-16382429D01*
X10837857Y-16353857D01*
X10823571Y-16339571D01*
X10795000Y-16325286D01*
X11137857Y-16496714D02*
X10966429Y-16496714D01*
X11052143Y-16496714D02*
X11052143Y-16196714D01*
X11023571Y-16239571D01*
X10995000Y-16268143D01*
X10966429Y-16282429D01*
X11266428Y-16496714D02*
X11266428Y-16296714D01*
X11266428Y-16325286D02*
X11280714Y-16311000D01*
X11309286Y-16296714D01*
X11352143Y-16296714D01*
X11380714Y-16311000D01*
X11395000Y-16339571D01*
X11395000Y-16496714D01*
X11395000Y-16339571D02*
X11409286Y-16311000D01*
X11437857Y-16296714D01*
X11480714Y-16296714D01*
X11509286Y-16311000D01*
X11523571Y-16339571D01*
X11523571Y-16496714D01*
X11666428Y-16496714D02*
X11666428Y-16296714D01*
X11666428Y-16325286D02*
X11680714Y-16311000D01*
X11709286Y-16296714D01*
X11752143Y-16296714D01*
X11780714Y-16311000D01*
X11795000Y-16339571D01*
X11795000Y-16496714D01*
X11795000Y-16339571D02*
X11809286Y-16311000D01*
X11837857Y-16296714D01*
X11880714Y-16296714D01*
X11909286Y-16311000D01*
X11923571Y-16339571D01*
X11923571Y-16496714D01*
X12509286Y-16182429D02*
X12252143Y-16568143D01*
X12895000Y-16196714D02*
X12923571Y-16196714D01*
X12952143Y-16211000D01*
X12966428Y-16225286D01*
X12980714Y-16253857D01*
X12995000Y-16311000D01*
X12995000Y-16382429D01*
X12980714Y-16439571D01*
X12966428Y-16468143D01*
X12952143Y-16482429D01*
X12923571Y-16496714D01*
X12895000Y-16496714D01*
X12866428Y-16482429D01*
X12852143Y-16468143D01*
X12837857Y-16439571D01*
X12823571Y-16382429D01*
X12823571Y-16311000D01*
X12837857Y-16253857D01*
X12852143Y-16225286D01*
X12866428Y-16211000D01*
X12895000Y-16196714D01*
X13123571Y-16468143D02*
X13137857Y-16482429D01*
X13123571Y-16496714D01*
X13109286Y-16482429D01*
X13123571Y-16468143D01*
X13123571Y-16496714D01*
X13323571Y-16196714D02*
X13352143Y-16196714D01*
X13380714Y-16211000D01*
X13395000Y-16225286D01*
X13409285Y-16253857D01*
X13423571Y-16311000D01*
X13423571Y-16382429D01*
X13409285Y-16439571D01*
X13395000Y-16468143D01*
X13380714Y-16482429D01*
X13352143Y-16496714D01*
X13323571Y-16496714D01*
X13295000Y-16482429D01*
X13280714Y-16468143D01*
X13266428Y-16439571D01*
X13252143Y-16382429D01*
X13252143Y-16311000D01*
X13266428Y-16253857D01*
X13280714Y-16225286D01*
X13295000Y-16211000D01*
X13323571Y-16196714D01*
X13523571Y-16196714D02*
X13709285Y-16196714D01*
X13609285Y-16311000D01*
X13652143Y-16311000D01*
X13680714Y-16325286D01*
X13695000Y-16339571D01*
X13709285Y-16368143D01*
X13709285Y-16439571D01*
X13695000Y-16468143D01*
X13680714Y-16482429D01*
X13652143Y-16496714D01*
X13566428Y-16496714D01*
X13537857Y-16482429D01*
X13523571Y-16468143D01*
X13823571Y-16225286D02*
X13837857Y-16211000D01*
X13866428Y-16196714D01*
X13937857Y-16196714D01*
X13966428Y-16211000D01*
X13980714Y-16225286D01*
X13995000Y-16253857D01*
X13995000Y-16282429D01*
X13980714Y-16325286D01*
X13809285Y-16496714D01*
X13995000Y-16496714D01*
X14109286Y-16196714D02*
X14109286Y-16253857D01*
X14223571Y-16196714D02*
X14223571Y-16253857D01*
X14666428Y-16611000D02*
X14652143Y-16596714D01*
X14623571Y-16553857D01*
X14609285Y-16525286D01*
X14595000Y-16482429D01*
X14580714Y-16411000D01*
X14580714Y-16353857D01*
X14595000Y-16282429D01*
X14609285Y-16239571D01*
X14623571Y-16211000D01*
X14652143Y-16168143D01*
X14666428Y-16153857D01*
X14909285Y-16196714D02*
X14852143Y-16196714D01*
X14823571Y-16211000D01*
X14809285Y-16225286D01*
X14780714Y-16268143D01*
X14766428Y-16325286D01*
X14766428Y-16439571D01*
X14780714Y-16468143D01*
X14795000Y-16482429D01*
X14823571Y-16496714D01*
X14880714Y-16496714D01*
X14909285Y-16482429D01*
X14923571Y-16468143D01*
X14937857Y-16439571D01*
X14937857Y-16368143D01*
X14923571Y-16339571D01*
X14909285Y-16325286D01*
X14880714Y-16311000D01*
X14823571Y-16311000D01*
X14795000Y-16325286D01*
X14780714Y-16339571D01*
X14766428Y-16368143D01*
X15037857Y-16196714D02*
X15237857Y-16196714D01*
X15109285Y-16496714D01*
X15580714Y-16496714D02*
X15580714Y-16196714D01*
X15709285Y-16496714D02*
X15709285Y-16339571D01*
X15695000Y-16311000D01*
X15666428Y-16296714D01*
X15623571Y-16296714D01*
X15595000Y-16311000D01*
X15580714Y-16325286D01*
X15895000Y-16496714D02*
X15866428Y-16482429D01*
X15852143Y-16468143D01*
X15837857Y-16439571D01*
X15837857Y-16353857D01*
X15852143Y-16325286D01*
X15866428Y-16311000D01*
X15895000Y-16296714D01*
X15937857Y-16296714D01*
X15966428Y-16311000D01*
X15980714Y-16325286D01*
X15995000Y-16353857D01*
X15995000Y-16439571D01*
X15980714Y-16468143D01*
X15966428Y-16482429D01*
X15937857Y-16496714D01*
X15895000Y-16496714D01*
X16166428Y-16496714D02*
X16137857Y-16482429D01*
X16123571Y-16453857D01*
X16123571Y-16196714D01*
X16395000Y-16482429D02*
X16366428Y-16496714D01*
X16309286Y-16496714D01*
X16280714Y-16482429D01*
X16266428Y-16453857D01*
X16266428Y-16339571D01*
X16280714Y-16311000D01*
X16309286Y-16296714D01*
X16366428Y-16296714D01*
X16395000Y-16311000D01*
X16409286Y-16339571D01*
X16409286Y-16368143D01*
X16266428Y-16396714D01*
X16523571Y-16482429D02*
X16552143Y-16496714D01*
X16609286Y-16496714D01*
X16637857Y-16482429D01*
X16652143Y-16453857D01*
X16652143Y-16439571D01*
X16637857Y-16411000D01*
X16609286Y-16396714D01*
X16566428Y-16396714D01*
X16537857Y-16382429D01*
X16523571Y-16353857D01*
X16523571Y-16339571D01*
X16537857Y-16311000D01*
X16566428Y-16296714D01*
X16609286Y-16296714D01*
X16637857Y-16311000D01*
X16752143Y-16611000D02*
X16766428Y-16596714D01*
X16795000Y-16553857D01*
X16809286Y-16525286D01*
X16823571Y-16482429D01*
X16837857Y-16411000D01*
X16837857Y-16353857D01*
X16823571Y-16282429D01*
X16809286Y-16239571D01*
X16795000Y-16211000D01*
X16766428Y-16168143D01*
X16752143Y-16153857D01*
X9944962Y-16706962D02*
X9944962Y-16807038D01*
X9894924Y-16757000D02*
X9995000Y-16757000D01*
X10423571Y-16892714D02*
X10252143Y-16892714D01*
X10337857Y-16892714D02*
X10337857Y-16592714D01*
X10309286Y-16635571D01*
X10280714Y-16664143D01*
X10252143Y-16678429D01*
X10552143Y-16864143D02*
X10566429Y-16878429D01*
X10552143Y-16892714D01*
X10537857Y-16878429D01*
X10552143Y-16864143D01*
X10552143Y-16892714D01*
X10752143Y-16592714D02*
X10780714Y-16592714D01*
X10809286Y-16607000D01*
X10823571Y-16621286D01*
X10837857Y-16649857D01*
X10852143Y-16707000D01*
X10852143Y-16778429D01*
X10837857Y-16835572D01*
X10823571Y-16864143D01*
X10809286Y-16878429D01*
X10780714Y-16892714D01*
X10752143Y-16892714D01*
X10723571Y-16878429D01*
X10709286Y-16864143D01*
X10695000Y-16835572D01*
X10680714Y-16778429D01*
X10680714Y-16707000D01*
X10695000Y-16649857D01*
X10709286Y-16621286D01*
X10723571Y-16607000D01*
X10752143Y-16592714D01*
X11037857Y-16592714D02*
X11066429Y-16592714D01*
X11095000Y-16607000D01*
X11109286Y-16621286D01*
X11123571Y-16649857D01*
X11137857Y-16707000D01*
X11137857Y-16778429D01*
X11123571Y-16835572D01*
X11109286Y-16864143D01*
X11095000Y-16878429D01*
X11066429Y-16892714D01*
X11037857Y-16892714D01*
X11009286Y-16878429D01*
X10995000Y-16864143D01*
X10980714Y-16835572D01*
X10966429Y-16778429D01*
X10966429Y-16707000D01*
X10980714Y-16649857D01*
X10995000Y-16621286D01*
X11009286Y-16607000D01*
X11037857Y-16592714D01*
X11266428Y-16892714D02*
X11266428Y-16692714D01*
X11266428Y-16721286D02*
X11280714Y-16707000D01*
X11309286Y-16692714D01*
X11352143Y-16692714D01*
X11380714Y-16707000D01*
X11395000Y-16735571D01*
X11395000Y-16892714D01*
X11395000Y-16735571D02*
X11409286Y-16707000D01*
X11437857Y-16692714D01*
X11480714Y-16692714D01*
X11509286Y-16707000D01*
X11523571Y-16735571D01*
X11523571Y-16892714D01*
X11666428Y-16892714D02*
X11666428Y-16692714D01*
X11666428Y-16721286D02*
X11680714Y-16707000D01*
X11709286Y-16692714D01*
X11752143Y-16692714D01*
X11780714Y-16707000D01*
X11795000Y-16735571D01*
X11795000Y-16892714D01*
X11795000Y-16735571D02*
X11809286Y-16707000D01*
X11837857Y-16692714D01*
X11880714Y-16692714D01*
X11909286Y-16707000D01*
X11923571Y-16735571D01*
X11923571Y-16892714D01*
X12509286Y-16578429D02*
X12252143Y-16964143D01*
X12895000Y-16592714D02*
X12923571Y-16592714D01*
X12952143Y-16607000D01*
X12966428Y-16621286D01*
X12980714Y-16649857D01*
X12995000Y-16707000D01*
X12995000Y-16778429D01*
X12980714Y-16835572D01*
X12966428Y-16864143D01*
X12952143Y-16878429D01*
X12923571Y-16892714D01*
X12895000Y-16892714D01*
X12866428Y-16878429D01*
X12852143Y-16864143D01*
X12837857Y-16835572D01*
X12823571Y-16778429D01*
X12823571Y-16707000D01*
X12837857Y-16649857D01*
X12852143Y-16621286D01*
X12866428Y-16607000D01*
X12895000Y-16592714D01*
X13123571Y-16864143D02*
X13137857Y-16878429D01*
X13123571Y-16892714D01*
X13109286Y-16878429D01*
X13123571Y-16864143D01*
X13123571Y-16892714D01*
X13323571Y-16592714D02*
X13352143Y-16592714D01*
X13380714Y-16607000D01*
X13395000Y-16621286D01*
X13409285Y-16649857D01*
X13423571Y-16707000D01*
X13423571Y-16778429D01*
X13409285Y-16835572D01*
X13395000Y-16864143D01*
X13380714Y-16878429D01*
X13352143Y-16892714D01*
X13323571Y-16892714D01*
X13295000Y-16878429D01*
X13280714Y-16864143D01*
X13266428Y-16835572D01*
X13252143Y-16778429D01*
X13252143Y-16707000D01*
X13266428Y-16649857D01*
X13280714Y-16621286D01*
X13295000Y-16607000D01*
X13323571Y-16592714D01*
X13523571Y-16592714D02*
X13709285Y-16592714D01*
X13609285Y-16707000D01*
X13652143Y-16707000D01*
X13680714Y-16721286D01*
X13695000Y-16735571D01*
X13709285Y-16764143D01*
X13709285Y-16835572D01*
X13695000Y-16864143D01*
X13680714Y-16878429D01*
X13652143Y-16892714D01*
X13566428Y-16892714D01*
X13537857Y-16878429D01*
X13523571Y-16864143D01*
X13852143Y-16892714D02*
X13909285Y-16892714D01*
X13937857Y-16878429D01*
X13952143Y-16864143D01*
X13980714Y-16821286D01*
X13995000Y-16764143D01*
X13995000Y-16649857D01*
X13980714Y-16621286D01*
X13966428Y-16607000D01*
X13937857Y-16592714D01*
X13880714Y-16592714D01*
X13852143Y-16607000D01*
X13837857Y-16621286D01*
X13823571Y-16649857D01*
X13823571Y-16721286D01*
X13837857Y-16749857D01*
X13852143Y-16764143D01*
X13880714Y-16778429D01*
X13937857Y-16778429D01*
X13966428Y-16764143D01*
X13980714Y-16749857D01*
X13995000Y-16721286D01*
X14109286Y-16592714D02*
X14109286Y-16649857D01*
X14223571Y-16592714D02*
X14223571Y-16649857D01*
X14666428Y-17007000D02*
X14652143Y-16992714D01*
X14623571Y-16949857D01*
X14609285Y-16921286D01*
X14595000Y-16878429D01*
X14580714Y-16807000D01*
X14580714Y-16749857D01*
X14595000Y-16678429D01*
X14609285Y-16635571D01*
X14623571Y-16607000D01*
X14652143Y-16564143D01*
X14666428Y-16549857D01*
X14752143Y-16592714D02*
X14937857Y-16592714D01*
X14837857Y-16707000D01*
X14880714Y-16707000D01*
X14909285Y-16721286D01*
X14923571Y-16735571D01*
X14937857Y-16764143D01*
X14937857Y-16835572D01*
X14923571Y-16864143D01*
X14909285Y-16878429D01*
X14880714Y-16892714D01*
X14795000Y-16892714D01*
X14766428Y-16878429D01*
X14752143Y-16864143D01*
X15037857Y-16592714D02*
X15223571Y-16592714D01*
X15123571Y-16707000D01*
X15166428Y-16707000D01*
X15195000Y-16721286D01*
X15209285Y-16735571D01*
X15223571Y-16764143D01*
X15223571Y-16835572D01*
X15209285Y-16864143D01*
X15195000Y-16878429D01*
X15166428Y-16892714D01*
X15080714Y-16892714D01*
X15052143Y-16878429D01*
X15037857Y-16864143D01*
X15580714Y-16892714D02*
X15580714Y-16592714D01*
X15709285Y-16892714D02*
X15709285Y-16735571D01*
X15695000Y-16707000D01*
X15666428Y-16692714D01*
X15623571Y-16692714D01*
X15595000Y-16707000D01*
X15580714Y-16721286D01*
X15895000Y-16892714D02*
X15866428Y-16878429D01*
X15852143Y-16864143D01*
X15837857Y-16835572D01*
X15837857Y-16749857D01*
X15852143Y-16721286D01*
X15866428Y-16707000D01*
X15895000Y-16692714D01*
X15937857Y-16692714D01*
X15966428Y-16707000D01*
X15980714Y-16721286D01*
X15995000Y-16749857D01*
X15995000Y-16835572D01*
X15980714Y-16864143D01*
X15966428Y-16878429D01*
X15937857Y-16892714D01*
X15895000Y-16892714D01*
X16166428Y-16892714D02*
X16137857Y-16878429D01*
X16123571Y-16849857D01*
X16123571Y-16592714D01*
X16395000Y-16878429D02*
X16366428Y-16892714D01*
X16309286Y-16892714D01*
X16280714Y-16878429D01*
X16266428Y-16849857D01*
X16266428Y-16735571D01*
X16280714Y-16707000D01*
X16309286Y-16692714D01*
X16366428Y-16692714D01*
X16395000Y-16707000D01*
X16409286Y-16735571D01*
X16409286Y-16764143D01*
X16266428Y-16792714D01*
X16523571Y-16878429D02*
X16552143Y-16892714D01*
X16609286Y-16892714D01*
X16637857Y-16878429D01*
X16652143Y-16849857D01*
X16652143Y-16835572D01*
X16637857Y-16807000D01*
X16609286Y-16792714D01*
X16566428Y-16792714D01*
X16537857Y-16778429D01*
X16523571Y-16749857D01*
X16523571Y-16735571D01*
X16537857Y-16707000D01*
X16566428Y-16692714D01*
X16609286Y-16692714D01*
X16637857Y-16707000D01*
X16752143Y-17007000D02*
X16766428Y-16992714D01*
X16795000Y-16949857D01*
X16809286Y-16921286D01*
X16823571Y-16878429D01*
X16837857Y-16807000D01*
X16837857Y-16749857D01*
X16823571Y-16678429D01*
X16809286Y-16635571D01*
X16795000Y-16607000D01*
X16766428Y-16564143D01*
X16752143Y-16549857D01*
X9980121Y-17188922D02*
X9980121Y-17117079D01*
X9908279Y-17117079D01*
X9908279Y-17188922D01*
X9980121Y-17188922D01*
X10423571Y-17288714D02*
X10252143Y-17288714D01*
X10337857Y-17288714D02*
X10337857Y-16988714D01*
X10309286Y-17031572D01*
X10280714Y-17060143D01*
X10252143Y-17074429D01*
X10552143Y-17260143D02*
X10566429Y-17274429D01*
X10552143Y-17288714D01*
X10537857Y-17274429D01*
X10552143Y-17260143D01*
X10552143Y-17288714D01*
X10752143Y-16988714D02*
X10780714Y-16988714D01*
X10809286Y-17003000D01*
X10823571Y-17017286D01*
X10837857Y-17045857D01*
X10852143Y-17103000D01*
X10852143Y-17174429D01*
X10837857Y-17231572D01*
X10823571Y-17260143D01*
X10809286Y-17274429D01*
X10780714Y-17288714D01*
X10752143Y-17288714D01*
X10723571Y-17274429D01*
X10709286Y-17260143D01*
X10695000Y-17231572D01*
X10680714Y-17174429D01*
X10680714Y-17103000D01*
X10695000Y-17045857D01*
X10709286Y-17017286D01*
X10723571Y-17003000D01*
X10752143Y-16988714D01*
X10966429Y-17017286D02*
X10980714Y-17003000D01*
X11009286Y-16988714D01*
X11080714Y-16988714D01*
X11109286Y-17003000D01*
X11123571Y-17017286D01*
X11137857Y-17045857D01*
X11137857Y-17074429D01*
X11123571Y-17117286D01*
X10952143Y-17288714D01*
X11137857Y-17288714D01*
X11266428Y-17288714D02*
X11266428Y-17088714D01*
X11266428Y-17117286D02*
X11280714Y-17103000D01*
X11309286Y-17088714D01*
X11352143Y-17088714D01*
X11380714Y-17103000D01*
X11395000Y-17131572D01*
X11395000Y-17288714D01*
X11395000Y-17131572D02*
X11409286Y-17103000D01*
X11437857Y-17088714D01*
X11480714Y-17088714D01*
X11509286Y-17103000D01*
X11523571Y-17131572D01*
X11523571Y-17288714D01*
X11666428Y-17288714D02*
X11666428Y-17088714D01*
X11666428Y-17117286D02*
X11680714Y-17103000D01*
X11709286Y-17088714D01*
X11752143Y-17088714D01*
X11780714Y-17103000D01*
X11795000Y-17131572D01*
X11795000Y-17288714D01*
X11795000Y-17131572D02*
X11809286Y-17103000D01*
X11837857Y-17088714D01*
X11880714Y-17088714D01*
X11909286Y-17103000D01*
X11923571Y-17131572D01*
X11923571Y-17288714D01*
X12509286Y-16974429D02*
X12252143Y-17360143D01*
X12895000Y-16988714D02*
X12923571Y-16988714D01*
X12952143Y-17003000D01*
X12966428Y-17017286D01*
X12980714Y-17045857D01*
X12995000Y-17103000D01*
X12995000Y-17174429D01*
X12980714Y-17231572D01*
X12966428Y-17260143D01*
X12952143Y-17274429D01*
X12923571Y-17288714D01*
X12895000Y-17288714D01*
X12866428Y-17274429D01*
X12852143Y-17260143D01*
X12837857Y-17231572D01*
X12823571Y-17174429D01*
X12823571Y-17103000D01*
X12837857Y-17045857D01*
X12852143Y-17017286D01*
X12866428Y-17003000D01*
X12895000Y-16988714D01*
X13123571Y-17260143D02*
X13137857Y-17274429D01*
X13123571Y-17288714D01*
X13109286Y-17274429D01*
X13123571Y-17260143D01*
X13123571Y-17288714D01*
X13323571Y-16988714D02*
X13352143Y-16988714D01*
X13380714Y-17003000D01*
X13395000Y-17017286D01*
X13409285Y-17045857D01*
X13423571Y-17103000D01*
X13423571Y-17174429D01*
X13409285Y-17231572D01*
X13395000Y-17260143D01*
X13380714Y-17274429D01*
X13352143Y-17288714D01*
X13323571Y-17288714D01*
X13295000Y-17274429D01*
X13280714Y-17260143D01*
X13266428Y-17231572D01*
X13252143Y-17174429D01*
X13252143Y-17103000D01*
X13266428Y-17045857D01*
X13280714Y-17017286D01*
X13295000Y-17003000D01*
X13323571Y-16988714D01*
X13680714Y-17088714D02*
X13680714Y-17288714D01*
X13609285Y-16974429D02*
X13537857Y-17188714D01*
X13723571Y-17188714D01*
X13895000Y-16988714D02*
X13923571Y-16988714D01*
X13952143Y-17003000D01*
X13966428Y-17017286D01*
X13980714Y-17045857D01*
X13995000Y-17103000D01*
X13995000Y-17174429D01*
X13980714Y-17231572D01*
X13966428Y-17260143D01*
X13952143Y-17274429D01*
X13923571Y-17288714D01*
X13895000Y-17288714D01*
X13866428Y-17274429D01*
X13852143Y-17260143D01*
X13837857Y-17231572D01*
X13823571Y-17174429D01*
X13823571Y-17103000D01*
X13837857Y-17045857D01*
X13852143Y-17017286D01*
X13866428Y-17003000D01*
X13895000Y-16988714D01*
X14109286Y-16988714D02*
X14109286Y-17045857D01*
X14223571Y-16988714D02*
X14223571Y-17045857D01*
X14666428Y-17403000D02*
X14652143Y-17388714D01*
X14623571Y-17345857D01*
X14609285Y-17317286D01*
X14595000Y-17274429D01*
X14580714Y-17203000D01*
X14580714Y-17145857D01*
X14595000Y-17074429D01*
X14609285Y-17031572D01*
X14623571Y-17003000D01*
X14652143Y-16960143D01*
X14666428Y-16945857D01*
X14909285Y-17088714D02*
X14909285Y-17288714D01*
X14837857Y-16974429D02*
X14766428Y-17188714D01*
X14952143Y-17188714D01*
X15080714Y-17288714D02*
X15137857Y-17288714D01*
X15166428Y-17274429D01*
X15180714Y-17260143D01*
X15209285Y-17217286D01*
X15223571Y-17160143D01*
X15223571Y-17045857D01*
X15209285Y-17017286D01*
X15195000Y-17003000D01*
X15166428Y-16988714D01*
X15109285Y-16988714D01*
X15080714Y-17003000D01*
X15066428Y-17017286D01*
X15052143Y-17045857D01*
X15052143Y-17117286D01*
X15066428Y-17145857D01*
X15080714Y-17160143D01*
X15109285Y-17174429D01*
X15166428Y-17174429D01*
X15195000Y-17160143D01*
X15209285Y-17145857D01*
X15223571Y-17117286D01*
X15580714Y-17288714D02*
X15580714Y-16988714D01*
X15709285Y-17288714D02*
X15709285Y-17131572D01*
X15695000Y-17103000D01*
X15666428Y-17088714D01*
X15623571Y-17088714D01*
X15595000Y-17103000D01*
X15580714Y-17117286D01*
X15895000Y-17288714D02*
X15866428Y-17274429D01*
X15852143Y-17260143D01*
X15837857Y-17231572D01*
X15837857Y-17145857D01*
X15852143Y-17117286D01*
X15866428Y-17103000D01*
X15895000Y-17088714D01*
X15937857Y-17088714D01*
X15966428Y-17103000D01*
X15980714Y-17117286D01*
X15995000Y-17145857D01*
X15995000Y-17231572D01*
X15980714Y-17260143D01*
X15966428Y-17274429D01*
X15937857Y-17288714D01*
X15895000Y-17288714D01*
X16166428Y-17288714D02*
X16137857Y-17274429D01*
X16123571Y-17245857D01*
X16123571Y-16988714D01*
X16395000Y-17274429D02*
X16366428Y-17288714D01*
X16309286Y-17288714D01*
X16280714Y-17274429D01*
X16266428Y-17245857D01*
X16266428Y-17131572D01*
X16280714Y-17103000D01*
X16309286Y-17088714D01*
X16366428Y-17088714D01*
X16395000Y-17103000D01*
X16409286Y-17131572D01*
X16409286Y-17160143D01*
X16266428Y-17188714D01*
X16523571Y-17274429D02*
X16552143Y-17288714D01*
X16609286Y-17288714D01*
X16637857Y-17274429D01*
X16652143Y-17245857D01*
X16652143Y-17231572D01*
X16637857Y-17203000D01*
X16609286Y-17188714D01*
X16566428Y-17188714D01*
X16537857Y-17174429D01*
X16523571Y-17145857D01*
X16523571Y-17131572D01*
X16537857Y-17103000D01*
X16566428Y-17088714D01*
X16609286Y-17088714D01*
X16637857Y-17103000D01*
X16752143Y-17403000D02*
X16766428Y-17388714D01*
X16795000Y-17345857D01*
X16809286Y-17317286D01*
X16823571Y-17274429D01*
X16837857Y-17203000D01*
X16837857Y-17145857D01*
X16823571Y-17074429D01*
X16809286Y-17031572D01*
X16795000Y-17003000D01*
X16766428Y-16960143D01*
X16752143Y-16945857D01*
X9920000Y-17624000D02*
X9995000Y-17549000D01*
X9920000Y-17474000D01*
X9845000Y-17549000D01*
X9920000Y-17624000D01*
X10423571Y-17684714D02*
X10252143Y-17684714D01*
X10337857Y-17684714D02*
X10337857Y-17384714D01*
X10309286Y-17427572D01*
X10280714Y-17456143D01*
X10252143Y-17470429D01*
X10552143Y-17656143D02*
X10566429Y-17670429D01*
X10552143Y-17684714D01*
X10537857Y-17670429D01*
X10552143Y-17656143D01*
X10552143Y-17684714D01*
X10837857Y-17384714D02*
X10695000Y-17384714D01*
X10680714Y-17527572D01*
X10695000Y-17513286D01*
X10723571Y-17499000D01*
X10795000Y-17499000D01*
X10823571Y-17513286D01*
X10837857Y-17527572D01*
X10852143Y-17556143D01*
X10852143Y-17627572D01*
X10837857Y-17656143D01*
X10823571Y-17670429D01*
X10795000Y-17684714D01*
X10723571Y-17684714D01*
X10695000Y-17670429D01*
X10680714Y-17656143D01*
X11037857Y-17384714D02*
X11066429Y-17384714D01*
X11095000Y-17399000D01*
X11109286Y-17413286D01*
X11123571Y-17441857D01*
X11137857Y-17499000D01*
X11137857Y-17570429D01*
X11123571Y-17627572D01*
X11109286Y-17656143D01*
X11095000Y-17670429D01*
X11066429Y-17684714D01*
X11037857Y-17684714D01*
X11009286Y-17670429D01*
X10995000Y-17656143D01*
X10980714Y-17627572D01*
X10966429Y-17570429D01*
X10966429Y-17499000D01*
X10980714Y-17441857D01*
X10995000Y-17413286D01*
X11009286Y-17399000D01*
X11037857Y-17384714D01*
X11266428Y-17684714D02*
X11266428Y-17484714D01*
X11266428Y-17513286D02*
X11280714Y-17499000D01*
X11309286Y-17484714D01*
X11352143Y-17484714D01*
X11380714Y-17499000D01*
X11395000Y-17527572D01*
X11395000Y-17684714D01*
X11395000Y-17527572D02*
X11409286Y-17499000D01*
X11437857Y-17484714D01*
X11480714Y-17484714D01*
X11509286Y-17499000D01*
X11523571Y-17527572D01*
X11523571Y-17684714D01*
X11666428Y-17684714D02*
X11666428Y-17484714D01*
X11666428Y-17513286D02*
X11680714Y-17499000D01*
X11709286Y-17484714D01*
X11752143Y-17484714D01*
X11780714Y-17499000D01*
X11795000Y-17527572D01*
X11795000Y-17684714D01*
X11795000Y-17527572D02*
X11809286Y-17499000D01*
X11837857Y-17484714D01*
X11880714Y-17484714D01*
X11909286Y-17499000D01*
X11923571Y-17527572D01*
X11923571Y-17684714D01*
X12509286Y-17370429D02*
X12252143Y-17756143D01*
X12895000Y-17384714D02*
X12923571Y-17384714D01*
X12952143Y-17399000D01*
X12966428Y-17413286D01*
X12980714Y-17441857D01*
X12995000Y-17499000D01*
X12995000Y-17570429D01*
X12980714Y-17627572D01*
X12966428Y-17656143D01*
X12952143Y-17670429D01*
X12923571Y-17684714D01*
X12895000Y-17684714D01*
X12866428Y-17670429D01*
X12852143Y-17656143D01*
X12837857Y-17627572D01*
X12823571Y-17570429D01*
X12823571Y-17499000D01*
X12837857Y-17441857D01*
X12852143Y-17413286D01*
X12866428Y-17399000D01*
X12895000Y-17384714D01*
X13123571Y-17656143D02*
X13137857Y-17670429D01*
X13123571Y-17684714D01*
X13109286Y-17670429D01*
X13123571Y-17656143D01*
X13123571Y-17684714D01*
X13323571Y-17384714D02*
X13352143Y-17384714D01*
X13380714Y-17399000D01*
X13395000Y-17413286D01*
X13409285Y-17441857D01*
X13423571Y-17499000D01*
X13423571Y-17570429D01*
X13409285Y-17627572D01*
X13395000Y-17656143D01*
X13380714Y-17670429D01*
X13352143Y-17684714D01*
X13323571Y-17684714D01*
X13295000Y-17670429D01*
X13280714Y-17656143D01*
X13266428Y-17627572D01*
X13252143Y-17570429D01*
X13252143Y-17499000D01*
X13266428Y-17441857D01*
X13280714Y-17413286D01*
X13295000Y-17399000D01*
X13323571Y-17384714D01*
X13695000Y-17384714D02*
X13552143Y-17384714D01*
X13537857Y-17527572D01*
X13552143Y-17513286D01*
X13580714Y-17499000D01*
X13652143Y-17499000D01*
X13680714Y-17513286D01*
X13695000Y-17527572D01*
X13709285Y-17556143D01*
X13709285Y-17627572D01*
X13695000Y-17656143D01*
X13680714Y-17670429D01*
X13652143Y-17684714D01*
X13580714Y-17684714D01*
X13552143Y-17670429D01*
X13537857Y-17656143D01*
X13852143Y-17684714D02*
X13909285Y-17684714D01*
X13937857Y-17670429D01*
X13952143Y-17656143D01*
X13980714Y-17613286D01*
X13995000Y-17556143D01*
X13995000Y-17441857D01*
X13980714Y-17413286D01*
X13966428Y-17399000D01*
X13937857Y-17384714D01*
X13880714Y-17384714D01*
X13852143Y-17399000D01*
X13837857Y-17413286D01*
X13823571Y-17441857D01*
X13823571Y-17513286D01*
X13837857Y-17541857D01*
X13852143Y-17556143D01*
X13880714Y-17570429D01*
X13937857Y-17570429D01*
X13966428Y-17556143D01*
X13980714Y-17541857D01*
X13995000Y-17513286D01*
X14109286Y-17384714D02*
X14109286Y-17441857D01*
X14223571Y-17384714D02*
X14223571Y-17441857D01*
X14666428Y-17799000D02*
X14652143Y-17784714D01*
X14623571Y-17741857D01*
X14609285Y-17713286D01*
X14595000Y-17670429D01*
X14580714Y-17599000D01*
X14580714Y-17541857D01*
X14595000Y-17470429D01*
X14609285Y-17427572D01*
X14623571Y-17399000D01*
X14652143Y-17356143D01*
X14666428Y-17341857D01*
X14766428Y-17413286D02*
X14780714Y-17399000D01*
X14809285Y-17384714D01*
X14880714Y-17384714D01*
X14909285Y-17399000D01*
X14923571Y-17413286D01*
X14937857Y-17441857D01*
X14937857Y-17470429D01*
X14923571Y-17513286D01*
X14752143Y-17684714D01*
X14937857Y-17684714D01*
X15295000Y-17684714D02*
X15295000Y-17384714D01*
X15423571Y-17684714D02*
X15423571Y-17527572D01*
X15409285Y-17499000D01*
X15380714Y-17484714D01*
X15337857Y-17484714D01*
X15309285Y-17499000D01*
X15295000Y-17513286D01*
X15609285Y-17684714D02*
X15580714Y-17670429D01*
X15566428Y-17656143D01*
X15552143Y-17627572D01*
X15552143Y-17541857D01*
X15566428Y-17513286D01*
X15580714Y-17499000D01*
X15609285Y-17484714D01*
X15652143Y-17484714D01*
X15680714Y-17499000D01*
X15695000Y-17513286D01*
X15709285Y-17541857D01*
X15709285Y-17627572D01*
X15695000Y-17656143D01*
X15680714Y-17670429D01*
X15652143Y-17684714D01*
X15609285Y-17684714D01*
X15880714Y-17684714D02*
X15852143Y-17670429D01*
X15837857Y-17641857D01*
X15837857Y-17384714D01*
X16109286Y-17670429D02*
X16080714Y-17684714D01*
X16023571Y-17684714D01*
X15995000Y-17670429D01*
X15980714Y-17641857D01*
X15980714Y-17527572D01*
X15995000Y-17499000D01*
X16023571Y-17484714D01*
X16080714Y-17484714D01*
X16109286Y-17499000D01*
X16123571Y-17527572D01*
X16123571Y-17556143D01*
X15980714Y-17584714D01*
X16237857Y-17670429D02*
X16266428Y-17684714D01*
X16323571Y-17684714D01*
X16352143Y-17670429D01*
X16366428Y-17641857D01*
X16366428Y-17627572D01*
X16352143Y-17599000D01*
X16323571Y-17584714D01*
X16280714Y-17584714D01*
X16252143Y-17570429D01*
X16237857Y-17541857D01*
X16237857Y-17527572D01*
X16252143Y-17499000D01*
X16280714Y-17484714D01*
X16323571Y-17484714D01*
X16352143Y-17499000D01*
X16466428Y-17799000D02*
X16480714Y-17784714D01*
X16509286Y-17741857D01*
X16523571Y-17713286D01*
X16537857Y-17670429D01*
X16552143Y-17599000D01*
X16552143Y-17541857D01*
X16537857Y-17470429D01*
X16523571Y-17427572D01*
X16509286Y-17399000D01*
X16480714Y-17356143D01*
X16466428Y-17341857D01*
X9724998Y-17809999D02*
X9995000Y-18080001D01*
X9995000Y-17809999D02*
X9724998Y-18080001D01*
X9995000Y-17945000D02*
G75*
G03X9995000Y-17945000I-135001J0D01*
G01*
X10252143Y-17809286D02*
X10266429Y-17795000D01*
X10295000Y-17780714D01*
X10366429Y-17780714D01*
X10395000Y-17795000D01*
X10409286Y-17809286D01*
X10423571Y-17837857D01*
X10423571Y-17866429D01*
X10409286Y-17909286D01*
X10237857Y-18080714D01*
X10423571Y-18080714D01*
X10552143Y-18052143D02*
X10566429Y-18066429D01*
X10552143Y-18080714D01*
X10537857Y-18066429D01*
X10552143Y-18052143D01*
X10552143Y-18080714D01*
X10666428Y-17780714D02*
X10866428Y-17780714D01*
X10737857Y-18080714D01*
X11037857Y-17780714D02*
X11066429Y-17780714D01*
X11095000Y-17795000D01*
X11109286Y-17809286D01*
X11123571Y-17837857D01*
X11137857Y-17895000D01*
X11137857Y-17966429D01*
X11123571Y-18023572D01*
X11109286Y-18052143D01*
X11095000Y-18066429D01*
X11066429Y-18080714D01*
X11037857Y-18080714D01*
X11009286Y-18066429D01*
X10995000Y-18052143D01*
X10980714Y-18023572D01*
X10966429Y-17966429D01*
X10966429Y-17895000D01*
X10980714Y-17837857D01*
X10995000Y-17809286D01*
X11009286Y-17795000D01*
X11037857Y-17780714D01*
X11266428Y-18080714D02*
X11266428Y-17880714D01*
X11266428Y-17909286D02*
X11280714Y-17895000D01*
X11309286Y-17880714D01*
X11352143Y-17880714D01*
X11380714Y-17895000D01*
X11395000Y-17923572D01*
X11395000Y-18080714D01*
X11395000Y-17923572D02*
X11409286Y-17895000D01*
X11437857Y-17880714D01*
X11480714Y-17880714D01*
X11509286Y-17895000D01*
X11523571Y-17923572D01*
X11523571Y-18080714D01*
X11666428Y-18080714D02*
X11666428Y-17880714D01*
X11666428Y-17909286D02*
X11680714Y-17895000D01*
X11709286Y-17880714D01*
X11752143Y-17880714D01*
X11780714Y-17895000D01*
X11795000Y-17923572D01*
X11795000Y-18080714D01*
X11795000Y-17923572D02*
X11809286Y-17895000D01*
X11837857Y-17880714D01*
X11880714Y-17880714D01*
X11909286Y-17895000D01*
X11923571Y-17923572D01*
X11923571Y-18080714D01*
X12509286Y-17766429D02*
X12252143Y-18152143D01*
X12895000Y-17780714D02*
X12923571Y-17780714D01*
X12952143Y-17795000D01*
X12966428Y-17809286D01*
X12980714Y-17837857D01*
X12995000Y-17895000D01*
X12995000Y-17966429D01*
X12980714Y-18023572D01*
X12966428Y-18052143D01*
X12952143Y-18066429D01*
X12923571Y-18080714D01*
X12895000Y-18080714D01*
X12866428Y-18066429D01*
X12852143Y-18052143D01*
X12837857Y-18023572D01*
X12823571Y-17966429D01*
X12823571Y-17895000D01*
X12837857Y-17837857D01*
X12852143Y-17809286D01*
X12866428Y-17795000D01*
X12895000Y-17780714D01*
X13123571Y-18052143D02*
X13137857Y-18066429D01*
X13123571Y-18080714D01*
X13109286Y-18066429D01*
X13123571Y-18052143D01*
X13123571Y-18080714D01*
X13423571Y-18080714D02*
X13252143Y-18080714D01*
X13337857Y-18080714D02*
X13337857Y-17780714D01*
X13309285Y-17823572D01*
X13280714Y-17852143D01*
X13252143Y-17866429D01*
X13609285Y-17780714D02*
X13637857Y-17780714D01*
X13666428Y-17795000D01*
X13680714Y-17809286D01*
X13695000Y-17837857D01*
X13709285Y-17895000D01*
X13709285Y-17966429D01*
X13695000Y-18023572D01*
X13680714Y-18052143D01*
X13666428Y-18066429D01*
X13637857Y-18080714D01*
X13609285Y-18080714D01*
X13580714Y-18066429D01*
X13566428Y-18052143D01*
X13552143Y-18023572D01*
X13537857Y-17966429D01*
X13537857Y-17895000D01*
X13552143Y-17837857D01*
X13566428Y-17809286D01*
X13580714Y-17795000D01*
X13609285Y-17780714D01*
X13966428Y-17780714D02*
X13909285Y-17780714D01*
X13880714Y-17795000D01*
X13866428Y-17809286D01*
X13837857Y-17852143D01*
X13823571Y-17909286D01*
X13823571Y-18023572D01*
X13837857Y-18052143D01*
X13852143Y-18066429D01*
X13880714Y-18080714D01*
X13937857Y-18080714D01*
X13966428Y-18066429D01*
X13980714Y-18052143D01*
X13995000Y-18023572D01*
X13995000Y-17952143D01*
X13980714Y-17923572D01*
X13966428Y-17909286D01*
X13937857Y-17895000D01*
X13880714Y-17895000D01*
X13852143Y-17909286D01*
X13837857Y-17923572D01*
X13823571Y-17952143D01*
X14109286Y-17780714D02*
X14109286Y-17837857D01*
X14223571Y-17780714D02*
X14223571Y-17837857D01*
X14666428Y-18195000D02*
X14652143Y-18180714D01*
X14623571Y-18137857D01*
X14609285Y-18109286D01*
X14595000Y-18066429D01*
X14580714Y-17995000D01*
X14580714Y-17937857D01*
X14595000Y-17866429D01*
X14609285Y-17823572D01*
X14623571Y-17795000D01*
X14652143Y-17752143D01*
X14666428Y-17737857D01*
X14937857Y-18080714D02*
X14766428Y-18080714D01*
X14852143Y-18080714D02*
X14852143Y-17780714D01*
X14823571Y-17823572D01*
X14795000Y-17852143D01*
X14766428Y-17866429D01*
X15295000Y-18080714D02*
X15295000Y-17780714D01*
X15423571Y-18080714D02*
X15423571Y-17923572D01*
X15409285Y-17895000D01*
X15380714Y-17880714D01*
X15337857Y-17880714D01*
X15309285Y-17895000D01*
X15295000Y-17909286D01*
X15609285Y-18080714D02*
X15580714Y-18066429D01*
X15566428Y-18052143D01*
X15552143Y-18023572D01*
X15552143Y-17937857D01*
X15566428Y-17909286D01*
X15580714Y-17895000D01*
X15609285Y-17880714D01*
X15652143Y-17880714D01*
X15680714Y-17895000D01*
X15695000Y-17909286D01*
X15709285Y-17937857D01*
X15709285Y-18023572D01*
X15695000Y-18052143D01*
X15680714Y-18066429D01*
X15652143Y-18080714D01*
X15609285Y-18080714D01*
X15880714Y-18080714D02*
X15852143Y-18066429D01*
X15837857Y-18037857D01*
X15837857Y-17780714D01*
X16109286Y-18066429D02*
X16080714Y-18080714D01*
X16023571Y-18080714D01*
X15995000Y-18066429D01*
X15980714Y-18037857D01*
X15980714Y-17923572D01*
X15995000Y-17895000D01*
X16023571Y-17880714D01*
X16080714Y-17880714D01*
X16109286Y-17895000D01*
X16123571Y-17923572D01*
X16123571Y-17952143D01*
X15980714Y-17980714D01*
X16223571Y-18195000D02*
X16237857Y-18180714D01*
X16266428Y-18137857D01*
X16280714Y-18109286D01*
X16295000Y-18066429D01*
X16309286Y-17995000D01*
X16309286Y-17937857D01*
X16295000Y-17866429D01*
X16280714Y-17823572D01*
X16266428Y-17795000D01*
X16237857Y-17752143D01*
X16223571Y-17737857D01*
M02*
