%FSLAX46Y46*%
G04 Gerber Fmt 4.6, Leading zero omitted, Abs format (unit mm)*
G04 Created by KiCad (PCBNEW (2014-10-27 BZR 5228)-product) date 22/01/2015 08:27:09*
%MOMM*%
G01*
G04 APERTURE LIST*
%ADD10C,0.100000*%
%ADD11C,0.300000*%
%ADD12C,0.150000*%
%ADD13C,0.002540*%
G04 APERTURE END LIST*
D10*
D11*
X131428573Y-143552857D02*
X131428573Y-142352857D01*
X131428573Y-142924286D02*
X132114288Y-142924286D01*
X132114288Y-143552857D02*
X132114288Y-142352857D01*
X133142859Y-143495714D02*
X133028573Y-143552857D01*
X132800002Y-143552857D01*
X132685716Y-143495714D01*
X132628573Y-143381429D01*
X132628573Y-142924286D01*
X132685716Y-142810000D01*
X132800002Y-142752857D01*
X133028573Y-142752857D01*
X133142859Y-142810000D01*
X133200002Y-142924286D01*
X133200002Y-143038571D01*
X132628573Y-143152857D01*
X133714287Y-143552857D02*
X133714287Y-142752857D01*
X133714287Y-142981429D02*
X133771430Y-142867143D01*
X133828573Y-142810000D01*
X133942859Y-142752857D01*
X134057144Y-142752857D01*
X134457144Y-143552857D02*
X134457144Y-142752857D01*
X134457144Y-142867143D02*
X134514287Y-142810000D01*
X134628573Y-142752857D01*
X134800001Y-142752857D01*
X134914287Y-142810000D01*
X134971430Y-142924286D01*
X134971430Y-143552857D01*
X134971430Y-142924286D02*
X135028573Y-142810000D01*
X135142859Y-142752857D01*
X135314287Y-142752857D01*
X135428573Y-142810000D01*
X135485716Y-142924286D01*
X135485716Y-143552857D01*
X136514287Y-143495714D02*
X136400001Y-143552857D01*
X136171430Y-143552857D01*
X136057144Y-143495714D01*
X136000001Y-143381429D01*
X136000001Y-142924286D01*
X136057144Y-142810000D01*
X136171430Y-142752857D01*
X136400001Y-142752857D01*
X136514287Y-142810000D01*
X136571430Y-142924286D01*
X136571430Y-143038571D01*
X136000001Y-143152857D01*
X137028572Y-143495714D02*
X137142858Y-143552857D01*
X137371430Y-143552857D01*
X137485715Y-143495714D01*
X137542858Y-143381429D01*
X137542858Y-143324286D01*
X137485715Y-143210000D01*
X137371430Y-143152857D01*
X137200001Y-143152857D01*
X137085715Y-143095714D01*
X137028572Y-142981429D01*
X137028572Y-142924286D01*
X137085715Y-142810000D01*
X137200001Y-142752857D01*
X137371430Y-142752857D01*
X137485715Y-142810000D01*
X139542859Y-143552857D02*
X138971430Y-143552857D01*
X138971430Y-142352857D01*
X139942859Y-143552857D02*
X139942859Y-142752857D01*
X139942859Y-142352857D02*
X139885716Y-142410000D01*
X139942859Y-142467143D01*
X140000002Y-142410000D01*
X139942859Y-142352857D01*
X139942859Y-142467143D01*
X140342860Y-142752857D02*
X140800003Y-142752857D01*
X140514288Y-142352857D02*
X140514288Y-143381429D01*
X140571431Y-143495714D01*
X140685717Y-143552857D01*
X140800003Y-143552857D01*
X141657145Y-143495714D02*
X141542859Y-143552857D01*
X141314288Y-143552857D01*
X141200002Y-143495714D01*
X141142859Y-143381429D01*
X141142859Y-142924286D01*
X141200002Y-142810000D01*
X141314288Y-142752857D01*
X141542859Y-142752857D01*
X141657145Y-142810000D01*
X141714288Y-142924286D01*
X141714288Y-143038571D01*
X141142859Y-143152857D01*
X143142859Y-143552857D02*
X143142859Y-142352857D01*
X143542859Y-143210000D01*
X143942859Y-142352857D01*
X143942859Y-143552857D01*
X144971431Y-143495714D02*
X144857145Y-143552857D01*
X144628574Y-143552857D01*
X144514288Y-143495714D01*
X144457145Y-143381429D01*
X144457145Y-142924286D01*
X144514288Y-142810000D01*
X144628574Y-142752857D01*
X144857145Y-142752857D01*
X144971431Y-142810000D01*
X145028574Y-142924286D01*
X145028574Y-143038571D01*
X144457145Y-143152857D01*
X146057145Y-142752857D02*
X146057145Y-143724286D01*
X146000002Y-143838571D01*
X145942859Y-143895714D01*
X145828574Y-143952857D01*
X145657145Y-143952857D01*
X145542859Y-143895714D01*
X146057145Y-143495714D02*
X145942859Y-143552857D01*
X145714288Y-143552857D01*
X145600002Y-143495714D01*
X145542859Y-143438571D01*
X145485716Y-143324286D01*
X145485716Y-142981429D01*
X145542859Y-142867143D01*
X145600002Y-142810000D01*
X145714288Y-142752857D01*
X145942859Y-142752857D01*
X146057145Y-142810000D01*
X147142859Y-143552857D02*
X147142859Y-142924286D01*
X147085716Y-142810000D01*
X146971430Y-142752857D01*
X146742859Y-142752857D01*
X146628573Y-142810000D01*
X147142859Y-143495714D02*
X147028573Y-143552857D01*
X146742859Y-143552857D01*
X146628573Y-143495714D01*
X146571430Y-143381429D01*
X146571430Y-143267143D01*
X146628573Y-143152857D01*
X146742859Y-143095714D01*
X147028573Y-143095714D01*
X147142859Y-143038571D01*
X147714287Y-143552857D02*
X147714287Y-142352857D01*
X147714287Y-142810000D02*
X147828573Y-142752857D01*
X148057144Y-142752857D01*
X148171430Y-142810000D01*
X148228573Y-142867143D01*
X148285716Y-142981429D01*
X148285716Y-143324286D01*
X148228573Y-143438571D01*
X148171430Y-143495714D01*
X148057144Y-143552857D01*
X147828573Y-143552857D01*
X147714287Y-143495714D01*
X149314287Y-143552857D02*
X149314287Y-142924286D01*
X149257144Y-142810000D01*
X149142858Y-142752857D01*
X148914287Y-142752857D01*
X148800001Y-142810000D01*
X149314287Y-143495714D02*
X149200001Y-143552857D01*
X148914287Y-143552857D01*
X148800001Y-143495714D01*
X148742858Y-143381429D01*
X148742858Y-143267143D01*
X148800001Y-143152857D01*
X148914287Y-143095714D01*
X149200001Y-143095714D01*
X149314287Y-143038571D01*
X149885715Y-142752857D02*
X149885715Y-143552857D01*
X149885715Y-142867143D02*
X149942858Y-142810000D01*
X150057144Y-142752857D01*
X150228572Y-142752857D01*
X150342858Y-142810000D01*
X150400001Y-142924286D01*
X150400001Y-143552857D01*
X151485715Y-143552857D02*
X151485715Y-142352857D01*
X151485715Y-143495714D02*
X151371429Y-143552857D01*
X151142858Y-143552857D01*
X151028572Y-143495714D01*
X150971429Y-143438571D01*
X150914286Y-143324286D01*
X150914286Y-142981429D01*
X150971429Y-142867143D01*
X151028572Y-142810000D01*
X151142858Y-142752857D01*
X151371429Y-142752857D01*
X151485715Y-142810000D01*
X152971429Y-143552857D02*
X152971429Y-142352857D01*
X153428572Y-142352857D01*
X153542858Y-142410000D01*
X153600001Y-142467143D01*
X153657144Y-142581429D01*
X153657144Y-142752857D01*
X153600001Y-142867143D01*
X153542858Y-142924286D01*
X153428572Y-142981429D01*
X152971429Y-142981429D01*
X154342858Y-143552857D02*
X154228572Y-143495714D01*
X154171429Y-143438571D01*
X154114286Y-143324286D01*
X154114286Y-142981429D01*
X154171429Y-142867143D01*
X154228572Y-142810000D01*
X154342858Y-142752857D01*
X154514286Y-142752857D01*
X154628572Y-142810000D01*
X154685715Y-142867143D01*
X154742858Y-142981429D01*
X154742858Y-143324286D01*
X154685715Y-143438571D01*
X154628572Y-143495714D01*
X154514286Y-143552857D01*
X154342858Y-143552857D01*
X155142858Y-142752857D02*
X155371429Y-143552857D01*
X155600000Y-142981429D01*
X155828572Y-143552857D01*
X156057143Y-142752857D01*
X156971429Y-143495714D02*
X156857143Y-143552857D01*
X156628572Y-143552857D01*
X156514286Y-143495714D01*
X156457143Y-143381429D01*
X156457143Y-142924286D01*
X156514286Y-142810000D01*
X156628572Y-142752857D01*
X156857143Y-142752857D01*
X156971429Y-142810000D01*
X157028572Y-142924286D01*
X157028572Y-143038571D01*
X156457143Y-143152857D01*
X157542857Y-143552857D02*
X157542857Y-142752857D01*
X157542857Y-142981429D02*
X157600000Y-142867143D01*
X157657143Y-142810000D01*
X157771429Y-142752857D01*
X157885714Y-142752857D01*
X159142857Y-143210000D02*
X159714286Y-143210000D01*
X159028572Y-143552857D02*
X159428572Y-142352857D01*
X159828572Y-143552857D01*
X160228571Y-143552857D02*
X160228571Y-142752857D01*
X160228571Y-142867143D02*
X160285714Y-142810000D01*
X160400000Y-142752857D01*
X160571428Y-142752857D01*
X160685714Y-142810000D01*
X160742857Y-142924286D01*
X160742857Y-143552857D01*
X160742857Y-142924286D02*
X160800000Y-142810000D01*
X160914286Y-142752857D01*
X161085714Y-142752857D01*
X161200000Y-142810000D01*
X161257143Y-142924286D01*
X161257143Y-143552857D01*
X161828571Y-142752857D02*
X161828571Y-143952857D01*
X161828571Y-142810000D02*
X161942857Y-142752857D01*
X162171428Y-142752857D01*
X162285714Y-142810000D01*
X162342857Y-142867143D01*
X162400000Y-142981429D01*
X162400000Y-143324286D01*
X162342857Y-143438571D01*
X162285714Y-143495714D01*
X162171428Y-143552857D01*
X161942857Y-143552857D01*
X161828571Y-143495714D01*
X163085714Y-143552857D02*
X162971428Y-143495714D01*
X162914285Y-143381429D01*
X162914285Y-142352857D01*
X163542856Y-143552857D02*
X163542856Y-142752857D01*
X163542856Y-142352857D02*
X163485713Y-142410000D01*
X163542856Y-142467143D01*
X163599999Y-142410000D01*
X163542856Y-142352857D01*
X163542856Y-142467143D01*
X163942857Y-142752857D02*
X164400000Y-142752857D01*
X164114285Y-143552857D02*
X164114285Y-142524286D01*
X164171428Y-142410000D01*
X164285714Y-142352857D01*
X164400000Y-142352857D01*
X164799999Y-143552857D02*
X164799999Y-142752857D01*
X164799999Y-142352857D02*
X164742856Y-142410000D01*
X164799999Y-142467143D01*
X164857142Y-142410000D01*
X164799999Y-142352857D01*
X164799999Y-142467143D01*
X165828571Y-143495714D02*
X165714285Y-143552857D01*
X165485714Y-143552857D01*
X165371428Y-143495714D01*
X165314285Y-143381429D01*
X165314285Y-142924286D01*
X165371428Y-142810000D01*
X165485714Y-142752857D01*
X165714285Y-142752857D01*
X165828571Y-142810000D01*
X165885714Y-142924286D01*
X165885714Y-143038571D01*
X165314285Y-143152857D01*
X166399999Y-143552857D02*
X166399999Y-142752857D01*
X166399999Y-142981429D02*
X166457142Y-142867143D01*
X166514285Y-142810000D01*
X166628571Y-142752857D01*
X166742856Y-142752857D01*
X135428572Y-144618571D02*
X135314286Y-144561429D01*
X135085715Y-144561429D01*
X134971429Y-144618571D01*
X134857143Y-144732857D01*
X134800000Y-144847143D01*
X134800000Y-145075714D01*
X134857143Y-145190000D01*
X134971429Y-145304286D01*
X135085715Y-145361429D01*
X135314286Y-145361429D01*
X135428572Y-145304286D01*
X135200000Y-144161429D02*
X134914286Y-144218571D01*
X134628572Y-144390000D01*
X134457143Y-144675714D01*
X134400000Y-144961429D01*
X134457143Y-145247143D01*
X134628572Y-145532857D01*
X134914286Y-145704286D01*
X135200000Y-145761429D01*
X135485715Y-145704286D01*
X135771429Y-145532857D01*
X135942858Y-145247143D01*
X136000000Y-144961429D01*
X135942858Y-144675714D01*
X135771429Y-144390000D01*
X135485715Y-144218571D01*
X135200000Y-144161429D01*
X137371429Y-145190000D02*
X137942858Y-145190000D01*
X137257144Y-145532857D02*
X137657144Y-144332857D01*
X138057144Y-145532857D01*
X139142858Y-145418571D02*
X139085715Y-145475714D01*
X138914286Y-145532857D01*
X138800000Y-145532857D01*
X138628572Y-145475714D01*
X138514286Y-145361429D01*
X138457143Y-145247143D01*
X138400000Y-145018571D01*
X138400000Y-144847143D01*
X138457143Y-144618571D01*
X138514286Y-144504286D01*
X138628572Y-144390000D01*
X138800000Y-144332857D01*
X138914286Y-144332857D01*
X139085715Y-144390000D01*
X139142858Y-144447143D01*
X139714286Y-145532857D02*
X139942858Y-145532857D01*
X140057143Y-145475714D01*
X140114286Y-145418571D01*
X140228572Y-145247143D01*
X140285715Y-145018571D01*
X140285715Y-144561429D01*
X140228572Y-144447143D01*
X140171429Y-144390000D01*
X140057143Y-144332857D01*
X139828572Y-144332857D01*
X139714286Y-144390000D01*
X139657143Y-144447143D01*
X139600000Y-144561429D01*
X139600000Y-144847143D01*
X139657143Y-144961429D01*
X139714286Y-145018571D01*
X139828572Y-145075714D01*
X140057143Y-145075714D01*
X140171429Y-145018571D01*
X140228572Y-144961429D01*
X140285715Y-144847143D01*
X140800000Y-145532857D02*
X140800000Y-144332857D01*
X140800000Y-144904286D02*
X141485715Y-144904286D01*
X141485715Y-145532857D02*
X141485715Y-144332857D01*
X142285715Y-144961429D02*
X142285715Y-145532857D01*
X141885715Y-144332857D02*
X142285715Y-144961429D01*
X142685715Y-144332857D01*
X143942857Y-144275714D02*
X142914286Y-145818571D01*
X144228572Y-144332857D02*
X144514286Y-145532857D01*
X144742857Y-144675714D01*
X144971429Y-145532857D01*
X145257143Y-144332857D01*
X145657143Y-145190000D02*
X146228572Y-145190000D01*
X145542858Y-145532857D02*
X145942858Y-144332857D01*
X146342858Y-145532857D01*
X146685714Y-144447143D02*
X146742857Y-144390000D01*
X146857143Y-144332857D01*
X147142857Y-144332857D01*
X147257143Y-144390000D01*
X147314286Y-144447143D01*
X147371429Y-144561429D01*
X147371429Y-144675714D01*
X147314286Y-144847143D01*
X146628572Y-145532857D01*
X147371429Y-145532857D01*
X147885714Y-144904286D02*
X148285714Y-144904286D01*
X148457143Y-145532857D02*
X147885714Y-145532857D01*
X147885714Y-144332857D01*
X148457143Y-144332857D01*
X148971428Y-144332857D02*
X148971428Y-145304286D01*
X149028571Y-145418571D01*
X149085714Y-145475714D01*
X149200000Y-145532857D01*
X149428571Y-145532857D01*
X149542857Y-145475714D01*
X149600000Y-145418571D01*
X149657143Y-145304286D01*
X149657143Y-144332857D01*
X150571428Y-144332857D02*
X150571428Y-145190000D01*
X150514286Y-145361429D01*
X150400000Y-145475714D01*
X150228571Y-145532857D01*
X150114286Y-145532857D01*
X152000000Y-144447143D02*
X152057143Y-144390000D01*
X152171429Y-144332857D01*
X152457143Y-144332857D01*
X152571429Y-144390000D01*
X152628572Y-144447143D01*
X152685715Y-144561429D01*
X152685715Y-144675714D01*
X152628572Y-144847143D01*
X151942858Y-145532857D01*
X152685715Y-145532857D01*
X153428572Y-144332857D02*
X153542857Y-144332857D01*
X153657143Y-144390000D01*
X153714286Y-144447143D01*
X153771429Y-144561429D01*
X153828572Y-144790000D01*
X153828572Y-145075714D01*
X153771429Y-145304286D01*
X153714286Y-145418571D01*
X153657143Y-145475714D01*
X153542857Y-145532857D01*
X153428572Y-145532857D01*
X153314286Y-145475714D01*
X153257143Y-145418571D01*
X153200000Y-145304286D01*
X153142857Y-145075714D01*
X153142857Y-144790000D01*
X153200000Y-144561429D01*
X153257143Y-144447143D01*
X153314286Y-144390000D01*
X153428572Y-144332857D01*
X154971429Y-145532857D02*
X154285714Y-145532857D01*
X154628572Y-145532857D02*
X154628572Y-144332857D01*
X154514286Y-144504286D01*
X154400000Y-144618571D01*
X154285714Y-144675714D01*
X156057143Y-144332857D02*
X155485714Y-144332857D01*
X155428571Y-144904286D01*
X155485714Y-144847143D01*
X155600000Y-144790000D01*
X155885714Y-144790000D01*
X156000000Y-144847143D01*
X156057143Y-144904286D01*
X156114286Y-145018571D01*
X156114286Y-145304286D01*
X156057143Y-145418571D01*
X156000000Y-145475714D01*
X155885714Y-145532857D01*
X155600000Y-145532857D01*
X155485714Y-145475714D01*
X155428571Y-145418571D01*
X157371429Y-144332857D02*
X157771429Y-145532857D01*
X158171429Y-144332857D01*
X159028571Y-145475714D02*
X158914285Y-145532857D01*
X158685714Y-145532857D01*
X158571428Y-145475714D01*
X158514285Y-145361429D01*
X158514285Y-144904286D01*
X158571428Y-144790000D01*
X158685714Y-144732857D01*
X158914285Y-144732857D01*
X159028571Y-144790000D01*
X159085714Y-144904286D01*
X159085714Y-145018571D01*
X158514285Y-145132857D01*
X159599999Y-145532857D02*
X159599999Y-144732857D01*
X159599999Y-144961429D02*
X159657142Y-144847143D01*
X159714285Y-144790000D01*
X159828571Y-144732857D01*
X159942856Y-144732857D01*
X161885714Y-145532857D02*
X161199999Y-145532857D01*
X161542857Y-145532857D02*
X161542857Y-144332857D01*
X161428571Y-144504286D01*
X161314285Y-144618571D01*
X161199999Y-144675714D01*
X162399999Y-145418571D02*
X162457142Y-145475714D01*
X162399999Y-145532857D01*
X162342856Y-145475714D01*
X162399999Y-145418571D01*
X162399999Y-145532857D01*
X162914285Y-144447143D02*
X162971428Y-144390000D01*
X163085714Y-144332857D01*
X163371428Y-144332857D01*
X163485714Y-144390000D01*
X163542857Y-144447143D01*
X163600000Y-144561429D01*
X163600000Y-144675714D01*
X163542857Y-144847143D01*
X162857143Y-145532857D01*
X163600000Y-145532857D01*
D12*
X106350060Y-114099140D02*
X105999540Y-114099140D01*
X102849940Y-114099140D02*
X103200460Y-114099140D01*
X106350060Y-113649560D02*
X105999540Y-113649560D01*
X106350060Y-118150440D02*
X105999540Y-118150440D01*
X102849940Y-118150440D02*
X103200460Y-118150440D01*
X102849940Y-113649560D02*
X103200460Y-113649560D01*
X106350060Y-118150440D02*
X106350060Y-113649560D01*
X102849940Y-118150440D02*
X102849940Y-113649560D01*
X110350060Y-114099140D02*
X109999540Y-114099140D01*
X106849940Y-114099140D02*
X107200460Y-114099140D01*
X110350060Y-113649560D02*
X109999540Y-113649560D01*
X110350060Y-118150440D02*
X109999540Y-118150440D01*
X106849940Y-118150440D02*
X107200460Y-118150440D01*
X106849940Y-113649560D02*
X107200460Y-113649560D01*
X110350060Y-118150440D02*
X110350060Y-113649560D01*
X106849940Y-118150440D02*
X106849940Y-113649560D01*
X109400860Y-123250060D02*
X109400860Y-122899540D01*
X109400860Y-119749940D02*
X109400860Y-120100460D01*
X109850440Y-123250060D02*
X109850440Y-122899540D01*
X105349560Y-123250060D02*
X105349560Y-122899540D01*
X105349560Y-119749940D02*
X105349560Y-120100460D01*
X109850440Y-119749940D02*
X109850440Y-120100460D01*
X105349560Y-123250060D02*
X109850440Y-123250060D01*
X105349560Y-119749940D02*
X109850440Y-119749940D01*
X106649940Y-129000860D02*
X107000460Y-129000860D01*
X110150060Y-129000860D02*
X109799540Y-129000860D01*
X106649940Y-129450440D02*
X107000460Y-129450440D01*
X106649940Y-124949560D02*
X107000460Y-124949560D01*
X110150060Y-124949560D02*
X109799540Y-124949560D01*
X110150060Y-129450440D02*
X109799540Y-129450440D01*
X106649940Y-124949560D02*
X106649940Y-129450440D01*
X110150060Y-124949560D02*
X110150060Y-129450440D01*
X102549940Y-128800860D02*
X102900460Y-128800860D01*
X106050060Y-128800860D02*
X105699540Y-128800860D01*
X102549940Y-129250440D02*
X102900460Y-129250440D01*
X102549940Y-124749560D02*
X102900460Y-124749560D01*
X106050060Y-124749560D02*
X105699540Y-124749560D01*
X106050060Y-129250440D02*
X105699540Y-129250440D01*
X102549940Y-124749560D02*
X102549940Y-129250440D01*
X106050060Y-124749560D02*
X106050060Y-129250440D01*
X138349940Y-129300860D02*
X138700460Y-129300860D01*
X141850060Y-129300860D02*
X141499540Y-129300860D01*
X138349940Y-129750440D02*
X138700460Y-129750440D01*
X138349940Y-125249560D02*
X138700460Y-125249560D01*
X141850060Y-125249560D02*
X141499540Y-125249560D01*
X141850060Y-129750440D02*
X141499540Y-129750440D01*
X138349940Y-125249560D02*
X138349940Y-129750440D01*
X141850060Y-125249560D02*
X141850060Y-129750440D01*
X142150060Y-113299140D02*
X141799540Y-113299140D01*
X138649940Y-113299140D02*
X139000460Y-113299140D01*
X142150060Y-112849560D02*
X141799540Y-112849560D01*
X142150060Y-117350440D02*
X141799540Y-117350440D01*
X138649940Y-117350440D02*
X139000460Y-117350440D01*
X138649940Y-112849560D02*
X139000460Y-112849560D01*
X142150060Y-117350440D02*
X142150060Y-112849560D01*
X138649940Y-117350440D02*
X138649940Y-112849560D01*
X138150060Y-113399140D02*
X137799540Y-113399140D01*
X134649940Y-113399140D02*
X135000460Y-113399140D01*
X138150060Y-112949560D02*
X137799540Y-112949560D01*
X138150060Y-117450440D02*
X137799540Y-117450440D01*
X134649940Y-117450440D02*
X135000460Y-117450440D01*
X134649940Y-112949560D02*
X135000460Y-112949560D01*
X138150060Y-117450440D02*
X138150060Y-112949560D01*
X134649940Y-117450440D02*
X134649940Y-112949560D01*
X135499140Y-119449940D02*
X135499140Y-119800460D01*
X135499140Y-122950060D02*
X135499140Y-122599540D01*
X135049560Y-119449940D02*
X135049560Y-119800460D01*
X139550440Y-119449940D02*
X139550440Y-119800460D01*
X139550440Y-122950060D02*
X139550440Y-122599540D01*
X135049560Y-122950060D02*
X135049560Y-122599540D01*
X139550440Y-119449940D02*
X135049560Y-119449940D01*
X139550440Y-122950060D02*
X135049560Y-122950060D01*
X134449940Y-129500860D02*
X134800460Y-129500860D01*
X137950060Y-129500860D02*
X137599540Y-129500860D01*
X134449940Y-129950440D02*
X134800460Y-129950440D01*
X134449940Y-125449560D02*
X134800460Y-125449560D01*
X137950060Y-125449560D02*
X137599540Y-125449560D01*
X137950060Y-129950440D02*
X137599540Y-129950440D01*
X134449940Y-125449560D02*
X134449940Y-129950440D01*
X137950060Y-125449560D02*
X137950060Y-129950440D01*
X160375600Y-57203340D02*
X160375600Y-56441340D01*
X160375600Y-62664340D02*
X160375600Y-63553340D01*
X159105600Y-57203340D02*
X161772600Y-57203340D01*
X161772600Y-57203340D02*
X161772600Y-62664340D01*
X161772600Y-62664340D02*
X159105600Y-62664340D01*
X159105600Y-62664340D02*
X159105600Y-57203340D01*
X135788400Y-71132700D02*
X140995400Y-71132700D01*
X148869400Y-71132700D02*
X143916400Y-71132700D01*
X135788400Y-77736700D02*
X140868400Y-77736700D01*
X148869400Y-77736700D02*
X143789400Y-77736700D01*
X148869400Y-77736700D02*
X148869400Y-71132700D01*
X135788400Y-71132700D02*
X135788400Y-77736700D01*
X149593300Y-71196200D02*
X154800300Y-71196200D01*
X162674300Y-71196200D02*
X157721300Y-71196200D01*
X149593300Y-77800200D02*
X154673300Y-77800200D01*
X162674300Y-77800200D02*
X157594300Y-77800200D01*
X162674300Y-77800200D02*
X162674300Y-71196200D01*
X149593300Y-71196200D02*
X149593300Y-77800200D01*
X189996000Y-71000000D02*
X189996000Y-65793000D01*
X189996000Y-57919000D02*
X189996000Y-62872000D01*
X196600000Y-71000000D02*
X196600000Y-65920000D01*
X196600000Y-57919000D02*
X196600000Y-62999000D01*
X196600000Y-57919000D02*
X189996000Y-57919000D01*
X189996000Y-71000000D02*
X196600000Y-71000000D01*
X190196000Y-86000000D02*
X190196000Y-80793000D01*
X190196000Y-72919000D02*
X190196000Y-77872000D01*
X196800000Y-86000000D02*
X196800000Y-80920000D01*
X196800000Y-72919000D02*
X196800000Y-77999000D01*
X196800000Y-72919000D02*
X190196000Y-72919000D01*
X190196000Y-86000000D02*
X196800000Y-86000000D01*
X189796000Y-103600000D02*
X189796000Y-98393000D01*
X189796000Y-90519000D02*
X189796000Y-95472000D01*
X196400000Y-103600000D02*
X196400000Y-98520000D01*
X196400000Y-90519000D02*
X196400000Y-95599000D01*
X196400000Y-90519000D02*
X189796000Y-90519000D01*
X189796000Y-103600000D02*
X196400000Y-103600000D01*
X187404000Y-121200000D02*
X187404000Y-126407000D01*
X187404000Y-134281000D02*
X187404000Y-129328000D01*
X180800000Y-121200000D02*
X180800000Y-126280000D01*
X180800000Y-134281000D02*
X180800000Y-129201000D01*
X180800000Y-134281000D02*
X187404000Y-134281000D01*
X187404000Y-121200000D02*
X180800000Y-121200000D01*
X189896000Y-119500000D02*
X189896000Y-114293000D01*
X189896000Y-106419000D02*
X189896000Y-111372000D01*
X196500000Y-119500000D02*
X196500000Y-114420000D01*
X196500000Y-106419000D02*
X196500000Y-111499000D01*
X196500000Y-106419000D02*
X189896000Y-106419000D01*
X189896000Y-119500000D02*
X196500000Y-119500000D01*
X179796000Y-71000000D02*
X179796000Y-65793000D01*
X179796000Y-57919000D02*
X179796000Y-62872000D01*
X186400000Y-71000000D02*
X186400000Y-65920000D01*
X186400000Y-57919000D02*
X186400000Y-62999000D01*
X186400000Y-57919000D02*
X179796000Y-57919000D01*
X179796000Y-71000000D02*
X186400000Y-71000000D01*
X179796000Y-86000000D02*
X179796000Y-80793000D01*
X179796000Y-72919000D02*
X179796000Y-77872000D01*
X186400000Y-86000000D02*
X186400000Y-80920000D01*
X186400000Y-72919000D02*
X186400000Y-77999000D01*
X186400000Y-72919000D02*
X179796000Y-72919000D01*
X179796000Y-86000000D02*
X186400000Y-86000000D01*
X179596000Y-103400000D02*
X179596000Y-98193000D01*
X179596000Y-90319000D02*
X179596000Y-95272000D01*
X186200000Y-103400000D02*
X186200000Y-98320000D01*
X186200000Y-90319000D02*
X186200000Y-95399000D01*
X186200000Y-90319000D02*
X179596000Y-90319000D01*
X179596000Y-103400000D02*
X186200000Y-103400000D01*
X189996000Y-134500000D02*
X189996000Y-129293000D01*
X189996000Y-121419000D02*
X189996000Y-126372000D01*
X196600000Y-134500000D02*
X196600000Y-129420000D01*
X196600000Y-121419000D02*
X196600000Y-126499000D01*
X196600000Y-121419000D02*
X189996000Y-121419000D01*
X189996000Y-134500000D02*
X196600000Y-134500000D01*
X179696000Y-119400000D02*
X179696000Y-114193000D01*
X179696000Y-106319000D02*
X179696000Y-111272000D01*
X186300000Y-119400000D02*
X186300000Y-114320000D01*
X186300000Y-106319000D02*
X186300000Y-111399000D01*
X186300000Y-106319000D02*
X179696000Y-106319000D01*
X179696000Y-119400000D02*
X186300000Y-119400000D01*
X129374900Y-80518000D02*
X131914900Y-80518000D01*
X129374900Y-83058000D02*
X131914900Y-83058000D01*
X131914900Y-83058000D02*
X131914900Y-80518000D01*
X131914900Y-80518000D02*
X131914900Y-77978000D01*
X131914900Y-77978000D02*
X129374900Y-77978000D01*
X129374900Y-77978000D02*
X129374900Y-83058000D01*
X124900000Y-77630000D02*
X124900000Y-80170000D01*
X122360000Y-77630000D02*
X122360000Y-80170000D01*
X122360000Y-80170000D02*
X124900000Y-80170000D01*
X124900000Y-80170000D02*
X127440000Y-80170000D01*
X127440000Y-80170000D02*
X127440000Y-77630000D01*
X127440000Y-77630000D02*
X122360000Y-77630000D01*
X101630000Y-69400000D02*
X104170000Y-69400000D01*
X101630000Y-71940000D02*
X104170000Y-71940000D01*
X104170000Y-71940000D02*
X104170000Y-69400000D01*
X104170000Y-69400000D02*
X104170000Y-66860000D01*
X104170000Y-66860000D02*
X101630000Y-66860000D01*
X101630000Y-66860000D02*
X101630000Y-71940000D01*
X101765100Y-80276700D02*
X104305100Y-80276700D01*
X101765100Y-82816700D02*
X104305100Y-82816700D01*
X104305100Y-82816700D02*
X104305100Y-80276700D01*
X104305100Y-80276700D02*
X104305100Y-77736700D01*
X104305100Y-77736700D02*
X101765100Y-77736700D01*
X101765100Y-77736700D02*
X101765100Y-82816700D01*
X123400000Y-74200000D02*
X124300000Y-74200000D01*
X124300000Y-74200000D02*
X124300000Y-75000000D01*
X123400000Y-77200000D02*
X124300000Y-77200000D01*
X124300000Y-77200000D02*
X124300000Y-76400000D01*
X122900000Y-76000000D02*
X122900000Y-75400000D01*
X124866000Y-57805000D02*
X126771000Y-57805000D01*
X129311000Y-57805000D02*
X128549000Y-57805000D01*
X131724000Y-57805000D02*
X131851000Y-57805000D01*
X131724000Y-57805000D02*
X131089000Y-57805000D01*
X135534000Y-57805000D02*
X133756000Y-57805000D01*
X135534000Y-54122000D02*
X133883000Y-54122000D01*
X131216000Y-53995000D02*
X131851000Y-53995000D01*
X128676000Y-53995000D02*
X129311000Y-53995000D01*
X124866000Y-54122000D02*
X126517000Y-54122000D01*
X131724000Y-58948000D02*
X131724000Y-57805000D01*
X128676000Y-58948000D02*
X128676000Y-57805000D01*
X124866000Y-57805000D02*
X124866000Y-54122000D01*
X135534000Y-54122000D02*
X135534000Y-57805000D01*
X124866000Y-58948000D02*
X124866000Y-57805000D01*
X135534000Y-57805000D02*
X135534000Y-58948000D01*
X130200000Y-58948000D02*
X135534000Y-58948000D01*
X130200000Y-58948000D02*
X124866000Y-58948000D01*
X107700000Y-105200940D02*
X107700000Y-106201700D01*
X110199360Y-102800640D02*
G75*
G03X110199360Y-102800640I-2499360J0D01*
G01*
X135400000Y-104899060D02*
X135400000Y-103898300D01*
X137899360Y-107299360D02*
G75*
G03X137899360Y-107299360I-2499360J0D01*
G01*
X134632700Y-82410300D02*
X134632700Y-79870300D01*
X134632700Y-79870300D02*
X137172700Y-79870300D01*
X137172700Y-79870300D02*
X137172700Y-82410300D01*
X137172700Y-82410300D02*
X134632700Y-82410300D01*
X134632700Y-82410300D02*
X134632700Y-84950300D01*
X134632700Y-84950300D02*
X139712700Y-84950300D01*
X139712700Y-84950300D02*
X139712700Y-79870300D01*
X139712700Y-79870300D02*
X137172700Y-79870300D01*
X115138200Y-68224400D02*
X116408200Y-68224400D01*
X115887500Y-67437000D02*
X115633500Y-67475100D01*
X115633500Y-67475100D02*
X115354100Y-67652900D01*
X115354100Y-67652900D02*
X115138200Y-67970400D01*
X115138200Y-67970400D02*
X115125500Y-68414900D01*
X115125500Y-68414900D02*
X115328700Y-68770500D01*
X115328700Y-68770500D02*
X115620800Y-68948300D01*
X115620800Y-68948300D02*
X115938300Y-68999100D01*
X115938300Y-68999100D02*
X116344700Y-68897500D01*
X116344700Y-68897500D02*
X116598700Y-68554600D01*
X116598700Y-68554600D02*
X116687600Y-68376800D01*
X118948200Y-59842400D02*
X118948200Y-69494400D01*
X115900200Y-69494400D02*
X114630200Y-69494400D01*
X114630200Y-69494400D02*
X114630200Y-59842400D01*
X114630200Y-59842400D02*
X119710200Y-59842400D01*
X119710200Y-69494400D02*
X117170200Y-69494400D01*
X117170200Y-69494400D02*
X115900200Y-69494400D01*
X115260300Y-73421800D02*
X115260300Y-73566800D01*
X119410300Y-73421800D02*
X119410300Y-73566800D01*
X119410300Y-78571800D02*
X119410300Y-78426800D01*
X115260300Y-78571800D02*
X115260300Y-78426800D01*
X115260300Y-73421800D02*
X119410300Y-73421800D01*
X115260300Y-78571800D02*
X119410300Y-78571800D01*
X115260300Y-73566800D02*
X113860300Y-73566800D01*
X141382400Y-55976000D02*
X157382400Y-55976000D01*
X157382400Y-55976000D02*
X157382400Y-67976000D01*
X157382400Y-67976000D02*
X141382400Y-67976000D01*
X141382400Y-67976000D02*
X141382400Y-55976000D01*
X160913200Y-80287100D02*
X160913200Y-94287100D01*
X160913200Y-94287100D02*
X151913200Y-94287100D01*
X151913200Y-94287100D02*
X151913200Y-80287100D01*
X151913200Y-80287100D02*
X160913200Y-80287100D01*
X176900000Y-57600000D02*
X176900000Y-71600000D01*
X176900000Y-71600000D02*
X167900000Y-71600000D01*
X167900000Y-71600000D02*
X167900000Y-57600000D01*
X167900000Y-57600000D02*
X176900000Y-57600000D01*
X176900000Y-73000000D02*
X176900000Y-87000000D01*
X176900000Y-87000000D02*
X167900000Y-87000000D01*
X167900000Y-87000000D02*
X167900000Y-73000000D01*
X167900000Y-73000000D02*
X176900000Y-73000000D01*
X177000000Y-89400000D02*
X177000000Y-103400000D01*
X177000000Y-103400000D02*
X168000000Y-103400000D01*
X168000000Y-103400000D02*
X168000000Y-89400000D01*
X168000000Y-89400000D02*
X177000000Y-89400000D01*
X177100000Y-106000000D02*
X177100000Y-120000000D01*
X177100000Y-120000000D02*
X168100000Y-120000000D01*
X168100000Y-120000000D02*
X168100000Y-106000000D01*
X168100000Y-106000000D02*
X177100000Y-106000000D01*
X177100000Y-121500000D02*
X177100000Y-135500000D01*
X177100000Y-135500000D02*
X168100000Y-135500000D01*
X168100000Y-135500000D02*
X168100000Y-121500000D01*
X168100000Y-121500000D02*
X177100000Y-121500000D01*
X116200000Y-85650000D02*
X115200000Y-85650000D01*
X115200000Y-87350000D02*
X116200000Y-87350000D01*
X122046100Y-69727700D02*
X122046100Y-68727700D01*
X120346100Y-68727700D02*
X120346100Y-69727700D01*
X116171600Y-82919200D02*
X115171600Y-82919200D01*
X115171600Y-84619200D02*
X116171600Y-84619200D01*
X128600000Y-63250000D02*
X129600000Y-63250000D01*
X129600000Y-61550000D02*
X128600000Y-61550000D01*
X102250000Y-102500000D02*
X102250000Y-103500000D01*
X103950000Y-103500000D02*
X103950000Y-102500000D01*
X116600000Y-104150000D02*
X115600000Y-104150000D01*
X115600000Y-105850000D02*
X116600000Y-105850000D01*
X116400000Y-113750000D02*
X115400000Y-113750000D01*
X115400000Y-115450000D02*
X116400000Y-115450000D01*
X129000000Y-126450000D02*
X130000000Y-126450000D01*
X130000000Y-124750000D02*
X129000000Y-124750000D01*
X115800000Y-136050000D02*
X114800000Y-136050000D01*
X114800000Y-137750000D02*
X115800000Y-137750000D01*
X116500000Y-143850000D02*
X115500000Y-143850000D01*
X115500000Y-145550000D02*
X116500000Y-145550000D01*
X116700000Y-101850000D02*
X115700000Y-101850000D01*
X115700000Y-103550000D02*
X116700000Y-103550000D01*
X116200000Y-111150000D02*
X115200000Y-111150000D01*
X115200000Y-112850000D02*
X116200000Y-112850000D01*
X116000000Y-122550000D02*
X115000000Y-122550000D01*
X115000000Y-124250000D02*
X116000000Y-124250000D01*
X115800000Y-133550000D02*
X114800000Y-133550000D01*
X114800000Y-135250000D02*
X115800000Y-135250000D01*
X116500000Y-141750000D02*
X115500000Y-141750000D01*
X115500000Y-143450000D02*
X116500000Y-143450000D01*
X119200000Y-101050000D02*
X120200000Y-101050000D01*
X120200000Y-99350000D02*
X119200000Y-99350000D01*
X118900000Y-110450000D02*
X119900000Y-110450000D01*
X119900000Y-108750000D02*
X118900000Y-108750000D01*
X118700000Y-122150000D02*
X119700000Y-122150000D01*
X119700000Y-120450000D02*
X118700000Y-120450000D01*
X118700000Y-132250000D02*
X119700000Y-132250000D01*
X119700000Y-130550000D02*
X118700000Y-130550000D01*
X123500000Y-141050000D02*
X124500000Y-141050000D01*
X124500000Y-139350000D02*
X123500000Y-139350000D01*
X123000000Y-145650000D02*
X124000000Y-145650000D01*
X124000000Y-143950000D02*
X123000000Y-143950000D01*
X126250000Y-103800000D02*
X126250000Y-102800000D01*
X124550000Y-102800000D02*
X124550000Y-103800000D01*
X125350000Y-113100000D02*
X125350000Y-112100000D01*
X123650000Y-112100000D02*
X123650000Y-113100000D01*
X125550000Y-124600000D02*
X125550000Y-123600000D01*
X123850000Y-123600000D02*
X123850000Y-124600000D01*
X118600000Y-134350000D02*
X119600000Y-134350000D01*
X119600000Y-132650000D02*
X118600000Y-132650000D01*
X123000000Y-143350000D02*
X124000000Y-143350000D01*
X124000000Y-141650000D02*
X123000000Y-141650000D01*
X129800000Y-101150000D02*
X130800000Y-101150000D01*
X130800000Y-99450000D02*
X129800000Y-99450000D01*
X128400000Y-110250000D02*
X129400000Y-110250000D01*
X129400000Y-108550000D02*
X128400000Y-108550000D01*
X131000000Y-122050000D02*
X132000000Y-122050000D01*
X132000000Y-120350000D02*
X131000000Y-120350000D01*
X128300000Y-130050000D02*
X129300000Y-130050000D01*
X129300000Y-128350000D02*
X128300000Y-128350000D01*
X128000000Y-105750000D02*
X129000000Y-105750000D01*
X129000000Y-104050000D02*
X128000000Y-104050000D01*
X128300000Y-115250000D02*
X129300000Y-115250000D01*
X129300000Y-113550000D02*
X128300000Y-113550000D01*
X116000000Y-124850000D02*
X115000000Y-124850000D01*
X115000000Y-126550000D02*
X116000000Y-126550000D01*
X126200000Y-136950000D02*
X127200000Y-136950000D01*
X127200000Y-135250000D02*
X126200000Y-135250000D01*
X127900000Y-103250000D02*
X128900000Y-103250000D01*
X128900000Y-101550000D02*
X127900000Y-101550000D01*
X128300000Y-112450000D02*
X129300000Y-112450000D01*
X129300000Y-110750000D02*
X128300000Y-110750000D01*
X129000000Y-124250000D02*
X130000000Y-124250000D01*
X130000000Y-122550000D02*
X129000000Y-122550000D01*
X126300000Y-134550000D02*
X127300000Y-134550000D01*
X127300000Y-132850000D02*
X126300000Y-132850000D01*
X141650000Y-103200000D02*
X141650000Y-102200000D01*
X139950000Y-102200000D02*
X139950000Y-103200000D01*
X118600000Y-130050000D02*
X119600000Y-130050000D01*
X119600000Y-128350000D02*
X118600000Y-128350000D01*
X128300000Y-132250000D02*
X129300000Y-132250000D01*
X129300000Y-130550000D02*
X128300000Y-130550000D01*
X102399900Y-107948820D02*
X102399900Y-109000380D01*
X104000100Y-109051180D02*
X104000100Y-107999620D01*
X111699900Y-103848820D02*
X111699900Y-104900380D01*
X113300100Y-104951180D02*
X113300100Y-103899620D01*
X111899900Y-113248820D02*
X111899900Y-114300380D01*
X113500100Y-114351180D02*
X113500100Y-113299620D01*
X111599900Y-124748820D02*
X111599900Y-125800380D01*
X113200100Y-125851180D02*
X113200100Y-124799620D01*
X111599900Y-134748820D02*
X111599900Y-135800380D01*
X113200100Y-135851180D02*
X113200100Y-134799620D01*
X111799900Y-143748820D02*
X111799900Y-144800380D01*
X113400100Y-144851180D02*
X113400100Y-143799620D01*
X113848820Y-101000100D02*
X114900380Y-101000100D01*
X114951180Y-99399900D02*
X113899620Y-99399900D01*
X113948820Y-110500100D02*
X115000380Y-110500100D01*
X115051180Y-108899900D02*
X113999620Y-108899900D01*
X113648820Y-122200100D02*
X114700380Y-122200100D01*
X114751180Y-120599900D02*
X113699620Y-120599900D01*
X113848820Y-132200100D02*
X114900380Y-132200100D01*
X114951180Y-130599900D02*
X113899620Y-130599900D01*
X113948820Y-141200100D02*
X115000380Y-141200100D01*
X115051180Y-139599900D02*
X113999620Y-139599900D01*
X122199900Y-103948820D02*
X122199900Y-105000380D01*
X123800100Y-105051180D02*
X123800100Y-103999620D01*
X121599900Y-113048820D02*
X121599900Y-114100380D01*
X123200100Y-114151180D02*
X123200100Y-113099620D01*
X121399900Y-122648820D02*
X121399900Y-123700380D01*
X123000100Y-123751180D02*
X123000100Y-122699620D01*
X121399900Y-134848820D02*
X121399900Y-135900380D01*
X123000100Y-135951180D02*
X123000100Y-134899620D01*
X125999900Y-143848820D02*
X125999900Y-144900380D01*
X127600100Y-144951180D02*
X127600100Y-143899620D01*
X124548820Y-101100100D02*
X125600380Y-101100100D01*
X125651180Y-99499900D02*
X124599620Y-99499900D01*
X123648820Y-110300100D02*
X124700380Y-110300100D01*
X124751180Y-108699900D02*
X123699620Y-108699900D01*
X125848820Y-122100100D02*
X126900380Y-122100100D01*
X126951180Y-120499900D02*
X125899620Y-120499900D01*
X123448820Y-132200100D02*
X124500380Y-132200100D01*
X124551180Y-130599900D02*
X123499620Y-130599900D01*
X130399900Y-103848820D02*
X130399900Y-104900380D01*
X132000100Y-104951180D02*
X132000100Y-103899620D01*
X131299900Y-113048820D02*
X131299900Y-114100380D01*
X132900100Y-114151180D02*
X132900100Y-113099620D01*
X131599900Y-124648820D02*
X131599900Y-125700380D01*
X133200100Y-125751180D02*
X133200100Y-124699620D01*
X128899900Y-134748820D02*
X128899900Y-135800380D01*
X130500100Y-135851180D02*
X130500100Y-134799620D01*
X139999900Y-107448820D02*
X139999900Y-108500380D01*
X141600100Y-108551180D02*
X141600100Y-107499620D01*
X120225000Y-80800000D02*
X120225000Y-79600000D01*
X121975000Y-79600000D02*
X121975000Y-80800000D01*
X123800000Y-59725000D02*
X125000000Y-59725000D01*
X125000000Y-61475000D02*
X123800000Y-61475000D01*
X120092500Y-63617400D02*
X120092500Y-62417400D01*
X121842500Y-62417400D02*
X121842500Y-63617400D01*
X114906500Y-80201800D02*
X116106500Y-80201800D01*
X116106500Y-81951800D02*
X114906500Y-81951800D01*
X133500000Y-62725000D02*
X134700000Y-62725000D01*
X134700000Y-64475000D02*
X133500000Y-64475000D01*
X110975000Y-144500000D02*
X110975000Y-145700000D01*
X109225000Y-145700000D02*
X109225000Y-144500000D01*
X111075000Y-133700000D02*
X111075000Y-134900000D01*
X109325000Y-134900000D02*
X109325000Y-133700000D01*
X114900000Y-128425000D02*
X116100000Y-128425000D01*
X116100000Y-130175000D02*
X114900000Y-130175000D01*
X113100000Y-117925000D02*
X114300000Y-117925000D01*
X114300000Y-119675000D02*
X113100000Y-119675000D01*
X120975000Y-104100000D02*
X120975000Y-105300000D01*
X119225000Y-105300000D02*
X119225000Y-104100000D01*
X110606840Y-72837040D02*
X106207560Y-72837040D01*
X106207560Y-73337420D02*
X106207560Y-82339180D01*
X110606840Y-82339180D02*
X110606840Y-73337420D01*
X111709200Y-72184260D02*
X110609380Y-72184260D01*
X111208820Y-71584820D02*
X111208820Y-72783700D01*
X164500000Y-73150000D02*
X165500000Y-73150000D01*
X165500000Y-71450000D02*
X164500000Y-71450000D01*
X175700000Y-136600000D02*
X189700000Y-136600000D01*
X189700000Y-136600000D02*
X189700000Y-145600000D01*
X189700000Y-145600000D02*
X175700000Y-145600000D01*
X175700000Y-145600000D02*
X175700000Y-136600000D01*
X152895000Y-115694000D02*
X152895000Y-110360000D01*
X152895000Y-110360000D02*
X156578000Y-110360000D01*
X156578000Y-110360000D02*
X156578000Y-115694000D01*
X156578000Y-115694000D02*
X152895000Y-115694000D01*
X156283519Y-115102180D02*
G75*
G03X156283519Y-115102180I-325279J0D01*
G01*
X157105000Y-100706000D02*
X157105000Y-106040000D01*
X157105000Y-106040000D02*
X153422000Y-106040000D01*
X153422000Y-106040000D02*
X153422000Y-100706000D01*
X153422000Y-100706000D02*
X157105000Y-100706000D01*
X154367039Y-101297820D02*
G75*
G03X154367039Y-101297820I-325279J0D01*
G01*
X152895000Y-124994000D02*
X152895000Y-119660000D01*
X152895000Y-119660000D02*
X156578000Y-119660000D01*
X156578000Y-119660000D02*
X156578000Y-124994000D01*
X156578000Y-124994000D02*
X152895000Y-124994000D01*
X156283519Y-124402180D02*
G75*
G03X156283519Y-124402180I-325279J0D01*
G01*
X152895000Y-135294000D02*
X152895000Y-129960000D01*
X152895000Y-129960000D02*
X156578000Y-129960000D01*
X156578000Y-129960000D02*
X156578000Y-135294000D01*
X156578000Y-135294000D02*
X152895000Y-135294000D01*
X156283519Y-134702180D02*
G75*
G03X156283519Y-134702180I-325279J0D01*
G01*
D13*
G36*
X165995480Y-146096620D02*
X166005640Y-146091540D01*
X166028500Y-146076300D01*
X166061520Y-146055980D01*
X166102160Y-146028040D01*
X166140260Y-146002640D01*
X166173280Y-145979780D01*
X166196140Y-145964540D01*
X166206300Y-145959460D01*
X166211380Y-145962000D01*
X166229160Y-145972160D01*
X166257100Y-145984860D01*
X166272340Y-145992480D01*
X166297740Y-146005180D01*
X166310440Y-146007720D01*
X166312980Y-146002640D01*
X166323140Y-145984860D01*
X166335840Y-145951840D01*
X166356160Y-145908660D01*
X166376480Y-145857860D01*
X166399340Y-145801980D01*
X166422200Y-145746100D01*
X166445060Y-145692760D01*
X166465380Y-145644500D01*
X166480620Y-145606400D01*
X166490780Y-145578460D01*
X166495860Y-145568300D01*
X166493320Y-145565760D01*
X166480620Y-145553060D01*
X166460300Y-145537820D01*
X166412040Y-145497180D01*
X166366320Y-145438760D01*
X166335840Y-145372720D01*
X166328220Y-145299060D01*
X166335840Y-145233020D01*
X166361240Y-145169520D01*
X166406960Y-145108560D01*
X166462840Y-145065380D01*
X166528880Y-145037440D01*
X166600000Y-145029820D01*
X166668580Y-145037440D01*
X166734620Y-145062840D01*
X166795580Y-145108560D01*
X166818440Y-145136500D01*
X166854000Y-145197460D01*
X166874320Y-145258420D01*
X166874320Y-145273660D01*
X166871780Y-145344780D01*
X166851460Y-145413360D01*
X166815900Y-145471780D01*
X166762560Y-145522580D01*
X166757480Y-145527660D01*
X166732080Y-145545440D01*
X166716840Y-145555600D01*
X166704140Y-145565760D01*
X166793040Y-145781660D01*
X166808280Y-145817220D01*
X166833680Y-145875640D01*
X166854000Y-145926440D01*
X166871780Y-145967080D01*
X166884480Y-145992480D01*
X166889560Y-146005180D01*
X166889560Y-146005180D01*
X166897180Y-146005180D01*
X166912420Y-146000100D01*
X166942900Y-145984860D01*
X166963220Y-145974700D01*
X166986080Y-145964540D01*
X166996240Y-145959460D01*
X167006400Y-145964540D01*
X167026720Y-145979780D01*
X167059740Y-146000100D01*
X167097840Y-146025500D01*
X167133400Y-146050900D01*
X167168960Y-146073760D01*
X167191820Y-146089000D01*
X167204520Y-146096620D01*
X167207060Y-146096620D01*
X167217220Y-146089000D01*
X167237540Y-146073760D01*
X167265480Y-146045820D01*
X167306120Y-146005180D01*
X167313740Y-146000100D01*
X167346760Y-145964540D01*
X167374700Y-145934060D01*
X167395020Y-145913740D01*
X167400100Y-145906120D01*
X167400100Y-145906120D01*
X167395020Y-145893420D01*
X167379780Y-145868020D01*
X167356920Y-145835000D01*
X167328980Y-145794360D01*
X167257860Y-145690220D01*
X167298500Y-145593700D01*
X167308660Y-145563220D01*
X167323900Y-145527660D01*
X167336600Y-145502260D01*
X167341680Y-145489560D01*
X167351840Y-145487020D01*
X167379780Y-145479400D01*
X167417880Y-145471780D01*
X167463600Y-145464160D01*
X167509320Y-145454000D01*
X167547420Y-145446380D01*
X167577900Y-145441300D01*
X167590600Y-145438760D01*
X167593140Y-145436220D01*
X167595680Y-145431140D01*
X167598220Y-145418440D01*
X167598220Y-145393040D01*
X167598220Y-145354940D01*
X167598220Y-145299060D01*
X167598220Y-145293980D01*
X167598220Y-145240640D01*
X167598220Y-145200000D01*
X167595680Y-145174600D01*
X167593140Y-145164440D01*
X167593140Y-145164440D01*
X167580440Y-145159360D01*
X167552500Y-145154280D01*
X167514400Y-145146660D01*
X167466140Y-145136500D01*
X167463600Y-145136500D01*
X167415340Y-145128880D01*
X167377240Y-145118720D01*
X167349300Y-145113640D01*
X167336600Y-145108560D01*
X167334060Y-145106020D01*
X167323900Y-145088240D01*
X167311200Y-145057760D01*
X167295960Y-145022200D01*
X167280720Y-144986640D01*
X167265480Y-144951080D01*
X167257860Y-144928220D01*
X167255320Y-144915520D01*
X167255320Y-144915520D01*
X167262940Y-144905360D01*
X167278180Y-144879960D01*
X167301040Y-144846940D01*
X167328980Y-144806300D01*
X167331520Y-144801220D01*
X167359460Y-144763120D01*
X167379780Y-144727560D01*
X167395020Y-144704700D01*
X167400100Y-144694540D01*
X167400100Y-144692000D01*
X167392480Y-144681840D01*
X167372160Y-144658980D01*
X167341680Y-144628500D01*
X167306120Y-144592940D01*
X167295960Y-144582780D01*
X167257860Y-144544680D01*
X167229920Y-144519280D01*
X167212140Y-144506580D01*
X167204520Y-144501500D01*
X167204520Y-144504040D01*
X167191820Y-144509120D01*
X167166420Y-144526900D01*
X167133400Y-144549760D01*
X167092760Y-144577700D01*
X167090220Y-144580240D01*
X167049580Y-144605640D01*
X167016560Y-144628500D01*
X166993700Y-144643740D01*
X166983540Y-144651360D01*
X166981000Y-144651360D01*
X166965760Y-144646280D01*
X166935280Y-144636120D01*
X166902260Y-144623420D01*
X166864160Y-144608180D01*
X166831140Y-144592940D01*
X166805740Y-144582780D01*
X166793040Y-144575160D01*
X166793040Y-144575160D01*
X166787960Y-144559920D01*
X166782880Y-144529440D01*
X166772720Y-144488800D01*
X166765100Y-144440540D01*
X166762560Y-144432920D01*
X166754940Y-144384660D01*
X166747320Y-144346560D01*
X166739700Y-144318620D01*
X166737160Y-144305920D01*
X166732080Y-144305920D01*
X166706680Y-144303380D01*
X166671120Y-144303380D01*
X166627940Y-144303380D01*
X166584760Y-144303380D01*
X166541580Y-144303380D01*
X166503480Y-144305920D01*
X166478080Y-144305920D01*
X166465380Y-144308460D01*
X166465380Y-144311000D01*
X166460300Y-144323700D01*
X166455220Y-144354180D01*
X166445060Y-144394820D01*
X166437440Y-144445620D01*
X166434900Y-144453240D01*
X166427280Y-144501500D01*
X166417120Y-144539600D01*
X166412040Y-144567540D01*
X166409500Y-144577700D01*
X166404420Y-144580240D01*
X166386640Y-144587860D01*
X166353620Y-144600560D01*
X166312980Y-144618340D01*
X166221540Y-144653900D01*
X166109780Y-144577700D01*
X166099620Y-144570080D01*
X166058980Y-144542140D01*
X166025960Y-144521820D01*
X166003100Y-144506580D01*
X165992940Y-144501500D01*
X165992940Y-144501500D01*
X165982780Y-144511660D01*
X165959920Y-144531980D01*
X165929440Y-144562460D01*
X165893880Y-144595480D01*
X165868480Y-144623420D01*
X165838000Y-144653900D01*
X165817680Y-144674220D01*
X165807520Y-144689460D01*
X165802440Y-144697080D01*
X165804980Y-144702160D01*
X165810060Y-144714860D01*
X165827840Y-144737720D01*
X165850700Y-144773280D01*
X165878640Y-144811380D01*
X165901500Y-144846940D01*
X165924360Y-144882500D01*
X165939600Y-144910440D01*
X165947220Y-144923140D01*
X165944680Y-144928220D01*
X165937060Y-144951080D01*
X165924360Y-144984100D01*
X165906580Y-145024740D01*
X165868480Y-145113640D01*
X165810060Y-145123800D01*
X165774500Y-145131420D01*
X165723700Y-145139040D01*
X165677980Y-145149200D01*
X165604320Y-145164440D01*
X165601780Y-145431140D01*
X165611940Y-145436220D01*
X165624640Y-145441300D01*
X165650040Y-145446380D01*
X165690680Y-145454000D01*
X165736400Y-145461620D01*
X165774500Y-145469240D01*
X165815140Y-145476860D01*
X165843080Y-145481940D01*
X165855780Y-145484480D01*
X165858320Y-145489560D01*
X165868480Y-145509880D01*
X165883720Y-145540360D01*
X165898960Y-145575920D01*
X165914200Y-145614020D01*
X165926900Y-145649580D01*
X165937060Y-145674980D01*
X165942140Y-145690220D01*
X165937060Y-145700380D01*
X165921820Y-145723240D01*
X165898960Y-145756260D01*
X165873560Y-145794360D01*
X165845620Y-145835000D01*
X165822760Y-145868020D01*
X165807520Y-145893420D01*
X165799900Y-145903580D01*
X165804980Y-145911200D01*
X165820220Y-145928980D01*
X165848160Y-145959460D01*
X165893880Y-146005180D01*
X165901500Y-146010260D01*
X165934520Y-146045820D01*
X165965000Y-146071220D01*
X165985320Y-146091540D01*
X165995480Y-146096620D01*
X165995480Y-146096620D01*
G37*
X165995480Y-146096620D02*
X166005640Y-146091540D01*
X166028500Y-146076300D01*
X166061520Y-146055980D01*
X166102160Y-146028040D01*
X166140260Y-146002640D01*
X166173280Y-145979780D01*
X166196140Y-145964540D01*
X166206300Y-145959460D01*
X166211380Y-145962000D01*
X166229160Y-145972160D01*
X166257100Y-145984860D01*
X166272340Y-145992480D01*
X166297740Y-146005180D01*
X166310440Y-146007720D01*
X166312980Y-146002640D01*
X166323140Y-145984860D01*
X166335840Y-145951840D01*
X166356160Y-145908660D01*
X166376480Y-145857860D01*
X166399340Y-145801980D01*
X166422200Y-145746100D01*
X166445060Y-145692760D01*
X166465380Y-145644500D01*
X166480620Y-145606400D01*
X166490780Y-145578460D01*
X166495860Y-145568300D01*
X166493320Y-145565760D01*
X166480620Y-145553060D01*
X166460300Y-145537820D01*
X166412040Y-145497180D01*
X166366320Y-145438760D01*
X166335840Y-145372720D01*
X166328220Y-145299060D01*
X166335840Y-145233020D01*
X166361240Y-145169520D01*
X166406960Y-145108560D01*
X166462840Y-145065380D01*
X166528880Y-145037440D01*
X166600000Y-145029820D01*
X166668580Y-145037440D01*
X166734620Y-145062840D01*
X166795580Y-145108560D01*
X166818440Y-145136500D01*
X166854000Y-145197460D01*
X166874320Y-145258420D01*
X166874320Y-145273660D01*
X166871780Y-145344780D01*
X166851460Y-145413360D01*
X166815900Y-145471780D01*
X166762560Y-145522580D01*
X166757480Y-145527660D01*
X166732080Y-145545440D01*
X166716840Y-145555600D01*
X166704140Y-145565760D01*
X166793040Y-145781660D01*
X166808280Y-145817220D01*
X166833680Y-145875640D01*
X166854000Y-145926440D01*
X166871780Y-145967080D01*
X166884480Y-145992480D01*
X166889560Y-146005180D01*
X166889560Y-146005180D01*
X166897180Y-146005180D01*
X166912420Y-146000100D01*
X166942900Y-145984860D01*
X166963220Y-145974700D01*
X166986080Y-145964540D01*
X166996240Y-145959460D01*
X167006400Y-145964540D01*
X167026720Y-145979780D01*
X167059740Y-146000100D01*
X167097840Y-146025500D01*
X167133400Y-146050900D01*
X167168960Y-146073760D01*
X167191820Y-146089000D01*
X167204520Y-146096620D01*
X167207060Y-146096620D01*
X167217220Y-146089000D01*
X167237540Y-146073760D01*
X167265480Y-146045820D01*
X167306120Y-146005180D01*
X167313740Y-146000100D01*
X167346760Y-145964540D01*
X167374700Y-145934060D01*
X167395020Y-145913740D01*
X167400100Y-145906120D01*
X167400100Y-145906120D01*
X167395020Y-145893420D01*
X167379780Y-145868020D01*
X167356920Y-145835000D01*
X167328980Y-145794360D01*
X167257860Y-145690220D01*
X167298500Y-145593700D01*
X167308660Y-145563220D01*
X167323900Y-145527660D01*
X167336600Y-145502260D01*
X167341680Y-145489560D01*
X167351840Y-145487020D01*
X167379780Y-145479400D01*
X167417880Y-145471780D01*
X167463600Y-145464160D01*
X167509320Y-145454000D01*
X167547420Y-145446380D01*
X167577900Y-145441300D01*
X167590600Y-145438760D01*
X167593140Y-145436220D01*
X167595680Y-145431140D01*
X167598220Y-145418440D01*
X167598220Y-145393040D01*
X167598220Y-145354940D01*
X167598220Y-145299060D01*
X167598220Y-145293980D01*
X167598220Y-145240640D01*
X167598220Y-145200000D01*
X167595680Y-145174600D01*
X167593140Y-145164440D01*
X167593140Y-145164440D01*
X167580440Y-145159360D01*
X167552500Y-145154280D01*
X167514400Y-145146660D01*
X167466140Y-145136500D01*
X167463600Y-145136500D01*
X167415340Y-145128880D01*
X167377240Y-145118720D01*
X167349300Y-145113640D01*
X167336600Y-145108560D01*
X167334060Y-145106020D01*
X167323900Y-145088240D01*
X167311200Y-145057760D01*
X167295960Y-145022200D01*
X167280720Y-144986640D01*
X167265480Y-144951080D01*
X167257860Y-144928220D01*
X167255320Y-144915520D01*
X167255320Y-144915520D01*
X167262940Y-144905360D01*
X167278180Y-144879960D01*
X167301040Y-144846940D01*
X167328980Y-144806300D01*
X167331520Y-144801220D01*
X167359460Y-144763120D01*
X167379780Y-144727560D01*
X167395020Y-144704700D01*
X167400100Y-144694540D01*
X167400100Y-144692000D01*
X167392480Y-144681840D01*
X167372160Y-144658980D01*
X167341680Y-144628500D01*
X167306120Y-144592940D01*
X167295960Y-144582780D01*
X167257860Y-144544680D01*
X167229920Y-144519280D01*
X167212140Y-144506580D01*
X167204520Y-144501500D01*
X167204520Y-144504040D01*
X167191820Y-144509120D01*
X167166420Y-144526900D01*
X167133400Y-144549760D01*
X167092760Y-144577700D01*
X167090220Y-144580240D01*
X167049580Y-144605640D01*
X167016560Y-144628500D01*
X166993700Y-144643740D01*
X166983540Y-144651360D01*
X166981000Y-144651360D01*
X166965760Y-144646280D01*
X166935280Y-144636120D01*
X166902260Y-144623420D01*
X166864160Y-144608180D01*
X166831140Y-144592940D01*
X166805740Y-144582780D01*
X166793040Y-144575160D01*
X166793040Y-144575160D01*
X166787960Y-144559920D01*
X166782880Y-144529440D01*
X166772720Y-144488800D01*
X166765100Y-144440540D01*
X166762560Y-144432920D01*
X166754940Y-144384660D01*
X166747320Y-144346560D01*
X166739700Y-144318620D01*
X166737160Y-144305920D01*
X166732080Y-144305920D01*
X166706680Y-144303380D01*
X166671120Y-144303380D01*
X166627940Y-144303380D01*
X166584760Y-144303380D01*
X166541580Y-144303380D01*
X166503480Y-144305920D01*
X166478080Y-144305920D01*
X166465380Y-144308460D01*
X166465380Y-144311000D01*
X166460300Y-144323700D01*
X166455220Y-144354180D01*
X166445060Y-144394820D01*
X166437440Y-144445620D01*
X166434900Y-144453240D01*
X166427280Y-144501500D01*
X166417120Y-144539600D01*
X166412040Y-144567540D01*
X166409500Y-144577700D01*
X166404420Y-144580240D01*
X166386640Y-144587860D01*
X166353620Y-144600560D01*
X166312980Y-144618340D01*
X166221540Y-144653900D01*
X166109780Y-144577700D01*
X166099620Y-144570080D01*
X166058980Y-144542140D01*
X166025960Y-144521820D01*
X166003100Y-144506580D01*
X165992940Y-144501500D01*
X165992940Y-144501500D01*
X165982780Y-144511660D01*
X165959920Y-144531980D01*
X165929440Y-144562460D01*
X165893880Y-144595480D01*
X165868480Y-144623420D01*
X165838000Y-144653900D01*
X165817680Y-144674220D01*
X165807520Y-144689460D01*
X165802440Y-144697080D01*
X165804980Y-144702160D01*
X165810060Y-144714860D01*
X165827840Y-144737720D01*
X165850700Y-144773280D01*
X165878640Y-144811380D01*
X165901500Y-144846940D01*
X165924360Y-144882500D01*
X165939600Y-144910440D01*
X165947220Y-144923140D01*
X165944680Y-144928220D01*
X165937060Y-144951080D01*
X165924360Y-144984100D01*
X165906580Y-145024740D01*
X165868480Y-145113640D01*
X165810060Y-145123800D01*
X165774500Y-145131420D01*
X165723700Y-145139040D01*
X165677980Y-145149200D01*
X165604320Y-145164440D01*
X165601780Y-145431140D01*
X165611940Y-145436220D01*
X165624640Y-145441300D01*
X165650040Y-145446380D01*
X165690680Y-145454000D01*
X165736400Y-145461620D01*
X165774500Y-145469240D01*
X165815140Y-145476860D01*
X165843080Y-145481940D01*
X165855780Y-145484480D01*
X165858320Y-145489560D01*
X165868480Y-145509880D01*
X165883720Y-145540360D01*
X165898960Y-145575920D01*
X165914200Y-145614020D01*
X165926900Y-145649580D01*
X165937060Y-145674980D01*
X165942140Y-145690220D01*
X165937060Y-145700380D01*
X165921820Y-145723240D01*
X165898960Y-145756260D01*
X165873560Y-145794360D01*
X165845620Y-145835000D01*
X165822760Y-145868020D01*
X165807520Y-145893420D01*
X165799900Y-145903580D01*
X165804980Y-145911200D01*
X165820220Y-145928980D01*
X165848160Y-145959460D01*
X165893880Y-146005180D01*
X165901500Y-146010260D01*
X165934520Y-146045820D01*
X165965000Y-146071220D01*
X165985320Y-146091540D01*
X165995480Y-146096620D01*
D12*
X102752381Y-116338095D02*
X101752381Y-116338095D01*
X101752381Y-116100000D01*
X101800000Y-115957142D01*
X101895238Y-115861904D01*
X101990476Y-115814285D01*
X102180952Y-115766666D01*
X102323810Y-115766666D01*
X102514286Y-115814285D01*
X102609524Y-115861904D01*
X102704762Y-115957142D01*
X102752381Y-116100000D01*
X102752381Y-116338095D01*
X101752381Y-114909523D02*
X101752381Y-115100000D01*
X101800000Y-115195238D01*
X101847619Y-115242857D01*
X101990476Y-115338095D01*
X102180952Y-115385714D01*
X102561905Y-115385714D01*
X102657143Y-115338095D01*
X102704762Y-115290476D01*
X102752381Y-115195238D01*
X102752381Y-115004761D01*
X102704762Y-114909523D01*
X102657143Y-114861904D01*
X102561905Y-114814285D01*
X102323810Y-114814285D01*
X102228571Y-114861904D01*
X102180952Y-114909523D01*
X102133333Y-115004761D01*
X102133333Y-115195238D01*
X102180952Y-115290476D01*
X102228571Y-115338095D01*
X102323810Y-115385714D01*
X106366867Y-119437555D02*
X106366867Y-118961364D01*
X106652581Y-119532793D02*
X105652581Y-119199460D01*
X106652581Y-118866126D01*
X106751641Y-113162165D02*
X105751641Y-113162165D01*
X106751641Y-112590736D02*
X106180212Y-113019308D01*
X105751641Y-112590736D02*
X106323070Y-113162165D01*
X111452681Y-116904795D02*
X110452681Y-116904795D01*
X110452681Y-116666700D01*
X110500300Y-116523842D01*
X110595538Y-116428604D01*
X110690776Y-116380985D01*
X110881252Y-116333366D01*
X111024110Y-116333366D01*
X111214586Y-116380985D01*
X111309824Y-116428604D01*
X111405062Y-116523842D01*
X111452681Y-116666700D01*
X111452681Y-116904795D01*
X110452681Y-116000033D02*
X110452681Y-115333366D01*
X111452681Y-115761938D01*
X110366867Y-119437555D02*
X110366867Y-118961364D01*
X110652581Y-119532793D02*
X109652581Y-119199460D01*
X110652581Y-118866126D01*
X110751641Y-113162165D02*
X109751641Y-113162165D01*
X110751641Y-112590736D02*
X110180212Y-113019308D01*
X109751641Y-112590736D02*
X110323070Y-113162165D01*
X106773005Y-124619381D02*
X106773005Y-123619381D01*
X107011100Y-123619381D01*
X107153958Y-123667000D01*
X107249196Y-123762238D01*
X107296815Y-123857476D01*
X107344434Y-124047952D01*
X107344434Y-124190810D01*
X107296815Y-124381286D01*
X107249196Y-124476524D01*
X107153958Y-124571762D01*
X107011100Y-124619381D01*
X106773005Y-124619381D01*
X107915862Y-124047952D02*
X107820624Y-124000333D01*
X107773005Y-123952714D01*
X107725386Y-123857476D01*
X107725386Y-123809857D01*
X107773005Y-123714619D01*
X107820624Y-123667000D01*
X107915862Y-123619381D01*
X108106339Y-123619381D01*
X108201577Y-123667000D01*
X108249196Y-123714619D01*
X108296815Y-123809857D01*
X108296815Y-123857476D01*
X108249196Y-123952714D01*
X108201577Y-124000333D01*
X108106339Y-124047952D01*
X107915862Y-124047952D01*
X107820624Y-124095571D01*
X107773005Y-124143190D01*
X107725386Y-124238429D01*
X107725386Y-124428905D01*
X107773005Y-124524143D01*
X107820624Y-124571762D01*
X107915862Y-124619381D01*
X108106339Y-124619381D01*
X108201577Y-124571762D01*
X108249196Y-124524143D01*
X108296815Y-124428905D01*
X108296815Y-124238429D01*
X108249196Y-124143190D01*
X108201577Y-124095571D01*
X108106339Y-124047952D01*
X104062445Y-123266867D02*
X104538636Y-123266867D01*
X103967207Y-123552581D02*
X104300540Y-122552581D01*
X104633874Y-123552581D01*
X110337835Y-123651641D02*
X110337835Y-122651641D01*
X110909264Y-123651641D02*
X110480692Y-123080212D01*
X110909264Y-122651641D02*
X110337835Y-123223070D01*
X111366981Y-127988895D02*
X110366981Y-127988895D01*
X110366981Y-127750800D01*
X110414600Y-127607942D01*
X110509838Y-127512704D01*
X110605076Y-127465085D01*
X110795552Y-127417466D01*
X110938410Y-127417466D01*
X111128886Y-127465085D01*
X111224124Y-127512704D01*
X111319362Y-127607942D01*
X111366981Y-127750800D01*
X111366981Y-127988895D01*
X111366981Y-126941276D02*
X111366981Y-126750800D01*
X111319362Y-126655561D01*
X111271743Y-126607942D01*
X111128886Y-126512704D01*
X110938410Y-126465085D01*
X110557457Y-126465085D01*
X110462219Y-126512704D01*
X110414600Y-126560323D01*
X110366981Y-126655561D01*
X110366981Y-126846038D01*
X110414600Y-126941276D01*
X110462219Y-126988895D01*
X110557457Y-127036514D01*
X110795552Y-127036514D01*
X110890790Y-126988895D01*
X110938410Y-126941276D01*
X110986029Y-126846038D01*
X110986029Y-126655561D01*
X110938410Y-126560323D01*
X110890790Y-126512704D01*
X110795552Y-126465085D01*
X106966467Y-124138635D02*
X106966467Y-123662444D01*
X107252181Y-124233873D02*
X106252181Y-123900540D01*
X107252181Y-123567206D01*
X107153121Y-130461645D02*
X106153121Y-130461645D01*
X107153121Y-129890216D02*
X106581692Y-130318788D01*
X106153121Y-129890216D02*
X106724550Y-130461645D01*
X102453681Y-128112686D02*
X101453681Y-128112686D01*
X101453681Y-127874591D01*
X101501300Y-127731733D01*
X101596538Y-127636495D01*
X101691776Y-127588876D01*
X101882252Y-127541257D01*
X102025110Y-127541257D01*
X102215586Y-127588876D01*
X102310824Y-127636495D01*
X102406062Y-127731733D01*
X102453681Y-127874591D01*
X102453681Y-128112686D01*
X102453681Y-126588876D02*
X102453681Y-127160305D01*
X102453681Y-126874591D02*
X101453681Y-126874591D01*
X101596538Y-126969829D01*
X101691776Y-127065067D01*
X101739395Y-127160305D01*
X101453681Y-125969829D02*
X101453681Y-125874590D01*
X101501300Y-125779352D01*
X101548919Y-125731733D01*
X101644157Y-125684114D01*
X101834633Y-125636495D01*
X102072729Y-125636495D01*
X102263205Y-125684114D01*
X102358443Y-125731733D01*
X102406062Y-125779352D01*
X102453681Y-125874590D01*
X102453681Y-125969829D01*
X102406062Y-126065067D01*
X102358443Y-126112686D01*
X102263205Y-126160305D01*
X102072729Y-126207924D01*
X101834633Y-126207924D01*
X101644157Y-126160305D01*
X101548919Y-126112686D01*
X101501300Y-126065067D01*
X101453681Y-125969829D01*
X102866467Y-123938635D02*
X102866467Y-123462444D01*
X103152181Y-124033873D02*
X102152181Y-123700540D01*
X103152181Y-123367206D01*
X103053121Y-130261645D02*
X102053121Y-130261645D01*
X103053121Y-129690216D02*
X102481692Y-130118788D01*
X102053121Y-129690216D02*
X102624550Y-130261645D01*
X142889181Y-128549186D02*
X141889181Y-128549186D01*
X141889181Y-128311091D01*
X141936800Y-128168233D01*
X142032038Y-128072995D01*
X142127276Y-128025376D01*
X142317752Y-127977757D01*
X142460610Y-127977757D01*
X142651086Y-128025376D01*
X142746324Y-128072995D01*
X142841562Y-128168233D01*
X142889181Y-128311091D01*
X142889181Y-128549186D01*
X142889181Y-127025376D02*
X142889181Y-127596805D01*
X142889181Y-127311091D02*
X141889181Y-127311091D01*
X142032038Y-127406329D01*
X142127276Y-127501567D01*
X142174895Y-127596805D01*
X142889181Y-126072995D02*
X142889181Y-126644424D01*
X142889181Y-126358710D02*
X141889181Y-126358710D01*
X142032038Y-126453948D01*
X142127276Y-126549186D01*
X142174895Y-126644424D01*
X138666467Y-124438635D02*
X138666467Y-123962444D01*
X138952181Y-124533873D02*
X137952181Y-124200540D01*
X138952181Y-123867206D01*
X138853121Y-130761645D02*
X137853121Y-130761645D01*
X138853121Y-130190216D02*
X138281692Y-130618788D01*
X137853121Y-130190216D02*
X138424550Y-130761645D01*
X143252381Y-116014286D02*
X142252381Y-116014286D01*
X142252381Y-115776191D01*
X142300000Y-115633333D01*
X142395238Y-115538095D01*
X142490476Y-115490476D01*
X142680952Y-115442857D01*
X142823810Y-115442857D01*
X143014286Y-115490476D01*
X143109524Y-115538095D01*
X143204762Y-115633333D01*
X143252381Y-115776191D01*
X143252381Y-116014286D01*
X143252381Y-114490476D02*
X143252381Y-115061905D01*
X143252381Y-114776191D02*
X142252381Y-114776191D01*
X142395238Y-114871429D01*
X142490476Y-114966667D01*
X142538095Y-115061905D01*
X142347619Y-114109524D02*
X142300000Y-114061905D01*
X142252381Y-113966667D01*
X142252381Y-113728571D01*
X142300000Y-113633333D01*
X142347619Y-113585714D01*
X142442857Y-113538095D01*
X142538095Y-113538095D01*
X142680952Y-113585714D01*
X143252381Y-114157143D01*
X143252381Y-113538095D01*
X142166867Y-118637555D02*
X142166867Y-118161364D01*
X142452581Y-118732793D02*
X141452581Y-118399460D01*
X142452581Y-118066126D01*
X142551641Y-112362165D02*
X141551641Y-112362165D01*
X142551641Y-111790736D02*
X141980212Y-112219308D01*
X141551641Y-111790736D02*
X142123070Y-112362165D01*
X134528281Y-116338086D02*
X133528281Y-116338086D01*
X133528281Y-116099991D01*
X133575900Y-115957133D01*
X133671138Y-115861895D01*
X133766376Y-115814276D01*
X133956852Y-115766657D01*
X134099710Y-115766657D01*
X134290186Y-115814276D01*
X134385424Y-115861895D01*
X134480662Y-115957133D01*
X134528281Y-116099991D01*
X134528281Y-116338086D01*
X134528281Y-114814276D02*
X134528281Y-115385705D01*
X134528281Y-115099991D02*
X133528281Y-115099991D01*
X133671138Y-115195229D01*
X133766376Y-115290467D01*
X133813995Y-115385705D01*
X133528281Y-114480943D02*
X133528281Y-113861895D01*
X133909233Y-114195229D01*
X133909233Y-114052371D01*
X133956852Y-113957133D01*
X134004471Y-113909514D01*
X134099710Y-113861895D01*
X134337805Y-113861895D01*
X134433043Y-113909514D01*
X134480662Y-113957133D01*
X134528281Y-114052371D01*
X134528281Y-114338086D01*
X134480662Y-114433324D01*
X134433043Y-114480943D01*
X138166867Y-118737555D02*
X138166867Y-118261364D01*
X138452581Y-118832793D02*
X137452581Y-118499460D01*
X138452581Y-118166126D01*
X138551641Y-112462165D02*
X137551641Y-112462165D01*
X138551641Y-111890736D02*
X137980212Y-112319308D01*
X137551641Y-111890736D02*
X138123070Y-112462165D01*
X136154314Y-123867581D02*
X136154314Y-122867581D01*
X136392409Y-122867581D01*
X136535267Y-122915200D01*
X136630505Y-123010438D01*
X136678124Y-123105676D01*
X136725743Y-123296152D01*
X136725743Y-123439010D01*
X136678124Y-123629486D01*
X136630505Y-123724724D01*
X136535267Y-123819962D01*
X136392409Y-123867581D01*
X136154314Y-123867581D01*
X137678124Y-123867581D02*
X137106695Y-123867581D01*
X137392409Y-123867581D02*
X137392409Y-122867581D01*
X137297171Y-123010438D01*
X137201933Y-123105676D01*
X137106695Y-123153295D01*
X138535267Y-123200914D02*
X138535267Y-123867581D01*
X138297171Y-122819962D02*
X138059076Y-123534248D01*
X138678124Y-123534248D01*
X140361365Y-119766467D02*
X140837556Y-119766467D01*
X140266127Y-120052181D02*
X140599460Y-119052181D01*
X140932794Y-120052181D01*
X134038355Y-119953121D02*
X134038355Y-118953121D01*
X134609784Y-119953121D02*
X134181212Y-119381692D01*
X134609784Y-118953121D02*
X134038355Y-119524550D01*
X134952381Y-128914286D02*
X133952381Y-128914286D01*
X133952381Y-128676191D01*
X134000000Y-128533333D01*
X134095238Y-128438095D01*
X134190476Y-128390476D01*
X134380952Y-128342857D01*
X134523810Y-128342857D01*
X134714286Y-128390476D01*
X134809524Y-128438095D01*
X134904762Y-128533333D01*
X134952381Y-128676191D01*
X134952381Y-128914286D01*
X134952381Y-127390476D02*
X134952381Y-127961905D01*
X134952381Y-127676191D02*
X133952381Y-127676191D01*
X134095238Y-127771429D01*
X134190476Y-127866667D01*
X134238095Y-127961905D01*
X133952381Y-126485714D02*
X133952381Y-126961905D01*
X134428571Y-127009524D01*
X134380952Y-126961905D01*
X134333333Y-126866667D01*
X134333333Y-126628571D01*
X134380952Y-126533333D01*
X134428571Y-126485714D01*
X134523810Y-126438095D01*
X134761905Y-126438095D01*
X134857143Y-126485714D01*
X134904762Y-126533333D01*
X134952381Y-126628571D01*
X134952381Y-126866667D01*
X134904762Y-126961905D01*
X134857143Y-127009524D01*
X134766467Y-124638635D02*
X134766467Y-124162444D01*
X135052181Y-124733873D02*
X134052181Y-124400540D01*
X135052181Y-124067206D01*
X134953121Y-130961645D02*
X133953121Y-130961645D01*
X134953121Y-130390216D02*
X134381692Y-130818788D01*
X133953121Y-130390216D02*
X134524550Y-130961645D01*
X161152381Y-60466666D02*
X161152381Y-60942857D01*
X160152381Y-60942857D01*
X161152381Y-59609523D02*
X161152381Y-60180952D01*
X161152381Y-59895238D02*
X160152381Y-59895238D01*
X160295238Y-59990476D01*
X160390476Y-60085714D01*
X160438095Y-60180952D01*
X142521734Y-74589081D02*
X142045543Y-74589081D01*
X142045543Y-73589081D01*
X142807448Y-73684319D02*
X142855067Y-73636700D01*
X142950305Y-73589081D01*
X143188401Y-73589081D01*
X143283639Y-73636700D01*
X143331258Y-73684319D01*
X143378877Y-73779557D01*
X143378877Y-73874795D01*
X143331258Y-74017652D01*
X142759829Y-74589081D01*
X143378877Y-74589081D01*
X155726634Y-74752581D02*
X155250443Y-74752581D01*
X155250443Y-73752581D01*
X155964729Y-73752581D02*
X156583777Y-73752581D01*
X156250443Y-74133533D01*
X156393301Y-74133533D01*
X156488539Y-74181152D01*
X156536158Y-74228771D01*
X156583777Y-74324010D01*
X156583777Y-74562105D01*
X156536158Y-74657343D01*
X156488539Y-74704962D01*
X156393301Y-74752581D01*
X156107586Y-74752581D01*
X156012348Y-74704962D01*
X155964729Y-74657343D01*
X193552381Y-64466666D02*
X193552381Y-64942857D01*
X192552381Y-64942857D01*
X192885714Y-63704761D02*
X193552381Y-63704761D01*
X192504762Y-63942857D02*
X193219048Y-64180952D01*
X193219048Y-63561904D01*
X193952381Y-79466666D02*
X193952381Y-79942857D01*
X192952381Y-79942857D01*
X192952381Y-78657142D02*
X192952381Y-79133333D01*
X193428571Y-79180952D01*
X193380952Y-79133333D01*
X193333333Y-79038095D01*
X193333333Y-78799999D01*
X193380952Y-78704761D01*
X193428571Y-78657142D01*
X193523810Y-78609523D01*
X193761905Y-78609523D01*
X193857143Y-78657142D01*
X193904762Y-78704761D01*
X193952381Y-78799999D01*
X193952381Y-79038095D01*
X193904762Y-79133333D01*
X193857143Y-79180952D01*
X193452381Y-97366666D02*
X193452381Y-97842857D01*
X192452381Y-97842857D01*
X192452381Y-96604761D02*
X192452381Y-96795238D01*
X192500000Y-96890476D01*
X192547619Y-96938095D01*
X192690476Y-97033333D01*
X192880952Y-97080952D01*
X193261905Y-97080952D01*
X193357143Y-97033333D01*
X193404762Y-96985714D01*
X193452381Y-96890476D01*
X193452381Y-96699999D01*
X193404762Y-96604761D01*
X193357143Y-96557142D01*
X193261905Y-96509523D01*
X193023810Y-96509523D01*
X192928571Y-96557142D01*
X192880952Y-96604761D01*
X192833333Y-96699999D01*
X192833333Y-96890476D01*
X192880952Y-96985714D01*
X192928571Y-97033333D01*
X193023810Y-97080952D01*
X184652381Y-128366666D02*
X184652381Y-128842857D01*
X183652381Y-128842857D01*
X183652381Y-128128571D02*
X183652381Y-127461904D01*
X184652381Y-127890476D01*
X193552381Y-113066666D02*
X193552381Y-113542857D01*
X192552381Y-113542857D01*
X192980952Y-112590476D02*
X192933333Y-112685714D01*
X192885714Y-112733333D01*
X192790476Y-112780952D01*
X192742857Y-112780952D01*
X192647619Y-112733333D01*
X192600000Y-112685714D01*
X192552381Y-112590476D01*
X192552381Y-112399999D01*
X192600000Y-112304761D01*
X192647619Y-112257142D01*
X192742857Y-112209523D01*
X192790476Y-112209523D01*
X192885714Y-112257142D01*
X192933333Y-112304761D01*
X192980952Y-112399999D01*
X192980952Y-112590476D01*
X193028571Y-112685714D01*
X193076190Y-112733333D01*
X193171429Y-112780952D01*
X193361905Y-112780952D01*
X193457143Y-112733333D01*
X193504762Y-112685714D01*
X193552381Y-112590476D01*
X193552381Y-112399999D01*
X193504762Y-112304761D01*
X193457143Y-112257142D01*
X193361905Y-112209523D01*
X193171429Y-112209523D01*
X193076190Y-112257142D01*
X193028571Y-112304761D01*
X192980952Y-112399999D01*
X183452381Y-64466666D02*
X183452381Y-64942857D01*
X182452381Y-64942857D01*
X183452381Y-64085714D02*
X183452381Y-63895238D01*
X183404762Y-63799999D01*
X183357143Y-63752380D01*
X183214286Y-63657142D01*
X183023810Y-63609523D01*
X182642857Y-63609523D01*
X182547619Y-63657142D01*
X182500000Y-63704761D01*
X182452381Y-63799999D01*
X182452381Y-63990476D01*
X182500000Y-64085714D01*
X182547619Y-64133333D01*
X182642857Y-64180952D01*
X182880952Y-64180952D01*
X182976190Y-64133333D01*
X183023810Y-64085714D01*
X183071429Y-63990476D01*
X183071429Y-63799999D01*
X183023810Y-63704761D01*
X182976190Y-63657142D01*
X182880952Y-63609523D01*
X183452381Y-79442857D02*
X183452381Y-79919048D01*
X182452381Y-79919048D01*
X183452381Y-78585714D02*
X183452381Y-79157143D01*
X183452381Y-78871429D02*
X182452381Y-78871429D01*
X182595238Y-78966667D01*
X182690476Y-79061905D01*
X182738095Y-79157143D01*
X182452381Y-77966667D02*
X182452381Y-77871428D01*
X182500000Y-77776190D01*
X182547619Y-77728571D01*
X182642857Y-77680952D01*
X182833333Y-77633333D01*
X183071429Y-77633333D01*
X183261905Y-77680952D01*
X183357143Y-77728571D01*
X183404762Y-77776190D01*
X183452381Y-77871428D01*
X183452381Y-77966667D01*
X183404762Y-78061905D01*
X183357143Y-78109524D01*
X183261905Y-78157143D01*
X183071429Y-78204762D01*
X182833333Y-78204762D01*
X182642857Y-78157143D01*
X182547619Y-78109524D01*
X182500000Y-78061905D01*
X182452381Y-77966667D01*
X183652381Y-97442857D02*
X183652381Y-97919048D01*
X182652381Y-97919048D01*
X183652381Y-96585714D02*
X183652381Y-97157143D01*
X183652381Y-96871429D02*
X182652381Y-96871429D01*
X182795238Y-96966667D01*
X182890476Y-97061905D01*
X182938095Y-97157143D01*
X183652381Y-95633333D02*
X183652381Y-96204762D01*
X183652381Y-95919048D02*
X182652381Y-95919048D01*
X182795238Y-96014286D01*
X182890476Y-96109524D01*
X182938095Y-96204762D01*
X193852381Y-128442857D02*
X193852381Y-128919048D01*
X192852381Y-128919048D01*
X193852381Y-127585714D02*
X193852381Y-128157143D01*
X193852381Y-127871429D02*
X192852381Y-127871429D01*
X192995238Y-127966667D01*
X193090476Y-128061905D01*
X193138095Y-128157143D01*
X192947619Y-127204762D02*
X192900000Y-127157143D01*
X192852381Y-127061905D01*
X192852381Y-126823809D01*
X192900000Y-126728571D01*
X192947619Y-126680952D01*
X193042857Y-126633333D01*
X193138095Y-126633333D01*
X193280952Y-126680952D01*
X193852381Y-127252381D01*
X193852381Y-126633333D01*
X183452381Y-113342857D02*
X183452381Y-113819048D01*
X182452381Y-113819048D01*
X183452381Y-112485714D02*
X183452381Y-113057143D01*
X183452381Y-112771429D02*
X182452381Y-112771429D01*
X182595238Y-112866667D01*
X182690476Y-112961905D01*
X182738095Y-113057143D01*
X182452381Y-112152381D02*
X182452381Y-111533333D01*
X182833333Y-111866667D01*
X182833333Y-111723809D01*
X182880952Y-111628571D01*
X182928571Y-111580952D01*
X183023810Y-111533333D01*
X183261905Y-111533333D01*
X183357143Y-111580952D01*
X183404762Y-111628571D01*
X183452381Y-111723809D01*
X183452381Y-112009524D01*
X183404762Y-112104762D01*
X183357143Y-112152381D01*
X128811281Y-81256095D02*
X127811281Y-81256095D01*
X127811281Y-80875142D01*
X127858900Y-80779904D01*
X127906519Y-80732285D01*
X128001757Y-80684666D01*
X128144614Y-80684666D01*
X128239852Y-80732285D01*
X128287471Y-80779904D01*
X128335090Y-80875142D01*
X128335090Y-81256095D01*
X128811281Y-79732285D02*
X128811281Y-80303714D01*
X128811281Y-80018000D02*
X127811281Y-80018000D01*
X127954138Y-80113238D01*
X128049376Y-80208476D01*
X128096995Y-80303714D01*
X124161905Y-77066381D02*
X124161905Y-76066381D01*
X124542858Y-76066381D01*
X124638096Y-76114000D01*
X124685715Y-76161619D01*
X124733334Y-76256857D01*
X124733334Y-76399714D01*
X124685715Y-76494952D01*
X124638096Y-76542571D01*
X124542858Y-76590190D01*
X124161905Y-76590190D01*
X125114286Y-76161619D02*
X125161905Y-76114000D01*
X125257143Y-76066381D01*
X125495239Y-76066381D01*
X125590477Y-76114000D01*
X125638096Y-76161619D01*
X125685715Y-76256857D01*
X125685715Y-76352095D01*
X125638096Y-76494952D01*
X125066667Y-77066381D01*
X125685715Y-77066381D01*
X101066381Y-70138095D02*
X100066381Y-70138095D01*
X100066381Y-69757142D01*
X100114000Y-69661904D01*
X100161619Y-69614285D01*
X100256857Y-69566666D01*
X100399714Y-69566666D01*
X100494952Y-69614285D01*
X100542571Y-69661904D01*
X100590190Y-69757142D01*
X100590190Y-70138095D01*
X100399714Y-68709523D02*
X101066381Y-68709523D01*
X100018762Y-68947619D02*
X100733048Y-69185714D01*
X100733048Y-68566666D01*
X103512881Y-84926395D02*
X102512881Y-84926395D01*
X102512881Y-84545442D01*
X102560500Y-84450204D01*
X102608119Y-84402585D01*
X102703357Y-84354966D01*
X102846214Y-84354966D01*
X102941452Y-84402585D01*
X102989071Y-84450204D01*
X103036690Y-84545442D01*
X103036690Y-84926395D01*
X102512881Y-83450204D02*
X102512881Y-83926395D01*
X102989071Y-83974014D01*
X102941452Y-83926395D01*
X102893833Y-83831157D01*
X102893833Y-83593061D01*
X102941452Y-83497823D01*
X102989071Y-83450204D01*
X103084310Y-83402585D01*
X103322405Y-83402585D01*
X103417643Y-83450204D01*
X103465262Y-83497823D01*
X103512881Y-83593061D01*
X103512881Y-83831157D01*
X103465262Y-83926395D01*
X103417643Y-83974014D01*
X123647619Y-73095238D02*
X123600000Y-73190476D01*
X123504762Y-73285714D01*
X123361905Y-73428571D01*
X123314286Y-73523810D01*
X123314286Y-73619048D01*
X123552381Y-73571429D02*
X123504762Y-73666667D01*
X123409524Y-73761905D01*
X123219048Y-73809524D01*
X122885714Y-73809524D01*
X122695238Y-73761905D01*
X122600000Y-73666667D01*
X122552381Y-73571429D01*
X122552381Y-73380952D01*
X122600000Y-73285714D01*
X122695238Y-73190476D01*
X122885714Y-73142857D01*
X123219048Y-73142857D01*
X123409524Y-73190476D01*
X123504762Y-73285714D01*
X123552381Y-73380952D01*
X123552381Y-73571429D01*
X123552381Y-72190476D02*
X123552381Y-72761905D01*
X123552381Y-72476191D02*
X122552381Y-72476191D01*
X122695238Y-72571429D01*
X122790476Y-72666667D01*
X122838095Y-72761905D01*
X129901962Y-60288419D02*
X129806724Y-60240800D01*
X129711486Y-60145562D01*
X129568629Y-60002705D01*
X129473390Y-59955086D01*
X129378152Y-59955086D01*
X129425771Y-60193181D02*
X129330533Y-60145562D01*
X129235295Y-60050324D01*
X129187676Y-59859848D01*
X129187676Y-59526514D01*
X129235295Y-59336038D01*
X129330533Y-59240800D01*
X129425771Y-59193181D01*
X129616248Y-59193181D01*
X129711486Y-59240800D01*
X129806724Y-59336038D01*
X129854343Y-59526514D01*
X129854343Y-59859848D01*
X129806724Y-60050324D01*
X129711486Y-60145562D01*
X129616248Y-60193181D01*
X129425771Y-60193181D01*
X130187676Y-59193181D02*
X130806724Y-59193181D01*
X130473390Y-59574133D01*
X130616248Y-59574133D01*
X130711486Y-59621752D01*
X130759105Y-59669371D01*
X130806724Y-59764610D01*
X130806724Y-60002705D01*
X130759105Y-60097943D01*
X130711486Y-60145562D01*
X130616248Y-60193181D01*
X130330533Y-60193181D01*
X130235295Y-60145562D01*
X130187676Y-60097943D01*
X106452381Y-105542857D02*
X105976190Y-105876191D01*
X106452381Y-106114286D02*
X105452381Y-106114286D01*
X105452381Y-105733333D01*
X105500000Y-105638095D01*
X105547619Y-105590476D01*
X105642857Y-105542857D01*
X105785714Y-105542857D01*
X105880952Y-105590476D01*
X105928571Y-105638095D01*
X105976190Y-105733333D01*
X105976190Y-106114286D01*
X105547619Y-105161905D02*
X105500000Y-105114286D01*
X105452381Y-105019048D01*
X105452381Y-104780952D01*
X105500000Y-104685714D01*
X105547619Y-104638095D01*
X105642857Y-104590476D01*
X105738095Y-104590476D01*
X105880952Y-104638095D01*
X106452381Y-105209524D01*
X106452381Y-104590476D01*
X105452381Y-103971429D02*
X105452381Y-103876190D01*
X105500000Y-103780952D01*
X105547619Y-103733333D01*
X105642857Y-103685714D01*
X105833333Y-103638095D01*
X106071429Y-103638095D01*
X106261905Y-103685714D01*
X106357143Y-103733333D01*
X106404762Y-103780952D01*
X106452381Y-103876190D01*
X106452381Y-103971429D01*
X106404762Y-104066667D01*
X106357143Y-104114286D01*
X106261905Y-104161905D01*
X106071429Y-104209524D01*
X105833333Y-104209524D01*
X105642857Y-104161905D01*
X105547619Y-104114286D01*
X105500000Y-104066667D01*
X105452381Y-103971429D01*
X137252381Y-105042857D02*
X136776190Y-105376191D01*
X137252381Y-105614286D02*
X136252381Y-105614286D01*
X136252381Y-105233333D01*
X136300000Y-105138095D01*
X136347619Y-105090476D01*
X136442857Y-105042857D01*
X136585714Y-105042857D01*
X136680952Y-105090476D01*
X136728571Y-105138095D01*
X136776190Y-105233333D01*
X136776190Y-105614286D01*
X136347619Y-104661905D02*
X136300000Y-104614286D01*
X136252381Y-104519048D01*
X136252381Y-104280952D01*
X136300000Y-104185714D01*
X136347619Y-104138095D01*
X136442857Y-104090476D01*
X136538095Y-104090476D01*
X136680952Y-104138095D01*
X137252381Y-104709524D01*
X137252381Y-104090476D01*
X137252381Y-103138095D02*
X137252381Y-103709524D01*
X137252381Y-103423810D02*
X136252381Y-103423810D01*
X136395238Y-103519048D01*
X136490476Y-103614286D01*
X136538095Y-103709524D01*
X136410795Y-85672681D02*
X136982224Y-85672681D01*
X136696509Y-86672681D02*
X136696509Y-85672681D01*
X137839367Y-86672681D02*
X137267938Y-86672681D01*
X137553652Y-86672681D02*
X137553652Y-85672681D01*
X137458414Y-85815538D01*
X137363176Y-85910776D01*
X137267938Y-85958395D01*
X115865676Y-58397181D02*
X116199009Y-59397181D01*
X116532343Y-58397181D01*
X117437105Y-59397181D02*
X117103771Y-58920990D01*
X116865676Y-59397181D02*
X116865676Y-58397181D01*
X117246629Y-58397181D01*
X117341867Y-58444800D01*
X117389486Y-58492419D01*
X117437105Y-58587657D01*
X117437105Y-58730514D01*
X117389486Y-58825752D01*
X117341867Y-58873371D01*
X117246629Y-58920990D01*
X116865676Y-58920990D01*
X118389486Y-59397181D02*
X117818057Y-59397181D01*
X118103771Y-59397181D02*
X118103771Y-58397181D01*
X118008533Y-58540038D01*
X117913295Y-58635276D01*
X117818057Y-58682895D01*
X116573395Y-71949181D02*
X116573395Y-72758705D01*
X116621014Y-72853943D01*
X116668633Y-72901562D01*
X116763871Y-72949181D01*
X116954348Y-72949181D01*
X117049586Y-72901562D01*
X117097205Y-72853943D01*
X117144824Y-72758705D01*
X117144824Y-71949181D01*
X117525776Y-71949181D02*
X118192443Y-71949181D01*
X117763871Y-72949181D01*
X149234781Y-62737905D02*
X149234781Y-62166476D01*
X150234781Y-62452191D02*
X149234781Y-62452191D01*
X149330019Y-61880762D02*
X149282400Y-61833143D01*
X149234781Y-61737905D01*
X149234781Y-61499809D01*
X149282400Y-61404571D01*
X149330019Y-61356952D01*
X149425257Y-61309333D01*
X149520495Y-61309333D01*
X149663352Y-61356952D01*
X150234781Y-61928381D01*
X150234781Y-61309333D01*
X158135581Y-88025195D02*
X157135581Y-88025195D01*
X158135581Y-87453766D02*
X157564152Y-87882338D01*
X157135581Y-87453766D02*
X157707010Y-88025195D01*
X158135581Y-86501385D02*
X158135581Y-87072814D01*
X158135581Y-86787100D02*
X157135581Y-86787100D01*
X157278438Y-86882338D01*
X157373676Y-86977576D01*
X157421295Y-87072814D01*
X155595581Y-89453767D02*
X154595581Y-89453767D01*
X154595581Y-89215672D01*
X154643200Y-89072814D01*
X154738438Y-88977576D01*
X154833676Y-88929957D01*
X155024152Y-88882338D01*
X155167010Y-88882338D01*
X155357486Y-88929957D01*
X155452724Y-88977576D01*
X155547962Y-89072814D01*
X155595581Y-89215672D01*
X155595581Y-89453767D01*
X154595581Y-88549005D02*
X154595581Y-87929957D01*
X154976533Y-88263291D01*
X154976533Y-88120433D01*
X155024152Y-88025195D01*
X155071771Y-87977576D01*
X155167010Y-87929957D01*
X155405105Y-87929957D01*
X155500343Y-87977576D01*
X155547962Y-88025195D01*
X155595581Y-88120433D01*
X155595581Y-88406148D01*
X155547962Y-88501386D01*
X155500343Y-88549005D01*
X154595581Y-87310910D02*
X154595581Y-87215671D01*
X154643200Y-87120433D01*
X154690819Y-87072814D01*
X154786057Y-87025195D01*
X154976533Y-86977576D01*
X155214629Y-86977576D01*
X155405105Y-87025195D01*
X155500343Y-87072814D01*
X155547962Y-87120433D01*
X155595581Y-87215671D01*
X155595581Y-87310910D01*
X155547962Y-87406148D01*
X155500343Y-87453767D01*
X155405105Y-87501386D01*
X155214629Y-87549005D01*
X154976533Y-87549005D01*
X154786057Y-87501386D01*
X154690819Y-87453767D01*
X154643200Y-87406148D01*
X154595581Y-87310910D01*
X154595581Y-86358529D02*
X154595581Y-86263290D01*
X154643200Y-86168052D01*
X154690819Y-86120433D01*
X154786057Y-86072814D01*
X154976533Y-86025195D01*
X155214629Y-86025195D01*
X155405105Y-86072814D01*
X155500343Y-86120433D01*
X155547962Y-86168052D01*
X155595581Y-86263290D01*
X155595581Y-86358529D01*
X155547962Y-86453767D01*
X155500343Y-86501386D01*
X155405105Y-86549005D01*
X155214629Y-86596624D01*
X154976533Y-86596624D01*
X154786057Y-86549005D01*
X154690819Y-86501386D01*
X154643200Y-86453767D01*
X154595581Y-86358529D01*
X154690819Y-85644243D02*
X154643200Y-85596624D01*
X154595581Y-85501386D01*
X154595581Y-85263290D01*
X154643200Y-85168052D01*
X154690819Y-85120433D01*
X154786057Y-85072814D01*
X154881295Y-85072814D01*
X155024152Y-85120433D01*
X155595581Y-85691862D01*
X155595581Y-85072814D01*
X174122381Y-65338095D02*
X173122381Y-65338095D01*
X174122381Y-64766666D02*
X173550952Y-65195238D01*
X173122381Y-64766666D02*
X173693810Y-65338095D01*
X173217619Y-64385714D02*
X173170000Y-64338095D01*
X173122381Y-64242857D01*
X173122381Y-64004761D01*
X173170000Y-63909523D01*
X173217619Y-63861904D01*
X173312857Y-63814285D01*
X173408095Y-63814285D01*
X173550952Y-63861904D01*
X174122381Y-64433333D01*
X174122381Y-63814285D01*
X174122381Y-80738095D02*
X173122381Y-80738095D01*
X174122381Y-80166666D02*
X173550952Y-80595238D01*
X173122381Y-80166666D02*
X173693810Y-80738095D01*
X173122381Y-79833333D02*
X173122381Y-79214285D01*
X173503333Y-79547619D01*
X173503333Y-79404761D01*
X173550952Y-79309523D01*
X173598571Y-79261904D01*
X173693810Y-79214285D01*
X173931905Y-79214285D01*
X174027143Y-79261904D01*
X174074762Y-79309523D01*
X174122381Y-79404761D01*
X174122381Y-79690476D01*
X174074762Y-79785714D01*
X174027143Y-79833333D01*
X174222381Y-97138095D02*
X173222381Y-97138095D01*
X174222381Y-96566666D02*
X173650952Y-96995238D01*
X173222381Y-96566666D02*
X173793810Y-97138095D01*
X173555714Y-95709523D02*
X174222381Y-95709523D01*
X173174762Y-95947619D02*
X173889048Y-96185714D01*
X173889048Y-95566666D01*
X174322381Y-113738095D02*
X173322381Y-113738095D01*
X174322381Y-113166666D02*
X173750952Y-113595238D01*
X173322381Y-113166666D02*
X173893810Y-113738095D01*
X173322381Y-112261904D02*
X173322381Y-112738095D01*
X173798571Y-112785714D01*
X173750952Y-112738095D01*
X173703333Y-112642857D01*
X173703333Y-112404761D01*
X173750952Y-112309523D01*
X173798571Y-112261904D01*
X173893810Y-112214285D01*
X174131905Y-112214285D01*
X174227143Y-112261904D01*
X174274762Y-112309523D01*
X174322381Y-112404761D01*
X174322381Y-112642857D01*
X174274762Y-112738095D01*
X174227143Y-112785714D01*
X174322381Y-129238095D02*
X173322381Y-129238095D01*
X174322381Y-128666666D02*
X173750952Y-129095238D01*
X173322381Y-128666666D02*
X173893810Y-129238095D01*
X173322381Y-127809523D02*
X173322381Y-128000000D01*
X173370000Y-128095238D01*
X173417619Y-128142857D01*
X173560476Y-128238095D01*
X173750952Y-128285714D01*
X174131905Y-128285714D01*
X174227143Y-128238095D01*
X174274762Y-128190476D01*
X174322381Y-128095238D01*
X174322381Y-127904761D01*
X174274762Y-127809523D01*
X174227143Y-127761904D01*
X174131905Y-127714285D01*
X173893810Y-127714285D01*
X173798571Y-127761904D01*
X173750952Y-127809523D01*
X173703333Y-127904761D01*
X173703333Y-128095238D01*
X173750952Y-128190476D01*
X173798571Y-128238095D01*
X173893810Y-128285714D01*
X115618234Y-85284743D02*
X115570615Y-85332362D01*
X115427758Y-85379981D01*
X115332520Y-85379981D01*
X115189662Y-85332362D01*
X115094424Y-85237124D01*
X115046805Y-85141886D01*
X114999186Y-84951410D01*
X114999186Y-84808552D01*
X115046805Y-84618076D01*
X115094424Y-84522838D01*
X115189662Y-84427600D01*
X115332520Y-84379981D01*
X115427758Y-84379981D01*
X115570615Y-84427600D01*
X115618234Y-84475219D01*
X116570615Y-85379981D02*
X115999186Y-85379981D01*
X116284900Y-85379981D02*
X116284900Y-84379981D01*
X116189662Y-84522838D01*
X116094424Y-84618076D01*
X115999186Y-84665695D01*
X123022943Y-69356666D02*
X123070562Y-69404285D01*
X123118181Y-69547142D01*
X123118181Y-69642380D01*
X123070562Y-69785238D01*
X122975324Y-69880476D01*
X122880086Y-69928095D01*
X122689610Y-69975714D01*
X122546752Y-69975714D01*
X122356276Y-69928095D01*
X122261038Y-69880476D01*
X122165800Y-69785238D01*
X122118181Y-69642380D01*
X122118181Y-69547142D01*
X122165800Y-69404285D01*
X122213419Y-69356666D01*
X122118181Y-69023333D02*
X122118181Y-68404285D01*
X122499133Y-68737619D01*
X122499133Y-68594761D01*
X122546752Y-68499523D01*
X122594371Y-68451904D01*
X122689610Y-68404285D01*
X122927705Y-68404285D01*
X123022943Y-68451904D01*
X123070562Y-68499523D01*
X123118181Y-68594761D01*
X123118181Y-68880476D01*
X123070562Y-68975714D01*
X123022943Y-69023333D01*
X115718434Y-82667543D02*
X115670815Y-82715162D01*
X115527958Y-82762781D01*
X115432720Y-82762781D01*
X115289862Y-82715162D01*
X115194624Y-82619924D01*
X115147005Y-82524686D01*
X115099386Y-82334210D01*
X115099386Y-82191352D01*
X115147005Y-82000876D01*
X115194624Y-81905638D01*
X115289862Y-81810400D01*
X115432720Y-81762781D01*
X115527958Y-81762781D01*
X115670815Y-81810400D01*
X115718434Y-81858019D01*
X116623196Y-81762781D02*
X116147005Y-81762781D01*
X116099386Y-82238971D01*
X116147005Y-82191352D01*
X116242243Y-82143733D01*
X116480339Y-82143733D01*
X116575577Y-82191352D01*
X116623196Y-82238971D01*
X116670815Y-82334210D01*
X116670815Y-82572305D01*
X116623196Y-82667543D01*
X116575577Y-82715162D01*
X116480339Y-82762781D01*
X116242243Y-82762781D01*
X116147005Y-82715162D01*
X116099386Y-82667543D01*
X128946734Y-64244043D02*
X128899115Y-64291662D01*
X128756258Y-64339281D01*
X128661020Y-64339281D01*
X128518162Y-64291662D01*
X128422924Y-64196424D01*
X128375305Y-64101186D01*
X128327686Y-63910710D01*
X128327686Y-63767852D01*
X128375305Y-63577376D01*
X128422924Y-63482138D01*
X128518162Y-63386900D01*
X128661020Y-63339281D01*
X128756258Y-63339281D01*
X128899115Y-63386900D01*
X128946734Y-63434519D01*
X129803877Y-63339281D02*
X129613400Y-63339281D01*
X129518162Y-63386900D01*
X129470543Y-63434519D01*
X129375305Y-63577376D01*
X129327686Y-63767852D01*
X129327686Y-64148805D01*
X129375305Y-64244043D01*
X129422924Y-64291662D01*
X129518162Y-64339281D01*
X129708639Y-64339281D01*
X129803877Y-64291662D01*
X129851496Y-64244043D01*
X129899115Y-64148805D01*
X129899115Y-63910710D01*
X129851496Y-63815471D01*
X129803877Y-63767852D01*
X129708639Y-63720233D01*
X129518162Y-63720233D01*
X129422924Y-63767852D01*
X129375305Y-63815471D01*
X129327686Y-63910710D01*
X101914443Y-103668357D02*
X101962062Y-103715976D01*
X102009681Y-103858833D01*
X102009681Y-103954071D01*
X101962062Y-104096929D01*
X101866824Y-104192167D01*
X101771586Y-104239786D01*
X101581110Y-104287405D01*
X101438252Y-104287405D01*
X101247776Y-104239786D01*
X101152538Y-104192167D01*
X101057300Y-104096929D01*
X101009681Y-103954071D01*
X101009681Y-103858833D01*
X101057300Y-103715976D01*
X101104919Y-103668357D01*
X101343014Y-102811214D02*
X102009681Y-102811214D01*
X100962062Y-103049310D02*
X101676348Y-103287405D01*
X101676348Y-102668357D01*
X101009681Y-102382643D02*
X101009681Y-101763595D01*
X101390633Y-102096929D01*
X101390633Y-101954071D01*
X101438252Y-101858833D01*
X101485871Y-101811214D01*
X101581110Y-101763595D01*
X101819205Y-101763595D01*
X101914443Y-101811214D01*
X101962062Y-101858833D01*
X102009681Y-101954071D01*
X102009681Y-102239786D01*
X101962062Y-102335024D01*
X101914443Y-102382643D01*
X115356543Y-103852143D02*
X115308924Y-103899762D01*
X115166067Y-103947381D01*
X115070829Y-103947381D01*
X114927971Y-103899762D01*
X114832733Y-103804524D01*
X114785114Y-103709286D01*
X114737495Y-103518810D01*
X114737495Y-103375952D01*
X114785114Y-103185476D01*
X114832733Y-103090238D01*
X114927971Y-102995000D01*
X115070829Y-102947381D01*
X115166067Y-102947381D01*
X115308924Y-102995000D01*
X115356543Y-103042619D01*
X116213686Y-103280714D02*
X116213686Y-103947381D01*
X115975590Y-102899762D02*
X115737495Y-103614048D01*
X116356543Y-103614048D01*
X117166067Y-103280714D02*
X117166067Y-103947381D01*
X116927971Y-102899762D02*
X116689876Y-103614048D01*
X117308924Y-103614048D01*
X115157143Y-113557143D02*
X115109524Y-113604762D01*
X114966667Y-113652381D01*
X114871429Y-113652381D01*
X114728571Y-113604762D01*
X114633333Y-113509524D01*
X114585714Y-113414286D01*
X114538095Y-113223810D01*
X114538095Y-113080952D01*
X114585714Y-112890476D01*
X114633333Y-112795238D01*
X114728571Y-112700000D01*
X114871429Y-112652381D01*
X114966667Y-112652381D01*
X115109524Y-112700000D01*
X115157143Y-112747619D01*
X116014286Y-112985714D02*
X116014286Y-113652381D01*
X115776190Y-112604762D02*
X115538095Y-113319048D01*
X116157143Y-113319048D01*
X117014286Y-112652381D02*
X116538095Y-112652381D01*
X116490476Y-113128571D01*
X116538095Y-113080952D01*
X116633333Y-113033333D01*
X116871429Y-113033333D01*
X116966667Y-113080952D01*
X117014286Y-113128571D01*
X117061905Y-113223810D01*
X117061905Y-113461905D01*
X117014286Y-113557143D01*
X116966667Y-113604762D01*
X116871429Y-113652381D01*
X116633333Y-113652381D01*
X116538095Y-113604762D01*
X116490476Y-113557143D01*
X129057143Y-127457143D02*
X129009524Y-127504762D01*
X128866667Y-127552381D01*
X128771429Y-127552381D01*
X128628571Y-127504762D01*
X128533333Y-127409524D01*
X128485714Y-127314286D01*
X128438095Y-127123810D01*
X128438095Y-126980952D01*
X128485714Y-126790476D01*
X128533333Y-126695238D01*
X128628571Y-126600000D01*
X128771429Y-126552381D01*
X128866667Y-126552381D01*
X129009524Y-126600000D01*
X129057143Y-126647619D01*
X129914286Y-126885714D02*
X129914286Y-127552381D01*
X129676190Y-126504762D02*
X129438095Y-127219048D01*
X130057143Y-127219048D01*
X130866667Y-126552381D02*
X130676190Y-126552381D01*
X130580952Y-126600000D01*
X130533333Y-126647619D01*
X130438095Y-126790476D01*
X130390476Y-126980952D01*
X130390476Y-127361905D01*
X130438095Y-127457143D01*
X130485714Y-127504762D01*
X130580952Y-127552381D01*
X130771429Y-127552381D01*
X130866667Y-127504762D01*
X130914286Y-127457143D01*
X130961905Y-127361905D01*
X130961905Y-127123810D01*
X130914286Y-127028571D01*
X130866667Y-126980952D01*
X130771429Y-126933333D01*
X130580952Y-126933333D01*
X130485714Y-126980952D01*
X130438095Y-127028571D01*
X130390476Y-127123810D01*
X114593643Y-135745843D02*
X114546024Y-135793462D01*
X114403167Y-135841081D01*
X114307929Y-135841081D01*
X114165071Y-135793462D01*
X114069833Y-135698224D01*
X114022214Y-135602986D01*
X113974595Y-135412510D01*
X113974595Y-135269652D01*
X114022214Y-135079176D01*
X114069833Y-134983938D01*
X114165071Y-134888700D01*
X114307929Y-134841081D01*
X114403167Y-134841081D01*
X114546024Y-134888700D01*
X114593643Y-134936319D01*
X115450786Y-135174414D02*
X115450786Y-135841081D01*
X115212690Y-134793462D02*
X114974595Y-135507748D01*
X115593643Y-135507748D01*
X115879357Y-134841081D02*
X116546024Y-134841081D01*
X116117452Y-135841081D01*
X115357143Y-146457143D02*
X115309524Y-146504762D01*
X115166667Y-146552381D01*
X115071429Y-146552381D01*
X114928571Y-146504762D01*
X114833333Y-146409524D01*
X114785714Y-146314286D01*
X114738095Y-146123810D01*
X114738095Y-145980952D01*
X114785714Y-145790476D01*
X114833333Y-145695238D01*
X114928571Y-145600000D01*
X115071429Y-145552381D01*
X115166667Y-145552381D01*
X115309524Y-145600000D01*
X115357143Y-145647619D01*
X116214286Y-145885714D02*
X116214286Y-146552381D01*
X115976190Y-145504762D02*
X115738095Y-146219048D01*
X116357143Y-146219048D01*
X116880952Y-145980952D02*
X116785714Y-145933333D01*
X116738095Y-145885714D01*
X116690476Y-145790476D01*
X116690476Y-145742857D01*
X116738095Y-145647619D01*
X116785714Y-145600000D01*
X116880952Y-145552381D01*
X117071429Y-145552381D01*
X117166667Y-145600000D01*
X117214286Y-145647619D01*
X117261905Y-145742857D01*
X117261905Y-145790476D01*
X117214286Y-145885714D01*
X117166667Y-145933333D01*
X117071429Y-145980952D01*
X116880952Y-145980952D01*
X116785714Y-146028571D01*
X116738095Y-146076190D01*
X116690476Y-146171429D01*
X116690476Y-146361905D01*
X116738095Y-146457143D01*
X116785714Y-146504762D01*
X116880952Y-146552381D01*
X117071429Y-146552381D01*
X117166667Y-146504762D01*
X117214286Y-146457143D01*
X117261905Y-146361905D01*
X117261905Y-146171429D01*
X117214286Y-146076190D01*
X117166667Y-146028571D01*
X117071429Y-145980952D01*
X115493643Y-101431543D02*
X115446024Y-101479162D01*
X115303167Y-101526781D01*
X115207929Y-101526781D01*
X115065071Y-101479162D01*
X114969833Y-101383924D01*
X114922214Y-101288686D01*
X114874595Y-101098210D01*
X114874595Y-100955352D01*
X114922214Y-100764876D01*
X114969833Y-100669638D01*
X115065071Y-100574400D01*
X115207929Y-100526781D01*
X115303167Y-100526781D01*
X115446024Y-100574400D01*
X115493643Y-100622019D01*
X116350786Y-100860114D02*
X116350786Y-101526781D01*
X116112690Y-100479162D02*
X115874595Y-101193448D01*
X116493643Y-101193448D01*
X116922214Y-101526781D02*
X117112690Y-101526781D01*
X117207929Y-101479162D01*
X117255548Y-101431543D01*
X117350786Y-101288686D01*
X117398405Y-101098210D01*
X117398405Y-100717257D01*
X117350786Y-100622019D01*
X117303167Y-100574400D01*
X117207929Y-100526781D01*
X117017452Y-100526781D01*
X116922214Y-100574400D01*
X116874595Y-100622019D01*
X116826976Y-100717257D01*
X116826976Y-100955352D01*
X116874595Y-101050590D01*
X116922214Y-101098210D01*
X117017452Y-101145829D01*
X117207929Y-101145829D01*
X117303167Y-101098210D01*
X117350786Y-101050590D01*
X117398405Y-100955352D01*
X115057143Y-111157143D02*
X115009524Y-111204762D01*
X114866667Y-111252381D01*
X114771429Y-111252381D01*
X114628571Y-111204762D01*
X114533333Y-111109524D01*
X114485714Y-111014286D01*
X114438095Y-110823810D01*
X114438095Y-110680952D01*
X114485714Y-110490476D01*
X114533333Y-110395238D01*
X114628571Y-110300000D01*
X114771429Y-110252381D01*
X114866667Y-110252381D01*
X115009524Y-110300000D01*
X115057143Y-110347619D01*
X115961905Y-110252381D02*
X115485714Y-110252381D01*
X115438095Y-110728571D01*
X115485714Y-110680952D01*
X115580952Y-110633333D01*
X115819048Y-110633333D01*
X115914286Y-110680952D01*
X115961905Y-110728571D01*
X116009524Y-110823810D01*
X116009524Y-111061905D01*
X115961905Y-111157143D01*
X115914286Y-111204762D01*
X115819048Y-111252381D01*
X115580952Y-111252381D01*
X115485714Y-111204762D01*
X115438095Y-111157143D01*
X116628571Y-110252381D02*
X116723810Y-110252381D01*
X116819048Y-110300000D01*
X116866667Y-110347619D01*
X116914286Y-110442857D01*
X116961905Y-110633333D01*
X116961905Y-110871429D01*
X116914286Y-111061905D01*
X116866667Y-111157143D01*
X116819048Y-111204762D01*
X116723810Y-111252381D01*
X116628571Y-111252381D01*
X116533333Y-111204762D01*
X116485714Y-111157143D01*
X116438095Y-111061905D01*
X116390476Y-110871429D01*
X116390476Y-110633333D01*
X116438095Y-110442857D01*
X116485714Y-110347619D01*
X116533333Y-110300000D01*
X116628571Y-110252381D01*
X114757143Y-124757143D02*
X114709524Y-124804762D01*
X114566667Y-124852381D01*
X114471429Y-124852381D01*
X114328571Y-124804762D01*
X114233333Y-124709524D01*
X114185714Y-124614286D01*
X114138095Y-124423810D01*
X114138095Y-124280952D01*
X114185714Y-124090476D01*
X114233333Y-123995238D01*
X114328571Y-123900000D01*
X114471429Y-123852381D01*
X114566667Y-123852381D01*
X114709524Y-123900000D01*
X114757143Y-123947619D01*
X115661905Y-123852381D02*
X115185714Y-123852381D01*
X115138095Y-124328571D01*
X115185714Y-124280952D01*
X115280952Y-124233333D01*
X115519048Y-124233333D01*
X115614286Y-124280952D01*
X115661905Y-124328571D01*
X115709524Y-124423810D01*
X115709524Y-124661905D01*
X115661905Y-124757143D01*
X115614286Y-124804762D01*
X115519048Y-124852381D01*
X115280952Y-124852381D01*
X115185714Y-124804762D01*
X115138095Y-124757143D01*
X116661905Y-124852381D02*
X116090476Y-124852381D01*
X116376190Y-124852381D02*
X116376190Y-123852381D01*
X116280952Y-123995238D01*
X116185714Y-124090476D01*
X116090476Y-124138095D01*
X114757143Y-133157143D02*
X114709524Y-133204762D01*
X114566667Y-133252381D01*
X114471429Y-133252381D01*
X114328571Y-133204762D01*
X114233333Y-133109524D01*
X114185714Y-133014286D01*
X114138095Y-132823810D01*
X114138095Y-132680952D01*
X114185714Y-132490476D01*
X114233333Y-132395238D01*
X114328571Y-132300000D01*
X114471429Y-132252381D01*
X114566667Y-132252381D01*
X114709524Y-132300000D01*
X114757143Y-132347619D01*
X115661905Y-132252381D02*
X115185714Y-132252381D01*
X115138095Y-132728571D01*
X115185714Y-132680952D01*
X115280952Y-132633333D01*
X115519048Y-132633333D01*
X115614286Y-132680952D01*
X115661905Y-132728571D01*
X115709524Y-132823810D01*
X115709524Y-133061905D01*
X115661905Y-133157143D01*
X115614286Y-133204762D01*
X115519048Y-133252381D01*
X115280952Y-133252381D01*
X115185714Y-133204762D01*
X115138095Y-133157143D01*
X116090476Y-132347619D02*
X116138095Y-132300000D01*
X116233333Y-132252381D01*
X116471429Y-132252381D01*
X116566667Y-132300000D01*
X116614286Y-132347619D01*
X116661905Y-132442857D01*
X116661905Y-132538095D01*
X116614286Y-132680952D01*
X116042857Y-133252381D01*
X116661905Y-133252381D01*
X118257143Y-142957143D02*
X118209524Y-143004762D01*
X118066667Y-143052381D01*
X117971429Y-143052381D01*
X117828571Y-143004762D01*
X117733333Y-142909524D01*
X117685714Y-142814286D01*
X117638095Y-142623810D01*
X117638095Y-142480952D01*
X117685714Y-142290476D01*
X117733333Y-142195238D01*
X117828571Y-142100000D01*
X117971429Y-142052381D01*
X118066667Y-142052381D01*
X118209524Y-142100000D01*
X118257143Y-142147619D01*
X119161905Y-142052381D02*
X118685714Y-142052381D01*
X118638095Y-142528571D01*
X118685714Y-142480952D01*
X118780952Y-142433333D01*
X119019048Y-142433333D01*
X119114286Y-142480952D01*
X119161905Y-142528571D01*
X119209524Y-142623810D01*
X119209524Y-142861905D01*
X119161905Y-142957143D01*
X119114286Y-143004762D01*
X119019048Y-143052381D01*
X118780952Y-143052381D01*
X118685714Y-143004762D01*
X118638095Y-142957143D01*
X119542857Y-142052381D02*
X120161905Y-142052381D01*
X119828571Y-142433333D01*
X119971429Y-142433333D01*
X120066667Y-142480952D01*
X120114286Y-142528571D01*
X120161905Y-142623810D01*
X120161905Y-142861905D01*
X120114286Y-142957143D01*
X120066667Y-143004762D01*
X119971429Y-143052381D01*
X119685714Y-143052381D01*
X119590476Y-143004762D01*
X119542857Y-142957143D01*
X118957143Y-98957143D02*
X118909524Y-99004762D01*
X118766667Y-99052381D01*
X118671429Y-99052381D01*
X118528571Y-99004762D01*
X118433333Y-98909524D01*
X118385714Y-98814286D01*
X118338095Y-98623810D01*
X118338095Y-98480952D01*
X118385714Y-98290476D01*
X118433333Y-98195238D01*
X118528571Y-98100000D01*
X118671429Y-98052381D01*
X118766667Y-98052381D01*
X118909524Y-98100000D01*
X118957143Y-98147619D01*
X119861905Y-98052381D02*
X119385714Y-98052381D01*
X119338095Y-98528571D01*
X119385714Y-98480952D01*
X119480952Y-98433333D01*
X119719048Y-98433333D01*
X119814286Y-98480952D01*
X119861905Y-98528571D01*
X119909524Y-98623810D01*
X119909524Y-98861905D01*
X119861905Y-98957143D01*
X119814286Y-99004762D01*
X119719048Y-99052381D01*
X119480952Y-99052381D01*
X119385714Y-99004762D01*
X119338095Y-98957143D01*
X120766667Y-98385714D02*
X120766667Y-99052381D01*
X120528571Y-98004762D02*
X120290476Y-98719048D01*
X120909524Y-98719048D01*
X118757143Y-108395043D02*
X118709524Y-108442662D01*
X118566667Y-108490281D01*
X118471429Y-108490281D01*
X118328571Y-108442662D01*
X118233333Y-108347424D01*
X118185714Y-108252186D01*
X118138095Y-108061710D01*
X118138095Y-107918852D01*
X118185714Y-107728376D01*
X118233333Y-107633138D01*
X118328571Y-107537900D01*
X118471429Y-107490281D01*
X118566667Y-107490281D01*
X118709524Y-107537900D01*
X118757143Y-107585519D01*
X119661905Y-107490281D02*
X119185714Y-107490281D01*
X119138095Y-107966471D01*
X119185714Y-107918852D01*
X119280952Y-107871233D01*
X119519048Y-107871233D01*
X119614286Y-107918852D01*
X119661905Y-107966471D01*
X119709524Y-108061710D01*
X119709524Y-108299805D01*
X119661905Y-108395043D01*
X119614286Y-108442662D01*
X119519048Y-108490281D01*
X119280952Y-108490281D01*
X119185714Y-108442662D01*
X119138095Y-108395043D01*
X120614286Y-107490281D02*
X120138095Y-107490281D01*
X120090476Y-107966471D01*
X120138095Y-107918852D01*
X120233333Y-107871233D01*
X120471429Y-107871233D01*
X120566667Y-107918852D01*
X120614286Y-107966471D01*
X120661905Y-108061710D01*
X120661905Y-108299805D01*
X120614286Y-108395043D01*
X120566667Y-108442662D01*
X120471429Y-108490281D01*
X120233333Y-108490281D01*
X120138095Y-108442662D01*
X120090476Y-108395043D01*
X118633343Y-119929943D02*
X118585724Y-119977562D01*
X118442867Y-120025181D01*
X118347629Y-120025181D01*
X118204771Y-119977562D01*
X118109533Y-119882324D01*
X118061914Y-119787086D01*
X118014295Y-119596610D01*
X118014295Y-119453752D01*
X118061914Y-119263276D01*
X118109533Y-119168038D01*
X118204771Y-119072800D01*
X118347629Y-119025181D01*
X118442867Y-119025181D01*
X118585724Y-119072800D01*
X118633343Y-119120419D01*
X119538105Y-119025181D02*
X119061914Y-119025181D01*
X119014295Y-119501371D01*
X119061914Y-119453752D01*
X119157152Y-119406133D01*
X119395248Y-119406133D01*
X119490486Y-119453752D01*
X119538105Y-119501371D01*
X119585724Y-119596610D01*
X119585724Y-119834705D01*
X119538105Y-119929943D01*
X119490486Y-119977562D01*
X119395248Y-120025181D01*
X119157152Y-120025181D01*
X119061914Y-119977562D01*
X119014295Y-119929943D01*
X120442867Y-119025181D02*
X120252390Y-119025181D01*
X120157152Y-119072800D01*
X120109533Y-119120419D01*
X120014295Y-119263276D01*
X119966676Y-119453752D01*
X119966676Y-119834705D01*
X120014295Y-119929943D01*
X120061914Y-119977562D01*
X120157152Y-120025181D01*
X120347629Y-120025181D01*
X120442867Y-119977562D01*
X120490486Y-119929943D01*
X120538105Y-119834705D01*
X120538105Y-119596610D01*
X120490486Y-119501371D01*
X120442867Y-119453752D01*
X120347629Y-119406133D01*
X120157152Y-119406133D01*
X120061914Y-119453752D01*
X120014295Y-119501371D01*
X119966676Y-119596610D01*
X118457143Y-132757143D02*
X118409524Y-132804762D01*
X118266667Y-132852381D01*
X118171429Y-132852381D01*
X118028571Y-132804762D01*
X117933333Y-132709524D01*
X117885714Y-132614286D01*
X117838095Y-132423810D01*
X117838095Y-132280952D01*
X117885714Y-132090476D01*
X117933333Y-131995238D01*
X118028571Y-131900000D01*
X118171429Y-131852381D01*
X118266667Y-131852381D01*
X118409524Y-131900000D01*
X118457143Y-131947619D01*
X119361905Y-131852381D02*
X118885714Y-131852381D01*
X118838095Y-132328571D01*
X118885714Y-132280952D01*
X118980952Y-132233333D01*
X119219048Y-132233333D01*
X119314286Y-132280952D01*
X119361905Y-132328571D01*
X119409524Y-132423810D01*
X119409524Y-132661905D01*
X119361905Y-132757143D01*
X119314286Y-132804762D01*
X119219048Y-132852381D01*
X118980952Y-132852381D01*
X118885714Y-132804762D01*
X118838095Y-132757143D01*
X119742857Y-131852381D02*
X120409524Y-131852381D01*
X119980952Y-132852381D01*
X123257143Y-139157143D02*
X123209524Y-139204762D01*
X123066667Y-139252381D01*
X122971429Y-139252381D01*
X122828571Y-139204762D01*
X122733333Y-139109524D01*
X122685714Y-139014286D01*
X122638095Y-138823810D01*
X122638095Y-138680952D01*
X122685714Y-138490476D01*
X122733333Y-138395238D01*
X122828571Y-138300000D01*
X122971429Y-138252381D01*
X123066667Y-138252381D01*
X123209524Y-138300000D01*
X123257143Y-138347619D01*
X124161905Y-138252381D02*
X123685714Y-138252381D01*
X123638095Y-138728571D01*
X123685714Y-138680952D01*
X123780952Y-138633333D01*
X124019048Y-138633333D01*
X124114286Y-138680952D01*
X124161905Y-138728571D01*
X124209524Y-138823810D01*
X124209524Y-139061905D01*
X124161905Y-139157143D01*
X124114286Y-139204762D01*
X124019048Y-139252381D01*
X123780952Y-139252381D01*
X123685714Y-139204762D01*
X123638095Y-139157143D01*
X124780952Y-138680952D02*
X124685714Y-138633333D01*
X124638095Y-138585714D01*
X124590476Y-138490476D01*
X124590476Y-138442857D01*
X124638095Y-138347619D01*
X124685714Y-138300000D01*
X124780952Y-138252381D01*
X124971429Y-138252381D01*
X125066667Y-138300000D01*
X125114286Y-138347619D01*
X125161905Y-138442857D01*
X125161905Y-138490476D01*
X125114286Y-138585714D01*
X125066667Y-138633333D01*
X124971429Y-138680952D01*
X124780952Y-138680952D01*
X124685714Y-138728571D01*
X124638095Y-138776190D01*
X124590476Y-138871429D01*
X124590476Y-139061905D01*
X124638095Y-139157143D01*
X124685714Y-139204762D01*
X124780952Y-139252381D01*
X124971429Y-139252381D01*
X125066667Y-139204762D01*
X125114286Y-139157143D01*
X125161905Y-139061905D01*
X125161905Y-138871429D01*
X125114286Y-138776190D01*
X125066667Y-138728571D01*
X124971429Y-138680952D01*
X122866043Y-146644243D02*
X122818424Y-146691862D01*
X122675567Y-146739481D01*
X122580329Y-146739481D01*
X122437471Y-146691862D01*
X122342233Y-146596624D01*
X122294614Y-146501386D01*
X122246995Y-146310910D01*
X122246995Y-146168052D01*
X122294614Y-145977576D01*
X122342233Y-145882338D01*
X122437471Y-145787100D01*
X122580329Y-145739481D01*
X122675567Y-145739481D01*
X122818424Y-145787100D01*
X122866043Y-145834719D01*
X123770805Y-145739481D02*
X123294614Y-145739481D01*
X123246995Y-146215671D01*
X123294614Y-146168052D01*
X123389852Y-146120433D01*
X123627948Y-146120433D01*
X123723186Y-146168052D01*
X123770805Y-146215671D01*
X123818424Y-146310910D01*
X123818424Y-146549005D01*
X123770805Y-146644243D01*
X123723186Y-146691862D01*
X123627948Y-146739481D01*
X123389852Y-146739481D01*
X123294614Y-146691862D01*
X123246995Y-146644243D01*
X124294614Y-146739481D02*
X124485090Y-146739481D01*
X124580329Y-146691862D01*
X124627948Y-146644243D01*
X124723186Y-146501386D01*
X124770805Y-146310910D01*
X124770805Y-145929957D01*
X124723186Y-145834719D01*
X124675567Y-145787100D01*
X124580329Y-145739481D01*
X124389852Y-145739481D01*
X124294614Y-145787100D01*
X124246995Y-145834719D01*
X124199376Y-145929957D01*
X124199376Y-146168052D01*
X124246995Y-146263290D01*
X124294614Y-146310910D01*
X124389852Y-146358529D01*
X124580329Y-146358529D01*
X124675567Y-146310910D01*
X124723186Y-146263290D01*
X124770805Y-146168052D01*
X124657143Y-104042857D02*
X124704762Y-104090476D01*
X124752381Y-104233333D01*
X124752381Y-104328571D01*
X124704762Y-104471429D01*
X124609524Y-104566667D01*
X124514286Y-104614286D01*
X124323810Y-104661905D01*
X124180952Y-104661905D01*
X123990476Y-104614286D01*
X123895238Y-104566667D01*
X123800000Y-104471429D01*
X123752381Y-104328571D01*
X123752381Y-104233333D01*
X123800000Y-104090476D01*
X123847619Y-104042857D01*
X123752381Y-103185714D02*
X123752381Y-103376191D01*
X123800000Y-103471429D01*
X123847619Y-103519048D01*
X123990476Y-103614286D01*
X124180952Y-103661905D01*
X124561905Y-103661905D01*
X124657143Y-103614286D01*
X124704762Y-103566667D01*
X124752381Y-103471429D01*
X124752381Y-103280952D01*
X124704762Y-103185714D01*
X124657143Y-103138095D01*
X124561905Y-103090476D01*
X124323810Y-103090476D01*
X124228571Y-103138095D01*
X124180952Y-103185714D01*
X124133333Y-103280952D01*
X124133333Y-103471429D01*
X124180952Y-103566667D01*
X124228571Y-103614286D01*
X124323810Y-103661905D01*
X123752381Y-102471429D02*
X123752381Y-102376190D01*
X123800000Y-102280952D01*
X123847619Y-102233333D01*
X123942857Y-102185714D01*
X124133333Y-102138095D01*
X124371429Y-102138095D01*
X124561905Y-102185714D01*
X124657143Y-102233333D01*
X124704762Y-102280952D01*
X124752381Y-102376190D01*
X124752381Y-102471429D01*
X124704762Y-102566667D01*
X124657143Y-102614286D01*
X124561905Y-102661905D01*
X124371429Y-102709524D01*
X124133333Y-102709524D01*
X123942857Y-102661905D01*
X123847619Y-102614286D01*
X123800000Y-102566667D01*
X123752381Y-102471429D01*
X126369143Y-113234557D02*
X126416762Y-113282176D01*
X126464381Y-113425033D01*
X126464381Y-113520271D01*
X126416762Y-113663129D01*
X126321524Y-113758367D01*
X126226286Y-113805986D01*
X126035810Y-113853605D01*
X125892952Y-113853605D01*
X125702476Y-113805986D01*
X125607238Y-113758367D01*
X125512000Y-113663129D01*
X125464381Y-113520271D01*
X125464381Y-113425033D01*
X125512000Y-113282176D01*
X125559619Y-113234557D01*
X125464381Y-112377414D02*
X125464381Y-112567891D01*
X125512000Y-112663129D01*
X125559619Y-112710748D01*
X125702476Y-112805986D01*
X125892952Y-112853605D01*
X126273905Y-112853605D01*
X126369143Y-112805986D01*
X126416762Y-112758367D01*
X126464381Y-112663129D01*
X126464381Y-112472652D01*
X126416762Y-112377414D01*
X126369143Y-112329795D01*
X126273905Y-112282176D01*
X126035810Y-112282176D01*
X125940571Y-112329795D01*
X125892952Y-112377414D01*
X125845333Y-112472652D01*
X125845333Y-112663129D01*
X125892952Y-112758367D01*
X125940571Y-112805986D01*
X126035810Y-112853605D01*
X126464381Y-111329795D02*
X126464381Y-111901224D01*
X126464381Y-111615510D02*
X125464381Y-111615510D01*
X125607238Y-111710748D01*
X125702476Y-111805986D01*
X125750095Y-111901224D01*
X126598443Y-124621757D02*
X126646062Y-124669376D01*
X126693681Y-124812233D01*
X126693681Y-124907471D01*
X126646062Y-125050329D01*
X126550824Y-125145567D01*
X126455586Y-125193186D01*
X126265110Y-125240805D01*
X126122252Y-125240805D01*
X125931776Y-125193186D01*
X125836538Y-125145567D01*
X125741300Y-125050329D01*
X125693681Y-124907471D01*
X125693681Y-124812233D01*
X125741300Y-124669376D01*
X125788919Y-124621757D01*
X125693681Y-123764614D02*
X125693681Y-123955091D01*
X125741300Y-124050329D01*
X125788919Y-124097948D01*
X125931776Y-124193186D01*
X126122252Y-124240805D01*
X126503205Y-124240805D01*
X126598443Y-124193186D01*
X126646062Y-124145567D01*
X126693681Y-124050329D01*
X126693681Y-123859852D01*
X126646062Y-123764614D01*
X126598443Y-123716995D01*
X126503205Y-123669376D01*
X126265110Y-123669376D01*
X126169871Y-123716995D01*
X126122252Y-123764614D01*
X126074633Y-123859852D01*
X126074633Y-124050329D01*
X126122252Y-124145567D01*
X126169871Y-124193186D01*
X126265110Y-124240805D01*
X125788919Y-123288424D02*
X125741300Y-123240805D01*
X125693681Y-123145567D01*
X125693681Y-122907471D01*
X125741300Y-122812233D01*
X125788919Y-122764614D01*
X125884157Y-122716995D01*
X125979395Y-122716995D01*
X126122252Y-122764614D01*
X126693681Y-123336043D01*
X126693681Y-122716995D01*
X118393643Y-135533543D02*
X118346024Y-135581162D01*
X118203167Y-135628781D01*
X118107929Y-135628781D01*
X117965071Y-135581162D01*
X117869833Y-135485924D01*
X117822214Y-135390686D01*
X117774595Y-135200210D01*
X117774595Y-135057352D01*
X117822214Y-134866876D01*
X117869833Y-134771638D01*
X117965071Y-134676400D01*
X118107929Y-134628781D01*
X118203167Y-134628781D01*
X118346024Y-134676400D01*
X118393643Y-134724019D01*
X119250786Y-134628781D02*
X119060309Y-134628781D01*
X118965071Y-134676400D01*
X118917452Y-134724019D01*
X118822214Y-134866876D01*
X118774595Y-135057352D01*
X118774595Y-135438305D01*
X118822214Y-135533543D01*
X118869833Y-135581162D01*
X118965071Y-135628781D01*
X119155548Y-135628781D01*
X119250786Y-135581162D01*
X119298405Y-135533543D01*
X119346024Y-135438305D01*
X119346024Y-135200210D01*
X119298405Y-135104971D01*
X119250786Y-135057352D01*
X119155548Y-135009733D01*
X118965071Y-135009733D01*
X118869833Y-135057352D01*
X118822214Y-135104971D01*
X118774595Y-135200210D01*
X119679357Y-134628781D02*
X120298405Y-134628781D01*
X119965071Y-135009733D01*
X120107929Y-135009733D01*
X120203167Y-135057352D01*
X120250786Y-135104971D01*
X120298405Y-135200210D01*
X120298405Y-135438305D01*
X120250786Y-135533543D01*
X120203167Y-135581162D01*
X120107929Y-135628781D01*
X119822214Y-135628781D01*
X119726976Y-135581162D01*
X119679357Y-135533543D01*
X120557143Y-141557143D02*
X120509524Y-141604762D01*
X120366667Y-141652381D01*
X120271429Y-141652381D01*
X120128571Y-141604762D01*
X120033333Y-141509524D01*
X119985714Y-141414286D01*
X119938095Y-141223810D01*
X119938095Y-141080952D01*
X119985714Y-140890476D01*
X120033333Y-140795238D01*
X120128571Y-140700000D01*
X120271429Y-140652381D01*
X120366667Y-140652381D01*
X120509524Y-140700000D01*
X120557143Y-140747619D01*
X121414286Y-140652381D02*
X121223809Y-140652381D01*
X121128571Y-140700000D01*
X121080952Y-140747619D01*
X120985714Y-140890476D01*
X120938095Y-141080952D01*
X120938095Y-141461905D01*
X120985714Y-141557143D01*
X121033333Y-141604762D01*
X121128571Y-141652381D01*
X121319048Y-141652381D01*
X121414286Y-141604762D01*
X121461905Y-141557143D01*
X121509524Y-141461905D01*
X121509524Y-141223810D01*
X121461905Y-141128571D01*
X121414286Y-141080952D01*
X121319048Y-141033333D01*
X121128571Y-141033333D01*
X121033333Y-141080952D01*
X120985714Y-141128571D01*
X120938095Y-141223810D01*
X122366667Y-140985714D02*
X122366667Y-141652381D01*
X122128571Y-140604762D02*
X121890476Y-141319048D01*
X122509524Y-141319048D01*
X129657143Y-99145843D02*
X129609524Y-99193462D01*
X129466667Y-99241081D01*
X129371429Y-99241081D01*
X129228571Y-99193462D01*
X129133333Y-99098224D01*
X129085714Y-99002986D01*
X129038095Y-98812510D01*
X129038095Y-98669652D01*
X129085714Y-98479176D01*
X129133333Y-98383938D01*
X129228571Y-98288700D01*
X129371429Y-98241081D01*
X129466667Y-98241081D01*
X129609524Y-98288700D01*
X129657143Y-98336319D01*
X130514286Y-98241081D02*
X130323809Y-98241081D01*
X130228571Y-98288700D01*
X130180952Y-98336319D01*
X130085714Y-98479176D01*
X130038095Y-98669652D01*
X130038095Y-99050605D01*
X130085714Y-99145843D01*
X130133333Y-99193462D01*
X130228571Y-99241081D01*
X130419048Y-99241081D01*
X130514286Y-99193462D01*
X130561905Y-99145843D01*
X130609524Y-99050605D01*
X130609524Y-98812510D01*
X130561905Y-98717271D01*
X130514286Y-98669652D01*
X130419048Y-98622033D01*
X130228571Y-98622033D01*
X130133333Y-98669652D01*
X130085714Y-98717271D01*
X130038095Y-98812510D01*
X131514286Y-98241081D02*
X131038095Y-98241081D01*
X130990476Y-98717271D01*
X131038095Y-98669652D01*
X131133333Y-98622033D01*
X131371429Y-98622033D01*
X131466667Y-98669652D01*
X131514286Y-98717271D01*
X131561905Y-98812510D01*
X131561905Y-99050605D01*
X131514286Y-99145843D01*
X131466667Y-99193462D01*
X131371429Y-99241081D01*
X131133333Y-99241081D01*
X131038095Y-99193462D01*
X130990476Y-99145843D01*
X128219043Y-108271243D02*
X128171424Y-108318862D01*
X128028567Y-108366481D01*
X127933329Y-108366481D01*
X127790471Y-108318862D01*
X127695233Y-108223624D01*
X127647614Y-108128386D01*
X127599995Y-107937910D01*
X127599995Y-107795052D01*
X127647614Y-107604576D01*
X127695233Y-107509338D01*
X127790471Y-107414100D01*
X127933329Y-107366481D01*
X128028567Y-107366481D01*
X128171424Y-107414100D01*
X128219043Y-107461719D01*
X129076186Y-107366481D02*
X128885709Y-107366481D01*
X128790471Y-107414100D01*
X128742852Y-107461719D01*
X128647614Y-107604576D01*
X128599995Y-107795052D01*
X128599995Y-108176005D01*
X128647614Y-108271243D01*
X128695233Y-108318862D01*
X128790471Y-108366481D01*
X128980948Y-108366481D01*
X129076186Y-108318862D01*
X129123805Y-108271243D01*
X129171424Y-108176005D01*
X129171424Y-107937910D01*
X129123805Y-107842671D01*
X129076186Y-107795052D01*
X128980948Y-107747433D01*
X128790471Y-107747433D01*
X128695233Y-107795052D01*
X128647614Y-107842671D01*
X128599995Y-107937910D01*
X130028567Y-107366481D02*
X129838090Y-107366481D01*
X129742852Y-107414100D01*
X129695233Y-107461719D01*
X129599995Y-107604576D01*
X129552376Y-107795052D01*
X129552376Y-108176005D01*
X129599995Y-108271243D01*
X129647614Y-108318862D01*
X129742852Y-108366481D01*
X129933329Y-108366481D01*
X130028567Y-108318862D01*
X130076186Y-108271243D01*
X130123805Y-108176005D01*
X130123805Y-107937910D01*
X130076186Y-107842671D01*
X130028567Y-107795052D01*
X129933329Y-107747433D01*
X129742852Y-107747433D01*
X129647614Y-107795052D01*
X129599995Y-107842671D01*
X129552376Y-107937910D01*
X130657143Y-119657143D02*
X130609524Y-119704762D01*
X130466667Y-119752381D01*
X130371429Y-119752381D01*
X130228571Y-119704762D01*
X130133333Y-119609524D01*
X130085714Y-119514286D01*
X130038095Y-119323810D01*
X130038095Y-119180952D01*
X130085714Y-118990476D01*
X130133333Y-118895238D01*
X130228571Y-118800000D01*
X130371429Y-118752381D01*
X130466667Y-118752381D01*
X130609524Y-118800000D01*
X130657143Y-118847619D01*
X131514286Y-118752381D02*
X131323809Y-118752381D01*
X131228571Y-118800000D01*
X131180952Y-118847619D01*
X131085714Y-118990476D01*
X131038095Y-119180952D01*
X131038095Y-119561905D01*
X131085714Y-119657143D01*
X131133333Y-119704762D01*
X131228571Y-119752381D01*
X131419048Y-119752381D01*
X131514286Y-119704762D01*
X131561905Y-119657143D01*
X131609524Y-119561905D01*
X131609524Y-119323810D01*
X131561905Y-119228571D01*
X131514286Y-119180952D01*
X131419048Y-119133333D01*
X131228571Y-119133333D01*
X131133333Y-119180952D01*
X131085714Y-119228571D01*
X131038095Y-119323810D01*
X131942857Y-118752381D02*
X132609524Y-118752381D01*
X132180952Y-119752381D01*
X125957143Y-128157143D02*
X125909524Y-128204762D01*
X125766667Y-128252381D01*
X125671429Y-128252381D01*
X125528571Y-128204762D01*
X125433333Y-128109524D01*
X125385714Y-128014286D01*
X125338095Y-127823810D01*
X125338095Y-127680952D01*
X125385714Y-127490476D01*
X125433333Y-127395238D01*
X125528571Y-127300000D01*
X125671429Y-127252381D01*
X125766667Y-127252381D01*
X125909524Y-127300000D01*
X125957143Y-127347619D01*
X126814286Y-127252381D02*
X126623809Y-127252381D01*
X126528571Y-127300000D01*
X126480952Y-127347619D01*
X126385714Y-127490476D01*
X126338095Y-127680952D01*
X126338095Y-128061905D01*
X126385714Y-128157143D01*
X126433333Y-128204762D01*
X126528571Y-128252381D01*
X126719048Y-128252381D01*
X126814286Y-128204762D01*
X126861905Y-128157143D01*
X126909524Y-128061905D01*
X126909524Y-127823810D01*
X126861905Y-127728571D01*
X126814286Y-127680952D01*
X126719048Y-127633333D01*
X126528571Y-127633333D01*
X126433333Y-127680952D01*
X126385714Y-127728571D01*
X126338095Y-127823810D01*
X127480952Y-127680952D02*
X127385714Y-127633333D01*
X127338095Y-127585714D01*
X127290476Y-127490476D01*
X127290476Y-127442857D01*
X127338095Y-127347619D01*
X127385714Y-127300000D01*
X127480952Y-127252381D01*
X127671429Y-127252381D01*
X127766667Y-127300000D01*
X127814286Y-127347619D01*
X127861905Y-127442857D01*
X127861905Y-127490476D01*
X127814286Y-127585714D01*
X127766667Y-127633333D01*
X127671429Y-127680952D01*
X127480952Y-127680952D01*
X127385714Y-127728571D01*
X127338095Y-127776190D01*
X127290476Y-127871429D01*
X127290476Y-128061905D01*
X127338095Y-128157143D01*
X127385714Y-128204762D01*
X127480952Y-128252381D01*
X127671429Y-128252381D01*
X127766667Y-128204762D01*
X127814286Y-128157143D01*
X127861905Y-128061905D01*
X127861905Y-127871429D01*
X127814286Y-127776190D01*
X127766667Y-127728571D01*
X127671429Y-127680952D01*
X127812943Y-106908643D02*
X127765324Y-106956262D01*
X127622467Y-107003881D01*
X127527229Y-107003881D01*
X127384371Y-106956262D01*
X127289133Y-106861024D01*
X127241514Y-106765786D01*
X127193895Y-106575310D01*
X127193895Y-106432452D01*
X127241514Y-106241976D01*
X127289133Y-106146738D01*
X127384371Y-106051500D01*
X127527229Y-106003881D01*
X127622467Y-106003881D01*
X127765324Y-106051500D01*
X127812943Y-106099119D01*
X128670086Y-106003881D02*
X128479609Y-106003881D01*
X128384371Y-106051500D01*
X128336752Y-106099119D01*
X128241514Y-106241976D01*
X128193895Y-106432452D01*
X128193895Y-106813405D01*
X128241514Y-106908643D01*
X128289133Y-106956262D01*
X128384371Y-107003881D01*
X128574848Y-107003881D01*
X128670086Y-106956262D01*
X128717705Y-106908643D01*
X128765324Y-106813405D01*
X128765324Y-106575310D01*
X128717705Y-106480071D01*
X128670086Y-106432452D01*
X128574848Y-106384833D01*
X128384371Y-106384833D01*
X128289133Y-106432452D01*
X128241514Y-106480071D01*
X128193895Y-106575310D01*
X129241514Y-107003881D02*
X129431990Y-107003881D01*
X129527229Y-106956262D01*
X129574848Y-106908643D01*
X129670086Y-106765786D01*
X129717705Y-106575310D01*
X129717705Y-106194357D01*
X129670086Y-106099119D01*
X129622467Y-106051500D01*
X129527229Y-106003881D01*
X129336752Y-106003881D01*
X129241514Y-106051500D01*
X129193895Y-106099119D01*
X129146276Y-106194357D01*
X129146276Y-106432452D01*
X129193895Y-106527690D01*
X129241514Y-106575310D01*
X129336752Y-106622929D01*
X129527229Y-106622929D01*
X129622467Y-106575310D01*
X129670086Y-106527690D01*
X129717705Y-106432452D01*
X128157143Y-116243043D02*
X128109524Y-116290662D01*
X127966667Y-116338281D01*
X127871429Y-116338281D01*
X127728571Y-116290662D01*
X127633333Y-116195424D01*
X127585714Y-116100186D01*
X127538095Y-115909710D01*
X127538095Y-115766852D01*
X127585714Y-115576376D01*
X127633333Y-115481138D01*
X127728571Y-115385900D01*
X127871429Y-115338281D01*
X127966667Y-115338281D01*
X128109524Y-115385900D01*
X128157143Y-115433519D01*
X128490476Y-115338281D02*
X129157143Y-115338281D01*
X128728571Y-116338281D01*
X129728571Y-115338281D02*
X129823810Y-115338281D01*
X129919048Y-115385900D01*
X129966667Y-115433519D01*
X130014286Y-115528757D01*
X130061905Y-115719233D01*
X130061905Y-115957329D01*
X130014286Y-116147805D01*
X129966667Y-116243043D01*
X129919048Y-116290662D01*
X129823810Y-116338281D01*
X129728571Y-116338281D01*
X129633333Y-116290662D01*
X129585714Y-116243043D01*
X129538095Y-116147805D01*
X129490476Y-115957329D01*
X129490476Y-115719233D01*
X129538095Y-115528757D01*
X129585714Y-115433519D01*
X129633333Y-115385900D01*
X129728571Y-115338281D01*
X114692043Y-127403343D02*
X114644424Y-127450962D01*
X114501567Y-127498581D01*
X114406329Y-127498581D01*
X114263471Y-127450962D01*
X114168233Y-127355724D01*
X114120614Y-127260486D01*
X114072995Y-127070010D01*
X114072995Y-126927152D01*
X114120614Y-126736676D01*
X114168233Y-126641438D01*
X114263471Y-126546200D01*
X114406329Y-126498581D01*
X114501567Y-126498581D01*
X114644424Y-126546200D01*
X114692043Y-126593819D01*
X115025376Y-126498581D02*
X115692043Y-126498581D01*
X115263471Y-127498581D01*
X116596805Y-127498581D02*
X116025376Y-127498581D01*
X116311090Y-127498581D02*
X116311090Y-126498581D01*
X116215852Y-126641438D01*
X116120614Y-126736676D01*
X116025376Y-126784295D01*
X126006343Y-137904943D02*
X125958724Y-137952562D01*
X125815867Y-138000181D01*
X125720629Y-138000181D01*
X125577771Y-137952562D01*
X125482533Y-137857324D01*
X125434914Y-137762086D01*
X125387295Y-137571610D01*
X125387295Y-137428752D01*
X125434914Y-137238276D01*
X125482533Y-137143038D01*
X125577771Y-137047800D01*
X125720629Y-137000181D01*
X125815867Y-137000181D01*
X125958724Y-137047800D01*
X126006343Y-137095419D01*
X126339676Y-137000181D02*
X127006343Y-137000181D01*
X126577771Y-138000181D01*
X127339676Y-137095419D02*
X127387295Y-137047800D01*
X127482533Y-137000181D01*
X127720629Y-137000181D01*
X127815867Y-137047800D01*
X127863486Y-137095419D01*
X127911105Y-137190657D01*
X127911105Y-137285895D01*
X127863486Y-137428752D01*
X127292057Y-138000181D01*
X127911105Y-138000181D01*
X127765443Y-104191743D02*
X127717824Y-104239362D01*
X127574967Y-104286981D01*
X127479729Y-104286981D01*
X127336871Y-104239362D01*
X127241633Y-104144124D01*
X127194014Y-104048886D01*
X127146395Y-103858410D01*
X127146395Y-103715552D01*
X127194014Y-103525076D01*
X127241633Y-103429838D01*
X127336871Y-103334600D01*
X127479729Y-103286981D01*
X127574967Y-103286981D01*
X127717824Y-103334600D01*
X127765443Y-103382219D01*
X128098776Y-103286981D02*
X128765443Y-103286981D01*
X128336871Y-104286981D01*
X129051157Y-103286981D02*
X129670205Y-103286981D01*
X129336871Y-103667933D01*
X129479729Y-103667933D01*
X129574967Y-103715552D01*
X129622586Y-103763171D01*
X129670205Y-103858410D01*
X129670205Y-104096505D01*
X129622586Y-104191743D01*
X129574967Y-104239362D01*
X129479729Y-104286981D01*
X129194014Y-104286981D01*
X129098776Y-104239362D01*
X129051157Y-104191743D01*
X128080943Y-113443043D02*
X128033324Y-113490662D01*
X127890467Y-113538281D01*
X127795229Y-113538281D01*
X127652371Y-113490662D01*
X127557133Y-113395424D01*
X127509514Y-113300186D01*
X127461895Y-113109710D01*
X127461895Y-112966852D01*
X127509514Y-112776376D01*
X127557133Y-112681138D01*
X127652371Y-112585900D01*
X127795229Y-112538281D01*
X127890467Y-112538281D01*
X128033324Y-112585900D01*
X128080943Y-112633519D01*
X128414276Y-112538281D02*
X129080943Y-112538281D01*
X128652371Y-113538281D01*
X129890467Y-112871614D02*
X129890467Y-113538281D01*
X129652371Y-112490662D02*
X129414276Y-113204948D01*
X130033324Y-113204948D01*
X128657143Y-124857143D02*
X128609524Y-124904762D01*
X128466667Y-124952381D01*
X128371429Y-124952381D01*
X128228571Y-124904762D01*
X128133333Y-124809524D01*
X128085714Y-124714286D01*
X128038095Y-124523810D01*
X128038095Y-124380952D01*
X128085714Y-124190476D01*
X128133333Y-124095238D01*
X128228571Y-124000000D01*
X128371429Y-123952381D01*
X128466667Y-123952381D01*
X128609524Y-124000000D01*
X128657143Y-124047619D01*
X128990476Y-123952381D02*
X129657143Y-123952381D01*
X129228571Y-124952381D01*
X130514286Y-123952381D02*
X130038095Y-123952381D01*
X129990476Y-124428571D01*
X130038095Y-124380952D01*
X130133333Y-124333333D01*
X130371429Y-124333333D01*
X130466667Y-124380952D01*
X130514286Y-124428571D01*
X130561905Y-124523810D01*
X130561905Y-124761905D01*
X130514286Y-124857143D01*
X130466667Y-124904762D01*
X130371429Y-124952381D01*
X130133333Y-124952381D01*
X130038095Y-124904762D01*
X129990476Y-124857143D01*
X126157143Y-132857143D02*
X126109524Y-132904762D01*
X125966667Y-132952381D01*
X125871429Y-132952381D01*
X125728571Y-132904762D01*
X125633333Y-132809524D01*
X125585714Y-132714286D01*
X125538095Y-132523810D01*
X125538095Y-132380952D01*
X125585714Y-132190476D01*
X125633333Y-132095238D01*
X125728571Y-132000000D01*
X125871429Y-131952381D01*
X125966667Y-131952381D01*
X126109524Y-132000000D01*
X126157143Y-132047619D01*
X126490476Y-131952381D02*
X127157143Y-131952381D01*
X126728571Y-132952381D01*
X127966667Y-131952381D02*
X127776190Y-131952381D01*
X127680952Y-132000000D01*
X127633333Y-132047619D01*
X127538095Y-132190476D01*
X127490476Y-132380952D01*
X127490476Y-132761905D01*
X127538095Y-132857143D01*
X127585714Y-132904762D01*
X127680952Y-132952381D01*
X127871429Y-132952381D01*
X127966667Y-132904762D01*
X128014286Y-132857143D01*
X128061905Y-132761905D01*
X128061905Y-132523810D01*
X128014286Y-132428571D01*
X127966667Y-132380952D01*
X127871429Y-132333333D01*
X127680952Y-132333333D01*
X127585714Y-132380952D01*
X127538095Y-132428571D01*
X127490476Y-132523810D01*
X143257143Y-103342857D02*
X143304762Y-103390476D01*
X143352381Y-103533333D01*
X143352381Y-103628571D01*
X143304762Y-103771429D01*
X143209524Y-103866667D01*
X143114286Y-103914286D01*
X142923810Y-103961905D01*
X142780952Y-103961905D01*
X142590476Y-103914286D01*
X142495238Y-103866667D01*
X142400000Y-103771429D01*
X142352381Y-103628571D01*
X142352381Y-103533333D01*
X142400000Y-103390476D01*
X142447619Y-103342857D01*
X142352381Y-103009524D02*
X142352381Y-102342857D01*
X143352381Y-102771429D01*
X142352381Y-102057143D02*
X142352381Y-101390476D01*
X143352381Y-101819048D01*
X121157143Y-128457143D02*
X121109524Y-128504762D01*
X120966667Y-128552381D01*
X120871429Y-128552381D01*
X120728571Y-128504762D01*
X120633333Y-128409524D01*
X120585714Y-128314286D01*
X120538095Y-128123810D01*
X120538095Y-127980952D01*
X120585714Y-127790476D01*
X120633333Y-127695238D01*
X120728571Y-127600000D01*
X120871429Y-127552381D01*
X120966667Y-127552381D01*
X121109524Y-127600000D01*
X121157143Y-127647619D01*
X121490476Y-127552381D02*
X122157143Y-127552381D01*
X121728571Y-128552381D01*
X122680952Y-127980952D02*
X122585714Y-127933333D01*
X122538095Y-127885714D01*
X122490476Y-127790476D01*
X122490476Y-127742857D01*
X122538095Y-127647619D01*
X122585714Y-127600000D01*
X122680952Y-127552381D01*
X122871429Y-127552381D01*
X122966667Y-127600000D01*
X123014286Y-127647619D01*
X123061905Y-127742857D01*
X123061905Y-127790476D01*
X123014286Y-127885714D01*
X122966667Y-127933333D01*
X122871429Y-127980952D01*
X122680952Y-127980952D01*
X122585714Y-128028571D01*
X122538095Y-128076190D01*
X122490476Y-128171429D01*
X122490476Y-128361905D01*
X122538095Y-128457143D01*
X122585714Y-128504762D01*
X122680952Y-128552381D01*
X122871429Y-128552381D01*
X122966667Y-128504762D01*
X123014286Y-128457143D01*
X123061905Y-128361905D01*
X123061905Y-128171429D01*
X123014286Y-128076190D01*
X122966667Y-128028571D01*
X122871429Y-127980952D01*
X128257143Y-130657143D02*
X128209524Y-130704762D01*
X128066667Y-130752381D01*
X127971429Y-130752381D01*
X127828571Y-130704762D01*
X127733333Y-130609524D01*
X127685714Y-130514286D01*
X127638095Y-130323810D01*
X127638095Y-130180952D01*
X127685714Y-129990476D01*
X127733333Y-129895238D01*
X127828571Y-129800000D01*
X127971429Y-129752381D01*
X128066667Y-129752381D01*
X128209524Y-129800000D01*
X128257143Y-129847619D01*
X128590476Y-129752381D02*
X129257143Y-129752381D01*
X128828571Y-130752381D01*
X129685714Y-130752381D02*
X129876190Y-130752381D01*
X129971429Y-130704762D01*
X130019048Y-130657143D01*
X130114286Y-130514286D01*
X130161905Y-130323810D01*
X130161905Y-129942857D01*
X130114286Y-129847619D01*
X130066667Y-129800000D01*
X129971429Y-129752381D01*
X129780952Y-129752381D01*
X129685714Y-129800000D01*
X129638095Y-129847619D01*
X129590476Y-129942857D01*
X129590476Y-130180952D01*
X129638095Y-130276190D01*
X129685714Y-130323810D01*
X129780952Y-130371429D01*
X129971429Y-130371429D01*
X130066667Y-130323810D01*
X130114286Y-130276190D01*
X130161905Y-130180952D01*
X102052381Y-109042857D02*
X102052381Y-109519048D01*
X101052381Y-109519048D01*
X102052381Y-108185714D02*
X102052381Y-108757143D01*
X102052381Y-108471429D02*
X101052381Y-108471429D01*
X101195238Y-108566667D01*
X101290476Y-108661905D01*
X101338095Y-108757143D01*
X101385714Y-107328571D02*
X102052381Y-107328571D01*
X101004762Y-107566667D02*
X101719048Y-107804762D01*
X101719048Y-107185714D01*
X111352381Y-105242857D02*
X111352381Y-105719048D01*
X110352381Y-105719048D01*
X111352381Y-104385714D02*
X111352381Y-104957143D01*
X111352381Y-104671429D02*
X110352381Y-104671429D01*
X110495238Y-104766667D01*
X110590476Y-104861905D01*
X110638095Y-104957143D01*
X110352381Y-103480952D02*
X110352381Y-103957143D01*
X110828571Y-104004762D01*
X110780952Y-103957143D01*
X110733333Y-103861905D01*
X110733333Y-103623809D01*
X110780952Y-103528571D01*
X110828571Y-103480952D01*
X110923810Y-103433333D01*
X111161905Y-103433333D01*
X111257143Y-103480952D01*
X111304762Y-103528571D01*
X111352381Y-103623809D01*
X111352381Y-103861905D01*
X111304762Y-103957143D01*
X111257143Y-104004762D01*
X111652381Y-112942857D02*
X111652381Y-113419048D01*
X110652381Y-113419048D01*
X111652381Y-112085714D02*
X111652381Y-112657143D01*
X111652381Y-112371429D02*
X110652381Y-112371429D01*
X110795238Y-112466667D01*
X110890476Y-112561905D01*
X110938095Y-112657143D01*
X110652381Y-111228571D02*
X110652381Y-111419048D01*
X110700000Y-111514286D01*
X110747619Y-111561905D01*
X110890476Y-111657143D01*
X111080952Y-111704762D01*
X111461905Y-111704762D01*
X111557143Y-111657143D01*
X111604762Y-111609524D01*
X111652381Y-111514286D01*
X111652381Y-111323809D01*
X111604762Y-111228571D01*
X111557143Y-111180952D01*
X111461905Y-111133333D01*
X111223810Y-111133333D01*
X111128571Y-111180952D01*
X111080952Y-111228571D01*
X111033333Y-111323809D01*
X111033333Y-111514286D01*
X111080952Y-111609524D01*
X111128571Y-111657143D01*
X111223810Y-111704762D01*
X111652381Y-125142857D02*
X111652381Y-125619048D01*
X110652381Y-125619048D01*
X111652381Y-124285714D02*
X111652381Y-124857143D01*
X111652381Y-124571429D02*
X110652381Y-124571429D01*
X110795238Y-124666667D01*
X110890476Y-124761905D01*
X110938095Y-124857143D01*
X110652381Y-123952381D02*
X110652381Y-123285714D01*
X111652381Y-123714286D01*
X111252381Y-135742857D02*
X111252381Y-136219048D01*
X110252381Y-136219048D01*
X111252381Y-134885714D02*
X111252381Y-135457143D01*
X111252381Y-135171429D02*
X110252381Y-135171429D01*
X110395238Y-135266667D01*
X110490476Y-135361905D01*
X110538095Y-135457143D01*
X110680952Y-134314286D02*
X110633333Y-134409524D01*
X110585714Y-134457143D01*
X110490476Y-134504762D01*
X110442857Y-134504762D01*
X110347619Y-134457143D01*
X110300000Y-134409524D01*
X110252381Y-134314286D01*
X110252381Y-134123809D01*
X110300000Y-134028571D01*
X110347619Y-133980952D01*
X110442857Y-133933333D01*
X110490476Y-133933333D01*
X110585714Y-133980952D01*
X110633333Y-134028571D01*
X110680952Y-134123809D01*
X110680952Y-134314286D01*
X110728571Y-134409524D01*
X110776190Y-134457143D01*
X110871429Y-134504762D01*
X111061905Y-134504762D01*
X111157143Y-134457143D01*
X111204762Y-134409524D01*
X111252381Y-134314286D01*
X111252381Y-134123809D01*
X111204762Y-134028571D01*
X111157143Y-133980952D01*
X111061905Y-133933333D01*
X110871429Y-133933333D01*
X110776190Y-133980952D01*
X110728571Y-134028571D01*
X110680952Y-134123809D01*
X111552381Y-144742857D02*
X111552381Y-145219048D01*
X110552381Y-145219048D01*
X111552381Y-143885714D02*
X111552381Y-144457143D01*
X111552381Y-144171429D02*
X110552381Y-144171429D01*
X110695238Y-144266667D01*
X110790476Y-144361905D01*
X110838095Y-144457143D01*
X111552381Y-143409524D02*
X111552381Y-143219048D01*
X111504762Y-143123809D01*
X111457143Y-143076190D01*
X111314286Y-142980952D01*
X111123810Y-142933333D01*
X110742857Y-142933333D01*
X110647619Y-142980952D01*
X110600000Y-143028571D01*
X110552381Y-143123809D01*
X110552381Y-143314286D01*
X110600000Y-143409524D01*
X110647619Y-143457143D01*
X110742857Y-143504762D01*
X110980952Y-143504762D01*
X111076190Y-143457143D01*
X111123810Y-143409524D01*
X111171429Y-143314286D01*
X111171429Y-143123809D01*
X111123810Y-143028571D01*
X111076190Y-142980952D01*
X110980952Y-142933333D01*
X113846043Y-99052181D02*
X113369852Y-99052181D01*
X113369852Y-98052181D01*
X114131757Y-98147419D02*
X114179376Y-98099800D01*
X114274614Y-98052181D01*
X114512710Y-98052181D01*
X114607948Y-98099800D01*
X114655567Y-98147419D01*
X114703186Y-98242657D01*
X114703186Y-98337895D01*
X114655567Y-98480752D01*
X114084138Y-99052181D01*
X114703186Y-99052181D01*
X115322233Y-98052181D02*
X115417472Y-98052181D01*
X115512710Y-98099800D01*
X115560329Y-98147419D01*
X115607948Y-98242657D01*
X115655567Y-98433133D01*
X115655567Y-98671229D01*
X115607948Y-98861705D01*
X115560329Y-98956943D01*
X115512710Y-99004562D01*
X115417472Y-99052181D01*
X115322233Y-99052181D01*
X115226995Y-99004562D01*
X115179376Y-98956943D01*
X115131757Y-98861705D01*
X115084138Y-98671229D01*
X115084138Y-98433133D01*
X115131757Y-98242657D01*
X115179376Y-98147419D01*
X115226995Y-98099800D01*
X115322233Y-98052181D01*
X113819043Y-108666481D02*
X113342852Y-108666481D01*
X113342852Y-107666481D01*
X114104757Y-107761719D02*
X114152376Y-107714100D01*
X114247614Y-107666481D01*
X114485710Y-107666481D01*
X114580948Y-107714100D01*
X114628567Y-107761719D01*
X114676186Y-107856957D01*
X114676186Y-107952195D01*
X114628567Y-108095052D01*
X114057138Y-108666481D01*
X114676186Y-108666481D01*
X115628567Y-108666481D02*
X115057138Y-108666481D01*
X115342852Y-108666481D02*
X115342852Y-107666481D01*
X115247614Y-107809338D01*
X115152376Y-107904576D01*
X115057138Y-107952195D01*
X113457143Y-120052381D02*
X112980952Y-120052381D01*
X112980952Y-119052381D01*
X113742857Y-119147619D02*
X113790476Y-119100000D01*
X113885714Y-119052381D01*
X114123810Y-119052381D01*
X114219048Y-119100000D01*
X114266667Y-119147619D01*
X114314286Y-119242857D01*
X114314286Y-119338095D01*
X114266667Y-119480952D01*
X113695238Y-120052381D01*
X114314286Y-120052381D01*
X114695238Y-119147619D02*
X114742857Y-119100000D01*
X114838095Y-119052381D01*
X115076191Y-119052381D01*
X115171429Y-119100000D01*
X115219048Y-119147619D01*
X115266667Y-119242857D01*
X115266667Y-119338095D01*
X115219048Y-119480952D01*
X114647619Y-120052381D01*
X115266667Y-120052381D01*
X113757143Y-130353781D02*
X113280952Y-130353781D01*
X113280952Y-129353781D01*
X114042857Y-129449019D02*
X114090476Y-129401400D01*
X114185714Y-129353781D01*
X114423810Y-129353781D01*
X114519048Y-129401400D01*
X114566667Y-129449019D01*
X114614286Y-129544257D01*
X114614286Y-129639495D01*
X114566667Y-129782352D01*
X113995238Y-130353781D01*
X114614286Y-130353781D01*
X114947619Y-129353781D02*
X115566667Y-129353781D01*
X115233333Y-129734733D01*
X115376191Y-129734733D01*
X115471429Y-129782352D01*
X115519048Y-129829971D01*
X115566667Y-129925210D01*
X115566667Y-130163305D01*
X115519048Y-130258543D01*
X115471429Y-130306162D01*
X115376191Y-130353781D01*
X115090476Y-130353781D01*
X114995238Y-130306162D01*
X114947619Y-130258543D01*
X113793643Y-139455381D02*
X113317452Y-139455381D01*
X113317452Y-138455381D01*
X114079357Y-138550619D02*
X114126976Y-138503000D01*
X114222214Y-138455381D01*
X114460310Y-138455381D01*
X114555548Y-138503000D01*
X114603167Y-138550619D01*
X114650786Y-138645857D01*
X114650786Y-138741095D01*
X114603167Y-138883952D01*
X114031738Y-139455381D01*
X114650786Y-139455381D01*
X115507929Y-138788714D02*
X115507929Y-139455381D01*
X115269833Y-138407762D02*
X115031738Y-139122048D01*
X115650786Y-139122048D01*
X122252381Y-104942857D02*
X122252381Y-105419048D01*
X121252381Y-105419048D01*
X121347619Y-104657143D02*
X121300000Y-104609524D01*
X121252381Y-104514286D01*
X121252381Y-104276190D01*
X121300000Y-104180952D01*
X121347619Y-104133333D01*
X121442857Y-104085714D01*
X121538095Y-104085714D01*
X121680952Y-104133333D01*
X122252381Y-104704762D01*
X122252381Y-104085714D01*
X121252381Y-103180952D02*
X121252381Y-103657143D01*
X121728571Y-103704762D01*
X121680952Y-103657143D01*
X121633333Y-103561905D01*
X121633333Y-103323809D01*
X121680952Y-103228571D01*
X121728571Y-103180952D01*
X121823810Y-103133333D01*
X122061905Y-103133333D01*
X122157143Y-103180952D01*
X122204762Y-103228571D01*
X122252381Y-103323809D01*
X122252381Y-103561905D01*
X122204762Y-103657143D01*
X122157143Y-103704762D01*
X121480781Y-114280957D02*
X121480781Y-114757148D01*
X120480781Y-114757148D01*
X120576019Y-113995243D02*
X120528400Y-113947624D01*
X120480781Y-113852386D01*
X120480781Y-113614290D01*
X120528400Y-113519052D01*
X120576019Y-113471433D01*
X120671257Y-113423814D01*
X120766495Y-113423814D01*
X120909352Y-113471433D01*
X121480781Y-114042862D01*
X121480781Y-113423814D01*
X120480781Y-112566671D02*
X120480781Y-112757148D01*
X120528400Y-112852386D01*
X120576019Y-112900005D01*
X120718876Y-112995243D01*
X120909352Y-113042862D01*
X121290305Y-113042862D01*
X121385543Y-112995243D01*
X121433162Y-112947624D01*
X121480781Y-112852386D01*
X121480781Y-112661909D01*
X121433162Y-112566671D01*
X121385543Y-112519052D01*
X121290305Y-112471433D01*
X121052210Y-112471433D01*
X120956971Y-112519052D01*
X120909352Y-112566671D01*
X120861733Y-112661909D01*
X120861733Y-112852386D01*
X120909352Y-112947624D01*
X120956971Y-112995243D01*
X121052210Y-113042862D01*
X121064881Y-123665057D02*
X121064881Y-124141248D01*
X120064881Y-124141248D01*
X120160119Y-123379343D02*
X120112500Y-123331724D01*
X120064881Y-123236486D01*
X120064881Y-122998390D01*
X120112500Y-122903152D01*
X120160119Y-122855533D01*
X120255357Y-122807914D01*
X120350595Y-122807914D01*
X120493452Y-122855533D01*
X121064881Y-123426962D01*
X121064881Y-122807914D01*
X120064881Y-122474581D02*
X120064881Y-121807914D01*
X121064881Y-122236486D01*
X124052381Y-135142857D02*
X124052381Y-135619048D01*
X123052381Y-135619048D01*
X123147619Y-134857143D02*
X123100000Y-134809524D01*
X123052381Y-134714286D01*
X123052381Y-134476190D01*
X123100000Y-134380952D01*
X123147619Y-134333333D01*
X123242857Y-134285714D01*
X123338095Y-134285714D01*
X123480952Y-134333333D01*
X124052381Y-134904762D01*
X124052381Y-134285714D01*
X123480952Y-133714286D02*
X123433333Y-133809524D01*
X123385714Y-133857143D01*
X123290476Y-133904762D01*
X123242857Y-133904762D01*
X123147619Y-133857143D01*
X123100000Y-133809524D01*
X123052381Y-133714286D01*
X123052381Y-133523809D01*
X123100000Y-133428571D01*
X123147619Y-133380952D01*
X123242857Y-133333333D01*
X123290476Y-133333333D01*
X123385714Y-133380952D01*
X123433333Y-133428571D01*
X123480952Y-133523809D01*
X123480952Y-133714286D01*
X123528571Y-133809524D01*
X123576190Y-133857143D01*
X123671429Y-133904762D01*
X123861905Y-133904762D01*
X123957143Y-133857143D01*
X124004762Y-133809524D01*
X124052381Y-133714286D01*
X124052381Y-133523809D01*
X124004762Y-133428571D01*
X123957143Y-133380952D01*
X123861905Y-133333333D01*
X123671429Y-133333333D01*
X123576190Y-133380952D01*
X123528571Y-133428571D01*
X123480952Y-133523809D01*
X128852381Y-144942857D02*
X128852381Y-145419048D01*
X127852381Y-145419048D01*
X127947619Y-144657143D02*
X127900000Y-144609524D01*
X127852381Y-144514286D01*
X127852381Y-144276190D01*
X127900000Y-144180952D01*
X127947619Y-144133333D01*
X128042857Y-144085714D01*
X128138095Y-144085714D01*
X128280952Y-144133333D01*
X128852381Y-144704762D01*
X128852381Y-144085714D01*
X128852381Y-143609524D02*
X128852381Y-143419048D01*
X128804762Y-143323809D01*
X128757143Y-143276190D01*
X128614286Y-143180952D01*
X128423810Y-143133333D01*
X128042857Y-143133333D01*
X127947619Y-143180952D01*
X127900000Y-143228571D01*
X127852381Y-143323809D01*
X127852381Y-143514286D01*
X127900000Y-143609524D01*
X127947619Y-143657143D01*
X128042857Y-143704762D01*
X128280952Y-143704762D01*
X128376190Y-143657143D01*
X128423810Y-143609524D01*
X128471429Y-143514286D01*
X128471429Y-143323809D01*
X128423810Y-143228571D01*
X128376190Y-143180952D01*
X128280952Y-143133333D01*
X124584143Y-99229381D02*
X124107952Y-99229381D01*
X124107952Y-98229381D01*
X124822238Y-98229381D02*
X125441286Y-98229381D01*
X125107952Y-98610333D01*
X125250810Y-98610333D01*
X125346048Y-98657952D01*
X125393667Y-98705571D01*
X125441286Y-98800810D01*
X125441286Y-99038905D01*
X125393667Y-99134143D01*
X125346048Y-99181762D01*
X125250810Y-99229381D01*
X124965095Y-99229381D01*
X124869857Y-99181762D01*
X124822238Y-99134143D01*
X126060333Y-98229381D02*
X126155572Y-98229381D01*
X126250810Y-98277000D01*
X126298429Y-98324619D01*
X126346048Y-98419857D01*
X126393667Y-98610333D01*
X126393667Y-98848429D01*
X126346048Y-99038905D01*
X126298429Y-99134143D01*
X126250810Y-99181762D01*
X126155572Y-99229381D01*
X126060333Y-99229381D01*
X125965095Y-99181762D01*
X125917476Y-99134143D01*
X125869857Y-99038905D01*
X125822238Y-98848429D01*
X125822238Y-98610333D01*
X125869857Y-98419857D01*
X125917476Y-98324619D01*
X125965095Y-98277000D01*
X126060333Y-98229381D01*
X123607943Y-108555381D02*
X123131752Y-108555381D01*
X123131752Y-107555381D01*
X123846038Y-107555381D02*
X124465086Y-107555381D01*
X124131752Y-107936333D01*
X124274610Y-107936333D01*
X124369848Y-107983952D01*
X124417467Y-108031571D01*
X124465086Y-108126810D01*
X124465086Y-108364905D01*
X124417467Y-108460143D01*
X124369848Y-108507762D01*
X124274610Y-108555381D01*
X123988895Y-108555381D01*
X123893657Y-108507762D01*
X123846038Y-108460143D01*
X125417467Y-108555381D02*
X124846038Y-108555381D01*
X125131752Y-108555381D02*
X125131752Y-107555381D01*
X125036514Y-107698238D01*
X124941276Y-107793476D01*
X124846038Y-107841095D01*
X125757143Y-119952381D02*
X125280952Y-119952381D01*
X125280952Y-118952381D01*
X125995238Y-118952381D02*
X126614286Y-118952381D01*
X126280952Y-119333333D01*
X126423810Y-119333333D01*
X126519048Y-119380952D01*
X126566667Y-119428571D01*
X126614286Y-119523810D01*
X126614286Y-119761905D01*
X126566667Y-119857143D01*
X126519048Y-119904762D01*
X126423810Y-119952381D01*
X126138095Y-119952381D01*
X126042857Y-119904762D01*
X125995238Y-119857143D01*
X126995238Y-119047619D02*
X127042857Y-119000000D01*
X127138095Y-118952381D01*
X127376191Y-118952381D01*
X127471429Y-119000000D01*
X127519048Y-119047619D01*
X127566667Y-119142857D01*
X127566667Y-119238095D01*
X127519048Y-119380952D01*
X126947619Y-119952381D01*
X127566667Y-119952381D01*
X123357143Y-130163281D02*
X122880952Y-130163281D01*
X122880952Y-129163281D01*
X123595238Y-129163281D02*
X124214286Y-129163281D01*
X123880952Y-129544233D01*
X124023810Y-129544233D01*
X124119048Y-129591852D01*
X124166667Y-129639471D01*
X124214286Y-129734710D01*
X124214286Y-129972805D01*
X124166667Y-130068043D01*
X124119048Y-130115662D01*
X124023810Y-130163281D01*
X123738095Y-130163281D01*
X123642857Y-130115662D01*
X123595238Y-130068043D01*
X124547619Y-129163281D02*
X125166667Y-129163281D01*
X124833333Y-129544233D01*
X124976191Y-129544233D01*
X125071429Y-129591852D01*
X125119048Y-129639471D01*
X125166667Y-129734710D01*
X125166667Y-129972805D01*
X125119048Y-130068043D01*
X125071429Y-130115662D01*
X124976191Y-130163281D01*
X124690476Y-130163281D01*
X124595238Y-130115662D01*
X124547619Y-130068043D01*
X133303381Y-104915857D02*
X133303381Y-105392048D01*
X132303381Y-105392048D01*
X132303381Y-104677762D02*
X132303381Y-104058714D01*
X132684333Y-104392048D01*
X132684333Y-104249190D01*
X132731952Y-104153952D01*
X132779571Y-104106333D01*
X132874810Y-104058714D01*
X133112905Y-104058714D01*
X133208143Y-104106333D01*
X133255762Y-104153952D01*
X133303381Y-104249190D01*
X133303381Y-104534905D01*
X133255762Y-104630143D01*
X133208143Y-104677762D01*
X132636714Y-103201571D02*
X133303381Y-103201571D01*
X132255762Y-103439667D02*
X132970048Y-103677762D01*
X132970048Y-103058714D01*
X134152381Y-112842857D02*
X134152381Y-113319048D01*
X133152381Y-113319048D01*
X133152381Y-112604762D02*
X133152381Y-111985714D01*
X133533333Y-112319048D01*
X133533333Y-112176190D01*
X133580952Y-112080952D01*
X133628571Y-112033333D01*
X133723810Y-111985714D01*
X133961905Y-111985714D01*
X134057143Y-112033333D01*
X134104762Y-112080952D01*
X134152381Y-112176190D01*
X134152381Y-112461905D01*
X134104762Y-112557143D01*
X134057143Y-112604762D01*
X133152381Y-111080952D02*
X133152381Y-111557143D01*
X133628571Y-111604762D01*
X133580952Y-111557143D01*
X133533333Y-111461905D01*
X133533333Y-111223809D01*
X133580952Y-111128571D01*
X133628571Y-111080952D01*
X133723810Y-111033333D01*
X133961905Y-111033333D01*
X134057143Y-111080952D01*
X134104762Y-111128571D01*
X134152381Y-111223809D01*
X134152381Y-111461905D01*
X134104762Y-111557143D01*
X134057143Y-111604762D01*
X134350981Y-125842857D02*
X134350981Y-126319048D01*
X133350981Y-126319048D01*
X133350981Y-125604762D02*
X133350981Y-124985714D01*
X133731933Y-125319048D01*
X133731933Y-125176190D01*
X133779552Y-125080952D01*
X133827171Y-125033333D01*
X133922410Y-124985714D01*
X134160505Y-124985714D01*
X134255743Y-125033333D01*
X134303362Y-125080952D01*
X134350981Y-125176190D01*
X134350981Y-125461905D01*
X134303362Y-125557143D01*
X134255743Y-125604762D01*
X133350981Y-124128571D02*
X133350981Y-124319048D01*
X133398600Y-124414286D01*
X133446219Y-124461905D01*
X133589076Y-124557143D01*
X133779552Y-124604762D01*
X134160505Y-124604762D01*
X134255743Y-124557143D01*
X134303362Y-124509524D01*
X134350981Y-124414286D01*
X134350981Y-124223809D01*
X134303362Y-124128571D01*
X134255743Y-124080952D01*
X134160505Y-124033333D01*
X133922410Y-124033333D01*
X133827171Y-124080952D01*
X133779552Y-124128571D01*
X133731933Y-124223809D01*
X133731933Y-124414286D01*
X133779552Y-124509524D01*
X133827171Y-124557143D01*
X133922410Y-124604762D01*
X131752381Y-135842857D02*
X131752381Y-136319048D01*
X130752381Y-136319048D01*
X130752381Y-135604762D02*
X130752381Y-134985714D01*
X131133333Y-135319048D01*
X131133333Y-135176190D01*
X131180952Y-135080952D01*
X131228571Y-135033333D01*
X131323810Y-134985714D01*
X131561905Y-134985714D01*
X131657143Y-135033333D01*
X131704762Y-135080952D01*
X131752381Y-135176190D01*
X131752381Y-135461905D01*
X131704762Y-135557143D01*
X131657143Y-135604762D01*
X130752381Y-134652381D02*
X130752381Y-133985714D01*
X131752381Y-134414286D01*
X142979581Y-108820657D02*
X142979581Y-109296848D01*
X141979581Y-109296848D01*
X141979581Y-108582562D02*
X141979581Y-107963514D01*
X142360533Y-108296848D01*
X142360533Y-108153990D01*
X142408152Y-108058752D01*
X142455771Y-108011133D01*
X142551010Y-107963514D01*
X142789105Y-107963514D01*
X142884343Y-108011133D01*
X142931962Y-108058752D01*
X142979581Y-108153990D01*
X142979581Y-108439705D01*
X142931962Y-108534943D01*
X142884343Y-108582562D01*
X142408152Y-107392086D02*
X142360533Y-107487324D01*
X142312914Y-107534943D01*
X142217676Y-107582562D01*
X142170057Y-107582562D01*
X142074819Y-107534943D01*
X142027200Y-107487324D01*
X141979581Y-107392086D01*
X141979581Y-107201609D01*
X142027200Y-107106371D01*
X142074819Y-107058752D01*
X142170057Y-107011133D01*
X142217676Y-107011133D01*
X142312914Y-107058752D01*
X142360533Y-107106371D01*
X142408152Y-107201609D01*
X142408152Y-107392086D01*
X142455771Y-107487324D01*
X142503390Y-107534943D01*
X142598629Y-107582562D01*
X142789105Y-107582562D01*
X142884343Y-107534943D01*
X142931962Y-107487324D01*
X142979581Y-107392086D01*
X142979581Y-107201609D01*
X142931962Y-107106371D01*
X142884343Y-107058752D01*
X142789105Y-107011133D01*
X142598629Y-107011133D01*
X142503390Y-107058752D01*
X142455771Y-107106371D01*
X142408152Y-107201609D01*
X123223981Y-80365366D02*
X122747790Y-80698700D01*
X123223981Y-80936795D02*
X122223981Y-80936795D01*
X122223981Y-80555842D01*
X122271600Y-80460604D01*
X122319219Y-80412985D01*
X122414457Y-80365366D01*
X122557314Y-80365366D01*
X122652552Y-80412985D01*
X122700171Y-80460604D01*
X122747790Y-80555842D01*
X122747790Y-80936795D01*
X123223981Y-79412985D02*
X123223981Y-79984414D01*
X123223981Y-79698700D02*
X122223981Y-79698700D01*
X122366838Y-79793938D01*
X122462076Y-79889176D01*
X122509695Y-79984414D01*
X124298534Y-62639281D02*
X123965200Y-62163090D01*
X123727105Y-62639281D02*
X123727105Y-61639281D01*
X124108058Y-61639281D01*
X124203296Y-61686900D01*
X124250915Y-61734519D01*
X124298534Y-61829757D01*
X124298534Y-61972614D01*
X124250915Y-62067852D01*
X124203296Y-62115471D01*
X124108058Y-62163090D01*
X123727105Y-62163090D01*
X125203296Y-61639281D02*
X124727105Y-61639281D01*
X124679486Y-62115471D01*
X124727105Y-62067852D01*
X124822343Y-62020233D01*
X125060439Y-62020233D01*
X125155677Y-62067852D01*
X125203296Y-62115471D01*
X125250915Y-62210710D01*
X125250915Y-62448805D01*
X125203296Y-62544043D01*
X125155677Y-62591662D01*
X125060439Y-62639281D01*
X124822343Y-62639281D01*
X124727105Y-62591662D01*
X124679486Y-62544043D01*
X119852381Y-63066666D02*
X119376190Y-63400000D01*
X119852381Y-63638095D02*
X118852381Y-63638095D01*
X118852381Y-63257142D01*
X118900000Y-63161904D01*
X118947619Y-63114285D01*
X119042857Y-63066666D01*
X119185714Y-63066666D01*
X119280952Y-63114285D01*
X119328571Y-63161904D01*
X119376190Y-63257142D01*
X119376190Y-63638095D01*
X118852381Y-62209523D02*
X118852381Y-62400000D01*
X118900000Y-62495238D01*
X118947619Y-62542857D01*
X119090476Y-62638095D01*
X119280952Y-62685714D01*
X119661905Y-62685714D01*
X119757143Y-62638095D01*
X119804762Y-62590476D01*
X119852381Y-62495238D01*
X119852381Y-62304761D01*
X119804762Y-62209523D01*
X119757143Y-62161904D01*
X119661905Y-62114285D01*
X119423810Y-62114285D01*
X119328571Y-62161904D01*
X119280952Y-62209523D01*
X119233333Y-62304761D01*
X119233333Y-62495238D01*
X119280952Y-62590476D01*
X119328571Y-62638095D01*
X119423810Y-62685714D01*
X115366134Y-83154181D02*
X115032800Y-82677990D01*
X114794705Y-83154181D02*
X114794705Y-82154181D01*
X115175658Y-82154181D01*
X115270896Y-82201800D01*
X115318515Y-82249419D01*
X115366134Y-82344657D01*
X115366134Y-82487514D01*
X115318515Y-82582752D01*
X115270896Y-82630371D01*
X115175658Y-82677990D01*
X114794705Y-82677990D01*
X115699467Y-82154181D02*
X116366134Y-82154181D01*
X115937562Y-83154181D01*
X136811081Y-63831157D02*
X136334890Y-64164491D01*
X136811081Y-64402586D02*
X135811081Y-64402586D01*
X135811081Y-64021633D01*
X135858700Y-63926395D01*
X135906319Y-63878776D01*
X136001557Y-63831157D01*
X136144414Y-63831157D01*
X136239652Y-63878776D01*
X136287271Y-63926395D01*
X136334890Y-64021633D01*
X136334890Y-64402586D01*
X136811081Y-62878776D02*
X136811081Y-63450205D01*
X136811081Y-63164491D02*
X135811081Y-63164491D01*
X135953938Y-63259729D01*
X136049176Y-63354967D01*
X136096795Y-63450205D01*
X135811081Y-62259729D02*
X135811081Y-62164490D01*
X135858700Y-62069252D01*
X135906319Y-62021633D01*
X136001557Y-61974014D01*
X136192033Y-61926395D01*
X136430129Y-61926395D01*
X136620605Y-61974014D01*
X136715843Y-62021633D01*
X136763462Y-62069252D01*
X136811081Y-62164490D01*
X136811081Y-62259729D01*
X136763462Y-62354967D01*
X136715843Y-62402586D01*
X136620605Y-62450205D01*
X136430129Y-62497824D01*
X136192033Y-62497824D01*
X136001557Y-62450205D01*
X135906319Y-62402586D01*
X135858700Y-62354967D01*
X135811081Y-62259729D01*
X108926781Y-145920657D02*
X108450590Y-146253991D01*
X108926781Y-146492086D02*
X107926781Y-146492086D01*
X107926781Y-146111133D01*
X107974400Y-146015895D01*
X108022019Y-145968276D01*
X108117257Y-145920657D01*
X108260114Y-145920657D01*
X108355352Y-145968276D01*
X108402971Y-146015895D01*
X108450590Y-146111133D01*
X108450590Y-146492086D01*
X108926781Y-144968276D02*
X108926781Y-145539705D01*
X108926781Y-145253991D02*
X107926781Y-145253991D01*
X108069638Y-145349229D01*
X108164876Y-145444467D01*
X108212495Y-145539705D01*
X107926781Y-144063514D02*
X107926781Y-144539705D01*
X108402971Y-144587324D01*
X108355352Y-144539705D01*
X108307733Y-144444467D01*
X108307733Y-144206371D01*
X108355352Y-144111133D01*
X108402971Y-144063514D01*
X108498210Y-144015895D01*
X108736305Y-144015895D01*
X108831543Y-144063514D01*
X108879162Y-144111133D01*
X108926781Y-144206371D01*
X108926781Y-144444467D01*
X108879162Y-144539705D01*
X108831543Y-144587324D01*
X108552381Y-134942857D02*
X108076190Y-135276191D01*
X108552381Y-135514286D02*
X107552381Y-135514286D01*
X107552381Y-135133333D01*
X107600000Y-135038095D01*
X107647619Y-134990476D01*
X107742857Y-134942857D01*
X107885714Y-134942857D01*
X107980952Y-134990476D01*
X108028571Y-135038095D01*
X108076190Y-135133333D01*
X108076190Y-135514286D01*
X108552381Y-133990476D02*
X108552381Y-134561905D01*
X108552381Y-134276191D02*
X107552381Y-134276191D01*
X107695238Y-134371429D01*
X107790476Y-134466667D01*
X107838095Y-134561905D01*
X107552381Y-133133333D02*
X107552381Y-133323810D01*
X107600000Y-133419048D01*
X107647619Y-133466667D01*
X107790476Y-133561905D01*
X107980952Y-133609524D01*
X108361905Y-133609524D01*
X108457143Y-133561905D01*
X108504762Y-133514286D01*
X108552381Y-133419048D01*
X108552381Y-133228571D01*
X108504762Y-133133333D01*
X108457143Y-133085714D01*
X108361905Y-133038095D01*
X108123810Y-133038095D01*
X108028571Y-133085714D01*
X107980952Y-133133333D01*
X107933333Y-133228571D01*
X107933333Y-133419048D01*
X107980952Y-133514286D01*
X108028571Y-133561905D01*
X108123810Y-133609524D01*
X114757143Y-131152381D02*
X114423809Y-130676190D01*
X114185714Y-131152381D02*
X114185714Y-130152381D01*
X114566667Y-130152381D01*
X114661905Y-130200000D01*
X114709524Y-130247619D01*
X114757143Y-130342857D01*
X114757143Y-130485714D01*
X114709524Y-130580952D01*
X114661905Y-130628571D01*
X114566667Y-130676190D01*
X114185714Y-130676190D01*
X115709524Y-131152381D02*
X115138095Y-131152381D01*
X115423809Y-131152381D02*
X115423809Y-130152381D01*
X115328571Y-130295238D01*
X115233333Y-130390476D01*
X115138095Y-130438095D01*
X116042857Y-130152381D02*
X116709524Y-130152381D01*
X116280952Y-131152381D01*
X113057143Y-120852381D02*
X112723809Y-120376190D01*
X112485714Y-120852381D02*
X112485714Y-119852381D01*
X112866667Y-119852381D01*
X112961905Y-119900000D01*
X113009524Y-119947619D01*
X113057143Y-120042857D01*
X113057143Y-120185714D01*
X113009524Y-120280952D01*
X112961905Y-120328571D01*
X112866667Y-120376190D01*
X112485714Y-120376190D01*
X114009524Y-120852381D02*
X113438095Y-120852381D01*
X113723809Y-120852381D02*
X113723809Y-119852381D01*
X113628571Y-119995238D01*
X113533333Y-120090476D01*
X113438095Y-120138095D01*
X114580952Y-120280952D02*
X114485714Y-120233333D01*
X114438095Y-120185714D01*
X114390476Y-120090476D01*
X114390476Y-120042857D01*
X114438095Y-119947619D01*
X114485714Y-119900000D01*
X114580952Y-119852381D01*
X114771429Y-119852381D01*
X114866667Y-119900000D01*
X114914286Y-119947619D01*
X114961905Y-120042857D01*
X114961905Y-120090476D01*
X114914286Y-120185714D01*
X114866667Y-120233333D01*
X114771429Y-120280952D01*
X114580952Y-120280952D01*
X114485714Y-120328571D01*
X114438095Y-120376190D01*
X114390476Y-120471429D01*
X114390476Y-120661905D01*
X114438095Y-120757143D01*
X114485714Y-120804762D01*
X114580952Y-120852381D01*
X114771429Y-120852381D01*
X114866667Y-120804762D01*
X114914286Y-120757143D01*
X114961905Y-120661905D01*
X114961905Y-120471429D01*
X114914286Y-120376190D01*
X114866667Y-120328571D01*
X114771429Y-120280952D01*
X118952381Y-105442857D02*
X118476190Y-105776191D01*
X118952381Y-106014286D02*
X117952381Y-106014286D01*
X117952381Y-105633333D01*
X118000000Y-105538095D01*
X118047619Y-105490476D01*
X118142857Y-105442857D01*
X118285714Y-105442857D01*
X118380952Y-105490476D01*
X118428571Y-105538095D01*
X118476190Y-105633333D01*
X118476190Y-106014286D01*
X118952381Y-104490476D02*
X118952381Y-105061905D01*
X118952381Y-104776191D02*
X117952381Y-104776191D01*
X118095238Y-104871429D01*
X118190476Y-104966667D01*
X118238095Y-105061905D01*
X118952381Y-104014286D02*
X118952381Y-103823810D01*
X118904762Y-103728571D01*
X118857143Y-103680952D01*
X118714286Y-103585714D01*
X118523810Y-103538095D01*
X118142857Y-103538095D01*
X118047619Y-103585714D01*
X118000000Y-103633333D01*
X117952381Y-103728571D01*
X117952381Y-103919048D01*
X118000000Y-104014286D01*
X118047619Y-104061905D01*
X118142857Y-104109524D01*
X118380952Y-104109524D01*
X118476190Y-104061905D01*
X118523810Y-104014286D01*
X118571429Y-103919048D01*
X118571429Y-103728571D01*
X118523810Y-103633333D01*
X118476190Y-103585714D01*
X118380952Y-103538095D01*
X112063803Y-77804306D02*
X112111422Y-77851925D01*
X112159041Y-77994782D01*
X112159041Y-78090020D01*
X112111422Y-78232878D01*
X112016184Y-78328116D01*
X111920946Y-78375735D01*
X111730470Y-78423354D01*
X111587612Y-78423354D01*
X111397136Y-78375735D01*
X111301898Y-78328116D01*
X111206660Y-78232878D01*
X111159041Y-78090020D01*
X111159041Y-77994782D01*
X111206660Y-77851925D01*
X111254279Y-77804306D01*
X111254279Y-77423354D02*
X111206660Y-77375735D01*
X111159041Y-77280497D01*
X111159041Y-77042401D01*
X111206660Y-76947163D01*
X111254279Y-76899544D01*
X111349517Y-76851925D01*
X111444755Y-76851925D01*
X111587612Y-76899544D01*
X112159041Y-77470973D01*
X112159041Y-76851925D01*
X111277709Y-72567752D02*
X111277709Y-71805847D01*
X111658661Y-72186799D02*
X110896756Y-72186799D01*
X164357143Y-74757143D02*
X164309524Y-74804762D01*
X164166667Y-74852381D01*
X164071429Y-74852381D01*
X163928571Y-74804762D01*
X163833333Y-74709524D01*
X163785714Y-74614286D01*
X163738095Y-74423810D01*
X163738095Y-74280952D01*
X163785714Y-74090476D01*
X163833333Y-73995238D01*
X163928571Y-73900000D01*
X164071429Y-73852381D01*
X164166667Y-73852381D01*
X164309524Y-73900000D01*
X164357143Y-73947619D01*
X164928571Y-74280952D02*
X164833333Y-74233333D01*
X164785714Y-74185714D01*
X164738095Y-74090476D01*
X164738095Y-74042857D01*
X164785714Y-73947619D01*
X164833333Y-73900000D01*
X164928571Y-73852381D01*
X165119048Y-73852381D01*
X165214286Y-73900000D01*
X165261905Y-73947619D01*
X165309524Y-74042857D01*
X165309524Y-74090476D01*
X165261905Y-74185714D01*
X165214286Y-74233333D01*
X165119048Y-74280952D01*
X164928571Y-74280952D01*
X164833333Y-74328571D01*
X164785714Y-74376190D01*
X164738095Y-74471429D01*
X164738095Y-74661905D01*
X164785714Y-74757143D01*
X164833333Y-74804762D01*
X164928571Y-74852381D01*
X165119048Y-74852381D01*
X165214286Y-74804762D01*
X165261905Y-74757143D01*
X165309524Y-74661905D01*
X165309524Y-74471429D01*
X165261905Y-74376190D01*
X165214286Y-74328571D01*
X165119048Y-74280952D01*
X165690476Y-73947619D02*
X165738095Y-73900000D01*
X165833333Y-73852381D01*
X166071429Y-73852381D01*
X166166667Y-73900000D01*
X166214286Y-73947619D01*
X166261905Y-74042857D01*
X166261905Y-74138095D01*
X166214286Y-74280952D01*
X165642857Y-74852381D01*
X166261905Y-74852381D01*
X181961905Y-140282381D02*
X181961905Y-139282381D01*
X182533334Y-140282381D02*
X182104762Y-139710952D01*
X182533334Y-139282381D02*
X181961905Y-139853810D01*
X182866667Y-139282381D02*
X183533334Y-139282381D01*
X183104762Y-140282381D01*
X180533333Y-142822381D02*
X180533333Y-141822381D01*
X180771428Y-141822381D01*
X180914286Y-141870000D01*
X181009524Y-141965238D01*
X181057143Y-142060476D01*
X181104762Y-142250952D01*
X181104762Y-142393810D01*
X181057143Y-142584286D01*
X181009524Y-142679524D01*
X180914286Y-142774762D01*
X180771428Y-142822381D01*
X180533333Y-142822381D01*
X181438095Y-141822381D02*
X182057143Y-141822381D01*
X181723809Y-142203333D01*
X181866667Y-142203333D01*
X181961905Y-142250952D01*
X182009524Y-142298571D01*
X182057143Y-142393810D01*
X182057143Y-142631905D01*
X182009524Y-142727143D01*
X181961905Y-142774762D01*
X181866667Y-142822381D01*
X181580952Y-142822381D01*
X181485714Y-142774762D01*
X181438095Y-142727143D01*
X182676190Y-141822381D02*
X182771429Y-141822381D01*
X182866667Y-141870000D01*
X182914286Y-141917619D01*
X182961905Y-142012857D01*
X183009524Y-142203333D01*
X183009524Y-142441429D01*
X182961905Y-142631905D01*
X182914286Y-142727143D01*
X182866667Y-142774762D01*
X182771429Y-142822381D01*
X182676190Y-142822381D01*
X182580952Y-142774762D01*
X182533333Y-142727143D01*
X182485714Y-142631905D01*
X182438095Y-142441429D01*
X182438095Y-142203333D01*
X182485714Y-142012857D01*
X182533333Y-141917619D01*
X182580952Y-141870000D01*
X182676190Y-141822381D01*
X183628571Y-141822381D02*
X183723810Y-141822381D01*
X183819048Y-141870000D01*
X183866667Y-141917619D01*
X183914286Y-142012857D01*
X183961905Y-142203333D01*
X183961905Y-142441429D01*
X183914286Y-142631905D01*
X183866667Y-142727143D01*
X183819048Y-142774762D01*
X183723810Y-142822381D01*
X183628571Y-142822381D01*
X183533333Y-142774762D01*
X183485714Y-142727143D01*
X183438095Y-142631905D01*
X183390476Y-142441429D01*
X183390476Y-142203333D01*
X183438095Y-142012857D01*
X183485714Y-141917619D01*
X183533333Y-141870000D01*
X183628571Y-141822381D01*
X184342857Y-141917619D02*
X184390476Y-141870000D01*
X184485714Y-141822381D01*
X184723810Y-141822381D01*
X184819048Y-141870000D01*
X184866667Y-141917619D01*
X184914286Y-142012857D01*
X184914286Y-142108095D01*
X184866667Y-142250952D01*
X184295238Y-142822381D01*
X184914286Y-142822381D01*
X153503081Y-113661905D02*
X154312605Y-113661905D01*
X154407843Y-113614286D01*
X154455462Y-113566667D01*
X154503081Y-113471429D01*
X154503081Y-113280952D01*
X154455462Y-113185714D01*
X154407843Y-113138095D01*
X154312605Y-113090476D01*
X153503081Y-113090476D01*
X154503081Y-112090476D02*
X154503081Y-112661905D01*
X154503081Y-112376191D02*
X153503081Y-112376191D01*
X153645938Y-112471429D01*
X153741176Y-112566667D01*
X153788795Y-112661905D01*
X155401681Y-104261905D02*
X156211205Y-104261905D01*
X156306443Y-104214286D01*
X156354062Y-104166667D01*
X156401681Y-104071429D01*
X156401681Y-103880952D01*
X156354062Y-103785714D01*
X156306443Y-103738095D01*
X156211205Y-103690476D01*
X155401681Y-103690476D01*
X155496919Y-103261905D02*
X155449300Y-103214286D01*
X155401681Y-103119048D01*
X155401681Y-102880952D01*
X155449300Y-102785714D01*
X155496919Y-102738095D01*
X155592157Y-102690476D01*
X155687395Y-102690476D01*
X155830252Y-102738095D01*
X156401681Y-103309524D01*
X156401681Y-102690476D01*
X153503081Y-122961905D02*
X154312605Y-122961905D01*
X154407843Y-122914286D01*
X154455462Y-122866667D01*
X154503081Y-122771429D01*
X154503081Y-122580952D01*
X154455462Y-122485714D01*
X154407843Y-122438095D01*
X154312605Y-122390476D01*
X153503081Y-122390476D01*
X153503081Y-122009524D02*
X153503081Y-121390476D01*
X153884033Y-121723810D01*
X153884033Y-121580952D01*
X153931652Y-121485714D01*
X153979271Y-121438095D01*
X154074510Y-121390476D01*
X154312605Y-121390476D01*
X154407843Y-121438095D01*
X154455462Y-121485714D01*
X154503081Y-121580952D01*
X154503081Y-121866667D01*
X154455462Y-121961905D01*
X154407843Y-122009524D01*
X153503081Y-133261905D02*
X154312605Y-133261905D01*
X154407843Y-133214286D01*
X154455462Y-133166667D01*
X154503081Y-133071429D01*
X154503081Y-132880952D01*
X154455462Y-132785714D01*
X154407843Y-132738095D01*
X154312605Y-132690476D01*
X153503081Y-132690476D01*
X153836414Y-131785714D02*
X154503081Y-131785714D01*
X153455462Y-132023810D02*
X154169748Y-132261905D01*
X154169748Y-131642857D01*
X131547524Y-91943143D02*
X131499905Y-91990762D01*
X131357048Y-92038381D01*
X131261810Y-92038381D01*
X131118952Y-91990762D01*
X131023714Y-91895524D01*
X130976095Y-91800286D01*
X130928476Y-91609810D01*
X130928476Y-91466952D01*
X130976095Y-91276476D01*
X131023714Y-91181238D01*
X131118952Y-91086000D01*
X131261810Y-91038381D01*
X131357048Y-91038381D01*
X131499905Y-91086000D01*
X131547524Y-91133619D01*
X131976095Y-92038381D02*
X131976095Y-91038381D01*
X132547524Y-92038381D01*
X132547524Y-91038381D01*
X133547524Y-92038381D02*
X132976095Y-92038381D01*
X133261809Y-92038381D02*
X133261809Y-91038381D01*
X133166571Y-91181238D01*
X133071333Y-91276476D01*
X132976095Y-91324095D01*
X118266667Y-86252381D02*
X118933334Y-86252381D01*
X118504762Y-87252381D01*
X118985715Y-89752381D02*
X118414286Y-89752381D01*
X118700000Y-89752381D02*
X118700000Y-88752381D01*
X118604762Y-88895238D01*
X118509524Y-88990476D01*
X118414286Y-89038095D01*
M02*
