%FSLAX46Y46*%
G04 Gerber Fmt 4.6, Leading zero omitted, Abs format (unit mm)*
G04 Created by KiCad (PCBNEW (2014-10-27 BZR 5228)-product) date 10/01/2015 12:02:04*
%MOMM*%
G01*
G04 APERTURE LIST*
%ADD10C,0.100000*%
%ADD11C,1.998980*%
%ADD12R,2.032000X2.032000*%
%ADD13O,2.032000X2.032000*%
%ADD14R,1.727200X1.727200*%
%ADD15O,1.727200X1.727200*%
%ADD16R,2.235200X2.235200*%
%ADD17R,2.032000X1.727200*%
%ADD18O,2.032000X1.727200*%
%ADD19O,1.699260X3.500120*%
%ADD20R,0.600000X1.950000*%
%ADD21C,1.524000*%
%ADD22C,2.540000*%
%ADD23C,1.727200*%
%ADD24R,1.397000X1.397000*%
%ADD25C,1.397000*%
%ADD26R,1.250000X1.000000*%
%ADD27R,1.000000X1.250000*%
%ADD28R,2.499360X1.950720*%
%ADD29C,6.350000*%
G04 APERTURE END LIST*
D10*
D11*
X160375600Y-54917340D03*
X160375600Y-65077340D03*
X142392400Y-77228700D03*
X142392400Y-71640700D03*
X156197300Y-77292200D03*
X156197300Y-71704200D03*
X185992000Y-64196000D03*
X180404000Y-64196000D03*
X185938000Y-79765300D03*
X180350000Y-79765300D03*
X185896700Y-96755500D03*
X180308700Y-96755500D03*
X185784000Y-129363000D03*
X180196000Y-129363000D03*
X185830000Y-113152000D03*
X180242000Y-113152000D03*
X196292000Y-64196000D03*
X190704000Y-64196000D03*
X196138000Y-79465300D03*
X190550000Y-79465300D03*
X196196700Y-96755500D03*
X190608700Y-96755500D03*
X195984000Y-129263000D03*
X190396000Y-129263000D03*
X196030000Y-113252000D03*
X190442000Y-113252000D03*
D12*
X130644900Y-81788000D03*
D13*
X130644900Y-79248000D03*
D12*
X124307600Y-70446900D03*
D13*
X126847600Y-70446900D03*
D14*
X125564900Y-88950800D03*
D15*
X125564900Y-91490800D03*
X123024900Y-88950800D03*
X123024900Y-91490800D03*
X120484900Y-88950800D03*
X120484900Y-91490800D03*
X117944900Y-88950800D03*
X117944900Y-91490800D03*
X115404900Y-88950800D03*
X115404900Y-91490800D03*
X112864900Y-88950800D03*
X112864900Y-91490800D03*
D12*
X107391200Y-69227700D03*
D13*
X109931200Y-69227700D03*
D12*
X103035100Y-81546700D03*
D13*
X103035100Y-79006700D03*
D16*
X124777500Y-76161900D03*
D17*
X103136700Y-60198000D03*
D18*
X103136700Y-62738000D03*
X103136700Y-65278000D03*
X103136700Y-67818000D03*
D19*
X130200000Y-55900000D03*
X132740000Y-55900000D03*
X127660000Y-55900000D03*
D11*
X122138440Y-112547400D03*
X127139700Y-112547400D03*
X106172000Y-90002360D03*
X106172000Y-85001100D03*
D14*
X135902700Y-81140300D03*
D15*
X135902700Y-83680300D03*
X138442700Y-81140300D03*
X138442700Y-83680300D03*
D20*
X161163000Y-144704800D03*
X159893000Y-144704800D03*
X158623000Y-144704800D03*
X157353000Y-144704800D03*
X156083000Y-144704800D03*
X154813000Y-144704800D03*
X153543000Y-144704800D03*
X152273000Y-144704800D03*
X151003000Y-144704800D03*
X149733000Y-144704800D03*
X149733000Y-135304800D03*
X151003000Y-135304800D03*
X152273000Y-135304800D03*
X153543000Y-135304800D03*
X154813000Y-135304800D03*
X156083000Y-135304800D03*
X157353000Y-135304800D03*
X158623000Y-135304800D03*
X159893000Y-135304800D03*
X161163000Y-135304800D03*
D21*
X117170200Y-64668400D03*
X117170200Y-62128400D03*
X117170200Y-67208400D03*
D14*
X182968900Y-141566900D03*
D15*
X182968900Y-144106900D03*
X180428900Y-141566900D03*
X180428900Y-144106900D03*
X177888900Y-141566900D03*
X177888900Y-144106900D03*
X175348900Y-141566900D03*
X175348900Y-144106900D03*
X172808900Y-141566900D03*
X172808900Y-144106900D03*
D17*
X160909000Y-96723200D03*
D18*
X160909000Y-99263200D03*
X160909000Y-101803200D03*
X160909000Y-104343200D03*
X160909000Y-106883200D03*
X160909000Y-109423200D03*
X160909000Y-111963200D03*
X160909000Y-114503200D03*
D22*
X138582400Y-55976000D03*
D23*
X138582400Y-59976000D03*
D22*
X138582400Y-63976000D03*
D23*
X138582400Y-67976000D03*
D24*
X152603200Y-82207100D03*
D25*
X152603200Y-84747100D03*
X152603200Y-87287100D03*
X152603200Y-89827100D03*
X152603200Y-92367100D03*
X160223200Y-92367100D03*
X160223200Y-89827100D03*
X160223200Y-87287100D03*
X160223200Y-84747100D03*
X160223200Y-82207100D03*
D24*
X165646100Y-68389500D03*
D25*
X168186100Y-68389500D03*
X170726100Y-68389500D03*
X173266100Y-68389500D03*
X175806100Y-68389500D03*
X175806100Y-60769500D03*
X173266100Y-60769500D03*
X170726100Y-60769500D03*
X168186100Y-60769500D03*
X165646100Y-60769500D03*
D24*
X166725600Y-75272900D03*
D25*
X166725600Y-77812900D03*
X166725600Y-80352900D03*
X166725600Y-82892900D03*
X166725600Y-85432900D03*
X174345600Y-85432900D03*
X174345600Y-82892900D03*
X174345600Y-80352900D03*
X174345600Y-77812900D03*
X174345600Y-75272900D03*
D24*
X166674800Y-91427300D03*
D25*
X166674800Y-93967300D03*
X166674800Y-96507300D03*
X166674800Y-99047300D03*
X166674800Y-101587300D03*
X174294800Y-101587300D03*
X174294800Y-99047300D03*
X174294800Y-96507300D03*
X174294800Y-93967300D03*
X174294800Y-91427300D03*
D24*
X166878000Y-108178600D03*
D25*
X166878000Y-110718600D03*
X166878000Y-113258600D03*
X166878000Y-115798600D03*
X166878000Y-118338600D03*
X174498000Y-118338600D03*
X174498000Y-115798600D03*
X174498000Y-113258600D03*
X174498000Y-110718600D03*
X174498000Y-108178600D03*
D24*
X167055800Y-124447300D03*
D25*
X167055800Y-126987300D03*
X167055800Y-129527300D03*
X167055800Y-132067300D03*
X167055800Y-134607300D03*
X174675800Y-134607300D03*
X174675800Y-132067300D03*
X174675800Y-129527300D03*
X174675800Y-126987300D03*
X174675800Y-124447300D03*
D26*
X120700800Y-54130700D03*
X120700800Y-56130700D03*
D27*
X119853200Y-67132200D03*
X121853200Y-67132200D03*
D26*
X146989800Y-63979300D03*
X146989800Y-61979300D03*
X151561800Y-63979300D03*
X151561800Y-61979300D03*
X149313900Y-63979300D03*
X149313900Y-61979300D03*
X153809700Y-64055500D03*
X153809700Y-62055500D03*
D27*
X138655300Y-72313800D03*
X136655300Y-72313800D03*
X138731500Y-76428600D03*
X136731500Y-76428600D03*
X153222200Y-74561700D03*
X151222200Y-74561700D03*
D26*
X185013600Y-61236100D03*
X185013600Y-59236100D03*
X188429900Y-84725000D03*
X188429900Y-86725000D03*
X188087000Y-101095300D03*
X188087000Y-103095300D03*
X189992000Y-117351300D03*
X189992000Y-119351300D03*
X186385200Y-117452900D03*
X186385200Y-119452900D03*
X185686700Y-132146800D03*
X185686700Y-134146800D03*
D27*
X184222900Y-66484500D03*
X182222900Y-66484500D03*
X184235600Y-82308700D03*
X182235600Y-82308700D03*
X184108600Y-99606100D03*
X182108600Y-99606100D03*
X182057800Y-127127000D03*
X184057800Y-127127000D03*
X184070500Y-115595400D03*
X182070500Y-115595400D03*
D26*
X181190900Y-132108700D03*
X181190900Y-134108700D03*
X181584600Y-61159900D03*
X181584600Y-59159900D03*
X194970400Y-76831700D03*
X194970400Y-74831700D03*
X195719700Y-93125800D03*
X195719700Y-91125800D03*
X195668900Y-126145800D03*
X195668900Y-124145800D03*
X197256400Y-115954300D03*
X197256400Y-117954300D03*
D27*
X194586100Y-66141600D03*
X192586100Y-66141600D03*
X194484500Y-81965800D03*
X192484500Y-81965800D03*
X194548000Y-99415600D03*
X192548000Y-99415600D03*
X192306700Y-131660900D03*
X194306700Y-131660900D03*
X194433700Y-116052600D03*
X192433700Y-116052600D03*
D26*
X191058800Y-126183900D03*
X191058800Y-124183900D03*
X193052700Y-61159900D03*
X193052700Y-59159900D03*
X188264800Y-76869800D03*
X188264800Y-74869800D03*
X191109600Y-92973400D03*
X191109600Y-90973400D03*
X191223900Y-109623100D03*
X191223900Y-107623100D03*
X195414900Y-109546900D03*
X195414900Y-107546900D03*
X185331100Y-84623400D03*
X185331100Y-86623400D03*
X191389000Y-84661500D03*
X191389000Y-86661500D03*
D28*
X143675100Y-65290700D03*
X143675100Y-62191900D03*
D29*
X196024500Y-54089300D03*
X195453000Y-145542000D03*
X104000300Y-54000400D03*
X104051100Y-146037300D03*
X146240500Y-54051200D03*
X103977440Y-96128840D03*
X146062700Y-84632800D03*
M02*
