%FSLAX46Y46*%
G04 Gerber Fmt 4.6, Leading zero omitted, Abs format (unit mm)*
G04 Created by KiCad (PCBNEW (2014-10-27 BZR 5228)-product) date 10/01/2015 12:02:04*
%MOMM*%
G01*
G04 APERTURE LIST*
%ADD10C,0.100000*%
%ADD11C,0.150000*%
G04 APERTURE END LIST*
D10*
D11*
X107901740Y-98270060D02*
X108252260Y-98270060D01*
X111401860Y-98270060D02*
X111051340Y-98270060D01*
X107901740Y-98719640D02*
X108252260Y-98719640D01*
X107901740Y-94218760D02*
X108252260Y-94218760D01*
X111401860Y-94218760D02*
X111051340Y-94218760D01*
X111401860Y-98719640D02*
X111051340Y-98719640D01*
X107901740Y-94218760D02*
X107901740Y-98719640D01*
X111401860Y-94218760D02*
X111401860Y-98719640D01*
X143728440Y-129440940D02*
X143728440Y-129791460D01*
X143728440Y-132941060D02*
X143728440Y-132590540D01*
X143278860Y-129440940D02*
X143278860Y-129791460D01*
X147779740Y-129440940D02*
X147779740Y-129791460D01*
X147779740Y-132941060D02*
X147779740Y-132590540D01*
X143278860Y-132941060D02*
X143278860Y-132590540D01*
X147779740Y-129440940D02*
X143278860Y-129440940D01*
X147779740Y-132941060D02*
X143278860Y-132941060D01*
X117502940Y-130088640D02*
X117502940Y-130439160D01*
X117502940Y-133588760D02*
X117502940Y-133238240D01*
X117053360Y-130088640D02*
X117053360Y-130439160D01*
X121554240Y-130088640D02*
X121554240Y-130439160D01*
X121554240Y-133588760D02*
X121554240Y-133238240D01*
X117053360Y-133588760D02*
X117053360Y-133238240D01*
X121554240Y-130088640D02*
X117053360Y-130088640D01*
X121554240Y-133588760D02*
X117053360Y-133588760D01*
X107515660Y-134546340D02*
X107165140Y-134546340D01*
X104015540Y-134546340D02*
X104366060Y-134546340D01*
X107515660Y-134096760D02*
X107165140Y-134096760D01*
X107515660Y-138597640D02*
X107165140Y-138597640D01*
X104015540Y-138597640D02*
X104366060Y-138597640D01*
X104015540Y-134096760D02*
X104366060Y-134096760D01*
X107515660Y-138597640D02*
X107515660Y-134096760D01*
X104015540Y-138597640D02*
X104015540Y-134096760D01*
X126672340Y-118150640D02*
X126672340Y-118501160D01*
X126672340Y-121650760D02*
X126672340Y-121300240D01*
X126222760Y-118150640D02*
X126222760Y-118501160D01*
X130723640Y-118150640D02*
X130723640Y-118501160D01*
X130723640Y-121650760D02*
X130723640Y-121300240D01*
X126222760Y-121650760D02*
X126222760Y-121300240D01*
X130723640Y-118150640D02*
X126222760Y-118150640D01*
X130723640Y-121650760D02*
X126222760Y-121650760D01*
X140992860Y-121371360D02*
X140992860Y-121020840D01*
X140992860Y-117871240D02*
X140992860Y-118221760D01*
X141442440Y-121371360D02*
X141442440Y-121020840D01*
X136941560Y-121371360D02*
X136941560Y-121020840D01*
X136941560Y-117871240D02*
X136941560Y-118221760D01*
X141442440Y-117871240D02*
X141442440Y-118221760D01*
X136941560Y-121371360D02*
X141442440Y-121371360D01*
X136941560Y-117871240D02*
X141442440Y-117871240D01*
X122400060Y-98790760D02*
X122400060Y-98440240D01*
X122400060Y-95290640D02*
X122400060Y-95641160D01*
X122849640Y-98790760D02*
X122849640Y-98440240D01*
X118348760Y-98790760D02*
X118348760Y-98440240D01*
X118348760Y-95290640D02*
X118348760Y-95641160D01*
X122849640Y-95290640D02*
X122849640Y-95641160D01*
X118348760Y-98790760D02*
X122849640Y-98790760D01*
X118348760Y-95290640D02*
X122849640Y-95290640D01*
X159941260Y-132979160D02*
X159941260Y-132628640D01*
X159941260Y-129479040D02*
X159941260Y-129829560D01*
X160390840Y-132979160D02*
X160390840Y-132628640D01*
X155889960Y-132979160D02*
X155889960Y-132628640D01*
X155889960Y-129479040D02*
X155889960Y-129829560D01*
X160390840Y-129479040D02*
X160390840Y-129829560D01*
X155889960Y-132979160D02*
X160390840Y-132979160D01*
X155889960Y-129479040D02*
X160390840Y-129479040D01*
X136839960Y-132712460D02*
X136839960Y-132361940D01*
X136839960Y-129212340D02*
X136839960Y-129562860D01*
X137289540Y-132712460D02*
X137289540Y-132361940D01*
X132788660Y-132712460D02*
X132788660Y-132361940D01*
X132788660Y-129212340D02*
X132788660Y-129562860D01*
X137289540Y-129212340D02*
X137289540Y-129562860D01*
X132788660Y-132712460D02*
X137289540Y-132712460D01*
X132788660Y-129212340D02*
X137289540Y-129212340D01*
X120774460Y-118653560D02*
X120774460Y-118303040D01*
X120774460Y-115153440D02*
X120774460Y-115503960D01*
X121224040Y-118653560D02*
X121224040Y-118303040D01*
X116723160Y-118653560D02*
X116723160Y-118303040D01*
X116723160Y-115153440D02*
X116723160Y-115503960D01*
X121224040Y-115153440D02*
X121224040Y-115503960D01*
X116723160Y-118653560D02*
X121224040Y-118653560D01*
X116723160Y-115153440D02*
X121224040Y-115153440D01*
X160375600Y-57203340D02*
X160375600Y-56441340D01*
X160375600Y-62664340D02*
X160375600Y-63553340D01*
X159105600Y-57203340D02*
X161772600Y-57203340D01*
X161772600Y-57203340D02*
X161772600Y-62664340D01*
X161772600Y-62664340D02*
X159105600Y-62664340D01*
X159105600Y-62664340D02*
X159105600Y-57203340D01*
X135788400Y-71132700D02*
X140995400Y-71132700D01*
X148869400Y-71132700D02*
X143916400Y-71132700D01*
X135788400Y-77736700D02*
X140868400Y-77736700D01*
X148869400Y-77736700D02*
X143789400Y-77736700D01*
X148869400Y-77736700D02*
X148869400Y-71132700D01*
X135788400Y-71132700D02*
X135788400Y-77736700D01*
X149593300Y-71196200D02*
X154800300Y-71196200D01*
X162674300Y-71196200D02*
X157721300Y-71196200D01*
X149593300Y-77800200D02*
X154673300Y-77800200D01*
X162674300Y-77800200D02*
X157594300Y-77800200D01*
X162674300Y-77800200D02*
X162674300Y-71196200D01*
X149593300Y-71196200D02*
X149593300Y-77800200D01*
X179896000Y-70800000D02*
X179896000Y-65593000D01*
X179896000Y-57719000D02*
X179896000Y-62672000D01*
X186500000Y-70800000D02*
X186500000Y-65720000D01*
X186500000Y-57719000D02*
X186500000Y-62799000D01*
X186500000Y-57719000D02*
X179896000Y-57719000D01*
X179896000Y-70800000D02*
X186500000Y-70800000D01*
X179842000Y-86369300D02*
X179842000Y-81162300D01*
X179842000Y-73288300D02*
X179842000Y-78241300D01*
X186446000Y-86369300D02*
X186446000Y-81289300D01*
X186446000Y-73288300D02*
X186446000Y-78368300D01*
X186446000Y-73288300D02*
X179842000Y-73288300D01*
X179842000Y-86369300D02*
X186446000Y-86369300D01*
X179800700Y-103359500D02*
X179800700Y-98152500D01*
X179800700Y-90278500D02*
X179800700Y-95231500D01*
X186404700Y-103359500D02*
X186404700Y-98279500D01*
X186404700Y-90278500D02*
X186404700Y-95358500D01*
X186404700Y-90278500D02*
X179800700Y-90278500D01*
X179800700Y-103359500D02*
X186404700Y-103359500D01*
X179688000Y-135967000D02*
X179688000Y-130760000D01*
X179688000Y-122886000D02*
X179688000Y-127839000D01*
X186292000Y-135967000D02*
X186292000Y-130887000D01*
X186292000Y-122886000D02*
X186292000Y-127966000D01*
X186292000Y-122886000D02*
X179688000Y-122886000D01*
X179688000Y-135967000D02*
X186292000Y-135967000D01*
X179734000Y-119756000D02*
X179734000Y-114549000D01*
X179734000Y-106675000D02*
X179734000Y-111628000D01*
X186338000Y-119756000D02*
X186338000Y-114676000D01*
X186338000Y-106675000D02*
X186338000Y-111755000D01*
X186338000Y-106675000D02*
X179734000Y-106675000D01*
X179734000Y-119756000D02*
X186338000Y-119756000D01*
X190196000Y-70800000D02*
X190196000Y-65593000D01*
X190196000Y-57719000D02*
X190196000Y-62672000D01*
X196800000Y-70800000D02*
X196800000Y-65720000D01*
X196800000Y-57719000D02*
X196800000Y-62799000D01*
X196800000Y-57719000D02*
X190196000Y-57719000D01*
X190196000Y-70800000D02*
X196800000Y-70800000D01*
X190042000Y-86069300D02*
X190042000Y-80862300D01*
X190042000Y-72988300D02*
X190042000Y-77941300D01*
X196646000Y-86069300D02*
X196646000Y-80989300D01*
X196646000Y-72988300D02*
X196646000Y-78068300D01*
X196646000Y-72988300D02*
X190042000Y-72988300D01*
X190042000Y-86069300D02*
X196646000Y-86069300D01*
X190100700Y-103359500D02*
X190100700Y-98152500D01*
X190100700Y-90278500D02*
X190100700Y-95231500D01*
X196704700Y-103359500D02*
X196704700Y-98279500D01*
X196704700Y-90278500D02*
X196704700Y-95358500D01*
X196704700Y-90278500D02*
X190100700Y-90278500D01*
X190100700Y-103359500D02*
X196704700Y-103359500D01*
X189888000Y-135867000D02*
X189888000Y-130660000D01*
X189888000Y-122786000D02*
X189888000Y-127739000D01*
X196492000Y-135867000D02*
X196492000Y-130787000D01*
X196492000Y-122786000D02*
X196492000Y-127866000D01*
X196492000Y-122786000D02*
X189888000Y-122786000D01*
X189888000Y-135867000D02*
X196492000Y-135867000D01*
X189934000Y-119856000D02*
X189934000Y-114649000D01*
X189934000Y-106775000D02*
X189934000Y-111728000D01*
X196538000Y-119856000D02*
X196538000Y-114776000D01*
X196538000Y-106775000D02*
X196538000Y-111855000D01*
X196538000Y-106775000D02*
X189934000Y-106775000D01*
X189934000Y-119856000D02*
X196538000Y-119856000D01*
X129374900Y-80518000D02*
X131914900Y-80518000D01*
X129374900Y-83058000D02*
X131914900Y-83058000D01*
X131914900Y-83058000D02*
X131914900Y-80518000D01*
X131914900Y-80518000D02*
X131914900Y-77978000D01*
X131914900Y-77978000D02*
X129374900Y-77978000D01*
X129374900Y-77978000D02*
X129374900Y-83058000D01*
X125577600Y-69176900D02*
X125577600Y-71716900D01*
X123037600Y-69176900D02*
X123037600Y-71716900D01*
X123037600Y-71716900D02*
X125577600Y-71716900D01*
X125577600Y-71716900D02*
X128117600Y-71716900D01*
X128117600Y-71716900D02*
X128117600Y-69176900D01*
X128117600Y-69176900D02*
X123037600Y-69176900D01*
X111594900Y-92760800D02*
X126834900Y-92760800D01*
X124294900Y-87680800D02*
X111594900Y-87680800D01*
X111594900Y-92760800D02*
X111594900Y-87680800D01*
X126834900Y-92760800D02*
X126834900Y-90220800D01*
X126834900Y-87680800D02*
X124294900Y-87680800D01*
X126834900Y-90220800D02*
X124294900Y-90220800D01*
X124294900Y-90220800D02*
X124294900Y-87680800D01*
X126834900Y-87680800D02*
X126834900Y-90220800D01*
X108661200Y-67957700D02*
X108661200Y-70497700D01*
X106121200Y-67957700D02*
X106121200Y-70497700D01*
X106121200Y-70497700D02*
X108661200Y-70497700D01*
X108661200Y-70497700D02*
X111201200Y-70497700D01*
X111201200Y-70497700D02*
X111201200Y-67957700D01*
X111201200Y-67957700D02*
X106121200Y-67957700D01*
X101765100Y-80276700D02*
X104305100Y-80276700D01*
X101765100Y-82816700D02*
X104305100Y-82816700D01*
X104305100Y-82816700D02*
X104305100Y-80276700D01*
X104305100Y-80276700D02*
X104305100Y-77736700D01*
X104305100Y-77736700D02*
X101765100Y-77736700D01*
X101765100Y-77736700D02*
X101765100Y-82816700D01*
X123507500Y-74891900D02*
X123507500Y-77431900D01*
X123507500Y-77431900D02*
X126047500Y-77431900D01*
X126047500Y-77431900D02*
X126047500Y-74891900D01*
X126047500Y-74891900D02*
X123507500Y-74891900D01*
X101866700Y-61468000D02*
X101866700Y-69088000D01*
X104406700Y-61468000D02*
X104406700Y-69088000D01*
X104406700Y-58928000D02*
X104406700Y-61468000D01*
X101866700Y-69088000D02*
X104406700Y-69088000D01*
X104406700Y-61468000D02*
X101866700Y-61468000D01*
X104406700Y-58928000D02*
X101866700Y-58928000D01*
X101866700Y-58928000D02*
X101866700Y-61468000D01*
X128814700Y-71167600D02*
X128814700Y-70267600D01*
X128814700Y-70267600D02*
X129614700Y-70267600D01*
X131814700Y-71167600D02*
X131814700Y-70267600D01*
X131814700Y-70267600D02*
X131014700Y-70267600D01*
X130614700Y-71667600D02*
X130014700Y-71667600D01*
X124866000Y-57805000D02*
X126771000Y-57805000D01*
X129311000Y-57805000D02*
X128549000Y-57805000D01*
X131724000Y-57805000D02*
X131851000Y-57805000D01*
X131724000Y-57805000D02*
X131089000Y-57805000D01*
X135534000Y-57805000D02*
X133756000Y-57805000D01*
X135534000Y-54122000D02*
X133883000Y-54122000D01*
X131216000Y-53995000D02*
X131851000Y-53995000D01*
X128676000Y-53995000D02*
X129311000Y-53995000D01*
X124866000Y-54122000D02*
X126517000Y-54122000D01*
X131724000Y-58948000D02*
X131724000Y-57805000D01*
X128676000Y-58948000D02*
X128676000Y-57805000D01*
X124866000Y-57805000D02*
X124866000Y-54122000D01*
X135534000Y-54122000D02*
X135534000Y-57805000D01*
X124866000Y-58948000D02*
X124866000Y-57805000D01*
X135534000Y-57805000D02*
X135534000Y-58948000D01*
X130200000Y-58948000D02*
X135534000Y-58948000D01*
X130200000Y-58948000D02*
X124866000Y-58948000D01*
X124538740Y-112547400D02*
X125539500Y-112547400D01*
X124637800Y-112547400D02*
G75*
G03X124637800Y-112547400I-2499360J0D01*
G01*
X106172000Y-87602060D02*
X106172000Y-86601300D01*
X108671360Y-90002360D02*
G75*
G03X108671360Y-90002360I-2499360J0D01*
G01*
X134632700Y-82410300D02*
X134632700Y-79870300D01*
X134632700Y-79870300D02*
X137172700Y-79870300D01*
X137172700Y-79870300D02*
X137172700Y-82410300D01*
X137172700Y-82410300D02*
X134632700Y-82410300D01*
X134632700Y-82410300D02*
X134632700Y-84950300D01*
X134632700Y-84950300D02*
X139712700Y-84950300D01*
X139712700Y-84950300D02*
X139712700Y-79870300D01*
X139712700Y-79870300D02*
X137172700Y-79870300D01*
X134505700Y-95783400D02*
X129679700Y-95783400D01*
X129679700Y-95783400D02*
X129679700Y-92227400D01*
X129679700Y-92227400D02*
X134505700Y-92227400D01*
X134505700Y-92227400D02*
X134505700Y-95783400D01*
X134251700Y-92862400D02*
G75*
G03X134251700Y-92862400I-381000J0D01*
G01*
X142875000Y-95732600D02*
X138049000Y-95732600D01*
X138049000Y-95732600D02*
X138049000Y-92176600D01*
X138049000Y-92176600D02*
X142875000Y-92176600D01*
X142875000Y-92176600D02*
X142875000Y-95732600D01*
X142621000Y-92811600D02*
G75*
G03X142621000Y-92811600I-381000J0D01*
G01*
X148321800Y-113440000D02*
X148321800Y-113775000D01*
X156071800Y-113440000D02*
X156071800Y-113775000D01*
X156071800Y-126590000D02*
X156071800Y-126255000D01*
X148321800Y-126590000D02*
X148321800Y-126255000D01*
X148321800Y-113440000D02*
X156071800Y-113440000D01*
X148321800Y-126590000D02*
X156071800Y-126590000D01*
X148321800Y-113775000D02*
X146521800Y-113775000D01*
X147788400Y-95355200D02*
X147788400Y-95690200D01*
X155538400Y-95355200D02*
X155538400Y-95690200D01*
X155538400Y-108505200D02*
X155538400Y-108170200D01*
X147788400Y-108505200D02*
X147788400Y-108170200D01*
X147788400Y-95355200D02*
X155538400Y-95355200D01*
X147788400Y-108505200D02*
X155538400Y-108505200D01*
X147788400Y-95690200D02*
X145988400Y-95690200D01*
X132586500Y-102225900D02*
X132586500Y-102560900D01*
X140336500Y-102225900D02*
X140336500Y-102560900D01*
X140336500Y-115375900D02*
X140336500Y-115040900D01*
X132586500Y-115375900D02*
X132586500Y-115040900D01*
X132586500Y-102225900D02*
X140336500Y-102225900D01*
X132586500Y-115375900D02*
X140336500Y-115375900D01*
X132586500Y-102560900D02*
X130786500Y-102560900D01*
X115138200Y-68224400D02*
X116408200Y-68224400D01*
X115887500Y-67437000D02*
X115633500Y-67475100D01*
X115633500Y-67475100D02*
X115354100Y-67652900D01*
X115354100Y-67652900D02*
X115138200Y-67970400D01*
X115138200Y-67970400D02*
X115125500Y-68414900D01*
X115125500Y-68414900D02*
X115328700Y-68770500D01*
X115328700Y-68770500D02*
X115620800Y-68948300D01*
X115620800Y-68948300D02*
X115938300Y-68999100D01*
X115938300Y-68999100D02*
X116344700Y-68897500D01*
X116344700Y-68897500D02*
X116598700Y-68554600D01*
X116598700Y-68554600D02*
X116687600Y-68376800D01*
X118948200Y-59842400D02*
X118948200Y-69494400D01*
X115900200Y-69494400D02*
X114630200Y-69494400D01*
X114630200Y-69494400D02*
X114630200Y-59842400D01*
X114630200Y-59842400D02*
X119710200Y-59842400D01*
X119710200Y-69494400D02*
X117170200Y-69494400D01*
X117170200Y-69494400D02*
X115900200Y-69494400D01*
X184238900Y-145376900D02*
X171538900Y-145376900D01*
X171538900Y-145376900D02*
X171538900Y-140296900D01*
X171538900Y-140296900D02*
X181698900Y-140296900D01*
X184238900Y-145376900D02*
X184238900Y-142836900D01*
X184238900Y-140296900D02*
X181698900Y-140296900D01*
X184238900Y-142836900D02*
X181698900Y-142836900D01*
X181698900Y-142836900D02*
X181698900Y-140296900D01*
X184238900Y-140296900D02*
X184238900Y-142836900D01*
X162179000Y-97993200D02*
X162179000Y-115773200D01*
X162179000Y-115773200D02*
X159639000Y-115773200D01*
X159639000Y-115773200D02*
X159639000Y-97993200D01*
X162179000Y-95453200D02*
X162179000Y-97993200D01*
X162179000Y-97993200D02*
X159639000Y-97993200D01*
X162179000Y-95453200D02*
X159639000Y-95453200D01*
X159639000Y-95453200D02*
X159639000Y-97993200D01*
X115260300Y-73421800D02*
X115260300Y-73566800D01*
X119410300Y-73421800D02*
X119410300Y-73566800D01*
X119410300Y-78571800D02*
X119410300Y-78426800D01*
X115260300Y-78571800D02*
X115260300Y-78426800D01*
X115260300Y-73421800D02*
X119410300Y-73421800D01*
X115260300Y-78571800D02*
X119410300Y-78571800D01*
X115260300Y-73566800D02*
X113860300Y-73566800D01*
X141382400Y-55976000D02*
X157382400Y-55976000D01*
X157382400Y-55976000D02*
X157382400Y-67976000D01*
X157382400Y-67976000D02*
X141382400Y-67976000D01*
X141382400Y-67976000D02*
X141382400Y-55976000D01*
X160913200Y-80287100D02*
X160913200Y-94287100D01*
X160913200Y-94287100D02*
X151913200Y-94287100D01*
X151913200Y-94287100D02*
X151913200Y-80287100D01*
X151913200Y-80287100D02*
X160913200Y-80287100D01*
X163726100Y-60079500D02*
X177726100Y-60079500D01*
X177726100Y-60079500D02*
X177726100Y-69079500D01*
X177726100Y-69079500D02*
X163726100Y-69079500D01*
X163726100Y-69079500D02*
X163726100Y-60079500D01*
X175035600Y-73352900D02*
X175035600Y-87352900D01*
X175035600Y-87352900D02*
X166035600Y-87352900D01*
X166035600Y-87352900D02*
X166035600Y-73352900D01*
X166035600Y-73352900D02*
X175035600Y-73352900D01*
X174984800Y-89507300D02*
X174984800Y-103507300D01*
X174984800Y-103507300D02*
X165984800Y-103507300D01*
X165984800Y-103507300D02*
X165984800Y-89507300D01*
X165984800Y-89507300D02*
X174984800Y-89507300D01*
X175188000Y-106258600D02*
X175188000Y-120258600D01*
X175188000Y-120258600D02*
X166188000Y-120258600D01*
X166188000Y-120258600D02*
X166188000Y-106258600D01*
X166188000Y-106258600D02*
X175188000Y-106258600D01*
X175365800Y-122527300D02*
X175365800Y-136527300D01*
X175365800Y-136527300D02*
X166365800Y-136527300D01*
X166365800Y-136527300D02*
X166365800Y-122527300D01*
X166365800Y-122527300D02*
X175365800Y-122527300D01*
X122046100Y-69727700D02*
X122046100Y-68727700D01*
X120346100Y-68727700D02*
X120346100Y-69727700D01*
X116171600Y-82919200D02*
X115171600Y-82919200D01*
X115171600Y-84619200D02*
X116171600Y-84619200D01*
X124404500Y-67525000D02*
X125404500Y-67525000D01*
X125404500Y-65825000D02*
X124404500Y-65825000D01*
X122204100Y-82919200D02*
X121204100Y-82919200D01*
X121204100Y-84619200D02*
X122204100Y-84619200D01*
X119417200Y-109643800D02*
X119417200Y-108643800D01*
X117717200Y-108643800D02*
X117717200Y-109643800D01*
X156437700Y-141978000D02*
X156437700Y-140978000D01*
X154737700Y-140978000D02*
X154737700Y-141978000D01*
X130732900Y-143121000D02*
X130732900Y-142121000D01*
X129032900Y-142121000D02*
X129032900Y-143121000D01*
X114578500Y-128706500D02*
X114578500Y-127706500D01*
X112878500Y-127706500D02*
X112878500Y-128706500D01*
X132320400Y-127614300D02*
X132320400Y-126614300D01*
X130620400Y-126614300D02*
X130620400Y-127614300D01*
X109808900Y-104725100D02*
X108808900Y-104725100D01*
X108808900Y-106425100D02*
X109808900Y-106425100D01*
X147439000Y-137199000D02*
X146439000Y-137199000D01*
X146439000Y-138899000D02*
X147439000Y-138899000D01*
X121581800Y-137808600D02*
X120581800Y-137808600D01*
X120581800Y-139508600D02*
X121581800Y-139508600D01*
X108170600Y-123470300D02*
X107170600Y-123470300D01*
X107170600Y-125170300D02*
X108170600Y-125170300D01*
X133020700Y-118841900D02*
X133020700Y-119841900D01*
X134720700Y-119841900D02*
X134720700Y-118841900D01*
X111488600Y-102754800D02*
X112488600Y-102754800D01*
X112488600Y-101054800D02*
X111488600Y-101054800D01*
X149677500Y-135431900D02*
X150677500Y-135431900D01*
X150677500Y-133731900D02*
X149677500Y-133731900D01*
X124048900Y-135978000D02*
X125048900Y-135978000D01*
X125048900Y-134278000D02*
X124048900Y-134278000D01*
X108351700Y-121931800D02*
X109351700Y-121931800D01*
X109351700Y-120231800D02*
X108351700Y-120231800D01*
X138361800Y-123887600D02*
X139361800Y-123887600D01*
X139361800Y-122187600D02*
X138361800Y-122187600D01*
X129081900Y-127423800D02*
X129081900Y-126423800D01*
X127381900Y-126423800D02*
X127381900Y-127423800D01*
X114388000Y-109466000D02*
X114388000Y-108466000D01*
X112688000Y-108466000D02*
X112688000Y-109466000D01*
X152437200Y-141901800D02*
X152437200Y-140901800D01*
X150737200Y-140901800D02*
X150737200Y-141901800D01*
X126478400Y-143019400D02*
X126478400Y-142019400D01*
X124778400Y-142019400D02*
X124778400Y-143019400D01*
X111911500Y-128706500D02*
X111911500Y-127706500D01*
X110211500Y-127706500D02*
X110211500Y-128706500D01*
X143369400Y-124604400D02*
X143369400Y-123604400D01*
X141669400Y-123604400D02*
X141669400Y-124604400D01*
X122728100Y-102640500D02*
X123728100Y-102640500D01*
X123728100Y-100940500D02*
X122728100Y-100940500D01*
X160155000Y-135470000D02*
X161155000Y-135470000D01*
X161155000Y-133770000D02*
X160155000Y-133770000D01*
X136050400Y-135978000D02*
X137050400Y-135978000D01*
X137050400Y-134278000D02*
X136050400Y-134278000D01*
X120315100Y-121995300D02*
X121315100Y-121995300D01*
X121315100Y-120295300D02*
X120315100Y-120295300D01*
X109536600Y-109453300D02*
X109536600Y-108453300D01*
X107836600Y-108453300D02*
X107836600Y-109453300D01*
X148055700Y-141939900D02*
X148055700Y-140939900D01*
X146355700Y-140939900D02*
X146355700Y-141939900D01*
X121969900Y-143044800D02*
X121969900Y-142044800D01*
X120269900Y-142044800D02*
X120269900Y-143044800D01*
X108901600Y-128668400D02*
X108901600Y-127668400D01*
X107201600Y-127668400D02*
X107201600Y-128668400D01*
X121931800Y-106164000D02*
X121931800Y-105164000D01*
X120231800Y-105164000D02*
X120231800Y-106164000D01*
X159561900Y-139082400D02*
X159561900Y-138082400D01*
X157861900Y-138082400D02*
X157861900Y-139082400D01*
X134669900Y-139793600D02*
X134669900Y-138793600D01*
X132969900Y-138793600D02*
X132969900Y-139793600D01*
X125818000Y-130725800D02*
X125818000Y-129725800D01*
X124118000Y-129725800D02*
X124118000Y-130725800D01*
X114292000Y-95797000D02*
X113292000Y-95797000D01*
X113292000Y-97497000D02*
X114292000Y-97497000D01*
X109482000Y-118045600D02*
X110482000Y-118045600D01*
X110482000Y-116345600D02*
X109482000Y-116345600D01*
X120315100Y-125297300D02*
X121315100Y-125297300D01*
X121315100Y-123597300D02*
X120315100Y-123597300D01*
X128600200Y-107281980D02*
X128600200Y-106230420D01*
X127000000Y-106179620D02*
X127000000Y-107231180D01*
X104241600Y-105824020D02*
X104241600Y-106875580D01*
X105841800Y-106926380D02*
X105841800Y-105874820D01*
X141871700Y-139212320D02*
X141871700Y-140263880D01*
X143471900Y-140314680D02*
X143471900Y-139263120D01*
X115519200Y-140241020D02*
X115519200Y-141292580D01*
X117119400Y-141343380D02*
X117119400Y-140291820D01*
X104317800Y-128303020D02*
X104317800Y-129354580D01*
X105918000Y-129405380D02*
X105918000Y-128353820D01*
X124917200Y-124277120D02*
X124917200Y-125328680D01*
X126517400Y-125379480D02*
X126517400Y-124327920D01*
X106027220Y-102666800D02*
X107078780Y-102666800D01*
X107129580Y-101066600D02*
X106078020Y-101066600D01*
X144406620Y-135305800D02*
X145458180Y-135305800D01*
X145508980Y-133705600D02*
X144457420Y-133705600D01*
X118308120Y-135839200D02*
X119359680Y-135839200D01*
X119410480Y-134239000D02*
X118358920Y-134239000D01*
X104279700Y-118739920D02*
X104279700Y-119791480D01*
X105879900Y-119842280D02*
X105879900Y-118790720D01*
X132405120Y-123875800D02*
X133456680Y-123875800D01*
X133507480Y-122275600D02*
X132455920Y-122275600D01*
X115905280Y-104775000D02*
X114853720Y-104775000D01*
X114802920Y-106375200D02*
X115854480Y-106375200D01*
X154043380Y-136944100D02*
X152991820Y-136944100D01*
X152941020Y-138544300D02*
X153992580Y-138544300D01*
X128643380Y-137744200D02*
X127591820Y-137744200D01*
X127541020Y-139344400D02*
X128592580Y-139344400D01*
X114127280Y-123596400D02*
X113075720Y-123596400D01*
X113024920Y-125196600D02*
X114076480Y-125196600D01*
X137546080Y-125171200D02*
X136494520Y-125171200D01*
X136443720Y-126771400D02*
X137495280Y-126771400D01*
X116885720Y-102781100D02*
X117937280Y-102781100D01*
X117988080Y-101180900D02*
X116936520Y-101180900D01*
X154731720Y-135343900D02*
X155783280Y-135343900D01*
X155834080Y-133743700D02*
X154782520Y-133743700D01*
X129877820Y-135902700D02*
X130929380Y-135902700D01*
X130980180Y-134302500D02*
X129928620Y-134302500D01*
X114282220Y-121996200D02*
X115333780Y-121996200D01*
X115384580Y-120396000D02*
X114333020Y-120396000D01*
X123532900Y-106179620D02*
X123532900Y-107231180D01*
X125133100Y-107281980D02*
X125133100Y-106230420D01*
X160947100Y-138818620D02*
X160947100Y-139870180D01*
X162547300Y-139920980D02*
X162547300Y-138869420D01*
X136512300Y-139237720D02*
X136512300Y-140289280D01*
X138112500Y-140340080D02*
X138112500Y-139288520D01*
X119677180Y-126682500D02*
X118625620Y-126682500D01*
X118574820Y-128282700D02*
X119626380Y-128282700D01*
X125323600Y-97632520D02*
X125323600Y-98684080D01*
X126923800Y-98734880D02*
X126923800Y-97683320D01*
X129321000Y-74613800D02*
X130521000Y-74613800D01*
X130521000Y-76363800D02*
X129321000Y-76363800D01*
X124304500Y-61977300D02*
X125504500Y-61977300D01*
X125504500Y-63727300D02*
X124304500Y-63727300D01*
X120092500Y-63617400D02*
X120092500Y-62417400D01*
X121842500Y-62417400D02*
X121842500Y-63617400D01*
X114906500Y-80201800D02*
X116106500Y-80201800D01*
X116106500Y-81951800D02*
X114906500Y-81951800D01*
X134525000Y-66600000D02*
X134525000Y-65400000D01*
X136275000Y-65400000D02*
X136275000Y-66600000D01*
X140884200Y-129729200D02*
X139684200Y-129729200D01*
X139684200Y-127979200D02*
X140884200Y-127979200D01*
X109996000Y-135474000D02*
X109996000Y-134274000D01*
X111746000Y-134274000D02*
X111746000Y-135474000D01*
X112506200Y-139993400D02*
X113706200Y-139993400D01*
X113706200Y-141743400D02*
X112506200Y-141743400D01*
X141652700Y-144032000D02*
X142852700Y-144032000D01*
X142852700Y-145782000D02*
X141652700Y-145782000D01*
X104441700Y-111672400D02*
X105641700Y-111672400D01*
X105641700Y-113422400D02*
X104441700Y-113422400D01*
X110606840Y-72837040D02*
X106207560Y-72837040D01*
X106207560Y-73337420D02*
X106207560Y-82339180D01*
X110606840Y-82339180D02*
X110606840Y-73337420D01*
X111709200Y-72184260D02*
X110609380Y-72184260D01*
X111208820Y-71584820D02*
X111208820Y-72783700D01*
X107526081Y-97207295D02*
X106526081Y-97207295D01*
X106526081Y-96969200D01*
X106573700Y-96826342D01*
X106668938Y-96731104D01*
X106764176Y-96683485D01*
X106954652Y-96635866D01*
X107097510Y-96635866D01*
X107287986Y-96683485D01*
X107383224Y-96731104D01*
X107478462Y-96826342D01*
X107526081Y-96969200D01*
X107526081Y-97207295D01*
X106526081Y-95778723D02*
X106526081Y-95969200D01*
X106573700Y-96064438D01*
X106621319Y-96112057D01*
X106764176Y-96207295D01*
X106954652Y-96254914D01*
X107335605Y-96254914D01*
X107430843Y-96207295D01*
X107478462Y-96159676D01*
X107526081Y-96064438D01*
X107526081Y-95873961D01*
X107478462Y-95778723D01*
X107430843Y-95731104D01*
X107335605Y-95683485D01*
X107097510Y-95683485D01*
X107002271Y-95731104D01*
X106954652Y-95778723D01*
X106907033Y-95873961D01*
X106907033Y-96064438D01*
X106954652Y-96159676D01*
X107002271Y-96207295D01*
X107097510Y-96254914D01*
X108218267Y-93407835D02*
X108218267Y-92931644D01*
X108503981Y-93503073D02*
X107503981Y-93169740D01*
X108503981Y-92836406D01*
X108404921Y-99730845D02*
X107404921Y-99730845D01*
X108404921Y-99159416D02*
X107833492Y-99587988D01*
X107404921Y-99159416D02*
X107976350Y-99730845D01*
X145057905Y-129243081D02*
X145057905Y-128243081D01*
X145296000Y-128243081D01*
X145438858Y-128290700D01*
X145534096Y-128385938D01*
X145581715Y-128481176D01*
X145629334Y-128671652D01*
X145629334Y-128814510D01*
X145581715Y-129004986D01*
X145534096Y-129100224D01*
X145438858Y-129195462D01*
X145296000Y-129243081D01*
X145057905Y-129243081D01*
X145962667Y-128243081D02*
X146629334Y-128243081D01*
X146200762Y-129243081D01*
X148590665Y-129757467D02*
X149066856Y-129757467D01*
X148495427Y-130043181D02*
X148828760Y-129043181D01*
X149162094Y-130043181D01*
X142267655Y-129944121D02*
X142267655Y-128944121D01*
X142839084Y-129944121D02*
X142410512Y-129372692D01*
X142839084Y-128944121D02*
X142267655Y-129515550D01*
X118654605Y-129624081D02*
X118654605Y-128624081D01*
X118892700Y-128624081D01*
X119035558Y-128671700D01*
X119130796Y-128766938D01*
X119178415Y-128862176D01*
X119226034Y-129052652D01*
X119226034Y-129195510D01*
X119178415Y-129385986D01*
X119130796Y-129481224D01*
X119035558Y-129576462D01*
X118892700Y-129624081D01*
X118654605Y-129624081D01*
X119797462Y-129052652D02*
X119702224Y-129005033D01*
X119654605Y-128957414D01*
X119606986Y-128862176D01*
X119606986Y-128814557D01*
X119654605Y-128719319D01*
X119702224Y-128671700D01*
X119797462Y-128624081D01*
X119987939Y-128624081D01*
X120083177Y-128671700D01*
X120130796Y-128719319D01*
X120178415Y-128814557D01*
X120178415Y-128862176D01*
X120130796Y-128957414D01*
X120083177Y-129005033D01*
X119987939Y-129052652D01*
X119797462Y-129052652D01*
X119702224Y-129100271D01*
X119654605Y-129147890D01*
X119606986Y-129243129D01*
X119606986Y-129433605D01*
X119654605Y-129528843D01*
X119702224Y-129576462D01*
X119797462Y-129624081D01*
X119987939Y-129624081D01*
X120083177Y-129576462D01*
X120130796Y-129528843D01*
X120178415Y-129433605D01*
X120178415Y-129243129D01*
X120130796Y-129147890D01*
X120083177Y-129100271D01*
X119987939Y-129052652D01*
X122365165Y-130405167D02*
X122841356Y-130405167D01*
X122269927Y-130690881D02*
X122603260Y-129690881D01*
X122936594Y-130690881D01*
X116042155Y-130591821D02*
X116042155Y-129591821D01*
X116613584Y-130591821D02*
X116185012Y-130020392D01*
X116613584Y-129591821D02*
X116042155Y-130163250D01*
X103703381Y-137034495D02*
X102703381Y-137034495D01*
X102703381Y-136796400D01*
X102751000Y-136653542D01*
X102846238Y-136558304D01*
X102941476Y-136510685D01*
X103131952Y-136463066D01*
X103274810Y-136463066D01*
X103465286Y-136510685D01*
X103560524Y-136558304D01*
X103655762Y-136653542D01*
X103703381Y-136796400D01*
X103703381Y-137034495D01*
X103703381Y-135986876D02*
X103703381Y-135796400D01*
X103655762Y-135701161D01*
X103608143Y-135653542D01*
X103465286Y-135558304D01*
X103274810Y-135510685D01*
X102893857Y-135510685D01*
X102798619Y-135558304D01*
X102751000Y-135605923D01*
X102703381Y-135701161D01*
X102703381Y-135891638D01*
X102751000Y-135986876D01*
X102798619Y-136034495D01*
X102893857Y-136082114D01*
X103131952Y-136082114D01*
X103227190Y-136034495D01*
X103274810Y-135986876D01*
X103322429Y-135891638D01*
X103322429Y-135701161D01*
X103274810Y-135605923D01*
X103227190Y-135558304D01*
X103131952Y-135510685D01*
X107532467Y-139884755D02*
X107532467Y-139408564D01*
X107818181Y-139979993D02*
X106818181Y-139646660D01*
X107818181Y-139313326D01*
X107917241Y-133609365D02*
X106917241Y-133609365D01*
X107917241Y-133037936D02*
X107345812Y-133466508D01*
X106917241Y-133037936D02*
X107488670Y-133609365D01*
X127360514Y-118054381D02*
X127360514Y-117054381D01*
X127598609Y-117054381D01*
X127741467Y-117102000D01*
X127836705Y-117197238D01*
X127884324Y-117292476D01*
X127931943Y-117482952D01*
X127931943Y-117625810D01*
X127884324Y-117816286D01*
X127836705Y-117911524D01*
X127741467Y-118006762D01*
X127598609Y-118054381D01*
X127360514Y-118054381D01*
X128884324Y-118054381D02*
X128312895Y-118054381D01*
X128598609Y-118054381D02*
X128598609Y-117054381D01*
X128503371Y-117197238D01*
X128408133Y-117292476D01*
X128312895Y-117340095D01*
X129503371Y-117054381D02*
X129598610Y-117054381D01*
X129693848Y-117102000D01*
X129741467Y-117149619D01*
X129789086Y-117244857D01*
X129836705Y-117435333D01*
X129836705Y-117673429D01*
X129789086Y-117863905D01*
X129741467Y-117959143D01*
X129693848Y-118006762D01*
X129598610Y-118054381D01*
X129503371Y-118054381D01*
X129408133Y-118006762D01*
X129360514Y-117959143D01*
X129312895Y-117863905D01*
X129265276Y-117673429D01*
X129265276Y-117435333D01*
X129312895Y-117244857D01*
X129360514Y-117149619D01*
X129408133Y-117102000D01*
X129503371Y-117054381D01*
X131534565Y-118467167D02*
X132010756Y-118467167D01*
X131439327Y-118752881D02*
X131772660Y-117752881D01*
X132105994Y-118752881D01*
X125211555Y-118653821D02*
X125211555Y-117653821D01*
X125782984Y-118653821D02*
X125354412Y-118082392D01*
X125782984Y-117653821D02*
X125211555Y-118225250D01*
X137812614Y-117736881D02*
X137812614Y-116736881D01*
X138050709Y-116736881D01*
X138193567Y-116784500D01*
X138288805Y-116879738D01*
X138336424Y-116974976D01*
X138384043Y-117165452D01*
X138384043Y-117308310D01*
X138336424Y-117498786D01*
X138288805Y-117594024D01*
X138193567Y-117689262D01*
X138050709Y-117736881D01*
X137812614Y-117736881D01*
X139336424Y-117736881D02*
X138764995Y-117736881D01*
X139050709Y-117736881D02*
X139050709Y-116736881D01*
X138955471Y-116879738D01*
X138860233Y-116974976D01*
X138764995Y-117022595D01*
X140288805Y-117736881D02*
X139717376Y-117736881D01*
X140003090Y-117736881D02*
X140003090Y-116736881D01*
X139907852Y-116879738D01*
X139812614Y-116974976D01*
X139717376Y-117022595D01*
X135654445Y-121388167D02*
X136130636Y-121388167D01*
X135559207Y-121673881D02*
X135892540Y-120673881D01*
X136225874Y-121673881D01*
X141929835Y-121772941D02*
X141929835Y-120772941D01*
X142501264Y-121772941D02*
X142072692Y-121201512D01*
X142501264Y-120772941D02*
X141929835Y-121344370D01*
X119473814Y-94648281D02*
X119473814Y-93648281D01*
X119711909Y-93648281D01*
X119854767Y-93695900D01*
X119950005Y-93791138D01*
X119997624Y-93886376D01*
X120045243Y-94076852D01*
X120045243Y-94219710D01*
X119997624Y-94410186D01*
X119950005Y-94505424D01*
X119854767Y-94600662D01*
X119711909Y-94648281D01*
X119473814Y-94648281D01*
X120997624Y-94648281D02*
X120426195Y-94648281D01*
X120711909Y-94648281D02*
X120711909Y-93648281D01*
X120616671Y-93791138D01*
X120521433Y-93886376D01*
X120426195Y-93933995D01*
X121378576Y-93743519D02*
X121426195Y-93695900D01*
X121521433Y-93648281D01*
X121759529Y-93648281D01*
X121854767Y-93695900D01*
X121902386Y-93743519D01*
X121950005Y-93838757D01*
X121950005Y-93933995D01*
X121902386Y-94076852D01*
X121330957Y-94648281D01*
X121950005Y-94648281D01*
X117061645Y-98807567D02*
X117537836Y-98807567D01*
X116966407Y-99093281D02*
X117299740Y-98093281D01*
X117633074Y-99093281D01*
X123337035Y-99192341D02*
X123337035Y-98192341D01*
X123908464Y-99192341D02*
X123479892Y-98620912D01*
X123908464Y-98192341D02*
X123337035Y-98763770D01*
X157002314Y-129357381D02*
X157002314Y-128357381D01*
X157240409Y-128357381D01*
X157383267Y-128405000D01*
X157478505Y-128500238D01*
X157526124Y-128595476D01*
X157573743Y-128785952D01*
X157573743Y-128928810D01*
X157526124Y-129119286D01*
X157478505Y-129214524D01*
X157383267Y-129309762D01*
X157240409Y-129357381D01*
X157002314Y-129357381D01*
X158526124Y-129357381D02*
X157954695Y-129357381D01*
X158240409Y-129357381D02*
X158240409Y-128357381D01*
X158145171Y-128500238D01*
X158049933Y-128595476D01*
X157954695Y-128643095D01*
X158859457Y-128357381D02*
X159478505Y-128357381D01*
X159145171Y-128738333D01*
X159288029Y-128738333D01*
X159383267Y-128785952D01*
X159430886Y-128833571D01*
X159478505Y-128928810D01*
X159478505Y-129166905D01*
X159430886Y-129262143D01*
X159383267Y-129309762D01*
X159288029Y-129357381D01*
X159002314Y-129357381D01*
X158907076Y-129309762D01*
X158859457Y-129262143D01*
X154602845Y-132995967D02*
X155079036Y-132995967D01*
X154507607Y-133281681D02*
X154840940Y-132281681D01*
X155174274Y-133281681D01*
X160878235Y-133380741D02*
X160878235Y-132380741D01*
X161449664Y-133380741D02*
X161021092Y-132809312D01*
X161449664Y-132380741D02*
X160878235Y-132952170D01*
X133756214Y-129199581D02*
X133756214Y-128199581D01*
X133994309Y-128199581D01*
X134137167Y-128247200D01*
X134232405Y-128342438D01*
X134280024Y-128437676D01*
X134327643Y-128628152D01*
X134327643Y-128771010D01*
X134280024Y-128961486D01*
X134232405Y-129056724D01*
X134137167Y-129151962D01*
X133994309Y-129199581D01*
X133756214Y-129199581D01*
X135280024Y-129199581D02*
X134708595Y-129199581D01*
X134994309Y-129199581D02*
X134994309Y-128199581D01*
X134899071Y-128342438D01*
X134803833Y-128437676D01*
X134708595Y-128485295D01*
X136137167Y-128532914D02*
X136137167Y-129199581D01*
X135899071Y-128151962D02*
X135660976Y-128866248D01*
X136280024Y-128866248D01*
X131501545Y-132729267D02*
X131977736Y-132729267D01*
X131406307Y-133014981D02*
X131739640Y-132014981D01*
X132072974Y-133014981D01*
X137776935Y-133114041D02*
X137776935Y-132114041D01*
X138348364Y-133114041D02*
X137919792Y-132542612D01*
X138348364Y-132114041D02*
X137776935Y-132685470D01*
X117810114Y-115628681D02*
X117810114Y-114628681D01*
X118048209Y-114628681D01*
X118191067Y-114676300D01*
X118286305Y-114771538D01*
X118333924Y-114866776D01*
X118381543Y-115057252D01*
X118381543Y-115200110D01*
X118333924Y-115390586D01*
X118286305Y-115485824D01*
X118191067Y-115581062D01*
X118048209Y-115628681D01*
X117810114Y-115628681D01*
X119333924Y-115628681D02*
X118762495Y-115628681D01*
X119048209Y-115628681D02*
X119048209Y-114628681D01*
X118952971Y-114771538D01*
X118857733Y-114866776D01*
X118762495Y-114914395D01*
X120238686Y-114628681D02*
X119762495Y-114628681D01*
X119714876Y-115104871D01*
X119762495Y-115057252D01*
X119857733Y-115009633D01*
X120095829Y-115009633D01*
X120191067Y-115057252D01*
X120238686Y-115104871D01*
X120286305Y-115200110D01*
X120286305Y-115438205D01*
X120238686Y-115533443D01*
X120191067Y-115581062D01*
X120095829Y-115628681D01*
X119857733Y-115628681D01*
X119762495Y-115581062D01*
X119714876Y-115533443D01*
X115436045Y-118670367D02*
X115912236Y-118670367D01*
X115340807Y-118956081D02*
X115674140Y-117956081D01*
X116007474Y-118956081D01*
X121711435Y-119055141D02*
X121711435Y-118055141D01*
X122282864Y-119055141D02*
X121854292Y-118483712D01*
X122282864Y-118055141D02*
X121711435Y-118626570D01*
X164328101Y-60085266D02*
X164328101Y-60561457D01*
X163328101Y-60561457D01*
X164328101Y-59228123D02*
X164328101Y-59799552D01*
X164328101Y-59513838D02*
X163328101Y-59513838D01*
X163470958Y-59609076D01*
X163566196Y-59704314D01*
X163613815Y-59799552D01*
X142521734Y-74589081D02*
X142045543Y-74589081D01*
X142045543Y-73589081D01*
X142807448Y-73684319D02*
X142855067Y-73636700D01*
X142950305Y-73589081D01*
X143188401Y-73589081D01*
X143283639Y-73636700D01*
X143331258Y-73684319D01*
X143378877Y-73779557D01*
X143378877Y-73874795D01*
X143331258Y-74017652D01*
X142759829Y-74589081D01*
X143378877Y-74589081D01*
X155726634Y-74752581D02*
X155250443Y-74752581D01*
X155250443Y-73752581D01*
X155964729Y-73752581D02*
X156583777Y-73752581D01*
X156250443Y-74133533D01*
X156393301Y-74133533D01*
X156488539Y-74181152D01*
X156536158Y-74228771D01*
X156583777Y-74324010D01*
X156583777Y-74562105D01*
X156536158Y-74657343D01*
X156488539Y-74704962D01*
X156393301Y-74752581D01*
X156107586Y-74752581D01*
X156012348Y-74704962D01*
X155964729Y-74657343D01*
X183452381Y-64266666D02*
X183452381Y-64742857D01*
X182452381Y-64742857D01*
X182785714Y-63504761D02*
X183452381Y-63504761D01*
X182404762Y-63742857D02*
X183119048Y-63980952D01*
X183119048Y-63361904D01*
X183598381Y-79835966D02*
X183598381Y-80312157D01*
X182598381Y-80312157D01*
X182598381Y-79026442D02*
X182598381Y-79502633D01*
X183074571Y-79550252D01*
X183026952Y-79502633D01*
X182979333Y-79407395D01*
X182979333Y-79169299D01*
X183026952Y-79074061D01*
X183074571Y-79026442D01*
X183169810Y-78978823D01*
X183407905Y-78978823D01*
X183503143Y-79026442D01*
X183550762Y-79074061D01*
X183598381Y-79169299D01*
X183598381Y-79407395D01*
X183550762Y-79502633D01*
X183503143Y-79550252D01*
X183457081Y-97126166D02*
X183457081Y-97602357D01*
X182457081Y-97602357D01*
X182457081Y-96364261D02*
X182457081Y-96554738D01*
X182504700Y-96649976D01*
X182552319Y-96697595D01*
X182695176Y-96792833D01*
X182885652Y-96840452D01*
X183266605Y-96840452D01*
X183361843Y-96792833D01*
X183409462Y-96745214D01*
X183457081Y-96649976D01*
X183457081Y-96459499D01*
X183409462Y-96364261D01*
X183361843Y-96316642D01*
X183266605Y-96269023D01*
X183028510Y-96269023D01*
X182933271Y-96316642D01*
X182885652Y-96364261D01*
X182838033Y-96459499D01*
X182838033Y-96649976D01*
X182885652Y-96745214D01*
X182933271Y-96792833D01*
X183028510Y-96840452D01*
X183344381Y-129133666D02*
X183344381Y-129609857D01*
X182344381Y-129609857D01*
X182344381Y-128895571D02*
X182344381Y-128228904D01*
X183344381Y-128657476D01*
X183390381Y-113322666D02*
X183390381Y-113798857D01*
X182390381Y-113798857D01*
X182818952Y-112846476D02*
X182771333Y-112941714D01*
X182723714Y-112989333D01*
X182628476Y-113036952D01*
X182580857Y-113036952D01*
X182485619Y-112989333D01*
X182438000Y-112941714D01*
X182390381Y-112846476D01*
X182390381Y-112655999D01*
X182438000Y-112560761D01*
X182485619Y-112513142D01*
X182580857Y-112465523D01*
X182628476Y-112465523D01*
X182723714Y-112513142D01*
X182771333Y-112560761D01*
X182818952Y-112655999D01*
X182818952Y-112846476D01*
X182866571Y-112941714D01*
X182914190Y-112989333D01*
X183009429Y-113036952D01*
X183199905Y-113036952D01*
X183295143Y-112989333D01*
X183342762Y-112941714D01*
X183390381Y-112846476D01*
X183390381Y-112655999D01*
X183342762Y-112560761D01*
X183295143Y-112513142D01*
X183199905Y-112465523D01*
X183009429Y-112465523D01*
X182914190Y-112513142D01*
X182866571Y-112560761D01*
X182818952Y-112655999D01*
X193852381Y-64266666D02*
X193852381Y-64742857D01*
X192852381Y-64742857D01*
X193852381Y-63885714D02*
X193852381Y-63695238D01*
X193804762Y-63599999D01*
X193757143Y-63552380D01*
X193614286Y-63457142D01*
X193423810Y-63409523D01*
X193042857Y-63409523D01*
X192947619Y-63457142D01*
X192900000Y-63504761D01*
X192852381Y-63599999D01*
X192852381Y-63790476D01*
X192900000Y-63885714D01*
X192947619Y-63933333D01*
X193042857Y-63980952D01*
X193280952Y-63980952D01*
X193376190Y-63933333D01*
X193423810Y-63885714D01*
X193471429Y-63790476D01*
X193471429Y-63599999D01*
X193423810Y-63504761D01*
X193376190Y-63457142D01*
X193280952Y-63409523D01*
X193698381Y-79512157D02*
X193698381Y-79988348D01*
X192698381Y-79988348D01*
X193698381Y-78655014D02*
X193698381Y-79226443D01*
X193698381Y-78940729D02*
X192698381Y-78940729D01*
X192841238Y-79035967D01*
X192936476Y-79131205D01*
X192984095Y-79226443D01*
X192698381Y-78035967D02*
X192698381Y-77940728D01*
X192746000Y-77845490D01*
X192793619Y-77797871D01*
X192888857Y-77750252D01*
X193079333Y-77702633D01*
X193317429Y-77702633D01*
X193507905Y-77750252D01*
X193603143Y-77797871D01*
X193650762Y-77845490D01*
X193698381Y-77940728D01*
X193698381Y-78035967D01*
X193650762Y-78131205D01*
X193603143Y-78178824D01*
X193507905Y-78226443D01*
X193317429Y-78274062D01*
X193079333Y-78274062D01*
X192888857Y-78226443D01*
X192793619Y-78178824D01*
X192746000Y-78131205D01*
X192698381Y-78035967D01*
X194157081Y-97402357D02*
X194157081Y-97878548D01*
X193157081Y-97878548D01*
X194157081Y-96545214D02*
X194157081Y-97116643D01*
X194157081Y-96830929D02*
X193157081Y-96830929D01*
X193299938Y-96926167D01*
X193395176Y-97021405D01*
X193442795Y-97116643D01*
X194157081Y-95592833D02*
X194157081Y-96164262D01*
X194157081Y-95878548D02*
X193157081Y-95878548D01*
X193299938Y-95973786D01*
X193395176Y-96069024D01*
X193442795Y-96164262D01*
X193744381Y-129809857D02*
X193744381Y-130286048D01*
X192744381Y-130286048D01*
X193744381Y-128952714D02*
X193744381Y-129524143D01*
X193744381Y-129238429D02*
X192744381Y-129238429D01*
X192887238Y-129333667D01*
X192982476Y-129428905D01*
X193030095Y-129524143D01*
X192839619Y-128571762D02*
X192792000Y-128524143D01*
X192744381Y-128428905D01*
X192744381Y-128190809D01*
X192792000Y-128095571D01*
X192839619Y-128047952D01*
X192934857Y-128000333D01*
X193030095Y-128000333D01*
X193172952Y-128047952D01*
X193744381Y-128619381D01*
X193744381Y-128000333D01*
X193690381Y-113798857D02*
X193690381Y-114275048D01*
X192690381Y-114275048D01*
X193690381Y-112941714D02*
X193690381Y-113513143D01*
X193690381Y-113227429D02*
X192690381Y-113227429D01*
X192833238Y-113322667D01*
X192928476Y-113417905D01*
X192976095Y-113513143D01*
X192690381Y-112608381D02*
X192690381Y-111989333D01*
X193071333Y-112322667D01*
X193071333Y-112179809D01*
X193118952Y-112084571D01*
X193166571Y-112036952D01*
X193261810Y-111989333D01*
X193499905Y-111989333D01*
X193595143Y-112036952D01*
X193642762Y-112084571D01*
X193690381Y-112179809D01*
X193690381Y-112465524D01*
X193642762Y-112560762D01*
X193595143Y-112608381D01*
X128811281Y-81256095D02*
X127811281Y-81256095D01*
X127811281Y-80875142D01*
X127858900Y-80779904D01*
X127906519Y-80732285D01*
X128001757Y-80684666D01*
X128144614Y-80684666D01*
X128239852Y-80732285D01*
X128287471Y-80779904D01*
X128335090Y-80875142D01*
X128335090Y-81256095D01*
X128811281Y-79732285D02*
X128811281Y-80303714D01*
X128811281Y-80018000D02*
X127811281Y-80018000D01*
X127954138Y-80113238D01*
X128049376Y-80208476D01*
X128096995Y-80303714D01*
X124839505Y-68613281D02*
X124839505Y-67613281D01*
X125220458Y-67613281D01*
X125315696Y-67660900D01*
X125363315Y-67708519D01*
X125410934Y-67803757D01*
X125410934Y-67946614D01*
X125363315Y-68041852D01*
X125315696Y-68089471D01*
X125220458Y-68137090D01*
X124839505Y-68137090D01*
X125791886Y-67708519D02*
X125839505Y-67660900D01*
X125934743Y-67613281D01*
X126172839Y-67613281D01*
X126268077Y-67660900D01*
X126315696Y-67708519D01*
X126363315Y-67803757D01*
X126363315Y-67898995D01*
X126315696Y-68041852D01*
X125744267Y-68613281D01*
X126363315Y-68613281D01*
X118476805Y-94483181D02*
X118476805Y-93483181D01*
X118857758Y-93483181D01*
X118952996Y-93530800D01*
X119000615Y-93578419D01*
X119048234Y-93673657D01*
X119048234Y-93816514D01*
X119000615Y-93911752D01*
X118952996Y-93959371D01*
X118857758Y-94006990D01*
X118476805Y-94006990D01*
X119381567Y-93483181D02*
X120000615Y-93483181D01*
X119667281Y-93864133D01*
X119810139Y-93864133D01*
X119905377Y-93911752D01*
X119952996Y-93959371D01*
X120000615Y-94054610D01*
X120000615Y-94292705D01*
X119952996Y-94387943D01*
X119905377Y-94435562D01*
X119810139Y-94483181D01*
X119524424Y-94483181D01*
X119429186Y-94435562D01*
X119381567Y-94387943D01*
X107923105Y-67394081D02*
X107923105Y-66394081D01*
X108304058Y-66394081D01*
X108399296Y-66441700D01*
X108446915Y-66489319D01*
X108494534Y-66584557D01*
X108494534Y-66727414D01*
X108446915Y-66822652D01*
X108399296Y-66870271D01*
X108304058Y-66917890D01*
X107923105Y-66917890D01*
X109351677Y-66727414D02*
X109351677Y-67394081D01*
X109113581Y-66346462D02*
X108875486Y-67060748D01*
X109494534Y-67060748D01*
X103512881Y-84926395D02*
X102512881Y-84926395D01*
X102512881Y-84545442D01*
X102560500Y-84450204D01*
X102608119Y-84402585D01*
X102703357Y-84354966D01*
X102846214Y-84354966D01*
X102941452Y-84402585D01*
X102989071Y-84450204D01*
X103036690Y-84545442D01*
X103036690Y-84926395D01*
X102512881Y-83450204D02*
X102512881Y-83926395D01*
X102989071Y-83974014D01*
X102941452Y-83926395D01*
X102893833Y-83831157D01*
X102893833Y-83593061D01*
X102941452Y-83497823D01*
X102989071Y-83450204D01*
X103084310Y-83402585D01*
X103322405Y-83402585D01*
X103417643Y-83450204D01*
X103465262Y-83497823D01*
X103512881Y-83593061D01*
X103512881Y-83831157D01*
X103465262Y-83926395D01*
X103417643Y-83974014D01*
X124039405Y-74328281D02*
X124039405Y-73328281D01*
X124420358Y-73328281D01*
X124515596Y-73375900D01*
X124563215Y-73423519D01*
X124610834Y-73518757D01*
X124610834Y-73661614D01*
X124563215Y-73756852D01*
X124515596Y-73804471D01*
X124420358Y-73852090D01*
X124039405Y-73852090D01*
X125467977Y-73328281D02*
X125277500Y-73328281D01*
X125182262Y-73375900D01*
X125134643Y-73423519D01*
X125039405Y-73566376D01*
X124991786Y-73756852D01*
X124991786Y-74137805D01*
X125039405Y-74233043D01*
X125087024Y-74280662D01*
X125182262Y-74328281D01*
X125372739Y-74328281D01*
X125467977Y-74280662D01*
X125515596Y-74233043D01*
X125563215Y-74137805D01*
X125563215Y-73899710D01*
X125515596Y-73804471D01*
X125467977Y-73756852D01*
X125372739Y-73709233D01*
X125182262Y-73709233D01*
X125087024Y-73756852D01*
X125039405Y-73804471D01*
X124991786Y-73899710D01*
X105875081Y-64746095D02*
X104875081Y-64746095D01*
X104875081Y-64365142D01*
X104922700Y-64269904D01*
X104970319Y-64222285D01*
X105065557Y-64174666D01*
X105208414Y-64174666D01*
X105303652Y-64222285D01*
X105351271Y-64269904D01*
X105398890Y-64365142D01*
X105398890Y-64746095D01*
X104875081Y-63841333D02*
X104875081Y-63174666D01*
X105875081Y-63603238D01*
X128393662Y-70095319D02*
X128298424Y-70047700D01*
X128203186Y-69952462D01*
X128060329Y-69809605D01*
X127965090Y-69761986D01*
X127869852Y-69761986D01*
X127917471Y-70000081D02*
X127822233Y-69952462D01*
X127726995Y-69857224D01*
X127679376Y-69666748D01*
X127679376Y-69333414D01*
X127726995Y-69142938D01*
X127822233Y-69047700D01*
X127917471Y-69000081D01*
X128107948Y-69000081D01*
X128203186Y-69047700D01*
X128298424Y-69142938D01*
X128346043Y-69333414D01*
X128346043Y-69666748D01*
X128298424Y-69857224D01*
X128203186Y-69952462D01*
X128107948Y-70000081D01*
X127917471Y-70000081D01*
X129298424Y-70000081D02*
X128726995Y-70000081D01*
X129012709Y-70000081D02*
X129012709Y-69000081D01*
X128917471Y-69142938D01*
X128822233Y-69238176D01*
X128726995Y-69285795D01*
X129901962Y-60288419D02*
X129806724Y-60240800D01*
X129711486Y-60145562D01*
X129568629Y-60002705D01*
X129473390Y-59955086D01*
X129378152Y-59955086D01*
X129425771Y-60193181D02*
X129330533Y-60145562D01*
X129235295Y-60050324D01*
X129187676Y-59859848D01*
X129187676Y-59526514D01*
X129235295Y-59336038D01*
X129330533Y-59240800D01*
X129425771Y-59193181D01*
X129616248Y-59193181D01*
X129711486Y-59240800D01*
X129806724Y-59336038D01*
X129854343Y-59526514D01*
X129854343Y-59859848D01*
X129806724Y-60050324D01*
X129711486Y-60145562D01*
X129616248Y-60193181D01*
X129425771Y-60193181D01*
X130187676Y-59193181D02*
X130806724Y-59193181D01*
X130473390Y-59574133D01*
X130616248Y-59574133D01*
X130711486Y-59621752D01*
X130759105Y-59669371D01*
X130806724Y-59764610D01*
X130806724Y-60002705D01*
X130759105Y-60097943D01*
X130711486Y-60145562D01*
X130616248Y-60193181D01*
X130330533Y-60193181D01*
X130235295Y-60145562D01*
X130187676Y-60097943D01*
X123994943Y-111653581D02*
X123661609Y-111177390D01*
X123423514Y-111653581D02*
X123423514Y-110653581D01*
X123804467Y-110653581D01*
X123899705Y-110701200D01*
X123947324Y-110748819D01*
X123994943Y-110844057D01*
X123994943Y-110986914D01*
X123947324Y-111082152D01*
X123899705Y-111129771D01*
X123804467Y-111177390D01*
X123423514Y-111177390D01*
X124375895Y-110748819D02*
X124423514Y-110701200D01*
X124518752Y-110653581D01*
X124756848Y-110653581D01*
X124852086Y-110701200D01*
X124899705Y-110748819D01*
X124947324Y-110844057D01*
X124947324Y-110939295D01*
X124899705Y-111082152D01*
X124328276Y-111653581D01*
X124947324Y-111653581D01*
X125566371Y-110653581D02*
X125661610Y-110653581D01*
X125756848Y-110701200D01*
X125804467Y-110748819D01*
X125852086Y-110844057D01*
X125899705Y-111034533D01*
X125899705Y-111272629D01*
X125852086Y-111463105D01*
X125804467Y-111558343D01*
X125756848Y-111605962D01*
X125661610Y-111653581D01*
X125566371Y-111653581D01*
X125471133Y-111605962D01*
X125423514Y-111558343D01*
X125375895Y-111463105D01*
X125328276Y-111272629D01*
X125328276Y-111034533D01*
X125375895Y-110844057D01*
X125423514Y-110748819D01*
X125471133Y-110701200D01*
X125566371Y-110653581D01*
X105113081Y-88196657D02*
X104636890Y-88529991D01*
X105113081Y-88768086D02*
X104113081Y-88768086D01*
X104113081Y-88387133D01*
X104160700Y-88291895D01*
X104208319Y-88244276D01*
X104303557Y-88196657D01*
X104446414Y-88196657D01*
X104541652Y-88244276D01*
X104589271Y-88291895D01*
X104636890Y-88387133D01*
X104636890Y-88768086D01*
X104208319Y-87815705D02*
X104160700Y-87768086D01*
X104113081Y-87672848D01*
X104113081Y-87434752D01*
X104160700Y-87339514D01*
X104208319Y-87291895D01*
X104303557Y-87244276D01*
X104398795Y-87244276D01*
X104541652Y-87291895D01*
X105113081Y-87863324D01*
X105113081Y-87244276D01*
X105113081Y-86291895D02*
X105113081Y-86863324D01*
X105113081Y-86577610D02*
X104113081Y-86577610D01*
X104255938Y-86672848D01*
X104351176Y-86768086D01*
X104398795Y-86863324D01*
X136410795Y-85672681D02*
X136982224Y-85672681D01*
X136696509Y-86672681D02*
X136696509Y-85672681D01*
X137839367Y-86672681D02*
X137267938Y-86672681D01*
X137553652Y-86672681D02*
X137553652Y-85672681D01*
X137458414Y-85815538D01*
X137363176Y-85910776D01*
X137267938Y-85958395D01*
X131330795Y-94219781D02*
X131330795Y-95029305D01*
X131378414Y-95124543D01*
X131426033Y-95172162D01*
X131521271Y-95219781D01*
X131711748Y-95219781D01*
X131806986Y-95172162D01*
X131854605Y-95124543D01*
X131902224Y-95029305D01*
X131902224Y-94219781D01*
X132902224Y-95219781D02*
X132330795Y-95219781D01*
X132616509Y-95219781D02*
X132616509Y-94219781D01*
X132521271Y-94362638D01*
X132426033Y-94457876D01*
X132330795Y-94505495D01*
X129606986Y-93057781D02*
X130273653Y-93057781D01*
X129845081Y-94057781D01*
X131083177Y-93391114D02*
X131083177Y-94057781D01*
X130845081Y-93010162D02*
X130606986Y-93724448D01*
X131226034Y-93724448D01*
X131606986Y-94057781D02*
X131606986Y-93057781D01*
X131606986Y-93533971D02*
X132178415Y-93533971D01*
X132178415Y-94057781D02*
X132178415Y-93057781D01*
X133226034Y-93962543D02*
X133178415Y-94010162D01*
X133035558Y-94057781D01*
X132940320Y-94057781D01*
X132797462Y-94010162D01*
X132702224Y-93914924D01*
X132654605Y-93819686D01*
X132606986Y-93629210D01*
X132606986Y-93486352D01*
X132654605Y-93295876D01*
X132702224Y-93200638D01*
X132797462Y-93105400D01*
X132940320Y-93057781D01*
X133035558Y-93057781D01*
X133178415Y-93105400D01*
X133226034Y-93153019D01*
X134178415Y-94057781D02*
X133606986Y-94057781D01*
X133892700Y-94057781D02*
X133892700Y-93057781D01*
X133797462Y-93200638D01*
X133702224Y-93295876D01*
X133606986Y-93343495D01*
X135035558Y-93391114D02*
X135035558Y-94057781D01*
X134797462Y-93010162D02*
X134559367Y-93724448D01*
X135178415Y-93724448D01*
X139700095Y-94168981D02*
X139700095Y-94978505D01*
X139747714Y-95073743D01*
X139795333Y-95121362D01*
X139890571Y-95168981D01*
X140081048Y-95168981D01*
X140176286Y-95121362D01*
X140223905Y-95073743D01*
X140271524Y-94978505D01*
X140271524Y-94168981D01*
X140700095Y-94264219D02*
X140747714Y-94216600D01*
X140842952Y-94168981D01*
X141081048Y-94168981D01*
X141176286Y-94216600D01*
X141223905Y-94264219D01*
X141271524Y-94359457D01*
X141271524Y-94454695D01*
X141223905Y-94597552D01*
X140652476Y-95168981D01*
X141271524Y-95168981D01*
X137676286Y-92898981D02*
X138342953Y-92898981D01*
X137914381Y-93898981D01*
X139152477Y-93232314D02*
X139152477Y-93898981D01*
X138914381Y-92851362D02*
X138676286Y-93565648D01*
X139295334Y-93565648D01*
X139676286Y-93898981D02*
X139676286Y-92898981D01*
X139676286Y-93375171D02*
X140247715Y-93375171D01*
X140247715Y-93898981D02*
X140247715Y-92898981D01*
X141295334Y-93803743D02*
X141247715Y-93851362D01*
X141104858Y-93898981D01*
X141009620Y-93898981D01*
X140866762Y-93851362D01*
X140771524Y-93756124D01*
X140723905Y-93660886D01*
X140676286Y-93470410D01*
X140676286Y-93327552D01*
X140723905Y-93137076D01*
X140771524Y-93041838D01*
X140866762Y-92946600D01*
X141009620Y-92898981D01*
X141104858Y-92898981D01*
X141247715Y-92946600D01*
X141295334Y-92994219D01*
X142247715Y-93898981D02*
X141676286Y-93898981D01*
X141962000Y-93898981D02*
X141962000Y-92898981D01*
X141866762Y-93041838D01*
X141771524Y-93137076D01*
X141676286Y-93184695D01*
X143104858Y-93232314D02*
X143104858Y-93898981D01*
X142866762Y-92851362D02*
X142628667Y-93565648D01*
X143247715Y-93565648D01*
X151434895Y-111967381D02*
X151434895Y-112776905D01*
X151482514Y-112872143D01*
X151530133Y-112919762D01*
X151625371Y-112967381D01*
X151815848Y-112967381D01*
X151911086Y-112919762D01*
X151958705Y-112872143D01*
X152006324Y-112776905D01*
X152006324Y-111967381D01*
X152387276Y-111967381D02*
X153006324Y-111967381D01*
X152672990Y-112348333D01*
X152815848Y-112348333D01*
X152911086Y-112395952D01*
X152958705Y-112443571D01*
X153006324Y-112538810D01*
X153006324Y-112776905D01*
X152958705Y-112872143D01*
X152911086Y-112919762D01*
X152815848Y-112967381D01*
X152530133Y-112967381D01*
X152434895Y-112919762D01*
X152387276Y-112872143D01*
X151749181Y-124243571D02*
X151749181Y-123672142D01*
X152749181Y-123957857D02*
X151749181Y-123957857D01*
X152749181Y-123338809D02*
X151749181Y-123338809D01*
X151749181Y-122957856D01*
X151796800Y-122862618D01*
X151844419Y-122814999D01*
X151939657Y-122767380D01*
X152082514Y-122767380D01*
X152177752Y-122814999D01*
X152225371Y-122862618D01*
X152272990Y-122957856D01*
X152272990Y-123338809D01*
X152749181Y-122338809D02*
X151749181Y-122338809D01*
X152653943Y-121291190D02*
X152701562Y-121338809D01*
X152749181Y-121481666D01*
X152749181Y-121576904D01*
X152701562Y-121719762D01*
X152606324Y-121815000D01*
X152511086Y-121862619D01*
X152320610Y-121910238D01*
X152177752Y-121910238D01*
X151987276Y-121862619D01*
X151892038Y-121815000D01*
X151796800Y-121719762D01*
X151749181Y-121576904D01*
X151749181Y-121481666D01*
X151796800Y-121338809D01*
X151844419Y-121291190D01*
X151749181Y-120434047D02*
X151749181Y-120624524D01*
X151796800Y-120719762D01*
X151844419Y-120767381D01*
X151987276Y-120862619D01*
X152177752Y-120910238D01*
X152558705Y-120910238D01*
X152653943Y-120862619D01*
X152701562Y-120815000D01*
X152749181Y-120719762D01*
X152749181Y-120529285D01*
X152701562Y-120434047D01*
X152653943Y-120386428D01*
X152558705Y-120338809D01*
X152320610Y-120338809D01*
X152225371Y-120386428D01*
X152177752Y-120434047D01*
X152130133Y-120529285D01*
X152130133Y-120719762D01*
X152177752Y-120815000D01*
X152225371Y-120862619D01*
X152320610Y-120910238D01*
X152225371Y-119576904D02*
X152272990Y-119434047D01*
X152320610Y-119386428D01*
X152415848Y-119338809D01*
X152558705Y-119338809D01*
X152653943Y-119386428D01*
X152701562Y-119434047D01*
X152749181Y-119529285D01*
X152749181Y-119910238D01*
X151749181Y-119910238D01*
X151749181Y-119576904D01*
X151796800Y-119481666D01*
X151844419Y-119434047D01*
X151939657Y-119386428D01*
X152034895Y-119386428D01*
X152130133Y-119434047D01*
X152177752Y-119481666D01*
X152225371Y-119576904D01*
X152225371Y-119910238D01*
X151749181Y-118434047D02*
X151749181Y-118910238D01*
X152225371Y-118957857D01*
X152177752Y-118910238D01*
X152130133Y-118815000D01*
X152130133Y-118576904D01*
X152177752Y-118481666D01*
X152225371Y-118434047D01*
X152320610Y-118386428D01*
X152558705Y-118386428D01*
X152653943Y-118434047D01*
X152701562Y-118481666D01*
X152749181Y-118576904D01*
X152749181Y-118815000D01*
X152701562Y-118910238D01*
X152653943Y-118957857D01*
X152749181Y-117910238D02*
X152749181Y-117719762D01*
X152701562Y-117624523D01*
X152653943Y-117576904D01*
X152511086Y-117481666D01*
X152320610Y-117434047D01*
X151939657Y-117434047D01*
X151844419Y-117481666D01*
X151796800Y-117529285D01*
X151749181Y-117624523D01*
X151749181Y-117815000D01*
X151796800Y-117910238D01*
X151844419Y-117957857D01*
X151939657Y-118005476D01*
X152177752Y-118005476D01*
X152272990Y-117957857D01*
X152320610Y-117910238D01*
X152368229Y-117815000D01*
X152368229Y-117624523D01*
X152320610Y-117529285D01*
X152272990Y-117481666D01*
X152177752Y-117434047D01*
X151749181Y-116529285D02*
X151749181Y-117005476D01*
X152225371Y-117053095D01*
X152177752Y-117005476D01*
X152130133Y-116910238D01*
X152130133Y-116672142D01*
X152177752Y-116576904D01*
X152225371Y-116529285D01*
X152320610Y-116481666D01*
X152558705Y-116481666D01*
X152653943Y-116529285D01*
X152701562Y-116576904D01*
X152749181Y-116672142D01*
X152749181Y-116910238D01*
X152701562Y-117005476D01*
X152653943Y-117053095D01*
X150901495Y-93882581D02*
X150901495Y-94692105D01*
X150949114Y-94787343D01*
X150996733Y-94834962D01*
X151091971Y-94882581D01*
X151282448Y-94882581D01*
X151377686Y-94834962D01*
X151425305Y-94787343D01*
X151472924Y-94692105D01*
X151472924Y-93882581D01*
X152377686Y-94215914D02*
X152377686Y-94882581D01*
X152139590Y-93834962D02*
X151901495Y-94549248D01*
X152520543Y-94549248D01*
X151315781Y-105358771D02*
X151315781Y-104787342D01*
X152315781Y-105073057D02*
X151315781Y-105073057D01*
X152315781Y-104454009D02*
X151315781Y-104454009D01*
X151315781Y-104073056D01*
X151363400Y-103977818D01*
X151411019Y-103930199D01*
X151506257Y-103882580D01*
X151649114Y-103882580D01*
X151744352Y-103930199D01*
X151791971Y-103977818D01*
X151839590Y-104073056D01*
X151839590Y-104454009D01*
X152315781Y-103454009D02*
X151315781Y-103454009D01*
X152220543Y-102406390D02*
X152268162Y-102454009D01*
X152315781Y-102596866D01*
X152315781Y-102692104D01*
X152268162Y-102834962D01*
X152172924Y-102930200D01*
X152077686Y-102977819D01*
X151887210Y-103025438D01*
X151744352Y-103025438D01*
X151553876Y-102977819D01*
X151458638Y-102930200D01*
X151363400Y-102834962D01*
X151315781Y-102692104D01*
X151315781Y-102596866D01*
X151363400Y-102454009D01*
X151411019Y-102406390D01*
X151315781Y-101549247D02*
X151315781Y-101739724D01*
X151363400Y-101834962D01*
X151411019Y-101882581D01*
X151553876Y-101977819D01*
X151744352Y-102025438D01*
X152125305Y-102025438D01*
X152220543Y-101977819D01*
X152268162Y-101930200D01*
X152315781Y-101834962D01*
X152315781Y-101644485D01*
X152268162Y-101549247D01*
X152220543Y-101501628D01*
X152125305Y-101454009D01*
X151887210Y-101454009D01*
X151791971Y-101501628D01*
X151744352Y-101549247D01*
X151696733Y-101644485D01*
X151696733Y-101834962D01*
X151744352Y-101930200D01*
X151791971Y-101977819D01*
X151887210Y-102025438D01*
X151791971Y-100692104D02*
X151839590Y-100549247D01*
X151887210Y-100501628D01*
X151982448Y-100454009D01*
X152125305Y-100454009D01*
X152220543Y-100501628D01*
X152268162Y-100549247D01*
X152315781Y-100644485D01*
X152315781Y-101025438D01*
X151315781Y-101025438D01*
X151315781Y-100692104D01*
X151363400Y-100596866D01*
X151411019Y-100549247D01*
X151506257Y-100501628D01*
X151601495Y-100501628D01*
X151696733Y-100549247D01*
X151744352Y-100596866D01*
X151791971Y-100692104D01*
X151791971Y-101025438D01*
X151315781Y-99549247D02*
X151315781Y-100025438D01*
X151791971Y-100073057D01*
X151744352Y-100025438D01*
X151696733Y-99930200D01*
X151696733Y-99692104D01*
X151744352Y-99596866D01*
X151791971Y-99549247D01*
X151887210Y-99501628D01*
X152125305Y-99501628D01*
X152220543Y-99549247D01*
X152268162Y-99596866D01*
X152315781Y-99692104D01*
X152315781Y-99930200D01*
X152268162Y-100025438D01*
X152220543Y-100073057D01*
X152315781Y-99025438D02*
X152315781Y-98834962D01*
X152268162Y-98739723D01*
X152220543Y-98692104D01*
X152077686Y-98596866D01*
X151887210Y-98549247D01*
X151506257Y-98549247D01*
X151411019Y-98596866D01*
X151363400Y-98644485D01*
X151315781Y-98739723D01*
X151315781Y-98930200D01*
X151363400Y-99025438D01*
X151411019Y-99073057D01*
X151506257Y-99120676D01*
X151744352Y-99120676D01*
X151839590Y-99073057D01*
X151887210Y-99025438D01*
X151934829Y-98930200D01*
X151934829Y-98739723D01*
X151887210Y-98644485D01*
X151839590Y-98596866D01*
X151744352Y-98549247D01*
X151315781Y-97644485D02*
X151315781Y-98120676D01*
X151791971Y-98168295D01*
X151744352Y-98120676D01*
X151696733Y-98025438D01*
X151696733Y-97787342D01*
X151744352Y-97692104D01*
X151791971Y-97644485D01*
X151887210Y-97596866D01*
X152125305Y-97596866D01*
X152220543Y-97644485D01*
X152268162Y-97692104D01*
X152315781Y-97787342D01*
X152315781Y-98025438D01*
X152268162Y-98120676D01*
X152220543Y-98168295D01*
X135699595Y-100753281D02*
X135699595Y-101562805D01*
X135747214Y-101658043D01*
X135794833Y-101705662D01*
X135890071Y-101753281D01*
X136080548Y-101753281D01*
X136175786Y-101705662D01*
X136223405Y-101658043D01*
X136271024Y-101562805D01*
X136271024Y-100753281D01*
X137223405Y-100753281D02*
X136747214Y-100753281D01*
X136699595Y-101229471D01*
X136747214Y-101181852D01*
X136842452Y-101134233D01*
X137080548Y-101134233D01*
X137175786Y-101181852D01*
X137223405Y-101229471D01*
X137271024Y-101324710D01*
X137271024Y-101562805D01*
X137223405Y-101658043D01*
X137175786Y-101705662D01*
X137080548Y-101753281D01*
X136842452Y-101753281D01*
X136747214Y-101705662D01*
X136699595Y-101658043D01*
X136013881Y-112729471D02*
X136013881Y-112158042D01*
X137013881Y-112443757D02*
X136013881Y-112443757D01*
X137013881Y-111824709D02*
X136013881Y-111824709D01*
X136013881Y-111443756D01*
X136061500Y-111348518D01*
X136109119Y-111300899D01*
X136204357Y-111253280D01*
X136347214Y-111253280D01*
X136442452Y-111300899D01*
X136490071Y-111348518D01*
X136537690Y-111443756D01*
X136537690Y-111824709D01*
X137013881Y-110824709D02*
X136013881Y-110824709D01*
X136918643Y-109777090D02*
X136966262Y-109824709D01*
X137013881Y-109967566D01*
X137013881Y-110062804D01*
X136966262Y-110205662D01*
X136871024Y-110300900D01*
X136775786Y-110348519D01*
X136585310Y-110396138D01*
X136442452Y-110396138D01*
X136251976Y-110348519D01*
X136156738Y-110300900D01*
X136061500Y-110205662D01*
X136013881Y-110062804D01*
X136013881Y-109967566D01*
X136061500Y-109824709D01*
X136109119Y-109777090D01*
X136013881Y-108919947D02*
X136013881Y-109110424D01*
X136061500Y-109205662D01*
X136109119Y-109253281D01*
X136251976Y-109348519D01*
X136442452Y-109396138D01*
X136823405Y-109396138D01*
X136918643Y-109348519D01*
X136966262Y-109300900D01*
X137013881Y-109205662D01*
X137013881Y-109015185D01*
X136966262Y-108919947D01*
X136918643Y-108872328D01*
X136823405Y-108824709D01*
X136585310Y-108824709D01*
X136490071Y-108872328D01*
X136442452Y-108919947D01*
X136394833Y-109015185D01*
X136394833Y-109205662D01*
X136442452Y-109300900D01*
X136490071Y-109348519D01*
X136585310Y-109396138D01*
X136490071Y-108062804D02*
X136537690Y-107919947D01*
X136585310Y-107872328D01*
X136680548Y-107824709D01*
X136823405Y-107824709D01*
X136918643Y-107872328D01*
X136966262Y-107919947D01*
X137013881Y-108015185D01*
X137013881Y-108396138D01*
X136013881Y-108396138D01*
X136013881Y-108062804D01*
X136061500Y-107967566D01*
X136109119Y-107919947D01*
X136204357Y-107872328D01*
X136299595Y-107872328D01*
X136394833Y-107919947D01*
X136442452Y-107967566D01*
X136490071Y-108062804D01*
X136490071Y-108396138D01*
X136013881Y-106919947D02*
X136013881Y-107396138D01*
X136490071Y-107443757D01*
X136442452Y-107396138D01*
X136394833Y-107300900D01*
X136394833Y-107062804D01*
X136442452Y-106967566D01*
X136490071Y-106919947D01*
X136585310Y-106872328D01*
X136823405Y-106872328D01*
X136918643Y-106919947D01*
X136966262Y-106967566D01*
X137013881Y-107062804D01*
X137013881Y-107300900D01*
X136966262Y-107396138D01*
X136918643Y-107443757D01*
X137013881Y-106396138D02*
X137013881Y-106205662D01*
X136966262Y-106110423D01*
X136918643Y-106062804D01*
X136775786Y-105967566D01*
X136585310Y-105919947D01*
X136204357Y-105919947D01*
X136109119Y-105967566D01*
X136061500Y-106015185D01*
X136013881Y-106110423D01*
X136013881Y-106300900D01*
X136061500Y-106396138D01*
X136109119Y-106443757D01*
X136204357Y-106491376D01*
X136442452Y-106491376D01*
X136537690Y-106443757D01*
X136585310Y-106396138D01*
X136632929Y-106300900D01*
X136632929Y-106110423D01*
X136585310Y-106015185D01*
X136537690Y-105967566D01*
X136442452Y-105919947D01*
X136013881Y-105015185D02*
X136013881Y-105491376D01*
X136490071Y-105538995D01*
X136442452Y-105491376D01*
X136394833Y-105396138D01*
X136394833Y-105158042D01*
X136442452Y-105062804D01*
X136490071Y-105015185D01*
X136585310Y-104967566D01*
X136823405Y-104967566D01*
X136918643Y-105015185D01*
X136966262Y-105062804D01*
X137013881Y-105158042D01*
X137013881Y-105396138D01*
X136966262Y-105491376D01*
X136918643Y-105538995D01*
X115865676Y-58397181D02*
X116199009Y-59397181D01*
X116532343Y-58397181D01*
X117437105Y-59397181D02*
X117103771Y-58920990D01*
X116865676Y-59397181D02*
X116865676Y-58397181D01*
X117246629Y-58397181D01*
X117341867Y-58444800D01*
X117389486Y-58492419D01*
X117437105Y-58587657D01*
X117437105Y-58730514D01*
X117389486Y-58825752D01*
X117341867Y-58873371D01*
X117246629Y-58920990D01*
X116865676Y-58920990D01*
X118389486Y-59397181D02*
X117818057Y-59397181D01*
X118103771Y-59397181D02*
X118103771Y-58397181D01*
X118008533Y-58540038D01*
X117913295Y-58635276D01*
X117818057Y-58682895D01*
X115817819Y-71060781D02*
X115246390Y-71060781D01*
X115532104Y-71060781D02*
X115532104Y-70060781D01*
X115436866Y-70203638D01*
X115341628Y-70298876D01*
X115246390Y-70346495D01*
X116246390Y-71060781D02*
X116246390Y-70060781D01*
X116341628Y-70679829D02*
X116627343Y-71060781D01*
X116627343Y-70394114D02*
X116246390Y-70775067D01*
X117817819Y-71060781D02*
X117817819Y-70060781D01*
X118151153Y-70775067D01*
X118484486Y-70060781D01*
X118484486Y-71060781D01*
X118817819Y-70060781D02*
X119389248Y-70060781D01*
X119103533Y-71060781D02*
X119103533Y-70060781D01*
X177150805Y-147099281D02*
X177150805Y-146099281D01*
X177531758Y-146099281D01*
X177626996Y-146146900D01*
X177674615Y-146194519D01*
X177722234Y-146289757D01*
X177722234Y-146432614D01*
X177674615Y-146527852D01*
X177626996Y-146575471D01*
X177531758Y-146623090D01*
X177150805Y-146623090D01*
X178198424Y-147099281D02*
X178388900Y-147099281D01*
X178484139Y-147051662D01*
X178531758Y-147004043D01*
X178626996Y-146861186D01*
X178674615Y-146670710D01*
X178674615Y-146289757D01*
X178626996Y-146194519D01*
X178579377Y-146146900D01*
X178484139Y-146099281D01*
X178293662Y-146099281D01*
X178198424Y-146146900D01*
X178150805Y-146194519D01*
X178103186Y-146289757D01*
X178103186Y-146527852D01*
X178150805Y-146623090D01*
X178198424Y-146670710D01*
X178293662Y-146718329D01*
X178484139Y-146718329D01*
X178579377Y-146670710D01*
X178626996Y-146623090D01*
X178674615Y-146527852D01*
X163647381Y-106351295D02*
X162647381Y-106351295D01*
X162647381Y-105970342D01*
X162695000Y-105875104D01*
X162742619Y-105827485D01*
X162837857Y-105779866D01*
X162980714Y-105779866D01*
X163075952Y-105827485D01*
X163123571Y-105875104D01*
X163171190Y-105970342D01*
X163171190Y-106351295D01*
X163075952Y-105208438D02*
X163028333Y-105303676D01*
X162980714Y-105351295D01*
X162885476Y-105398914D01*
X162837857Y-105398914D01*
X162742619Y-105351295D01*
X162695000Y-105303676D01*
X162647381Y-105208438D01*
X162647381Y-105017961D01*
X162695000Y-104922723D01*
X162742619Y-104875104D01*
X162837857Y-104827485D01*
X162885476Y-104827485D01*
X162980714Y-104875104D01*
X163028333Y-104922723D01*
X163075952Y-105017961D01*
X163075952Y-105208438D01*
X163123571Y-105303676D01*
X163171190Y-105351295D01*
X163266429Y-105398914D01*
X163456905Y-105398914D01*
X163552143Y-105351295D01*
X163599762Y-105303676D01*
X163647381Y-105208438D01*
X163647381Y-105017961D01*
X163599762Y-104922723D01*
X163552143Y-104875104D01*
X163456905Y-104827485D01*
X163266429Y-104827485D01*
X163171190Y-104875104D01*
X163123571Y-104922723D01*
X163075952Y-105017961D01*
X116573395Y-71949181D02*
X116573395Y-72758705D01*
X116621014Y-72853943D01*
X116668633Y-72901562D01*
X116763871Y-72949181D01*
X116954348Y-72949181D01*
X117049586Y-72901562D01*
X117097205Y-72853943D01*
X117144824Y-72758705D01*
X117144824Y-71949181D01*
X117525776Y-71949181D02*
X118192443Y-71949181D01*
X117763871Y-72949181D01*
X113168634Y-79949181D02*
X112692443Y-79949181D01*
X112692443Y-78949181D01*
X113501967Y-79949181D02*
X113501967Y-78949181D01*
X113882920Y-78949181D01*
X113978158Y-78996800D01*
X114025777Y-79044419D01*
X114073396Y-79139657D01*
X114073396Y-79282514D01*
X114025777Y-79377752D01*
X113978158Y-79425371D01*
X113882920Y-79472990D01*
X113501967Y-79472990D01*
X114454348Y-79044419D02*
X114501967Y-78996800D01*
X114597205Y-78949181D01*
X114835301Y-78949181D01*
X114930539Y-78996800D01*
X114978158Y-79044419D01*
X115025777Y-79139657D01*
X115025777Y-79234895D01*
X114978158Y-79377752D01*
X114406729Y-79949181D01*
X115025777Y-79949181D01*
X115501967Y-79949181D02*
X115692443Y-79949181D01*
X115787682Y-79901562D01*
X115835301Y-79853943D01*
X115930539Y-79711086D01*
X115978158Y-79520610D01*
X115978158Y-79139657D01*
X115930539Y-79044419D01*
X115882920Y-78996800D01*
X115787682Y-78949181D01*
X115597205Y-78949181D01*
X115501967Y-78996800D01*
X115454348Y-79044419D01*
X115406729Y-79139657D01*
X115406729Y-79377752D01*
X115454348Y-79472990D01*
X115501967Y-79520610D01*
X115597205Y-79568229D01*
X115787682Y-79568229D01*
X115882920Y-79520610D01*
X115930539Y-79472990D01*
X115978158Y-79377752D01*
X116882920Y-78949181D02*
X116406729Y-78949181D01*
X116359110Y-79425371D01*
X116406729Y-79377752D01*
X116501967Y-79330133D01*
X116740063Y-79330133D01*
X116835301Y-79377752D01*
X116882920Y-79425371D01*
X116930539Y-79520610D01*
X116930539Y-79758705D01*
X116882920Y-79853943D01*
X116835301Y-79901562D01*
X116740063Y-79949181D01*
X116501967Y-79949181D01*
X116406729Y-79901562D01*
X116359110Y-79853943D01*
X117882920Y-79949181D02*
X117311491Y-79949181D01*
X117597205Y-79949181D02*
X117597205Y-78949181D01*
X117501967Y-79092038D01*
X117406729Y-79187276D01*
X117311491Y-79234895D01*
X118311491Y-79568229D02*
X119073396Y-79568229D01*
X120025777Y-78949181D02*
X119549586Y-78949181D01*
X119501967Y-79425371D01*
X119549586Y-79377752D01*
X119644824Y-79330133D01*
X119882920Y-79330133D01*
X119978158Y-79377752D01*
X120025777Y-79425371D01*
X120073396Y-79520610D01*
X120073396Y-79758705D01*
X120025777Y-79853943D01*
X119978158Y-79901562D01*
X119882920Y-79949181D01*
X119644824Y-79949181D01*
X119549586Y-79901562D01*
X119501967Y-79853943D01*
X120692443Y-78949181D02*
X120787682Y-78949181D01*
X120882920Y-78996800D01*
X120930539Y-79044419D01*
X120978158Y-79139657D01*
X121025777Y-79330133D01*
X121025777Y-79568229D01*
X120978158Y-79758705D01*
X120930539Y-79853943D01*
X120882920Y-79901562D01*
X120787682Y-79949181D01*
X120692443Y-79949181D01*
X120597205Y-79901562D01*
X120549586Y-79853943D01*
X120501967Y-79758705D01*
X120454348Y-79568229D01*
X120454348Y-79330133D01*
X120501967Y-79139657D01*
X120549586Y-79044419D01*
X120597205Y-78996800D01*
X120692443Y-78949181D01*
X121454348Y-79949181D02*
X121454348Y-78949181D01*
X121692443Y-78949181D01*
X121835301Y-78996800D01*
X121930539Y-79092038D01*
X121978158Y-79187276D01*
X122025777Y-79377752D01*
X122025777Y-79520610D01*
X121978158Y-79711086D01*
X121930539Y-79806324D01*
X121835301Y-79901562D01*
X121692443Y-79949181D01*
X121454348Y-79949181D01*
X149234781Y-62737905D02*
X149234781Y-62166476D01*
X150234781Y-62452191D02*
X149234781Y-62452191D01*
X149330019Y-61880762D02*
X149282400Y-61833143D01*
X149234781Y-61737905D01*
X149234781Y-61499809D01*
X149282400Y-61404571D01*
X149330019Y-61356952D01*
X149425257Y-61309333D01*
X149520495Y-61309333D01*
X149663352Y-61356952D01*
X150234781Y-61928381D01*
X150234781Y-61309333D01*
X158135581Y-88025195D02*
X157135581Y-88025195D01*
X158135581Y-87453766D02*
X157564152Y-87882338D01*
X157135581Y-87453766D02*
X157707010Y-88025195D01*
X158135581Y-86501385D02*
X158135581Y-87072814D01*
X158135581Y-86787100D02*
X157135581Y-86787100D01*
X157278438Y-86882338D01*
X157373676Y-86977576D01*
X157421295Y-87072814D01*
X155595581Y-89453767D02*
X154595581Y-89453767D01*
X154595581Y-89215672D01*
X154643200Y-89072814D01*
X154738438Y-88977576D01*
X154833676Y-88929957D01*
X155024152Y-88882338D01*
X155167010Y-88882338D01*
X155357486Y-88929957D01*
X155452724Y-88977576D01*
X155547962Y-89072814D01*
X155595581Y-89215672D01*
X155595581Y-89453767D01*
X154595581Y-88549005D02*
X154595581Y-87929957D01*
X154976533Y-88263291D01*
X154976533Y-88120433D01*
X155024152Y-88025195D01*
X155071771Y-87977576D01*
X155167010Y-87929957D01*
X155405105Y-87929957D01*
X155500343Y-87977576D01*
X155547962Y-88025195D01*
X155595581Y-88120433D01*
X155595581Y-88406148D01*
X155547962Y-88501386D01*
X155500343Y-88549005D01*
X154595581Y-87310910D02*
X154595581Y-87215671D01*
X154643200Y-87120433D01*
X154690819Y-87072814D01*
X154786057Y-87025195D01*
X154976533Y-86977576D01*
X155214629Y-86977576D01*
X155405105Y-87025195D01*
X155500343Y-87072814D01*
X155547962Y-87120433D01*
X155595581Y-87215671D01*
X155595581Y-87310910D01*
X155547962Y-87406148D01*
X155500343Y-87453767D01*
X155405105Y-87501386D01*
X155214629Y-87549005D01*
X154976533Y-87549005D01*
X154786057Y-87501386D01*
X154690819Y-87453767D01*
X154643200Y-87406148D01*
X154595581Y-87310910D01*
X154595581Y-86358529D02*
X154595581Y-86263290D01*
X154643200Y-86168052D01*
X154690819Y-86120433D01*
X154786057Y-86072814D01*
X154976533Y-86025195D01*
X155214629Y-86025195D01*
X155405105Y-86072814D01*
X155500343Y-86120433D01*
X155547962Y-86168052D01*
X155595581Y-86263290D01*
X155595581Y-86358529D01*
X155547962Y-86453767D01*
X155500343Y-86501386D01*
X155405105Y-86549005D01*
X155214629Y-86596624D01*
X154976533Y-86596624D01*
X154786057Y-86549005D01*
X154690819Y-86501386D01*
X154643200Y-86453767D01*
X154595581Y-86358529D01*
X154690819Y-85644243D02*
X154643200Y-85596624D01*
X154595581Y-85501386D01*
X154595581Y-85263290D01*
X154643200Y-85168052D01*
X154690819Y-85120433D01*
X154786057Y-85072814D01*
X154881295Y-85072814D01*
X155024152Y-85120433D01*
X155595581Y-85691862D01*
X155595581Y-85072814D01*
X169988005Y-63761881D02*
X169988005Y-62761881D01*
X170559434Y-63761881D02*
X170130862Y-63190452D01*
X170559434Y-62761881D02*
X169988005Y-63333310D01*
X170940386Y-62857119D02*
X170988005Y-62809500D01*
X171083243Y-62761881D01*
X171321339Y-62761881D01*
X171416577Y-62809500D01*
X171464196Y-62857119D01*
X171511815Y-62952357D01*
X171511815Y-63047595D01*
X171464196Y-63190452D01*
X170892767Y-63761881D01*
X171511815Y-63761881D01*
X168559433Y-66301881D02*
X168559433Y-65301881D01*
X168797528Y-65301881D01*
X168940386Y-65349500D01*
X169035624Y-65444738D01*
X169083243Y-65539976D01*
X169130862Y-65730452D01*
X169130862Y-65873310D01*
X169083243Y-66063786D01*
X169035624Y-66159024D01*
X168940386Y-66254262D01*
X168797528Y-66301881D01*
X168559433Y-66301881D01*
X169464195Y-65301881D02*
X170083243Y-65301881D01*
X169749909Y-65682833D01*
X169892767Y-65682833D01*
X169988005Y-65730452D01*
X170035624Y-65778071D01*
X170083243Y-65873310D01*
X170083243Y-66111405D01*
X170035624Y-66206643D01*
X169988005Y-66254262D01*
X169892767Y-66301881D01*
X169607052Y-66301881D01*
X169511814Y-66254262D01*
X169464195Y-66206643D01*
X170702290Y-65301881D02*
X170797529Y-65301881D01*
X170892767Y-65349500D01*
X170940386Y-65397119D01*
X170988005Y-65492357D01*
X171035624Y-65682833D01*
X171035624Y-65920929D01*
X170988005Y-66111405D01*
X170940386Y-66206643D01*
X170892767Y-66254262D01*
X170797529Y-66301881D01*
X170702290Y-66301881D01*
X170607052Y-66254262D01*
X170559433Y-66206643D01*
X170511814Y-66111405D01*
X170464195Y-65920929D01*
X170464195Y-65682833D01*
X170511814Y-65492357D01*
X170559433Y-65397119D01*
X170607052Y-65349500D01*
X170702290Y-65301881D01*
X171654671Y-65301881D02*
X171749910Y-65301881D01*
X171845148Y-65349500D01*
X171892767Y-65397119D01*
X171940386Y-65492357D01*
X171988005Y-65682833D01*
X171988005Y-65920929D01*
X171940386Y-66111405D01*
X171892767Y-66206643D01*
X171845148Y-66254262D01*
X171749910Y-66301881D01*
X171654671Y-66301881D01*
X171559433Y-66254262D01*
X171511814Y-66206643D01*
X171464195Y-66111405D01*
X171416576Y-65920929D01*
X171416576Y-65682833D01*
X171464195Y-65492357D01*
X171511814Y-65397119D01*
X171559433Y-65349500D01*
X171654671Y-65301881D01*
X172368957Y-65397119D02*
X172416576Y-65349500D01*
X172511814Y-65301881D01*
X172749910Y-65301881D01*
X172845148Y-65349500D01*
X172892767Y-65397119D01*
X172940386Y-65492357D01*
X172940386Y-65587595D01*
X172892767Y-65730452D01*
X172321338Y-66301881D01*
X172940386Y-66301881D01*
X172257981Y-81090995D02*
X171257981Y-81090995D01*
X172257981Y-80519566D02*
X171686552Y-80948138D01*
X171257981Y-80519566D02*
X171829410Y-81090995D01*
X171257981Y-80186233D02*
X171257981Y-79567185D01*
X171638933Y-79900519D01*
X171638933Y-79757661D01*
X171686552Y-79662423D01*
X171734171Y-79614804D01*
X171829410Y-79567185D01*
X172067505Y-79567185D01*
X172162743Y-79614804D01*
X172210362Y-79662423D01*
X172257981Y-79757661D01*
X172257981Y-80043376D01*
X172210362Y-80138614D01*
X172162743Y-80186233D01*
X169717981Y-82519567D02*
X168717981Y-82519567D01*
X168717981Y-82281472D01*
X168765600Y-82138614D01*
X168860838Y-82043376D01*
X168956076Y-81995757D01*
X169146552Y-81948138D01*
X169289410Y-81948138D01*
X169479886Y-81995757D01*
X169575124Y-82043376D01*
X169670362Y-82138614D01*
X169717981Y-82281472D01*
X169717981Y-82519567D01*
X168717981Y-81614805D02*
X168717981Y-80995757D01*
X169098933Y-81329091D01*
X169098933Y-81186233D01*
X169146552Y-81090995D01*
X169194171Y-81043376D01*
X169289410Y-80995757D01*
X169527505Y-80995757D01*
X169622743Y-81043376D01*
X169670362Y-81090995D01*
X169717981Y-81186233D01*
X169717981Y-81471948D01*
X169670362Y-81567186D01*
X169622743Y-81614805D01*
X168717981Y-80376710D02*
X168717981Y-80281471D01*
X168765600Y-80186233D01*
X168813219Y-80138614D01*
X168908457Y-80090995D01*
X169098933Y-80043376D01*
X169337029Y-80043376D01*
X169527505Y-80090995D01*
X169622743Y-80138614D01*
X169670362Y-80186233D01*
X169717981Y-80281471D01*
X169717981Y-80376710D01*
X169670362Y-80471948D01*
X169622743Y-80519567D01*
X169527505Y-80567186D01*
X169337029Y-80614805D01*
X169098933Y-80614805D01*
X168908457Y-80567186D01*
X168813219Y-80519567D01*
X168765600Y-80471948D01*
X168717981Y-80376710D01*
X168717981Y-79424329D02*
X168717981Y-79329090D01*
X168765600Y-79233852D01*
X168813219Y-79186233D01*
X168908457Y-79138614D01*
X169098933Y-79090995D01*
X169337029Y-79090995D01*
X169527505Y-79138614D01*
X169622743Y-79186233D01*
X169670362Y-79233852D01*
X169717981Y-79329090D01*
X169717981Y-79424329D01*
X169670362Y-79519567D01*
X169622743Y-79567186D01*
X169527505Y-79614805D01*
X169337029Y-79662424D01*
X169098933Y-79662424D01*
X168908457Y-79614805D01*
X168813219Y-79567186D01*
X168765600Y-79519567D01*
X168717981Y-79424329D01*
X168813219Y-78710043D02*
X168765600Y-78662424D01*
X168717981Y-78567186D01*
X168717981Y-78329090D01*
X168765600Y-78233852D01*
X168813219Y-78186233D01*
X168908457Y-78138614D01*
X169003695Y-78138614D01*
X169146552Y-78186233D01*
X169717981Y-78757662D01*
X169717981Y-78138614D01*
X172207181Y-97245395D02*
X171207181Y-97245395D01*
X172207181Y-96673966D02*
X171635752Y-97102538D01*
X171207181Y-96673966D02*
X171778610Y-97245395D01*
X171540514Y-95816823D02*
X172207181Y-95816823D01*
X171159562Y-96054919D02*
X171873848Y-96293014D01*
X171873848Y-95673966D01*
X169667181Y-98673967D02*
X168667181Y-98673967D01*
X168667181Y-98435872D01*
X168714800Y-98293014D01*
X168810038Y-98197776D01*
X168905276Y-98150157D01*
X169095752Y-98102538D01*
X169238610Y-98102538D01*
X169429086Y-98150157D01*
X169524324Y-98197776D01*
X169619562Y-98293014D01*
X169667181Y-98435872D01*
X169667181Y-98673967D01*
X168667181Y-97769205D02*
X168667181Y-97150157D01*
X169048133Y-97483491D01*
X169048133Y-97340633D01*
X169095752Y-97245395D01*
X169143371Y-97197776D01*
X169238610Y-97150157D01*
X169476705Y-97150157D01*
X169571943Y-97197776D01*
X169619562Y-97245395D01*
X169667181Y-97340633D01*
X169667181Y-97626348D01*
X169619562Y-97721586D01*
X169571943Y-97769205D01*
X168667181Y-96531110D02*
X168667181Y-96435871D01*
X168714800Y-96340633D01*
X168762419Y-96293014D01*
X168857657Y-96245395D01*
X169048133Y-96197776D01*
X169286229Y-96197776D01*
X169476705Y-96245395D01*
X169571943Y-96293014D01*
X169619562Y-96340633D01*
X169667181Y-96435871D01*
X169667181Y-96531110D01*
X169619562Y-96626348D01*
X169571943Y-96673967D01*
X169476705Y-96721586D01*
X169286229Y-96769205D01*
X169048133Y-96769205D01*
X168857657Y-96721586D01*
X168762419Y-96673967D01*
X168714800Y-96626348D01*
X168667181Y-96531110D01*
X168667181Y-95578729D02*
X168667181Y-95483490D01*
X168714800Y-95388252D01*
X168762419Y-95340633D01*
X168857657Y-95293014D01*
X169048133Y-95245395D01*
X169286229Y-95245395D01*
X169476705Y-95293014D01*
X169571943Y-95340633D01*
X169619562Y-95388252D01*
X169667181Y-95483490D01*
X169667181Y-95578729D01*
X169619562Y-95673967D01*
X169571943Y-95721586D01*
X169476705Y-95769205D01*
X169286229Y-95816824D01*
X169048133Y-95816824D01*
X168857657Y-95769205D01*
X168762419Y-95721586D01*
X168714800Y-95673967D01*
X168667181Y-95578729D01*
X168762419Y-94864443D02*
X168714800Y-94816824D01*
X168667181Y-94721586D01*
X168667181Y-94483490D01*
X168714800Y-94388252D01*
X168762419Y-94340633D01*
X168857657Y-94293014D01*
X168952895Y-94293014D01*
X169095752Y-94340633D01*
X169667181Y-94912062D01*
X169667181Y-94293014D01*
X172410381Y-113996695D02*
X171410381Y-113996695D01*
X172410381Y-113425266D02*
X171838952Y-113853838D01*
X171410381Y-113425266D02*
X171981810Y-113996695D01*
X171410381Y-112520504D02*
X171410381Y-112996695D01*
X171886571Y-113044314D01*
X171838952Y-112996695D01*
X171791333Y-112901457D01*
X171791333Y-112663361D01*
X171838952Y-112568123D01*
X171886571Y-112520504D01*
X171981810Y-112472885D01*
X172219905Y-112472885D01*
X172315143Y-112520504D01*
X172362762Y-112568123D01*
X172410381Y-112663361D01*
X172410381Y-112901457D01*
X172362762Y-112996695D01*
X172315143Y-113044314D01*
X169870381Y-115425267D02*
X168870381Y-115425267D01*
X168870381Y-115187172D01*
X168918000Y-115044314D01*
X169013238Y-114949076D01*
X169108476Y-114901457D01*
X169298952Y-114853838D01*
X169441810Y-114853838D01*
X169632286Y-114901457D01*
X169727524Y-114949076D01*
X169822762Y-115044314D01*
X169870381Y-115187172D01*
X169870381Y-115425267D01*
X168870381Y-114520505D02*
X168870381Y-113901457D01*
X169251333Y-114234791D01*
X169251333Y-114091933D01*
X169298952Y-113996695D01*
X169346571Y-113949076D01*
X169441810Y-113901457D01*
X169679905Y-113901457D01*
X169775143Y-113949076D01*
X169822762Y-113996695D01*
X169870381Y-114091933D01*
X169870381Y-114377648D01*
X169822762Y-114472886D01*
X169775143Y-114520505D01*
X168870381Y-113282410D02*
X168870381Y-113187171D01*
X168918000Y-113091933D01*
X168965619Y-113044314D01*
X169060857Y-112996695D01*
X169251333Y-112949076D01*
X169489429Y-112949076D01*
X169679905Y-112996695D01*
X169775143Y-113044314D01*
X169822762Y-113091933D01*
X169870381Y-113187171D01*
X169870381Y-113282410D01*
X169822762Y-113377648D01*
X169775143Y-113425267D01*
X169679905Y-113472886D01*
X169489429Y-113520505D01*
X169251333Y-113520505D01*
X169060857Y-113472886D01*
X168965619Y-113425267D01*
X168918000Y-113377648D01*
X168870381Y-113282410D01*
X168870381Y-112330029D02*
X168870381Y-112234790D01*
X168918000Y-112139552D01*
X168965619Y-112091933D01*
X169060857Y-112044314D01*
X169251333Y-111996695D01*
X169489429Y-111996695D01*
X169679905Y-112044314D01*
X169775143Y-112091933D01*
X169822762Y-112139552D01*
X169870381Y-112234790D01*
X169870381Y-112330029D01*
X169822762Y-112425267D01*
X169775143Y-112472886D01*
X169679905Y-112520505D01*
X169489429Y-112568124D01*
X169251333Y-112568124D01*
X169060857Y-112520505D01*
X168965619Y-112472886D01*
X168918000Y-112425267D01*
X168870381Y-112330029D01*
X168965619Y-111615743D02*
X168918000Y-111568124D01*
X168870381Y-111472886D01*
X168870381Y-111234790D01*
X168918000Y-111139552D01*
X168965619Y-111091933D01*
X169060857Y-111044314D01*
X169156095Y-111044314D01*
X169298952Y-111091933D01*
X169870381Y-111663362D01*
X169870381Y-111044314D01*
X172588181Y-130265395D02*
X171588181Y-130265395D01*
X172588181Y-129693966D02*
X172016752Y-130122538D01*
X171588181Y-129693966D02*
X172159610Y-130265395D01*
X171588181Y-128836823D02*
X171588181Y-129027300D01*
X171635800Y-129122538D01*
X171683419Y-129170157D01*
X171826276Y-129265395D01*
X172016752Y-129313014D01*
X172397705Y-129313014D01*
X172492943Y-129265395D01*
X172540562Y-129217776D01*
X172588181Y-129122538D01*
X172588181Y-128932061D01*
X172540562Y-128836823D01*
X172492943Y-128789204D01*
X172397705Y-128741585D01*
X172159610Y-128741585D01*
X172064371Y-128789204D01*
X172016752Y-128836823D01*
X171969133Y-128932061D01*
X171969133Y-129122538D01*
X172016752Y-129217776D01*
X172064371Y-129265395D01*
X172159610Y-129313014D01*
X170048181Y-131693967D02*
X169048181Y-131693967D01*
X169048181Y-131455872D01*
X169095800Y-131313014D01*
X169191038Y-131217776D01*
X169286276Y-131170157D01*
X169476752Y-131122538D01*
X169619610Y-131122538D01*
X169810086Y-131170157D01*
X169905324Y-131217776D01*
X170000562Y-131313014D01*
X170048181Y-131455872D01*
X170048181Y-131693967D01*
X169048181Y-130789205D02*
X169048181Y-130170157D01*
X169429133Y-130503491D01*
X169429133Y-130360633D01*
X169476752Y-130265395D01*
X169524371Y-130217776D01*
X169619610Y-130170157D01*
X169857705Y-130170157D01*
X169952943Y-130217776D01*
X170000562Y-130265395D01*
X170048181Y-130360633D01*
X170048181Y-130646348D01*
X170000562Y-130741586D01*
X169952943Y-130789205D01*
X169048181Y-129551110D02*
X169048181Y-129455871D01*
X169095800Y-129360633D01*
X169143419Y-129313014D01*
X169238657Y-129265395D01*
X169429133Y-129217776D01*
X169667229Y-129217776D01*
X169857705Y-129265395D01*
X169952943Y-129313014D01*
X170000562Y-129360633D01*
X170048181Y-129455871D01*
X170048181Y-129551110D01*
X170000562Y-129646348D01*
X169952943Y-129693967D01*
X169857705Y-129741586D01*
X169667229Y-129789205D01*
X169429133Y-129789205D01*
X169238657Y-129741586D01*
X169143419Y-129693967D01*
X169095800Y-129646348D01*
X169048181Y-129551110D01*
X169048181Y-128598729D02*
X169048181Y-128503490D01*
X169095800Y-128408252D01*
X169143419Y-128360633D01*
X169238657Y-128313014D01*
X169429133Y-128265395D01*
X169667229Y-128265395D01*
X169857705Y-128313014D01*
X169952943Y-128360633D01*
X170000562Y-128408252D01*
X170048181Y-128503490D01*
X170048181Y-128598729D01*
X170000562Y-128693967D01*
X169952943Y-128741586D01*
X169857705Y-128789205D01*
X169667229Y-128836824D01*
X169429133Y-128836824D01*
X169238657Y-128789205D01*
X169143419Y-128741586D01*
X169095800Y-128693967D01*
X169048181Y-128598729D01*
X169143419Y-127884443D02*
X169095800Y-127836824D01*
X169048181Y-127741586D01*
X169048181Y-127503490D01*
X169095800Y-127408252D01*
X169143419Y-127360633D01*
X169238657Y-127313014D01*
X169333895Y-127313014D01*
X169476752Y-127360633D01*
X170048181Y-127932062D01*
X170048181Y-127313014D01*
X123022943Y-69356666D02*
X123070562Y-69404285D01*
X123118181Y-69547142D01*
X123118181Y-69642380D01*
X123070562Y-69785238D01*
X122975324Y-69880476D01*
X122880086Y-69928095D01*
X122689610Y-69975714D01*
X122546752Y-69975714D01*
X122356276Y-69928095D01*
X122261038Y-69880476D01*
X122165800Y-69785238D01*
X122118181Y-69642380D01*
X122118181Y-69547142D01*
X122165800Y-69404285D01*
X122213419Y-69356666D01*
X122118181Y-69023333D02*
X122118181Y-68404285D01*
X122499133Y-68737619D01*
X122499133Y-68594761D01*
X122546752Y-68499523D01*
X122594371Y-68451904D01*
X122689610Y-68404285D01*
X122927705Y-68404285D01*
X123022943Y-68451904D01*
X123070562Y-68499523D01*
X123118181Y-68594761D01*
X123118181Y-68880476D01*
X123070562Y-68975714D01*
X123022943Y-69023333D01*
X115718434Y-82667543D02*
X115670815Y-82715162D01*
X115527958Y-82762781D01*
X115432720Y-82762781D01*
X115289862Y-82715162D01*
X115194624Y-82619924D01*
X115147005Y-82524686D01*
X115099386Y-82334210D01*
X115099386Y-82191352D01*
X115147005Y-82000876D01*
X115194624Y-81905638D01*
X115289862Y-81810400D01*
X115432720Y-81762781D01*
X115527958Y-81762781D01*
X115670815Y-81810400D01*
X115718434Y-81858019D01*
X116623196Y-81762781D02*
X116147005Y-81762781D01*
X116099386Y-82238971D01*
X116147005Y-82191352D01*
X116242243Y-82143733D01*
X116480339Y-82143733D01*
X116575577Y-82191352D01*
X116623196Y-82238971D01*
X116670815Y-82334210D01*
X116670815Y-82572305D01*
X116623196Y-82667543D01*
X116575577Y-82715162D01*
X116480339Y-82762781D01*
X116242243Y-82762781D01*
X116147005Y-82715162D01*
X116099386Y-82667543D01*
X124751234Y-68519043D02*
X124703615Y-68566662D01*
X124560758Y-68614281D01*
X124465520Y-68614281D01*
X124322662Y-68566662D01*
X124227424Y-68471424D01*
X124179805Y-68376186D01*
X124132186Y-68185710D01*
X124132186Y-68042852D01*
X124179805Y-67852376D01*
X124227424Y-67757138D01*
X124322662Y-67661900D01*
X124465520Y-67614281D01*
X124560758Y-67614281D01*
X124703615Y-67661900D01*
X124751234Y-67709519D01*
X125608377Y-67614281D02*
X125417900Y-67614281D01*
X125322662Y-67661900D01*
X125275043Y-67709519D01*
X125179805Y-67852376D01*
X125132186Y-68042852D01*
X125132186Y-68423805D01*
X125179805Y-68519043D01*
X125227424Y-68566662D01*
X125322662Y-68614281D01*
X125513139Y-68614281D01*
X125608377Y-68566662D01*
X125655996Y-68519043D01*
X125703615Y-68423805D01*
X125703615Y-68185710D01*
X125655996Y-68090471D01*
X125608377Y-68042852D01*
X125513139Y-67995233D01*
X125322662Y-67995233D01*
X125227424Y-68042852D01*
X125179805Y-68090471D01*
X125132186Y-68185710D01*
X121035743Y-82583643D02*
X120988124Y-82631262D01*
X120845267Y-82678881D01*
X120750029Y-82678881D01*
X120607171Y-82631262D01*
X120511933Y-82536024D01*
X120464314Y-82440786D01*
X120416695Y-82250310D01*
X120416695Y-82107452D01*
X120464314Y-81916976D01*
X120511933Y-81821738D01*
X120607171Y-81726500D01*
X120750029Y-81678881D01*
X120845267Y-81678881D01*
X120988124Y-81726500D01*
X121035743Y-81774119D01*
X121892886Y-82012214D02*
X121892886Y-82678881D01*
X121654790Y-81631262D02*
X121416695Y-82345548D01*
X122035743Y-82345548D01*
X122321457Y-81678881D02*
X122940505Y-81678881D01*
X122607171Y-82059833D01*
X122750029Y-82059833D01*
X122845267Y-82107452D01*
X122892886Y-82155071D01*
X122940505Y-82250310D01*
X122940505Y-82488405D01*
X122892886Y-82583643D01*
X122845267Y-82631262D01*
X122750029Y-82678881D01*
X122464314Y-82678881D01*
X122369076Y-82631262D01*
X122321457Y-82583643D01*
X120429343Y-109686057D02*
X120476962Y-109733676D01*
X120524581Y-109876533D01*
X120524581Y-109971771D01*
X120476962Y-110114629D01*
X120381724Y-110209867D01*
X120286486Y-110257486D01*
X120096010Y-110305105D01*
X119953152Y-110305105D01*
X119762676Y-110257486D01*
X119667438Y-110209867D01*
X119572200Y-110114629D01*
X119524581Y-109971771D01*
X119524581Y-109876533D01*
X119572200Y-109733676D01*
X119619819Y-109686057D01*
X119857914Y-108828914D02*
X120524581Y-108828914D01*
X119476962Y-109067010D02*
X120191248Y-109305105D01*
X120191248Y-108686057D01*
X119857914Y-107876533D02*
X120524581Y-107876533D01*
X119476962Y-108114629D02*
X120191248Y-108352724D01*
X120191248Y-107733676D01*
X157583143Y-142197057D02*
X157630762Y-142244676D01*
X157678381Y-142387533D01*
X157678381Y-142482771D01*
X157630762Y-142625629D01*
X157535524Y-142720867D01*
X157440286Y-142768486D01*
X157249810Y-142816105D01*
X157106952Y-142816105D01*
X156916476Y-142768486D01*
X156821238Y-142720867D01*
X156726000Y-142625629D01*
X156678381Y-142482771D01*
X156678381Y-142387533D01*
X156726000Y-142244676D01*
X156773619Y-142197057D01*
X157011714Y-141339914D02*
X157678381Y-141339914D01*
X156630762Y-141578010D02*
X157345048Y-141816105D01*
X157345048Y-141197057D01*
X156678381Y-140339914D02*
X156678381Y-140816105D01*
X157154571Y-140863724D01*
X157106952Y-140816105D01*
X157059333Y-140720867D01*
X157059333Y-140482771D01*
X157106952Y-140387533D01*
X157154571Y-140339914D01*
X157249810Y-140292295D01*
X157487905Y-140292295D01*
X157583143Y-140339914D01*
X157630762Y-140387533D01*
X157678381Y-140482771D01*
X157678381Y-140720867D01*
X157630762Y-140816105D01*
X157583143Y-140863724D01*
X131738643Y-143162257D02*
X131786262Y-143209876D01*
X131833881Y-143352733D01*
X131833881Y-143447971D01*
X131786262Y-143590829D01*
X131691024Y-143686067D01*
X131595786Y-143733686D01*
X131405310Y-143781305D01*
X131262452Y-143781305D01*
X131071976Y-143733686D01*
X130976738Y-143686067D01*
X130881500Y-143590829D01*
X130833881Y-143447971D01*
X130833881Y-143352733D01*
X130881500Y-143209876D01*
X130929119Y-143162257D01*
X131167214Y-142305114D02*
X131833881Y-142305114D01*
X130786262Y-142543210D02*
X131500548Y-142781305D01*
X131500548Y-142162257D01*
X130833881Y-141352733D02*
X130833881Y-141543210D01*
X130881500Y-141638448D01*
X130929119Y-141686067D01*
X131071976Y-141781305D01*
X131262452Y-141828924D01*
X131643405Y-141828924D01*
X131738643Y-141781305D01*
X131786262Y-141733686D01*
X131833881Y-141638448D01*
X131833881Y-141447971D01*
X131786262Y-141352733D01*
X131738643Y-141305114D01*
X131643405Y-141257495D01*
X131405310Y-141257495D01*
X131310071Y-141305114D01*
X131262452Y-141352733D01*
X131214833Y-141447971D01*
X131214833Y-141638448D01*
X131262452Y-141733686D01*
X131310071Y-141781305D01*
X131405310Y-141828924D01*
X115596943Y-128785857D02*
X115644562Y-128833476D01*
X115692181Y-128976333D01*
X115692181Y-129071571D01*
X115644562Y-129214429D01*
X115549324Y-129309667D01*
X115454086Y-129357286D01*
X115263610Y-129404905D01*
X115120752Y-129404905D01*
X114930276Y-129357286D01*
X114835038Y-129309667D01*
X114739800Y-129214429D01*
X114692181Y-129071571D01*
X114692181Y-128976333D01*
X114739800Y-128833476D01*
X114787419Y-128785857D01*
X115025514Y-127928714D02*
X115692181Y-127928714D01*
X114644562Y-128166810D02*
X115358848Y-128404905D01*
X115358848Y-127785857D01*
X114692181Y-127500143D02*
X114692181Y-126833476D01*
X115692181Y-127262048D01*
X133249943Y-127820657D02*
X133297562Y-127868276D01*
X133345181Y-128011133D01*
X133345181Y-128106371D01*
X133297562Y-128249229D01*
X133202324Y-128344467D01*
X133107086Y-128392086D01*
X132916610Y-128439705D01*
X132773752Y-128439705D01*
X132583276Y-128392086D01*
X132488038Y-128344467D01*
X132392800Y-128249229D01*
X132345181Y-128106371D01*
X132345181Y-128011133D01*
X132392800Y-127868276D01*
X132440419Y-127820657D01*
X132678514Y-126963514D02*
X133345181Y-126963514D01*
X132297562Y-127201610D02*
X133011848Y-127439705D01*
X133011848Y-126820657D01*
X132773752Y-126296848D02*
X132726133Y-126392086D01*
X132678514Y-126439705D01*
X132583276Y-126487324D01*
X132535657Y-126487324D01*
X132440419Y-126439705D01*
X132392800Y-126392086D01*
X132345181Y-126296848D01*
X132345181Y-126106371D01*
X132392800Y-126011133D01*
X132440419Y-125963514D01*
X132535657Y-125915895D01*
X132583276Y-125915895D01*
X132678514Y-125963514D01*
X132726133Y-126011133D01*
X132773752Y-126106371D01*
X132773752Y-126296848D01*
X132821371Y-126392086D01*
X132868990Y-126439705D01*
X132964229Y-126487324D01*
X133154705Y-126487324D01*
X133249943Y-126439705D01*
X133297562Y-126392086D01*
X133345181Y-126296848D01*
X133345181Y-126106371D01*
X133297562Y-126011133D01*
X133249943Y-125963514D01*
X133154705Y-125915895D01*
X132964229Y-125915895D01*
X132868990Y-125963514D01*
X132821371Y-126011133D01*
X132773752Y-126106371D01*
X108602543Y-104306643D02*
X108554924Y-104354262D01*
X108412067Y-104401881D01*
X108316829Y-104401881D01*
X108173971Y-104354262D01*
X108078733Y-104259024D01*
X108031114Y-104163786D01*
X107983495Y-103973310D01*
X107983495Y-103830452D01*
X108031114Y-103639976D01*
X108078733Y-103544738D01*
X108173971Y-103449500D01*
X108316829Y-103401881D01*
X108412067Y-103401881D01*
X108554924Y-103449500D01*
X108602543Y-103497119D01*
X109459686Y-103735214D02*
X109459686Y-104401881D01*
X109221590Y-103354262D02*
X108983495Y-104068548D01*
X109602543Y-104068548D01*
X110031114Y-104401881D02*
X110221590Y-104401881D01*
X110316829Y-104354262D01*
X110364448Y-104306643D01*
X110459686Y-104163786D01*
X110507305Y-103973310D01*
X110507305Y-103592357D01*
X110459686Y-103497119D01*
X110412067Y-103449500D01*
X110316829Y-103401881D01*
X110126352Y-103401881D01*
X110031114Y-103449500D01*
X109983495Y-103497119D01*
X109935876Y-103592357D01*
X109935876Y-103830452D01*
X109983495Y-103925690D01*
X110031114Y-103973310D01*
X110126352Y-104020929D01*
X110316829Y-104020929D01*
X110412067Y-103973310D01*
X110459686Y-103925690D01*
X110507305Y-103830452D01*
X146346943Y-136856743D02*
X146299324Y-136904362D01*
X146156467Y-136951981D01*
X146061229Y-136951981D01*
X145918371Y-136904362D01*
X145823133Y-136809124D01*
X145775514Y-136713886D01*
X145727895Y-136523410D01*
X145727895Y-136380552D01*
X145775514Y-136190076D01*
X145823133Y-136094838D01*
X145918371Y-135999600D01*
X146061229Y-135951981D01*
X146156467Y-135951981D01*
X146299324Y-135999600D01*
X146346943Y-136047219D01*
X147251705Y-135951981D02*
X146775514Y-135951981D01*
X146727895Y-136428171D01*
X146775514Y-136380552D01*
X146870752Y-136332933D01*
X147108848Y-136332933D01*
X147204086Y-136380552D01*
X147251705Y-136428171D01*
X147299324Y-136523410D01*
X147299324Y-136761505D01*
X147251705Y-136856743D01*
X147204086Y-136904362D01*
X147108848Y-136951981D01*
X146870752Y-136951981D01*
X146775514Y-136904362D01*
X146727895Y-136856743D01*
X147918371Y-135951981D02*
X148013610Y-135951981D01*
X148108848Y-135999600D01*
X148156467Y-136047219D01*
X148204086Y-136142457D01*
X148251705Y-136332933D01*
X148251705Y-136571029D01*
X148204086Y-136761505D01*
X148156467Y-136856743D01*
X148108848Y-136904362D01*
X148013610Y-136951981D01*
X147918371Y-136951981D01*
X147823133Y-136904362D01*
X147775514Y-136856743D01*
X147727895Y-136761505D01*
X147680276Y-136571029D01*
X147680276Y-136332933D01*
X147727895Y-136142457D01*
X147775514Y-136047219D01*
X147823133Y-135999600D01*
X147918371Y-135951981D01*
X120362743Y-137301243D02*
X120315124Y-137348862D01*
X120172267Y-137396481D01*
X120077029Y-137396481D01*
X119934171Y-137348862D01*
X119838933Y-137253624D01*
X119791314Y-137158386D01*
X119743695Y-136967910D01*
X119743695Y-136825052D01*
X119791314Y-136634576D01*
X119838933Y-136539338D01*
X119934171Y-136444100D01*
X120077029Y-136396481D01*
X120172267Y-136396481D01*
X120315124Y-136444100D01*
X120362743Y-136491719D01*
X121267505Y-136396481D02*
X120791314Y-136396481D01*
X120743695Y-136872671D01*
X120791314Y-136825052D01*
X120886552Y-136777433D01*
X121124648Y-136777433D01*
X121219886Y-136825052D01*
X121267505Y-136872671D01*
X121315124Y-136967910D01*
X121315124Y-137206005D01*
X121267505Y-137301243D01*
X121219886Y-137348862D01*
X121124648Y-137396481D01*
X120886552Y-137396481D01*
X120791314Y-137348862D01*
X120743695Y-137301243D01*
X122267505Y-137396481D02*
X121696076Y-137396481D01*
X121981790Y-137396481D02*
X121981790Y-136396481D01*
X121886552Y-136539338D01*
X121791314Y-136634576D01*
X121696076Y-136682195D01*
X107027743Y-122577443D02*
X106980124Y-122625062D01*
X106837267Y-122672681D01*
X106742029Y-122672681D01*
X106599171Y-122625062D01*
X106503933Y-122529824D01*
X106456314Y-122434586D01*
X106408695Y-122244110D01*
X106408695Y-122101252D01*
X106456314Y-121910776D01*
X106503933Y-121815538D01*
X106599171Y-121720300D01*
X106742029Y-121672681D01*
X106837267Y-121672681D01*
X106980124Y-121720300D01*
X107027743Y-121767919D01*
X107932505Y-121672681D02*
X107456314Y-121672681D01*
X107408695Y-122148871D01*
X107456314Y-122101252D01*
X107551552Y-122053633D01*
X107789648Y-122053633D01*
X107884886Y-122101252D01*
X107932505Y-122148871D01*
X107980124Y-122244110D01*
X107980124Y-122482205D01*
X107932505Y-122577443D01*
X107884886Y-122625062D01*
X107789648Y-122672681D01*
X107551552Y-122672681D01*
X107456314Y-122625062D01*
X107408695Y-122577443D01*
X108361076Y-121767919D02*
X108408695Y-121720300D01*
X108503933Y-121672681D01*
X108742029Y-121672681D01*
X108837267Y-121720300D01*
X108884886Y-121767919D01*
X108932505Y-121863157D01*
X108932505Y-121958395D01*
X108884886Y-122101252D01*
X108313457Y-122672681D01*
X108932505Y-122672681D01*
X132602643Y-119918557D02*
X132650262Y-119966176D01*
X132697881Y-120109033D01*
X132697881Y-120204271D01*
X132650262Y-120347129D01*
X132555024Y-120442367D01*
X132459786Y-120489986D01*
X132269310Y-120537605D01*
X132126452Y-120537605D01*
X131935976Y-120489986D01*
X131840738Y-120442367D01*
X131745500Y-120347129D01*
X131697881Y-120204271D01*
X131697881Y-120109033D01*
X131745500Y-119966176D01*
X131793119Y-119918557D01*
X131697881Y-119013795D02*
X131697881Y-119489986D01*
X132174071Y-119537605D01*
X132126452Y-119489986D01*
X132078833Y-119394748D01*
X132078833Y-119156652D01*
X132126452Y-119061414D01*
X132174071Y-119013795D01*
X132269310Y-118966176D01*
X132507405Y-118966176D01*
X132602643Y-119013795D01*
X132650262Y-119061414D01*
X132697881Y-119156652D01*
X132697881Y-119394748D01*
X132650262Y-119489986D01*
X132602643Y-119537605D01*
X131697881Y-118632843D02*
X131697881Y-118013795D01*
X132078833Y-118347129D01*
X132078833Y-118204271D01*
X132126452Y-118109033D01*
X132174071Y-118061414D01*
X132269310Y-118013795D01*
X132507405Y-118013795D01*
X132602643Y-118061414D01*
X132650262Y-118109033D01*
X132697881Y-118204271D01*
X132697881Y-118489986D01*
X132650262Y-118585224D01*
X132602643Y-118632843D01*
X111345743Y-104361943D02*
X111298124Y-104409562D01*
X111155267Y-104457181D01*
X111060029Y-104457181D01*
X110917171Y-104409562D01*
X110821933Y-104314324D01*
X110774314Y-104219086D01*
X110726695Y-104028610D01*
X110726695Y-103885752D01*
X110774314Y-103695276D01*
X110821933Y-103600038D01*
X110917171Y-103504800D01*
X111060029Y-103457181D01*
X111155267Y-103457181D01*
X111298124Y-103504800D01*
X111345743Y-103552419D01*
X112250505Y-103457181D02*
X111774314Y-103457181D01*
X111726695Y-103933371D01*
X111774314Y-103885752D01*
X111869552Y-103838133D01*
X112107648Y-103838133D01*
X112202886Y-103885752D01*
X112250505Y-103933371D01*
X112298124Y-104028610D01*
X112298124Y-104266705D01*
X112250505Y-104361943D01*
X112202886Y-104409562D01*
X112107648Y-104457181D01*
X111869552Y-104457181D01*
X111774314Y-104409562D01*
X111726695Y-104361943D01*
X113155267Y-103790514D02*
X113155267Y-104457181D01*
X112917171Y-103409562D02*
X112679076Y-104123848D01*
X113298124Y-104123848D01*
X149534643Y-133376943D02*
X149487024Y-133424562D01*
X149344167Y-133472181D01*
X149248929Y-133472181D01*
X149106071Y-133424562D01*
X149010833Y-133329324D01*
X148963214Y-133234086D01*
X148915595Y-133043610D01*
X148915595Y-132900752D01*
X148963214Y-132710276D01*
X149010833Y-132615038D01*
X149106071Y-132519800D01*
X149248929Y-132472181D01*
X149344167Y-132472181D01*
X149487024Y-132519800D01*
X149534643Y-132567419D01*
X150439405Y-132472181D02*
X149963214Y-132472181D01*
X149915595Y-132948371D01*
X149963214Y-132900752D01*
X150058452Y-132853133D01*
X150296548Y-132853133D01*
X150391786Y-132900752D01*
X150439405Y-132948371D01*
X150487024Y-133043610D01*
X150487024Y-133281705D01*
X150439405Y-133376943D01*
X150391786Y-133424562D01*
X150296548Y-133472181D01*
X150058452Y-133472181D01*
X149963214Y-133424562D01*
X149915595Y-133376943D01*
X151391786Y-132472181D02*
X150915595Y-132472181D01*
X150867976Y-132948371D01*
X150915595Y-132900752D01*
X151010833Y-132853133D01*
X151248929Y-132853133D01*
X151344167Y-132900752D01*
X151391786Y-132948371D01*
X151439405Y-133043610D01*
X151439405Y-133281705D01*
X151391786Y-133376943D01*
X151344167Y-133424562D01*
X151248929Y-133472181D01*
X151010833Y-133472181D01*
X150915595Y-133424562D01*
X150867976Y-133376943D01*
X123982243Y-133757943D02*
X123934624Y-133805562D01*
X123791767Y-133853181D01*
X123696529Y-133853181D01*
X123553671Y-133805562D01*
X123458433Y-133710324D01*
X123410814Y-133615086D01*
X123363195Y-133424610D01*
X123363195Y-133281752D01*
X123410814Y-133091276D01*
X123458433Y-132996038D01*
X123553671Y-132900800D01*
X123696529Y-132853181D01*
X123791767Y-132853181D01*
X123934624Y-132900800D01*
X123982243Y-132948419D01*
X124887005Y-132853181D02*
X124410814Y-132853181D01*
X124363195Y-133329371D01*
X124410814Y-133281752D01*
X124506052Y-133234133D01*
X124744148Y-133234133D01*
X124839386Y-133281752D01*
X124887005Y-133329371D01*
X124934624Y-133424610D01*
X124934624Y-133662705D01*
X124887005Y-133757943D01*
X124839386Y-133805562D01*
X124744148Y-133853181D01*
X124506052Y-133853181D01*
X124410814Y-133805562D01*
X124363195Y-133757943D01*
X125791767Y-132853181D02*
X125601290Y-132853181D01*
X125506052Y-132900800D01*
X125458433Y-132948419D01*
X125363195Y-133091276D01*
X125315576Y-133281752D01*
X125315576Y-133662705D01*
X125363195Y-133757943D01*
X125410814Y-133805562D01*
X125506052Y-133853181D01*
X125696529Y-133853181D01*
X125791767Y-133805562D01*
X125839386Y-133757943D01*
X125887005Y-133662705D01*
X125887005Y-133424610D01*
X125839386Y-133329371D01*
X125791767Y-133281752D01*
X125696529Y-133234133D01*
X125506052Y-133234133D01*
X125410814Y-133281752D01*
X125363195Y-133329371D01*
X125315576Y-133424610D01*
X108208843Y-119572043D02*
X108161224Y-119619662D01*
X108018367Y-119667281D01*
X107923129Y-119667281D01*
X107780271Y-119619662D01*
X107685033Y-119524424D01*
X107637414Y-119429186D01*
X107589795Y-119238710D01*
X107589795Y-119095852D01*
X107637414Y-118905376D01*
X107685033Y-118810138D01*
X107780271Y-118714900D01*
X107923129Y-118667281D01*
X108018367Y-118667281D01*
X108161224Y-118714900D01*
X108208843Y-118762519D01*
X109113605Y-118667281D02*
X108637414Y-118667281D01*
X108589795Y-119143471D01*
X108637414Y-119095852D01*
X108732652Y-119048233D01*
X108970748Y-119048233D01*
X109065986Y-119095852D01*
X109113605Y-119143471D01*
X109161224Y-119238710D01*
X109161224Y-119476805D01*
X109113605Y-119572043D01*
X109065986Y-119619662D01*
X108970748Y-119667281D01*
X108732652Y-119667281D01*
X108637414Y-119619662D01*
X108589795Y-119572043D01*
X109494557Y-118667281D02*
X110161224Y-118667281D01*
X109732652Y-119667281D01*
X138168143Y-125007643D02*
X138120524Y-125055262D01*
X137977667Y-125102881D01*
X137882429Y-125102881D01*
X137739571Y-125055262D01*
X137644333Y-124960024D01*
X137596714Y-124864786D01*
X137549095Y-124674310D01*
X137549095Y-124531452D01*
X137596714Y-124340976D01*
X137644333Y-124245738D01*
X137739571Y-124150500D01*
X137882429Y-124102881D01*
X137977667Y-124102881D01*
X138120524Y-124150500D01*
X138168143Y-124198119D01*
X139072905Y-124102881D02*
X138596714Y-124102881D01*
X138549095Y-124579071D01*
X138596714Y-124531452D01*
X138691952Y-124483833D01*
X138930048Y-124483833D01*
X139025286Y-124531452D01*
X139072905Y-124579071D01*
X139120524Y-124674310D01*
X139120524Y-124912405D01*
X139072905Y-125007643D01*
X139025286Y-125055262D01*
X138930048Y-125102881D01*
X138691952Y-125102881D01*
X138596714Y-125055262D01*
X138549095Y-125007643D01*
X139691952Y-124531452D02*
X139596714Y-124483833D01*
X139549095Y-124436214D01*
X139501476Y-124340976D01*
X139501476Y-124293357D01*
X139549095Y-124198119D01*
X139596714Y-124150500D01*
X139691952Y-124102881D01*
X139882429Y-124102881D01*
X139977667Y-124150500D01*
X140025286Y-124198119D01*
X140072905Y-124293357D01*
X140072905Y-124340976D01*
X140025286Y-124436214D01*
X139977667Y-124483833D01*
X139882429Y-124531452D01*
X139691952Y-124531452D01*
X139596714Y-124579071D01*
X139549095Y-124626690D01*
X139501476Y-124721929D01*
X139501476Y-124912405D01*
X139549095Y-125007643D01*
X139596714Y-125055262D01*
X139691952Y-125102881D01*
X139882429Y-125102881D01*
X139977667Y-125055262D01*
X140025286Y-125007643D01*
X140072905Y-124912405D01*
X140072905Y-124721929D01*
X140025286Y-124626690D01*
X139977667Y-124579071D01*
X139882429Y-124531452D01*
X130076143Y-127557757D02*
X130123762Y-127605376D01*
X130171381Y-127748233D01*
X130171381Y-127843471D01*
X130123762Y-127986329D01*
X130028524Y-128081567D01*
X129933286Y-128129186D01*
X129742810Y-128176805D01*
X129599952Y-128176805D01*
X129409476Y-128129186D01*
X129314238Y-128081567D01*
X129219000Y-127986329D01*
X129171381Y-127843471D01*
X129171381Y-127748233D01*
X129219000Y-127605376D01*
X129266619Y-127557757D01*
X129171381Y-126652995D02*
X129171381Y-127129186D01*
X129647571Y-127176805D01*
X129599952Y-127129186D01*
X129552333Y-127033948D01*
X129552333Y-126795852D01*
X129599952Y-126700614D01*
X129647571Y-126652995D01*
X129742810Y-126605376D01*
X129980905Y-126605376D01*
X130076143Y-126652995D01*
X130123762Y-126700614D01*
X130171381Y-126795852D01*
X130171381Y-127033948D01*
X130123762Y-127129186D01*
X130076143Y-127176805D01*
X130171381Y-126129186D02*
X130171381Y-125938710D01*
X130123762Y-125843471D01*
X130076143Y-125795852D01*
X129933286Y-125700614D01*
X129742810Y-125652995D01*
X129361857Y-125652995D01*
X129266619Y-125700614D01*
X129219000Y-125748233D01*
X129171381Y-125843471D01*
X129171381Y-126033948D01*
X129219000Y-126129186D01*
X129266619Y-126176805D01*
X129361857Y-126224424D01*
X129599952Y-126224424D01*
X129695190Y-126176805D01*
X129742810Y-126129186D01*
X129790429Y-126033948D01*
X129790429Y-125843471D01*
X129742810Y-125748233D01*
X129695190Y-125700614D01*
X129599952Y-125652995D01*
X115300143Y-109668357D02*
X115347762Y-109715976D01*
X115395381Y-109858833D01*
X115395381Y-109954071D01*
X115347762Y-110096929D01*
X115252524Y-110192167D01*
X115157286Y-110239786D01*
X114966810Y-110287405D01*
X114823952Y-110287405D01*
X114633476Y-110239786D01*
X114538238Y-110192167D01*
X114443000Y-110096929D01*
X114395381Y-109954071D01*
X114395381Y-109858833D01*
X114443000Y-109715976D01*
X114490619Y-109668357D01*
X114395381Y-108811214D02*
X114395381Y-109001691D01*
X114443000Y-109096929D01*
X114490619Y-109144548D01*
X114633476Y-109239786D01*
X114823952Y-109287405D01*
X115204905Y-109287405D01*
X115300143Y-109239786D01*
X115347762Y-109192167D01*
X115395381Y-109096929D01*
X115395381Y-108906452D01*
X115347762Y-108811214D01*
X115300143Y-108763595D01*
X115204905Y-108715976D01*
X114966810Y-108715976D01*
X114871571Y-108763595D01*
X114823952Y-108811214D01*
X114776333Y-108906452D01*
X114776333Y-109096929D01*
X114823952Y-109192167D01*
X114871571Y-109239786D01*
X114966810Y-109287405D01*
X114395381Y-108096929D02*
X114395381Y-108001690D01*
X114443000Y-107906452D01*
X114490619Y-107858833D01*
X114585857Y-107811214D01*
X114776333Y-107763595D01*
X115014429Y-107763595D01*
X115204905Y-107811214D01*
X115300143Y-107858833D01*
X115347762Y-107906452D01*
X115395381Y-108001690D01*
X115395381Y-108096929D01*
X115347762Y-108192167D01*
X115300143Y-108239786D01*
X115204905Y-108287405D01*
X115014429Y-108335024D01*
X114776333Y-108335024D01*
X114585857Y-108287405D01*
X114490619Y-108239786D01*
X114443000Y-108192167D01*
X114395381Y-108096929D01*
X153456343Y-142036357D02*
X153503962Y-142083976D01*
X153551581Y-142226833D01*
X153551581Y-142322071D01*
X153503962Y-142464929D01*
X153408724Y-142560167D01*
X153313486Y-142607786D01*
X153123010Y-142655405D01*
X152980152Y-142655405D01*
X152789676Y-142607786D01*
X152694438Y-142560167D01*
X152599200Y-142464929D01*
X152551581Y-142322071D01*
X152551581Y-142226833D01*
X152599200Y-142083976D01*
X152646819Y-142036357D01*
X152551581Y-141179214D02*
X152551581Y-141369691D01*
X152599200Y-141464929D01*
X152646819Y-141512548D01*
X152789676Y-141607786D01*
X152980152Y-141655405D01*
X153361105Y-141655405D01*
X153456343Y-141607786D01*
X153503962Y-141560167D01*
X153551581Y-141464929D01*
X153551581Y-141274452D01*
X153503962Y-141179214D01*
X153456343Y-141131595D01*
X153361105Y-141083976D01*
X153123010Y-141083976D01*
X153027771Y-141131595D01*
X152980152Y-141179214D01*
X152932533Y-141274452D01*
X152932533Y-141464929D01*
X152980152Y-141560167D01*
X153027771Y-141607786D01*
X153123010Y-141655405D01*
X153551581Y-140131595D02*
X153551581Y-140703024D01*
X153551581Y-140417310D02*
X152551581Y-140417310D01*
X152694438Y-140512548D01*
X152789676Y-140607786D01*
X152837295Y-140703024D01*
X127526843Y-143041157D02*
X127574462Y-143088776D01*
X127622081Y-143231633D01*
X127622081Y-143326871D01*
X127574462Y-143469729D01*
X127479224Y-143564967D01*
X127383986Y-143612586D01*
X127193510Y-143660205D01*
X127050652Y-143660205D01*
X126860176Y-143612586D01*
X126764938Y-143564967D01*
X126669700Y-143469729D01*
X126622081Y-143326871D01*
X126622081Y-143231633D01*
X126669700Y-143088776D01*
X126717319Y-143041157D01*
X126622081Y-142184014D02*
X126622081Y-142374491D01*
X126669700Y-142469729D01*
X126717319Y-142517348D01*
X126860176Y-142612586D01*
X127050652Y-142660205D01*
X127431605Y-142660205D01*
X127526843Y-142612586D01*
X127574462Y-142564967D01*
X127622081Y-142469729D01*
X127622081Y-142279252D01*
X127574462Y-142184014D01*
X127526843Y-142136395D01*
X127431605Y-142088776D01*
X127193510Y-142088776D01*
X127098271Y-142136395D01*
X127050652Y-142184014D01*
X127003033Y-142279252D01*
X127003033Y-142469729D01*
X127050652Y-142564967D01*
X127098271Y-142612586D01*
X127193510Y-142660205D01*
X126717319Y-141707824D02*
X126669700Y-141660205D01*
X126622081Y-141564967D01*
X126622081Y-141326871D01*
X126669700Y-141231633D01*
X126717319Y-141184014D01*
X126812557Y-141136395D01*
X126907795Y-141136395D01*
X127050652Y-141184014D01*
X127622081Y-141755443D01*
X127622081Y-141136395D01*
X113095043Y-128912857D02*
X113142662Y-128960476D01*
X113190281Y-129103333D01*
X113190281Y-129198571D01*
X113142662Y-129341429D01*
X113047424Y-129436667D01*
X112952186Y-129484286D01*
X112761710Y-129531905D01*
X112618852Y-129531905D01*
X112428376Y-129484286D01*
X112333138Y-129436667D01*
X112237900Y-129341429D01*
X112190281Y-129198571D01*
X112190281Y-129103333D01*
X112237900Y-128960476D01*
X112285519Y-128912857D01*
X112190281Y-128055714D02*
X112190281Y-128246191D01*
X112237900Y-128341429D01*
X112285519Y-128389048D01*
X112428376Y-128484286D01*
X112618852Y-128531905D01*
X112999805Y-128531905D01*
X113095043Y-128484286D01*
X113142662Y-128436667D01*
X113190281Y-128341429D01*
X113190281Y-128150952D01*
X113142662Y-128055714D01*
X113095043Y-128008095D01*
X112999805Y-127960476D01*
X112761710Y-127960476D01*
X112666471Y-128008095D01*
X112618852Y-128055714D01*
X112571233Y-128150952D01*
X112571233Y-128341429D01*
X112618852Y-128436667D01*
X112666471Y-128484286D01*
X112761710Y-128531905D01*
X112190281Y-127627143D02*
X112190281Y-127008095D01*
X112571233Y-127341429D01*
X112571233Y-127198571D01*
X112618852Y-127103333D01*
X112666471Y-127055714D01*
X112761710Y-127008095D01*
X112999805Y-127008095D01*
X113095043Y-127055714D01*
X113142662Y-127103333D01*
X113190281Y-127198571D01*
X113190281Y-127484286D01*
X113142662Y-127579524D01*
X113095043Y-127627143D01*
X144311243Y-124633057D02*
X144358862Y-124680676D01*
X144406481Y-124823533D01*
X144406481Y-124918771D01*
X144358862Y-125061629D01*
X144263624Y-125156867D01*
X144168386Y-125204486D01*
X143977910Y-125252105D01*
X143835052Y-125252105D01*
X143644576Y-125204486D01*
X143549338Y-125156867D01*
X143454100Y-125061629D01*
X143406481Y-124918771D01*
X143406481Y-124823533D01*
X143454100Y-124680676D01*
X143501719Y-124633057D01*
X143406481Y-123775914D02*
X143406481Y-123966391D01*
X143454100Y-124061629D01*
X143501719Y-124109248D01*
X143644576Y-124204486D01*
X143835052Y-124252105D01*
X144216005Y-124252105D01*
X144311243Y-124204486D01*
X144358862Y-124156867D01*
X144406481Y-124061629D01*
X144406481Y-123871152D01*
X144358862Y-123775914D01*
X144311243Y-123728295D01*
X144216005Y-123680676D01*
X143977910Y-123680676D01*
X143882671Y-123728295D01*
X143835052Y-123775914D01*
X143787433Y-123871152D01*
X143787433Y-124061629D01*
X143835052Y-124156867D01*
X143882671Y-124204486D01*
X143977910Y-124252105D01*
X143739814Y-122823533D02*
X144406481Y-122823533D01*
X143358862Y-123061629D02*
X144073148Y-123299724D01*
X144073148Y-122680676D01*
X122585243Y-100636343D02*
X122537624Y-100683962D01*
X122394767Y-100731581D01*
X122299529Y-100731581D01*
X122156671Y-100683962D01*
X122061433Y-100588724D01*
X122013814Y-100493486D01*
X121966195Y-100303010D01*
X121966195Y-100160152D01*
X122013814Y-99969676D01*
X122061433Y-99874438D01*
X122156671Y-99779200D01*
X122299529Y-99731581D01*
X122394767Y-99731581D01*
X122537624Y-99779200D01*
X122585243Y-99826819D01*
X123442386Y-99731581D02*
X123251909Y-99731581D01*
X123156671Y-99779200D01*
X123109052Y-99826819D01*
X123013814Y-99969676D01*
X122966195Y-100160152D01*
X122966195Y-100541105D01*
X123013814Y-100636343D01*
X123061433Y-100683962D01*
X123156671Y-100731581D01*
X123347148Y-100731581D01*
X123442386Y-100683962D01*
X123490005Y-100636343D01*
X123537624Y-100541105D01*
X123537624Y-100303010D01*
X123490005Y-100207771D01*
X123442386Y-100160152D01*
X123347148Y-100112533D01*
X123156671Y-100112533D01*
X123061433Y-100160152D01*
X123013814Y-100207771D01*
X122966195Y-100303010D01*
X124442386Y-99731581D02*
X123966195Y-99731581D01*
X123918576Y-100207771D01*
X123966195Y-100160152D01*
X124061433Y-100112533D01*
X124299529Y-100112533D01*
X124394767Y-100160152D01*
X124442386Y-100207771D01*
X124490005Y-100303010D01*
X124490005Y-100541105D01*
X124442386Y-100636343D01*
X124394767Y-100683962D01*
X124299529Y-100731581D01*
X124061433Y-100731581D01*
X123966195Y-100683962D01*
X123918576Y-100636343D01*
X159974043Y-133491243D02*
X159926424Y-133538862D01*
X159783567Y-133586481D01*
X159688329Y-133586481D01*
X159545471Y-133538862D01*
X159450233Y-133443624D01*
X159402614Y-133348386D01*
X159354995Y-133157910D01*
X159354995Y-133015052D01*
X159402614Y-132824576D01*
X159450233Y-132729338D01*
X159545471Y-132634100D01*
X159688329Y-132586481D01*
X159783567Y-132586481D01*
X159926424Y-132634100D01*
X159974043Y-132681719D01*
X160831186Y-132586481D02*
X160640709Y-132586481D01*
X160545471Y-132634100D01*
X160497852Y-132681719D01*
X160402614Y-132824576D01*
X160354995Y-133015052D01*
X160354995Y-133396005D01*
X160402614Y-133491243D01*
X160450233Y-133538862D01*
X160545471Y-133586481D01*
X160735948Y-133586481D01*
X160831186Y-133538862D01*
X160878805Y-133491243D01*
X160926424Y-133396005D01*
X160926424Y-133157910D01*
X160878805Y-133062671D01*
X160831186Y-133015052D01*
X160735948Y-132967433D01*
X160545471Y-132967433D01*
X160450233Y-133015052D01*
X160402614Y-133062671D01*
X160354995Y-133157910D01*
X161783567Y-132586481D02*
X161593090Y-132586481D01*
X161497852Y-132634100D01*
X161450233Y-132681719D01*
X161354995Y-132824576D01*
X161307376Y-133015052D01*
X161307376Y-133396005D01*
X161354995Y-133491243D01*
X161402614Y-133538862D01*
X161497852Y-133586481D01*
X161688329Y-133586481D01*
X161783567Y-133538862D01*
X161831186Y-133491243D01*
X161878805Y-133396005D01*
X161878805Y-133157910D01*
X161831186Y-133062671D01*
X161783567Y-133015052D01*
X161688329Y-132967433D01*
X161497852Y-132967433D01*
X161402614Y-133015052D01*
X161354995Y-133062671D01*
X161307376Y-133157910D01*
X135526543Y-133834143D02*
X135478924Y-133881762D01*
X135336067Y-133929381D01*
X135240829Y-133929381D01*
X135097971Y-133881762D01*
X135002733Y-133786524D01*
X134955114Y-133691286D01*
X134907495Y-133500810D01*
X134907495Y-133357952D01*
X134955114Y-133167476D01*
X135002733Y-133072238D01*
X135097971Y-132977000D01*
X135240829Y-132929381D01*
X135336067Y-132929381D01*
X135478924Y-132977000D01*
X135526543Y-133024619D01*
X136383686Y-132929381D02*
X136193209Y-132929381D01*
X136097971Y-132977000D01*
X136050352Y-133024619D01*
X135955114Y-133167476D01*
X135907495Y-133357952D01*
X135907495Y-133738905D01*
X135955114Y-133834143D01*
X136002733Y-133881762D01*
X136097971Y-133929381D01*
X136288448Y-133929381D01*
X136383686Y-133881762D01*
X136431305Y-133834143D01*
X136478924Y-133738905D01*
X136478924Y-133500810D01*
X136431305Y-133405571D01*
X136383686Y-133357952D01*
X136288448Y-133310333D01*
X136097971Y-133310333D01*
X136002733Y-133357952D01*
X135955114Y-133405571D01*
X135907495Y-133500810D01*
X136812257Y-132929381D02*
X137478924Y-132929381D01*
X137050352Y-133929381D01*
X119638843Y-119991143D02*
X119591224Y-120038762D01*
X119448367Y-120086381D01*
X119353129Y-120086381D01*
X119210271Y-120038762D01*
X119115033Y-119943524D01*
X119067414Y-119848286D01*
X119019795Y-119657810D01*
X119019795Y-119514952D01*
X119067414Y-119324476D01*
X119115033Y-119229238D01*
X119210271Y-119134000D01*
X119353129Y-119086381D01*
X119448367Y-119086381D01*
X119591224Y-119134000D01*
X119638843Y-119181619D01*
X120495986Y-119086381D02*
X120305509Y-119086381D01*
X120210271Y-119134000D01*
X120162652Y-119181619D01*
X120067414Y-119324476D01*
X120019795Y-119514952D01*
X120019795Y-119895905D01*
X120067414Y-119991143D01*
X120115033Y-120038762D01*
X120210271Y-120086381D01*
X120400748Y-120086381D01*
X120495986Y-120038762D01*
X120543605Y-119991143D01*
X120591224Y-119895905D01*
X120591224Y-119657810D01*
X120543605Y-119562571D01*
X120495986Y-119514952D01*
X120400748Y-119467333D01*
X120210271Y-119467333D01*
X120115033Y-119514952D01*
X120067414Y-119562571D01*
X120019795Y-119657810D01*
X121162652Y-119514952D02*
X121067414Y-119467333D01*
X121019795Y-119419714D01*
X120972176Y-119324476D01*
X120972176Y-119276857D01*
X121019795Y-119181619D01*
X121067414Y-119134000D01*
X121162652Y-119086381D01*
X121353129Y-119086381D01*
X121448367Y-119134000D01*
X121495986Y-119181619D01*
X121543605Y-119276857D01*
X121543605Y-119324476D01*
X121495986Y-119419714D01*
X121448367Y-119467333D01*
X121353129Y-119514952D01*
X121162652Y-119514952D01*
X121067414Y-119562571D01*
X121019795Y-119610190D01*
X120972176Y-119705429D01*
X120972176Y-119895905D01*
X121019795Y-119991143D01*
X121067414Y-120038762D01*
X121162652Y-120086381D01*
X121353129Y-120086381D01*
X121448367Y-120038762D01*
X121495986Y-119991143D01*
X121543605Y-119895905D01*
X121543605Y-119705429D01*
X121495986Y-119610190D01*
X121448367Y-119562571D01*
X121353129Y-119514952D01*
X110695243Y-109640357D02*
X110742862Y-109687976D01*
X110790481Y-109830833D01*
X110790481Y-109926071D01*
X110742862Y-110068929D01*
X110647624Y-110164167D01*
X110552386Y-110211786D01*
X110361910Y-110259405D01*
X110219052Y-110259405D01*
X110028576Y-110211786D01*
X109933338Y-110164167D01*
X109838100Y-110068929D01*
X109790481Y-109926071D01*
X109790481Y-109830833D01*
X109838100Y-109687976D01*
X109885719Y-109640357D01*
X109790481Y-108783214D02*
X109790481Y-108973691D01*
X109838100Y-109068929D01*
X109885719Y-109116548D01*
X110028576Y-109211786D01*
X110219052Y-109259405D01*
X110600005Y-109259405D01*
X110695243Y-109211786D01*
X110742862Y-109164167D01*
X110790481Y-109068929D01*
X110790481Y-108878452D01*
X110742862Y-108783214D01*
X110695243Y-108735595D01*
X110600005Y-108687976D01*
X110361910Y-108687976D01*
X110266671Y-108735595D01*
X110219052Y-108783214D01*
X110171433Y-108878452D01*
X110171433Y-109068929D01*
X110219052Y-109164167D01*
X110266671Y-109211786D01*
X110361910Y-109259405D01*
X110790481Y-108211786D02*
X110790481Y-108021310D01*
X110742862Y-107926071D01*
X110695243Y-107878452D01*
X110552386Y-107783214D01*
X110361910Y-107735595D01*
X109980957Y-107735595D01*
X109885719Y-107783214D01*
X109838100Y-107830833D01*
X109790481Y-107926071D01*
X109790481Y-108116548D01*
X109838100Y-108211786D01*
X109885719Y-108259405D01*
X109980957Y-108307024D01*
X110219052Y-108307024D01*
X110314290Y-108259405D01*
X110361910Y-108211786D01*
X110409529Y-108116548D01*
X110409529Y-107926071D01*
X110361910Y-107830833D01*
X110314290Y-107783214D01*
X110219052Y-107735595D01*
X149048743Y-142082757D02*
X149096362Y-142130376D01*
X149143981Y-142273233D01*
X149143981Y-142368471D01*
X149096362Y-142511329D01*
X149001124Y-142606567D01*
X148905886Y-142654186D01*
X148715410Y-142701805D01*
X148572552Y-142701805D01*
X148382076Y-142654186D01*
X148286838Y-142606567D01*
X148191600Y-142511329D01*
X148143981Y-142368471D01*
X148143981Y-142273233D01*
X148191600Y-142130376D01*
X148239219Y-142082757D01*
X148143981Y-141749424D02*
X148143981Y-141082757D01*
X149143981Y-141511329D01*
X148143981Y-140511329D02*
X148143981Y-140416090D01*
X148191600Y-140320852D01*
X148239219Y-140273233D01*
X148334457Y-140225614D01*
X148524933Y-140177995D01*
X148763029Y-140177995D01*
X148953505Y-140225614D01*
X149048743Y-140273233D01*
X149096362Y-140320852D01*
X149143981Y-140416090D01*
X149143981Y-140511329D01*
X149096362Y-140606567D01*
X149048743Y-140654186D01*
X148953505Y-140701805D01*
X148763029Y-140749424D01*
X148524933Y-140749424D01*
X148334457Y-140701805D01*
X148239219Y-140654186D01*
X148191600Y-140606567D01*
X148143981Y-140511329D01*
X120130843Y-143022557D02*
X120178462Y-143070176D01*
X120226081Y-143213033D01*
X120226081Y-143308271D01*
X120178462Y-143451129D01*
X120083224Y-143546367D01*
X119987986Y-143593986D01*
X119797510Y-143641605D01*
X119654652Y-143641605D01*
X119464176Y-143593986D01*
X119368938Y-143546367D01*
X119273700Y-143451129D01*
X119226081Y-143308271D01*
X119226081Y-143213033D01*
X119273700Y-143070176D01*
X119321319Y-143022557D01*
X119226081Y-142689224D02*
X119226081Y-142022557D01*
X120226081Y-142451129D01*
X120226081Y-141117795D02*
X120226081Y-141689224D01*
X120226081Y-141403510D02*
X119226081Y-141403510D01*
X119368938Y-141498748D01*
X119464176Y-141593986D01*
X119511795Y-141689224D01*
X109856543Y-128862057D02*
X109904162Y-128909676D01*
X109951781Y-129052533D01*
X109951781Y-129147771D01*
X109904162Y-129290629D01*
X109808924Y-129385867D01*
X109713686Y-129433486D01*
X109523210Y-129481105D01*
X109380352Y-129481105D01*
X109189876Y-129433486D01*
X109094638Y-129385867D01*
X108999400Y-129290629D01*
X108951781Y-129147771D01*
X108951781Y-129052533D01*
X108999400Y-128909676D01*
X109047019Y-128862057D01*
X108951781Y-128528724D02*
X108951781Y-127862057D01*
X109951781Y-128290629D01*
X109047019Y-127528724D02*
X108999400Y-127481105D01*
X108951781Y-127385867D01*
X108951781Y-127147771D01*
X108999400Y-127052533D01*
X109047019Y-127004914D01*
X109142257Y-126957295D01*
X109237495Y-126957295D01*
X109380352Y-127004914D01*
X109951781Y-127576343D01*
X109951781Y-126957295D01*
X122873543Y-106298557D02*
X122921162Y-106346176D01*
X122968781Y-106489033D01*
X122968781Y-106584271D01*
X122921162Y-106727129D01*
X122825924Y-106822367D01*
X122730686Y-106869986D01*
X122540210Y-106917605D01*
X122397352Y-106917605D01*
X122206876Y-106869986D01*
X122111638Y-106822367D01*
X122016400Y-106727129D01*
X121968781Y-106584271D01*
X121968781Y-106489033D01*
X122016400Y-106346176D01*
X122064019Y-106298557D01*
X121968781Y-105965224D02*
X121968781Y-105298557D01*
X122968781Y-105727129D01*
X121968781Y-105012843D02*
X121968781Y-104393795D01*
X122349733Y-104727129D01*
X122349733Y-104584271D01*
X122397352Y-104489033D01*
X122444971Y-104441414D01*
X122540210Y-104393795D01*
X122778305Y-104393795D01*
X122873543Y-104441414D01*
X122921162Y-104489033D01*
X122968781Y-104584271D01*
X122968781Y-104869986D01*
X122921162Y-104965224D01*
X122873543Y-105012843D01*
X160554943Y-139301457D02*
X160602562Y-139349076D01*
X160650181Y-139491933D01*
X160650181Y-139587171D01*
X160602562Y-139730029D01*
X160507324Y-139825267D01*
X160412086Y-139872886D01*
X160221610Y-139920505D01*
X160078752Y-139920505D01*
X159888276Y-139872886D01*
X159793038Y-139825267D01*
X159697800Y-139730029D01*
X159650181Y-139587171D01*
X159650181Y-139491933D01*
X159697800Y-139349076D01*
X159745419Y-139301457D01*
X159650181Y-138968124D02*
X159650181Y-138301457D01*
X160650181Y-138730029D01*
X159983514Y-137491933D02*
X160650181Y-137491933D01*
X159602562Y-137730029D02*
X160316848Y-137968124D01*
X160316848Y-137349076D01*
X135732643Y-139844557D02*
X135780262Y-139892176D01*
X135827881Y-140035033D01*
X135827881Y-140130271D01*
X135780262Y-140273129D01*
X135685024Y-140368367D01*
X135589786Y-140415986D01*
X135399310Y-140463605D01*
X135256452Y-140463605D01*
X135065976Y-140415986D01*
X134970738Y-140368367D01*
X134875500Y-140273129D01*
X134827881Y-140130271D01*
X134827881Y-140035033D01*
X134875500Y-139892176D01*
X134923119Y-139844557D01*
X134827881Y-139511224D02*
X134827881Y-138844557D01*
X135827881Y-139273129D01*
X134827881Y-137987414D02*
X134827881Y-138463605D01*
X135304071Y-138511224D01*
X135256452Y-138463605D01*
X135208833Y-138368367D01*
X135208833Y-138130271D01*
X135256452Y-138035033D01*
X135304071Y-137987414D01*
X135399310Y-137939795D01*
X135637405Y-137939795D01*
X135732643Y-137987414D01*
X135780262Y-138035033D01*
X135827881Y-138130271D01*
X135827881Y-138368367D01*
X135780262Y-138463605D01*
X135732643Y-138511224D01*
X127001543Y-130982957D02*
X127049162Y-131030576D01*
X127096781Y-131173433D01*
X127096781Y-131268671D01*
X127049162Y-131411529D01*
X126953924Y-131506767D01*
X126858686Y-131554386D01*
X126668210Y-131602005D01*
X126525352Y-131602005D01*
X126334876Y-131554386D01*
X126239638Y-131506767D01*
X126144400Y-131411529D01*
X126096781Y-131268671D01*
X126096781Y-131173433D01*
X126144400Y-131030576D01*
X126192019Y-130982957D01*
X126096781Y-130649624D02*
X126096781Y-129982957D01*
X127096781Y-130411529D01*
X126096781Y-129173433D02*
X126096781Y-129363910D01*
X126144400Y-129459148D01*
X126192019Y-129506767D01*
X126334876Y-129602005D01*
X126525352Y-129649624D01*
X126906305Y-129649624D01*
X127001543Y-129602005D01*
X127049162Y-129554386D01*
X127096781Y-129459148D01*
X127096781Y-129268671D01*
X127049162Y-129173433D01*
X127001543Y-129125814D01*
X126906305Y-129078195D01*
X126668210Y-129078195D01*
X126572971Y-129125814D01*
X126525352Y-129173433D01*
X126477733Y-129268671D01*
X126477733Y-129459148D01*
X126525352Y-129554386D01*
X126572971Y-129602005D01*
X126668210Y-129649624D01*
X113149143Y-94904143D02*
X113101524Y-94951762D01*
X112958667Y-94999381D01*
X112863429Y-94999381D01*
X112720571Y-94951762D01*
X112625333Y-94856524D01*
X112577714Y-94761286D01*
X112530095Y-94570810D01*
X112530095Y-94427952D01*
X112577714Y-94237476D01*
X112625333Y-94142238D01*
X112720571Y-94047000D01*
X112863429Y-93999381D01*
X112958667Y-93999381D01*
X113101524Y-94047000D01*
X113149143Y-94094619D01*
X113482476Y-93999381D02*
X114149143Y-93999381D01*
X113720571Y-94999381D01*
X114434857Y-93999381D02*
X115101524Y-93999381D01*
X114672952Y-94999381D01*
X109402643Y-119127543D02*
X109355024Y-119175162D01*
X109212167Y-119222781D01*
X109116929Y-119222781D01*
X108974071Y-119175162D01*
X108878833Y-119079924D01*
X108831214Y-118984686D01*
X108783595Y-118794210D01*
X108783595Y-118651352D01*
X108831214Y-118460876D01*
X108878833Y-118365638D01*
X108974071Y-118270400D01*
X109116929Y-118222781D01*
X109212167Y-118222781D01*
X109355024Y-118270400D01*
X109402643Y-118318019D01*
X109735976Y-118222781D02*
X110402643Y-118222781D01*
X109974071Y-119222781D01*
X110926452Y-118651352D02*
X110831214Y-118603733D01*
X110783595Y-118556114D01*
X110735976Y-118460876D01*
X110735976Y-118413257D01*
X110783595Y-118318019D01*
X110831214Y-118270400D01*
X110926452Y-118222781D01*
X111116929Y-118222781D01*
X111212167Y-118270400D01*
X111259786Y-118318019D01*
X111307405Y-118413257D01*
X111307405Y-118460876D01*
X111259786Y-118556114D01*
X111212167Y-118603733D01*
X111116929Y-118651352D01*
X110926452Y-118651352D01*
X110831214Y-118698971D01*
X110783595Y-118746590D01*
X110735976Y-118841829D01*
X110735976Y-119032305D01*
X110783595Y-119127543D01*
X110831214Y-119175162D01*
X110926452Y-119222781D01*
X111116929Y-119222781D01*
X111212167Y-119175162D01*
X111259786Y-119127543D01*
X111307405Y-119032305D01*
X111307405Y-118841829D01*
X111259786Y-118746590D01*
X111212167Y-118698971D01*
X111116929Y-118651352D01*
X120172243Y-123267743D02*
X120124624Y-123315362D01*
X119981767Y-123362981D01*
X119886529Y-123362981D01*
X119743671Y-123315362D01*
X119648433Y-123220124D01*
X119600814Y-123124886D01*
X119553195Y-122934410D01*
X119553195Y-122791552D01*
X119600814Y-122601076D01*
X119648433Y-122505838D01*
X119743671Y-122410600D01*
X119886529Y-122362981D01*
X119981767Y-122362981D01*
X120124624Y-122410600D01*
X120172243Y-122458219D01*
X120505576Y-122362981D02*
X121172243Y-122362981D01*
X120743671Y-123362981D01*
X121600814Y-123362981D02*
X121791290Y-123362981D01*
X121886529Y-123315362D01*
X121934148Y-123267743D01*
X122029386Y-123124886D01*
X122077005Y-122934410D01*
X122077005Y-122553457D01*
X122029386Y-122458219D01*
X121981767Y-122410600D01*
X121886529Y-122362981D01*
X121696052Y-122362981D01*
X121600814Y-122410600D01*
X121553195Y-122458219D01*
X121505576Y-122553457D01*
X121505576Y-122791552D01*
X121553195Y-122886790D01*
X121600814Y-122934410D01*
X121696052Y-122982029D01*
X121886529Y-122982029D01*
X121981767Y-122934410D01*
X122029386Y-122886790D01*
X122077005Y-122791552D01*
X126380981Y-107262857D02*
X126380981Y-107739048D01*
X125380981Y-107739048D01*
X126380981Y-106405714D02*
X126380981Y-106977143D01*
X126380981Y-106691429D02*
X125380981Y-106691429D01*
X125523838Y-106786667D01*
X125619076Y-106881905D01*
X125666695Y-106977143D01*
X125714314Y-105548571D02*
X126380981Y-105548571D01*
X125333362Y-105786667D02*
X126047648Y-106024762D01*
X126047648Y-105405714D01*
X107031381Y-107024057D02*
X107031381Y-107500248D01*
X106031381Y-107500248D01*
X107031381Y-106166914D02*
X107031381Y-106738343D01*
X107031381Y-106452629D02*
X106031381Y-106452629D01*
X106174238Y-106547867D01*
X106269476Y-106643105D01*
X106317095Y-106738343D01*
X106031381Y-105262152D02*
X106031381Y-105738343D01*
X106507571Y-105785962D01*
X106459952Y-105738343D01*
X106412333Y-105643105D01*
X106412333Y-105405009D01*
X106459952Y-105309771D01*
X106507571Y-105262152D01*
X106602810Y-105214533D01*
X106840905Y-105214533D01*
X106936143Y-105262152D01*
X106983762Y-105309771D01*
X107031381Y-105405009D01*
X107031381Y-105643105D01*
X106983762Y-105738343D01*
X106936143Y-105785962D01*
X144584681Y-140482557D02*
X144584681Y-140958748D01*
X143584681Y-140958748D01*
X144584681Y-139625414D02*
X144584681Y-140196843D01*
X144584681Y-139911129D02*
X143584681Y-139911129D01*
X143727538Y-140006367D01*
X143822776Y-140101605D01*
X143870395Y-140196843D01*
X143584681Y-138768271D02*
X143584681Y-138958748D01*
X143632300Y-139053986D01*
X143679919Y-139101605D01*
X143822776Y-139196843D01*
X144013252Y-139244462D01*
X144394205Y-139244462D01*
X144489443Y-139196843D01*
X144537062Y-139149224D01*
X144584681Y-139053986D01*
X144584681Y-138863509D01*
X144537062Y-138768271D01*
X144489443Y-138720652D01*
X144394205Y-138673033D01*
X144156110Y-138673033D01*
X144060871Y-138720652D01*
X144013252Y-138768271D01*
X143965633Y-138863509D01*
X143965633Y-139053986D01*
X144013252Y-139149224D01*
X144060871Y-139196843D01*
X144156110Y-139244462D01*
X118397281Y-139644357D02*
X118397281Y-140120548D01*
X117397281Y-140120548D01*
X118397281Y-138787214D02*
X118397281Y-139358643D01*
X118397281Y-139072929D02*
X117397281Y-139072929D01*
X117540138Y-139168167D01*
X117635376Y-139263405D01*
X117682995Y-139358643D01*
X117397281Y-138453881D02*
X117397281Y-137787214D01*
X118397281Y-138215786D01*
X107195881Y-129446257D02*
X107195881Y-129922448D01*
X106195881Y-129922448D01*
X107195881Y-128589114D02*
X107195881Y-129160543D01*
X107195881Y-128874829D02*
X106195881Y-128874829D01*
X106338738Y-128970067D01*
X106433976Y-129065305D01*
X106481595Y-129160543D01*
X106624452Y-128017686D02*
X106576833Y-128112924D01*
X106529214Y-128160543D01*
X106433976Y-128208162D01*
X106386357Y-128208162D01*
X106291119Y-128160543D01*
X106243500Y-128112924D01*
X106195881Y-128017686D01*
X106195881Y-127827209D01*
X106243500Y-127731971D01*
X106291119Y-127684352D01*
X106386357Y-127636733D01*
X106433976Y-127636733D01*
X106529214Y-127684352D01*
X106576833Y-127731971D01*
X106624452Y-127827209D01*
X106624452Y-128017686D01*
X106672071Y-128112924D01*
X106719690Y-128160543D01*
X106814929Y-128208162D01*
X107005405Y-128208162D01*
X107100643Y-128160543D01*
X107148262Y-128112924D01*
X107195881Y-128017686D01*
X107195881Y-127827209D01*
X107148262Y-127731971D01*
X107100643Y-127684352D01*
X107005405Y-127636733D01*
X106814929Y-127636733D01*
X106719690Y-127684352D01*
X106672071Y-127731971D01*
X106624452Y-127827209D01*
X127769881Y-124328157D02*
X127769881Y-124804348D01*
X126769881Y-124804348D01*
X127769881Y-123471014D02*
X127769881Y-124042443D01*
X127769881Y-123756729D02*
X126769881Y-123756729D01*
X126912738Y-123851967D01*
X127007976Y-123947205D01*
X127055595Y-124042443D01*
X127769881Y-122994824D02*
X127769881Y-122804348D01*
X127722262Y-122709109D01*
X127674643Y-122661490D01*
X127531786Y-122566252D01*
X127341310Y-122518633D01*
X126960357Y-122518633D01*
X126865119Y-122566252D01*
X126817500Y-122613871D01*
X126769881Y-122709109D01*
X126769881Y-122899586D01*
X126817500Y-122994824D01*
X126865119Y-123042443D01*
X126960357Y-123090062D01*
X127198452Y-123090062D01*
X127293690Y-123042443D01*
X127341310Y-122994824D01*
X127388929Y-122899586D01*
X127388929Y-122709109D01*
X127341310Y-122613871D01*
X127293690Y-122566252D01*
X127198452Y-122518633D01*
X106024443Y-100718881D02*
X105548252Y-100718881D01*
X105548252Y-99718881D01*
X106310157Y-99814119D02*
X106357776Y-99766500D01*
X106453014Y-99718881D01*
X106691110Y-99718881D01*
X106786348Y-99766500D01*
X106833967Y-99814119D01*
X106881586Y-99909357D01*
X106881586Y-100004595D01*
X106833967Y-100147452D01*
X106262538Y-100718881D01*
X106881586Y-100718881D01*
X107500633Y-99718881D02*
X107595872Y-99718881D01*
X107691110Y-99766500D01*
X107738729Y-99814119D01*
X107786348Y-99909357D01*
X107833967Y-100099833D01*
X107833967Y-100337929D01*
X107786348Y-100528405D01*
X107738729Y-100623643D01*
X107691110Y-100671262D01*
X107595872Y-100718881D01*
X107500633Y-100718881D01*
X107405395Y-100671262D01*
X107357776Y-100623643D01*
X107310157Y-100528405D01*
X107262538Y-100337929D01*
X107262538Y-100099833D01*
X107310157Y-99909357D01*
X107357776Y-99814119D01*
X107405395Y-99766500D01*
X107500633Y-99718881D01*
X144276843Y-133472181D02*
X143800652Y-133472181D01*
X143800652Y-132472181D01*
X144562557Y-132567419D02*
X144610176Y-132519800D01*
X144705414Y-132472181D01*
X144943510Y-132472181D01*
X145038748Y-132519800D01*
X145086367Y-132567419D01*
X145133986Y-132662657D01*
X145133986Y-132757895D01*
X145086367Y-132900752D01*
X144514938Y-133472181D01*
X145133986Y-133472181D01*
X146086367Y-133472181D02*
X145514938Y-133472181D01*
X145800652Y-133472181D02*
X145800652Y-132472181D01*
X145705414Y-132615038D01*
X145610176Y-132710276D01*
X145514938Y-132757895D01*
X118161243Y-134222081D02*
X117685052Y-134222081D01*
X117685052Y-133222081D01*
X118446957Y-133317319D02*
X118494576Y-133269700D01*
X118589814Y-133222081D01*
X118827910Y-133222081D01*
X118923148Y-133269700D01*
X118970767Y-133317319D01*
X119018386Y-133412557D01*
X119018386Y-133507795D01*
X118970767Y-133650652D01*
X118399338Y-134222081D01*
X119018386Y-134222081D01*
X119399338Y-133317319D02*
X119446957Y-133269700D01*
X119542195Y-133222081D01*
X119780291Y-133222081D01*
X119875529Y-133269700D01*
X119923148Y-133317319D01*
X119970767Y-133412557D01*
X119970767Y-133507795D01*
X119923148Y-133650652D01*
X119351719Y-134222081D01*
X119970767Y-134222081D01*
X107030781Y-119933957D02*
X107030781Y-120410148D01*
X106030781Y-120410148D01*
X106126019Y-119648243D02*
X106078400Y-119600624D01*
X106030781Y-119505386D01*
X106030781Y-119267290D01*
X106078400Y-119172052D01*
X106126019Y-119124433D01*
X106221257Y-119076814D01*
X106316495Y-119076814D01*
X106459352Y-119124433D01*
X107030781Y-119695862D01*
X107030781Y-119076814D01*
X106030781Y-118743481D02*
X106030781Y-118124433D01*
X106411733Y-118457767D01*
X106411733Y-118314909D01*
X106459352Y-118219671D01*
X106506971Y-118172052D01*
X106602210Y-118124433D01*
X106840305Y-118124433D01*
X106935543Y-118172052D01*
X106983162Y-118219671D01*
X107030781Y-118314909D01*
X107030781Y-118600624D01*
X106983162Y-118695862D01*
X106935543Y-118743481D01*
X132249943Y-122131081D02*
X131773752Y-122131081D01*
X131773752Y-121131081D01*
X132535657Y-121226319D02*
X132583276Y-121178700D01*
X132678514Y-121131081D01*
X132916610Y-121131081D01*
X133011848Y-121178700D01*
X133059467Y-121226319D01*
X133107086Y-121321557D01*
X133107086Y-121416795D01*
X133059467Y-121559652D01*
X132488038Y-122131081D01*
X133107086Y-122131081D01*
X133964229Y-121464414D02*
X133964229Y-122131081D01*
X133726133Y-121083462D02*
X133488038Y-121797748D01*
X134107086Y-121797748D01*
X114687443Y-107657581D02*
X114211252Y-107657581D01*
X114211252Y-106657581D01*
X114973157Y-106752819D02*
X115020776Y-106705200D01*
X115116014Y-106657581D01*
X115354110Y-106657581D01*
X115449348Y-106705200D01*
X115496967Y-106752819D01*
X115544586Y-106848057D01*
X115544586Y-106943295D01*
X115496967Y-107086152D01*
X114925538Y-107657581D01*
X115544586Y-107657581D01*
X116449348Y-106657581D02*
X115973157Y-106657581D01*
X115925538Y-107133771D01*
X115973157Y-107086152D01*
X116068395Y-107038533D01*
X116306491Y-107038533D01*
X116401729Y-107086152D01*
X116449348Y-107133771D01*
X116496967Y-107229010D01*
X116496967Y-107467105D01*
X116449348Y-107562343D01*
X116401729Y-107609962D01*
X116306491Y-107657581D01*
X116068395Y-107657581D01*
X115973157Y-107609962D01*
X115925538Y-107562343D01*
X152811243Y-136824981D02*
X152335052Y-136824981D01*
X152335052Y-135824981D01*
X153096957Y-135920219D02*
X153144576Y-135872600D01*
X153239814Y-135824981D01*
X153477910Y-135824981D01*
X153573148Y-135872600D01*
X153620767Y-135920219D01*
X153668386Y-136015457D01*
X153668386Y-136110695D01*
X153620767Y-136253552D01*
X153049338Y-136824981D01*
X153668386Y-136824981D01*
X154525529Y-135824981D02*
X154335052Y-135824981D01*
X154239814Y-135872600D01*
X154192195Y-135920219D01*
X154096957Y-136063076D01*
X154049338Y-136253552D01*
X154049338Y-136634505D01*
X154096957Y-136729743D01*
X154144576Y-136777362D01*
X154239814Y-136824981D01*
X154430291Y-136824981D01*
X154525529Y-136777362D01*
X154573148Y-136729743D01*
X154620767Y-136634505D01*
X154620767Y-136396410D01*
X154573148Y-136301171D01*
X154525529Y-136253552D01*
X154430291Y-136205933D01*
X154239814Y-136205933D01*
X154144576Y-136253552D01*
X154096957Y-136301171D01*
X154049338Y-136396410D01*
X127627143Y-137409181D02*
X127150952Y-137409181D01*
X127150952Y-136409181D01*
X127912857Y-136504419D02*
X127960476Y-136456800D01*
X128055714Y-136409181D01*
X128293810Y-136409181D01*
X128389048Y-136456800D01*
X128436667Y-136504419D01*
X128484286Y-136599657D01*
X128484286Y-136694895D01*
X128436667Y-136837752D01*
X127865238Y-137409181D01*
X128484286Y-137409181D01*
X128817619Y-136409181D02*
X129484286Y-136409181D01*
X129055714Y-137409181D01*
X113060243Y-123362981D02*
X112584052Y-123362981D01*
X112584052Y-122362981D01*
X113345957Y-122458219D02*
X113393576Y-122410600D01*
X113488814Y-122362981D01*
X113726910Y-122362981D01*
X113822148Y-122410600D01*
X113869767Y-122458219D01*
X113917386Y-122553457D01*
X113917386Y-122648695D01*
X113869767Y-122791552D01*
X113298338Y-123362981D01*
X113917386Y-123362981D01*
X114488814Y-122791552D02*
X114393576Y-122743933D01*
X114345957Y-122696314D01*
X114298338Y-122601076D01*
X114298338Y-122553457D01*
X114345957Y-122458219D01*
X114393576Y-122410600D01*
X114488814Y-122362981D01*
X114679291Y-122362981D01*
X114774529Y-122410600D01*
X114822148Y-122458219D01*
X114869767Y-122553457D01*
X114869767Y-122601076D01*
X114822148Y-122696314D01*
X114774529Y-122743933D01*
X114679291Y-122791552D01*
X114488814Y-122791552D01*
X114393576Y-122839171D01*
X114345957Y-122886790D01*
X114298338Y-122982029D01*
X114298338Y-123172505D01*
X114345957Y-123267743D01*
X114393576Y-123315362D01*
X114488814Y-123362981D01*
X114679291Y-123362981D01*
X114774529Y-123315362D01*
X114822148Y-123267743D01*
X114869767Y-123172505D01*
X114869767Y-122982029D01*
X114822148Y-122886790D01*
X114774529Y-122839171D01*
X114679291Y-122791552D01*
X136301243Y-124747281D02*
X135825052Y-124747281D01*
X135825052Y-123747281D01*
X136586957Y-123842519D02*
X136634576Y-123794900D01*
X136729814Y-123747281D01*
X136967910Y-123747281D01*
X137063148Y-123794900D01*
X137110767Y-123842519D01*
X137158386Y-123937757D01*
X137158386Y-124032995D01*
X137110767Y-124175852D01*
X136539338Y-124747281D01*
X137158386Y-124747281D01*
X137634576Y-124747281D02*
X137825052Y-124747281D01*
X137920291Y-124699662D01*
X137967910Y-124652043D01*
X138063148Y-124509186D01*
X138110767Y-124318710D01*
X138110767Y-123937757D01*
X138063148Y-123842519D01*
X138015529Y-123794900D01*
X137920291Y-123747281D01*
X137729814Y-123747281D01*
X137634576Y-123794900D01*
X137586957Y-123842519D01*
X137539338Y-123937757D01*
X137539338Y-124175852D01*
X137586957Y-124271090D01*
X137634576Y-124318710D01*
X137729814Y-124366329D01*
X137920291Y-124366329D01*
X138015529Y-124318710D01*
X138063148Y-124271090D01*
X138110767Y-124175852D01*
X116921043Y-100910381D02*
X116444852Y-100910381D01*
X116444852Y-99910381D01*
X117159138Y-99910381D02*
X117778186Y-99910381D01*
X117444852Y-100291333D01*
X117587710Y-100291333D01*
X117682948Y-100338952D01*
X117730567Y-100386571D01*
X117778186Y-100481810D01*
X117778186Y-100719905D01*
X117730567Y-100815143D01*
X117682948Y-100862762D01*
X117587710Y-100910381D01*
X117301995Y-100910381D01*
X117206757Y-100862762D01*
X117159138Y-100815143D01*
X118397233Y-99910381D02*
X118492472Y-99910381D01*
X118587710Y-99958000D01*
X118635329Y-100005619D01*
X118682948Y-100100857D01*
X118730567Y-100291333D01*
X118730567Y-100529429D01*
X118682948Y-100719905D01*
X118635329Y-100815143D01*
X118587710Y-100862762D01*
X118492472Y-100910381D01*
X118397233Y-100910381D01*
X118301995Y-100862762D01*
X118254376Y-100815143D01*
X118206757Y-100719905D01*
X118159138Y-100529429D01*
X118159138Y-100291333D01*
X118206757Y-100100857D01*
X118254376Y-100005619D01*
X118301995Y-99958000D01*
X118397233Y-99910381D01*
X154690843Y-133599181D02*
X154214652Y-133599181D01*
X154214652Y-132599181D01*
X154928938Y-132599181D02*
X155547986Y-132599181D01*
X155214652Y-132980133D01*
X155357510Y-132980133D01*
X155452748Y-133027752D01*
X155500367Y-133075371D01*
X155547986Y-133170610D01*
X155547986Y-133408705D01*
X155500367Y-133503943D01*
X155452748Y-133551562D01*
X155357510Y-133599181D01*
X155071795Y-133599181D01*
X154976557Y-133551562D01*
X154928938Y-133503943D01*
X156500367Y-133599181D02*
X155928938Y-133599181D01*
X156214652Y-133599181D02*
X156214652Y-132599181D01*
X156119414Y-132742038D01*
X156024176Y-132837276D01*
X155928938Y-132884895D01*
X130103643Y-134221481D02*
X129627452Y-134221481D01*
X129627452Y-133221481D01*
X130341738Y-133221481D02*
X130960786Y-133221481D01*
X130627452Y-133602433D01*
X130770310Y-133602433D01*
X130865548Y-133650052D01*
X130913167Y-133697671D01*
X130960786Y-133792910D01*
X130960786Y-134031005D01*
X130913167Y-134126243D01*
X130865548Y-134173862D01*
X130770310Y-134221481D01*
X130484595Y-134221481D01*
X130389357Y-134173862D01*
X130341738Y-134126243D01*
X131341738Y-133316719D02*
X131389357Y-133269100D01*
X131484595Y-133221481D01*
X131722691Y-133221481D01*
X131817929Y-133269100D01*
X131865548Y-133316719D01*
X131913167Y-133411957D01*
X131913167Y-133507195D01*
X131865548Y-133650052D01*
X131294119Y-134221481D01*
X131913167Y-134221481D01*
X114190543Y-119959381D02*
X113714352Y-119959381D01*
X113714352Y-118959381D01*
X114428638Y-118959381D02*
X115047686Y-118959381D01*
X114714352Y-119340333D01*
X114857210Y-119340333D01*
X114952448Y-119387952D01*
X115000067Y-119435571D01*
X115047686Y-119530810D01*
X115047686Y-119768905D01*
X115000067Y-119864143D01*
X114952448Y-119911762D01*
X114857210Y-119959381D01*
X114571495Y-119959381D01*
X114476257Y-119911762D01*
X114428638Y-119864143D01*
X115381019Y-118959381D02*
X116000067Y-118959381D01*
X115666733Y-119340333D01*
X115809591Y-119340333D01*
X115904829Y-119387952D01*
X115952448Y-119435571D01*
X116000067Y-119530810D01*
X116000067Y-119768905D01*
X115952448Y-119864143D01*
X115904829Y-119911762D01*
X115809591Y-119959381D01*
X115523876Y-119959381D01*
X115428638Y-119911762D01*
X115381019Y-119864143D01*
X126436381Y-107246657D02*
X126436381Y-107722848D01*
X125436381Y-107722848D01*
X125436381Y-107008562D02*
X125436381Y-106389514D01*
X125817333Y-106722848D01*
X125817333Y-106579990D01*
X125864952Y-106484752D01*
X125912571Y-106437133D01*
X126007810Y-106389514D01*
X126245905Y-106389514D01*
X126341143Y-106437133D01*
X126388762Y-106484752D01*
X126436381Y-106579990D01*
X126436381Y-106865705D01*
X126388762Y-106960943D01*
X126341143Y-107008562D01*
X125769714Y-105532371D02*
X126436381Y-105532371D01*
X125388762Y-105770467D02*
X126103048Y-106008562D01*
X126103048Y-105389514D01*
X163621981Y-140101557D02*
X163621981Y-140577748D01*
X162621981Y-140577748D01*
X162621981Y-139863462D02*
X162621981Y-139244414D01*
X163002933Y-139577748D01*
X163002933Y-139434890D01*
X163050552Y-139339652D01*
X163098171Y-139292033D01*
X163193410Y-139244414D01*
X163431505Y-139244414D01*
X163526743Y-139292033D01*
X163574362Y-139339652D01*
X163621981Y-139434890D01*
X163621981Y-139720605D01*
X163574362Y-139815843D01*
X163526743Y-139863462D01*
X162621981Y-138339652D02*
X162621981Y-138815843D01*
X163098171Y-138863462D01*
X163050552Y-138815843D01*
X163002933Y-138720605D01*
X163002933Y-138482509D01*
X163050552Y-138387271D01*
X163098171Y-138339652D01*
X163193410Y-138292033D01*
X163431505Y-138292033D01*
X163526743Y-138339652D01*
X163574362Y-138387271D01*
X163621981Y-138482509D01*
X163621981Y-138720605D01*
X163574362Y-138815843D01*
X163526743Y-138863462D01*
X139263381Y-140431757D02*
X139263381Y-140907948D01*
X138263381Y-140907948D01*
X138263381Y-140193662D02*
X138263381Y-139574614D01*
X138644333Y-139907948D01*
X138644333Y-139765090D01*
X138691952Y-139669852D01*
X138739571Y-139622233D01*
X138834810Y-139574614D01*
X139072905Y-139574614D01*
X139168143Y-139622233D01*
X139215762Y-139669852D01*
X139263381Y-139765090D01*
X139263381Y-140050805D01*
X139215762Y-140146043D01*
X139168143Y-140193662D01*
X138263381Y-138717471D02*
X138263381Y-138907948D01*
X138311000Y-139003186D01*
X138358619Y-139050805D01*
X138501476Y-139146043D01*
X138691952Y-139193662D01*
X139072905Y-139193662D01*
X139168143Y-139146043D01*
X139215762Y-139098424D01*
X139263381Y-139003186D01*
X139263381Y-138812709D01*
X139215762Y-138717471D01*
X139168143Y-138669852D01*
X139072905Y-138622233D01*
X138834810Y-138622233D01*
X138739571Y-138669852D01*
X138691952Y-138717471D01*
X138644333Y-138812709D01*
X138644333Y-139003186D01*
X138691952Y-139098424D01*
X138739571Y-139146043D01*
X138834810Y-139193662D01*
X118533943Y-126639581D02*
X118057752Y-126639581D01*
X118057752Y-125639581D01*
X118772038Y-125639581D02*
X119391086Y-125639581D01*
X119057752Y-126020533D01*
X119200610Y-126020533D01*
X119295848Y-126068152D01*
X119343467Y-126115771D01*
X119391086Y-126211010D01*
X119391086Y-126449105D01*
X119343467Y-126544343D01*
X119295848Y-126591962D01*
X119200610Y-126639581D01*
X118914895Y-126639581D01*
X118819657Y-126591962D01*
X118772038Y-126544343D01*
X119724419Y-125639581D02*
X120391086Y-125639581D01*
X119962514Y-126639581D01*
X128303281Y-99004357D02*
X128303281Y-99480548D01*
X127303281Y-99480548D01*
X127303281Y-98766262D02*
X127303281Y-98147214D01*
X127684233Y-98480548D01*
X127684233Y-98337690D01*
X127731852Y-98242452D01*
X127779471Y-98194833D01*
X127874710Y-98147214D01*
X128112805Y-98147214D01*
X128208043Y-98194833D01*
X128255662Y-98242452D01*
X128303281Y-98337690D01*
X128303281Y-98623405D01*
X128255662Y-98718643D01*
X128208043Y-98766262D01*
X127731852Y-97575786D02*
X127684233Y-97671024D01*
X127636614Y-97718643D01*
X127541376Y-97766262D01*
X127493757Y-97766262D01*
X127398519Y-97718643D01*
X127350900Y-97671024D01*
X127303281Y-97575786D01*
X127303281Y-97385309D01*
X127350900Y-97290071D01*
X127398519Y-97242452D01*
X127493757Y-97194833D01*
X127541376Y-97194833D01*
X127636614Y-97242452D01*
X127684233Y-97290071D01*
X127731852Y-97385309D01*
X127731852Y-97575786D01*
X127779471Y-97671024D01*
X127827090Y-97718643D01*
X127922329Y-97766262D01*
X128112805Y-97766262D01*
X128208043Y-97718643D01*
X128255662Y-97671024D01*
X128303281Y-97575786D01*
X128303281Y-97385309D01*
X128255662Y-97290071D01*
X128208043Y-97242452D01*
X128112805Y-97194833D01*
X127922329Y-97194833D01*
X127827090Y-97242452D01*
X127779471Y-97290071D01*
X127731852Y-97385309D01*
X129755634Y-77612781D02*
X129422300Y-77136590D01*
X129184205Y-77612781D02*
X129184205Y-76612781D01*
X129565158Y-76612781D01*
X129660396Y-76660400D01*
X129708015Y-76708019D01*
X129755634Y-76803257D01*
X129755634Y-76946114D01*
X129708015Y-77041352D01*
X129660396Y-77088971D01*
X129565158Y-77136590D01*
X129184205Y-77136590D01*
X130708015Y-77612781D02*
X130136586Y-77612781D01*
X130422300Y-77612781D02*
X130422300Y-76612781D01*
X130327062Y-76755638D01*
X130231824Y-76850876D01*
X130136586Y-76898495D01*
X124803034Y-64891581D02*
X124469700Y-64415390D01*
X124231605Y-64891581D02*
X124231605Y-63891581D01*
X124612558Y-63891581D01*
X124707796Y-63939200D01*
X124755415Y-63986819D01*
X124803034Y-64082057D01*
X124803034Y-64224914D01*
X124755415Y-64320152D01*
X124707796Y-64367771D01*
X124612558Y-64415390D01*
X124231605Y-64415390D01*
X125707796Y-63891581D02*
X125231605Y-63891581D01*
X125183986Y-64367771D01*
X125231605Y-64320152D01*
X125326843Y-64272533D01*
X125564939Y-64272533D01*
X125660177Y-64320152D01*
X125707796Y-64367771D01*
X125755415Y-64463010D01*
X125755415Y-64701105D01*
X125707796Y-64796343D01*
X125660177Y-64843962D01*
X125564939Y-64891581D01*
X125326843Y-64891581D01*
X125231605Y-64843962D01*
X125183986Y-64796343D01*
X123519881Y-63184066D02*
X123043690Y-63517400D01*
X123519881Y-63755495D02*
X122519881Y-63755495D01*
X122519881Y-63374542D01*
X122567500Y-63279304D01*
X122615119Y-63231685D01*
X122710357Y-63184066D01*
X122853214Y-63184066D01*
X122948452Y-63231685D01*
X122996071Y-63279304D01*
X123043690Y-63374542D01*
X123043690Y-63755495D01*
X122519881Y-62326923D02*
X122519881Y-62517400D01*
X122567500Y-62612638D01*
X122615119Y-62660257D01*
X122757976Y-62755495D01*
X122948452Y-62803114D01*
X123329405Y-62803114D01*
X123424643Y-62755495D01*
X123472262Y-62707876D01*
X123519881Y-62612638D01*
X123519881Y-62422161D01*
X123472262Y-62326923D01*
X123424643Y-62279304D01*
X123329405Y-62231685D01*
X123091310Y-62231685D01*
X122996071Y-62279304D01*
X122948452Y-62326923D01*
X122900833Y-62422161D01*
X122900833Y-62612638D01*
X122948452Y-62707876D01*
X122996071Y-62755495D01*
X123091310Y-62803114D01*
X115366134Y-83154181D02*
X115032800Y-82677990D01*
X114794705Y-83154181D02*
X114794705Y-82154181D01*
X115175658Y-82154181D01*
X115270896Y-82201800D01*
X115318515Y-82249419D01*
X115366134Y-82344657D01*
X115366134Y-82487514D01*
X115318515Y-82582752D01*
X115270896Y-82630371D01*
X115175658Y-82677990D01*
X114794705Y-82677990D01*
X115699467Y-82154181D02*
X116366134Y-82154181D01*
X115937562Y-83154181D01*
X134345443Y-64193681D02*
X134012109Y-63717490D01*
X133774014Y-64193681D02*
X133774014Y-63193681D01*
X134154967Y-63193681D01*
X134250205Y-63241300D01*
X134297824Y-63288919D01*
X134345443Y-63384157D01*
X134345443Y-63527014D01*
X134297824Y-63622252D01*
X134250205Y-63669871D01*
X134154967Y-63717490D01*
X133774014Y-63717490D01*
X135297824Y-64193681D02*
X134726395Y-64193681D01*
X135012109Y-64193681D02*
X135012109Y-63193681D01*
X134916871Y-63336538D01*
X134821633Y-63431776D01*
X134726395Y-63479395D01*
X135916871Y-63193681D02*
X136012110Y-63193681D01*
X136107348Y-63241300D01*
X136154967Y-63288919D01*
X136202586Y-63384157D01*
X136250205Y-63574633D01*
X136250205Y-63812729D01*
X136202586Y-64003205D01*
X136154967Y-64098443D01*
X136107348Y-64146062D01*
X136012110Y-64193681D01*
X135916871Y-64193681D01*
X135821633Y-64146062D01*
X135774014Y-64098443D01*
X135726395Y-64003205D01*
X135678776Y-63812729D01*
X135678776Y-63574633D01*
X135726395Y-63384157D01*
X135774014Y-63288919D01*
X135821633Y-63241300D01*
X135916871Y-63193681D01*
X139463543Y-127680981D02*
X139130209Y-127204790D01*
X138892114Y-127680981D02*
X138892114Y-126680981D01*
X139273067Y-126680981D01*
X139368305Y-126728600D01*
X139415924Y-126776219D01*
X139463543Y-126871457D01*
X139463543Y-127014314D01*
X139415924Y-127109552D01*
X139368305Y-127157171D01*
X139273067Y-127204790D01*
X138892114Y-127204790D01*
X140415924Y-127680981D02*
X139844495Y-127680981D01*
X140130209Y-127680981D02*
X140130209Y-126680981D01*
X140034971Y-126823838D01*
X139939733Y-126919076D01*
X139844495Y-126966695D01*
X141320686Y-126680981D02*
X140844495Y-126680981D01*
X140796876Y-127157171D01*
X140844495Y-127109552D01*
X140939733Y-127061933D01*
X141177829Y-127061933D01*
X141273067Y-127109552D01*
X141320686Y-127157171D01*
X141368305Y-127252410D01*
X141368305Y-127490505D01*
X141320686Y-127585743D01*
X141273067Y-127633362D01*
X141177829Y-127680981D01*
X140939733Y-127680981D01*
X140844495Y-127633362D01*
X140796876Y-127585743D01*
X113423381Y-135516857D02*
X112947190Y-135850191D01*
X113423381Y-136088286D02*
X112423381Y-136088286D01*
X112423381Y-135707333D01*
X112471000Y-135612095D01*
X112518619Y-135564476D01*
X112613857Y-135516857D01*
X112756714Y-135516857D01*
X112851952Y-135564476D01*
X112899571Y-135612095D01*
X112947190Y-135707333D01*
X112947190Y-136088286D01*
X113423381Y-134564476D02*
X113423381Y-135135905D01*
X113423381Y-134850191D02*
X112423381Y-134850191D01*
X112566238Y-134945429D01*
X112661476Y-135040667D01*
X112709095Y-135135905D01*
X112423381Y-133707333D02*
X112423381Y-133897810D01*
X112471000Y-133993048D01*
X112518619Y-134040667D01*
X112661476Y-134135905D01*
X112851952Y-134183524D01*
X113232905Y-134183524D01*
X113328143Y-134135905D01*
X113375762Y-134088286D01*
X113423381Y-133993048D01*
X113423381Y-133802571D01*
X113375762Y-133707333D01*
X113328143Y-133659714D01*
X113232905Y-133612095D01*
X112994810Y-133612095D01*
X112899571Y-133659714D01*
X112851952Y-133707333D01*
X112804333Y-133802571D01*
X112804333Y-133993048D01*
X112851952Y-134088286D01*
X112899571Y-134135905D01*
X112994810Y-134183524D01*
X112463343Y-143420781D02*
X112130009Y-142944590D01*
X111891914Y-143420781D02*
X111891914Y-142420781D01*
X112272867Y-142420781D01*
X112368105Y-142468400D01*
X112415724Y-142516019D01*
X112463343Y-142611257D01*
X112463343Y-142754114D01*
X112415724Y-142849352D01*
X112368105Y-142896971D01*
X112272867Y-142944590D01*
X111891914Y-142944590D01*
X113415724Y-143420781D02*
X112844295Y-143420781D01*
X113130009Y-143420781D02*
X113130009Y-142420781D01*
X113034771Y-142563638D01*
X112939533Y-142658876D01*
X112844295Y-142706495D01*
X113749057Y-142420781D02*
X114415724Y-142420781D01*
X113987152Y-143420781D01*
X141609843Y-147459381D02*
X141276509Y-146983190D01*
X141038414Y-147459381D02*
X141038414Y-146459381D01*
X141419367Y-146459381D01*
X141514605Y-146507000D01*
X141562224Y-146554619D01*
X141609843Y-146649857D01*
X141609843Y-146792714D01*
X141562224Y-146887952D01*
X141514605Y-146935571D01*
X141419367Y-146983190D01*
X141038414Y-146983190D01*
X142562224Y-147459381D02*
X141990795Y-147459381D01*
X142276509Y-147459381D02*
X142276509Y-146459381D01*
X142181271Y-146602238D01*
X142086033Y-146697476D01*
X141990795Y-146745095D01*
X143133652Y-146887952D02*
X143038414Y-146840333D01*
X142990795Y-146792714D01*
X142943176Y-146697476D01*
X142943176Y-146649857D01*
X142990795Y-146554619D01*
X143038414Y-146507000D01*
X143133652Y-146459381D01*
X143324129Y-146459381D01*
X143419367Y-146507000D01*
X143466986Y-146554619D01*
X143514605Y-146649857D01*
X143514605Y-146697476D01*
X143466986Y-146792714D01*
X143419367Y-146840333D01*
X143324129Y-146887952D01*
X143133652Y-146887952D01*
X143038414Y-146935571D01*
X142990795Y-146983190D01*
X142943176Y-147078429D01*
X142943176Y-147268905D01*
X142990795Y-147364143D01*
X143038414Y-147411762D01*
X143133652Y-147459381D01*
X143324129Y-147459381D01*
X143419367Y-147411762D01*
X143466986Y-147364143D01*
X143514605Y-147268905D01*
X143514605Y-147078429D01*
X143466986Y-146983190D01*
X143419367Y-146935571D01*
X143324129Y-146887952D01*
X104398843Y-115099781D02*
X104065509Y-114623590D01*
X103827414Y-115099781D02*
X103827414Y-114099781D01*
X104208367Y-114099781D01*
X104303605Y-114147400D01*
X104351224Y-114195019D01*
X104398843Y-114290257D01*
X104398843Y-114433114D01*
X104351224Y-114528352D01*
X104303605Y-114575971D01*
X104208367Y-114623590D01*
X103827414Y-114623590D01*
X105351224Y-115099781D02*
X104779795Y-115099781D01*
X105065509Y-115099781D02*
X105065509Y-114099781D01*
X104970271Y-114242638D01*
X104875033Y-114337876D01*
X104779795Y-114385495D01*
X105827414Y-115099781D02*
X106017890Y-115099781D01*
X106113129Y-115052162D01*
X106160748Y-115004543D01*
X106255986Y-114861686D01*
X106303605Y-114671210D01*
X106303605Y-114290257D01*
X106255986Y-114195019D01*
X106208367Y-114147400D01*
X106113129Y-114099781D01*
X105922652Y-114099781D01*
X105827414Y-114147400D01*
X105779795Y-114195019D01*
X105732176Y-114290257D01*
X105732176Y-114528352D01*
X105779795Y-114623590D01*
X105827414Y-114671210D01*
X105922652Y-114718829D01*
X106113129Y-114718829D01*
X106208367Y-114671210D01*
X106255986Y-114623590D01*
X106303605Y-114528352D01*
X112063803Y-77804306D02*
X112111422Y-77851925D01*
X112159041Y-77994782D01*
X112159041Y-78090020D01*
X112111422Y-78232878D01*
X112016184Y-78328116D01*
X111920946Y-78375735D01*
X111730470Y-78423354D01*
X111587612Y-78423354D01*
X111397136Y-78375735D01*
X111301898Y-78328116D01*
X111206660Y-78232878D01*
X111159041Y-78090020D01*
X111159041Y-77994782D01*
X111206660Y-77851925D01*
X111254279Y-77804306D01*
X111254279Y-77423354D02*
X111206660Y-77375735D01*
X111159041Y-77280497D01*
X111159041Y-77042401D01*
X111206660Y-76947163D01*
X111254279Y-76899544D01*
X111349517Y-76851925D01*
X111444755Y-76851925D01*
X111587612Y-76899544D01*
X112159041Y-77470973D01*
X112159041Y-76851925D01*
X111277709Y-72567752D02*
X111277709Y-71805847D01*
X111658661Y-72186799D02*
X110896756Y-72186799D01*
X122255971Y-60815481D02*
X122255971Y-59815481D01*
X122589305Y-60529767D01*
X122922638Y-59815481D01*
X122922638Y-60815481D01*
X123541685Y-60815481D02*
X123446447Y-60767862D01*
X123398828Y-60720243D01*
X123351209Y-60625005D01*
X123351209Y-60339290D01*
X123398828Y-60244052D01*
X123446447Y-60196433D01*
X123541685Y-60148814D01*
X123684543Y-60148814D01*
X123779781Y-60196433D01*
X123827400Y-60244052D01*
X123875019Y-60339290D01*
X123875019Y-60625005D01*
X123827400Y-60720243D01*
X123779781Y-60767862D01*
X123684543Y-60815481D01*
X123541685Y-60815481D01*
X124732162Y-60148814D02*
X124732162Y-60815481D01*
X124303590Y-60148814D02*
X124303590Y-60672624D01*
X124351209Y-60767862D01*
X124446447Y-60815481D01*
X124589305Y-60815481D01*
X124684543Y-60767862D01*
X124732162Y-60720243D01*
X125208352Y-60148814D02*
X125208352Y-60815481D01*
X125208352Y-60244052D02*
X125255971Y-60196433D01*
X125351209Y-60148814D01*
X125494067Y-60148814D01*
X125589305Y-60196433D01*
X125636924Y-60291671D01*
X125636924Y-60815481D01*
X125970257Y-60148814D02*
X126351209Y-60148814D01*
X126113114Y-59815481D02*
X126113114Y-60672624D01*
X126160733Y-60767862D01*
X126255971Y-60815481D01*
X126351209Y-60815481D01*
X126684543Y-60815481D02*
X126684543Y-60148814D01*
X126684543Y-59815481D02*
X126636924Y-59863100D01*
X126684543Y-59910719D01*
X126732162Y-59863100D01*
X126684543Y-59815481D01*
X126684543Y-59910719D01*
X127160733Y-60148814D02*
X127160733Y-60815481D01*
X127160733Y-60244052D02*
X127208352Y-60196433D01*
X127303590Y-60148814D01*
X127446448Y-60148814D01*
X127541686Y-60196433D01*
X127589305Y-60291671D01*
X127589305Y-60815481D01*
X128494067Y-60148814D02*
X128494067Y-60958338D01*
X128446448Y-61053576D01*
X128398829Y-61101195D01*
X128303590Y-61148814D01*
X128160733Y-61148814D01*
X128065495Y-61101195D01*
X128494067Y-60767862D02*
X128398829Y-60815481D01*
X128208352Y-60815481D01*
X128113114Y-60767862D01*
X128065495Y-60720243D01*
X128017876Y-60625005D01*
X128017876Y-60339290D01*
X128065495Y-60244052D01*
X128113114Y-60196433D01*
X128208352Y-60148814D01*
X128398829Y-60148814D01*
X128494067Y-60196433D01*
X128970257Y-60815481D02*
X128970257Y-59815481D01*
X128970257Y-60291671D02*
X129541686Y-60291671D01*
X129541686Y-60815481D02*
X129541686Y-59815481D01*
X130160733Y-60815481D02*
X130065495Y-60767862D01*
X130017876Y-60720243D01*
X129970257Y-60625005D01*
X129970257Y-60339290D01*
X130017876Y-60244052D01*
X130065495Y-60196433D01*
X130160733Y-60148814D01*
X130303591Y-60148814D01*
X130398829Y-60196433D01*
X130446448Y-60244052D01*
X130494067Y-60339290D01*
X130494067Y-60625005D01*
X130446448Y-60720243D01*
X130398829Y-60767862D01*
X130303591Y-60815481D01*
X130160733Y-60815481D01*
X131065495Y-60815481D02*
X130970257Y-60767862D01*
X130922638Y-60672624D01*
X130922638Y-59815481D01*
X131827401Y-60767862D02*
X131732163Y-60815481D01*
X131541686Y-60815481D01*
X131446448Y-60767862D01*
X131398829Y-60672624D01*
X131398829Y-60291671D01*
X131446448Y-60196433D01*
X131541686Y-60148814D01*
X131732163Y-60148814D01*
X131827401Y-60196433D01*
X131875020Y-60291671D01*
X131875020Y-60386910D01*
X131398829Y-60482148D01*
X132065496Y-60910719D02*
X132827401Y-60910719D01*
X133017877Y-59910719D02*
X133065496Y-59863100D01*
X133160734Y-59815481D01*
X133398830Y-59815481D01*
X133494068Y-59863100D01*
X133541687Y-59910719D01*
X133589306Y-60005957D01*
X133589306Y-60101195D01*
X133541687Y-60244052D01*
X132970258Y-60815481D01*
X133589306Y-60815481D01*
X134017877Y-60434529D02*
X134779782Y-60434529D01*
X135160734Y-59815481D02*
X135827401Y-59815481D01*
X135398829Y-60815481D01*
X136208353Y-60815481D02*
X136208353Y-60148814D01*
X136208353Y-60244052D02*
X136255972Y-60196433D01*
X136351210Y-60148814D01*
X136494068Y-60148814D01*
X136589306Y-60196433D01*
X136636925Y-60291671D01*
X136636925Y-60815481D01*
X136636925Y-60291671D02*
X136684544Y-60196433D01*
X136779782Y-60148814D01*
X136922639Y-60148814D01*
X137017877Y-60196433D01*
X137065496Y-60291671D01*
X137065496Y-60815481D01*
X137541686Y-60815481D02*
X137541686Y-60148814D01*
X137541686Y-60244052D02*
X137589305Y-60196433D01*
X137684543Y-60148814D01*
X137827401Y-60148814D01*
X137922639Y-60196433D01*
X137970258Y-60291671D01*
X137970258Y-60815481D01*
X137970258Y-60291671D02*
X138017877Y-60196433D01*
X138113115Y-60148814D01*
X138255972Y-60148814D01*
X138351210Y-60196433D01*
X138398829Y-60291671D01*
X138398829Y-60815481D01*
M02*
