%FSLAX46Y46*%
G04 Gerber Fmt 4.6, Leading zero omitted, Abs format (unit mm)*
G04 Created by KiCad (PCBNEW (2014-10-27 BZR 5228)-product) date 07/01/2015 12:37:54*
%MOMM*%
G01*
G04 APERTURE LIST*
%ADD10C,0.100000*%
%ADD11C,0.300000*%
G04 APERTURE END LIST*
D10*
D11*
X150857230Y-148459000D02*
X151571516Y-148459000D01*
X150714373Y-148887571D02*
X151214373Y-147387571D01*
X151714373Y-148887571D01*
X153071516Y-148744714D02*
X153000087Y-148816143D01*
X152785801Y-148887571D01*
X152642944Y-148887571D01*
X152428659Y-148816143D01*
X152285801Y-148673286D01*
X152214373Y-148530429D01*
X152142944Y-148244714D01*
X152142944Y-148030429D01*
X152214373Y-147744714D01*
X152285801Y-147601857D01*
X152428659Y-147459000D01*
X152642944Y-147387571D01*
X152785801Y-147387571D01*
X153000087Y-147459000D01*
X153071516Y-147530429D01*
X153785801Y-148887571D02*
X154071516Y-148887571D01*
X154214373Y-148816143D01*
X154285801Y-148744714D01*
X154428659Y-148530429D01*
X154500087Y-148244714D01*
X154500087Y-147673286D01*
X154428659Y-147530429D01*
X154357230Y-147459000D01*
X154214373Y-147387571D01*
X153928659Y-147387571D01*
X153785801Y-147459000D01*
X153714373Y-147530429D01*
X153642944Y-147673286D01*
X153642944Y-148030429D01*
X153714373Y-148173286D01*
X153785801Y-148244714D01*
X153928659Y-148316143D01*
X154214373Y-148316143D01*
X154357230Y-148244714D01*
X154428659Y-148173286D01*
X154500087Y-148030429D01*
X155142944Y-148887571D02*
X155142944Y-147387571D01*
X155142944Y-148101857D02*
X156000087Y-148101857D01*
X156000087Y-148887571D02*
X156000087Y-147387571D01*
X157000087Y-148173286D02*
X157000087Y-148887571D01*
X156500087Y-147387571D02*
X157000087Y-148173286D01*
X157500087Y-147387571D01*
X159071515Y-147316143D02*
X157785801Y-149244714D01*
X159428659Y-147387571D02*
X159785802Y-148887571D01*
X160071516Y-147816143D01*
X160357230Y-148887571D01*
X160714373Y-147387571D01*
X161214373Y-148459000D02*
X161928659Y-148459000D01*
X161071516Y-148887571D02*
X161571516Y-147387571D01*
X162071516Y-148887571D01*
X162500087Y-147530429D02*
X162571516Y-147459000D01*
X162714373Y-147387571D01*
X163071516Y-147387571D01*
X163214373Y-147459000D01*
X163285802Y-147530429D01*
X163357230Y-147673286D01*
X163357230Y-147816143D01*
X163285802Y-148030429D01*
X162428659Y-148887571D01*
X163357230Y-148887571D01*
X164000087Y-148101857D02*
X164500087Y-148101857D01*
X164714373Y-148887571D02*
X164000087Y-148887571D01*
X164000087Y-147387571D01*
X164714373Y-147387571D01*
X165357230Y-147387571D02*
X165357230Y-148601857D01*
X165428658Y-148744714D01*
X165500087Y-148816143D01*
X165642944Y-148887571D01*
X165928658Y-148887571D01*
X166071516Y-148816143D01*
X166142944Y-148744714D01*
X166214373Y-148601857D01*
X166214373Y-147387571D01*
X167357230Y-147387571D02*
X167357230Y-148459000D01*
X167285802Y-148673286D01*
X167142945Y-148816143D01*
X166928659Y-148887571D01*
X166785802Y-148887571D01*
X169214373Y-148887571D02*
X169214373Y-147387571D01*
X169785801Y-147387571D01*
X169928659Y-147459000D01*
X170000087Y-147530429D01*
X170071516Y-147673286D01*
X170071516Y-147887571D01*
X170000087Y-148030429D01*
X169928659Y-148101857D01*
X169785801Y-148173286D01*
X169214373Y-148173286D01*
X170642944Y-148459000D02*
X171357230Y-148459000D01*
X170500087Y-148887571D02*
X171000087Y-147387571D01*
X171500087Y-148887571D01*
X172928658Y-147387571D02*
X173428658Y-148887571D01*
X173928658Y-147387571D01*
X175000086Y-148816143D02*
X174857229Y-148887571D01*
X174571515Y-148887571D01*
X174428658Y-148816143D01*
X174357229Y-148673286D01*
X174357229Y-148101857D01*
X174428658Y-147959000D01*
X174571515Y-147887571D01*
X174857229Y-147887571D01*
X175000086Y-147959000D01*
X175071515Y-148101857D01*
X175071515Y-148244714D01*
X174357229Y-148387571D01*
X175714372Y-148887571D02*
X175714372Y-147887571D01*
X175714372Y-148173286D02*
X175785800Y-148030429D01*
X175857229Y-147959000D01*
X176000086Y-147887571D01*
X176142943Y-147887571D01*
X178571514Y-148887571D02*
X177714371Y-148887571D01*
X178142943Y-148887571D02*
X178142943Y-147387571D01*
X178000086Y-147601857D01*
X177857228Y-147744714D01*
X177714371Y-147816143D01*
X179214371Y-148744714D02*
X179285799Y-148816143D01*
X179214371Y-148887571D01*
X179142942Y-148816143D01*
X179214371Y-148744714D01*
X179214371Y-148887571D01*
X180214371Y-147387571D02*
X180357228Y-147387571D01*
X180500085Y-147459000D01*
X180571514Y-147530429D01*
X180642943Y-147673286D01*
X180714371Y-147959000D01*
X180714371Y-148316143D01*
X180642943Y-148601857D01*
X180571514Y-148744714D01*
X180500085Y-148816143D01*
X180357228Y-148887571D01*
X180214371Y-148887571D01*
X180071514Y-148816143D01*
X180000085Y-148744714D01*
X179928657Y-148601857D01*
X179857228Y-148316143D01*
X179857228Y-147959000D01*
X179928657Y-147673286D01*
X180000085Y-147530429D01*
X180071514Y-147459000D01*
X180214371Y-147387571D01*
M02*
