M48
;DRILL file {kicad (2014-10-27 BZR 5228)-product} date 19/01/2015 06:24:06
;FORMAT={3:3/ absolute / metric / keep zeros}
FMAT,2
METRIC,TZ
T1C0.635
T2C0.813
T3C1.001
T4C1.016
T5C1.500
T6C4.000
T7C5.999
%
G90
G05
M71
T1
X100900Y-123300
X105100Y-131900
X108356Y-083795
X109500Y-131900
X110000Y-088200
X110900Y-111900
X111100Y-060200
X111100Y-084500
X113000Y-129300
X114681Y-072657
X114757Y-079362
X115000Y-051500
X115000Y-148500
X117100Y-106400
X117700Y-135400
X117900Y-137000
X118100Y-123700
X118200Y-112200
X118200Y-125700
X118273Y-083744
X118300Y-143800
X118300Y-146000
X118301Y-081191
X118500Y-103500
X118600Y-114800
X119200Y-135300
X119500Y-097100
X119600Y-102000
X120000Y-051500
X120000Y-148500
X120500Y-125200
X120600Y-115500
X121000Y-086900
X121000Y-141800
X121000Y-144800
X124000Y-137500
X124100Y-133700
X124200Y-136200
X124400Y-115300
X124700Y-126500
X125000Y-051500
X125000Y-148500
X125400Y-106500
X125700Y-088100
X126300Y-111700
X126300Y-115000
X126699Y-084001
X126800Y-125600
X126900Y-123500
X127500Y-106500
X127700Y-139000
X128900Y-148500
X129700Y-142300
X130000Y-051500
X131200Y-091700
X131300Y-086200
X131400Y-108100
X131400Y-128800
X132700Y-133300
X133200Y-084000
X134300Y-095700
X134300Y-097400
X134500Y-136600
X134600Y-105200
X134600Y-141600
X135000Y-051500
X135000Y-119300
X135000Y-148500
X136100Y-141600
X137500Y-087900
X137700Y-089900
X138049Y-098425
X139090Y-093523
X140000Y-148500
X140800Y-132500
X142100Y-098600
X143713Y-100051
X143800Y-091300
X143900Y-101500
X144145Y-095453
X144600Y-141800
X144897Y-102641
X144932Y-108168
X145000Y-148500
X145072Y-098844
X145263Y-117805
X145428Y-120663
X146000Y-091000
X147900Y-108900
X148200Y-138200
X148200Y-140100
X149600Y-101200
X149619Y-117310
X149619Y-119482
X149644Y-098743
X150000Y-148500
X150300Y-097200
X150368Y-115494
X150900Y-137100
X151700Y-079500
X152600Y-122000
X153340Y-106451
X153391Y-124498
X153400Y-146200
X153835Y-102426
X154900Y-146700
X155000Y-109400
X155000Y-148500
X157900Y-079600
X157975Y-112827
X158420Y-096241
X159144Y-116954
X159500Y-125700
X159900Y-132500
X160000Y-051500
X160000Y-148500
X160500Y-116800
X160500Y-141800
X162230Y-060833
X162400Y-134500
X165000Y-051500
X165000Y-148500
X166000Y-087400
X168600Y-072200
X168800Y-106100
X170000Y-051500
X170000Y-148500
X175000Y-051500
X175000Y-148500
X176100Y-146600
X176610Y-126860
X178500Y-086100
X178500Y-088800
X180000Y-051500
X180000Y-148500
X182000Y-118200
X185000Y-051600
X185000Y-148500
T2
X117170Y-062128
X117170Y-064668
X117170Y-067208
X152603Y-082207
X152603Y-084747
X152603Y-087287
X152603Y-089827
X152603Y-092367
X160223Y-082207
X160223Y-084747
X160223Y-087287
X160223Y-089827
X160223Y-092367
X168590Y-059520
X168590Y-062060
X168590Y-064600
X168590Y-067140
X168590Y-069680
X168590Y-074920
X168590Y-077460
X168590Y-080000
X168590Y-082540
X168590Y-085080
X168690Y-091320
X168690Y-093860
X168690Y-096400
X168690Y-098940
X168690Y-101480
X168790Y-107920
X168790Y-110460
X168790Y-113000
X168790Y-115540
X168790Y-118080
X168990Y-124320
X168990Y-126860
X168990Y-129400
X168990Y-131940
X168990Y-134480
X176210Y-059520
X176210Y-062060
X176210Y-064600
X176210Y-067140
X176210Y-069680
X176210Y-074920
X176210Y-077460
X176210Y-080000
X176210Y-082540
X176210Y-085080
X176310Y-091320
X176310Y-093860
X176310Y-096400
X176310Y-098940
X176310Y-101480
X176410Y-107920
X176410Y-110460
X176410Y-113000
X176410Y-115540
X176410Y-118080
X176610Y-124320
X176610Y-126860
X176610Y-129400
X176610Y-131940
X176610Y-134480
T3
X107700Y-102801
X107700Y-107802
X127660Y-055900
X130200Y-055900
X132740Y-055900
X135400Y-102298
X135400Y-107299
X142392Y-071641
X142392Y-077229
X156197Y-071704
X156197Y-077292
X160376Y-054917
X160376Y-065077
X180104Y-096796
X180196Y-129363
X180204Y-112796
X180304Y-064396
X180304Y-079396
X185692Y-096796
X185784Y-129363
X185792Y-112796
X185892Y-064396
X185892Y-079396
X190304Y-096996
X190396Y-129263
X190404Y-112896
X190504Y-064396
X190704Y-079396
X195892Y-096996
X195984Y-129263
X195992Y-112896
X196092Y-064396
X196292Y-079396
T4
X103035Y-079007
X103035Y-081547
X103137Y-060198
X103137Y-062738
X103137Y-065278
X103137Y-067818
X107391Y-069228
X109931Y-069228
X112650Y-091430
X112650Y-093970
X115190Y-091430
X115190Y-093970
X117730Y-091430
X117730Y-093970
X120270Y-091430
X120270Y-093970
X121600Y-083400
X122810Y-091430
X122810Y-093970
X123630Y-078900
X125350Y-091430
X125350Y-093970
X126170Y-078900
X130645Y-079248
X130645Y-081788
X135903Y-081140
X135903Y-083680
X138443Y-081140
X138443Y-083680
X138582Y-059976
X138582Y-067976
X160909Y-096723
X160909Y-099263
X160909Y-101803
X160909Y-104343
X160909Y-106883
X160909Y-109423
X160909Y-111963
X160909Y-114503
X172809Y-141567
X172809Y-144107
X175349Y-141567
X175349Y-144107
X177889Y-141567
X177889Y-144107
X180429Y-141567
X180429Y-144107
X182969Y-141567
X182969Y-144107
T5
X138582Y-055976
X138582Y-063976
T6
X104200Y-145800
X104300Y-054300
X104400Y-092400
X146400Y-084100
X146600Y-053800
X195600Y-054300
X195600Y-145700
T7
X130200Y-071200
T0
M30
