M48
;DRILL file {kicad (2014-10-27 BZR 5228)-product} date 10/01/2015 12:01:59
;FORMAT={-:-/ absolute / metric / decimal}
FMAT,2
METRIC,TZ
T1C0.635
T2C0.813
T3C1.001
T4C1.016
T5C1.500
T6C2.700
%
G90
G05
M71
T1
X102.108Y-101.727
X108.293Y-138.074
X108.356Y-83.795
X108.433Y-89.179
X110.033Y-124.396
X111.049Y-131.039
X111.811Y-105.575
X112.814Y-94.717
X113.538Y-112.319
X113.767Y-116.903
X114.681Y-72.657
X114.757Y-79.362
X116.065Y-99.517
X118.273Y-83.744
X118.301Y-81.191
X120.853Y-94.386
X121.031Y-108.687
X121.145Y-145.148
X124.015Y-138.659
X124.231Y-110.388
X124.333Y-99.517
X124.689Y-80.645
X124.854Y-116.015
X125.387Y-145.339
X125.679Y-94.361
X126.124Y-102.591
X127.825Y-130.518
X127.902Y-115.786
X129.083Y-131.712
X129.184Y-110.287
X129.857Y-145.174
X130.15Y-130.327
X130.378Y-93.497
X131.864Y-117.805
X132.893Y-98.603
X133.538Y-112.055
X134.341Y-98.565
X134.531Y-103.365
X134.95Y-111.176
X135.179Y-96.901
X135.306Y-88.671
X135.331Y-142.126
X135.382Y-92.558
X136.017Y-110.236
X136.182Y-117.183
X136.398Y-112.586
X137.185Y-87.96
X137.389Y-86.525
X137.503Y-124.46
X137.503Y-128.435
X137.617Y-93.307
X138.049Y-98.425
X138.709Y-104.521
X138.836Y-114.338
X139.09Y-93.523
X139.294Y-89.649
X141.808Y-126.949
X142.494Y-98.908
X142.596Y-94.59
X142.773Y-128.245
X142.837Y-115.405
X143.713Y-100.051
X143.866Y-113.157
X143.98Y-91.173
X144.145Y-95.453
X144.897Y-102.641
X144.932Y-108.168
X145.072Y-98.844
X145.085Y-110.071
X145.11Y-123.927
X145.263Y-117.805
X145.428Y-120.663
X145.504Y-112.052
X148.26Y-108.915
X148.806Y-142.964
X149.619Y-117.31
X149.619Y-119.482
X149.644Y-98.742
X149.835Y-138.049
X150.228Y-93.116
X150.368Y-115.494
X150.419Y-110.033
X150.432Y-131.267
X150.495Y-107.874
X151.359Y-132.207
X151.6Y-123.266
X151.663Y-105.169
X152.286Y-146.672
X152.883Y-129.972
X153.34Y-106.451
X153.391Y-124.498
X153.835Y-102.426
X153.937Y-139.23
X154.Y-129.184
X154.137Y-142.474
X154.838Y-107.899
X154.902Y-109.918
X156.058Y-109.309
X157.251Y-138.1
X157.975Y-112.827
X158.42Y-96.241
X159.144Y-116.954
X160.376Y-120.587
X161.506Y-122.644
X162.23Y-60.833
X163.055Y-126.34
X163.652Y-137.922
X164.744Y-143.307
X164.846Y-111.925
X164.96Y-128.295
X165.405Y-121.539
X166.357Y-138.976
X166.599Y-144.602
X167.31Y-88.633
X167.589Y-104.94
X168.11Y-138.811
X169.202Y-140.144
X177.533Y-138.405
T2
X117.17Y-62.128
X117.17Y-64.668
X117.17Y-67.208
X152.603Y-82.207
X152.603Y-84.747
X152.603Y-87.287
X152.603Y-89.827
X152.603Y-92.367
X160.223Y-82.207
X160.223Y-84.747
X160.223Y-87.287
X160.223Y-89.827
X160.223Y-92.367
X165.646Y-60.77
X165.646Y-68.389
X166.675Y-91.427
X166.675Y-93.967
X166.675Y-96.507
X166.675Y-99.047
X166.675Y-101.587
X166.726Y-75.273
X166.726Y-77.813
X166.726Y-80.353
X166.726Y-82.893
X166.726Y-85.433
X166.878Y-108.179
X166.878Y-110.719
X166.878Y-113.259
X166.878Y-115.799
X166.878Y-118.339
X167.056Y-124.447
X167.056Y-126.987
X167.056Y-129.527
X167.056Y-132.067
X167.056Y-134.607
X168.186Y-60.77
X168.186Y-68.389
X170.726Y-60.77
X170.726Y-68.389
X173.266Y-60.77
X173.266Y-68.389
X174.295Y-91.427
X174.295Y-93.967
X174.295Y-96.507
X174.295Y-99.047
X174.295Y-101.587
X174.346Y-75.273
X174.346Y-77.813
X174.346Y-80.353
X174.346Y-82.893
X174.346Y-85.433
X174.498Y-108.179
X174.498Y-110.719
X174.498Y-113.259
X174.498Y-115.799
X174.498Y-118.339
X174.676Y-124.447
X174.676Y-126.987
X174.676Y-129.527
X174.676Y-132.067
X174.676Y-134.607
X175.806Y-60.77
X175.806Y-68.389
T3
X106.172Y-85.001
X106.172Y-90.002
X122.138Y-112.547
X127.14Y-112.547
X127.66Y-55.9
X130.2Y-55.9
X132.74Y-55.9
X142.392Y-71.641
X142.392Y-77.229
X156.197Y-71.704
X156.197Y-77.292
X160.376Y-54.917
X160.376Y-65.077
X180.196Y-129.363
X180.242Y-113.152
X180.309Y-96.755
X180.35Y-79.765
X180.404Y-64.196
X185.784Y-129.363
X185.83Y-113.152
X185.897Y-96.755
X185.938Y-79.765
X185.992Y-64.196
X190.396Y-129.263
X190.442Y-113.252
X190.55Y-79.465
X190.609Y-96.755
X190.704Y-64.196
X195.984Y-129.263
X196.03Y-113.252
X196.138Y-79.465
X196.197Y-96.755
X196.292Y-64.196
T4
X103.035Y-79.007
X103.035Y-81.547
X103.137Y-60.198
X103.137Y-62.738
X103.137Y-65.278
X103.137Y-67.818
X107.391Y-69.228
X109.931Y-69.228
X112.865Y-88.951
X112.865Y-91.491
X115.405Y-88.951
X115.405Y-91.491
X117.945Y-88.951
X117.945Y-91.491
X120.485Y-88.951
X120.485Y-91.491
X123.025Y-88.951
X123.025Y-91.491
X124.308Y-70.447
X124.777Y-76.162
X125.565Y-88.951
X125.565Y-91.491
X126.848Y-70.447
X130.645Y-79.248
X130.645Y-81.788
X135.903Y-81.14
X135.903Y-83.68
X138.443Y-81.14
X138.443Y-83.68
X138.582Y-59.976
X138.582Y-67.976
X160.909Y-96.723
X160.909Y-99.263
X160.909Y-101.803
X160.909Y-104.343
X160.909Y-106.883
X160.909Y-109.423
X160.909Y-111.963
X160.909Y-114.503
X172.809Y-141.567
X172.809Y-144.107
X175.349Y-141.567
X175.349Y-144.107
X177.889Y-141.567
X177.889Y-144.107
X180.429Y-141.567
X180.429Y-144.107
X182.969Y-141.567
X182.969Y-144.107
T5
X138.582Y-55.976
X138.582Y-63.976
T6
X130.327Y-64.364
T0
M30
