%FSLAX45Y45*%
G04 Gerber Fmt 4.5, Leading zero omitted, Abs format (unit mm)*
G04 Created by KiCad (PCBNEW (2014-10-27 BZR 5228)-product) date 19/01/2015 06:24:07*
%MOMM*%
G01*
G04 APERTURE LIST*
%ADD10C,0.127000*%
%ADD11C,0.100000*%
%ADD12C,0.200000*%
%ADD13C,0.300000*%
G04 APERTURE END LIST*
D10*
D11*
X20000000Y-5000000D02*
X10000000Y-5000000D01*
X20000000Y-15000000D02*
X20000000Y-5000000D01*
X10000000Y-15000000D02*
X20000000Y-15000000D01*
X10000000Y-5000000D02*
X10000000Y-15000000D01*
D12*
X10058250Y-12298250D02*
X10121750Y-12361750D01*
X10121750Y-12298250D02*
X10058250Y-12361750D01*
X10478250Y-13158250D02*
X10541750Y-13221750D01*
X10541750Y-13158250D02*
X10478250Y-13221750D01*
X10803890Y-8347710D02*
X10867390Y-8411210D01*
X10867390Y-8347710D02*
X10803890Y-8411210D01*
X10918250Y-13158250D02*
X10981750Y-13221750D01*
X10981750Y-13158250D02*
X10918250Y-13221750D01*
X10968250Y-8788250D02*
X11031750Y-8851750D01*
X11031750Y-8788250D02*
X10968250Y-8851750D01*
X11058250Y-11158250D02*
X11121750Y-11221750D01*
X11121750Y-11158250D02*
X11058250Y-11221750D01*
X11078250Y-5988250D02*
X11141750Y-6051750D01*
X11141750Y-5988250D02*
X11078250Y-6051750D01*
X11078250Y-8418250D02*
X11141750Y-8481750D01*
X11141750Y-8418250D02*
X11078250Y-8481750D01*
X11268250Y-12898250D02*
X11331750Y-12961750D01*
X11331750Y-12898250D02*
X11268250Y-12961750D01*
X11436350Y-7233920D02*
X11499850Y-7297420D01*
X11499850Y-7233920D02*
X11436350Y-7297420D01*
X11443970Y-7904480D02*
X11507470Y-7967980D01*
X11507470Y-7904480D02*
X11443970Y-7967980D01*
X11468250Y-5118250D02*
X11531750Y-5181750D01*
X11531750Y-5118250D02*
X11468250Y-5181750D01*
X11468250Y-14818250D02*
X11531750Y-14881750D01*
X11531750Y-14818250D02*
X11468250Y-14881750D01*
X11678250Y-10608250D02*
X11741750Y-10671750D01*
X11741750Y-10608250D02*
X11678250Y-10671750D01*
X11738250Y-13508250D02*
X11801750Y-13571750D01*
X11801750Y-13508250D02*
X11738250Y-13571750D01*
X11758250Y-13668250D02*
X11821750Y-13731750D01*
X11821750Y-13668250D02*
X11758250Y-13731750D01*
X11778250Y-12338250D02*
X11841750Y-12401750D01*
X11841750Y-12338250D02*
X11778250Y-12401750D01*
X11788250Y-11188250D02*
X11851750Y-11251750D01*
X11851750Y-11188250D02*
X11788250Y-11251750D01*
X11788250Y-12538250D02*
X11851750Y-12601750D01*
X11851750Y-12538250D02*
X11788250Y-12601750D01*
X11795506Y-8342630D02*
X11859006Y-8406130D01*
X11859006Y-8342630D02*
X11795506Y-8406130D01*
X11798250Y-14348250D02*
X11861750Y-14411750D01*
X11861750Y-14348250D02*
X11798250Y-14411750D01*
X11798250Y-14568250D02*
X11861750Y-14631750D01*
X11861750Y-14568250D02*
X11798250Y-14631750D01*
X11798300Y-8087360D02*
X11861800Y-8150860D01*
X11861800Y-8087360D02*
X11798300Y-8150860D01*
X11818250Y-10318250D02*
X11881750Y-10381750D01*
X11881750Y-10318250D02*
X11818250Y-10381750D01*
X11828250Y-11448250D02*
X11891750Y-11511750D01*
X11891750Y-11448250D02*
X11828250Y-11511750D01*
X11888250Y-13498250D02*
X11951750Y-13561750D01*
X11951750Y-13498250D02*
X11888250Y-13561750D01*
X11918250Y-9678250D02*
X11981750Y-9741750D01*
X11981750Y-9678250D02*
X11918250Y-9741750D01*
X11928250Y-10168250D02*
X11991750Y-10231750D01*
X11991750Y-10168250D02*
X11928250Y-10231750D01*
X11968250Y-5118250D02*
X12031750Y-5181750D01*
X12031750Y-5118250D02*
X11968250Y-5181750D01*
X11968250Y-14818250D02*
X12031750Y-14881750D01*
X12031750Y-14818250D02*
X11968250Y-14881750D01*
X12018250Y-12488250D02*
X12081750Y-12551750D01*
X12081750Y-12488250D02*
X12018250Y-12551750D01*
X12028250Y-11518250D02*
X12091750Y-11581750D01*
X12091750Y-11518250D02*
X12028250Y-11581750D01*
X12068250Y-8658250D02*
X12131750Y-8721750D01*
X12131750Y-8658250D02*
X12068250Y-8721750D01*
X12068250Y-14148250D02*
X12131750Y-14211750D01*
X12131750Y-14148250D02*
X12068250Y-14211750D01*
X12068250Y-14448250D02*
X12131750Y-14511750D01*
X12131750Y-14448250D02*
X12068250Y-14511750D01*
X12368250Y-13718250D02*
X12431750Y-13781750D01*
X12431750Y-13718250D02*
X12368250Y-13781750D01*
X12378250Y-13338250D02*
X12441750Y-13401750D01*
X12441750Y-13338250D02*
X12378250Y-13401750D01*
X12388250Y-13588250D02*
X12451750Y-13651750D01*
X12451750Y-13588250D02*
X12388250Y-13651750D01*
X12408250Y-11498250D02*
X12471750Y-11561750D01*
X12471750Y-11498250D02*
X12408250Y-11561750D01*
X12438250Y-12618250D02*
X12501750Y-12681750D01*
X12501750Y-12618250D02*
X12438250Y-12681750D01*
X12468250Y-5118250D02*
X12531750Y-5181750D01*
X12531750Y-5118250D02*
X12468250Y-5181750D01*
X12468250Y-14818250D02*
X12531750Y-14881750D01*
X12531750Y-14818250D02*
X12468250Y-14881750D01*
X12508250Y-10618250D02*
X12571750Y-10681750D01*
X12571750Y-10618250D02*
X12508250Y-10681750D01*
X12538250Y-8778250D02*
X12601750Y-8841750D01*
X12601750Y-8778250D02*
X12538250Y-8841750D01*
X12598250Y-11138250D02*
X12661750Y-11201750D01*
X12661750Y-11138250D02*
X12598250Y-11201750D01*
X12598250Y-11468250D02*
X12661750Y-11531750D01*
X12661750Y-11468250D02*
X12598250Y-11531750D01*
X12638120Y-8368380D02*
X12701620Y-8431880D01*
X12701620Y-8368380D02*
X12638120Y-8431880D01*
X12648250Y-12528250D02*
X12711750Y-12591750D01*
X12711750Y-12528250D02*
X12648250Y-12591750D01*
X12658250Y-12318250D02*
X12721750Y-12381750D01*
X12721750Y-12318250D02*
X12658250Y-12381750D01*
X12718250Y-10618250D02*
X12781750Y-10681750D01*
X12781750Y-10618250D02*
X12718250Y-10681750D01*
X12738250Y-13868250D02*
X12801750Y-13931750D01*
X12801750Y-13868250D02*
X12738250Y-13931750D01*
X12858250Y-14818250D02*
X12921750Y-14881750D01*
X12921750Y-14818250D02*
X12858250Y-14881750D01*
X12938250Y-14198250D02*
X13001750Y-14261750D01*
X13001750Y-14198250D02*
X12938250Y-14261750D01*
X12968250Y-5118250D02*
X13031750Y-5181750D01*
X13031750Y-5118250D02*
X12968250Y-5181750D01*
X13088250Y-9138250D02*
X13151750Y-9201750D01*
X13151750Y-9138250D02*
X13088250Y-9201750D01*
X13098250Y-8588250D02*
X13161750Y-8651750D01*
X13161750Y-8588250D02*
X13098250Y-8651750D01*
X13108250Y-10778250D02*
X13171750Y-10841750D01*
X13171750Y-10778250D02*
X13108250Y-10841750D01*
X13108250Y-12848250D02*
X13171750Y-12911750D01*
X13171750Y-12848250D02*
X13108250Y-12911750D01*
X13238250Y-13298250D02*
X13301750Y-13361750D01*
X13301750Y-13298250D02*
X13238250Y-13361750D01*
X13288250Y-8368250D02*
X13351750Y-8431750D01*
X13351750Y-8368250D02*
X13288250Y-8431750D01*
X13398250Y-9538250D02*
X13461750Y-9601750D01*
X13461750Y-9538250D02*
X13398250Y-9601750D01*
X13398250Y-9708250D02*
X13461750Y-9771750D01*
X13461750Y-9708250D02*
X13398250Y-9771750D01*
X13418250Y-13628250D02*
X13481750Y-13691750D01*
X13481750Y-13628250D02*
X13418250Y-13691750D01*
X13428250Y-10488250D02*
X13491750Y-10551750D01*
X13491750Y-10488250D02*
X13428250Y-10551750D01*
X13428250Y-14128250D02*
X13491750Y-14191750D01*
X13491750Y-14128250D02*
X13428250Y-14191750D01*
X13468250Y-5118250D02*
X13531750Y-5181750D01*
X13531750Y-5118250D02*
X13468250Y-5181750D01*
X13468250Y-11898250D02*
X13531750Y-11961750D01*
X13531750Y-11898250D02*
X13468250Y-11961750D01*
X13468250Y-14818250D02*
X13531750Y-14881750D01*
X13531750Y-14818250D02*
X13468250Y-14881750D01*
X13578250Y-14128250D02*
X13641750Y-14191750D01*
X13641750Y-14128250D02*
X13578250Y-14191750D01*
X13718250Y-8758250D02*
X13781750Y-8821750D01*
X13781750Y-8758250D02*
X13718250Y-8821750D01*
X13738250Y-8958250D02*
X13801750Y-9021750D01*
X13801750Y-8958250D02*
X13738250Y-9021750D01*
X13773150Y-9810750D02*
X13836650Y-9874250D01*
X13836650Y-9810750D02*
X13773150Y-9874250D01*
X13877290Y-9320530D02*
X13940790Y-9384030D01*
X13940790Y-9320530D02*
X13877290Y-9384030D01*
X13968250Y-14818250D02*
X14031750Y-14881750D01*
X14031750Y-14818250D02*
X13968250Y-14881750D01*
X14048250Y-13218250D02*
X14111750Y-13281750D01*
X14111750Y-13218250D02*
X14048250Y-13281750D01*
X14178250Y-9828250D02*
X14241750Y-9891750D01*
X14241750Y-9828250D02*
X14178250Y-9891750D01*
X14339570Y-9973310D02*
X14403070Y-10036810D01*
X14403070Y-9973310D02*
X14339570Y-10036810D01*
X14348250Y-9098250D02*
X14411750Y-9161750D01*
X14411750Y-9098250D02*
X14348250Y-9161750D01*
X14358250Y-10118250D02*
X14421750Y-10181750D01*
X14421750Y-10118250D02*
X14358250Y-10181750D01*
X14382750Y-9513570D02*
X14446250Y-9577070D01*
X14446250Y-9513570D02*
X14382750Y-9577070D01*
X14428250Y-14148250D02*
X14491750Y-14211750D01*
X14491750Y-14148250D02*
X14428250Y-14211750D01*
X14457934Y-10232390D02*
X14521434Y-10295890D01*
X14521434Y-10232390D02*
X14457934Y-10295890D01*
X14461490Y-10785094D02*
X14524990Y-10848594D01*
X14524990Y-10785094D02*
X14461490Y-10848594D01*
X14468250Y-14818250D02*
X14531750Y-14881750D01*
X14531750Y-14818250D02*
X14468250Y-14881750D01*
X14475460Y-9852660D02*
X14538960Y-9916160D01*
X14538960Y-9852660D02*
X14475460Y-9916160D01*
X14494510Y-11748770D02*
X14558010Y-11812270D01*
X14558010Y-11748770D02*
X14494510Y-11812270D01*
X14511020Y-12034520D02*
X14574520Y-12098020D01*
X14574520Y-12034520D02*
X14511020Y-12098020D01*
X14568250Y-9068250D02*
X14631750Y-9131750D01*
X14631750Y-9068250D02*
X14568250Y-9131750D01*
X14758250Y-10858250D02*
X14821750Y-10921750D01*
X14821750Y-10858250D02*
X14758250Y-10921750D01*
X14788250Y-13788250D02*
X14851750Y-13851750D01*
X14851750Y-13788250D02*
X14788250Y-13851750D01*
X14788250Y-13978250D02*
X14851750Y-14041750D01*
X14851750Y-13978250D02*
X14788250Y-14041750D01*
X14928250Y-10088250D02*
X14991750Y-10151750D01*
X14991750Y-10088250D02*
X14928250Y-10151750D01*
X14930120Y-11699240D02*
X14993620Y-11762740D01*
X14993620Y-11699240D02*
X14930120Y-11762740D01*
X14930120Y-11916410D02*
X14993620Y-11979910D01*
X14993620Y-11916410D02*
X14930120Y-11979910D01*
X14932660Y-9842500D02*
X14996160Y-9906000D01*
X14996160Y-9842500D02*
X14932660Y-9906000D01*
X14968250Y-14818250D02*
X15031750Y-14881750D01*
X15031750Y-14818250D02*
X14968250Y-14881750D01*
X14998250Y-9688250D02*
X15061750Y-9751750D01*
X15061750Y-9688250D02*
X14998250Y-9751750D01*
X15005050Y-11517630D02*
X15068550Y-11581130D01*
X15068550Y-11517630D02*
X15005050Y-11581130D01*
X15058250Y-13678250D02*
X15121750Y-13741750D01*
X15121750Y-13678250D02*
X15058250Y-13741750D01*
X15138250Y-7918250D02*
X15201750Y-7981750D01*
X15201750Y-7918250D02*
X15138250Y-7981750D01*
X15228250Y-12168250D02*
X15291750Y-12231750D01*
X15291750Y-12168250D02*
X15228250Y-12231750D01*
X15302230Y-10613390D02*
X15365730Y-10676890D01*
X15365730Y-10613390D02*
X15302230Y-10676890D01*
X15307310Y-12418060D02*
X15370810Y-12481560D01*
X15370810Y-12418060D02*
X15307310Y-12481560D01*
X15308250Y-14588250D02*
X15371750Y-14651750D01*
X15371750Y-14588250D02*
X15308250Y-14651750D01*
X15351760Y-10210800D02*
X15415260Y-10274300D01*
X15415260Y-10210800D02*
X15351760Y-10274300D01*
X15458250Y-14638250D02*
X15521750Y-14701750D01*
X15521750Y-14638250D02*
X15458250Y-14701750D01*
X15468250Y-10908250D02*
X15531750Y-10971750D01*
X15531750Y-10908250D02*
X15468250Y-10971750D01*
X15468250Y-14818250D02*
X15531750Y-14881750D01*
X15531750Y-14818250D02*
X15468250Y-14881750D01*
X15758250Y-7928250D02*
X15821750Y-7991750D01*
X15821750Y-7928250D02*
X15758250Y-7991750D01*
X15765780Y-11250930D02*
X15829280Y-11314430D01*
X15829280Y-11250930D02*
X15765780Y-11314430D01*
X15810230Y-9592310D02*
X15873730Y-9655810D01*
X15873730Y-9592310D02*
X15810230Y-9655810D01*
X15882620Y-11663680D02*
X15946120Y-11727180D01*
X15946120Y-11663680D02*
X15882620Y-11727180D01*
X15918250Y-12538250D02*
X15981750Y-12601750D01*
X15981750Y-12538250D02*
X15918250Y-12601750D01*
X15958250Y-13218250D02*
X16021750Y-13281750D01*
X16021750Y-13218250D02*
X15958250Y-13281750D01*
X15968250Y-5118250D02*
X16031750Y-5181750D01*
X16031750Y-5118250D02*
X15968250Y-5181750D01*
X15968250Y-14818250D02*
X16031750Y-14881750D01*
X16031750Y-14818250D02*
X15968250Y-14881750D01*
X16018250Y-11648250D02*
X16081750Y-11711750D01*
X16081750Y-11648250D02*
X16018250Y-11711750D01*
X16018250Y-14148250D02*
X16081750Y-14211750D01*
X16081750Y-14148250D02*
X16018250Y-14211750D01*
X16191230Y-6051550D02*
X16254730Y-6115050D01*
X16254730Y-6051550D02*
X16191230Y-6115050D01*
X16208250Y-13418250D02*
X16271750Y-13481750D01*
X16271750Y-13418250D02*
X16208250Y-13481750D01*
X16468250Y-5118250D02*
X16531750Y-5181750D01*
X16531750Y-5118250D02*
X16468250Y-5181750D01*
X16468250Y-14818250D02*
X16531750Y-14881750D01*
X16531750Y-14818250D02*
X16468250Y-14881750D01*
X16568250Y-8708250D02*
X16631750Y-8771750D01*
X16631750Y-8708250D02*
X16568250Y-8771750D01*
X16828250Y-7188250D02*
X16891750Y-7251750D01*
X16891750Y-7188250D02*
X16828250Y-7251750D01*
X16848250Y-10578250D02*
X16911750Y-10641750D01*
X16911750Y-10578250D02*
X16848250Y-10641750D01*
X16968250Y-5118250D02*
X17031750Y-5181750D01*
X17031750Y-5118250D02*
X16968250Y-5181750D01*
X16968250Y-14818250D02*
X17031750Y-14881750D01*
X17031750Y-14818250D02*
X16968250Y-14881750D01*
X17468250Y-5118250D02*
X17531750Y-5181750D01*
X17531750Y-5118250D02*
X17468250Y-5181750D01*
X17468250Y-14818250D02*
X17531750Y-14881750D01*
X17531750Y-14818250D02*
X17468250Y-14881750D01*
X17578250Y-14628250D02*
X17641750Y-14691750D01*
X17641750Y-14628250D02*
X17578250Y-14691750D01*
X17629250Y-12654250D02*
X17692750Y-12717750D01*
X17692750Y-12654250D02*
X17629250Y-12717750D01*
X17818250Y-8578250D02*
X17881750Y-8641750D01*
X17881750Y-8578250D02*
X17818250Y-8641750D01*
X17818250Y-8848250D02*
X17881750Y-8911750D01*
X17881750Y-8848250D02*
X17818250Y-8911750D01*
X17968250Y-5118250D02*
X18031750Y-5181750D01*
X18031750Y-5118250D02*
X17968250Y-5181750D01*
X17968250Y-14818250D02*
X18031750Y-14881750D01*
X18031750Y-14818250D02*
X17968250Y-14881750D01*
X18168250Y-11788250D02*
X18231750Y-11851750D01*
X18231750Y-11788250D02*
X18168250Y-11851750D01*
X18468250Y-5128250D02*
X18531750Y-5191750D01*
X18531750Y-5128250D02*
X18468250Y-5191750D01*
X18468250Y-14818250D02*
X18531750Y-14881750D01*
X18531750Y-14818250D02*
X18468250Y-14881750D01*
X11757660Y-6212840D02*
G75*
G03X11757660Y-6212840I-40640J0D01*
G01*
X11757660Y-6466840D02*
G75*
G03X11757660Y-6466840I-40640J0D01*
G01*
X11757660Y-6720840D02*
G75*
G03X11757660Y-6720840I-40640J0D01*
G01*
X15300960Y-8220710D02*
G75*
G03X15300960Y-8220710I-40640J0D01*
G01*
X15300960Y-8474710D02*
G75*
G03X15300960Y-8474710I-40640J0D01*
G01*
X15300960Y-8728710D02*
G75*
G03X15300960Y-8728710I-40640J0D01*
G01*
X15300960Y-8982710D02*
G75*
G03X15300960Y-8982710I-40640J0D01*
G01*
X15300960Y-9236710D02*
G75*
G03X15300960Y-9236710I-40640J0D01*
G01*
X16062960Y-8220710D02*
G75*
G03X16062960Y-8220710I-40640J0D01*
G01*
X16062960Y-8474710D02*
G75*
G03X16062960Y-8474710I-40640J0D01*
G01*
X16062960Y-8728710D02*
G75*
G03X16062960Y-8728710I-40640J0D01*
G01*
X16062960Y-8982710D02*
G75*
G03X16062960Y-8982710I-40640J0D01*
G01*
X16062960Y-9236710D02*
G75*
G03X16062960Y-9236710I-40640J0D01*
G01*
X16899640Y-5952000D02*
G75*
G03X16899640Y-5952000I-40640J0D01*
G01*
X16899640Y-6206000D02*
G75*
G03X16899640Y-6206000I-40640J0D01*
G01*
X16899640Y-6460000D02*
G75*
G03X16899640Y-6460000I-40640J0D01*
G01*
X16899640Y-6714000D02*
G75*
G03X16899640Y-6714000I-40640J0D01*
G01*
X16899640Y-6968000D02*
G75*
G03X16899640Y-6968000I-40640J0D01*
G01*
X16899640Y-7492000D02*
G75*
G03X16899640Y-7492000I-40640J0D01*
G01*
X16899640Y-7746000D02*
G75*
G03X16899640Y-7746000I-40640J0D01*
G01*
X16899640Y-8000000D02*
G75*
G03X16899640Y-8000000I-40640J0D01*
G01*
X16899640Y-8254000D02*
G75*
G03X16899640Y-8254000I-40640J0D01*
G01*
X16899640Y-8508000D02*
G75*
G03X16899640Y-8508000I-40640J0D01*
G01*
X16909640Y-9132000D02*
G75*
G03X16909640Y-9132000I-40640J0D01*
G01*
X16909640Y-9386000D02*
G75*
G03X16909640Y-9386000I-40640J0D01*
G01*
X16909640Y-9640000D02*
G75*
G03X16909640Y-9640000I-40640J0D01*
G01*
X16909640Y-9894000D02*
G75*
G03X16909640Y-9894000I-40640J0D01*
G01*
X16909640Y-10148000D02*
G75*
G03X16909640Y-10148000I-40640J0D01*
G01*
X16919640Y-10792000D02*
G75*
G03X16919640Y-10792000I-40640J0D01*
G01*
X16919640Y-11046000D02*
G75*
G03X16919640Y-11046000I-40640J0D01*
G01*
X16919640Y-11300000D02*
G75*
G03X16919640Y-11300000I-40640J0D01*
G01*
X16919640Y-11554000D02*
G75*
G03X16919640Y-11554000I-40640J0D01*
G01*
X16919640Y-11808000D02*
G75*
G03X16919640Y-11808000I-40640J0D01*
G01*
X16939640Y-12432000D02*
G75*
G03X16939640Y-12432000I-40640J0D01*
G01*
X16939640Y-12686000D02*
G75*
G03X16939640Y-12686000I-40640J0D01*
G01*
X16939640Y-12940000D02*
G75*
G03X16939640Y-12940000I-40640J0D01*
G01*
X16939640Y-13194000D02*
G75*
G03X16939640Y-13194000I-40640J0D01*
G01*
X16939640Y-13448000D02*
G75*
G03X16939640Y-13448000I-40640J0D01*
G01*
X17661640Y-5952000D02*
G75*
G03X17661640Y-5952000I-40640J0D01*
G01*
X17661640Y-6206000D02*
G75*
G03X17661640Y-6206000I-40640J0D01*
G01*
X17661640Y-6460000D02*
G75*
G03X17661640Y-6460000I-40640J0D01*
G01*
X17661640Y-6714000D02*
G75*
G03X17661640Y-6714000I-40640J0D01*
G01*
X17661640Y-6968000D02*
G75*
G03X17661640Y-6968000I-40640J0D01*
G01*
X17661640Y-7492000D02*
G75*
G03X17661640Y-7492000I-40640J0D01*
G01*
X17661640Y-7746000D02*
G75*
G03X17661640Y-7746000I-40640J0D01*
G01*
X17661640Y-8000000D02*
G75*
G03X17661640Y-8000000I-40640J0D01*
G01*
X17661640Y-8254000D02*
G75*
G03X17661640Y-8254000I-40640J0D01*
G01*
X17661640Y-8508000D02*
G75*
G03X17661640Y-8508000I-40640J0D01*
G01*
X17671640Y-9132000D02*
G75*
G03X17671640Y-9132000I-40640J0D01*
G01*
X17671640Y-9386000D02*
G75*
G03X17671640Y-9386000I-40640J0D01*
G01*
X17671640Y-9640000D02*
G75*
G03X17671640Y-9640000I-40640J0D01*
G01*
X17671640Y-9894000D02*
G75*
G03X17671640Y-9894000I-40640J0D01*
G01*
X17671640Y-10148000D02*
G75*
G03X17671640Y-10148000I-40640J0D01*
G01*
X17681640Y-10792000D02*
G75*
G03X17681640Y-10792000I-40640J0D01*
G01*
X17681640Y-11046000D02*
G75*
G03X17681640Y-11046000I-40640J0D01*
G01*
X17681640Y-11300000D02*
G75*
G03X17681640Y-11300000I-40640J0D01*
G01*
X17681640Y-11554000D02*
G75*
G03X17681640Y-11554000I-40640J0D01*
G01*
X17681640Y-11808000D02*
G75*
G03X17681640Y-11808000I-40640J0D01*
G01*
X17701640Y-12432000D02*
G75*
G03X17701640Y-12432000I-40640J0D01*
G01*
X17701640Y-12686000D02*
G75*
G03X17701640Y-12686000I-40640J0D01*
G01*
X17701640Y-12940000D02*
G75*
G03X17701640Y-12940000I-40640J0D01*
G01*
X17701640Y-13194000D02*
G75*
G03X17701640Y-13194000I-40640J0D01*
G01*
X17701640Y-13448000D02*
G75*
G03X17701640Y-13448000I-40640J0D01*
G01*
X10770000Y-10230026D02*
X10770000Y-10330102D01*
X10719962Y-10280064D02*
X10820038Y-10280064D01*
X10770000Y-10730152D02*
X10770000Y-10830228D01*
X10719962Y-10780190D02*
X10820038Y-10780190D01*
X12766000Y-5539962D02*
X12766000Y-5640038D01*
X12715962Y-5590000D02*
X12816038Y-5590000D01*
X13020000Y-5539962D02*
X13020000Y-5640038D01*
X12969962Y-5590000D02*
X13070038Y-5590000D01*
X13274000Y-5539962D02*
X13274000Y-5640038D01*
X13223962Y-5590000D02*
X13324038Y-5590000D01*
X13540000Y-10179772D02*
X13540000Y-10279848D01*
X13489962Y-10229810D02*
X13590038Y-10229810D01*
X13540000Y-10679898D02*
X13540000Y-10779974D01*
X13489962Y-10729936D02*
X13590038Y-10729936D01*
X14239240Y-7114032D02*
X14239240Y-7214108D01*
X14189202Y-7164070D02*
X14289278Y-7164070D01*
X14239240Y-7672832D02*
X14239240Y-7772908D01*
X14189202Y-7722870D02*
X14289278Y-7722870D01*
X15619730Y-7120382D02*
X15619730Y-7220458D01*
X15569692Y-7170420D02*
X15669768Y-7170420D01*
X15619730Y-7679182D02*
X15619730Y-7779258D01*
X15569692Y-7729220D02*
X15669768Y-7729220D01*
X16037560Y-5441696D02*
X16037560Y-5541772D01*
X15987522Y-5491734D02*
X16087598Y-5491734D01*
X16037560Y-6457696D02*
X16037560Y-6557772D01*
X15987522Y-6507734D02*
X16087598Y-6507734D01*
X18010400Y-9629562D02*
X18010400Y-9729638D01*
X17960362Y-9679600D02*
X18060438Y-9679600D01*
X18019600Y-12886262D02*
X18019600Y-12986338D01*
X17969562Y-12936300D02*
X18069638Y-12936300D01*
X18020400Y-11229562D02*
X18020400Y-11329638D01*
X17970362Y-11279600D02*
X18070438Y-11279600D01*
X18030400Y-6389562D02*
X18030400Y-6489638D01*
X17980362Y-6439600D02*
X18080438Y-6439600D01*
X18030400Y-7889562D02*
X18030400Y-7989638D01*
X17980362Y-7939600D02*
X18080438Y-7939600D01*
X18569200Y-9629562D02*
X18569200Y-9729638D01*
X18519162Y-9679600D02*
X18619238Y-9679600D01*
X18578400Y-12886262D02*
X18578400Y-12986338D01*
X18528362Y-12936300D02*
X18628438Y-12936300D01*
X18579200Y-11229562D02*
X18579200Y-11329638D01*
X18529162Y-11279600D02*
X18629238Y-11279600D01*
X18589200Y-6389562D02*
X18589200Y-6489638D01*
X18539162Y-6439600D02*
X18639238Y-6439600D01*
X18589200Y-7889562D02*
X18589200Y-7989638D01*
X18539162Y-7939600D02*
X18639238Y-7939600D01*
X19030400Y-9649562D02*
X19030400Y-9749638D01*
X18980362Y-9699600D02*
X19080438Y-9699600D01*
X19039600Y-12876262D02*
X19039600Y-12976338D01*
X18989562Y-12926300D02*
X19089638Y-12926300D01*
X19040400Y-11239562D02*
X19040400Y-11339638D01*
X18990362Y-11289600D02*
X19090438Y-11289600D01*
X19050400Y-6389562D02*
X19050400Y-6489638D01*
X19000362Y-6439600D02*
X19100438Y-6439600D01*
X19070400Y-7889562D02*
X19070400Y-7989638D01*
X19020362Y-7939600D02*
X19120438Y-7939600D01*
X19589200Y-9649562D02*
X19589200Y-9749638D01*
X19539162Y-9699600D02*
X19639238Y-9699600D01*
X19598400Y-12876262D02*
X19598400Y-12976338D01*
X19548362Y-12926300D02*
X19648438Y-12926300D01*
X19599200Y-11239562D02*
X19599200Y-11339638D01*
X19549162Y-11289600D02*
X19649238Y-11289600D01*
X19609200Y-6389562D02*
X19609200Y-6489638D01*
X19559162Y-6439600D02*
X19659238Y-6439600D01*
X19629200Y-7889562D02*
X19629200Y-7989638D01*
X19579162Y-7939600D02*
X19679238Y-7939600D01*
X10339431Y-7936591D02*
X10339431Y-7864749D01*
X10267589Y-7864749D01*
X10267589Y-7936591D01*
X10339431Y-7936591D01*
X10339431Y-8190591D02*
X10339431Y-8118749D01*
X10267589Y-8118749D01*
X10267589Y-8190591D01*
X10339431Y-8190591D01*
X10349591Y-6055721D02*
X10349591Y-5983879D01*
X10277749Y-5983879D01*
X10277749Y-6055721D01*
X10349591Y-6055721D01*
X10349591Y-6309721D02*
X10349591Y-6237879D01*
X10277749Y-6237879D01*
X10277749Y-6309721D01*
X10349591Y-6309721D01*
X10349591Y-6563721D02*
X10349591Y-6491879D01*
X10277749Y-6491879D01*
X10277749Y-6563721D01*
X10349591Y-6563721D01*
X10349591Y-6817721D02*
X10349591Y-6745879D01*
X10277749Y-6745879D01*
X10277749Y-6817721D01*
X10349591Y-6817721D01*
X10775041Y-6958691D02*
X10775041Y-6886849D01*
X10703199Y-6886849D01*
X10703199Y-6958691D01*
X10775041Y-6958691D01*
X11029041Y-6958691D02*
X11029041Y-6886849D01*
X10957199Y-6886849D01*
X10957199Y-6958691D01*
X11029041Y-6958691D01*
X11300921Y-9178921D02*
X11300921Y-9107079D01*
X11229079Y-9107079D01*
X11229079Y-9178921D01*
X11300921Y-9178921D01*
X11300921Y-9432921D02*
X11300921Y-9361079D01*
X11229079Y-9361079D01*
X11229079Y-9432921D01*
X11300921Y-9432921D01*
X11554921Y-9178921D02*
X11554921Y-9107079D01*
X11483079Y-9107079D01*
X11483079Y-9178921D01*
X11554921Y-9178921D01*
X11554921Y-9432921D02*
X11554921Y-9361079D01*
X11483079Y-9361079D01*
X11483079Y-9432921D01*
X11554921Y-9432921D01*
X11808921Y-9178921D02*
X11808921Y-9107079D01*
X11737079Y-9107079D01*
X11737079Y-9178921D01*
X11808921Y-9178921D01*
X11808921Y-9432921D02*
X11808921Y-9361079D01*
X11737079Y-9361079D01*
X11737079Y-9432921D01*
X11808921Y-9432921D01*
X12062921Y-9178921D02*
X12062921Y-9107079D01*
X11991079Y-9107079D01*
X11991079Y-9178921D01*
X12062921Y-9178921D01*
X12062921Y-9432921D02*
X12062921Y-9361079D01*
X11991079Y-9361079D01*
X11991079Y-9432921D01*
X12062921Y-9432921D01*
X12195921Y-8375921D02*
X12195921Y-8304079D01*
X12124079Y-8304079D01*
X12124079Y-8375921D01*
X12195921Y-8375921D01*
X12316921Y-9178921D02*
X12316921Y-9107079D01*
X12245079Y-9107079D01*
X12245079Y-9178921D01*
X12316921Y-9178921D01*
X12316921Y-9432921D02*
X12316921Y-9361079D01*
X12245079Y-9361079D01*
X12245079Y-9432921D01*
X12316921Y-9432921D01*
X12398921Y-7925921D02*
X12398921Y-7854079D01*
X12327079Y-7854079D01*
X12327079Y-7925921D01*
X12398921Y-7925921D01*
X12570921Y-9178921D02*
X12570921Y-9107079D01*
X12499079Y-9107079D01*
X12499079Y-9178921D01*
X12570921Y-9178921D01*
X12570921Y-9432921D02*
X12570921Y-9361079D01*
X12499079Y-9361079D01*
X12499079Y-9432921D01*
X12570921Y-9432921D01*
X12652921Y-7925921D02*
X12652921Y-7854079D01*
X12581079Y-7854079D01*
X12581079Y-7925921D01*
X12652921Y-7925921D01*
X13100411Y-7960721D02*
X13100411Y-7888879D01*
X13028569Y-7888879D01*
X13028569Y-7960721D01*
X13100411Y-7960721D01*
X13100411Y-8214721D02*
X13100411Y-8142879D01*
X13028569Y-8142879D01*
X13028569Y-8214721D01*
X13100411Y-8214721D01*
X13626191Y-8149951D02*
X13626191Y-8078109D01*
X13554349Y-8078109D01*
X13554349Y-8149951D01*
X13626191Y-8149951D01*
X13626191Y-8403951D02*
X13626191Y-8332109D01*
X13554349Y-8332109D01*
X13554349Y-8403951D01*
X13626191Y-8403951D01*
X13880191Y-8149951D02*
X13880191Y-8078109D01*
X13808349Y-8078109D01*
X13808349Y-8149951D01*
X13880191Y-8149951D01*
X13880191Y-8403951D02*
X13880191Y-8332109D01*
X13808349Y-8332109D01*
X13808349Y-8403951D01*
X13880191Y-8403951D01*
X13894161Y-6033521D02*
X13894161Y-5961679D01*
X13822319Y-5961679D01*
X13822319Y-6033521D01*
X13894161Y-6033521D01*
X13894161Y-6833521D02*
X13894161Y-6761679D01*
X13822319Y-6761679D01*
X13822319Y-6833521D01*
X13894161Y-6833521D01*
X16126821Y-9708241D02*
X16126821Y-9636399D01*
X16054979Y-9636399D01*
X16054979Y-9708241D01*
X16126821Y-9708241D01*
X16126821Y-9962241D02*
X16126821Y-9890399D01*
X16054979Y-9890399D01*
X16054979Y-9962241D01*
X16126821Y-9962241D01*
X16126821Y-10216241D02*
X16126821Y-10144399D01*
X16054979Y-10144399D01*
X16054979Y-10216241D01*
X16126821Y-10216241D01*
X16126821Y-10470241D02*
X16126821Y-10398399D01*
X16054979Y-10398399D01*
X16054979Y-10470241D01*
X16126821Y-10470241D01*
X16126821Y-10724241D02*
X16126821Y-10652399D01*
X16054979Y-10652399D01*
X16054979Y-10724241D01*
X16126821Y-10724241D01*
X16126821Y-10978241D02*
X16126821Y-10906399D01*
X16054979Y-10906399D01*
X16054979Y-10978241D01*
X16126821Y-10978241D01*
X16126821Y-11232241D02*
X16126821Y-11160399D01*
X16054979Y-11160399D01*
X16054979Y-11232241D01*
X16126821Y-11232241D01*
X16126821Y-11486241D02*
X16126821Y-11414399D01*
X16054979Y-11414399D01*
X16054979Y-11486241D01*
X16126821Y-11486241D01*
X17316811Y-14192611D02*
X17316811Y-14120769D01*
X17244969Y-14120769D01*
X17244969Y-14192611D01*
X17316811Y-14192611D01*
X17316811Y-14446611D02*
X17316811Y-14374769D01*
X17244969Y-14374769D01*
X17244969Y-14446611D01*
X17316811Y-14446611D01*
X17570811Y-14192611D02*
X17570811Y-14120769D01*
X17498969Y-14120769D01*
X17498969Y-14192611D01*
X17570811Y-14192611D01*
X17570811Y-14446611D02*
X17570811Y-14374769D01*
X17498969Y-14374769D01*
X17498969Y-14446611D01*
X17570811Y-14446611D01*
X17824811Y-14192611D02*
X17824811Y-14120769D01*
X17752969Y-14120769D01*
X17752969Y-14192611D01*
X17824811Y-14192611D01*
X17824811Y-14446611D02*
X17824811Y-14374769D01*
X17752969Y-14374769D01*
X17752969Y-14446611D01*
X17824811Y-14446611D01*
X18078811Y-14192611D02*
X18078811Y-14120769D01*
X18006969Y-14120769D01*
X18006969Y-14192611D01*
X18078811Y-14192611D01*
X18078811Y-14446611D02*
X18078811Y-14374769D01*
X18006969Y-14374769D01*
X18006969Y-14446611D01*
X18078811Y-14446611D01*
X18332811Y-14192611D02*
X18332811Y-14120769D01*
X18260969Y-14120769D01*
X18260969Y-14192611D01*
X18332811Y-14192611D01*
X18332811Y-14446611D02*
X18332811Y-14374769D01*
X18260969Y-14374769D01*
X18260969Y-14446611D01*
X18332811Y-14446611D01*
X13858240Y-5672600D02*
X13933240Y-5597600D01*
X13858240Y-5522600D01*
X13783240Y-5597600D01*
X13858240Y-5672600D01*
X13858240Y-6472600D02*
X13933240Y-6397600D01*
X13858240Y-6322600D01*
X13783240Y-6397600D01*
X13858240Y-6472600D01*
X10219975Y-14379975D02*
X10620025Y-14780025D01*
X10620025Y-14379975D02*
X10219975Y-14780025D01*
X10620025Y-14580000D02*
G75*
G03X10620025Y-14580000I-200025J0D01*
G01*
X10229975Y-5229975D02*
X10630025Y-5630025D01*
X10630025Y-5229975D02*
X10229975Y-5630025D01*
X10630025Y-5430000D02*
G75*
G03X10630025Y-5430000I-200025J0D01*
G01*
X10239975Y-9039975D02*
X10640025Y-9440025D01*
X10640025Y-9039975D02*
X10239975Y-9440025D01*
X10640025Y-9240000D02*
G75*
G03X10640025Y-9240000I-200025J0D01*
G01*
X14439975Y-8209975D02*
X14840025Y-8610025D01*
X14840025Y-8209975D02*
X14439975Y-8610025D01*
X14840025Y-8410000D02*
G75*
G03X14840025Y-8410000I-200025J0D01*
G01*
X14459975Y-5179975D02*
X14860025Y-5580025D01*
X14860025Y-5179975D02*
X14459975Y-5580025D01*
X14860025Y-5380000D02*
G75*
G03X14860025Y-5380000I-200025J0D01*
G01*
X19359975Y-5229975D02*
X19760025Y-5630025D01*
X19760025Y-5229975D02*
X19359975Y-5630025D01*
X19760025Y-5430000D02*
G75*
G03X19760025Y-5430000I-200025J0D01*
G01*
X19359975Y-14369975D02*
X19760025Y-14770025D01*
X19760025Y-14369975D02*
X19359975Y-14770025D01*
X19760025Y-14570000D02*
G75*
G03X19760025Y-14570000I-200025J0D01*
G01*
X12720026Y-6820026D02*
X13319974Y-7419974D01*
X13319974Y-6820026D02*
X12720026Y-7419974D01*
X13020000Y-6820026D02*
X13020000Y-7419974D01*
X12720026Y-7120000D02*
X13319974Y-7120000D01*
D13*
X10266429Y-15470714D02*
X10266429Y-15170714D01*
X10337857Y-15170714D01*
X10380714Y-15185000D01*
X10409286Y-15213571D01*
X10423571Y-15242143D01*
X10437857Y-15299286D01*
X10437857Y-15342143D01*
X10423571Y-15399286D01*
X10409286Y-15427857D01*
X10380714Y-15456429D01*
X10337857Y-15470714D01*
X10266429Y-15470714D01*
X10566429Y-15470714D02*
X10566429Y-15270714D01*
X10566429Y-15327857D02*
X10580714Y-15299286D01*
X10595000Y-15285000D01*
X10623571Y-15270714D01*
X10652143Y-15270714D01*
X10752143Y-15470714D02*
X10752143Y-15270714D01*
X10752143Y-15170714D02*
X10737857Y-15185000D01*
X10752143Y-15199286D01*
X10766429Y-15185000D01*
X10752143Y-15170714D01*
X10752143Y-15199286D01*
X10937857Y-15470714D02*
X10909286Y-15456429D01*
X10895000Y-15427857D01*
X10895000Y-15170714D01*
X11095000Y-15470714D02*
X11066429Y-15456429D01*
X11052143Y-15427857D01*
X11052143Y-15170714D01*
X11437857Y-15470714D02*
X11437857Y-15170714D01*
X11537857Y-15385000D01*
X11637857Y-15170714D01*
X11637857Y-15470714D01*
X11909286Y-15470714D02*
X11909286Y-15313571D01*
X11895000Y-15285000D01*
X11866428Y-15270714D01*
X11809286Y-15270714D01*
X11780714Y-15285000D01*
X11909286Y-15456429D02*
X11880714Y-15470714D01*
X11809286Y-15470714D01*
X11780714Y-15456429D01*
X11766428Y-15427857D01*
X11766428Y-15399286D01*
X11780714Y-15370714D01*
X11809286Y-15356429D01*
X11880714Y-15356429D01*
X11909286Y-15342143D01*
X12052143Y-15270714D02*
X12052143Y-15570714D01*
X12052143Y-15285000D02*
X12080714Y-15270714D01*
X12137857Y-15270714D01*
X12166428Y-15285000D01*
X12180714Y-15299286D01*
X12195000Y-15327857D01*
X12195000Y-15413571D01*
X12180714Y-15442143D01*
X12166428Y-15456429D01*
X12137857Y-15470714D01*
X12080714Y-15470714D01*
X12052143Y-15456429D01*
X12323571Y-15442143D02*
X12337857Y-15456429D01*
X12323571Y-15470714D01*
X12309286Y-15456429D01*
X12323571Y-15442143D01*
X12323571Y-15470714D01*
X12323571Y-15285000D02*
X12337857Y-15299286D01*
X12323571Y-15313571D01*
X12309286Y-15299286D01*
X12323571Y-15285000D01*
X12323571Y-15313571D01*
X9931500Y-15933250D02*
X9995000Y-15996750D01*
X9995000Y-15933250D02*
X9931500Y-15996750D01*
X10323571Y-15800714D02*
X10352143Y-15800714D01*
X10380714Y-15815000D01*
X10395000Y-15829286D01*
X10409286Y-15857857D01*
X10423571Y-15915000D01*
X10423571Y-15986429D01*
X10409286Y-16043571D01*
X10395000Y-16072143D01*
X10380714Y-16086429D01*
X10352143Y-16100714D01*
X10323571Y-16100714D01*
X10295000Y-16086429D01*
X10280714Y-16072143D01*
X10266429Y-16043571D01*
X10252143Y-15986429D01*
X10252143Y-15915000D01*
X10266429Y-15857857D01*
X10280714Y-15829286D01*
X10295000Y-15815000D01*
X10323571Y-15800714D01*
X10552143Y-16072143D02*
X10566429Y-16086429D01*
X10552143Y-16100714D01*
X10537857Y-16086429D01*
X10552143Y-16072143D01*
X10552143Y-16100714D01*
X10823571Y-15800714D02*
X10766428Y-15800714D01*
X10737857Y-15815000D01*
X10723571Y-15829286D01*
X10695000Y-15872143D01*
X10680714Y-15929286D01*
X10680714Y-16043571D01*
X10695000Y-16072143D01*
X10709286Y-16086429D01*
X10737857Y-16100714D01*
X10795000Y-16100714D01*
X10823571Y-16086429D01*
X10837857Y-16072143D01*
X10852143Y-16043571D01*
X10852143Y-15972143D01*
X10837857Y-15943571D01*
X10823571Y-15929286D01*
X10795000Y-15915000D01*
X10737857Y-15915000D01*
X10709286Y-15929286D01*
X10695000Y-15943571D01*
X10680714Y-15972143D01*
X11109286Y-15900714D02*
X11109286Y-16100714D01*
X11037857Y-15786429D02*
X10966429Y-16000714D01*
X11152143Y-16000714D01*
X11266428Y-16100714D02*
X11266428Y-15900714D01*
X11266428Y-15929286D02*
X11280714Y-15915000D01*
X11309286Y-15900714D01*
X11352143Y-15900714D01*
X11380714Y-15915000D01*
X11395000Y-15943571D01*
X11395000Y-16100714D01*
X11395000Y-15943571D02*
X11409286Y-15915000D01*
X11437857Y-15900714D01*
X11480714Y-15900714D01*
X11509286Y-15915000D01*
X11523571Y-15943571D01*
X11523571Y-16100714D01*
X11666428Y-16100714D02*
X11666428Y-15900714D01*
X11666428Y-15929286D02*
X11680714Y-15915000D01*
X11709286Y-15900714D01*
X11752143Y-15900714D01*
X11780714Y-15915000D01*
X11795000Y-15943571D01*
X11795000Y-16100714D01*
X11795000Y-15943571D02*
X11809286Y-15915000D01*
X11837857Y-15900714D01*
X11880714Y-15900714D01*
X11909286Y-15915000D01*
X11923571Y-15943571D01*
X11923571Y-16100714D01*
X12509286Y-15786429D02*
X12252143Y-16172143D01*
X12895000Y-15800714D02*
X12923571Y-15800714D01*
X12952143Y-15815000D01*
X12966428Y-15829286D01*
X12980714Y-15857857D01*
X12995000Y-15915000D01*
X12995000Y-15986429D01*
X12980714Y-16043571D01*
X12966428Y-16072143D01*
X12952143Y-16086429D01*
X12923571Y-16100714D01*
X12895000Y-16100714D01*
X12866428Y-16086429D01*
X12852143Y-16072143D01*
X12837857Y-16043571D01*
X12823571Y-15986429D01*
X12823571Y-15915000D01*
X12837857Y-15857857D01*
X12852143Y-15829286D01*
X12866428Y-15815000D01*
X12895000Y-15800714D01*
X13123571Y-16072143D02*
X13137857Y-16086429D01*
X13123571Y-16100714D01*
X13109286Y-16086429D01*
X13123571Y-16072143D01*
X13123571Y-16100714D01*
X13323571Y-15800714D02*
X13352143Y-15800714D01*
X13380714Y-15815000D01*
X13395000Y-15829286D01*
X13409285Y-15857857D01*
X13423571Y-15915000D01*
X13423571Y-15986429D01*
X13409285Y-16043571D01*
X13395000Y-16072143D01*
X13380714Y-16086429D01*
X13352143Y-16100714D01*
X13323571Y-16100714D01*
X13295000Y-16086429D01*
X13280714Y-16072143D01*
X13266428Y-16043571D01*
X13252143Y-15986429D01*
X13252143Y-15915000D01*
X13266428Y-15857857D01*
X13280714Y-15829286D01*
X13295000Y-15815000D01*
X13323571Y-15800714D01*
X13537857Y-15829286D02*
X13552143Y-15815000D01*
X13580714Y-15800714D01*
X13652143Y-15800714D01*
X13680714Y-15815000D01*
X13695000Y-15829286D01*
X13709285Y-15857857D01*
X13709285Y-15886429D01*
X13695000Y-15929286D01*
X13523571Y-16100714D01*
X13709285Y-16100714D01*
X13980714Y-15800714D02*
X13837857Y-15800714D01*
X13823571Y-15943571D01*
X13837857Y-15929286D01*
X13866428Y-15915000D01*
X13937857Y-15915000D01*
X13966428Y-15929286D01*
X13980714Y-15943571D01*
X13995000Y-15972143D01*
X13995000Y-16043571D01*
X13980714Y-16072143D01*
X13966428Y-16086429D01*
X13937857Y-16100714D01*
X13866428Y-16100714D01*
X13837857Y-16086429D01*
X13823571Y-16072143D01*
X14109286Y-15800714D02*
X14109286Y-15857857D01*
X14223571Y-15800714D02*
X14223571Y-15857857D01*
X14666428Y-16215000D02*
X14652143Y-16200714D01*
X14623571Y-16157857D01*
X14609285Y-16129286D01*
X14595000Y-16086429D01*
X14580714Y-16015000D01*
X14580714Y-15957857D01*
X14595000Y-15886429D01*
X14609285Y-15843571D01*
X14623571Y-15815000D01*
X14652143Y-15772143D01*
X14666428Y-15757857D01*
X14937857Y-16100714D02*
X14766428Y-16100714D01*
X14852143Y-16100714D02*
X14852143Y-15800714D01*
X14823571Y-15843571D01*
X14795000Y-15872143D01*
X14766428Y-15886429D01*
X15037857Y-15800714D02*
X15223571Y-15800714D01*
X15123571Y-15915000D01*
X15166428Y-15915000D01*
X15195000Y-15929286D01*
X15209285Y-15943571D01*
X15223571Y-15972143D01*
X15223571Y-16043571D01*
X15209285Y-16072143D01*
X15195000Y-16086429D01*
X15166428Y-16100714D01*
X15080714Y-16100714D01*
X15052143Y-16086429D01*
X15037857Y-16072143D01*
X15395000Y-15929286D02*
X15366428Y-15915000D01*
X15352143Y-15900714D01*
X15337857Y-15872143D01*
X15337857Y-15857857D01*
X15352143Y-15829286D01*
X15366428Y-15815000D01*
X15395000Y-15800714D01*
X15452143Y-15800714D01*
X15480714Y-15815000D01*
X15495000Y-15829286D01*
X15509285Y-15857857D01*
X15509285Y-15872143D01*
X15495000Y-15900714D01*
X15480714Y-15915000D01*
X15452143Y-15929286D01*
X15395000Y-15929286D01*
X15366428Y-15943571D01*
X15352143Y-15957857D01*
X15337857Y-15986429D01*
X15337857Y-16043571D01*
X15352143Y-16072143D01*
X15366428Y-16086429D01*
X15395000Y-16100714D01*
X15452143Y-16100714D01*
X15480714Y-16086429D01*
X15495000Y-16072143D01*
X15509285Y-16043571D01*
X15509285Y-15986429D01*
X15495000Y-15957857D01*
X15480714Y-15943571D01*
X15452143Y-15929286D01*
X15866428Y-16100714D02*
X15866428Y-15800714D01*
X15995000Y-16100714D02*
X15995000Y-15943571D01*
X15980714Y-15915000D01*
X15952143Y-15900714D01*
X15909285Y-15900714D01*
X15880714Y-15915000D01*
X15866428Y-15929286D01*
X16180714Y-16100714D02*
X16152143Y-16086429D01*
X16137857Y-16072143D01*
X16123571Y-16043571D01*
X16123571Y-15957857D01*
X16137857Y-15929286D01*
X16152143Y-15915000D01*
X16180714Y-15900714D01*
X16223571Y-15900714D01*
X16252143Y-15915000D01*
X16266428Y-15929286D01*
X16280714Y-15957857D01*
X16280714Y-16043571D01*
X16266428Y-16072143D01*
X16252143Y-16086429D01*
X16223571Y-16100714D01*
X16180714Y-16100714D01*
X16452143Y-16100714D02*
X16423571Y-16086429D01*
X16409286Y-16057857D01*
X16409286Y-15800714D01*
X16680714Y-16086429D02*
X16652143Y-16100714D01*
X16595000Y-16100714D01*
X16566428Y-16086429D01*
X16552143Y-16057857D01*
X16552143Y-15943571D01*
X16566428Y-15915000D01*
X16595000Y-15900714D01*
X16652143Y-15900714D01*
X16680714Y-15915000D01*
X16695000Y-15943571D01*
X16695000Y-15972143D01*
X16552143Y-16000714D01*
X16809286Y-16086429D02*
X16837857Y-16100714D01*
X16895000Y-16100714D01*
X16923571Y-16086429D01*
X16937857Y-16057857D01*
X16937857Y-16043571D01*
X16923571Y-16015000D01*
X16895000Y-16000714D01*
X16852143Y-16000714D01*
X16823571Y-15986429D01*
X16809286Y-15957857D01*
X16809286Y-15943571D01*
X16823571Y-15915000D01*
X16852143Y-15900714D01*
X16895000Y-15900714D01*
X16923571Y-15915000D01*
X17037857Y-16215000D02*
X17052143Y-16200714D01*
X17080714Y-16157857D01*
X17095000Y-16129286D01*
X17109286Y-16086429D01*
X17123571Y-16015000D01*
X17123571Y-15957857D01*
X17109286Y-15886429D01*
X17095000Y-15843571D01*
X17080714Y-15815000D01*
X17052143Y-15772143D01*
X17037857Y-15757857D01*
X9995000Y-16361000D02*
G75*
G03X9995000Y-16361000I-40640J0D01*
G01*
X10323571Y-16196714D02*
X10352143Y-16196714D01*
X10380714Y-16211000D01*
X10395000Y-16225286D01*
X10409286Y-16253857D01*
X10423571Y-16311000D01*
X10423571Y-16382429D01*
X10409286Y-16439571D01*
X10395000Y-16468143D01*
X10380714Y-16482429D01*
X10352143Y-16496714D01*
X10323571Y-16496714D01*
X10295000Y-16482429D01*
X10280714Y-16468143D01*
X10266429Y-16439571D01*
X10252143Y-16382429D01*
X10252143Y-16311000D01*
X10266429Y-16253857D01*
X10280714Y-16225286D01*
X10295000Y-16211000D01*
X10323571Y-16196714D01*
X10552143Y-16468143D02*
X10566429Y-16482429D01*
X10552143Y-16496714D01*
X10537857Y-16482429D01*
X10552143Y-16468143D01*
X10552143Y-16496714D01*
X10737857Y-16325286D02*
X10709286Y-16311000D01*
X10695000Y-16296714D01*
X10680714Y-16268143D01*
X10680714Y-16253857D01*
X10695000Y-16225286D01*
X10709286Y-16211000D01*
X10737857Y-16196714D01*
X10795000Y-16196714D01*
X10823571Y-16211000D01*
X10837857Y-16225286D01*
X10852143Y-16253857D01*
X10852143Y-16268143D01*
X10837857Y-16296714D01*
X10823571Y-16311000D01*
X10795000Y-16325286D01*
X10737857Y-16325286D01*
X10709286Y-16339571D01*
X10695000Y-16353857D01*
X10680714Y-16382429D01*
X10680714Y-16439571D01*
X10695000Y-16468143D01*
X10709286Y-16482429D01*
X10737857Y-16496714D01*
X10795000Y-16496714D01*
X10823571Y-16482429D01*
X10837857Y-16468143D01*
X10852143Y-16439571D01*
X10852143Y-16382429D01*
X10837857Y-16353857D01*
X10823571Y-16339571D01*
X10795000Y-16325286D01*
X11137857Y-16496714D02*
X10966429Y-16496714D01*
X11052143Y-16496714D02*
X11052143Y-16196714D01*
X11023571Y-16239571D01*
X10995000Y-16268143D01*
X10966429Y-16282429D01*
X11266428Y-16496714D02*
X11266428Y-16296714D01*
X11266428Y-16325286D02*
X11280714Y-16311000D01*
X11309286Y-16296714D01*
X11352143Y-16296714D01*
X11380714Y-16311000D01*
X11395000Y-16339571D01*
X11395000Y-16496714D01*
X11395000Y-16339571D02*
X11409286Y-16311000D01*
X11437857Y-16296714D01*
X11480714Y-16296714D01*
X11509286Y-16311000D01*
X11523571Y-16339571D01*
X11523571Y-16496714D01*
X11666428Y-16496714D02*
X11666428Y-16296714D01*
X11666428Y-16325286D02*
X11680714Y-16311000D01*
X11709286Y-16296714D01*
X11752143Y-16296714D01*
X11780714Y-16311000D01*
X11795000Y-16339571D01*
X11795000Y-16496714D01*
X11795000Y-16339571D02*
X11809286Y-16311000D01*
X11837857Y-16296714D01*
X11880714Y-16296714D01*
X11909286Y-16311000D01*
X11923571Y-16339571D01*
X11923571Y-16496714D01*
X12509286Y-16182429D02*
X12252143Y-16568143D01*
X12895000Y-16196714D02*
X12923571Y-16196714D01*
X12952143Y-16211000D01*
X12966428Y-16225286D01*
X12980714Y-16253857D01*
X12995000Y-16311000D01*
X12995000Y-16382429D01*
X12980714Y-16439571D01*
X12966428Y-16468143D01*
X12952143Y-16482429D01*
X12923571Y-16496714D01*
X12895000Y-16496714D01*
X12866428Y-16482429D01*
X12852143Y-16468143D01*
X12837857Y-16439571D01*
X12823571Y-16382429D01*
X12823571Y-16311000D01*
X12837857Y-16253857D01*
X12852143Y-16225286D01*
X12866428Y-16211000D01*
X12895000Y-16196714D01*
X13123571Y-16468143D02*
X13137857Y-16482429D01*
X13123571Y-16496714D01*
X13109286Y-16482429D01*
X13123571Y-16468143D01*
X13123571Y-16496714D01*
X13323571Y-16196714D02*
X13352143Y-16196714D01*
X13380714Y-16211000D01*
X13395000Y-16225286D01*
X13409285Y-16253857D01*
X13423571Y-16311000D01*
X13423571Y-16382429D01*
X13409285Y-16439571D01*
X13395000Y-16468143D01*
X13380714Y-16482429D01*
X13352143Y-16496714D01*
X13323571Y-16496714D01*
X13295000Y-16482429D01*
X13280714Y-16468143D01*
X13266428Y-16439571D01*
X13252143Y-16382429D01*
X13252143Y-16311000D01*
X13266428Y-16253857D01*
X13280714Y-16225286D01*
X13295000Y-16211000D01*
X13323571Y-16196714D01*
X13523571Y-16196714D02*
X13709285Y-16196714D01*
X13609285Y-16311000D01*
X13652143Y-16311000D01*
X13680714Y-16325286D01*
X13695000Y-16339571D01*
X13709285Y-16368143D01*
X13709285Y-16439571D01*
X13695000Y-16468143D01*
X13680714Y-16482429D01*
X13652143Y-16496714D01*
X13566428Y-16496714D01*
X13537857Y-16482429D01*
X13523571Y-16468143D01*
X13823571Y-16225286D02*
X13837857Y-16211000D01*
X13866428Y-16196714D01*
X13937857Y-16196714D01*
X13966428Y-16211000D01*
X13980714Y-16225286D01*
X13995000Y-16253857D01*
X13995000Y-16282429D01*
X13980714Y-16325286D01*
X13809285Y-16496714D01*
X13995000Y-16496714D01*
X14109286Y-16196714D02*
X14109286Y-16253857D01*
X14223571Y-16196714D02*
X14223571Y-16253857D01*
X14666428Y-16611000D02*
X14652143Y-16596714D01*
X14623571Y-16553857D01*
X14609285Y-16525286D01*
X14595000Y-16482429D01*
X14580714Y-16411000D01*
X14580714Y-16353857D01*
X14595000Y-16282429D01*
X14609285Y-16239571D01*
X14623571Y-16211000D01*
X14652143Y-16168143D01*
X14666428Y-16153857D01*
X14909285Y-16196714D02*
X14852143Y-16196714D01*
X14823571Y-16211000D01*
X14809285Y-16225286D01*
X14780714Y-16268143D01*
X14766428Y-16325286D01*
X14766428Y-16439571D01*
X14780714Y-16468143D01*
X14795000Y-16482429D01*
X14823571Y-16496714D01*
X14880714Y-16496714D01*
X14909285Y-16482429D01*
X14923571Y-16468143D01*
X14937857Y-16439571D01*
X14937857Y-16368143D01*
X14923571Y-16339571D01*
X14909285Y-16325286D01*
X14880714Y-16311000D01*
X14823571Y-16311000D01*
X14795000Y-16325286D01*
X14780714Y-16339571D01*
X14766428Y-16368143D01*
X15037857Y-16196714D02*
X15223571Y-16196714D01*
X15123571Y-16311000D01*
X15166428Y-16311000D01*
X15195000Y-16325286D01*
X15209285Y-16339571D01*
X15223571Y-16368143D01*
X15223571Y-16439571D01*
X15209285Y-16468143D01*
X15195000Y-16482429D01*
X15166428Y-16496714D01*
X15080714Y-16496714D01*
X15052143Y-16482429D01*
X15037857Y-16468143D01*
X15580714Y-16496714D02*
X15580714Y-16196714D01*
X15709285Y-16496714D02*
X15709285Y-16339571D01*
X15695000Y-16311000D01*
X15666428Y-16296714D01*
X15623571Y-16296714D01*
X15595000Y-16311000D01*
X15580714Y-16325286D01*
X15895000Y-16496714D02*
X15866428Y-16482429D01*
X15852143Y-16468143D01*
X15837857Y-16439571D01*
X15837857Y-16353857D01*
X15852143Y-16325286D01*
X15866428Y-16311000D01*
X15895000Y-16296714D01*
X15937857Y-16296714D01*
X15966428Y-16311000D01*
X15980714Y-16325286D01*
X15995000Y-16353857D01*
X15995000Y-16439571D01*
X15980714Y-16468143D01*
X15966428Y-16482429D01*
X15937857Y-16496714D01*
X15895000Y-16496714D01*
X16166428Y-16496714D02*
X16137857Y-16482429D01*
X16123571Y-16453857D01*
X16123571Y-16196714D01*
X16395000Y-16482429D02*
X16366428Y-16496714D01*
X16309286Y-16496714D01*
X16280714Y-16482429D01*
X16266428Y-16453857D01*
X16266428Y-16339571D01*
X16280714Y-16311000D01*
X16309286Y-16296714D01*
X16366428Y-16296714D01*
X16395000Y-16311000D01*
X16409286Y-16339571D01*
X16409286Y-16368143D01*
X16266428Y-16396714D01*
X16523571Y-16482429D02*
X16552143Y-16496714D01*
X16609286Y-16496714D01*
X16637857Y-16482429D01*
X16652143Y-16453857D01*
X16652143Y-16439571D01*
X16637857Y-16411000D01*
X16609286Y-16396714D01*
X16566428Y-16396714D01*
X16537857Y-16382429D01*
X16523571Y-16353857D01*
X16523571Y-16339571D01*
X16537857Y-16311000D01*
X16566428Y-16296714D01*
X16609286Y-16296714D01*
X16637857Y-16311000D01*
X16752143Y-16611000D02*
X16766428Y-16596714D01*
X16795000Y-16553857D01*
X16809286Y-16525286D01*
X16823571Y-16482429D01*
X16837857Y-16411000D01*
X16837857Y-16353857D01*
X16823571Y-16282429D01*
X16809286Y-16239571D01*
X16795000Y-16211000D01*
X16766428Y-16168143D01*
X16752143Y-16153857D01*
X9944962Y-16706962D02*
X9944962Y-16807038D01*
X9894924Y-16757000D02*
X9995000Y-16757000D01*
X10423571Y-16892714D02*
X10252143Y-16892714D01*
X10337857Y-16892714D02*
X10337857Y-16592714D01*
X10309286Y-16635571D01*
X10280714Y-16664143D01*
X10252143Y-16678429D01*
X10552143Y-16864143D02*
X10566429Y-16878429D01*
X10552143Y-16892714D01*
X10537857Y-16878429D01*
X10552143Y-16864143D01*
X10552143Y-16892714D01*
X10752143Y-16592714D02*
X10780714Y-16592714D01*
X10809286Y-16607000D01*
X10823571Y-16621286D01*
X10837857Y-16649857D01*
X10852143Y-16707000D01*
X10852143Y-16778429D01*
X10837857Y-16835572D01*
X10823571Y-16864143D01*
X10809286Y-16878429D01*
X10780714Y-16892714D01*
X10752143Y-16892714D01*
X10723571Y-16878429D01*
X10709286Y-16864143D01*
X10695000Y-16835572D01*
X10680714Y-16778429D01*
X10680714Y-16707000D01*
X10695000Y-16649857D01*
X10709286Y-16621286D01*
X10723571Y-16607000D01*
X10752143Y-16592714D01*
X11037857Y-16592714D02*
X11066429Y-16592714D01*
X11095000Y-16607000D01*
X11109286Y-16621286D01*
X11123571Y-16649857D01*
X11137857Y-16707000D01*
X11137857Y-16778429D01*
X11123571Y-16835572D01*
X11109286Y-16864143D01*
X11095000Y-16878429D01*
X11066429Y-16892714D01*
X11037857Y-16892714D01*
X11009286Y-16878429D01*
X10995000Y-16864143D01*
X10980714Y-16835572D01*
X10966429Y-16778429D01*
X10966429Y-16707000D01*
X10980714Y-16649857D01*
X10995000Y-16621286D01*
X11009286Y-16607000D01*
X11037857Y-16592714D01*
X11266428Y-16892714D02*
X11266428Y-16692714D01*
X11266428Y-16721286D02*
X11280714Y-16707000D01*
X11309286Y-16692714D01*
X11352143Y-16692714D01*
X11380714Y-16707000D01*
X11395000Y-16735571D01*
X11395000Y-16892714D01*
X11395000Y-16735571D02*
X11409286Y-16707000D01*
X11437857Y-16692714D01*
X11480714Y-16692714D01*
X11509286Y-16707000D01*
X11523571Y-16735571D01*
X11523571Y-16892714D01*
X11666428Y-16892714D02*
X11666428Y-16692714D01*
X11666428Y-16721286D02*
X11680714Y-16707000D01*
X11709286Y-16692714D01*
X11752143Y-16692714D01*
X11780714Y-16707000D01*
X11795000Y-16735571D01*
X11795000Y-16892714D01*
X11795000Y-16735571D02*
X11809286Y-16707000D01*
X11837857Y-16692714D01*
X11880714Y-16692714D01*
X11909286Y-16707000D01*
X11923571Y-16735571D01*
X11923571Y-16892714D01*
X12509286Y-16578429D02*
X12252143Y-16964143D01*
X12895000Y-16592714D02*
X12923571Y-16592714D01*
X12952143Y-16607000D01*
X12966428Y-16621286D01*
X12980714Y-16649857D01*
X12995000Y-16707000D01*
X12995000Y-16778429D01*
X12980714Y-16835572D01*
X12966428Y-16864143D01*
X12952143Y-16878429D01*
X12923571Y-16892714D01*
X12895000Y-16892714D01*
X12866428Y-16878429D01*
X12852143Y-16864143D01*
X12837857Y-16835572D01*
X12823571Y-16778429D01*
X12823571Y-16707000D01*
X12837857Y-16649857D01*
X12852143Y-16621286D01*
X12866428Y-16607000D01*
X12895000Y-16592714D01*
X13123571Y-16864143D02*
X13137857Y-16878429D01*
X13123571Y-16892714D01*
X13109286Y-16878429D01*
X13123571Y-16864143D01*
X13123571Y-16892714D01*
X13323571Y-16592714D02*
X13352143Y-16592714D01*
X13380714Y-16607000D01*
X13395000Y-16621286D01*
X13409285Y-16649857D01*
X13423571Y-16707000D01*
X13423571Y-16778429D01*
X13409285Y-16835572D01*
X13395000Y-16864143D01*
X13380714Y-16878429D01*
X13352143Y-16892714D01*
X13323571Y-16892714D01*
X13295000Y-16878429D01*
X13280714Y-16864143D01*
X13266428Y-16835572D01*
X13252143Y-16778429D01*
X13252143Y-16707000D01*
X13266428Y-16649857D01*
X13280714Y-16621286D01*
X13295000Y-16607000D01*
X13323571Y-16592714D01*
X13523571Y-16592714D02*
X13709285Y-16592714D01*
X13609285Y-16707000D01*
X13652143Y-16707000D01*
X13680714Y-16721286D01*
X13695000Y-16735571D01*
X13709285Y-16764143D01*
X13709285Y-16835572D01*
X13695000Y-16864143D01*
X13680714Y-16878429D01*
X13652143Y-16892714D01*
X13566428Y-16892714D01*
X13537857Y-16878429D01*
X13523571Y-16864143D01*
X13852143Y-16892714D02*
X13909285Y-16892714D01*
X13937857Y-16878429D01*
X13952143Y-16864143D01*
X13980714Y-16821286D01*
X13995000Y-16764143D01*
X13995000Y-16649857D01*
X13980714Y-16621286D01*
X13966428Y-16607000D01*
X13937857Y-16592714D01*
X13880714Y-16592714D01*
X13852143Y-16607000D01*
X13837857Y-16621286D01*
X13823571Y-16649857D01*
X13823571Y-16721286D01*
X13837857Y-16749857D01*
X13852143Y-16764143D01*
X13880714Y-16778429D01*
X13937857Y-16778429D01*
X13966428Y-16764143D01*
X13980714Y-16749857D01*
X13995000Y-16721286D01*
X14109286Y-16592714D02*
X14109286Y-16649857D01*
X14223571Y-16592714D02*
X14223571Y-16649857D01*
X14666428Y-17007000D02*
X14652143Y-16992714D01*
X14623571Y-16949857D01*
X14609285Y-16921286D01*
X14595000Y-16878429D01*
X14580714Y-16807000D01*
X14580714Y-16749857D01*
X14595000Y-16678429D01*
X14609285Y-16635571D01*
X14623571Y-16607000D01*
X14652143Y-16564143D01*
X14666428Y-16549857D01*
X14752143Y-16592714D02*
X14937857Y-16592714D01*
X14837857Y-16707000D01*
X14880714Y-16707000D01*
X14909285Y-16721286D01*
X14923571Y-16735571D01*
X14937857Y-16764143D01*
X14937857Y-16835572D01*
X14923571Y-16864143D01*
X14909285Y-16878429D01*
X14880714Y-16892714D01*
X14795000Y-16892714D01*
X14766428Y-16878429D01*
X14752143Y-16864143D01*
X15037857Y-16592714D02*
X15223571Y-16592714D01*
X15123571Y-16707000D01*
X15166428Y-16707000D01*
X15195000Y-16721286D01*
X15209285Y-16735571D01*
X15223571Y-16764143D01*
X15223571Y-16835572D01*
X15209285Y-16864143D01*
X15195000Y-16878429D01*
X15166428Y-16892714D01*
X15080714Y-16892714D01*
X15052143Y-16878429D01*
X15037857Y-16864143D01*
X15580714Y-16892714D02*
X15580714Y-16592714D01*
X15709285Y-16892714D02*
X15709285Y-16735571D01*
X15695000Y-16707000D01*
X15666428Y-16692714D01*
X15623571Y-16692714D01*
X15595000Y-16707000D01*
X15580714Y-16721286D01*
X15895000Y-16892714D02*
X15866428Y-16878429D01*
X15852143Y-16864143D01*
X15837857Y-16835572D01*
X15837857Y-16749857D01*
X15852143Y-16721286D01*
X15866428Y-16707000D01*
X15895000Y-16692714D01*
X15937857Y-16692714D01*
X15966428Y-16707000D01*
X15980714Y-16721286D01*
X15995000Y-16749857D01*
X15995000Y-16835572D01*
X15980714Y-16864143D01*
X15966428Y-16878429D01*
X15937857Y-16892714D01*
X15895000Y-16892714D01*
X16166428Y-16892714D02*
X16137857Y-16878429D01*
X16123571Y-16849857D01*
X16123571Y-16592714D01*
X16395000Y-16878429D02*
X16366428Y-16892714D01*
X16309286Y-16892714D01*
X16280714Y-16878429D01*
X16266428Y-16849857D01*
X16266428Y-16735571D01*
X16280714Y-16707000D01*
X16309286Y-16692714D01*
X16366428Y-16692714D01*
X16395000Y-16707000D01*
X16409286Y-16735571D01*
X16409286Y-16764143D01*
X16266428Y-16792714D01*
X16523571Y-16878429D02*
X16552143Y-16892714D01*
X16609286Y-16892714D01*
X16637857Y-16878429D01*
X16652143Y-16849857D01*
X16652143Y-16835572D01*
X16637857Y-16807000D01*
X16609286Y-16792714D01*
X16566428Y-16792714D01*
X16537857Y-16778429D01*
X16523571Y-16749857D01*
X16523571Y-16735571D01*
X16537857Y-16707000D01*
X16566428Y-16692714D01*
X16609286Y-16692714D01*
X16637857Y-16707000D01*
X16752143Y-17007000D02*
X16766428Y-16992714D01*
X16795000Y-16949857D01*
X16809286Y-16921286D01*
X16823571Y-16878429D01*
X16837857Y-16807000D01*
X16837857Y-16749857D01*
X16823571Y-16678429D01*
X16809286Y-16635571D01*
X16795000Y-16607000D01*
X16766428Y-16564143D01*
X16752143Y-16549857D01*
X9980121Y-17188922D02*
X9980121Y-17117079D01*
X9908279Y-17117079D01*
X9908279Y-17188922D01*
X9980121Y-17188922D01*
X10423571Y-17288714D02*
X10252143Y-17288714D01*
X10337857Y-17288714D02*
X10337857Y-16988714D01*
X10309286Y-17031572D01*
X10280714Y-17060143D01*
X10252143Y-17074429D01*
X10552143Y-17260143D02*
X10566429Y-17274429D01*
X10552143Y-17288714D01*
X10537857Y-17274429D01*
X10552143Y-17260143D01*
X10552143Y-17288714D01*
X10752143Y-16988714D02*
X10780714Y-16988714D01*
X10809286Y-17003000D01*
X10823571Y-17017286D01*
X10837857Y-17045857D01*
X10852143Y-17103000D01*
X10852143Y-17174429D01*
X10837857Y-17231572D01*
X10823571Y-17260143D01*
X10809286Y-17274429D01*
X10780714Y-17288714D01*
X10752143Y-17288714D01*
X10723571Y-17274429D01*
X10709286Y-17260143D01*
X10695000Y-17231572D01*
X10680714Y-17174429D01*
X10680714Y-17103000D01*
X10695000Y-17045857D01*
X10709286Y-17017286D01*
X10723571Y-17003000D01*
X10752143Y-16988714D01*
X10966429Y-17017286D02*
X10980714Y-17003000D01*
X11009286Y-16988714D01*
X11080714Y-16988714D01*
X11109286Y-17003000D01*
X11123571Y-17017286D01*
X11137857Y-17045857D01*
X11137857Y-17074429D01*
X11123571Y-17117286D01*
X10952143Y-17288714D01*
X11137857Y-17288714D01*
X11266428Y-17288714D02*
X11266428Y-17088714D01*
X11266428Y-17117286D02*
X11280714Y-17103000D01*
X11309286Y-17088714D01*
X11352143Y-17088714D01*
X11380714Y-17103000D01*
X11395000Y-17131572D01*
X11395000Y-17288714D01*
X11395000Y-17131572D02*
X11409286Y-17103000D01*
X11437857Y-17088714D01*
X11480714Y-17088714D01*
X11509286Y-17103000D01*
X11523571Y-17131572D01*
X11523571Y-17288714D01*
X11666428Y-17288714D02*
X11666428Y-17088714D01*
X11666428Y-17117286D02*
X11680714Y-17103000D01*
X11709286Y-17088714D01*
X11752143Y-17088714D01*
X11780714Y-17103000D01*
X11795000Y-17131572D01*
X11795000Y-17288714D01*
X11795000Y-17131572D02*
X11809286Y-17103000D01*
X11837857Y-17088714D01*
X11880714Y-17088714D01*
X11909286Y-17103000D01*
X11923571Y-17131572D01*
X11923571Y-17288714D01*
X12509286Y-16974429D02*
X12252143Y-17360143D01*
X12895000Y-16988714D02*
X12923571Y-16988714D01*
X12952143Y-17003000D01*
X12966428Y-17017286D01*
X12980714Y-17045857D01*
X12995000Y-17103000D01*
X12995000Y-17174429D01*
X12980714Y-17231572D01*
X12966428Y-17260143D01*
X12952143Y-17274429D01*
X12923571Y-17288714D01*
X12895000Y-17288714D01*
X12866428Y-17274429D01*
X12852143Y-17260143D01*
X12837857Y-17231572D01*
X12823571Y-17174429D01*
X12823571Y-17103000D01*
X12837857Y-17045857D01*
X12852143Y-17017286D01*
X12866428Y-17003000D01*
X12895000Y-16988714D01*
X13123571Y-17260143D02*
X13137857Y-17274429D01*
X13123571Y-17288714D01*
X13109286Y-17274429D01*
X13123571Y-17260143D01*
X13123571Y-17288714D01*
X13323571Y-16988714D02*
X13352143Y-16988714D01*
X13380714Y-17003000D01*
X13395000Y-17017286D01*
X13409285Y-17045857D01*
X13423571Y-17103000D01*
X13423571Y-17174429D01*
X13409285Y-17231572D01*
X13395000Y-17260143D01*
X13380714Y-17274429D01*
X13352143Y-17288714D01*
X13323571Y-17288714D01*
X13295000Y-17274429D01*
X13280714Y-17260143D01*
X13266428Y-17231572D01*
X13252143Y-17174429D01*
X13252143Y-17103000D01*
X13266428Y-17045857D01*
X13280714Y-17017286D01*
X13295000Y-17003000D01*
X13323571Y-16988714D01*
X13680714Y-17088714D02*
X13680714Y-17288714D01*
X13609285Y-16974429D02*
X13537857Y-17188714D01*
X13723571Y-17188714D01*
X13895000Y-16988714D02*
X13923571Y-16988714D01*
X13952143Y-17003000D01*
X13966428Y-17017286D01*
X13980714Y-17045857D01*
X13995000Y-17103000D01*
X13995000Y-17174429D01*
X13980714Y-17231572D01*
X13966428Y-17260143D01*
X13952143Y-17274429D01*
X13923571Y-17288714D01*
X13895000Y-17288714D01*
X13866428Y-17274429D01*
X13852143Y-17260143D01*
X13837857Y-17231572D01*
X13823571Y-17174429D01*
X13823571Y-17103000D01*
X13837857Y-17045857D01*
X13852143Y-17017286D01*
X13866428Y-17003000D01*
X13895000Y-16988714D01*
X14109286Y-16988714D02*
X14109286Y-17045857D01*
X14223571Y-16988714D02*
X14223571Y-17045857D01*
X14666428Y-17403000D02*
X14652143Y-17388714D01*
X14623571Y-17345857D01*
X14609285Y-17317286D01*
X14595000Y-17274429D01*
X14580714Y-17203000D01*
X14580714Y-17145857D01*
X14595000Y-17074429D01*
X14609285Y-17031572D01*
X14623571Y-17003000D01*
X14652143Y-16960143D01*
X14666428Y-16945857D01*
X14909285Y-17088714D02*
X14909285Y-17288714D01*
X14837857Y-16974429D02*
X14766428Y-17188714D01*
X14952143Y-17188714D01*
X15080714Y-17288714D02*
X15137857Y-17288714D01*
X15166428Y-17274429D01*
X15180714Y-17260143D01*
X15209285Y-17217286D01*
X15223571Y-17160143D01*
X15223571Y-17045857D01*
X15209285Y-17017286D01*
X15195000Y-17003000D01*
X15166428Y-16988714D01*
X15109285Y-16988714D01*
X15080714Y-17003000D01*
X15066428Y-17017286D01*
X15052143Y-17045857D01*
X15052143Y-17117286D01*
X15066428Y-17145857D01*
X15080714Y-17160143D01*
X15109285Y-17174429D01*
X15166428Y-17174429D01*
X15195000Y-17160143D01*
X15209285Y-17145857D01*
X15223571Y-17117286D01*
X15580714Y-17288714D02*
X15580714Y-16988714D01*
X15709285Y-17288714D02*
X15709285Y-17131572D01*
X15695000Y-17103000D01*
X15666428Y-17088714D01*
X15623571Y-17088714D01*
X15595000Y-17103000D01*
X15580714Y-17117286D01*
X15895000Y-17288714D02*
X15866428Y-17274429D01*
X15852143Y-17260143D01*
X15837857Y-17231572D01*
X15837857Y-17145857D01*
X15852143Y-17117286D01*
X15866428Y-17103000D01*
X15895000Y-17088714D01*
X15937857Y-17088714D01*
X15966428Y-17103000D01*
X15980714Y-17117286D01*
X15995000Y-17145857D01*
X15995000Y-17231572D01*
X15980714Y-17260143D01*
X15966428Y-17274429D01*
X15937857Y-17288714D01*
X15895000Y-17288714D01*
X16166428Y-17288714D02*
X16137857Y-17274429D01*
X16123571Y-17245857D01*
X16123571Y-16988714D01*
X16395000Y-17274429D02*
X16366428Y-17288714D01*
X16309286Y-17288714D01*
X16280714Y-17274429D01*
X16266428Y-17245857D01*
X16266428Y-17131572D01*
X16280714Y-17103000D01*
X16309286Y-17088714D01*
X16366428Y-17088714D01*
X16395000Y-17103000D01*
X16409286Y-17131572D01*
X16409286Y-17160143D01*
X16266428Y-17188714D01*
X16523571Y-17274429D02*
X16552143Y-17288714D01*
X16609286Y-17288714D01*
X16637857Y-17274429D01*
X16652143Y-17245857D01*
X16652143Y-17231572D01*
X16637857Y-17203000D01*
X16609286Y-17188714D01*
X16566428Y-17188714D01*
X16537857Y-17174429D01*
X16523571Y-17145857D01*
X16523571Y-17131572D01*
X16537857Y-17103000D01*
X16566428Y-17088714D01*
X16609286Y-17088714D01*
X16637857Y-17103000D01*
X16752143Y-17403000D02*
X16766428Y-17388714D01*
X16795000Y-17345857D01*
X16809286Y-17317286D01*
X16823571Y-17274429D01*
X16837857Y-17203000D01*
X16837857Y-17145857D01*
X16823571Y-17074429D01*
X16809286Y-17031572D01*
X16795000Y-17003000D01*
X16766428Y-16960143D01*
X16752143Y-16945857D01*
X9920000Y-17624000D02*
X9995000Y-17549000D01*
X9920000Y-17474000D01*
X9845000Y-17549000D01*
X9920000Y-17624000D01*
X10423571Y-17684714D02*
X10252143Y-17684714D01*
X10337857Y-17684714D02*
X10337857Y-17384714D01*
X10309286Y-17427572D01*
X10280714Y-17456143D01*
X10252143Y-17470429D01*
X10552143Y-17656143D02*
X10566429Y-17670429D01*
X10552143Y-17684714D01*
X10537857Y-17670429D01*
X10552143Y-17656143D01*
X10552143Y-17684714D01*
X10837857Y-17384714D02*
X10695000Y-17384714D01*
X10680714Y-17527572D01*
X10695000Y-17513286D01*
X10723571Y-17499000D01*
X10795000Y-17499000D01*
X10823571Y-17513286D01*
X10837857Y-17527572D01*
X10852143Y-17556143D01*
X10852143Y-17627572D01*
X10837857Y-17656143D01*
X10823571Y-17670429D01*
X10795000Y-17684714D01*
X10723571Y-17684714D01*
X10695000Y-17670429D01*
X10680714Y-17656143D01*
X11037857Y-17384714D02*
X11066429Y-17384714D01*
X11095000Y-17399000D01*
X11109286Y-17413286D01*
X11123571Y-17441857D01*
X11137857Y-17499000D01*
X11137857Y-17570429D01*
X11123571Y-17627572D01*
X11109286Y-17656143D01*
X11095000Y-17670429D01*
X11066429Y-17684714D01*
X11037857Y-17684714D01*
X11009286Y-17670429D01*
X10995000Y-17656143D01*
X10980714Y-17627572D01*
X10966429Y-17570429D01*
X10966429Y-17499000D01*
X10980714Y-17441857D01*
X10995000Y-17413286D01*
X11009286Y-17399000D01*
X11037857Y-17384714D01*
X11266428Y-17684714D02*
X11266428Y-17484714D01*
X11266428Y-17513286D02*
X11280714Y-17499000D01*
X11309286Y-17484714D01*
X11352143Y-17484714D01*
X11380714Y-17499000D01*
X11395000Y-17527572D01*
X11395000Y-17684714D01*
X11395000Y-17527572D02*
X11409286Y-17499000D01*
X11437857Y-17484714D01*
X11480714Y-17484714D01*
X11509286Y-17499000D01*
X11523571Y-17527572D01*
X11523571Y-17684714D01*
X11666428Y-17684714D02*
X11666428Y-17484714D01*
X11666428Y-17513286D02*
X11680714Y-17499000D01*
X11709286Y-17484714D01*
X11752143Y-17484714D01*
X11780714Y-17499000D01*
X11795000Y-17527572D01*
X11795000Y-17684714D01*
X11795000Y-17527572D02*
X11809286Y-17499000D01*
X11837857Y-17484714D01*
X11880714Y-17484714D01*
X11909286Y-17499000D01*
X11923571Y-17527572D01*
X11923571Y-17684714D01*
X12509286Y-17370429D02*
X12252143Y-17756143D01*
X12895000Y-17384714D02*
X12923571Y-17384714D01*
X12952143Y-17399000D01*
X12966428Y-17413286D01*
X12980714Y-17441857D01*
X12995000Y-17499000D01*
X12995000Y-17570429D01*
X12980714Y-17627572D01*
X12966428Y-17656143D01*
X12952143Y-17670429D01*
X12923571Y-17684714D01*
X12895000Y-17684714D01*
X12866428Y-17670429D01*
X12852143Y-17656143D01*
X12837857Y-17627572D01*
X12823571Y-17570429D01*
X12823571Y-17499000D01*
X12837857Y-17441857D01*
X12852143Y-17413286D01*
X12866428Y-17399000D01*
X12895000Y-17384714D01*
X13123571Y-17656143D02*
X13137857Y-17670429D01*
X13123571Y-17684714D01*
X13109286Y-17670429D01*
X13123571Y-17656143D01*
X13123571Y-17684714D01*
X13323571Y-17384714D02*
X13352143Y-17384714D01*
X13380714Y-17399000D01*
X13395000Y-17413286D01*
X13409285Y-17441857D01*
X13423571Y-17499000D01*
X13423571Y-17570429D01*
X13409285Y-17627572D01*
X13395000Y-17656143D01*
X13380714Y-17670429D01*
X13352143Y-17684714D01*
X13323571Y-17684714D01*
X13295000Y-17670429D01*
X13280714Y-17656143D01*
X13266428Y-17627572D01*
X13252143Y-17570429D01*
X13252143Y-17499000D01*
X13266428Y-17441857D01*
X13280714Y-17413286D01*
X13295000Y-17399000D01*
X13323571Y-17384714D01*
X13695000Y-17384714D02*
X13552143Y-17384714D01*
X13537857Y-17527572D01*
X13552143Y-17513286D01*
X13580714Y-17499000D01*
X13652143Y-17499000D01*
X13680714Y-17513286D01*
X13695000Y-17527572D01*
X13709285Y-17556143D01*
X13709285Y-17627572D01*
X13695000Y-17656143D01*
X13680714Y-17670429D01*
X13652143Y-17684714D01*
X13580714Y-17684714D01*
X13552143Y-17670429D01*
X13537857Y-17656143D01*
X13852143Y-17684714D02*
X13909285Y-17684714D01*
X13937857Y-17670429D01*
X13952143Y-17656143D01*
X13980714Y-17613286D01*
X13995000Y-17556143D01*
X13995000Y-17441857D01*
X13980714Y-17413286D01*
X13966428Y-17399000D01*
X13937857Y-17384714D01*
X13880714Y-17384714D01*
X13852143Y-17399000D01*
X13837857Y-17413286D01*
X13823571Y-17441857D01*
X13823571Y-17513286D01*
X13837857Y-17541857D01*
X13852143Y-17556143D01*
X13880714Y-17570429D01*
X13937857Y-17570429D01*
X13966428Y-17556143D01*
X13980714Y-17541857D01*
X13995000Y-17513286D01*
X14109286Y-17384714D02*
X14109286Y-17441857D01*
X14223571Y-17384714D02*
X14223571Y-17441857D01*
X14666428Y-17799000D02*
X14652143Y-17784714D01*
X14623571Y-17741857D01*
X14609285Y-17713286D01*
X14595000Y-17670429D01*
X14580714Y-17599000D01*
X14580714Y-17541857D01*
X14595000Y-17470429D01*
X14609285Y-17427572D01*
X14623571Y-17399000D01*
X14652143Y-17356143D01*
X14666428Y-17341857D01*
X14766428Y-17413286D02*
X14780714Y-17399000D01*
X14809285Y-17384714D01*
X14880714Y-17384714D01*
X14909285Y-17399000D01*
X14923571Y-17413286D01*
X14937857Y-17441857D01*
X14937857Y-17470429D01*
X14923571Y-17513286D01*
X14752143Y-17684714D01*
X14937857Y-17684714D01*
X15295000Y-17684714D02*
X15295000Y-17384714D01*
X15423571Y-17684714D02*
X15423571Y-17527572D01*
X15409285Y-17499000D01*
X15380714Y-17484714D01*
X15337857Y-17484714D01*
X15309285Y-17499000D01*
X15295000Y-17513286D01*
X15609285Y-17684714D02*
X15580714Y-17670429D01*
X15566428Y-17656143D01*
X15552143Y-17627572D01*
X15552143Y-17541857D01*
X15566428Y-17513286D01*
X15580714Y-17499000D01*
X15609285Y-17484714D01*
X15652143Y-17484714D01*
X15680714Y-17499000D01*
X15695000Y-17513286D01*
X15709285Y-17541857D01*
X15709285Y-17627572D01*
X15695000Y-17656143D01*
X15680714Y-17670429D01*
X15652143Y-17684714D01*
X15609285Y-17684714D01*
X15880714Y-17684714D02*
X15852143Y-17670429D01*
X15837857Y-17641857D01*
X15837857Y-17384714D01*
X16109286Y-17670429D02*
X16080714Y-17684714D01*
X16023571Y-17684714D01*
X15995000Y-17670429D01*
X15980714Y-17641857D01*
X15980714Y-17527572D01*
X15995000Y-17499000D01*
X16023571Y-17484714D01*
X16080714Y-17484714D01*
X16109286Y-17499000D01*
X16123571Y-17527572D01*
X16123571Y-17556143D01*
X15980714Y-17584714D01*
X16237857Y-17670429D02*
X16266428Y-17684714D01*
X16323571Y-17684714D01*
X16352143Y-17670429D01*
X16366428Y-17641857D01*
X16366428Y-17627572D01*
X16352143Y-17599000D01*
X16323571Y-17584714D01*
X16280714Y-17584714D01*
X16252143Y-17570429D01*
X16237857Y-17541857D01*
X16237857Y-17527572D01*
X16252143Y-17499000D01*
X16280714Y-17484714D01*
X16323571Y-17484714D01*
X16352143Y-17499000D01*
X16466428Y-17799000D02*
X16480714Y-17784714D01*
X16509286Y-17741857D01*
X16523571Y-17713286D01*
X16537857Y-17670429D01*
X16552143Y-17599000D01*
X16552143Y-17541857D01*
X16537857Y-17470429D01*
X16523571Y-17427572D01*
X16509286Y-17399000D01*
X16480714Y-17356143D01*
X16466428Y-17341857D01*
X9594950Y-17744975D02*
X9995000Y-18145025D01*
X9995000Y-17744975D02*
X9594950Y-18145025D01*
X9995000Y-17945000D02*
G75*
G03X9995000Y-17945000I-200025J0D01*
G01*
X10395000Y-17880714D02*
X10395000Y-18080714D01*
X10323571Y-17766429D02*
X10252143Y-17980714D01*
X10437857Y-17980714D01*
X10552143Y-18052143D02*
X10566429Y-18066429D01*
X10552143Y-18080714D01*
X10537857Y-18066429D01*
X10552143Y-18052143D01*
X10552143Y-18080714D01*
X10752143Y-17780714D02*
X10780714Y-17780714D01*
X10809286Y-17795000D01*
X10823571Y-17809286D01*
X10837857Y-17837857D01*
X10852143Y-17895000D01*
X10852143Y-17966429D01*
X10837857Y-18023572D01*
X10823571Y-18052143D01*
X10809286Y-18066429D01*
X10780714Y-18080714D01*
X10752143Y-18080714D01*
X10723571Y-18066429D01*
X10709286Y-18052143D01*
X10695000Y-18023572D01*
X10680714Y-17966429D01*
X10680714Y-17895000D01*
X10695000Y-17837857D01*
X10709286Y-17809286D01*
X10723571Y-17795000D01*
X10752143Y-17780714D01*
X11037857Y-17780714D02*
X11066429Y-17780714D01*
X11095000Y-17795000D01*
X11109286Y-17809286D01*
X11123571Y-17837857D01*
X11137857Y-17895000D01*
X11137857Y-17966429D01*
X11123571Y-18023572D01*
X11109286Y-18052143D01*
X11095000Y-18066429D01*
X11066429Y-18080714D01*
X11037857Y-18080714D01*
X11009286Y-18066429D01*
X10995000Y-18052143D01*
X10980714Y-18023572D01*
X10966429Y-17966429D01*
X10966429Y-17895000D01*
X10980714Y-17837857D01*
X10995000Y-17809286D01*
X11009286Y-17795000D01*
X11037857Y-17780714D01*
X11266428Y-18080714D02*
X11266428Y-17880714D01*
X11266428Y-17909286D02*
X11280714Y-17895000D01*
X11309286Y-17880714D01*
X11352143Y-17880714D01*
X11380714Y-17895000D01*
X11395000Y-17923572D01*
X11395000Y-18080714D01*
X11395000Y-17923572D02*
X11409286Y-17895000D01*
X11437857Y-17880714D01*
X11480714Y-17880714D01*
X11509286Y-17895000D01*
X11523571Y-17923572D01*
X11523571Y-18080714D01*
X11666428Y-18080714D02*
X11666428Y-17880714D01*
X11666428Y-17909286D02*
X11680714Y-17895000D01*
X11709286Y-17880714D01*
X11752143Y-17880714D01*
X11780714Y-17895000D01*
X11795000Y-17923572D01*
X11795000Y-18080714D01*
X11795000Y-17923572D02*
X11809286Y-17895000D01*
X11837857Y-17880714D01*
X11880714Y-17880714D01*
X11909286Y-17895000D01*
X11923571Y-17923572D01*
X11923571Y-18080714D01*
X12509286Y-17766429D02*
X12252143Y-18152143D01*
X12895000Y-17780714D02*
X12923571Y-17780714D01*
X12952143Y-17795000D01*
X12966428Y-17809286D01*
X12980714Y-17837857D01*
X12995000Y-17895000D01*
X12995000Y-17966429D01*
X12980714Y-18023572D01*
X12966428Y-18052143D01*
X12952143Y-18066429D01*
X12923571Y-18080714D01*
X12895000Y-18080714D01*
X12866428Y-18066429D01*
X12852143Y-18052143D01*
X12837857Y-18023572D01*
X12823571Y-17966429D01*
X12823571Y-17895000D01*
X12837857Y-17837857D01*
X12852143Y-17809286D01*
X12866428Y-17795000D01*
X12895000Y-17780714D01*
X13123571Y-18052143D02*
X13137857Y-18066429D01*
X13123571Y-18080714D01*
X13109286Y-18066429D01*
X13123571Y-18052143D01*
X13123571Y-18080714D01*
X13423571Y-18080714D02*
X13252143Y-18080714D01*
X13337857Y-18080714D02*
X13337857Y-17780714D01*
X13309285Y-17823572D01*
X13280714Y-17852143D01*
X13252143Y-17866429D01*
X13695000Y-17780714D02*
X13552143Y-17780714D01*
X13537857Y-17923572D01*
X13552143Y-17909286D01*
X13580714Y-17895000D01*
X13652143Y-17895000D01*
X13680714Y-17909286D01*
X13695000Y-17923572D01*
X13709285Y-17952143D01*
X13709285Y-18023572D01*
X13695000Y-18052143D01*
X13680714Y-18066429D01*
X13652143Y-18080714D01*
X13580714Y-18080714D01*
X13552143Y-18066429D01*
X13537857Y-18052143D01*
X13880714Y-17909286D02*
X13852143Y-17895000D01*
X13837857Y-17880714D01*
X13823571Y-17852143D01*
X13823571Y-17837857D01*
X13837857Y-17809286D01*
X13852143Y-17795000D01*
X13880714Y-17780714D01*
X13937857Y-17780714D01*
X13966428Y-17795000D01*
X13980714Y-17809286D01*
X13995000Y-17837857D01*
X13995000Y-17852143D01*
X13980714Y-17880714D01*
X13966428Y-17895000D01*
X13937857Y-17909286D01*
X13880714Y-17909286D01*
X13852143Y-17923572D01*
X13837857Y-17937857D01*
X13823571Y-17966429D01*
X13823571Y-18023572D01*
X13837857Y-18052143D01*
X13852143Y-18066429D01*
X13880714Y-18080714D01*
X13937857Y-18080714D01*
X13966428Y-18066429D01*
X13980714Y-18052143D01*
X13995000Y-18023572D01*
X13995000Y-17966429D01*
X13980714Y-17937857D01*
X13966428Y-17923572D01*
X13937857Y-17909286D01*
X14109286Y-17780714D02*
X14109286Y-17837857D01*
X14223571Y-17780714D02*
X14223571Y-17837857D01*
X14666428Y-18195000D02*
X14652143Y-18180714D01*
X14623571Y-18137857D01*
X14609285Y-18109286D01*
X14595000Y-18066429D01*
X14580714Y-17995000D01*
X14580714Y-17937857D01*
X14595000Y-17866429D01*
X14609285Y-17823572D01*
X14623571Y-17795000D01*
X14652143Y-17752143D01*
X14666428Y-17737857D01*
X14752143Y-17780714D02*
X14952143Y-17780714D01*
X14823571Y-18080714D01*
X15295000Y-18080714D02*
X15295000Y-17780714D01*
X15423571Y-18080714D02*
X15423571Y-17923572D01*
X15409285Y-17895000D01*
X15380714Y-17880714D01*
X15337857Y-17880714D01*
X15309285Y-17895000D01*
X15295000Y-17909286D01*
X15609285Y-18080714D02*
X15580714Y-18066429D01*
X15566428Y-18052143D01*
X15552143Y-18023572D01*
X15552143Y-17937857D01*
X15566428Y-17909286D01*
X15580714Y-17895000D01*
X15609285Y-17880714D01*
X15652143Y-17880714D01*
X15680714Y-17895000D01*
X15695000Y-17909286D01*
X15709285Y-17937857D01*
X15709285Y-18023572D01*
X15695000Y-18052143D01*
X15680714Y-18066429D01*
X15652143Y-18080714D01*
X15609285Y-18080714D01*
X15880714Y-18080714D02*
X15852143Y-18066429D01*
X15837857Y-18037857D01*
X15837857Y-17780714D01*
X16109286Y-18066429D02*
X16080714Y-18080714D01*
X16023571Y-18080714D01*
X15995000Y-18066429D01*
X15980714Y-18037857D01*
X15980714Y-17923572D01*
X15995000Y-17895000D01*
X16023571Y-17880714D01*
X16080714Y-17880714D01*
X16109286Y-17895000D01*
X16123571Y-17923572D01*
X16123571Y-17952143D01*
X15980714Y-17980714D01*
X16237857Y-18066429D02*
X16266428Y-18080714D01*
X16323571Y-18080714D01*
X16352143Y-18066429D01*
X16366428Y-18037857D01*
X16366428Y-18023572D01*
X16352143Y-17995000D01*
X16323571Y-17980714D01*
X16280714Y-17980714D01*
X16252143Y-17966429D01*
X16237857Y-17937857D01*
X16237857Y-17923572D01*
X16252143Y-17895000D01*
X16280714Y-17880714D01*
X16323571Y-17880714D01*
X16352143Y-17895000D01*
X16466428Y-18195000D02*
X16480714Y-18180714D01*
X16509286Y-18137857D01*
X16523571Y-18109286D01*
X16537857Y-18066429D01*
X16552143Y-17995000D01*
X16552143Y-17937857D01*
X16537857Y-17866429D01*
X16523571Y-17823572D01*
X16509286Y-17795000D01*
X16480714Y-17752143D01*
X16466428Y-17737857D01*
X9395052Y-18175076D02*
X9995000Y-18775024D01*
X9995000Y-18175076D02*
X9395052Y-18775024D01*
X9695026Y-18175076D02*
X9695026Y-18775024D01*
X9395052Y-18475050D02*
X9995000Y-18475050D01*
X10395000Y-18310764D02*
X10337857Y-18310764D01*
X10309286Y-18325050D01*
X10295000Y-18339336D01*
X10266429Y-18382193D01*
X10252143Y-18439336D01*
X10252143Y-18553622D01*
X10266429Y-18582193D01*
X10280714Y-18596479D01*
X10309286Y-18610764D01*
X10366429Y-18610764D01*
X10395000Y-18596479D01*
X10409286Y-18582193D01*
X10423571Y-18553622D01*
X10423571Y-18482193D01*
X10409286Y-18453622D01*
X10395000Y-18439336D01*
X10366429Y-18425050D01*
X10309286Y-18425050D01*
X10280714Y-18439336D01*
X10266429Y-18453622D01*
X10252143Y-18482193D01*
X10552143Y-18582193D02*
X10566429Y-18596479D01*
X10552143Y-18610764D01*
X10537857Y-18596479D01*
X10552143Y-18582193D01*
X10552143Y-18610764D01*
X10752143Y-18310764D02*
X10780714Y-18310764D01*
X10809286Y-18325050D01*
X10823571Y-18339336D01*
X10837857Y-18367907D01*
X10852143Y-18425050D01*
X10852143Y-18496479D01*
X10837857Y-18553622D01*
X10823571Y-18582193D01*
X10809286Y-18596479D01*
X10780714Y-18610764D01*
X10752143Y-18610764D01*
X10723571Y-18596479D01*
X10709286Y-18582193D01*
X10695000Y-18553622D01*
X10680714Y-18496479D01*
X10680714Y-18425050D01*
X10695000Y-18367907D01*
X10709286Y-18339336D01*
X10723571Y-18325050D01*
X10752143Y-18310764D01*
X11037857Y-18310764D02*
X11066429Y-18310764D01*
X11095000Y-18325050D01*
X11109286Y-18339336D01*
X11123571Y-18367907D01*
X11137857Y-18425050D01*
X11137857Y-18496479D01*
X11123571Y-18553622D01*
X11109286Y-18582193D01*
X11095000Y-18596479D01*
X11066429Y-18610764D01*
X11037857Y-18610764D01*
X11009286Y-18596479D01*
X10995000Y-18582193D01*
X10980714Y-18553622D01*
X10966429Y-18496479D01*
X10966429Y-18425050D01*
X10980714Y-18367907D01*
X10995000Y-18339336D01*
X11009286Y-18325050D01*
X11037857Y-18310764D01*
X11266428Y-18610764D02*
X11266428Y-18410764D01*
X11266428Y-18439336D02*
X11280714Y-18425050D01*
X11309286Y-18410764D01*
X11352143Y-18410764D01*
X11380714Y-18425050D01*
X11395000Y-18453622D01*
X11395000Y-18610764D01*
X11395000Y-18453622D02*
X11409286Y-18425050D01*
X11437857Y-18410764D01*
X11480714Y-18410764D01*
X11509286Y-18425050D01*
X11523571Y-18453622D01*
X11523571Y-18610764D01*
X11666428Y-18610764D02*
X11666428Y-18410764D01*
X11666428Y-18439336D02*
X11680714Y-18425050D01*
X11709286Y-18410764D01*
X11752143Y-18410764D01*
X11780714Y-18425050D01*
X11795000Y-18453622D01*
X11795000Y-18610764D01*
X11795000Y-18453622D02*
X11809286Y-18425050D01*
X11837857Y-18410764D01*
X11880714Y-18410764D01*
X11909286Y-18425050D01*
X11923571Y-18453622D01*
X11923571Y-18610764D01*
X12509286Y-18296479D02*
X12252143Y-18682193D01*
X12895000Y-18310764D02*
X12923571Y-18310764D01*
X12952143Y-18325050D01*
X12966428Y-18339336D01*
X12980714Y-18367907D01*
X12995000Y-18425050D01*
X12995000Y-18496479D01*
X12980714Y-18553622D01*
X12966428Y-18582193D01*
X12952143Y-18596479D01*
X12923571Y-18610764D01*
X12895000Y-18610764D01*
X12866428Y-18596479D01*
X12852143Y-18582193D01*
X12837857Y-18553622D01*
X12823571Y-18496479D01*
X12823571Y-18425050D01*
X12837857Y-18367907D01*
X12852143Y-18339336D01*
X12866428Y-18325050D01*
X12895000Y-18310764D01*
X13123571Y-18582193D02*
X13137857Y-18596479D01*
X13123571Y-18610764D01*
X13109286Y-18596479D01*
X13123571Y-18582193D01*
X13123571Y-18610764D01*
X13252143Y-18339336D02*
X13266428Y-18325050D01*
X13295000Y-18310764D01*
X13366428Y-18310764D01*
X13395000Y-18325050D01*
X13409285Y-18339336D01*
X13423571Y-18367907D01*
X13423571Y-18396479D01*
X13409285Y-18439336D01*
X13237857Y-18610764D01*
X13423571Y-18610764D01*
X13523571Y-18310764D02*
X13709285Y-18310764D01*
X13609285Y-18425050D01*
X13652143Y-18425050D01*
X13680714Y-18439336D01*
X13695000Y-18453622D01*
X13709285Y-18482193D01*
X13709285Y-18553622D01*
X13695000Y-18582193D01*
X13680714Y-18596479D01*
X13652143Y-18610764D01*
X13566428Y-18610764D01*
X13537857Y-18596479D01*
X13523571Y-18582193D01*
X13966428Y-18310764D02*
X13909285Y-18310764D01*
X13880714Y-18325050D01*
X13866428Y-18339336D01*
X13837857Y-18382193D01*
X13823571Y-18439336D01*
X13823571Y-18553622D01*
X13837857Y-18582193D01*
X13852143Y-18596479D01*
X13880714Y-18610764D01*
X13937857Y-18610764D01*
X13966428Y-18596479D01*
X13980714Y-18582193D01*
X13995000Y-18553622D01*
X13995000Y-18482193D01*
X13980714Y-18453622D01*
X13966428Y-18439336D01*
X13937857Y-18425050D01*
X13880714Y-18425050D01*
X13852143Y-18439336D01*
X13837857Y-18453622D01*
X13823571Y-18482193D01*
X14109286Y-18310764D02*
X14109286Y-18367907D01*
X14223571Y-18310764D02*
X14223571Y-18367907D01*
X14666428Y-18725050D02*
X14652143Y-18710764D01*
X14623571Y-18667907D01*
X14609285Y-18639336D01*
X14595000Y-18596479D01*
X14580714Y-18525050D01*
X14580714Y-18467907D01*
X14595000Y-18396479D01*
X14609285Y-18353622D01*
X14623571Y-18325050D01*
X14652143Y-18282193D01*
X14666428Y-18267907D01*
X14937857Y-18610764D02*
X14766428Y-18610764D01*
X14852143Y-18610764D02*
X14852143Y-18310764D01*
X14823571Y-18353622D01*
X14795000Y-18382193D01*
X14766428Y-18396479D01*
X15295000Y-18610764D02*
X15295000Y-18310764D01*
X15423571Y-18610764D02*
X15423571Y-18453622D01*
X15409285Y-18425050D01*
X15380714Y-18410764D01*
X15337857Y-18410764D01*
X15309285Y-18425050D01*
X15295000Y-18439336D01*
X15609285Y-18610764D02*
X15580714Y-18596479D01*
X15566428Y-18582193D01*
X15552143Y-18553622D01*
X15552143Y-18467907D01*
X15566428Y-18439336D01*
X15580714Y-18425050D01*
X15609285Y-18410764D01*
X15652143Y-18410764D01*
X15680714Y-18425050D01*
X15695000Y-18439336D01*
X15709285Y-18467907D01*
X15709285Y-18553622D01*
X15695000Y-18582193D01*
X15680714Y-18596479D01*
X15652143Y-18610764D01*
X15609285Y-18610764D01*
X15880714Y-18610764D02*
X15852143Y-18596479D01*
X15837857Y-18567907D01*
X15837857Y-18310764D01*
X16109286Y-18596479D02*
X16080714Y-18610764D01*
X16023571Y-18610764D01*
X15995000Y-18596479D01*
X15980714Y-18567907D01*
X15980714Y-18453622D01*
X15995000Y-18425050D01*
X16023571Y-18410764D01*
X16080714Y-18410764D01*
X16109286Y-18425050D01*
X16123571Y-18453622D01*
X16123571Y-18482193D01*
X15980714Y-18510764D01*
X16223571Y-18725050D02*
X16237857Y-18710764D01*
X16266428Y-18667907D01*
X16280714Y-18639336D01*
X16295000Y-18596479D01*
X16309286Y-18525050D01*
X16309286Y-18467907D01*
X16295000Y-18396479D01*
X16280714Y-18353622D01*
X16266428Y-18325050D01*
X16237857Y-18282193D01*
X16223571Y-18267907D01*
M02*
