%FSLAX46Y46*%
G04 Gerber Fmt 4.6, Leading zero omitted, Abs format (unit mm)*
G04 Created by KiCad (PCBNEW (2014-10-27 BZR 5228)-product) date 18/01/2015 21:29:10*
%MOMM*%
G01*
G04 APERTURE LIST*
%ADD10C,0.100000*%
%ADD11R,1.800860X2.499360*%
%ADD12R,2.499360X1.800860*%
%ADD13C,1.998980*%
%ADD14R,2.032000X2.032000*%
%ADD15O,2.032000X2.032000*%
%ADD16R,1.727200X1.727200*%
%ADD17O,1.727200X1.727200*%
%ADD18R,2.235200X2.235200*%
%ADD19R,2.032000X1.727200*%
%ADD20O,2.032000X1.727200*%
%ADD21R,1.000760X0.599440*%
%ADD22O,1.699260X3.500120*%
%ADD23R,0.299720X1.300480*%
%ADD24R,1.950000X0.600000*%
%ADD25R,0.600000X1.950000*%
%ADD26C,1.524000*%
%ADD27R,1.550000X0.600000*%
%ADD28C,2.540000*%
%ADD29C,1.727200*%
%ADD30R,1.397000X1.397000*%
%ADD31C,1.397000*%
%ADD32R,1.000000X1.250000*%
%ADD33R,1.250000X1.000000*%
%ADD34R,1.198880X1.600200*%
%ADD35R,1.600200X1.198880*%
%ADD36R,1.300000X0.700000*%
%ADD37R,0.700000X1.300000*%
%ADD38R,2.700020X2.550160*%
%ADD39C,0.889000*%
%ADD40C,0.762000*%
%ADD41C,0.381000*%
%ADD42C,0.254000*%
%ADD43C,1.524000*%
%ADD44C,1.016000*%
G04 APERTURE END LIST*
D10*
D11*
X104600000Y-117898980D03*
X104600000Y-113901020D03*
X108600000Y-117898980D03*
X108600000Y-113901020D03*
D12*
X105601020Y-121500000D03*
X109598980Y-121500000D03*
D11*
X108400000Y-125201020D03*
X108400000Y-129198980D03*
X104300000Y-125001020D03*
X104300000Y-128998980D03*
X140100000Y-125501020D03*
X140100000Y-129498980D03*
X140400000Y-117098980D03*
X140400000Y-113101020D03*
X136400000Y-117198980D03*
X136400000Y-113201020D03*
D12*
X139298980Y-121200000D03*
X135301020Y-121200000D03*
D11*
X136200000Y-125701020D03*
X136200000Y-129698980D03*
D13*
X160375600Y-54917340D03*
X160375600Y-65077340D03*
X142392400Y-77228700D03*
X142392400Y-71640700D03*
X156197300Y-77292200D03*
X156197300Y-71704200D03*
X196092000Y-64396000D03*
X190504000Y-64396000D03*
X196292000Y-79396000D03*
X190704000Y-79396000D03*
X195892000Y-96996000D03*
X190304000Y-96996000D03*
X185784000Y-129363000D03*
X180196000Y-129363000D03*
X195992000Y-112896000D03*
X190404000Y-112896000D03*
X185892000Y-64396000D03*
X180304000Y-64396000D03*
X185892000Y-79396000D03*
X180304000Y-79396000D03*
X185692000Y-96796000D03*
X180104000Y-96796000D03*
X195984000Y-129263000D03*
X190396000Y-129263000D03*
X185792000Y-112796000D03*
X180204000Y-112796000D03*
D14*
X130644900Y-81788000D03*
D15*
X130644900Y-79248000D03*
D14*
X123630000Y-78900000D03*
D15*
X126170000Y-78900000D03*
D16*
X125350000Y-91430000D03*
D17*
X125350000Y-93970000D03*
X122810000Y-91430000D03*
X122810000Y-93970000D03*
X120270000Y-91430000D03*
X120270000Y-93970000D03*
X117730000Y-91430000D03*
X117730000Y-93970000D03*
X115190000Y-91430000D03*
X115190000Y-93970000D03*
X112650000Y-91430000D03*
X112650000Y-93970000D03*
D14*
X107391200Y-69227700D03*
D15*
X109931200Y-69227700D03*
D14*
X103035100Y-81546700D03*
D15*
X103035100Y-79006700D03*
D18*
X121600000Y-83400000D03*
D19*
X103136700Y-60198000D03*
D20*
X103136700Y-62738000D03*
X103136700Y-65278000D03*
X103136700Y-67818000D03*
D21*
X122543360Y-74747500D03*
X124656640Y-75700000D03*
X122543360Y-76652500D03*
D22*
X130200000Y-55900000D03*
X132740000Y-55900000D03*
X127660000Y-55900000D03*
D13*
X107700000Y-102800640D03*
X107700000Y-107801900D03*
X135400000Y-107299360D03*
X135400000Y-102298100D03*
D16*
X135902700Y-81140300D03*
D17*
X135902700Y-83680300D03*
X138442700Y-81140300D03*
X138442700Y-83680300D03*
D23*
X133830400Y-88006000D03*
X133195400Y-88006000D03*
X132535000Y-88006000D03*
X131900000Y-88006000D03*
X131239600Y-88006000D03*
X130591900Y-88006000D03*
X129944200Y-88006000D03*
X129944200Y-93594000D03*
X130591900Y-93594000D03*
X131239600Y-93594000D03*
X131900000Y-93594000D03*
X132547700Y-93594000D03*
X133195400Y-93594000D03*
X133843100Y-93594000D03*
X142392400Y-91160600D03*
X141757400Y-91160600D03*
X141097000Y-91160600D03*
X140462000Y-91160600D03*
X139801600Y-91160600D03*
X139153900Y-91160600D03*
X138506200Y-91160600D03*
X138506200Y-96748600D03*
X139153900Y-96748600D03*
X139801600Y-96748600D03*
X140462000Y-96748600D03*
X141109700Y-96748600D03*
X141757400Y-96748600D03*
X142405100Y-96748600D03*
D24*
X147496800Y-114300000D03*
X147496800Y-115570000D03*
X147496800Y-116840000D03*
X147496800Y-118110000D03*
X147496800Y-119380000D03*
X147496800Y-120650000D03*
X147496800Y-121920000D03*
X147496800Y-123190000D03*
X147496800Y-124460000D03*
X147496800Y-125730000D03*
X156896800Y-125730000D03*
X156896800Y-124460000D03*
X156896800Y-123190000D03*
X156896800Y-121920000D03*
X156896800Y-120650000D03*
X156896800Y-119380000D03*
X156896800Y-118110000D03*
X156896800Y-116840000D03*
X156896800Y-115570000D03*
X156896800Y-114300000D03*
X146963400Y-96215200D03*
X146963400Y-97485200D03*
X146963400Y-98755200D03*
X146963400Y-100025200D03*
X146963400Y-101295200D03*
X146963400Y-102565200D03*
X146963400Y-103835200D03*
X146963400Y-105105200D03*
X146963400Y-106375200D03*
X146963400Y-107645200D03*
X156363400Y-107645200D03*
X156363400Y-106375200D03*
X156363400Y-105105200D03*
X156363400Y-103835200D03*
X156363400Y-102565200D03*
X156363400Y-101295200D03*
X156363400Y-100025200D03*
X156363400Y-98755200D03*
X156363400Y-97485200D03*
X156363400Y-96215200D03*
D25*
X145915000Y-134600000D03*
X144645000Y-134600000D03*
X143375000Y-134600000D03*
X142105000Y-134600000D03*
X140835000Y-134600000D03*
X139565000Y-134600000D03*
X138295000Y-134600000D03*
X137025000Y-134600000D03*
X135755000Y-134600000D03*
X134485000Y-134600000D03*
X134485000Y-144000000D03*
X135755000Y-144000000D03*
X137025000Y-144000000D03*
X138295000Y-144000000D03*
X139565000Y-144000000D03*
X140835000Y-144000000D03*
X142105000Y-144000000D03*
X143375000Y-144000000D03*
X144645000Y-144000000D03*
X145915000Y-144000000D03*
X149685000Y-144000000D03*
X150955000Y-144000000D03*
X152225000Y-144000000D03*
X153495000Y-144000000D03*
X154765000Y-144000000D03*
X156035000Y-144000000D03*
X157305000Y-144000000D03*
X158575000Y-144000000D03*
X159845000Y-144000000D03*
X161115000Y-144000000D03*
X161115000Y-134600000D03*
X159845000Y-134600000D03*
X158575000Y-134600000D03*
X157305000Y-134600000D03*
X156035000Y-134600000D03*
X154765000Y-134600000D03*
X153495000Y-134600000D03*
X152225000Y-134600000D03*
X150955000Y-134600000D03*
X149685000Y-134600000D03*
D26*
X117170200Y-64668400D03*
X117170200Y-62128400D03*
X117170200Y-67208400D03*
D16*
X182968900Y-141566900D03*
D17*
X182968900Y-144106900D03*
X180428900Y-141566900D03*
X180428900Y-144106900D03*
X177888900Y-141566900D03*
X177888900Y-144106900D03*
X175348900Y-141566900D03*
X175348900Y-144106900D03*
X172808900Y-141566900D03*
X172808900Y-144106900D03*
D19*
X160909000Y-96723200D03*
D20*
X160909000Y-99263200D03*
X160909000Y-101803200D03*
X160909000Y-104343200D03*
X160909000Y-106883200D03*
X160909000Y-109423200D03*
X160909000Y-111963200D03*
X160909000Y-114503200D03*
D27*
X114635300Y-74091800D03*
X114635300Y-75361800D03*
X114635300Y-76631800D03*
X114635300Y-77901800D03*
X120035300Y-77901800D03*
X120035300Y-76631800D03*
X120035300Y-75361800D03*
X120035300Y-74091800D03*
D28*
X138582400Y-55976000D03*
D29*
X138582400Y-59976000D03*
D28*
X138582400Y-63976000D03*
D29*
X138582400Y-67976000D03*
D30*
X152603200Y-82207100D03*
D31*
X152603200Y-84747100D03*
X152603200Y-87287100D03*
X152603200Y-89827100D03*
X152603200Y-92367100D03*
X160223200Y-92367100D03*
X160223200Y-89827100D03*
X160223200Y-87287100D03*
X160223200Y-84747100D03*
X160223200Y-82207100D03*
D30*
X168590000Y-59520000D03*
D31*
X168590000Y-62060000D03*
X168590000Y-64600000D03*
X168590000Y-67140000D03*
X168590000Y-69680000D03*
X176210000Y-69680000D03*
X176210000Y-67140000D03*
X176210000Y-64600000D03*
X176210000Y-62060000D03*
X176210000Y-59520000D03*
D30*
X168590000Y-74920000D03*
D31*
X168590000Y-77460000D03*
X168590000Y-80000000D03*
X168590000Y-82540000D03*
X168590000Y-85080000D03*
X176210000Y-85080000D03*
X176210000Y-82540000D03*
X176210000Y-80000000D03*
X176210000Y-77460000D03*
X176210000Y-74920000D03*
D30*
X168690000Y-91320000D03*
D31*
X168690000Y-93860000D03*
X168690000Y-96400000D03*
X168690000Y-98940000D03*
X168690000Y-101480000D03*
X176310000Y-101480000D03*
X176310000Y-98940000D03*
X176310000Y-96400000D03*
X176310000Y-93860000D03*
X176310000Y-91320000D03*
D30*
X168790000Y-107920000D03*
D31*
X168790000Y-110460000D03*
X168790000Y-113000000D03*
X168790000Y-115540000D03*
X168790000Y-118080000D03*
X176410000Y-118080000D03*
X176410000Y-115540000D03*
X176410000Y-113000000D03*
X176410000Y-110460000D03*
X176410000Y-107920000D03*
D30*
X168990000Y-124320000D03*
D31*
X168990000Y-126860000D03*
X168990000Y-129400000D03*
X168990000Y-131940000D03*
X168990000Y-134480000D03*
X176610000Y-134480000D03*
X176610000Y-131940000D03*
X176610000Y-129400000D03*
X176610000Y-126860000D03*
X176610000Y-124320000D03*
D32*
X107200000Y-60200000D03*
X109200000Y-60200000D03*
D33*
X121196100Y-68227700D03*
X121196100Y-70227700D03*
D32*
X114671600Y-83769200D03*
X116671600Y-83769200D03*
X130100000Y-62400000D03*
X128100000Y-62400000D03*
D33*
X103100000Y-104000000D03*
X103100000Y-102000000D03*
D32*
X115100000Y-105000000D03*
X117100000Y-105000000D03*
X114900000Y-114600000D03*
X116900000Y-114600000D03*
X130500000Y-125600000D03*
X128500000Y-125600000D03*
X114300000Y-136900000D03*
X116300000Y-136900000D03*
X115000000Y-144700000D03*
X117000000Y-144700000D03*
X115200000Y-102700000D03*
X117200000Y-102700000D03*
X114700000Y-112000000D03*
X116700000Y-112000000D03*
X114500000Y-123400000D03*
X116500000Y-123400000D03*
X114300000Y-134400000D03*
X116300000Y-134400000D03*
X115000000Y-142600000D03*
X117000000Y-142600000D03*
X120700000Y-100200000D03*
X118700000Y-100200000D03*
X120400000Y-109600000D03*
X118400000Y-109600000D03*
X120200000Y-121300000D03*
X118200000Y-121300000D03*
X120200000Y-131400000D03*
X118200000Y-131400000D03*
X125000000Y-140200000D03*
X123000000Y-140200000D03*
X124500000Y-144800000D03*
X122500000Y-144800000D03*
D33*
X125400000Y-102300000D03*
X125400000Y-104300000D03*
X124500000Y-111600000D03*
X124500000Y-113600000D03*
X124700000Y-123100000D03*
X124700000Y-125100000D03*
D32*
X120100000Y-133500000D03*
X118100000Y-133500000D03*
X124500000Y-142500000D03*
X122500000Y-142500000D03*
X131300000Y-100300000D03*
X129300000Y-100300000D03*
X129900000Y-109400000D03*
X127900000Y-109400000D03*
X132500000Y-121200000D03*
X130500000Y-121200000D03*
X129800000Y-129200000D03*
X127800000Y-129200000D03*
X129500000Y-104900000D03*
X127500000Y-104900000D03*
X129800000Y-114400000D03*
X127800000Y-114400000D03*
X114500000Y-125700000D03*
X116500000Y-125700000D03*
X127700000Y-136100000D03*
X125700000Y-136100000D03*
X129400000Y-102400000D03*
X127400000Y-102400000D03*
X129800000Y-111600000D03*
X127800000Y-111600000D03*
X130500000Y-123400000D03*
X128500000Y-123400000D03*
X127800000Y-133700000D03*
X125800000Y-133700000D03*
D33*
X140800000Y-101700000D03*
X140800000Y-103700000D03*
D32*
X120100000Y-129200000D03*
X118100000Y-129200000D03*
X129800000Y-131400000D03*
X127800000Y-131400000D03*
D34*
X103200000Y-106699140D03*
X103200000Y-110300860D03*
X112500000Y-102599140D03*
X112500000Y-106200860D03*
X112700000Y-111999140D03*
X112700000Y-115600860D03*
X112400000Y-123499140D03*
X112400000Y-127100860D03*
X112400000Y-133499140D03*
X112400000Y-137100860D03*
X112600000Y-142499140D03*
X112600000Y-146100860D03*
D35*
X112599140Y-100200000D03*
X116200860Y-100200000D03*
X112699140Y-109700000D03*
X116300860Y-109700000D03*
X112399140Y-121400000D03*
X116000860Y-121400000D03*
X112599140Y-131400000D03*
X116200860Y-131400000D03*
X112699140Y-140400000D03*
X116300860Y-140400000D03*
D34*
X123000000Y-102699140D03*
X123000000Y-106300860D03*
X122400000Y-111799140D03*
X122400000Y-115400860D03*
X122200000Y-121399140D03*
X122200000Y-125000860D03*
X122200000Y-133599140D03*
X122200000Y-137200860D03*
X126800000Y-142599140D03*
X126800000Y-146200860D03*
D35*
X123299140Y-100300000D03*
X126900860Y-100300000D03*
X122399140Y-109500000D03*
X126000860Y-109500000D03*
X124599140Y-121300000D03*
X128200860Y-121300000D03*
X122199140Y-131400000D03*
X125800860Y-131400000D03*
D34*
X131200000Y-102599140D03*
X131200000Y-106200860D03*
X132100000Y-111799140D03*
X132100000Y-115400860D03*
X132400000Y-123399140D03*
X132400000Y-127000860D03*
X129700000Y-133499140D03*
X129700000Y-137100860D03*
X140800000Y-106199140D03*
X140800000Y-109800860D03*
D36*
X121100000Y-79250000D03*
X121100000Y-81150000D03*
D37*
X125350000Y-60600000D03*
X123450000Y-60600000D03*
D36*
X120967500Y-62067400D03*
X120967500Y-63967400D03*
D37*
X116456500Y-81076800D03*
X114556500Y-81076800D03*
X135050000Y-63600000D03*
X133150000Y-63600000D03*
D36*
X110100000Y-146050000D03*
X110100000Y-144150000D03*
X110200000Y-135250000D03*
X110200000Y-133350000D03*
D37*
X116450000Y-129300000D03*
X114550000Y-129300000D03*
X114650000Y-118800000D03*
X112750000Y-118800000D03*
D36*
X120100000Y-105650000D03*
X120100000Y-103750000D03*
D38*
X108407200Y-81013300D03*
X108407200Y-74663300D03*
D32*
X166000000Y-72300000D03*
X164000000Y-72300000D03*
D39*
X110000000Y-88200000D03*
X111100000Y-84500000D03*
X119500000Y-97100000D03*
X119600000Y-102000000D03*
X100900000Y-123300000D03*
X105100000Y-131900000D03*
X109500000Y-131900000D03*
X166000000Y-87400000D03*
X151700000Y-79500000D03*
X157900000Y-79600000D03*
X110900000Y-111900000D03*
X113000000Y-129300000D03*
X115000000Y-148500000D03*
X120000000Y-148500000D03*
X125000000Y-148500000D03*
X128900000Y-148500000D03*
X135000000Y-148500000D03*
X140000000Y-148500000D03*
X144600000Y-141800000D03*
X185000000Y-148500000D03*
X180000000Y-148500000D03*
X175000000Y-148500000D03*
X170000000Y-148500000D03*
X165000000Y-148500000D03*
X160000000Y-148500000D03*
X155000000Y-148500000D03*
X150000000Y-148500000D03*
X145000000Y-148500000D03*
X160000000Y-51500000D03*
X165000000Y-51500000D03*
X170000000Y-51500000D03*
X175000000Y-51500000D03*
X180000000Y-51500000D03*
X185000000Y-51600000D03*
X125000000Y-51500000D03*
X120000000Y-51500000D03*
X115000000Y-51500000D03*
X130000000Y-51500000D03*
X135000000Y-51500000D03*
X121000000Y-144800000D03*
X125700000Y-88100000D03*
X121000000Y-141800000D03*
X118300000Y-143800000D03*
X160500000Y-116800000D03*
X159500000Y-125700000D03*
X137700000Y-89900000D03*
X108356400Y-83794600D03*
X158419800Y-96240600D03*
X114757200Y-79362300D03*
X118272560Y-83743800D03*
X117100000Y-106400000D03*
X125400000Y-106500000D03*
X160500000Y-141800000D03*
X162400000Y-134500000D03*
X134600000Y-141600000D03*
X134500000Y-136600000D03*
X118100000Y-123700000D03*
X118200000Y-112200000D03*
X118500000Y-103500000D03*
X127500000Y-106500000D03*
X118600000Y-114800000D03*
X120600000Y-115500000D03*
X124400000Y-115300000D03*
X126300000Y-111700000D03*
X126300000Y-115000000D03*
X118200000Y-125700000D03*
X120500000Y-125200000D03*
X124700000Y-126500000D03*
X126800000Y-125600000D03*
X126900000Y-123500000D03*
X124100000Y-133700000D03*
X124200000Y-136200000D03*
X124000000Y-137500000D03*
X119200000Y-135300000D03*
X117700000Y-135400000D03*
X117900000Y-137000000D03*
X118300000Y-146000000D03*
X150900000Y-137100000D03*
X155000000Y-109400000D03*
X147900000Y-108900000D03*
X111100000Y-60200000D03*
X182000000Y-118200000D03*
X176610000Y-126860000D03*
X143900000Y-101500000D03*
X149600000Y-101200000D03*
X150300000Y-97200000D03*
X134600000Y-105200000D03*
X131400000Y-108100000D03*
X140800000Y-132500000D03*
X135000000Y-119300000D03*
X132700000Y-133300000D03*
X131400000Y-128800000D03*
X129700000Y-142300000D03*
X127700000Y-139000000D03*
X162229800Y-60833000D03*
X178500000Y-88800000D03*
X178500000Y-86100000D03*
X168800000Y-106100000D03*
X131300000Y-86200000D03*
X134300000Y-95700000D03*
X143800000Y-91300000D03*
X145262600Y-117805200D03*
X150368000Y-115493800D03*
X121000000Y-86900000D03*
X126698700Y-84001300D03*
X133200000Y-84000000D03*
X157975300Y-112826800D03*
X137500000Y-87900000D03*
X118300500Y-81191100D03*
X146000000Y-91000000D03*
X153835100Y-102425500D03*
X134300000Y-97400000D03*
X131200000Y-91700000D03*
X145072100Y-98844100D03*
X139090400Y-93522800D03*
X144932400Y-108168440D03*
X144896840Y-102641400D03*
X138049000Y-98425000D03*
X144145000Y-95453200D03*
X148200000Y-140100000D03*
X148200000Y-138200000D03*
X153339800Y-106451400D03*
X143713200Y-100050600D03*
X152600000Y-122000000D03*
X153390600Y-124498100D03*
X136100000Y-141600000D03*
X142100000Y-98600000D03*
X159900000Y-132500000D03*
X159143700Y-116954300D03*
X149644100Y-98742500D03*
X149618700Y-117309900D03*
X176100000Y-146600000D03*
X149618700Y-119481600D03*
X154900000Y-146700000D03*
X145427700Y-120662700D03*
X153400000Y-146200000D03*
X114681000Y-72656700D03*
X168600000Y-72200000D03*
D40*
X117386100Y-71361300D02*
X111709200Y-71361300D01*
X111709200Y-71361300D02*
X108407200Y-74663300D01*
X120035300Y-74010500D02*
X117386100Y-71361300D01*
X120035300Y-74091800D02*
X120035300Y-74010500D01*
X108407200Y-74663300D02*
X108191300Y-74663300D01*
X110540800Y-74663300D02*
X112179100Y-76301600D01*
X112179100Y-76301600D02*
X112179100Y-80949800D01*
X112179100Y-80949800D02*
X112179100Y-83146900D01*
X112179100Y-83146900D02*
X112366100Y-83333900D01*
X112366100Y-83333900D02*
X112801400Y-83769200D01*
X112801400Y-83769200D02*
X114671600Y-83769200D01*
X108407200Y-74663300D02*
X110540800Y-74663300D01*
X114429500Y-80949800D02*
X114556500Y-81076800D01*
X112179100Y-80949800D02*
X114429500Y-80949800D01*
X105333800Y-71247000D02*
X105333800Y-60858400D01*
X105333800Y-60858400D02*
X104673400Y-60198000D01*
X104673400Y-60198000D02*
X103136700Y-60198000D01*
X108407200Y-74320400D02*
X105333800Y-71247000D01*
X108407200Y-74663300D02*
X108407200Y-74320400D01*
X121887660Y-74091800D02*
X122543360Y-74747500D01*
X120035300Y-74091800D02*
X121887660Y-74091800D01*
X110000000Y-88200000D02*
X110500000Y-88700000D01*
X110500000Y-97100000D02*
X110500000Y-98400000D01*
X110500000Y-88700000D02*
X110500000Y-97100000D01*
X110500000Y-98400000D02*
X107700000Y-101200000D01*
X107700000Y-101200000D02*
X107700000Y-102800640D01*
X112366100Y-83333900D02*
X112266100Y-83333900D01*
X111100000Y-84500000D02*
X112266100Y-83333900D01*
X131800000Y-97100000D02*
X135400000Y-100700000D01*
X135400000Y-100700000D02*
X135400000Y-102298100D01*
X119500000Y-97100000D02*
X131800000Y-97100000D01*
X110500000Y-97100000D02*
X119500000Y-97100000D01*
X120100000Y-103750000D02*
X120100000Y-102500000D01*
X119600000Y-102000000D02*
X120100000Y-102500000D01*
X100900000Y-123300000D02*
X100900000Y-131700000D01*
X105100000Y-131900000D02*
X104900000Y-131700000D01*
X104900000Y-131700000D02*
X100900000Y-131700000D01*
X110200000Y-132600000D02*
X109500000Y-131900000D01*
X110200000Y-133350000D02*
X110200000Y-132600000D01*
X166880000Y-107920000D02*
X166000000Y-108800000D01*
X166000000Y-108800000D02*
X166000000Y-121330000D01*
X166000000Y-121330000D02*
X168990000Y-124320000D01*
X168790000Y-107920000D02*
X166880000Y-107920000D01*
X167580000Y-74920000D02*
X166000000Y-76500000D01*
X166000000Y-79600000D02*
X166000000Y-87400000D01*
X166000000Y-76500000D02*
X166000000Y-79600000D01*
X168590000Y-74920000D02*
X167580000Y-74920000D01*
X165900000Y-79600000D02*
X166000000Y-79600000D01*
X166000000Y-79600000D02*
X165900000Y-79600000D01*
X123200000Y-71700000D02*
X123200000Y-68300000D01*
X123200000Y-68300000D02*
X127000000Y-64500000D01*
X127000000Y-64500000D02*
X131400000Y-64500000D01*
X131400000Y-64500000D02*
X141500000Y-74600000D01*
X141500000Y-74600000D02*
X147600000Y-74600000D01*
X147600000Y-74600000D02*
X149500000Y-76500000D01*
X149500000Y-76500000D02*
X149500000Y-77300000D01*
X149500000Y-77300000D02*
X151700000Y-79500000D01*
X157900000Y-79600000D02*
X166000000Y-79600000D01*
X120808200Y-74091800D02*
X123200000Y-71700000D01*
X120035300Y-74091800D02*
X120808200Y-74091800D01*
X107198000Y-60198000D02*
X107200000Y-60200000D01*
X103136700Y-60198000D02*
X107198000Y-60198000D01*
X111300000Y-118800000D02*
X111300000Y-118300000D01*
X112750000Y-118800000D02*
X111300000Y-118800000D01*
X110900000Y-117900000D02*
X110900000Y-111900000D01*
X111300000Y-118300000D02*
X110900000Y-117900000D01*
X109750000Y-143800000D02*
X110100000Y-144150000D01*
X108000000Y-140900000D02*
X109750000Y-142650000D01*
X102800000Y-140900000D02*
X108000000Y-140900000D01*
X100900000Y-139000000D02*
X102800000Y-140900000D01*
X100900000Y-139000000D02*
X100900000Y-131700000D01*
X109750000Y-143800000D02*
X109750000Y-142650000D01*
X114550000Y-129300000D02*
X113000000Y-129300000D01*
D41*
X120000000Y-148500000D02*
X115000000Y-148500000D01*
X128900000Y-148500000D02*
X125000000Y-148500000D01*
X140000000Y-148500000D02*
X135000000Y-148500000D01*
D40*
X144645000Y-144000000D02*
X144645000Y-141845000D01*
X144645000Y-141845000D02*
X144600000Y-141800000D01*
D41*
X185000000Y-148500000D02*
X184900000Y-148600000D01*
X175000000Y-148500000D02*
X180000000Y-148500000D01*
X165000000Y-148500000D02*
X170000000Y-148500000D01*
X155000000Y-148500000D02*
X160000000Y-148500000D01*
X145000000Y-148500000D02*
X150000000Y-148500000D01*
X165000000Y-51500000D02*
X160000000Y-51500000D01*
X175000000Y-51500000D02*
X170000000Y-51500000D01*
X184900000Y-51500000D02*
X180000000Y-51500000D01*
X185000000Y-51600000D02*
X184900000Y-51500000D01*
X122500000Y-144800000D02*
X121000000Y-144800000D01*
X129944200Y-86344200D02*
X128755800Y-86344200D01*
X127000000Y-88100000D02*
X125700000Y-88100000D01*
X128755800Y-86344200D02*
X127000000Y-88100000D01*
X122500000Y-142500000D02*
X121700000Y-142500000D01*
X121700000Y-142500000D02*
X121000000Y-141800000D01*
X117000000Y-142600000D02*
X117100000Y-142600000D01*
X117100000Y-142600000D02*
X118300000Y-143800000D01*
X160909000Y-114503200D02*
X160909000Y-116391000D01*
X160489200Y-116789200D02*
X160500000Y-116800000D01*
X160489200Y-116789200D02*
X160375600Y-116789200D01*
X160909000Y-116391000D02*
X160500000Y-116800000D01*
X156896800Y-115570000D02*
X159430000Y-115570000D01*
X159430000Y-115570000D02*
X160496800Y-114503200D01*
X160496800Y-114503200D02*
X160909000Y-114503200D01*
X158500000Y-125730000D02*
X156896800Y-125730000D01*
X158483300Y-125730000D02*
X158500000Y-125730000D01*
X158500000Y-125730000D02*
X159470000Y-125730000D01*
X159470000Y-125730000D02*
X159500000Y-125700000D01*
X138506200Y-91160600D02*
X138506200Y-90706200D01*
X138506200Y-90706200D02*
X137700000Y-89900000D01*
X129944200Y-88006000D02*
X129944200Y-86344200D01*
X129944200Y-86344200D02*
X129900000Y-86300000D01*
D42*
X108407200Y-83743800D02*
X108356400Y-83794600D01*
X108407200Y-81013300D02*
X108407200Y-83743800D01*
D40*
X146963400Y-106375200D02*
X146963400Y-107645200D01*
D42*
X157175200Y-97485200D02*
X158419800Y-96240600D01*
X156363400Y-97485200D02*
X157175200Y-97485200D01*
X146989800Y-107645200D02*
X146963400Y-107645200D01*
X114635300Y-79255600D02*
X114452400Y-79438500D01*
X114452400Y-79438500D02*
X114681000Y-79438500D01*
X114681000Y-79438500D02*
X114757200Y-79362300D01*
X114635300Y-77901800D02*
X114635300Y-79255600D01*
D40*
X118247160Y-83769200D02*
X118272560Y-83743800D01*
X116671600Y-83769200D02*
X118247160Y-83769200D01*
X117200000Y-104900000D02*
X117100000Y-105000000D01*
X117100000Y-105000000D02*
X117100000Y-106400000D01*
X127400000Y-104800000D02*
X127500000Y-104900000D01*
X127400000Y-103800000D02*
X127400000Y-104800000D01*
X127400000Y-102400000D02*
X127400000Y-103800000D01*
X125400000Y-106500000D02*
X125200860Y-106300860D01*
X125200860Y-106300860D02*
X123000000Y-106300860D01*
X125400000Y-104300000D02*
X125400000Y-106500000D01*
X159845000Y-141945000D02*
X159990000Y-141800000D01*
X160500000Y-141800000D02*
X161000000Y-141800000D01*
X159990000Y-141800000D02*
X160500000Y-141800000D01*
X161000000Y-141800000D02*
X161115000Y-141915000D01*
X161115000Y-141915000D02*
X161115000Y-144000000D01*
X159845000Y-144000000D02*
X159845000Y-141945000D01*
X162300000Y-134600000D02*
X162400000Y-134500000D01*
X161115000Y-134600000D02*
X162300000Y-134600000D01*
X134485000Y-141715000D02*
X134600000Y-141600000D01*
X134485000Y-144000000D02*
X134485000Y-141715000D01*
X135755000Y-134600000D02*
X134485000Y-134600000D01*
X134485000Y-136585000D02*
X134500000Y-136600000D01*
X134485000Y-134600000D02*
X134485000Y-136585000D01*
X125800000Y-136000000D02*
X125700000Y-136100000D01*
X122299140Y-125100000D02*
X122200000Y-125000860D01*
X117800000Y-123400000D02*
X118100000Y-123700000D01*
X116500000Y-123400000D02*
X117800000Y-123400000D01*
X116700000Y-114400000D02*
X116900000Y-114600000D01*
X118000000Y-112000000D02*
X118200000Y-112200000D01*
X116700000Y-112000000D02*
X118000000Y-112000000D01*
D41*
X147496800Y-125730000D02*
X156896800Y-125730000D01*
D40*
X147496800Y-125730000D02*
X147496800Y-124460000D01*
D41*
X117700000Y-102700000D02*
X118500000Y-103500000D01*
X117200000Y-102700000D02*
X117700000Y-102700000D01*
X127500000Y-104900000D02*
X127500000Y-106500000D01*
X118400000Y-114600000D02*
X118600000Y-114800000D01*
X116900000Y-114600000D02*
X118400000Y-114600000D01*
X120699140Y-115400860D02*
X120600000Y-115500000D01*
X122400000Y-115400860D02*
X120699140Y-115400860D01*
X124500000Y-115200000D02*
X124400000Y-115300000D01*
X124500000Y-113600000D02*
X124500000Y-115200000D01*
X126400000Y-111600000D02*
X126300000Y-111700000D01*
X127800000Y-111600000D02*
X126400000Y-111600000D01*
X126900000Y-114400000D02*
X126300000Y-115000000D01*
X127800000Y-114400000D02*
X126900000Y-114400000D01*
X116500000Y-125700000D02*
X118200000Y-125700000D01*
X120699140Y-125000860D02*
X120500000Y-125200000D01*
X122200000Y-125000860D02*
X120699140Y-125000860D01*
X124700000Y-125100000D02*
X124700000Y-126500000D01*
X128500000Y-125600000D02*
X126800000Y-125600000D01*
X127000000Y-123400000D02*
X126900000Y-123500000D01*
X128500000Y-123400000D02*
X127000000Y-123400000D01*
X125800000Y-133700000D02*
X124100000Y-133700000D01*
X124300000Y-136100000D02*
X124200000Y-136200000D01*
X125700000Y-136100000D02*
X124300000Y-136100000D01*
X123700860Y-137200860D02*
X124000000Y-137500000D01*
X122200000Y-137200860D02*
X123700860Y-137200860D01*
X118100000Y-134200000D02*
X119200000Y-135300000D01*
X118100000Y-133500000D02*
X118100000Y-134200000D01*
X116300000Y-134400000D02*
X116700000Y-134400000D01*
X116700000Y-134400000D02*
X117700000Y-135400000D01*
X117800000Y-136900000D02*
X117900000Y-137000000D01*
X116300000Y-136900000D02*
X117800000Y-136900000D01*
X117000000Y-144700000D02*
X118300000Y-146000000D01*
X150955000Y-137045000D02*
X150900000Y-137100000D01*
X150955000Y-134600000D02*
X150955000Y-137045000D01*
X156363400Y-108036600D02*
X155000000Y-109400000D01*
X156363400Y-107645200D02*
X156363400Y-108036600D01*
X146963400Y-107963400D02*
X147900000Y-108900000D01*
X146963400Y-107645200D02*
X146963400Y-107963400D01*
X109200000Y-60200000D02*
X111100000Y-60200000D01*
X121196100Y-68227700D02*
X121196100Y-66403900D01*
X123450000Y-61350000D02*
X123450000Y-60600000D01*
X122700000Y-62100000D02*
X123450000Y-61350000D01*
X122700000Y-64900000D02*
X122700000Y-62100000D01*
X121196100Y-66403900D02*
X122700000Y-64900000D01*
X110931200Y-70227700D02*
X109931200Y-69227700D01*
X121196100Y-70227700D02*
X110931200Y-70227700D01*
D42*
X117871200Y-63967400D02*
X117170200Y-64668400D01*
X120967500Y-63967400D02*
X117871200Y-63967400D01*
D41*
X131300000Y-63600000D02*
X130100000Y-62400000D01*
X133150000Y-63600000D02*
X131300000Y-63600000D01*
X120967500Y-62067400D02*
X120967500Y-60632500D01*
X124100000Y-59300000D02*
X124100000Y-59350000D01*
X122300000Y-59300000D02*
X124100000Y-59300000D01*
X120967500Y-60632500D02*
X122300000Y-59300000D01*
D42*
X124100000Y-58600000D02*
X124100000Y-59350000D01*
X124100000Y-59350000D02*
X125350000Y-60600000D01*
D41*
X132740000Y-55900000D02*
X132740000Y-53940000D01*
X132740000Y-53940000D02*
X131900000Y-53100000D01*
X131900000Y-53100000D02*
X125500000Y-53100000D01*
X125500000Y-53100000D02*
X108000000Y-53100000D01*
D42*
X124100000Y-58600000D02*
X124100000Y-58500000D01*
X124100000Y-58600000D02*
X124100000Y-58600000D01*
D41*
X108000000Y-53100000D02*
X108000000Y-58600000D01*
X108000000Y-58600000D02*
X124100000Y-58600000D01*
X127150000Y-62400000D02*
X125350000Y-60600000D01*
X128100000Y-62400000D02*
X127150000Y-62400000D01*
D43*
X156197300Y-77292200D02*
X156197300Y-77102700D01*
D44*
X161800000Y-74500000D02*
X164000000Y-72300000D01*
X156197300Y-77292200D02*
X158307800Y-77292200D01*
X158307800Y-77292200D02*
X161100000Y-74500000D01*
X161100000Y-74500000D02*
X161800000Y-74500000D01*
X194904000Y-64396000D02*
X189300000Y-70000000D01*
X189300000Y-70000000D02*
X180300000Y-70000000D01*
X180300000Y-70000000D02*
X177440000Y-67140000D01*
X177440000Y-67140000D02*
X176210000Y-67140000D01*
X196092000Y-64396000D02*
X194904000Y-64396000D01*
D42*
X196138000Y-79465300D02*
X196138000Y-79947300D01*
D44*
X195892000Y-101808000D02*
X195300000Y-102400000D01*
X195300000Y-102400000D02*
X179770000Y-102400000D01*
X179770000Y-102400000D02*
X176310000Y-98940000D01*
X195892000Y-96996000D02*
X195892000Y-101808000D01*
X195992000Y-117608000D02*
X195400000Y-118200000D01*
X195400000Y-118200000D02*
X182000000Y-118200000D01*
X195992000Y-112896000D02*
X195992000Y-117608000D01*
X185784000Y-129363000D02*
X185337000Y-129363000D01*
X185784000Y-122084000D02*
X184800000Y-121100000D01*
X184800000Y-121100000D02*
X175100000Y-121100000D01*
X175100000Y-121100000D02*
X172300000Y-123900000D01*
X172300000Y-123900000D02*
X172300000Y-126400000D01*
X172300000Y-126400000D02*
X171840000Y-126860000D01*
X171840000Y-126860000D02*
X168990000Y-126860000D01*
X185784000Y-129363000D02*
X185784000Y-122084000D01*
X180196000Y-134504000D02*
X178200000Y-136500000D01*
X178200000Y-136500000D02*
X174700000Y-136500000D01*
X174700000Y-136500000D02*
X172400000Y-134200000D01*
X172400000Y-134200000D02*
X172400000Y-133200000D01*
X172400000Y-133200000D02*
X171140000Y-131940000D01*
X171140000Y-131940000D02*
X168990000Y-131940000D01*
X180196000Y-129363000D02*
X180196000Y-134504000D01*
X194100000Y-131700000D02*
X184300000Y-131700000D01*
X184300000Y-131700000D02*
X182300000Y-129700000D01*
X182300000Y-129700000D02*
X182300000Y-128200000D01*
X182300000Y-128200000D02*
X180960000Y-126860000D01*
X180960000Y-126860000D02*
X176610000Y-126860000D01*
X195984000Y-129816000D02*
X194100000Y-131700000D01*
X195984000Y-129263000D02*
X195984000Y-129816000D01*
X180304000Y-86696000D02*
X179500000Y-87500000D01*
X179500000Y-87500000D02*
X174100000Y-87500000D01*
X174100000Y-87500000D02*
X171300000Y-84700000D01*
X171300000Y-84700000D02*
X171300000Y-83300000D01*
X171300000Y-83300000D02*
X170540000Y-82540000D01*
X170540000Y-82540000D02*
X168590000Y-82540000D01*
X180304000Y-79396000D02*
X180304000Y-86696000D01*
D42*
X190396000Y-129263000D02*
X190396000Y-129156600D01*
D44*
X180204000Y-119296000D02*
X179700000Y-119800000D01*
X179700000Y-119800000D02*
X175300000Y-119800000D01*
X175300000Y-119800000D02*
X171040000Y-115540000D01*
X171040000Y-115540000D02*
X168790000Y-115540000D01*
X180204000Y-112796000D02*
X180204000Y-119296000D01*
X108600000Y-118501020D02*
X105601020Y-121500000D01*
D42*
X108600000Y-117898980D02*
X108600000Y-118501020D01*
D44*
X108400000Y-124298980D02*
X105601020Y-121500000D01*
D42*
X108400000Y-125201020D02*
X108400000Y-124298980D01*
D44*
X104300000Y-122801020D02*
X105601020Y-121500000D01*
X104300000Y-125001020D02*
X104300000Y-122801020D01*
X105601020Y-118900000D02*
X104600000Y-117898980D01*
X105601020Y-121500000D02*
X105601020Y-118900000D01*
D42*
X103000860Y-110300860D02*
X103200000Y-110300860D01*
D44*
X101200000Y-108500000D02*
X103000860Y-110300860D01*
X103100000Y-104200000D02*
X101200000Y-106100000D01*
X101200000Y-106100000D02*
X101200000Y-108500000D01*
D42*
X103100000Y-104000000D02*
X103100000Y-104200000D01*
D44*
X101700000Y-112000000D02*
X101700000Y-120600000D01*
X103200000Y-110500000D02*
X101700000Y-112000000D01*
X102600000Y-121500000D02*
X105601020Y-121500000D01*
X101700000Y-120600000D02*
X102600000Y-121500000D01*
D42*
X103200000Y-110300860D02*
X103200000Y-110500000D01*
D44*
X143700000Y-101700000D02*
X143900000Y-101500000D01*
X149600000Y-101200000D02*
X150900000Y-99900000D01*
X150900000Y-99900000D02*
X150900000Y-97800000D01*
X150900000Y-97800000D02*
X150300000Y-97200000D01*
X140800000Y-101700000D02*
X143700000Y-101700000D01*
D42*
X113899140Y-106200860D02*
X115100000Y-105000000D01*
X112500000Y-106200860D02*
X113899140Y-106200860D01*
X112500000Y-106500000D02*
X112500000Y-106200860D01*
X113300000Y-107300000D02*
X112500000Y-106500000D01*
X118700000Y-107300000D02*
X113300000Y-107300000D01*
X120100000Y-105900000D02*
X118700000Y-107300000D01*
X120100000Y-105650000D02*
X120100000Y-105900000D01*
X129899140Y-104900000D02*
X131200000Y-106200860D01*
X129500000Y-104900000D02*
X129899140Y-104900000D01*
X129100000Y-107900000D02*
X120800000Y-107900000D01*
X120800000Y-107900000D02*
X120100000Y-107200000D01*
X120100000Y-107200000D02*
X120100000Y-105650000D01*
X130799140Y-106200860D02*
X129100000Y-107900000D01*
X131200000Y-106200860D02*
X130799140Y-106200860D01*
X139565000Y-132135000D02*
X140300000Y-131400000D01*
X140300000Y-131400000D02*
X142300000Y-131400000D01*
X142300000Y-131400000D02*
X143289002Y-130410998D01*
X143289002Y-130410998D02*
X143289002Y-109510998D01*
X143289002Y-109510998D02*
X143500000Y-109300000D01*
X143500000Y-109300000D02*
X143500000Y-104000000D01*
X143500000Y-104000000D02*
X142200000Y-102700000D01*
X142200000Y-102700000D02*
X138600000Y-102700000D01*
X138600000Y-102700000D02*
X136100000Y-105200000D01*
X136100000Y-105200000D02*
X134600000Y-105200000D01*
X131400000Y-108100000D02*
X131200000Y-107900000D01*
X131200000Y-107900000D02*
X131200000Y-106200860D01*
X139565000Y-134600000D02*
X139565000Y-132135000D01*
X131099140Y-114400000D02*
X132100000Y-115400860D01*
X129800000Y-114400000D02*
X131099140Y-114400000D01*
X113899140Y-115600860D02*
X114900000Y-114600000D01*
X112700000Y-115600860D02*
X113899140Y-115600860D01*
X132100000Y-115900000D02*
X132100000Y-115400860D01*
X112700000Y-115600860D02*
X113000860Y-115600860D01*
X131899140Y-115400860D02*
X132100000Y-115400860D01*
X130050000Y-117250000D02*
X131899140Y-115400860D01*
X119700000Y-117250000D02*
X130050000Y-117250000D01*
X112700000Y-115700000D02*
X112700000Y-115600860D01*
X114250000Y-117250000D02*
X112700000Y-115700000D01*
X114800000Y-117250000D02*
X114250000Y-117250000D01*
X119700000Y-117250000D02*
X114800000Y-117250000D01*
X114800000Y-118650000D02*
X114650000Y-118800000D01*
X114800000Y-117250000D02*
X114800000Y-118650000D01*
X132100000Y-117500000D02*
X132100000Y-117600000D01*
X132100000Y-115400860D02*
X132100000Y-117500000D01*
X140835000Y-132535000D02*
X140800000Y-132500000D01*
X140835000Y-132535000D02*
X140835000Y-134600000D01*
X132400000Y-117500000D02*
X134200000Y-119300000D01*
X134200000Y-119300000D02*
X135000000Y-119300000D01*
X132100000Y-117500000D02*
X132400000Y-117500000D01*
X112400000Y-127100860D02*
X116100860Y-127100860D01*
X132350860Y-127050000D02*
X132400000Y-127000860D01*
X130999140Y-125600000D02*
X132400000Y-127000860D01*
X130500000Y-125600000D02*
X130999140Y-125600000D01*
X113800860Y-125700000D02*
X112400000Y-127100860D01*
X114500000Y-125700000D02*
X113800860Y-125700000D01*
X116350000Y-127350000D02*
X116100860Y-127100860D01*
X116450000Y-127450000D02*
X116350000Y-127350000D01*
X116450000Y-129300000D02*
X116450000Y-127450000D01*
X131400000Y-128000860D02*
X132400000Y-127000860D01*
X138295000Y-144000000D02*
X138295000Y-145700000D01*
X138295000Y-145705000D02*
X138290000Y-145700000D01*
X138290000Y-145700000D02*
X133600000Y-145700000D01*
X133600000Y-145700000D02*
X132700000Y-144800000D01*
X132700000Y-144800000D02*
X132700000Y-133300000D01*
X138295000Y-145700000D02*
X138295000Y-145705000D01*
X131400000Y-128800000D02*
X131400000Y-128000860D01*
X130550000Y-127350000D02*
X130500000Y-127300000D01*
X130500000Y-127300000D02*
X130500000Y-125600000D01*
X116350000Y-127350000D02*
X130550000Y-127350000D01*
X132800000Y-146300000D02*
X139430000Y-146300000D01*
X112600860Y-136900000D02*
X112400000Y-137100860D01*
X114300000Y-136900000D02*
X112600860Y-136900000D01*
X112400000Y-137100860D02*
X112400000Y-137500000D01*
X128699140Y-136100000D02*
X129700000Y-137100860D01*
X127700000Y-136100000D02*
X128699140Y-136100000D01*
X127700000Y-138950000D02*
X119600000Y-138950000D01*
X128150000Y-138950000D02*
X127700000Y-138950000D01*
X129700000Y-137400000D02*
X128150000Y-138950000D01*
X129700000Y-137100860D02*
X129700000Y-137400000D01*
X112500860Y-137100860D02*
X112400000Y-137100860D01*
X114350000Y-138950000D02*
X112500860Y-137100860D01*
X119600000Y-138950000D02*
X114350000Y-138950000D01*
X110549140Y-135250000D02*
X112400000Y-137100860D01*
X110200000Y-135250000D02*
X110549140Y-135250000D01*
X132800000Y-146300000D02*
X129700000Y-143200000D01*
X129700000Y-143200000D02*
X129700000Y-142300000D01*
X139565000Y-146165000D02*
X139565000Y-144000000D01*
X139565000Y-146165000D02*
X139430000Y-146300000D01*
X127700000Y-138950000D02*
X127700000Y-139000000D01*
X132150000Y-146950000D02*
X139950000Y-146950000D01*
X112600000Y-146100860D02*
X113500860Y-146100860D01*
X113500860Y-146100860D02*
X114300000Y-146900000D01*
X114300000Y-146900000D02*
X126100860Y-146900000D01*
X126100860Y-146900000D02*
X126800000Y-146200860D01*
X126800000Y-146200860D02*
X126800000Y-145700000D01*
X126800000Y-145700000D02*
X125900000Y-144800000D01*
X125900000Y-144800000D02*
X124500000Y-144800000D01*
X113599140Y-146100860D02*
X115000000Y-144700000D01*
X112600000Y-146100860D02*
X113599140Y-146100860D01*
X126800000Y-146200860D02*
X126799140Y-146200860D01*
X131400860Y-146200860D02*
X132150000Y-146950000D01*
X126800000Y-146200860D02*
X131400860Y-146200860D01*
X140835000Y-146065000D02*
X140835000Y-144000000D01*
X140000000Y-146900000D02*
X140835000Y-146065000D01*
X112549140Y-146050000D02*
X112600000Y-146100860D01*
X110100000Y-146050000D02*
X112549140Y-146050000D01*
X112599140Y-102500000D02*
X112500000Y-102599140D01*
X112599140Y-100200000D02*
X112599140Y-102500000D01*
X115099140Y-102599140D02*
X115200000Y-102700000D01*
X112500000Y-102599140D02*
X115099140Y-102599140D01*
X112500000Y-102599140D02*
X112100860Y-102599140D01*
D44*
X110500860Y-102599140D02*
X112500000Y-102599140D01*
X110300000Y-102800000D02*
X110500860Y-102599140D01*
X110300000Y-107900000D02*
X110300000Y-102800000D01*
X104600000Y-113600000D02*
X110300000Y-107900000D01*
D42*
X104600000Y-113901020D02*
X104600000Y-113600000D01*
X112599140Y-109800000D02*
X112699140Y-109700000D01*
X112699140Y-111998280D02*
X112700000Y-111999140D01*
X112699140Y-109700000D02*
X112699140Y-111998280D01*
X114699140Y-111999140D02*
X114700000Y-112000000D01*
X112700000Y-111999140D02*
X114699140Y-111999140D01*
D44*
X108600000Y-112000000D02*
X110900000Y-109700000D01*
X110900000Y-109700000D02*
X112699140Y-109700000D01*
X108600000Y-113901020D02*
X108600000Y-112000000D01*
D42*
X112299140Y-121500000D02*
X112399140Y-121400000D01*
X109598980Y-121500000D02*
X112299140Y-121500000D01*
X112399140Y-123498280D02*
X112400000Y-123499140D01*
X112399140Y-121400000D02*
X112399140Y-123498280D01*
X114400860Y-123499140D02*
X114500000Y-123400000D01*
X112400000Y-123499140D02*
X114400860Y-123499140D01*
X112599140Y-133300000D02*
X112400000Y-133499140D01*
X112599140Y-131400000D02*
X112599140Y-133300000D01*
X113399140Y-133499140D02*
X114300000Y-134400000D01*
X112400000Y-133499140D02*
X113399140Y-133499140D01*
D44*
X110398120Y-129198980D02*
X112599140Y-131400000D01*
X108400000Y-129198980D02*
X110398120Y-129198980D01*
X107700000Y-135400860D02*
X112699140Y-140400000D01*
X107700000Y-132300000D02*
X107700000Y-135400860D01*
X104398980Y-128998980D02*
X107700000Y-132300000D01*
D42*
X104300000Y-128998980D02*
X104398980Y-128998980D01*
X114899140Y-142499140D02*
X115000000Y-142600000D01*
X112600000Y-142499140D02*
X114899140Y-142499140D01*
X112600000Y-140499140D02*
X112699140Y-140400000D01*
X112600000Y-142499140D02*
X112600000Y-140499140D01*
X123199140Y-100200000D02*
X123299140Y-100300000D01*
X120700000Y-100200000D02*
X123199140Y-100200000D01*
X123299140Y-102400000D02*
X123000000Y-102699140D01*
X123299140Y-100300000D02*
X123299140Y-102400000D01*
X125000860Y-102699140D02*
X125400000Y-102300000D01*
X123000000Y-102699140D02*
X125000860Y-102699140D01*
X116200860Y-100200000D02*
X118700000Y-100200000D01*
X122400000Y-111799140D02*
X124300860Y-111799140D01*
X124300860Y-111799140D02*
X124500000Y-111600000D01*
X122299140Y-109600000D02*
X122399140Y-109500000D01*
X120400000Y-109600000D02*
X122299140Y-109600000D01*
X122399140Y-111798280D02*
X122400000Y-111799140D01*
X122399140Y-109500000D02*
X122399140Y-111798280D01*
X118300000Y-109700000D02*
X118400000Y-109600000D01*
X116300860Y-109700000D02*
X118300000Y-109700000D01*
X122100860Y-121300000D02*
X122200000Y-121399140D01*
X120200000Y-121300000D02*
X122100860Y-121300000D01*
X124500000Y-121399140D02*
X124599140Y-121300000D01*
X122200000Y-121399140D02*
X124500000Y-121399140D01*
X124599140Y-122999140D02*
X124700000Y-123100000D01*
X124599140Y-121300000D02*
X124599140Y-122999140D01*
X118100000Y-121400000D02*
X118200000Y-121300000D01*
X116000860Y-121400000D02*
X118100000Y-121400000D01*
X120100000Y-131300000D02*
X120200000Y-131400000D01*
X120100000Y-129200000D02*
X120100000Y-131300000D01*
X120200000Y-131400000D02*
X122199140Y-131400000D01*
X122200000Y-131400860D02*
X122199140Y-131400000D01*
X122200000Y-133599140D02*
X122200000Y-131400860D01*
X120199140Y-133599140D02*
X120100000Y-133500000D01*
X122200000Y-133599140D02*
X120199140Y-133599140D01*
X116200860Y-131400000D02*
X118200000Y-131400000D01*
X118200000Y-129300000D02*
X118100000Y-129200000D01*
X118200000Y-131400000D02*
X118200000Y-129300000D01*
X140100000Y-129498980D02*
X139801020Y-129498980D01*
X125000000Y-142000000D02*
X124500000Y-142500000D01*
X125000000Y-140200000D02*
X125000000Y-142000000D01*
X126700860Y-142500000D02*
X126800000Y-142599140D01*
X124500000Y-142500000D02*
X126700860Y-142500000D01*
X140100000Y-129498980D02*
X140100000Y-129500000D01*
D44*
X131300000Y-138700000D02*
X127400860Y-142599140D01*
X127400860Y-142599140D02*
X126800000Y-142599140D01*
X140100000Y-129500000D02*
X137700000Y-131900000D01*
X131500000Y-131900000D02*
X131300000Y-132100000D01*
X137700000Y-131900000D02*
X131500000Y-131900000D01*
X131300000Y-132100000D02*
X131300000Y-138700000D01*
D42*
X122800000Y-140400000D02*
X123000000Y-140200000D01*
X116300860Y-140400000D02*
X122800000Y-140400000D01*
X131300000Y-102499140D02*
X131200000Y-102599140D01*
X131300000Y-100300000D02*
X131300000Y-102499140D01*
X129599140Y-102599140D02*
X129400000Y-102400000D01*
X131200000Y-102599140D02*
X129599140Y-102599140D01*
D44*
X136800000Y-109300000D02*
X134500000Y-109300000D01*
X134500000Y-109300000D02*
X133100000Y-107900000D01*
X133100000Y-107900000D02*
X133100000Y-103400000D01*
X133100000Y-103400000D02*
X132299140Y-102599140D01*
X132299140Y-102599140D02*
X131200000Y-102599140D01*
X140400000Y-112900000D02*
X136800000Y-109300000D01*
D42*
X140400000Y-113101020D02*
X140400000Y-112900000D01*
X126900860Y-100300000D02*
X129300000Y-100300000D01*
X132200000Y-109400000D02*
X132301020Y-109400000D01*
X129900000Y-111500000D02*
X129800000Y-111600000D01*
X129900000Y-109400000D02*
X129900000Y-111500000D01*
X131900860Y-111600000D02*
X132100000Y-111799140D01*
X129800000Y-111600000D02*
X131900860Y-111600000D01*
D44*
X132598980Y-109400000D02*
X136400000Y-113201020D01*
X132200000Y-109400000D02*
X132598980Y-109400000D01*
X132200000Y-109400000D02*
X129900000Y-109400000D01*
D42*
X127800000Y-109500000D02*
X127900000Y-109400000D01*
X126000860Y-109500000D02*
X127800000Y-109500000D01*
X130500000Y-123400000D02*
X132399140Y-123400000D01*
X132399140Y-123400000D02*
X132400000Y-123399140D01*
X132500000Y-121200000D02*
X135301020Y-121200000D01*
X132500000Y-123299140D02*
X132400000Y-123399140D01*
X132500000Y-121200000D02*
X132500000Y-123299140D01*
X130400000Y-121300000D02*
X130500000Y-121200000D01*
X128200860Y-121300000D02*
X130400000Y-121300000D01*
X129800000Y-129200000D02*
X129800000Y-131400000D01*
X129800000Y-133399140D02*
X129700000Y-133499140D01*
X129800000Y-131400000D02*
X129800000Y-133399140D01*
X128000860Y-133499140D02*
X127800000Y-133700000D01*
X129700000Y-133499140D02*
X128000860Y-133499140D01*
D44*
X135798980Y-130100000D02*
X136200000Y-129698980D01*
X131500000Y-130100000D02*
X135798980Y-130100000D01*
X130200000Y-131400000D02*
X131500000Y-130100000D01*
X129800000Y-131400000D02*
X130200000Y-131400000D01*
D42*
X125800860Y-131400000D02*
X127800000Y-131400000D01*
X127800000Y-131400000D02*
X127800000Y-129200000D01*
D44*
X103035100Y-81546700D02*
X103146700Y-81546700D01*
X103100000Y-100700000D02*
X108600000Y-95200000D01*
X108600000Y-95200000D02*
X108600000Y-88800000D01*
X108600000Y-88800000D02*
X103035100Y-83235100D01*
X103035100Y-83235100D02*
X103035100Y-81546700D01*
X103100000Y-102000000D02*
X103100000Y-100700000D01*
X140800000Y-109800860D02*
X141100860Y-109800860D01*
X141100860Y-109800860D02*
X142400000Y-111100000D01*
X141300000Y-121200000D02*
X139298980Y-121200000D01*
X142400000Y-120100000D02*
X141300000Y-121200000D01*
X142400000Y-111100000D02*
X142400000Y-120100000D01*
D42*
X140800000Y-103700000D02*
X141000000Y-103700000D01*
D44*
X141000000Y-103700000D02*
X142600000Y-105300000D01*
X142600000Y-108600000D02*
X141399140Y-109800860D01*
X142600000Y-105300000D02*
X142600000Y-108600000D01*
D42*
X141399140Y-109800860D02*
X140800000Y-109800860D01*
X140800000Y-103700000D02*
X141200000Y-103700000D01*
X140800000Y-109800860D02*
X140800000Y-109400000D01*
X140800000Y-109800860D02*
X141300860Y-109800860D01*
X140800000Y-109800860D02*
X140800860Y-109800860D01*
D44*
X136400000Y-118301020D02*
X139298980Y-121200000D01*
D42*
X136400000Y-117198980D02*
X136400000Y-118301020D01*
D44*
X136200000Y-124298980D02*
X139298980Y-121200000D01*
X136200000Y-125701020D02*
X136200000Y-124298980D01*
D42*
X140100000Y-122001020D02*
X139298980Y-121200000D01*
D44*
X140100000Y-125501020D02*
X140100000Y-122001020D01*
X140400000Y-120098980D02*
X139298980Y-121200000D01*
X140400000Y-117098980D02*
X140400000Y-120098980D01*
D42*
X140000000Y-121200000D02*
X139298980Y-121200000D01*
X128400000Y-77800000D02*
X127500000Y-76900000D01*
X128404000Y-77804000D02*
X128400000Y-77800000D01*
X127500000Y-76900000D02*
X125856640Y-76900000D01*
X125856640Y-76900000D02*
X124656640Y-75700000D01*
X134696000Y-77800000D02*
X136080500Y-79184500D01*
X149631400Y-79235300D02*
X152603200Y-82207100D01*
X136080500Y-79184500D02*
X141706600Y-79184500D01*
X141706600Y-79184500D02*
X141757400Y-79235300D01*
X141757400Y-79235300D02*
X149631400Y-79235300D01*
X128400000Y-77800000D02*
X134696000Y-77800000D01*
D43*
X154772900Y-89827100D02*
X155900000Y-88700000D01*
X155900000Y-88700000D02*
X155900000Y-81000000D01*
X155900000Y-81000000D02*
X151300000Y-76400000D01*
X151300000Y-76400000D02*
X151300000Y-69800000D01*
X151300000Y-69800000D02*
X153100000Y-68000000D01*
X153100000Y-68000000D02*
X161800000Y-68000000D01*
X161800000Y-68000000D02*
X165200000Y-64600000D01*
X165200000Y-64600000D02*
X168590000Y-64600000D01*
X152603200Y-89827100D02*
X154772900Y-89827100D01*
X151257000Y-87287100D02*
X149313900Y-89230200D01*
X149313900Y-89230200D02*
X143992600Y-89230200D01*
X143992600Y-89230200D02*
X138442700Y-83680300D01*
X152603200Y-87287100D02*
X151257000Y-87287100D01*
D42*
X159537400Y-96723200D02*
X158584900Y-97675700D01*
X158584900Y-97675700D02*
X158584900Y-101257100D01*
X158584900Y-101257100D02*
X158546800Y-101295200D01*
X158546800Y-101295200D02*
X156363400Y-101295200D01*
X160909000Y-96723200D02*
X159537400Y-96723200D01*
X162229800Y-60833000D02*
X162293300Y-60769500D01*
X162967000Y-60833000D02*
X167400000Y-56400000D01*
X167400000Y-56400000D02*
X173090000Y-56400000D01*
X173090000Y-56400000D02*
X176210000Y-59520000D01*
X162229800Y-60833000D02*
X162967000Y-60833000D01*
X153949400Y-100025200D02*
X153949400Y-94107000D01*
X153949400Y-94107000D02*
X154165300Y-94322900D01*
X162166300Y-94322900D02*
X162445700Y-94322900D01*
X154165300Y-94322900D02*
X162166300Y-94322900D01*
X162445700Y-94322900D02*
X163398200Y-95275400D01*
X163398200Y-95275400D02*
X163398200Y-98399600D01*
X163398200Y-98399600D02*
X162534600Y-99263200D01*
X162534600Y-99263200D02*
X160909000Y-99263200D01*
X156363400Y-100025200D02*
X153949400Y-100025200D01*
X163398200Y-90701800D02*
X163398200Y-95275400D01*
X165600000Y-88500000D02*
X163398200Y-90701800D01*
X178200000Y-88500000D02*
X165600000Y-88500000D01*
X178500000Y-88800000D02*
X178200000Y-88500000D01*
X178500000Y-77200000D02*
X178500000Y-86100000D01*
X176220000Y-74920000D02*
X178500000Y-77200000D01*
X176210000Y-74920000D02*
X176220000Y-74920000D01*
X154000200Y-121920000D02*
X156896800Y-121920000D01*
X153060400Y-120980200D02*
X154000200Y-121920000D01*
X153060400Y-114096800D02*
X153060400Y-120980200D01*
X158369000Y-108788200D02*
X153060400Y-114096800D01*
X158369000Y-103263700D02*
X158369000Y-108788200D01*
X159829500Y-101803200D02*
X158369000Y-103263700D01*
X160909000Y-101803200D02*
X159829500Y-101803200D01*
X162696800Y-101803200D02*
X166200000Y-98300000D01*
X166200000Y-98300000D02*
X166200000Y-91000000D01*
X166200000Y-91000000D02*
X167700000Y-89500000D01*
X167700000Y-89500000D02*
X174490000Y-89500000D01*
X174490000Y-89500000D02*
X176310000Y-91320000D01*
X160909000Y-101803200D02*
X162696800Y-101803200D01*
X154520900Y-120650000D02*
X156896800Y-120650000D01*
X153619200Y-119748300D02*
X154520900Y-120650000D01*
X153619200Y-114256424D02*
X153619200Y-119748300D01*
X158927800Y-108947824D02*
X153619200Y-114256424D01*
X158927800Y-105435400D02*
X158927800Y-108947824D01*
X160020000Y-104343200D02*
X158927800Y-105435400D01*
X160909000Y-104343200D02*
X160020000Y-104343200D01*
X160909000Y-104343200D02*
X161785300Y-104343200D01*
X162143200Y-104343200D02*
X163900000Y-106100000D01*
X163900000Y-106100000D02*
X168800000Y-106100000D01*
X160909000Y-104343200D02*
X162143200Y-104343200D01*
X154863800Y-119380000D02*
X156896800Y-119380000D01*
X154127202Y-118643402D02*
X154863800Y-119380000D01*
X154127202Y-114466846D02*
X154127202Y-118643402D01*
X159486600Y-109107448D02*
X154127202Y-114466846D01*
X159486600Y-107670600D02*
X159486600Y-109107448D01*
X160274000Y-106883200D02*
X159486600Y-107670600D01*
X160909000Y-106883200D02*
X160274000Y-106883200D01*
X176380000Y-124320000D02*
X176610000Y-124320000D01*
X162000000Y-123000000D02*
X167000000Y-128000000D01*
X167000000Y-128000000D02*
X172700000Y-128000000D01*
X172700000Y-128000000D02*
X176380000Y-124320000D01*
X156896800Y-119380000D02*
X161380000Y-119380000D01*
X161380000Y-119380000D02*
X162000000Y-120000000D01*
X162000000Y-120000000D02*
X162000000Y-123000000D01*
D44*
X104302760Y-107801900D02*
X103200000Y-106699140D01*
X107700000Y-107801900D02*
X104302760Y-107801900D01*
X136500220Y-106199140D02*
X135400000Y-107299360D01*
X140800000Y-106199140D02*
X136500220Y-106199140D01*
X135902700Y-83680300D02*
X135080300Y-83680300D01*
X135080300Y-83680300D02*
X133188000Y-81788000D01*
X133188000Y-81788000D02*
X130644900Y-81788000D01*
X134708900Y-81140300D02*
X135902700Y-81140300D01*
X132816600Y-79248000D02*
X134708900Y-81140300D01*
X130644900Y-79248000D02*
X132816600Y-79248000D01*
D42*
X128100000Y-89700000D02*
X128100000Y-94700000D01*
X122810000Y-90490000D02*
X123600000Y-89700000D01*
X123600000Y-89700000D02*
X128100000Y-89700000D01*
X122810000Y-91430000D02*
X122810000Y-90490000D01*
X130591900Y-94508100D02*
X130591900Y-93594000D01*
X130200000Y-94900000D02*
X130591900Y-94508100D01*
X128300000Y-94900000D02*
X130200000Y-94900000D01*
X128100000Y-94700000D02*
X128300000Y-94900000D01*
X122810000Y-93970000D02*
X122810000Y-94210000D01*
X122810000Y-94210000D02*
X124091998Y-95491998D01*
X124091998Y-95491998D02*
X131600000Y-95491998D01*
X131600000Y-95491998D02*
X132000000Y-95091998D01*
X132000000Y-95091998D02*
X132000000Y-93694000D01*
X132000000Y-93694000D02*
X131900000Y-93594000D01*
X142392400Y-91160600D02*
X142392400Y-89792400D01*
X120270000Y-89630000D02*
X120270000Y-91430000D01*
X124600000Y-85300000D02*
X120270000Y-89630000D01*
X137900000Y-85300000D02*
X124600000Y-85300000D01*
X142392400Y-89792400D02*
X137900000Y-85300000D01*
X120270000Y-93970000D02*
X120270000Y-94570000D01*
X120270000Y-94570000D02*
X121700000Y-96000000D01*
X121700000Y-96000000D02*
X132600000Y-96000000D01*
X132600000Y-96000000D02*
X133195400Y-95404600D01*
X133195400Y-95404600D02*
X133195400Y-93594000D01*
X131239600Y-86260400D02*
X131239600Y-88006000D01*
X131300000Y-86200000D02*
X131239600Y-86260400D01*
X121100000Y-82900000D02*
X121600000Y-83400000D01*
X121100000Y-81150000D02*
X121100000Y-82900000D01*
D41*
X133843100Y-95243100D02*
X133843100Y-93594000D01*
X134300000Y-95700000D02*
X133843100Y-95243100D01*
X142700000Y-94800000D02*
X142700000Y-96748600D01*
X143800000Y-93700000D02*
X142700000Y-94800000D01*
X143800000Y-91300000D02*
X143800000Y-93700000D01*
X142700000Y-96748600D02*
X142700000Y-96700000D01*
X142700000Y-96700000D02*
X142700000Y-96748600D01*
X142925800Y-96748600D02*
X143662400Y-97485200D01*
X142700000Y-96748600D02*
X142925800Y-96748600D01*
X143662400Y-97485200D02*
X146963400Y-97485200D01*
X142405100Y-96748600D02*
X142700000Y-96748600D01*
X148501100Y-105105200D02*
X149313900Y-105918000D01*
X149313900Y-105918000D02*
X149313900Y-108966000D01*
X149313900Y-115176300D02*
X148920200Y-115570000D01*
X149313900Y-108966000D02*
X149313900Y-115176300D01*
X148920200Y-115570000D02*
X147496800Y-115570000D01*
D42*
X146963400Y-105105200D02*
X148501100Y-105105200D01*
D41*
X148501100Y-105105200D02*
X146963400Y-105105200D01*
X151428450Y-101365050D02*
X149009100Y-103784400D01*
X151485600Y-101307900D02*
X151428450Y-101365050D01*
X149009100Y-103784400D02*
X149009100Y-104597200D01*
X149009100Y-104597200D02*
X148501100Y-105105200D01*
X146024600Y-123190000D02*
X144500600Y-121666000D01*
X144500600Y-121666000D02*
X144500600Y-118567200D01*
X144500600Y-118567200D02*
X145262600Y-117805200D01*
X150368000Y-115493800D02*
X150291800Y-115570000D01*
X150291800Y-115570000D02*
X147496800Y-115570000D01*
X147496800Y-123190000D02*
X146024600Y-123190000D01*
X151428450Y-101174550D02*
X151866600Y-100736400D01*
X151866600Y-100736400D02*
X151866600Y-96774000D01*
X151866600Y-96774000D02*
X150672800Y-95580200D01*
X150672800Y-95580200D02*
X149834600Y-95580200D01*
X149834600Y-95580200D02*
X148412200Y-97002600D01*
X148412200Y-97002600D02*
X148412200Y-97358200D01*
X148412200Y-97358200D02*
X148285200Y-97485200D01*
X148285200Y-97485200D02*
X146963400Y-97485200D01*
X151428450Y-101365050D02*
X151428450Y-101174550D01*
X158575000Y-142175000D02*
X155600000Y-139200000D01*
X144600000Y-139200000D02*
X138800000Y-139200000D01*
X151000000Y-139200000D02*
X144600000Y-139200000D01*
X155600000Y-139200000D02*
X151000000Y-139200000D01*
X138800000Y-139200000D02*
X137025000Y-137425000D01*
X137025000Y-137425000D02*
X137025000Y-134600000D01*
X158575000Y-144000000D02*
X158575000Y-142175000D01*
X144645000Y-139200000D02*
X144600000Y-139155000D01*
X144600000Y-139155000D02*
X144600000Y-139100000D01*
X144600000Y-139100000D02*
X144600000Y-139200000D01*
X144645000Y-134600000D02*
X144645000Y-139200000D01*
X150955000Y-139200000D02*
X151000000Y-139245000D01*
X151000000Y-139245000D02*
X151000000Y-139300000D01*
X151000000Y-139300000D02*
X151000000Y-139200000D01*
X150955000Y-144000000D02*
X150955000Y-139200000D01*
X144645000Y-121555000D02*
X144700000Y-121500000D01*
X144645000Y-134600000D02*
X144645000Y-121555000D01*
X103136700Y-62738000D02*
X101762000Y-62738000D01*
X108900000Y-86900000D02*
X121000000Y-86900000D01*
X105300000Y-83300000D02*
X108900000Y-86900000D01*
X105300000Y-77300000D02*
X105300000Y-83300000D01*
X101400000Y-73400000D02*
X105300000Y-77300000D01*
X101400000Y-63100000D02*
X101400000Y-73400000D01*
X101762000Y-62738000D02*
X101400000Y-63100000D01*
D42*
X126700000Y-84000000D02*
X133200000Y-84000000D01*
X126700000Y-84000000D02*
X126698700Y-84001300D01*
X160909000Y-111963200D02*
X158838900Y-111963200D01*
X158838900Y-111963200D02*
X157975300Y-112826800D01*
X140462000Y-91160600D02*
X140462000Y-89462000D01*
X138900000Y-87900000D02*
X137500000Y-87900000D01*
X140462000Y-89462000D02*
X138900000Y-87900000D01*
X116456500Y-77251600D02*
X115836700Y-76631800D01*
X115836700Y-76631800D02*
X114635300Y-76631800D01*
X116456500Y-81076800D02*
X116456500Y-77251600D01*
X118300500Y-81191100D02*
X118186200Y-81076800D01*
X118186200Y-81076800D02*
X116456500Y-81076800D01*
X148599000Y-93599000D02*
X146000000Y-91000000D01*
X153835100Y-102425500D02*
X153162000Y-101752400D01*
X153162000Y-101752400D02*
X153162000Y-95948500D01*
X153162000Y-95948500D02*
X150812500Y-93599000D01*
X150710900Y-93599000D02*
X150812500Y-93599000D01*
X150710900Y-93599000D02*
X148599000Y-93599000D01*
X121100000Y-78600000D02*
X121500000Y-78200000D01*
X121500000Y-78200000D02*
X121500000Y-77695860D01*
X121500000Y-77695860D02*
X122543360Y-76652500D01*
X121100000Y-79250000D02*
X121100000Y-78600000D01*
D43*
X135426000Y-63976000D02*
X135050000Y-63600000D01*
X138582400Y-63976000D02*
X135426000Y-63976000D01*
X127660000Y-59460000D02*
X128176000Y-59976000D01*
X128176000Y-59976000D02*
X138582400Y-59976000D01*
X127660000Y-55900000D02*
X127660000Y-59460000D01*
X138582400Y-59976000D02*
X138582400Y-63976000D01*
D42*
X141097000Y-91160600D02*
X141097000Y-89297000D01*
X130591900Y-89191900D02*
X130591900Y-88006000D01*
X130900000Y-89500000D02*
X130591900Y-89191900D01*
X134800000Y-89500000D02*
X130900000Y-89500000D01*
X135200000Y-89100000D02*
X134800000Y-89500000D01*
X135200000Y-88700000D02*
X135200000Y-89100000D01*
X137209212Y-86690788D02*
X135200000Y-88700000D01*
X138490788Y-86690788D02*
X137209212Y-86690788D01*
X141097000Y-89297000D02*
X138490788Y-86690788D01*
X129944200Y-93594000D02*
X129944200Y-91755800D01*
X139801600Y-89601600D02*
X139801600Y-91160600D01*
X139100000Y-88900000D02*
X139801600Y-89601600D01*
X136900000Y-88900000D02*
X139100000Y-88900000D01*
X135400000Y-90400000D02*
X136900000Y-88900000D01*
X131300000Y-90400000D02*
X135400000Y-90400000D01*
X129944200Y-91755800D02*
X131300000Y-90400000D01*
X131239600Y-93594000D02*
X131239600Y-91739600D01*
X139153900Y-99146100D02*
X139153900Y-96748600D01*
X139000000Y-99300000D02*
X139153900Y-99146100D01*
X136200000Y-99300000D02*
X139000000Y-99300000D01*
X134300000Y-97400000D02*
X136200000Y-99300000D01*
X131239600Y-91739600D02*
X131200000Y-91700000D01*
X132547700Y-93594000D02*
X132547700Y-91852300D01*
X140462000Y-94762000D02*
X140462000Y-96748600D01*
X140100000Y-94400000D02*
X140462000Y-94762000D01*
X137700000Y-94400000D02*
X140100000Y-94400000D01*
X135400000Y-92100000D02*
X137700000Y-94400000D01*
X132795400Y-92100000D02*
X135400000Y-92100000D01*
X132547700Y-91852300D02*
X132795400Y-92100000D01*
X141757400Y-91160600D02*
X141757400Y-96748600D01*
X145072100Y-98844100D02*
X145313400Y-99085400D01*
X145332450Y-116414550D02*
X145757900Y-116840000D01*
X145313400Y-116395500D02*
X145332450Y-116414550D01*
X145757900Y-116840000D02*
X147496800Y-116840000D01*
X139153900Y-93459300D02*
X139090400Y-93522800D01*
X139153900Y-91160600D02*
X139153900Y-93459300D01*
X145332450Y-113785650D02*
X147027900Y-112090200D01*
X147027900Y-112090200D02*
X147027900Y-109118400D01*
X147027900Y-109118400D02*
X146913600Y-109004100D01*
X146913600Y-109004100D02*
X145275300Y-109004100D01*
X145087340Y-108816140D02*
X145072100Y-108800900D01*
X145275300Y-109004100D02*
X145087340Y-108816140D01*
X145072100Y-101539040D02*
X145072100Y-98844100D01*
X145332450Y-115800000D02*
X145332450Y-113785650D01*
X145332450Y-116414550D02*
X145332450Y-115800000D01*
X145087340Y-108323380D02*
X144932400Y-108168440D01*
X144896840Y-102641400D02*
X145072100Y-102466140D01*
X145072100Y-102466140D02*
X145072100Y-101592380D01*
X145072100Y-101592380D02*
X145125440Y-101539040D01*
X145125440Y-101539040D02*
X145072100Y-101539040D01*
X145087340Y-108816140D02*
X145087340Y-108323380D01*
X143375000Y-132425000D02*
X143900000Y-131900000D01*
X143900000Y-131900000D02*
X143900000Y-116900000D01*
X143900000Y-116900000D02*
X145000000Y-115800000D01*
X145000000Y-115800000D02*
X145332450Y-115800000D01*
X143375000Y-134600000D02*
X143375000Y-132425000D01*
X158575000Y-133175000D02*
X158575000Y-134600000D01*
X158000000Y-132600000D02*
X158575000Y-133175000D01*
X161600000Y-124200000D02*
X161600000Y-128800000D01*
X161600000Y-128800000D02*
X158000000Y-132400000D01*
X156896800Y-123190000D02*
X160590000Y-123190000D01*
X158000000Y-132400000D02*
X158000000Y-132600000D01*
X160590000Y-123190000D02*
X161600000Y-124200000D01*
X151663400Y-105168700D02*
X151726900Y-105105200D01*
X151726900Y-105105200D02*
X156363400Y-105105200D01*
X156896800Y-123190000D02*
X152590000Y-123190000D01*
X138506200Y-97967800D02*
X138049000Y-98425000D01*
X144145000Y-95453200D02*
X144729200Y-94869000D01*
X144729200Y-94869000D02*
X150876000Y-94869000D01*
X150876000Y-94869000D02*
X152577800Y-96570800D01*
X152577800Y-96570800D02*
X152577800Y-102184200D01*
X152577800Y-102184200D02*
X151663400Y-103098600D01*
X151663400Y-105000000D02*
X151663400Y-105168700D01*
X151663400Y-103098600D02*
X151663400Y-105000000D01*
X138506200Y-96748600D02*
X138506200Y-97967800D01*
X137025000Y-144000000D02*
X137025000Y-142275000D01*
X137600000Y-141700000D02*
X137700000Y-141600000D01*
X137025000Y-142275000D02*
X137600000Y-141700000D01*
X148100000Y-140200000D02*
X148200000Y-140100000D01*
X139100000Y-140200000D02*
X148100000Y-140200000D01*
X137600000Y-141700000D02*
X139100000Y-140200000D01*
X148200000Y-138200000D02*
X148500000Y-137900000D01*
X148500000Y-133500000D02*
X148600000Y-133400000D01*
X149600000Y-132400000D02*
X157800000Y-132400000D01*
X148600000Y-133400000D02*
X149600000Y-132400000D01*
X157800000Y-132400000D02*
X158000000Y-132600000D01*
X148200000Y-133700000D02*
X148600000Y-133300000D01*
X148600000Y-133300000D02*
X148600000Y-133400000D01*
X148200000Y-138200000D02*
X148200000Y-133700000D01*
X151663400Y-122263400D02*
X152590000Y-123190000D01*
X151663400Y-105000000D02*
X151663400Y-122263400D01*
X153416000Y-106375200D02*
X153339800Y-106451400D01*
X156363400Y-106375200D02*
X153416000Y-106375200D01*
X139801600Y-99415600D02*
X140411200Y-100025200D01*
X140411200Y-100025200D02*
X143687800Y-100025200D01*
X143687800Y-100025200D02*
X143713200Y-100050600D01*
X139801600Y-96748600D02*
X139801600Y-99415600D01*
X152600000Y-122000000D02*
X152400000Y-121800000D01*
X152400000Y-121800000D02*
X152400000Y-107391200D01*
X152400000Y-107391200D02*
X153339800Y-106451400D01*
X156896800Y-124460000D02*
X153428700Y-124460000D01*
X153390600Y-124498100D02*
X153428700Y-124460000D01*
X135755000Y-141945000D02*
X135755000Y-144000000D01*
X136100000Y-141600000D02*
X135755000Y-141945000D01*
X141109700Y-97609700D02*
X142100000Y-98600000D01*
X141109700Y-96748600D02*
X141109700Y-97609700D01*
X159845000Y-132555000D02*
X159845000Y-134600000D01*
X159845000Y-132555000D02*
X159900000Y-132500000D01*
X159029400Y-116840000D02*
X159143700Y-116954300D01*
X149644100Y-98742500D02*
X149631400Y-98755200D01*
X149631400Y-98755200D02*
X146963400Y-98755200D01*
X156896800Y-116840000D02*
X159029400Y-116840000D01*
X152225000Y-145575000D02*
X151900000Y-145900000D01*
X151900000Y-145900000D02*
X144100000Y-145900000D01*
X144100000Y-145900000D02*
X143375000Y-145175000D01*
X143375000Y-145175000D02*
X143375000Y-144000000D01*
X152225000Y-144000000D02*
X152225000Y-145575000D01*
X159889272Y-109423200D02*
X154736800Y-114575672D01*
X154736800Y-114575672D02*
X154736800Y-117957600D01*
X154736800Y-117957600D02*
X154889200Y-118110000D01*
X154889200Y-118110000D02*
X156896800Y-118110000D01*
X160909000Y-109423200D02*
X159889272Y-109423200D01*
X182968900Y-140668900D02*
X181591998Y-139291998D01*
X181591998Y-139291998D02*
X164991998Y-139291998D01*
X164991998Y-139291998D02*
X162800000Y-137100000D01*
X162800000Y-137100000D02*
X156900000Y-137100000D01*
X156900000Y-137100000D02*
X156035000Y-136235000D01*
X156035000Y-136235000D02*
X156035000Y-134600000D01*
X182968900Y-141566900D02*
X182968900Y-140668900D01*
X157305000Y-135905000D02*
X157305000Y-134600000D01*
X157900000Y-136500000D02*
X157305000Y-135905000D01*
X163000000Y-136500000D02*
X157900000Y-136500000D01*
X165283996Y-138783996D02*
X163000000Y-136500000D01*
X183883996Y-138783996D02*
X165283996Y-138783996D01*
X184900000Y-139800000D02*
X183883996Y-138783996D01*
X184900000Y-142900000D02*
X184900000Y-139800000D01*
X183693100Y-144106900D02*
X184900000Y-142900000D01*
X182968900Y-144106900D02*
X183693100Y-144106900D01*
X180428900Y-140128900D02*
X180100000Y-139800000D01*
X180100000Y-139800000D02*
X164600000Y-139800000D01*
X164600000Y-139800000D02*
X162500000Y-137700000D01*
X162500000Y-137700000D02*
X155500000Y-137700000D01*
X155500000Y-137700000D02*
X154765000Y-136965000D01*
X154765000Y-136965000D02*
X154765000Y-134600000D01*
X180428900Y-141566900D02*
X180428900Y-140128900D01*
X180428900Y-145771100D02*
X180357800Y-145700000D01*
X180357800Y-145700000D02*
X157800000Y-145700000D01*
X157800000Y-145700000D02*
X157305000Y-145205000D01*
X157305000Y-145205000D02*
X157305000Y-144000000D01*
X180428900Y-144106900D02*
X180428900Y-145771100D01*
X147496800Y-118110000D02*
X148818600Y-118110000D01*
X148818600Y-118110000D02*
X149618700Y-117309900D01*
X156035000Y-145735000D02*
X156900000Y-146600000D01*
X156900000Y-146600000D02*
X176100000Y-146600000D01*
X156035000Y-144000000D02*
X156035000Y-145735000D01*
X149618700Y-119481600D02*
X149517100Y-119380000D01*
X149517100Y-119380000D02*
X147496800Y-119380000D01*
X154900000Y-146700000D02*
X154765000Y-146565000D01*
X154765000Y-146565000D02*
X154765000Y-144000000D01*
X145440400Y-120650000D02*
X145427700Y-120662700D01*
X147496800Y-120650000D02*
X145440400Y-120650000D01*
X153400000Y-146200000D02*
X153495000Y-146105000D01*
X153495000Y-146105000D02*
X153495000Y-144000000D01*
X114635300Y-74091800D02*
X114635300Y-75361800D01*
X114635300Y-72664300D02*
X114642900Y-72656700D01*
X114642900Y-72656700D02*
X114681000Y-72656700D01*
X114635300Y-74091800D02*
X114635300Y-72664300D01*
X118910100Y-75361800D02*
X118224300Y-76047600D01*
X118224300Y-76047600D02*
X118224300Y-76581000D01*
X118224300Y-76581000D02*
X118275100Y-76631800D01*
X118275100Y-76631800D02*
X120035300Y-76631800D01*
X120035300Y-75361800D02*
X118910100Y-75361800D01*
D43*
X168500000Y-72300000D02*
X166000000Y-72300000D01*
X168500000Y-72300000D02*
X168600000Y-72200000D01*
X169600000Y-80000000D02*
X168590000Y-80000000D01*
X171200000Y-78400000D02*
X169600000Y-80000000D01*
X171200000Y-63600000D02*
X171200000Y-78400000D01*
X169660000Y-62060000D02*
X171200000Y-63600000D01*
X168590000Y-62060000D02*
X169660000Y-62060000D01*
X174500000Y-80000000D02*
X176210000Y-80000000D01*
X173700000Y-79200000D02*
X174500000Y-80000000D01*
X173700000Y-64000000D02*
X173700000Y-79200000D01*
X175640000Y-62060000D02*
X173700000Y-64000000D01*
X176210000Y-62060000D02*
X175640000Y-62060000D01*
X170000000Y-113000000D02*
X168790000Y-113000000D01*
X171300000Y-111700000D02*
X170000000Y-113000000D01*
X171300000Y-95600000D02*
X171300000Y-111700000D01*
X169560000Y-93860000D02*
X171300000Y-95600000D01*
X168690000Y-93860000D02*
X169560000Y-93860000D01*
X175100000Y-113000000D02*
X176410000Y-113000000D01*
X173600000Y-111500000D02*
X175100000Y-113000000D01*
X173600000Y-95500000D02*
X173600000Y-111500000D01*
X175240000Y-93860000D02*
X173600000Y-95500000D01*
X176310000Y-93860000D02*
X175240000Y-93860000D01*
D42*
G36*
X189873000Y-149315000D02*
X110127000Y-149315000D01*
X110127000Y-147627000D01*
X114124043Y-147627000D01*
X114124044Y-147627000D01*
X114300000Y-147662000D01*
X126100860Y-147662000D01*
X126100860Y-147661999D01*
X126231768Y-147635960D01*
X126231771Y-147635960D01*
X126326869Y-147635960D01*
X127525749Y-147635960D01*
X127547380Y-147627000D01*
X131817992Y-147627000D01*
X131817993Y-147627000D01*
X131858395Y-147653996D01*
X131858396Y-147653996D01*
X132150000Y-147712000D01*
X139950000Y-147712000D01*
X140241605Y-147653996D01*
X140282007Y-147627000D01*
X154317523Y-147627000D01*
X154684332Y-147779313D01*
X155113784Y-147779687D01*
X155483314Y-147627000D01*
X175758348Y-147627000D01*
X175884332Y-147679313D01*
X176313784Y-147679687D01*
X176441296Y-147627000D01*
X189873000Y-147627000D01*
X189873000Y-149315000D01*
X189873000Y-149315000D01*
G37*
X189873000Y-149315000D02*
X110127000Y-149315000D01*
X110127000Y-147627000D01*
X114124043Y-147627000D01*
X114124044Y-147627000D01*
X114300000Y-147662000D01*
X126100860Y-147662000D01*
X126100860Y-147661999D01*
X126231768Y-147635960D01*
X126231771Y-147635960D01*
X126326869Y-147635960D01*
X127525749Y-147635960D01*
X127547380Y-147627000D01*
X131817992Y-147627000D01*
X131817993Y-147627000D01*
X131858395Y-147653996D01*
X131858396Y-147653996D01*
X132150000Y-147712000D01*
X139950000Y-147712000D01*
X140241605Y-147653996D01*
X140282007Y-147627000D01*
X154317523Y-147627000D01*
X154684332Y-147779313D01*
X155113784Y-147779687D01*
X155483314Y-147627000D01*
X175758348Y-147627000D01*
X175884332Y-147679313D01*
X176313784Y-147679687D01*
X176441296Y-147627000D01*
X189873000Y-147627000D01*
X189873000Y-149315000D01*
G36*
X139873000Y-52373000D02*
X132269279Y-52373000D01*
X132215906Y-52337337D01*
X131900000Y-52274500D01*
X125500000Y-52274500D01*
X110127000Y-52274500D01*
X110127000Y-50685000D01*
X139873000Y-50685000D01*
X139873000Y-52373000D01*
X139873000Y-52373000D01*
G37*
X139873000Y-52373000D02*
X132269279Y-52373000D01*
X132215906Y-52337337D01*
X131900000Y-52274500D01*
X125500000Y-52274500D01*
X110127000Y-52274500D01*
X110127000Y-50685000D01*
X139873000Y-50685000D01*
X139873000Y-52373000D01*
G36*
X189873000Y-52373000D02*
X155127000Y-52373000D01*
X155127000Y-50685000D01*
X189873000Y-50685000D01*
X189873000Y-52373000D01*
X189873000Y-52373000D01*
G37*
X189873000Y-52373000D02*
X155127000Y-52373000D01*
X155127000Y-50685000D01*
X189873000Y-50685000D01*
X189873000Y-52373000D01*
M02*
