%FSLAX46Y46*%
G04 Gerber Fmt 4.6, Leading zero omitted, Abs format (unit mm)*
G04 Created by KiCad (PCBNEW (2014-10-27 BZR 5228)-product) date 10/01/2015 12:02:04*
%MOMM*%
G01*
G04 APERTURE LIST*
%ADD10C,0.100000*%
%ADD11C,0.300000*%
%ADD12C,0.150000*%
G04 APERTURE END LIST*
D10*
D11*
X185921370Y-146935000D02*
X185207084Y-146935000D01*
X186064227Y-147363571D02*
X185564227Y-145863571D01*
X185064227Y-147363571D01*
X183707084Y-147220714D02*
X183778513Y-147292143D01*
X183992799Y-147363571D01*
X184135656Y-147363571D01*
X184349941Y-147292143D01*
X184492799Y-147149286D01*
X184564227Y-147006429D01*
X184635656Y-146720714D01*
X184635656Y-146506429D01*
X184564227Y-146220714D01*
X184492799Y-146077857D01*
X184349941Y-145935000D01*
X184135656Y-145863571D01*
X183992799Y-145863571D01*
X183778513Y-145935000D01*
X183707084Y-146006429D01*
X182992799Y-147363571D02*
X182707084Y-147363571D01*
X182564227Y-147292143D01*
X182492799Y-147220714D01*
X182349941Y-147006429D01*
X182278513Y-146720714D01*
X182278513Y-146149286D01*
X182349941Y-146006429D01*
X182421370Y-145935000D01*
X182564227Y-145863571D01*
X182849941Y-145863571D01*
X182992799Y-145935000D01*
X183064227Y-146006429D01*
X183135656Y-146149286D01*
X183135656Y-146506429D01*
X183064227Y-146649286D01*
X182992799Y-146720714D01*
X182849941Y-146792143D01*
X182564227Y-146792143D01*
X182421370Y-146720714D01*
X182349941Y-146649286D01*
X182278513Y-146506429D01*
X181635656Y-147363571D02*
X181635656Y-145863571D01*
X181635656Y-146577857D02*
X180778513Y-146577857D01*
X180778513Y-147363571D02*
X180778513Y-145863571D01*
X179778513Y-146649286D02*
X179778513Y-147363571D01*
X180278513Y-145863571D02*
X179778513Y-146649286D01*
X179278513Y-145863571D01*
X177707085Y-145792143D02*
X178992799Y-147720714D01*
X177349941Y-145863571D02*
X176992798Y-147363571D01*
X176707084Y-146292143D01*
X176421370Y-147363571D01*
X176064227Y-145863571D01*
X175564227Y-146935000D02*
X174849941Y-146935000D01*
X175707084Y-147363571D02*
X175207084Y-145863571D01*
X174707084Y-147363571D01*
X174278513Y-146006429D02*
X174207084Y-145935000D01*
X174064227Y-145863571D01*
X173707084Y-145863571D01*
X173564227Y-145935000D01*
X173492798Y-146006429D01*
X173421370Y-146149286D01*
X173421370Y-146292143D01*
X173492798Y-146506429D01*
X174349941Y-147363571D01*
X173421370Y-147363571D01*
X172778513Y-146577857D02*
X172278513Y-146577857D01*
X172064227Y-147363571D02*
X172778513Y-147363571D01*
X172778513Y-145863571D01*
X172064227Y-145863571D01*
X171421370Y-145863571D02*
X171421370Y-147077857D01*
X171349942Y-147220714D01*
X171278513Y-147292143D01*
X171135656Y-147363571D01*
X170849942Y-147363571D01*
X170707084Y-147292143D01*
X170635656Y-147220714D01*
X170564227Y-147077857D01*
X170564227Y-145863571D01*
X169421370Y-145863571D02*
X169421370Y-146935000D01*
X169492798Y-147149286D01*
X169635655Y-147292143D01*
X169849941Y-147363571D01*
X169992798Y-147363571D01*
X167564227Y-147363571D02*
X167564227Y-145863571D01*
X166992799Y-145863571D01*
X166849941Y-145935000D01*
X166778513Y-146006429D01*
X166707084Y-146149286D01*
X166707084Y-146363571D01*
X166778513Y-146506429D01*
X166849941Y-146577857D01*
X166992799Y-146649286D01*
X167564227Y-146649286D01*
X166135656Y-146935000D02*
X165421370Y-146935000D01*
X166278513Y-147363571D02*
X165778513Y-145863571D01*
X165278513Y-147363571D01*
X163849942Y-145863571D02*
X163349942Y-147363571D01*
X162849942Y-145863571D01*
X161778514Y-147292143D02*
X161921371Y-147363571D01*
X162207085Y-147363571D01*
X162349942Y-147292143D01*
X162421371Y-147149286D01*
X162421371Y-146577857D01*
X162349942Y-146435000D01*
X162207085Y-146363571D01*
X161921371Y-146363571D01*
X161778514Y-146435000D01*
X161707085Y-146577857D01*
X161707085Y-146720714D01*
X162421371Y-146863571D01*
X161064228Y-147363571D02*
X161064228Y-146363571D01*
X161064228Y-146649286D02*
X160992800Y-146506429D01*
X160921371Y-146435000D01*
X160778514Y-146363571D01*
X160635657Y-146363571D01*
X158207086Y-147363571D02*
X159064229Y-147363571D01*
X158635657Y-147363571D02*
X158635657Y-145863571D01*
X158778514Y-146077857D01*
X158921372Y-146220714D01*
X159064229Y-146292143D01*
X157564229Y-147220714D02*
X157492801Y-147292143D01*
X157564229Y-147363571D01*
X157635658Y-147292143D01*
X157564229Y-147220714D01*
X157564229Y-147363571D01*
X156564229Y-145863571D02*
X156421372Y-145863571D01*
X156278515Y-145935000D01*
X156207086Y-146006429D01*
X156135657Y-146149286D01*
X156064229Y-146435000D01*
X156064229Y-146792143D01*
X156135657Y-147077857D01*
X156207086Y-147220714D01*
X156278515Y-147292143D01*
X156421372Y-147363571D01*
X156564229Y-147363571D01*
X156707086Y-147292143D01*
X156778515Y-147220714D01*
X156849943Y-147077857D01*
X156921372Y-146792143D01*
X156921372Y-146435000D01*
X156849943Y-146149286D01*
X156778515Y-146006429D01*
X156707086Y-145935000D01*
X156564229Y-145863571D01*
D12*
X162023000Y-143879800D02*
X161688000Y-143879800D01*
X162023000Y-136129800D02*
X161688000Y-136129800D01*
X148873000Y-136129800D02*
X149208000Y-136129800D01*
X148873000Y-143879800D02*
X149208000Y-143879800D01*
X162023000Y-143879800D02*
X162023000Y-136129800D01*
X148873000Y-143879800D02*
X148873000Y-136129800D01*
X161688000Y-143879800D02*
X161688000Y-145679800D01*
X119850800Y-55630700D02*
X119850800Y-54630700D01*
X121550800Y-54630700D02*
X121550800Y-55630700D01*
X121353200Y-67982200D02*
X120353200Y-67982200D01*
X120353200Y-66282200D02*
X121353200Y-66282200D01*
X147839800Y-62479300D02*
X147839800Y-63479300D01*
X146139800Y-63479300D02*
X146139800Y-62479300D01*
X152411800Y-62479300D02*
X152411800Y-63479300D01*
X150711800Y-63479300D02*
X150711800Y-62479300D01*
X150163900Y-62479300D02*
X150163900Y-63479300D01*
X148463900Y-63479300D02*
X148463900Y-62479300D01*
X154659700Y-62555500D02*
X154659700Y-63555500D01*
X152959700Y-63555500D02*
X152959700Y-62555500D01*
X137155300Y-71463800D02*
X138155300Y-71463800D01*
X138155300Y-73163800D02*
X137155300Y-73163800D01*
X137231500Y-75578600D02*
X138231500Y-75578600D01*
X138231500Y-77278600D02*
X137231500Y-77278600D01*
X151722200Y-73711700D02*
X152722200Y-73711700D01*
X152722200Y-75411700D02*
X151722200Y-75411700D01*
X185863600Y-59736100D02*
X185863600Y-60736100D01*
X184163600Y-60736100D02*
X184163600Y-59736100D01*
X187579900Y-86225000D02*
X187579900Y-85225000D01*
X189279900Y-85225000D02*
X189279900Y-86225000D01*
X187237000Y-102595300D02*
X187237000Y-101595300D01*
X188937000Y-101595300D02*
X188937000Y-102595300D01*
X189142000Y-118851300D02*
X189142000Y-117851300D01*
X190842000Y-117851300D02*
X190842000Y-118851300D01*
X185535200Y-118952900D02*
X185535200Y-117952900D01*
X187235200Y-117952900D02*
X187235200Y-118952900D01*
X184836700Y-133646800D02*
X184836700Y-132646800D01*
X186536700Y-132646800D02*
X186536700Y-133646800D01*
X182722900Y-65634500D02*
X183722900Y-65634500D01*
X183722900Y-67334500D02*
X182722900Y-67334500D01*
X182735600Y-81458700D02*
X183735600Y-81458700D01*
X183735600Y-83158700D02*
X182735600Y-83158700D01*
X182608600Y-98756100D02*
X183608600Y-98756100D01*
X183608600Y-100456100D02*
X182608600Y-100456100D01*
X183557800Y-127977000D02*
X182557800Y-127977000D01*
X182557800Y-126277000D02*
X183557800Y-126277000D01*
X182570500Y-114745400D02*
X183570500Y-114745400D01*
X183570500Y-116445400D02*
X182570500Y-116445400D01*
X180340900Y-133608700D02*
X180340900Y-132608700D01*
X182040900Y-132608700D02*
X182040900Y-133608700D01*
X182434600Y-59659900D02*
X182434600Y-60659900D01*
X180734600Y-60659900D02*
X180734600Y-59659900D01*
X195820400Y-75331700D02*
X195820400Y-76331700D01*
X194120400Y-76331700D02*
X194120400Y-75331700D01*
X196569700Y-91625800D02*
X196569700Y-92625800D01*
X194869700Y-92625800D02*
X194869700Y-91625800D01*
X196518900Y-124645800D02*
X196518900Y-125645800D01*
X194818900Y-125645800D02*
X194818900Y-124645800D01*
X196406400Y-117454300D02*
X196406400Y-116454300D01*
X198106400Y-116454300D02*
X198106400Y-117454300D01*
X193086100Y-65291600D02*
X194086100Y-65291600D01*
X194086100Y-66991600D02*
X193086100Y-66991600D01*
X192984500Y-81115800D02*
X193984500Y-81115800D01*
X193984500Y-82815800D02*
X192984500Y-82815800D01*
X193048000Y-98565600D02*
X194048000Y-98565600D01*
X194048000Y-100265600D02*
X193048000Y-100265600D01*
X193806700Y-132510900D02*
X192806700Y-132510900D01*
X192806700Y-130810900D02*
X193806700Y-130810900D01*
X192933700Y-115202600D02*
X193933700Y-115202600D01*
X193933700Y-116902600D02*
X192933700Y-116902600D01*
X191908800Y-124683900D02*
X191908800Y-125683900D01*
X190208800Y-125683900D02*
X190208800Y-124683900D01*
X193902700Y-59659900D02*
X193902700Y-60659900D01*
X192202700Y-60659900D02*
X192202700Y-59659900D01*
X189114800Y-75369800D02*
X189114800Y-76369800D01*
X187414800Y-76369800D02*
X187414800Y-75369800D01*
X191959600Y-91473400D02*
X191959600Y-92473400D01*
X190259600Y-92473400D02*
X190259600Y-91473400D01*
X192073900Y-108123100D02*
X192073900Y-109123100D01*
X190373900Y-109123100D02*
X190373900Y-108123100D01*
X196264900Y-108046900D02*
X196264900Y-109046900D01*
X194564900Y-109046900D02*
X194564900Y-108046900D01*
X184481100Y-86123400D02*
X184481100Y-85123400D01*
X186181100Y-85123400D02*
X186181100Y-86123400D01*
X190539000Y-86161500D02*
X190539000Y-85161500D01*
X192239000Y-85161500D02*
X192239000Y-86161500D01*
X141775180Y-60741560D02*
X145575020Y-60741560D01*
X141775180Y-66240660D02*
X141775180Y-61241940D01*
X145575020Y-66238120D02*
X145575020Y-61239400D01*
X140672820Y-60139580D02*
X141772640Y-60139580D01*
X141173200Y-59540140D02*
X141173200Y-60739020D01*
X162400381Y-139242895D02*
X163209905Y-139242895D01*
X163305143Y-139290514D01*
X163352762Y-139338133D01*
X163400381Y-139433371D01*
X163400381Y-139623848D01*
X163352762Y-139719086D01*
X163305143Y-139766705D01*
X163209905Y-139814324D01*
X162400381Y-139814324D01*
X162400381Y-140719086D02*
X162400381Y-140528609D01*
X162448000Y-140433371D01*
X162495619Y-140385752D01*
X162638476Y-140290514D01*
X162828952Y-140242895D01*
X163209905Y-140242895D01*
X163305143Y-140290514D01*
X163352762Y-140338133D01*
X163400381Y-140433371D01*
X163400381Y-140623848D01*
X163352762Y-140719086D01*
X163305143Y-140766705D01*
X163209905Y-140814324D01*
X162971810Y-140814324D01*
X162876571Y-140766705D01*
X162828952Y-140719086D01*
X162781333Y-140623848D01*
X162781333Y-140433371D01*
X162828952Y-140338133D01*
X162876571Y-140290514D01*
X162971810Y-140242895D01*
X159376571Y-139457181D02*
X158805142Y-139457181D01*
X159090857Y-140457181D02*
X159090857Y-139457181D01*
X158471809Y-140457181D02*
X158471809Y-139457181D01*
X158090856Y-139457181D01*
X157995618Y-139504800D01*
X157947999Y-139552419D01*
X157900380Y-139647657D01*
X157900380Y-139790514D01*
X157947999Y-139885752D01*
X157995618Y-139933371D01*
X158090856Y-139980990D01*
X158471809Y-139980990D01*
X157471809Y-140457181D02*
X157471809Y-139457181D01*
X156424190Y-140361943D02*
X156471809Y-140409562D01*
X156614666Y-140457181D01*
X156709904Y-140457181D01*
X156852762Y-140409562D01*
X156948000Y-140314324D01*
X156995619Y-140219086D01*
X157043238Y-140028610D01*
X157043238Y-139885752D01*
X156995619Y-139695276D01*
X156948000Y-139600038D01*
X156852762Y-139504800D01*
X156709904Y-139457181D01*
X156614666Y-139457181D01*
X156471809Y-139504800D01*
X156424190Y-139552419D01*
X155567047Y-139457181D02*
X155757524Y-139457181D01*
X155852762Y-139504800D01*
X155900381Y-139552419D01*
X155995619Y-139695276D01*
X156043238Y-139885752D01*
X156043238Y-140266705D01*
X155995619Y-140361943D01*
X155948000Y-140409562D01*
X155852762Y-140457181D01*
X155662285Y-140457181D01*
X155567047Y-140409562D01*
X155519428Y-140361943D01*
X155471809Y-140266705D01*
X155471809Y-140028610D01*
X155519428Y-139933371D01*
X155567047Y-139885752D01*
X155662285Y-139838133D01*
X155852762Y-139838133D01*
X155948000Y-139885752D01*
X155995619Y-139933371D01*
X156043238Y-140028610D01*
X154709904Y-139933371D02*
X154567047Y-139980990D01*
X154519428Y-140028610D01*
X154471809Y-140123848D01*
X154471809Y-140266705D01*
X154519428Y-140361943D01*
X154567047Y-140409562D01*
X154662285Y-140457181D01*
X155043238Y-140457181D01*
X155043238Y-139457181D01*
X154709904Y-139457181D01*
X154614666Y-139504800D01*
X154567047Y-139552419D01*
X154519428Y-139647657D01*
X154519428Y-139742895D01*
X154567047Y-139838133D01*
X154614666Y-139885752D01*
X154709904Y-139933371D01*
X155043238Y-139933371D01*
X153567047Y-139457181D02*
X154043238Y-139457181D01*
X154090857Y-139933371D01*
X154043238Y-139885752D01*
X153948000Y-139838133D01*
X153709904Y-139838133D01*
X153614666Y-139885752D01*
X153567047Y-139933371D01*
X153519428Y-140028610D01*
X153519428Y-140266705D01*
X153567047Y-140361943D01*
X153614666Y-140409562D01*
X153709904Y-140457181D01*
X153948000Y-140457181D01*
X154043238Y-140409562D01*
X154090857Y-140361943D01*
X153043238Y-140457181D02*
X152852762Y-140457181D01*
X152757523Y-140409562D01*
X152709904Y-140361943D01*
X152614666Y-140219086D01*
X152567047Y-140028610D01*
X152567047Y-139647657D01*
X152614666Y-139552419D01*
X152662285Y-139504800D01*
X152757523Y-139457181D01*
X152948000Y-139457181D01*
X153043238Y-139504800D01*
X153090857Y-139552419D01*
X153138476Y-139647657D01*
X153138476Y-139885752D01*
X153090857Y-139980990D01*
X153043238Y-140028610D01*
X152948000Y-140076229D01*
X152757523Y-140076229D01*
X152662285Y-140028610D01*
X152614666Y-139980990D01*
X152567047Y-139885752D01*
X151662285Y-139457181D02*
X152138476Y-139457181D01*
X152186095Y-139933371D01*
X152138476Y-139885752D01*
X152043238Y-139838133D01*
X151805142Y-139838133D01*
X151709904Y-139885752D01*
X151662285Y-139933371D01*
X151614666Y-140028610D01*
X151614666Y-140266705D01*
X151662285Y-140361943D01*
X151709904Y-140409562D01*
X151805142Y-140457181D01*
X152043238Y-140457181D01*
X152138476Y-140409562D01*
X152186095Y-140361943D01*
X119485543Y-55048934D02*
X119533162Y-55001315D01*
X119580781Y-54858458D01*
X119580781Y-54763220D01*
X119533162Y-54620362D01*
X119437924Y-54525124D01*
X119342686Y-54477505D01*
X119152210Y-54429886D01*
X119009352Y-54429886D01*
X118818876Y-54477505D01*
X118723638Y-54525124D01*
X118628400Y-54620362D01*
X118580781Y-54763220D01*
X118580781Y-54858458D01*
X118628400Y-55001315D01*
X118676019Y-55048934D01*
X119580781Y-56001315D02*
X119580781Y-55429886D01*
X119580781Y-55715600D02*
X118580781Y-55715600D01*
X118723638Y-55620362D01*
X118818876Y-55525124D01*
X118866495Y-55429886D01*
X121030266Y-69010243D02*
X121077885Y-69057862D01*
X121220742Y-69105481D01*
X121315980Y-69105481D01*
X121458838Y-69057862D01*
X121554076Y-68962624D01*
X121601695Y-68867386D01*
X121649314Y-68676910D01*
X121649314Y-68534052D01*
X121601695Y-68343576D01*
X121554076Y-68248338D01*
X121458838Y-68153100D01*
X121315980Y-68105481D01*
X121220742Y-68105481D01*
X121077885Y-68153100D01*
X121030266Y-68200719D01*
X120173123Y-68438814D02*
X120173123Y-69105481D01*
X120411219Y-68057862D02*
X120649314Y-68772148D01*
X120030266Y-68772148D01*
X149446943Y-62812634D02*
X149494562Y-62765015D01*
X149542181Y-62622158D01*
X149542181Y-62526920D01*
X149494562Y-62384062D01*
X149399324Y-62288824D01*
X149304086Y-62241205D01*
X149113610Y-62193586D01*
X148970752Y-62193586D01*
X148780276Y-62241205D01*
X148685038Y-62288824D01*
X148589800Y-62384062D01*
X148542181Y-62526920D01*
X148542181Y-62622158D01*
X148589800Y-62765015D01*
X148637419Y-62812634D01*
X148542181Y-63145967D02*
X148542181Y-63812634D01*
X149542181Y-63384062D01*
X154018943Y-62812634D02*
X154066562Y-62765015D01*
X154114181Y-62622158D01*
X154114181Y-62526920D01*
X154066562Y-62384062D01*
X153971324Y-62288824D01*
X153876086Y-62241205D01*
X153685610Y-62193586D01*
X153542752Y-62193586D01*
X153352276Y-62241205D01*
X153257038Y-62288824D01*
X153161800Y-62384062D01*
X153114181Y-62526920D01*
X153114181Y-62622158D01*
X153161800Y-62765015D01*
X153209419Y-62812634D01*
X153542752Y-63384062D02*
X153495133Y-63288824D01*
X153447514Y-63241205D01*
X153352276Y-63193586D01*
X153304657Y-63193586D01*
X153209419Y-63241205D01*
X153161800Y-63288824D01*
X153114181Y-63384062D01*
X153114181Y-63574539D01*
X153161800Y-63669777D01*
X153209419Y-63717396D01*
X153304657Y-63765015D01*
X153352276Y-63765015D01*
X153447514Y-63717396D01*
X153495133Y-63669777D01*
X153542752Y-63574539D01*
X153542752Y-63384062D01*
X153590371Y-63288824D01*
X153637990Y-63241205D01*
X153733229Y-63193586D01*
X153923705Y-63193586D01*
X154018943Y-63241205D01*
X154066562Y-63288824D01*
X154114181Y-63384062D01*
X154114181Y-63574539D01*
X154066562Y-63669777D01*
X154018943Y-63717396D01*
X153923705Y-63765015D01*
X153733229Y-63765015D01*
X153637990Y-63717396D01*
X153590371Y-63669777D01*
X153542752Y-63574539D01*
X151771043Y-62812634D02*
X151818662Y-62765015D01*
X151866281Y-62622158D01*
X151866281Y-62526920D01*
X151818662Y-62384062D01*
X151723424Y-62288824D01*
X151628186Y-62241205D01*
X151437710Y-62193586D01*
X151294852Y-62193586D01*
X151104376Y-62241205D01*
X151009138Y-62288824D01*
X150913900Y-62384062D01*
X150866281Y-62526920D01*
X150866281Y-62622158D01*
X150913900Y-62765015D01*
X150961519Y-62812634D01*
X151866281Y-63288824D02*
X151866281Y-63479300D01*
X151818662Y-63574539D01*
X151771043Y-63622158D01*
X151628186Y-63717396D01*
X151437710Y-63765015D01*
X151056757Y-63765015D01*
X150961519Y-63717396D01*
X150913900Y-63669777D01*
X150866281Y-63574539D01*
X150866281Y-63384062D01*
X150913900Y-63288824D01*
X150961519Y-63241205D01*
X151056757Y-63193586D01*
X151294852Y-63193586D01*
X151390090Y-63241205D01*
X151437710Y-63288824D01*
X151485329Y-63384062D01*
X151485329Y-63574539D01*
X151437710Y-63669777D01*
X151390090Y-63717396D01*
X151294852Y-63765015D01*
X152463843Y-62306443D02*
X152511462Y-62258824D01*
X152559081Y-62115967D01*
X152559081Y-62020729D01*
X152511462Y-61877871D01*
X152416224Y-61782633D01*
X152320986Y-61735014D01*
X152130510Y-61687395D01*
X151987652Y-61687395D01*
X151797176Y-61735014D01*
X151701938Y-61782633D01*
X151606700Y-61877871D01*
X151559081Y-62020729D01*
X151559081Y-62115967D01*
X151606700Y-62258824D01*
X151654319Y-62306443D01*
X152559081Y-63258824D02*
X152559081Y-62687395D01*
X152559081Y-62973109D02*
X151559081Y-62973109D01*
X151701938Y-62877871D01*
X151797176Y-62782633D01*
X151844795Y-62687395D01*
X152559081Y-64211205D02*
X152559081Y-63639776D01*
X152559081Y-63925490D02*
X151559081Y-63925490D01*
X151701938Y-63830252D01*
X151797176Y-63735014D01*
X151844795Y-63639776D01*
X138385257Y-71066743D02*
X138432876Y-71114362D01*
X138575733Y-71161981D01*
X138670971Y-71161981D01*
X138813829Y-71114362D01*
X138909067Y-71019124D01*
X138956686Y-70923886D01*
X139004305Y-70733410D01*
X139004305Y-70590552D01*
X138956686Y-70400076D01*
X138909067Y-70304838D01*
X138813829Y-70209600D01*
X138670971Y-70161981D01*
X138575733Y-70161981D01*
X138432876Y-70209600D01*
X138385257Y-70257219D01*
X137432876Y-71161981D02*
X138004305Y-71161981D01*
X137718591Y-71161981D02*
X137718591Y-70161981D01*
X137813829Y-70304838D01*
X137909067Y-70400076D01*
X138004305Y-70447695D01*
X137051924Y-70257219D02*
X137004305Y-70209600D01*
X136909067Y-70161981D01*
X136670971Y-70161981D01*
X136575733Y-70209600D01*
X136528114Y-70257219D01*
X136480495Y-70352457D01*
X136480495Y-70447695D01*
X136528114Y-70590552D01*
X137099543Y-71161981D01*
X136480495Y-71161981D01*
X138374357Y-74685743D02*
X138421976Y-74733362D01*
X138564833Y-74780981D01*
X138660071Y-74780981D01*
X138802929Y-74733362D01*
X138898167Y-74638124D01*
X138945786Y-74542886D01*
X138993405Y-74352410D01*
X138993405Y-74209552D01*
X138945786Y-74019076D01*
X138898167Y-73923838D01*
X138802929Y-73828600D01*
X138660071Y-73780981D01*
X138564833Y-73780981D01*
X138421976Y-73828600D01*
X138374357Y-73876219D01*
X137421976Y-74780981D02*
X137993405Y-74780981D01*
X137707691Y-74780981D02*
X137707691Y-73780981D01*
X137802929Y-73923838D01*
X137898167Y-74019076D01*
X137993405Y-74066695D01*
X137088643Y-73780981D02*
X136469595Y-73780981D01*
X136802929Y-74161933D01*
X136660071Y-74161933D01*
X136564833Y-74209552D01*
X136517214Y-74257171D01*
X136469595Y-74352410D01*
X136469595Y-74590505D01*
X136517214Y-74685743D01*
X136564833Y-74733362D01*
X136660071Y-74780981D01*
X136945786Y-74780981D01*
X137041024Y-74733362D01*
X137088643Y-74685743D01*
X152738657Y-73288343D02*
X152786276Y-73335962D01*
X152929133Y-73383581D01*
X153024371Y-73383581D01*
X153167229Y-73335962D01*
X153262467Y-73240724D01*
X153310086Y-73145486D01*
X153357705Y-72955010D01*
X153357705Y-72812152D01*
X153310086Y-72621676D01*
X153262467Y-72526438D01*
X153167229Y-72431200D01*
X153024371Y-72383581D01*
X152929133Y-72383581D01*
X152786276Y-72431200D01*
X152738657Y-72478819D01*
X151786276Y-73383581D02*
X152357705Y-73383581D01*
X152071991Y-73383581D02*
X152071991Y-72383581D01*
X152167229Y-72526438D01*
X152262467Y-72621676D01*
X152357705Y-72669295D01*
X150929133Y-72716914D02*
X150929133Y-73383581D01*
X151167229Y-72335962D02*
X151405324Y-73050248D01*
X150786276Y-73050248D01*
X187470743Y-59593243D02*
X187518362Y-59545624D01*
X187565981Y-59402767D01*
X187565981Y-59307529D01*
X187518362Y-59164671D01*
X187423124Y-59069433D01*
X187327886Y-59021814D01*
X187137410Y-58974195D01*
X186994552Y-58974195D01*
X186804076Y-59021814D01*
X186708838Y-59069433D01*
X186613600Y-59164671D01*
X186565981Y-59307529D01*
X186565981Y-59402767D01*
X186613600Y-59545624D01*
X186661219Y-59593243D01*
X187565981Y-60545624D02*
X187565981Y-59974195D01*
X187565981Y-60259909D02*
X186565981Y-60259909D01*
X186708838Y-60164671D01*
X186804076Y-60069433D01*
X186851695Y-59974195D01*
X186565981Y-61450386D02*
X186565981Y-60974195D01*
X187042171Y-60926576D01*
X186994552Y-60974195D01*
X186946933Y-61069433D01*
X186946933Y-61307529D01*
X186994552Y-61402767D01*
X187042171Y-61450386D01*
X187137410Y-61498005D01*
X187375505Y-61498005D01*
X187470743Y-61450386D01*
X187518362Y-61402767D01*
X187565981Y-61307529D01*
X187565981Y-61069433D01*
X187518362Y-60974195D01*
X187470743Y-60926576D01*
X186687043Y-85082143D02*
X186734662Y-85034524D01*
X186782281Y-84891667D01*
X186782281Y-84796429D01*
X186734662Y-84653571D01*
X186639424Y-84558333D01*
X186544186Y-84510714D01*
X186353710Y-84463095D01*
X186210852Y-84463095D01*
X186020376Y-84510714D01*
X185925138Y-84558333D01*
X185829900Y-84653571D01*
X185782281Y-84796429D01*
X185782281Y-84891667D01*
X185829900Y-85034524D01*
X185877519Y-85082143D01*
X186782281Y-86034524D02*
X186782281Y-85463095D01*
X186782281Y-85748809D02*
X185782281Y-85748809D01*
X185925138Y-85653571D01*
X186020376Y-85558333D01*
X186067995Y-85463095D01*
X185782281Y-86891667D02*
X185782281Y-86701190D01*
X185829900Y-86605952D01*
X185877519Y-86558333D01*
X186020376Y-86463095D01*
X186210852Y-86415476D01*
X186591805Y-86415476D01*
X186687043Y-86463095D01*
X186734662Y-86510714D01*
X186782281Y-86605952D01*
X186782281Y-86796429D01*
X186734662Y-86891667D01*
X186687043Y-86939286D01*
X186591805Y-86986905D01*
X186353710Y-86986905D01*
X186258471Y-86939286D01*
X186210852Y-86891667D01*
X186163233Y-86796429D01*
X186163233Y-86605952D01*
X186210852Y-86510714D01*
X186258471Y-86463095D01*
X186353710Y-86415476D01*
X186344143Y-101452443D02*
X186391762Y-101404824D01*
X186439381Y-101261967D01*
X186439381Y-101166729D01*
X186391762Y-101023871D01*
X186296524Y-100928633D01*
X186201286Y-100881014D01*
X186010810Y-100833395D01*
X185867952Y-100833395D01*
X185677476Y-100881014D01*
X185582238Y-100928633D01*
X185487000Y-101023871D01*
X185439381Y-101166729D01*
X185439381Y-101261967D01*
X185487000Y-101404824D01*
X185534619Y-101452443D01*
X186439381Y-102404824D02*
X186439381Y-101833395D01*
X186439381Y-102119109D02*
X185439381Y-102119109D01*
X185582238Y-102023871D01*
X185677476Y-101928633D01*
X185725095Y-101833395D01*
X185439381Y-102738157D02*
X185439381Y-103404824D01*
X186439381Y-102976252D01*
X188249143Y-117708443D02*
X188296762Y-117660824D01*
X188344381Y-117517967D01*
X188344381Y-117422729D01*
X188296762Y-117279871D01*
X188201524Y-117184633D01*
X188106286Y-117137014D01*
X187915810Y-117089395D01*
X187772952Y-117089395D01*
X187582476Y-117137014D01*
X187487238Y-117184633D01*
X187392000Y-117279871D01*
X187344381Y-117422729D01*
X187344381Y-117517967D01*
X187392000Y-117660824D01*
X187439619Y-117708443D01*
X188344381Y-118660824D02*
X188344381Y-118089395D01*
X188344381Y-118375109D02*
X187344381Y-118375109D01*
X187487238Y-118279871D01*
X187582476Y-118184633D01*
X187630095Y-118089395D01*
X187772952Y-119232252D02*
X187725333Y-119137014D01*
X187677714Y-119089395D01*
X187582476Y-119041776D01*
X187534857Y-119041776D01*
X187439619Y-119089395D01*
X187392000Y-119137014D01*
X187344381Y-119232252D01*
X187344381Y-119422729D01*
X187392000Y-119517967D01*
X187439619Y-119565586D01*
X187534857Y-119613205D01*
X187582476Y-119613205D01*
X187677714Y-119565586D01*
X187725333Y-119517967D01*
X187772952Y-119422729D01*
X187772952Y-119232252D01*
X187820571Y-119137014D01*
X187868190Y-119089395D01*
X187963429Y-119041776D01*
X188153905Y-119041776D01*
X188249143Y-119089395D01*
X188296762Y-119137014D01*
X188344381Y-119232252D01*
X188344381Y-119422729D01*
X188296762Y-119517967D01*
X188249143Y-119565586D01*
X188153905Y-119613205D01*
X187963429Y-119613205D01*
X187868190Y-119565586D01*
X187820571Y-119517967D01*
X187772952Y-119422729D01*
X184642343Y-117810043D02*
X184689962Y-117762424D01*
X184737581Y-117619567D01*
X184737581Y-117524329D01*
X184689962Y-117381471D01*
X184594724Y-117286233D01*
X184499486Y-117238614D01*
X184309010Y-117190995D01*
X184166152Y-117190995D01*
X183975676Y-117238614D01*
X183880438Y-117286233D01*
X183785200Y-117381471D01*
X183737581Y-117524329D01*
X183737581Y-117619567D01*
X183785200Y-117762424D01*
X183832819Y-117810043D01*
X184737581Y-118762424D02*
X184737581Y-118190995D01*
X184737581Y-118476709D02*
X183737581Y-118476709D01*
X183880438Y-118381471D01*
X183975676Y-118286233D01*
X184023295Y-118190995D01*
X184737581Y-119238614D02*
X184737581Y-119429090D01*
X184689962Y-119524329D01*
X184642343Y-119571948D01*
X184499486Y-119667186D01*
X184309010Y-119714805D01*
X183928057Y-119714805D01*
X183832819Y-119667186D01*
X183785200Y-119619567D01*
X183737581Y-119524329D01*
X183737581Y-119333852D01*
X183785200Y-119238614D01*
X183832819Y-119190995D01*
X183928057Y-119143376D01*
X184166152Y-119143376D01*
X184261390Y-119190995D01*
X184309010Y-119238614D01*
X184356629Y-119333852D01*
X184356629Y-119524329D01*
X184309010Y-119619567D01*
X184261390Y-119667186D01*
X184166152Y-119714805D01*
X183943843Y-132503943D02*
X183991462Y-132456324D01*
X184039081Y-132313467D01*
X184039081Y-132218229D01*
X183991462Y-132075371D01*
X183896224Y-131980133D01*
X183800986Y-131932514D01*
X183610510Y-131884895D01*
X183467652Y-131884895D01*
X183277176Y-131932514D01*
X183181938Y-131980133D01*
X183086700Y-132075371D01*
X183039081Y-132218229D01*
X183039081Y-132313467D01*
X183086700Y-132456324D01*
X183134319Y-132503943D01*
X183134319Y-132884895D02*
X183086700Y-132932514D01*
X183039081Y-133027752D01*
X183039081Y-133265848D01*
X183086700Y-133361086D01*
X183134319Y-133408705D01*
X183229557Y-133456324D01*
X183324795Y-133456324D01*
X183467652Y-133408705D01*
X184039081Y-132837276D01*
X184039081Y-133456324D01*
X183039081Y-134075371D02*
X183039081Y-134170610D01*
X183086700Y-134265848D01*
X183134319Y-134313467D01*
X183229557Y-134361086D01*
X183420033Y-134408705D01*
X183658129Y-134408705D01*
X183848605Y-134361086D01*
X183943843Y-134313467D01*
X183991462Y-134265848D01*
X184039081Y-134170610D01*
X184039081Y-134075371D01*
X183991462Y-133980133D01*
X183943843Y-133932514D01*
X183848605Y-133884895D01*
X183658129Y-133837276D01*
X183420033Y-133837276D01*
X183229557Y-133884895D01*
X183134319Y-133932514D01*
X183086700Y-133980133D01*
X183039081Y-134075371D01*
X183865757Y-64741643D02*
X183913376Y-64789262D01*
X184056233Y-64836881D01*
X184151471Y-64836881D01*
X184294329Y-64789262D01*
X184389567Y-64694024D01*
X184437186Y-64598786D01*
X184484805Y-64408310D01*
X184484805Y-64265452D01*
X184437186Y-64074976D01*
X184389567Y-63979738D01*
X184294329Y-63884500D01*
X184151471Y-63836881D01*
X184056233Y-63836881D01*
X183913376Y-63884500D01*
X183865757Y-63932119D01*
X183484805Y-63932119D02*
X183437186Y-63884500D01*
X183341948Y-63836881D01*
X183103852Y-63836881D01*
X183008614Y-63884500D01*
X182960995Y-63932119D01*
X182913376Y-64027357D01*
X182913376Y-64122595D01*
X182960995Y-64265452D01*
X183532424Y-64836881D01*
X182913376Y-64836881D01*
X181960995Y-64836881D02*
X182532424Y-64836881D01*
X182246710Y-64836881D02*
X182246710Y-63836881D01*
X182341948Y-63979738D01*
X182437186Y-64074976D01*
X182532424Y-64122595D01*
X183878457Y-80565843D02*
X183926076Y-80613462D01*
X184068933Y-80661081D01*
X184164171Y-80661081D01*
X184307029Y-80613462D01*
X184402267Y-80518224D01*
X184449886Y-80422986D01*
X184497505Y-80232510D01*
X184497505Y-80089652D01*
X184449886Y-79899176D01*
X184402267Y-79803938D01*
X184307029Y-79708700D01*
X184164171Y-79661081D01*
X184068933Y-79661081D01*
X183926076Y-79708700D01*
X183878457Y-79756319D01*
X183497505Y-79756319D02*
X183449886Y-79708700D01*
X183354648Y-79661081D01*
X183116552Y-79661081D01*
X183021314Y-79708700D01*
X182973695Y-79756319D01*
X182926076Y-79851557D01*
X182926076Y-79946795D01*
X182973695Y-80089652D01*
X183545124Y-80661081D01*
X182926076Y-80661081D01*
X182545124Y-79756319D02*
X182497505Y-79708700D01*
X182402267Y-79661081D01*
X182164171Y-79661081D01*
X182068933Y-79708700D01*
X182021314Y-79756319D01*
X181973695Y-79851557D01*
X181973695Y-79946795D01*
X182021314Y-80089652D01*
X182592743Y-80661081D01*
X181973695Y-80661081D01*
X183751457Y-97863243D02*
X183799076Y-97910862D01*
X183941933Y-97958481D01*
X184037171Y-97958481D01*
X184180029Y-97910862D01*
X184275267Y-97815624D01*
X184322886Y-97720386D01*
X184370505Y-97529910D01*
X184370505Y-97387052D01*
X184322886Y-97196576D01*
X184275267Y-97101338D01*
X184180029Y-97006100D01*
X184037171Y-96958481D01*
X183941933Y-96958481D01*
X183799076Y-97006100D01*
X183751457Y-97053719D01*
X183370505Y-97053719D02*
X183322886Y-97006100D01*
X183227648Y-96958481D01*
X182989552Y-96958481D01*
X182894314Y-97006100D01*
X182846695Y-97053719D01*
X182799076Y-97148957D01*
X182799076Y-97244195D01*
X182846695Y-97387052D01*
X183418124Y-97958481D01*
X182799076Y-97958481D01*
X182465743Y-96958481D02*
X181846695Y-96958481D01*
X182180029Y-97339433D01*
X182037171Y-97339433D01*
X181941933Y-97387052D01*
X181894314Y-97434671D01*
X181846695Y-97529910D01*
X181846695Y-97768005D01*
X181894314Y-97863243D01*
X181941933Y-97910862D01*
X182037171Y-97958481D01*
X182322886Y-97958481D01*
X182418124Y-97910862D01*
X182465743Y-97863243D01*
X183700657Y-129584143D02*
X183748276Y-129631762D01*
X183891133Y-129679381D01*
X183986371Y-129679381D01*
X184129229Y-129631762D01*
X184224467Y-129536524D01*
X184272086Y-129441286D01*
X184319705Y-129250810D01*
X184319705Y-129107952D01*
X184272086Y-128917476D01*
X184224467Y-128822238D01*
X184129229Y-128727000D01*
X183986371Y-128679381D01*
X183891133Y-128679381D01*
X183748276Y-128727000D01*
X183700657Y-128774619D01*
X183319705Y-128774619D02*
X183272086Y-128727000D01*
X183176848Y-128679381D01*
X182938752Y-128679381D01*
X182843514Y-128727000D01*
X182795895Y-128774619D01*
X182748276Y-128869857D01*
X182748276Y-128965095D01*
X182795895Y-129107952D01*
X183367324Y-129679381D01*
X182748276Y-129679381D01*
X181891133Y-129012714D02*
X181891133Y-129679381D01*
X182129229Y-128631762D02*
X182367324Y-129346048D01*
X181748276Y-129346048D01*
X183713357Y-113852543D02*
X183760976Y-113900162D01*
X183903833Y-113947781D01*
X183999071Y-113947781D01*
X184141929Y-113900162D01*
X184237167Y-113804924D01*
X184284786Y-113709686D01*
X184332405Y-113519210D01*
X184332405Y-113376352D01*
X184284786Y-113185876D01*
X184237167Y-113090638D01*
X184141929Y-112995400D01*
X183999071Y-112947781D01*
X183903833Y-112947781D01*
X183760976Y-112995400D01*
X183713357Y-113043019D01*
X183332405Y-113043019D02*
X183284786Y-112995400D01*
X183189548Y-112947781D01*
X182951452Y-112947781D01*
X182856214Y-112995400D01*
X182808595Y-113043019D01*
X182760976Y-113138257D01*
X182760976Y-113233495D01*
X182808595Y-113376352D01*
X183380024Y-113947781D01*
X182760976Y-113947781D01*
X181856214Y-112947781D02*
X182332405Y-112947781D01*
X182380024Y-113423971D01*
X182332405Y-113376352D01*
X182237167Y-113328733D01*
X181999071Y-113328733D01*
X181903833Y-113376352D01*
X181856214Y-113423971D01*
X181808595Y-113519210D01*
X181808595Y-113757305D01*
X181856214Y-113852543D01*
X181903833Y-113900162D01*
X181999071Y-113947781D01*
X182237167Y-113947781D01*
X182332405Y-113900162D01*
X182380024Y-113852543D01*
X179448043Y-132465843D02*
X179495662Y-132418224D01*
X179543281Y-132275367D01*
X179543281Y-132180129D01*
X179495662Y-132037271D01*
X179400424Y-131942033D01*
X179305186Y-131894414D01*
X179114710Y-131846795D01*
X178971852Y-131846795D01*
X178781376Y-131894414D01*
X178686138Y-131942033D01*
X178590900Y-132037271D01*
X178543281Y-132180129D01*
X178543281Y-132275367D01*
X178590900Y-132418224D01*
X178638519Y-132465843D01*
X178638519Y-132846795D02*
X178590900Y-132894414D01*
X178543281Y-132989652D01*
X178543281Y-133227748D01*
X178590900Y-133322986D01*
X178638519Y-133370605D01*
X178733757Y-133418224D01*
X178828995Y-133418224D01*
X178971852Y-133370605D01*
X179543281Y-132799176D01*
X179543281Y-133418224D01*
X178543281Y-134275367D02*
X178543281Y-134084890D01*
X178590900Y-133989652D01*
X178638519Y-133942033D01*
X178781376Y-133846795D01*
X178971852Y-133799176D01*
X179352805Y-133799176D01*
X179448043Y-133846795D01*
X179495662Y-133894414D01*
X179543281Y-133989652D01*
X179543281Y-134180129D01*
X179495662Y-134275367D01*
X179448043Y-134322986D01*
X179352805Y-134370605D01*
X179114710Y-134370605D01*
X179019471Y-134322986D01*
X178971852Y-134275367D01*
X178924233Y-134180129D01*
X178924233Y-133989652D01*
X178971852Y-133894414D01*
X179019471Y-133846795D01*
X179114710Y-133799176D01*
X184041743Y-59517043D02*
X184089362Y-59469424D01*
X184136981Y-59326567D01*
X184136981Y-59231329D01*
X184089362Y-59088471D01*
X183994124Y-58993233D01*
X183898886Y-58945614D01*
X183708410Y-58897995D01*
X183565552Y-58897995D01*
X183375076Y-58945614D01*
X183279838Y-58993233D01*
X183184600Y-59088471D01*
X183136981Y-59231329D01*
X183136981Y-59326567D01*
X183184600Y-59469424D01*
X183232219Y-59517043D01*
X183232219Y-59897995D02*
X183184600Y-59945614D01*
X183136981Y-60040852D01*
X183136981Y-60278948D01*
X183184600Y-60374186D01*
X183232219Y-60421805D01*
X183327457Y-60469424D01*
X183422695Y-60469424D01*
X183565552Y-60421805D01*
X184136981Y-59850376D01*
X184136981Y-60469424D01*
X183136981Y-60802757D02*
X183136981Y-61469424D01*
X184136981Y-61040852D01*
X197427543Y-75188843D02*
X197475162Y-75141224D01*
X197522781Y-74998367D01*
X197522781Y-74903129D01*
X197475162Y-74760271D01*
X197379924Y-74665033D01*
X197284686Y-74617414D01*
X197094210Y-74569795D01*
X196951352Y-74569795D01*
X196760876Y-74617414D01*
X196665638Y-74665033D01*
X196570400Y-74760271D01*
X196522781Y-74903129D01*
X196522781Y-74998367D01*
X196570400Y-75141224D01*
X196618019Y-75188843D01*
X196618019Y-75569795D02*
X196570400Y-75617414D01*
X196522781Y-75712652D01*
X196522781Y-75950748D01*
X196570400Y-76045986D01*
X196618019Y-76093605D01*
X196713257Y-76141224D01*
X196808495Y-76141224D01*
X196951352Y-76093605D01*
X197522781Y-75522176D01*
X197522781Y-76141224D01*
X196951352Y-76712652D02*
X196903733Y-76617414D01*
X196856114Y-76569795D01*
X196760876Y-76522176D01*
X196713257Y-76522176D01*
X196618019Y-76569795D01*
X196570400Y-76617414D01*
X196522781Y-76712652D01*
X196522781Y-76903129D01*
X196570400Y-76998367D01*
X196618019Y-77045986D01*
X196713257Y-77093605D01*
X196760876Y-77093605D01*
X196856114Y-77045986D01*
X196903733Y-76998367D01*
X196951352Y-76903129D01*
X196951352Y-76712652D01*
X196998971Y-76617414D01*
X197046590Y-76569795D01*
X197141829Y-76522176D01*
X197332305Y-76522176D01*
X197427543Y-76569795D01*
X197475162Y-76617414D01*
X197522781Y-76712652D01*
X197522781Y-76903129D01*
X197475162Y-76998367D01*
X197427543Y-77045986D01*
X197332305Y-77093605D01*
X197141829Y-77093605D01*
X197046590Y-77045986D01*
X196998971Y-76998367D01*
X196951352Y-76903129D01*
X198176843Y-91482943D02*
X198224462Y-91435324D01*
X198272081Y-91292467D01*
X198272081Y-91197229D01*
X198224462Y-91054371D01*
X198129224Y-90959133D01*
X198033986Y-90911514D01*
X197843510Y-90863895D01*
X197700652Y-90863895D01*
X197510176Y-90911514D01*
X197414938Y-90959133D01*
X197319700Y-91054371D01*
X197272081Y-91197229D01*
X197272081Y-91292467D01*
X197319700Y-91435324D01*
X197367319Y-91482943D01*
X197367319Y-91863895D02*
X197319700Y-91911514D01*
X197272081Y-92006752D01*
X197272081Y-92244848D01*
X197319700Y-92340086D01*
X197367319Y-92387705D01*
X197462557Y-92435324D01*
X197557795Y-92435324D01*
X197700652Y-92387705D01*
X198272081Y-91816276D01*
X198272081Y-92435324D01*
X198272081Y-92911514D02*
X198272081Y-93101990D01*
X198224462Y-93197229D01*
X198176843Y-93244848D01*
X198033986Y-93340086D01*
X197843510Y-93387705D01*
X197462557Y-93387705D01*
X197367319Y-93340086D01*
X197319700Y-93292467D01*
X197272081Y-93197229D01*
X197272081Y-93006752D01*
X197319700Y-92911514D01*
X197367319Y-92863895D01*
X197462557Y-92816276D01*
X197700652Y-92816276D01*
X197795890Y-92863895D01*
X197843510Y-92911514D01*
X197891129Y-93006752D01*
X197891129Y-93197229D01*
X197843510Y-93292467D01*
X197795890Y-93340086D01*
X197700652Y-93387705D01*
X198126043Y-124502943D02*
X198173662Y-124455324D01*
X198221281Y-124312467D01*
X198221281Y-124217229D01*
X198173662Y-124074371D01*
X198078424Y-123979133D01*
X197983186Y-123931514D01*
X197792710Y-123883895D01*
X197649852Y-123883895D01*
X197459376Y-123931514D01*
X197364138Y-123979133D01*
X197268900Y-124074371D01*
X197221281Y-124217229D01*
X197221281Y-124312467D01*
X197268900Y-124455324D01*
X197316519Y-124502943D01*
X197221281Y-124836276D02*
X197221281Y-125455324D01*
X197602233Y-125121990D01*
X197602233Y-125264848D01*
X197649852Y-125360086D01*
X197697471Y-125407705D01*
X197792710Y-125455324D01*
X198030805Y-125455324D01*
X198126043Y-125407705D01*
X198173662Y-125360086D01*
X198221281Y-125264848D01*
X198221281Y-124979133D01*
X198173662Y-124883895D01*
X198126043Y-124836276D01*
X197221281Y-126074371D02*
X197221281Y-126169610D01*
X197268900Y-126264848D01*
X197316519Y-126312467D01*
X197411757Y-126360086D01*
X197602233Y-126407705D01*
X197840329Y-126407705D01*
X198030805Y-126360086D01*
X198126043Y-126312467D01*
X198173662Y-126264848D01*
X198221281Y-126169610D01*
X198221281Y-126074371D01*
X198173662Y-125979133D01*
X198126043Y-125931514D01*
X198030805Y-125883895D01*
X197840329Y-125836276D01*
X197602233Y-125836276D01*
X197411757Y-125883895D01*
X197316519Y-125931514D01*
X197268900Y-125979133D01*
X197221281Y-126074371D01*
X195513543Y-116311443D02*
X195561162Y-116263824D01*
X195608781Y-116120967D01*
X195608781Y-116025729D01*
X195561162Y-115882871D01*
X195465924Y-115787633D01*
X195370686Y-115740014D01*
X195180210Y-115692395D01*
X195037352Y-115692395D01*
X194846876Y-115740014D01*
X194751638Y-115787633D01*
X194656400Y-115882871D01*
X194608781Y-116025729D01*
X194608781Y-116120967D01*
X194656400Y-116263824D01*
X194704019Y-116311443D01*
X194608781Y-116644776D02*
X194608781Y-117263824D01*
X194989733Y-116930490D01*
X194989733Y-117073348D01*
X195037352Y-117168586D01*
X195084971Y-117216205D01*
X195180210Y-117263824D01*
X195418305Y-117263824D01*
X195513543Y-117216205D01*
X195561162Y-117168586D01*
X195608781Y-117073348D01*
X195608781Y-116787633D01*
X195561162Y-116692395D01*
X195513543Y-116644776D01*
X195608781Y-118216205D02*
X195608781Y-117644776D01*
X195608781Y-117930490D02*
X194608781Y-117930490D01*
X194751638Y-117835252D01*
X194846876Y-117740014D01*
X194894495Y-117644776D01*
X194228957Y-64398743D02*
X194276576Y-64446362D01*
X194419433Y-64493981D01*
X194514671Y-64493981D01*
X194657529Y-64446362D01*
X194752767Y-64351124D01*
X194800386Y-64255886D01*
X194848005Y-64065410D01*
X194848005Y-63922552D01*
X194800386Y-63732076D01*
X194752767Y-63636838D01*
X194657529Y-63541600D01*
X194514671Y-63493981D01*
X194419433Y-63493981D01*
X194276576Y-63541600D01*
X194228957Y-63589219D01*
X193895624Y-63493981D02*
X193276576Y-63493981D01*
X193609910Y-63874933D01*
X193467052Y-63874933D01*
X193371814Y-63922552D01*
X193324195Y-63970171D01*
X193276576Y-64065410D01*
X193276576Y-64303505D01*
X193324195Y-64398743D01*
X193371814Y-64446362D01*
X193467052Y-64493981D01*
X193752767Y-64493981D01*
X193848005Y-64446362D01*
X193895624Y-64398743D01*
X192895624Y-63589219D02*
X192848005Y-63541600D01*
X192752767Y-63493981D01*
X192514671Y-63493981D01*
X192419433Y-63541600D01*
X192371814Y-63589219D01*
X192324195Y-63684457D01*
X192324195Y-63779695D01*
X192371814Y-63922552D01*
X192943243Y-64493981D01*
X192324195Y-64493981D01*
X194127357Y-80222943D02*
X194174976Y-80270562D01*
X194317833Y-80318181D01*
X194413071Y-80318181D01*
X194555929Y-80270562D01*
X194651167Y-80175324D01*
X194698786Y-80080086D01*
X194746405Y-79889610D01*
X194746405Y-79746752D01*
X194698786Y-79556276D01*
X194651167Y-79461038D01*
X194555929Y-79365800D01*
X194413071Y-79318181D01*
X194317833Y-79318181D01*
X194174976Y-79365800D01*
X194127357Y-79413419D01*
X193794024Y-79318181D02*
X193174976Y-79318181D01*
X193508310Y-79699133D01*
X193365452Y-79699133D01*
X193270214Y-79746752D01*
X193222595Y-79794371D01*
X193174976Y-79889610D01*
X193174976Y-80127705D01*
X193222595Y-80222943D01*
X193270214Y-80270562D01*
X193365452Y-80318181D01*
X193651167Y-80318181D01*
X193746405Y-80270562D01*
X193794024Y-80222943D01*
X192841643Y-79318181D02*
X192222595Y-79318181D01*
X192555929Y-79699133D01*
X192413071Y-79699133D01*
X192317833Y-79746752D01*
X192270214Y-79794371D01*
X192222595Y-79889610D01*
X192222595Y-80127705D01*
X192270214Y-80222943D01*
X192317833Y-80270562D01*
X192413071Y-80318181D01*
X192698786Y-80318181D01*
X192794024Y-80270562D01*
X192841643Y-80222943D01*
X194190857Y-97672743D02*
X194238476Y-97720362D01*
X194381333Y-97767981D01*
X194476571Y-97767981D01*
X194619429Y-97720362D01*
X194714667Y-97625124D01*
X194762286Y-97529886D01*
X194809905Y-97339410D01*
X194809905Y-97196552D01*
X194762286Y-97006076D01*
X194714667Y-96910838D01*
X194619429Y-96815600D01*
X194476571Y-96767981D01*
X194381333Y-96767981D01*
X194238476Y-96815600D01*
X194190857Y-96863219D01*
X193857524Y-96767981D02*
X193238476Y-96767981D01*
X193571810Y-97148933D01*
X193428952Y-97148933D01*
X193333714Y-97196552D01*
X193286095Y-97244171D01*
X193238476Y-97339410D01*
X193238476Y-97577505D01*
X193286095Y-97672743D01*
X193333714Y-97720362D01*
X193428952Y-97767981D01*
X193714667Y-97767981D01*
X193809905Y-97720362D01*
X193857524Y-97672743D01*
X192381333Y-97101314D02*
X192381333Y-97767981D01*
X192619429Y-96720362D02*
X192857524Y-97434648D01*
X192238476Y-97434648D01*
X193949557Y-134118043D02*
X193997176Y-134165662D01*
X194140033Y-134213281D01*
X194235271Y-134213281D01*
X194378129Y-134165662D01*
X194473367Y-134070424D01*
X194520986Y-133975186D01*
X194568605Y-133784710D01*
X194568605Y-133641852D01*
X194520986Y-133451376D01*
X194473367Y-133356138D01*
X194378129Y-133260900D01*
X194235271Y-133213281D01*
X194140033Y-133213281D01*
X193997176Y-133260900D01*
X193949557Y-133308519D01*
X193616224Y-133213281D02*
X192997176Y-133213281D01*
X193330510Y-133594233D01*
X193187652Y-133594233D01*
X193092414Y-133641852D01*
X193044795Y-133689471D01*
X192997176Y-133784710D01*
X192997176Y-134022805D01*
X193044795Y-134118043D01*
X193092414Y-134165662D01*
X193187652Y-134213281D01*
X193473367Y-134213281D01*
X193568605Y-134165662D01*
X193616224Y-134118043D01*
X192092414Y-133213281D02*
X192568605Y-133213281D01*
X192616224Y-133689471D01*
X192568605Y-133641852D01*
X192473367Y-133594233D01*
X192235271Y-133594233D01*
X192140033Y-133641852D01*
X192092414Y-133689471D01*
X192044795Y-133784710D01*
X192044795Y-134022805D01*
X192092414Y-134118043D01*
X192140033Y-134165662D01*
X192235271Y-134213281D01*
X192473367Y-134213281D01*
X192568605Y-134165662D01*
X192616224Y-134118043D01*
X194076557Y-114309743D02*
X194124176Y-114357362D01*
X194267033Y-114404981D01*
X194362271Y-114404981D01*
X194505129Y-114357362D01*
X194600367Y-114262124D01*
X194647986Y-114166886D01*
X194695605Y-113976410D01*
X194695605Y-113833552D01*
X194647986Y-113643076D01*
X194600367Y-113547838D01*
X194505129Y-113452600D01*
X194362271Y-113404981D01*
X194267033Y-113404981D01*
X194124176Y-113452600D01*
X194076557Y-113500219D01*
X193743224Y-113404981D02*
X193124176Y-113404981D01*
X193457510Y-113785933D01*
X193314652Y-113785933D01*
X193219414Y-113833552D01*
X193171795Y-113881171D01*
X193124176Y-113976410D01*
X193124176Y-114214505D01*
X193171795Y-114309743D01*
X193219414Y-114357362D01*
X193314652Y-114404981D01*
X193600367Y-114404981D01*
X193695605Y-114357362D01*
X193743224Y-114309743D01*
X192267033Y-113404981D02*
X192457510Y-113404981D01*
X192552748Y-113452600D01*
X192600367Y-113500219D01*
X192695605Y-113643076D01*
X192743224Y-113833552D01*
X192743224Y-114214505D01*
X192695605Y-114309743D01*
X192647986Y-114357362D01*
X192552748Y-114404981D01*
X192362271Y-114404981D01*
X192267033Y-114357362D01*
X192219414Y-114309743D01*
X192171795Y-114214505D01*
X192171795Y-113976410D01*
X192219414Y-113881171D01*
X192267033Y-113833552D01*
X192362271Y-113785933D01*
X192552748Y-113785933D01*
X192647986Y-113833552D01*
X192695605Y-113881171D01*
X192743224Y-113976410D01*
X193515943Y-124541043D02*
X193563562Y-124493424D01*
X193611181Y-124350567D01*
X193611181Y-124255329D01*
X193563562Y-124112471D01*
X193468324Y-124017233D01*
X193373086Y-123969614D01*
X193182610Y-123921995D01*
X193039752Y-123921995D01*
X192849276Y-123969614D01*
X192754038Y-124017233D01*
X192658800Y-124112471D01*
X192611181Y-124255329D01*
X192611181Y-124350567D01*
X192658800Y-124493424D01*
X192706419Y-124541043D01*
X192611181Y-124874376D02*
X192611181Y-125493424D01*
X192992133Y-125160090D01*
X192992133Y-125302948D01*
X193039752Y-125398186D01*
X193087371Y-125445805D01*
X193182610Y-125493424D01*
X193420705Y-125493424D01*
X193515943Y-125445805D01*
X193563562Y-125398186D01*
X193611181Y-125302948D01*
X193611181Y-125017233D01*
X193563562Y-124921995D01*
X193515943Y-124874376D01*
X192611181Y-125826757D02*
X192611181Y-126493424D01*
X193611181Y-126064852D01*
X195509843Y-59517043D02*
X195557462Y-59469424D01*
X195605081Y-59326567D01*
X195605081Y-59231329D01*
X195557462Y-59088471D01*
X195462224Y-58993233D01*
X195366986Y-58945614D01*
X195176510Y-58897995D01*
X195033652Y-58897995D01*
X194843176Y-58945614D01*
X194747938Y-58993233D01*
X194652700Y-59088471D01*
X194605081Y-59231329D01*
X194605081Y-59326567D01*
X194652700Y-59469424D01*
X194700319Y-59517043D01*
X194605081Y-59850376D02*
X194605081Y-60469424D01*
X194986033Y-60136090D01*
X194986033Y-60278948D01*
X195033652Y-60374186D01*
X195081271Y-60421805D01*
X195176510Y-60469424D01*
X195414605Y-60469424D01*
X195509843Y-60421805D01*
X195557462Y-60374186D01*
X195605081Y-60278948D01*
X195605081Y-59993233D01*
X195557462Y-59897995D01*
X195509843Y-59850376D01*
X195033652Y-61040852D02*
X194986033Y-60945614D01*
X194938414Y-60897995D01*
X194843176Y-60850376D01*
X194795557Y-60850376D01*
X194700319Y-60897995D01*
X194652700Y-60945614D01*
X194605081Y-61040852D01*
X194605081Y-61231329D01*
X194652700Y-61326567D01*
X194700319Y-61374186D01*
X194795557Y-61421805D01*
X194843176Y-61421805D01*
X194938414Y-61374186D01*
X194986033Y-61326567D01*
X195033652Y-61231329D01*
X195033652Y-61040852D01*
X195081271Y-60945614D01*
X195128890Y-60897995D01*
X195224129Y-60850376D01*
X195414605Y-60850376D01*
X195509843Y-60897995D01*
X195557462Y-60945614D01*
X195605081Y-61040852D01*
X195605081Y-61231329D01*
X195557462Y-61326567D01*
X195509843Y-61374186D01*
X195414605Y-61421805D01*
X195224129Y-61421805D01*
X195128890Y-61374186D01*
X195081271Y-61326567D01*
X195033652Y-61231329D01*
X190721943Y-75226943D02*
X190769562Y-75179324D01*
X190817181Y-75036467D01*
X190817181Y-74941229D01*
X190769562Y-74798371D01*
X190674324Y-74703133D01*
X190579086Y-74655514D01*
X190388610Y-74607895D01*
X190245752Y-74607895D01*
X190055276Y-74655514D01*
X189960038Y-74703133D01*
X189864800Y-74798371D01*
X189817181Y-74941229D01*
X189817181Y-75036467D01*
X189864800Y-75179324D01*
X189912419Y-75226943D01*
X189817181Y-75560276D02*
X189817181Y-76179324D01*
X190198133Y-75845990D01*
X190198133Y-75988848D01*
X190245752Y-76084086D01*
X190293371Y-76131705D01*
X190388610Y-76179324D01*
X190626705Y-76179324D01*
X190721943Y-76131705D01*
X190769562Y-76084086D01*
X190817181Y-75988848D01*
X190817181Y-75703133D01*
X190769562Y-75607895D01*
X190721943Y-75560276D01*
X190817181Y-76655514D02*
X190817181Y-76845990D01*
X190769562Y-76941229D01*
X190721943Y-76988848D01*
X190579086Y-77084086D01*
X190388610Y-77131705D01*
X190007657Y-77131705D01*
X189912419Y-77084086D01*
X189864800Y-77036467D01*
X189817181Y-76941229D01*
X189817181Y-76750752D01*
X189864800Y-76655514D01*
X189912419Y-76607895D01*
X190007657Y-76560276D01*
X190245752Y-76560276D01*
X190340990Y-76607895D01*
X190388610Y-76655514D01*
X190436229Y-76750752D01*
X190436229Y-76941229D01*
X190388610Y-77036467D01*
X190340990Y-77084086D01*
X190245752Y-77131705D01*
X193566743Y-91330543D02*
X193614362Y-91282924D01*
X193661981Y-91140067D01*
X193661981Y-91044829D01*
X193614362Y-90901971D01*
X193519124Y-90806733D01*
X193423886Y-90759114D01*
X193233410Y-90711495D01*
X193090552Y-90711495D01*
X192900076Y-90759114D01*
X192804838Y-90806733D01*
X192709600Y-90901971D01*
X192661981Y-91044829D01*
X192661981Y-91140067D01*
X192709600Y-91282924D01*
X192757219Y-91330543D01*
X192995314Y-92187686D02*
X193661981Y-92187686D01*
X192614362Y-91949590D02*
X193328648Y-91711495D01*
X193328648Y-92330543D01*
X192661981Y-92901971D02*
X192661981Y-92997210D01*
X192709600Y-93092448D01*
X192757219Y-93140067D01*
X192852457Y-93187686D01*
X193042933Y-93235305D01*
X193281029Y-93235305D01*
X193471505Y-93187686D01*
X193566743Y-93140067D01*
X193614362Y-93092448D01*
X193661981Y-92997210D01*
X193661981Y-92901971D01*
X193614362Y-92806733D01*
X193566743Y-92759114D01*
X193471505Y-92711495D01*
X193281029Y-92663876D01*
X193042933Y-92663876D01*
X192852457Y-92711495D01*
X192757219Y-92759114D01*
X192709600Y-92806733D01*
X192661981Y-92901971D01*
X193681043Y-107980243D02*
X193728662Y-107932624D01*
X193776281Y-107789767D01*
X193776281Y-107694529D01*
X193728662Y-107551671D01*
X193633424Y-107456433D01*
X193538186Y-107408814D01*
X193347710Y-107361195D01*
X193204852Y-107361195D01*
X193014376Y-107408814D01*
X192919138Y-107456433D01*
X192823900Y-107551671D01*
X192776281Y-107694529D01*
X192776281Y-107789767D01*
X192823900Y-107932624D01*
X192871519Y-107980243D01*
X193109614Y-108837386D02*
X193776281Y-108837386D01*
X192728662Y-108599290D02*
X193442948Y-108361195D01*
X193442948Y-108980243D01*
X193776281Y-109885005D02*
X193776281Y-109313576D01*
X193776281Y-109599290D02*
X192776281Y-109599290D01*
X192919138Y-109504052D01*
X193014376Y-109408814D01*
X193061995Y-109313576D01*
X197872043Y-107904043D02*
X197919662Y-107856424D01*
X197967281Y-107713567D01*
X197967281Y-107618329D01*
X197919662Y-107475471D01*
X197824424Y-107380233D01*
X197729186Y-107332614D01*
X197538710Y-107284995D01*
X197395852Y-107284995D01*
X197205376Y-107332614D01*
X197110138Y-107380233D01*
X197014900Y-107475471D01*
X196967281Y-107618329D01*
X196967281Y-107713567D01*
X197014900Y-107856424D01*
X197062519Y-107904043D01*
X197300614Y-108761186D02*
X197967281Y-108761186D01*
X196919662Y-108523090D02*
X197633948Y-108284995D01*
X197633948Y-108904043D01*
X197062519Y-109237376D02*
X197014900Y-109284995D01*
X196967281Y-109380233D01*
X196967281Y-109618329D01*
X197014900Y-109713567D01*
X197062519Y-109761186D01*
X197157757Y-109808805D01*
X197252995Y-109808805D01*
X197395852Y-109761186D01*
X197967281Y-109189757D01*
X197967281Y-109808805D01*
X183588243Y-84980543D02*
X183635862Y-84932924D01*
X183683481Y-84790067D01*
X183683481Y-84694829D01*
X183635862Y-84551971D01*
X183540624Y-84456733D01*
X183445386Y-84409114D01*
X183254910Y-84361495D01*
X183112052Y-84361495D01*
X182921576Y-84409114D01*
X182826338Y-84456733D01*
X182731100Y-84551971D01*
X182683481Y-84694829D01*
X182683481Y-84790067D01*
X182731100Y-84932924D01*
X182778719Y-84980543D01*
X183112052Y-85551971D02*
X183064433Y-85456733D01*
X183016814Y-85409114D01*
X182921576Y-85361495D01*
X182873957Y-85361495D01*
X182778719Y-85409114D01*
X182731100Y-85456733D01*
X182683481Y-85551971D01*
X182683481Y-85742448D01*
X182731100Y-85837686D01*
X182778719Y-85885305D01*
X182873957Y-85932924D01*
X182921576Y-85932924D01*
X183016814Y-85885305D01*
X183064433Y-85837686D01*
X183112052Y-85742448D01*
X183112052Y-85551971D01*
X183159671Y-85456733D01*
X183207290Y-85409114D01*
X183302529Y-85361495D01*
X183493005Y-85361495D01*
X183588243Y-85409114D01*
X183635862Y-85456733D01*
X183683481Y-85551971D01*
X183683481Y-85742448D01*
X183635862Y-85837686D01*
X183588243Y-85885305D01*
X183493005Y-85932924D01*
X183302529Y-85932924D01*
X183207290Y-85885305D01*
X183159671Y-85837686D01*
X183112052Y-85742448D01*
X182683481Y-86551971D02*
X182683481Y-86647210D01*
X182731100Y-86742448D01*
X182778719Y-86790067D01*
X182873957Y-86837686D01*
X183064433Y-86885305D01*
X183302529Y-86885305D01*
X183493005Y-86837686D01*
X183588243Y-86790067D01*
X183635862Y-86742448D01*
X183683481Y-86647210D01*
X183683481Y-86551971D01*
X183635862Y-86456733D01*
X183588243Y-86409114D01*
X183493005Y-86361495D01*
X183302529Y-86313876D01*
X183064433Y-86313876D01*
X182873957Y-86361495D01*
X182778719Y-86409114D01*
X182731100Y-86456733D01*
X182683481Y-86551971D01*
X189646143Y-85018643D02*
X189693762Y-84971024D01*
X189741381Y-84828167D01*
X189741381Y-84732929D01*
X189693762Y-84590071D01*
X189598524Y-84494833D01*
X189503286Y-84447214D01*
X189312810Y-84399595D01*
X189169952Y-84399595D01*
X188979476Y-84447214D01*
X188884238Y-84494833D01*
X188789000Y-84590071D01*
X188741381Y-84732929D01*
X188741381Y-84828167D01*
X188789000Y-84971024D01*
X188836619Y-85018643D01*
X189169952Y-85590071D02*
X189122333Y-85494833D01*
X189074714Y-85447214D01*
X188979476Y-85399595D01*
X188931857Y-85399595D01*
X188836619Y-85447214D01*
X188789000Y-85494833D01*
X188741381Y-85590071D01*
X188741381Y-85780548D01*
X188789000Y-85875786D01*
X188836619Y-85923405D01*
X188931857Y-85971024D01*
X188979476Y-85971024D01*
X189074714Y-85923405D01*
X189122333Y-85875786D01*
X189169952Y-85780548D01*
X189169952Y-85590071D01*
X189217571Y-85494833D01*
X189265190Y-85447214D01*
X189360429Y-85399595D01*
X189550905Y-85399595D01*
X189646143Y-85447214D01*
X189693762Y-85494833D01*
X189741381Y-85590071D01*
X189741381Y-85780548D01*
X189693762Y-85875786D01*
X189646143Y-85923405D01*
X189550905Y-85971024D01*
X189360429Y-85971024D01*
X189265190Y-85923405D01*
X189217571Y-85875786D01*
X189169952Y-85780548D01*
X189741381Y-86923405D02*
X189741381Y-86351976D01*
X189741381Y-86637690D02*
X188741381Y-86637690D01*
X188884238Y-86542452D01*
X188979476Y-86447214D01*
X189027095Y-86351976D01*
X140732783Y-62897783D02*
X140780402Y-62850164D01*
X140828021Y-62707307D01*
X140828021Y-62612069D01*
X140780402Y-62469211D01*
X140685164Y-62373973D01*
X140589926Y-62326354D01*
X140399450Y-62278735D01*
X140256592Y-62278735D01*
X140066116Y-62326354D01*
X139970878Y-62373973D01*
X139875640Y-62469211D01*
X139828021Y-62612069D01*
X139828021Y-62707307D01*
X139875640Y-62850164D01*
X139923259Y-62897783D01*
X140828021Y-63850164D02*
X140828021Y-63278735D01*
X140828021Y-63564449D02*
X139828021Y-63564449D01*
X139970878Y-63469211D01*
X140066116Y-63373973D01*
X140113735Y-63278735D01*
X139828021Y-64469211D02*
X139828021Y-64564450D01*
X139875640Y-64659688D01*
X139923259Y-64707307D01*
X140018497Y-64754926D01*
X140208973Y-64802545D01*
X140447069Y-64802545D01*
X140637545Y-64754926D01*
X140732783Y-64707307D01*
X140780402Y-64659688D01*
X140828021Y-64564450D01*
X140828021Y-64469211D01*
X140780402Y-64373973D01*
X140732783Y-64326354D01*
X140637545Y-64278735D01*
X140447069Y-64231116D01*
X140208973Y-64231116D01*
X140018497Y-64278735D01*
X139923259Y-64326354D01*
X139875640Y-64373973D01*
X139828021Y-64469211D01*
X141247169Y-59761168D02*
X141247169Y-60523073D01*
X141628121Y-60142121D02*
X140866216Y-60142121D01*
M02*
