M48
;DRILL file {kicad (2014-10-27 BZR 5228)-product} date 22/01/2015 08:27:12
;FORMAT={3:3/ absolute / metric / keep zeros}
FMAT,2
METRIC,TZ
T1C0.635
T2C0.813
T3C0.900
T4C1.001
T5C1.016
T6C1.500
T7C4.000
T8C5.999
%
G90
G05
M71
T1
X100900Y-123300
X105100Y-131900
X108356Y-083795
X109500Y-131900
X110900Y-111900
X113000Y-129300
X114681Y-072657
X114757Y-079362
X115000Y-051500
X115000Y-148500
X116900Y-088600
X117100Y-106400
X117700Y-135400
X117900Y-137000
X118100Y-123700
X118200Y-112200
X118200Y-125700
X118273Y-083744
X118300Y-143800
X118300Y-146000
X118500Y-103500
X118600Y-114800
X119200Y-135300
X119500Y-097100
X119600Y-102000
X120000Y-051500
X120000Y-148500
X120500Y-125200
X120600Y-115500
X121000Y-141800
X121000Y-144800
X124000Y-137500
X124100Y-133700
X124200Y-136200
X124400Y-115300
X124700Y-126500
X125000Y-051500
X125000Y-148500
X125400Y-106500
X126300Y-111700
X126300Y-115000
X126800Y-125600
X126900Y-123500
X127500Y-106500
X127700Y-139000
X128900Y-148500
X130000Y-051500
X131400Y-108100
X131400Y-128800
X132500Y-139100
X132700Y-133300
X134600Y-105200
X135000Y-051500
X135000Y-119300
X135000Y-148500
X139900Y-090500
X140000Y-148500
X141000Y-098900
X143100Y-093300
X143200Y-121600
X144600Y-141800
X145000Y-148500
X145800Y-118100
X149400Y-122500
X149500Y-118200
X149500Y-120800
X150000Y-110100
X150000Y-148500
X150200Y-124500
X150500Y-119200
X151700Y-079500
X152000Y-116500
X152000Y-129100
X154200Y-105900
X154200Y-121200
X154700Y-102500
X154700Y-114500
X155000Y-130700
X155000Y-134200
X155000Y-148500
X157400Y-098000
X157500Y-109400
X157500Y-118300
X157600Y-129000
X157900Y-079600
X159900Y-105900
X160000Y-051500
X160000Y-148500
X160100Y-103600
X160900Y-101200
X161000Y-096200
X161000Y-099600
X161000Y-102500
X162300Y-064900
X162300Y-081400
X162700Y-113500
X163100Y-102500
X163300Y-097100
X163600Y-104500
X163600Y-137000
X164300Y-113500
X164500Y-105700
X164600Y-111700
X164700Y-092800
X165000Y-051500
X165000Y-148500
X166000Y-087400
X166500Y-115700
X168300Y-104900
X168600Y-072200
X170000Y-051500
X170000Y-148500
X175000Y-051500
X175000Y-148500
X178400Y-088900
X178500Y-085600
X180000Y-051500
X180000Y-148500
X180100Y-134600
X182000Y-118200
X183000Y-131900
X185000Y-051600
X185000Y-148500
T2
X117170Y-062128
X117170Y-064668
X117170Y-067208
X152603Y-082207
X152603Y-084747
X152603Y-087287
X152603Y-089827
X152603Y-092367
X160223Y-082207
X160223Y-084747
X160223Y-087287
X160223Y-089827
X160223Y-092367
X168590Y-059520
X168590Y-062060
X168590Y-064600
X168590Y-067140
X168590Y-069680
X168590Y-074920
X168590Y-077460
X168590Y-080000
X168590Y-082540
X168590Y-085080
X168690Y-091320
X168690Y-093860
X168690Y-096400
X168690Y-098940
X168690Y-101480
X168790Y-107920
X168790Y-110460
X168790Y-113000
X168790Y-115540
X168790Y-118080
X168790Y-123420
X168790Y-125960
X168790Y-128500
X168790Y-131040
X168790Y-133580
X176210Y-059520
X176210Y-062060
X176210Y-064600
X176210Y-067140
X176210Y-069680
X176210Y-074920
X176210Y-077460
X176210Y-080000
X176210Y-082540
X176210Y-085080
X176310Y-091320
X176310Y-093860
X176310Y-096400
X176310Y-098940
X176310Y-101480
X176410Y-107920
X176410Y-110460
X176410Y-113000
X176410Y-115540
X176410Y-118080
X176410Y-123420
X176410Y-125960
X176410Y-128500
X176410Y-131040
X176410Y-133580
X177620Y-137290
X177620Y-144910
X180160Y-137290
X180160Y-144910
X182700Y-137290
X182700Y-144910
X185240Y-137290
X185240Y-144910
X187780Y-137290
X187780Y-144910
T3
X120300Y-086760
X120300Y-089300
X122840Y-086760
X122840Y-089300
X125380Y-086760
X125380Y-089300
X127920Y-086760
X127920Y-089300
X130460Y-086760
X130460Y-089300
X133000Y-086760
X133000Y-089300
T4
X107700Y-102801
X107700Y-107802
X127660Y-055900
X130200Y-055900
X132740Y-055900
X135400Y-102298
X135400Y-107299
X142392Y-071641
X142392Y-077229
X156197Y-071704
X156197Y-077292
X160376Y-054917
X160376Y-065077
X180104Y-096796
X180204Y-112796
X180304Y-064396
X180304Y-079396
X181308Y-127804
X185692Y-096796
X185792Y-112796
X185892Y-064396
X185892Y-079396
X186896Y-127804
X190304Y-096996
X190404Y-112896
X190504Y-064396
X190504Y-127896
X190704Y-079396
X195892Y-096996
X195992Y-112896
X196092Y-064396
X196092Y-127896
X196292Y-079396
T5
X102900Y-068130
X102900Y-070670
X103035Y-079007
X103035Y-081547
X123630Y-078900
X126170Y-078900
X130645Y-079248
X130645Y-081788
X135903Y-081140
X135903Y-083680
X138443Y-081140
X138443Y-083680
X138582Y-059976
X138582Y-067976
T6
X138582Y-055976
X138582Y-063976
T7
X104200Y-145800
X104300Y-054300
X104400Y-092400
X146400Y-084100
X146600Y-053800
X195600Y-054300
X195600Y-145700
T8
X130200Y-071200
T0
M30
