%FSLAX46Y46*%
G04 Gerber Fmt 4.6, Leading zero omitted, Abs format (unit mm)*
G04 Created by KiCad (PCBNEW (2014-10-27 BZR 5228)-product) date 13/01/2015 07:56:56*
%MOMM*%
G01*
G04 APERTURE LIST*
%ADD10C,0.100000*%
%ADD11R,1.800860X2.499360*%
%ADD12R,2.499360X1.800860*%
%ADD13C,1.998980*%
%ADD14R,2.032000X2.032000*%
%ADD15O,2.032000X2.032000*%
%ADD16R,1.727200X1.727200*%
%ADD17O,1.727200X1.727200*%
%ADD18R,2.235200X2.235200*%
%ADD19R,2.032000X1.727200*%
%ADD20O,2.032000X1.727200*%
%ADD21R,1.000760X0.599440*%
%ADD22O,1.699260X3.500120*%
%ADD23R,0.299720X1.300480*%
%ADD24R,1.950000X0.600000*%
%ADD25R,0.600000X1.950000*%
%ADD26C,1.524000*%
%ADD27R,1.550000X0.600000*%
%ADD28C,2.540000*%
%ADD29C,1.727200*%
%ADD30R,1.397000X1.397000*%
%ADD31C,1.397000*%
%ADD32R,1.250000X1.000000*%
%ADD33R,1.000000X1.250000*%
%ADD34R,1.198880X1.600200*%
%ADD35R,1.600200X1.198880*%
%ADD36R,0.700000X1.300000*%
%ADD37R,1.300000X0.700000*%
%ADD38R,2.700020X2.550160*%
G04 APERTURE END LIST*
D10*
D11*
X104600000Y-117898980D03*
X104600000Y-113901020D03*
X108600000Y-117898980D03*
X108600000Y-113901020D03*
D12*
X105601020Y-121500000D03*
X109598980Y-121500000D03*
D11*
X108400000Y-125201020D03*
X108400000Y-129198980D03*
X104300000Y-125001020D03*
X104300000Y-128998980D03*
X140100000Y-125501020D03*
X140100000Y-129498980D03*
X140400000Y-117098980D03*
X140400000Y-113101020D03*
X136400000Y-117198980D03*
X136400000Y-113201020D03*
D12*
X139298980Y-121200000D03*
X135301020Y-121200000D03*
D11*
X136200000Y-125701020D03*
X136200000Y-129698980D03*
D13*
X160375600Y-54917340D03*
X160375600Y-65077340D03*
X142392400Y-77228700D03*
X142392400Y-71640700D03*
X156197300Y-77292200D03*
X156197300Y-71704200D03*
X196092000Y-64396000D03*
X190504000Y-64396000D03*
X196292000Y-79396000D03*
X190704000Y-79396000D03*
X195892000Y-96996000D03*
X190304000Y-96996000D03*
X185784000Y-129363000D03*
X180196000Y-129363000D03*
X195992000Y-112896000D03*
X190404000Y-112896000D03*
X185892000Y-64396000D03*
X180304000Y-64396000D03*
X185892000Y-79396000D03*
X180304000Y-79396000D03*
X185692000Y-96796000D03*
X180104000Y-96796000D03*
X195984000Y-129263000D03*
X190396000Y-129263000D03*
X185792000Y-112796000D03*
X180204000Y-112796000D03*
D14*
X130644900Y-81788000D03*
D15*
X130644900Y-79248000D03*
D14*
X123530000Y-75900000D03*
D15*
X126070000Y-75900000D03*
D16*
X125350000Y-91430000D03*
D17*
X125350000Y-93970000D03*
X122810000Y-91430000D03*
X122810000Y-93970000D03*
X120270000Y-91430000D03*
X120270000Y-93970000D03*
X117730000Y-91430000D03*
X117730000Y-93970000D03*
X115190000Y-91430000D03*
X115190000Y-93970000D03*
X112650000Y-91430000D03*
X112650000Y-93970000D03*
D14*
X107391200Y-69227700D03*
D15*
X109931200Y-69227700D03*
D14*
X103035100Y-81546700D03*
D15*
X103035100Y-79006700D03*
D18*
X121600000Y-83400000D03*
D19*
X103136700Y-60198000D03*
D20*
X103136700Y-62738000D03*
X103136700Y-65278000D03*
X103136700Y-67818000D03*
D21*
X130743360Y-74547500D03*
X132856640Y-75500000D03*
X130743360Y-76452500D03*
D22*
X130200000Y-55900000D03*
X132740000Y-55900000D03*
X127660000Y-55900000D03*
D13*
X107700000Y-102800640D03*
X107700000Y-107801900D03*
X135400000Y-107299360D03*
X135400000Y-102298100D03*
D16*
X135902700Y-81140300D03*
D17*
X135902700Y-83680300D03*
X138442700Y-81140300D03*
X138442700Y-83680300D03*
D23*
X133830400Y-88006000D03*
X133195400Y-88006000D03*
X132535000Y-88006000D03*
X131900000Y-88006000D03*
X131239600Y-88006000D03*
X130591900Y-88006000D03*
X129944200Y-88006000D03*
X129944200Y-93594000D03*
X130591900Y-93594000D03*
X131239600Y-93594000D03*
X131900000Y-93594000D03*
X132547700Y-93594000D03*
X133195400Y-93594000D03*
X133843100Y-93594000D03*
X142392400Y-91160600D03*
X141757400Y-91160600D03*
X141097000Y-91160600D03*
X140462000Y-91160600D03*
X139801600Y-91160600D03*
X139153900Y-91160600D03*
X138506200Y-91160600D03*
X138506200Y-96748600D03*
X139153900Y-96748600D03*
X139801600Y-96748600D03*
X140462000Y-96748600D03*
X141109700Y-96748600D03*
X141757400Y-96748600D03*
X142405100Y-96748600D03*
D24*
X147496800Y-114300000D03*
X147496800Y-115570000D03*
X147496800Y-116840000D03*
X147496800Y-118110000D03*
X147496800Y-119380000D03*
X147496800Y-120650000D03*
X147496800Y-121920000D03*
X147496800Y-123190000D03*
X147496800Y-124460000D03*
X147496800Y-125730000D03*
X156896800Y-125730000D03*
X156896800Y-124460000D03*
X156896800Y-123190000D03*
X156896800Y-121920000D03*
X156896800Y-120650000D03*
X156896800Y-119380000D03*
X156896800Y-118110000D03*
X156896800Y-116840000D03*
X156896800Y-115570000D03*
X156896800Y-114300000D03*
X146963400Y-96215200D03*
X146963400Y-97485200D03*
X146963400Y-98755200D03*
X146963400Y-100025200D03*
X146963400Y-101295200D03*
X146963400Y-102565200D03*
X146963400Y-103835200D03*
X146963400Y-105105200D03*
X146963400Y-106375200D03*
X146963400Y-107645200D03*
X156363400Y-107645200D03*
X156363400Y-106375200D03*
X156363400Y-105105200D03*
X156363400Y-103835200D03*
X156363400Y-102565200D03*
X156363400Y-101295200D03*
X156363400Y-100025200D03*
X156363400Y-98755200D03*
X156363400Y-97485200D03*
X156363400Y-96215200D03*
D25*
X145915000Y-134600000D03*
X144645000Y-134600000D03*
X143375000Y-134600000D03*
X142105000Y-134600000D03*
X140835000Y-134600000D03*
X139565000Y-134600000D03*
X138295000Y-134600000D03*
X137025000Y-134600000D03*
X135755000Y-134600000D03*
X134485000Y-134600000D03*
X134485000Y-144000000D03*
X135755000Y-144000000D03*
X137025000Y-144000000D03*
X138295000Y-144000000D03*
X139565000Y-144000000D03*
X140835000Y-144000000D03*
X142105000Y-144000000D03*
X143375000Y-144000000D03*
X144645000Y-144000000D03*
X145915000Y-144000000D03*
X149685000Y-144000000D03*
X150955000Y-144000000D03*
X152225000Y-144000000D03*
X153495000Y-144000000D03*
X154765000Y-144000000D03*
X156035000Y-144000000D03*
X157305000Y-144000000D03*
X158575000Y-144000000D03*
X159845000Y-144000000D03*
X161115000Y-144000000D03*
X161115000Y-134600000D03*
X159845000Y-134600000D03*
X158575000Y-134600000D03*
X157305000Y-134600000D03*
X156035000Y-134600000D03*
X154765000Y-134600000D03*
X153495000Y-134600000D03*
X152225000Y-134600000D03*
X150955000Y-134600000D03*
X149685000Y-134600000D03*
D26*
X117170200Y-64668400D03*
X117170200Y-62128400D03*
X117170200Y-67208400D03*
D16*
X182968900Y-141566900D03*
D17*
X182968900Y-144106900D03*
X180428900Y-141566900D03*
X180428900Y-144106900D03*
X177888900Y-141566900D03*
X177888900Y-144106900D03*
X175348900Y-141566900D03*
X175348900Y-144106900D03*
X172808900Y-141566900D03*
X172808900Y-144106900D03*
D19*
X160909000Y-96723200D03*
D20*
X160909000Y-99263200D03*
X160909000Y-101803200D03*
X160909000Y-104343200D03*
X160909000Y-106883200D03*
X160909000Y-109423200D03*
X160909000Y-111963200D03*
X160909000Y-114503200D03*
D27*
X114635300Y-74091800D03*
X114635300Y-75361800D03*
X114635300Y-76631800D03*
X114635300Y-77901800D03*
X120035300Y-77901800D03*
X120035300Y-76631800D03*
X120035300Y-75361800D03*
X120035300Y-74091800D03*
D28*
X138582400Y-55976000D03*
D29*
X138582400Y-59976000D03*
D28*
X138582400Y-63976000D03*
D29*
X138582400Y-67976000D03*
D30*
X152603200Y-82207100D03*
D31*
X152603200Y-84747100D03*
X152603200Y-87287100D03*
X152603200Y-89827100D03*
X152603200Y-92367100D03*
X160223200Y-92367100D03*
X160223200Y-89827100D03*
X160223200Y-87287100D03*
X160223200Y-84747100D03*
X160223200Y-82207100D03*
D30*
X168590000Y-59520000D03*
D31*
X168590000Y-62060000D03*
X168590000Y-64600000D03*
X168590000Y-67140000D03*
X168590000Y-69680000D03*
X176210000Y-69680000D03*
X176210000Y-67140000D03*
X176210000Y-64600000D03*
X176210000Y-62060000D03*
X176210000Y-59520000D03*
D30*
X168590000Y-74920000D03*
D31*
X168590000Y-77460000D03*
X168590000Y-80000000D03*
X168590000Y-82540000D03*
X168590000Y-85080000D03*
X176210000Y-85080000D03*
X176210000Y-82540000D03*
X176210000Y-80000000D03*
X176210000Y-77460000D03*
X176210000Y-74920000D03*
D30*
X168690000Y-91320000D03*
D31*
X168690000Y-93860000D03*
X168690000Y-96400000D03*
X168690000Y-98940000D03*
X168690000Y-101480000D03*
X176310000Y-101480000D03*
X176310000Y-98940000D03*
X176310000Y-96400000D03*
X176310000Y-93860000D03*
X176310000Y-91320000D03*
D30*
X168790000Y-107920000D03*
D31*
X168790000Y-110460000D03*
X168790000Y-113000000D03*
X168790000Y-115540000D03*
X168790000Y-118080000D03*
X176410000Y-118080000D03*
X176410000Y-115540000D03*
X176410000Y-113000000D03*
X176410000Y-110460000D03*
X176410000Y-107920000D03*
D30*
X168990000Y-124320000D03*
D31*
X168990000Y-126860000D03*
X168990000Y-129400000D03*
X168990000Y-131940000D03*
X168990000Y-134480000D03*
X176610000Y-134480000D03*
X176610000Y-131940000D03*
X176610000Y-129400000D03*
X176610000Y-126860000D03*
X176610000Y-124320000D03*
D32*
X121196100Y-68227700D03*
X121196100Y-70227700D03*
D33*
X114671600Y-83769200D03*
X116671600Y-83769200D03*
X125400000Y-71600000D03*
X123400000Y-71600000D03*
D32*
X103100000Y-104000000D03*
X103100000Y-102000000D03*
D33*
X115100000Y-105000000D03*
X117100000Y-105000000D03*
X114900000Y-114600000D03*
X116900000Y-114600000D03*
X130500000Y-125600000D03*
X128500000Y-125600000D03*
X114300000Y-136900000D03*
X116300000Y-136900000D03*
X115000000Y-144700000D03*
X117000000Y-144700000D03*
X115200000Y-102700000D03*
X117200000Y-102700000D03*
X114700000Y-112000000D03*
X116700000Y-112000000D03*
X114500000Y-123400000D03*
X116500000Y-123400000D03*
X114300000Y-134400000D03*
X116300000Y-134400000D03*
X115000000Y-142600000D03*
X117000000Y-142600000D03*
X120700000Y-100200000D03*
X118700000Y-100200000D03*
X120400000Y-109600000D03*
X118400000Y-109600000D03*
X120200000Y-121300000D03*
X118200000Y-121300000D03*
X120200000Y-131400000D03*
X118200000Y-131400000D03*
X125000000Y-140200000D03*
X123000000Y-140200000D03*
X124500000Y-144800000D03*
X122500000Y-144800000D03*
D32*
X125400000Y-102300000D03*
X125400000Y-104300000D03*
X124500000Y-111600000D03*
X124500000Y-113600000D03*
X124700000Y-123100000D03*
X124700000Y-125100000D03*
D33*
X120100000Y-133500000D03*
X118100000Y-133500000D03*
X124500000Y-142500000D03*
X122500000Y-142500000D03*
X131300000Y-100300000D03*
X129300000Y-100300000D03*
X129900000Y-109400000D03*
X127900000Y-109400000D03*
X132500000Y-121200000D03*
X130500000Y-121200000D03*
X129800000Y-129200000D03*
X127800000Y-129200000D03*
X129500000Y-104900000D03*
X127500000Y-104900000D03*
X129800000Y-114400000D03*
X127800000Y-114400000D03*
X114500000Y-125700000D03*
X116500000Y-125700000D03*
X127700000Y-136100000D03*
X125700000Y-136100000D03*
X129400000Y-102400000D03*
X127400000Y-102400000D03*
X129800000Y-111600000D03*
X127800000Y-111600000D03*
X130500000Y-123400000D03*
X128500000Y-123400000D03*
X127800000Y-133700000D03*
X125800000Y-133700000D03*
D32*
X140800000Y-101700000D03*
X140800000Y-103700000D03*
D33*
X120100000Y-129200000D03*
X118100000Y-129200000D03*
X129800000Y-131400000D03*
X127800000Y-131400000D03*
D34*
X103200000Y-106699140D03*
X103200000Y-110300860D03*
X112500000Y-102599140D03*
X112500000Y-106200860D03*
X112700000Y-111999140D03*
X112700000Y-115600860D03*
X112400000Y-123499140D03*
X112400000Y-127100860D03*
X112400000Y-133499140D03*
X112400000Y-137100860D03*
X112600000Y-142499140D03*
X112600000Y-146100860D03*
D35*
X112599140Y-100200000D03*
X116200860Y-100200000D03*
X112699140Y-109700000D03*
X116300860Y-109700000D03*
X112399140Y-121400000D03*
X116000860Y-121400000D03*
X112599140Y-131400000D03*
X116200860Y-131400000D03*
X112699140Y-140400000D03*
X116300860Y-140400000D03*
D34*
X123000000Y-102699140D03*
X123000000Y-106300860D03*
X122400000Y-111799140D03*
X122400000Y-115400860D03*
X122200000Y-121399140D03*
X122200000Y-125000860D03*
X122200000Y-133599140D03*
X122200000Y-137200860D03*
X126800000Y-142599140D03*
X126800000Y-146200860D03*
D35*
X123299140Y-100300000D03*
X126900860Y-100300000D03*
X122399140Y-109500000D03*
X126000860Y-109500000D03*
X124599140Y-121300000D03*
X128200860Y-121300000D03*
X122199140Y-131400000D03*
X125800860Y-131400000D03*
D34*
X131200000Y-102599140D03*
X131200000Y-106200860D03*
X132100000Y-111799140D03*
X132100000Y-115400860D03*
X132400000Y-123399140D03*
X132400000Y-127000860D03*
X129700000Y-133499140D03*
X129700000Y-137100860D03*
X140800000Y-106199140D03*
X140800000Y-109800860D03*
D36*
X125650000Y-79700000D03*
X123750000Y-79700000D03*
X125350000Y-60600000D03*
X123450000Y-60600000D03*
D37*
X120967500Y-62067400D03*
X120967500Y-63967400D03*
D36*
X116456500Y-81076800D03*
X114556500Y-81076800D03*
X145150000Y-69500000D03*
X147050000Y-69500000D03*
D37*
X120100000Y-147350000D03*
X120100000Y-145450000D03*
X119600000Y-138950000D03*
X119600000Y-137050000D03*
X119500000Y-127050000D03*
X119500000Y-125150000D03*
X119700000Y-117250000D03*
X119700000Y-115350000D03*
X120100000Y-105650000D03*
X120100000Y-103750000D03*
D38*
X108407200Y-81013300D03*
X108407200Y-74663300D03*
M02*
